<?xml version="1.0" encoding="UTF-8" standalone="no"?>
<svg
   xmlns:dc="http://purl.org/dc/elements/1.1/"
   xmlns:cc="http://creativecommons.org/ns#"
   xmlns:rdf="http://www.w3.org/1999/02/22-rdf-syntax-ns#"
   xmlns:svg="http://www.w3.org/2000/svg"
   xmlns="http://www.w3.org/2000/svg"
   xmlns:sodipodi="http://sodipodi.sourceforge.net/DTD/sodipodi-0.dtd"
   xmlns:inkscape="http://www.inkscape.org/namespaces/inkscape"
   width="146px"
   height="58px"
   viewBox="0 0 146 58"
   style="background-color: #ffffff00"
   version="1.1"
   id="svg56"
   sodipodi:docname="amidoester-dime.svg"
   inkscape:version="0.92.4 (5da689c313, 2019-01-14)">
  <metadata
     id="metadata62">
    <rdf:RDF>
      <cc:Work
         rdf:about="">
        <dc:format>image/svg+xml</dc:format>
        <dc:type
           rdf:resource="http://purl.org/dc/dcmitype/StillImage" />
      </cc:Work>
    </rdf:RDF>
  </metadata>
  <defs
     id="defs60" />
  <sodipodi:namedview
     pagecolor="#ffffff"
     bordercolor="#666666"
     borderopacity="1"
     objecttolerance="10"
     gridtolerance="10"
     guidetolerance="10"
     inkscape:pageopacity="0"
     inkscape:pageshadow="2"
     inkscape:window-width="741"
     inkscape:window-height="480"
     id="namedview58"
     showgrid="false"
     inkscape:zoom="2.3493151"
     inkscape:cx="20.005831"
     inkscape:cy="29"
     inkscape:window-x="0"
     inkscape:window-y="0"
     inkscape:window-maximized="0"
     inkscape:current-layer="svg56" />
  <path
     stroke="none"
     fill="#000000"
     transform="matrix(0.0666667 0 0 0.0666667 -26.9114 -69)"
     d="M 1238.49,1359.93 L 1248.7,1359.93 L 1248.7,1511.39 L 1238.49,1511.39 L 1238.49,1359.93 Z "
     id="path2" />
  <path
     stroke="none"
     fill="#000000"
     transform="matrix(0.0666667 0 0 0.0666667 -26.9114 -69)"
     d="M 1279.92,1359.93 L 1290.13,1359.93 L 1290.13,1511.39 L 1279.92,1511.39 L 1279.92,1359.93 Z "
     id="path4" />
  <g
     aria-label="O"
     transform="matrix(0.0666667,0,0,0.0666667,53.2276,19.8174)"
     style="font-style:normal;font-weight:normal;font-size:160px;font-family:Arial;fill:#000000;stroke:none"
     id="text6">
    <path
       d="m 7.734375,-55.78125 q 0,-28.515625 15.3125,-44.60938 15.3125,-16.17187 39.53125,-16.17187 15.859375,0 28.59375,7.57812 12.734375,7.57813 19.375005,21.17188 6.71875,13.515625 6.71875,30.703125 0,17.421875 -7.03125,31.171875 -7.03125,13.75 -19.92188,20.859375 -12.890625,7.03125 -27.8125,7.03125 -16.171875,0 -28.90625,-7.8125 -12.734375,-7.8125 -19.296875,-21.328125 -6.5625,-13.515625 -6.5625,-28.59375 z m 15.625,0.234375 q 0,20.703125 11.09375,32.65625 11.171875,11.875 27.96875,11.875 17.109375,0 28.125,-12.03125 11.093755,-12.03125 11.093755,-34.140625 0,-13.984375 -4.76563,-24.375 -4.6875,-10.46875 -13.828125,-16.171875 -9.0625,-5.781255 -20.390625,-5.781255 -16.09375,0 -27.734375,11.093755 -11.5625,11.015625 -11.5625,36.875 z"
       style="font-style:normal;font-weight:normal;font-size:160px;font-family:Arial;fill:#000000;stroke:none"
       id="path869"
       inkscape:connector-curvature="0" />
  </g>
  <path
     stroke="none"
     fill="#000000"
     transform="matrix(0.0666667 0 0 0.0666667 -26.9114 -69)"
     d="M 1264.31,1505.33 L 1264.31,1493.54 L 1388.02,1564.96 L 1382.91,1573.8 L 1264.31,1505.33 Z "
     id="path8" />
  <path
     stroke="none"
     fill="#000000"
     transform="matrix(0.0666667 0 0 0.0666667 -26.9114 -69)"
     d="M 1064.97,1624.72 L 1064.97,1614.52 L 1071.94,1616.39 L 1184.39,1811.15 L 1175.56,1816.26 L 1064.97,1624.72 Z "
     id="path10" />
  <path
     stroke="none"
     fill="#000000"
     transform="matrix(0.0666667 0 0 0.0666667 -26.9114 -69)"
     d="M 1071.94,1616.39 L 1064.97,1614.52 L 1064.97,1608.63 L 1264.31,1493.54 L 1264.31,1505.33 L 1071.94,1616.39 Z "
     id="path12" />
  <path
     stroke="none"
     fill="#000000"
     transform="matrix(0.0666667 0 0 0.0666667 -26.9114 -69)"
     d="M 954.393,1816.26 L 945.556,1811.15 L 1058,1616.39 L 1064.97,1614.52 L 1064.97,1624.72 L 954.393,1816.26 Z "
     id="path14" />
  <path
     stroke="none"
     fill="#000000"
     transform="matrix(0.0666667 0 0 0.0666667 -26.9114 -69)"
     d="M 839.821,1359.93 L 850.026,1359.93 L 850.026,1511.39 L 839.821,1511.39 L 839.821,1359.93 Z "
     id="path16" />
  <path
     stroke="none"
     fill="#000000"
     transform="matrix(0.0666667 0 0 0.0666667 -26.9114 -69)"
     d="M 881.253,1359.93 L 891.457,1359.93 L 891.457,1511.39 L 881.252,1511.39 L 881.253,1359.93 Z "
     id="path18" />
  <g
     aria-label="O"
     transform="matrix(0.0666667,0,0,0.0666667,26.6495,19.8173)"
     style="font-style:normal;font-weight:normal;font-size:160px;font-family:Arial;fill:#000000;stroke:none"
     id="text20">
    <path
       d="m 7.734375,-55.78125 q 0,-28.515625 15.3125,-44.60938 15.3125,-16.17187 39.53125,-16.17187 15.859375,0 28.59375,7.57812 12.734375,7.57813 19.375005,21.17188 6.71875,13.515625 6.71875,30.703125 0,17.421875 -7.03125,31.171875 -7.03125,13.75 -19.92188,20.859375 -12.890625,7.03125 -27.8125,7.03125 -16.171875,0 -28.90625,-7.8125 -12.734375,-7.8125 -19.296875,-21.328125 -6.5625,-13.515625 -6.5625,-28.59375 z m 15.625,0.234375 q 0,20.703125 11.09375,32.65625 11.171875,11.875 27.96875,11.875 17.109375,0 28.125,-12.03125 11.093755,-12.03125 11.093755,-34.140625 0,-13.984375 -4.76563,-24.375 -4.6875,-10.46875 -13.828125,-16.171875 -9.0625,-5.781255 -20.390625,-5.781255 -16.09375,0 -27.734375,11.093755 -11.5625,11.015625 -11.5625,36.875 z"
       style="font-style:normal;font-weight:normal;font-size:160px;font-family:Arial;fill:#000000;stroke:none"
       id="path872"
       inkscape:connector-curvature="0" />
  </g>
  <g
     aria-label="N"
     transform="matrix(0.0666667,0,0,0.0666667,66.8135,42.8347)"
     style="font-style:normal;font-weight:normal;font-size:160px;font-family:Arial;fill:#000000;stroke:none"
     id="text22">
    <path
       d="m 12.1875,0 v -114.53125 h 15.546875 l 60.15625,89.921875 V -114.53125 H 102.42188 V 0 H 86.875 L 26.71875,-90 V 0 Z"
       style="font-style:normal;font-weight:normal;font-size:160px;font-family:Arial;fill:#000000;stroke:none"
       id="path875"
       inkscape:connector-curvature="0" />
  </g>
  <g
     aria-label="H"
     transform="matrix(0.0666667,0,0,0.0666667,66.8135,53.5014)"
     style="font-style:normal;font-weight:normal;font-size:160px;font-family:Arial;fill:#000000;stroke:none"
     id="text24">
    <path
       d="M 12.8125,0 V -114.53125 H 27.96875 V -67.5 H 87.5 v -47.03125 h 15.15625 V 0 H 87.5 V -53.984375 H 27.96875 V 0 Z"
       style="font-style:normal;font-weight:normal;font-size:160px;font-family:Arial;fill:#000000;stroke:none"
       id="path878"
       inkscape:connector-curvature="0" />
  </g>
  <path
     stroke="none"
     fill="#000000"
     transform="matrix(0.0666667 0 0 0.0666667 -26.9114 -69)"
     d="M 737.091,1579.54 L 731.989,1570.7 L 865.639,1493.54 L 865.639,1505.32 L 737.091,1579.54 Z "
     id="path26" />
  <g
     aria-label="EtO"
     transform="matrix(0.0666667,0,0,0.0666667,3.28227,42.8346)"
     style="font-style:normal;font-weight:normal;font-size:160px;font-family:Arial;fill:#000000;stroke:none"
     id="text28">
    <path
       d="m 12.65625,0 v -114.53125 h 82.8125 v 13.51562 H 27.8125 V -65.9375 H 91.171875 V -52.5 H 27.8125 v 38.984375 H 98.125 V 0 Z"
       style="font-style:normal;font-weight:normal;font-size:160px;font-family:Arial;fill:#000000;stroke:none"
       id="path881"
       inkscape:connector-curvature="0" />
    <path
       d="m 148.125,-12.578125 2.03125,12.421875 q -5.9375,1.25 -10.625,1.25 -7.65625,0 -11.875,-2.421875 Q 123.4375,-3.75 121.71875,-7.65625 120,-11.640625 120,-24.296875 V -72.03125 h -10.3125 v -10.9375 H 120 v -20.54688 l 13.98437,-8.4375 v 28.98438 H 148.125 v 10.9375 h -14.14063 v 48.515625 q 0,6.015625 0.70313,7.734375 0.78125,1.71875 2.42187,2.734375 1.71875,1.015625 4.84375,1.015625 2.34375,0 6.17188,-0.546875 z"
       style="font-style:normal;font-weight:normal;font-size:160px;font-family:Arial;fill:#000000;stroke:none"
       id="path883"
       inkscape:connector-curvature="0" />
    <path
       d="m 158.98437,-55.78125 q 0,-28.515625 15.3125,-44.60938 15.3125,-16.17187 39.53125,-16.17187 15.85938,0 28.59375,7.57812 12.73438,7.57813 19.375,21.17188 6.71875,13.515625 6.71875,30.703125 0,17.421875 -7.03125,31.171875 -7.03125,13.75 -19.92187,20.859375 -12.89063,7.03125 -27.8125,7.03125 -16.17188,0 -28.90625,-7.8125 -12.73438,-7.8125 -19.29688,-21.328125 -6.5625,-13.515625 -6.5625,-28.59375 z m 15.625,0.234375 q 0,20.703125 11.09375,32.65625 11.17188,11.875 27.96875,11.875 17.10938,0 28.125,-12.03125 11.09375,-12.03125 11.09375,-34.140625 0,-13.984375 -4.76562,-24.375 -4.6875,-10.46875 -13.82813,-16.171875 -9.0625,-5.781255 -20.39062,-5.781255 -16.09375,0 -27.73438,11.093755 -11.5625,11.015625 -11.5625,36.875 z"
       style="font-style:normal;font-weight:normal;font-size:160px;font-family:Arial;fill:#000000;stroke:none"
       id="path885"
       inkscape:connector-curvature="0" />
  </g>
  <path
     stroke="none"
     fill="#000000"
     transform="matrix(0.0666667 0 0 0.0666667 -26.9114 -69)"
     d="M 865.639,1505.32 L 865.639,1493.54 L 1064.97,1608.63 L 1064.97,1614.52 L 1058,1616.39 L 865.639,1505.32 Z "
     id="path30" />
  <path
     stroke="none"
     fill="#000000"
     transform="matrix(0.0666667 0 0 0.0666667 -26.9114 -69)"
     d="M 1657.88,1496.49 L 1662.98,1499.43 L 1662.98,1505.33 L 1543.97,1574.04 L 1538.87,1565.2 L 1657.88,1496.49 Z "
     id="path32" />
  <path
     stroke="none"
     fill="#000000"
     transform="matrix(0.0666667 0 0 0.0666667 -26.9114 -69)"
     d="M 1862.32,1608.63 L 1862.32,1620.41 L 1662.98,1505.33 L 1662.98,1499.43 L 1668.08,1496.49 L 1862.32,1608.63 Z "
     id="path34" />
  <path
     stroke="none"
     fill="#000000"
     transform="matrix(0.0666667 0 0 0.0666667 -26.9114 -69)"
     d="M 1864.87,1562.26 L 1859.77,1571.1 L 1701.86,1479.93 L 1706.96,1471.1 L 1864.87,1562.26 Z "
     id="path36" />
  <path
     stroke="none"
     fill="#000000"
     transform="matrix(0.0666667 0 0 0.0666667 -26.9114 -69)"
     d="M 2056.55,1496.49 L 2066.76,1502.38 L 1862.32,1620.41 L 1862.32,1608.63 L 2056.55,1496.49 Z "
     id="path38" />
  <path
     stroke="none"
     fill="#000000"
     transform="matrix(0.0666667 0 0 0.0666667 -26.9114 -69)"
     d="M 2056.55,1272.21 L 2061.65,1269.26 L 2066.76,1272.21 L 2066.76,1502.38 L 2056.55,1496.49 L 2056.55,1272.21 Z "
     id="path40" />
  <path
     stroke="none"
     fill="#000000"
     transform="matrix(0.0666667 0 0 0.0666667 -26.9114 -69)"
     d="M 2015.12,1293.18 L 2025.32,1293.18 L 2025.32,1475.51 L 2015.12,1475.51 L 2015.12,1293.18 Z "
     id="path42" />
  <path
     stroke="none"
     fill="#000000"
     transform="matrix(0.0666667 0 0 0.0666667 -26.9114 -69)"
     d="M 1862.32,1160.07 L 1862.32,1148.28 L 2061.65,1263.37 L 2061.65,1269.26 L 2056.55,1272.21 L 1862.32,1160.07 Z "
     id="path44" />
  <path
     stroke="none"
     fill="#000000"
     transform="matrix(0.0666667 0 0 0.0666667 -26.9114 -69)"
     d="M 1668.08,1272.21 L 1657.88,1266.32 L 1862.32,1148.28 L 1862.32,1160.07 L 1668.08,1272.21 Z "
     id="path46" />
  <path
     stroke="none"
     fill="#000000"
     transform="matrix(0.0666667 0 0 0.0666667 -26.9114 -69)"
     d="M 1706.96,1297.6 L 1701.86,1288.76 L 1859.77,1197.6 L 1864.87,1206.43 L 1706.96,1297.6 Z "
     id="path48" />
  <path
     stroke="none"
     fill="#000000"
     transform="matrix(0.0666667 0 0 0.0666667 -26.9114 -69)"
     d="M 1668.08,1496.49 L 1662.98,1499.43 L 1657.88,1496.49 L 1657.88,1266.32 L 1668.08,1272.21 L 1668.08,1496.49 Z "
     id="path50" />
  <g
     aria-label="OMe"
     transform="matrix(0.0666667,0,0,0.0666667,119.673,12.145)"
     style="font-style:normal;font-weight:normal;font-size:160px;font-family:Arial;fill:#000000;stroke:none"
     id="text52">
    <path
       d="m 7.734375,-55.78125 q 0,-28.515625 15.3125,-44.60938 15.3125,-16.17187 39.53125,-16.17187 15.859375,0 28.59375,7.57812 12.734375,7.57813 19.375005,21.17188 6.71875,13.515625 6.71875,30.703125 0,17.421875 -7.03125,31.171875 -7.03125,13.75 -19.92188,20.859375 -12.890625,7.03125 -27.8125,7.03125 -16.171875,0 -28.90625,-7.8125 -12.734375,-7.8125 -19.296875,-21.328125 -6.5625,-13.515625 -6.5625,-28.59375 z m 15.625,0.234375 q 0,20.703125 11.09375,32.65625 11.171875,11.875 27.96875,11.875 17.109375,0 28.125,-12.03125 11.093755,-12.03125 11.093755,-34.140625 0,-13.984375 -4.76563,-24.375 -4.6875,-10.46875 -13.828125,-16.171875 -9.0625,-5.781255 -20.390625,-5.781255 -16.09375,0 -27.734375,11.093755 -11.5625,11.015625 -11.5625,36.875 z"
       style="font-style:normal;font-weight:normal;font-size:160px;font-family:Arial;fill:#000000;stroke:none"
       id="path888"
       inkscape:connector-curvature="0" />
    <path
       d="m 136.25,0 v -114.53125 h 22.8125 l 27.10937,81.09375 q 3.75,11.328125 5.46875,16.953125 1.95313,-6.25 6.09375,-18.359375 l 27.42188,-79.6875 h 20.39062 V 0 H 230.9375 V -95.859375 L 197.65625,0 h -13.67188 l -33.125,-97.5 V 0 Z"
       style="font-style:normal;font-weight:normal;font-size:160px;font-family:Arial;fill:#000000;stroke:none"
       id="path890"
       inkscape:connector-curvature="0" />
    <path
       d="m 325.15625,-26.71875 14.53125,1.796875 Q 336.25,-12.1875 326.95312,-5.15625 317.65625,1.875 303.20312,1.875 285,1.875 274.29687,-9.296875 q -10.625,-11.25 -10.625,-31.484375 0,-20.9375 10.78125,-32.5 10.78125,-11.5625 27.96875,-11.5625 16.64063,0 27.1875,11.328125 10.54688,11.328125 10.54688,31.875 0,1.25 -0.0781,3.75 h -61.875 q 0.78125,13.671875 7.73438,20.9375 6.95312,7.265625 17.34375,7.265625 7.73437,0 13.20312,-4.0625 5.46875,-4.0625 8.67188,-12.96875 z M 278.98437,-49.453125 H 325.3125 Q 324.375,-59.921875 320,-65.15625 q -6.71875,-8.125 -17.42188,-8.125 -9.6875,0 -16.32812,6.484375 -6.5625,6.484375 -7.26563,17.34375 z"
       style="font-style:normal;font-weight:normal;font-size:160px;font-family:Arial;fill:#000000;stroke:none"
       id="path892"
       inkscape:connector-curvature="0" />
  </g>
  <path
     stroke="none"
     fill="#000000"
     transform="matrix(0.0666667 0 0 0.0666667 -26.9114 -69)"
     d="M 2184.08,1192.69 L 2189.18,1201.53 L 2066.76,1272.21 L 2061.65,1269.26 L 2061.65,1263.37 L 2184.08,1192.69 Z "
     id="path54" />
</svg>
