<?xml version="1.0" encoding="UTF-8" standalone="no"?>
<svg
   xmlns:dc="http://purl.org/dc/elements/1.1/"
   xmlns:cc="http://creativecommons.org/ns#"
   xmlns:rdf="http://www.w3.org/1999/02/22-rdf-syntax-ns#"
   xmlns:svg="http://www.w3.org/2000/svg"
   xmlns="http://www.w3.org/2000/svg"
   xmlns:sodipodi="http://sodipodi.sourceforge.net/DTD/sodipodi-0.dtd"
   xmlns:inkscape="http://www.inkscape.org/namespaces/inkscape"
   width="146px"
   height="82px"
   viewBox="0 0 146 82"
   style="background-color: #ffffff00"
   version="1.1"
   id="svg60"
   sodipodi:docname="aminoester-bn-allyl.svg"
   inkscape:version="0.92.4 (5da689c313, 2019-01-14)">
  <metadata
     id="metadata66">
    <rdf:RDF>
      <cc:Work
         rdf:about="">
        <dc:format>image/svg+xml</dc:format>
        <dc:type
           rdf:resource="http://purl.org/dc/dcmitype/StillImage" />
      </cc:Work>
    </rdf:RDF>
  </metadata>
  <defs
     id="defs64" />
  <sodipodi:namedview
     pagecolor="#ffffff"
     bordercolor="#666666"
     borderopacity="1"
     objecttolerance="10"
     gridtolerance="10"
     guidetolerance="10"
     inkscape:pageopacity="0"
     inkscape:pageshadow="2"
     inkscape:window-width="1094"
     inkscape:window-height="613"
     id="namedview62"
     showgrid="false"
     inkscape:zoom="2.3493151"
     inkscape:cx="66.591773"
     inkscape:cy="41"
     inkscape:window-x="0"
     inkscape:window-y="0"
     inkscape:window-maximized="0"
     inkscape:current-layer="svg60" />
  <path
     stroke="none"
     fill="#000000"
     transform="matrix(0.0666667 0 0 0.0666667 -24.9114 -127)"
     d="M 1223.66,2301.31 L 1233.87,2307.21 L 1233.87,2531.49 L 1228.76,2534.43 L 1223.66,2531.49 L 1223.66,2301.31 Z "
     id="path2" />
  <path
     stroke="none"
     fill="#000000"
     transform="matrix(0.0666667 0 0 0.0666667 -24.9114 -127)"
     d="M 1228.76,2540.33 L 1228.76,2534.43 L 1233.87,2531.49 L 1352.47,2599.96 L 1347.37,2608.8 L 1228.76,2540.33 Z "
     id="path4" />
  <path
     stroke="none"
     fill="#000000"
     transform="matrix(0.0666667 0 0 0.0666667 -24.9114 -127)"
     d="M 1034.53,2652.47 L 1029.43,2649.52 L 1029.43,2643.63 L 1223.66,2531.49 L 1228.76,2534.43 L 1228.76,2540.33 L 1034.53,2652.47 Z "
     id="path6" />
  <path
     stroke="none"
     fill="#000000"
     transform="matrix(0.0666667 0 0 0.0666667 -24.9114 -127)"
     d="M 1034.53,2882.47 L 1024.33,2876.57 L 1024.33,2652.47 L 1029.43,2649.52 L 1034.53,2652.47 L 1034.53,2882.47 Z "
     id="path8" />
  <path
     stroke="none"
     fill="#000000"
     transform="matrix(0.0666667 0 0 0.0666667 -24.9114 -127)"
     d="M 804.275,2394.93 L 814.479,2394.93 L 814.479,2546.39 L 804.274,2546.39 L 804.275,2394.93 Z "
     id="path10" />
  <path
     stroke="none"
     fill="#000000"
     transform="matrix(0.0666667 0 0 0.0666667 -24.9114 -127)"
     d="M 845.706,2394.93 L 855.91,2394.93 L 855.91,2546.39 L 845.706,2546.39 L 845.706,2394.93 Z "
     id="path12" />
  <g
     aria-label="O"
     transform="matrix(0.0666667,0,0,0.0666667,26.2797,30.8173)"
     style="font-style:normal;font-weight:normal;font-size:160px;font-family:Arial;fill:#000000;stroke:none"
     id="text14">
    <path
       d="m 7.734375,-55.78125 q 0,-28.515625 15.3125,-44.60938 15.3125,-16.17187 39.53125,-16.17187 15.859375,0 28.59375,7.57812 12.734375,7.57813 19.375005,21.17188 6.71875,13.515625 6.71875,30.703125 0,17.421875 -7.03125,31.171875 -7.03125,13.75 -19.92188,20.859375 -12.890625,7.03125 -27.8125,7.03125 -16.171875,0 -28.90625,-7.8125 -12.734375,-7.8125 -19.296875,-21.328125 -6.5625,-13.515625 -6.5625,-28.59375 z m 15.625,0.234375 q 0,20.703125 11.09375,32.65625 11.171875,11.875 27.96875,11.875 17.109375,0 28.125,-12.03125 11.093755,-12.03125 11.093755,-34.140625 0,-13.984375 -4.76563,-24.375 -4.6875,-10.46875 -13.828125,-16.171875 -9.0625,-5.781255 -20.390625,-5.781255 -16.09375,0 -27.734375,11.093755 -11.5625,11.015625 -11.5625,36.875 z"
       style="font-style:normal;font-weight:normal;font-size:160px;font-family:Arial;fill:#000000;stroke:none"
       id="path4577"
       inkscape:connector-curvature="0" />
  </g>
  <g
     aria-label="N"
     transform="matrix(0.0666667,0,0,0.0666667,66.4437,53.8347)"
     style="font-style:normal;font-weight:normal;font-size:160px;font-family:Arial;fill:#000000;stroke:none"
     id="text16">
    <path
       d="m 12.1875,0 v -114.53125 h 15.546875 l 60.15625,89.921875 V -114.53125 H 102.42188 V 0 H 86.875 L 26.71875,-90 V 0 Z"
       style="font-style:normal;font-weight:normal;font-size:160px;font-family:Arial;fill:#000000;stroke:none"
       id="path4580"
       inkscape:connector-curvature="0" />
  </g>
  <g
     aria-label="H"
     transform="matrix(0.0666667,0,0,0.0666667,66.4437,64.5014)"
     style="font-style:normal;font-weight:normal;font-size:160px;font-family:Arial;fill:#000000;stroke:none"
     id="text18">
    <path
       d="M 12.8125,0 V -114.53125 H 27.96875 V -67.5 H 87.5 v -47.03125 h 15.15625 V 0 H 87.5 V -53.984375 H 27.96875 V 0 Z"
       style="font-style:normal;font-weight:normal;font-size:160px;font-family:Arial;fill:#000000;stroke:none"
       id="path4583"
       inkscape:connector-curvature="0" />
  </g>
  <path
     stroke="none"
     fill="#000000"
     transform="matrix(0.0666667 0 0 0.0666667 -24.9114 -127)"
     d="M 701.544,2614.54 L 696.442,2605.7 L 830.092,2528.54 L 830.092,2540.32 L 701.544,2614.54 Z "
     id="path20" />
  <g
     aria-label="EtO"
     transform="matrix(0.0666667,0,0,0.0666667,2.91248,53.8346)"
     style="font-style:normal;font-weight:normal;font-size:160px;font-family:Arial;fill:#000000;stroke:none"
     id="text22">
    <path
       d="m 12.65625,0 v -114.53125 h 82.8125 v 13.51562 H 27.8125 V -65.9375 H 91.171875 V -52.5 H 27.8125 v 38.984375 H 98.125 V 0 Z"
       style="font-style:normal;font-weight:normal;font-size:160px;font-family:Arial;fill:#000000;stroke:none"
       id="path4586"
       inkscape:connector-curvature="0" />
    <path
       d="m 148.125,-12.578125 2.03125,12.421875 q -5.9375,1.25 -10.625,1.25 -7.65625,0 -11.875,-2.421875 Q 123.4375,-3.75 121.71875,-7.65625 120,-11.640625 120,-24.296875 V -72.03125 h -10.3125 v -10.9375 H 120 v -20.54688 l 13.98437,-8.4375 v 28.98438 H 148.125 v 10.9375 h -14.14063 v 48.515625 q 0,6.015625 0.70313,7.734375 0.78125,1.71875 2.42187,2.734375 1.71875,1.015625 4.84375,1.015625 2.34375,0 6.17188,-0.546875 z"
       style="font-style:normal;font-weight:normal;font-size:160px;font-family:Arial;fill:#000000;stroke:none"
       id="path4588"
       inkscape:connector-curvature="0" />
    <path
       d="m 158.98437,-55.78125 q 0,-28.515625 15.3125,-44.60938 15.3125,-16.17187 39.53125,-16.17187 15.85938,0 28.59375,7.57812 12.73438,7.57813 19.375,21.17188 6.71875,13.515625 6.71875,30.703125 0,17.421875 -7.03125,31.171875 -7.03125,13.75 -19.92187,20.859375 -12.89063,7.03125 -27.8125,7.03125 -16.17188,0 -28.90625,-7.8125 -12.73438,-7.8125 -19.29688,-21.328125 -6.5625,-13.515625 -6.5625,-28.59375 z m 15.625,0.234375 q 0,20.703125 11.09375,32.65625 11.17188,11.875 27.96875,11.875 17.10938,0 28.125,-12.03125 11.09375,-12.03125 11.09375,-34.140625 0,-13.984375 -4.76562,-24.375 -4.6875,-10.46875 -13.82813,-16.171875 -9.0625,-5.781255 -20.39062,-5.781255 -16.09375,0 -27.73438,11.093755 -11.5625,11.015625 -11.5625,36.875 z"
       style="font-style:normal;font-weight:normal;font-size:160px;font-family:Arial;fill:#000000;stroke:none"
       id="path4590"
       inkscape:connector-curvature="0" />
  </g>
  <path
     stroke="none"
     fill="#000000"
     transform="matrix(0.0666667 0 0 0.0666667 -24.9114 -127)"
     d="M 830.092,2540.32 L 830.092,2528.54 L 1029.43,2643.63 L 1029.43,2649.52 L 1024.33,2652.47 L 830.092,2540.32 Z "
     id="path24" />
  <path
     stroke="none"
     fill="#000000"
     transform="matrix(0.0666667 0 0 0.0666667 -24.9114 -127)"
     d="M 1622.33,2531.49 L 1627.44,2534.43 L 1627.44,2540.33 L 1508.42,2609.04 L 1503.32,2600.2 L 1622.33,2531.49 Z "
     id="path26" />
  <path
     stroke="none"
     fill="#000000"
     transform="matrix(0.0666667 0 0 0.0666667 -24.9114 -127)"
     d="M 1826.77,2643.63 L 1826.77,2655.41 L 1627.44,2540.33 L 1627.44,2534.43 L 1632.54,2531.49 L 1826.77,2643.63 Z "
     id="path28" />
  <path
     stroke="none"
     fill="#000000"
     transform="matrix(0.0666667 0 0 0.0666667 -24.9114 -127)"
     d="M 1829.32,2597.26 L 1824.22,2606.1 L 1666.32,2514.93 L 1671.42,2506.1 L 1829.32,2597.26 Z "
     id="path30" />
  <path
     stroke="none"
     fill="#000000"
     transform="matrix(0.0666667 0 0 0.0666667 -24.9114 -127)"
     d="M 2021,2531.49 L 2031.21,2537.38 L 1826.77,2655.41 L 1826.77,2643.63 L 2021,2531.49 Z "
     id="path32" />
  <path
     stroke="none"
     fill="#000000"
     transform="matrix(0.0666667 0 0 0.0666667 -24.9114 -127)"
     d="M 2021,2307.21 L 2026.11,2304.26 L 2031.21,2307.21 L 2031.21,2537.38 L 2021,2531.49 L 2021,2307.21 Z "
     id="path34" />
  <path
     stroke="none"
     fill="#000000"
     transform="matrix(0.0666667 0 0 0.0666667 -24.9114 -127)"
     d="M 1979.57,2328.18 L 1989.78,2328.18 L 1989.78,2510.51 L 1979.57,2510.51 L 1979.57,2328.18 Z "
     id="path36" />
  <path
     stroke="none"
     fill="#000000"
     transform="matrix(0.0666667 0 0 0.0666667 -24.9114 -127)"
     d="M 1826.77,2195.07 L 1826.77,2183.28 L 2026.11,2298.37 L 2026.11,2304.26 L 2021,2307.21 L 1826.77,2195.07 Z "
     id="path38" />
  <path
     stroke="none"
     fill="#000000"
     transform="matrix(0.0666667 0 0 0.0666667 -24.9114 -127)"
     d="M 1632.54,2307.21 L 1622.33,2301.32 L 1826.77,2183.28 L 1826.77,2195.07 L 1632.54,2307.21 Z "
     id="path40" />
  <path
     stroke="none"
     fill="#000000"
     transform="matrix(0.0666667 0 0 0.0666667 -24.9114 -127)"
     d="M 1671.42,2332.6 L 1666.32,2323.76 L 1824.22,2232.6 L 1829.32,2241.43 L 1671.42,2332.6 Z "
     id="path42" />
  <path
     stroke="none"
     fill="#000000"
     transform="matrix(0.0666667 0 0 0.0666667 -24.9114 -127)"
     d="M 1632.54,2531.49 L 1627.44,2534.43 L 1622.33,2531.49 L 1622.33,2301.32 L 1632.54,2307.21 L 1632.54,2531.49 Z "
     id="path44" />
  <g
     aria-label="OMe"
     transform="matrix(0.0666667,0,0,0.0666667,119.303,23.145)"
     style="font-style:normal;font-weight:normal;font-size:160px;font-family:Arial;fill:#000000;stroke:none"
     id="text46">
    <path
       d="m 7.734375,-55.78125 q 0,-28.515625 15.3125,-44.60938 15.3125,-16.17187 39.53125,-16.17187 15.859375,0 28.59375,7.57812 12.734375,7.57813 19.375005,21.17188 6.71875,13.515625 6.71875,30.703125 0,17.421875 -7.03125,31.171875 -7.03125,13.75 -19.92188,20.859375 -12.890625,7.03125 -27.8125,7.03125 -16.171875,0 -28.90625,-7.8125 -12.734375,-7.8125 -19.296875,-21.328125 -6.5625,-13.515625 -6.5625,-28.59375 z m 15.625,0.234375 q 0,20.703125 11.09375,32.65625 11.171875,11.875 27.96875,11.875 17.109375,0 28.125,-12.03125 11.093755,-12.03125 11.093755,-34.140625 0,-13.984375 -4.76563,-24.375 -4.6875,-10.46875 -13.828125,-16.171875 -9.0625,-5.781255 -20.390625,-5.781255 -16.09375,0 -27.734375,11.093755 -11.5625,11.015625 -11.5625,36.875 z"
       style="font-style:normal;font-weight:normal;font-size:160px;font-family:Arial;fill:#000000;stroke:none"
       id="path4593"
       inkscape:connector-curvature="0" />
    <path
       d="m 136.25,0 v -114.53125 h 22.8125 l 27.10937,81.09375 q 3.75,11.328125 5.46875,16.953125 1.95313,-6.25 6.09375,-18.359375 l 27.42188,-79.6875 h 20.39062 V 0 H 230.9375 V -95.859375 L 197.65625,0 h -13.67188 l -33.125,-97.5 V 0 Z"
       style="font-style:normal;font-weight:normal;font-size:160px;font-family:Arial;fill:#000000;stroke:none"
       id="path4595"
       inkscape:connector-curvature="0" />
    <path
       d="m 325.15625,-26.71875 14.53125,1.796875 Q 336.25,-12.1875 326.95312,-5.15625 317.65625,1.875 303.20312,1.875 285,1.875 274.29687,-9.296875 q -10.625,-11.25 -10.625,-31.484375 0,-20.9375 10.78125,-32.5 10.78125,-11.5625 27.96875,-11.5625 16.64063,0 27.1875,11.328125 10.54688,11.328125 10.54688,31.875 0,1.25 -0.0781,3.75 h -61.875 q 0.78125,13.671875 7.73438,20.9375 6.95312,7.265625 17.34375,7.265625 7.73437,0 13.20312,-4.0625 5.46875,-4.0625 8.67188,-12.96875 z M 278.98437,-49.453125 H 325.3125 Q 324.375,-59.921875 320,-65.15625 q -6.71875,-8.125 -17.42188,-8.125 -9.6875,0 -16.32812,6.484375 -6.5625,6.484375 -7.26563,17.34375 z"
       style="font-style:normal;font-weight:normal;font-size:160px;font-family:Arial;fill:#000000;stroke:none"
       id="path4597"
       inkscape:connector-curvature="0" />
  </g>
  <path
     stroke="none"
     fill="#000000"
     transform="matrix(0.0666667 0 0 0.0666667 -24.9114 -127)"
     d="M 2148.53,2227.69 L 2153.63,2236.53 L 2031.21,2307.21 L 2026.11,2304.26 L 2026.11,2298.37 L 2148.53,2227.69 Z "
     id="path48" />
  <g
     aria-label="Ph"
     transform="matrix(0.0666667,0,0,0.0666667,20.3573,76.8347)"
     style="font-style:normal;font-weight:normal;font-size:160px;font-family:Arial;fill:#000000;stroke:none"
     id="text50">
    <path
       d="m 12.34375,0 v -114.53125 h 43.203125 q 11.40625,0 17.421875,1.09375 8.4375,1.40625 14.140625,5.39062 5.703125,3.90625 9.140625,11.01563 3.515625,7.109375 3.515625,15.625 0,14.609375 -9.296875,24.765625 Q 81.171875,-46.5625 56.875,-46.5625 H 27.5 V 0 Z M 27.5,-60.078125 h 29.609375 q 14.6875,0 20.859375,-5.46875 6.171875,-5.46875 6.171875,-15.390625 0,-7.1875 -3.671875,-12.265625 Q 76.875,-98.359375 70.9375,-100 q -3.828125,-1.01563 -14.140625,-1.01563 H 27.5 Z"
       style="font-style:normal;font-weight:normal;font-size:160px;font-family:Arial;fill:#000000;stroke:none"
       id="path4600"
       inkscape:connector-curvature="0" />
    <path
       d="m 117.42188,0 v -114.53125 h 14.06249 v 41.09375 q 9.84375,-11.40625 24.84375,-11.40625 9.21875,0 16.01563,3.671875 6.79687,3.59375 9.6875,10 Q 185,-64.765625 185,-52.578125 V 0 h -14.0625 v -52.578125 q 0,-10.546875 -4.60938,-15.3125 -4.53125,-4.84375 -12.89062,-4.84375 -6.25,0 -11.79688,3.28125 -5.46875,3.203125 -7.8125,8.75 -2.34375,5.546875 -2.34375,15.3125 V 0 Z"
       style="font-style:normal;font-weight:normal;font-size:160px;font-family:Arial;fill:#000000;stroke:none"
       id="path4602"
       inkscape:connector-curvature="0" />
  </g>
  <path
     stroke="none"
     fill="#000000"
     transform="matrix(0.0666667 0 0 0.0666667 -24.9114 -127)"
     d="M 881.665,2970.72 L 876.562,2961.89 L 1024.33,2876.57 L 1034.53,2882.47 L 881.665,2970.72 Z "
     id="path52" />
  <path
     stroke="none"
     fill="#000000"
     transform="matrix(0.0666667 0 0 0.0666667 -24.9114 -127)"
     d="M 1423,2186.23 L 1433.2,2192.12 L 1233.87,2307.21 L 1223.66,2301.31 L 1423,2186.23 Z "
     id="path54" />
  <path
     stroke="none"
     fill="#000000"
     transform="matrix(0.0666667 0 0 0.0666667 -24.9114 -127)"
     d="M 1423,1959 L 1433.2,1959 L 1433.2,2192.12 L 1423,2186.23 L 1423,1959 Z "
     id="path56" />
  <path
     stroke="none"
     fill="#000000"
     transform="matrix(0.0666667 0 0 0.0666667 -24.9114 -127)"
     d="M 1381.57,1959 L 1391.77,1959 L 1391.77,2165.25 L 1381.57,2165.25 L 1381.57,1959 Z "
     id="path58" />
</svg>
