<?xml version="1.0" encoding="UTF-8" standalone="no"?>
<svg
   xmlns:dc="http://purl.org/dc/elements/1.1/"
   xmlns:cc="http://creativecommons.org/ns#"
   xmlns:rdf="http://www.w3.org/1999/02/22-rdf-syntax-ns#"
   xmlns:svg="http://www.w3.org/2000/svg"
   xmlns="http://www.w3.org/2000/svg"
   xmlns:sodipodi="http://sodipodi.sourceforge.net/DTD/sodipodi-0.dtd"
   xmlns:inkscape="http://www.inkscape.org/namespaces/inkscape"
   viewBox="7.61 40.53 125.82 42.53"
   preserveAspectRatio="xMidYMid"
   width="100%"
   height="100%"
   version="1.1"
   id="svg170"
   sodipodi:docname="glutathione.svg"
   inkscape:version="0.92.4 (5da689c313, 2019-01-14)">
  <metadata
     id="metadata176">
    <rdf:RDF>
      <cc:Work
         rdf:about="">
        <dc:format>image/svg+xml</dc:format>
        <dc:type
           rdf:resource="http://purl.org/dc/dcmitype/StillImage" />
      </cc:Work>
    </rdf:RDF>
  </metadata>
  <defs
     id="defs174" />
  <sodipodi:namedview
     pagecolor="#ffffff"
     bordercolor="#666666"
     borderopacity="1"
     objecttolerance="10"
     gridtolerance="10"
     guidetolerance="10"
     inkscape:pageopacity="0"
     inkscape:pageshadow="2"
     inkscape:window-width="1920"
     inkscape:window-height="1017"
     id="namedview172"
     showgrid="false"
     inkscape:zoom="2.7261167"
     inkscape:cx="-110.18752"
     inkscape:cy="21.265"
     inkscape:window-x="-8"
     inkscape:window-y="-8"
     inkscape:window-maximized="1"
     inkscape:current-layer="svg170" />
  <clipPath
     id="9358">
    <rect
       x="0.255"
       y="0.255"
       width="139.49"
       height="769.29"
       id="rect2" />
  </clipPath>
  <g
     id="Solid"
     transform="matrix(1.33333,0,0,1.33333,-23.511431,-20.69409)">
    <path
       d="m 30.64,66.98 v 0 -0.29 -0.29 l 9.97,-5.75 v 0.29 0.29 z"
       id="path7"
       inkscape:connector-curvature="0"
       style="fill:#000000;fill-rule:evenodd;stroke:#000000;stroke-width:0;stroke-linejoin:miter;shape-rendering:geometricPrecision" />
  </g>
  <g
     id="g12"
     transform="matrix(1.33333,0,0,1.33333,-23.511431,-20.69409)">
    <path
       d="m 40.61,61.23 v 0 -0.29 -0.29 l 9.97,5.75 v 0.29 0.29 z"
       id="path10"
       inkscape:connector-curvature="0"
       style="fill:#000000;fill-rule:evenodd;stroke:#000000;stroke-width:0;stroke-linejoin:miter;shape-rendering:geometricPrecision" />
  </g>
  <g
     id="g16"
     transform="matrix(1.33333,0,0,1.33333,-23.511431,-20.69409)">
    <path
       d="m 50.58,66.98 v 0 -0.29 -0.29 l 9.96,-5.75 v 0.29 0.29 z"
       id="path14"
       inkscape:connector-curvature="0"
       style="fill:#000000;fill-rule:evenodd;stroke:#000000;stroke-width:0;stroke-linejoin:miter;shape-rendering:geometricPrecision" />
  </g>
  <g
     id="g24"
     transform="matrix(1.33333,0,0,1.33333,-23.511431,-20.69409)">
    <g
       aria-label="NH"
       style="text-anchor:start;text-rendering:geometricPrecision"
       id="text22">
      <path
         d="m 68.219376,69.839996 v -5.726562 h 0.777343 l 3.007813,4.496094 v -4.496094 h 0.726562 v 5.726562 h -0.777343 l -3.007813,-4.5 v 4.5 z"
         style="font-size:8px;font-family:Arial;fill:#009d73"
         id="path1192"
         inkscape:connector-curvature="0" />
      <path
         d="m 68.250626,77.839996 v -5.726562 h 0.757812 v 2.351562 h 2.976563 v -2.351562 h 0.757812 v 5.726562 h -0.757812 v -2.699218 h -2.976563 v 2.699218 z"
         style="font-size:8px;font-family:Arial;fill:#009d73"
         id="path1194"
         inkscape:connector-curvature="0" />
    </g>
  </g>
  <g
     id="g28"
     transform="matrix(1.33333,0,0,1.33333,-23.511431,-20.69409)">
    <path
       d="m 60.54,61.23 v 0 -0.29 -0.29 l 6.76,3.9 -0.13,0.22 -0.12,0.22 z"
       id="path26"
       inkscape:connector-curvature="0"
       style="fill:#009d73;fill-rule:evenodd;stroke:#009d73;stroke-width:0;stroke-linejoin:miter;shape-rendering:geometricPrecision" />
  </g>
  <g
     id="g32"
     transform="matrix(1.33333,0,0,1.33333,-23.511431,-20.69409)">
    <path
       d="m 74.05,64.94 v 0 l -0.12,-0.22 -0.13,-0.22 6.41,-3.7 0.27,0.14 v 0.29 z"
       id="path30"
       inkscape:connector-curvature="0"
       style="fill:#000000;fill-rule:evenodd;stroke:#000000;stroke-width:0;stroke-linejoin:miter;shape-rendering:geometricPrecision" />
  </g>
  <g
     id="g36"
     transform="matrix(1.33333,0,0,1.33333,-23.511431,-20.69409)">
    <path
       d="m 80.48,61.23 v 0 -0.29 l 0.27,-0.14 9.69,5.6 v 0.29 0.29 z"
       id="path34"
       inkscape:connector-curvature="0"
       style="fill:#000000;fill-rule:evenodd;stroke:#000000;stroke-width:0;stroke-linejoin:miter;shape-rendering:geometricPrecision" />
  </g>
  <g
     id="g44"
     transform="matrix(1.33333,0,0,1.33333,-23.511431,-20.69409)">
    <g
       aria-label="HN"
       style="text-anchor:start;text-rendering:geometricPrecision"
       id="text42">
      <path
         d="M 98.150627,56.09 V 50.363438 H 98.90844 V 52.715 h 2.97656 v -2.351562 h 0.75781 V 56.09 H 101.885 V 53.390781 H 98.90844 V 56.09 Z"
         style="font-size:8px;font-family:Arial;fill:#009d73"
         id="path1187"
         inkscape:connector-curvature="0" />
      <path
         d="m 98.119377,64.089996 v -5.726562 h 0.777344 l 3.007809,4.496094 v -4.496094 h 0.72657 v 5.726562 h -0.77735 l -3.00781,-4.5 v 4.5 z"
         style="font-size:8px;font-family:Arial;fill:#009d73"
         id="path1189"
         inkscape:connector-curvature="0" />
    </g>
  </g>
  <g
     id="g48"
     transform="matrix(1.33333,0,0,1.33333,-23.511431,-20.69409)">
    <path
       d="m 90.44,66.98 v 0 -0.29 -0.29 l 6.51,-3.76 0.12,0.22 0.13,0.22 z"
       id="path46"
       inkscape:connector-curvature="0"
       style="fill:#009d73;fill-rule:evenodd;stroke:#009d73;stroke-width:0;stroke-linejoin:miter;shape-rendering:geometricPrecision" />
  </g>
  <g
     id="g52"
     transform="matrix(1.33333,0,0,1.33333,-23.511431,-20.69409)">
    <path
       d="m 103.7,63.13 v 0 l 0.13,-0.22 0.12,-0.22 6.43,3.71 v 0.29 0.29 z"
       id="path50"
       inkscape:connector-curvature="0"
       style="fill:#000000;fill-rule:evenodd;stroke:#000000;stroke-width:0;stroke-linejoin:miter;shape-rendering:geometricPrecision" />
  </g>
  <g
     id="g56"
     transform="matrix(1.33333,0,0,1.33333,-23.511431,-20.69409)">
    <path
       d="m 110.38,66.98 v 0 -0.29 -0.29 l 9.71,-5.61 0.25,0.15 0.25,0.15 z"
       id="path54"
       inkscape:connector-curvature="0"
       style="fill:#000000;fill-rule:evenodd;stroke:#000000;stroke-width:0;stroke-linejoin:miter;shape-rendering:geometricPrecision" />
  </g>
  <g
     id="g62"
     transform="matrix(1.33333,0,0,1.33333,-23.511431,-20.69409)">
    <g
       aria-label="OH"
       style="text-anchor:start;text-rendering:geometricPrecision"
       id="text60">
      <path
         d="m 117.62672,49.790939 q 0,-1.425781 0.76562,-2.230468 0.76563,-0.808594 1.97656,-0.808594 0.79297,0 1.42969,0.378906 0.63672,0.378906 0.96875,1.058594 0.33594,0.675781 0.33594,1.535156 0,0.871094 -0.35156,1.558594 -0.35157,0.6875 -0.9961,1.042969 -0.64453,0.351562 -1.39062,0.351562 -0.8086,0 -1.44531,-0.390625 -0.63672,-0.390625 -0.96485,-1.066406 -0.32812,-0.675781 -0.32812,-1.429688 z m 0.78125,0.01172 q 0,1.035156 0.55468,1.632813 0.5586,0.59375 1.39844,0.59375 0.85547,0 1.40625,-0.601563 0.55469,-0.601562 0.55469,-1.707031 0,-0.699219 -0.23828,-1.21875 -0.23438,-0.523438 -0.69141,-0.808594 -0.45312,-0.289062 -1.01953,-0.289062 -0.80469,0 -1.38672,0.554687 -0.57812,0.550781 -0.57812,1.84375 z"
         style="font-size:8px;font-family:Arial;fill:#000000"
         id="path1182"
         inkscape:connector-curvature="0" />
      <path
         d="m 124.09937,52.580002 v -5.726563 h 0.75782 v 2.351563 h 2.97656 v -2.351563 h 0.75781 v 5.726563 h -0.75781 v -2.699219 h -2.97656 v 2.699219 z"
         style="font-size:8px;font-family:Arial;fill:#000000"
         id="path1184"
         inkscape:connector-curvature="0" />
    </g>
  </g>
  <g
     id="g66"
     transform="matrix(1.33333,0,0,1.33333,-23.511431,-20.69409)">
    <path
       d="m 120.59,61.09 v 0 l -0.25,-0.15 -0.25,-0.15 V 54 h 0.25 0.26 z"
       id="path64"
       inkscape:connector-curvature="0"
       style="fill:#000000;fill-rule:evenodd;stroke:#000000;stroke-width:0;stroke-linejoin:miter;shape-rendering:geometricPrecision" />
  </g>
  <g
     id="g72"
     transform="matrix(1.33333,0,0,1.33333,-23.511431,-20.69409)">
    <g
       aria-label="O"
       style="text-anchor:start;text-rendering:geometricPrecision"
       id="text70">
      <path
         d="m 127.59672,67.050934 q 0,-1.425781 0.76562,-2.230469 0.76563,-0.808594 1.97657,-0.808594 0.79296,0 1.42968,0.378907 0.63672,0.378906 0.96875,1.058593 0.33594,0.675782 0.33594,1.535157 0,0.871093 -0.35156,1.558593 -0.35156,0.6875 -0.9961,1.042969 -0.64453,0.351563 -1.39062,0.351563 -0.80859,0 -1.44531,-0.390625 -0.63672,-0.390625 -0.96485,-1.066407 -0.32812,-0.675781 -0.32812,-1.429687 z m 0.78125,0.01172 q 0,1.035156 0.55469,1.632812 0.55859,0.59375 1.39843,0.59375 0.85547,0 1.40625,-0.601562 0.55469,-0.601563 0.55469,-1.707032 0,-0.699218 -0.23828,-1.21875 -0.23438,-0.523437 -0.69141,-0.808593 -0.45312,-0.289063 -1.01953,-0.289063 -0.80469,0 -1.38672,0.554688 -0.57812,0.550781 -0.57812,1.84375 z"
         style="font-size:8px;font-family:Arial;fill:#000000"
         id="path1179"
         inkscape:connector-curvature="0" />
    </g>
  </g>
  <g
     id="g80"
     transform="matrix(1.33333,0,0,1.33333,-23.511431,-20.69409)">
    <path
       style="stroke:#000000;stroke-width:0.50999999;shape-rendering:auto"
       d="m 120.86,60.040001 6.23,3.599998"
       id="line74"
       inkscape:connector-curvature="0" />
    <path
       d="m 119.81,61.54 v 0 l -0.51,0.29 6.63,3.82 0.25,-0.44 z"
       id="path76"
       inkscape:connector-curvature="0"
       style="fill:#000000;fill-rule:evenodd;stroke:#000000;stroke-width:0;stroke-linejoin:miter;shape-rendering:geometricPrecision" />
    <path
       d="m 120.6,59.6 v 0 0.59 l 6.36,3.67 0.26,-0.44 z"
       id="path78"
       inkscape:connector-curvature="0"
       style="fill:#000000;fill-rule:evenodd;stroke:#000000;stroke-width:0;stroke-linejoin:miter;shape-rendering:geometricPrecision" />
  </g>
  <g
     id="g86"
     transform="matrix(1.33333,0,0,1.33333,-23.511431,-20.69409)">
    <g
       aria-label="O"
       style="text-anchor:start;text-rendering:geometricPrecision"
       id="text84">
      <path
         d="m 87.726715,78.560936 q 0,-1.425781 0.765625,-2.230469 0.765625,-0.808594 1.976563,-0.808594 0.792968,0 1.429687,0.378907 0.636719,0.378906 0.96875,1.058593 0.335938,0.675782 0.335938,1.535157 0,0.871093 -0.351563,1.558593 -0.351562,0.6875 -0.996094,1.042969 -0.644531,0.351563 -1.390625,0.351563 -0.808593,0 -1.445312,-0.390625 -0.636719,-0.390625 -0.964844,-1.066407 -0.328125,-0.675781 -0.328125,-1.429687 z m 0.78125,0.01172 q 0,1.035156 0.554688,1.632812 0.558593,0.59375 1.398437,0.59375 0.855469,0 1.40625,-0.601562 0.554688,-0.601563 0.554688,-1.707032 0,-0.699218 -0.238282,-1.21875 -0.234375,-0.523437 -0.691406,-0.808593 -0.453125,-0.289063 -1.019531,-0.289063 -0.804688,0 -1.386719,0.554688 -0.578125,0.550781 -0.578125,1.84375 z"
         style="font-size:8px;font-family:Arial;fill:#009d73"
         id="path1175"
         inkscape:connector-curvature="0" />
    </g>
  </g>
  <g
     id="g94"
     transform="matrix(1.33333,0,0,1.33333,-23.511431,-20.69409)">
    <path
       style="stroke:#009d73;stroke-width:0.50999999;shape-rendering:auto"
       d="m 91.480003,66.690002 v 7.610001"
       id="line88"
       inkscape:connector-curvature="0" />
    <path
       d="m 89.66,66.53 v 0 l -0.51,-0.29 v 8.06 h 0.51 z"
       id="path90"
       inkscape:connector-curvature="0"
       style="fill:#009d73;fill-rule:evenodd;stroke:#009d73;stroke-width:0;stroke-linejoin:miter;shape-rendering:geometricPrecision" />
    <path
       d="m 91.73,66.24 v 0 l -0.51,0.29 v 7.77 h 0.51 z"
       id="path92"
       inkscape:connector-curvature="0"
       style="fill:#009d73;fill-rule:evenodd;stroke:#009d73;stroke-width:0;stroke-linejoin:miter;shape-rendering:geometricPrecision" />
  </g>
  <g
     id="WedgeBegin"
     transform="matrix(1.33333,0,0,1.33333,-23.511431,-20.69409)">
    <path
       d="m 80.75,60.8 v 0 l -0.27,0.14 -0.27,-0.14 -0.89,-10.99 1.16,-0.38 1.23,-0.41 z"
       id="path96"
       inkscape:connector-curvature="0"
       style="fill:#000000;fill-rule:evenodd;stroke:#000000;stroke-width:0;stroke-linejoin:miter;shape-rendering:geometricPrecision" />
  </g>
  <g
     id="g103"
     transform="matrix(1.33333,0,0,1.33333,-23.511431,-20.69409)">
    <g
       aria-label="SH"
       style="text-anchor:start;text-rendering:geometricPrecision"
       id="text101">
      <path
         d="m 88.129372,44.990158 0.714843,-0.0625 q 0.05078,0.429688 0.234375,0.707031 0.1875,0.273438 0.578125,0.445313 0.390625,0.167969 0.878907,0.167969 0.433593,0 0.765625,-0.128907 0.332031,-0.128906 0.492187,-0.351562 0.164063,-0.226563 0.164063,-0.492188 0,-0.269531 -0.15625,-0.46875 -0.15625,-0.203125 -0.515625,-0.339843 -0.230469,-0.08984 -1.019532,-0.277344 -0.789062,-0.191406 -1.105468,-0.359375 -0.410157,-0.214844 -0.613282,-0.53125 -0.199218,-0.320313 -0.199218,-0.714844 0,-0.433594 0.246093,-0.808594 0.246094,-0.378906 0.71875,-0.574218 0.472657,-0.195313 1.050782,-0.195313 0.636718,0 1.121093,0.207031 0.488282,0.203125 0.75,0.601563 0.261719,0.398437 0.28125,0.902344 l -0.726562,0.05469 q -0.05859,-0.542969 -0.398438,-0.820312 -0.335937,-0.277344 -0.996093,-0.277344 -0.6875,0 -1.003907,0.253906 -0.3125,0.25 -0.3125,0.605469 0,0.308594 0.222657,0.507812 0.21875,0.199219 1.140625,0.410157 0.925781,0.207031 1.269531,0.363281 0.5,0.230469 0.738281,0.585937 0.238281,0.351563 0.238281,0.8125 0,0.457032 -0.261718,0.863282 -0.261719,0.402343 -0.753907,0.628906 -0.488281,0.222656 -1.101562,0.222656 -0.777344,0 -1.304688,-0.226562 -0.523437,-0.226563 -0.824218,-0.679688 -0.296875,-0.457031 -0.3125,-1.03125 z"
         style="font-size:8px;font-family:Arial;fill:#000000"
         id="path1169"
         inkscape:connector-curvature="0" />
      <path
         d="m 93.754372,46.830002 v -5.726563 h 0.757812 v 2.351563 h 2.976563 v -2.351563 h 0.757812 v 5.726563 h -0.757812 v -2.699219 h -2.976563 v 2.699219 z"
         style="font-size:8px;font-family:Arial;fill:#000000"
         id="path1171"
         inkscape:connector-curvature="0" />
    </g>
  </g>
  <g
     id="g107"
     transform="matrix(1.33333,0,0,1.33333,-23.511431,-20.69409)">
    <path
       d="m 81.71,49.02 v 0 l -1.23,0.41 -1.16,0.38 7.63,-4.41 0.12,0.22 0.13,0.22 z"
       id="path105"
       inkscape:connector-curvature="0"
       style="fill:#000000;fill-rule:evenodd;stroke:#000000;stroke-width:0;stroke-linejoin:miter;shape-rendering:geometricPrecision" />
  </g>
  <g
     id="g113"
     transform="matrix(1.33333,0,0,1.33333,-23.511431,-20.69409)">
    <g
       aria-label="O"
       style="text-anchor:start;text-rendering:geometricPrecision"
       id="text111">
      <path
         d="m 57.826717,49.790939 q 0,-1.425781 0.765625,-2.230468 0.765625,-0.808594 1.976563,-0.808594 0.792969,0 1.429687,0.378906 0.636719,0.378906 0.96875,1.058594 0.335938,0.675781 0.335938,1.535156 0,0.871094 -0.351563,1.558594 -0.351562,0.6875 -0.996093,1.042969 -0.644532,0.351562 -1.390625,0.351562 -0.808594,0 -1.445313,-0.390625 -0.636719,-0.390625 -0.964844,-1.066406 -0.328125,-0.675781 -0.328125,-1.429688 z m 0.78125,0.01172 q 0,1.035156 0.554688,1.632813 0.558594,0.59375 1.398437,0.59375 0.855469,0 1.40625,-0.601563 0.554688,-0.601562 0.554688,-1.707031 0,-0.699219 -0.238281,-1.21875 -0.234375,-0.523438 -0.691407,-0.808594 -0.453125,-0.289062 -1.019531,-0.289062 -0.804687,0 -1.386719,0.554687 -0.578125,0.550781 -0.578125,1.84375 z"
         style="font-size:8px;font-family:Arial;fill:#009d73"
         id="path1166"
         inkscape:connector-curvature="0" />
    </g>
  </g>
  <g
     id="g121"
     transform="matrix(1.33333,0,0,1.33333,-23.511431,-20.69409)">
    <path
       style="stroke:#009d73;stroke-width:0.50999999;shape-rendering:auto"
       d="M 59.5,60.939999 V 54"
       id="line115"
       inkscape:connector-curvature="0" />
    <path
       d="m 61.32,61.1 v 0 l 0.51,0.29 V 54 h -0.51 z"
       id="path117"
       inkscape:connector-curvature="0"
       style="fill:#009d73;fill-rule:evenodd;stroke:#009d73;stroke-width:0;stroke-linejoin:miter;shape-rendering:geometricPrecision" />
    <path
       d="m 59.25,61.39 v 0 L 59.76,61.1 V 54 h -0.51 z"
       id="path119"
       inkscape:connector-curvature="0"
       style="fill:#009d73;fill-rule:evenodd;stroke:#009d73;stroke-width:0;stroke-linejoin:miter;shape-rendering:geometricPrecision" />
  </g>
  <g
     id="g125"
     transform="matrix(1.33333,0,0,1.33333,-23.511431,-20.69409)">
    <path
       d="m 30.64,66.4 v 0 0.29 0.29 l -10.21,-5.89 0.25,-0.15 0.25,-0.15 z"
       id="path123"
       inkscape:connector-curvature="0"
       style="fill:#000000;fill-rule:evenodd;stroke:#000000;stroke-width:0;stroke-linejoin:miter;shape-rendering:geometricPrecision" />
  </g>
  <g
     id="g133"
     transform="matrix(1.33333,0,0,1.33333,-23.511431,-20.69409)">
    <g
       aria-label="NH2"
       style="text-anchor:start;text-rendering:geometricPrecision"
       id="text131">
      <path
         d="m 28.349375,81.349998 v -5.726562 h 0.777344 l 3.007812,4.496094 v -4.496094 h 0.726563 v 5.726562 H 32.08375 l -3.007813,-4.5 v 4.5 z"
         style="font-size:8px;font-family:Arial;fill:#000000"
         id="path1158"
         inkscape:connector-curvature="0" />
      <path
         d="m 34.161875,81.349998 v -5.726562 h 0.757812 v 2.351562 h 2.976563 v -2.351562 h 0.757812 v 5.726562 H 37.89625 V 78.65078 h -2.976563 v 2.699218 z"
         style="font-size:8px;font-family:Arial;fill:#000000"
         id="path1160"
         inkscape:connector-curvature="0" />
      <path
         d="m 42.323008,82.653162 v 0.506836 H 39.48414 q -0.0059,-0.190429 0.06152,-0.366211 0.108398,-0.290039 0.345703,-0.571289 0.240234,-0.28125 0.691406,-0.65039 0.700196,-0.574219 0.946289,-0.908203 0.246094,-0.336914 0.246094,-0.635743 0,-0.313476 -0.225586,-0.527343 -0.222656,-0.216797 -0.583008,-0.216797 -0.380859,0 -0.609375,0.228515 -0.228515,0.228516 -0.231445,0.632813 l -0.541992,-0.05566 q 0.05566,-0.606445 0.418945,-0.922852 0.363281,-0.319336 0.975586,-0.319336 0.618164,0 0.978516,0.342774 0.360351,0.342773 0.360351,0.849609 0,0.257813 -0.105469,0.506836 -0.105468,0.249024 -0.351562,0.524414 -0.243164,0.275391 -0.811523,0.75586 -0.47461,0.398437 -0.609375,0.541992 -0.134766,0.140625 -0.222657,0.284179 z"
         style="font-size:6px;font-family:Arial;fill:#000000"
         id="path1162"
         inkscape:connector-curvature="0" />
    </g>
  </g>
  <g
     id="Wedged Hash Begin Bond"
     transform="matrix(1.33333,0,0,1.33333,-23.511431,-20.69409)">
    <path
       d="m 30.38,66.69 v 0 h 0.52 l 0.05,0.51 h -0.62 z"
       id="path135"
       inkscape:connector-curvature="0"
       style="fill:#000000;fill-rule:evenodd;stroke:#000000;stroke-width:0;stroke-linejoin:miter;shape-rendering:geometricPrecision" />
    <path
       d="m 30.09,69.32 v 0 h 1.1 l 0.06,0.51 h -1.22 z"
       id="path137"
       inkscape:connector-curvature="0"
       style="fill:#000000;fill-rule:evenodd;stroke:#000000;stroke-width:0;stroke-linejoin:miter;shape-rendering:geometricPrecision" />
    <path
       d="m 29.8,71.96 v 0 h 1.68 l 0.06,0.51 h -1.8 z"
       id="path139"
       inkscape:connector-curvature="0"
       style="fill:#000000;fill-rule:evenodd;stroke:#000000;stroke-width:0;stroke-linejoin:miter;shape-rendering:geometricPrecision" />
    <path
       d="m 29.5,74.59 v 0 h 2.28 l 0.05,0.51 h -2.38 z"
       id="path141"
       inkscape:connector-curvature="0"
       style="fill:#000000;fill-rule:evenodd;stroke:#000000;stroke-width:0;stroke-linejoin:miter;shape-rendering:geometricPrecision" />
  </g>
  <g
     id="g148"
     transform="matrix(1.33333,0,0,1.33333,-23.511431,-20.69409)">
    <g
       aria-label="OH"
       style="text-anchor:start;text-rendering:geometricPrecision"
       id="text146">
      <path
         d="m 17.956718,49.790939 q 0,-1.425781 0.765625,-2.230468 0.765625,-0.808594 1.976563,-0.808594 0.792969,0 1.429687,0.378906 0.636719,0.378906 0.96875,1.058594 0.335938,0.675781 0.335938,1.535156 0,0.871094 -0.351563,1.558594 -0.351562,0.6875 -0.996093,1.042969 -0.644532,0.351562 -1.390625,0.351562 -0.808594,0 -1.445313,-0.390625 -0.636719,-0.390625 -0.964844,-1.066406 -0.328125,-0.675781 -0.328125,-1.429688 z m 0.78125,0.01172 q 0,1.035156 0.554688,1.632813 0.558594,0.59375 1.398437,0.59375 0.855469,0 1.40625,-0.601563 0.554688,-0.601562 0.554688,-1.707031 0,-0.699219 -0.238281,-1.21875 -0.234375,-0.523438 -0.691407,-0.808594 -0.453125,-0.289062 -1.019531,-0.289062 -0.804687,0 -1.386719,0.554687 -0.578125,0.550781 -0.578125,1.84375 z"
         style="font-size:8px;font-family:Arial;fill:#000000"
         id="path1153"
         inkscape:connector-curvature="0" />
      <path
         d="m 24.429375,52.580002 v -5.726563 h 0.757812 v 2.351563 h 2.976563 v -2.351563 h 0.757812 v 5.726563 H 28.16375 v -2.699219 h -2.976563 v 2.699219 z"
         style="font-size:8px;font-family:Arial;fill:#000000"
         id="path1155"
         inkscape:connector-curvature="0" />
    </g>
  </g>
  <g
     id="g152"
     transform="matrix(1.33333,0,0,1.33333,-23.511431,-20.69409)">
    <path
       d="m 20.93,60.79 v 0 L 20.68,60.94 20.43,61.09 20.42,54 h 0.25 0.26 z"
       id="path150"
       inkscape:connector-curvature="0"
       style="fill:#000000;fill-rule:evenodd;stroke:#000000;stroke-width:0;stroke-linejoin:miter;shape-rendering:geometricPrecision" />
  </g>
  <g
     id="g158"
     transform="matrix(1.33333,0,0,1.33333,-23.511431,-20.69409)">
    <g
       aria-label="O"
       style="text-anchor:start;text-rendering:geometricPrecision"
       id="text156">
      <path
         d="m 7.9967189,67.050934 q 0,-1.425781 0.765625,-2.230469 0.765625,-0.808594 1.9765621,-0.808594 0.792969,0 1.429688,0.378907 0.636719,0.378906 0.96875,1.058593 0.335937,0.675782 0.335937,1.535157 0,0.871093 -0.351562,1.558593 -0.351563,0.6875 -0.996094,1.042969 -0.644531,0.351563 -1.390625,0.351563 -0.8085936,0 -1.4453124,-0.390625 Q 8.6529689,69.156403 8.3248439,68.480621 7.9967189,67.80484 7.9967189,67.050934 Z m 0.78125,0.01172 q 0,1.035156 0.5546875,1.632812 0.5585937,0.59375 1.3984376,0.59375 0.855469,0 1.40625,-0.601562 0.554687,-0.601563 0.554687,-1.707032 0,-0.699218 -0.238281,-1.21875 -0.234375,-0.523437 -0.691406,-0.808593 -0.453125,-0.289063 -1.019531,-0.289063 -0.8046879,0 -1.3867191,0.554688 -0.578125,0.550781 -0.578125,1.84375 z"
         style="font-size:8px;font-family:Arial;fill:#000000"
         id="path1150"
         inkscape:connector-curvature="0" />
    </g>
  </g>
  <g
     id="g166"
     transform="matrix(1.33333,0,0,1.33333,-23.511431,-20.69409)">
    <path
       style="stroke:#000000;stroke-width:0.50999999;shape-rendering:auto"
       d="M 21.200001,61.84 15.14,65.330002"
       id="line160"
       inkscape:connector-curvature="0" />
    <path
       d="m 20.42,60.19 v 0 -0.59 l -6.44,3.71 0.26,0.45 z"
       id="path162"
       inkscape:connector-curvature="0"
       style="fill:#000000;fill-rule:evenodd;stroke:#000000;stroke-width:0;stroke-linejoin:miter;shape-rendering:geometricPrecision" />
    <path
       d="m 21.72,61.83 v 0 l -0.51,-0.29 -6.19,3.57 0.25,0.44 z"
       id="path164"
       inkscape:connector-curvature="0"
       style="fill:#000000;fill-rule:evenodd;stroke:#000000;stroke-width:0;stroke-linejoin:miter;shape-rendering:geometricPrecision" />
  </g>
  <text
     xml:space="preserve"
     style="font-style:normal;font-weight:normal;font-size:10.66666698px;line-height:1.25;font-family:sans-serif;text-align:start;letter-spacing:0px;word-spacing:0px;text-anchor:start;fill:#000000;fill-opacity:1;stroke:none"
     x="121.32487"
     y="92.230553"
     id="text901"><tspan
       sodipodi:role="line"
       id="tspan899"
       x="121.32487"
       y="92.230553">\cmpd{glutathione}</tspan></text>
</svg>
