<?xml version="1.0" encoding="UTF-8" standalone="no"?>
<svg
   xmlns:dc="http://purl.org/dc/elements/1.1/"
   xmlns:cc="http://creativecommons.org/ns#"
   xmlns:rdf="http://www.w3.org/1999/02/22-rdf-syntax-ns#"
   xmlns:svg="http://www.w3.org/2000/svg"
   xmlns="http://www.w3.org/2000/svg"
   xmlns:xlink="http://www.w3.org/1999/xlink"
   xmlns:sodipodi="http://sodipodi.sourceforge.net/DTD/sodipodi-0.dtd"
   xmlns:inkscape="http://www.inkscape.org/namespaces/inkscape"
   viewBox="4.16 35.33 398.57233 104.07974"
   preserveAspectRatio="xMidYMid"
   width="100%"
   height="100%"
   version="1.1"
   id="svg1487"
   sodipodi:docname="wallach.svg"
   inkscape:version="0.92.3 (2405546, 2018-03-11)">
  <metadata
     id="metadata1493">
    <rdf:RDF>
      <cc:Work
         rdf:about="">
        <dc:format>image/svg+xml</dc:format>
        <dc:type
           rdf:resource="http://purl.org/dc/dcmitype/StillImage" />
        <dc:title />
      </cc:Work>
    </rdf:RDF>
  </metadata>
  <defs
     id="defs1491">
    <linearGradient
       inkscape:collect="always"
       id="linearGradient2964">
      <stop
         id="stop2960"
         offset="0"
         style="stop-color:#009d73;stop-opacity:0" />
      <stop
         id="stop2962"
         offset="1"
         style="stop-color:#009d73;stop-opacity:1" />
    </linearGradient>
    <linearGradient
       inkscape:collect="always"
       id="linearGradient1354">
      <stop
         style="stop-color:#009d73;stop-opacity:0.03804348"
         offset="0"
         id="stop1350" />
      <stop
         style="stop-color:#009d73;stop-opacity:1"
         offset="1"
         id="stop1352" />
    </linearGradient>
    <radialGradient
       inkscape:collect="always"
       xlink:href="#linearGradient1354"
       id="radialGradient2674"
       cx="198.77185"
       cy="107.81824"
       fx="198.77185"
       fy="107.81824"
       r="3.6756244"
       gradientTransform="matrix(1.4219458,0.95542474,-1.9236941,2.8630138,123.53837,-389.21004)"
       gradientUnits="userSpaceOnUse" />
    <radialGradient
       inkscape:collect="always"
       xlink:href="#linearGradient1354"
       id="radialGradient2682"
       cx="198.77185"
       cy="107.81824"
       fx="198.77185"
       fy="107.81824"
       r="3.6756244"
       gradientTransform="matrix(1.4219458,0.95542474,-1.9236941,2.8630138,123.53837,-389.21004)"
       gradientUnits="userSpaceOnUse" />
    <radialGradient
       id="radialGradient1286"
       gradientUnits="userSpaceOnUse"
       cx="280.66467"
       cy="75.656357"
       r="6.191565"
       fx="278.9104"
       fy="73.076538"
       gradientTransform="scale(0.71238038,1.4037444)">
      <stop
         offset="0%"
         stop-color="rgb(255, 255, 255)"
         id="stop1276"
         style="fill-opacity:1.0;fill:url(#radialGradient1356)" />
      <stop
         offset="25%"
         stop-color="rgb(255, 255, 255)"
         id="stop1278"
         style="fill-opacity:1.0;fill:url(#radialGradient1356)" />
      <stop
         offset="80%"
         stop-color="rgb(237, 183, 64)"
         id="stop1280"
         style="fill-opacity:1.0;fill:url(#radialGradient1356)" />
      <stop
         offset="90%"
         stop-color="rgb(230, 158, 0)"
         id="stop1282"
         style="fill-opacity:1.0;fill:url(#radialGradient1356)" />
      <stop
         offset="100%"
         stop-color="rgb(230, 158, 0)"
         id="stop1284"
         style="fill-opacity:1.0;fill:url(#radialGradient1356)" />
    </radialGradient>
    <linearGradient
       id="linearGradient1136"
       inkscape:collect="always">
      <stop
         style="stop-color:#cc78a6;stop-opacity:0.01086957"
         offset="0"
         id="stop1132" />
      <stop
         style="stop-color:#cc78a6;stop-opacity:1"
         offset="1"
         id="stop1134" />
    </linearGradient>
    <radialGradient
       inkscape:collect="always"
       xlink:href="#linearGradient1136"
       id="radialGradient2774"
       cx="198.61807"
       cy="105.03936"
       fx="198.61807"
       fy="105.03936"
       r="3.6756244"
       gradientTransform="matrix(0.88192343,2.5244413,-1.192156,0.41648436,148.67545,-441.23607)"
       gradientUnits="userSpaceOnUse" />
    <radialGradient
       inkscape:collect="always"
       xlink:href="#linearGradient1136"
       id="radialGradient2782"
       cx="198.61807"
       cy="105.03936"
       fx="198.61807"
       fy="105.03936"
       r="3.6756244"
       gradientTransform="matrix(0.88192343,2.5244413,-1.192156,0.41648436,148.67545,-441.23607)"
       gradientUnits="userSpaceOnUse" />
    <radialGradient
       id="defaultShaded9578Arrow"
       gradientUnits="userSpaceOnUse"
       cx="280.66467"
       cy="75.656357"
       r="6.191565"
       fx="278.9104"
       fy="73.076538"
       gradientTransform="scale(0.71238038,1.4037444)">
      <stop
         offset="0%"
         stop-color="rgb(255, 255, 255)"
         id="stop419"
         style="fill-opacity:1;fill:url(#radialGradient1148)" />
      <stop
         offset="25%"
         stop-color="rgb(255, 255, 255)"
         id="stop421"
         style="fill-opacity:1;fill:url(#radialGradient1148)" />
      <stop
         offset="80%"
         stop-color="rgb(237, 183, 64)"
         id="stop423"
         style="fill-opacity:1;fill:url(#radialGradient1148)" />
      <stop
         offset="90%"
         stop-color="rgb(230, 158, 0)"
         id="stop425"
         style="fill-opacity:1;fill:url(#radialGradient1148)" />
      <stop
         offset="100%"
         stop-color="rgb(230, 158, 0)"
         id="stop427"
         style="fill-opacity:1;fill:url(#radialGradient1148)" />
    </radialGradient>
    <radialGradient
       inkscape:collect="always"
       xlink:href="#linearGradient1354"
       id="radialGradient1148"
       cx="198.61807"
       cy="105.03936"
       fx="198.61807"
       fy="105.03936"
       r="3.6756244"
       gradientTransform="matrix(0.88192343,2.5244413,-1.192156,0.41648436,148.67545,-441.23607)"
       gradientUnits="userSpaceOnUse" />
    <radialGradient
       r="3.6756244"
       fy="105.03936"
       fx="198.61807"
       cy="105.03936"
       cx="198.61807"
       gradientTransform="matrix(0.88192343,2.5244413,-1.192156,0.41648436,148.67545,-441.23607)"
       gradientUnits="userSpaceOnUse"
       id="radialGradient2802"
       xlink:href="#linearGradient1136"
       inkscape:collect="always" />
    <radialGradient
       r="3.6756244"
       fy="105.03936"
       fx="198.61807"
       cy="105.03936"
       cx="198.61807"
       gradientTransform="matrix(0.88192343,2.5244413,-1.192156,0.41648436,148.67545,-441.23607)"
       gradientUnits="userSpaceOnUse"
       id="radialGradient2800"
       xlink:href="#linearGradient2964"
       inkscape:collect="always" />
    <radialGradient
       id="radialGradient2856"
       gradientUnits="userSpaceOnUse"
       cx="280.66467"
       cy="75.656357"
       r="6.191565"
       fx="278.9104"
       fy="73.076538"
       gradientTransform="scale(0.71238038,1.4037444)">
      <stop
         offset="0%"
         stop-color="rgb(255, 255, 255)"
         id="stop2846"
         style="fill-opacity:1.0;fill:url(#radialGradient1148)" />
      <stop
         offset="25%"
         stop-color="rgb(255, 255, 255)"
         id="stop2848"
         style="fill-opacity:1.0;fill:url(#radialGradient1148)" />
      <stop
         offset="80%"
         stop-color="rgb(237, 183, 64)"
         id="stop2850"
         style="fill-opacity:1.0;fill:url(#radialGradient1148)" />
      <stop
         offset="90%"
         stop-color="rgb(230, 158, 0)"
         id="stop2852"
         style="fill-opacity:1.0;fill:url(#radialGradient1148)" />
      <stop
         offset="100%"
         stop-color="rgb(230, 158, 0)"
         id="stop2854"
         style="fill-opacity:1.0;fill:url(#radialGradient1148)" />
    </radialGradient>
  </defs>
  <sodipodi:namedview
     pagecolor="#ffffff"
     bordercolor="#666666"
     borderopacity="1"
     objecttolerance="10"
     gridtolerance="10"
     guidetolerance="10"
     inkscape:pageopacity="0"
     inkscape:pageshadow="2"
     inkscape:window-width="1920"
     inkscape:window-height="1017"
     id="namedview1489"
     showgrid="false"
     inkscape:zoom="2.9402661"
     inkscape:cx="195.25782"
     inkscape:cy="23.501976"
     inkscape:window-x="-8"
     inkscape:window-y="-8"
     inkscape:window-maximized="1"
     inkscape:current-layer="svg1487"
     showguides="true"
     inkscape:guide-bbox="true">
    <sodipodi:guide
       position="1.0263941,38.480862"
       orientation="0,1"
       id="guide1183"
       inkscape:locked="false" />
  </sodipodi:namedview>
  <clipPath
     id="9407">
    <rect
       x="0.255"
       y="0.255"
       width="302.73999"
       height="769.28998"
       id="rect1155" />
  </clipPath>
  <g
     id="g436"
     transform="matrix(1.3333,0,0,1.3333,-25.924939,-91.637319)"
     style="fill:url(#radialGradient1148);fill-opacity:1;stroke:#009d73;stroke-opacity:1">
    <g
       id="g434"
       style="fill:url(#radialGradient2802);fill-opacity:1;stroke:#009d73;stroke-opacity:1">
      <defs
         id="defs430">
        <radialGradient
           id="radialGradient2946"
           gradientUnits="userSpaceOnUse"
           cx="280.66467"
           cy="75.656357"
           r="6.191565"
           fx="278.9104"
           fy="73.076538"
           gradientTransform="scale(0.71238038,1.4037444)">
          <stop
             offset="0%"
             stop-color="rgb(255, 255, 255)"
             id="stop2936"
             style="fill-opacity:1.0;fill:url(#radialGradient1148)" />
          <stop
             offset="25%"
             stop-color="rgb(255, 255, 255)"
             id="stop2938"
             style="fill-opacity:1.0;fill:url(#radialGradient1148)" />
          <stop
             offset="80%"
             stop-color="rgb(237, 183, 64)"
             id="stop2940"
             style="fill-opacity:1.0;fill:url(#radialGradient1148)" />
          <stop
             offset="90%"
             stop-color="rgb(230, 158, 0)"
             id="stop2942"
             style="fill-opacity:1.0;fill:url(#radialGradient1148)" />
          <stop
             offset="100%"
             stop-color="rgb(230, 158, 0)"
             id="stop2944"
             style="fill-opacity:1.0;fill:url(#radialGradient1148)" />
        </radialGradient>
      </defs>
      <path
         d="m 198.41,113.19 v -10.81 h -1.53 l 3.06,-3.06 3.06,3.06 h -1.53 v 10.81 z"
         id="path432"
         style="fill:url(#radialGradient2800);fill-opacity:1;fill-rule:evenodd;stroke:#009d73;stroke-width:0.50999999;stroke-linejoin:miter;stroke-opacity:1;shape-rendering:geometricPrecision"
         inkscape:connector-curvature="0" />
    </g>
  </g>
  <g
     id="g1166"
     transform="matrix(1.33333,0,0,1.33333,-1.2373404,-16.617501)">
    <g
       aria-label="R1"
       style="text-anchor:end;text-rendering:geometricPrecision"
       id="text1164">
      <path
         d="m 4.8178129,88.160004 v -5.726563 h 2.5390625 q 0.765625,0 1.1640625,0.15625 0.3984375,0.152344 0.6367188,0.542969 0.2382812,0.390625 0.2382812,0.863281 0,0.609375 -0.3945312,1.027344 -0.3945313,0.417969 -1.21875,0.53125 0.3007812,0.144531 0.4570312,0.285156 0.3320313,0.304688 0.6289063,0.761719 l 0.9960937,1.558594 H 8.9115629 L 8.1537504,86.968597 Q 7.8217192,86.452972 7.6068754,86.179535 7.3920317,85.906097 7.2201567,85.796722 7.0521879,85.687347 6.8764067,85.644379 6.7475004,85.617035 6.4545317,85.617035 H 5.5756254 v 2.542969 z m 0.7578125,-3.199219 h 1.6289063 q 0.5195312,0 0.8125,-0.105469 0.2929687,-0.109375 0.4453125,-0.34375 0.1523437,-0.238281 0.1523437,-0.515625 0,-0.40625 -0.296875,-0.667969 -0.2929687,-0.261718 -0.9296875,-0.261718 h -1.8125 z"
         style="font-size:8px;font-family:Arial;fill:#000000"
         id="path1120" />
      <path
         d="m 12.205508,84.900004 h -0.527344 v -3.360352 q -0.190429,0.181641 -0.500976,0.363281 -0.307617,0.181641 -0.553711,0.272461 v -0.509765 q 0.442383,-0.208008 0.773437,-0.503907 0.331055,-0.295898 0.46875,-0.574218 h 0.339844 z"
         style="font-size:6px;font-family:Arial;fill:#000000"
         id="path1122" />
    </g>
  </g>
  <g
     id="Solid"
     transform="matrix(1.33333,0,0,1.33333,-1.2373404,-16.617501)">
    <path
       d="m 13.55,81.56 v 0 l -0.12,-0.22 -0.13,-0.22 3.73,-2.15 v 0.29 0.29 z"
       id="path1168"
       inkscape:connector-curvature="0"
       style="fill:#000000;fill-rule:evenodd;stroke:#000000;stroke-width:0;stroke-linejoin:miter;shape-rendering:geometricPrecision" />
  </g>
  <g
     id="g1177"
     transform="matrix(1.33333,0,0,1.33333,-1.2373404,-16.617501)">
    <g
       aria-label="NH"
       style="text-anchor:start;text-rendering:geometricPrecision"
       id="text1175">
      <path
         d="m 24.709375,88.160004 v -5.726563 h 0.777344 l 3.007813,4.496094 v -4.496094 h 0.726562 v 5.726563 H 28.44375 l -3.007812,-4.5 v 4.5 z"
         style="font-size:8px;font-family:Arial;fill:#000000"
         id="path1106" />
      <path
         d="m 24.740625,96.160004 v -5.726563 h 0.757813 v 2.351563 H 28.475 v -2.351563 h 0.757813 v 5.726563 H 28.475 v -2.699219 h -2.976562 v 2.699219 z"
         style="font-size:8px;font-family:Arial;fill:#000000"
         id="path1108" />
    </g>
  </g>
  <g
     id="g1181"
     transform="matrix(1.33333,0,0,1.33333,-1.2373404,-16.617501)">
    <path
       d="m 17.03,79.55 v 0 -0.29 -0.29 l 6.77,3.9 -0.13,0.22 -0.12,0.22 z"
       id="path1179"
       inkscape:connector-curvature="0"
       style="fill:#000000;fill-rule:evenodd;stroke:#000000;stroke-width:0;stroke-linejoin:miter;shape-rendering:geometricPrecision" />
  </g>
  <g
     id="g1189"
     transform="matrix(1.33333,0,0,1.33333,-1.2373404,-16.617501)">
    <g
       aria-label="R2"
       style="text-anchor:start;text-rendering:geometricPrecision"
       id="text1187">
      <path
         d="m 34.688908,82.410004 v -5.726563 h 2.539062 q 0.765625,0 1.164063,0.15625 0.398437,0.152344 0.636718,0.542969 0.238282,0.390625 0.238282,0.863281 0,0.609375 -0.394532,1.027344 -0.394531,0.417969 -1.21875,0.53125 0.300782,0.144531 0.457032,0.285156 0.332031,0.304688 0.628906,0.761719 l 0.996094,1.558594 h -0.953125 l -0.757813,-1.191407 q -0.332031,-0.515625 -0.546875,-0.789062 -0.214844,-0.273438 -0.386719,-0.382813 -0.167968,-0.109375 -0.34375,-0.152343 -0.128906,-0.02734 -0.421875,-0.02734 H 35.44672 v 2.542969 z m 0.757812,-3.199219 h 1.628906 q 0.519532,0 0.8125,-0.105469 0.292969,-0.109375 0.445313,-0.34375 0.152344,-0.238281 0.152344,-0.515625 0,-0.40625 -0.296875,-0.667969 -0.292969,-0.261718 -0.929688,-0.261718 h -1.8125 z"
         style="font-size:8px;font-family:Arial;fill:#000000"
         id="path1115" />
      <path
         d="m 42.861759,78.643168 v 0.506836 h -2.838867 q -0.0059,-0.19043 0.06152,-0.366211 0.108399,-0.290039 0.345704,-0.571289 0.240234,-0.28125 0.691406,-0.650391 0.700195,-0.574219 0.946289,-0.908203 0.246094,-0.336914 0.246094,-0.635742 0,-0.313477 -0.225586,-0.527344 -0.222657,-0.216797 -0.583008,-0.216797 -0.38086,0 -0.609375,0.228516 -0.228516,0.228515 -0.231445,0.632812 l -0.541993,-0.05566 q 0.05566,-0.606445 0.418946,-0.922851 0.363281,-0.319336 0.975586,-0.319336 0.618164,0 0.978515,0.342773 0.360352,0.342774 0.360352,0.849609 0,0.257813 -0.105469,0.506836 -0.105469,0.249024 -0.351562,0.524414 -0.243165,0.275391 -0.811524,0.75586 -0.474609,0.398437 -0.609375,0.541992 -0.134766,0.140625 -0.222656,0.28418 z"
         style="font-size:6px;font-family:Arial;fill:#000000"
         id="path1117" />
    </g>
  </g>
  <g
     id="g1193"
     transform="matrix(1.33333,0,0,1.33333,-1.2373404,-16.617501)">
    <path
       d="m 30.55,83.25 v 0 l -0.12,-0.22 -0.13,-0.22 3.15,-1.82 0.12,0.22 0.13,0.23 z"
       id="path1191"
       inkscape:connector-curvature="0"
       style="fill:#000000;fill-rule:evenodd;stroke:#000000;stroke-width:0;stroke-linejoin:miter;shape-rendering:geometricPrecision" />
  </g>
  <g
     id="g1199"
     transform="matrix(1.33333,0,0,1.33333,-1.2373404,-16.617501)">
    <g
       aria-label="O"
       style="text-anchor:start;text-rendering:geometricPrecision"
       id="text1197">
      <path
         d="m 14.316719,68.110939 q 0,-1.425781 0.765625,-2.230469 0.765625,-0.808593 1.976563,-0.808593 0.792968,0 1.429687,0.378906 0.636719,0.378906 0.96875,1.058594 0.335938,0.675781 0.335938,1.535156 0,0.871094 -0.351563,1.558594 -0.351562,0.6875 -0.996094,1.042968 -0.644531,0.351563 -1.390625,0.351563 -0.808593,0 -1.445312,-0.390625 -0.636719,-0.390625 -0.964844,-1.066406 -0.328125,-0.675782 -0.328125,-1.429688 z m 0.78125,0.01172 q 0,1.035156 0.554688,1.632812 0.558593,0.59375 1.398437,0.59375 0.855469,0 1.40625,-0.601562 0.554688,-0.601563 0.554688,-1.707031 0,-0.699219 -0.238282,-1.21875 -0.234375,-0.523438 -0.691406,-0.808594 -0.453125,-0.289063 -1.019531,-0.289063 -0.804688,0 -1.386719,0.554688 -0.578125,0.550781 -0.578125,1.84375 z"
         style="font-size:8px;font-family:Arial;fill:#000000"
         id="path1112" />
    </g>
  </g>
  <g
     id="g1207"
     transform="matrix(1.33333,0,0,1.33333,-1.2373404,-16.617501)">
    <path
       style="stroke:#000000;stroke-width:0.50999999;shape-rendering:auto"
       d="M 15.99,79.260002 V 72.300003"
       id="line1201" />
    <path
       d="m 17.81,79.42 v 0 l 0.51,0.29 V 72.3 h -0.51 z"
       id="path1203"
       inkscape:connector-curvature="0"
       style="fill:#000000;fill-rule:evenodd;stroke:#000000;stroke-width:0;stroke-linejoin:miter;shape-rendering:geometricPrecision" />
    <path
       d="m 15.74,79.71 v 0 l 0.51,-0.29 V 72.3 h -0.51 z"
       id="path1205"
       inkscape:connector-curvature="0"
       style="fill:#000000;fill-rule:evenodd;stroke:#000000;stroke-width:0;stroke-linejoin:miter;shape-rendering:geometricPrecision" />
  </g>
  <g
     id="g1215"
     transform="matrix(1.33333,0,0,1.33333,-1.2373404,-16.617501)">
    <g
       aria-label="R1"
       style="text-anchor:end;text-rendering:geometricPrecision"
       id="text1213">
      <path
         d="m 88.707809,87.389999 v -5.726562 h 2.539063 q 0.765625,0 1.164062,0.15625 0.398438,0.152344 0.636719,0.542969 0.238281,0.390625 0.238281,0.863281 0,0.609375 -0.394531,1.027344 -0.394531,0.417968 -1.21875,0.53125 0.300781,0.144531 0.457031,0.285156 0.332032,0.304687 0.628907,0.761719 l 0.996093,1.558593 h -0.953125 l -0.757812,-1.191406 q -0.332031,-0.515625 -0.546875,-0.789062 -0.214844,-0.273438 -0.386719,-0.382813 -0.167969,-0.109375 -0.34375,-0.152344 -0.128906,-0.02734 -0.421875,-0.02734 h -0.878906 v 2.542968 z m 0.757813,-3.199218 h 1.628906 q 0.519531,0 0.8125,-0.105469 0.292969,-0.109375 0.445313,-0.34375 0.152343,-0.238281 0.152343,-0.515625 0,-0.40625 -0.296875,-0.667969 -0.292968,-0.261719 -0.929687,-0.261719 h -1.8125 z"
         style="font-size:8px;font-family:Arial;fill:#000000"
         id="path1092" />
      <path
         d="m 96.095505,84.129999 h -0.527344 v -3.360351 q -0.19043,0.18164 -0.500977,0.363281 -0.307617,0.181641 -0.55371,0.272461 v -0.509766 q 0.442382,-0.208007 0.773437,-0.503906 0.331055,-0.295898 0.46875,-0.574219 h 0.339844 z"
         style="font-size:6px;font-family:Arial;fill:#000000"
         id="path1094" />
    </g>
  </g>
  <g
     id="g1219"
     transform="matrix(1.33333,0,0,1.33333,-1.2373404,-16.617501)">
    <path
       d="m 97.35,80.83 v 0 l -0.12,-0.22 -0.13,-0.22 3.45,-1.99 0.35,0.09 v 0.29 z"
       id="path1217"
       inkscape:connector-curvature="0"
       style="fill:#000000;fill-rule:evenodd;stroke:#000000;stroke-width:0;stroke-linejoin:miter;shape-rendering:geometricPrecision" />
  </g>
  <g
     id="g1227"
     transform="matrix(1.33333,0,0,1.33333,-1.2373404,-16.617501)">
    <g
       aria-label="NH"
       style="text-anchor:start;text-rendering:geometricPrecision"
       id="text1225">
      <path
         d="m 108.56937,87.389999 v -5.726562 h 0.77735 l 3.00781,4.496094 v -4.496094 h 0.72656 v 5.726562 h -0.77734 l -3.00781,-4.5 v 4.5 z"
         style="font-size:8px;font-family:Arial;fill:#000000"
         id="path1072" />
      <path
         d="m 108.60062,95.389999 v -5.726562 h 0.75782 v 2.351562 h 2.97656 v -2.351562 h 0.75781 v 5.726562 H 112.335 v -2.699218 h -2.97656 v 2.699218 z"
         style="font-size:8px;font-family:Arial;fill:#000000"
         id="path1074" />
    </g>
  </g>
  <g
     id="g1231"
     transform="matrix(1.33333,0,0,1.33333,-1.2373404,-16.617501)">
    <path
       d="m 100.9,78.78 v 0 -0.29 l 0.35,-0.09 6.35,3.66 -0.13,0.23 -0.12,0.22 z"
       id="path1229"
       inkscape:connector-curvature="0"
       style="fill:#000000;fill-rule:evenodd;stroke:#000000;stroke-width:0;stroke-linejoin:miter;shape-rendering:geometricPrecision" />
  </g>
  <g
     id="g1239"
     transform="matrix(1.33333,0,0,1.33333,-1.2373404,-16.617501)">
    <g
       aria-label="R2"
       style="text-anchor:start;text-rendering:geometricPrecision"
       id="text1237">
      <path
         d="m 118.5489,81.639999 v -5.726562 h 2.53907 q 0.76562,0 1.16406,0.15625 0.39844,0.152344 0.63672,0.542969 0.23828,0.390625 0.23828,0.863281 0,0.609375 -0.39453,1.027344 -0.39453,0.417968 -1.21875,0.53125 0.30078,0.144531 0.45703,0.285156 0.33203,0.304687 0.62891,0.761719 l 0.99609,1.558593 h -0.95313 l -0.75781,-1.191406 q -0.33203,-0.515625 -0.54687,-0.789062 -0.21485,-0.273438 -0.38672,-0.382813 -0.16797,-0.109375 -0.34375,-0.152344 -0.12891,-0.02734 -0.42188,-0.02734 h -0.8789 v 2.542968 z m 0.75782,-3.199218 h 1.6289 q 0.51953,0 0.8125,-0.105469 0.29297,-0.109375 0.44532,-0.34375 0.15234,-0.238281 0.15234,-0.515625 0,-0.40625 -0.29688,-0.667969 -0.29296,-0.261719 -0.92968,-0.261719 h -1.8125 z"
         style="font-size:8px;font-family:Arial;fill:#000000"
         id="path1077" />
      <path
         d="m 126.72176,77.873163 v 0.506836 h -2.83887 q -0.006,-0.190429 0.0615,-0.366211 0.1084,-0.290039 0.34571,-0.571289 0.24023,-0.28125 0.6914,-0.65039 0.7002,-0.574219 0.94629,-0.908203 0.24609,-0.336914 0.24609,-0.635743 0,-0.313476 -0.22558,-0.527343 -0.22266,-0.216797 -0.58301,-0.216797 -0.38086,0 -0.60937,0.228515 -0.22852,0.228516 -0.23145,0.632813 l -0.54199,-0.05566 q 0.0557,-0.606445 0.41894,-0.922852 0.36328,-0.319336 0.97559,-0.319336 0.61816,0 0.97852,0.342774 0.36035,0.342773 0.36035,0.849609 0,0.257813 -0.10547,0.506836 -0.10547,0.249024 -0.35156,0.524414 -0.24317,0.275391 -0.81153,0.75586 -0.47461,0.398437 -0.60937,0.541992 -0.13477,0.140625 -0.22266,0.284179 z"
         style="font-size:6px;font-family:Arial;fill:#000000"
         id="path1079" />
    </g>
  </g>
  <g
     id="g1243"
     transform="matrix(1.33333,0,0,1.33333,-1.2373404,-16.617501)">
    <path
       d="m 114.35,82.52 v 0 l -0.12,-0.22 -0.13,-0.22 3.25,-1.88 0.12,0.22 0.13,0.22 z"
       id="path1241"
       inkscape:connector-curvature="0"
       style="fill:#000000;fill-rule:evenodd;stroke:#000000;stroke-width:0;stroke-linejoin:miter;shape-rendering:geometricPrecision" />
  </g>
  <g
     id="g1249"
     transform="matrix(1.33333,0,0,1.33333,-1.2373404,-16.617501)">
    <g
       aria-label="Cl"
       style="text-anchor:end;text-rendering:geometricPrecision"
       id="text1247">
      <path
         d="m 93.190628,69.672188 0.757813,0.191406 q -0.238282,0.933594 -0.859375,1.425781 -0.617188,0.488282 -1.511719,0.488282 -0.925781,0 -1.507813,-0.375 -0.578125,-0.378907 -0.882812,-1.09375 -0.300781,-0.714844 -0.300781,-1.535157 0,-0.894531 0.339843,-1.558593 0.34375,-0.667969 0.972657,-1.011719 0.632812,-0.347656 1.390625,-0.347656 0.859375,0 1.445312,0.4375 0.585938,0.4375 0.816406,1.230468 l -0.746093,0.175782 q -0.199219,-0.625 -0.578125,-0.910157 -0.378907,-0.285156 -0.953125,-0.285156 -0.660157,0 -1.105469,0.316406 -0.441406,0.316407 -0.621094,0.851563 -0.179687,0.53125 -0.179687,1.097656 0,0.730469 0.210937,1.277344 0.214844,0.542969 0.664063,0.8125 0.449218,0.269531 0.972656,0.269531 0.636719,0 1.078125,-0.367187 0.441406,-0.367188 0.597656,-1.089844 z"
         style="font-size:8px;font-family:Arial;fill:#009d73"
         id="path1087" />
      <path
         d="m 94.780472,71.68 v -5.726562 h 0.703125 V 71.68 Z"
         style="font-size:8px;font-family:Arial;fill:#009d73"
         id="path1089" />
    </g>
  </g>
  <g
     id="g1253"
     transform="matrix(1.33333,0,0,1.33333,-1.2373404,-16.617501)">
    <path
       d="m 100.9,77.98 v 0 0.51 l -0.35,-0.09 -4.62,-8.01 0.22,-0.13 0.22,-0.13 z"
       id="path1251"
       inkscape:connector-curvature="0"
       style="fill:#009d73;fill-rule:evenodd;stroke:#009d73;stroke-width:0;stroke-linejoin:miter;shape-rendering:geometricPrecision" />
  </g>
  <g
     id="g1259"
     transform="matrix(1.33333,0,0,1.33333,-1.2373404,-16.617501)">
    <g
       aria-label="Cl"
       style="text-anchor:start;text-rendering:geometricPrecision"
       id="text1257">
      <path
         d="m 108.45313,69.672188 0.75781,0.191406 q -0.23828,0.933594 -0.85938,1.425781 -0.61718,0.488282 -1.51172,0.488282 -0.92578,0 -1.50781,-0.375 -0.57812,-0.378907 -0.88281,-1.09375 -0.30078,-0.714844 -0.30078,-1.535157 0,-0.894531 0.33984,-1.558593 0.34375,-0.667969 0.97266,-1.011719 0.63281,-0.347656 1.39062,-0.347656 0.85938,0 1.44532,0.4375 0.58593,0.4375 0.8164,1.230468 l -0.74609,0.175782 q -0.19922,-0.625 -0.57813,-0.910157 -0.3789,-0.285156 -0.95312,-0.285156 -0.66016,0 -1.10547,0.316406 -0.44141,0.316407 -0.62109,0.851563 -0.17969,0.53125 -0.17969,1.097656 0,0.730469 0.21094,1.277344 0.21484,0.542969 0.66406,0.8125 0.44922,0.269531 0.97265,0.269531 0.63672,0 1.07813,-0.367187 0.44141,-0.367188 0.59766,-1.089844 z"
         style="font-size:8px;font-family:Arial;fill:#009d73"
         id="path1082" />
      <path
         d="m 110.04297,71.68 v -5.726562 h 0.70312 V 71.68 Z"
         style="font-size:8px;font-family:Arial;fill:#009d73"
         id="path1084" />
    </g>
  </g>
  <g
     id="g1263"
     transform="matrix(1.33333,0,0,1.33333,-1.2373404,-16.617501)">
    <path
       d="m 101.25,78.4 v 0 l -0.35,0.09 v -0.51 l 3.23,-5.59 0.22,0.12 0.22,0.13 z"
       id="path1261"
       inkscape:connector-curvature="0"
       style="fill:#009d73;fill-rule:evenodd;stroke:#009d73;stroke-width:0;stroke-linejoin:miter;shape-rendering:geometricPrecision" />
  </g>
  <g
     id="g1271"
     transform="matrix(1.33333,0,0,1.33333,-1.2373404,-22.617501)">
    <g
       aria-label="R1"
       style="text-anchor:end;text-rendering:geometricPrecision"
       id="text1269">
      <path
         d="m 180.81781,92.540001 v -5.726563 h 2.53906 q 0.76563,0 1.16407,0.15625 0.39843,0.152344 0.63671,0.542969 0.23829,0.390625 0.23829,0.863281 0,0.609375 -0.39454,1.027344 -0.39453,0.417969 -1.21875,0.53125 0.30079,0.144531 0.45704,0.285156 0.33203,0.304688 0.6289,0.761719 l 0.9961,1.558594 h -0.95313 l -0.75781,-1.191406 q -0.33203,-0.515625 -0.54688,-0.789063 -0.21484,-0.273437 -0.38672,-0.382812 -0.16796,-0.109375 -0.34375,-0.152344 -0.1289,-0.02734 -0.42187,-0.02734 h -0.87891 v 2.542969 z m 0.75781,-3.199219 h 1.62891 q 0.51953,0 0.8125,-0.105469 0.29297,-0.109375 0.44531,-0.34375 0.15235,-0.238281 0.15235,-0.515625 0,-0.40625 -0.29688,-0.667968 -0.29297,-0.261719 -0.92969,-0.261719 h -1.8125 z"
         style="font-size:8px;font-family:Arial;fill:#000000"
         id="path1054"
         inkscape:connector-curvature="0" />
      <path
         d="m 188.20551,89.280001 h -0.52735 v -3.360352 q -0.19043,0.181641 -0.50097,0.363282 -0.30762,0.18164 -0.55372,0.272461 v -0.509766 q 0.44239,-0.208008 0.77344,-0.503906 0.33106,-0.295899 0.46875,-0.574219 h 0.33985 z"
         style="font-size:6px;font-family:Arial;fill:#000000"
         id="path1056"
         inkscape:connector-curvature="0" />
    </g>
  </g>
  <g
     id="g1275"
     transform="matrix(1.33333,0,0,1.33333,-1.2373404,-22.617501)">
    <path
       d="m 189.55,85.93 v 0 l -0.12,-0.22 -0.13,-0.22 3.47,-2.01 0.25,0.15 v 0.29 z"
       id="path1273"
       inkscape:connector-curvature="0"
       style="fill:#000000;fill-rule:evenodd;stroke:#000000;stroke-width:0;stroke-linejoin:miter;shape-rendering:geometricPrecision" />
  </g>
  <g
     id="g1281"
     transform="matrix(1.33333,0,0,1.33333,-1.2373404,-22.617501)">
    <g
       aria-label="N"
       style="text-anchor:start;text-rendering:geometricPrecision"
       id="text1279">
      <path
         d="m 200.69937,92.540001 v -5.726563 h 0.77735 l 3.00781,4.496094 v -4.496094 h 0.72656 v 5.726563 h -0.77734 l -3.00782,-4.5 v 4.5 z"
         style="font-size:8px;font-family:Arial;fill:#009d73"
         id="path1069"
         inkscape:connector-curvature="0" />
    </g>
  </g>
  <g
     id="g1287"
     transform="matrix(1.33333,0,0,1.33333,-1.2373404,-22.617501)">
    <path
       d="m 193.02,83.92 v 0 -0.29 l 0.26,-0.15 6.42,3.72 -0.13,0.22 -0.12,0.22 z"
       id="path1283"
       inkscape:connector-curvature="0"
       style="fill:#009d73;fill-rule:evenodd;stroke:#009d73;stroke-width:0;stroke-linejoin:miter;shape-rendering:geometricPrecision" />
    <line
       x1="195.09"
       y1="82.43"
       x2="200.61"
       y2="85.620003"
       id="line1285"
       style="stroke:#009d73;stroke-width:0.50999999;shape-rendering:auto" />
  </g>
  <g
     id="g1295"
     transform="matrix(1.33333,0,0,1.33333,-1.2373404,-22.617501)">
    <g
       aria-label="R2"
       style="text-anchor:start;text-rendering:geometricPrecision"
       id="text1293">
      <path
         d="m 210.6889,86.779999 v -5.726563 h 2.53907 q 0.76562,0 1.16406,0.15625 0.39844,0.152344 0.63672,0.542969 0.23828,0.390625 0.23828,0.863281 0,0.609375 -0.39453,1.027344 -0.39453,0.417969 -1.21875,0.53125 0.30078,0.144531 0.45703,0.285156 0.33203,0.304688 0.62891,0.761719 l 0.99609,1.558594 h -0.95313 l -0.75781,-1.191406 q -0.33203,-0.515625 -0.54687,-0.789063 -0.21485,-0.273437 -0.38672,-0.382812 -0.16797,-0.109375 -0.34375,-0.152344 -0.12891,-0.02734 -0.42188,-0.02734 h -0.8789 v 2.542969 z m 0.75782,-3.199219 h 1.6289 q 0.51953,0 0.8125,-0.105469 0.29297,-0.109375 0.44532,-0.34375 0.15234,-0.238281 0.15234,-0.515625 0,-0.40625 -0.29688,-0.667968 -0.29296,-0.261719 -0.92968,-0.261719 h -1.8125 z"
         style="font-size:8px;font-family:Arial;fill:#000000"
         id="path1064"
         inkscape:connector-curvature="0" />
      <path
         d="m 218.86176,83.013163 v 0.506836 h -2.83887 q -0.006,-0.19043 0.0615,-0.366211 0.1084,-0.290039 0.3457,-0.571289 0.24024,-0.28125 0.69141,-0.650391 0.7002,-0.574219 0.94629,-0.908203 0.24609,-0.336914 0.24609,-0.635742 0,-0.313477 -0.22558,-0.527344 -0.22266,-0.216797 -0.58301,-0.216797 -0.38086,0 -0.60937,0.228516 -0.22852,0.228515 -0.23145,0.632812 l -0.54199,-0.05566 q 0.0557,-0.606445 0.41894,-0.922851 0.36328,-0.319336 0.97559,-0.319336 0.61816,0 0.97851,0.342773 0.36036,0.342774 0.36036,0.84961 0,0.257812 -0.10547,0.506836 -0.10547,0.249023 -0.35157,0.524414 -0.24316,0.27539 -0.81152,0.755859 -0.47461,0.398437 -0.60937,0.541992 -0.13477,0.140625 -0.22266,0.28418 z"
         style="font-size:6px;font-family:Arial;fill:#000000"
         id="path1066"
         inkscape:connector-curvature="0" />
    </g>
  </g>
  <g
     id="g1299"
     transform="matrix(1.33333,0,0,1.33333,-1.2373404,-22.617501)">
    <path
       d="m 206.55,87.63 v 0 l -0.12,-0.22 -0.13,-0.23 3.15,-1.81 0.12,0.22 0.13,0.22 z"
       id="path1297"
       inkscape:connector-curvature="0"
       style="fill:#000000;fill-rule:evenodd;stroke:#000000;stroke-width:0;stroke-linejoin:miter;shape-rendering:geometricPrecision" />
  </g>
  <g
     id="g1305"
     transform="matrix(1.33333,0,0,1.33333,-1.2373404,-22.617501)">
    <g
       aria-label="Cl"
       style="text-anchor:start;text-rendering:geometricPrecision"
       id="text1303">
      <path
         d="m 194.82312,73.272186 0.75781,0.191407 q -0.23828,0.933593 -0.85937,1.425781 -0.61719,0.488281 -1.51172,0.488281 -0.92578,0 -1.50781,-0.375 -0.57813,-0.378906 -0.88282,-1.09375 -0.30078,-0.714844 -0.30078,-1.535156 0,-0.894531 0.33985,-1.558594 0.34375,-0.667969 0.97265,-1.011719 0.63282,-0.347656 1.39063,-0.347656 0.85937,0 1.44531,0.4375 0.58594,0.4375 0.81641,1.230469 l -0.7461,0.175781 q -0.19922,-0.625 -0.57812,-0.910156 -0.37891,-0.285156 -0.95313,-0.285156 -0.66015,0 -1.10547,0.316406 -0.4414,0.316406 -0.62109,0.851562 -0.17969,0.53125 -0.17969,1.097657 0,0.730468 0.21094,1.277343 0.21484,0.542969 0.66406,0.8125 0.44922,0.269532 0.97266,0.269532 0.63672,0 1.07812,-0.367188 0.44141,-0.367187 0.59766,-1.089844 z"
         style="font-size:8px;font-family:Arial;fill:#009d73"
         id="path1059"
         inkscape:connector-curvature="0" />
      <path
         d="m 196.41296,75.279999 v -5.726563 h 0.70313 v 5.726563 z"
         style="font-size:8px;font-family:Arial;fill:#009d73"
         id="path1061"
         inkscape:connector-curvature="0" />
    </g>
  </g>
  <g
     id="g1309"
     transform="matrix(1.33333,0,0,1.33333,-1.2373404,-22.617501)">
    <path
       d="m 193.28,83.48 v 0 l -0.26,0.15 -0.25,-0.15 V 76.7 h 0.25 0.26 z"
       id="path1307"
       inkscape:connector-curvature="0"
       style="fill:#009d73;fill-rule:evenodd;stroke:#009d73;stroke-width:0;stroke-linejoin:miter;shape-rendering:geometricPrecision" />
  </g>
  <g
     id="g1317"
     transform="matrix(1.33333,0,0,1.33333,-1.2373404,-22.617501)">
    <g
       aria-label="R1"
       style="text-anchor:end;text-rendering:geometricPrecision"
       id="text1315">
      <path
         d="m 264.69781,92.160004 v -5.726563 h 2.53907 q 0.76562,0 1.16406,0.15625 0.39844,0.152344 0.63672,0.542969 0.23828,0.390625 0.23828,0.863281 0,0.609375 -0.39453,1.027344 -0.39453,0.417969 -1.21875,0.53125 0.30078,0.144531 0.45703,0.285156 0.33203,0.304688 0.62891,0.761719 l 0.99609,1.558594 h -0.95313 l -0.75781,-1.191407 q -0.33203,-0.515625 -0.54687,-0.789062 -0.21485,-0.273438 -0.38672,-0.382813 -0.16797,-0.109375 -0.34375,-0.152343 -0.12891,-0.02734 -0.42188,-0.02734 h -0.8789 v 2.542969 z m 0.75782,-3.199219 h 1.6289 q 0.51953,0 0.8125,-0.105469 0.29297,-0.109375 0.44532,-0.34375 0.15234,-0.238281 0.15234,-0.515625 0,-0.40625 -0.29688,-0.667969 -0.29296,-0.261718 -0.92968,-0.261718 h -1.8125 z"
         style="font-size:8px;font-family:Arial;fill:#000000"
         id="path1038"
         inkscape:connector-curvature="0" />
      <path
         d="m 272.08551,88.900004 h -0.52734 v -3.360352 q -0.19043,0.181641 -0.50098,0.363281 -0.30762,0.181641 -0.55371,0.272461 v -0.509765 q 0.44238,-0.208008 0.77344,-0.503907 0.33105,-0.295898 0.46875,-0.574218 h 0.33984 z"
         style="font-size:6px;font-family:Arial;fill:#000000"
         id="path1040"
         inkscape:connector-curvature="0" />
    </g>
  </g>
  <g
     id="g1321"
     transform="matrix(1.33333,0,0,1.33333,-1.2373404,-22.617501)">
    <path
       d="m 273.35,85.6 v 0 l -0.12,-0.22 -0.13,-0.22 3.55,-2.05 0.25,0.15 v 0.29 z"
       id="path1319"
       inkscape:connector-curvature="0"
       style="fill:#000000;fill-rule:evenodd;stroke:#000000;stroke-width:0;stroke-linejoin:miter;shape-rendering:geometricPrecision" />
  </g>
  <g
     id="g1327"
     transform="matrix(1.33333,0,0,1.33333,-1.2373404,-22.617501)">
    <g
       aria-label="N"
       style="text-anchor:start;text-rendering:geometricPrecision"
       id="text1325">
      <path
         d="m 284.57938,92.160004 v -5.726563 h 0.77734 l 3.00781,4.496094 v -4.496094 h 0.72656 v 5.726563 h -0.77734 l -3.00781,-4.5 v 4.5 z"
         style="font-size:8px;font-family:Arial;fill:#009d73"
         id="path1035"
         inkscape:connector-curvature="0" />
    </g>
  </g>
  <g
     id="g1333"
     transform="matrix(1.33333,0,0,1.33333,-1.2373404,-22.617501)">
    <path
       d="m 276.9,83.55 v 0 -0.29 l 0.26,-0.15 6.44,3.72 -0.13,0.22 -0.12,0.22 z"
       id="path1329"
       inkscape:connector-curvature="0"
       style="fill:#009d73;fill-rule:evenodd;stroke:#009d73;stroke-width:0;stroke-linejoin:miter;shape-rendering:geometricPrecision" />
    <line
       x1="278.97"
       y1="82.059998"
       x2="284.51001"
       y2="85.260002"
       id="line1331"
       style="stroke:#009d73;stroke-width:0.50999999;shape-rendering:auto" />
  </g>
  <g
     id="g1341"
     transform="matrix(1.33333,0,0,1.33333,-1.2373404,-22.617501)">
    <g
       aria-label="R2"
       style="text-anchor:start;text-rendering:geometricPrecision"
       id="text1339">
      <path
         d="m 294.56891,86.410004 v -5.726563 h 2.53906 q 0.76563,0 1.16406,0.15625 0.39844,0.152344 0.63672,0.542969 0.23828,0.390625 0.23828,0.863281 0,0.609375 -0.39453,1.027344 -0.39453,0.417969 -1.21875,0.53125 0.30078,0.144531 0.45703,0.285156 0.33203,0.304688 0.62891,0.761719 l 0.99609,1.558594 h -0.95312 l -0.75781,-1.191407 q -0.33204,-0.515625 -0.54688,-0.789062 -0.21484,-0.273438 -0.38672,-0.382813 -0.16797,-0.109375 -0.34375,-0.152343 -0.1289,-0.02734 -0.42187,-0.02734 h -0.87891 v 2.542969 z m 0.75781,-3.199219 h 1.62891 q 0.51953,0 0.8125,-0.105469 0.29297,-0.109375 0.44531,-0.34375 0.15234,-0.238281 0.15234,-0.515625 0,-0.40625 -0.29687,-0.667969 -0.29297,-0.261718 -0.92969,-0.261718 h -1.8125 z"
         style="font-size:8px;font-family:Arial;fill:#000000"
         id="path1021"
         inkscape:connector-curvature="0" />
      <path
         d="m 302.74176,82.643168 v 0.506836 h -2.83887 q -0.006,-0.19043 0.0615,-0.366211 0.10839,-0.290039 0.3457,-0.571289 0.24023,-0.28125 0.69141,-0.650391 0.70019,-0.574219 0.94628,-0.908203 0.2461,-0.336914 0.2461,-0.635742 0,-0.313477 -0.22559,-0.527344 -0.22265,-0.216797 -0.58301,-0.216797 -0.38085,0 -0.60937,0.228516 -0.22852,0.228515 -0.23145,0.632812 l -0.54199,-0.05566 q 0.0557,-0.606445 0.41895,-0.922851 0.36328,-0.319336 0.97558,-0.319336 0.61817,0 0.97852,0.342773 0.36035,0.342774 0.36035,0.849609 0,0.257813 -0.10547,0.506836 -0.10547,0.249024 -0.35156,0.524414 -0.24316,0.275391 -0.81152,0.75586 -0.47461,0.398437 -0.60938,0.541992 -0.13476,0.140625 -0.22266,0.28418 z"
         style="font-size:6px;font-family:Arial;fill:#000000"
         id="path1023"
         inkscape:connector-curvature="0" />
    </g>
  </g>
  <g
     id="g1345"
     transform="matrix(1.33333,0,0,1.33333,-1.2373404,-22.617501)">
    <path
       d="m 290.35,87.3 v 0 l -0.12,-0.23 -0.13,-0.22 3.25,-1.87 0.12,0.22 0.13,0.22 z"
       id="path1343"
       inkscape:connector-curvature="0"
       style="fill:#000000;fill-rule:evenodd;stroke:#000000;stroke-width:0;stroke-linejoin:miter;shape-rendering:geometricPrecision" />
  </g>
  <g
     id="g1353"
     transform="matrix(1.33333,0,0,1.33333,-1.2373404,-22.617501)">
    <g
       aria-label="NHR3"
       style="text-anchor:start;text-rendering:geometricPrecision"
       id="text1351">
      <path
         d="m 274.60937,74.900002 v -5.726563 h 0.77735 l 3.00781,4.496094 v -4.496094 h 0.72656 v 5.726563 h -0.77734 l -3.00781,-4.5 v 4.5 z"
         style="font-size:8px;font-family:Arial;fill:#cc78a6"
         id="path1026"
         inkscape:connector-curvature="0" />
      <path
         d="m 280.42187,74.900002 v -5.726563 h 0.75782 v 2.351563 h 2.97656 v -2.351563 h 0.75781 v 5.726563 h -0.75781 v -2.699219 h -2.97656 v 2.699219 z"
         style="font-size:8px;font-family:Arial;fill:#cc78a6"
         id="path1028"
         inkscape:connector-curvature="0" />
      <path
         d="m 286.19141,74.900002 v -5.726563 h 2.53906 q 0.76562,0 1.16406,0.15625 0.39844,0.152344 0.63672,0.542969 0.23828,0.390625 0.23828,0.863281 0,0.609375 -0.39453,1.027344 -0.39453,0.417969 -1.21875,0.53125 0.30078,0.144531 0.45703,0.285156 0.33203,0.304688 0.62891,0.761719 l 0.99609,1.558594 h -0.95312 l -0.75782,-1.191407 q -0.33203,-0.515625 -0.54687,-0.789062 -0.21485,-0.273438 -0.38672,-0.382813 -0.16797,-0.109375 -0.34375,-0.152343 -0.12891,-0.02734 -0.42188,-0.02734 h -0.8789 v 2.542969 z m 0.75781,-3.199219 h 1.6289 q 0.51954,0 0.8125,-0.105469 0.29297,-0.109375 0.44532,-0.34375 0.15234,-0.238281 0.15234,-0.515625 0,-0.40625 -0.29687,-0.667969 -0.29297,-0.261718 -0.92969,-0.261718 h -1.8125 z"
         style="font-size:8px;font-family:Arial;fill:#cc78a6"
         id="path1030"
         inkscape:connector-curvature="0" />
      <path
         d="m 291.5957,70.506212 0.52735,-0.07031 q 0.0908,0.448242 0.30761,0.647461 0.21973,0.196289 0.53321,0.196289 0.37207,0 0.62695,-0.257813 0.25781,-0.257812 0.25781,-0.638671 0,-0.363282 -0.2373,-0.597657 -0.23731,-0.237304 -0.60352,-0.237304 -0.14941,0 -0.37207,0.05859 l 0.0586,-0.46289 q 0.0527,0.0059 0.085,0.0059 0.33691,0 0.60644,-0.175781 0.26953,-0.175781 0.26953,-0.541992 0,-0.290039 -0.19629,-0.480469 -0.19628,-0.19043 -0.50683,-0.19043 -0.30762,0 -0.5127,0.19336 -0.20508,0.193359 -0.26367,0.580078 l -0.52734,-0.09375 q 0.0967,-0.530274 0.43945,-0.820313 0.34277,-0.292968 0.85254,-0.292968 0.35156,0 0.64746,0.152343 0.2959,0.149414 0.45117,0.410157 0.15821,0.260742 0.15821,0.55371 0,0.278321 -0.14942,0.506836 -0.14941,0.228516 -0.44238,0.363282 0.38086,0.08789 0.5918,0.366211 0.21093,0.27539 0.21093,0.691406 0,0.5625 -0.41015,0.955078 -0.41016,0.389648 -1.03711,0.389648 -0.56543,0 -0.94043,-0.336914 -0.37207,-0.336914 -0.42481,-0.873047 z"
         style="font-size:6px;font-family:Arial;fill:#cc78a6"
         id="path1032"
         inkscape:connector-curvature="0" />
    </g>
  </g>
  <g
     id="g1357"
     transform="matrix(1.33333,0,0,1.33333,-1.2373404,-22.617501)">
    <path
       d="m 277.16,83.11 v 0 l -0.26,0.15 -0.25,-0.15 V 74.4 h 0.25 0.26 z"
       id="path1355"
       inkscape:connector-curvature="0"
       style="fill:#cc78a6;fill-rule:evenodd;stroke:#cc78a6;stroke-width:0;stroke-linejoin:miter;shape-rendering:geometricPrecision" />
  </g>
  <g
     id="Arrow"
     transform="matrix(1.33333,0,0,1.33333,-1.2373404,-16.617501)">
    <line
       x1="75.230003"
       y1="82.5"
       x2="50.189999"
       y2="82.5"
       id="line1359"
       style="stroke:#000000;stroke-width:0.50999999;shape-rendering:auto" />
    <path
       d="m 78.69,82.5 -5.1,-1.28 c 1.07,0.72 1.07,1.84 0,2.56 z"
       stroke-miterlimit="5.89496254687647"
       id="path1361"
       inkscape:connector-curvature="0"
       style="fill:#000000;fill-rule:evenodd;stroke:#000000;stroke-width:0;stroke-linejoin:miter;stroke-miterlimit:5.89496231;shape-rendering:geometricPrecision" />
  </g>
  <g
     id="g1368"
     transform="matrix(1.33333,0,0,1.33333,-1.2373404,-16.617501)">
    <line
       x1="167.85001"
       y1="82.5"
       x2="135.31"
       y2="82.5"
       id="line1364"
       style="stroke:#000000;stroke-width:0.50999999;shape-rendering:auto" />
    <path
       d="m 171.31,82.5 -5.1,-1.28 c 1.07,0.72 1.07,1.84 0,2.56 z"
       stroke-miterlimit="5.89496254687632"
       id="path1366"
       inkscape:connector-curvature="0"
       style="fill:#000000;fill-rule:evenodd;stroke:#000000;stroke-width:0;stroke-linejoin:miter;stroke-miterlimit:5.89496231;shape-rendering:geometricPrecision" />
  </g>
  <g
     id="g1374"
     transform="matrix(1.33333,0,0,1.33333,-1.2373404,-16.617501)">
    <line
       x1="254.48"
       y1="82.5"
       x2="226.81"
       y2="82.5"
       id="line1370"
       style="stroke:#000000;stroke-width:0.50999999;shape-rendering:auto" />
    <path
       d="m 257.94,82.5 -5.1,-1.28 c 1.08,0.72 1.08,1.84 0,2.56 z"
       stroke-miterlimit="5.89496254687632"
       id="path1372"
       inkscape:connector-curvature="0"
       style="fill:#000000;fill-rule:evenodd;stroke:#000000;stroke-width:0;stroke-linejoin:miter;stroke-miterlimit:5.89496231;shape-rendering:geometricPrecision" />
  </g>
  <g
     id="g1382"
     transform="matrix(1.33333,0,0,1.33333,-1.2373404,-16.617501)">
    <g
       aria-label="PCl5"
       style="text-anchor:start;text-rendering:geometricPrecision"
       id="text1380">
      <path
         d="m 55.307186,78.559998 v -5.726563 h 2.160156 q 0.570313,0 0.871094,0.05469 0.421875,0.07031 0.707031,0.269531 0.285157,0.195312 0.457032,0.550781 0.175781,0.355469 0.175781,0.78125 0,0.730469 -0.464844,1.238281 -0.464844,0.503907 -1.679687,0.503907 h -1.46875 v 2.328125 z m 0.757813,-3.003907 h 1.480468 q 0.734375,0 1.042969,-0.273437 0.308594,-0.273438 0.308594,-0.769531 0,-0.359375 -0.183594,-0.613282 -0.179687,-0.257812 -0.476562,-0.339843 -0.191407,-0.05078 -0.707032,-0.05078 h -1.464843 z"
         style="font-size:8px;font-family:Arial;fill:#009d73"
         id="path1097" />
      <path
         d="m 64.736874,76.552185 0.757812,0.191406 q -0.238281,0.933594 -0.859375,1.425782 -0.617187,0.488281 -1.511719,0.488281 -0.925781,0 -1.507812,-0.375 -0.578125,-0.378906 -0.882813,-1.09375 -0.300781,-0.714844 -0.300781,-1.535156 0,-0.894532 0.339844,-1.558594 0.34375,-0.667969 0.972656,-1.011719 0.632813,-0.347656 1.390625,-0.347656 0.859375,0 1.445313,0.4375 0.585937,0.4375 0.816406,1.230469 l -0.746094,0.175781 q -0.199219,-0.625 -0.578125,-0.910156 -0.378906,-0.285157 -0.953125,-0.285157 -0.660156,0 -1.105469,0.316407 -0.441406,0.316406 -0.621093,0.851562 -0.179688,0.53125 -0.179688,1.097656 0,0.730469 0.210938,1.277344 0.214843,0.542969 0.664062,0.8125 0.449219,0.269531 0.972656,0.269531 0.636719,0 1.078125,-0.367187 0.441407,-0.367188 0.597657,-1.089844 z"
         style="font-size:8px;font-family:Arial;fill:#009d73"
         id="path1099" />
      <path
         d="m 66.326717,78.559998 v -5.726563 h 0.703125 v 5.726563 z"
         style="font-size:8px;font-family:Arial;fill:#009d73"
         id="path1101" />
      <path
         d="m 67.845272,79.244998 0.553711,-0.04687 q 0.06152,0.404296 0.28418,0.609375 0.225586,0.202148 0.541992,0.202148 0.380859,0 0.644531,-0.287109 0.263672,-0.28711 0.263672,-0.761719 0,-0.451172 -0.254883,-0.711914 -0.251953,-0.260742 -0.662109,-0.260742 -0.254883,0 -0.459961,0.117187 -0.205078,0.114258 -0.322266,0.298828 l -0.495117,-0.06445 0.416016,-2.206055 h 2.135742 v 0.503907 h -1.713867 l -0.231446,1.154297 q 0.386719,-0.269532 0.811524,-0.269532 0.5625,0 0.949219,0.389649 0.386718,0.389648 0.386718,1.001953 0,0.583008 -0.339843,1.007812 -0.413086,0.521485 -1.12793,0.521485 -0.585938,0 -0.958008,-0.328125 -0.369141,-0.328125 -0.421875,-0.870117 z"
         style="font-size:6px;font-family:Arial;fill:#009d73"
         id="path1103" />
    </g>
  </g>
  <g
     id="g1394"
     transform="matrix(1.33333,0,0,1.33333,-1.2373404,-16.617501)">
    <g
       aria-label="NH2R3"
       style="text-anchor:start;text-rendering:geometricPrecision"
       id="text1392">
      <path
         d="m 229.06938,78.559998 v -5.726563 h 0.77735 l 3.00781,4.496094 v -4.496094 h 0.72656 v 5.726563 h -0.77734 l -3.00782,-4.5 v 4.5 z"
         style="font-size:8px;font-family:Arial;fill:#cc78a6"
         id="path1043" />
      <path
         d="m 234.88188,78.559998 v -5.726563 h 0.75781 v 2.351563 h 2.97657 v -2.351563 h 0.75781 v 5.726563 h -0.75781 v -2.699219 h -2.97657 v 2.699219 z"
         style="font-size:8px;font-family:Arial;fill:#cc78a6"
         id="path1045" />
      <path
         d="m 243.04301,79.863162 v 0.506836 h -2.83886 q -0.006,-0.19043 0.0615,-0.366211 0.1084,-0.290039 0.3457,-0.571289 0.24024,-0.28125 0.69141,-0.650391 0.7002,-0.574219 0.94629,-0.908203 0.24609,-0.336914 0.24609,-0.635742 0,-0.313477 -0.22558,-0.527344 -0.22266,-0.216797 -0.58301,-0.216797 -0.38086,0 -0.60938,0.228516 -0.22851,0.228515 -0.23144,0.632812 l -0.54199,-0.05566 q 0.0557,-0.606445 0.41894,-0.922852 0.36328,-0.319335 0.97559,-0.319335 0.61816,0 0.97851,0.342773 0.36036,0.342773 0.36036,0.849609 0,0.257813 -0.10547,0.506836 -0.10547,0.249024 -0.35157,0.524414 -0.24316,0.275391 -0.81152,0.75586 -0.47461,0.398437 -0.60937,0.541992 -0.13477,0.140625 -0.22266,0.28418 z"
         style="font-size:6px;font-family:Arial;fill:#cc78a6"
         id="path1047" />
      <path
         d="m 243.99126,78.559998 v -5.726563 h 2.53906 q 0.76562,0 1.16406,0.15625 0.39844,0.152344 0.63672,0.542969 0.23828,0.390625 0.23828,0.863281 0,0.609375 -0.39453,1.027344 -0.39453,0.417969 -1.21875,0.53125 0.30078,0.144531 0.45703,0.285156 0.33203,0.304688 0.62891,0.761719 l 0.99609,1.558594 h -0.95312 l -0.75782,-1.191407 q -0.33203,-0.515625 -0.54687,-0.789062 -0.21484,-0.273438 -0.38672,-0.382813 -0.16797,-0.109375 -0.34375,-0.152343 -0.12891,-0.02734 -0.42187,-0.02734 h -0.87891 v 2.542969 z m 0.75781,-3.199219 h 1.62891 q 0.51953,0 0.8125,-0.105469 0.29296,-0.109375 0.44531,-0.34375 0.15234,-0.238281 0.15234,-0.515625 0,-0.40625 -0.29687,-0.667969 -0.29297,-0.261718 -0.92969,-0.261718 h -1.8125 z"
         style="font-size:8px;font-family:Arial;fill:#cc78a6"
         id="path1049" />
      <path
         d="m 249.39555,74.166209 0.52735,-0.07031 q 0.0908,0.448242 0.30761,0.647461 0.21973,0.196289 0.53321,0.196289 0.37207,0 0.62695,-0.257812 0.25781,-0.257813 0.25781,-0.638672 0,-0.363282 -0.2373,-0.597657 -0.23731,-0.237304 -0.60352,-0.237304 -0.14941,0 -0.37207,0.05859 l 0.0586,-0.46289 q 0.0527,0.0059 0.085,0.0059 0.33691,0 0.60644,-0.175781 0.26953,-0.175781 0.26953,-0.541992 0,-0.290039 -0.19629,-0.480469 -0.19628,-0.19043 -0.50683,-0.19043 -0.30762,0 -0.5127,0.19336 -0.20507,0.193359 -0.26367,0.580078 l -0.52734,-0.09375 q 0.0967,-0.530274 0.43945,-0.820313 0.34277,-0.292968 0.85254,-0.292968 0.35156,0 0.64746,0.152343 0.2959,0.149414 0.45117,0.410157 0.15821,0.260742 0.15821,0.553711 0,0.27832 -0.14942,0.506835 -0.14941,0.228516 -0.44238,0.363282 0.38086,0.08789 0.5918,0.366211 0.21093,0.27539 0.21093,0.691406 0,0.5625 -0.41015,0.955078 -0.41016,0.389648 -1.03711,0.389648 -0.56543,0 -0.94043,-0.336914 -0.37207,-0.336914 -0.42481,-0.873046 z"
         style="font-size:6px;font-family:Arial;fill:#cc78a6"
         id="path1051" />
    </g>
  </g>
  <g
     id="g1400"
     transform="matrix(1.33333,0,0,1.33333,-1.2373404,-16.617501)">
    <text
       xml:space="preserve"
       id="text1398"
       style="text-anchor:start;text-rendering:geometricPrecision"><tspan
         x="138.31"
         y="78.559998"
         font-size="8"
         id="tspan1396"
         style="font-size:8px;font-family:Arial;fill:#009d73" /></text>
  </g>
  <g
     id="Oval"
     transform="matrix(1.33333,0,0,1.33333,-4.2982879,-16.617501)">
    <circle
       cx="16.629999"
       cy="94.309998"
       r="1.35"
       id="circle1402"
       style="fill:#e69e00;stroke:#e69e00;stroke-width:0.1" />
  </g>
  <line
     x1="17.741657"
     y1="133.88878"
     x2="17.741657"
     y2="109.40884"
     id="line1405"
     style="stroke:#e69e00;stroke-width:0.93333333;shape-rendering:auto;stroke-miterlimit:4;stroke-dasharray:none" />
  <path
     style="stroke:#e69e00;stroke-width:0.93333334;stroke-miterlimit:4;stroke-dasharray:none;shape-rendering:auto"
     d="M 17.741657,133.88878 H 125.87809"
     id="line1407"
     inkscape:connector-curvature="0"
     sodipodi:nodetypes="cc" />
  <g
     id="g1413"
     transform="matrix(1.33333,0,0,1.33333,-1.2373404,-16.617501)">
    <text
       xml:space="preserve"
       id="text1411"
       style="text-anchor:start;text-rendering:geometricPrecision"><tspan
         x="24.030001"
         y="108.94"
         font-size="8"
         id="tspan1409"
         style="font-size:8px;font-family:Arial;fill:#e69e00" /></text>
  </g>
  <g
     id="g1421"
     transform="matrix(1.33333,0,0,1.33333,-2.6956708,-16.617501)"
     style="fill:#e69e00;fill-opacity:1">
    <text
       xml:space="preserve"
       id="text1419"
       style="text-align:start;text-anchor:start;fill:#e69e00;fill-opacity:1;text-rendering:geometricPrecision"
       x="136.3586"
       y="109.03375"><tspan
         font-size="8"
         id="tspan1417"
         style="font-size:8px;font-family:Arial;text-align:start;text-anchor:start;fill:#e69e00;fill-opacity:1">\textalpha-chloroimina</tspan></text>
  </g>
  <line
     x1="255.49536"
     y1="133.88878"
     x2="179.49554"
     y2="133.88878"
     id="line1423"
     style="stroke:#e69e00;stroke-width:0.93333333;shape-rendering:auto;stroke-miterlimit:4;stroke-dasharray:none" />
  <line
     x1="255.49536"
     y1="133.88878"
     x2="255.49536"
     y2="109.40884"
     id="line1425"
     style="stroke:#e69e00;stroke-width:0.93333333;shape-rendering:auto;stroke-miterlimit:4;stroke-dasharray:none" />
  <g
     id="g1429"
     transform="matrix(1.33333,0,0,1.33333,-1.0672878,-16.617501)">
    <circle
       cx="192.45"
       cy="94.309998"
       r="1.35"
       id="circle1427"
       style="fill:#e69e00;stroke:#e69e00;stroke-width:0.1" />
  </g>
  <g
     id="g1435"
     transform="matrix(1.33333,0,0,1.33333,-1.2373404,-16.617501)">
    <text
       xml:space="preserve"
       id="text1433"
       style="text-anchor:end;text-rendering:geometricPrecision"><tspan
         x="269.98001"
         y="108.94"
         font-size="8"
         id="tspan1431"
         style="font-size:8px;font-family:Arial;fill:#e69e00" /></text>
  </g>
  <line
     x1="368.73508"
     y1="133.88878"
     x2="317.30853"
     y2="133.88878"
     id="line1437"
     style="stroke:#e69e00;stroke-width:0.93333333;shape-rendering:auto;stroke-miterlimit:4;stroke-dasharray:none" />
  <line
     x1="368.73508"
     y1="133.88878"
     x2="368.73508"
     y2="109.40884"
     id="line1439"
     style="stroke:#e69e00;stroke-width:0.93333333;shape-rendering:auto;stroke-miterlimit:4;stroke-dasharray:none" />
  <g
     id="g1443"
     transform="matrix(1.33333,0,0,1.33333,-1.2373404,-16.617501)">
    <circle
       cx="277.39001"
       cy="94.309998"
       r="1.35"
       id="circle1441"
       style="fill:#e69e00;stroke:#e69e00;stroke-width:0.1" />
  </g>
  <g
     id="g1447"
     transform="matrix(1.33333,0,0,1.33333,-3.2373404,-22.617501)">
    <circle
       cx="186.08"
       cy="78.860001"
       r="1.35"
       id="circle1445"
       style="fill:#009d73;stroke:#009d73;stroke-width:0.1" />
  </g>
  <line
     x1="244.98871"
     y1="63.782295"
     x2="244.98871"
     y2="82.262245"
     id="line1449"
     style="stroke:#009d73;stroke-width:0.93333333;stroke-miterlimit:4;stroke-dasharray:none;shape-rendering:auto" />
  <line
     x1="244.98871"
     y1="63.782295"
     x2="162.18678"
     y2="63.782295"
     id="line1451"
     style="stroke:#009d73;stroke-width:0.93333333;shape-rendering:auto;stroke-miterlimit:4;stroke-dasharray:none" />
  <g
     id="g1461"
     transform="matrix(1.33333,0,0,1.33333,-1.2373404,-22.617501)">
    <circle
       cx="267.82999"
       cy="78.860001"
       r="1.35"
       id="circle1459"
       style="fill:#cc78a6;stroke:#cc78a6;stroke-width:0.1" />
  </g>
  <line
     x1="355.98846"
     y1="63.782295"
     x2="355.98846"
     y2="82.262245"
     id="line1463"
     style="stroke:#cc78a6;stroke-width:0.93333333;shape-rendering:auto;stroke-miterlimit:4;stroke-dasharray:none" />
  <line
     x1="355.98846"
     y1="63.782295"
     x2="292.23242"
     y2="63.782295"
     id="line1465"
     style="stroke:#cc78a6;stroke-width:0.93333333;shape-rendering:auto;stroke-miterlimit:4;stroke-dasharray:none" />
  <text
     xml:space="preserve"
     style="font-style:normal;font-variant:normal;font-weight:normal;font-stretch:normal;font-size:10.66666698px;line-height:1.25;font-family:Arial;-inkscape-font-specification:Arial;text-align:end;letter-spacing:0px;word-spacing:0px;text-anchor:end;fill:#009d73;fill-opacity:1;stroke:none;"
     x="233.53856"
     y="45.618351"
     id="text1127"><tspan
       sodipodi:role="line"
       id="tspan1125"
       x="233.53856"
       y="45.618351">zwikszona</tspan><tspan
       sodipodi:role="line"
       x="233.53856"
       y="58.951683"
       id="tspan1129">elektrofilowo</tspan></text>
  <text
     xml:space="preserve"
     style="font-style:normal;font-variant:normal;font-weight:normal;font-stretch:normal;font-size:10.66666698px;line-height:1.25;font-family:Arial;-inkscape-font-specification:Arial;letter-spacing:0px;word-spacing:0px;fill:#cc78a6;fill-opacity:1;stroke:none;"
     x="291.5293"
     y="45.618351"
     id="text1133"><tspan
       sodipodi:role="line"
       id="tspan1131"
       x="291.5293"
       y="45.618351">podstawienie</tspan><tspan
       sodipodi:role="line"
       x="291.5293"
       y="58.951683"
       id="tspan1135">nukleofilem</tspan></text>
  <text
     xml:space="preserve"
     style="font-style:normal;font-variant:normal;font-weight:normal;font-stretch:normal;font-size:10.66666698px;line-height:1.25;font-family:Arial;-inkscape-font-specification:Arial;letter-spacing:0px;word-spacing:0px;fill:#e69e00;fill-opacity:1;stroke:none"
     x="316.92313"
     y="128.63547"
     id="text1139"><tspan
       sodipodi:role="line"
       id="tspan1137"
       x="316.92313"
       y="128.63547">imidyna</tspan></text>
  <text
     xml:space="preserve"
     style="font-style:normal;font-variant:normal;font-weight:normal;font-stretch:normal;font-size:10.66666698px;line-height:1.25;font-family:Arial;-inkscape-font-specification:Arial;text-align:end;letter-spacing:0px;word-spacing:0px;text-anchor:end;fill:#e69e00;fill-opacity:1;stroke:none"
     x="126.65413"
     y="128.63547"
     id="text1143"><tspan
       sodipodi:role="line"
       id="tspan1141"
       x="126.65413"
       y="128.63547">drugorzdowy amid</tspan></text>
  <text
     xml:space="preserve"
     style="font-style:normal;font-variant:normal;font-weight:normal;font-stretch:normal;font-size:10.66666698px;line-height:1.25;font-family:Arial;-inkscape-font-specification:Arial;letter-spacing:0px;word-spacing:0px;fill:#000000;fill-opacity:1;stroke:none"
     x="47.313824"
     y="114.10715"
     id="text1147"><tspan
       sodipodi:role="line"
       id="tspan1145"
       x="47.313824"
       y="114.10715">\cmpd{w:amide-sec}</tspan></text>
  <text
     xml:space="preserve"
     style="font-style:normal;font-variant:normal;font-weight:normal;font-stretch:normal;font-size:10.66666698px;line-height:1.25;font-family:Arial;-inkscape-font-specification:Arial;letter-spacing:0px;word-spacing:0px;fill:#000000;fill-opacity:1;stroke:none"
     x="157.69862"
     y="114.10715"
     id="text1147-0"><tspan
       sodipodi:role="line"
       id="tspan1145-0"
       x="157.69862"
       y="114.10715">\cmpd{w:dichloro}</tspan></text>
  <text
     xml:space="preserve"
     style="font-style:normal;font-variant:normal;font-weight:normal;font-stretch:normal;font-size:10.66666698px;line-height:1.25;font-family:Arial;-inkscape-font-specification:Arial;letter-spacing:0px;word-spacing:0px;fill:#000000;fill-opacity:1;stroke:none"
     x="279.90521"
     y="114.10715"
     id="text1147-7"><tspan
       sodipodi:role="line"
       id="tspan1145-3"
       x="279.90521"
       y="114.10715">\cmpd{w:chloroimine}</tspan></text>
  <text
     xml:space="preserve"
     style="font-style:normal;font-variant:normal;font-weight:normal;font-stretch:normal;font-size:10.66666698px;line-height:1.25;font-family:Arial;-inkscape-font-specification:Arial;letter-spacing:0px;word-spacing:0px;fill:#000000;fill-opacity:1;stroke:none"
     x="392.05869"
     y="114.10715"
     id="text1147-72"><tspan
       sodipodi:role="line"
       id="tspan1145-6"
       x="392.05869"
       y="114.10715">\cmpd{w:imidine}</tspan></text>
  <text
     xml:space="preserve"
     style="font-style:normal;font-variant:normal;font-weight:normal;font-stretch:normal;font-size:10.66666698px;line-height:1.25;font-family:Arial;-inkscape-font-specification:Arial;letter-spacing:0px;word-spacing:0px;fill:#009d73;fill-opacity:1;stroke:none"
     x="182.96779"
     y="88.501778"
     id="text1188"><tspan
       sodipodi:role="line"
       id="tspan1185"
       x="182.96779"
       y="88.501778">grzanie</tspan></text>
</svg>
