<?xml version="1.0" encoding="UTF-8" standalone="no"?>
<svg
   xmlns:dc="http://purl.org/dc/elements/1.1/"
   xmlns:cc="http://creativecommons.org/ns#"
   xmlns:rdf="http://www.w3.org/1999/02/22-rdf-syntax-ns#"
   xmlns:svg="http://www.w3.org/2000/svg"
   xmlns="http://www.w3.org/2000/svg"
   xmlns:sodipodi="http://sodipodi.sourceforge.net/DTD/sodipodi-0.dtd"
   xmlns:inkscape="http://www.inkscape.org/namespaces/inkscape"
   viewBox="-.06 102.94 302.06 103.19"
   preserveAspectRatio="xMidYMid"
   width="100%"
   height="100%"
   version="1.1"
   id="svg514"
   sodipodi:docname="charette-reduction.svg"
   inkscape:version="0.92.3 (2405546, 2018-03-11)">
  <metadata
     id="metadata520">
    <rdf:RDF>
      <cc:Work
         rdf:about="">
        <dc:format>image/svg+xml</dc:format>
        <dc:type
           rdf:resource="http://purl.org/dc/dcmitype/StillImage" />
      </cc:Work>
    </rdf:RDF>
  </metadata>
  <defs
     id="defs518" />
  <sodipodi:namedview
     pagecolor="#ffffff"
     bordercolor="#666666"
     borderopacity="1"
     objecttolerance="10"
     gridtolerance="10"
     guidetolerance="10"
     inkscape:pageopacity="0"
     inkscape:pageshadow="2"
     inkscape:window-width="1920"
     inkscape:window-height="1017"
     id="namedview516"
     showgrid="false"
     inkscape:zoom="1.6854826"
     inkscape:cx="97.838025"
     inkscape:cy="40.613343"
     inkscape:window-x="-8"
     inkscape:window-y="-8"
     inkscape:window-maximized="1"
     inkscape:current-layer="svg514" />
  <clipPath
     id="10971">
    <rect
       x="0.255"
       y="0.255"
       width="302.74"
       height="769.29"
       id="rect2" />
  </clipPath>
  <path
     style="stroke:#000000;stroke-width:0.67999828;shape-rendering:auto"
     d="M 40.34201,112.48299 H 9.3954287"
     id="line7" />
  <path
     style="fill:#000000;fill-rule:evenodd;stroke:#000000;stroke-width:0;stroke-linejoin:miter;stroke-miterlimit:5.89496231;shape-rendering:geometricPrecision"
     inkscape:connector-curvature="0"
     id="path9"
     stroke-miterlimit="5.89496254687647"
     d="m 44.955338,112.48299 -6.799983,-1.70666 c 1.439997,0.96 1.439997,2.45333 0,3.41333 z" />
  <g
     aria-label="Tf2O"
     style="font-size:15.99995995px;text-anchor:start;stroke-width:1.33333004;text-rendering:geometricPrecision"
     id="text18">
    <path
       d="m 16.601033,107.96301 v -6.73436 h -2.515619 v -0.90104 h 6.052069 v 0.90104 h -2.526036 v 6.73436 z"
       style="font-size:10.66664028px;font-family:Arial;fill:#000000;stroke-width:1.33333004"
       id="path1215"
       inkscape:connector-curvature="0" />
    <path
       d="m 21.283313,107.96301 v -4.80207 H 20.45519 v -0.72916 h 0.828123 v -0.58854 q 0,-0.55729 0.09896,-0.82813 0.135417,-0.36458 0.473957,-0.58854 0.34375,-0.22916 0.958331,-0.22916 0.395833,0 0.874998,0.0937 l -0.140624,0.8177 q -0.291666,-0.0521 -0.552082,-0.0521 -0.427083,0 -0.604166,0.18229 -0.177082,0.18229 -0.177082,0.68229 v 0.51042 h 1.078122 v 0.72916 h -1.078122 v 4.80207 z"
       style="font-size:10.66664028px;font-family:Arial;fill:#000000;stroke-width:1.33333004"
       id="path1217"
       inkscape:connector-curvature="0" />
    <path
       d="m 27.341892,109.70056 v 0.67578 h -3.785147 q -0.0078,-0.25391 0.08203,-0.48828 0.144531,-0.38672 0.460936,-0.76172 0.320312,-0.375 0.921873,-0.86718 0.933591,-0.76563 1.261716,-1.21094 0.328124,-0.44921 0.328124,-0.84765 0,-0.41797 -0.300781,-0.70312 -0.296874,-0.28907 -0.777342,-0.28907 -0.507811,0 -0.812497,0.30469 -0.304687,0.30469 -0.308593,0.84375 l -0.722655,-0.0742 q 0.07422,-0.80859 0.558592,-1.23047 0.484374,-0.42578 1.300778,-0.42578 0.824217,0 1.304685,0.45703 0.480467,0.45703 0.480467,1.13281 0,0.34375 -0.140624,0.67578 -0.140625,0.33203 -0.468749,0.69922 -0.324218,0.36719 -1.082029,1.00781 -0.632811,0.53125 -0.812498,0.72266 -0.179687,0.18749 -0.296874,0.3789 z"
       style="font-size:7.99997997px;font-family:Arial;fill:#000000;stroke-width:1.33333004"
       id="path1219"
       inkscape:connector-curvature="0" />
    <path
       d="m 28.283296,104.24427 q 0,-1.90104 1.020831,-2.97395 1.020831,-1.07812 2.63541,-1.07812 1.057289,0 1.906246,0.50521 0.848956,0.5052 1.291663,1.41145 0.447916,0.90104 0.447916,2.04687 0,1.16146 -0.468749,2.07812 -0.468749,0.91666 -1.328122,1.39062 -0.859373,0.46875 -1.854162,0.46875 -1.078122,0 -1.927079,-0.52083 -0.848956,-0.52083 -1.286455,-1.42187 -0.437499,-0.90104 -0.437499,-1.90625 z m 1.041664,0.0156 q 0,1.3802 0.739582,2.17707 0.74479,0.79167 1.864579,0.79167 1.140622,0 1.874995,-0.80208 0.739581,-0.80208 0.739581,-2.27604 0,-0.93229 -0.317707,-1.62499 -0.312499,-0.69792 -0.921873,-1.07813 -0.604165,-0.38541 -1.359371,-0.38541 -1.072914,0 -1.848954,0.73958 -0.770832,0.73437 -0.770832,2.45833 z"
       style="font-size:10.66664028px;font-family:Arial;fill:#000000;stroke-width:1.33333004"
       id="path1221"
       inkscape:connector-curvature="0" />
  </g>
  <g
     aria-label="R1"
     style="font-size:15.99995995px;text-anchor:end;stroke-width:1.33333004;text-rendering:geometricPrecision"
     id="text26">
    <path
       d="m -49.55401,121.38965 v -7.6354 h 3.385409 q 1.020831,0 1.552079,0.20833 0.531249,0.20313 0.848956,0.72396 0.317708,0.52083 0.317708,1.15104 0,0.8125 -0.52604,1.36979 -0.526041,0.55729 -1.624996,0.70833 0.40104,0.19271 0.609373,0.38021 0.442707,0.40625 0.83854,1.01562 l 1.328121,2.07812 h -1.27083 l -1.010414,-1.58854 q -0.442707,-0.6875 -0.729165,-1.05208 -0.286457,-0.36458 -0.515624,-0.51042 -0.223957,-0.14583 -0.458332,-0.20312 -0.171874,-0.0365 -0.562498,-0.0365 h -1.171872 v 3.39062 z m 1.010415,-4.26562 h 2.171869 q 0.692707,0 1.083331,-0.14062 0.390624,-0.14583 0.593748,-0.45833 0.203125,-0.31771 0.203125,-0.6875 0,-0.54167 -0.395832,-0.89062 -0.390624,-0.34896 -1.239581,-0.34896 h -2.41666 z"
       style="font-size:10.66664028px;font-family:Arial;fill:#009d73;stroke-width:1.33333004"
       id="path1210"
       inkscape:connector-curvature="0" />
    <path
       d="m -39.703773,117.04299 h -0.703124 v -4.48045 q -0.253905,0.24218 -0.667967,0.48437 -0.410155,0.24219 -0.738279,0.36328 v -0.67969 q 0.589842,-0.27734 1.031247,-0.67187 0.441405,-0.39453 0.624999,-0.76562 h 0.453124 z"
       style="font-size:7.99997997px;font-family:Arial;fill:#009d73;stroke-width:1.33333004"
       id="path1212"
       inkscape:connector-curvature="0" />
  </g>
  <path
     style="fill:#009d73;fill-rule:evenodd;stroke:#009d73;stroke-width:0;stroke-linejoin:miter;shape-rendering:geometricPrecision"
     inkscape:connector-curvature="0"
     id="path30"
     d="m -38.017788,112.64299 v 0 l -0.159999,-0.29333 -0.173333,-0.30667 5.066654,-2.91999 v 0.38667 0.38666 z" />
  <path
     style="fill:#009d73;fill-rule:evenodd;stroke:#009d73;stroke-width:0;stroke-linejoin:miter;shape-rendering:geometricPrecision"
     inkscape:connector-curvature="0"
     id="path33"
     d="m -33.284466,109.89633 v 0 -0.38666 -0.38667 l 8.933311,5.15999 -0.173333,0.29333 -0.16,0.29333 z" />
  <g
     aria-label="NH"
     style="font-size:15.99995995px;text-anchor:start;stroke-width:1.33333004;text-rendering:geometricPrecision"
     id="text41">
    <path
       d="m -23.045324,121.38965 v -7.6354 h 1.036455 l 4.010407,5.99478 v -5.99478 h 0.968748 v 7.6354 h -1.036456 l -4.010407,-5.99999 v 5.99999 z"
       style="font-size:10.66664028px;font-family:Arial;fill:#009d73;stroke-width:1.33333004"
       id="path1205"
       inkscape:connector-curvature="0" />
    <path
       d="m -23.003658,132.05629 v -7.6354 h 1.010414 v 3.13541 h 3.96874 v -3.13541 h 1.010415 v 7.6354 h -1.010415 v -3.59895 h -3.96874 v 3.59895 z"
       style="font-size:10.66664028px;font-family:Arial;fill:#009d73;stroke-width:1.33333004"
       id="path1207"
       inkscape:connector-curvature="0" />
  </g>
  <path
     style="stroke:#000000;stroke-width:0.67999828;shape-rendering:auto"
     d="m -34.671127,109.50967 v -9.21331"
     id="line45" />
  <path
     style="fill:#000000;fill-rule:evenodd;stroke:#000000;stroke-width:0;stroke-linejoin:miter;shape-rendering:geometricPrecision"
     inkscape:connector-curvature="0"
     id="path47"
     d="m -32.244469,109.723 v 0 l 0.679999,0.38667 v -9.81331 h -0.679999 z" />
  <path
     style="fill:#000000;fill-rule:evenodd;stroke:#000000;stroke-width:0;stroke-linejoin:miter;shape-rendering:geometricPrecision"
     inkscape:connector-curvature="0"
     id="path49"
     d="m -35.004462,110.10967 v 0 l 0.679998,-0.38667 v -9.42664 h -0.679998 z" />
  <g
     aria-label="O"
     style="font-size:15.99995995px;text-anchor:start;stroke-width:1.33333004;text-rendering:geometricPrecision"
     id="text55">
    <path
       d="m -36.902166,94.644289 q 0,-1.901037 1.020831,-2.973951 1.020831,-1.078123 2.63541,-1.078123 1.057289,0 1.906246,0.505207 0.848956,0.505208 1.291663,1.411455 0.447916,0.90104 0.447916,2.04687 0,1.161456 -0.468749,2.07812 -0.468749,0.916664 -1.328122,1.390622 -0.859373,0.468748 -1.854162,0.468748 -1.078122,0 -1.927079,-0.520832 -0.848956,-0.520832 -1.286455,-1.421871 -0.437499,-0.901039 -0.437499,-1.906245 z m 1.041664,0.01563 q 0,1.380205 0.739582,2.177078 0.74479,0.791664 1.864579,0.791664 1.140622,0 1.874995,-0.802081 0.739581,-0.802081 0.739581,-2.276036 0,-0.932289 -0.317707,-1.624996 -0.312499,-0.697915 -0.921873,-1.078122 -0.604165,-0.385416 -1.359371,-0.385416 -1.072914,0 -1.848954,0.739581 -0.770832,0.734374 -0.770832,2.458328 z"
       style="font-size:10.66664028px;font-family:Arial;fill:#000000;stroke-width:1.33333004"
       id="path1201"
       inkscape:connector-curvature="0" />
  </g>
  <path
     style="fill:#009d73;fill-rule:evenodd;stroke:#009d73;stroke-width:0;stroke-linejoin:miter;shape-rendering:geometricPrecision"
     inkscape:connector-curvature="0"
     id="path59"
     d="m -15.351178,114.89632 v 0 l -0.159999,-0.29333 -0.173333,-0.29333 4.333322,-2.50666 0.16,0.29333 0.173333,0.30666 z" />
  <g
     aria-label="R2"
     style="font-size:15.99995995px;text-anchor:start;stroke-width:1.33333004;text-rendering:geometricPrecision"
     id="text67">
    <path
       d="m -9.7259832,113.70966 v -7.63539 h 3.3854083 q 1.0208308,0 1.5520795,0.20833 0.5312487,0.20312 0.8489563,0.72395 0.3177075,0.52084 0.3177075,1.15104 0,0.8125 -0.5260403,1.36979 -0.5260404,0.55729 -1.624996,0.70833 0.4010406,0.19271 0.6093735,0.38021 0.4427072,0.40625 0.8385396,1.01562 l 1.3281217,2.07812 h -1.2708302 l -1.0104142,-1.58853 q -0.4427072,-0.6875 -0.7291648,-1.05209 -0.2864577,-0.36458 -0.5156238,-0.51041 -0.2239578,-0.14583 -0.4583322,-0.20312 -0.1718745,-0.0365 -0.5624986,-0.0365 H -8.715569 v 3.39061 z m 1.0104142,-4.26561 h 2.1718696 q 0.6927067,0 1.0833307,-0.14063 0.390624,-0.14583 0.5937485,-0.45833 0.2031245,-0.31771 0.2031245,-0.6875 0,-0.54166 -0.3958323,-0.89062 -0.3906241,-0.34896 -1.2395803,-0.34896 H -8.715569 Z"
       style="font-size:10.66664028px;font-family:Arial;fill:#009d73;stroke-width:1.33333004"
       id="path1196"
       inkscape:connector-curvature="0" />
    <path
       d="m 1.1711253,108.68723 v 0.67578 h -3.7851467 q -0.00781,-0.25391 0.082031,-0.48828 0.1445309,-0.38672 0.4609364,-0.76172 0.3203117,-0.375 0.9218727,-0.86718 0.93359137,-0.76563 1.26171554,-1.21094 0.32812418,-0.44922 0.32812418,-0.84765 0,-0.41797 -0.30078049,-0.70313 -0.29687426,-0.28906 -0.77734181,-0.28906 -0.50781122,0 -0.81249792,0.30469 -0.3046868,0.30469 -0.308593,0.84375 l -0.7226545,-0.0742 q 0.074219,-0.80859 0.5585924,-1.23047 0.4843738,-0.42578 1.30077798,-0.42578 0.82421669,0 1.30468424,0.45703 0.48046758,0.45703 0.48046758,1.13281 0,0.34375 -0.1406247,0.67578 -0.14062463,0.33203 -0.46874881,0.69922 -0.32421794,0.36718 -1.08202854,1.00781 -0.63281095,0.53125 -0.81249795,0.72265 -0.1796871,0.1875 -0.2968743,0.37891 z"
       style="font-size:7.99997997px;font-family:Arial;fill:#009d73;stroke-width:1.33333004"
       id="path1198"
       inkscape:connector-curvature="0" />
  </g>
  <path
     style="stroke:#000000;stroke-width:0.67999828;shape-rendering:auto"
     d="M 284.44809,112.48299 H 256.06146"
     id="line71" />
  <path
     style="fill:#000000;fill-rule:evenodd;stroke:#000000;stroke-width:0;stroke-linejoin:miter;stroke-miterlimit:5.89496231;shape-rendering:geometricPrecision"
     inkscape:connector-curvature="0"
     id="path73"
     stroke-miterlimit="5.89496254687639"
     d="m 289.06139,112.48299 -6.79998,-1.70666 c 1.44,0.96 1.44,2.45333 0,3.41333 z" />
  <g
     aria-label="HEH"
     style="font-size:15.99995995px;text-anchor:start;stroke-width:1.33333004;text-rendering:geometricPrecision"
     id="text79">
    <path
       d="m 260.68897,107.46967 v -7.635395 h 1.01042 v 3.135405 h 3.96874 v -3.135405 h 1.01041 v 7.635395 h -1.01041 v -3.59895 h -3.96874 v 3.59895 z"
       style="font-size:10.66664028px;font-family:Arial;fill:#cc78a6;stroke-width:1.33333004"
       id="path1188"
       inkscape:connector-curvature="0" />
    <path
       d="m 268.38687,107.46967 v -7.635395 h 5.52082 v 0.901035 h -4.51041 v 2.33854 h 4.22395 v 0.89583 h -4.22395 v 2.59895 h 4.68749 v 0.90104 z"
       style="font-size:10.66664028px;font-family:Arial;fill:#cc78a6;stroke-width:1.33333004"
       id="path1190"
       inkscape:connector-curvature="0" />
    <path
       d="m 275.52227,107.46967 v -7.635395 h 1.01041 v 3.135405 h 3.96874 v -3.135405 h 1.01042 v 7.635395 h -1.01042 v -3.59895 h -3.96874 v 3.59895 z"
       style="font-size:10.66664028px;font-family:Arial;fill:#cc78a6;stroke-width:1.33333004"
       id="path1192"
       inkscape:connector-curvature="0" />
  </g>
  <g
     id="g2080"
     transform="translate(0,5.6800003)">
    <path
       d="m 316.67466,103.72302 v 0 l 0.46666,0.12 v 0.38666 l -4.75998,2.74666 -0.16,-0.29333 -0.17334,-0.29333 z"
       id="path83"
       inkscape:connector-curvature="0"
       style="fill:#009d73;fill-rule:evenodd;stroke:#009d73;stroke-width:0;stroke-linejoin:miter;shape-rendering:geometricPrecision" />
    <path
       d="m 317.14132,103.16302 v 0 0.68 l -0.46666,-0.12 -4.17332,-7.226653 0.29333,-0.16 0.30666,-0.173333 z"
       id="path87"
       inkscape:connector-curvature="0"
       style="fill:#cc78a6;fill-rule:evenodd;stroke:#cc78a6;stroke-width:0;stroke-linejoin:miter;shape-rendering:geometricPrecision" />
    <g
       aria-label="R1"
       style="font-size:15.99995995px;text-anchor:end;stroke-width:1.33333004;text-rendering:geometricPrecision"
       id="text95">
      <path
         d="m 300.85845,115.70965 v -7.6354 h 3.38541 q 1.02083,0 1.55207,0.20833 0.53125,0.20313 0.84896,0.72396 0.31771,0.52083 0.31771,1.15104 0,0.8125 -0.52604,1.36979 -0.52604,0.55729 -1.625,0.70833 0.40104,0.19271 0.60938,0.38021 0.4427,0.40624 0.83854,1.01562 l 1.32812,2.07812 h -1.27083 l -1.01042,-1.58854 q -0.4427,-0.6875 -0.72916,-1.05208 -0.28646,-0.36458 -0.51563,-0.51042 -0.22395,-0.14583 -0.45833,-0.20312 -0.17187,-0.0365 -0.5625,-0.0365 h -1.17187 v 3.39062 z m 1.01041,-4.26562 h 2.17187 q 0.69271,0 1.08333,-0.14062 0.39063,-0.14583 0.59375,-0.45833 0.20312,-0.31771 0.20312,-0.6875 0,-0.54167 -0.39583,-0.89062 -0.39062,-0.34896 -1.23958,-0.34896 h -2.41666 z"
         style="font-size:10.66664028px;font-family:Arial;fill:#009d73;stroke-width:1.33333004"
         id="path1167"
         inkscape:connector-curvature="0" />
      <path
         d="m 310.70868,111.36299 h -0.70312 v -4.48046 q -0.25391,0.24219 -0.66797,0.48438 -0.41015,0.24219 -0.73828,0.36328 v -0.67969 q 0.58985,-0.27734 1.03125,-0.67187 0.44141,-0.39453 0.625,-0.76562 h 0.45312 z"
         style="font-size:7.99997997px;font-family:Arial;fill:#009d73;stroke-width:1.33333004"
         id="path1169"
         inkscape:connector-curvature="0" />
    </g>
    <path
       d="m 335.04795,109.22967 v 0 l -0.16,-0.29333 -0.17334,-0.29334 4.33333,-2.49332 0.16,0.29333 0.17333,0.29333 z"
       id="path99"
       inkscape:connector-curvature="0"
       style="fill:#009d73;fill-rule:evenodd;stroke:#009d73;stroke-width:0;stroke-linejoin:miter;shape-rendering:geometricPrecision" />
    <g
       aria-label="H"
       style="font-size:15.99995995px;text-anchor:start;stroke-width:1.33333004;text-rendering:geometricPrecision"
       id="text105">
      <path
         d="m 306.44883,94.749702 v -7.635397 h 1.01041 v 3.135409 h 3.96874 v -3.135409 h 1.01042 v 7.635397 h -1.01042 v -3.598949 h -3.96874 v 3.598949 z"
         style="font-size:10.66664028px;font-family:Arial;fill:#cc78a6;stroke-width:1.33333004"
         id="path1172"
         inkscape:connector-curvature="0" />
    </g>
    <g
       aria-label="R2"
       style="font-size:15.99995995px;text-anchor:start;stroke-width:1.33333004;text-rendering:geometricPrecision"
       id="text113">
      <path
         d="m 340.68647,108.043 v -7.6354 h 3.38541 q 1.02083,0 1.55208,0.20833 0.53125,0.20313 0.84895,0.72396 0.31771,0.52083 0.31771,1.15104 0,0.8125 -0.52604,1.36979 -0.52604,0.55729 -1.62499,0.70833 0.40104,0.19271 0.60937,0.38021 0.44271,0.40625 0.83854,1.01562 l 1.32812,2.07812 h -1.27083 l -1.01041,-1.58854 q -0.44271,-0.6875 -0.72917,-1.05208 -0.28646,-0.36458 -0.51562,-0.51041 -0.22396,-0.14584 -0.45833,-0.20313 -0.17188,-0.0365 -0.5625,-0.0365 h -1.17188 v 3.39062 z m 1.01041,-4.26562 h 2.17187 q 0.69271,0 1.08333,-0.14062 0.39063,-0.14583 0.59375,-0.45833 0.20313,-0.31771 0.20313,-0.6875 0,-0.54167 -0.39583,-0.89062 -0.39063,-0.34896 -1.23958,-0.34896 h -2.41667 z"
         style="font-size:10.66664028px;font-family:Arial;fill:#009d73;stroke-width:1.33333004"
         id="path1175"
         inkscape:connector-curvature="0" />
      <path
         d="m 351.58358,103.02056 v 0.67578 h -3.78515 q -0.008,-0.2539 0.082,-0.48828 0.14453,-0.38671 0.46094,-0.76171 0.32031,-0.375 0.92187,-0.86719 0.93359,-0.76562 1.26172,-1.21093 0.32812,-0.449221 0.32812,-0.847657 0,-0.417968 -0.30078,-0.703124 -0.29687,-0.289061 -0.77734,-0.289061 -0.50781,0 -0.8125,0.304686 -0.30468,0.304687 -0.30859,0.843748 l -0.72266,-0.07422 q 0.0742,-0.808592 0.5586,-1.230466 0.48437,-0.42578 1.30077,-0.42578 0.82422,0 1.30469,0.45703 0.48047,0.45703 0.48047,1.13281 0,0.343749 -0.14063,0.675784 -0.14062,0.33203 -0.46875,0.69921 -0.32421,0.36719 -1.08203,1.00781 -0.63281,0.53125 -0.81249,0.72266 -0.17969,0.1875 -0.29688,0.3789 z"
         style="font-size:7.99997997px;font-family:Arial;fill:#009d73;stroke-width:1.33333004"
         id="path1177"
         inkscape:connector-curvature="0" />
    </g>
    <path
       d="m 326.04797,108.58967 v 0 l -0.17333,0.29333 -0.16,0.29334 -8.57332,-4.94666 v -0.38666 l 0.46667,-0.12 z"
       id="path117"
       inkscape:connector-curvature="0"
       style="fill:#009d73;fill-rule:evenodd;stroke:#009d73;stroke-width:0;stroke-linejoin:miter;shape-rendering:geometricPrecision" />
    <g
       aria-label="NH"
       style="font-size:15.99995995px;text-anchor:start;stroke-width:1.33333004;text-rendering:geometricPrecision"
       id="text125">
      <path
         d="m 327.36712,115.70965 v -7.6354 h 1.03646 l 4.01041,5.99478 v -5.99478 h 0.96874 v 7.6354 h -1.03645 l -4.01041,-5.99999 v 5.99999 z"
         style="font-size:10.66664028px;font-family:Arial;fill:#009d73;stroke-width:1.33333004"
         id="path1180"
         inkscape:connector-curvature="0" />
      <path
         d="m 327.40879,126.37629 v -7.6354 h 1.01042 v 3.13541 h 3.96874 v -3.13541 h 1.01041 v 7.6354 h -1.01041 v -3.59895 h -3.96874 v 3.59895 z"
         style="font-size:10.66664028px;font-family:Arial;fill:#009d73;stroke-width:1.33333004"
         id="path1182"
         inkscape:connector-curvature="0" />
    </g>
    <g
       aria-label="H"
       style="font-size:15.99995995px;text-anchor:start;stroke-width:1.33333004;text-rendering:geometricPrecision"
       id="text131">
      <path
         d="m 321.79548,94.749702 v -7.635397 h 1.01041 v 3.135409 h 3.96874 v -3.135409 h 1.01042 v 7.635397 h -1.01042 v -3.598949 h -3.96874 v 3.598949 z"
         style="font-size:10.66664028px;font-family:Arial;fill:#cc78a6;stroke-width:1.33333004"
         id="path1185"
         inkscape:connector-curvature="0" />
    </g>
    <path
       d="m 317.60799,103.72302 v 0 l -0.46667,0.12 v -0.68 l 4.03999,-6.999986 0.29334,0.173333 0.29333,0.16 z"
       id="path135"
       inkscape:connector-curvature="0"
       style="fill:#cc78a6;fill-rule:evenodd;stroke:#cc78a6;stroke-width:0;stroke-linejoin:miter;shape-rendering:geometricPrecision" />
  </g>
  <g
     aria-label="R1"
     style="font-size:15.99995995px;text-anchor:end;stroke-width:1.33333004;text-rendering:geometricPrecision"
     id="text143">
    <path
       d="m 194.32538,121.38965 v -7.6354 h 3.38541 q 1.02083,0 1.55208,0.20833 0.53125,0.20313 0.84896,0.72396 0.3177,0.52083 0.3177,1.15104 0,0.8125 -0.52604,1.36979 -0.52604,0.55729 -1.62499,0.70833 0.40104,0.19271 0.60937,0.38021 0.44271,0.40625 0.83854,1.01562 l 1.32812,2.07812 h -1.27083 l -1.01041,-1.58854 q -0.44271,-0.6875 -0.72917,-1.05208 -0.28646,-0.36458 -0.51562,-0.51042 -0.22396,-0.14583 -0.45833,-0.20312 -0.17188,-0.0365 -0.5625,-0.0365 h -1.17187 v 3.39062 z m 1.01042,-4.26562 h 2.17186 q 0.69271,0 1.08334,-0.14062 0.39062,-0.14583 0.59374,-0.45833 0.20313,-0.31771 0.20313,-0.6875 0,-0.54167 -0.39583,-0.89062 -0.39063,-0.34896 -1.23958,-0.34896 h -2.41666 z"
       style="font-size:10.66664028px;font-family:Arial;fill:#009d73;stroke-width:1.33333004"
       id="path1162"
       inkscape:connector-curvature="0" />
    <path
       d="m 204.17562,117.04299 h -0.70313 v -4.48045 q -0.2539,0.24218 -0.66796,0.48437 -0.41016,0.24219 -0.73828,0.36328 v -0.67969 q 0.58984,-0.27734 1.03124,-0.67187 0.44141,-0.39453 0.625,-0.76562 h 0.45313 z"
       style="font-size:7.99997997px;font-family:Arial;fill:#009d73;stroke-width:1.33333004"
       id="path1164"
       inkscape:connector-curvature="0" />
  </g>
  <path
     style="fill:#009d73;fill-rule:evenodd;stroke:#009d73;stroke-width:0;stroke-linejoin:miter;shape-rendering:geometricPrecision"
     inkscape:connector-curvature="0"
     id="path147"
     d="m 205.84827,112.64299 v 0 l -0.16,-0.29333 -0.17333,-0.29333 4.74665,-2.74666 0.33333,0.2 v 0.38666 z" />
  <g
     aria-label="N"
     style="font-size:15.99995995px;text-anchor:start;stroke-width:1.33333004;text-rendering:geometricPrecision"
     id="text153">
    <path
       d="m 220.83406,121.38965 v -7.6354 h 1.03645 l 4.01041,5.99478 v -5.99478 h 0.96875 v 7.6354 h -1.03646 l -4.0104,-5.99999 v 5.99999 z"
       style="font-size:10.66664028px;font-family:Arial;fill:#009d73;stroke-width:1.33333004"
       id="path1159"
       inkscape:connector-curvature="0" />
  </g>
  <path
     style="fill:#009d73;fill-rule:evenodd;stroke:#009d73;stroke-width:0;stroke-linejoin:miter;shape-rendering:geometricPrecision"
     inkscape:connector-curvature="0"
     id="path157"
     d="m 210.59492,109.89633 v 0 -0.38666 l 0.34667,-0.2 8.57331,4.95999 -0.17333,0.29333 -0.16,0.29333 z" />
  <path
     style="stroke:#009d73;stroke-width:0.67999828;shape-rendering:auto"
     d="m 213.35492,107.90967 7.37331,4.26666"
     id="line159" />
  <path
     style="fill:#cc78a6;fill-rule:evenodd;stroke:#cc78a6;stroke-width:0;stroke-linejoin:miter;shape-rendering:geometricPrecision"
     inkscape:connector-curvature="0"
     id="path163"
     d="m 210.94159,109.30967 v 0 l -0.34667,0.2 -0.33333,-0.2 v -9.14665 h 0.33333 0.34667 z" />
  <g
     aria-label="H"
     style="font-size:15.99995995px;text-anchor:start;stroke-width:1.33333004;text-rendering:geometricPrecision"
     id="text169">
    <path
       d="m 207.58244,98.363029 v -7.635397 h 1.01041 v 3.135409 h 3.96874 v -3.135409 h 1.01041 v 7.635397 h -1.01041 V 94.76408 h -3.96874 v 3.598949 z"
       style="font-size:10.66664028px;font-family:Arial;fill:#cc78a6;stroke-width:1.33333004"
       id="path1155"
       inkscape:connector-curvature="0" />
  </g>
  <g
     aria-label="R2"
     style="font-size:15.99995995px;text-anchor:start;stroke-width:1.33333004;text-rendering:geometricPrecision"
     id="text177">
    <path
       d="m 234.1534,113.70966 v -7.63539 h 3.38541 q 1.02083,0 1.55208,0.20833 0.53125,0.20312 0.84896,0.72395 0.31771,0.52084 0.31771,1.15104 0,0.8125 -0.52604,1.36979 -0.52604,0.55729 -1.625,0.70833 0.40104,0.19271 0.60937,0.38021 0.44271,0.40625 0.83854,1.01562 l 1.32812,2.07812 h -1.27083 l -1.01041,-1.58853 q -0.44271,-0.6875 -0.72916,-1.05209 -0.28646,-0.36458 -0.51563,-0.51041 -0.22396,-0.14583 -0.45833,-0.20312 -0.17187,-0.0365 -0.5625,-0.0365 h -1.17187 v 3.39061 z m 1.01042,-4.26561 h 2.17187 q 0.69271,0 1.08333,-0.14063 0.39062,-0.14583 0.59375,-0.45833 0.20312,-0.31771 0.20312,-0.6875 0,-0.54166 -0.39583,-0.89062 -0.39062,-0.34896 -1.23958,-0.34896 h -2.41666 z"
       style="font-size:10.66664028px;font-family:Arial;fill:#009d73;stroke-width:1.33333004"
       id="path1150"
       inkscape:connector-curvature="0" />
    <path
       d="m 245.05051,108.68723 v 0.67578 h -3.78514 q -0.008,-0.25391 0.082,-0.48828 0.14453,-0.38672 0.46093,-0.76172 0.32032,-0.375 0.92188,-0.86718 0.93359,-0.76563 1.26171,-1.21094 0.32813,-0.44922 0.32813,-0.84765 0,-0.41797 -0.30078,-0.70313 -0.29688,-0.28906 -0.77735,-0.28906 -0.50781,0 -0.81249,0.30469 -0.30469,0.30469 -0.3086,0.84375 l -0.72265,-0.0742 q 0.0742,-0.80859 0.55859,-1.23047 0.48437,-0.42578 1.30078,-0.42578 0.82422,0 1.30468,0.45703 0.48047,0.45703 0.48047,1.13281 0,0.34375 -0.14062,0.67578 -0.14063,0.33203 -0.46875,0.69922 -0.32422,0.36718 -1.08203,1.00781 -0.63281,0.53125 -0.8125,0.72265 -0.17969,0.1875 -0.29687,0.37891 z"
       style="font-size:7.99997997px;font-family:Arial;fill:#009d73;stroke-width:1.33333004"
       id="path1152"
       inkscape:connector-curvature="0" />
  </g>
  <path
     style="fill:#009d73;fill-rule:evenodd;stroke:#009d73;stroke-width:0;stroke-linejoin:miter;shape-rendering:geometricPrecision"
     inkscape:connector-curvature="0"
     id="path181"
     d="m 228.51488,114.90965 v 0 l -0.16,-0.29333 -0.17333,-0.29333 4.33332,-2.50666 0.16,0.29333 0.17333,0.29333 z" />
  <g
     aria-label="Et3SiH"
     style="font-size:15.99995995px;text-anchor:start;stroke-width:1.33333004;text-rendering:geometricPrecision"
     id="text191">
    <path
       d="m 140.47885,107.46967 v -7.635395 h 5.52082 v 0.901035 h -4.51041 v 2.33854 h 4.22395 v 0.89583 h -4.22395 v 2.59895 h 4.68749 v 0.90104 z"
       style="font-size:10.66664028px;font-family:Arial;fill:#cc78a6;stroke-width:1.33333004"
       id="path1137"
       inkscape:connector-curvature="0" />
    <path
       d="m 149.51008,106.63113 0.13541,0.82813 q -0.39583,0.0833 -0.70833,0.0833 -0.51041,0 -0.79166,-0.16146 -0.28125,-0.16146 -0.39584,-0.42187 -0.11458,-0.26563 -0.11458,-1.10937 v -3.18229 h -0.6875 v -0.72916 h 0.6875 v -1.36979 l 0.93229,-0.5625 v 1.93229 h 0.94271 v 0.72916 h -0.94271 v 3.23437 q 0,0.40104 0.0469,0.51562 0.0521,0.11459 0.16145,0.18229 0.11459,0.0677 0.32292,0.0677 0.15625,0 0.41146,-0.0365 z"
       style="font-size:10.66664028px;font-family:Arial;fill:#cc78a6;stroke-width:1.33333004"
       id="path1139"
       inkscape:connector-curvature="0" />
    <path
       d="m 150.05435,108.37129 0.70312,-0.0937 q 0.12109,0.59765 0.41015,0.86327 0.29297,0.26172 0.71094,0.26172 0.49609,0 0.83594,-0.34375 0.34374,-0.34375 0.34374,-0.85156 0,-0.48437 -0.3164,-0.79687 -0.31641,-0.31641 -0.80469,-0.31641 -0.19921,0 -0.49609,0.0781 l 0.0781,-0.61719 q 0.0703,0.008 0.11328,0.008 0.44921,0 0.80859,-0.23438 0.35937,-0.23437 0.35937,-0.72265 0,-0.38672 -0.26172,-0.64063 -0.26171,-0.2539 -0.67577,-0.2539 -0.41016,0 -0.6836,0.25781 -0.27343,0.25781 -0.35156,0.77344 l -0.70312,-0.125 q 0.1289,-0.70703 0.58593,-1.09375 0.45703,-0.39063 1.13672,-0.39063 0.46875,0 0.86328,0.20313 0.39453,0.19922 0.60156,0.54687 0.21094,0.34766 0.21094,0.73828 0,0.3711 -0.19922,0.67578 -0.19922,0.30469 -0.58984,0.48438 0.50781,0.11718 0.78906,0.48828 0.28125,0.36718 0.28125,0.92187 0,0.75 -0.54688,1.27343 -0.54687,0.51953 -1.38281,0.51953 -0.7539,0 -1.2539,-0.44922 -0.49609,-0.44921 -0.5664,-1.16405 z"
       style="font-size:7.99997997px;font-family:Arial;fill:#cc78a6;stroke-width:1.33333004"
       id="path1141"
       inkscape:connector-curvature="0" />
    <path
       d="m 154.65069,105.01655 0.95312,-0.0833 q 0.0677,0.57292 0.3125,0.94271 0.25,0.36458 0.77083,0.59375 0.52083,0.22395 1.17187,0.22395 0.57813,0 1.02084,-0.17187 0.4427,-0.17188 0.65624,-0.46875 0.21875,-0.30208 0.21875,-0.65625 0,-0.35937 -0.20833,-0.625 -0.20833,-0.27083 -0.6875,-0.45312 -0.30729,-0.11979 -1.35937,-0.36979 -1.05208,-0.25521 -1.47395,-0.47917 -0.54688,-0.28645 -0.81771,-0.70833 -0.26562,-0.42708 -0.26562,-0.95312 0,-0.57812 0.32812,-1.07812 0.32812,-0.50521 0.95833,-0.765627 0.63021,-0.260416 1.40104,-0.260416 0.84896,0 1.49479,0.276041 0.65104,0.270832 0.99999,0.802082 0.34896,0.53125 0.375,1.20312 l -0.96874,0.0729 q -0.0781,-0.72396 -0.53125,-1.09375 -0.44792,-0.36979 -1.32812,-0.36979 -0.91667,0 -1.33854,0.33854 -0.41667,0.33333 -0.41667,0.80729 0,0.41146 0.29688,0.67708 0.29166,0.26563 1.52083,0.54688 1.23437,0.27604 1.6927,0.48437 0.66666,0.30729 0.98437,0.78125 0.31771,0.46875 0.31771,1.08333 0,0.60937 -0.34896,1.15104 -0.34896,0.53645 -1.0052,0.83854 -0.65104,0.29687 -1.46875,0.29687 -1.03646,0 -1.73958,-0.30208 -0.69791,-0.30208 -1.09895,-0.90625 -0.39584,-0.60937 -0.41667,-1.375 z"
       style="font-size:10.66664028px;font-family:Arial;fill:#cc78a6;stroke-width:1.33333004"
       id="path1143"
       inkscape:connector-curvature="0" />
    <path
       d="m 162.00484,100.9124 v -1.078125 h 0.9375 v 1.078125 z m 0,6.55727 v -5.53123 h 0.9375 v 5.53123 z"
       style="font-size:10.66664028px;font-family:Arial;fill:#cc78a6;stroke-width:1.33333004"
       id="path1145"
       inkscape:connector-curvature="0" />
    <path
       d="m 164.52567,107.46967 v -7.635395 h 1.01041 v 3.135405 h 3.96874 v -3.135405 h 1.01041 v 7.635395 h -1.01041 v -3.59895 h -3.96874 v 3.59895 z"
       style="font-size:10.66664028px;font-family:Arial;fill:#cc78a6;stroke-width:1.33333004"
       id="path1147"
       inkscape:connector-curvature="0" />
  </g>
  <g
     aria-label="OTf"
     style="font-size:15.99995995px;text-anchor:start;stroke-width:1.33333004;text-rendering:geometricPrecision"
     id="text197">
    <path
       d="m 68.257575,137.8175 q 0,-1.90104 1.020831,-2.97395 1.02083,-1.07812 2.63541,-1.07812 1.057289,0 1.906245,0.5052 0.848956,0.50521 1.291663,1.41146 0.447916,0.90104 0.447916,2.04687 0,1.16145 -0.468749,2.07812 -0.468749,0.91666 -1.328122,1.39062 -0.859372,0.46875 -1.854162,0.46875 -1.078122,0 -1.927078,-0.52083 -0.848956,-0.52084 -1.286455,-1.42188 -0.437499,-0.90104 -0.437499,-1.90624 z m 1.041664,0.0156 q 0,1.38021 0.739581,2.17708 0.74479,0.79167 1.864579,0.79167 1.140622,0 1.874995,-0.80208 0.739582,-0.80209 0.739582,-2.27604 0,-0.93229 -0.317708,-1.625 -0.312499,-0.69791 -0.921872,-1.07812 -0.604166,-0.38541 -1.359372,-0.38541 -1.072914,0 -1.848954,0.73958 -0.770831,0.73437 -0.770831,2.45832 z"
       style="font-size:10.66664028px;font-family:Arial;fill:#000000;stroke-width:1.33333004"
       id="path1130"
       inkscape:connector-curvature="0" />
    <path
       d="m 78.799215,141.53624 v -6.73436 h -2.515619 v -0.90104 h 6.052069 v 0.90104 h -2.526036 v 6.73436 z"
       style="font-size:10.66664028px;font-family:Arial;fill:#000000;stroke-width:1.33333004"
       id="path1132"
       inkscape:connector-curvature="0" />
    <path
       d="m 83.481496,141.53624 v -4.80207 H 82.653373 V 136.005 h 0.828123 v -0.58854 q 0,-0.55729 0.09896,-0.82812 0.135416,-0.36458 0.473957,-0.58854 0.343749,-0.22917 0.958331,-0.22917 0.395832,0 0.874998,0.0937 l -0.140625,0.81771 q -0.291666,-0.0521 -0.552082,-0.0521 -0.427082,0 -0.604165,0.18229 -0.177083,0.18229 -0.177083,0.68229 v 0.51041 h 1.078122 v 0.72917 h -1.078122 v 4.80207 z"
       style="font-size:10.66664028px;font-family:Arial;fill:#000000;stroke-width:1.33333004"
       id="path1134"
       inkscape:connector-curvature="0" />
  </g>
  <path
     style="fill:none;stroke:#000000;stroke-width:0.54399866"
     d="m 67.764165,129.84296 a 3.5555468,3.5555468 0 0 1 -3.555547,3.55554 3.5555468,3.5555468 0 0 1 -3.555547,-3.55554 3.5555468,3.5555468 0 0 1 3.555547,-3.55555 3.5555468,3.5555468 0 0 1 3.555547,3.55555 z"
     id="circle201" />
  <path
     style="stroke:#000000;stroke-width:0.54399866;shape-rendering:auto"
     d="m 62.088631,129.84296 h 4.23999"
     id="line203" />
  <path
     style="fill:none;fill-rule:evenodd;stroke:#000000;stroke-width:0.67999828;stroke-linejoin:miter;shape-rendering:geometricPrecision"
     inkscape:connector-curvature="0"
     id="path206"
     d="m 116.58183,86.896391 h 4.15999 v 50.506539 h -4.15999" />
  <path
     style="fill:none;fill-rule:evenodd;stroke:#000000;stroke-width:0.67999828;stroke-linejoin:miter;shape-rendering:geometricPrecision"
     inkscape:connector-curvature="0"
     id="path209"
     d="m 60.541966,137.40293 h -4.15999 V 86.896391 h 4.15999" />
  <g
     aria-label="R1"
     style="font-size:15.99995995px;text-anchor:end;stroke-width:1.33333004;text-rendering:geometricPrecision"
     id="text217">
    <path
       d="m 64.63238,121.38965 v -7.6354 h 3.385409 q 1.02083,0 1.552079,0.20833 0.531249,0.20313 0.848956,0.72396 0.317708,0.52083 0.317708,1.15104 0,0.8125 -0.52604,1.36979 -0.526041,0.55729 -1.624996,0.70833 0.40104,0.19271 0.609373,0.38021 0.442707,0.40625 0.83854,1.01562 l 1.328121,2.07812 H 70.0907 l -1.010414,-1.58854 q -0.442707,-0.6875 -0.729165,-1.05208 -0.286457,-0.36458 -0.515624,-0.51042 -0.223957,-0.14583 -0.458332,-0.20312 -0.171874,-0.0365 -0.562498,-0.0365 h -1.171872 v 3.39062 z m 1.010415,-4.26562 h 2.171869 q 0.692707,0 1.083331,-0.14062 0.390624,-0.14583 0.593748,-0.45833 0.203125,-0.31771 0.203125,-0.6875 0,-0.54167 -0.395833,-0.89062 -0.390624,-0.34896 -1.23958,-0.34896 h -2.41666 z"
       style="font-size:10.66664028px;font-family:Arial;fill:#009d73;stroke-width:1.33333004"
       id="path1123"
       inkscape:connector-curvature="0" />
    <path
       d="m 74.482616,117.04299 h -0.703123 v -4.48045 q -0.253905,0.24218 -0.667967,0.48437 -0.410155,0.24219 -0.738279,0.36328 v -0.67969 q 0.589842,-0.27734 1.031247,-0.67187 0.441405,-0.39453 0.624999,-0.76562 h 0.453123 z"
       style="font-size:7.99997997px;font-family:Arial;fill:#009d73;stroke-width:1.33333004"
       id="path1125"
       inkscape:connector-curvature="0" />
  </g>
  <path
     style="fill:#009d73;fill-rule:evenodd;stroke:#009d73;stroke-width:0;stroke-linejoin:miter;shape-rendering:geometricPrecision"
     inkscape:connector-curvature="0"
     id="path221"
     d="m 76.248593,112.58966 v 0 l -0.159999,-0.29333 -0.173333,-0.29334 4.653322,-2.69332 0.333332,0.2 v 0.38666 z" />
  <path
     style="fill:#009d73;fill-rule:evenodd;stroke:#009d73;stroke-width:0;stroke-linejoin:miter;shape-rendering:geometricPrecision"
     inkscape:connector-curvature="0"
     id="path225"
     d="m 80.901915,109.89633 v 0 -0.38666 l 0.346666,-0.2 8.666645,5.01332 -0.173333,0.29333 -0.16,0.29333 z" />
  <path
     style="stroke:#009d73;stroke-width:0.67999828;shape-rendering:auto"
     d="m 83.661911,107.90967 7.466644,4.31999"
     id="line227" />
  <g
     aria-label="NH"
     style="font-size:15.99995995px;text-anchor:start;stroke-width:1.33333004;text-rendering:geometricPrecision"
     id="text235">
    <path
       d="m 91.141058,121.38965 v -7.6354 h 1.036456 l 4.010406,5.99478 v -5.99478 h 0.968748 v 7.6354 h -1.036456 l -4.010407,-5.99999 v 5.99999 z"
       style="font-size:10.66664028px;font-family:Arial;fill:#009d73;stroke-width:1.33333004"
       id="path1117"
       inkscape:connector-curvature="0" />
    <path
       d="m 91.182724,132.05629 v -7.6354 h 1.010415 v 3.13541 h 3.96874 v -3.13541 h 1.010414 v 7.6354 h -1.010414 v -3.59895 h -3.96874 v 3.59895 z"
       style="font-size:10.66664028px;font-family:Arial;fill:#009d73;stroke-width:1.33333004"
       id="path1119"
       inkscape:connector-curvature="0" />
  </g>
  <g
     aria-label="OTf"
     style="font-size:15.99995995px;text-anchor:start;stroke-width:1.33333004;text-rendering:geometricPrecision"
     id="text241">
    <path
       d="m 77.284209,94.644289 q 0,-1.901037 1.020831,-2.973951 1.020831,-1.078123 2.63541,-1.078123 1.057289,0 1.906245,0.505207 0.848956,0.505208 1.291664,1.411455 0.447915,0.90104 0.447915,2.04687 0,1.161456 -0.468749,2.07812 -0.468748,0.916664 -1.328121,1.390622 -0.859373,0.468748 -1.854162,0.468748 -1.078123,0 -1.927079,-0.520832 -0.848956,-0.520832 -1.286455,-1.421871 -0.437499,-0.901039 -0.437499,-1.906245 z m 1.041664,0.01563 q 0,1.380205 0.739582,2.177078 0.744789,0.791664 1.864578,0.791664 1.140622,0 1.874996,-0.802081 0.739581,-0.802081 0.739581,-2.276036 0,-0.932289 -0.317707,-1.624996 -0.3125,-0.697915 -0.921873,-1.078122 -0.604165,-0.385416 -1.359372,-0.385416 -1.072914,0 -1.848954,0.739581 -0.770831,0.734374 -0.770831,2.458328 z"
       style="font-size:10.66664028px;font-family:Arial;fill:#000000;stroke-width:1.33333004"
       id="path1110"
       inkscape:connector-curvature="0" />
    <path
       d="m 87.825849,98.363029 v -6.734358 h -2.515618 v -0.901039 h 6.052068 v 0.901039 h -2.526035 v 6.734358 z"
       style="font-size:10.66664028px;font-family:Arial;fill:#000000;stroke-width:1.33333004"
       id="path1112"
       inkscape:connector-curvature="0" />
    <path
       d="m 92.50813,98.363029 v -4.802071 h -0.828123 v -0.729165 h 0.828123 v -0.58854 q 0,-0.55729 0.09896,-0.828123 0.135416,-0.364582 0.473957,-0.58854 0.343749,-0.229166 0.958331,-0.229166 0.395833,0 0.874998,0.09375 l -0.140625,0.817707 q -0.291666,-0.05208 -0.552082,-0.05208 -0.427082,0 -0.604165,0.182291 -0.177083,0.182291 -0.177083,0.68229 v 0.510415 h 1.078123 v 0.729165 h -1.078123 v 4.802071 z"
       style="font-size:10.66664028px;font-family:Arial;fill:#000000;stroke-width:1.33333004"
       id="path1114"
       inkscape:connector-curvature="0" />
  </g>
  <path
     style="fill:#000000;fill-rule:evenodd;stroke:#000000;stroke-width:0;stroke-linejoin:miter;shape-rendering:geometricPrecision"
     inkscape:connector-curvature="0"
     id="path245"
     d="m 81.248581,109.30967 v 0 l -0.346666,0.2 -0.333332,-0.2 v -9.01331 h 0.333332 0.346666 z" />
  <g
     aria-label="R2"
     style="font-size:15.99995995px;text-anchor:start;stroke-width:1.33333004;text-rendering:geometricPrecision"
     id="text253">
    <path
       d="m 104.4604,113.70966 v -7.63539 h 3.3854 q 1.02084,0 1.55208,0.20833 0.53125,0.20312 0.84896,0.72395 0.31771,0.52084 0.31771,1.15104 0,0.8125 -0.52604,1.36979 -0.52604,0.55729 -1.625,0.70833 0.40104,0.19271 0.60937,0.38021 0.44271,0.40625 0.83854,1.01562 l 1.32813,2.07812 h -1.27083 l -1.01042,-1.58853 q -0.44271,-0.6875 -0.72916,-1.05209 -0.28646,-0.36458 -0.51563,-0.51041 -0.22395,-0.14583 -0.45833,-0.20312 -0.17187,-0.0365 -0.5625,-0.0365 h -1.17187 v 3.39061 z m 1.01041,-4.26561 h 2.17187 q 0.69271,0 1.08333,-0.14063 0.39062,-0.14583 0.59375,-0.45833 0.20312,-0.31771 0.20312,-0.6875 0,-0.54166 -0.39583,-0.89062 -0.39062,-0.34896 -1.23958,-0.34896 h -2.41666 z"
       style="font-size:10.66664028px;font-family:Arial;fill:#009d73;stroke-width:1.33333004"
       id="path1105"
       inkscape:connector-curvature="0" />
    <path
       d="m 115.3575,108.68723 v 0.67578 h -3.78514 q -0.008,-0.25391 0.082,-0.48828 0.14453,-0.38672 0.46094,-0.76172 0.32031,-0.375 0.92187,-0.86718 0.93359,-0.76563 1.26171,-1.21094 0.32813,-0.44922 0.32813,-0.84765 0,-0.41797 -0.30078,-0.70313 -0.29688,-0.28906 -0.77734,-0.28906 -0.50782,0 -0.8125,0.30469 -0.30469,0.30469 -0.3086,0.84375 l -0.72265,-0.0742 q 0.0742,-0.80859 0.55859,-1.23047 0.48438,-0.42578 1.30078,-0.42578 0.82422,0 1.30468,0.45703 0.48047,0.45703 0.48047,1.13281 0,0.34375 -0.14062,0.67578 -0.14063,0.33203 -0.46875,0.69922 -0.32422,0.36718 -1.08203,1.00781 -0.63281,0.53125 -0.8125,0.72265 -0.17968,0.1875 -0.29687,0.37891 z"
       style="font-size:7.99997997px;font-family:Arial;fill:#009d73;stroke-width:1.33333004"
       id="path1107"
       inkscape:connector-curvature="0" />
  </g>
  <path
     style="fill:#009d73;fill-rule:evenodd;stroke:#009d73;stroke-width:0;stroke-linejoin:miter;shape-rendering:geometricPrecision"
     inkscape:connector-curvature="0"
     id="path257"
     d="m 98.915203,114.85632 v 0 l -0.159999,-0.29333 -0.173333,-0.29333 4.333319,-2.50666 0.16,0.29333 0.17334,0.29333 z" />
  <path
     style="fill:none;stroke:#009d73;stroke-width:0.54399866"
     d="m 99.377423,107.283 a 3.5555468,3.5555468 0 0 1 -3.555546,3.55554 3.5555468,3.5555468 0 0 1 -3.555547,-3.55554 3.5555468,3.5555468 0 0 1 3.555547,-3.55555 3.5555468,3.5555468 0 0 1 3.555546,3.55555 z"
     id="circle261" />
  <path
     style="stroke:#009d73;stroke-width:0.54399866;shape-rendering:auto"
     d="m 93.701881,107.283 h 4.239991"
     id="line263" />
  <path
     style="stroke:#009d73;stroke-width:0.54399866;shape-rendering:auto"
     d="M 95.821877,105.16302 V 109.403"
     id="line265" />
  <path
     style="stroke:#000000;stroke-width:0.67999828;shape-rendering:auto"
     d="M 40.42202,186.4828 H 9.4887619"
     id="line268" />
  <path
     style="fill:#000000;fill-rule:evenodd;stroke:#000000;stroke-width:0;stroke-linejoin:miter;stroke-miterlimit:5.89496231;shape-rendering:geometricPrecision"
     inkscape:connector-curvature="0"
     id="path270"
     stroke-miterlimit="5.89496254687647"
     d="m 45.035338,186.4828 -6.799983,-1.70666 c 1.439996,0.95999 1.439996,2.45332 0,3.41332 z" />
  <g
     aria-label="Tf2O"
     style="font-size:15.99995995px;text-anchor:start;stroke-width:1.33333004;text-rendering:geometricPrecision"
     id="text280">
    <path
       d="m 16.694366,181.96281 v -6.73435 h -2.515618 v -0.90104 h 6.052068 v 0.90104 H 17.70478 v 6.73435 z"
       style="font-size:10.66664028px;font-family:Arial;fill:#000000;stroke-width:1.33333004"
       id="path1092"
       inkscape:connector-curvature="0" />
    <path
       d="m 21.376646,181.96281 v -4.80207 h -0.828123 v -0.72916 h 0.828123 v -0.58854 q 0,-0.55729 0.09896,-0.82813 0.135416,-0.36458 0.473957,-0.58854 0.343749,-0.22916 0.958331,-0.22916 0.395832,0 0.874997,0.0937 l -0.140624,0.8177 q -0.291666,-0.0521 -0.552082,-0.0521 -0.427082,0 -0.604165,0.18229 -0.177083,0.18229 -0.177083,0.68229 v 0.51042 h 1.078122 v 0.72916 h -1.078122 v 4.80207 z"
       style="font-size:10.66664028px;font-family:Arial;fill:#000000;stroke-width:1.33333004"
       id="path1094"
       inkscape:connector-curvature="0" />
    <path
       d="m 27.435225,183.70036 v 0.67578 h -3.785147 q -0.0078,-0.2539 0.08203,-0.48828 0.144531,-0.38672 0.460937,-0.76172 0.320311,-0.37499 0.921872,-0.86718 0.933592,-0.76562 1.261716,-1.21094 0.328124,-0.44921 0.328124,-0.84765 0,-0.41797 -0.30078,-0.70312 -0.296875,-0.28906 -0.777342,-0.28906 -0.507812,0 -0.812498,0.30468 -0.304687,0.30469 -0.308593,0.84375 l -0.722655,-0.0742 q 0.07422,-0.80859 0.558593,-1.23046 0.484373,-0.42578 1.300778,-0.42578 0.824216,0 1.304684,0.45703 0.480467,0.45703 0.480467,1.13281 0,0.34374 -0.140624,0.67578 -0.140625,0.33203 -0.468749,0.69921 -0.324218,0.36719 -1.082029,1.00781 -0.63281,0.53125 -0.812498,0.72266 -0.179687,0.1875 -0.296874,0.3789 z"
       style="font-size:7.99997997px;font-family:Arial;fill:#000000;stroke-width:1.33333004"
       id="path1096"
       inkscape:connector-curvature="0" />
    <path
       d="m 28.37663,178.24407 q 0,-1.90103 1.02083,-2.97395 1.020831,-1.07812 2.63541,-1.07812 1.05729,0 1.906246,0.50521 0.848956,0.5052 1.291663,1.41145 0.447916,0.90104 0.447916,2.04687 0,1.16146 -0.468749,2.07812 -0.468749,0.91667 -1.328122,1.39062 -0.859373,0.46875 -1.854162,0.46875 -1.078122,0 -1.927078,-0.52083 -0.848957,-0.52083 -1.286456,-1.42187 -0.437498,-0.90104 -0.437498,-1.90625 z m 1.041664,0.0156 q 0,1.3802 0.739581,2.17708 0.74479,0.79166 1.864579,0.79166 1.140622,0 1.874995,-0.80208 0.739582,-0.80208 0.739582,-2.27604 0,-0.93229 -0.317708,-1.62499 -0.312499,-0.69792 -0.921873,-1.07812 -0.604165,-0.38542 -1.359371,-0.38542 -1.072914,0 -1.848954,0.73958 -0.770831,0.73437 -0.770831,2.45833 z"
       style="font-size:10.66664028px;font-family:Arial;fill:#000000;stroke-width:1.33333004"
       id="path1098"
       inkscape:connector-curvature="0" />
  </g>
  <g
     aria-label="R1"
     style="font-size:15.99995995px;text-anchor:end;stroke-width:1.33333004;text-rendering:geometricPrecision"
     id="text288">
    <path
       d="m -49.474012,195.38945 v -7.6354 h 3.385409 q 1.020831,0 1.552079,0.20834 0.531249,0.20312 0.848956,0.72395 0.317708,0.52083 0.317708,1.15104 0,0.8125 -0.52604,1.36979 -0.526041,0.55729 -1.624996,0.70833 0.40104,0.19271 0.609373,0.38021 0.442707,0.40625 0.83854,1.01562 l 1.328121,2.07812 h -1.27083 l -1.010414,-1.58854 q -0.442707,-0.6875 -0.729165,-1.05208 -0.286457,-0.36458 -0.515623,-0.51041 -0.223958,-0.14584 -0.458333,-0.20313 -0.171874,-0.0365 -0.562498,-0.0365 h -1.171872 v 3.39062 z m 1.010415,-4.26561 h 2.171869 q 0.692707,0 1.083331,-0.14063 0.390624,-0.14583 0.593748,-0.45833 0.203125,-0.31771 0.203125,-0.6875 0,-0.54166 -0.395832,-0.89062 -0.390624,-0.34896 -1.239581,-0.34896 h -2.41666 z"
       style="font-size:10.66664028px;font-family:Arial;fill:#009d73;stroke-width:1.33333004"
       id="path1087"
       inkscape:connector-curvature="0" />
    <path
       d="m -39.623775,191.04279 h -0.703124 v -4.48045 q -0.253905,0.24218 -0.667967,0.48437 -0.410155,0.24219 -0.738279,0.36328 v -0.67968 q 0.589842,-0.27735 1.031247,-0.67188 0.441405,-0.39453 0.624999,-0.76562 h 0.453124 z"
       style="font-size:7.99997997px;font-family:Arial;fill:#009d73;stroke-width:1.33333004"
       id="path1089"
       inkscape:connector-curvature="0" />
  </g>
  <path
     style="fill:#009d73;fill-rule:evenodd;stroke:#009d73;stroke-width:0;stroke-linejoin:miter;shape-rendering:geometricPrecision"
     inkscape:connector-curvature="0"
     id="path292"
     d="m -37.884455,186.61613 v 0 l -0.159999,-0.29333 -0.173333,-0.30667 5.026654,-2.89332 v 0.38666 0.38667 z" />
  <path
     style="fill:#009d73;fill-rule:evenodd;stroke:#009d73;stroke-width:0;stroke-linejoin:miter;shape-rendering:geometricPrecision"
     inkscape:connector-curvature="0"
     id="path296"
     d="m -33.191133,183.89614 v 0 -0.38667 -0.38666 l 8.973311,5.18665 -0.173333,0.29333 -0.16,0.29334 z" />
  <g
     aria-label="N"
     style="font-size:15.99995995px;text-anchor:start;stroke-width:1.33333004;text-rendering:geometricPrecision"
     id="text302">
    <path
       d="m -22.965325,195.38945 v -7.6354 h 1.036456 l 4.010407,5.99478 v -5.99478 h 0.968748 v 7.6354 h -1.036456 l -4.010407,-5.99999 v 5.99999 z"
       style="font-size:10.66664028px;font-family:Arial;fill:#009d73;stroke-width:1.33333004"
       id="path1084"
       inkscape:connector-curvature="0" />
  </g>
  <path
     style="stroke:#000000;stroke-width:0.67999828;shape-rendering:auto"
     d="m -34.577797,183.50948 v -9.21332"
     id="line306" />
  <path
     style="fill:#000000;fill-rule:evenodd;stroke:#000000;stroke-width:0;stroke-linejoin:miter;shape-rendering:geometricPrecision"
     inkscape:connector-curvature="0"
     id="path308"
     d="m -32.151136,183.72281 v 0 l 0.679999,0.38666 v -9.81331 h -0.679999 z" />
  <path
     style="fill:#000000;fill-rule:evenodd;stroke:#000000;stroke-width:0;stroke-linejoin:miter;shape-rendering:geometricPrecision"
     inkscape:connector-curvature="0"
     id="path310"
     d="m -34.911129,184.10947 v 0 l 0.679999,-0.38666 v -9.42665 h -0.679999 z" />
  <g
     aria-label="O"
     style="font-size:15.99995995px;text-anchor:start;stroke-width:1.33333004;text-rendering:geometricPrecision"
     id="text316">
    <path
       d="m -36.808832,168.6441 q 0,-1.90104 1.020831,-2.97395 1.020831,-1.07813 2.63541,-1.07813 1.057289,0 1.906246,0.50521 0.848956,0.50521 1.291663,1.41146 0.447916,0.90104 0.447916,2.04687 0,1.16145 -0.468749,2.07812 -0.468749,0.91666 -1.328122,1.39062 -0.859373,0.46875 -1.854162,0.46875 -1.078122,0 -1.927078,-0.52084 -0.848957,-0.52083 -1.286456,-1.42187 -0.437499,-0.90104 -0.437499,-1.90624 z m 1.041665,0.0156 q 0,1.38021 0.739581,2.17708 0.74479,0.79167 1.864579,0.79167 1.140622,0 1.874995,-0.80209 0.739582,-0.80208 0.739582,-2.27603 0,-0.93229 -0.317708,-1.625 -0.312499,-0.69791 -0.921873,-1.07812 -0.604165,-0.38542 -1.359371,-0.38542 -1.072914,0 -1.848954,0.73959 -0.770831,0.73437 -0.770831,2.45832 z"
       style="font-size:10.66664028px;font-family:Arial;fill:#000000;stroke-width:1.33333004"
       id="path1080"
       inkscape:connector-curvature="0" />
  </g>
  <path
     style="fill:#009d73;fill-rule:evenodd;stroke:#009d73;stroke-width:0;stroke-linejoin:miter;shape-rendering:geometricPrecision"
     inkscape:connector-curvature="0"
     id="path320"
     d="m -15.217845,188.86946 v 0 l -0.159999,-0.29333 -0.173333,-0.29334 4.333322,-2.50666 0.16,0.29334 0.173333,0.29333 z" />
  <g
     aria-label="R2"
     style="font-size:15.99995995px;text-anchor:start;stroke-width:1.33333004;text-rendering:geometricPrecision"
     id="text328">
    <path
       d="m -9.6459842,187.70946 v -7.6354 h 3.3854083 q 1.0208308,0 1.5520795,0.20833 0.5312487,0.20313 0.8489562,0.72396 0.3177076,0.52083 0.3177076,1.15104 0,0.8125 -0.5260404,1.36979 -0.5260403,0.55729 -1.624996,0.70833 0.4010407,0.19271 0.6093735,0.38021 0.4427073,0.40624 0.8385396,1.01562 l 1.3281217,2.07812 h -1.2708301 l -1.0104142,-1.58854 q -0.4427073,-0.6875 -0.7291649,-1.05208 -0.2864576,-0.36458 -0.5156237,-0.51042 -0.2239578,-0.14583 -0.4583322,-0.20312 -0.1718746,-0.0365 -0.5624986,-0.0365 H -8.63557 v 3.39062 z m 1.0104142,-4.26562 h 2.1718696 q 0.6927066,0 1.0833307,-0.14062 0.390624,-0.14583 0.5937485,-0.45833 0.2031245,-0.31771 0.2031245,-0.6875 0,-0.54167 -0.3958324,-0.89062 -0.390624,-0.34896 -1.2395802,-0.34896 H -8.63557 Z"
       style="font-size:10.66664028px;font-family:Arial;fill:#009d73;stroke-width:1.33333004"
       id="path1075"
       inkscape:connector-curvature="0" />
    <path
       d="m 1.2511243,182.68702 v 0.67578 h -3.7851468 q -0.00781,-0.2539 0.082031,-0.48828 0.1445309,-0.38672 0.4609363,-0.76172 0.3203117,-0.37499 0.9218727,-0.86718 0.93359144,-0.76562 1.26171561,-1.21094 0.32812418,-0.44921 0.32812418,-0.84765 0,-0.41797 -0.30078049,-0.70312 -0.29687426,-0.28906 -0.77734181,-0.28906 -0.50781119,0 -0.81249799,0.30468 -0.3046867,0.30469 -0.308593,0.84375 l -0.7226544,-0.0742 q 0.074219,-0.80859 0.5585924,-1.23046 0.4843737,-0.42578 1.30077795,-0.42578 0.82421669,0 1.30468424,0.45703 0.48046751,0.45703 0.48046751,1.13281 0,0.34374 -0.1406246,0.67578 -0.14062466,0.33203 -0.46874884,0.69921 -0.32421794,0.36719 -1.08202854,1.00781 -0.63281092,0.53125 -0.81249792,0.72266 -0.1796871,0.1875 -0.2968743,0.3789 z"
       style="font-size:7.99997997px;font-family:Arial;fill:#009d73;stroke-width:1.33333004"
       id="path1077"
       inkscape:connector-curvature="0" />
  </g>
  <path
     style="stroke:#000000;stroke-width:0.67999828;shape-rendering:auto"
     d="M 284.44809,186.4828 H 134.06178"
     id="line332" />
  <path
     style="fill:#000000;fill-rule:evenodd;stroke:#000000;stroke-width:0;stroke-linejoin:miter;stroke-miterlimit:5.89496231;shape-rendering:geometricPrecision"
     inkscape:connector-curvature="0"
     id="path334"
     stroke-miterlimit="5.89496254687632"
     d="m 289.06139,186.4828 -6.79998,-1.70666 c 1.44,0.95999 1.44,2.45332 0,3.41332 z" />
  <g
     aria-label="HEH"
     style="font-size:15.99995995px;text-anchor:start;stroke-width:1.33333004;text-rendering:geometricPrecision"
     id="text340">
    <path
       d="m 196.76913,181.46948 v -7.6354 h 1.01041 v 3.13541 h 3.96874 v -3.13541 h 1.01042 v 7.6354 h -1.01042 v -3.59895 h -3.96874 v 3.59895 z"
       style="font-size:10.66664028px;font-family:Arial;fill:#cc78a6;stroke-width:1.33333004"
       id="path1067"
       inkscape:connector-curvature="0" />
    <path
       d="m 204.46703,181.46948 v -7.6354 h 5.52081 v 0.90104 h -4.5104 v 2.33854 h 4.22395 v 0.89583 h -4.22395 v 2.59895 h 4.68749 v 0.90104 z"
       style="font-size:10.66664028px;font-family:Arial;fill:#cc78a6;stroke-width:1.33333004"
       id="path1069"
       inkscape:connector-curvature="0" />
    <path
       d="m 211.60242,181.46948 v -7.6354 h 1.01042 v 3.13541 h 3.96874 v -3.13541 h 1.01041 v 7.6354 h -1.01041 v -3.59895 h -3.96874 v 3.59895 z"
       style="font-size:10.66664028px;font-family:Arial;fill:#cc78a6;stroke-width:1.33333004"
       id="path1071"
       inkscape:connector-curvature="0" />
  </g>
  <g
     aria-label="R3"
     style="font-size:15.99995995px;text-anchor:start;stroke-width:1.33333004;text-rendering:geometricPrecision"
     id="text348">
    <path
       d="m -22.939283,210.73607 v -7.6354 h 3.385408 q 1.020831,0 1.55208,0.20833 0.531249,0.20313 0.848956,0.72396 0.317708,0.52083 0.317708,1.15104 0,0.8125 -0.526041,1.36979 -0.52604,0.55729 -1.624996,0.70833 0.401041,0.19271 0.609374,0.38021 0.442707,0.40625 0.838539,1.01562 l 1.328122,2.07812 h -1.27083 l -1.010414,-1.58854 q -0.442707,-0.6875 -0.729165,-1.05208 -0.286458,-0.36458 -0.515624,-0.51042 -0.223958,-0.14583 -0.458332,-0.20312 -0.171875,-0.0365 -0.562499,-0.0365 h -1.171872 v 3.39062 z m 1.010414,-4.26562 h 2.17187 q 0.692707,0 1.083331,-0.14062 0.390624,-0.14583 0.593748,-0.45833 0.203125,-0.31771 0.203125,-0.6875 0,-0.54167 -0.395833,-0.89062 -0.390624,-0.34896 -1.23958,-0.34896 h -2.416661 z"
       style="font-size:10.66664028px;font-family:Arial;fill:#009d73;stroke-width:1.33333004"
       id="path1062"
       inkscape:connector-curvature="0" />
    <path
       d="m -15.733571,204.8777 0.703123,-0.0937 q 0.121093,0.59765 0.410155,0.86328 0.292968,0.26172 0.710936,0.26172 0.496092,0 0.835935,-0.34375 0.343749,-0.34375 0.343749,-0.85156 0,-0.48438 -0.316405,-0.79688 -0.316406,-0.3164 -0.804686,-0.3164 -0.199218,0 -0.496092,0.0781 l 0.07813,-0.61718 q 0.07031,0.008 0.113281,0.008 0.449217,0 0.808591,-0.23438 0.359374,-0.23437 0.359374,-0.72265 0,-0.38672 -0.261718,-0.64062 -0.261718,-0.25391 -0.675779,-0.25391 -0.410155,0 -0.683592,0.25781 -0.273437,0.25781 -0.351562,0.77344 l -0.703123,-0.125 q 0.128906,-0.70703 0.585936,-1.09375 0.45703,-0.39062 1.136716,-0.39062 0.468749,0 0.863279,0.20312 0.39453,0.19922 0.601561,0.54688 0.210937,0.34765 0.210937,0.73827 0,0.3711 -0.199218,0.67578 -0.199219,0.30469 -0.589843,0.48438 0.507812,0.11719 0.789061,0.48828 0.281249,0.36718 0.281249,0.92187 0,0.75 -0.546873,1.27344 -0.546874,0.51953 -1.382809,0.51953 -0.753905,0 -1.253904,-0.44922 -0.496092,-0.44922 -0.566404,-1.16406 z"
       style="font-size:7.99997997px;font-family:Arial;fill:#009d73;stroke-width:1.33333004"
       id="path1064"
       inkscape:connector-curvature="0" />
  </g>
  <path
     style="fill:#009d73;fill-rule:evenodd;stroke:#009d73;stroke-width:0;stroke-linejoin:miter;shape-rendering:geometricPrecision"
     inkscape:connector-curvature="0"
     id="path352"
     d="m -20.244499,194.69611 v 0 h 0.333333 0.346666 v 6.79998 h -0.346666 -0.333333 z" />
  <g
     id="g2060"
     transform="translate(0,1.6799774)">
    <path
       d="m 316.75466,181.72282 v 0 l 0.46666,0.12 v 0.38667 l -4.70665,2.71999 -0.16,-0.29333 -0.17333,-0.29334 z"
       id="path356"
       inkscape:connector-curvature="0"
       style="fill:#009d73;fill-rule:evenodd;stroke:#009d73;stroke-width:0;stroke-linejoin:miter;shape-rendering:geometricPrecision" />
    <path
       d="m 317.22132,181.16282 v 0 0.68 l -0.46666,-0.12 -4.17332,-7.22665 0.29333,-0.16 0.30666,-0.17333 z"
       id="path360"
       inkscape:connector-curvature="0"
       style="fill:#cc78a6;fill-rule:evenodd;stroke:#cc78a6;stroke-width:0;stroke-linejoin:miter;shape-rendering:geometricPrecision" />
    <g
       aria-label="R1"
       style="font-size:15.99995995px;text-anchor:end;stroke-width:1.33333004;text-rendering:geometricPrecision"
       id="text368">
      <path
         d="m 300.93843,193.70946 v -7.6354 h 3.38541 q 1.02083,0 1.55208,0.20833 0.53125,0.20313 0.84896,0.72396 0.31771,0.52083 0.31771,1.15104 0,0.8125 -0.52605,1.36979 -0.52604,0.55729 -1.62499,0.70833 0.40104,0.19271 0.60937,0.38021 0.44271,0.40624 0.83854,1.01562 l 1.32812,2.07812 h -1.27083 l -1.01041,-1.58854 q -0.44271,-0.6875 -0.72917,-1.05208 -0.28645,-0.36458 -0.51562,-0.51042 -0.22396,-0.14583 -0.45833,-0.20312 -0.17188,-0.0365 -0.5625,-0.0365 h -1.17187 v 3.39062 z m 1.01042,-4.26562 h 2.17187 q 0.6927,0 1.08333,-0.14062 0.39062,-0.14583 0.59375,-0.45833 0.20312,-0.31771 0.20312,-0.6875 0,-0.54167 -0.39583,-0.89062 -0.39063,-0.34896 -1.23958,-0.34896 h -2.41666 z"
         style="font-size:10.66664028px;font-family:Arial;fill:#009d73;stroke-width:1.33333004"
         id="path1038"
         inkscape:connector-curvature="0" />
      <path
         d="m 310.78867,189.3628 h -0.70312 v -4.48046 q -0.25391,0.24219 -0.66797,0.48438 -0.41016,0.24218 -0.73828,0.36328 v -0.67969 q 0.58984,-0.27734 1.03125,-0.67187 0.4414,-0.39453 0.625,-0.76562 h 0.45312 z"
         style="font-size:7.99997997px;font-family:Arial;fill:#009d73;stroke-width:1.33333004"
         id="path1040"
         inkscape:connector-curvature="0" />
    </g>
    <g
       aria-label="H"
       style="font-size:15.99995995px;text-anchor:start;stroke-width:1.33333004;text-rendering:geometricPrecision"
       id="text374">
      <path
         d="m 306.52885,172.74951 v -7.6354 h 1.01041 v 3.13541 h 3.96874 v -3.13541 h 1.01042 v 7.6354 H 311.508 v -3.59895 h -3.96874 v 3.59895 z"
         style="font-size:10.66664028px;font-family:Arial;fill:#cc78a6;stroke-width:1.33333004"
         id="path1043"
         inkscape:connector-curvature="0" />
    </g>
    <path
       d="m 335.18128,187.20281 v 0 l -0.16,-0.29334 -0.17333,-0.29333 4.33332,-2.50666 0.16,0.30667 0.17333,0.29333 z"
       id="path378"
       inkscape:connector-curvature="0"
       style="fill:#009d73;fill-rule:evenodd;stroke:#009d73;stroke-width:0;stroke-linejoin:miter;shape-rendering:geometricPrecision" />
    <g
       aria-label="R2"
       style="font-size:15.99995995px;text-anchor:start;stroke-width:1.33333004;text-rendering:geometricPrecision"
       id="text386">
      <path
         d="m 340.76646,186.0428 v -7.6354 h 3.38541 q 1.02083,0 1.55207,0.20834 0.53125,0.20312 0.84896,0.72395 0.31771,0.52083 0.31771,1.15104 0,0.8125 -0.52604,1.36979 -0.52604,0.55729 -1.625,0.70833 0.40104,0.19271 0.60938,0.38021 0.4427,0.40625 0.83854,1.01562 l 1.32812,2.07812 h -1.27083 l -1.01042,-1.58854 q -0.4427,-0.6875 -0.72916,-1.05208 -0.28646,-0.36458 -0.51563,-0.51041 -0.22395,-0.14584 -0.45833,-0.20313 -0.17187,-0.0365 -0.5625,-0.0365 h -1.17187 v 3.39062 z m 1.01041,-4.26561 h 2.17187 q 0.69271,0 1.08333,-0.14063 0.39063,-0.14583 0.59375,-0.45833 0.20312,-0.31771 0.20312,-0.6875 0,-0.54166 -0.39583,-0.89062 -0.39062,-0.34896 -1.23958,-0.34896 h -2.41666 z"
         style="font-size:10.66664028px;font-family:Arial;fill:#009d73;stroke-width:1.33333004"
         id="path1046"
         inkscape:connector-curvature="0" />
      <path
         d="m 351.66357,181.02037 v 0.67578 h -3.78515 q -0.008,-0.25391 0.082,-0.48828 0.14453,-0.38672 0.46094,-0.76172 0.32031,-0.375 0.92187,-0.86719 0.93359,-0.76562 1.26171,-1.21093 0.32813,-0.44922 0.32813,-0.84766 0,-0.41796 -0.30078,-0.70312 -0.29688,-0.28906 -0.77734,-0.28906 -0.50781,0 -0.8125,0.30469 -0.30469,0.30468 -0.30859,0.84374 l -0.72266,-0.0742 q 0.0742,-0.8086 0.55859,-1.23047 0.48438,-0.42578 1.30078,-0.42578 0.82422,0 1.30469,0.45703 0.48046,0.45703 0.48046,1.13281 0,0.34375 -0.14062,0.67578 -0.14063,0.33203 -0.46875,0.69922 -0.32422,0.36718 -1.08203,1.00781 -0.63281,0.53124 -0.8125,0.72265 -0.17968,0.1875 -0.29687,0.37891 z"
         style="font-size:7.99997997px;font-family:Arial;fill:#009d73;stroke-width:1.33333004"
         id="path1048"
         inkscape:connector-curvature="0" />
    </g>
    <path
       d="m 326.1813,186.61614 v 0 l -0.17333,0.29333 -0.16,0.29334 -8.62665,-4.97332 v -0.38667 l 0.46667,-0.12 z"
       id="path390"
       inkscape:connector-curvature="0"
       style="fill:#009d73;fill-rule:evenodd;stroke:#009d73;stroke-width:0;stroke-linejoin:miter;shape-rendering:geometricPrecision" />
    <g
       aria-label="N"
       style="font-size:15.99995995px;text-anchor:start;stroke-width:1.33333004;text-rendering:geometricPrecision"
       id="text396">
      <path
         d="m 327.46048,193.70946 v -7.6354 h 1.03645 l 4.01041,5.99478 v -5.99478 h 0.96875 v 7.6354 h -1.03646 l -4.0104,-5.99999 v 5.99999 z"
         style="font-size:10.66664028px;font-family:Arial;fill:#009d73;stroke-width:1.33333004"
         id="path1051"
         inkscape:connector-curvature="0" />
    </g>
    <g
       aria-label="R3"
       style="font-size:15.99995995px;text-anchor:start;stroke-width:1.33333004;text-rendering:geometricPrecision"
       id="text404">
      <path
         d="m 327.48652,209.05609 v -7.6354 h 3.38541 q 1.02083,0 1.55208,0.20834 0.53125,0.20312 0.84895,0.72395 0.31771,0.52083 0.31771,1.15104 0,0.8125 -0.52604,1.36979 -0.52604,0.55729 -1.625,0.70833 0.40105,0.19271 0.60938,0.38021 0.44271,0.40625 0.83854,1.01562 l 1.32812,2.07812 h -1.27083 l -1.01042,-1.58854 q -0.4427,-0.68749 -0.72916,-1.05208 -0.28646,-0.36458 -0.51562,-0.51041 -0.22396,-0.14584 -0.45834,-0.20313 -0.17187,-0.0365 -0.56249,-0.0365 h -1.17188 v 3.39062 z m 1.01041,-4.26561 h 2.17187 q 0.69271,0 1.08333,-0.14063 0.39063,-0.14583 0.59375,-0.45833 0.20313,-0.31771 0.20313,-0.6875 0,-0.54166 -0.39584,-0.89062 -0.39062,-0.34896 -1.23958,-0.34896 h -2.41666 z"
         style="font-size:10.66664028px;font-family:Arial;fill:#009d73;stroke-width:1.33333004"
         id="path1054"
         inkscape:connector-curvature="0" />
      <path
         d="m 334.69223,203.19772 0.70312,-0.0937 q 0.1211,0.59766 0.41016,0.86328 0.29297,0.26172 0.71093,0.26172 0.4961,0 0.83594,-0.34375 0.34375,-0.34375 0.34375,-0.85156 0,-0.48438 -0.31641,-0.79687 -0.3164,-0.31641 -0.80468,-0.31641 -0.19922,0 -0.49609,0.0781 l 0.0781,-0.61718 q 0.0703,0.008 0.11328,0.008 0.44922,0 0.80859,-0.23437 0.35938,-0.23438 0.35938,-0.72266 0,-0.38672 -0.26172,-0.64062 -0.26172,-0.25391 -0.67578,-0.25391 -0.41016,0 -0.68359,0.25782 -0.27344,0.25781 -0.35156,0.77343 l -0.70313,-0.125 q 0.12891,-0.70703 0.58594,-1.09375 0.45703,-0.39062 1.13672,-0.39062 0.46874,0 0.86327,0.20312 0.39453,0.19922 0.60157,0.54688 0.21093,0.34765 0.21093,0.73828 0,0.37109 -0.19922,0.67578 -0.19921,0.30468 -0.58984,0.48437 0.50781,0.11719 0.78906,0.48828 0.28125,0.36719 0.28125,0.92187 0,0.75 -0.54687,1.27344 -0.54688,0.51953 -1.38281,0.51953 -0.75391,0 -1.2539,-0.44922 -0.4961,-0.44922 -0.56641,-1.16406 z"
         style="font-size:7.99997997px;font-family:Arial;fill:#009d73;stroke-width:1.33333004"
         id="path1056"
         inkscape:connector-curvature="0" />
    </g>
    <path
       d="m 330.18129,193.09613 v 0 h 0.33333 0.34667 v 6.66665 h -0.34667 -0.33333 z"
       id="path408"
       inkscape:connector-curvature="0"
       style="fill:#009d73;fill-rule:evenodd;stroke:#009d73;stroke-width:0;stroke-linejoin:miter;shape-rendering:geometricPrecision" />
    <g
       aria-label="H"
       style="font-size:15.99995995px;text-anchor:start;stroke-width:1.33333004;text-rendering:geometricPrecision"
       id="text414">
      <path
         d="m 321.87547,172.74951 v -7.6354 h 1.01041 v 3.13541 h 3.96874 v -3.13541 h 1.01041 v 7.6354 h -1.01041 v -3.59895 h -3.96874 v 3.59895 z"
         style="font-size:10.66664028px;font-family:Arial;fill:#cc78a6;stroke-width:1.33333004"
         id="path1059"
         inkscape:connector-curvature="0" />
    </g>
    <path
       d="m 317.68799,181.72282 v 0 l -0.46667,0.12 v -0.68 l 4.03999,-6.99998 0.29334,0.17333 0.29333,0.16 z"
       id="path418"
       inkscape:connector-curvature="0"
       style="fill:#cc78a6;fill-rule:evenodd;stroke:#cc78a6;stroke-width:0;stroke-linejoin:miter;shape-rendering:geometricPrecision" />
  </g>
  <g
     aria-label="OTf"
     style="font-size:15.99995995px;text-anchor:start;stroke-width:1.33333004;text-rendering:geometricPrecision"
     id="text424">
    <path
       d="m 68.257575,211.81732 q 0,-1.90104 1.020831,-2.97396 1.02083,-1.07812 2.63541,-1.07812 1.057289,0 1.906245,0.50521 0.848956,0.50521 1.291663,1.41145 0.447916,0.90104 0.447916,2.04687 0,1.16146 -0.468749,2.07812 -0.468749,0.91667 -1.328122,1.39063 -0.859372,0.46874 -1.854162,0.46874 -1.078122,0 -1.927078,-0.52083 -0.848956,-0.52083 -1.286455,-1.42187 -0.437499,-0.90104 -0.437499,-1.90624 z m 1.041664,0.0156 q 0,1.38021 0.739581,2.17708 0.74479,0.79166 1.864579,0.79166 1.140622,0 1.874995,-0.80208 0.739582,-0.80208 0.739582,-2.27603 0,-0.93229 -0.317708,-1.625 -0.312499,-0.69791 -0.921872,-1.07812 -0.604166,-0.38542 -1.359372,-0.38542 -1.072914,0 -1.848954,0.73958 -0.770831,0.73438 -0.770831,2.45833 z"
       style="font-size:10.66664028px;font-family:Arial;fill:#000000;stroke-width:1.33333004"
       id="path1031"
       inkscape:connector-curvature="0" />
    <path
       d="m 78.799215,215.53606 v -6.73436 h -2.515619 v -0.90104 h 6.052069 v 0.90104 h -2.526036 v 6.73436 z"
       style="font-size:10.66664028px;font-family:Arial;fill:#000000;stroke-width:1.33333004"
       id="path1033"
       inkscape:connector-curvature="0" />
    <path
       d="m 83.481496,215.53606 v -4.80207 h -0.828123 v -0.72917 h 0.828123 v -0.58854 q 0,-0.55729 0.09896,-0.82812 0.135416,-0.36459 0.473957,-0.58854 0.343749,-0.22917 0.958331,-0.22917 0.395832,0 0.874998,0.0937 l -0.140625,0.81771 q -0.291666,-0.0521 -0.552082,-0.0521 -0.427082,0 -0.604165,0.18229 -0.177083,0.1823 -0.177083,0.68229 v 0.51042 h 1.078122 v 0.72917 h -1.078122 v 4.80207 z"
       style="font-size:10.66664028px;font-family:Arial;fill:#000000;stroke-width:1.33333004"
       id="path1035"
       inkscape:connector-curvature="0" />
  </g>
  <path
     style="fill:none;stroke:#000000;stroke-width:0.54399866"
     d="m 67.764165,203.84276 a 3.5555468,3.5555468 0 0 1 -3.555547,3.55554 3.5555468,3.5555468 0 0 1 -3.555547,-3.55554 3.5555468,3.5555468 0 0 1 3.555547,-3.55555 3.5555468,3.5555468 0 0 1 3.555547,3.55555 z"
     id="circle428" />
  <path
     style="stroke:#000000;stroke-width:0.54399866;shape-rendering:auto"
     d="m 62.088631,203.84276 h 4.23999"
     id="line430" />
  <path
     style="fill:none;fill-rule:evenodd;stroke:#000000;stroke-width:0.67999828;stroke-linejoin:miter;shape-rendering:geometricPrecision"
     inkscape:connector-curvature="0"
     id="path433"
     d="m 116.58183,160.8962 h 4.15999 v 50.50654 h -4.15999" />
  <path
     style="fill:none;fill-rule:evenodd;stroke:#000000;stroke-width:0.67999828;stroke-linejoin:miter;shape-rendering:geometricPrecision"
     inkscape:connector-curvature="0"
     id="path437"
     d="m 60.541966,211.40274 h -4.15999 V 160.8962 h 4.15999" />
  <g
     aria-label="R1"
     style="font-size:15.99995995px;text-anchor:end;stroke-width:1.33333004;text-rendering:geometricPrecision"
     id="text445">
    <path
       d="m 64.63238,195.38945 v -7.6354 h 3.385409 q 1.02083,0 1.552079,0.20834 0.531249,0.20312 0.848956,0.72395 0.317708,0.52083 0.317708,1.15104 0,0.8125 -0.52604,1.36979 -0.526041,0.55729 -1.624996,0.70833 0.40104,0.19271 0.609373,0.38021 0.442707,0.40625 0.83854,1.01562 l 1.328121,2.07812 H 70.0907 l -1.010414,-1.58854 q -0.442707,-0.6875 -0.729165,-1.05208 -0.286457,-0.36458 -0.515624,-0.51041 -0.223957,-0.14584 -0.458332,-0.20313 -0.171874,-0.0365 -0.562498,-0.0365 h -1.171872 v 3.39062 z m 1.010415,-4.26561 h 2.171869 q 0.692707,0 1.083331,-0.14063 0.390624,-0.14583 0.593748,-0.45833 0.203125,-0.31771 0.203125,-0.6875 0,-0.54166 -0.395833,-0.89062 -0.390624,-0.34896 -1.23958,-0.34896 h -2.41666 z"
       style="font-size:10.66664028px;font-family:Arial;fill:#009d73;stroke-width:1.33333004"
       id="path1024"
       inkscape:connector-curvature="0" />
    <path
       d="m 74.482616,191.04279 h -0.703123 v -4.48045 q -0.253905,0.24218 -0.667967,0.48437 -0.410155,0.24219 -0.738279,0.36328 v -0.67968 q 0.589842,-0.27735 1.031247,-0.67188 0.441405,-0.39453 0.624999,-0.76562 h 0.453123 z"
       style="font-size:7.99997997px;font-family:Arial;fill:#009d73;stroke-width:1.33333004"
       id="path1026"
       inkscape:connector-curvature="0" />
  </g>
  <path
     style="fill:#009d73;fill-rule:evenodd;stroke:#009d73;stroke-width:0;stroke-linejoin:miter;shape-rendering:geometricPrecision"
     inkscape:connector-curvature="0"
     id="path449"
     d="m 76.248593,186.58946 v 0 l -0.159999,-0.29333 -0.173333,-0.29333 4.653322,-2.69333 0.333332,0.2 v 0.38667 z" />
  <path
     style="fill:#009d73;fill-rule:evenodd;stroke:#009d73;stroke-width:0;stroke-linejoin:miter;shape-rendering:geometricPrecision"
     inkscape:connector-curvature="0"
     id="path453"
     d="m 80.901915,183.89614 v 0 -0.38667 l 0.346666,-0.2 8.666645,5.01332 -0.173333,0.29334 -0.16,0.29333 z" />
  <path
     style="stroke:#009d73;stroke-width:0.67999828;shape-rendering:auto"
     d="m 83.661911,181.90948 7.466644,4.31998"
     id="line455" />
  <g
     aria-label="N"
     style="font-size:15.99995995px;text-anchor:start;stroke-width:1.33333004;text-rendering:geometricPrecision"
     id="text461">
    <path
       d="m 91.141058,195.38945 v -7.6354 h 1.036456 l 4.010406,5.99478 v -5.99478 h 0.968748 v 7.6354 h -1.036456 l -4.010407,-5.99999 v 5.99999 z"
       style="font-size:10.66664028px;font-family:Arial;fill:#009d73;stroke-width:1.33333004"
       id="path1020"
       inkscape:connector-curvature="0" />
  </g>
  <g
     aria-label="OTf"
     style="font-size:15.99995995px;text-anchor:start;stroke-width:1.33333004;text-rendering:geometricPrecision"
     id="text467">
    <path
       d="m 77.284209,168.6441 q 0,-1.90104 1.020831,-2.97395 1.020831,-1.07813 2.63541,-1.07813 1.057289,0 1.906245,0.50521 0.848956,0.50521 1.291664,1.41146 0.447915,0.90104 0.447915,2.04687 0,1.16145 -0.468749,2.07812 -0.468748,0.91666 -1.328121,1.39062 -0.859373,0.46875 -1.854162,0.46875 -1.078123,0 -1.927079,-0.52084 -0.848956,-0.52083 -1.286455,-1.42187 -0.437499,-0.90104 -0.437499,-1.90624 z m 1.041664,0.0156 q 0,1.38021 0.739582,2.17708 0.744789,0.79167 1.864578,0.79167 1.140622,0 1.874996,-0.80209 0.739581,-0.80208 0.739581,-2.27603 0,-0.93229 -0.317707,-1.625 -0.3125,-0.69791 -0.921873,-1.07812 -0.604165,-0.38542 -1.359372,-0.38542 -1.072914,0 -1.848954,0.73959 -0.770831,0.73437 -0.770831,2.45832 z"
       style="font-size:10.66664028px;font-family:Arial;fill:#000000;stroke-width:1.33333004"
       id="path1013"
       inkscape:connector-curvature="0" />
    <path
       d="m 87.825849,172.36284 v -6.73436 h -2.515618 v -0.90104 h 6.052068 v 0.90104 h -2.526035 v 6.73436 z"
       style="font-size:10.66664028px;font-family:Arial;fill:#000000;stroke-width:1.33333004"
       id="path1015"
       inkscape:connector-curvature="0" />
    <path
       d="m 92.50813,172.36284 v -4.80207 h -0.828123 v -0.72917 h 0.828123 v -0.58854 q 0,-0.55729 0.09896,-0.82812 0.135416,-0.36458 0.473957,-0.58854 0.343749,-0.22917 0.958331,-0.22917 0.395833,0 0.874998,0.0937 l -0.140625,0.81771 q -0.291666,-0.0521 -0.552082,-0.0521 -0.427082,0 -0.604165,0.18229 -0.177083,0.18229 -0.177083,0.68229 v 0.51041 h 1.078123 v 0.72917 h -1.078123 v 4.80207 z"
       style="font-size:10.66664028px;font-family:Arial;fill:#000000;stroke-width:1.33333004"
       id="path1017"
       inkscape:connector-curvature="0" />
  </g>
  <path
     style="fill:#000000;fill-rule:evenodd;stroke:#000000;stroke-width:0;stroke-linejoin:miter;shape-rendering:geometricPrecision"
     inkscape:connector-curvature="0"
     id="path471"
     d="m 81.248581,183.30947 v 0 l -0.346666,0.2 -0.333332,-0.2 v -9.01331 h 0.333332 0.346666 z" />
  <path
     style="fill:#009d73;fill-rule:evenodd;stroke:#009d73;stroke-width:0;stroke-linejoin:miter;shape-rendering:geometricPrecision"
     inkscape:connector-curvature="0"
     id="path475"
     d="m 98.915203,188.85613 v 0 l -0.159999,-0.29334 -0.173333,-0.29333 4.333319,-2.50666 0.16,0.29333 0.17334,0.29334 z" />
  <g
     aria-label="R2"
     style="font-size:15.99995995px;text-anchor:start;stroke-width:1.33333004;text-rendering:geometricPrecision"
     id="text483">
    <path
       d="m 104.4604,187.70946 v -7.6354 h 3.3854 q 1.02084,0 1.55208,0.20833 0.53125,0.20313 0.84896,0.72396 0.31771,0.52083 0.31771,1.15104 0,0.8125 -0.52604,1.36979 -0.52604,0.55729 -1.625,0.70833 0.40104,0.19271 0.60937,0.38021 0.44271,0.40624 0.83854,1.01562 l 1.32813,2.07812 h -1.27083 l -1.01042,-1.58854 q -0.44271,-0.6875 -0.72916,-1.05208 -0.28646,-0.36458 -0.51563,-0.51042 -0.22395,-0.14583 -0.45833,-0.20312 -0.17187,-0.0365 -0.5625,-0.0365 h -1.17187 v 3.39062 z m 1.01041,-4.26562 h 2.17187 q 0.69271,0 1.08333,-0.14062 0.39062,-0.14583 0.59375,-0.45833 0.20312,-0.31771 0.20312,-0.6875 0,-0.54167 -0.39583,-0.89062 -0.39062,-0.34896 -1.23958,-0.34896 h -2.41666 z"
       style="font-size:10.66664028px;font-family:Arial;fill:#009d73;stroke-width:1.33333004"
       id="path1008"
       inkscape:connector-curvature="0" />
    <path
       d="m 115.3575,182.68702 v 0.67578 h -3.78514 q -0.008,-0.2539 0.082,-0.48828 0.14453,-0.38672 0.46094,-0.76172 0.32031,-0.37499 0.92187,-0.86718 0.93359,-0.76562 1.26171,-1.21094 0.32813,-0.44921 0.32813,-0.84765 0,-0.41797 -0.30078,-0.70312 -0.29688,-0.28906 -0.77734,-0.28906 -0.50782,0 -0.8125,0.30468 -0.30469,0.30469 -0.3086,0.84375 l -0.72265,-0.0742 q 0.0742,-0.80859 0.55859,-1.23046 0.48438,-0.42578 1.30078,-0.42578 0.82422,0 1.30468,0.45703 0.48047,0.45703 0.48047,1.13281 0,0.34374 -0.14062,0.67578 -0.14063,0.33203 -0.46875,0.69921 -0.32422,0.36719 -1.08203,1.00781 -0.63281,0.53125 -0.8125,0.72266 -0.17968,0.1875 -0.29687,0.3789 z"
       style="font-size:7.99997997px;font-family:Arial;fill:#009d73;stroke-width:1.33333004"
       id="path1010"
       inkscape:connector-curvature="0" />
  </g>
  <g
     aria-label="R3"
     style="font-size:15.99995995px;text-anchor:start;stroke-width:1.33333004;text-rendering:geometricPrecision"
     id="text491">
    <path
       d="m 91.167099,210.73607 v -7.6354 h 3.385409 q 1.020831,0 1.552079,0.20833 0.531249,0.20313 0.848956,0.72396 0.317708,0.52083 0.317708,1.15104 0,0.8125 -0.52604,1.36979 -0.526041,0.55729 -1.624996,0.70833 0.40104,0.19271 0.609373,0.38021 0.442707,0.40625 0.83854,1.01562 l 1.328121,2.07812 h -1.27083 l -1.010414,-1.58854 q -0.442707,-0.6875 -0.729165,-1.05208 -0.286457,-0.36458 -0.515623,-0.51042 -0.223958,-0.14583 -0.458333,-0.20312 -0.171874,-0.0365 -0.562498,-0.0365 h -1.171872 v 3.39062 z m 1.010415,-4.26562 h 2.171869 q 0.692707,0 1.083331,-0.14062 0.390624,-0.14583 0.593748,-0.45833 0.203125,-0.31771 0.203125,-0.6875 0,-0.54167 -0.395832,-0.89062 -0.390624,-0.34896 -1.239581,-0.34896 h -2.41666 z"
       style="font-size:10.66664028px;font-family:Arial;fill:#009d73;stroke-width:1.33333004"
       id="path1003"
       inkscape:connector-curvature="0" />
    <path
       d="m 98.372811,204.8777 0.703123,-0.0937 q 0.121094,0.59765 0.410155,0.86328 0.292968,0.26172 0.710941,0.26172 0.49609,0 0.83593,-0.34375 0.34375,-0.34375 0.34375,-0.85156 0,-0.48438 -0.31641,-0.79688 -0.3164,-0.3164 -0.80468,-0.3164 -0.19922,0 -0.496094,0.0781 l 0.07813,-0.61718 q 0.07031,0.008 0.113281,0.008 0.449223,0 0.808593,-0.23438 0.35938,-0.23437 0.35938,-0.72265 0,-0.38672 -0.26172,-0.64062 -0.26172,-0.25391 -0.67578,-0.25391 -0.41016,0 -0.683597,0.25781 -0.273437,0.25781 -0.351561,0.77344 l -0.703124,-0.125 q 0.128906,-0.70703 0.585936,-1.09375 0.45703,-0.39062 1.136726,-0.39062 0.46873,0 0.86327,0.20312 0.39453,0.19922 0.60156,0.54688 0.21094,0.34765 0.21094,0.73827 0,0.3711 -0.19922,0.67578 -0.19921,0.30469 -0.58984,0.48438 0.50781,0.11719 0.78906,0.48828 0.28125,0.36718 0.28125,0.92187 0,0.75 -0.54687,1.27344 -0.54688,0.51953 -1.38281,0.51953 -0.75391,0 -1.253909,-0.44922 -0.496093,-0.44922 -0.566405,-1.16406 z"
       style="font-size:7.99997997px;font-family:Arial;fill:#009d73;stroke-width:1.33333004"
       id="path1005"
       inkscape:connector-curvature="0" />
  </g>
  <path
     style="fill:#009d73;fill-rule:evenodd;stroke:#009d73;stroke-width:0;stroke-linejoin:miter;shape-rendering:geometricPrecision"
     inkscape:connector-curvature="0"
     id="path495"
     d="m 93.861883,194.69611 v 0 h 0.333332 0.346666 v 6.79998 h -0.346666 -0.333332 z" />
  <path
     style="fill:none;stroke:#009d73;stroke-width:0.54399866"
     d="m 99.377423,181.28282 a 3.5555468,3.5555468 0 0 1 -3.555546,3.55555 3.5555468,3.5555468 0 0 1 -3.555547,-3.55555 3.5555468,3.5555468 0 0 1 3.555547,-3.55555 3.5555468,3.5555468 0 0 1 3.555546,3.55555 z"
     id="circle499" />
  <path
     style="stroke:#009d73;stroke-width:0.54399866;shape-rendering:auto"
     d="m 93.701881,181.28282 h 4.239991"
     id="line501" />
  <path
     style="stroke:#009d73;stroke-width:0.54399866;shape-rendering:auto"
     d="m 95.821877,179.16281 v 4.23999"
     id="line503" />
  <path
     style="stroke:#000000;stroke-width:0.67999828;shape-rendering:auto"
     d="m 178.07501,112.48299 h -42.8799"
     id="line506" />
  <path
     style="fill:#000000;fill-rule:evenodd;stroke:#000000;stroke-width:0;stroke-linejoin:miter;stroke-miterlimit:5.89496231;shape-rendering:geometricPrecision"
     inkscape:connector-curvature="0"
     id="path508"
     stroke-miterlimit="5.89496254687639"
     d="m 182.68833,112.48299 -6.79999,-1.70666 c 1.44,0.96 1.44,2.45333 0,3.41333 z" />
  <text
     xml:space="preserve"
     style="font-style:normal;font-variant:normal;font-weight:normal;font-stretch:normal;font-size:10.66666698px;line-height:1.25;font-family:Arial;-inkscape-font-specification:Arial;text-align:start;letter-spacing:0px;word-spacing:0px;text-anchor:start;fill:#000000;fill-opacity:1;stroke:none"
     x="-51.338036"
     y="212.0163"
     id="text5717-5-3-9-3"><tspan
       sodipodi:role="line"
       id="tspan5715-7-9-5-60"
       x="-51.338036"
       y="212.0163">\cmpd{w:amide-tert}</tspan></text>
  <text
     xml:space="preserve"
     style="font-style:normal;font-variant:normal;font-weight:normal;font-stretch:normal;font-size:10.66666698px;line-height:1.25;font-family:Arial;-inkscape-font-specification:Arial;text-align:start;letter-spacing:0px;word-spacing:0px;text-anchor:start;fill:#000000;fill-opacity:1;stroke:none"
     x="-51.338036"
     y="138.87239"
     id="text5717-5-3-9-3-1"><tspan
       sodipodi:role="line"
       id="tspan5715-7-9-5-60-0"
       x="-51.338036"
       y="138.87239">\cmpd{w:amide-sec}</tspan></text>
  <text
     xml:space="preserve"
     style="font-style:normal;font-variant:normal;font-weight:normal;font-stretch:normal;font-size:10.66666698px;line-height:1.25;font-family:Arial;-inkscape-font-specification:Arial;text-align:start;letter-spacing:0px;word-spacing:0px;text-anchor:start;fill:#000000;fill-opacity:1;stroke:none"
     x="99.739357"
     y="223.20206"
     id="text5717-5-3-9-3-0"><tspan
       sodipodi:role="line"
       id="tspan5715-7-9-5-60-5"
       x="99.739357"
       y="223.20206">\cmpd{w:tf-iminium-tert}</tspan></text>
  <text
     xml:space="preserve"
     style="font-style:normal;font-variant:normal;font-weight:normal;font-stretch:normal;font-size:10.66666698px;line-height:1.25;font-family:Arial;-inkscape-font-specification:Arial;text-align:start;letter-spacing:0px;word-spacing:0px;text-anchor:start;fill:#000000;fill-opacity:1;stroke:none"
     x="99.739357"
     y="150.05818"
     id="text5717-5-3-9-3-1-7"><tspan
       sodipodi:role="line"
       id="tspan5715-7-9-5-60-0-7"
       x="99.739357"
       y="150.05818">\cmpd{w:tf-iminium-sec}</tspan></text>
  <text
     xml:space="preserve"
     style="font-style:normal;font-variant:normal;font-weight:normal;font-stretch:normal;font-size:10.66666698px;line-height:1.25;font-family:Arial;-inkscape-font-specification:Arial;text-align:start;letter-spacing:0px;word-spacing:0px;text-anchor:start;fill:#000000;fill-opacity:1;stroke:none"
     x="301.26105"
     y="212.0163"
     id="text5717-5-3-9-3-5"><tspan
       sodipodi:role="line"
       id="tspan5715-7-9-5-60-7"
       x="301.26105"
       y="212.0163">\cmpd{w:amine-tert}</tspan></text>
  <text
     xml:space="preserve"
     style="font-style:normal;font-variant:normal;font-weight:normal;font-stretch:normal;font-size:10.66666698px;line-height:1.25;font-family:Arial;-inkscape-font-specification:Arial;text-align:start;letter-spacing:0px;word-spacing:0px;text-anchor:start;fill:#000000;fill-opacity:1;stroke:none"
     x="301.26105"
     y="138.87239"
     id="text5717-5-3-9-3-1-2"><tspan
       sodipodi:role="line"
       id="tspan5715-7-9-5-60-0-2"
       x="301.26105"
       y="138.87239">\cmpd{w:amine-sec}</tspan></text>
  <text
     xml:space="preserve"
     style="font-style:normal;font-variant:normal;font-weight:normal;font-stretch:normal;font-size:10.66666698px;line-height:1.25;font-family:Arial;-inkscape-font-specification:Arial;text-align:start;letter-spacing:0px;word-spacing:0px;text-anchor:start;fill:#000000;fill-opacity:1;stroke:none"
     x="232.04567"
     y="138.87239"
     id="text5717-5-3-9-3-1-7-3"><tspan
       sodipodi:role="line"
       id="tspan5715-7-9-5-60-0-7-3"
       x="232.04567"
       y="138.87239">\cmpd{w:timine}</tspan></text>
</svg>
