<?xml version="1.0" standalone="no" ?>
<!DOCTYPE svg PUBLIC "-//W3C//DTD SVG 1.1//EN" "http://www.w3.org/Graphics/SVG/1.1/DTD/svg11.dtd">
<svg width="137px" height="82px" viewBox="0 0 137 82" style="background-color: #ffffff00" xmlns="http://www.w3.org/2000/svg" xmlns:xlink="http://www.w3.org/1999/xlink" version="1.1" >
<text x="0" y="0" stroke="none" fill="#000000" transform="matrix(0.0666667 0 0 0.0666667 55.9391 20.1885)" font-style="normal" font-weight="normal" font-size="160px" font-family="Arial" >
H</text>
<text x="0" y="0" stroke="none" fill="#000000" transform="matrix(0.0666667 0 0 0.0666667 55.9391 30.8551)" font-style="normal" font-weight="normal" font-size="160px" font-family="Arial" >
N</text>
<path stroke="none" fill="#000000" transform="matrix(0.0666667 0 0 0.0666667 -28.0447 -29)" d="M 1123.3,1177.14 L 1118.2,1180.09 L 1113.09,1176.75 L 1113.09,953.123 L 1118.2,949.913 L 1123.3,952.859 L 1123.3,1177.14 Z " />
<path stroke="none" fill="#000000" transform="matrix(0.0666667 0 0 0.0666667 -28.0447 -29)" d="M 1317.53,1289.28 L 1317.53,1295.17 L 1312.09,1297.92 L 1118.54,1186.18 L 1118.2,1180.09 L 1123.3,1177.14 L 1317.53,1289.28 Z " />
<path stroke="none" fill="#000000" transform="matrix(0.0666667 0 0 0.0666667 -28.0447 -29)" d="M 1511.76,1177.14 L 1521.97,1183.03 L 1322.97,1297.92 L 1317.53,1295.17 L 1317.53,1289.28 L 1511.76,1177.14 Z " />
<path stroke="none" fill="#000000" transform="matrix(0.0666667 0 0 0.0666667 -28.0447 -29)" d="M 1511.76,952.859 L 1516.87,949.913 L 1521.97,953.123 L 1521.97,1183.03 L 1511.76,1177.14 L 1511.76,952.859 Z " />
<path stroke="none" fill="#000000" transform="matrix(0.0666667 0 0 0.0666667 -28.0447 -29)" d="M 1397.08,886.646 L 1402.18,877.809 L 1516.64,943.89 L 1516.87,949.913 L 1511.76,952.859 L 1397.08,886.646 Z " />
<path stroke="none" fill="#000000" transform="matrix(0.0666667 0 0 0.0666667 -28.0447 -29)" d="M 1123.3,952.859 L 1118.2,949.913 L 1118.42,943.89 L 1232.47,878.046 L 1237.57,886.883 L 1123.3,952.859 Z " />
<path stroke="none" fill="#000000" transform="matrix(0.0666667 0 0 0.0666667 -28.0447 -29)" d="M 791.181,914.434 L 786.079,905.597 L 936.959,818.486 L 899.481,851.907 L 791.181,914.434 Z " />
<path stroke="none" fill="#000000" transform="matrix(0.0666667 0 0 0.0666667 -28.0447 -29)" d="M 899.481,851.907 L 936.959,818.486 L 1118.42,943.89 L 1118.2,949.913 L 1113.09,953.123 L 899.481,851.907 Z " />
<text x="0" y="0" stroke="none" fill="#000000" transform="matrix(0.0666667 0 0 0.0666667 16.0173 61.5449)" font-style="normal" font-weight="normal" font-size="160px" font-family="Arial" >
BnO</text>
<path stroke="none" fill="#000000" transform="matrix(0.0666667 0 0 0.0666667 -28.0447 -29)" d="M 999.871,1275.9 L 976.06,1234.65 L 1113.09,1176.75 L 1118.2,1180.09 L 1118.54,1186.18 L 999.871,1275.9 Z " />
<text x="0" y="0" stroke="none" fill="#000000" transform="matrix(0.0666667 0 0 0.0666667 55.6423 76.8897)" font-style="normal" font-weight="normal" font-size="160px" font-family="Arial" >
OBn</text>
<path stroke="none" fill="#000000" transform="matrix(0.0666667 0 0 0.0666667 -28.0447 -29)" d="M 1341.34,1447.01 L 1293.72,1447.01 L 1312.09,1297.92 L 1317.53,1295.17 L 1322.97,1297.92 L 1341.34,1447.01 Z " />
<text x="0" y="0" stroke="none" fill="#000000" transform="matrix(0.0666667 0 0 0.0666667 82.2204 61.5449)" font-style="normal" font-weight="normal" font-size="160px" font-family="Arial" >
OBn</text>
<path stroke="none" fill="#000000" transform="matrix(0.0666667 0 0 0.0666667 -28.0447 -29)" d="M 1659.4,1234.89 L 1635.59,1276.13 L 1627.62,1269.53 L 1649.7,1231.28 L 1659.4,1234.89 Z " />
<path stroke="none" fill="#000000" transform="matrix(0.0666667 0 0 0.0666667 -28.0447 -29)" d="M 1611.79,1217.2 L 1596.47,1243.74 L 1588.49,1237.14 L 1602.09,1213.59 L 1611.79,1217.2 Z " />
<path stroke="none" fill="#000000" transform="matrix(0.0666667 0 0 0.0666667 -28.0447 -29)" d="M 1564.17,1199.51 L 1557.34,1211.34 L 1549.37,1204.74 L 1554.47,1195.91 L 1564.17,1199.51 Z " />
<path stroke="none" fill="#000000" transform="matrix(0.0666667 0 0 0.0666667 -28.0447 -29)" d="M 1978.79,1150.02 L 1969.87,1157.16 L 1941.62,1024.21 L 1951.6,1022.09 L 1978.79,1150.02 Z " />
<path stroke="none" fill="#000000" transform="matrix(0.0666667 0 0 0.0666667 -28.0447 -29)" d="M 1713.94,807.542 L 1716.2,834.827 L 1738.7,850.429 L 1521.97,953.123 L 1516.87,949.913 L 1516.64,943.89 L 1713.94,807.542 Z " />
<path stroke="none" fill="#000000" transform="matrix(0.0666667 0 0 0.0666667 -28.0447 -29)" d="M 1738.7,850.429 L 1716.2,834.827 L 1721.66,831.674 L 1848.85,888.302 L 1844.7,897.624 L 1738.7,850.429 Z " />
<path stroke="none" fill="#000000" transform="matrix(0.0666667 0 0 0.0666667 -28.0447 -29)" d="M 1992.33,862.934 L 1984.75,856.106 L 2007.93,830.359 L 2015.51,837.187 L 1992.33,862.934 Z " />
<path stroke="none" fill="#000000" transform="matrix(0.0666667 0 0 0.0666667 -28.0447 -29)" d="M 2039.07,675.44 L 2030.23,680.542 L 2012.32,649.527 L 2021.16,644.425 L 2039.07,675.44 Z " />
<path stroke="none" fill="#000000" transform="matrix(0.0666667 0 0 0.0666667 -28.0447 -29)" d="M 2003.19,696.155 L 1994.35,701.257 L 1976.44,670.243 L 1985.28,665.141 L 2003.19,696.155 Z " />
<path stroke="none" fill="#000000" transform="matrix(0.0666667 0 0 0.0666667 -28.0447 -29)" d="M 1887.74,569.352 L 1889.86,579.333 L 1817.41,594.733 L 1815.29,584.752 L 1887.74,569.352 Z " />
<path stroke="none" fill="#000000" transform="matrix(0.0666667 0 0 0.0666667 -28.0447 -29)" d="M 1725.92,693.55 L 1736.07,694.617 L 1721.66,831.674 L 1716.2,834.827 L 1713.94,807.542 L 1725.92,693.55 Z " />
<path stroke="none" fill="#000000" transform="matrix(0.0666667 0 0 0.0666667 -28.0447 -29)" d="M 1767.13,697.881 L 1777.27,698.948 L 1765.63,809.754 L 1755.48,808.688 L 1767.13,697.881 Z " />
<text x="0" y="0" stroke="none" fill="#000000" transform="matrix(0.0666667 0 0 0.0666667 96.5355 37.0964)" font-style="normal" font-weight="normal" font-size="160px" font-family="Arial" >
N</text>
<text x="0" y="0" stroke="none" fill="#000000" transform="matrix(0.0666667 0 0 0.0666667 106.803 25.693)" font-style="normal" font-weight="normal" font-size="160px" font-family="Arial" >
N</text>
<text x="0" y="0" stroke="none" fill="#000000" transform="matrix(0.0666667 0 0 0.0666667 99.1308 12.4039)" font-style="normal" font-weight="normal" font-size="160px" font-family="Arial" >
N</text>
<text x="0" y="0" stroke="none" fill="#000000" transform="matrix(0.0666667 0 0 0.0666667 84.1212 15.5943)" font-style="normal" font-weight="normal" font-size="160px" font-family="Arial" >
N</text>
<text x="0" y="0" stroke="none" fill="#000000" transform="matrix(0.0666667 0 0 0.0666667 2.72825 38.5276)" font-style="normal" font-weight="normal" font-size="160px" font-family="Arial" >
BnO</text>
<path stroke="none" fill="#000000" transform="matrix(0.0666667 0 0 0.0666667 -28.0447 -29)" d="M 2188.37,1246.1 L 2178.76,1252.92 L 1969.87,1157.16 L 1978.79,1150.02 L 2188.37,1246.1 Z " />
<text x="0" y="0" stroke="none" fill="#000000" transform="matrix(0.0666667 0 0 0.0666667 114.815 73.778)" font-style="normal" font-weight="normal" font-size="160px" font-family="Arial" >
OEt</text>
<path stroke="none" fill="#000000" transform="matrix(0.0666667 0 0 0.0666667 -28.0447 -29)" d="M 2202.88,1400.43 L 2192.73,1401.39 L 2178.76,1252.92 L 2188.37,1246.1 L 2202.88,1400.43 Z " />
<text x="0" y="0" stroke="none" fill="#000000" transform="matrix(0.0666667 0 0 0.0666667 125.89 49.6176)" font-style="normal" font-weight="normal" font-size="160px" font-family="Arial" >
O</text>
<path stroke="none" fill="#000000" transform="matrix(0.0666667 0 0 0.0666667 -28.0447 -29)" d="M 2285.56,1145.44 L 2291.47,1153.76 L 2164.78,1243.7 L 2158.87,1235.38 L 2285.56,1145.44 Z " />
<path stroke="none" fill="#000000" transform="matrix(0.0666667 0 0 0.0666667 -28.0447 -29)" d="M 2309.54,1179.22 L 2315.45,1187.54 L 2188.76,1277.48 L 2182.85,1269.16 L 2309.54,1179.22 Z " />
</svg>
