<?xml version="1.0" encoding="UTF-8" standalone="no"?>
<svg
   xmlns:dc="http://purl.org/dc/elements/1.1/"
   xmlns:cc="http://creativecommons.org/ns#"
   xmlns:rdf="http://www.w3.org/1999/02/22-rdf-syntax-ns#"
   xmlns:svg="http://www.w3.org/2000/svg"
   xmlns="http://www.w3.org/2000/svg"
   xmlns:sodipodi="http://sodipodi.sourceforge.net/DTD/sodipodi-0.dtd"
   xmlns:inkscape="http://www.inkscape.org/namespaces/inkscape"
   width="118px"
   height="84px"
   viewBox="0 0 118 84"
   style="background-color: #ffffff00"
   version="1.1"
   id="svg74"
   sodipodi:docname="glu-tet-free.svg"
   inkscape:version="0.92.4 (5da689c313, 2019-01-14)">
  <metadata
     id="metadata80">
    <rdf:RDF>
      <cc:Work
         rdf:about="">
        <dc:format>image/svg+xml</dc:format>
        <dc:type
           rdf:resource="http://purl.org/dc/dcmitype/StillImage" />
      </cc:Work>
    </rdf:RDF>
  </metadata>
  <defs
     id="defs78" />
  <sodipodi:namedview
     pagecolor="#ffffff"
     bordercolor="#666666"
     borderopacity="1"
     objecttolerance="10"
     gridtolerance="10"
     guidetolerance="10"
     inkscape:pageopacity="0"
     inkscape:pageshadow="2"
     inkscape:window-width="741"
     inkscape:window-height="480"
     id="namedview76"
     showgrid="false"
     inkscape:zoom="1.4047619"
     inkscape:cx="32.083385"
     inkscape:cy="41.257447"
     inkscape:window-x="0"
     inkscape:window-y="0"
     inkscape:window-maximized="0"
     inkscape:current-layer="svg74" />
  <g
     aria-label="H"
     transform="matrix(0.0666667,0,0,0.0666667,56.6066,21.828)"
     style="font-style:normal;font-weight:normal;font-size:160px;font-family:Arial;fill:#000000;stroke:none"
     id="text2">
    <path
       d="M 12.8125,0 V -114.53125 H 27.96875 V -67.5 H 87.5 v -47.03125 h 15.15625 V 0 H 87.5 V -53.984375 H 27.96875 V 0 Z"
       style="font-style:normal;font-weight:normal;font-size:160px;font-family:Arial;fill:#000000;stroke:none"
       id="path887"
       inkscape:connector-curvature="0" />
  </g>
  <g
     aria-label="N"
     transform="matrix(0.0666667,0,0,0.0666667,56.6066,32.4947)"
     style="font-style:normal;font-weight:normal;font-size:160px;font-family:Arial;fill:#000000;stroke:none"
     id="text4">
    <path
       d="m 12.1875,0 v -114.53125 h 15.546875 l 60.15625,89.921875 V -114.53125 H 102.42188 V 0 H 86.875 L 26.71875,-90 V 0 Z"
       style="font-style:normal;font-weight:normal;font-size:160px;font-family:Arial;fill:#000000;stroke:none"
       id="path890"
       inkscape:connector-curvature="0" />
  </g>
  <path
     stroke="none"
     fill="#000000"
     transform="matrix(0.0666667 0 0 0.0666667 -32.0894 -15.3333)"
     d="M 1193.29,997.937 L 1183.08,1003.83 L 1183.08,773.117 L 1188.18,769.908 L 1193.29,772.854 L 1193.29,997.937 Z "
     id="path6" />
  <path
     stroke="none"
     fill="#000000"
     transform="matrix(0.0666667 0 0 0.0666667 -32.0894 -15.3333)"
     d="M 1388.21,1110.48 L 1388.21,1116.37 L 1382.77,1119.12 L 1183.08,1003.83 L 1193.29,997.937 L 1388.21,1110.48 Z "
     id="path8" />
  <path
     stroke="none"
     fill="#000000"
     transform="matrix(0.0666667 0 0 0.0666667 -32.0894 -15.3333)"
     d="M 1583.14,997.937 L 1593.35,1003.83 L 1393.65,1119.12 L 1388.21,1116.37 L 1388.21,1110.48 L 1583.14,997.937 Z "
     id="path10" />
  <path
     stroke="none"
     fill="#000000"
     transform="matrix(0.0666667 0 0 0.0666667 -32.0894 -15.3333)"
     d="M 1583.14,772.854 L 1593.35,766.962 L 1593.35,1003.83 L 1583.14,997.937 L 1583.14,772.854 Z "
     id="path12" />
  <path
     stroke="none"
     fill="#000000"
     transform="matrix(0.0666667 0 0 0.0666667 -32.0894 -15.3333)"
     d="M 1467.76,706.24 L 1472.87,697.403 L 1593.35,766.962 L 1583.14,772.854 L 1467.76,706.24 Z "
     id="path14" />
  <path
     stroke="none"
     fill="#000000"
     transform="matrix(0.0666667 0 0 0.0666667 -32.0894 -15.3333)"
     d="M 1193.29,772.854 L 1188.18,769.908 L 1188.41,763.885 L 1303.15,697.639 L 1308.25,706.477 L 1193.29,772.854 Z "
     id="path16" />
  <path
     stroke="none"
     fill="#000000"
     transform="matrix(0.0666667 0 0 0.0666667 -32.0894 -15.3333)"
     d="M 1741.36,654.011 L 1765.17,695.253 L 1755.7,699.254 L 1733.16,660.215 L 1741.36,654.011 Z "
     id="path18" />
  <path
     stroke="none"
     fill="#000000"
     transform="matrix(0.0666667 0 0 0.0666667 -32.0894 -15.3333)"
     d="M 1703.87,682.366 L 1721.87,713.54 L 1712.4,717.541 L 1695.67,688.569 L 1703.87,682.366 Z "
     id="path20" />
  <path
     stroke="none"
     fill="#000000"
     transform="matrix(0.0666667 0 0 0.0666667 -32.0894 -15.3333)"
     d="M 1666.39,710.72 L 1678.57,731.827 L 1669.1,735.828 L 1658.19,716.924 L 1666.39,710.72 Z "
     id="path22" />
  <path
     stroke="none"
     fill="#000000"
     transform="matrix(0.0666667 0 0 0.0666667 -32.0894 -15.3333)"
     d="M 1628.9,739.075 L 1635.27,750.115 L 1625.8,754.115 L 1620.7,745.278 L 1628.9,739.075 Z "
     id="path24" />
  <path
     stroke="none"
     fill="#000000"
     transform="matrix(0.0666667 0 0 0.0666667 -32.0894 -15.3333)"
     d="M 1783.17,658.128 L 1793.38,650.714 L 1930.48,695.262 L 1927.33,704.967 L 1783.17,658.128 Z "
     id="path26" />
  <path
     stroke="none"
     fill="#000000"
     transform="matrix(0.0666667 0 0 0.0666667 -32.0894 -15.3333)"
     d="M 1828.27,629.067 L 1831.43,619.362 L 1943.33,655.721 L 1940.18,665.426 L 1828.27,629.067 Z "
     id="path28" />
  <path
     stroke="none"
     fill="#000000"
     transform="matrix(0.0666667 0 0 0.0666667 -32.0894 -15.3333)"
     d="M 2066.41,654.004 L 2058.15,648.006 L 2078.87,619.494 L 2087.13,625.492 L 2066.41,654.004 Z "
     id="path30" />
  <path
     stroke="none"
     fill="#000000"
     transform="matrix(0.0666667 0 0 0.0666667 -32.0894 -15.3333)"
     d="M 2093.31,460.883 L 2085.05,466.881 L 2064.34,438.369 L 2072.59,432.371 L 2093.31,460.883 Z "
     id="path32" />
  <path
     stroke="none"
     fill="#000000"
     transform="matrix(0.0666667 0 0 0.0666667 -32.0894 -15.3333)"
     d="M 2059.67,485.321 L 2051.42,491.319 L 2030.7,462.806 L 2038.96,456.808 L 2059.67,485.321 Z "
     id="path34" />
  <path
     stroke="none"
     fill="#000000"
     transform="matrix(0.0666667 0 0 0.0666667 -32.0894 -15.3333)"
     d="M 1927.33,372.899 L 1930.48,382.604 L 1867.61,403.034 L 1864.45,393.329 L 1927.33,372.899 Z "
     id="path36" />
  <path
     stroke="none"
     fill="#000000"
     transform="matrix(0.0666667 0 0 0.0666667 -32.0894 -15.3333)"
     d="M 1783.17,512.446 L 1793.38,512.446 L 1793.38,650.714 L 1783.17,658.128 L 1783.17,512.446 Z "
     id="path38" />
  <g
     aria-label="N"
     transform="matrix(0.0666667,0,0,0.0666667,97.9219,37.253)"
     style="font-style:normal;font-weight:normal;font-size:160px;font-family:Arial;fill:#000000;stroke:none"
     id="text40">
    <path
       d="m 12.1875,0 v -114.53125 h 15.546875 l 60.15625,89.921875 V -114.53125 H 102.42188 V 0 H 86.875 L 26.71875,-90 V 0 Z"
       style="font-style:normal;font-weight:normal;font-size:160px;font-family:Arial;fill:#000000;stroke:none"
       id="path893"
       inkscape:connector-curvature="0" />
  </g>
  <g
     aria-label="N"
     transform="matrix(0.0666667,0,0,0.0666667,106.973,24.7955)"
     style="font-style:normal;font-weight:normal;font-size:160px;font-family:Arial;fill:#000000;stroke:none"
     id="text42">
    <path
       d="m 12.1875,0 v -114.53125 h 15.546875 l 60.15625,89.921875 V -114.53125 H 102.42188 V 0 H 86.875 L 26.71875,-90 V 0 Z"
       style="font-style:normal;font-weight:normal;font-size:160px;font-family:Arial;fill:#000000;stroke:none"
       id="path896"
       inkscape:connector-curvature="0" />
  </g>
  <g
     aria-label="N"
     transform="matrix(0.0666667,0,0,0.0666667,97.9219,12.338)"
     style="font-style:normal;font-weight:normal;font-size:160px;font-family:Arial;fill:#000000;stroke:none"
     id="text44">
    <path
       d="m 12.1875,0 v -114.53125 h 15.546875 l 60.15625,89.921875 V -114.53125 H 102.42188 V 0 H 86.875 L 26.71875,-90 V 0 Z"
       style="font-style:normal;font-weight:normal;font-size:160px;font-family:Arial;fill:#000000;stroke:none"
       id="path899"
       inkscape:connector-curvature="0" />
  </g>
  <g
     aria-label="HN"
     transform="matrix(0.0666667,0,0,0.0666667,75.5741,17.0964)"
     style="font-style:normal;font-weight:normal;font-size:160px;font-family:Arial;fill:#000000;stroke:none"
     id="text46">
    <path
       d="M 12.8125,0 V -114.53125 H 27.96875 V -67.5 H 87.5 v -47.03125 h 15.15625 V 0 H 87.5 V -53.984375 H 27.96875 V 0 Z"
       style="font-style:normal;font-weight:normal;font-size:160px;font-family:Arial;fill:#000000;stroke:none"
       id="path902"
       inkscape:connector-curvature="0" />
    <path
       d="m 127.8125,0 v -114.53125 h 15.54687 l 60.15625,89.921875 v -89.921875 h 14.53125 V 0 H 202.5 L 142.34375,-90 V 0 Z"
       style="font-style:normal;font-weight:normal;font-size:160px;font-family:Arial;fill:#000000;stroke:none"
       id="path904"
       inkscape:connector-curvature="0" />
  </g>
  <path
     stroke="none"
     fill="#000000"
     transform="matrix(0.0666667 0 0 0.0666667 -32.0894 -15.3333)"
     d="M 968.778,671.499 L 1006.25,638.079 L 1188.41,763.885 L 1188.18,769.908 L 1183.08,773.117 L 968.778,671.499 Z "
     id="path48" />
  <g
     aria-label="BnO"
     transform="matrix(0.0666667,0,0,0.0666667,16.5922,63.2913)"
     style="font-style:normal;font-weight:normal;font-size:160px;font-family:Arial;fill:#000000;stroke:none"
     id="text50">
    <path
       d="M 11.71875,0 V -114.53125 H 54.6875 q 13.125,0 21.015625,3.51562 7.96875,3.4375 12.421875,10.70313 4.53125,7.1875 4.53125,15.078125 0,7.34375 -3.984375,13.828125 -3.984375,6.484375 -12.03125,10.46875 10.390625,3.046875 15.9375,10.390625 5.625,7.34375 5.625,17.34375 0,8.046875 -3.4375,15 -3.359375,6.875 -8.359375,10.625 -5,3.75 -12.578125,5.703125 Q 66.328125,0 55.390625,0 Z M 26.875,-66.40625 h 24.765625 q 10.078125,0 14.453125,-1.328125 5.78125,-1.71875 8.671875,-5.703125 2.96875,-3.984375 2.96875,-10 0,-5.703125 -2.734375,-10 -2.734375,-4.375 -7.8125,-5.9375 -5.078125,-1.64063 -17.421875,-1.64063 H 26.875 Z m 0,52.890625 h 28.515625 q 7.34375,0 10.3125,-0.546875 5.234375,-0.9375 8.75,-3.125 3.515625,-2.1875 5.78125,-6.328125 2.265625,-4.21875 2.265625,-9.6875 0,-6.40625 -3.28125,-11.09375 -3.28125,-4.765625 -9.140625,-6.640625 -5.78125,-1.953125 -16.71875,-1.953125 H 26.875 Z"
       style="font-style:normal;font-weight:normal;font-size:160px;font-family:Arial;fill:#000000;stroke:none"
       id="path907"
       inkscape:connector-curvature="0" />
    <path
       d="m 117.42188,0 v -82.96875 h 12.65624 v 11.796875 q 9.14063,-13.671875 26.40625,-13.671875 7.5,0 13.75,2.734375 6.32813,2.65625 9.45313,7.03125 3.125,4.375 4.375,10.390625 0.78125,3.90625 0.78125,13.671875 V 0 h -14.0625 v -50.46875 q 0,-8.59375 -1.64063,-12.8125 -1.64062,-4.296875 -5.85937,-6.796875 -4.14063,-2.578125 -9.76563,-2.578125 -8.98437,0 -15.54687,5.703125 -6.48438,5.703125 -6.48438,21.640625 V 0 Z"
       style="font-style:normal;font-weight:normal;font-size:160px;font-family:Arial;fill:#000000;stroke:none"
       id="path909"
       inkscape:connector-curvature="0" />
    <path
       d="m 203.67187,-55.78125 q 0,-28.515625 15.3125,-44.60938 15.3125,-16.17187 39.53125,-16.17187 15.85938,0 28.59375,7.57812 12.73438,7.57813 19.375,21.17188 6.71875,13.515625 6.71875,30.703125 0,17.421875 -7.03125,31.171875 -7.03125,13.75 -19.92187,20.859375 -12.89063,7.03125 -27.8125,7.03125 -16.17188,0 -28.90625,-7.8125 -12.73438,-7.8125 -19.29688,-21.328125 -6.5625,-13.515625 -6.5625,-28.59375 z m 15.625,0.234375 q 0,20.703125 11.09375,32.65625 11.17188,11.875 27.96875,11.875 17.10938,0 28.125,-12.03125 11.09375,-12.03125 11.09375,-34.140625 0,-13.984375 -4.76562,-24.375 -4.6875,-10.46875 -13.82813,-16.171875 -9.0625,-5.781255 -20.39062,-5.781255 -16.09375,0 -27.73438,11.093755 -11.5625,11.015625 -11.5625,36.875 z"
       style="font-style:normal;font-weight:normal;font-size:160px;font-family:Arial;fill:#000000;stroke:none"
       id="path911"
       inkscape:connector-curvature="0" />
  </g>
  <path
     stroke="none"
     fill="#000000"
     transform="matrix(0.0666667 0 0 0.0666667 -32.0894 -15.3333)"
     d="M 1069.17,1097.09 L 1045.35,1055.85 L 1055.05,1052.24 L 1077.14,1090.5 L 1069.17,1097.09 Z "
     id="path52" />
  <path
     stroke="none"
     fill="#000000"
     transform="matrix(0.0666667 0 0 0.0666667 -32.0894 -15.3333)"
     d="M 1108.51,1064.57 L 1093.19,1038.04 L 1102.89,1034.43 L 1116.49,1057.98 L 1108.51,1064.57 Z "
     id="path54" />
  <path
     stroke="none"
     fill="#000000"
     transform="matrix(0.0666667 0 0 0.0666667 -32.0894 -15.3333)"
     d="M 1147.86,1032.04 L 1141.03,1020.22 L 1150.73,1016.61 L 1155.83,1025.45 L 1147.86,1032.04 Z "
     id="path56" />
  <g
     aria-label="OBn"
     transform="matrix(0.0666667,0,0,0.0666667,56.3097,78.6896)"
     style="font-style:normal;font-weight:normal;font-size:160px;font-family:Arial;fill:#000000;stroke:none"
     id="text58">
    <path
       d="m 7.734375,-55.78125 q 0,-28.515625 15.3125,-44.60938 15.3125,-16.17187 39.53125,-16.17187 15.859375,0 28.59375,7.57812 12.734375,7.57813 19.375005,21.17188 6.71875,13.515625 6.71875,30.703125 0,17.421875 -7.03125,31.171875 -7.03125,13.75 -19.92188,20.859375 -12.890625,7.03125 -27.8125,7.03125 -16.171875,0 -28.90625,-7.8125 -12.734375,-7.8125 -19.296875,-21.328125 -6.5625,-13.515625 -6.5625,-28.59375 z m 15.625,0.234375 q 0,20.703125 11.09375,32.65625 11.171875,11.875 27.96875,11.875 17.109375,0 28.125,-12.03125 11.093755,-12.03125 11.093755,-34.140625 0,-13.984375 -4.76563,-24.375 -4.6875,-10.46875 -13.828125,-16.171875 -9.0625,-5.781255 -20.390625,-5.781255 -16.09375,0 -27.734375,11.093755 -11.5625,11.015625 -11.5625,36.875 z"
       style="font-style:normal;font-weight:normal;font-size:160px;font-family:Arial;fill:#000000;stroke:none"
       id="path914"
       inkscape:connector-curvature="0" />
    <path
       d="m 136.09375,0 v -114.53125 h 42.96875 q 13.125,0 21.01562,3.51562 7.96875,3.4375 12.42188,10.70313 4.53125,7.1875 4.53125,15.078125 0,7.34375 -3.98438,13.828125 -3.98437,6.484375 -12.03125,10.46875 10.39063,3.046875 15.9375,10.390625 5.625,7.34375 5.625,17.34375 0,8.046875 -3.4375,15 -3.35937,6.875 -8.35937,10.625 -5,3.75 -12.57813,5.703125 Q 190.70312,0 179.76562,0 Z M 151.25,-66.40625 h 24.76562 q 10.07813,0 14.45313,-1.328125 5.78125,-1.71875 8.67187,-5.703125 2.96875,-3.984375 2.96875,-10 0,-5.703125 -2.73437,-10 -2.73438,-4.375 -7.8125,-5.9375 -5.07813,-1.64063 -17.42188,-1.64063 H 151.25 Z m 0,52.890625 h 28.51562 q 7.34375,0 10.3125,-0.546875 5.23438,-0.9375 8.75,-3.125 3.51563,-2.1875 5.78125,-6.328125 2.26563,-4.21875 2.26563,-9.6875 0,-6.40625 -3.28125,-11.09375 -3.28125,-4.765625 -9.14063,-6.640625 -5.78125,-1.953125 -16.71875,-1.953125 H 151.25 Z"
       style="font-style:normal;font-weight:normal;font-size:160px;font-family:Arial;fill:#000000;stroke:none"
       id="path916"
       inkscape:connector-curvature="0" />
    <path
       d="m 241.79687,0 v -82.96875 h 12.65625 v 11.796875 q 9.14063,-13.671875 26.40625,-13.671875 7.5,0 13.75,2.734375 6.32813,2.65625 9.45313,7.03125 3.125,4.375 4.375,10.390625 0.78125,3.90625 0.78125,13.671875 V 0 h -14.0625 v -50.46875 q 0,-8.59375 -1.64063,-12.8125 -1.64062,-4.296875 -5.85937,-6.796875 -4.14063,-2.578125 -9.76563,-2.578125 -8.98437,0 -15.54687,5.703125 -6.48438,5.703125 -6.48438,21.640625 V 0 Z"
       style="font-style:normal;font-weight:normal;font-size:160px;font-family:Arial;fill:#000000;stroke:none"
       id="path918"
       inkscape:connector-curvature="0" />
  </g>
  <path
     stroke="none"
     fill="#000000"
     transform="matrix(0.0666667 0 0 0.0666667 -32.0894 -15.3333)"
     d="M 1412.02,1269.01 L 1364.4,1269.01 L 1382.77,1119.12 L 1388.21,1116.37 L 1393.65,1119.12 L 1412.02,1269.01 Z "
     id="path60" />
  <g
     aria-label="OBn"
     transform="matrix(0.0666667,0,0,0.0666667,82.9804,63.2913)"
     style="font-style:normal;font-weight:normal;font-size:160px;font-family:Arial;fill:#000000;stroke:none"
     id="text62">
    <path
       d="m 7.734375,-55.78125 q 0,-28.515625 15.3125,-44.60938 15.3125,-16.17187 39.53125,-16.17187 15.859375,0 28.59375,7.57812 12.734375,7.57813 19.375005,21.17188 6.71875,13.515625 6.71875,30.703125 0,17.421875 -7.03125,31.171875 -7.03125,13.75 -19.92188,20.859375 -12.890625,7.03125 -27.8125,7.03125 -16.171875,0 -28.90625,-7.8125 -12.734375,-7.8125 -19.296875,-21.328125 -6.5625,-13.515625 -6.5625,-28.59375 z m 15.625,0.234375 q 0,20.703125 11.09375,32.65625 11.171875,11.875 27.96875,11.875 17.109375,0 28.125,-12.03125 11.093755,-12.03125 11.093755,-34.140625 0,-13.984375 -4.76563,-24.375 -4.6875,-10.46875 -13.828125,-16.171875 -9.0625,-5.781255 -20.390625,-5.781255 -16.09375,0 -27.734375,11.093755 -11.5625,11.015625 -11.5625,36.875 z"
       style="font-style:normal;font-weight:normal;font-size:160px;font-family:Arial;fill:#000000;stroke:none"
       id="path921"
       inkscape:connector-curvature="0" />
    <path
       d="m 136.09375,0 v -114.53125 h 42.96875 q 13.125,0 21.01562,3.51562 7.96875,3.4375 12.42188,10.70313 4.53125,7.1875 4.53125,15.078125 0,7.34375 -3.98438,13.828125 -3.98437,6.484375 -12.03125,10.46875 10.39063,3.046875 15.9375,10.390625 5.625,7.34375 5.625,17.34375 0,8.046875 -3.4375,15 -3.35937,6.875 -8.35937,10.625 -5,3.75 -12.57813,5.703125 Q 190.70312,0 179.76562,0 Z M 151.25,-66.40625 h 24.76562 q 10.07813,0 14.45313,-1.328125 5.78125,-1.71875 8.67187,-5.703125 2.96875,-3.984375 2.96875,-10 0,-5.703125 -2.73437,-10 -2.73438,-4.375 -7.8125,-5.9375 -5.07813,-1.64063 -17.42188,-1.64063 H 151.25 Z m 0,52.890625 h 28.51562 q 7.34375,0 10.3125,-0.546875 5.23438,-0.9375 8.75,-3.125 3.51563,-2.1875 5.78125,-6.328125 2.26563,-4.21875 2.26563,-9.6875 0,-6.40625 -3.28125,-11.09375 -3.28125,-4.765625 -9.14063,-6.640625 -5.78125,-1.953125 -16.71875,-1.953125 H 151.25 Z"
       style="font-style:normal;font-weight:normal;font-size:160px;font-family:Arial;fill:#000000;stroke:none"
       id="path923"
       inkscape:connector-curvature="0" />
    <path
       d="m 241.79687,0 v -82.96875 h 12.65625 v 11.796875 q 9.14063,-13.671875 26.40625,-13.671875 7.5,0 13.75,2.734375 6.32813,2.65625 9.45313,7.03125 3.125,4.375 4.375,10.390625 0.78125,3.90625 0.78125,13.671875 V 0 h -14.0625 v -50.46875 q 0,-8.59375 -1.64063,-12.8125 -1.64062,-4.296875 -5.85937,-6.796875 -4.14063,-2.578125 -9.76563,-2.578125 -8.98437,0 -15.54687,5.703125 -6.48438,5.703125 -6.48438,21.640625 V 0 Z"
       style="font-style:normal;font-weight:normal;font-size:160px;font-family:Arial;fill:#000000;stroke:none"
       id="path925"
       inkscape:connector-curvature="0" />
  </g>
  <path
     stroke="none"
     fill="#000000"
     transform="matrix(0.0666667 0 0 0.0666667 -32.0894 -15.3333)"
     d="M 1731.47,1056.08 L 1707.66,1097.32 L 1699.68,1090.74 L 1721.78,1052.47 L 1731.47,1056.08 Z "
     id="path64" />
  <path
     stroke="none"
     fill="#000000"
     transform="matrix(0.0666667 0 0 0.0666667 -32.0894 -15.3333)"
     d="M 1683.49,1038.19 L 1668.17,1064.71 L 1660.19,1058.12 L 1673.79,1034.57 L 1683.49,1038.19 Z "
     id="path66" />
  <path
     stroke="none"
     fill="#000000"
     transform="matrix(0.0666667 0 0 0.0666667 -32.0894 -15.3333)"
     d="M 1635.5,1020.29 L 1628.68,1032.1 L 1620.7,1025.51 L 1625.8,1016.68 L 1635.5,1020.29 Z "
     id="path68" />
  <g
     aria-label="BnO"
     transform="matrix(0.0666667,0,0,0.0666667,3.25684,40.1939)"
     style="font-style:normal;font-weight:normal;font-size:160px;font-family:Arial;fill:#000000;stroke:none"
     id="text70">
    <path
       d="M 11.71875,0 V -114.53125 H 54.6875 q 13.125,0 21.015625,3.51562 7.96875,3.4375 12.421875,10.70313 4.53125,7.1875 4.53125,15.078125 0,7.34375 -3.984375,13.828125 -3.984375,6.484375 -12.03125,10.46875 10.390625,3.046875 15.9375,10.390625 5.625,7.34375 5.625,17.34375 0,8.046875 -3.4375,15 -3.359375,6.875 -8.359375,10.625 -5,3.75 -12.578125,5.703125 Q 66.328125,0 55.390625,0 Z M 26.875,-66.40625 h 24.765625 q 10.078125,0 14.453125,-1.328125 5.78125,-1.71875 8.671875,-5.703125 2.96875,-3.984375 2.96875,-10 0,-5.703125 -2.734375,-10 -2.734375,-4.375 -7.8125,-5.9375 -5.078125,-1.64063 -17.421875,-1.64063 H 26.875 Z m 0,52.890625 h 28.515625 q 7.34375,0 10.3125,-0.546875 5.234375,-0.9375 8.75,-3.125 3.515625,-2.1875 5.78125,-6.328125 2.265625,-4.21875 2.265625,-9.6875 0,-6.40625 -3.28125,-11.09375 -3.28125,-4.765625 -9.140625,-6.640625 -5.78125,-1.953125 -16.71875,-1.953125 H 26.875 Z"
       style="font-style:normal;font-weight:normal;font-size:160px;font-family:Arial;fill:#000000;stroke:none"
       id="path928"
       inkscape:connector-curvature="0" />
    <path
       d="m 117.42188,0 v -82.96875 h 12.65624 v 11.796875 q 9.14063,-13.671875 26.40625,-13.671875 7.5,0 13.75,2.734375 6.32813,2.65625 9.45313,7.03125 3.125,4.375 4.375,10.390625 0.78125,3.90625 0.78125,13.671875 V 0 h -14.0625 v -50.46875 q 0,-8.59375 -1.64063,-12.8125 -1.64062,-4.296875 -5.85937,-6.796875 -4.14063,-2.578125 -9.76563,-2.578125 -8.98437,0 -15.54687,5.703125 -6.48438,5.703125 -6.48438,21.640625 V 0 Z"
       style="font-style:normal;font-weight:normal;font-size:160px;font-family:Arial;fill:#000000;stroke:none"
       id="path930"
       inkscape:connector-curvature="0" />
    <path
       d="m 203.67187,-55.78125 q 0,-28.515625 15.3125,-44.60938 15.3125,-16.17187 39.53125,-16.17187 15.85938,0 28.59375,7.57812 12.73438,7.57813 19.375,21.17188 6.71875,13.515625 6.71875,30.703125 0,17.421875 -7.03125,31.171875 -7.03125,13.75 -19.92187,20.859375 -12.89063,7.03125 -27.8125,7.03125 -16.17188,0 -28.90625,-7.8125 -12.73438,-7.8125 -19.29688,-21.328125 -6.5625,-13.515625 -6.5625,-28.59375 z m 15.625,0.234375 q 0,20.703125 11.09375,32.65625 11.17188,11.875 27.96875,11.875 17.10938,0 28.125,-12.03125 11.09375,-12.03125 11.09375,-34.140625 0,-13.984375 -4.76562,-24.375 -4.6875,-10.46875 -13.82813,-16.171875 -9.0625,-5.781255 -20.39062,-5.781255 -16.09375,0 -27.73438,11.093755 -11.5625,11.015625 -11.5625,36.875 z"
       style="font-style:normal;font-weight:normal;font-size:160px;font-family:Arial;fill:#000000;stroke:none"
       id="path932"
       inkscape:connector-curvature="0" />
  </g>
  <path
     stroke="none"
     fill="#000000"
     transform="matrix(0.0666667 0 0 0.0666667 -32.0894 -15.3333)"
     d="M 859.781,734.428 L 854.679,725.591 L 1006.25,638.079 L 968.778,671.499 L 859.781,734.428 Z "
     id="path72" />
</svg>
