<?xml version="1.0" encoding="UTF-8" standalone="no"?>
<svg
   xmlns:dc="http://purl.org/dc/elements/1.1/"
   xmlns:cc="http://creativecommons.org/ns#"
   xmlns:rdf="http://www.w3.org/1999/02/22-rdf-syntax-ns#"
   xmlns:svg="http://www.w3.org/2000/svg"
   xmlns="http://www.w3.org/2000/svg"
   xmlns:sodipodi="http://sodipodi.sourceforge.net/DTD/sodipodi-0.dtd"
   xmlns:inkscape="http://www.inkscape.org/namespaces/inkscape"
   width="167px"
   height="85px"
   viewBox="0 0 167 85"
   style="background-color: #ffffff00"
   version="1.1"
   id="svg98"
   sodipodi:docname="glu-tet.pmp.svg"
   inkscape:version="0.92.4 (5da689c313, 2019-01-14)">
  <metadata
     id="metadata104">
    <rdf:RDF>
      <cc:Work
         rdf:about="">
        <dc:format>image/svg+xml</dc:format>
        <dc:type
           rdf:resource="http://purl.org/dc/dcmitype/StillImage" />
      </cc:Work>
    </rdf:RDF>
  </metadata>
  <defs
     id="defs102" />
  <sodipodi:namedview
     pagecolor="#ffffff"
     bordercolor="#666666"
     borderopacity="1"
     objecttolerance="10"
     gridtolerance="10"
     guidetolerance="10"
     inkscape:pageopacity="0"
     inkscape:pageshadow="2"
     inkscape:window-width="741"
     inkscape:window-height="480"
     id="namedview100"
     showgrid="false"
     inkscape:zoom="2.0538922"
     inkscape:cx="22.883382"
     inkscape:cy="42.5"
     inkscape:window-x="0"
     inkscape:window-y="0"
     inkscape:window-maximized="0"
     inkscape:current-layer="svg98" />
  <g
     aria-label="H"
     transform="matrix(0.0666667,0,0,0.0666667,56.683,19.7175)"
     style="font-style:normal;font-weight:normal;font-size:160px;font-family:Arial;fill:#000000;stroke:none"
     id="text2">
    <path
       d="M 12.8125,0 V -114.53125 H 27.96875 V -67.5 H 87.5 v -47.03125 h 15.15625 V 0 H 87.5 V -53.984375 H 27.96875 V 0 Z"
       style="font-style:normal;font-weight:normal;font-size:160px;font-family:Arial;fill:#000000;stroke:none"
       id="path911"
       inkscape:connector-curvature="0" />
  </g>
  <g
     aria-label="N"
     transform="matrix(0.0666667,0,0,0.0666667,56.683,30.3841)"
     style="font-style:normal;font-weight:normal;font-size:160px;font-family:Arial;fill:#000000;stroke:none"
     id="text4">
    <path
       d="m 12.1875,0 v -114.53125 h 15.546875 l 60.15625,89.921875 V -114.53125 H 102.42188 V 0 H 86.875 L 26.71875,-90 V 0 Z"
       style="font-style:normal;font-weight:normal;font-size:160px;font-family:Arial;fill:#000000;stroke:none"
       id="path914"
       inkscape:connector-curvature="0" />
  </g>
  <path
     stroke="none"
     fill="#000000"
     transform="matrix(0.0666667 0 0 0.0666667 -14.0894 -44)"
     d="M 924.432,1396.28 L 914.227,1402.17 L 914.227,1171.46 L 919.33,1168.25 L 924.432,1171.19 L 924.432,1396.28 Z "
     id="path6" />
  <path
     stroke="none"
     fill="#000000"
     transform="matrix(0.0666667 0 0 0.0666667 -14.0894 -44)"
     d="M 1119.36,1508.82 L 1119.36,1514.71 L 1113.92,1517.46 L 914.227,1402.17 L 924.432,1396.28 L 1119.36,1508.82 Z "
     id="path8" />
  <path
     stroke="none"
     fill="#000000"
     transform="matrix(0.0666667 0 0 0.0666667 -14.0894 -44)"
     d="M 1314.29,1396.28 L 1324.49,1402.17 L 1124.8,1517.46 L 1119.36,1514.71 L 1119.36,1508.82 L 1314.29,1396.28 Z "
     id="path10" />
  <path
     stroke="none"
     fill="#000000"
     transform="matrix(0.0666667 0 0 0.0666667 -14.0894 -44)"
     d="M 1314.29,1171.19 L 1324.49,1165.3 L 1324.49,1402.17 L 1314.29,1396.28 L 1314.29,1171.19 Z "
     id="path12" />
  <path
     stroke="none"
     fill="#000000"
     transform="matrix(0.0666667 0 0 0.0666667 -14.0894 -44)"
     d="M 1198.91,1104.58 L 1204.01,1095.74 L 1324.49,1165.3 L 1314.29,1171.19 L 1198.91,1104.58 Z "
     id="path14" />
  <path
     stroke="none"
     fill="#000000"
     transform="matrix(0.0666667 0 0 0.0666667 -14.0894 -44)"
     d="M 924.432,1171.19 L 919.33,1168.25 L 919.557,1162.23 L 1034.3,1095.98 L 1039.4,1104.82 L 924.432,1171.19 Z "
     id="path16" />
  <path
     stroke="none"
     fill="#000000"
     transform="matrix(0.0666667 0 0 0.0666667 -14.0894 -44)"
     d="M 1472.51,1052.35 L 1496.32,1093.59 L 1486.84,1097.59 L 1464.31,1058.56 L 1472.51,1052.35 Z "
     id="path18" />
  <path
     stroke="none"
     fill="#000000"
     transform="matrix(0.0666667 0 0 0.0666667 -14.0894 -44)"
     d="M 1435.02,1080.71 L 1453.02,1111.88 L 1443.55,1115.88 L 1426.82,1086.91 L 1435.02,1080.71 Z "
     id="path20" />
  <path
     stroke="none"
     fill="#000000"
     transform="matrix(0.0666667 0 0 0.0666667 -14.0894 -44)"
     d="M 1397.53,1109.06 L 1409.72,1130.17 L 1400.25,1134.17 L 1389.33,1115.26 L 1397.53,1109.06 Z "
     id="path22" />
  <path
     stroke="none"
     fill="#000000"
     transform="matrix(0.0666667 0 0 0.0666667 -14.0894 -44)"
     d="M 1360.05,1137.42 L 1366.42,1148.46 L 1356.95,1152.46 L 1351.85,1143.62 L 1360.05,1137.42 Z "
     id="path24" />
  <path
     stroke="none"
     fill="#000000"
     transform="matrix(0.0666667 0 0 0.0666667 -14.0894 -44)"
     d="M 589.533,1132.77 L 584.43,1123.93 L 736.706,1036.02 L 699.229,1069.44 L 589.533,1132.77 Z "
     id="path26" />
  <path
     stroke="none"
     fill="#000000"
     transform="matrix(0.0666667 0 0 0.0666667 -14.0894 -44)"
     d="M 699.229,1069.44 L 736.706,1036.02 L 919.557,1162.23 L 919.33,1168.25 L 914.227,1171.46 L 699.229,1069.44 Z "
     id="path28" />
  <g
     aria-label="BnO"
     transform="matrix(0.0666667,0,0,0.0666667,16.6221,61.2076)"
     style="font-style:normal;font-weight:normal;font-size:160px;font-family:Arial;fill:#000000;stroke:none"
     id="text30">
    <path
       d="M 11.71875,0 V -114.53125 H 54.6875 q 13.125,0 21.015625,3.51562 7.96875,3.4375 12.421875,10.70313 4.53125,7.1875 4.53125,15.078125 0,7.34375 -3.984375,13.828125 -3.984375,6.484375 -12.03125,10.46875 10.390625,3.046875 15.9375,10.390625 5.625,7.34375 5.625,17.34375 0,8.046875 -3.4375,15 -3.359375,6.875 -8.359375,10.625 -5,3.75 -12.578125,5.703125 Q 66.328125,0 55.390625,0 Z M 26.875,-66.40625 h 24.765625 q 10.078125,0 14.453125,-1.328125 5.78125,-1.71875 8.671875,-5.703125 2.96875,-3.984375 2.96875,-10 0,-5.703125 -2.734375,-10 -2.734375,-4.375 -7.8125,-5.9375 -5.078125,-1.64063 -17.421875,-1.64063 H 26.875 Z m 0,52.890625 h 28.515625 q 7.34375,0 10.3125,-0.546875 5.234375,-0.9375 8.75,-3.125 3.515625,-2.1875 5.78125,-6.328125 2.265625,-4.21875 2.265625,-9.6875 0,-6.40625 -3.28125,-11.09375 -3.28125,-4.765625 -9.140625,-6.640625 -5.78125,-1.953125 -16.71875,-1.953125 H 26.875 Z"
       style="font-style:normal;font-weight:normal;font-size:160px;font-family:Arial;fill:#000000;stroke:none"
       id="path917"
       inkscape:connector-curvature="0" />
    <path
       d="m 117.42188,0 v -82.96875 h 12.65624 v 11.796875 q 9.14063,-13.671875 26.40625,-13.671875 7.5,0 13.75,2.734375 6.32813,2.65625 9.45313,7.03125 3.125,4.375 4.375,10.390625 0.78125,3.90625 0.78125,13.671875 V 0 h -14.0625 v -50.46875 q 0,-8.59375 -1.64063,-12.8125 -1.64062,-4.296875 -5.85937,-6.796875 -4.14063,-2.578125 -9.76563,-2.578125 -8.98437,0 -15.54687,5.703125 -6.48438,5.703125 -6.48438,21.640625 V 0 Z"
       style="font-style:normal;font-weight:normal;font-size:160px;font-family:Arial;fill:#000000;stroke:none"
       id="path919"
       inkscape:connector-curvature="0" />
    <path
       d="m 203.67187,-55.78125 q 0,-28.515625 15.3125,-44.60938 15.3125,-16.17187 39.53125,-16.17187 15.85938,0 28.59375,7.57812 12.73438,7.57813 19.375,21.17188 6.71875,13.515625 6.71875,30.703125 0,17.421875 -7.03125,31.171875 -7.03125,13.75 -19.92187,20.859375 -12.89063,7.03125 -27.8125,7.03125 -16.17188,0 -28.90625,-7.8125 -12.73438,-7.8125 -19.29688,-21.328125 -6.5625,-13.515625 -6.5625,-28.59375 z m 15.625,0.234375 q 0,20.703125 11.09375,32.65625 11.17188,11.875 27.96875,11.875 17.10938,0 28.125,-12.03125 11.09375,-12.03125 11.09375,-34.140625 0,-13.984375 -4.76562,-24.375 -4.6875,-10.46875 -13.82813,-16.171875 -9.0625,-5.781255 -20.39062,-5.781255 -16.09375,0 -27.73438,11.093755 -11.5625,11.015625 -11.5625,36.875 z"
       style="font-style:normal;font-weight:normal;font-size:160px;font-family:Arial;fill:#000000;stroke:none"
       id="path921"
       inkscape:connector-curvature="0" />
  </g>
  <path
     stroke="none"
     fill="#000000"
     transform="matrix(0.0666667 0 0 0.0666667 -14.0894 -44)"
     d="M 799.614,1495.84 L 775.803,1454.59 L 785.497,1450.98 L 807.595,1489.25 L 799.614,1495.84 Z "
     id="path32" />
  <path
     stroke="none"
     fill="#000000"
     transform="matrix(0.0666667 0 0 0.0666667 -14.0894 -44)"
     d="M 839.214,1463.16 L 823.901,1436.64 L 833.595,1433.02 L 847.195,1456.58 L 839.214,1463.16 Z "
     id="path34" />
  <path
     stroke="none"
     fill="#000000"
     transform="matrix(0.0666667 0 0 0.0666667 -14.0894 -44)"
     d="M 878.814,1430.48 L 871.999,1418.68 L 881.693,1415.06 L 886.795,1423.9 L 878.814,1430.48 Z "
     id="path36" />
  <g
     aria-label="OBn"
     transform="matrix(0.0666667,0,0,0.0666667,56.3861,76.6327)"
     style="font-style:normal;font-weight:normal;font-size:160px;font-family:Arial;fill:#000000;stroke:none"
     id="text38">
    <path
       d="m 7.734375,-55.78125 q 0,-28.515625 15.3125,-44.60938 15.3125,-16.17187 39.53125,-16.17187 15.859375,0 28.59375,7.57812 12.734375,7.57813 19.375005,21.17188 6.71875,13.515625 6.71875,30.703125 0,17.421875 -7.03125,31.171875 -7.03125,13.75 -19.92188,20.859375 -12.890625,7.03125 -27.8125,7.03125 -16.171875,0 -28.90625,-7.8125 -12.734375,-7.8125 -19.296875,-21.328125 -6.5625,-13.515625 -6.5625,-28.59375 z m 15.625,0.234375 q 0,20.703125 11.09375,32.65625 11.171875,11.875 27.96875,11.875 17.109375,0 28.125,-12.03125 11.093755,-12.03125 11.093755,-34.140625 0,-13.984375 -4.76563,-24.375 -4.6875,-10.46875 -13.828125,-16.171875 -9.0625,-5.781255 -20.390625,-5.781255 -16.09375,0 -27.734375,11.093755 -11.5625,11.015625 -11.5625,36.875 z"
       style="font-style:normal;font-weight:normal;font-size:160px;font-family:Arial;fill:#000000;stroke:none"
       id="path924"
       inkscape:connector-curvature="0" />
    <path
       d="m 136.09375,0 v -114.53125 h 42.96875 q 13.125,0 21.01562,3.51562 7.96875,3.4375 12.42188,10.70313 4.53125,7.1875 4.53125,15.078125 0,7.34375 -3.98438,13.828125 -3.98437,6.484375 -12.03125,10.46875 10.39063,3.046875 15.9375,10.390625 5.625,7.34375 5.625,17.34375 0,8.046875 -3.4375,15 -3.35937,6.875 -8.35937,10.625 -5,3.75 -12.57813,5.703125 Q 190.70312,0 179.76562,0 Z M 151.25,-66.40625 h 24.76562 q 10.07813,0 14.45313,-1.328125 5.78125,-1.71875 8.67187,-5.703125 2.96875,-3.984375 2.96875,-10 0,-5.703125 -2.73437,-10 -2.73438,-4.375 -7.8125,-5.9375 -5.07813,-1.64063 -17.42188,-1.64063 H 151.25 Z m 0,52.890625 h 28.51562 q 7.34375,0 10.3125,-0.546875 5.23438,-0.9375 8.75,-3.125 3.51563,-2.1875 5.78125,-6.328125 2.26563,-4.21875 2.26563,-9.6875 0,-6.40625 -3.28125,-11.09375 -3.28125,-4.765625 -9.14063,-6.640625 -5.78125,-1.953125 -16.71875,-1.953125 H 151.25 Z"
       style="font-style:normal;font-weight:normal;font-size:160px;font-family:Arial;fill:#000000;stroke:none"
       id="path926"
       inkscape:connector-curvature="0" />
    <path
       d="m 241.79687,0 v -82.96875 h 12.65625 v 11.796875 q 9.14063,-13.671875 26.40625,-13.671875 7.5,0 13.75,2.734375 6.32813,2.65625 9.45313,7.03125 3.125,4.375 4.375,10.390625 0.78125,3.90625 0.78125,13.671875 V 0 h -14.0625 v -50.46875 q 0,-8.59375 -1.64063,-12.8125 -1.64062,-4.296875 -5.85937,-6.796875 -4.14063,-2.578125 -9.76563,-2.578125 -8.98437,0 -15.54687,5.703125 -6.48438,5.703125 -6.48438,21.640625 V 0 Z"
       style="font-style:normal;font-weight:normal;font-size:160px;font-family:Arial;fill:#000000;stroke:none"
       id="path928"
       inkscape:connector-curvature="0" />
  </g>
  <path
     stroke="none"
     fill="#000000"
     transform="matrix(0.0666667 0 0 0.0666667 -14.0894 -44)"
     d="M 1143.17,1668.16 L 1095.55,1668.16 L 1113.92,1517.46 L 1119.36,1514.71 L 1124.8,1517.46 L 1143.17,1668.16 Z "
     id="path40" />
  <g
     aria-label="OBn"
     transform="matrix(0.0666667,0,0,0.0666667,83.1032,61.2076)"
     style="font-style:normal;font-weight:normal;font-size:160px;font-family:Arial;fill:#000000;stroke:none"
     id="text42">
    <path
       d="m 7.734375,-55.78125 q 0,-28.515625 15.3125,-44.60938 15.3125,-16.17187 39.53125,-16.17187 15.859375,0 28.59375,7.57812 12.734375,7.57813 19.375005,21.17188 6.71875,13.515625 6.71875,30.703125 0,17.421875 -7.03125,31.171875 -7.03125,13.75 -19.92188,20.859375 -12.890625,7.03125 -27.8125,7.03125 -16.171875,0 -28.90625,-7.8125 -12.734375,-7.8125 -19.296875,-21.328125 -6.5625,-13.515625 -6.5625,-28.59375 z m 15.625,0.234375 q 0,20.703125 11.09375,32.65625 11.171875,11.875 27.96875,11.875 17.109375,0 28.125,-12.03125 11.093755,-12.03125 11.093755,-34.140625 0,-13.984375 -4.76563,-24.375 -4.6875,-10.46875 -13.828125,-16.171875 -9.0625,-5.781255 -20.390625,-5.781255 -16.09375,0 -27.734375,11.093755 -11.5625,11.015625 -11.5625,36.875 z"
       style="font-style:normal;font-weight:normal;font-size:160px;font-family:Arial;fill:#000000;stroke:none"
       id="path931"
       inkscape:connector-curvature="0" />
    <path
       d="m 136.09375,0 v -114.53125 h 42.96875 q 13.125,0 21.01562,3.51562 7.96875,3.4375 12.42188,10.70313 4.53125,7.1875 4.53125,15.078125 0,7.34375 -3.98438,13.828125 -3.98437,6.484375 -12.03125,10.46875 10.39063,3.046875 15.9375,10.390625 5.625,7.34375 5.625,17.34375 0,8.046875 -3.4375,15 -3.35937,6.875 -8.35937,10.625 -5,3.75 -12.57813,5.703125 Q 190.70312,0 179.76562,0 Z M 151.25,-66.40625 h 24.76562 q 10.07813,0 14.45313,-1.328125 5.78125,-1.71875 8.67187,-5.703125 2.96875,-3.984375 2.96875,-10 0,-5.703125 -2.73437,-10 -2.73438,-4.375 -7.8125,-5.9375 -5.07813,-1.64063 -17.42188,-1.64063 H 151.25 Z m 0,52.890625 h 28.51562 q 7.34375,0 10.3125,-0.546875 5.23438,-0.9375 8.75,-3.125 3.51563,-2.1875 5.78125,-6.328125 2.26563,-4.21875 2.26563,-9.6875 0,-6.40625 -3.28125,-11.09375 -3.28125,-4.765625 -9.14063,-6.640625 -5.78125,-1.953125 -16.71875,-1.953125 H 151.25 Z"
       style="font-style:normal;font-weight:normal;font-size:160px;font-family:Arial;fill:#000000;stroke:none"
       id="path933"
       inkscape:connector-curvature="0" />
    <path
       d="m 241.79687,0 v -82.96875 h 12.65625 v 11.796875 q 9.14063,-13.671875 26.40625,-13.671875 7.5,0 13.75,2.734375 6.32813,2.65625 9.45313,7.03125 3.125,4.375 4.375,10.390625 0.78125,3.90625 0.78125,13.671875 V 0 h -14.0625 v -50.46875 q 0,-8.59375 -1.64063,-12.8125 -1.64062,-4.296875 -5.85937,-6.796875 -4.14063,-2.578125 -9.76563,-2.578125 -8.98437,0 -15.54687,5.703125 -6.48438,5.703125 -6.48438,21.640625 V 0 Z"
       style="font-style:normal;font-weight:normal;font-size:160px;font-family:Arial;fill:#000000;stroke:none"
       id="path935"
       inkscape:connector-curvature="0" />
  </g>
  <path
     stroke="none"
     fill="#000000"
     transform="matrix(0.0666667 0 0 0.0666667 -14.0894 -44)"
     d="M 1463.32,1454.83 L 1439.51,1496.07 L 1431.52,1489.49 L 1453.63,1451.2 L 1463.32,1454.83 Z "
     id="path44" />
  <path
     stroke="none"
     fill="#000000"
     transform="matrix(0.0666667 0 0 0.0666667 -14.0894 -44)"
     d="M 1414.95,1436.72 L 1399.65,1463.24 L 1391.66,1456.66 L 1405.26,1433.09 L 1414.95,1436.72 Z "
     id="path46" />
  <path
     stroke="none"
     fill="#000000"
     transform="matrix(0.0666667 0 0 0.0666667 -14.0894 -44)"
     d="M 1366.59,1418.62 L 1359.79,1430.4 L 1351.8,1423.83 L 1356.9,1414.99 L 1366.59,1418.62 Z "
     id="path48" />
  <g
     aria-label="BnO"
     transform="matrix(0.0666667,0,0,0.0666667,3.24028,38.0833)"
     style="font-style:normal;font-weight:normal;font-size:160px;font-family:Arial;fill:#000000;stroke:none"
     id="text50">
    <path
       d="M 11.71875,0 V -114.53125 H 54.6875 q 13.125,0 21.015625,3.51562 7.96875,3.4375 12.421875,10.70313 4.53125,7.1875 4.53125,15.078125 0,7.34375 -3.984375,13.828125 -3.984375,6.484375 -12.03125,10.46875 10.390625,3.046875 15.9375,10.390625 5.625,7.34375 5.625,17.34375 0,8.046875 -3.4375,15 -3.359375,6.875 -8.359375,10.625 -5,3.75 -12.578125,5.703125 Q 66.328125,0 55.390625,0 Z M 26.875,-66.40625 h 24.765625 q 10.078125,0 14.453125,-1.328125 5.78125,-1.71875 8.671875,-5.703125 2.96875,-3.984375 2.96875,-10 0,-5.703125 -2.734375,-10 -2.734375,-4.375 -7.8125,-5.9375 -5.078125,-1.64063 -17.421875,-1.64063 H 26.875 Z m 0,52.890625 h 28.515625 q 7.34375,0 10.3125,-0.546875 5.234375,-0.9375 8.75,-3.125 3.515625,-2.1875 5.78125,-6.328125 2.265625,-4.21875 2.265625,-9.6875 0,-6.40625 -3.28125,-11.09375 -3.28125,-4.765625 -9.140625,-6.640625 -5.78125,-1.953125 -16.71875,-1.953125 H 26.875 Z"
       style="font-style:normal;font-weight:normal;font-size:160px;font-family:Arial;fill:#000000;stroke:none"
       id="path938"
       inkscape:connector-curvature="0" />
    <path
       d="m 117.42188,0 v -82.96875 h 12.65624 v 11.796875 q 9.14063,-13.671875 26.40625,-13.671875 7.5,0 13.75,2.734375 6.32813,2.65625 9.45313,7.03125 3.125,4.375 4.375,10.390625 0.78125,3.90625 0.78125,13.671875 V 0 h -14.0625 v -50.46875 q 0,-8.59375 -1.64063,-12.8125 -1.64062,-4.296875 -5.85937,-6.796875 -4.14063,-2.578125 -9.76563,-2.578125 -8.98437,0 -15.54687,5.703125 -6.48438,5.703125 -6.48438,21.640625 V 0 Z"
       style="font-style:normal;font-weight:normal;font-size:160px;font-family:Arial;fill:#000000;stroke:none"
       id="path940"
       inkscape:connector-curvature="0" />
    <path
       d="m 203.67187,-55.78125 q 0,-28.515625 15.3125,-44.60938 15.3125,-16.17187 39.53125,-16.17187 15.85938,0 28.59375,7.57812 12.73438,7.57813 19.375,21.17188 6.71875,13.515625 6.71875,30.703125 0,17.421875 -7.03125,31.171875 -7.03125,13.75 -19.92187,20.859375 -12.89063,7.03125 -27.8125,7.03125 -16.17188,0 -28.90625,-7.8125 -12.73438,-7.8125 -19.29688,-21.328125 -6.5625,-13.515625 -6.5625,-28.59375 z m 15.625,0.234375 q 0,20.703125 11.09375,32.65625 11.17188,11.875 27.96875,11.875 17.10938,0 28.125,-12.03125 11.09375,-12.03125 11.09375,-34.140625 0,-13.984375 -4.76562,-24.375 -4.6875,-10.46875 -13.82813,-16.171875 -9.0625,-5.781255 -20.39062,-5.781255 -16.09375,0 -27.73438,11.093755 -11.5625,11.015625 -11.5625,36.875 z"
       style="font-style:normal;font-weight:normal;font-size:160px;font-family:Arial;fill:#000000;stroke:none"
       id="path942"
       inkscape:connector-curvature="0" />
  </g>
  <path
     stroke="none"
     fill="#000000"
     transform="matrix(0.0666667 0 0 0.0666667 -14.0894 -44)"
     d="M 1894.71,1303.77 L 1893.18,1309.46 L 1887.49,1310.99 L 1798.82,1222.31 L 1806.03,1215.1 L 1894.71,1303.77 Z "
     id="path52" />
  <path
     stroke="none"
     fill="#000000"
     transform="matrix(0.0666667 0 0 0.0666667 -14.0894 -44)"
     d="M 1524.88,1049.61 L 1513.96,1055.91 L 1529.22,910.688 L 1539.37,911.754 L 1524.88,1049.61 Z "
     id="path54" />
  <path
     stroke="none"
     fill="#000000"
     transform="matrix(0.0666667 0 0 0.0666667 -14.0894 -44)"
     d="M 1569,1027.6 L 1558.85,1026.53 L 1570.57,915.033 L 1580.72,916.1 L 1569,1027.6 Z "
     id="path56" />
  <path
     stroke="none"
     fill="#000000"
     transform="matrix(0.0666667 0 0 0.0666667 -14.0894 -44)"
     d="M 1620.71,811.871 L 1618.59,801.889 L 1691.82,786.323 L 1693.94,796.304 L 1620.71,811.871 Z "
     id="path58" />
  <path
     stroke="none"
     fill="#000000"
     transform="matrix(0.0666667 0 0 0.0666667 -14.0894 -44)"
     d="M 1816.41,866.498 L 1825.25,861.396 L 1843.55,893.105 L 1834.71,898.207 L 1816.41,866.498 Z "
     id="path60" />
  <path
     stroke="none"
     fill="#000000"
     transform="matrix(0.0666667 0 0 0.0666667 -14.0894 -44)"
     d="M 1780.4,887.286 L 1789.24,882.184 L 1807.55,913.892 L 1798.71,918.995 L 1780.4,887.286 Z "
     id="path62" />
  <path
     stroke="none"
     fill="#000000"
     transform="matrix(0.0666667 0 0 0.0666667 -14.0894 -44)"
     d="M 1812.41,1048.02 L 1820,1054.85 L 1796.28,1081.19 L 1788.7,1074.37 L 1812.41,1048.02 Z "
     id="path64" />
  <path
     stroke="none"
     fill="#000000"
     transform="matrix(0.0666667 0 0 0.0666667 -14.0894 -44)"
     d="M 1652.8,1106.56 L 1648.65,1115.89 L 1513.96,1055.91 L 1524.88,1049.61 L 1652.8,1106.56 Z "
     id="path66" />
  <g
     aria-label="N"
     transform="matrix(0.0666667,0,0,0.0666667,84.9631,15.0701)"
     style="font-style:normal;font-weight:normal;font-size:160px;font-family:Arial;fill:#000000;stroke:none"
     id="text68">
    <path
       d="m 12.1875,0 v -114.53125 h 15.546875 l 60.15625,89.921875 V -114.53125 H 102.42188 V 0 H 86.875 L 26.71875,-90 V 0 Z"
       style="font-style:normal;font-weight:normal;font-size:160px;font-family:Arial;fill:#000000;stroke:none"
       id="path945"
       inkscape:connector-curvature="0" />
  </g>
  <g
     aria-label="N"
     transform="matrix(0.0666667,0,0,0.0666667,100.025,11.8687)"
     style="font-style:normal;font-weight:normal;font-size:160px;font-family:Arial;fill:#000000;stroke:none"
     id="text70">
    <path
       d="m 12.1875,0 v -114.53125 h 15.546875 l 60.15625,89.921875 V -114.53125 H 102.42188 V 0 H 86.875 L 26.71875,-90 V 0 Z"
       style="font-style:normal;font-weight:normal;font-size:160px;font-family:Arial;fill:#000000;stroke:none"
       id="path948"
       inkscape:connector-curvature="0" />
  </g>
  <g
     aria-label="N"
     transform="matrix(0.0666667,0,0,0.0666667,107.724,25.204)"
     style="font-style:normal;font-weight:normal;font-size:160px;font-family:Arial;fill:#000000;stroke:none"
     id="text72">
    <path
       d="m 12.1875,0 v -114.53125 h 15.546875 l 60.15625,89.921875 V -114.53125 H 102.42188 V 0 H 86.875 L 26.71875,-90 V 0 Z"
       style="font-style:normal;font-weight:normal;font-size:160px;font-family:Arial;fill:#000000;stroke:none"
       id="path951"
       inkscape:connector-curvature="0" />
  </g>
  <g
     aria-label="N"
     transform="matrix(0.0666667,0,0,0.0666667,97.4207,36.6472)"
     style="font-style:normal;font-weight:normal;font-size:160px;font-family:Arial;fill:#000000;stroke:none"
     id="text74">
    <path
       d="m 12.1875,0 v -114.53125 h 15.546875 l 60.15625,89.921875 V -114.53125 H 102.42188 V 0 H 86.875 L 26.71875,-90 V 0 Z"
       style="font-style:normal;font-weight:normal;font-size:160px;font-family:Arial;fill:#000000;stroke:none"
       id="path954"
       inkscape:connector-curvature="0" />
  </g>
  <path
     stroke="none"
     fill="#000000"
     transform="matrix(0.0666667 0 0 0.0666667 -14.0894 -44)"
     d="M 1839.3,1530.27 L 1827.92,1533.32 L 1887.49,1310.99 L 1893.18,1309.46 L 1897.35,1313.63 L 1839.3,1530.27 Z "
     id="path76" />
  <path
     stroke="none"
     fill="#000000"
     transform="matrix(0.0666667 0 0 0.0666667 -14.0894 -44)"
     d="M 1884.75,1520.73 L 1874.89,1518.09 L 1922.08,1341.97 L 1931.94,1344.61 L 1884.75,1520.73 Z "
     id="path78" />
  <path
     stroke="none"
     fill="#000000"
     transform="matrix(0.0666667 0 0 0.0666667 -14.0894 -44)"
     d="M 1997.89,1688.86 L 1994.84,1700.24 L 1827.92,1533.32 L 1839.3,1530.27 L 1997.89,1688.86 Z "
     id="path80" />
  <path
     stroke="none"
     fill="#000000"
     transform="matrix(0.0666667 0 0 0.0666667 -14.0894 -44)"
     d="M 2214.53,1630.81 L 2218.7,1634.98 L 2217.17,1640.67 L 1994.84,1700.24 L 1997.89,1688.86 L 2214.53,1630.81 Z "
     id="path82" />
  <path
     stroke="none"
     fill="#000000"
     transform="matrix(0.0666667 0 0 0.0666667 -14.0894 -44)"
     d="M 2183.55,1596.22 L 2186.19,1606.08 L 2010.07,1653.27 L 2007.43,1643.41 L 2183.55,1596.22 Z "
     id="path84" />
  <path
     stroke="none"
     fill="#000000"
     transform="matrix(0.0666667 0 0 0.0666667 -14.0894 -44)"
     d="M 2272.58,1414.17 L 2283.96,1411.12 L 2224.39,1633.45 L 2218.7,1634.98 L 2214.53,1630.81 L 2272.58,1414.17 Z "
     id="path86" />
  <path
     stroke="none"
     fill="#000000"
     transform="matrix(0.0666667 0 0 0.0666667 -14.0894 -44)"
     d="M 2113.99,1255.58 L 2117.04,1244.2 L 2283.96,1411.12 L 2272.58,1414.17 L 2113.99,1255.58 Z "
     id="path88" />
  <path
     stroke="none"
     fill="#000000"
     transform="matrix(0.0666667 0 0 0.0666667 -14.0894 -44)"
     d="M 2099.52,1299.71 L 2106.74,1292.49 L 2235.67,1421.42 L 2228.45,1428.64 L 2099.52,1299.71 Z "
     id="path90" />
  <path
     stroke="none"
     fill="#000000"
     transform="matrix(0.0666667 0 0 0.0666667 -14.0894 -44)"
     d="M 1897.35,1313.63 L 1893.18,1309.46 L 1894.71,1303.77 L 2117.04,1244.2 L 2113.99,1255.58 L 1897.35,1313.63 Z "
     id="path92" />
  <g
     aria-label="OMe"
     transform="matrix(0.0666667,0,0,0.0666667,140.526,80.049)"
     style="font-style:normal;font-weight:normal;font-size:160px;font-family:Arial;fill:#000000;stroke:none"
     id="text94">
    <path
       d="m 7.734375,-55.78125 q 0,-28.515625 15.3125,-44.60938 15.3125,-16.17187 39.53125,-16.17187 15.859375,0 28.59375,7.57812 12.734375,7.57813 19.375005,21.17188 6.71875,13.515625 6.71875,30.703125 0,17.421875 -7.03125,31.171875 -7.03125,13.75 -19.92188,20.859375 -12.890625,7.03125 -27.8125,7.03125 -16.171875,0 -28.90625,-7.8125 -12.734375,-7.8125 -19.296875,-21.328125 -6.5625,-13.515625 -6.5625,-28.59375 z m 15.625,0.234375 q 0,20.703125 11.09375,32.65625 11.171875,11.875 27.96875,11.875 17.109375,0 28.125,-12.03125 11.093755,-12.03125 11.093755,-34.140625 0,-13.984375 -4.76563,-24.375 -4.6875,-10.46875 -13.828125,-16.171875 -9.0625,-5.781255 -20.390625,-5.781255 -16.09375,0 -27.734375,11.093755 -11.5625,11.015625 -11.5625,36.875 z"
       style="font-style:normal;font-weight:normal;font-size:160px;font-family:Arial;fill:#000000;stroke:none"
       id="path957"
       inkscape:connector-curvature="0" />
    <path
       d="m 136.25,0 v -114.53125 h 22.8125 l 27.10937,81.09375 q 3.75,11.328125 5.46875,16.953125 1.95313,-6.25 6.09375,-18.359375 l 27.42188,-79.6875 h 20.39062 V 0 H 230.9375 V -95.859375 L 197.65625,0 h -13.67188 l -33.125,-97.5 V 0 Z"
       style="font-style:normal;font-weight:normal;font-size:160px;font-family:Arial;fill:#000000;stroke:none"
       id="path959"
       inkscape:connector-curvature="0" />
    <path
       d="m 325.15625,-26.71875 14.53125,1.796875 Q 336.25,-12.1875 326.95312,-5.15625 317.65625,1.875 303.20312,1.875 285,1.875 274.29687,-9.296875 q -10.625,-11.25 -10.625,-31.484375 0,-20.9375 10.78125,-32.5 10.78125,-11.5625 27.96875,-11.5625 16.64063,0 27.1875,11.328125 10.54688,11.328125 10.54688,31.875 0,1.25 -0.0781,3.75 h -61.875 q 0.78125,13.671875 7.73438,20.9375 6.95312,7.265625 17.34375,7.265625 7.73437,0 13.20312,-4.0625 5.46875,-4.0625 8.67188,-12.96875 z M 278.98437,-49.453125 H 325.3125 Q 324.375,-59.921875 320,-65.15625 q -6.71875,-8.125 -17.42188,-8.125 -9.6875,0 -16.32812,6.484375 -6.5625,6.484375 -7.26563,17.34375 z"
       style="font-style:normal;font-weight:normal;font-size:160px;font-family:Arial;fill:#000000;stroke:none"
       id="path961"
       inkscape:connector-curvature="0" />
  </g>
  <path
     stroke="none"
     fill="#000000"
     transform="matrix(0.0666667 0 0 0.0666667 -14.0894 -44)"
     d="M 2328.9,1737.96 L 2321.68,1745.18 L 2217.17,1640.67 L 2218.7,1634.98 L 2224.39,1633.45 L 2328.9,1737.96 Z "
     id="path96" />
</svg>
