<?xml version="1.0" encoding="UTF-8" standalone="no"?>
<svg
   xmlns:dc="http://purl.org/dc/elements/1.1/"
   xmlns:cc="http://creativecommons.org/ns#"
   xmlns:rdf="http://www.w3.org/1999/02/22-rdf-syntax-ns#"
   xmlns:svg="http://www.w3.org/2000/svg"
   xmlns="http://www.w3.org/2000/svg"
   xmlns:sodipodi="http://sodipodi.sourceforge.net/DTD/sodipodi-0.dtd"
   xmlns:inkscape="http://www.inkscape.org/namespaces/inkscape"
   width="405px"
   height="317px"
   viewBox="0 0 405 317"
   style="background-color: #ffffff00"
   version="1.1"
   id="svg328"
   sodipodi:docname="calc-imine.svg"
   inkscape:version="0.92.3 (2405546, 2018-03-11)">
  <metadata
     id="metadata334">
    <rdf:RDF>
      <cc:Work
         rdf:about="">
        <dc:format>image/svg+xml</dc:format>
        <dc:type
           rdf:resource="http://purl.org/dc/dcmitype/StillImage" />
      </cc:Work>
    </rdf:RDF>
  </metadata>
  <defs
     id="defs332" />
  <sodipodi:namedview
     pagecolor="#ffffff"
     bordercolor="#666666"
     borderopacity="1"
     objecttolerance="10"
     gridtolerance="10"
     guidetolerance="10"
     inkscape:pageopacity="0"
     inkscape:pageshadow="2"
     inkscape:window-width="1280"
     inkscape:window-height="961"
     id="namedview330"
     showgrid="false"
     inkscape:zoom="1.488959"
     inkscape:cx="210.71019"
     inkscape:cy="182.12562"
     inkscape:window-x="1912"
     inkscape:window-y="48"
     inkscape:window-maximized="1"
     inkscape:current-layer="svg328" />
  <g
     aria-label="N"
     transform="matrix(0.0666667,0,0,0.0666667,234.768,144.227)"
     style="font-style:normal;font-weight:normal;font-size:160px;font-family:Arial;fill:#009e73;stroke:none"
     id="text2">
    <path
       d="m 12.1875,0 v -114.53125 h 15.546875 l 60.15625,89.921875 V -114.53125 H 102.42188 V 0 H 86.875 L 26.71875,-90 V 0 Z"
       style="font-style:normal;font-weight:normal;font-size:160px;font-family:Arial;fill:#009e73;stroke:none"
       id="path1141"
       inkscape:connector-curvature="0" />
  </g>
  <path
     stroke="none"
     fill="#009e73"
     transform="matrix(0.0666667 0 0 0.0666667 0.444411 -102.333)"
     d="M 3567.75,3724.4 L 3577.95,3724.4 L 3577.95,3862.63 L 3572.85,3865.57 L 3567.75,3862.63 L 3567.75,3724.4 Z "
     id="path4" />
  <path
     stroke="none"
     fill="#009e73"
     transform="matrix(0.0666667 0 0 0.0666667 0.444411 -102.333)"
     d="M 3772.19,3514.42 L 3772.19,3526.2 L 3652.57,3595.26 L 3647.47,3586.43 L 3772.19,3514.42 Z "
     id="path6" />
  <path
     stroke="none"
     fill="#009e73"
     transform="matrix(0.0666667 0 0 0.0666667 0.444411 -102.333)"
     d="M 3976.62,3632.45 L 3966.42,3638.34 L 3772.19,3526.2 L 3772.19,3514.42 L 3976.62,3632.45 Z "
     id="path8" />
  <path
     stroke="none"
     fill="#009e73"
     transform="matrix(0.0666667 0 0 0.0666667 0.444411 -102.333)"
     d="M 3976.62,3868.52 L 3966.42,3862.63 L 3966.42,3638.34 L 3976.62,3632.45 L 3976.62,3868.52 Z "
     id="path10" />
  <path
     stroke="none"
     fill="#009e73"
     transform="matrix(0.0666667 0 0 0.0666667 0.444411 -102.333)"
     d="M 3772.19,3986.55 L 3772.19,3974.77 L 3966.42,3862.63 L 3976.62,3868.52 L 3772.19,3986.55 Z "
     id="path12" />
  <path
     stroke="none"
     fill="#009e73"
     transform="matrix(0.0666667 0 0 0.0666667 0.444411 -102.333)"
     d="M 3572.85,3871.46 L 3572.85,3865.57 L 3577.95,3862.63 L 3772.19,3974.77 L 3772.19,3986.55 L 3572.85,3871.46 Z "
     id="path14" />
  <g
     aria-label="O"
     transform="matrix(0.0666667,0,0,0.0666667,205.228,152.858)"
     style="font-style:normal;font-weight:normal;font-size:160px;font-family:Arial;fill:#009e73;stroke:none"
     id="text16">
    <path
       d="m 7.734375,-55.78125 q 0,-28.515625 15.3125,-44.60938 15.3125,-16.17187 39.53125,-16.17187 15.859375,0 28.59375,7.57812 12.734375,7.57813 19.375005,21.17188 6.71875,13.515625 6.71875,30.703125 0,17.421875 -7.03125,31.171875 -7.03125,13.75 -19.92188,20.859375 -12.890625,7.03125 -27.8125,7.03125 -16.171875,0 -28.90625,-7.8125 -12.734375,-7.8125 -19.296875,-21.328125 -6.5625,-13.515625 -6.5625,-28.59375 z m 15.625,0.234375 q 0,20.703125 11.09375,32.65625 11.171875,11.875 27.96875,11.875 17.109375,0 28.125,-12.03125 11.093755,-12.03125 11.093755,-34.140625 0,-13.984375 -4.76563,-24.375 -4.6875,-10.46875 -13.828125,-16.171875 -9.0625,-5.781255 -20.390625,-5.781255 -16.09375,0 -27.734375,11.093755 -11.5625,11.015625 -11.5625,36.875 z"
       style="font-style:normal;font-weight:normal;font-size:160px;font-family:Arial;fill:#009e73;stroke:none"
       id="path1144"
       inkscape:connector-curvature="0" />
  </g>
  <g
     aria-label="Cp"
     transform="matrix(0.0666667,0,0,0.0666667,169.637,145.186)"
     style="font-style:normal;font-weight:normal;font-size:160px;font-family:Arial;fill:#009e73;stroke:none"
     id="text18">
    <path
       d="m 94.0625,-40.15625 15.15625,3.828125 Q 104.45313,-17.65625 92.03125,-7.8125 79.6875,1.953125 61.796875,1.953125 q -18.515625,0 -30.15625,-7.5 -11.5625,-7.578125 -17.65625,-21.875 Q 7.96875,-41.71875 7.96875,-58.125 q 0,-17.890625 6.796875,-31.171875 6.875,-13.359375 19.453125,-20.234375 12.65625,-6.95313 27.8125,-6.95313 17.1875,0 28.90625,8.75 11.71875,8.750005 16.32813,24.60938 l -14.92188,3.515625 q -3.984375,-12.5 -11.5625,-18.203125 -7.578125,-5.70313 -19.0625,-5.70313 -13.203125,0 -22.109375,6.32813 -8.828125,6.328125 -12.421875,17.03125 -3.59375,10.625 -3.59375,21.953125 0,14.609375 4.21875,25.546875 4.296875,10.859375 13.28125,16.25 8.984375,5.390625 19.453125,5.390625 12.734375,0 21.5625,-7.34375 8.828125,-7.34375 11.953125,-21.796875 z"
       style="font-style:normal;font-weight:normal;font-size:160px;font-family:Arial;fill:#009e73;stroke:none"
       id="path1147"
       inkscape:connector-curvature="0" />
    <path
       d="M 126.17188,31.796875 V -82.96875 h 12.81249 v 10.78125 q 4.53125,-6.328125 10.23438,-9.453125 5.70312,-3.203125 13.82812,-3.203125 10.625,0 18.75,5.46875 8.125,5.46875 12.26563,15.46875 4.14062,9.921875 4.14062,21.796875 0,12.734375 -4.60937,22.96875 -4.53125,10.15625 -13.28125,15.625 Q 171.64062,1.875 162.03125,1.875 155,1.875 149.375,-1.09375 q -5.54688,-2.96875 -9.14063,-7.5 v 40.390625 z m 12.73437,-72.8125 q 0,16.015625 6.48437,23.671875 6.48438,7.65625 15.70313,7.65625 9.375,0 16.01562,-7.890625 6.71875,-7.96875 6.71875,-24.609375 0,-15.859375 -6.5625,-23.75 -6.48437,-7.890625 -15.54687,-7.890625 -8.98438,0 -15.9375,8.4375 -6.875,8.359375 -6.875,24.375 z"
       style="font-style:normal;font-weight:normal;font-size:160px;font-family:Arial;fill:#009e73;stroke:none"
       id="path1149"
       inkscape:connector-curvature="0" />
  </g>
  <g
     aria-label="2"
     transform="matrix(0.0666667,0,0,0.0666667,183.303,147.452)"
     style="font-style:normal;font-weight:normal;font-size:120px;font-family:Arial;fill:#009e73;stroke:none"
     id="text20">
    <path
       d="M 60.410156,-10.136719 V 0 H 3.6328125 Q 3.515625,-3.8085938 4.8632812,-7.3242187 7.03125,-13.125 11.777344,-18.75 q 4.804687,-5.625 13.828125,-13.007812 14.003906,-11.484375 18.925781,-18.164063 4.921875,-6.738281 4.921875,-12.714844 0,-6.269531 -4.511719,-10.546875 -4.453125,-4.335937 -11.660156,-4.335937 -7.617188,0 -12.1875,4.570312 -4.570313,4.570313 -4.628906,12.65625 L 5.625,-61.40625 Q 6.7382812,-73.535156 14.003906,-79.863281 21.269531,-86.25 33.515625,-86.25 q 12.363281,0 19.570312,6.855469 7.207032,6.855469 7.207032,16.992187 0,5.15625 -2.109375,10.136719 -2.109375,4.980469 -7.03125,10.488281 -4.863282,5.507813 -16.230469,15.117188 -9.492188,7.96875 -12.1875,10.839843 -2.695313,2.8125 -4.453125,5.683594 z"
       style="font-style:normal;font-weight:normal;font-size:120px;font-family:Arial;fill:#009e73;stroke:none"
       id="path1152"
       inkscape:connector-curvature="0" />
  </g>
  <g
     aria-label="Zr"
     transform="matrix(0.0666667,0,0,0.0666667,187.753,145.186)"
     style="font-style:normal;font-weight:normal;font-size:160px;font-family:Arial;fill:#009e73;stroke:none"
     id="text22">
    <path
       d="M 3.203125,0 V -14.0625 L 61.875,-87.421875 q 6.25,-7.8125 11.875,-13.593755 H 9.84375 v -13.51562 H 91.875 v 13.51562 L 27.578125,-21.5625 20.625,-13.515625 H 93.75 V 0 Z"
       style="font-style:normal;font-weight:normal;font-size:160px;font-family:Arial;fill:#009e73;stroke:none"
       id="path1155"
       inkscape:connector-curvature="0" />
    <path
       d="m 108.20313,0 v -82.96875 h 12.65625 v 12.578125 q 4.84375,-8.828125 8.90624,-11.640625 4.14063,-2.8125 9.0625,-2.8125 7.10938,0 14.45313,4.53125 l -4.84375,13.046875 q -5.15625,-3.046875 -10.3125,-3.046875 -4.60938,0 -8.28125,2.8125 -3.67187,2.734375 -5.23437,7.65625 -2.34375,7.5 -2.34375,16.40625 V 0 Z"
       style="font-style:normal;font-weight:normal;font-size:160px;font-family:Arial;fill:#009e73;stroke:none"
       id="path1157"
       inkscape:connector-curvature="0" />
  </g>
  <path
     stroke="none"
     fill="#009e73"
     transform="matrix(0.0666667 0 0 0.0666667 0.444411 -102.333)"
     d="M 2970.1,3676.28 L 2975.21,3667.44 L 3067.77,3720.88 L 3062.66,3729.72 L 2970.1,3676.28 Z "
     id="path24" />
  <g
     aria-label="Cl"
     transform="matrix(0.0666667,0,0,0.0666667,192.205,129.841)"
     style="font-style:normal;font-weight:normal;font-size:160px;font-family:Arial;fill:#009e73;stroke:none"
     id="text26">
    <path
       d="m 94.0625,-40.15625 15.15625,3.828125 Q 104.45313,-17.65625 92.03125,-7.8125 79.6875,1.953125 61.796875,1.953125 q -18.515625,0 -30.15625,-7.5 -11.5625,-7.578125 -17.65625,-21.875 Q 7.96875,-41.71875 7.96875,-58.125 q 0,-17.890625 6.796875,-31.171875 6.875,-13.359375 19.453125,-20.234375 12.65625,-6.95313 27.8125,-6.95313 17.1875,0 28.90625,8.75 11.71875,8.750005 16.32813,24.60938 l -14.92188,3.515625 q -3.984375,-12.5 -11.5625,-18.203125 -7.578125,-5.70313 -19.0625,-5.70313 -13.203125,0 -22.109375,6.32813 -8.828125,6.328125 -12.421875,17.03125 -3.59375,10.625 -3.59375,21.953125 0,14.609375 4.21875,25.546875 4.296875,10.859375 13.28125,16.25 8.984375,5.390625 19.453125,5.390625 12.734375,0 21.5625,-7.34375 8.828125,-7.34375 11.953125,-21.796875 z"
       style="font-style:normal;font-weight:normal;font-size:160px;font-family:Arial;fill:#009e73;stroke:none"
       id="path1160"
       inkscape:connector-curvature="0" />
    <path
       d="m 125.85938,0 v -114.53125 h 14.06249 V 0 Z"
       style="font-style:normal;font-weight:normal;font-size:160px;font-family:Arial;fill:#009e73;stroke:none"
       id="path1162"
       inkscape:connector-curvature="0" />
  </g>
  <path
     stroke="none"
     fill="#009e73"
     transform="matrix(0.0666667 0 0 0.0666667 0.444411 -102.333)"
     d="M 2929.31,3511.28 L 2939.52,3511.28 L 2939.52,3573.45 L 2929.31,3573.45 L 2929.31,3511.28 Z "
     id="path28" />
  <g
     aria-label="H"
     transform="matrix(0.0666667,0,0,0.0666667,221.479,167.244)"
     style="font-style:normal;font-weight:normal;font-size:160px;font-family:Arial;fill:#009e73;stroke:none"
     id="text30">
    <path
       d="M 12.8125,0 V -114.53125 H 27.96875 V -67.5 H 87.5 v -47.03125 h 15.15625 V 0 H 87.5 V -53.984375 H 27.96875 V 0 Z"
       style="font-style:normal;font-weight:normal;font-size:160px;font-family:Arial;fill:#009e73;stroke:none"
       id="path1165"
       inkscape:connector-curvature="0" />
  </g>
  <path
     stroke="none"
     fill="#009e73"
     transform="matrix(0.0666667 0 0 0.0666667 0.444411 -102.333)"
     d="M 3453.23,3940.52 L 3448.13,3931.69 L 3567.75,3862.63 L 3572.85,3865.57 L 3572.85,3871.46 L 3453.23,3940.52 Z "
     id="path32" />
  <path
     stroke="none"
     fill="#009e73"
     transform="matrix(0.0666667 0 0 0.0666667 0.444411 -102.333)"
     d="M 3307.88,3914.72 L 3301.05,3922.31 L 3266.19,3890.93 L 3273.01,3883.34 L 3307.88,3914.72 Z "
     id="path34" />
  <path
     stroke="none"
     fill="#009e73"
     transform="matrix(0.0666667 0 0 0.0666667 0.444411 -102.333)"
     d="M 3238.15,3851.96 L 3231.32,3859.55 L 3196.46,3828.17 L 3203.28,3820.59 L 3238.15,3851.96 Z "
     id="path36" />
  <g
     aria-label="H"
     transform="matrix(0.0666667,0,0,0.0666667,221.479,136.554)"
     style="font-style:normal;font-weight:normal;font-size:160px;font-family:Arial;fill:#009e73;stroke:none"
     id="text38">
    <path
       d="M 12.8125,0 V -114.53125 H 27.96875 V -67.5 H 87.5 v -47.03125 h 15.15625 V 0 H 87.5 V -53.984375 H 27.96875 V 0 Z"
       style="font-style:normal;font-weight:normal;font-size:160px;font-family:Arial;fill:#009e73;stroke:none"
       id="path1168"
       inkscape:connector-curvature="0" />
  </g>
  <path
     stroke="none"
     fill="#009e73"
     transform="matrix(0.0666667 0 0 0.0666667 0.444411 -102.333)"
     d="M 3452.89,3572.03 L 3457.99,3563.19 L 3497.48,3585.99 L 3492.38,3594.83 L 3452.89,3572.03 Z "
     id="path40" />
  <path
     stroke="none"
     fill="#009e73"
     transform="matrix(0.0666667 0 0 0.0666667 0.444411 -102.333)"
     d="M 3193.37,3711.34 L 3186.09,3704.2 L 3223.43,3666.11 L 3230.72,3673.25 L 3193.37,3711.34 Z "
     id="path42" />
  <path
     stroke="none"
     fill="#009e73"
     transform="matrix(0.0666667 0 0 0.0666667 0.444411 -102.333)"
     d="M 3268.06,3635.16 L 3260.78,3628.02 L 3298.12,3589.92 L 3305.41,3597.07 L 3268.06,3635.16 Z "
     id="path44" />
  <g
     aria-label="N"
     transform="matrix(0.0666667,0,0,0.0666667,331.271,277.384)"
     style="font-style:normal;font-weight:normal;font-size:160px;font-family:Arial;fill:#009e73;stroke:none"
     id="text46">
    <path
       d="m 12.1875,0 v -114.53125 h 15.546875 l 60.15625,89.921875 V -114.53125 H 102.42188 V 0 H 86.875 L 26.71875,-90 V 0 Z"
       style="font-style:normal;font-weight:normal;font-size:160px;font-family:Arial;fill:#009e73;stroke:none"
       id="path1171"
       inkscape:connector-curvature="0" />
  </g>
  <path
     stroke="none"
     fill="#009e73"
     transform="matrix(0.0666667 0 0 0.0666667 0.444411 -102.333)"
     d="M 5015.3,5721.76 L 5025.5,5721.76 L 5025.5,5859.99 L 5015.3,5865.88 L 5015.3,5721.76 Z "
     id="path48" />
  <path
     stroke="none"
     fill="#009e73"
     transform="matrix(0.0666667 0 0 0.0666667 0.444411 -102.333)"
     d="M 5056.73,5721.76 L 5066.93,5721.76 L 5066.93,5839.01 L 5056.73,5839.01 L 5056.73,5721.76 Z "
     id="path50" />
  <path
     stroke="none"
     fill="#009e73"
     transform="matrix(0.0666667 0 0 0.0666667 0.444411 -102.333)"
     d="M 5219.73,5511.78 L 5219.73,5523.57 L 5100.12,5592.63 L 5095.01,5583.79 L 5219.73,5511.78 Z "
     id="path52" />
  <path
     stroke="none"
     fill="#009e73"
     transform="matrix(0.0666667 0 0 0.0666667 0.444411 -102.333)"
     d="M 5424.17,5629.81 L 5413.97,5635.71 L 5219.73,5523.57 L 5219.73,5511.78 L 5424.17,5629.81 Z "
     id="path54" />
  <path
     stroke="none"
     fill="#009e73"
     transform="matrix(0.0666667 0 0 0.0666667 0.444411 -102.333)"
     d="M 5424.17,5865.88 L 5413.97,5859.99 L 5413.97,5635.71 L 5424.17,5629.81 L 5424.17,5865.88 Z "
     id="path56" />
  <path
     stroke="none"
     fill="#009e73"
     transform="matrix(0.0666667 0 0 0.0666667 0.444411 -102.333)"
     d="M 5219.73,5983.91 L 5219.73,5972.13 L 5413.97,5859.99 L 5424.17,5865.88 L 5219.73,5983.91 Z "
     id="path58" />
  <path
     stroke="none"
     fill="#009e73"
     transform="matrix(0.0666667 0 0 0.0666667 0.444411 -102.333)"
     d="M 5015.3,5865.88 L 5025.5,5859.99 L 5219.73,5972.13 L 5219.73,5983.91 L 5015.3,5865.88 Z "
     id="path60" />
  <g
     aria-label="O"
     transform="matrix(0.0666667,0,0,0.0666667,294.272,288.68)"
     style="font-style:normal;font-weight:normal;font-size:160px;font-family:Arial;fill:#009e73;stroke:none"
     id="text62">
    <path
       d="m 7.734375,-55.78125 q 0,-28.515625 15.3125,-44.60938 15.3125,-16.17187 39.53125,-16.17187 15.859375,0 28.59375,7.57812 12.734375,7.57813 19.375005,21.17188 6.71875,13.515625 6.71875,30.703125 0,17.421875 -7.03125,31.171875 -7.03125,13.75 -19.92188,20.859375 -12.890625,7.03125 -27.8125,7.03125 -16.171875,0 -28.90625,-7.8125 -12.734375,-7.8125 -19.296875,-21.328125 -6.5625,-13.515625 -6.5625,-28.59375 z m 15.625,0.234375 q 0,20.703125 11.09375,32.65625 11.171875,11.875 27.96875,11.875 17.109375,0 28.125,-12.03125 11.093755,-12.03125 11.093755,-34.140625 0,-13.984375 -4.76563,-24.375 -4.6875,-10.46875 -13.828125,-16.171875 -9.0625,-5.781255 -20.390625,-5.781255 -16.09375,0 -27.734375,11.093755 -11.5625,11.015625 -11.5625,36.875 z"
       style="font-style:normal;font-weight:normal;font-size:160px;font-family:Arial;fill:#009e73;stroke:none"
       id="path1174"
       inkscape:connector-curvature="0" />
  </g>
  <g
     aria-label="Cp"
     transform="matrix(0.0666667,0,0,0.0666667,271.97,304.024)"
     style="font-style:normal;font-weight:normal;font-size:160px;font-family:Arial;fill:#009e73;stroke:none"
     id="text64">
    <path
       d="m 94.0625,-40.15625 15.15625,3.828125 Q 104.45313,-17.65625 92.03125,-7.8125 79.6875,1.953125 61.796875,1.953125 q -18.515625,0 -30.15625,-7.5 -11.5625,-7.578125 -17.65625,-21.875 Q 7.96875,-41.71875 7.96875,-58.125 q 0,-17.890625 6.796875,-31.171875 6.875,-13.359375 19.453125,-20.234375 12.65625,-6.95313 27.8125,-6.95313 17.1875,0 28.90625,8.75 11.71875,8.750005 16.32813,24.60938 l -14.92188,3.515625 q -3.984375,-12.5 -11.5625,-18.203125 -7.578125,-5.70313 -19.0625,-5.70313 -13.203125,0 -22.109375,6.32813 -8.828125,6.328125 -12.421875,17.03125 -3.59375,10.625 -3.59375,21.953125 0,14.609375 4.21875,25.546875 4.296875,10.859375 13.28125,16.25 8.984375,5.390625 19.453125,5.390625 12.734375,0 21.5625,-7.34375 8.828125,-7.34375 11.953125,-21.796875 z"
       style="font-style:normal;font-weight:normal;font-size:160px;font-family:Arial;fill:#009e73;stroke:none"
       id="path1177"
       inkscape:connector-curvature="0" />
    <path
       d="M 126.17188,31.796875 V -82.96875 h 12.81249 v 10.78125 q 4.53125,-6.328125 10.23438,-9.453125 5.70312,-3.203125 13.82812,-3.203125 10.625,0 18.75,5.46875 8.125,5.46875 12.26563,15.46875 4.14062,9.921875 4.14062,21.796875 0,12.734375 -4.60937,22.96875 -4.53125,10.15625 -13.28125,15.625 Q 171.64062,1.875 162.03125,1.875 155,1.875 149.375,-1.09375 q -5.54688,-2.96875 -9.14063,-7.5 v 40.390625 z m 12.73437,-72.8125 q 0,16.015625 6.48437,23.671875 6.48438,7.65625 15.70313,7.65625 9.375,0 16.01562,-7.890625 6.71875,-7.96875 6.71875,-24.609375 0,-15.859375 -6.5625,-23.75 -6.48437,-7.890625 -15.54687,-7.890625 -8.98438,0 -15.9375,8.4375 -6.875,8.359375 -6.875,24.375 z"
       style="font-style:normal;font-weight:normal;font-size:160px;font-family:Arial;fill:#009e73;stroke:none"
       id="path1179"
       inkscape:connector-curvature="0" />
  </g>
  <g
     aria-label="2"
     transform="matrix(0.0666667,0,0,0.0666667,285.636,306.291)"
     style="font-style:normal;font-weight:normal;font-size:120px;font-family:Arial;fill:#009e73;stroke:none"
     id="text66">
    <path
       d="M 60.410156,-10.136719 V 0 H 3.6328125 Q 3.515625,-3.8085938 4.8632812,-7.3242187 7.03125,-13.125 11.777344,-18.75 q 4.804687,-5.625 13.828125,-13.007812 14.003906,-11.484375 18.925781,-18.164063 4.921875,-6.738281 4.921875,-12.714844 0,-6.269531 -4.511719,-10.546875 -4.453125,-4.335937 -11.660156,-4.335937 -7.617188,0 -12.1875,4.570312 -4.570313,4.570313 -4.628906,12.65625 L 5.625,-61.40625 Q 6.7382812,-73.535156 14.003906,-79.863281 21.269531,-86.25 33.515625,-86.25 q 12.363281,0 19.570312,6.855469 7.207032,6.855469 7.207032,16.992187 0,5.15625 -2.109375,10.136719 -2.109375,4.980469 -7.03125,10.488281 -4.863282,5.507813 -16.230469,15.117188 -9.492188,7.96875 -12.1875,10.839843 -2.695313,2.8125 -4.453125,5.683594 z"
       style="font-style:normal;font-weight:normal;font-size:120px;font-family:Arial;fill:#009e73;stroke:none"
       id="path1182"
       inkscape:connector-curvature="0" />
  </g>
  <g
     aria-label="Zr"
     transform="matrix(0.0666667,0,0,0.0666667,290.086,304.024)"
     style="font-style:normal;font-weight:normal;font-size:160px;font-family:Arial;fill:#009e73;stroke:none"
     id="text68">
    <path
       d="M 3.203125,0 V -14.0625 L 61.875,-87.421875 q 6.25,-7.8125 11.875,-13.593755 H 9.84375 v -13.51562 H 91.875 v 13.51562 L 27.578125,-21.5625 20.625,-13.515625 H 93.75 V 0 Z"
       style="font-style:normal;font-weight:normal;font-size:160px;font-family:Arial;fill:#009e73;stroke:none"
       id="path1185"
       inkscape:connector-curvature="0" />
    <path
       d="m 108.20313,0 v -82.96875 h 12.65625 v 12.578125 q 4.84375,-8.828125 8.90624,-11.640625 4.14063,-2.8125 9.0625,-2.8125 7.10938,0 14.45313,4.53125 l -4.84375,13.046875 q -5.15625,-3.046875 -10.3125,-3.046875 -4.60938,0 -8.28125,2.8125 -3.67187,2.734375 -5.23437,7.65625 -2.34375,7.5 -2.34375,16.40625 V 0 Z"
       style="font-style:normal;font-weight:normal;font-size:160px;font-family:Arial;fill:#009e73;stroke:none"
       id="path1187"
       inkscape:connector-curvature="0" />
  </g>
  <path
     stroke="none"
     fill="#009e73"
     transform="matrix(0.0666667 0 0 0.0666667 0.444411 -102.333)"
     d="M 4474.51,5956.03 L 4464.31,5956.03 L 4464.31,5893.86 L 4474.51,5893.86 L 4474.51,5956.03 Z "
     id="path70" />
  <g
     aria-label="Cl"
     transform="matrix(0.0666667,0,0,0.0666667,307.827,311.697)"
     style="font-style:normal;font-weight:normal;font-size:160px;font-family:Arial;fill:#009e73;stroke:none"
     id="text72">
    <path
       d="m 94.0625,-40.15625 15.15625,3.828125 Q 104.45313,-17.65625 92.03125,-7.8125 79.6875,1.953125 61.796875,1.953125 q -18.515625,0 -30.15625,-7.5 -11.5625,-7.578125 -17.65625,-21.875 Q 7.96875,-41.71875 7.96875,-58.125 q 0,-17.890625 6.796875,-31.171875 6.875,-13.359375 19.453125,-20.234375 12.65625,-6.95313 27.8125,-6.95313 17.1875,0 28.90625,8.75 11.71875,8.750005 16.32813,24.60938 l -14.92188,3.515625 q -3.984375,-12.5 -11.5625,-18.203125 -7.578125,-5.70313 -19.0625,-5.70313 -13.203125,0 -22.109375,6.32813 -8.828125,6.328125 -12.421875,17.03125 -3.59375,10.625 -3.59375,21.953125 0,14.609375 4.21875,25.546875 4.296875,10.859375 13.28125,16.25 8.984375,5.390625 19.453125,5.390625 12.734375,0 21.5625,-7.34375 8.828125,-7.34375 11.953125,-21.796875 z"
       style="font-style:normal;font-weight:normal;font-size:160px;font-family:Arial;fill:#009e73;stroke:none"
       id="path1190"
       inkscape:connector-curvature="0" />
    <path
       d="m 125.85938,0 v -114.53125 h 14.06249 V 0 Z"
       style="font-style:normal;font-weight:normal;font-size:160px;font-family:Arial;fill:#009e73;stroke:none"
       id="path1192"
       inkscape:connector-curvature="0" />
  </g>
  <path
     stroke="none"
     fill="#009e73"
     transform="matrix(0.0666667 0 0 0.0666667 0.444411 -102.333)"
     d="M 4605.44,6105.01 L 4600.34,6113.85 L 4505.1,6058.86 L 4510.2,6050.03 L 4605.44,6105.01 Z "
     id="path74" />
  <g
     aria-label="H"
     transform="matrix(0.0666667,0,0,0.0666667,309.794,274.622)"
     style="font-style:normal;font-weight:normal;font-size:160px;font-family:Arial;fill:#009e73;stroke:none"
     id="text76">
    <path
       d="M 12.8125,0 V -114.53125 H 27.96875 V -67.5 H 87.5 v -47.03125 h 15.15625 V 0 H 87.5 V -53.984375 H 27.96875 V 0 Z"
       style="font-style:normal;font-weight:normal;font-size:160px;font-family:Arial;fill:#009e73;stroke:none"
       id="path1195"
       inkscape:connector-curvature="0" />
  </g>
  <path
     stroke="none"
     fill="#009e73"
     transform="matrix(0.0666667 0 0 0.0666667 0.444411 -102.333)"
     d="M 4766.67,5605.28 L 4767.97,5595.15 L 4804.58,5599.86 L 4803.27,5609.98 L 4766.67,5605.28 Z "
     id="path78" />
  <path
     stroke="none"
     fill="#009e73"
     transform="matrix(0.0666667 0 0 0.0666667 0.444411 -102.333)"
     d="M 4839.88,5614.69 L 4841.18,5604.57 L 4877.78,5609.28 L 4876.48,5619.4 L 4839.88,5614.69 Z "
     id="path80" />
  <path
     stroke="none"
     fill="#009e73"
     transform="matrix(0.0666667 0 0 0.0666667 0.444411 -102.333)"
     d="M 4913.09,5624.1 L 4914.39,5613.98 L 4950.99,5618.69 L 4949.69,5628.81 L 4913.09,5624.1 Z "
     id="path82" />
  <path
     stroke="none"
     fill="#009e73"
     transform="matrix(0.0666667 0 0 0.0666667 0.444411 -102.333)"
     d="M 4619.94,5656.55 L 4626.85,5664.06 L 4531.73,5751.71 L 4524.81,5744.21 L 4619.94,5656.55 Z "
     id="path84" />
  <g
     aria-label="N"
     transform="matrix(0.0666667,0,0,0.0666667,368.943,162.534)"
     style="font-style:normal;font-weight:normal;font-size:160px;font-family:Arial;fill:#000000;stroke:none"
     id="text86">
    <path
       d="m 12.1875,0 v -114.53125 h 15.546875 l 60.15625,89.921875 V -114.53125 H 102.42188 V 0 H 86.875 L 26.71875,-90 V 0 Z"
       style="font-style:normal;font-weight:normal;font-size:160px;font-family:Arial;fill:#000000;stroke:none"
       id="path1198"
       inkscape:connector-curvature="0" />
  </g>
  <path
     stroke="none"
     fill="#000000"
     transform="matrix(0.0666667 0 0 0.0666667 0.444411 -102.333)"
     d="M 5580.37,3999.02 L 5590.58,3999.02 L 5590.58,4137.24 L 5580.37,4143.13 L 5580.37,3999.02 Z "
     id="path88" />
  <path
     stroke="none"
     fill="#000000"
     transform="matrix(0.0666667 0 0 0.0666667 0.444411 -102.333)"
     d="M 5621.8,3999.02 L 5632.01,3999.02 L 5632.01,4116.27 L 5621.8,4116.27 L 5621.8,3999.02 Z "
     id="path90" />
  <path
     stroke="none"
     fill="#000000"
     transform="matrix(0.0666667 0 0 0.0666667 0.444411 -102.333)"
     d="M 5784.81,3789.04 L 5784.81,3800.82 L 5665.19,3869.88 L 5660.09,3861.04 L 5784.81,3789.04 Z "
     id="path92" />
  <path
     stroke="none"
     fill="#000000"
     transform="matrix(0.0666667 0 0 0.0666667 0.444411 -102.333)"
     d="M 5989.25,3907.07 L 5979.04,3912.96 L 5784.81,3800.82 L 5784.81,3789.04 L 5989.25,3907.07 Z "
     id="path94" />
  <path
     stroke="none"
     fill="#000000"
     transform="matrix(0.0666667 0 0 0.0666667 0.444411 -102.333)"
     d="M 5989.25,4143.13 L 5979.04,4137.24 L 5979.04,3912.96 L 5989.25,3907.07 L 5989.25,4143.13 Z "
     id="path96" />
  <path
     stroke="none"
     fill="#000000"
     transform="matrix(0.0666667 0 0 0.0666667 0.444411 -102.333)"
     d="M 5784.81,4261.17 L 5784.81,4249.38 L 5979.04,4137.24 L 5989.25,4143.13 L 5784.81,4261.17 Z "
     id="path98" />
  <path
     stroke="none"
     fill="#000000"
     transform="matrix(0.0666667 0 0 0.0666667 0.444411 -102.333)"
     d="M 5580.37,4143.13 L 5590.58,4137.24 L 5784.81,4249.38 L 5784.81,4261.17 L 5580.37,4143.13 Z "
     id="path100" />
  <path
     d="M 462.279,5445.84 L 37.22,5445.84 L 37.22,5422.84 L 462.279,5422.84 Z "
     id="path102"
     transform="matrix(0.0666667 0 0 0.0666667 0.444411 -102.333)"
     stroke="none"
     fill="#000000" />
  <text
     x="0"
     y="0"
     transform="matrix(0.0666667,0,0,0.0666667,2.86101,222.825)"
     font-style="normal"
     font-weight="normal"
     font-size="151.554px"
     id="text104"
     style="font-style:normal;font-weight:normal;font-size:151.55400085px;font-family:Arial;fill:#000000;stroke:none">\cmpd{int-1-a}</text>
  <text
     x="0"
     y="0"
     transform="matrix(0.0666667,0,0,0.0666667,233.43,180.575)"
     font-style="normal"
     font-weight="normal"
     font-size="151.554px"
     id="text106"
     style="font-style:normal;font-weight:normal;font-size:151.55400085px;font-family:Arial;fill:#009e73;stroke:none">\cmpd{ts-1-a}</text>
  <text
     x="387.61182"
     y="217.064"
     font-style="normal"
     font-weight="normal"
     font-size="151.554px"
     id="text108"
     style="font-style:normal;font-weight:normal;font-size:10.10360527px;font-family:Arial;text-align:center;text-anchor:middle;fill:#000000;stroke:none;stroke-width:0.0666667">$11.0$</text>
  <text
     x="291.9791"
     y="248.892"
     font-style="normal"
     font-weight="normal"
     font-size="151.554px"
     id="text110"
     style="font-style:normal;font-weight:normal;font-size:10.10360527px;font-family:Arial;text-align:center;text-anchor:middle;fill:#009e73;stroke:none;stroke-width:0.0666667">$2.5$</text>
  <text
     x="185.93037"
     y="31.893499"
     font-style="normal"
     font-weight="normal"
     font-size="151.554px"
     id="text112"
     style="font-style:normal;font-weight:normal;font-size:10.10360527px;font-family:Arial;text-align:center;text-anchor:middle;fill:#cc79a7;stroke:none;stroke-width:0.0666667">$63.0$</text>
  <text
     x="17.153585"
     y="256.125"
     font-style="normal"
     font-weight="normal"
     font-size="151.554px"
     id="text114"
     style="font-style:normal;font-weight:normal;font-size:10.10360527px;font-family:Arial;text-align:center;text-anchor:middle;fill:#000000;stroke:none;stroke-width:0.0666667">$0.0$</text>
  <text
     x="188.13504"
     y="175.61301"
     font-style="normal"
     font-weight="normal"
     font-size="151.554px"
     id="text116"
     style="font-style:normal;font-weight:normal;font-size:10.10360527px;font-family:Arial;text-align:center;text-anchor:middle;fill:#009e73;stroke:none;stroke-width:0.0666667">$22.6$</text>
  <path
     stroke="none"
     fill="#009e73"
     transform="matrix(0.0666667 0 0 0.0666667 0.444411 -102.333)"
     d="M 3027,4238.15 L 2601.94,4238.15 L 2601.94,4215.15 L 3027,4215.15 Z "
     id="path118" />
  <path
     stroke="none"
     fill="#cc79a7"
     transform="matrix(0.0666667 0 0 0.0666667 0.444411 -102.333)"
     d="M 2993.93,2082.36 L 2568.87,2082.36 L 2568.87,2059.36 L 2993.93,2059.36 Z "
     id="path120" />
  <path
     stroke="none"
     fill="#009e73"
     transform="matrix(0.0666667 0 0 0.0666667 0.444411 -102.333)"
     d="M 4584.66,5337.34 L 4159.6,5337.34 L 4159.6,5314.34 L 4584.66,5314.34 Z "
     id="path122" />
  <path
     stroke="none"
     fill="#000000"
     transform="matrix(0.0666667 0 0 0.0666667 0.444411 -102.333)"
     d="M 6019.15,4859.92 L 5594.09,4859.92 L 5594.09,4836.92 L 6019.15,4836.92 Z "
     id="path124" />
  <path
     stroke="#009e73"
     stroke-width="10"
     fill="none"
     transform="matrix(0.0666667 0 0 0.0666667 0.444411 -102.333)"
     stroke-dasharray="40"
     d="M 462.279,5434.34 L 2601.94,4226.65 "
     id="path126" />
  <path
     stroke="#009e73"
     stroke-width="10"
     fill="none"
     transform="matrix(0.0666667 0 0 0.0666667 0.444411 -102.333)"
     stroke-dasharray="40"
     d="M 4159.6,5325.84 L 3027,4226.65 "
     id="path128" />
  <path
     stroke="#cc79a7"
     stroke-width="10"
     fill="none"
     transform="matrix(0.0666667 0 0 0.0666667 0.444411 -102.333)"
     stroke-dasharray="40"
     d="M 4613.01,2035.44 L 5594.09,4848.42 "
     id="path130" />
  <path
     stroke="#009e73"
     stroke-width="10"
     fill="none"
     transform="matrix(0.0666667 0 0 0.0666667 0.444411 -102.333)"
     stroke-dasharray="40"
     d="M 5594.09,4848.42 L 4584.66,5325.84 "
     id="path132" />
  <path
     stroke="#cc79a7"
     stroke-width="10"
     fill="none"
     transform="matrix(0.0666667 0 0 0.0666667 0.444411 -102.333)"
     stroke-dasharray="40"
     d="M 462.279,5434.34 L 1406.88,5289.68 "
     id="path134" />
  <text
     x="0"
     y="0"
     transform="matrix(0.0666667,0,0,0.0666667,83.4543,97.0229)"
     font-style="normal"
     font-weight="normal"
     font-size="151.554px"
     id="text136"
     style="font-style:normal;font-weight:normal;font-size:151.55400085px;font-family:Arial;fill:#cc79a7;stroke:none">\cmpd{ts-1-b}</text>
  <text
     x="0"
     y="0"
     transform="matrix(0.0666667,0,0,0.0666667,333.416,310.561)"
     font-style="normal"
     font-weight="normal"
     font-size="151.554px"
     id="text138"
     style="font-style:normal;font-weight:normal;font-size:151.55400085px;font-family:Arial;fill:#009e73;stroke:none">\cmpd{int-2-a}</text>
  <g
     aria-label="N"
     transform="matrix(0.0666667,0,0,0.0666667,43.825,213.454)"
     style="font-style:normal;font-weight:normal;font-size:160px;font-family:Arial;fill:#000000;stroke:none"
     id="text140">
    <path
       d="m 12.1875,0 v -114.53125 h 15.546875 l 60.15625,89.921875 V -114.53125 H 102.42188 V 0 H 86.875 L 26.71875,-90 V 0 Z"
       style="font-style:normal;font-weight:normal;font-size:160px;font-family:Arial;fill:#000000;stroke:none"
       id="path1201"
       inkscape:connector-curvature="0" />
  </g>
  <path
     stroke="none"
     fill="#000000"
     transform="matrix(0.0666667 0 0 0.0666667 0.444411 -102.333)"
     d="M 275.464,4665.43 L 254.014,4682.17 L 377.394,4468.47 L 382.256,4480.46 L 275.464,4665.43 Z "
     id="path142" />
  <path
     stroke="none"
     fill="#000000"
     transform="matrix(0.0666667 0 0 0.0666667 0.444411 -102.333)"
     d="M 486.051,4605.24 L 486.059,4615.86 L 254.014,4682.17 L 275.464,4665.43 L 486.051,4605.24 Z "
     id="path144" />
  <path
     stroke="none"
     fill="#000000"
     transform="matrix(0.0666667 0 0 0.0666667 0.444411 -102.333)"
     d="M 631.625,4646.6 L 628.836,4656.42 L 486.059,4615.86 L 486.051,4605.24 L 631.625,4646.6 Z "
     id="path146" />
  <path
     stroke="none"
     fill="#000000"
     transform="matrix(0.0666667 0 0 0.0666667 0.444411 -102.333)"
     d="M 813.097,4482.84 L 823.823,4474.47 L 828.925,4475.84 L 758.787,4597.29 L 749.95,4592.19 L 813.097,4482.84 Z "
     id="path148" />
  <path
     stroke="none"
     fill="#000000"
     transform="matrix(0.0666667 0 0 0.0666667 0.444411 -102.333)"
     d="M 602.494,4543 L 602.486,4532.39 L 818.721,4470.62 L 823.823,4474.47 L 813.097,4482.84 L 602.494,4543 Z "
     id="path150" />
  <path
     stroke="none"
     fill="#000000"
     transform="matrix(0.0666667 0 0 0.0666667 0.444411 -102.333)"
     d="M 382.256,4480.46 L 377.394,4468.47 L 602.486,4532.39 L 602.494,4543 L 382.256,4480.46 Z "
     id="path152" />
  <g
     aria-label="O"
     transform="matrix(0.0666667,0,0,0.0666667,51.2326,184.82)"
     style="font-style:normal;font-weight:normal;font-size:160px;font-family:Arial;fill:#000000;stroke:none"
     id="text154">
    <path
       d="m 7.734375,-55.78125 q 0,-28.515625 15.3125,-44.60938 15.3125,-16.17187 39.53125,-16.17187 15.859375,0 28.59375,7.57812 12.734375,7.57813 19.375005,21.17188 6.71875,13.515625 6.71875,30.703125 0,17.421875 -7.03125,31.171875 -7.03125,13.75 -19.92188,20.859375 -12.890625,7.03125 -27.8125,7.03125 -16.171875,0 -28.90625,-7.8125 -12.734375,-7.8125 -19.296875,-21.328125 -6.5625,-13.515625 -6.5625,-28.59375 z m 15.625,0.234375 q 0,20.703125 11.09375,32.65625 11.171875,11.875 27.96875,11.875 17.109375,0 28.125,-12.03125 11.093755,-12.03125 11.093755,-34.140625 0,-13.984375 -4.76563,-24.375 -4.6875,-10.46875 -13.828125,-16.171875 -9.0625,-5.781255 -20.390625,-5.781255 -16.09375,0 -27.734375,11.093755 -11.5625,11.015625 -11.5625,36.875 z"
       style="font-style:normal;font-weight:normal;font-size:160px;font-family:Arial;fill:#000000;stroke:none"
       id="path1204"
       inkscape:connector-curvature="0" />
  </g>
  <path
     stroke="none"
     fill="#000000"
     transform="matrix(0.0666667 0 0 0.0666667 0.444411 -102.333)"
     d="M 818.721,4335.96 L 828.925,4335.96 L 828.925,4475.84 L 823.823,4474.47 L 818.721,4470.62 L 818.721,4335.96 Z "
     id="path156" />
  <g
     aria-label="H"
     transform="matrix(0.0666667,0,0,0.0666667,43.825,228.798)"
     style="font-style:normal;font-weight:normal;font-size:160px;font-family:Arial;fill:#000000;stroke:none"
     id="text158">
    <path
       d="M 12.8125,0 V -114.53125 H 27.96875 V -67.5 H 87.5 v -47.03125 h 15.15625 V 0 H 87.5 V -53.984375 H 27.96875 V 0 Z"
       style="font-style:normal;font-weight:normal;font-size:160px;font-family:Arial;fill:#000000;stroke:none"
       id="path1207"
       inkscape:connector-curvature="0" />
  </g>
  <path
     stroke="none"
     fill="#000000"
     transform="matrix(0.0666667 0 0 0.0666667 0.444411 -102.333)"
     d="M 713.812,4827.98 L 703.607,4827.98 L 703.607,4762.8 L 713.812,4762.8 L 713.812,4827.98 Z "
     id="path160" />
  <g
     aria-label="Cp"
     transform="matrix(0.0666667,0,0,0.0666667,65.3883,166.481)"
     style="font-style:normal;font-weight:normal;font-size:160px;font-family:Arial;fill:#000000;stroke:none"
     id="text162">
    <path
       d="m 94.0625,-40.15625 15.15625,3.828125 Q 104.45313,-17.65625 92.03125,-7.8125 79.6875,1.953125 61.796875,1.953125 q -18.515625,0 -30.15625,-7.5 -11.5625,-7.578125 -17.65625,-21.875 Q 7.96875,-41.71875 7.96875,-58.125 q 0,-17.890625 6.796875,-31.171875 6.875,-13.359375 19.453125,-20.234375 12.65625,-6.95313 27.8125,-6.95313 17.1875,0 28.90625,8.75 11.71875,8.750005 16.32813,24.60938 l -14.92188,3.515625 q -3.984375,-12.5 -11.5625,-18.203125 -7.578125,-5.70313 -19.0625,-5.70313 -13.203125,0 -22.109375,6.32813 -8.828125,6.328125 -12.421875,17.03125 -3.59375,10.625 -3.59375,21.953125 0,14.609375 4.21875,25.546875 4.296875,10.859375 13.28125,16.25 8.984375,5.390625 19.453125,5.390625 12.734375,0 21.5625,-7.34375 8.828125,-7.34375 11.953125,-21.796875 z"
       style="font-style:normal;font-weight:normal;font-size:160px;font-family:Arial;fill:#000000;stroke:none"
       id="path1210"
       inkscape:connector-curvature="0" />
    <path
       d="M 126.17188,31.796875 V -82.96875 h 12.81249 v 10.78125 q 4.53125,-6.328125 10.23438,-9.453125 5.70312,-3.203125 13.82812,-3.203125 10.625,0 18.75,5.46875 8.125,5.46875 12.26563,15.46875 4.14062,9.921875 4.14062,21.796875 0,12.734375 -4.60937,22.96875 -4.53125,10.15625 -13.28125,15.625 Q 171.64062,1.875 162.03125,1.875 155,1.875 149.375,-1.09375 q -5.54688,-2.96875 -9.14063,-7.5 v 40.390625 z m 12.73437,-72.8125 q 0,16.015625 6.48437,23.671875 6.48438,7.65625 15.70313,7.65625 9.375,0 16.01562,-7.890625 6.71875,-7.96875 6.71875,-24.609375 0,-15.859375 -6.5625,-23.75 -6.48437,-7.890625 -15.54687,-7.890625 -8.98438,0 -15.9375,8.4375 -6.875,8.359375 -6.875,24.375 z"
       style="font-style:normal;font-weight:normal;font-size:160px;font-family:Arial;fill:#000000;stroke:none"
       id="path1212"
       inkscape:connector-curvature="0" />
  </g>
  <g
     aria-label="2"
     transform="matrix(0.0666667,0,0,0.0666667,79.055,168.747)"
     style="font-style:normal;font-weight:normal;font-size:120px;font-family:Arial;fill:#000000;stroke:none"
     id="text164">
    <path
       d="M 60.410156,-10.136719 V 0 H 3.6328125 Q 3.515625,-3.8085938 4.8632812,-7.3242187 7.03125,-13.125 11.777344,-18.75 q 4.804687,-5.625 13.828125,-13.007812 14.003906,-11.484375 18.925781,-18.164063 4.921875,-6.738281 4.921875,-12.714844 0,-6.269531 -4.511719,-10.546875 -4.453125,-4.335937 -11.660156,-4.335937 -7.617188,0 -12.1875,4.570312 -4.570313,4.570313 -4.628906,12.65625 L 5.625,-61.40625 Q 6.7382812,-73.535156 14.003906,-79.863281 21.269531,-86.25 33.515625,-86.25 q 12.363281,0 19.570312,6.855469 7.207032,6.855469 7.207032,16.992187 0,5.15625 -2.109375,10.136719 -2.109375,4.980469 -7.03125,10.488281 -4.863282,5.507813 -16.230469,15.117188 -9.492188,7.96875 -12.1875,10.839843 -2.695313,2.8125 -4.453125,5.683594 z"
       style="font-style:normal;font-weight:normal;font-size:120px;font-family:Arial;fill:#000000;stroke:none"
       id="path1215"
       inkscape:connector-curvature="0" />
  </g>
  <g
     aria-label="Zr"
     transform="matrix(0.0666667,0,0,0.0666667,65.3883,177.147)"
     style="font-style:normal;font-weight:normal;font-size:160px;font-family:Arial;fill:#000000;stroke:none"
     id="text166">
    <path
       d="M 3.203125,0 V -14.0625 L 61.875,-87.421875 q 6.25,-7.8125 11.875,-13.593755 H 9.84375 v -13.51562 H 91.875 v 13.51562 L 27.578125,-21.5625 20.625,-13.515625 H 93.75 V 0 Z"
       style="font-style:normal;font-weight:normal;font-size:160px;font-family:Arial;fill:#000000;stroke:none"
       id="path1218"
       inkscape:connector-curvature="0" />
    <path
       d="m 108.20313,0 v -82.96875 h 12.65625 v 12.578125 q 4.84375,-8.828125 8.90624,-11.640625 4.14063,-2.8125 9.0625,-2.8125 7.10938,0 14.45313,4.53125 l -4.84375,13.046875 q -5.15625,-3.046875 -10.3125,-3.046875 -4.60938,0 -8.28125,2.8125 -3.67187,2.734375 -5.23437,7.65625 -2.34375,7.5 -2.34375,16.40625 V 0 Z"
       style="font-style:normal;font-weight:normal;font-size:160px;font-family:Arial;fill:#000000;stroke:none"
       id="path1220"
       inkscape:connector-curvature="0" />
  </g>
  <path
     stroke="none"
     fill="#000000"
     transform="matrix(0.0666667 0 0 0.0666667 0.444411 -102.333)"
     d="M 937.639,4172.69 L 942.741,4181.53 L 895.659,4208.71 L 890.557,4199.87 L 937.639,4172.69 Z "
     id="path168" />
  <g
     aria-label="Cl"
     transform="matrix(0.0666667,0,0,0.0666667,78.0773,184.82)"
     style="font-style:normal;font-weight:normal;font-size:160px;font-family:Arial;fill:#000000;stroke:none"
     id="text170">
    <path
       d="m 94.0625,-40.15625 15.15625,3.828125 Q 104.45313,-17.65625 92.03125,-7.8125 79.6875,1.953125 61.796875,1.953125 q -18.515625,0 -30.15625,-7.5 -11.5625,-7.578125 -17.65625,-21.875 Q 7.96875,-41.71875 7.96875,-58.125 q 0,-17.890625 6.796875,-31.171875 6.875,-13.359375 19.453125,-20.234375 12.65625,-6.95313 27.8125,-6.95313 17.1875,0 28.90625,8.75 11.71875,8.750005 16.32813,24.60938 l -14.92188,3.515625 q -3.984375,-12.5 -11.5625,-18.203125 -7.578125,-5.70313 -19.0625,-5.70313 -13.203125,0 -22.109375,6.32813 -8.828125,6.328125 -12.421875,17.03125 -3.59375,10.625 -3.59375,21.953125 0,14.609375 4.21875,25.546875 4.296875,10.859375 13.28125,16.25 8.984375,5.390625 19.453125,5.390625 12.734375,0 21.5625,-7.34375 8.828125,-7.34375 11.953125,-21.796875 z"
       style="font-style:normal;font-weight:normal;font-size:160px;font-family:Arial;fill:#000000;stroke:none"
       id="path1223"
       inkscape:connector-curvature="0" />
    <path
       d="m 125.85938,0 v -114.53125 h 14.06249 V 0 Z"
       style="font-style:normal;font-weight:normal;font-size:160px;font-family:Arial;fill:#000000;stroke:none"
       id="path1225"
       inkscape:connector-curvature="0" />
  </g>
  <path
     stroke="none"
     fill="#000000"
     transform="matrix(0.0666667 0 0 0.0666667 0.444411 -102.333)"
     d="M 1159.19,4201.86 L 1154.09,4210.69 L 1125.44,4194.15 L 1130.54,4185.32 L 1159.19,4201.86 Z "
     id="path172" />
  <g
     aria-label="N"
     transform="matrix(0.0666667,0,0,0.0666667,124.107,35.6482)"
     style="font-style:normal;font-weight:normal;font-size:160px;font-family:Arial;fill:#cc79a7;stroke:none"
     id="text174">
    <path
       d="m 12.1875,0 v -114.53125 h 15.546875 l 60.15625,89.921875 V -114.53125 H 102.42188 V 0 H 86.875 L 26.71875,-90 V 0 Z"
       style="font-style:normal;font-weight:normal;font-size:160px;font-family:Arial;fill:#cc79a7;stroke:none"
       id="path1228"
       inkscape:connector-curvature="0" />
  </g>
  <path
     stroke="none"
     fill="#cc79a7"
     transform="matrix(0.0666667 0 0 0.0666667 0.444411 -102.333)"
     d="M 1907.84,2095.72 L 1918.05,2095.72 L 1918.05,2233.95 L 1912.95,2236.9 L 1907.84,2233.06 L 1907.84,2095.72 Z "
     id="path176" />
  <path
     stroke="none"
     fill="#cc79a7"
     transform="matrix(0.0666667 0 0 0.0666667 0.444411 -102.333)"
     d="M 2112.28,1885.75 L 2112.28,1897.53 L 1992.66,1966.59 L 1987.56,1957.75 L 2112.28,1885.75 Z "
     id="path178" />
  <path
     stroke="none"
     fill="#cc79a7"
     transform="matrix(0.0666667 0 0 0.0666667 0.444411 -102.333)"
     d="M 2316.72,2003.78 L 2306.51,2009.67 L 2112.28,1897.53 L 2112.28,1885.75 L 2316.72,2003.78 Z "
     id="path180" />
  <path
     stroke="none"
     fill="#cc79a7"
     transform="matrix(0.0666667 0 0 0.0666667 0.444411 -102.333)"
     d="M 2316.72,2239.84 L 2306.51,2233.95 L 2306.51,2009.67 L 2316.72,2003.78 L 2316.72,2239.84 Z "
     id="path182" />
  <path
     stroke="none"
     fill="#cc79a7"
     transform="matrix(0.0666667 0 0 0.0666667 0.444411 -102.333)"
     d="M 2112.28,2357.87 L 2112.28,2346.09 L 2306.51,2233.95 L 2316.72,2239.84 L 2112.28,2357.87 Z "
     id="path184" />
  <path
     stroke="none"
     fill="#cc79a7"
     transform="matrix(0.0666667 0 0 0.0666667 0.444411 -102.333)"
     d="M 1912.28,2242.4 L 1912.95,2236.9 L 1918.05,2233.95 L 2112.28,2346.09 L 2112.28,2357.87 L 1912.28,2242.4 Z "
     id="path186" />
  <g
     aria-label="O"
     transform="matrix(0.0666667,0,0,0.0666667,104.691,56.5343)"
     style="font-style:normal;font-weight:normal;font-size:160px;font-family:Arial;fill:#cc79a7;stroke:none"
     id="text188">
    <path
       d="m 7.734375,-55.78125 q 0,-28.515625 15.3125,-44.60938 15.3125,-16.17187 39.53125,-16.17187 15.859375,0 28.59375,7.57812 12.734375,7.57813 19.375005,21.17188 6.71875,13.515625 6.71875,30.703125 0,17.421875 -7.03125,31.171875 -7.03125,13.75 -19.92188,20.859375 -12.890625,7.03125 -27.8125,7.03125 -16.171875,0 -28.90625,-7.8125 -12.734375,-7.8125 -19.296875,-21.328125 -6.5625,-13.515625 -6.5625,-28.59375 z m 15.625,0.234375 q 0,20.703125 11.09375,32.65625 11.171875,11.875 27.96875,11.875 17.109375,0 28.125,-12.03125 11.093755,-12.03125 11.093755,-34.140625 0,-13.984375 -4.76563,-24.375 -4.6875,-10.46875 -13.828125,-16.171875 -9.0625,-5.781255 -20.390625,-5.781255 -16.09375,0 -27.734375,11.093755 -11.5625,11.015625 -11.5625,36.875 z"
       style="font-style:normal;font-weight:normal;font-size:160px;font-family:Arial;fill:#cc79a7;stroke:none"
       id="path1231"
       inkscape:connector-curvature="0" />
  </g>
  <path
     stroke="none"
     fill="#cc79a7"
     transform="matrix(0.0666667 0 0 0.0666667 0.444411 -102.333)"
     d="M 1704.17,2302.62 L 1701.33,2292.82 L 1742.63,2280.87 L 1745.47,2290.67 L 1704.17,2302.62 Z "
     id="path190" />
  <path
     stroke="none"
     fill="#cc79a7"
     transform="matrix(0.0666667 0 0 0.0666667 0.444411 -102.333)"
     d="M 1786.77,2278.72 L 1783.93,2268.92 L 1825.24,2256.96 L 1828.07,2266.77 L 1786.77,2278.72 Z "
     id="path192" />
  <path
     stroke="none"
     fill="#cc79a7"
     transform="matrix(0.0666667 0 0 0.0666667 0.444411 -102.333)"
     d="M 1869.38,2254.81 L 1866.54,2245.01 L 1907.84,2233.06 L 1912.28,2242.4 L 1869.38,2254.81 Z "
     id="path194" />
  <g
     aria-label="Cp"
     transform="matrix(0.0666667,0,0,0.0666667,82.3887,71.8792)"
     style="font-style:normal;font-weight:normal;font-size:160px;font-family:Arial;fill:#cc79a7;stroke:none"
     id="text196">
    <path
       d="m 94.0625,-40.15625 15.15625,3.828125 Q 104.45313,-17.65625 92.03125,-7.8125 79.6875,1.953125 61.796875,1.953125 q -18.515625,0 -30.15625,-7.5 -11.5625,-7.578125 -17.65625,-21.875 Q 7.96875,-41.71875 7.96875,-58.125 q 0,-17.890625 6.796875,-31.171875 6.875,-13.359375 19.453125,-20.234375 12.65625,-6.95313 27.8125,-6.95313 17.1875,0 28.90625,8.75 11.71875,8.750005 16.32813,24.60938 l -14.92188,3.515625 q -3.984375,-12.5 -11.5625,-18.203125 -7.578125,-5.70313 -19.0625,-5.70313 -13.203125,0 -22.109375,6.32813 -8.828125,6.328125 -12.421875,17.03125 -3.59375,10.625 -3.59375,21.953125 0,14.609375 4.21875,25.546875 4.296875,10.859375 13.28125,16.25 8.984375,5.390625 19.453125,5.390625 12.734375,0 21.5625,-7.34375 8.828125,-7.34375 11.953125,-21.796875 z"
       style="font-style:normal;font-weight:normal;font-size:160px;font-family:Arial;fill:#cc79a7;stroke:none"
       id="path1234"
       inkscape:connector-curvature="0" />
    <path
       d="M 126.17188,31.796875 V -82.96875 h 12.81249 v 10.78125 q 4.53125,-6.328125 10.23438,-9.453125 5.70312,-3.203125 13.82812,-3.203125 10.625,0 18.75,5.46875 8.125,5.46875 12.26563,15.46875 4.14062,9.921875 4.14062,21.796875 0,12.734375 -4.60937,22.96875 -4.53125,10.15625 -13.28125,15.625 Q 171.64062,1.875 162.03125,1.875 155,1.875 149.375,-1.09375 q -5.54688,-2.96875 -9.14063,-7.5 v 40.390625 z m 12.73437,-72.8125 q 0,16.015625 6.48437,23.671875 6.48438,7.65625 15.70313,7.65625 9.375,0 16.01562,-7.890625 6.71875,-7.96875 6.71875,-24.609375 0,-15.859375 -6.5625,-23.75 -6.48437,-7.890625 -15.54687,-7.890625 -8.98438,0 -15.9375,8.4375 -6.875,8.359375 -6.875,24.375 z"
       style="font-style:normal;font-weight:normal;font-size:160px;font-family:Arial;fill:#cc79a7;stroke:none"
       id="path1236"
       inkscape:connector-curvature="0" />
  </g>
  <g
     aria-label="2"
     transform="matrix(0.0666667,0,0,0.0666667,96.0554,74.1458)"
     style="font-style:normal;font-weight:normal;font-size:120px;font-family:Arial;fill:#cc79a7;stroke:none"
     id="text198">
    <path
       d="M 60.410156,-10.136719 V 0 H 3.6328125 Q 3.515625,-3.8085938 4.8632812,-7.3242187 7.03125,-13.125 11.777344,-18.75 q 4.804687,-5.625 13.828125,-13.007812 14.003906,-11.484375 18.925781,-18.164063 4.921875,-6.738281 4.921875,-12.714844 0,-6.269531 -4.511719,-10.546875 -4.453125,-4.335937 -11.660156,-4.335937 -7.617188,0 -12.1875,4.570312 -4.570313,4.570313 -4.628906,12.65625 L 5.625,-61.40625 Q 6.7382812,-73.535156 14.003906,-79.863281 21.269531,-86.25 33.515625,-86.25 q 12.363281,0 19.570312,6.855469 7.207032,6.855469 7.207032,16.992187 0,5.15625 -2.109375,10.136719 -2.109375,4.980469 -7.03125,10.488281 -4.863282,5.507813 -16.230469,15.117188 -9.492188,7.96875 -12.1875,10.839843 -2.695313,2.8125 -4.453125,5.683594 z"
       style="font-style:normal;font-weight:normal;font-size:120px;font-family:Arial;fill:#cc79a7;stroke:none"
       id="path1239"
       inkscape:connector-curvature="0" />
  </g>
  <g
     aria-label="Zr"
     transform="matrix(0.0666667,0,0,0.0666667,100.505,71.8792)"
     style="font-style:normal;font-weight:normal;font-size:160px;font-family:Arial;fill:#cc79a7;stroke:none"
     id="text200">
    <path
       d="M 3.203125,0 V -14.0625 L 61.875,-87.421875 q 6.25,-7.8125 11.875,-13.593755 H 9.84375 v -13.51562 H 91.875 v 13.51562 L 27.578125,-21.5625 20.625,-13.515625 H 93.75 V 0 Z"
       style="font-style:normal;font-weight:normal;font-size:160px;font-family:Arial;fill:#cc79a7;stroke:none"
       id="path1242"
       inkscape:connector-curvature="0" />
    <path
       d="m 108.20313,0 v -82.96875 h 12.65625 v 12.578125 q 4.84375,-8.828125 8.90624,-11.640625 4.14063,-2.8125 9.0625,-2.8125 7.10938,0 14.45313,4.53125 l -4.84375,13.046875 q -5.15625,-3.046875 -10.3125,-3.046875 -4.60938,0 -8.28125,2.8125 -3.67187,2.734375 -5.23437,7.65625 -2.34375,7.5 -2.34375,16.40625 V 0 Z"
       style="font-style:normal;font-weight:normal;font-size:160px;font-family:Arial;fill:#cc79a7;stroke:none"
       id="path1244"
       inkscape:connector-curvature="0" />
  </g>
  <path
     stroke="none"
     fill="#cc79a7"
     transform="matrix(0.0666667 0 0 0.0666667 0.444411 -102.333)"
     d="M 1630.8,2473.85 L 1620.59,2473.85 L 1620.59,2411.68 L 1630.8,2411.68 L 1630.8,2473.85 Z "
     id="path202" />
  <g
     aria-label="Cl"
     transform="matrix(0.0666667,0,0,0.0666667,118.247,79.5516)"
     style="font-style:normal;font-weight:normal;font-size:160px;font-family:Arial;fill:#cc79a7;stroke:none"
     id="text204">
    <path
       d="m 94.0625,-40.15625 15.15625,3.828125 Q 104.45313,-17.65625 92.03125,-7.8125 79.6875,1.953125 61.796875,1.953125 q -18.515625,0 -30.15625,-7.5 -11.5625,-7.578125 -17.65625,-21.875 Q 7.96875,-41.71875 7.96875,-58.125 q 0,-17.890625 6.796875,-31.171875 6.875,-13.359375 19.453125,-20.234375 12.65625,-6.95313 27.8125,-6.95313 17.1875,0 28.90625,8.75 11.71875,8.750005 16.32813,24.60938 l -14.92188,3.515625 q -3.984375,-12.5 -11.5625,-18.203125 -7.578125,-5.70313 -19.0625,-5.70313 -13.203125,0 -22.109375,6.32813 -8.828125,6.328125 -12.421875,17.03125 -3.59375,10.625 -3.59375,21.953125 0,14.609375 4.21875,25.546875 4.296875,10.859375 13.28125,16.25 8.984375,5.390625 19.453125,5.390625 12.734375,0 21.5625,-7.34375 8.828125,-7.34375 11.953125,-21.796875 z"
       style="font-style:normal;font-weight:normal;font-size:160px;font-family:Arial;fill:#cc79a7;stroke:none"
       id="path1247"
       inkscape:connector-curvature="0" />
    <path
       d="m 125.85938,0 v -114.53125 h 14.06249 V 0 Z"
       style="font-style:normal;font-weight:normal;font-size:160px;font-family:Arial;fill:#cc79a7;stroke:none"
       id="path1249"
       inkscape:connector-curvature="0" />
  </g>
  <path
     stroke="none"
     fill="#cc79a7"
     transform="matrix(0.0666667 0 0 0.0666667 0.444411 -102.333)"
     d="M 1761.73,2622.84 L 1756.63,2631.67 L 1661.39,2576.68 L 1666.49,2567.85 L 1761.73,2622.84 Z "
     id="path206" />
  <g
     aria-label="H"
     transform="matrix(0.0666667,0,0,0.0666667,103.957,30.0782)"
     style="font-style:normal;font-weight:normal;font-size:160px;font-family:Arial;fill:#cc79a7;stroke:none"
     id="text208">
    <path
       d="M 12.8125,0 V -114.53125 H 27.96875 V -67.5 H 87.5 v -47.03125 h 15.15625 V 0 H 87.5 V -53.984375 H 27.96875 V 0 Z"
       style="font-style:normal;font-weight:normal;font-size:160px;font-family:Arial;fill:#cc79a7;stroke:none"
       id="path1252"
       inkscape:connector-curvature="0" />
  </g>
  <path
     stroke="none"
     fill="#cc79a7"
     transform="matrix(0.0666667 0 0 0.0666667 0.444411 -102.333)"
     d="M 1686.57,1949.44 L 1689.29,1939.61 L 1836.14,1980.2 L 1833.42,1990.03 L 1686.57,1949.44 Z "
     id="path210" />
  <path
     stroke="none"
     fill="#cc79a7"
     transform="matrix(0.0666667 0 0 0.0666667 0.444411 -102.333)"
     d="M 1608.96,2012.26 L 1619.15,2011.87 L 1620.89,2057.81 L 1610.69,2058.2 L 1608.96,2012.26 Z "
     id="path212" />
  <path
     stroke="none"
     fill="#cc79a7"
     transform="matrix(0.0666667 0 0 0.0666667 0.444411 -102.333)"
     d="M 1612.43,2104.14 L 1622.63,2103.76 L 1624.36,2149.7 L 1614.17,2150.08 L 1612.43,2104.14 Z "
     id="path214" />
  <path
     stroke="none"
     fill="#cc79a7"
     transform="matrix(0.0666667 0 0 0.0666667 0.444411 -102.333)"
     d="M 1615.9,2196.03 L 1626.1,2195.64 L 1627.84,2241.58 L 1617.64,2241.97 L 1615.9,2196.03 Z "
     id="path216" />
  <g
     aria-label="N"
     transform="matrix(0.0666667,0,0,0.0666667,112.585,280.153)"
     style="font-style:normal;font-weight:normal;font-size:160px;font-family:Arial;fill:#cc79a7;stroke:none"
     id="text218">
    <path
       d="m 12.1875,0 v -114.53125 h 15.546875 l 60.15625,89.921875 V -114.53125 H 102.42188 V 0 H 86.875 L 26.71875,-90 V 0 Z"
       style="font-style:normal;font-weight:normal;font-size:160px;font-family:Arial;fill:#cc79a7;stroke:none"
       id="path1255"
       inkscape:connector-curvature="0" />
  </g>
  <path
     stroke="none"
     fill="#cc79a7"
     transform="matrix(0.0666667 0 0 0.0666667 0.444411 -102.333)"
     d="M 1519.91,5726.71 L 1514.97,5738.56 L 1391.81,5525.25 L 1412.9,5541.35 L 1519.91,5726.71 Z "
     id="path220" />
  <path
     stroke="none"
     fill="#cc79a7"
     transform="matrix(0.0666667 0 0 0.0666667 0.444411 -102.333)"
     d="M 1661.01,5689.75 L 1663.6,5699.62 L 1514.97,5738.56 L 1519.91,5726.71 L 1661.01,5689.75 Z "
     id="path222" />
  <path
     stroke="none"
     fill="#cc79a7"
     transform="matrix(0.0666667 0 0 0.0666667 0.444411 -102.333)"
     d="M 1950.87,5724.58 L 1961.42,5732.63 L 1961.43,5737.91 L 1815.69,5699.5 L 1818.29,5689.63 L 1950.87,5724.58 Z "
     id="path224" />
  <path
     stroke="none"
     fill="#cc79a7"
     transform="matrix(0.0666667 0 0 0.0666667 0.444411 -102.333)"
     d="M 1843.87,5539.22 L 1848.82,5527.38 L 1963.88,5726.69 L 1961.42,5732.63 L 1950.87,5724.58 L 1843.87,5539.22 Z "
     id="path226" />
  <path
     stroke="none"
     fill="#cc79a7"
     transform="matrix(0.0666667 0 0 0.0666667 0.444411 -102.333)"
     d="M 1623.66,5596.89 L 1623.67,5586.34 L 1848.82,5527.38 L 1843.87,5539.22 L 1623.66,5596.89 Z "
     id="path228" />
  <path
     stroke="none"
     fill="#cc79a7"
     transform="matrix(0.0666667 0 0 0.0666667 0.444411 -102.333)"
     d="M 1412.9,5541.35 L 1391.81,5525.25 L 1623.67,5586.34 L 1623.66,5596.89 L 1412.9,5541.35 Z "
     id="path230" />
  <g
     aria-label="O"
     transform="matrix(0.0666667,0,0,0.0666667,141.894,280.071)"
     style="font-style:normal;font-weight:normal;font-size:160px;font-family:Arial;fill:#cc79a7;stroke:none"
     id="text232">
    <path
       d="m 7.734375,-55.78125 q 0,-28.515625 15.3125,-44.60938 15.3125,-16.17187 39.53125,-16.17187 15.859375,0 28.59375,7.57812 12.734375,7.57813 19.375005,21.17188 6.71875,13.515625 6.71875,30.703125 0,17.421875 -7.03125,31.171875 -7.03125,13.75 -19.92188,20.859375 -12.890625,7.03125 -27.8125,7.03125 -16.171875,0 -28.90625,-7.8125 -12.734375,-7.8125 -19.296875,-21.328125 -6.5625,-13.515625 -6.5625,-28.59375 z m 15.625,0.234375 q 0,20.703125 11.09375,32.65625 11.171875,11.875 27.96875,11.875 17.109375,0 28.125,-12.03125 11.093755,-12.03125 11.093755,-34.140625 0,-13.984375 -4.76563,-24.375 -4.6875,-10.46875 -13.828125,-16.171875 -9.0625,-5.781255 -20.390625,-5.781255 -16.09375,0 -27.734375,11.093755 -11.5625,11.015625 -11.5625,36.875 z"
       style="font-style:normal;font-weight:normal;font-size:160px;font-family:Arial;fill:#cc79a7;stroke:none"
       id="path1258"
       inkscape:connector-curvature="0" />
  </g>
  <path
     stroke="none"
     fill="#cc79a7"
     transform="matrix(0.0666667 0 0 0.0666667 0.444411 -102.333)"
     d="M 2102.63,5689.51 L 2105.27,5699.37 L 1961.43,5737.91 L 1961.42,5732.63 L 1963.88,5726.69 L 2102.63,5689.51 Z "
     id="path234" />
  <g
     aria-label="H"
     transform="matrix(0.0666667,0,0,0.0666667,112.585,295.498)"
     style="font-style:normal;font-weight:normal;font-size:160px;font-family:Arial;fill:#cc79a7;stroke:none"
     id="text236">
    <path
       d="M 12.8125,0 V -114.53125 H 27.96875 V -67.5 H 87.5 v -47.03125 h 15.15625 V 0 H 87.5 V -53.984375 H 27.96875 V 0 Z"
       style="font-style:normal;font-weight:normal;font-size:160px;font-family:Arial;fill:#cc79a7;stroke:none"
       id="path1261"
       inkscape:connector-curvature="0" />
  </g>
  <path
     stroke="none"
     fill="#cc79a7"
     transform="matrix(0.0666667 0 0 0.0666667 0.444411 -102.333)"
     d="M 1745.21,5828.47 L 1735,5828.47 L 1735,5763.3 L 1745.21,5763.3 L 1745.21,5828.47 Z "
     id="path238" />
  <g
     aria-label="ZrCp"
     transform="matrix(0.0666667,0,0,0.0666667,153.611,290.921)"
     style="font-style:normal;font-weight:normal;font-size:160px;font-family:Arial;fill:#cc79a7;stroke:none"
     id="text240">
    <path
       d="M 3.203125,0 V -14.0625 L 61.875,-87.421875 q 6.25,-7.8125 11.875,-13.593755 H 9.84375 v -13.51562 H 91.875 v 13.51562 L 27.578125,-21.5625 20.625,-13.515625 H 93.75 V 0 Z"
       style="font-style:normal;font-weight:normal;font-size:160px;font-family:Arial;fill:#cc79a7;stroke:none"
       id="path1264"
       inkscape:connector-curvature="0" />
    <path
       d="m 108.20313,0 v -82.96875 h 12.65625 v 12.578125 q 4.84375,-8.828125 8.90624,-11.640625 4.14063,-2.8125 9.0625,-2.8125 7.10938,0 14.45313,4.53125 l -4.84375,13.046875 q -5.15625,-3.046875 -10.3125,-3.046875 -4.60938,0 -8.28125,2.8125 -3.67187,2.734375 -5.23437,7.65625 -2.34375,7.5 -2.34375,16.40625 V 0 Z"
       style="font-style:normal;font-weight:normal;font-size:160px;font-family:Arial;fill:#cc79a7;stroke:none"
       id="path1266"
       inkscape:connector-curvature="0" />
    <path
       d="m 245.3125,-40.15625 15.15625,3.828125 q -4.76563,18.671875 -17.1875,28.515625 -12.34375,9.765625 -30.23438,9.765625 -18.51562,0 -30.15625,-7.5 -11.5625,-7.578125 -17.65625,-21.875 -6.01562,-14.296875 -6.01562,-30.703125 0,-17.890625 6.79687,-31.171875 6.875,-13.359375 19.45313,-20.234375 12.65625,-6.95313 27.8125,-6.95313 17.1875,0 28.90625,8.75 11.71875,8.750005 16.32812,24.60938 l -14.92187,3.515625 q -3.98438,-12.5 -11.5625,-18.203125 -7.57813,-5.70313 -19.0625,-5.70313 -13.20313,0 -22.10938,6.32813 -8.82812,6.328125 -12.42187,17.03125 -3.59375,10.625 -3.59375,21.953125 0,14.609375 4.21875,25.546875 4.29687,10.859375 13.28125,16.25 8.98437,5.390625 19.45312,5.390625 12.73438,0 21.5625,-7.34375 8.82813,-7.34375 11.95313,-21.796875 z"
       style="font-style:normal;font-weight:normal;font-size:160px;font-family:Arial;fill:#cc79a7;stroke:none"
       id="path1268"
       inkscape:connector-curvature="0" />
    <path
       d="M 277.42187,31.796875 V -82.96875 h 12.8125 v 10.78125 q 4.53125,-6.328125 10.23438,-9.453125 5.70312,-3.203125 13.82812,-3.203125 10.625,0 18.75,5.46875 8.125,5.46875 12.26563,15.46875 4.14062,9.921875 4.14062,21.796875 0,12.734375 -4.60937,22.96875 -4.53125,10.15625 -13.28125,15.625 Q 322.89062,1.875 313.28125,1.875 q -7.03125,0 -12.65625,-2.96875 -5.54688,-2.96875 -9.14063,-7.5 v 40.390625 z m 12.73438,-72.8125 q 0,16.015625 6.48437,23.671875 6.48438,7.65625 15.70313,7.65625 9.375,0 16.01562,-7.890625 6.71875,-7.96875 6.71875,-24.609375 0,-15.859375 -6.5625,-23.75 -6.48437,-7.890625 -15.54687,-7.890625 -8.98438,0 -15.9375,8.4375 -6.875,8.359375 -6.875,24.375 z"
       style="font-style:normal;font-weight:normal;font-size:160px;font-family:Arial;fill:#cc79a7;stroke:none"
       id="path1270"
       inkscape:connector-curvature="0" />
  </g>
  <g
     aria-label="2"
     transform="matrix(0.0666667,0,0,0.0666667,177.363,293.188)"
     style="font-style:normal;font-weight:normal;font-size:120px;font-family:Arial;fill:#cc79a7;stroke:none"
     id="text242">
    <path
       d="M 60.410156,-10.136719 V 0 H 3.6328125 Q 3.515625,-3.8085938 4.8632812,-7.3242187 7.03125,-13.125 11.777344,-18.75 q 4.804687,-5.625 13.828125,-13.007812 14.003906,-11.484375 18.925781,-18.164063 4.921875,-6.738281 4.921875,-12.714844 0,-6.269531 -4.511719,-10.546875 -4.453125,-4.335937 -11.660156,-4.335937 -7.617188,0 -12.1875,4.570312 -4.570313,4.570313 -4.628906,12.65625 L 5.625,-61.40625 Q 6.7382812,-73.535156 14.003906,-79.863281 21.269531,-86.25 33.515625,-86.25 q 12.363281,0 19.570312,6.855469 7.207032,6.855469 7.207032,16.992187 0,5.15625 -2.109375,10.136719 -2.109375,4.980469 -7.03125,10.488281 -4.863282,5.507813 -16.230469,15.117188 -9.492188,7.96875 -12.1875,10.839843 -2.695313,2.8125 -4.453125,5.683594 z"
       style="font-style:normal;font-weight:normal;font-size:120px;font-family:Arial;fill:#cc79a7;stroke:none"
       id="path1273"
       inkscape:connector-curvature="0" />
  </g>
  <path
     stroke="none"
     fill="#cc79a7"
     transform="matrix(0.0666667 0 0 0.0666667 0.444411 -102.333)"
     d="M 2287.06,5769.16 L 2279.84,5776.38 L 2243.36,5739.89 L 2250.57,5732.67 L 2287.06,5769.16 Z "
     id="path244" />
  <g
     aria-label="Cl"
     transform="matrix(0.0666667,0,0,0.0666667,143.973,305.743)"
     style="font-style:normal;font-weight:normal;font-size:160px;font-family:Arial;fill:#cc79a7;stroke:none"
     id="text246">
    <path
       d="m 94.0625,-40.15625 15.15625,3.828125 Q 104.45313,-17.65625 92.03125,-7.8125 79.6875,1.953125 61.796875,1.953125 q -18.515625,0 -30.15625,-7.5 -11.5625,-7.578125 -17.65625,-21.875 Q 7.96875,-41.71875 7.96875,-58.125 q 0,-17.890625 6.796875,-31.171875 6.875,-13.359375 19.453125,-20.234375 12.65625,-6.95313 27.8125,-6.95313 17.1875,0 28.90625,8.75 11.71875,8.750005 16.32813,24.60938 l -14.92188,3.515625 q -3.984375,-12.5 -11.5625,-18.203125 -7.578125,-5.70313 -19.0625,-5.70313 -13.203125,0 -22.109375,6.32813 -8.828125,6.328125 -12.421875,17.03125 -3.59375,10.625 -3.59375,21.953125 0,14.609375 4.21875,25.546875 4.296875,10.859375 13.28125,16.25 8.984375,5.390625 19.453125,5.390625 12.734375,0 21.5625,-7.34375 8.828125,-7.34375 11.953125,-21.796875 z"
       style="font-style:normal;font-weight:normal;font-size:160px;font-family:Arial;fill:#cc79a7;stroke:none"
       id="path1276"
       inkscape:connector-curvature="0" />
    <path
       d="m 125.85938,0 v -114.53125 h 14.06249 V 0 Z"
       style="font-style:normal;font-weight:normal;font-size:160px;font-family:Arial;fill:#cc79a7;stroke:none"
       id="path1278"
       inkscape:connector-curvature="0" />
  </g>
  <path
     stroke="none"
     fill="#cc79a7"
     transform="matrix(0.0666667 0 0 0.0666667 0.444411 -102.333)"
     d="M 2311.5,5986.14 L 2301.65,5983.5 L 2315.91,5930.26 L 2325.77,5932.9 L 2311.5,5986.14 Z "
     id="path248" />
  <g
     aria-label="N"
     transform="matrix(0.0666667,0,0,0.0666667,371.307,22.8608)"
     style="font-style:normal;font-weight:normal;font-size:160px;font-family:Arial;fill:#cc79a7;stroke:none"
     id="text252">
    <path
       d="m 12.1875,0 v -114.53125 h 15.546875 l 60.15625,89.921875 V -114.53125 H 102.42188 V 0 H 86.875 L 26.71875,-90 V 0 Z"
       style="font-style:normal;font-weight:normal;font-size:160px;font-family:Arial;fill:#cc79a7;stroke:none"
       id="path1284"
       inkscape:connector-curvature="0" />
  </g>
  <path
     stroke="none"
     fill="#cc79a7"
     transform="matrix(0.0666667 0 0 0.0666667 0.444411 -102.333)"
     d="M 5615.83,1903.91 L 5626.03,1903.91 L 5626.03,2042.14 L 5620.93,2045.09 L 5615.83,2039.98 L 5615.83,1903.91 Z "
     id="path254" />
  <path
     stroke="none"
     fill="#cc79a7"
     transform="matrix(0.0666667 0 0 0.0666667 0.444411 -102.333)"
     d="M 5820.27,1693.93 L 5820.27,1705.72 L 5700.65,1774.78 L 5695.55,1765.94 L 5820.27,1693.93 Z "
     id="path256" />
  <path
     stroke="none"
     fill="#cc79a7"
     transform="matrix(0.0666667 0 0 0.0666667 0.444411 -102.333)"
     d="M 6024.7,1811.97 L 6014.5,1817.86 L 5820.27,1705.72 L 5820.27,1693.93 L 6024.7,1811.97 Z "
     id="path258" />
  <path
     stroke="none"
     fill="#cc79a7"
     transform="matrix(0.0666667 0 0 0.0666667 0.444411 -102.333)"
     d="M 6024.7,2048.03 L 6014.5,2042.14 L 6014.5,1817.86 L 6024.7,1811.97 L 6024.7,2048.03 Z "
     id="path260" />
  <path
     stroke="none"
     fill="#cc79a7"
     transform="matrix(0.0666667 0 0 0.0666667 0.444411 -102.333)"
     d="M 5820.27,2166.06 L 5820.27,2154.28 L 6014.5,2042.14 L 6024.7,2048.03 L 5820.27,2166.06 Z "
     id="path262" />
  <path
     stroke="none"
     fill="#cc79a7"
     transform="matrix(0.0666667 0 0 0.0666667 0.444411 -102.333)"
     d="M 5619.56,2050.19 L 5620.93,2045.09 L 5626.03,2042.14 L 5820.27,2154.28 L 5820.27,2166.06 L 5619.56,2050.19 Z "
     id="path264" />
  <g
     aria-label="H"
     transform="matrix(0.0666667,0,0,0.0666667,347.97,22.8608)"
     style="font-style:normal;font-weight:normal;font-size:160px;font-family:Arial;fill:#cc79a7;stroke:none"
     id="text266">
    <path
       d="M 12.8125,0 V -114.53125 H 27.96875 V -67.5 H 87.5 v -47.03125 h 15.15625 V 0 H 87.5 V -53.984375 H 27.96875 V 0 Z"
       style="font-style:normal;font-weight:normal;font-size:160px;font-family:Arial;fill:#cc79a7;stroke:none"
       id="path1287"
       inkscape:connector-curvature="0" />
  </g>
  <g
     aria-label="O"
     transform="matrix(0.0666667,0,0,0.0666667,347.703,38.2057)"
     style="font-style:normal;font-weight:normal;font-size:160px;font-family:Arial;fill:#cc79a7;stroke:none"
     id="text268">
    <path
       d="m 7.734375,-55.78125 q 0,-28.515625 15.3125,-44.60938 15.3125,-16.17187 39.53125,-16.17187 15.859375,0 28.59375,7.57812 12.734375,7.57813 19.375005,21.17188 6.71875,13.515625 6.71875,30.703125 0,17.421875 -7.03125,31.171875 -7.03125,13.75 -19.92188,20.859375 -12.890625,7.03125 -27.8125,7.03125 -16.171875,0 -28.90625,-7.8125 -12.734375,-7.8125 -19.296875,-21.328125 -6.5625,-13.515625 -6.5625,-28.59375 z m 15.625,0.234375 q 0,20.703125 11.09375,32.65625 11.171875,11.875 27.96875,11.875 17.109375,0 28.125,-12.03125 11.093755,-12.03125 11.093755,-34.140625 0,-13.984375 -4.76563,-24.375 -4.6875,-10.46875 -13.828125,-16.171875 -9.0625,-5.781255 -20.390625,-5.781255 -16.09375,0 -27.734375,11.093755 -11.5625,11.015625 -11.5625,36.875 z"
       style="font-style:normal;font-weight:normal;font-size:160px;font-family:Arial;fill:#cc79a7;stroke:none"
       id="path1290"
       inkscape:connector-curvature="0" />
  </g>
  <path
     stroke="none"
     fill="#cc79a7"
     transform="matrix(0.0666667 0 0 0.0666667 0.444411 -102.333)"
     d="M 5340.88,1820.01 L 5340.88,1809.81 L 5382.69,1809.81 L 5382.69,1820.01 L 5340.88,1820.01 Z "
     id="path270" />
  <path
     stroke="none"
     fill="#cc79a7"
     transform="matrix(0.0666667 0 0 0.0666667 0.444411 -102.333)"
     d="M 5424.5,1820.01 L 5424.5,1809.81 L 5466.31,1809.81 L 5466.31,1820.01 L 5424.5,1820.01 Z "
     id="path272" />
  <path
     stroke="none"
     fill="#cc79a7"
     transform="matrix(0.0666667 0 0 0.0666667 0.444411 -102.333)"
     d="M 5508.12,1820.01 L 5508.12,1809.81 L 5549.93,1809.81 L 5549.93,1820.01 L 5508.12,1820.01 Z "
     id="path274" />
  <path
     stroke="none"
     fill="#cc79a7"
     transform="matrix(0.0666667 0 0 0.0666667 0.444411 -102.333)"
     d="M 5275.98,1966.75 L 5265.77,1966.75 L 5265.77,1903.91 L 5275.98,1903.91 L 5275.98,1966.75 Z "
     id="path276" />
  <path
     stroke="none"
     fill="#cc79a7"
     transform="matrix(0.0666667 0 0 0.0666667 0.444411 -102.333)"
     d="M 5615.83,2039.98 L 5619.56,2050.19 L 5578.12,2050.19 L 5578.12,2039.98 L 5615.83,2039.98 Z "
     id="path278" />
  <path
     stroke="none"
     fill="#cc79a7"
     transform="matrix(0.0666667 0 0 0.0666667 0.444411 -102.333)"
     d="M 5540.41,2039.98 L 5540.41,2050.19 L 5502.71,2050.19 L 5502.71,2039.98 L 5540.41,2039.98 Z "
     id="path280" />
  <path
     stroke="none"
     fill="#cc79a7"
     transform="matrix(0.0666667 0 0 0.0666667 0.444411 -102.333)"
     d="M 5465,2039.98 L 5465,2050.19 L 5427.29,2050.19 L 5427.29,2039.98 L 5465,2039.98 Z "
     id="path282" />
  <path
     stroke="none"
     fill="#cc79a7"
     transform="matrix(0.0666667 0 0 0.0666667 0.444411 -102.333)"
     d="M 5389.58,2039.98 L 5389.58,2050.19 L 5351.88,2050.19 L 5351.88,2039.98 L 5389.58,2039.98 Z "
     id="path284" />
  <g
     aria-label="Cp"
     transform="matrix(0.0666667,0,0,0.0666667,314.55,49.0562)"
     style="font-style:normal;font-weight:normal;font-size:160px;font-family:Arial;fill:#cc79a7;stroke:none"
     id="text286">
    <path
       d="m 94.0625,-40.15625 15.15625,3.828125 Q 104.45313,-17.65625 92.03125,-7.8125 79.6875,1.953125 61.796875,1.953125 q -18.515625,0 -30.15625,-7.5 -11.5625,-7.578125 -17.65625,-21.875 Q 7.96875,-41.71875 7.96875,-58.125 q 0,-17.890625 6.796875,-31.171875 6.875,-13.359375 19.453125,-20.234375 12.65625,-6.95313 27.8125,-6.95313 17.1875,0 28.90625,8.75 11.71875,8.750005 16.32813,24.60938 l -14.92188,3.515625 q -3.984375,-12.5 -11.5625,-18.203125 -7.578125,-5.70313 -19.0625,-5.70313 -13.203125,0 -22.109375,6.32813 -8.828125,6.328125 -12.421875,17.03125 -3.59375,10.625 -3.59375,21.953125 0,14.609375 4.21875,25.546875 4.296875,10.859375 13.28125,16.25 8.984375,5.390625 19.453125,5.390625 12.734375,0 21.5625,-7.34375 8.828125,-7.34375 11.953125,-21.796875 z"
       style="font-style:normal;font-weight:normal;font-size:160px;font-family:Arial;fill:#cc79a7;stroke:none"
       id="path1293"
       inkscape:connector-curvature="0" />
    <path
       d="M 126.17188,31.796875 V -82.96875 h 12.81249 v 10.78125 q 4.53125,-6.328125 10.23438,-9.453125 5.70312,-3.203125 13.82812,-3.203125 10.625,0 18.75,5.46875 8.125,5.46875 12.26563,15.46875 4.14062,9.921875 4.14062,21.796875 0,12.734375 -4.60937,22.96875 -4.53125,10.15625 -13.28125,15.625 Q 171.64062,1.875 162.03125,1.875 155,1.875 149.375,-1.09375 q -5.54688,-2.96875 -9.14063,-7.5 v 40.390625 z m 12.73437,-72.8125 q 0,16.015625 6.48437,23.671875 6.48438,7.65625 15.70313,7.65625 9.375,0 16.01562,-7.890625 6.71875,-7.96875 6.71875,-24.609375 0,-15.859375 -6.5625,-23.75 -6.48437,-7.890625 -15.54687,-7.890625 -8.98438,0 -15.9375,8.4375 -6.875,8.359375 -6.875,24.375 z"
       style="font-style:normal;font-weight:normal;font-size:160px;font-family:Arial;fill:#cc79a7;stroke:none"
       id="path1295"
       inkscape:connector-curvature="0" />
  </g>
  <g
     aria-label="2"
     transform="matrix(0.0666667,0,0,0.0666667,328.217,51.3228)"
     style="font-style:normal;font-weight:normal;font-size:120px;font-family:Arial;fill:#cc79a7;stroke:none"
     id="text288">
    <path
       d="M 60.410156,-10.136719 V 0 H 3.6328125 Q 3.515625,-3.8085938 4.8632812,-7.3242187 7.03125,-13.125 11.777344,-18.75 q 4.804687,-5.625 13.828125,-13.007812 14.003906,-11.484375 18.925781,-18.164063 4.921875,-6.738281 4.921875,-12.714844 0,-6.269531 -4.511719,-10.546875 -4.453125,-4.335937 -11.660156,-4.335937 -7.617188,0 -12.1875,4.570312 -4.570313,4.570313 -4.628906,12.65625 L 5.625,-61.40625 Q 6.7382812,-73.535156 14.003906,-79.863281 21.269531,-86.25 33.515625,-86.25 q 12.363281,0 19.570312,6.855469 7.207032,6.855469 7.207032,16.992187 0,5.15625 -2.109375,10.136719 -2.109375,4.980469 -7.03125,10.488281 -4.863282,5.507813 -16.230469,15.117188 -9.492188,7.96875 -12.1875,10.839843 -2.695313,2.8125 -4.453125,5.683594 z"
       style="font-style:normal;font-weight:normal;font-size:120px;font-family:Arial;fill:#cc79a7;stroke:none"
       id="path1298"
       inkscape:connector-curvature="0" />
  </g>
  <g
     aria-label="Zr"
     transform="matrix(0.0666667,0,0,0.0666667,332.667,49.0562)"
     style="font-style:normal;font-weight:normal;font-size:160px;font-family:Arial;fill:#cc79a7;stroke:none"
     id="text290">
    <path
       d="M 3.203125,0 V -14.0625 L 61.875,-87.421875 q 6.25,-7.8125 11.875,-13.593755 H 9.84375 v -13.51562 H 91.875 v 13.51562 L 27.578125,-21.5625 20.625,-13.515625 H 93.75 V 0 Z"
       style="font-style:normal;font-weight:normal;font-size:160px;font-family:Arial;fill:#cc79a7;stroke:none"
       id="path1301"
       inkscape:connector-curvature="0" />
    <path
       d="m 108.20313,0 v -82.96875 h 12.65625 v 12.578125 q 4.84375,-8.828125 8.90624,-11.640625 4.14063,-2.8125 9.0625,-2.8125 7.10938,0 14.45313,4.53125 l -4.84375,13.046875 q -5.15625,-3.046875 -10.3125,-3.046875 -4.60938,0 -8.28125,2.8125 -3.67187,2.734375 -5.23437,7.65625 -2.34375,7.5 -2.34375,16.40625 V 0 Z"
       style="font-style:normal;font-weight:normal;font-size:160px;font-family:Arial;fill:#cc79a7;stroke:none"
       id="path1303"
       inkscape:connector-curvature="0" />
  </g>
  <path
     stroke="none"
     fill="#cc79a7"
     transform="matrix(0.0666667 0 0 0.0666667 0.444411 -102.333)"
     d="M 5152.01,2171.16 L 5144.8,2163.95 L 5205.05,2103.7 L 5212.27,2110.91 L 5152.01,2171.16 Z "
     id="path292" />
  <g
     aria-label="Cl"
     transform="matrix(0.0666667,0,0,0.0666667,341.091,63.8781)"
     style="font-style:normal;font-weight:normal;font-size:160px;font-family:Arial;fill:#cc79a7;stroke:none"
     id="text294">
    <path
       d="m 94.0625,-40.15625 15.15625,3.828125 Q 104.45313,-17.65625 92.03125,-7.8125 79.6875,1.953125 61.796875,1.953125 q -18.515625,0 -30.15625,-7.5 -11.5625,-7.578125 -17.65625,-21.875 Q 7.96875,-41.71875 7.96875,-58.125 q 0,-17.890625 6.796875,-31.171875 6.875,-13.359375 19.453125,-20.234375 12.65625,-6.95313 27.8125,-6.95313 17.1875,0 28.90625,8.75 11.71875,8.750005 16.32813,24.60938 l -14.92188,3.515625 q -3.984375,-12.5 -11.5625,-18.203125 -7.578125,-5.70313 -19.0625,-5.70313 -13.203125,0 -22.109375,6.32813 -8.828125,6.328125 -12.421875,17.03125 -3.59375,10.625 -3.59375,21.953125 0,14.609375 4.21875,25.546875 4.296875,10.859375 13.28125,16.25 8.984375,5.390625 19.453125,5.390625 12.734375,0 21.5625,-7.34375 8.828125,-7.34375 11.953125,-21.796875 z"
       style="font-style:normal;font-weight:normal;font-size:160px;font-family:Arial;fill:#cc79a7;stroke:none"
       id="path1306"
       inkscape:connector-curvature="0" />
    <path
       d="m 125.85938,0 v -114.53125 h 14.06249 V 0 Z"
       style="font-style:normal;font-weight:normal;font-size:160px;font-family:Arial;fill:#cc79a7;stroke:none"
       id="path1308"
       inkscape:connector-curvature="0" />
  </g>
  <path
     stroke="none"
     fill="#cc79a7"
     transform="matrix(0.0666667 0 0 0.0666667 0.444411 -102.333)"
     d="M 5152.5,2353.78 L 5142.65,2356.42 L 5125.6,2292.8 L 5135.46,2290.15 L 5152.5,2353.78 Z "
     id="path296" />
  <text
     x="108.46433"
     y="246.481"
     font-style="normal"
     font-weight="normal"
     font-size="151.554px"
     id="text298"
     style="font-style:normal;font-weight:normal;font-size:10.10360527px;font-family:Arial;text-align:center;text-anchor:middle;fill:#cc79a7;stroke:none;stroke-width:0.0666667">$2.9$</text>
  <text
     x="293.86908"
     y="29.532101"
     font-style="normal"
     font-weight="normal"
     font-size="151.554px"
     id="text300"
     style="font-style:normal;font-weight:normal;font-size:10.10360527px;font-family:Arial;text-align:center;text-anchor:middle;fill:#cc79a7;stroke:none;stroke-width:0.0666667">$63.3$</text>
  <path
     stroke="none"
     fill="#cc79a7"
     transform="matrix(0.0666667 0 0 0.0666667 0.444411 -102.333)"
     d="M 1831.94,5301.18 L 1406.88,5301.18 L 1406.88,5278.18 L 1831.94,5278.18 Z "
     id="path302" />
  <path
     stroke="none"
     fill="#cc79a7"
     transform="matrix(0.0666667 0 0 0.0666667 0.444411 -102.333)"
     d="M 4613.01,2046.94 L 4187.95,2046.94 L 4187.95,2023.94 L 4613.01,2023.94 Z "
     id="path304" />
  <path
     stroke="#cc79a7"
     stroke-width="10"
     fill="none"
     transform="matrix(0.0666667 0 0 0.0666667 0.444411 -102.333)"
     stroke-dasharray="40"
     d="M 2993.93,2070.86 L 4187.95,2035.44 "
     id="path306" />
  <path
     stroke="#cc79a7"
     stroke-width="10"
     fill="none"
     transform="matrix(0.0666667 0 0 0.0666667 0.444411 -102.333)"
     stroke-dasharray="40"
     d="M 1831.94,5289.68 L 2568.87,2070.86 "
     id="path308" />
  <text
     x="0"
     y="0"
     transform="matrix(0.0666667,0,0,0.0666667,82.1948,309.021)"
     font-style="normal"
     font-weight="normal"
     font-size="151.554px"
     id="text310"
     style="font-style:normal;font-weight:normal;font-size:151.55400085px;font-family:Arial;fill:#cc79a7;stroke:none">\cmpd{int-1-b}</text>
  <text
     x="0"
     y="0"
     transform="matrix(0.0666667,0,0,0.0666667,362.639,61.507)"
     font-style="normal"
     font-weight="normal"
     font-size="160px"
     id="text312"
     style="font-style:normal;font-weight:normal;font-size:160px;font-family:Arial;fill:#cc79a7;stroke:none">\cmpd{int-2-b}</text>
  <g
     aria-label="-Cp"
     transform="matrix(0.0666667,0,0,0.0666667,170.304,225.446)"
     style="font-style:normal;font-weight:normal;font-size:160px;font-family:Arial;fill:#009e73;stroke:none"
     id="text314">
    <path
       d="M 5.078125,-34.375 V -48.515625 H 48.28125 V -34.375 Z"
       style="font-style:normal;font-weight:normal;font-size:160px;font-family:Arial;fill:#009e73;stroke:none"
       id="path1311"
       inkscape:connector-curvature="0" />
    <path
       d="m 147.5,-40.15625 15.15625,3.828125 q -4.76563,18.671875 -17.1875,28.515625 -12.34375,9.765625 -30.23437,9.765625 -18.51563,0 -30.156255,-7.5 -11.5625,-7.578125 -17.65625,-21.875 Q 61.40625,-41.71875 61.40625,-58.125 q 0,-17.890625 6.796875,-31.171875 6.875,-13.359375 19.453125,-20.234375 12.65625,-6.95313 27.8125,-6.95313 17.1875,0 28.90625,8.75 11.71875,8.750005 16.32812,24.60938 l -14.92187,3.515625 q -3.98438,-12.5 -11.5625,-18.203125 -7.57812,-5.70313 -19.0625,-5.70313 -13.20312,0 -22.109375,6.32813 -8.828125,6.328125 -12.421875,17.03125 -3.59375,10.625 -3.59375,21.953125 0,14.609375 4.21875,25.546875 4.296875,10.859375 13.28125,16.25 8.98438,5.390625 19.45313,5.390625 12.73437,0 21.56249,-7.34375 8.82813,-7.34375 11.95313,-21.796875 z"
       style="font-style:normal;font-weight:normal;font-size:160px;font-family:Arial;fill:#009e73;stroke:none"
       id="path1313"
       inkscape:connector-curvature="0" />
    <path
       d="M 179.60937,31.796875 V -82.96875 h 12.8125 v 10.78125 q 4.53125,-6.328125 10.23438,-9.453125 5.70312,-3.203125 13.82812,-3.203125 10.625,0 18.75,5.46875 8.125,5.46875 12.26563,15.46875 4.14062,9.921875 4.14062,21.796875 0,12.734375 -4.60937,22.96875 Q 242.5,-8.984375 233.75,-3.515625 225.07812,1.875 215.46875,1.875 q -7.03125,0 -12.65625,-2.96875 -5.54688,-2.96875 -9.14063,-7.5 v 40.390625 z m 12.73438,-72.8125 q 0,16.015625 6.48437,23.671875 6.48438,7.65625 15.70313,7.65625 9.375,0 16.01562,-7.890625 6.71875,-7.96875 6.71875,-24.609375 0,-15.859375 -6.5625,-23.75 -6.48437,-7.890625 -15.54687,-7.890625 -8.98438,0 -15.9375,8.4375 -6.875,8.359375 -6.875,24.375 z"
       style="font-style:normal;font-weight:normal;font-size:160px;font-family:Arial;fill:#009e73;stroke:none"
       id="path1315"
       inkscape:connector-curvature="0" />
  </g>
  <g
     aria-label="2"
     transform="matrix(0.0666667,0,0,0.0666667,187.523,227.713)"
     style="font-style:normal;font-weight:normal;font-size:120px;font-family:Arial;fill:#009e73;stroke:none"
     id="text316">
    <path
       d="M 60.410156,-10.136719 V 0 H 3.6328125 Q 3.515625,-3.8085938 4.8632812,-7.3242187 7.03125,-13.125 11.777344,-18.75 q 4.804687,-5.625 13.828125,-13.007812 14.003906,-11.484375 18.925781,-18.164063 4.921875,-6.738281 4.921875,-12.714844 0,-6.269531 -4.511719,-10.546875 -4.453125,-4.335937 -11.660156,-4.335937 -7.617188,0 -12.1875,4.570312 -4.570313,4.570313 -4.628906,12.65625 L 5.625,-61.40625 Q 6.7382812,-73.535156 14.003906,-79.863281 21.269531,-86.25 33.515625,-86.25 q 12.363281,0 19.570312,6.855469 7.207032,6.855469 7.207032,16.992187 0,5.15625 -2.109375,10.136719 -2.109375,4.980469 -7.03125,10.488281 -4.863282,5.507813 -16.230469,15.117188 -9.492188,7.96875 -12.1875,10.839843 -2.695313,2.8125 -4.453125,5.683594 z"
       style="font-style:normal;font-weight:normal;font-size:120px;font-family:Arial;fill:#009e73;stroke:none"
       id="path1318"
       inkscape:connector-curvature="0" />
  </g>
  <g
     aria-label="Zr(OH)Cl"
     transform="matrix(0.0666667,0,0,0.0666667,191.973,225.446)"
     style="font-style:normal;font-weight:normal;font-size:160px;font-family:Arial;fill:#009e73;stroke:none"
     id="text318">
    <path
       d="M 3.203125,0 V -14.0625 L 61.875,-87.421875 q 6.25,-7.8125 11.875,-13.593755 H 9.84375 v -13.51562 H 91.875 v 13.51562 L 27.578125,-21.5625 20.625,-13.515625 H 93.75 V 0 Z"
       style="font-style:normal;font-weight:normal;font-size:160px;font-family:Arial;fill:#009e73;stroke:none"
       id="path1321"
       inkscape:connector-curvature="0" />
    <path
       d="m 108.20313,0 v -82.96875 h 12.65625 v 12.578125 q 4.84375,-8.828125 8.90624,-11.640625 4.14063,-2.8125 9.0625,-2.8125 7.10938,0 14.45313,4.53125 l -4.84375,13.046875 q -5.15625,-3.046875 -10.3125,-3.046875 -4.60938,0 -8.28125,2.8125 -3.67187,2.734375 -5.23437,7.65625 -2.34375,7.5 -2.34375,16.40625 V 0 Z"
       style="font-style:normal;font-weight:normal;font-size:160px;font-family:Arial;fill:#009e73;stroke:none"
       id="path1323"
       inkscape:connector-curvature="0" />
    <path
       d="m 188.67187,33.671875 q -11.64062,-14.6875 -19.6875,-34.375 -8.04687,-19.6875 -8.04687,-40.78125 0,-18.59375 6.01562,-35.625 7.03125,-19.765625 21.71875,-39.375005 H 198.75 q -9.45313,16.25 -12.5,23.20313 -4.76563,10.78125 -7.5,22.5 -3.35938,14.609375 -3.35938,29.375 0,37.578125 23.35938,75.078125 z"
       style="font-style:normal;font-weight:normal;font-size:160px;font-family:Arial;fill:#009e73;stroke:none"
       id="path1325"
       inkscape:connector-curvature="0" />
    <path
       d="m 212.42187,-55.78125 q 0,-28.515625 15.3125,-44.60938 15.3125,-16.17187 39.53125,-16.17187 15.85938,0 28.59375,7.57812 12.73438,7.57813 19.375,21.17188 6.71875,13.515625 6.71875,30.703125 0,17.421875 -7.03125,31.171875 -7.03125,13.75 -19.92187,20.859375 -12.89063,7.03125 -27.8125,7.03125 -16.17188,0 -28.90625,-7.8125 -12.73438,-7.8125 -19.29688,-21.328125 -6.5625,-13.515625 -6.5625,-28.59375 z m 15.625,0.234375 q 0,20.703125 11.09375,32.65625 11.17188,11.875 27.96875,11.875 17.10938,0 28.125,-12.03125 11.09375,-12.03125 11.09375,-34.140625 0,-13.984375 -4.76562,-24.375 -4.6875,-10.46875 -13.82813,-16.171875 -9.0625,-5.781255 -20.39062,-5.781255 -16.09375,0 -27.73438,11.093755 -11.5625,11.015625 -11.5625,36.875 z"
       style="font-style:normal;font-weight:normal;font-size:160px;font-family:Arial;fill:#009e73;stroke:none"
       id="path1327"
       inkscape:connector-curvature="0" />
    <path
       d="m 341.875,0 v -114.53125 h 15.15625 V -67.5 h 59.53125 v -47.03125 h 15.15625 V 0 H 416.5625 V -53.984375 H 357.03125 V 0 Z"
       style="font-style:normal;font-weight:normal;font-size:160px;font-family:Arial;fill:#009e73;stroke:none"
       id="path1329"
       inkscape:connector-curvature="0" />
    <path
       d="M 464.45312,33.671875 H 454.375 q 23.35937,-37.5 23.35937,-75.078125 0,-14.6875 -3.35937,-29.140625 -2.65625,-11.71875 -7.42188,-22.5 -3.04687,-7.031255 -12.57812,-23.437505 h 10.07812 q 14.6875,19.60938 21.71875,39.375005 6.01563,17.03125 6.01563,35.625 0,21.09375 -8.125,40.78125 -8.04688,19.6875 -19.60938,34.375 z"
       style="font-style:normal;font-weight:normal;font-size:160px;font-family:Arial;fill:#009e73;stroke:none"
       id="path1331"
       inkscape:connector-curvature="0" />
    <path
       d="m 592.1875,-40.15625 15.15625,3.828125 q -4.76563,18.671875 -17.1875,28.515625 -12.34375,9.765625 -30.23438,9.765625 -18.51562,0 -30.15625,-7.5 -11.5625,-7.578125 -17.65625,-21.875 -6.01562,-14.296875 -6.01562,-30.703125 0,-17.890625 6.79687,-31.171875 6.875,-13.359375 19.45313,-20.234375 12.65625,-6.95313 27.8125,-6.95313 17.1875,0 28.90625,8.75 11.71875,8.750005 16.32812,24.60938 l -14.92187,3.515625 q -3.98438,-12.5 -11.5625,-18.203125 -7.57813,-5.70313 -19.0625,-5.70313 -13.20313,0 -22.10938,6.32813 -8.82812,6.328125 -12.42187,17.03125 -3.59375,10.625 -3.59375,21.953125 0,14.609375 4.21875,25.546875 4.29687,10.859375 13.28125,16.25 8.98437,5.390625 19.45312,5.390625 12.73438,0 21.5625,-7.34375 8.82813,-7.34375 11.95313,-21.796875 z"
       style="font-style:normal;font-weight:normal;font-size:160px;font-family:Arial;fill:#009e73;stroke:none"
       id="path1333"
       inkscape:connector-curvature="0" />
    <path
       d="m 623.98437,0 v -114.53125 h 14.0625 V 0 Z"
       style="font-style:normal;font-weight:normal;font-size:160px;font-family:Arial;fill:#009e73;stroke:none"
       id="path1335"
       inkscape:connector-curvature="0" />
  </g>
  <g
     aria-label="-Cp"
     transform="matrix(0.0666667,0,0,0.0666667,253.455,92.7271)"
     style="font-style:normal;font-weight:normal;font-size:160px;font-family:Arial;fill:#cc79a7;stroke:none"
     id="text320">
    <path
       d="M 5.078125,-34.375 V -48.515625 H 48.28125 V -34.375 Z"
       style="font-style:normal;font-weight:normal;font-size:160px;font-family:Arial;fill:#cc79a7;stroke:none"
       id="path1338"
       inkscape:connector-curvature="0" />
    <path
       d="m 147.5,-40.15625 15.15625,3.828125 q -4.76563,18.671875 -17.1875,28.515625 -12.34375,9.765625 -30.23437,9.765625 -18.51563,0 -30.156255,-7.5 -11.5625,-7.578125 -17.65625,-21.875 Q 61.40625,-41.71875 61.40625,-58.125 q 0,-17.890625 6.796875,-31.171875 6.875,-13.359375 19.453125,-20.234375 12.65625,-6.95313 27.8125,-6.95313 17.1875,0 28.90625,8.75 11.71875,8.750005 16.32812,24.60938 l -14.92187,3.515625 q -3.98438,-12.5 -11.5625,-18.203125 -7.57812,-5.70313 -19.0625,-5.70313 -13.20312,0 -22.109375,6.32813 -8.828125,6.328125 -12.421875,17.03125 -3.59375,10.625 -3.59375,21.953125 0,14.609375 4.21875,25.546875 4.296875,10.859375 13.28125,16.25 8.98438,5.390625 19.45313,5.390625 12.73437,0 21.56249,-7.34375 8.82813,-7.34375 11.95313,-21.796875 z"
       style="font-style:normal;font-weight:normal;font-size:160px;font-family:Arial;fill:#cc79a7;stroke:none"
       id="path1340"
       inkscape:connector-curvature="0" />
    <path
       d="M 179.60937,31.796875 V -82.96875 h 12.8125 v 10.78125 q 4.53125,-6.328125 10.23438,-9.453125 5.70312,-3.203125 13.82812,-3.203125 10.625,0 18.75,5.46875 8.125,5.46875 12.26563,15.46875 4.14062,9.921875 4.14062,21.796875 0,12.734375 -4.60937,22.96875 Q 242.5,-8.984375 233.75,-3.515625 225.07812,1.875 215.46875,1.875 q -7.03125,0 -12.65625,-2.96875 -5.54688,-2.96875 -9.14063,-7.5 v 40.390625 z m 12.73438,-72.8125 q 0,16.015625 6.48437,23.671875 6.48438,7.65625 15.70313,7.65625 9.375,0 16.01562,-7.890625 6.71875,-7.96875 6.71875,-24.609375 0,-15.859375 -6.5625,-23.75 -6.48437,-7.890625 -15.54687,-7.890625 -8.98438,0 -15.9375,8.4375 -6.875,8.359375 -6.875,24.375 z"
       style="font-style:normal;font-weight:normal;font-size:160px;font-family:Arial;fill:#cc79a7;stroke:none"
       id="path1342"
       inkscape:connector-curvature="0" />
  </g>
  <g
     aria-label="2"
     transform="matrix(0.0666667,0,0,0.0666667,270.673,94.9937)"
     style="font-style:normal;font-weight:normal;font-size:120px;font-family:Arial;fill:#cc79a7;stroke:none"
     id="text322">
    <path
       d="M 60.410156,-10.136719 V 0 H 3.6328125 Q 3.515625,-3.8085938 4.8632812,-7.3242187 7.03125,-13.125 11.777344,-18.75 q 4.804687,-5.625 13.828125,-13.007812 14.003906,-11.484375 18.925781,-18.164063 4.921875,-6.738281 4.921875,-12.714844 0,-6.269531 -4.511719,-10.546875 -4.453125,-4.335937 -11.660156,-4.335937 -7.617188,0 -12.1875,4.570312 -4.570313,4.570313 -4.628906,12.65625 L 5.625,-61.40625 Q 6.7382812,-73.535156 14.003906,-79.863281 21.269531,-86.25 33.515625,-86.25 q 12.363281,0 19.570312,6.855469 7.207032,6.855469 7.207032,16.992187 0,5.15625 -2.109375,10.136719 -2.109375,4.980469 -7.03125,10.488281 -4.863282,5.507813 -16.230469,15.117188 -9.492188,7.96875 -12.1875,10.839843 -2.695313,2.8125 -4.453125,5.683594 z"
       style="font-style:normal;font-weight:normal;font-size:120px;font-family:Arial;fill:#cc79a7;stroke:none"
       id="path1345"
       inkscape:connector-curvature="0" />
  </g>
  <g
     aria-label="Zr(OH)Cl"
     transform="matrix(0.0666667,0,0,0.0666667,275.123,92.7271)"
     style="font-style:normal;font-weight:normal;font-size:160px;font-family:Arial;fill:#cc79a7;stroke:none"
     id="text324">
    <path
       d="M 3.203125,0 V -14.0625 L 61.875,-87.421875 q 6.25,-7.8125 11.875,-13.593755 H 9.84375 v -13.51562 H 91.875 v 13.51562 L 27.578125,-21.5625 20.625,-13.515625 H 93.75 V 0 Z"
       style="font-style:normal;font-weight:normal;font-size:160px;font-family:Arial;fill:#cc79a7;stroke:none"
       id="path1348"
       inkscape:connector-curvature="0" />
    <path
       d="m 108.20313,0 v -82.96875 h 12.65625 v 12.578125 q 4.84375,-8.828125 8.90624,-11.640625 4.14063,-2.8125 9.0625,-2.8125 7.10938,0 14.45313,4.53125 l -4.84375,13.046875 q -5.15625,-3.046875 -10.3125,-3.046875 -4.60938,0 -8.28125,2.8125 -3.67187,2.734375 -5.23437,7.65625 -2.34375,7.5 -2.34375,16.40625 V 0 Z"
       style="font-style:normal;font-weight:normal;font-size:160px;font-family:Arial;fill:#cc79a7;stroke:none"
       id="path1350"
       inkscape:connector-curvature="0" />
    <path
       d="m 188.67187,33.671875 q -11.64062,-14.6875 -19.6875,-34.375 -8.04687,-19.6875 -8.04687,-40.78125 0,-18.59375 6.01562,-35.625 7.03125,-19.765625 21.71875,-39.375005 H 198.75 q -9.45313,16.25 -12.5,23.20313 -4.76563,10.78125 -7.5,22.5 -3.35938,14.609375 -3.35938,29.375 0,37.578125 23.35938,75.078125 z"
       style="font-style:normal;font-weight:normal;font-size:160px;font-family:Arial;fill:#cc79a7;stroke:none"
       id="path1352"
       inkscape:connector-curvature="0" />
    <path
       d="m 212.42187,-55.78125 q 0,-28.515625 15.3125,-44.60938 15.3125,-16.17187 39.53125,-16.17187 15.85938,0 28.59375,7.57812 12.73438,7.57813 19.375,21.17188 6.71875,13.515625 6.71875,30.703125 0,17.421875 -7.03125,31.171875 -7.03125,13.75 -19.92187,20.859375 -12.89063,7.03125 -27.8125,7.03125 -16.17188,0 -28.90625,-7.8125 -12.73438,-7.8125 -19.29688,-21.328125 -6.5625,-13.515625 -6.5625,-28.59375 z m 15.625,0.234375 q 0,20.703125 11.09375,32.65625 11.17188,11.875 27.96875,11.875 17.10938,0 28.125,-12.03125 11.09375,-12.03125 11.09375,-34.140625 0,-13.984375 -4.76562,-24.375 -4.6875,-10.46875 -13.82813,-16.171875 -9.0625,-5.781255 -20.39062,-5.781255 -16.09375,0 -27.73438,11.093755 -11.5625,11.015625 -11.5625,36.875 z"
       style="font-style:normal;font-weight:normal;font-size:160px;font-family:Arial;fill:#cc79a7;stroke:none"
       id="path1354"
       inkscape:connector-curvature="0" />
    <path
       d="m 341.875,0 v -114.53125 h 15.15625 V -67.5 h 59.53125 v -47.03125 h 15.15625 V 0 H 416.5625 V -53.984375 H 357.03125 V 0 Z"
       style="font-style:normal;font-weight:normal;font-size:160px;font-family:Arial;fill:#cc79a7;stroke:none"
       id="path1356"
       inkscape:connector-curvature="0" />
    <path
       d="M 464.45312,33.671875 H 454.375 q 23.35937,-37.5 23.35937,-75.078125 0,-14.6875 -3.35937,-29.140625 -2.65625,-11.71875 -7.42188,-22.5 -3.04687,-7.031255 -12.57812,-23.437505 h 10.07812 q 14.6875,19.60938 21.71875,39.375005 6.01563,17.03125 6.01563,35.625 0,21.09375 -8.125,40.78125 -8.04688,19.6875 -19.60938,34.375 z"
       style="font-style:normal;font-weight:normal;font-size:160px;font-family:Arial;fill:#cc79a7;stroke:none"
       id="path1358"
       inkscape:connector-curvature="0" />
    <path
       d="m 592.1875,-40.15625 15.15625,3.828125 q -4.76563,18.671875 -17.1875,28.515625 -12.34375,9.765625 -30.23438,9.765625 -18.51562,0 -30.15625,-7.5 -11.5625,-7.578125 -17.65625,-21.875 -6.01562,-14.296875 -6.01562,-30.703125 0,-17.890625 6.79687,-31.171875 6.875,-13.359375 19.45313,-20.234375 12.65625,-6.95313 27.8125,-6.95313 17.1875,0 28.90625,8.75 11.71875,8.750005 16.32812,24.60938 l -14.92187,3.515625 q -3.98438,-12.5 -11.5625,-18.203125 -7.57813,-5.70313 -19.0625,-5.70313 -13.20313,0 -22.10938,6.32813 -8.82812,6.328125 -12.42187,17.03125 -3.59375,10.625 -3.59375,21.953125 0,14.609375 4.21875,25.546875 4.29687,10.859375 13.28125,16.25 8.98437,5.390625 19.45312,5.390625 12.73438,0 21.5625,-7.34375 8.82813,-7.34375 11.95313,-21.796875 z"
       style="font-style:normal;font-weight:normal;font-size:160px;font-family:Arial;fill:#cc79a7;stroke:none"
       id="path1360"
       inkscape:connector-curvature="0" />
    <path
       d="m 623.98437,0 v -114.53125 h 14.0625 V 0 Z"
       style="font-style:normal;font-weight:normal;font-size:160px;font-family:Arial;fill:#cc79a7;stroke:none"
       id="path1362"
       inkscape:connector-curvature="0" />
  </g>
  <text
     x="0"
     y="0"
     transform="matrix(0.0666667,0,0,0.0666667,375.501,195.674)"
     font-style="normal"
     font-weight="normal"
     font-size="160px"
     id="text326"
     style="font-style:normal;font-weight:normal;font-size:160px;font-family:Arial;fill:#000000;stroke:none">\cmpd{int-3}</text>
  <path
     inkscape:connector-curvature="0"
     style="fill:#cc79a7;stroke:none;stroke-width:0.0666667"
     d="m 377.59526,24.595267 h 0.68067 v 7.816671 h -0.68067 z"
     id="path90-5" />
</svg>
