<?xml version="1.0" encoding="UTF-8" standalone="no"?>
<svg
   xmlns:dc="http://purl.org/dc/elements/1.1/"
   xmlns:cc="http://creativecommons.org/ns#"
   xmlns:rdf="http://www.w3.org/1999/02/22-rdf-syntax-ns#"
   xmlns:svg="http://www.w3.org/2000/svg"
   xmlns="http://www.w3.org/2000/svg"
   xmlns:sodipodi="http://sodipodi.sourceforge.net/DTD/sodipodi-0.dtd"
   xmlns:inkscape="http://www.inkscape.org/namespaces/inkscape"
   width="48.9479mm"
   height="39.9521mm"
   viewBox="0 0 185 151"
   version="1.2"
   id="svg106"
   sodipodi:docname="nmr-imine-expand.svg"
   inkscape:version="0.92.3 (2405546, 2018-03-11)">
  <metadata
     id="metadata110">
    <rdf:RDF>
      <cc:Work
         rdf:about="">
        <dc:format>image/svg+xml</dc:format>
        <dc:type
           rdf:resource="http://purl.org/dc/dcmitype/StillImage" />
      </cc:Work>
    </rdf:RDF>
  </metadata>
  <sodipodi:namedview
     pagecolor="#ffffff"
     bordercolor="#666666"
     borderopacity="1"
     objecttolerance="10"
     gridtolerance="10"
     guidetolerance="10"
     inkscape:pageopacity="0"
     inkscape:pageshadow="2"
     inkscape:window-width="1920"
     inkscape:window-height="1017"
     id="namedview108"
     showgrid="false"
     inkscape:zoom="3.1258266"
     inkscape:cx="215.40038"
     inkscape:cy="87.050408"
     inkscape:window-x="-8"
     inkscape:window-y="-8"
     inkscape:window-maximized="1"
     inkscape:current-layer="svg106" />
  <title
     id="title2">Qt SVG Document</title>
  <desc
     id="desc4">Generated with Qt</desc>
  <defs
     id="defs6" />
  <g
     style="font-style:normal;font-weight:400;font-size:11px;font-family:'MS Shell Dlg 2';fill:none;fill-rule:evenodd;stroke:#000000;stroke-width:1;stroke-linecap:square;stroke-linejoin:bevel;stroke-opacity:1"
     id="g8"
     font-style="normal"
     font-weight="400"
     font-size="11"
     transform="matrix(0.319516,0,0,0.319915,-2150.98,-2170.62)" />
  <g
     style="font-style:normal;font-weight:400;font-size:11px;font-family:'MS Shell Dlg 2';fill:none;fill-rule:evenodd;stroke:#000000;stroke-width:1;stroke-linecap:square;stroke-linejoin:bevel;stroke-opacity:1"
     id="g10"
     font-style="normal"
     font-weight="400"
     font-size="11"
     transform="matrix(0.319516,0,0,0.319915,-2150.98,-2170.62)" />
  <text
     xml:space="preserve"
     x="174.76788"
     y="148.5815"
     font-size="40"
     font-weight="400"
     font-style="normal"
     id="text12"
     style="font-style:normal;font-weight:400;font-size:5.3333333px;font-family:'MS Shell Dlg 2';text-align:center;text-anchor:middle;fill:#000000;fill-opacity:1;fill-rule:evenodd;stroke:none;stroke-width:0.79928857;stroke-linecap:butt;stroke-linejoin:bevel;stroke-opacity:1;"
     transform="scale(0.9993762,1.0006242)">$7.54$</text>
  <text
     xml:space="preserve"
     x="133.64932"
     y="148.5815"
     font-size="40"
     font-weight="400"
     font-style="normal"
     id="text14"
     style="font-style:normal;font-weight:400;font-size:5.3333333px;font-family:'MS Shell Dlg 2';text-align:center;text-anchor:middle;fill:#000000;fill-opacity:1;fill-rule:evenodd;stroke:none;stroke-width:0.79928857;stroke-linecap:butt;stroke-linejoin:bevel;stroke-opacity:1;"
     transform="scale(0.9993762,1.0006242)">$7.56$</text>
  <text
     xml:space="preserve"
     x="92.530762"
     y="148.5815"
     font-size="40"
     font-weight="400"
     font-style="normal"
     id="text16"
     style="font-style:normal;font-weight:400;font-size:5.3333333px;font-family:'MS Shell Dlg 2';text-align:center;text-anchor:middle;fill:#000000;fill-opacity:1;fill-rule:evenodd;stroke:none;stroke-width:0.79928857;stroke-linecap:butt;stroke-linejoin:bevel;stroke-opacity:1;"
     transform="scale(0.9993762,1.0006242)">$7.58$</text>
  <text
     xml:space="preserve"
     x="51.412048"
     y="148.5815"
     font-size="40"
     font-weight="400"
     font-style="normal"
     id="text18"
     style="font-style:normal;font-weight:400;font-size:5.3333333px;font-family:'MS Shell Dlg 2';text-align:center;text-anchor:middle;fill:#000000;fill-opacity:1;fill-rule:evenodd;stroke:none;stroke-width:0.79928857;stroke-linecap:butt;stroke-linejoin:bevel;stroke-opacity:1;"
     transform="scale(0.9993762,1.0006242)">$7.60$</text>
  <text
     xml:space="preserve"
     x="10.29349"
     y="148.5815"
     font-size="40"
     font-weight="400"
     font-style="normal"
     id="text20"
     style="font-style:normal;font-weight:400;font-size:5.3333333px;font-family:'MS Shell Dlg 2';text-align:center;text-anchor:middle;fill:#000000;fill-opacity:1;fill-rule:evenodd;stroke:none;stroke-width:0.79928857;stroke-linecap:butt;stroke-linejoin:bevel;stroke-opacity:1;"
     transform="scale(0.9993762,1.0006242)">$7.62$</text>
  <polyline
     points="6732.13,7188.72 7310.87,7188.72 "
     id="polyline22"
     style="font-style:normal;font-weight:400;font-size:40px;font-family:'MS Shell Dlg 2';vector-effect:none;fill:none;fill-rule:evenodd;stroke:#000000;stroke-width:2.5;stroke-linecap:butt;stroke-linejoin:bevel;stroke-opacity:1"
     transform="matrix(0.319516,0,0,0.319915,-2150.98,-2170.62)" />
  <polyline
     points="7214.41,7188.72 7214.41,7197.72 "
     id="polyline24"
     style="font-style:normal;font-weight:400;font-size:40px;font-family:'MS Shell Dlg 2';vector-effect:none;fill:none;fill-rule:evenodd;stroke:#000000;stroke-width:2.5;stroke-linecap:butt;stroke-linejoin:bevel;stroke-opacity:1"
     transform="matrix(0.319516,0,0,0.319915,-2150.98,-2170.62)" />
  <polyline
     points="7085.8,7188.72 7085.8,7197.72 "
     id="polyline26"
     style="font-style:normal;font-weight:400;font-size:40px;font-family:'MS Shell Dlg 2';vector-effect:none;fill:none;fill-rule:evenodd;stroke:#000000;stroke-width:2.5;stroke-linecap:butt;stroke-linejoin:bevel;stroke-opacity:1"
     transform="matrix(0.319516,0,0,0.319915,-2150.98,-2170.62)" />
  <polyline
     points="6957.2,7188.72 6957.2,7197.72 "
     id="polyline28"
     style="font-style:normal;font-weight:400;font-size:40px;font-family:'MS Shell Dlg 2';vector-effect:none;fill:none;fill-rule:evenodd;stroke:#000000;stroke-width:2.5;stroke-linecap:butt;stroke-linejoin:bevel;stroke-opacity:1"
     transform="matrix(0.319516,0,0,0.319915,-2150.98,-2170.62)" />
  <polyline
     points="6828.59,7188.72 6828.59,7197.72 "
     id="polyline30"
     style="font-style:normal;font-weight:400;font-size:40px;font-family:'MS Shell Dlg 2';vector-effect:none;fill:none;fill-rule:evenodd;stroke:#000000;stroke-width:2.5;stroke-linecap:butt;stroke-linejoin:bevel;stroke-opacity:1"
     transform="matrix(0.319516,0,0,0.319915,-2150.98,-2170.62)" />
  <polyline
     points="7278.72,7188.72 7278.72,7206.72 "
     id="polyline32"
     style="font-style:normal;font-weight:400;font-size:40px;font-family:'MS Shell Dlg 2';vector-effect:none;fill:none;fill-rule:evenodd;stroke:#000000;stroke-width:2.5;stroke-linecap:butt;stroke-linejoin:bevel;stroke-opacity:1"
     transform="matrix(0.319516,0,0,0.319915,-2150.98,-2170.62)" />
  <polyline
     points="7150.11,7188.72 7150.11,7206.72 "
     id="polyline34"
     style="font-style:normal;font-weight:400;font-size:40px;font-family:'MS Shell Dlg 2';vector-effect:none;fill:none;fill-rule:evenodd;stroke:#000000;stroke-width:2.5;stroke-linecap:butt;stroke-linejoin:bevel;stroke-opacity:1"
     transform="matrix(0.319516,0,0,0.319915,-2150.98,-2170.62)" />
  <polyline
     points="7021.5,7188.72 7021.5,7206.72 "
     id="polyline36"
     style="font-style:normal;font-weight:400;font-size:40px;font-family:'MS Shell Dlg 2';vector-effect:none;fill:none;fill-rule:evenodd;stroke:#000000;stroke-width:2.5;stroke-linecap:butt;stroke-linejoin:bevel;stroke-opacity:1"
     transform="matrix(0.319516,0,0,0.319915,-2150.98,-2170.62)" />
  <polyline
     points="6892.89,7188.72 6892.89,7206.72 "
     id="polyline38"
     style="font-style:normal;font-weight:400;font-size:40px;font-family:'MS Shell Dlg 2';vector-effect:none;fill:none;fill-rule:evenodd;stroke:#000000;stroke-width:2.5;stroke-linecap:butt;stroke-linejoin:bevel;stroke-opacity:1"
     transform="matrix(0.319516,0,0,0.319915,-2150.98,-2170.62)" />
  <polyline
     points="6764.28,7188.72 6764.28,7206.72 "
     id="polyline40"
     style="font-style:normal;font-weight:400;font-size:40px;font-family:'MS Shell Dlg 2';vector-effect:none;fill:none;fill-rule:evenodd;stroke:#000000;stroke-width:2.5;stroke-linecap:butt;stroke-linejoin:bevel;stroke-opacity:1"
     transform="matrix(0.319516,0,0,0.319915,-2150.98,-2170.62)" />
  <text
     style="font-style:normal;font-weight:400;font-size:7.61693907px;font-family:'MS Shell Dlg 2';text-align:center;text-anchor:middle;fill:#000000;fill-opacity:1;fill-rule:evenodd;stroke:none;stroke-width:0.19042349;stroke-linecap:square;stroke-linejoin:bevel;stroke-opacity:1"
     id="text52"
     font-style="normal"
     font-weight="400"
     font-size="40"
     y="163.24229"
     x="92.228172"
     xml:space="preserve"
     transform="scale(1.0005929,0.99940747)"><tspan
       style="font-size:7.99999993px;text-align:center;text-anchor:middle;stroke-width:0.19042349"
       id="tspan1716">Przesunięcie chemiczne /\si{\ppm}</tspan></text>
  <polyline
     transform="matrix(0.31948767,0,0,0.31937366,-1998.4803,-2291.1146)"
     style="font-style:normal;font-weight:400;font-size:32px;font-family:'MS Shell Dlg 2';vector-effect:none;fill:#e69f00;fill-rule:evenodd;stroke:#e69f00;stroke-width:2.5;stroke-linecap:butt;stroke-linejoin:bevel;stroke-opacity:1"
     id="polyline112"
     points="6468.3,7332.1 6468.3,7322.1 " />
  <polyline
     transform="matrix(0.31948767,0,0,0.31937366,-1998.4803,-2291.1146)"
     style="font-style:normal;font-weight:400;font-size:32px;font-family:'MS Shell Dlg 2';vector-effect:none;fill:#e69f00;fill-rule:evenodd;stroke:#e69f00;stroke-width:2.5;stroke-linecap:butt;stroke-linejoin:bevel;stroke-opacity:1"
     id="polyline114"
     points="6468.3,7322.1 6487.24,7302.1 " />
  <polyline
     transform="matrix(0.31948767,0,0,0.31937366,-1998.4803,-2291.1146)"
     style="font-style:normal;font-weight:400;font-size:32px;font-family:'MS Shell Dlg 2';vector-effect:none;fill:#e69f00;fill-rule:evenodd;stroke:#e69f00;stroke-width:2.5;stroke-linecap:butt;stroke-linejoin:bevel;stroke-opacity:1"
     id="polyline116"
     points="6487.24,7302.1 6487.24,7292.1 " />
  <polyline
     transform="matrix(0.31948767,0,0,0.31937366,-1998.4803,-2291.1146)"
     style="font-style:normal;font-weight:400;font-size:32px;font-family:'MS Shell Dlg 2';vector-effect:none;fill:#e69f00;fill-rule:evenodd;stroke:#e69f00;stroke-width:2.5;stroke-linecap:butt;stroke-linejoin:bevel;stroke-opacity:1"
     id="polyline124"
     points="6468.3,7357.1 6468.3,7337.1 " />
  <polyline
     transform="matrix(0.31948767,0,0,0.31937366,-2007.823,-2293.102)"
     style="font-style:normal;font-weight:400;font-size:32px;font-family:'MS Shell Dlg 2';vector-effect:none;fill:#e69f00;fill-rule:evenodd;stroke:#e69f00;stroke-width:2.5;stroke-linecap:butt;stroke-linejoin:bevel;stroke-opacity:1"
     id="polyline126"
     points="6467.18,7330.29 6467.18,7320.29 " />
  <polyline
     transform="matrix(0.31948767,0,0,0.31937366,-2007.823,-2293.102)"
     style="font-style:normal;font-weight:400;font-size:32px;font-family:'MS Shell Dlg 2';vector-effect:none;fill:#e69f00;fill-rule:evenodd;stroke:#e69f00;stroke-width:2.5;stroke-linecap:butt;stroke-linejoin:bevel;stroke-opacity:1"
     id="polyline128"
     points="6467.18,7320.29 6448.24,7300.29 " />
  <polyline
     transform="matrix(0.31948767,0,0,0.31937366,-2007.823,-2293.102)"
     style="font-style:normal;font-weight:400;font-size:32px;font-family:'MS Shell Dlg 2';vector-effect:none;fill:#e69f00;fill-rule:evenodd;stroke:#e69f00;stroke-width:2.5;stroke-linecap:butt;stroke-linejoin:bevel;stroke-opacity:1"
     id="polyline130"
     points="6448.24,7300.29 6448.24,7290.29 " />
  <polyline
     transform="matrix(0.31948767,0,0,0.31937366,-2007.823,-2293.102)"
     style="font-style:normal;font-weight:400;font-size:32px;font-family:'MS Shell Dlg 2';vector-effect:none;fill:#e69f00;fill-rule:evenodd;stroke:#e69f00;stroke-width:2.5;stroke-linecap:butt;stroke-linejoin:bevel;stroke-opacity:1"
     id="polyline138"
     points="6467.18,7355.29 6467.18,7335.29 " />
  <text
     id="text1005"
     y="31.45858"
     x="47.694515"
     style="font-style:normal;font-weight:normal;font-size:10.66666698px;line-height:1.25;font-family:sans-serif;text-align:start;letter-spacing:0px;word-spacing:0px;text-anchor:start;fill:#e69f00;fill-opacity:1;fill-rule:evenodd;stroke:none;stroke-width:1;stroke-linecap:square;stroke-linejoin:bevel;stroke-opacity:1"
     xml:space="preserve"><tspan
       style="fill:#e69f00;stroke-width:1"
       y="31.45858"
       x="47.694515"
       id="tspan1003"
       sodipodi:role="line">\rotatebox{90}{$7.60$}</tspan></text>
  <text
     id="text1005-0"
     y="33.446087"
     x="69.503334"
     style="font-style:normal;font-weight:normal;font-size:10.66666794px;line-height:1.25;font-family:sans-serif;text-align:start;letter-spacing:0px;word-spacing:0px;text-anchor:start;fill:#e69f00;fill-opacity:1;fill-rule:evenodd;stroke:none;stroke-width:1;stroke-linecap:square;stroke-linejoin:bevel;stroke-opacity:1"
     xml:space="preserve"><tspan
       style="fill:#e69f00;stroke-width:1"
       y="33.446087"
       x="69.503334"
       id="tspan1003-5"
       sodipodi:role="line">\rotatebox{90}{$7.59$}</tspan></text>
  <text
     id="text1720"
     y="53.974991"
     x="103.43886"
     style="font-style:normal;font-weight:normal;font-size:10.66666698px;line-height:1.25;font-family:sans-serif;text-align:start;letter-spacing:0px;word-spacing:0px;text-anchor:start;fill:#000000;fill-opacity:1;fill-rule:evenodd;stroke:none;stroke-width:1;stroke-linecap:butt;stroke-linejoin:bevel;stroke-opacity:1"
     xml:space="preserve"><tspan
       style="text-align:start;text-anchor:start;stroke-width:1"
       y="53.974991"
       x="103.43886"
       id="tspan1718"
       sodipodi:role="line">\refcmpd{glu-lactam}</tspan></text>
  <text
     id="text1720-7-1"
     y="83.015457"
     x="103.43886"
     style="font-style:normal;font-weight:normal;font-size:10.66666985px;line-height:1.25;font-family:sans-serif;text-align:start;letter-spacing:0px;word-spacing:0px;text-anchor:start;fill:#000000;fill-opacity:1;fill-rule:evenodd;stroke:none;stroke-width:1;stroke-linecap:butt;stroke-linejoin:bevel;stroke-opacity:1"
     xml:space="preserve"><tspan
       style="text-align:start;text-anchor:start;stroke-width:1"
       y="83.015457"
       x="103.43886"
       id="tspan1718-8-3"
       sodipodi:role="line">\refcmpd{glu-lactam} + \refcmpd{w:schwartz}, \SI{3}{\day}</tspan></text>
  <text
     id="text1720-7-1-4"
     y="97.015503"
     x="103.43886"
     style="font-style:normal;font-weight:normal;font-size:10.66666985px;line-height:1.25;font-family:sans-serif;text-align:start;letter-spacing:0px;word-spacing:0px;text-anchor:start;fill:#000000;fill-opacity:1;fill-rule:evenodd;stroke:none;stroke-width:1;stroke-linecap:butt;stroke-linejoin:bevel;stroke-opacity:1"
     xml:space="preserve"><tspan
       style="text-align:start;text-anchor:start;stroke-width:1"
       y="106.74703"
       x="103.43886"
       id="tspan1718-8-3-4"
       sodipodi:role="line" /></text>
  <text
     id="text1720-7"
     y="68.495224"
     x="103.43886"
     style="font-style:normal;font-weight:normal;font-size:10.66666794px;line-height:1.25;font-family:sans-serif;text-align:start;letter-spacing:0px;word-spacing:0px;text-anchor:start;fill:#000000;fill-opacity:1;fill-rule:evenodd;stroke:none;stroke-width:1;stroke-linecap:butt;stroke-linejoin:bevel;stroke-opacity:1"
     xml:space="preserve"><tspan
       style="text-align:start;text-anchor:start;stroke-width:1"
       y="68.495224"
       x="103.43886"
       id="tspan1718-8"
       sodipodi:role="line">\refcmpd{glu-lactam} + \refcmpd{w:schwartz}</tspan></text>
  <path
     inkscape:connector-curvature="0"
     id="path1036"
     d="M 82.648642,50.318689 H 97.165735"
     style="font-style:normal;font-weight:400;font-size:40px;font-family:'MS Shell Dlg 2';fill:#cc79a7;fill-rule:evenodd;stroke:#cc79a7;stroke-width:0.80000001;stroke-linecap:butt;stroke-linejoin:miter;stroke-miterlimit:4;stroke-dasharray:none;stroke-opacity:1" />
  <path
     inkscape:connector-curvature="0"
     id="path1036-0"
     d="M 82.648642,64.838888 H 97.165735"
     style="font-style:normal;font-weight:400;font-size:40px;font-family:'MS Shell Dlg 2';fill:none;fill-rule:evenodd;stroke:#56b4e9;stroke-width:0.80000001;stroke-linecap:butt;stroke-linejoin:miter;stroke-miterlimit:4;stroke-dasharray:none;stroke-opacity:1" />
  <path
     inkscape:connector-curvature="0"
     id="path1036-4"
     d="M 82.648642,79.35912 H 97.165735"
     style="font-style:normal;font-weight:400;font-size:40px;font-family:'MS Shell Dlg 2';fill:none;fill-rule:evenodd;stroke:#009e73;stroke-width:0.8;stroke-linecap:butt;stroke-linejoin:miter;stroke-miterlimit:4;stroke-dasharray:none;stroke-opacity:1" />
  <g
     style="font-style:normal;font-weight:400;font-size:11px;font-family:'MS Shell Dlg 2';fill:none;fill-rule:evenodd;stroke:#000000;stroke-width:1;stroke-linecap:square;stroke-linejoin:bevel;stroke-opacity:1"
     id="g44"
     font-style="normal"
     font-weight="400"
     font-size="11"
     transform="matrix(0.319516,0,0,0.319915,-2150.98,-2170.62)" />
  <g
     style="font-style:normal;font-weight:400;font-size:11px;font-family:'MS Shell Dlg 2';fill:none;fill-rule:evenodd;stroke:#000000;stroke-width:1;stroke-linecap:square;stroke-linejoin:bevel;stroke-opacity:1"
     id="g46"
     font-style="normal"
     font-weight="400"
     font-size="11"
     transform="matrix(0.319516,0,0,0.319915,-2150.98,-2170.62)" />
  <g
     style="font-style:normal;font-weight:400;font-size:11px;font-family:'MS Shell Dlg 2';fill:none;fill-rule:evenodd;stroke:#cc79a7;stroke-width:2.5;stroke-linecap:butt;stroke-linejoin:bevel;stroke-opacity:1"
     id="g50"
     font-style="normal"
     font-weight="400"
     font-size="11"
     transform="matrix(0.319516,0,0,0.319915,-2150.98,-2158.62)">
    <polyline
       style="vector-effect:none;fill:none;stroke:#cc79a7"
       id="polyline48"
       points="6732.13,7121.37 6732.59,7121.67 6733.87,7121.23 6735.15,7121.16 6736.43,7121.09 6737.71,7120.55 6738.98,7121.27 6740.26,7121.14 6741.54,7121.01 6742.82,7120.32 6744.1,7120.9 6745.37,7120.47 6746.65,7121.32 6747.93,7120.79 6749.21,7120.26 6750.49,7120.62 6751.76,7120.98 6753.04,7120.3 6754.32,7120.9 6755.6,7120.72 6756.88,7120.55 6758.15,7121.17 6759.43,7120.51 6760.71,7120.51 6761.99,7120.5 6763.27,7120.74 6764.54,7120.98 6765.82,7120.89 6767.1,7120.81 6768.38,7120.59 6769.66,7120.37 6770.93,7121.53 6772.21,7120.57 6773.49,7121.28 6774.77,7119.87 6776.04,7121.46 6777.32,7120.08 6778.6,7121.36 6779.88,7120.51 6781.16,7121.43 6782.43,7121.08 6783.71,7120.99 6784.99,7120.9 6786.27,7121.09 6787.55,7121.28 6788.82,7120.43 6790.1,7120.86 6791.38,7120.81 6792.66,7120.76 6793.94,7120.79 6795.21,7120.82 6796.49,7120.95 6797.77,7121.08 6799.05,7121.21 6800.33,7121.34 6801.6,7120.88 6802.88,7120.43 6804.16,7121.22 6805.44,7120.74 6806.72,7121.03 6807.99,7121.31 6809.27,7120.48 6810.55,7120.93 6811.83,7120.7 6813.11,7120.48 6814.38,7120.33 6815.66,7120.19 6816.94,7120.54 6818.22,7120.89 6819.5,7120.07 6820.77,7120.53 6822.05,7120.39 6823.33,7121.52 6824.61,7121.06 6825.89,7120.6 6827.16,7120.56 6828.44,7120.51 6829.72,7120.47 6831,7120.42 6832.28,7120.57 6833.55,7120.73 6834.83,7120.96 6836.11,7121.19 6837.39,7120.33 6838.66,7120.75 6839.94,7120.76 6841.22,7120.78 6842.5,7120.9 6843.78,7121.02 6845.05,7121.14 6846.33,7121.27 6847.61,7120.92 6848.89,7120.56 6850.17,7121.25 6851.44,7120.66 6852.72,7120.83 6854,7121 6855.28,7121.28 6856.56,7121.56 6857.83,7121.97 6859.11,7120.26 6860.39,7121.33 6861.67,7121.13 6862.95,7121.56 6864.22,7120.72 6865.5,7121.71 6866.78,7120.57 6868.06,7120.88 6869.34,7121.19 6870.61,7121.06 6871.89,7120.92 6873.17,7121.17 6874.45,7121.42 6875.73,7120.8 6877,7122.3 6878.28,7121.63 6879.56,7120.97 6880.84,7121.39 6882.12,7120.54 6883.39,7121.63 6884.67,7121.44 6885.95,7121.23 6887.23,7121.01 6888.51,7120.72 6889.78,7121.71 6891.06,7121.23 6892.34,7120.76 6893.62,7120.85 6894.9,7120.93 6896.17,7120.94 6897.45,7120.95 6898.73,7121.26 6900.01,7120.28 6901.29,7120.56 6902.56,7120.84 6903.84,7120.84 6905.12,7120.84 6906.4,7120.7 6907.67,7120.57 6908.95,7121.5 6910.23,7120.31 6911.51,7120.72 6912.79,7121.12 6914.06,7120.83 6915.34,7121.81 6916.62,7120.48 6917.9,7121.28 6919.18,7120.16 6920.45,7121.17 6921.73,7120.72 6923.01,7120.26 6924.29,7121.22 6925.57,7120.91 6926.84,7120.92 6928.12,7120.92 6929.4,7121.52 6930.68,7120.84 6931.96,7120.88 6933.23,7120.92 6934.51,7120.86 6935.79,7120.8 6937.07,7121.46 6938.35,7120.84 6939.62,7120.98 6940.9,7121.12 6942.18,7121.1 6943.46,7121.08 6944.74,7121.64 6946.01,7120.93 6947.29,7120.86 6948.57,7120.78 6949.85,7121.41 6951.13,7120.77 6952.4,7120.84 6953.68,7120.91 6954.96,7120.98 6956.24,7121.05 6957.52,7120.8 6958.79,7120.56 6960.07,7120.94 6961.35,7121.32 6962.63,7121.24 6963.91,7121.17 6965.18,7121.89 6966.46,7120.47 6967.74,7121 6969.02,7121.53 6970.29,7121.21 6971.57,7120.89 6972.85,7120.47 6974.13,7121.32 6975.41,7120.7 6976.68,7121.35 6977.96,7120.57 6979.24,7121.92 6980.52,7120.65 6981.8,7120.65 6983.07,7121.5 6984.35,7120.23 6985.63,7121.36 6986.91,7121.21 6988.19,7120.48 6989.46,7121.02 6990.74,7120.43 6992.02,7121.12 6993.3,7120.53 6994.58,7121.22 6995.85,7120.69 6997.13,7121.44 6998.41,7121.24 6999.69,7121.04 7000.97,7121.06 7002.24,7121.08 7003.52,7121.18 7004.8,7121.28 7006.08,7120.44 7007.36,7120.88 7008.63,7120.92 7009.91,7120.96 7011.19,7121.12 7012.47,7121.27 7013.75,7120.97 7015.02,7120.68 7016.3,7121.56 7017.58,7120.31 7018.86,7119.99 7020.14,7120.95 7021.41,7121.33 7022.69,7120.44 7023.97,7120.98 7025.25,7120.24 7026.53,7121.17 7027.8,7120.83 7029.08,7121.44 7030.36,7120.78 7031.64,7121.12 7032.92,7120.19 7034.19,7120.77 7035.47,7121.34 7036.75,7120.08 7038.03,7120.95 7039.3,7121.52 7040.58,7120.82 7041.86,7121.79 7043.14,7120.63 7044.42,7120.59 7045.69,7120.55 7046.97,7120.66 7048.25,7120.76 7049.53,7120.87 7050.81,7120.97 7052.08,7120.74 7053.36,7120.51 7054.64,7120.59 7055.92,7120.68 7057.2,7120.79 7058.47,7120.89 7059.75,7120.6 7061.03,7120.31 7062.31,7120.83 7063.59,7120.08 7064.86,7120.37 7066.14,7120.65 7067.42,7120.98 7068.7,7121.3 7069.98,7121.09 7071.25,7120.89 7072.53,7120.72 7073.81,7120.54 7075.09,7120.77 7076.37,7121 7077.64,7120.83 7078.92,7121.93 7080.2,7120.67 7081.48,7121.53 7082.76,7120.66 7084.03,7121.06 7085.31,7120.47 7086.59,7121.16 7087.87,7120.81 7089.15,7120.45 7090.42,7120.83 7091.7,7121.22 7092.98,7120.46 7094.26,7121.83 7095.54,7120.83 7096.81,7121.11 7098.09,7120.42 7099.37,7121 7100.65,7120.87 7101.92,7120.74 7103.2,7121.39 7104.48,7120.78 7105.76,7120.88 7107.04,7120.98 7108.31,7121.08 7109.59,7121.18 7110.87,7120.24 7112.15,7120.58 7113.43,7120.87 7114.7,7121.16 7115.98,7120.7 7117.26,7120.24 7118.54,7120.8 7119.82,7120.09 7121.09,7120.41 7122.37,7120.73 7123.65,7120.65 7124.93,7120.57 7126.21,7120.57 7127.48,7120.58 7128.76,7120.03 7130.04,7120.77 7131.32,7120.78 7132.6,7120.8 7133.87,7120.6 7135.15,7120.4 7136.43,7120.61 7137.71,7120.81 7138.99,7120.26 7140.26,7120.99 7141.54,7119.96 7142.82,7120.21 7144.1,7120.44 7145.38,7120.66 7146.65,7120.52 7147.93,7120.37 7149.21,7120.01 7150.49,7120.91 7151.77,7120.58 7153.04,7120.24 7154.32,7120.22 7155.6,7120.21 7156.88,7120.27 7158.16,7120.34 7159.43,7119.84 7160.71,7120.62 7161.99,7120.68 7163.27,7120.74 7164.55,7120.64 7165.82,7120.55 7167.1,7120.46 7168.38,7120.37 7169.66,7120.63 7170.93,7120.9 7172.21,7119.84 7173.49,7120.05 7174.77,7120.92 7176.05,7120.5 7177.32,7121.42 7178.6,7121.06 7179.88,7120.21 7181.16,7121.48 7182.44,7120.36 7183.71,7120.51 7184.99,7121.1 7186.27,7120.42 7187.55,7120.66 7188.83,7120.91 7190.1,7119.72 7191.38,7120.66 7192.66,7120.48 7193.94,7120.3 7195.22,7120.16 7196.49,7121.3 7197.77,7120.36 7199.05,7120.06 7200.33,7120.25 7201.61,7119.79 7202.88,7120.86 7204.16,7119.79 7205.44,7120.5 7206.72,7119.93 7208,7120.74 7209.27,7120.27 7210.55,7119.79 7211.83,7120.58 7213.11,7119.94 7214.39,7120.57 7215.66,7120.03 7216.94,7120.77 7218.22,7120.27 7219.5,7120.41 7220.78,7119.93 7222.05,7120.73 7223.33,7120 7224.61,7120.54 7225.89,7119.33 7227.17,7121.1 7228.44,7120.13 7229.72,7119.16 7231,7121.04 7232.28,7119.95 7233.56,7120.95 7234.83,7118.98 7236.11,7119.86 7237.39,7119.46 7238.67,7119.64 7239.94,7119.82 7241.22,7119.98 7242.5,7120.78 7243.78,7119.9 7245.06,7120.29 7246.33,7119.07 7247.61,7119.98 7248.89,7119.41 7250.17,7119.48 7251.45,7120.18 7252.72,7120.87 7254,7120.51 7255.28,7119.5 7256.56,7120.31 7257.84,7119.84 7259.11,7120.4 7260.39,7120.33 7261.67,7120.17 7262.95,7120 7264.23,7119.97 7265.5,7119.3 7266.78,7120.62 7268.06,7118.96 7269.34,7120.85 7270.62,7119.76 7271.89,7120.25 7273.17,7119.46 7274.45,7119.84 7275.73,7118.95 7277.01,7119.81 7278.28,7119.39 7279.56,7119.25 7280.84,7119.74 7282.12,7119.45 7283.4,7119.15 7284.67,7119.17 7285.95,7119.19 7287.23,7119.5 7288.51,7119.18 7289.79,7119.61 7291.06,7118.77 7292.34,7118.75 7293.62,7118.72 7294.9,7118.94 7296.18,7117.88 7297.45,7118.4 7298.73,7117.65 7300.01,7117.9 7301.29,7117.51 7302.56,7116.94 7303.84,7116.38 7305.12,7117.5 7306.4,7116.5 7307.68,7116 7308.95,7115.5 7310.23,7115.51 7310.87,7114.87 " />
  </g>
  <g
     style="font-style:normal;font-weight:400;font-size:11px;font-family:'MS Shell Dlg 2';fill:none;fill-rule:evenodd;stroke:#000000;stroke-width:1;stroke-linecap:square;stroke-linejoin:bevel;stroke-opacity:1"
     id="g52"
     font-style="normal"
     font-weight="400"
     font-size="11"
     transform="matrix(0.319516,0,0,0.319915,-2150.98,-2170.62)" />
  <g
     style="font-style:normal;font-weight:400;font-size:11px;font-family:'MS Shell Dlg 2';fill:none;fill-rule:evenodd;stroke:#56b4e9;stroke-width:2.5;stroke-linecap:butt;stroke-linejoin:bevel;stroke-opacity:1"
     id="g56"
     font-style="normal"
     font-weight="400"
     font-size="11"
     transform="matrix(0.319516,0,0,0.319915,-2150.98,-2164.62)">
    <polyline
       style="vector-effect:none;fill:none;stroke:#56b4e9"
       id="polyline54"
       points="6732.13,7137.1 6733.19,7137.1 6734.29,7137.1 6735.39,7137.05 6736.49,7136.99 6737.59,7137.39 6738.69,7137.07 6739.79,7136.78 6740.89,7137.19 6741.99,7137.24 6743.09,7137.28 6744.19,7136.44 6745.29,7136.78 6746.39,7137.21 6747.48,7136.93 6748.58,7136.95 6749.68,7136.96 6750.78,7136.93 6751.88,7136.9 6752.98,7136.76 6754.08,7136.62 6755.18,7136.91 6756.28,7137.2 6757.38,7136.47 6758.48,7136.92 6759.58,7136.66 6760.68,7137.11 6761.78,7137.04 6762.88,7136.97 6763.97,7136.86 6765.07,7136.76 6766.17,7137.35 6767.27,7136.75 6768.37,7136.81 6769.47,7136.88 6770.57,7136.88 6771.67,7136.87 6772.77,7136.91 6773.87,7136.95 6774.97,7136.59 6776.07,7136.94 6777.17,7136.89 6778.27,7136.85 6779.37,7136.81 6780.46,7136.78 6781.56,7136.75 6782.66,7136.72 6783.76,7136.88 6784.86,7137.05 6785.96,7136.82 6787.06,7136.59 6788.16,7136.92 6789.26,7136.54 6790.36,7137.23 6791.46,7136.73 6792.56,7136.99 6793.66,7137.25 6794.76,7136.68 6795.86,7136.82 6796.95,7136.89 6798.05,7136.97 6799.15,7136.69 6800.25,7137.12 6801.35,7136.91 6802.45,7136.7 6803.55,7136.94 6804.65,7136.47 6805.75,7136.7 6806.85,7136.93 6807.95,7136.69 6809.05,7136.45 6810.15,7137.14 6811.25,7136.65 6812.34,7136.87 6813.44,7136.37 6814.54,7136.49 6815.64,7136.6 6816.74,7136.62 6817.84,7136.65 6818.94,7136.99 6820.04,7136.63 6821.14,7136.67 6822.24,7136.71 6823.34,7136.42 6824.44,7136.14 6825.54,7136.44 6826.64,7136.75 6827.74,7136.52 6828.83,7136.3 6829.93,7136.47 6831.03,7136.64 6832.13,7136.21 6833.23,7136.5 6834.33,7136.78 6835.43,7136.35 6836.53,7136.39 6837.63,7136.43 6838.73,7136.42 6839.83,7136.41 6840.93,7136.37 6842.03,7136.32 6843.13,7136.33 6844.23,7136.33 6845.32,7136.11 6846.42,7136.59 6847.52,7136.33 6848.62,7136.06 6849.72,7136.29 6850.82,7136.51 6851.92,7136.06 6853.02,7136.31 6854.12,7135.75 6855.22,7136.37 6856.32,7136.36 6857.42,7136.36 6858.52,7136.06 6859.62,7135.77 6860.71,7135.78 6861.81,7135.8 6862.91,7136.06 6864.01,7135.61 6865.11,7135.96 6866.21,7135.6 6867.31,7135.6 6868.41,7135.59 6869.51,7135.19 6870.61,7135.5 6871.71,7134.95 6872.81,7135.1 6873.91,7134.9 6875.01,7134.7 6876.11,7134.51 6877.2,7134.31 6878.3,7134.48 6879.4,7134.64 6880.5,7134.4 6881.6,7134.16 6882.7,7133.96 6883.8,7133.76 6884.9,7133.23 6886,7133.42 6887.1,7133.25 6888.2,7133.07 6889.3,7132.4 6890.4,7132.43 6891.5,7132.02 6892.6,7131.61 6893.69,7131.52 6894.79,7130.71 6895.89,7130.3 6896.99,7129.89 6898.09,7129.46 6899.19,7129.04 6900.29,7127.69 6901.39,7127.06 6902.49,7125.3 6903.59,7124.73 6904.69,7123.22 6905.79,7121.71 6906.89,7119.45 6907.99,7117.91 6909.09,7115.96 6910.18,7115.2 6911.28,7113.72 6912.38,7113.42 6913.48,7112.57 6914.58,7111.72 6915.68,7111.29 6916.78,7111.56 6917.88,7111.08 6918.98,7111.32 6920.08,7111.21 6921.18,7111.82 6922.28,7112.67 6923.38,7113.52 6924.48,7114.7 6925.57,7115.89 6926.67,7116.67 6927.77,7118.17 6928.87,7118.91 6929.97,7119.65 6931.07,7119.89 6932.17,7120.13 6933.27,7119.64 6934.37,7119.86 6935.47,7119.02 6936.57,7119.36 6937.67,7118.6 6938.77,7117.83 6939.87,7116.39 6940.97,7114.94 6942.06,7113.63 6943.16,7113.5 6944.26,7111.85 6945.36,7111.85 6946.46,7111.22 6947.56,7111.77 6948.66,7111.72 6949.76,7112.38 6950.86,7112.6 6951.96,7112.82 6953.06,7113.44 6954.16,7114.06 6955.26,7115.22 6956.36,7116.39 6957.46,7117.86 6958.55,7119.33 6959.65,7121.49 6960.75,7122.94 6961.85,7124.39 6962.95,7125.84 6964.05,7127.09 6965.15,7127.63 6966.25,7128.97 6967.35,7129.6 6968.45,7130.17 6969.55,7130.75 6970.65,7131.28 6971.75,7131.82 6972.85,7132.12 6973.95,7132.42 6975.04,7133.13 6976.14,7133.12 6977.24,7133.22 6978.34,7133.33 6979.44,7133.79 6980.54,7134.24 6981.64,7133.95 6982.74,7134.37 6983.84,7134.07 6984.94,7134.47 6986.04,7133.55 6987.14,7133.82 6988.24,7133.86 6989.34,7133.9 6990.43,7133.43 6991.53,7133.66 6992.63,7133.44 6993.73,7133.94 6994.83,7133.7 6995.93,7133.46 6997.03,7133.21 6998.13,7132.97 6999.23,7133.36 7000.33,7133.04 7001.43,7133.19 7002.53,7133.34 7003.63,7132.58 7004.73,7132.99 7005.83,7132.79 7006.92,7132.59 7008.02,7132.24 7009.12,7132.61 7010.22,7132.97 7011.32,7132.62 7012.42,7132.64 7013.52,7132.66 7014.62,7131.88 7015.72,7131.8 7016.82,7131.81 7017.92,7131.81 7019.02,7131.86 7020.12,7131.9 7021.22,7131.73 7022.32,7131.56 7023.41,7131.69 7024.51,7131.83 7025.61,7132.13 7026.71,7131.71 7027.81,7132.05 7028.91,7131.69 7030.01,7132.44 7031.11,7132.49 7032.21,7132.53 7033.31,7132.58 7034.41,7132.71 7035.51,7132.84 7036.61,7132.65 7037.71,7133.17 7038.81,7132.71 7039.9,7133.43 7041,7133.54 7042.1,7133.64 7043.2,7133.5 7044.3,7133.35 7045.4,7133.89 7046.5,7133.72 7047.6,7134.26 7048.7,7133.61 7049.8,7134.02 7050.9,7134.43 7052,7133.83 7053.1,7134.41 7054.2,7134.28 7055.29,7134.15 7056.39,7134.59 7057.49,7134.31 7058.59,7134.44 7059.69,7134.56 7060.79,7134.74 7061.89,7134.91 7062.99,7135.08 7064.09,7134.55 7065.19,7134.92 7066.29,7134.58 7067.39,7134.96 7068.49,7134.62 7069.59,7135.03 7070.69,7134.73 7071.78,7135.18 7072.88,7134.92 7073.98,7135.18 7075.08,7135.43 7076.18,7135.24 7077.28,7135.05 7078.38,7135.51 7079.48,7135.26 7080.58,7135.4 7081.68,7135.55 7082.78,7135.55 7083.88,7135.54 7084.98,7135.49 7086.08,7135.44 7087.18,7135.79 7088.27,7135.43 7089.37,7135.92 7090.47,7135.69 7091.57,7135.15 7092.67,7135.33 7093.77,7135.81 7094.87,7135.59 7095.97,7135.79 7097.07,7135.99 7098.17,7135.84 7099.27,7135.69 7100.37,7135.36 7101.47,7135.74 7102.57,7135.68 7103.67,7135.61 7104.76,7135.91 7105.86,7135.51 7106.96,7135.5 7108.06,7135.49 7109.16,7135.37 7110.26,7135.25 7111.36,7135.53 7112.46,7135.1 7113.56,7135.3 7114.66,7135.51 7115.76,7135.31 7116.86,7135.12 7117.96,7134.92 7119.06,7134.73 7120.15,7134.93 7121.25,7135.14 7122.35,7134.73 7123.45,7135.04 7124.55,7134.95 7125.65,7134.85 7126.75,7134.94 7127.85,7135.02 7128.95,7134.75 7130.05,7135.19 7131.15,7134.5 7132.25,7134.53 7133.35,7134.6 7134.45,7134.67 7135.55,7134.47 7136.64,7134.99 7137.74,7134.57 7138.84,7134.87 7139.94,7134.53 7141.04,7134.9 7142.14,7134.3 7143.24,7134.88 7144.34,7134.32 7145.44,7134.48 7146.54,7134.67 7147.64,7134.85 7148.74,7134.8 7149.84,7134.75 7150.94,7134.88 7152.04,7135 7153.13,7135.05 7154.23,7135.1 7155.33,7134.97 7156.43,7134.84 7157.53,7135.05 7158.63,7135.25 7159.73,7135.23 7160.83,7135.21 7161.93,7135.6 7163.03,7135.28 7164.13,7135.14 7165.23,7135.71 7166.33,7135.49 7167.43,7135.27 7168.53,7135.45 7169.62,7135.63 7170.72,7135.37 7171.82,7135.12 7172.92,7135.46 7174.02,7135.8 7175.12,7135.73 7176.22,7135.66 7177.32,7135.63 7178.42,7135.6 7179.52,7135.37 7180.62,7135.85 7181.72,7135.57 7182.82,7135.29 7183.92,7135.35 7185.01,7135.42 7186.11,7135.53 7187.21,7135.63 7188.31,7135.32 7189.41,7135.72 7190.51,7135.32 7191.61,7135.62 7192.71,7135.68 7193.81,7135.74 7194.91,7135.49 7196.01,7135.94 7197.11,7135.45 7198.21,7135.67 7199.31,7135.54 7200.41,7135.4 7201.5,7135.43 7202.6,7135.46 7203.7,7135.49 7204.8,7135.52 7205.9,7135.46 7207,7135.4 7208.1,7135.29 7209.2,7135.19 7210.3,7135.6 7211.4,7135.3 7212.5,7135.04 7213.6,7135.5 7214.7,7135.11 7215.8,7135.43 7216.9,7135.4 7217.99,7135.37 7219.09,7135.32 7220.19,7135.28 7221.29,7135.2 7222.39,7135.11 7223.49,7135.43 7224.59,7135.05 7225.69,7135.24 7226.79,7135.43 7227.89,7135.25 7228.99,7135.06 7230.09,7135.31 7231.19,7135.55 7232.29,7134.99 7233.39,7135.6 7234.48,7135.56 7235.58,7135.51 7236.68,7135.47 7237.78,7135.42 7238.88,7135.38 7239.98,7135.34 7241.08,7135.58 7242.18,7135.83 7243.28,7135.72 7244.38,7135.61 7245.48,7135.63 7246.58,7135.66 7247.68,7135.72 7248.78,7135.79 7249.87,7135.47 7250.97,7135.86 7252.07,7135.4 7253.17,7135.66 7254.27,7136.01 7255.37,7135.65 7256.47,7135.56 7257.57,7135.47 7258.67,7135.6 7259.77,7135.72 7260.87,7135.57 7261.97,7135.41 7263.07,7135.32 7264.17,7136.41 7265.27,7135.31 7266.36,7135.86 7267.46,7135.73 7268.56,7135.59 7269.66,7135.55 7270.76,7135.52 7271.86,7135.47 7272.96,7135.42 7274.06,7135.41 7275.16,7135.41 7276.26,7134.98 7277.36,7135.26 7278.46,7135.19 7279.56,7135.12 7280.66,7134.86 7281.76,7135.31 7282.85,7134.96 7283.95,7134.62 7285.05,7135 7286.15,7134.68 7287.25,7134.75 7288.35,7134.83 7289.45,7134.74 7290.55,7134.65 7291.65,7134.61 7292.75,7134.56 7293.85,7134.16 7294.95,7134.47 7296.05,7134.39 7297.15,7134.3 7298.25,7134.35 7299.34,7134.41 7300.44,7134.02 7301.54,7134.34 7302.64,7134.41 7303.74,7133.77 7304.84,7134.32 7305.94,7134.17 7307.04,7134.19 7308.14,7134.21 7309.24,7134 7310.34,7133.8 7310.87,7133.86 " />
  </g>
  <g
     style="font-style:normal;font-weight:400;font-size:11px;font-family:'MS Shell Dlg 2';fill:none;fill-rule:evenodd;stroke:#000000;stroke-width:1;stroke-linecap:square;stroke-linejoin:bevel;stroke-opacity:1"
     id="g58"
     font-style="normal"
     font-weight="400"
     font-size="11"
     transform="matrix(0.319516,0,0,0.319915,-2150.98,-2170.62)" />
  <g
     style="font-style:normal;font-weight:400;font-size:11px;font-family:'MS Shell Dlg 2';fill:none;fill-rule:evenodd;stroke:#009e73;stroke-width:2.49909735;stroke-linecap:butt;stroke-linejoin:bevel;stroke-miterlimit:4;stroke-dasharray:none;stroke-opacity:1"
     id="g62"
     font-style="normal"
     font-weight="400"
     font-size="11"
     transform="matrix(0.319516,0,0,0.319915,-2150.98,-2164.62)">
    <polyline
       style="vector-effect:none;fill:none;stroke:#009e73;stroke-width:2.49909735;stroke-miterlimit:4;stroke-dasharray:none"
       id="polyline60"
       points="6732.13,7133.74 6732.56,7133.88 6733.66,7133.3 6734.76,7133.23 6735.86,7133.15 6736.96,7133.76 6738.06,7133.45 6739.16,7133.47 6740.26,7133.49 6741.36,7133.16 6742.46,7132.84 6743.56,7133.46 6744.66,7133.16 6745.76,7133.38 6746.86,7133.59 6747.95,7133.43 6749.05,7133.26 6750.15,7133.9 6751.25,7133.01 6752.35,7133.72 6753.45,7133.52 6754.55,7133.29 6755.65,7133.06 6756.75,7133.58 6757.85,7133.18 6758.95,7133.3 6760.05,7133.42 6761.15,7133.22 6762.25,7133.02 6763.35,7133.06 6764.44,7133.09 6765.54,7133.11 6766.64,7133.12 6767.74,7133.14 6768.84,7133.16 6769.94,7133.14 6771.04,7133.12 6772.14,7133.11 6773.24,7133.09 6774.34,7133.27 6775.44,7133.46 6776.54,7133.41 6777.64,7133.36 6778.74,7133.12 6779.83,7132.89 6780.93,7132.82 6782.03,7132.76 6783.13,7133.37 6784.23,7133.06 6785.33,7133.05 6786.43,7133.03 6787.53,7132.99 6788.63,7132.95 6789.73,7133.2 6790.83,7132.53 6791.93,7132.76 6793.03,7133 6794.13,7132.79 6795.23,7132.59 6796.32,7132.57 6797.42,7132.55 6798.52,7132.6 6799.62,7132.64 6800.72,7132.25 6801.82,7132.79 6802.92,7132.81 6804.02,7132.82 6805.12,7132.61 6806.22,7132.4 6807.32,7132.71 6808.42,7132.1 6809.52,7132.12 6810.62,7132.14 6811.72,7132.1 6812.81,7132.06 6813.91,7132.04 6815.01,7132.01 6816.11,7131.99 6817.21,7131.96 6818.31,7131.69 6819.41,7131.42 6820.51,7131.17 6821.61,7131.84 6822.71,7131.55 6823.81,7131.26 6824.91,7131.02 6826.01,7130.79 6827.11,7130.91 6828.2,7131.02 6829.3,7130.75 6830.4,7130.49 6831.5,7130.6 6832.6,7130.72 6833.7,7130.09 6834.8,7130.37 6835.9,7129.93 6837,7129.48 6838.1,7130.33 6839.2,7129.65 6840.3,7129.79 6841.4,7129.94 6842.5,7129.76 6843.6,7129.57 6844.69,7129.56 6845.79,7129.56 6846.89,7129.68 6847.99,7128.89 6849.09,7128.85 6850.19,7128.81 6851.29,7128.85 6852.39,7127.97 6853.49,7127.98 6854.59,7128 6855.69,7127.2 6856.79,7127.33 6857.89,7126.82 6858.99,7126.31 6860.09,7125.86 6861.18,7125.4 6862.28,7124.95 6863.38,7124.5 6864.48,7123.81 6865.58,7123.13 6866.68,7122.39 6867.78,7121.65 6868.88,7120.86 6869.98,7120.07 6871.08,7119.72 6872.18,7118.45 6873.28,7118.21 6874.38,7117.06 6875.48,7116.11 6876.58,7115.16 6877.67,7114.15 6878.77,7113.15 6879.87,7112.02 6880.97,7110.9 6882.07,7109.78 6883.17,7108.66 6884.27,7107.19 6885.37,7105.73 6886.47,7104.26 6887.57,7102.8 6888.67,7100.62 6889.77,7098.45 6890.87,7095.49 6891.97,7092.52 6893.06,7089.72 6894.16,7085.38 6895.26,7079.68 6896.36,7073.97 6897.46,7066.21 6898.56,7058.45 6899.66,7048.55 6900.76,7037.13 6901.86,7024.55 6902.96,7011.97 6904.06,6999.11 6905.16,6987.78 6906.26,6977.36 6907.36,6969.09 6908.46,6962.77 6909.55,6958.61 6910.65,6954.44 6911.75,6951.19 6912.85,6948.8 6913.95,6946.41 6915.05,6946.21 6916.15,6947.55 6917.25,6951.2 6918.35,6957.62 6919.45,6965.8 6920.55,6974.89 6921.65,6984.24 6922.75,6993.58 6923.85,7002.07 6924.95,7009.03 6926.04,7014.97 6927.14,7019.38 6928.24,7021.93 6929.34,7023.57 6930.44,7023.28 6931.54,7020.85 6932.64,7016.6 6933.74,7010.82 6934.84,7003.84 6935.94,6994.7 6937.04,6985.38 6938.14,6976.06 6939.24,6968.52 6940.34,6962.52 6941.44,6958.4 6942.53,6955.82 6943.63,6955 6944.73,6954.18 6945.83,6954.46 6946.93,6954.74 6948.03,6956.05 6949.13,6958.9 6950.23,6963.98 6951.33,6971.2 6952.43,6980.52 6953.53,6991.37 6954.63,7003.49 6955.73,7015.61 6956.83,7027.19 6957.92,7037.85 6959.02,7047.4 6960.12,7056.95 6961.22,7064.88 6962.32,7071.9 6963.42,7077.69 6964.52,7083.47 6965.62,7088.57 6966.72,7092.74 6967.82,7096.32 6968.92,7099.89 6970.02,7103.34 6971.12,7105.86 6972.22,7108.62 6973.32,7110.46 6974.41,7112.76 6975.51,7115.06 6976.61,7116.51 6977.71,7117.96 6978.81,7119.65 6979.91,7120.41 6981.01,7122.07 6982.11,7122.82 6983.21,7123.64 6984.31,7124.46 6985.41,7125.02 6986.51,7125.58 6987.61,7126.14 6988.71,7126.7 6989.81,7127.06 6990.9,7127.42 6992,7128.01 6993.1,7128.6 6994.2,7129.07 6995.3,7129.54 6996.4,7129.63 6997.5,7129.72 6998.6,7130.07 6999.7,7130.43 7000.8,7130.55 7001.9,7130.67 7003,7130.9 7004.1,7131.13 7005.2,7131.42 7006.3,7131.71 7007.39,7131.24 7008.49,7131.7 7009.59,7131.63 7010.69,7131.57 7011.79,7131.75 7012.89,7131.93 7013.99,7131.6 7015.09,7132.18 7016.19,7132.07 7017.29,7131.95 7018.39,7131.61 7019.49,7132.18 7020.59,7132.23 7021.69,7132.27 7022.78,7132.2 7023.88,7132.13 7024.98,7131.87 7026.08,7132.53 7027.18,7132.45 7028.28,7132.37 7029.38,7132.24 7030.48,7132.11 7031.58,7132.37 7032.68,7132.63 7033.78,7132.71 7034.88,7132.8 7035.98,7132.88 7037.08,7132.96 7038.18,7133.09 7039.27,7133.21 7040.37,7133.33 7041.47,7133.45 7042.57,7133.34 7043.67,7133.23 7044.77,7133.35 7045.87,7133.46 7046.97,7133.44 7048.07,7133.41 7049.17,7133.33 7050.27,7133.25 7051.37,7133.87 7052.47,7133.58 7053.57,7133.58 7054.67,7133.58 7055.76,7133.64 7056.86,7133.71 7057.96,7133.78 7059.06,7133.85 7060.16,7133.81 7061.26,7133.78 7062.36,7133.75 7063.46,7133.71 7064.56,7133.6 7065.66,7133.49 7066.76,7133.76 7067.86,7134.03 7068.96,7133.8 7070.06,7133.57 7071.16,7133.72 7072.25,7133.88 7073.35,7133.83 7074.45,7133.77 7075.55,7133.72 7076.65,7133.67 7077.75,7133.86 7078.85,7134.05 7079.95,7133.49 7081.05,7133.85 7082.15,7133.57 7083.25,7133.3 7084.35,7133.98 7085.45,7133.74 7086.55,7133.57 7087.64,7133.39 7088.74,7133.54 7089.84,7133.69 7090.94,7133.84 7092.04,7134 7093.14,7133.84 7094.24,7133.67 7095.34,7133.47 7096.44,7134.19 7097.54,7133.65 7098.64,7134.03 7099.74,7134.06 7100.84,7134.08 7101.94,7133.93 7103.04,7133.78 7104.13,7133.8 7105.23,7133.82 7106.33,7133.61 7107.43,7133.39 7108.53,7133.49 7109.63,7133.58 7110.73,7133.68 7111.83,7133.77 7112.93,7133.88 7114.03,7133.98 7115.13,7133.22 7116.23,7134 7117.33,7133.78 7118.43,7133.56 7119.53,7133.67 7120.62,7133.78 7121.72,7133.74 7122.82,7133.69 7123.92,7133.59 7125.02,7133.49 7126.12,7133.91 7127.22,7133.4 7128.32,7133.41 7129.42,7133.43 7130.52,7133.59 7131.62,7133.76 7132.72,7133.64 7133.82,7133.52 7134.92,7133.62 7136.02,7132.81 7137.11,7133.85 7138.21,7133.36 7139.31,7134.08 7140.41,7133.88 7141.51,7133.72 7142.61,7133.55 7143.71,7133.58 7144.81,7133.61 7145.91,7133.7 7147.01,7133.78 7148.11,7133.45 7149.21,7134.04 7150.31,7133.59 7151.41,7134.06 7152.5,7133.66 7153.6,7133.27 7154.7,7133.31 7155.8,7133.36 7156.9,7133.33 7158,7133.29 7159.1,7133.77 7160.2,7133.34 7161.3,7133.44 7162.4,7133.54 7163.5,7133.65 7164.6,7133.75 7165.7,7133.2 7166.8,7133.56 7167.9,7133.35 7168.99,7133.14 7170.09,7133.67 7171.19,7133.27 7172.29,7133.47 7173.39,7132.74 7174.49,7133.34 7175.59,7133.01 7176.69,7133.14 7177.79,7133.27 7178.89,7133.32 7179.99,7133.37 7181.09,7133.42 7182.19,7133.47 7183.29,7133.45 7184.39,7133.44 7185.48,7133.42 7186.58,7133.4 7187.68,7133.37 7188.78,7133.34 7189.88,7133.31 7190.98,7133.28 7192.08,7133.38 7193.18,7133.48 7194.28,7133.34 7195.38,7133.21 7196.48,7133.21 7197.58,7133.21 7198.68,7133.2 7199.78,7133.2 7200.88,7133.2 7201.97,7133.2 7203.07,7133.2 7204.17,7133.2 7205.27,7133.18 7206.37,7133.17 7207.47,7133.1 7208.57,7133.03 7209.67,7133.68 7210.77,7133.4 7211.87,7133.42 7212.97,7133.44 7214.07,7133.44 7215.17,7133.44 7216.27,7133.21 7217.36,7132.98 7218.46,7133.2 7219.56,7133.42 7220.66,7133.25 7221.76,7133.09 7222.86,7133.11 7223.96,7133.13 7225.06,7133.15 7226.16,7133.17 7227.26,7133.15 7228.36,7133.12 7229.46,7133.39 7230.56,7132.73 7231.66,7132.84 7232.76,7132.95 7233.85,7132.99 7234.95,7133.04 7236.05,7133.06 7237.15,7133.07 7238.25,7133.09 7239.35,7133.1 7240.45,7132.93 7241.55,7132.75 7242.65,7132.96 7243.75,7133.16 7244.85,7132.85 7245.95,7132.53 7247.05,7132.59 7248.15,7132.66 7249.25,7132.76 7250.34,7132.87 7251.44,7132.74 7252.54,7132.61 7253.64,7132.71 7254.74,7132.8 7255.84,7132.67 7256.94,7132.53 7258.04,7132.62 7259.14,7132.72 7260.24,7132.58 7261.34,7132.45 7262.44,7132.66 7263.54,7132.87 7264.64,7132.85 7265.74,7132.83 7266.83,7132.74 7267.93,7132.66 7269.03,7132.58 7270.13,7132.5 7271.23,7132.37 7272.33,7132.25 7273.43,7132.87 7274.53,7132.57 7275.63,7132.56 7276.73,7132.55 7277.83,7132.48 7278.93,7132.41 7280.03,7132.27 7281.13,7132.12 7282.22,7132.26 7283.32,7132.4 7284.42,7132.13 7285.52,7132.77 7286.62,7132.51 7287.72,7132.26 7288.82,7132.19 7289.92,7132.11 7291.02,7132.27 7292.12,7132.43 7293.22,7132.08 7294.32,7131.72 7295.42,7132.42 7296.52,7132.2 7297.62,7132.14 7298.71,7132.07 7299.81,7132.01 7300.91,7131.95 7302.01,7131.58 7303.11,7132.14 7304.21,7131.79 7305.31,7131.45 7306.41,7131.78 7307.51,7132.1 7308.61,7132.42 7309.71,7131.81 7310.81,7131.88 7310.87,7131.88 " />
  </g>
  <g
     style="font-style:normal;font-weight:400;font-size:11px;font-family:'MS Shell Dlg 2';fill:none;fill-rule:evenodd;stroke:#000000;stroke-width:1;stroke-linecap:square;stroke-linejoin:bevel;stroke-opacity:1"
     id="g64"
     font-style="normal"
     font-weight="400"
     font-size="11"
     transform="matrix(0.319516,0,0,0.319915,-2150.98,-2170.62)" />
  <g
     style="font-style:normal;font-weight:400;font-size:11px;font-family:'MS Shell Dlg 2';fill:none;fill-rule:evenodd;stroke:#000000;stroke-width:1;stroke-linecap:square;stroke-linejoin:bevel;stroke-opacity:1"
     id="g66"
     font-style="normal"
     font-weight="400"
     font-size="11"
     transform="matrix(0.319516,0,0,0.319915,-2150.98,-2170.62)" />
  <g
     style="font-style:normal;font-weight:400;font-size:11px;font-family:'MS Shell Dlg 2';fill:none;fill-rule:evenodd;stroke:#000000;stroke-width:1;stroke-linecap:square;stroke-linejoin:bevel;stroke-opacity:1"
     id="g98"
     font-style="normal"
     font-weight="400"
     font-size="11"
     transform="matrix(0.319516,0,0,0.319915,-2150.98,-2170.62)" />
  <g
     style="font-style:normal;font-weight:400;font-size:11px;font-family:'MS Shell Dlg 2';fill:none;fill-rule:evenodd;stroke:#000000;stroke-width:1;stroke-linecap:square;stroke-linejoin:bevel;stroke-opacity:1"
     id="g100"
     font-style="normal"
     font-weight="400"
     font-size="11"
     transform="matrix(0.319516,0,0,0.319915,-2150.98,-2170.62)" />
  <g
     style="font-style:normal;font-weight:400;font-size:11px;font-family:'MS Shell Dlg 2';fill:none;fill-rule:evenodd;stroke:#000000;stroke-width:1;stroke-linecap:square;stroke-linejoin:bevel;stroke-opacity:1"
     id="g102"
     font-style="normal"
     font-weight="400"
     font-size="11"
     transform="matrix(0.319516,0,0,0.319915,-2150.98,-2170.62)" />
</svg>
