<?xml version="1.0" encoding="UTF-8" standalone="no"?>
<svg
   xmlns:dc="http://purl.org/dc/elements/1.1/"
   xmlns:cc="http://creativecommons.org/ns#"
   xmlns:rdf="http://www.w3.org/1999/02/22-rdf-syntax-ns#"
   xmlns:svg="http://www.w3.org/2000/svg"
   xmlns="http://www.w3.org/2000/svg"
   xmlns:sodipodi="http://sodipodi.sourceforge.net/DTD/sodipodi-0.dtd"
   xmlns:inkscape="http://www.inkscape.org/namespaces/inkscape"
   width="615px"
   height="105px"
   viewBox="0 0 615 105"
   style="background-color: #ffffff00"
   version="1.1"
   id="svg270"
   sodipodi:docname="zr-to-imine.svg"
   inkscape:version="0.92.4 (5da689c313, 2019-01-14)">
  <metadata
     id="metadata276">
    <rdf:RDF>
      <cc:Work
         rdf:about="">
        <dc:format>image/svg+xml</dc:format>
        <dc:type
           rdf:resource="http://purl.org/dc/dcmitype/StillImage" />
      </cc:Work>
    </rdf:RDF>
  </metadata>
  <defs
     id="defs274" />
  <sodipodi:namedview
     pagecolor="#ffffff"
     bordercolor="#666666"
     borderopacity="1"
     objecttolerance="10"
     gridtolerance="10"
     guidetolerance="10"
     inkscape:pageopacity="0"
     inkscape:pageshadow="2"
     inkscape:window-width="1920"
     inkscape:window-height="1017"
     id="namedview272"
     showgrid="false"
     inkscape:zoom="1.5774805"
     inkscape:cx="278.70912"
     inkscape:cy="-32.552481"
     inkscape:window-x="-8"
     inkscape:window-y="-8"
     inkscape:window-maximized="1"
     inkscape:current-layer="svg270" />
  <path
     stroke="none"
     fill="#000000"
     transform="matrix(0.0666667 0 0 0.0666667 2.93354 -288.333)"
     d="M 3541.69,5280.09 L 2969.98,5280.09 L 2969.98,5270.09 L 3541.69,5270.09 Z "
     id="path2" />
  <path
     stroke="none"
     fill="#000000"
     transform="matrix(0.0666667 0 0 0.0666667 2.93354 -288.333)"
     d="M 3629.98,5275.09 C 3629.98,5275.09 3527.93,5301.6 3527.93,5301.6 C 3527.93,5301.6 3540.69,5286.69 3540.69,5275.09 C 3540.69,5263.05 3527.93,5247.58 3527.93,5247.58 C 3527.93,5247.58 3629.98,5275.09 3629.98,5275.09 C 3629.98,5275.09 3629.98,5275.09 3629.98,5275.09 "
     id="path4" />
  <path
     stroke="#000000"
     stroke-width="1"
     fill="none"
     transform="matrix(0.0666667 0 0 0.0666667 2.93354 -288.333)"
     d="M 3629.98,5275.09 C 3629.98,5275.09 3527.93,5301.6 3527.93,5301.6 C 3527.93,5301.6 3540.69,5286.69 3540.69,5275.09 C 3540.69,5263.05 3527.93,5247.58 3527.93,5247.58 C 3527.93,5247.58 3629.98,5275.09 3629.98,5275.09 C 3629.98,5275.09 3629.98,5275.09 3629.98,5275.09 "
     id="path6" />
  <g
     aria-label="H"
     transform="matrix(0.0666667,0,0,0.0666667,56.3432,43.1276)"
     style="font-style:normal;font-weight:normal;font-size:160px;font-family:Arial;fill:#000000;stroke:none"
     id="text8">
    <path
       d="M 12.8125,0 V -114.53125 H 27.96875 V -67.5 H 87.5 v -47.03125 h 15.15625 V 0 H 87.5 V -53.984375 H 27.96875 V 0 Z"
       style="font-style:normal;font-weight:normal;font-size:160px;font-family:Arial;fill:#000000;stroke:none"
       id="path1086"
       inkscape:connector-curvature="0" />
  </g>
  <g
     aria-label="N"
     transform="matrix(0.0666667,0,0,0.0666667,56.3432,53.7942)"
     style="font-style:normal;font-weight:normal;font-size:160px;font-family:Arial;fill:#000000;stroke:none"
     id="text10">
    <path
       d="m 12.1875,0 v -114.53125 h 15.546875 l 60.15625,89.921875 V -114.53125 H 102.42188 V 0 H 86.875 L 26.71875,-90 V 0 Z"
       style="font-style:normal;font-weight:normal;font-size:160px;font-family:Arial;fill:#000000;stroke:none"
       id="path1089"
       inkscape:connector-curvature="0" />
  </g>
  <path
     stroke="none"
     fill="#000000"
     transform="matrix(0.0666667 0 0 0.0666667 2.93354 -288.333)"
     d="M 663.991,5412.43 L 653.786,5418.32 L 653.786,5187.61 L 658.889,5184.4 L 663.991,5187.35 L 663.991,5412.43 Z "
     id="path12" />
  <path
     stroke="none"
     fill="#000000"
     transform="matrix(0.0666667 0 0 0.0666667 2.93354 -288.333)"
     d="M 858.918,5524.97 L 858.918,5530.86 L 853.479,5533.61 L 653.786,5418.32 L 663.991,5412.43 L 858.918,5524.97 Z "
     id="path14" />
  <path
     stroke="none"
     fill="#000000"
     transform="matrix(0.0666667 0 0 0.0666667 2.93354 -288.333)"
     d="M 1053.85,5412.43 L 1064.05,5418.32 L 864.358,5533.61 L 858.918,5530.86 L 858.918,5524.97 L 1053.85,5412.43 Z "
     id="path16" />
  <path
     stroke="none"
     fill="#000000"
     transform="matrix(0.0666667 0 0 0.0666667 2.93354 -288.333)"
     d="M 1053.85,5187.35 L 1064.05,5181.46 L 1064.05,5418.32 L 1053.85,5412.43 L 1053.85,5187.35 Z "
     id="path18" />
  <path
     stroke="none"
     fill="#000000"
     transform="matrix(0.0666667 0 0 0.0666667 2.93354 -288.333)"
     d="M 938.467,5120.73 L 943.57,5111.9 L 1064.05,5181.46 L 1053.85,5187.35 L 938.467,5120.73 Z "
     id="path20" />
  <path
     stroke="none"
     fill="#000000"
     transform="matrix(0.0666667 0 0 0.0666667 2.93354 -288.333)"
     d="M 663.991,5187.35 L 658.889,5184.4 L 659.116,5178.38 L 773.857,5112.13 L 778.959,5120.97 L 663.991,5187.35 Z "
     id="path22" />
  <g
     aria-label="O"
     transform="matrix(0.0666667,0,0,0.0666667,82.717,53.7942)"
     style="font-style:normal;font-weight:normal;font-size:160px;font-family:Arial;fill:#000000;stroke:none"
     id="text24">
    <path
       d="m 7.734375,-55.78125 q 0,-28.515625 15.3125,-44.60938 15.3125,-16.17187 39.53125,-16.17187 15.859375,0 28.59375,7.57812 12.734375,7.57813 19.375005,21.17188 6.71875,13.515625 6.71875,30.703125 0,17.421875 -7.03125,31.171875 -7.03125,13.75 -19.92188,20.859375 -12.890625,7.03125 -27.8125,7.03125 -16.171875,0 -28.90625,-7.8125 -12.734375,-7.8125 -19.296875,-21.328125 -6.5625,-13.515625 -6.5625,-28.59375 z m 15.625,0.234375 q 0,20.703125 11.09375,32.65625 11.171875,11.875 27.96875,11.875 17.109375,0 28.125,-12.03125 11.093755,-12.03125 11.093755,-34.140625 0,-13.984375 -4.76563,-24.375 -4.6875,-10.46875 -13.828125,-16.171875 -9.0625,-5.781255 -20.390625,-5.781255 -16.09375,0 -27.734375,11.093755 -11.5625,11.015625 -11.5625,36.875 z"
       style="font-style:normal;font-weight:normal;font-size:160px;font-family:Arial;fill:#000000;stroke:none"
       id="path1092"
       inkscape:connector-curvature="0" />
  </g>
  <path
     stroke="none"
     fill="#000000"
     transform="matrix(0.0666667 0 0 0.0666667 2.93354 -288.333)"
     d="M 1171.79,5089.36 L 1176.89,5098.2 L 1040.71,5176.82 L 1035.61,5167.98 L 1171.79,5089.36 Z "
     id="path26" />
  <path
     stroke="none"
     fill="#000000"
     transform="matrix(0.0666667 0 0 0.0666667 2.93354 -288.333)"
     d="M 1192.58,5125.36 L 1197.68,5134.2 L 1061.5,5212.82 L 1056.4,5203.99 L 1192.58,5125.36 Z "
     id="path28" />
  <g
     aria-label="OBn"
     transform="matrix(0.0666667,0,0,0.0666667,82.717,84.5909)"
     style="font-style:normal;font-weight:normal;font-size:160px;font-family:Arial;fill:#000000;stroke:none"
     id="text30">
    <path
       d="m 7.734375,-55.78125 q 0,-28.515625 15.3125,-44.60938 15.3125,-16.17187 39.53125,-16.17187 15.859375,0 28.59375,7.57812 12.734375,7.57813 19.375005,21.17188 6.71875,13.515625 6.71875,30.703125 0,17.421875 -7.03125,31.171875 -7.03125,13.75 -19.92188,20.859375 -12.890625,7.03125 -27.8125,7.03125 -16.171875,0 -28.90625,-7.8125 -12.734375,-7.8125 -19.296875,-21.328125 -6.5625,-13.515625 -6.5625,-28.59375 z m 15.625,0.234375 q 0,20.703125 11.09375,32.65625 11.171875,11.875 27.96875,11.875 17.109375,0 28.125,-12.03125 11.093755,-12.03125 11.093755,-34.140625 0,-13.984375 -4.76563,-24.375 -4.6875,-10.46875 -13.828125,-16.171875 -9.0625,-5.781255 -20.390625,-5.781255 -16.09375,0 -27.734375,11.093755 -11.5625,11.015625 -11.5625,36.875 z"
       style="font-style:normal;font-weight:normal;font-size:160px;font-family:Arial;fill:#000000;stroke:none"
       id="path1095"
       inkscape:connector-curvature="0" />
    <path
       d="m 136.09375,0 v -114.53125 h 42.96875 q 13.125,0 21.01562,3.51562 7.96875,3.4375 12.42188,10.70313 4.53125,7.1875 4.53125,15.078125 0,7.34375 -3.98438,13.828125 -3.98437,6.484375 -12.03125,10.46875 10.39063,3.046875 15.9375,10.390625 5.625,7.34375 5.625,17.34375 0,8.046875 -3.4375,15 -3.35937,6.875 -8.35937,10.625 -5,3.75 -12.57813,5.703125 Q 190.70312,0 179.76562,0 Z M 151.25,-66.40625 h 24.76562 q 10.07813,0 14.45313,-1.328125 5.78125,-1.71875 8.67187,-5.703125 2.96875,-3.984375 2.96875,-10 0,-5.703125 -2.73437,-10 -2.73438,-4.375 -7.8125,-5.9375 -5.07813,-1.64063 -17.42188,-1.64063 H 151.25 Z m 0,52.890625 h 28.51562 q 7.34375,0 10.3125,-0.546875 5.23438,-0.9375 8.75,-3.125 3.51563,-2.1875 5.78125,-6.328125 2.26563,-4.21875 2.26563,-9.6875 0,-6.40625 -3.28125,-11.09375 -3.28125,-4.765625 -9.14063,-6.640625 -5.78125,-1.953125 -16.71875,-1.953125 H 151.25 Z"
       style="font-style:normal;font-weight:normal;font-size:160px;font-family:Arial;fill:#000000;stroke:none"
       id="path1097"
       inkscape:connector-curvature="0" />
    <path
       d="m 241.79687,0 v -82.96875 h 12.65625 v 11.796875 q 9.14063,-13.671875 26.40625,-13.671875 7.5,0 13.75,2.734375 6.32813,2.65625 9.45313,7.03125 3.125,4.375 4.375,10.390625 0.78125,3.90625 0.78125,13.671875 V 0 h -14.0625 v -50.46875 q 0,-8.59375 -1.64063,-12.8125 -1.64062,-4.296875 -5.85937,-6.796875 -4.14063,-2.578125 -9.76563,-2.578125 -8.98437,0 -15.54687,5.703125 -6.48438,5.703125 -6.48438,21.640625 V 0 Z"
       style="font-style:normal;font-weight:normal;font-size:160px;font-family:Arial;fill:#000000;stroke:none"
       id="path1099"
       inkscape:connector-curvature="0" />
  </g>
  <path
     stroke="none"
     fill="#000000"
     transform="matrix(0.0666667 0 0 0.0666667 2.93354 -288.333)"
     d="M 1202.18,5470.58 L 1178.37,5511.82 L 1170.39,5505.23 L 1192.48,5466.96 L 1202.18,5470.58 Z "
     id="path32" />
  <path
     stroke="none"
     fill="#000000"
     transform="matrix(0.0666667 0 0 0.0666667 2.93354 -288.333)"
     d="M 1154.19,5452.68 L 1138.88,5479.21 L 1130.9,5472.62 L 1144.5,5449.06 L 1154.19,5452.68 Z "
     id="path34" />
  <path
     stroke="none"
     fill="#000000"
     transform="matrix(0.0666667 0 0 0.0666667 2.93354 -288.333)"
     d="M 1106.2,5434.78 L 1099.38,5446.59 L 1091.4,5440.01 L 1096.51,5431.17 L 1106.2,5434.78 Z "
     id="path36" />
  <g
     aria-label="BnO"
     transform="matrix(0.0666667,0,0,0.0666667,16.3288,84.5909)"
     style="font-style:normal;font-weight:normal;font-size:160px;font-family:Arial;fill:#000000;stroke:none"
     id="text38">
    <path
       d="M 11.71875,0 V -114.53125 H 54.6875 q 13.125,0 21.015625,3.51562 7.96875,3.4375 12.421875,10.70313 4.53125,7.1875 4.53125,15.078125 0,7.34375 -3.984375,13.828125 -3.984375,6.484375 -12.03125,10.46875 10.390625,3.046875 15.9375,10.390625 5.625,7.34375 5.625,17.34375 0,8.046875 -3.4375,15 -3.359375,6.875 -8.359375,10.625 -5,3.75 -12.578125,5.703125 Q 66.328125,0 55.390625,0 Z M 26.875,-66.40625 h 24.765625 q 10.078125,0 14.453125,-1.328125 5.78125,-1.71875 8.671875,-5.703125 2.96875,-3.984375 2.96875,-10 0,-5.703125 -2.734375,-10 -2.734375,-4.375 -7.8125,-5.9375 -5.078125,-1.64063 -17.421875,-1.64063 H 26.875 Z m 0,52.890625 h 28.515625 q 7.34375,0 10.3125,-0.546875 5.234375,-0.9375 8.75,-3.125 3.515625,-2.1875 5.78125,-6.328125 2.265625,-4.21875 2.265625,-9.6875 0,-6.40625 -3.28125,-11.09375 -3.28125,-4.765625 -9.140625,-6.640625 -5.78125,-1.953125 -16.71875,-1.953125 H 26.875 Z"
       style="font-style:normal;font-weight:normal;font-size:160px;font-family:Arial;fill:#000000;stroke:none"
       id="path1102"
       inkscape:connector-curvature="0" />
    <path
       d="m 117.42188,0 v -82.96875 h 12.65624 v 11.796875 q 9.14063,-13.671875 26.40625,-13.671875 7.5,0 13.75,2.734375 6.32813,2.65625 9.45313,7.03125 3.125,4.375 4.375,10.390625 0.78125,3.90625 0.78125,13.671875 V 0 h -14.0625 v -50.46875 q 0,-8.59375 -1.64063,-12.8125 -1.64062,-4.296875 -5.85937,-6.796875 -4.14063,-2.578125 -9.76563,-2.578125 -8.98437,0 -15.54687,5.703125 -6.48438,5.703125 -6.48438,21.640625 V 0 Z"
       style="font-style:normal;font-weight:normal;font-size:160px;font-family:Arial;fill:#000000;stroke:none"
       id="path1104"
       inkscape:connector-curvature="0" />
    <path
       d="m 203.67187,-55.78125 q 0,-28.515625 15.3125,-44.60938 15.3125,-16.17187 39.53125,-16.17187 15.85938,0 28.59375,7.57812 12.73438,7.57813 19.375,21.17188 6.71875,13.515625 6.71875,30.703125 0,17.421875 -7.03125,31.171875 -7.03125,13.75 -19.92187,20.859375 -12.89063,7.03125 -27.8125,7.03125 -16.17188,0 -28.90625,-7.8125 -12.73438,-7.8125 -19.29688,-21.328125 -6.5625,-13.515625 -6.5625,-28.59375 z m 15.625,0.234375 q 0,20.703125 11.09375,32.65625 11.17188,11.875 27.96875,11.875 17.10938,0 28.125,-12.03125 11.09375,-12.03125 11.09375,-34.140625 0,-13.984375 -4.76562,-24.375 -4.6875,-10.46875 -13.82813,-16.171875 -9.0625,-5.781255 -20.39062,-5.781255 -16.09375,0 -27.73438,11.093755 -11.5625,11.015625 -11.5625,36.875 z"
       style="font-style:normal;font-weight:normal;font-size:160px;font-family:Arial;fill:#000000;stroke:none"
       id="path1106"
       inkscape:connector-curvature="0" />
  </g>
  <path
     stroke="none"
     fill="#000000"
     transform="matrix(0.0666667 0 0 0.0666667 2.93354 -288.333)"
     d="M 539.87,5511.59 L 516.059,5470.34 L 525.757,5466.73 L 547.846,5504.99 L 539.87,5511.59 Z "
     id="path40" />
  <path
     stroke="none"
     fill="#000000"
     transform="matrix(0.0666667 0 0 0.0666667 2.93354 -288.333)"
     d="M 579.216,5479.06 L 563.899,5452.53 L 573.597,5448.92 L 587.193,5472.47 L 579.216,5479.06 Z "
     id="path42" />
  <path
     stroke="none"
     fill="#000000"
     transform="matrix(0.0666667 0 0 0.0666667 2.93354 -288.333)"
     d="M 618.563,5446.54 L 611.739,5434.72 L 621.437,5431.11 L 626.539,5439.94 L 618.563,5446.54 Z "
     id="path44" />
  <path
     stroke="none"
     fill="#000000"
     transform="matrix(0.0666667 0 0 0.0666667 2.93354 -288.333)"
     d="M 439.482,5085.99 L 476.959,5052.57 L 659.116,5178.38 L 658.889,5184.4 L 653.786,5187.61 L 439.482,5085.99 Z "
     id="path46" />
  <g
     aria-label="OBn"
     transform="matrix(0.0666667,0,0,0.0666667,56.0463,99.9892)"
     style="font-style:normal;font-weight:normal;font-size:160px;font-family:Arial;fill:#000000;stroke:none"
     id="text48">
    <path
       d="m 7.734375,-55.78125 q 0,-28.515625 15.3125,-44.60938 15.3125,-16.17187 39.53125,-16.17187 15.859375,0 28.59375,7.57812 12.734375,7.57813 19.375005,21.17188 6.71875,13.515625 6.71875,30.703125 0,17.421875 -7.03125,31.171875 -7.03125,13.75 -19.92188,20.859375 -12.890625,7.03125 -27.8125,7.03125 -16.171875,0 -28.90625,-7.8125 -12.734375,-7.8125 -19.296875,-21.328125 -6.5625,-13.515625 -6.5625,-28.59375 z m 15.625,0.234375 q 0,20.703125 11.09375,32.65625 11.171875,11.875 27.96875,11.875 17.109375,0 28.125,-12.03125 11.093755,-12.03125 11.093755,-34.140625 0,-13.984375 -4.76563,-24.375 -4.6875,-10.46875 -13.828125,-16.171875 -9.0625,-5.781255 -20.390625,-5.781255 -16.09375,0 -27.734375,11.093755 -11.5625,11.015625 -11.5625,36.875 z"
       style="font-style:normal;font-weight:normal;font-size:160px;font-family:Arial;fill:#000000;stroke:none"
       id="path1109"
       inkscape:connector-curvature="0" />
    <path
       d="m 136.09375,0 v -114.53125 h 42.96875 q 13.125,0 21.01562,3.51562 7.96875,3.4375 12.42188,10.70313 4.53125,7.1875 4.53125,15.078125 0,7.34375 -3.98438,13.828125 -3.98437,6.484375 -12.03125,10.46875 10.39063,3.046875 15.9375,10.390625 5.625,7.34375 5.625,17.34375 0,8.046875 -3.4375,15 -3.35937,6.875 -8.35937,10.625 -5,3.75 -12.57813,5.703125 Q 190.70312,0 179.76562,0 Z M 151.25,-66.40625 h 24.76562 q 10.07813,0 14.45313,-1.328125 5.78125,-1.71875 8.67187,-5.703125 2.96875,-3.984375 2.96875,-10 0,-5.703125 -2.73437,-10 -2.73438,-4.375 -7.8125,-5.9375 -5.07813,-1.64063 -17.42188,-1.64063 H 151.25 Z m 0,52.890625 h 28.51562 q 7.34375,0 10.3125,-0.546875 5.23438,-0.9375 8.75,-3.125 3.51563,-2.1875 5.78125,-6.328125 2.26563,-4.21875 2.26563,-9.6875 0,-6.40625 -3.28125,-11.09375 -3.28125,-4.765625 -9.14063,-6.640625 -5.78125,-1.953125 -16.71875,-1.953125 H 151.25 Z"
       style="font-style:normal;font-weight:normal;font-size:160px;font-family:Arial;fill:#000000;stroke:none"
       id="path1111"
       inkscape:connector-curvature="0" />
    <path
       d="m 241.79687,0 v -82.96875 h 12.65625 v 11.796875 q 9.14063,-13.671875 26.40625,-13.671875 7.5,0 13.75,2.734375 6.32813,2.65625 9.45313,7.03125 3.125,4.375 4.375,10.390625 0.78125,3.90625 0.78125,13.671875 V 0 h -14.0625 v -50.46875 q 0,-8.59375 -1.64063,-12.8125 -1.64062,-4.296875 -5.85937,-6.796875 -4.14063,-2.578125 -9.76563,-2.578125 -8.98437,0 -15.54687,5.703125 -6.48438,5.703125 -6.48438,21.640625 V 0 Z"
       style="font-style:normal;font-weight:normal;font-size:160px;font-family:Arial;fill:#000000;stroke:none"
       id="path1113"
       inkscape:connector-curvature="0" />
  </g>
  <path
     stroke="none"
     fill="#000000"
     transform="matrix(0.0666667 0 0 0.0666667 2.93354 -288.333)"
     d="M 882.729,5683.5 L 835.108,5683.5 L 853.479,5533.61 L 858.918,5530.86 L 864.358,5533.61 L 882.729,5683.5 Z "
     id="path50" />
  <g
     aria-label="BnO"
     transform="matrix(0.0666667,0,0,0.0666667,2.99344,61.4934)"
     style="font-style:normal;font-weight:normal;font-size:160px;font-family:Arial;fill:#000000;stroke:none"
     id="text52">
    <path
       d="M 11.71875,0 V -114.53125 H 54.6875 q 13.125,0 21.015625,3.51562 7.96875,3.4375 12.421875,10.70313 4.53125,7.1875 4.53125,15.078125 0,7.34375 -3.984375,13.828125 -3.984375,6.484375 -12.03125,10.46875 10.390625,3.046875 15.9375,10.390625 5.625,7.34375 5.625,17.34375 0,8.046875 -3.4375,15 -3.359375,6.875 -8.359375,10.625 -5,3.75 -12.578125,5.703125 Q 66.328125,0 55.390625,0 Z M 26.875,-66.40625 h 24.765625 q 10.078125,0 14.453125,-1.328125 5.78125,-1.71875 8.671875,-5.703125 2.96875,-3.984375 2.96875,-10 0,-5.703125 -2.734375,-10 -2.734375,-4.375 -7.8125,-5.9375 -5.078125,-1.64063 -17.421875,-1.64063 H 26.875 Z m 0,52.890625 h 28.515625 q 7.34375,0 10.3125,-0.546875 5.234375,-0.9375 8.75,-3.125 3.515625,-2.1875 5.78125,-6.328125 2.265625,-4.21875 2.265625,-9.6875 0,-6.40625 -3.28125,-11.09375 -3.28125,-4.765625 -9.140625,-6.640625 -5.78125,-1.953125 -16.71875,-1.953125 H 26.875 Z"
       style="font-style:normal;font-weight:normal;font-size:160px;font-family:Arial;fill:#000000;stroke:none"
       id="path1116"
       inkscape:connector-curvature="0" />
    <path
       d="m 117.42188,0 v -82.96875 h 12.65624 v 11.796875 q 9.14063,-13.671875 26.40625,-13.671875 7.5,0 13.75,2.734375 6.32813,2.65625 9.45313,7.03125 3.125,4.375 4.375,10.390625 0.78125,3.90625 0.78125,13.671875 V 0 h -14.0625 v -50.46875 q 0,-8.59375 -1.64063,-12.8125 -1.64062,-4.296875 -5.85937,-6.796875 -4.14063,-2.578125 -9.76563,-2.578125 -8.98437,0 -15.54687,5.703125 -6.48438,5.703125 -6.48438,21.640625 V 0 Z"
       style="font-style:normal;font-weight:normal;font-size:160px;font-family:Arial;fill:#000000;stroke:none"
       id="path1118"
       inkscape:connector-curvature="0" />
    <path
       d="m 203.67187,-55.78125 q 0,-28.515625 15.3125,-44.60938 15.3125,-16.17187 39.53125,-16.17187 15.85938,0 28.59375,7.57812 12.73438,7.57813 19.375,21.17188 6.71875,13.515625 6.71875,30.703125 0,17.421875 -7.03125,31.171875 -7.03125,13.75 -19.92187,20.859375 -12.89063,7.03125 -27.8125,7.03125 -16.17188,0 -28.90625,-7.8125 -12.73438,-7.8125 -19.29688,-21.328125 -6.5625,-13.515625 -6.5625,-28.59375 z m 15.625,0.234375 q 0,20.703125 11.09375,32.65625 11.17188,11.875 27.96875,11.875 17.10938,0 28.125,-12.03125 11.09375,-12.03125 11.09375,-34.140625 0,-13.984375 -4.76562,-24.375 -4.6875,-10.46875 -13.82813,-16.171875 -9.0625,-5.781255 -20.39062,-5.781255 -16.09375,0 -27.73438,11.093755 -11.5625,11.015625 -11.5625,36.875 z"
       style="font-style:normal;font-weight:normal;font-size:160px;font-family:Arial;fill:#000000;stroke:none"
       id="path1120"
       inkscape:connector-curvature="0" />
  </g>
  <path
     stroke="none"
     fill="#000000"
     transform="matrix(0.0666667 0 0 0.0666667 2.93354 -288.333)"
     d="M 330.485,5148.92 L 325.383,5140.08 L 476.959,5052.57 L 439.482,5085.99 L 330.485,5148.92 Z "
     id="path54" />
  <g
     aria-label="N"
     transform="matrix(0.0666667,0,0,0.0666667,564.045,53.7942)"
     style="font-style:normal;font-weight:normal;font-size:160px;font-family:Arial;fill:#000000;stroke:none"
     id="text56">
    <path
       d="m 12.1875,0 v -114.53125 h 15.546875 l 60.15625,89.921875 V -114.53125 H 102.42188 V 0 H 86.875 L 26.71875,-90 V 0 Z"
       style="font-style:normal;font-weight:normal;font-size:160px;font-family:Arial;fill:#000000;stroke:none"
       id="path1123"
       inkscape:connector-curvature="0" />
  </g>
  <path
     stroke="none"
     fill="#000000"
     transform="matrix(0.0666667 0 0 0.0666667 2.93354 -288.333)"
     d="M 8279.52,5412.43 L 8269.31,5418.32 L 8269.31,5187.61 L 8274.42,5184.4 L 8279.52,5187.35 L 8279.52,5412.43 Z "
     id="path58" />
  <path
     stroke="none"
     fill="#000000"
     transform="matrix(0.0666667 0 0 0.0666667 2.93354 -288.333)"
     d="M 8474.45,5524.97 L 8474.45,5530.86 L 8469.01,5533.61 L 8269.31,5418.32 L 8279.52,5412.43 L 8474.45,5524.97 Z "
     id="path60" />
  <path
     stroke="none"
     fill="#000000"
     transform="matrix(0.0666667 0 0 0.0666667 2.93354 -288.333)"
     d="M 8669.37,5412.43 L 8679.58,5418.32 L 8479.89,5533.61 L 8474.45,5530.86 L 8474.45,5524.97 L 8669.37,5412.43 Z "
     id="path62" />
  <path
     stroke="none"
     fill="#000000"
     transform="matrix(0.0666667 0 0 0.0666667 2.93354 -288.333)"
     d="M 8669.37,5187.35 L 8674.48,5184.4 L 8679.58,5187.35 L 8679.58,5418.32 L 8669.37,5412.43 L 8669.37,5187.35 Z "
     id="path64" />
  <path
     stroke="none"
     fill="#000000"
     transform="matrix(0.0666667 0 0 0.0666667 2.93354 -288.333)"
     d="M 8554,5120.73 L 8559.1,5111.9 L 8674.48,5178.51 L 8674.48,5184.4 L 8669.37,5187.35 L 8554,5120.73 Z "
     id="path66" />
  <path
     stroke="none"
     fill="#000000"
     transform="matrix(0.0666667 0 0 0.0666667 2.93354 -288.333)"
     d="M 8533.21,5156.74 L 8538.31,5147.9 L 8635.45,5203.99 L 8630.35,5212.82 L 8533.21,5156.74 Z "
     id="path68" />
  <path
     stroke="none"
     fill="#000000"
     transform="matrix(0.0666667 0 0 0.0666667 2.93354 -288.333)"
     d="M 8279.52,5187.35 L 8274.42,5184.4 L 8274.64,5178.38 L 8389.38,5112.13 L 8394.49,5120.97 L 8279.52,5187.35 Z "
     id="path70" />
  <g
     aria-label="OBn"
     transform="matrix(0.0666667,0,0,0.0666667,590.419,84.5909)"
     style="font-style:normal;font-weight:normal;font-size:160px;font-family:Arial;fill:#000000;stroke:none"
     id="text72">
    <path
       d="m 7.734375,-55.78125 q 0,-28.515625 15.3125,-44.60938 15.3125,-16.17187 39.53125,-16.17187 15.859375,0 28.59375,7.57812 12.734375,7.57813 19.375005,21.17188 6.71875,13.515625 6.71875,30.703125 0,17.421875 -7.03125,31.171875 -7.03125,13.75 -19.92188,20.859375 -12.890625,7.03125 -27.8125,7.03125 -16.171875,0 -28.90625,-7.8125 -12.734375,-7.8125 -19.296875,-21.328125 -6.5625,-13.515625 -6.5625,-28.59375 z m 15.625,0.234375 q 0,20.703125 11.09375,32.65625 11.171875,11.875 27.96875,11.875 17.109375,0 28.125,-12.03125 11.093755,-12.03125 11.093755,-34.140625 0,-13.984375 -4.76563,-24.375 -4.6875,-10.46875 -13.828125,-16.171875 -9.0625,-5.781255 -20.390625,-5.781255 -16.09375,0 -27.734375,11.093755 -11.5625,11.015625 -11.5625,36.875 z"
       style="font-style:normal;font-weight:normal;font-size:160px;font-family:Arial;fill:#000000;stroke:none"
       id="path1126"
       inkscape:connector-curvature="0" />
    <path
       d="m 136.09375,0 v -114.53125 h 42.96875 q 13.125,0 21.01562,3.51562 7.96875,3.4375 12.42188,10.70313 4.53125,7.1875 4.53125,15.078125 0,7.34375 -3.98438,13.828125 -3.98437,6.484375 -12.03125,10.46875 10.39063,3.046875 15.9375,10.390625 5.625,7.34375 5.625,17.34375 0,8.046875 -3.4375,15 -3.35937,6.875 -8.35937,10.625 -5,3.75 -12.57813,5.703125 Q 190.70312,0 179.76562,0 Z M 151.25,-66.40625 h 24.76562 q 10.07813,0 14.45313,-1.328125 5.78125,-1.71875 8.67187,-5.703125 2.96875,-3.984375 2.96875,-10 0,-5.703125 -2.73437,-10 -2.73438,-4.375 -7.8125,-5.9375 -5.07813,-1.64063 -17.42188,-1.64063 H 151.25 Z m 0,52.890625 h 28.51562 q 7.34375,0 10.3125,-0.546875 5.23438,-0.9375 8.75,-3.125 3.51563,-2.1875 5.78125,-6.328125 2.26563,-4.21875 2.26563,-9.6875 0,-6.40625 -3.28125,-11.09375 -3.28125,-4.765625 -9.14063,-6.640625 -5.78125,-1.953125 -16.71875,-1.953125 H 151.25 Z"
       style="font-style:normal;font-weight:normal;font-size:160px;font-family:Arial;fill:#000000;stroke:none"
       id="path1128"
       inkscape:connector-curvature="0" />
    <path
       d="m 241.79687,0 v -82.96875 h 12.65625 v 11.796875 q 9.14063,-13.671875 26.40625,-13.671875 7.5,0 13.75,2.734375 6.32813,2.65625 9.45313,7.03125 3.125,4.375 4.375,10.390625 0.78125,3.90625 0.78125,13.671875 V 0 h -14.0625 v -50.46875 q 0,-8.59375 -1.64063,-12.8125 -1.64062,-4.296875 -5.85937,-6.796875 -4.14063,-2.578125 -9.76563,-2.578125 -8.98437,0 -15.54687,5.703125 -6.48438,5.703125 -6.48438,21.640625 V 0 Z"
       style="font-style:normal;font-weight:normal;font-size:160px;font-family:Arial;fill:#000000;stroke:none"
       id="path1130"
       inkscape:connector-curvature="0" />
  </g>
  <path
     stroke="none"
     fill="#000000"
     transform="matrix(0.0666667 0 0 0.0666667 2.93354 -288.333)"
     d="M 8817.71,5470.58 L 8793.9,5511.82 L 8785.92,5505.23 L 8808.01,5466.96 L 8817.71,5470.58 Z "
     id="path74" />
  <path
     stroke="none"
     fill="#000000"
     transform="matrix(0.0666667 0 0 0.0666667 2.93354 -288.333)"
     d="M 8769.72,5452.68 L 8754.4,5479.21 L 8746.43,5472.62 L 8760.02,5449.06 L 8769.72,5452.68 Z "
     id="path76" />
  <path
     stroke="none"
     fill="#000000"
     transform="matrix(0.0666667 0 0 0.0666667 2.93354 -288.333)"
     d="M 8721.73,5434.78 L 8714.91,5446.59 L 8706.93,5440.01 L 8712.04,5431.17 L 8721.73,5434.78 Z "
     id="path78" />
  <g
     aria-label="BnO"
     transform="matrix(0.0666667,0,0,0.0666667,524.031,84.5909)"
     style="font-style:normal;font-weight:normal;font-size:160px;font-family:Arial;fill:#000000;stroke:none"
     id="text80">
    <path
       d="M 11.71875,0 V -114.53125 H 54.6875 q 13.125,0 21.015625,3.51562 7.96875,3.4375 12.421875,10.70313 4.53125,7.1875 4.53125,15.078125 0,7.34375 -3.984375,13.828125 -3.984375,6.484375 -12.03125,10.46875 10.390625,3.046875 15.9375,10.390625 5.625,7.34375 5.625,17.34375 0,8.046875 -3.4375,15 -3.359375,6.875 -8.359375,10.625 -5,3.75 -12.578125,5.703125 Q 66.328125,0 55.390625,0 Z M 26.875,-66.40625 h 24.765625 q 10.078125,0 14.453125,-1.328125 5.78125,-1.71875 8.671875,-5.703125 2.96875,-3.984375 2.96875,-10 0,-5.703125 -2.734375,-10 -2.734375,-4.375 -7.8125,-5.9375 -5.078125,-1.64063 -17.421875,-1.64063 H 26.875 Z m 0,52.890625 h 28.515625 q 7.34375,0 10.3125,-0.546875 5.234375,-0.9375 8.75,-3.125 3.515625,-2.1875 5.78125,-6.328125 2.265625,-4.21875 2.265625,-9.6875 0,-6.40625 -3.28125,-11.09375 -3.28125,-4.765625 -9.140625,-6.640625 -5.78125,-1.953125 -16.71875,-1.953125 H 26.875 Z"
       style="font-style:normal;font-weight:normal;font-size:160px;font-family:Arial;fill:#000000;stroke:none"
       id="path1133"
       inkscape:connector-curvature="0" />
    <path
       d="m 117.42188,0 v -82.96875 h 12.65624 v 11.796875 q 9.14063,-13.671875 26.40625,-13.671875 7.5,0 13.75,2.734375 6.32813,2.65625 9.45313,7.03125 3.125,4.375 4.375,10.390625 0.78125,3.90625 0.78125,13.671875 V 0 h -14.0625 v -50.46875 q 0,-8.59375 -1.64063,-12.8125 -1.64062,-4.296875 -5.85937,-6.796875 -4.14063,-2.578125 -9.76563,-2.578125 -8.98437,0 -15.54687,5.703125 -6.48438,5.703125 -6.48438,21.640625 V 0 Z"
       style="font-style:normal;font-weight:normal;font-size:160px;font-family:Arial;fill:#000000;stroke:none"
       id="path1135"
       inkscape:connector-curvature="0" />
    <path
       d="m 203.67187,-55.78125 q 0,-28.515625 15.3125,-44.60938 15.3125,-16.17187 39.53125,-16.17187 15.85938,0 28.59375,7.57812 12.73438,7.57813 19.375,21.17188 6.71875,13.515625 6.71875,30.703125 0,17.421875 -7.03125,31.171875 -7.03125,13.75 -19.92187,20.859375 -12.89063,7.03125 -27.8125,7.03125 -16.17188,0 -28.90625,-7.8125 -12.73438,-7.8125 -19.29688,-21.328125 -6.5625,-13.515625 -6.5625,-28.59375 z m 15.625,0.234375 q 0,20.703125 11.09375,32.65625 11.17188,11.875 27.96875,11.875 17.10938,0 28.125,-12.03125 11.09375,-12.03125 11.09375,-34.140625 0,-13.984375 -4.76562,-24.375 -4.6875,-10.46875 -13.82813,-16.171875 -9.0625,-5.781255 -20.39062,-5.781255 -16.09375,0 -27.73438,11.093755 -11.5625,11.015625 -11.5625,36.875 z"
       style="font-style:normal;font-weight:normal;font-size:160px;font-family:Arial;fill:#000000;stroke:none"
       id="path1137"
       inkscape:connector-curvature="0" />
  </g>
  <path
     stroke="none"
     fill="#000000"
     transform="matrix(0.0666667 0 0 0.0666667 2.93354 -288.333)"
     d="M 8155.4,5511.59 L 8131.59,5470.34 L 8141.28,5466.73 L 8163.37,5504.99 L 8155.4,5511.59 Z "
     id="path82" />
  <path
     stroke="none"
     fill="#000000"
     transform="matrix(0.0666667 0 0 0.0666667 2.93354 -288.333)"
     d="M 8194.74,5479.06 L 8179.43,5452.53 L 8189.13,5448.92 L 8202.72,5472.47 L 8194.74,5479.06 Z "
     id="path84" />
  <path
     stroke="none"
     fill="#000000"
     transform="matrix(0.0666667 0 0 0.0666667 2.93354 -288.333)"
     d="M 8234.09,5446.54 L 8227.27,5434.72 L 8236.97,5431.11 L 8242.07,5439.94 L 8234.09,5446.54 Z "
     id="path86" />
  <path
     stroke="none"
     fill="#000000"
     transform="matrix(0.0666667 0 0 0.0666667 2.93354 -288.333)"
     d="M 8055.01,5085.99 L 8092.49,5052.57 L 8274.64,5178.38 L 8274.42,5184.4 L 8269.31,5187.61 L 8055.01,5085.99 Z "
     id="path88" />
  <g
     aria-label="OBn"
     transform="matrix(0.0666667,0,0,0.0666667,563.748,99.9892)"
     style="font-style:normal;font-weight:normal;font-size:160px;font-family:Arial;fill:#000000;stroke:none"
     id="text90">
    <path
       d="m 7.734375,-55.78125 q 0,-28.515625 15.3125,-44.60938 15.3125,-16.17187 39.53125,-16.17187 15.859375,0 28.59375,7.57812 12.734375,7.57813 19.375005,21.17188 6.71875,13.515625 6.71875,30.703125 0,17.421875 -7.03125,31.171875 -7.03125,13.75 -19.92188,20.859375 -12.890625,7.03125 -27.8125,7.03125 -16.171875,0 -28.90625,-7.8125 -12.734375,-7.8125 -19.296875,-21.328125 -6.5625,-13.515625 -6.5625,-28.59375 z m 15.625,0.234375 q 0,20.703125 11.09375,32.65625 11.171875,11.875 27.96875,11.875 17.109375,0 28.125,-12.03125 11.093755,-12.03125 11.093755,-34.140625 0,-13.984375 -4.76563,-24.375 -4.6875,-10.46875 -13.828125,-16.171875 -9.0625,-5.781255 -20.390625,-5.781255 -16.09375,0 -27.734375,11.093755 -11.5625,11.015625 -11.5625,36.875 z"
       style="font-style:normal;font-weight:normal;font-size:160px;font-family:Arial;fill:#000000;stroke:none"
       id="path1140"
       inkscape:connector-curvature="0" />
    <path
       d="m 136.09375,0 v -114.53125 h 42.96875 q 13.125,0 21.01562,3.51562 7.96875,3.4375 12.42188,10.70313 4.53125,7.1875 4.53125,15.078125 0,7.34375 -3.98438,13.828125 -3.98437,6.484375 -12.03125,10.46875 10.39063,3.046875 15.9375,10.390625 5.625,7.34375 5.625,17.34375 0,8.046875 -3.4375,15 -3.35937,6.875 -8.35937,10.625 -5,3.75 -12.57813,5.703125 Q 190.70312,0 179.76562,0 Z M 151.25,-66.40625 h 24.76562 q 10.07813,0 14.45313,-1.328125 5.78125,-1.71875 8.67187,-5.703125 2.96875,-3.984375 2.96875,-10 0,-5.703125 -2.73437,-10 -2.73438,-4.375 -7.8125,-5.9375 -5.07813,-1.64063 -17.42188,-1.64063 H 151.25 Z m 0,52.890625 h 28.51562 q 7.34375,0 10.3125,-0.546875 5.23438,-0.9375 8.75,-3.125 3.51563,-2.1875 5.78125,-6.328125 2.26563,-4.21875 2.26563,-9.6875 0,-6.40625 -3.28125,-11.09375 -3.28125,-4.765625 -9.14063,-6.640625 -5.78125,-1.953125 -16.71875,-1.953125 H 151.25 Z"
       style="font-style:normal;font-weight:normal;font-size:160px;font-family:Arial;fill:#000000;stroke:none"
       id="path1142"
       inkscape:connector-curvature="0" />
    <path
       d="m 241.79687,0 v -82.96875 h 12.65625 v 11.796875 q 9.14063,-13.671875 26.40625,-13.671875 7.5,0 13.75,2.734375 6.32813,2.65625 9.45313,7.03125 3.125,4.375 4.375,10.390625 0.78125,3.90625 0.78125,13.671875 V 0 h -14.0625 v -50.46875 q 0,-8.59375 -1.64063,-12.8125 -1.64062,-4.296875 -5.85937,-6.796875 -4.14063,-2.578125 -9.76563,-2.578125 -8.98437,0 -15.54687,5.703125 -6.48438,5.703125 -6.48438,21.640625 V 0 Z"
       style="font-style:normal;font-weight:normal;font-size:160px;font-family:Arial;fill:#000000;stroke:none"
       id="path1144"
       inkscape:connector-curvature="0" />
  </g>
  <path
     stroke="none"
     fill="#000000"
     transform="matrix(0.0666667 0 0 0.0666667 2.93354 -288.333)"
     d="M 8498.26,5683.5 L 8450.64,5683.5 L 8469.01,5533.61 L 8474.45,5530.86 L 8479.89,5533.61 L 8498.26,5683.5 Z "
     id="path92" />
  <g
     aria-label="BnO"
     transform="matrix(0.0666667,0,0,0.0666667,510.695,61.4934)"
     style="font-style:normal;font-weight:normal;font-size:160px;font-family:Arial;fill:#000000;stroke:none"
     id="text94">
    <path
       d="M 11.71875,0 V -114.53125 H 54.6875 q 13.125,0 21.015625,3.51562 7.96875,3.4375 12.421875,10.70313 4.53125,7.1875 4.53125,15.078125 0,7.34375 -3.984375,13.828125 -3.984375,6.484375 -12.03125,10.46875 10.390625,3.046875 15.9375,10.390625 5.625,7.34375 5.625,17.34375 0,8.046875 -3.4375,15 -3.359375,6.875 -8.359375,10.625 -5,3.75 -12.578125,5.703125 Q 66.328125,0 55.390625,0 Z M 26.875,-66.40625 h 24.765625 q 10.078125,0 14.453125,-1.328125 5.78125,-1.71875 8.671875,-5.703125 2.96875,-3.984375 2.96875,-10 0,-5.703125 -2.734375,-10 -2.734375,-4.375 -7.8125,-5.9375 -5.078125,-1.64063 -17.421875,-1.64063 H 26.875 Z m 0,52.890625 h 28.515625 q 7.34375,0 10.3125,-0.546875 5.234375,-0.9375 8.75,-3.125 3.515625,-2.1875 5.78125,-6.328125 2.265625,-4.21875 2.265625,-9.6875 0,-6.40625 -3.28125,-11.09375 -3.28125,-4.765625 -9.140625,-6.640625 -5.78125,-1.953125 -16.71875,-1.953125 H 26.875 Z"
       style="font-style:normal;font-weight:normal;font-size:160px;font-family:Arial;fill:#000000;stroke:none"
       id="path1147"
       inkscape:connector-curvature="0" />
    <path
       d="m 117.42188,0 v -82.96875 h 12.65624 v 11.796875 q 9.14063,-13.671875 26.40625,-13.671875 7.5,0 13.75,2.734375 6.32813,2.65625 9.45313,7.03125 3.125,4.375 4.375,10.390625 0.78125,3.90625 0.78125,13.671875 V 0 h -14.0625 v -50.46875 q 0,-8.59375 -1.64063,-12.8125 -1.64062,-4.296875 -5.85937,-6.796875 -4.14063,-2.578125 -9.76563,-2.578125 -8.98437,0 -15.54687,5.703125 -6.48438,5.703125 -6.48438,21.640625 V 0 Z"
       style="font-style:normal;font-weight:normal;font-size:160px;font-family:Arial;fill:#000000;stroke:none"
       id="path1149"
       inkscape:connector-curvature="0" />
    <path
       d="m 203.67187,-55.78125 q 0,-28.515625 15.3125,-44.60938 15.3125,-16.17187 39.53125,-16.17187 15.85938,0 28.59375,7.57812 12.73438,7.57813 19.375,21.17188 6.71875,13.515625 6.71875,30.703125 0,17.421875 -7.03125,31.171875 -7.03125,13.75 -19.92187,20.859375 -12.89063,7.03125 -27.8125,7.03125 -16.17188,0 -28.90625,-7.8125 -12.73438,-7.8125 -19.29688,-21.328125 -6.5625,-13.515625 -6.5625,-28.59375 z m 15.625,0.234375 q 0,20.703125 11.09375,32.65625 11.17188,11.875 27.96875,11.875 17.10938,0 28.125,-12.03125 11.09375,-12.03125 11.09375,-34.140625 0,-13.984375 -4.76562,-24.375 -4.6875,-10.46875 -13.82813,-16.171875 -9.0625,-5.781255 -20.39062,-5.781255 -16.09375,0 -27.73438,11.093755 -11.5625,11.015625 -11.5625,36.875 z"
       style="font-style:normal;font-weight:normal;font-size:160px;font-family:Arial;fill:#000000;stroke:none"
       id="path1151"
       inkscape:connector-curvature="0" />
  </g>
  <path
     stroke="none"
     fill="#000000"
     transform="matrix(0.0666667 0 0 0.0666667 2.93354 -288.333)"
     d="M 7946.01,5148.92 L 7940.91,5140.08 L 8092.49,5052.57 L 8055.01,5085.99 L 7946.01,5148.92 Z "
     id="path96" />
  <g
     aria-label="H"
     transform="matrix(0.0666667,0,0,0.0666667,322.545,43.1276)"
     style="font-style:normal;font-weight:normal;font-size:160px;font-family:Arial;fill:#000000;stroke:none"
     id="text98">
    <path
       d="M 12.8125,0 V -114.53125 H 27.96875 V -67.5 H 87.5 v -47.03125 h 15.15625 V 0 H 87.5 V -53.984375 H 27.96875 V 0 Z"
       style="font-style:normal;font-weight:normal;font-size:160px;font-family:Arial;fill:#000000;stroke:none"
       id="path1154"
       inkscape:connector-curvature="0" />
  </g>
  <g
     aria-label="N"
     transform="matrix(0.0666667,0,0,0.0666667,322.545,53.7942)"
     style="font-style:normal;font-weight:normal;font-size:160px;font-family:Arial;fill:#000000;stroke:none"
     id="text100">
    <path
       d="m 12.1875,0 v -114.53125 h 15.546875 l 60.15625,89.921875 V -114.53125 H 102.42188 V 0 H 86.875 L 26.71875,-90 V 0 Z"
       style="font-style:normal;font-weight:normal;font-size:160px;font-family:Arial;fill:#000000;stroke:none"
       id="path1157"
       inkscape:connector-curvature="0" />
  </g>
  <path
     stroke="none"
     fill="#000000"
     transform="matrix(0.0666667 0 0 0.0666667 2.93354 -288.333)"
     d="M 4657.02,5412.43 L 4646.81,5418.32 L 4646.81,5187.61 L 4651.92,5184.4 L 4657.02,5187.35 L 4657.02,5412.43 Z "
     id="path102" />
  <path
     stroke="none"
     fill="#000000"
     transform="matrix(0.0666667 0 0 0.0666667 2.93354 -288.333)"
     d="M 4851.95,5524.97 L 4851.95,5530.86 L 4846.51,5533.61 L 4646.81,5418.32 L 4657.02,5412.43 L 4851.95,5524.97 Z "
     id="path104" />
  <path
     stroke="none"
     fill="#000000"
     transform="matrix(0.0666667 0 0 0.0666667 2.93354 -288.333)"
     d="M 5046.87,5412.43 L 5057.08,5418.32 L 4857.39,5533.61 L 4851.95,5530.86 L 4851.95,5524.97 L 5046.87,5412.43 Z "
     id="path106" />
  <path
     stroke="none"
     fill="#000000"
     transform="matrix(0.0666667 0 0 0.0666667 2.93354 -288.333)"
     d="M 5046.87,5187.35 L 5051.98,5184.4 L 5057.08,5184.4 L 5057.08,5418.32 L 5046.87,5412.43 L 5046.87,5187.35 Z "
     id="path108" />
  <path
     stroke="none"
     fill="#000000"
     transform="matrix(0.0666667 0 0 0.0666667 2.93354 -288.333)"
     d="M 4931.5,5120.73 L 4936.6,5111.9 L 5046.87,5175.56 L 5051.98,5184.4 L 5046.87,5187.35 L 4931.5,5120.73 Z "
     id="path110" />
  <path
     stroke="none"
     fill="#000000"
     transform="matrix(0.0666667 0 0 0.0666667 2.93354 -288.333)"
     d="M 4657.02,5187.35 L 4651.92,5184.4 L 4652.14,5178.38 L 4766.88,5112.13 L 4771.99,5120.97 L 4657.02,5187.35 Z "
     id="path112" />
  <g
     aria-label="OBn"
     transform="matrix(0.0666667,0,0,0.0666667,348.919,84.5909)"
     style="font-style:normal;font-weight:normal;font-size:160px;font-family:Arial;fill:#000000;stroke:none"
     id="text114">
    <path
       d="m 7.734375,-55.78125 q 0,-28.515625 15.3125,-44.60938 15.3125,-16.17187 39.53125,-16.17187 15.859375,0 28.59375,7.57812 12.734375,7.57813 19.375005,21.17188 6.71875,13.515625 6.71875,30.703125 0,17.421875 -7.03125,31.171875 -7.03125,13.75 -19.92188,20.859375 -12.890625,7.03125 -27.8125,7.03125 -16.171875,0 -28.90625,-7.8125 -12.734375,-7.8125 -19.296875,-21.328125 -6.5625,-13.515625 -6.5625,-28.59375 z m 15.625,0.234375 q 0,20.703125 11.09375,32.65625 11.171875,11.875 27.96875,11.875 17.109375,0 28.125,-12.03125 11.093755,-12.03125 11.093755,-34.140625 0,-13.984375 -4.76563,-24.375 -4.6875,-10.46875 -13.828125,-16.171875 -9.0625,-5.781255 -20.390625,-5.781255 -16.09375,0 -27.734375,11.093755 -11.5625,11.015625 -11.5625,36.875 z"
       style="font-style:normal;font-weight:normal;font-size:160px;font-family:Arial;fill:#000000;stroke:none"
       id="path1160"
       inkscape:connector-curvature="0" />
    <path
       d="m 136.09375,0 v -114.53125 h 42.96875 q 13.125,0 21.01562,3.51562 7.96875,3.4375 12.42188,10.70313 4.53125,7.1875 4.53125,15.078125 0,7.34375 -3.98438,13.828125 -3.98437,6.484375 -12.03125,10.46875 10.39063,3.046875 15.9375,10.390625 5.625,7.34375 5.625,17.34375 0,8.046875 -3.4375,15 -3.35937,6.875 -8.35937,10.625 -5,3.75 -12.57813,5.703125 Q 190.70312,0 179.76562,0 Z M 151.25,-66.40625 h 24.76562 q 10.07813,0 14.45313,-1.328125 5.78125,-1.71875 8.67187,-5.703125 2.96875,-3.984375 2.96875,-10 0,-5.703125 -2.73437,-10 -2.73438,-4.375 -7.8125,-5.9375 -5.07813,-1.64063 -17.42188,-1.64063 H 151.25 Z m 0,52.890625 h 28.51562 q 7.34375,0 10.3125,-0.546875 5.23438,-0.9375 8.75,-3.125 3.51563,-2.1875 5.78125,-6.328125 2.26563,-4.21875 2.26563,-9.6875 0,-6.40625 -3.28125,-11.09375 -3.28125,-4.765625 -9.14063,-6.640625 -5.78125,-1.953125 -16.71875,-1.953125 H 151.25 Z"
       style="font-style:normal;font-weight:normal;font-size:160px;font-family:Arial;fill:#000000;stroke:none"
       id="path1162"
       inkscape:connector-curvature="0" />
    <path
       d="m 241.79687,0 v -82.96875 h 12.65625 v 11.796875 q 9.14063,-13.671875 26.40625,-13.671875 7.5,0 13.75,2.734375 6.32813,2.65625 9.45313,7.03125 3.125,4.375 4.375,10.390625 0.78125,3.90625 0.78125,13.671875 V 0 h -14.0625 v -50.46875 q 0,-8.59375 -1.64063,-12.8125 -1.64062,-4.296875 -5.85937,-6.796875 -4.14063,-2.578125 -9.76563,-2.578125 -8.98437,0 -15.54687,5.703125 -6.48438,5.703125 -6.48438,21.640625 V 0 Z"
       style="font-style:normal;font-weight:normal;font-size:160px;font-family:Arial;fill:#000000;stroke:none"
       id="path1164"
       inkscape:connector-curvature="0" />
  </g>
  <path
     stroke="none"
     fill="#000000"
     transform="matrix(0.0666667 0 0 0.0666667 2.93354 -288.333)"
     d="M 5195.21,5470.58 L 5171.4,5511.82 L 5163.42,5505.23 L 5185.51,5466.96 L 5195.21,5470.58 Z "
     id="path116" />
  <path
     stroke="none"
     fill="#000000"
     transform="matrix(0.0666667 0 0 0.0666667 2.93354 -288.333)"
     d="M 5147.22,5452.68 L 5131.9,5479.21 L 5123.93,5472.62 L 5137.52,5449.06 L 5147.22,5452.68 Z "
     id="path118" />
  <path
     stroke="none"
     fill="#000000"
     transform="matrix(0.0666667 0 0 0.0666667 2.93354 -288.333)"
     d="M 5099.23,5434.78 L 5092.41,5446.59 L 5084.43,5440.01 L 5089.54,5431.17 L 5099.23,5434.78 Z "
     id="path120" />
  <g
     aria-label="BnO"
     transform="matrix(0.0666667,0,0,0.0666667,282.531,84.5909)"
     style="font-style:normal;font-weight:normal;font-size:160px;font-family:Arial;fill:#000000;stroke:none"
     id="text122">
    <path
       d="M 11.71875,0 V -114.53125 H 54.6875 q 13.125,0 21.015625,3.51562 7.96875,3.4375 12.421875,10.70313 4.53125,7.1875 4.53125,15.078125 0,7.34375 -3.984375,13.828125 -3.984375,6.484375 -12.03125,10.46875 10.390625,3.046875 15.9375,10.390625 5.625,7.34375 5.625,17.34375 0,8.046875 -3.4375,15 -3.359375,6.875 -8.359375,10.625 -5,3.75 -12.578125,5.703125 Q 66.328125,0 55.390625,0 Z M 26.875,-66.40625 h 24.765625 q 10.078125,0 14.453125,-1.328125 5.78125,-1.71875 8.671875,-5.703125 2.96875,-3.984375 2.96875,-10 0,-5.703125 -2.734375,-10 -2.734375,-4.375 -7.8125,-5.9375 -5.078125,-1.64063 -17.421875,-1.64063 H 26.875 Z m 0,52.890625 h 28.515625 q 7.34375,0 10.3125,-0.546875 5.234375,-0.9375 8.75,-3.125 3.515625,-2.1875 5.78125,-6.328125 2.265625,-4.21875 2.265625,-9.6875 0,-6.40625 -3.28125,-11.09375 -3.28125,-4.765625 -9.140625,-6.640625 -5.78125,-1.953125 -16.71875,-1.953125 H 26.875 Z"
       style="font-style:normal;font-weight:normal;font-size:160px;font-family:Arial;fill:#000000;stroke:none"
       id="path1167"
       inkscape:connector-curvature="0" />
    <path
       d="m 117.42188,0 v -82.96875 h 12.65624 v 11.796875 q 9.14063,-13.671875 26.40625,-13.671875 7.5,0 13.75,2.734375 6.32813,2.65625 9.45313,7.03125 3.125,4.375 4.375,10.390625 0.78125,3.90625 0.78125,13.671875 V 0 h -14.0625 v -50.46875 q 0,-8.59375 -1.64063,-12.8125 -1.64062,-4.296875 -5.85937,-6.796875 -4.14063,-2.578125 -9.76563,-2.578125 -8.98437,0 -15.54687,5.703125 -6.48438,5.703125 -6.48438,21.640625 V 0 Z"
       style="font-style:normal;font-weight:normal;font-size:160px;font-family:Arial;fill:#000000;stroke:none"
       id="path1169"
       inkscape:connector-curvature="0" />
    <path
       d="m 203.67187,-55.78125 q 0,-28.515625 15.3125,-44.60938 15.3125,-16.17187 39.53125,-16.17187 15.85938,0 28.59375,7.57812 12.73438,7.57813 19.375,21.17188 6.71875,13.515625 6.71875,30.703125 0,17.421875 -7.03125,31.171875 -7.03125,13.75 -19.92187,20.859375 -12.89063,7.03125 -27.8125,7.03125 -16.17188,0 -28.90625,-7.8125 -12.73438,-7.8125 -19.29688,-21.328125 -6.5625,-13.515625 -6.5625,-28.59375 z m 15.625,0.234375 q 0,20.703125 11.09375,32.65625 11.17188,11.875 27.96875,11.875 17.10938,0 28.125,-12.03125 11.09375,-12.03125 11.09375,-34.140625 0,-13.984375 -4.76562,-24.375 -4.6875,-10.46875 -13.82813,-16.171875 -9.0625,-5.781255 -20.39062,-5.781255 -16.09375,0 -27.73438,11.093755 -11.5625,11.015625 -11.5625,36.875 z"
       style="font-style:normal;font-weight:normal;font-size:160px;font-family:Arial;fill:#000000;stroke:none"
       id="path1171"
       inkscape:connector-curvature="0" />
  </g>
  <path
     stroke="none"
     fill="#000000"
     transform="matrix(0.0666667 0 0 0.0666667 2.93354 -288.333)"
     d="M 4532.9,5511.59 L 4509.09,5470.34 L 4518.78,5466.73 L 4540.87,5504.99 L 4532.9,5511.59 Z "
     id="path124" />
  <path
     stroke="none"
     fill="#000000"
     transform="matrix(0.0666667 0 0 0.0666667 2.93354 -288.333)"
     d="M 4572.24,5479.06 L 4556.93,5452.53 L 4566.63,5448.92 L 4580.22,5472.47 L 4572.24,5479.06 Z "
     id="path126" />
  <path
     stroke="none"
     fill="#000000"
     transform="matrix(0.0666667 0 0 0.0666667 2.93354 -288.333)"
     d="M 4611.59,5446.54 L 4604.77,5434.72 L 4614.47,5431.11 L 4619.57,5439.94 L 4611.59,5446.54 Z "
     id="path128" />
  <path
     stroke="none"
     fill="#000000"
     transform="matrix(0.0666667 0 0 0.0666667 2.93354 -288.333)"
     d="M 4432.51,5085.99 L 4469.99,5052.57 L 4652.14,5178.38 L 4651.92,5184.4 L 4646.81,5187.61 L 4432.51,5085.99 Z "
     id="path130" />
  <g
     aria-label="OBn"
     transform="matrix(0.0666667,0,0,0.0666667,322.248,99.9892)"
     style="font-style:normal;font-weight:normal;font-size:160px;font-family:Arial;fill:#000000;stroke:none"
     id="text132">
    <path
       d="m 7.734375,-55.78125 q 0,-28.515625 15.3125,-44.60938 15.3125,-16.17187 39.53125,-16.17187 15.859375,0 28.59375,7.57812 12.734375,7.57813 19.375005,21.17188 6.71875,13.515625 6.71875,30.703125 0,17.421875 -7.03125,31.171875 -7.03125,13.75 -19.92188,20.859375 -12.890625,7.03125 -27.8125,7.03125 -16.171875,0 -28.90625,-7.8125 -12.734375,-7.8125 -19.296875,-21.328125 -6.5625,-13.515625 -6.5625,-28.59375 z m 15.625,0.234375 q 0,20.703125 11.09375,32.65625 11.171875,11.875 27.96875,11.875 17.109375,0 28.125,-12.03125 11.093755,-12.03125 11.093755,-34.140625 0,-13.984375 -4.76563,-24.375 -4.6875,-10.46875 -13.828125,-16.171875 -9.0625,-5.781255 -20.390625,-5.781255 -16.09375,0 -27.734375,11.093755 -11.5625,11.015625 -11.5625,36.875 z"
       style="font-style:normal;font-weight:normal;font-size:160px;font-family:Arial;fill:#000000;stroke:none"
       id="path1174"
       inkscape:connector-curvature="0" />
    <path
       d="m 136.09375,0 v -114.53125 h 42.96875 q 13.125,0 21.01562,3.51562 7.96875,3.4375 12.42188,10.70313 4.53125,7.1875 4.53125,15.078125 0,7.34375 -3.98438,13.828125 -3.98437,6.484375 -12.03125,10.46875 10.39063,3.046875 15.9375,10.390625 5.625,7.34375 5.625,17.34375 0,8.046875 -3.4375,15 -3.35937,6.875 -8.35937,10.625 -5,3.75 -12.57813,5.703125 Q 190.70312,0 179.76562,0 Z M 151.25,-66.40625 h 24.76562 q 10.07813,0 14.45313,-1.328125 5.78125,-1.71875 8.67187,-5.703125 2.96875,-3.984375 2.96875,-10 0,-5.703125 -2.73437,-10 -2.73438,-4.375 -7.8125,-5.9375 -5.07813,-1.64063 -17.42188,-1.64063 H 151.25 Z m 0,52.890625 h 28.51562 q 7.34375,0 10.3125,-0.546875 5.23438,-0.9375 8.75,-3.125 3.51563,-2.1875 5.78125,-6.328125 2.26563,-4.21875 2.26563,-9.6875 0,-6.40625 -3.28125,-11.09375 -3.28125,-4.765625 -9.14063,-6.640625 -5.78125,-1.953125 -16.71875,-1.953125 H 151.25 Z"
       style="font-style:normal;font-weight:normal;font-size:160px;font-family:Arial;fill:#000000;stroke:none"
       id="path1176"
       inkscape:connector-curvature="0" />
    <path
       d="m 241.79687,0 v -82.96875 h 12.65625 v 11.796875 q 9.14063,-13.671875 26.40625,-13.671875 7.5,0 13.75,2.734375 6.32813,2.65625 9.45313,7.03125 3.125,4.375 4.375,10.390625 0.78125,3.90625 0.78125,13.671875 V 0 h -14.0625 v -50.46875 q 0,-8.59375 -1.64063,-12.8125 -1.64062,-4.296875 -5.85937,-6.796875 -4.14063,-2.578125 -9.76563,-2.578125 -8.98437,0 -15.54687,5.703125 -6.48438,5.703125 -6.48438,21.640625 V 0 Z"
       style="font-style:normal;font-weight:normal;font-size:160px;font-family:Arial;fill:#000000;stroke:none"
       id="path1178"
       inkscape:connector-curvature="0" />
  </g>
  <path
     stroke="none"
     fill="#000000"
     transform="matrix(0.0666667 0 0 0.0666667 2.93354 -288.333)"
     d="M 4875.76,5683.5 L 4828.14,5683.5 L 4846.51,5533.61 L 4851.95,5530.86 L 4857.39,5533.61 L 4875.76,5683.5 Z "
     id="path134" />
  <g
     aria-label="BnO"
     transform="matrix(0.0666667,0,0,0.0666667,269.195,61.4934)"
     style="font-style:normal;font-weight:normal;font-size:160px;font-family:Arial;fill:#000000;stroke:none"
     id="text136">
    <path
       d="M 11.71875,0 V -114.53125 H 54.6875 q 13.125,0 21.015625,3.51562 7.96875,3.4375 12.421875,10.70313 4.53125,7.1875 4.53125,15.078125 0,7.34375 -3.984375,13.828125 -3.984375,6.484375 -12.03125,10.46875 10.390625,3.046875 15.9375,10.390625 5.625,7.34375 5.625,17.34375 0,8.046875 -3.4375,15 -3.359375,6.875 -8.359375,10.625 -5,3.75 -12.578125,5.703125 Q 66.328125,0 55.390625,0 Z M 26.875,-66.40625 h 24.765625 q 10.078125,0 14.453125,-1.328125 5.78125,-1.71875 8.671875,-5.703125 2.96875,-3.984375 2.96875,-10 0,-5.703125 -2.734375,-10 -2.734375,-4.375 -7.8125,-5.9375 -5.078125,-1.64063 -17.421875,-1.64063 H 26.875 Z m 0,52.890625 h 28.515625 q 7.34375,0 10.3125,-0.546875 5.234375,-0.9375 8.75,-3.125 3.515625,-2.1875 5.78125,-6.328125 2.265625,-4.21875 2.265625,-9.6875 0,-6.40625 -3.28125,-11.09375 -3.28125,-4.765625 -9.140625,-6.640625 -5.78125,-1.953125 -16.71875,-1.953125 H 26.875 Z"
       style="font-style:normal;font-weight:normal;font-size:160px;font-family:Arial;fill:#000000;stroke:none"
       id="path1181"
       inkscape:connector-curvature="0" />
    <path
       d="m 117.42188,0 v -82.96875 h 12.65624 v 11.796875 q 9.14063,-13.671875 26.40625,-13.671875 7.5,0 13.75,2.734375 6.32813,2.65625 9.45313,7.03125 3.125,4.375 4.375,10.390625 0.78125,3.90625 0.78125,13.671875 V 0 h -14.0625 v -50.46875 q 0,-8.59375 -1.64063,-12.8125 -1.64062,-4.296875 -5.85937,-6.796875 -4.14063,-2.578125 -9.76563,-2.578125 -8.98437,0 -15.54687,5.703125 -6.48438,5.703125 -6.48438,21.640625 V 0 Z"
       style="font-style:normal;font-weight:normal;font-size:160px;font-family:Arial;fill:#000000;stroke:none"
       id="path1183"
       inkscape:connector-curvature="0" />
    <path
       d="m 203.67187,-55.78125 q 0,-28.515625 15.3125,-44.60938 15.3125,-16.17187 39.53125,-16.17187 15.85938,0 28.59375,7.57812 12.73438,7.57813 19.375,21.17188 6.71875,13.515625 6.71875,30.703125 0,17.421875 -7.03125,31.171875 -7.03125,13.75 -19.92187,20.859375 -12.89063,7.03125 -27.8125,7.03125 -16.17188,0 -28.90625,-7.8125 -12.73438,-7.8125 -19.29688,-21.328125 -6.5625,-13.515625 -6.5625,-28.59375 z m 15.625,0.234375 q 0,20.703125 11.09375,32.65625 11.17188,11.875 27.96875,11.875 17.10938,0 28.125,-12.03125 11.09375,-12.03125 11.09375,-34.140625 0,-13.984375 -4.76562,-24.375 -4.6875,-10.46875 -13.82813,-16.171875 -9.0625,-5.781255 -20.39062,-5.781255 -16.09375,0 -27.73438,11.093755 -11.5625,11.015625 -11.5625,36.875 z"
       style="font-style:normal;font-weight:normal;font-size:160px;font-family:Arial;fill:#000000;stroke:none"
       id="path1185"
       inkscape:connector-curvature="0" />
  </g>
  <path
     stroke="none"
     fill="#000000"
     transform="matrix(0.0666667 0 0 0.0666667 2.93354 -288.333)"
     d="M 4323.51,5148.92 L 4318.41,5140.08 L 4469.99,5052.57 L 4432.51,5085.99 L 4323.51,5148.92 Z "
     id="path138" />
  <path
     stroke="#000000"
     stroke-width="10"
     fill="none"
     transform="matrix(0.0666667 0 0 0.0666667 2.93354 -288.333)"
     d="M 5879.04,4749.47 L 5957.16,4749.47 "
     id="path140" />
  <path
     stroke="#000000"
     stroke-width="10"
     fill="none"
     transform="matrix(0.0666667 0 0 0.0666667 2.93354 -288.333)"
     d="M 5957.16,4749.47 L 5957.16,5824.69 "
     id="path142" />
  <path
     stroke="#000000"
     stroke-width="10"
     fill="none"
     transform="matrix(0.0666667 0 0 0.0666667 2.93354 -288.333)"
     d="M 5957.16,5824.69 L 5879.04,5824.69 "
     id="path144" />
  <path
     stroke="#000000"
     stroke-width="10"
     fill="none"
     transform="matrix(0.0666667 0 0 0.0666667 2.93354 -288.333)"
     d="M 3986.55,5824.69 L 3908.44,5824.69 "
     id="path146" />
  <path
     stroke="#000000"
     stroke-width="10"
     fill="none"
     transform="matrix(0.0666667 0 0 0.0666667 2.93354 -288.333)"
     d="M 3908.44,5824.69 L 3908.44,4749.47 "
     id="path148" />
  <path
     stroke="#000000"
     stroke-width="10"
     fill="none"
     transform="matrix(0.0666667 0 0 0.0666667 2.93354 -288.333)"
     d="M 3908.44,4749.47 L 3986.55,4749.47 "
     id="path150" />
  <path
     stroke="none"
     fill="#000000"
     transform="matrix(0.0666667 0 0 0.0666667 2.93354 -288.333)"
     d="M 5383.98,5064.21 L 5383.98,5074.42 L 5332.09,5074.42 L 5332.09,5064.21 L 5383.98,5064.21 Z "
     id="path152" />
  <path
     stroke="#000000"
     stroke-width="10"
     fill="none"
     transform="matrix(0.0666667 0 0 0.0666667 2.93354 -288.333)"
     d="M 5051.98,5184.4 C 5056.36,5191.99 5065.46,5194.94 5072.3,5191 C 5079.14,5187.05 5081.13,5177.69 5076.75,5170.1 C 5072.37,5162.51 5074.36,5153.15 5081.2,5149.2 C 5088.03,5145.25 5097.14,5148.21 5101.52,5155.8 C 5105.9,5163.38 5115.01,5166.34 5121.84,5162.39 C 5128.68,5158.45 5130.67,5149.08 5126.29,5141.49 C 5121.91,5133.91 5123.91,5124.54 5130.74,5120.6 C 5137.58,5116.65 5146.68,5119.6 5151.06,5127.19 C 5155.45,5134.78 5164.55,5137.74 5171.39,5133.79 C 5178.22,5129.84 5180.22,5120.48 5175.84,5112.89 "
     id="path154" />
  <g
     aria-label="Zr"
     transform="matrix(0.0666667,0,0,0.0666667,363.332,53.8209)"
     style="font-style:normal;font-weight:normal;font-size:160px;font-family:Arial;fill:#009e73;stroke:none"
     id="text156">
    <path
       d="M 3.203125,0 V -14.0625 L 61.875,-87.421875 q 6.25,-7.8125 11.875,-13.593755 H 9.84375 v -13.51562 H 91.875 v 13.51562 L 27.578125,-21.5625 20.625,-13.515625 H 93.75 V 0 Z"
       style="font-style:normal;font-weight:normal;font-size:160px;font-family:Arial;fill:#009e73;stroke:none"
       id="path1188"
       inkscape:connector-curvature="0" />
    <path
       d="m 108.20313,0 v -82.96875 h 12.65625 v 12.578125 q 4.84375,-8.828125 8.90624,-11.640625 4.14063,-2.8125 9.0625,-2.8125 7.10938,0 14.45313,4.53125 l -4.84375,13.046875 q -5.15625,-3.046875 -10.3125,-3.046875 -4.60938,0 -8.28125,2.8125 -3.67187,2.734375 -5.23437,7.65625 -2.34375,7.5 -2.34375,16.40625 V 0 Z"
       style="font-style:normal;font-weight:normal;font-size:160px;font-family:Arial;fill:#009e73;stroke:none"
       id="path1190"
       inkscape:connector-curvature="0" />
  </g>
  <g
     aria-label="O"
     transform="matrix(0.0666667,0,0,0.0666667,348.873,53.821)"
     style="font-style:normal;font-weight:normal;font-size:160px;font-family:Arial;fill:#000000;stroke:none"
     id="text158">
    <path
       d="m 7.734375,-55.78125 q 0,-28.515625 15.3125,-44.60938 15.3125,-16.17187 39.53125,-16.17187 15.859375,0 28.59375,7.57812 12.734375,7.57813 19.375005,21.17188 6.71875,13.515625 6.71875,30.703125 0,17.421875 -7.03125,31.171875 -7.03125,13.75 -19.92188,20.859375 -12.890625,7.03125 -27.8125,7.03125 -16.171875,0 -28.90625,-7.8125 -12.734375,-7.8125 -19.296875,-21.328125 -6.5625,-13.515625 -6.5625,-28.59375 z m 15.625,0.234375 q 0,20.703125 11.09375,32.65625 11.171875,11.875 27.96875,11.875 17.109375,0 28.125,-12.03125 11.093755,-12.03125 11.093755,-34.140625 0,-13.984375 -4.76563,-24.375 -4.6875,-10.46875 -13.828125,-16.171875 -9.0625,-5.781255 -20.390625,-5.781255 -16.09375,0 -27.734375,11.093755 -11.5625,11.015625 -11.5625,36.875 z"
       style="font-style:normal;font-weight:normal;font-size:160px;font-family:Arial;fill:#000000;stroke:none"
       id="path1193"
       inkscape:connector-curvature="0" />
  </g>
  <g
     aria-label="Cp"
     transform="matrix(0.0666667,0,0,0.0666667,379.859,53.8209)"
     style="font-style:normal;font-weight:normal;font-size:160px;font-family:Arial;fill:#009e73;stroke:none"
     id="text160">
    <path
       d="m 94.0625,-40.15625 15.15625,3.828125 Q 104.45313,-17.65625 92.03125,-7.8125 79.6875,1.953125 61.796875,1.953125 q -18.515625,0 -30.15625,-7.5 -11.5625,-7.578125 -17.65625,-21.875 Q 7.96875,-41.71875 7.96875,-58.125 q 0,-17.890625 6.796875,-31.171875 6.875,-13.359375 19.453125,-20.234375 12.65625,-6.95313 27.8125,-6.95313 17.1875,0 28.90625,8.75 11.71875,8.750005 16.32813,24.60938 l -14.92188,3.515625 q -3.984375,-12.5 -11.5625,-18.203125 -7.578125,-5.70313 -19.0625,-5.70313 -13.203125,0 -22.109375,6.32813 -8.828125,6.328125 -12.421875,17.03125 -3.59375,10.625 -3.59375,21.953125 0,14.609375 4.21875,25.546875 4.296875,10.859375 13.28125,16.25 8.984375,5.390625 19.453125,5.390625 12.734375,0 21.5625,-7.34375 8.828125,-7.34375 11.953125,-21.796875 z"
       style="font-style:normal;font-weight:normal;font-size:160px;font-family:Arial;fill:#009e73;stroke:none"
       id="path1196"
       inkscape:connector-curvature="0" />
    <path
       d="M 126.17188,31.796875 V -82.96875 h 12.81249 v 10.78125 q 4.53125,-6.328125 10.23438,-9.453125 5.70312,-3.203125 13.82812,-3.203125 10.625,0 18.75,5.46875 8.125,5.46875 12.26563,15.46875 4.14062,9.921875 4.14062,21.796875 0,12.734375 -4.60937,22.96875 -4.53125,10.15625 -13.28125,15.625 Q 171.64062,1.875 162.03125,1.875 155,1.875 149.375,-1.09375 q -5.54688,-2.96875 -9.14063,-7.5 v 40.390625 z m 12.73437,-72.8125 q 0,16.015625 6.48437,23.671875 6.48438,7.65625 15.70313,7.65625 9.375,0 16.01562,-7.890625 6.71875,-7.96875 6.71875,-24.609375 0,-15.859375 -6.5625,-23.75 -6.48437,-7.890625 -15.54687,-7.890625 -8.98438,0 -15.9375,8.4375 -6.875,8.359375 -6.875,24.375 z"
       style="font-style:normal;font-weight:normal;font-size:160px;font-family:Arial;fill:#009e73;stroke:none"
       id="path1198"
       inkscape:connector-curvature="0" />
  </g>
  <path
     stroke="none"
     fill="#009e73"
     transform="matrix(0.0666667 0 0 0.0666667 2.93354 -288.333)"
     d="M 5636.89,5064.21 L 5636.89,5074.42 L 5582.98,5074.42 L 5582.98,5064.21 L 5636.89,5064.21 Z "
     id="path162" />
  <g
     aria-label="Cl"
     transform="matrix(0.0666667,0,0,0.0666667,372.187,67.1099)"
     style="font-style:normal;font-weight:normal;font-size:160px;font-family:Arial;fill:#009e73;stroke:none"
     id="text164">
    <path
       d="m 94.0625,-40.15625 15.15625,3.828125 Q 104.45313,-17.65625 92.03125,-7.8125 79.6875,1.953125 61.796875,1.953125 q -18.515625,0 -30.15625,-7.5 -11.5625,-7.578125 -17.65625,-21.875 Q 7.96875,-41.71875 7.96875,-58.125 q 0,-17.890625 6.796875,-31.171875 6.875,-13.359375 19.453125,-20.234375 12.65625,-6.95313 27.8125,-6.95313 17.1875,0 28.90625,8.75 11.71875,8.750005 16.32813,24.60938 l -14.92188,3.515625 q -3.984375,-12.5 -11.5625,-18.203125 -7.578125,-5.70313 -19.0625,-5.70313 -13.203125,0 -22.109375,6.32813 -8.828125,6.328125 -12.421875,17.03125 -3.59375,10.625 -3.59375,21.953125 0,14.609375 4.21875,25.546875 4.296875,10.859375 13.28125,16.25 8.984375,5.390625 19.453125,5.390625 12.734375,0 21.5625,-7.34375 8.828125,-7.34375 11.953125,-21.796875 z"
       style="font-style:normal;font-weight:normal;font-size:160px;font-family:Arial;fill:#009e73;stroke:none"
       id="path1201"
       inkscape:connector-curvature="0" />
    <path
       d="m 125.85938,0 v -114.53125 h 14.06249 V 0 Z"
       style="font-style:normal;font-weight:normal;font-size:160px;font-family:Arial;fill:#009e73;stroke:none"
       id="path1203"
       inkscape:connector-curvature="0" />
  </g>
  <path
     stroke="none"
     fill="#009e73"
     transform="matrix(0.0666667 0 0 0.0666667 2.93354 -288.333)"
     d="M 5562.42,5199.29 L 5553.58,5204.39 L 5528.97,5161.76 L 5537.81,5156.66 L 5562.42,5199.29 Z "
     id="path166" />
  <g
     aria-label="Cp"
     transform="matrix(0.0666667,0,0,0.0666667,368.486,38.9989)"
     style="font-style:normal;font-weight:normal;font-size:160px;font-family:Arial;fill:#009e73;stroke:none"
     id="text168">
    <path
       d="m 94.0625,-40.15625 15.15625,3.828125 Q 104.45313,-17.65625 92.03125,-7.8125 79.6875,1.953125 61.796875,1.953125 q -18.515625,0 -30.15625,-7.5 -11.5625,-7.578125 -17.65625,-21.875 Q 7.96875,-41.71875 7.96875,-58.125 q 0,-17.890625 6.796875,-31.171875 6.875,-13.359375 19.453125,-20.234375 12.65625,-6.95313 27.8125,-6.95313 17.1875,0 28.90625,8.75 11.71875,8.750005 16.32813,24.60938 l -14.92188,3.515625 q -3.984375,-12.5 -11.5625,-18.203125 -7.578125,-5.70313 -19.0625,-5.70313 -13.203125,0 -22.109375,6.32813 -8.828125,6.328125 -12.421875,17.03125 -3.59375,10.625 -3.59375,21.953125 0,14.609375 4.21875,25.546875 4.296875,10.859375 13.28125,16.25 8.984375,5.390625 19.453125,5.390625 12.734375,0 21.5625,-7.34375 8.828125,-7.34375 11.953125,-21.796875 z"
       style="font-style:normal;font-weight:normal;font-size:160px;font-family:Arial;fill:#009e73;stroke:none"
       id="path1206"
       inkscape:connector-curvature="0" />
    <path
       d="M 126.17188,31.796875 V -82.96875 h 12.81249 v 10.78125 q 4.53125,-6.328125 10.23438,-9.453125 5.70312,-3.203125 13.82812,-3.203125 10.625,0 18.75,5.46875 8.125,5.46875 12.26563,15.46875 4.14062,9.921875 4.14062,21.796875 0,12.734375 -4.60937,22.96875 -4.53125,10.15625 -13.28125,15.625 Q 171.64062,1.875 162.03125,1.875 155,1.875 149.375,-1.09375 q -5.54688,-2.96875 -9.14063,-7.5 v 40.390625 z m 12.73437,-72.8125 q 0,16.015625 6.48437,23.671875 6.48438,7.65625 15.70313,7.65625 9.375,0 16.01562,-7.890625 6.71875,-7.96875 6.71875,-24.609375 0,-15.859375 -6.5625,-23.75 -6.48437,-7.890625 -15.54687,-7.890625 -8.98438,0 -15.9375,8.4375 -6.875,8.359375 -6.875,24.375 z"
       style="font-style:normal;font-weight:normal;font-size:160px;font-family:Arial;fill:#009e73;stroke:none"
       id="path1208"
       inkscape:connector-curvature="0" />
  </g>
  <path
     stroke="none"
     fill="#009e73"
     transform="matrix(0.0666667 0 0 0.0666667 2.93354 -288.333)"
     d="M 5512.63,4933.37 L 5522.48,4936.01 L 5506.68,4995 L 5496.82,4992.36 L 5512.63,4933.37 Z "
     id="path170" />
  <path
     stroke="none"
     fill="#000000"
     transform="matrix(0.0666667 0 0 0.0666667 2.93354 -288.333)"
     d="M 7323.6,5280.09 L 6224.98,5280.09 L 6224.98,5270.09 L 7323.6,5270.09 Z "
     id="path172" />
  <path
     stroke="none"
     fill="#000000"
     transform="matrix(0.0666667 0 0 0.0666667 2.93354 -288.333)"
     d="M 7411.89,5275.09 C 7411.89,5275.09 7309.84,5301.6 7309.84,5301.6 C 7309.84,5301.6 7322.6,5286.69 7322.6,5275.09 C 7322.6,5263.05 7309.84,5247.58 7309.84,5247.58 C 7309.84,5247.58 7411.89,5275.09 7411.89,5275.09 C 7411.89,5275.09 7411.89,5275.09 7411.89,5275.09 "
     id="path174" />
  <path
     stroke="#000000"
     stroke-width="1"
     fill="none"
     transform="matrix(0.0666667 0 0 0.0666667 2.93354 -288.333)"
     d="M 7411.89,5275.09 C 7411.89,5275.09 7309.84,5301.6 7309.84,5301.6 C 7309.84,5301.6 7322.6,5286.69 7322.6,5275.09 C 7322.6,5263.05 7309.84,5247.58 7309.84,5247.58 C 7309.84,5247.58 7411.89,5275.09 7411.89,5275.09 C 7411.89,5275.09 7411.89,5275.09 7411.89,5275.09 "
     id="path176" />
  <path
     stroke="none"
     fill="#009e73"
     transform="matrix(0.0666667 0 0 0.0666667 2.93354 -288.333)"
     d="M 2238.98,5027.04 L 2248.25,5022.78 L 2261.62,5051.9 L 2252.14,5055.7 L 2238.98,5027.04 L 2238.98,5027.04 Z "
     id="path178" />
  <path
     stroke="none"
     fill="#009e73"
     transform="matrix(0.0666667 0 0 0.0666667 2.93354 -288.333)"
     d="M 2340.13,5222.86 L 2330.86,5227.12 L 2291.59,5141.6 L 2300.51,5136.58 L 2340.13,5222.86 L 2340.13,5222.86 Z "
     id="path180" />
  <path
     stroke="none"
     fill="#009e73"
     transform="matrix(0.0666667 0 0 0.0666667 2.93354 -288.333)"
     d="M 2038.22,5088.29 L 2020.26,5097.78 L 2091.63,4983.67 L 2097.94,4992.81 L 2038.22,5088.29 Z "
     id="path182" />
  <path
     stroke="none"
     fill="#009e73"
     transform="matrix(0.0666667 0 0 0.0666667 2.93354 -288.333)"
     d="M 2255.77,5080.43 L 2265.58,5128.55 L 2020.26,5097.78 L 2038.22,5088.29 L 2255.77,5080.43 Z "
     id="path184" />
  <path
     stroke="none"
     fill="#009e73"
     transform="matrix(0.0666667 0 0 0.0666667 2.93354 -288.333)"
     d="M 2457.3,5003.29 L 2477.66,5004.93 L 2265.58,5128.55 L 2255.77,5080.43 L 2457.3,5003.29 Z "
     id="path186" />
  <path
     stroke="none"
     fill="#009e73"
     transform="matrix(0.0666667 0 0 0.0666667 2.93354 -288.333)"
     d="M 2364.78,4939.58 L 2367.02,4928.73 L 2477.66,5004.93 L 2457.3,5003.29 L 2364.78,4939.58 Z "
     id="path188" />
  <path
     stroke="none"
     fill="#009e73"
     transform="matrix(0.0666667 0 0 0.0666667 2.93354 -288.333)"
     d="M 2367.02,4928.73 L 2364.78,4939.58 L 2097.94,4992.81 L 2091.63,4983.67 L 2367.02,4928.73 Z "
     id="path190" />
  <path
     stroke="#009e73"
     stroke-width="10"
     fill="none"
     transform="matrix(0.0666667 0 0 0.0666667 2.93354 -288.333)"
     d="M 2251.52,5058.66 C 2330.38,5042.32 2389.99,5010.26 2385.54,4986.7 C 2380.47,4963.46 2312.5,4957.4 2233.87,4973.66 C 2154.62,4990.16 2094.63,5022.07 2099.54,5045.78 C 2104.22,5069.17 2172.57,5075.08 2251.52,5058.66 "
     id="path192" />
  <path
     stroke="none"
     fill="#009e73"
     transform="matrix(0.0666667 0 0 0.0666667 2.93354 -288.333)"
     d="M 2330.47,5683.9 L 2313,5639.58 L 2430.28,5606.11 L 2449.07,5609.05 L 2330.47,5683.9 Z "
     id="path194" />
  <path
     stroke="none"
     fill="#009e73"
     transform="matrix(0.0666667 0 0 0.0666667 2.93354 -288.333)"
     d="M 2047.25,5541.51 L 2093.22,5529.09 L 2313,5639.58 L 2330.47,5683.9 L 2047.25,5541.51 Z "
     id="path196" />
  <path
     stroke="none"
     fill="#009e73"
     transform="matrix(0.0666667 0 0 0.0666667 2.93354 -288.333)"
     d="M 2029.6,5400.46 L 2043.9,5413.63 L 2093.22,5529.09 L 2047.25,5541.51 L 2029.6,5400.46 Z "
     id="path198" />
  <path
     stroke="none"
     fill="#009e73"
     transform="matrix(0.0666667 0 0 0.0666667 2.93354 -288.333)"
     d="M 2043.9,5413.63 L 2029.6,5400.46 L 2248.56,5443.06 L 2242.39,5452.25 L 2043.9,5413.63 L 2043.9,5413.63 Z "
     id="path200" />
  <path
     stroke="none"
     fill="#009e73"
     transform="matrix(0.0666667 0 0 0.0666667 2.93354 -288.333)"
     d="M 2449.07,5609.05 L 2430.28,5606.11 L 2294.32,5486.5 L 2300.06,5477.96 L 2449.07,5609.05 L 2449.07,5609.05 Z "
     id="path202" />
  <path
     stroke="#009e73"
     stroke-width="10"
     fill="none"
     transform="matrix(0.0666667 0 0 0.0666667 2.93354 -288.333)"
     d="M 2206.41,5568.44 C 2134.91,5531.77 2084.74,5481.75 2097.32,5456.97 C 2109.28,5433.8 2178.64,5445.08 2250.36,5480.75 C 2323.86,5519.11 2372.88,5567.36 2360.37,5592.91 C 2348.71,5615.85 2279.36,5604.65 2206.41,5568.44 "
     id="path204" />
  <g
     aria-label="Zr"
     transform="matrix(0.0666667,0,0,0.0666667,156.256,69.8834)"
     style="font-style:normal;font-weight:normal;font-size:159px;font-family:Arial;fill:#009e73;stroke:none"
     id="text206">
    <path
       d="M 3.1831055,0 V -13.974609 L 61.488281,-86.875488 q 6.210938,-7.763672 11.800781,-13.508792 H 9.7822266 v -13.43115 H 91.300781 v 13.43115 l -63.895019,78.956546 -6.909668,7.996582 H 93.164062 V 0 Z"
       style="font-style:normal;font-weight:normal;font-size:159px;font-family:Arial;fill:#009e73;stroke:none"
       id="path1211"
       inkscape:connector-curvature="0" />
    <path
       d="M 107.52686,0 V -82.450195 H 120.104 v 12.499511 q 4.81348,-8.772949 8.85059,-11.567871 4.11475,-2.794922 9.00586,-2.794922 7.06494,0 14.36279,4.50293 l -4.81347,12.965332 q -5.12403,-3.027832 -10.24805,-3.027832 -4.58057,0 -8.22949,2.794922 -3.64893,2.717285 -5.20166,7.608398 -2.32911,7.453125 -2.32911,16.303711 V 0 Z"
       style="font-style:normal;font-weight:normal;font-size:159px;font-family:Arial;fill:#009e73;stroke:none"
       id="path1213"
       inkscape:connector-curvature="0" />
  </g>
  <g
     aria-label="Cl"
     transform="matrix(0.0666667,0,0,0.0666667,173.718,62.2119)"
     style="font-style:normal;font-weight:normal;font-size:159px;font-family:Arial;fill:#009e73;stroke:none"
     id="text208">
    <path
       d="m 93.474609,-39.905273 15.061521,3.804199 q -4.73584,18.555176 -17.080075,28.3374021 -12.266602,9.7045899 -30.04541,9.7045899 -18.399903,0 -29.967774,-7.453125 -11.490234,-7.530762 -17.545898,-21.738281 -5.9780277,-14.20752 -5.9780277,-30.511231 0,-17.778808 6.7543947,-30.977051 6.832031,-13.27588 19.331543,-20.10791 12.577148,-6.90967 27.638672,-6.90967 17.080078,0 28.725586,8.69531 11.645509,8.695317 16.226069,24.455571 l -14.828608,3.493653 q -3.959473,-12.421875 -11.490235,-18.089356 -7.530762,-5.667478 -18.943359,-5.667478 -13.120606,0 -21.971192,6.288572 -8.772949,6.288574 -12.344238,16.924805 -3.571289,10.558593 -3.571289,21.815918 0,14.518066 4.192383,25.387207 4.270019,10.791503 13.198242,16.148437 8.928223,5.356934 19.331543,5.356934 12.654785,0 21.427734,-7.297852 8.77295,-7.297851 11.878418,-21.660644 z"
       style="font-style:normal;font-weight:normal;font-size:159px;font-family:Arial;fill:#009e73;stroke:none"
       id="path1216"
       inkscape:connector-curvature="0" />
    <path
       d="m 125.07275,0 v -113.81543 h 13.97461 V 0 Z"
       style="font-style:normal;font-weight:normal;font-size:159px;font-family:Arial;fill:#009e73;stroke:none"
       id="path1218"
       inkscape:connector-curvature="0" />
  </g>
  <path
     stroke="none"
     fill="#009e73"
     transform="matrix(0.0666667 0 0 0.0666667 2.93354 -288.333)"
     d="M 2539.7,5215.57 L 2553.23,5244.29 L 2543.99,5248.64 L 2530.47,5219.92 L 2539.7,5215.57 Z "
     id="path210" />
  <path
     stroke="none"
     fill="#009e73"
     transform="matrix(0.0666667 0 0 0.0666667 2.93354 -288.333)"
     d="M 2468.96,5248.89 L 2482.49,5277.61 L 2473.26,5281.96 L 2459.73,5253.24 L 2468.96,5248.89 Z "
     id="path212" />
  <g
     aria-label="H"
     transform="matrix(0.0666667,0,0,0.0666667,173.718,77.555)"
     style="font-style:normal;font-weight:normal;font-size:159px;font-family:Arial;fill:#009e73;stroke:none"
     id="text214">
    <path
       d="m 12.732422,0 v -113.81543 h 15.061523 v 46.737305 h 59.15918 V -113.81543 H 102.01465 V 0 H 86.953125 V -53.646973 H 27.793945 V 0 Z"
       style="font-style:normal;font-weight:normal;font-size:159px;font-family:Arial;fill:#009e73;stroke:none"
       id="path1221"
       inkscape:connector-curvature="0" />
  </g>
  <path
     stroke="none"
     fill="#009e73"
     transform="matrix(0.0666667 0 0 0.0666667 2.93354 -288.333)"
     d="M 2546.67,5374.13 L 2533.14,5402.85 L 2453.34,5365.26 L 2466.87,5336.54 L 2546.67,5374.13 Z "
     id="path216" />
  <path
     stroke="none"
     fill="#009e73"
     transform="matrix(0.0666667 0 0 0.0666667 2.93354 -288.333)"
     d="M 2230.13,5535.46 L 2221.66,5529.77 L 2305.14,5405.44 L 2313.61,5411.13 L 2230.13,5535.46 Z "
     id="path218" />
  <g
     aria-label="+"
     transform="matrix(0.0666667,0,0,0.0666667,116.175,68.5899)"
     style="font-style:normal;font-weight:normal;font-size:159px;font-family:Arial;fill:#000000;stroke:none"
     id="text220">
    <path
       d="M 39.827637,-18.399902 V -49.609863 H 8.8505859 V -62.652832 H 39.827637 v -30.977051 h 13.198242 v 30.977051 H 84.00293 v 13.042969 H 53.025879 v 31.209961 z"
       style="font-style:normal;font-weight:normal;font-size:159px;font-family:Arial;fill:#000000;stroke:none"
       id="path1224"
       inkscape:connector-curvature="0" />
  </g>
  <path
     stroke="none"
     fill="#e69f00"
     transform="matrix(0.0666667 0 0 0.0666667 2.93354 -288.333)"
     d="M 9027.6,4760 L 7433.13,4760 L 7433.13,4750 L 9027.6,4750 Z "
     id="path222" />
  <path
     stroke="none"
     fill="#e69f00"
     transform="matrix(0.0666667 0 0 0.0666667 2.93354 -288.333)"
     d="M 9022.6,5002.5 L 9022.6,4755 L 9032.6,4755 L 9032.6,5002.5 Z "
     id="path224" />
  <path
     stroke="none"
     fill="#e69f00"
     transform="matrix(0.0666667 0 0 0.0666667 2.93354 -288.333)"
     d="M 8998.46,4998.75 A 29.14,29.14 0 1 0 9056.74,4998.75A 29.14,29.14 0 1 0 8998.46,4998.75Z "
     id="path226" />
  <g
     aria-label="H"
     transform="matrix(0.0666667,0,0,0.0666667,590.669,53.821)"
     style="font-style:normal;font-weight:normal;font-size:160px;font-family:Arial;fill:#009e73;stroke:none"
     id="text238">
    <path
       d="M 12.8125,0 V -114.53125 H 27.96875 V -67.5 H 87.5 v -47.03125 h 15.15625 V 0 H 87.5 V -53.984375 H 27.96875 V 0 Z"
       style="font-style:normal;font-weight:normal;font-size:160px;font-family:Arial;fill:#009e73;stroke:none"
       id="path1251"
       inkscape:connector-curvature="0" />
  </g>
  <path
     stroke="none"
     fill="#009e73"
     transform="matrix(0.0666667 0 0 0.0666667 2.93354 -288.333)"
     d="M 8788.75,5112.53 L 8793.85,5121.37 L 8679.58,5187.35 L 8674.48,5184.4 L 8674.48,5178.51 L 8788.75,5112.53 Z "
     id="path240" />
  <g
     aria-label="H"
     transform="matrix(0.0666667,0,0,0.0666667,335.88,46.1485)"
     style="font-style:normal;font-weight:normal;font-size:160px;font-family:Arial;fill:#009e73;stroke:none"
     id="text242">
    <path
       d="M 12.8125,0 V -114.53125 H 27.96875 V -67.5 H 87.5 v -47.03125 h 15.15625 V 0 H 87.5 V -53.984375 H 27.96875 V 0 Z"
       style="font-style:normal;font-weight:normal;font-size:160px;font-family:Arial;fill:#009e73;stroke:none"
       id="path1254"
       inkscape:connector-curvature="0" />
  </g>
  <path
     stroke="none"
     fill="#009e73"
     transform="matrix(0.0666667 0 0 0.0666667 2.93354 -288.333)"
     d="M 5046.87,5043.23 L 5057.08,5043.23 L 5057.08,5184.4 L 5051.98,5184.4 L 5046.87,5175.56 L 5046.87,5043.23 Z "
     id="path244" />
  <g
     aria-label="-Cp"
     transform="matrix(0.0666667,0,0,0.0666667,421.932,76.6667)"
     style="font-style:normal;font-weight:normal;font-size:160px;font-family:Arial;fill:#000000;stroke:none"
     id="text246">
    <path
       d="M 5.078125,-34.375 V -48.515625 H 48.28125 V -34.375 Z"
       style="font-style:normal;font-weight:normal;font-size:160px;font-family:Arial;fill:#000000;stroke:none"
       id="path1257"
       inkscape:connector-curvature="0" />
    <path
       d="m 147.5,-40.15625 15.15625,3.828125 q -4.76563,18.671875 -17.1875,28.515625 -12.34375,9.765625 -30.23437,9.765625 -18.51563,0 -30.156255,-7.5 -11.5625,-7.578125 -17.65625,-21.875 Q 61.40625,-41.71875 61.40625,-58.125 q 0,-17.890625 6.796875,-31.171875 6.875,-13.359375 19.453125,-20.234375 12.65625,-6.95313 27.8125,-6.95313 17.1875,0 28.90625,8.75 11.71875,8.750005 16.32812,24.60938 l -14.92187,3.515625 q -3.98438,-12.5 -11.5625,-18.203125 -7.57812,-5.70313 -19.0625,-5.70313 -13.20312,0 -22.109375,6.32813 -8.828125,6.328125 -12.421875,17.03125 -3.59375,10.625 -3.59375,21.953125 0,14.609375 4.21875,25.546875 4.296875,10.859375 13.28125,16.25 8.98438,5.390625 19.45313,5.390625 12.73437,0 21.56249,-7.34375 8.82813,-7.34375 11.95313,-21.796875 z"
       style="font-style:normal;font-weight:normal;font-size:160px;font-family:Arial;fill:#000000;stroke:none"
       id="path1259"
       inkscape:connector-curvature="0" />
    <path
       d="M 179.60937,31.796875 V -82.96875 h 12.8125 v 10.78125 q 4.53125,-6.328125 10.23438,-9.453125 5.70312,-3.203125 13.82812,-3.203125 10.625,0 18.75,5.46875 8.125,5.46875 12.26563,15.46875 4.14062,9.921875 4.14062,21.796875 0,12.734375 -4.60937,22.96875 Q 242.5,-8.984375 233.75,-3.515625 225.07812,1.875 215.46875,1.875 q -7.03125,0 -12.65625,-2.96875 -5.54688,-2.96875 -9.14063,-7.5 v 40.390625 z m 12.73438,-72.8125 q 0,16.015625 6.48437,23.671875 6.48438,7.65625 15.70313,7.65625 9.375,0 16.01562,-7.890625 6.71875,-7.96875 6.71875,-24.609375 0,-15.859375 -6.5625,-23.75 -6.48437,-7.890625 -15.54687,-7.890625 -8.98438,0 -15.9375,8.4375 -6.875,8.359375 -6.875,24.375 z"
       style="font-style:normal;font-weight:normal;font-size:160px;font-family:Arial;fill:#000000;stroke:none"
       id="path1261"
       inkscape:connector-curvature="0" />
  </g>
  <g
     aria-label="2"
     transform="matrix(0.0666667,0,0,0.0666667,439.119,78.9333)"
     style="font-style:normal;font-weight:normal;font-size:120px;font-family:Arial;fill:#000000;stroke:none"
     id="text248">
    <path
       d="M 60.410156,-10.136719 V 0 H 3.6328125 Q 3.515625,-3.8085938 4.8632812,-7.3242187 7.03125,-13.125 11.777344,-18.75 q 4.804687,-5.625 13.828125,-13.007812 14.003906,-11.484375 18.925781,-18.164063 4.921875,-6.738281 4.921875,-12.714844 0,-6.269531 -4.511719,-10.546875 -4.453125,-4.335937 -11.660156,-4.335937 -7.617188,0 -12.1875,4.570312 -4.570313,4.570313 -4.628906,12.65625 L 5.625,-61.40625 Q 6.7382812,-73.535156 14.003906,-79.863281 21.269531,-86.25 33.515625,-86.25 q 12.363281,0 19.570312,6.855469 7.207032,6.855469 7.207032,16.992187 0,5.15625 -2.109375,10.136719 -2.109375,4.980469 -7.03125,10.488281 -4.863282,5.507813 -16.230469,15.117188 -9.492188,7.96875 -12.1875,10.839843 -2.695313,2.8125 -4.453125,5.683594 z"
       style="font-style:normal;font-weight:normal;font-size:120px;font-family:Arial;fill:#000000;stroke:none"
       id="path1264"
       inkscape:connector-curvature="0" />
  </g>
  <g
     aria-label="Zr(OH)Cl"
     transform="matrix(0.0666667,0,0,0.0666667,443.569,76.6667)"
     style="font-style:normal;font-weight:normal;font-size:160px;font-family:Arial;fill:#000000;stroke:none"
     id="text250">
    <path
       d="M 3.203125,0 V -14.0625 L 61.875,-87.421875 q 6.25,-7.8125 11.875,-13.593755 H 9.84375 v -13.51562 H 91.875 v 13.51562 L 27.578125,-21.5625 20.625,-13.515625 H 93.75 V 0 Z"
       style="font-style:normal;font-weight:normal;font-size:160px;font-family:Arial;fill:#000000;stroke:none"
       id="path1267"
       inkscape:connector-curvature="0" />
    <path
       d="m 108.20313,0 v -82.96875 h 12.65625 v 12.578125 q 4.84375,-8.828125 8.90624,-11.640625 4.14063,-2.8125 9.0625,-2.8125 7.10938,0 14.45313,4.53125 l -4.84375,13.046875 q -5.15625,-3.046875 -10.3125,-3.046875 -4.60938,0 -8.28125,2.8125 -3.67187,2.734375 -5.23437,7.65625 -2.34375,7.5 -2.34375,16.40625 V 0 Z"
       style="font-style:normal;font-weight:normal;font-size:160px;font-family:Arial;fill:#000000;stroke:none"
       id="path1269"
       inkscape:connector-curvature="0" />
    <path
       d="m 188.67187,33.671875 q -11.64062,-14.6875 -19.6875,-34.375 -8.04687,-19.6875 -8.04687,-40.78125 0,-18.59375 6.01562,-35.625 7.03125,-19.765625 21.71875,-39.375005 H 198.75 q -9.45313,16.25 -12.5,23.20313 -4.76563,10.78125 -7.5,22.5 -3.35938,14.609375 -3.35938,29.375 0,37.578125 23.35938,75.078125 z"
       style="font-style:normal;font-weight:normal;font-size:160px;font-family:Arial;fill:#000000;stroke:none"
       id="path1271"
       inkscape:connector-curvature="0" />
    <path
       d="m 212.42187,-55.78125 q 0,-28.515625 15.3125,-44.60938 15.3125,-16.17187 39.53125,-16.17187 15.85938,0 28.59375,7.57812 12.73438,7.57813 19.375,21.17188 6.71875,13.515625 6.71875,30.703125 0,17.421875 -7.03125,31.171875 -7.03125,13.75 -19.92187,20.859375 -12.89063,7.03125 -27.8125,7.03125 -16.17188,0 -28.90625,-7.8125 -12.73438,-7.8125 -19.29688,-21.328125 -6.5625,-13.515625 -6.5625,-28.59375 z m 15.625,0.234375 q 0,20.703125 11.09375,32.65625 11.17188,11.875 27.96875,11.875 17.10938,0 28.125,-12.03125 11.09375,-12.03125 11.09375,-34.140625 0,-13.984375 -4.76562,-24.375 -4.6875,-10.46875 -13.82813,-16.171875 -9.0625,-5.781255 -20.39062,-5.781255 -16.09375,0 -27.73438,11.093755 -11.5625,11.015625 -11.5625,36.875 z"
       style="font-style:normal;font-weight:normal;font-size:160px;font-family:Arial;fill:#000000;stroke:none"
       id="path1273"
       inkscape:connector-curvature="0" />
    <path
       d="m 341.875,0 v -114.53125 h 15.15625 V -67.5 h 59.53125 v -47.03125 h 15.15625 V 0 H 416.5625 V -53.984375 H 357.03125 V 0 Z"
       style="font-style:normal;font-weight:normal;font-size:160px;font-family:Arial;fill:#000000;stroke:none"
       id="path1275"
       inkscape:connector-curvature="0" />
    <path
       d="M 464.45312,33.671875 H 454.375 q 23.35937,-37.5 23.35937,-75.078125 0,-14.6875 -3.35937,-29.140625 -2.65625,-11.71875 -7.42188,-22.5 -3.04687,-7.031255 -12.57812,-23.437505 h 10.07812 q 14.6875,19.60938 21.71875,39.375005 6.01563,17.03125 6.01563,35.625 0,21.09375 -8.125,40.78125 -8.04688,19.6875 -19.60938,34.375 z"
       style="font-style:normal;font-weight:normal;font-size:160px;font-family:Arial;fill:#000000;stroke:none"
       id="path1277"
       inkscape:connector-curvature="0" />
    <path
       d="m 592.1875,-40.15625 15.15625,3.828125 q -4.76563,18.671875 -17.1875,28.515625 -12.34375,9.765625 -30.23438,9.765625 -18.51562,0 -30.15625,-7.5 -11.5625,-7.578125 -17.65625,-21.875 -6.01562,-14.296875 -6.01562,-30.703125 0,-17.890625 6.79687,-31.171875 6.875,-13.359375 19.45313,-20.234375 12.65625,-6.95313 27.8125,-6.95313 17.1875,0 28.90625,8.75 11.71875,8.750005 16.32812,24.60938 l -14.92187,3.515625 q -3.98438,-12.5 -11.5625,-18.203125 -7.57813,-5.70313 -19.0625,-5.70313 -13.20313,0 -22.10938,6.32813 -8.82812,6.328125 -12.42187,17.03125 -3.59375,10.625 -3.59375,21.953125 0,14.609375 4.21875,25.546875 4.29687,10.859375 13.28125,16.25 8.98437,5.390625 19.45312,5.390625 12.73438,0 21.5625,-7.34375 8.82813,-7.34375 11.95313,-21.796875 z"
       style="font-style:normal;font-weight:normal;font-size:160px;font-family:Arial;fill:#000000;stroke:none"
       id="path1279"
       inkscape:connector-curvature="0" />
    <path
       d="m 623.98437,0 v -114.53125 h 14.0625 V 0 Z"
       style="font-style:normal;font-weight:normal;font-size:160px;font-family:Arial;fill:#000000;stroke:none"
       id="path1281"
       inkscape:connector-curvature="0" />
  </g>
  <text
     x="0"
     y="0"
     transform="matrix(0.0666667,0,0,0.0666667,209.932,55.6667)"
     font-style="normal"
     font-weight="normal"
     font-size="160px"
     id="text252"
     style="font-style:normal;font-weight:normal;font-size:160px;font-family:Arial;fill:#000000;stroke:none">\acrshort{thf}</text>
  <path
     stroke="none"
     fill="#e69f00"
     transform="matrix(0.0666667 0 0 0.0666667 2.93354 -288.333)"
     d="M 5187.6,4688.75 L 3593.13,4688.75 L 3593.13,4678.75 L 5187.6,4678.75 Z "
     id="path254" />
  <path
     stroke="none"
     fill="#e69f00"
     transform="matrix(0.0666667 0 0 0.0666667 2.93354 -288.333)"
     d="M 5182.6,4931.25 L 5182.6,4683.75 L 5192.6,4683.75 L 5192.6,4931.25 Z "
     id="path256" />
  <path
     stroke="none"
     fill="#e69f00"
     transform="matrix(0.0666667 0 0 0.0666667 2.93354 -288.333)"
     d="M 5158.46,4927.5 A 29.14,29.14 0 1 0 5216.74,4927.5A 29.14,29.14 0 1 0 5158.46,4927.5Z "
     id="path258" />
  <text
     x="243.23001"
     y="18.281443"
     font-style="normal"
     font-weight="normal"
     font-size="160px"
     id="text262"
     style="font-style:normal;font-weight:normal;font-size:10.66667175px;font-family:Arial;fill:#e69f00;stroke:none;stroke-width:0.0666667">\NMR*{} ok. \SI{5.8}{\ppm}</text>
  <text
     x="499.23001"
     y="23.031443"
     font-style="normal"
     font-weight="normal"
     font-size="160px"
     id="text262-7"
     style="font-style:normal;font-weight:normal;font-size:10.66667175px;font-family:Arial;fill:#e69f00;stroke:none;stroke-width:0.0666667">\NMR*{} ok. \SI{7.6}{\ppm}</text>
  <text
     xml:space="preserve"
     style="font-style:normal;font-weight:normal;font-size:10.66666698px;line-height:1.25;font-family:sans-serif;text-align:start;letter-spacing:0px;word-spacing:0px;text-anchor:start;fill:#000000;fill-opacity:1;stroke:none"
     x="92.745468"
     y="106.4106"
     id="text1322"><tspan
       sodipodi:role="line"
       id="tspan1320"
       x="92.745468"
       y="106.4106">\cmpd{glu-lactam}</tspan></text>
  <text
     xml:space="preserve"
     style="font-style:normal;font-weight:normal;font-size:10.66666698px;line-height:1.25;font-family:sans-serif;text-align:start;letter-spacing:0px;word-spacing:0px;text-anchor:start;fill:#000000;fill-opacity:1;stroke:none"
     x="358.94766"
     y="106.4106"
     id="text1326"><tspan
       sodipodi:role="line"
       id="tspan1324"
       x="358.94766"
       y="106.4106">\cmpd{glu-zr}</tspan></text>
  <text
     xml:space="preserve"
     style="font-style:normal;font-weight:normal;font-size:10.66666698px;line-height:1.25;font-family:sans-serif;text-align:start;letter-spacing:0px;word-spacing:0px;text-anchor:start;fill:#000000;fill-opacity:1;stroke:none"
     x="600.44769"
     y="106.4106"
     id="text1330"><tspan
       sodipodi:role="line"
       id="tspan1328"
       x="600.44769"
       y="106.4106">\cmpd{glu-imine}</tspan></text>
  <text
     xml:space="preserve"
     style="font-style:normal;font-weight:normal;font-size:10.66666698px;line-height:1.25;font-family:sans-serif;text-align:start;letter-spacing:0px;word-spacing:0px;text-anchor:start;fill:#000000;fill-opacity:1;stroke:none"
     x="172.92018"
     y="106.46789"
     id="text1334"><tspan
       sodipodi:role="line"
       id="tspan1332"
       x="172.92018"
       y="106.46789">\cmpd{w:schwartz}</tspan></text>
</svg>
