<?xml version="1.0" encoding="UTF-8" standalone="no"?>
<svg
   xmlns:dc="http://purl.org/dc/elements/1.1/"
   xmlns:cc="http://creativecommons.org/ns#"
   xmlns:rdf="http://www.w3.org/1999/02/22-rdf-syntax-ns#"
   xmlns:svg="http://www.w3.org/2000/svg"
   xmlns="http://www.w3.org/2000/svg"
   xmlns:sodipodi="http://sodipodi.sourceforge.net/DTD/sodipodi-0.dtd"
   xmlns:inkscape="http://www.inkscape.org/namespaces/inkscape"
   width="390px"
   height="124px"
   viewBox="0 0 390 124"
   version="1.1"
   id="svg226"
   sodipodi:docname="amide-reduction-zr.svg"
   inkscape:version="0.92.4 (5da689c313, 2019-01-14)">
  <metadata
     id="metadata232">
    <rdf:RDF>
      <cc:Work
         rdf:about="">
        <dc:format>image/svg+xml</dc:format>
        <dc:type
           rdf:resource="http://purl.org/dc/dcmitype/StillImage" />
      </cc:Work>
    </rdf:RDF>
  </metadata>
  <defs
     id="defs230" />
  <sodipodi:namedview
     pagecolor="#ffffff"
     bordercolor="#666666"
     borderopacity="1"
     objecttolerance="10"
     gridtolerance="10"
     guidetolerance="10"
     inkscape:pageopacity="0"
     inkscape:pageshadow="2"
     inkscape:window-width="1920"
     inkscape:window-height="1017"
     id="namedview228"
     showgrid="false"
     inkscape:zoom="2.4875654"
     inkscape:cx="237.51097"
     inkscape:cy="107.3986"
     inkscape:window-x="-8"
     inkscape:window-y="-8"
     inkscape:window-maximized="1"
     inkscape:current-layer="svg226" />
  <g
     aria-label="R"
     transform="matrix(0.0666667,0,0,0.0666667,2.90574,105.949)"
     style="font-style:normal;font-variant:normal;font-weight:normal;font-stretch:normal;font-size:160px;line-height:normal;font-family:Arial;fill:#000000"
     id="text2">
    <path
       d="m 12.578125,0 v -114.53125 h 50.78125 q 15.3125,0 23.28125,3.125 7.96875,3.04687 12.734375,10.85937 4.76563,7.812505 4.76563,17.26563 0,12.1875 -7.89063,20.546875 -7.890625,8.359375 -24.375,10.625 6.015625,2.890625 9.140625,5.703125 6.640625,6.09375 12.578125,15.234375 L 113.51563,0 H 94.453125 l -15.15625,-23.828125 q -6.640625,-10.3125 -10.9375,-15.78125 -4.296875,-5.46875 -7.734375,-7.65625 -3.359375,-2.1875 -6.875,-3.046875 -2.578125,-0.546875 -8.4375,-0.546875 H 27.734375 V 0 Z m 15.15625,-63.984375 H 60.3125 q 10.390625,0 16.25,-2.109375 5.859375,-2.1875 8.90625,-6.875 3.046875,-4.765625 3.046875,-10.3125 0,-8.125 -5.9375,-13.359375 Q 76.71875,-101.875 63.984375,-101.875 h -36.25 z"
       style="font-style:normal;font-variant:normal;font-weight:normal;font-stretch:normal;font-size:160px;line-height:normal;font-family:Arial;fill:#000000"
       id="path4973"
       inkscape:connector-curvature="0" />
  </g>
  <g
     aria-label="1"
     transform="matrix(0.0666667,0,0,0.0666667,10.6391,101.749)"
     style="font-style:normal;font-variant:normal;font-weight:normal;font-stretch:normal;font-size:120px;line-height:normal;font-family:Arial;fill:#000000"
     id="text4">
    <path
       d="M 44.707031,0 H 34.160156 v -67.207031 q -3.808594,3.632812 -10.019531,7.265625 -6.152344,3.632812 -11.074219,5.449219 V -64.6875 q 8.847656,-4.160156 15.46875,-10.078125 6.621094,-5.917969 9.375,-11.484375 h 6.796875 z"
       style="font-style:normal;font-variant:normal;font-weight:normal;font-stretch:normal;font-size:120px;line-height:normal;font-family:Arial;fill:#000000"
       id="path4970"
       inkscape:connector-curvature="0" />
  </g>
  <path
     stroke="transparent"
     fill="#000000"
     transform="matrix(0.0666667 0 0 0.0666667 -4.51118 -15.3333)"
     d="M 368.589,1635.25 L 368.589,1647.03 L 307.339,1682.4 L 302.237,1673.56 L 368.589,1635.25 Z "
     id="path6" />
  <g
     aria-label="N"
     transform="matrix(0.0666667,0,0,0.0666667,29.4838,105.949)"
     style="font-style:normal;font-variant:normal;font-weight:normal;font-stretch:normal;font-size:160px;line-height:normal;font-family:Arial;fill:#000000"
     id="text8">
    <path
       d="m 12.1875,0 v -114.53125 h 15.546875 l 60.15625,89.921875 V -114.53125 H 102.42188 V 0 H 86.875 L 26.71875,-90 V 0 Z"
       style="font-style:normal;font-variant:normal;font-weight:normal;font-stretch:normal;font-size:160px;line-height:normal;font-family:Arial;fill:#000000"
       id="path4967"
       inkscape:connector-curvature="0" />
  </g>
  <path
     stroke="transparent"
     fill="#000000"
     transform="matrix(0.0666667 0 0 0.0666667 -4.51118 -15.3333)"
     d="M 492.559,1706.83 L 487.457,1715.66 L 368.589,1647.03 L 368.589,1635.25 L 492.559,1706.83 Z "
     id="path10" />
  <g
     aria-label="O"
     transform="matrix(0.0666667,0,0,0.0666667,15.9281,82.9314)"
     style="font-style:normal;font-variant:normal;font-weight:normal;font-stretch:normal;font-size:160px;line-height:normal;font-family:Arial;fill:#000000"
     id="text12">
    <path
       d="m 7.734375,-55.78125 q 0,-28.515625 15.3125,-44.60938 15.3125,-16.17187 39.53125,-16.17187 15.859375,0 28.59375,7.57812 12.734375,7.57813 19.375005,21.17188 6.71875,13.515625 6.71875,30.703125 0,17.421875 -7.03125,31.171875 -7.03125,13.75 -19.92188,20.859375 -12.890625,7.03125 -27.8125,7.03125 -16.171875,0 -28.90625,-7.8125 -12.734375,-7.8125 -19.296875,-21.328125 -6.5625,-13.515625 -6.5625,-28.59375 z m 15.625,0.234375 q 0,20.703125 11.09375,32.65625 11.171875,11.875 27.96875,11.875 17.109375,0 28.125,-12.03125 11.093755,-12.03125 11.093755,-34.140625 0,-13.984375 -4.76563,-24.375 -4.6875,-10.46875 -13.828125,-16.171875 -9.0625,-5.781255 -20.390625,-5.781255 -16.09375,0 -27.734375,11.093755 -11.5625,11.015625 -11.5625,36.875 z"
       style="font-style:normal;font-variant:normal;font-weight:normal;font-stretch:normal;font-size:160px;line-height:normal;font-family:Arial;fill:#000000"
       id="path4964"
       inkscape:connector-curvature="0" />
  </g>
  <path
     stroke="transparent"
     fill="#000000"
     transform="matrix(0.0666667 0 0 0.0666667 -4.51118 -15.3333)"
     d="M 342.772,1502.64 L 352.976,1502.64 L 352.976,1653.1 L 342.772,1653.1 L 342.772,1502.64 Z "
     id="path14" />
  <path
     stroke="transparent"
     fill="#000000"
     transform="matrix(0.0666667 0 0 0.0666667 -4.51118 -15.3333)"
     d="M 384.203,1502.64 L 394.407,1502.64 L 394.407,1653.1 L 384.203,1653.1 L 384.203,1502.64 Z "
     id="path16" />
  <g
     aria-label="R"
     transform="matrix(0.0666667,0,0,0.0666667,42.7729,98.2762)"
     style="font-style:normal;font-variant:normal;font-weight:normal;font-stretch:normal;font-size:160px;line-height:normal;font-family:Arial;fill:#000000"
     id="text18">
    <path
       d="m 12.578125,0 v -114.53125 h 50.78125 q 15.3125,0 23.28125,3.125 7.96875,3.04687 12.734375,10.85937 4.76563,7.812505 4.76563,17.26563 0,12.1875 -7.89063,20.546875 -7.890625,8.359375 -24.375,10.625 6.015625,2.890625 9.140625,5.703125 6.640625,6.09375 12.578125,15.234375 L 113.51563,0 H 94.453125 l -15.15625,-23.828125 q -6.640625,-10.3125 -10.9375,-15.78125 -4.296875,-5.46875 -7.734375,-7.65625 -3.359375,-2.1875 -6.875,-3.046875 -2.578125,-0.546875 -8.4375,-0.546875 H 27.734375 V 0 Z m 15.15625,-63.984375 H 60.3125 q 10.390625,0 16.25,-2.109375 5.859375,-2.1875 8.90625,-6.875 3.046875,-4.765625 3.046875,-10.3125 0,-8.125 -5.9375,-13.359375 Q 76.71875,-101.875 63.984375,-101.875 h -36.25 z"
       style="font-style:normal;font-variant:normal;font-weight:normal;font-stretch:normal;font-size:160px;line-height:normal;font-family:Arial;fill:#000000"
       id="path4961"
       inkscape:connector-curvature="0" />
  </g>
  <g
     aria-label="2"
     transform="matrix(0.0666667,0,0,0.0666667,50.5062,94.0762)"
     style="font-style:normal;font-variant:normal;font-weight:normal;font-stretch:normal;font-size:120px;line-height:normal;font-family:Arial;fill:#000000"
     id="text20">
    <path
       d="M 60.410156,-10.136719 V 0 H 3.6328125 Q 3.515625,-3.8085938 4.8632812,-7.3242187 7.03125,-13.125 11.777344,-18.75 q 4.804687,-5.625 13.828125,-13.007812 14.003906,-11.484375 18.925781,-18.164063 4.921875,-6.738281 4.921875,-12.714844 0,-6.269531 -4.511719,-10.546875 -4.453125,-4.335937 -11.660156,-4.335937 -7.617188,0 -12.1875,4.570312 -4.570313,4.570313 -4.628906,12.65625 L 5.625,-61.40625 Q 6.7382812,-73.535156 14.003906,-79.863281 21.269531,-86.25 33.515625,-86.25 q 12.363281,0 19.570312,6.855469 7.207032,6.855469 7.207032,16.992187 0,5.15625 -2.109375,10.136719 -2.109375,4.980469 -7.03125,10.488281 -4.863282,5.507813 -16.230469,15.117188 -9.492188,7.96875 -12.1875,10.839843 -2.695313,2.8125 -4.453125,5.683594 z"
       style="font-style:normal;font-variant:normal;font-weight:normal;font-stretch:normal;font-size:120px;line-height:normal;font-family:Arial;fill:#000000"
       id="path4958"
       inkscape:connector-curvature="0" />
  </g>
  <path
     stroke="transparent"
     fill="#000000"
     transform="matrix(0.0666667 0 0 0.0666667 -4.51118 -15.3333)"
     d="M 681.741,1684.63 L 686.843,1693.46 L 647.643,1716.1 L 642.541,1707.26 L 681.741,1684.63 Z "
     id="path22" />
  <g
     aria-label="R"
     transform="matrix(0.0666667,0,0,0.0666667,29.4838,121.294)"
     style="font-style:normal;font-variant:normal;font-weight:normal;font-stretch:normal;font-size:160px;line-height:normal;font-family:Arial;fill:#000000"
     id="text24">
    <path
       d="m 12.578125,0 v -114.53125 h 50.78125 q 15.3125,0 23.28125,3.125 7.96875,3.04687 12.734375,10.85937 4.76563,7.812505 4.76563,17.26563 0,12.1875 -7.89063,20.546875 -7.890625,8.359375 -24.375,10.625 6.015625,2.890625 9.140625,5.703125 6.640625,6.09375 12.578125,15.234375 L 113.51563,0 H 94.453125 l -15.15625,-23.828125 q -6.640625,-10.3125 -10.9375,-15.78125 -4.296875,-5.46875 -7.734375,-7.65625 -3.359375,-2.1875 -6.875,-3.046875 -2.578125,-0.546875 -8.4375,-0.546875 H 27.734375 V 0 Z m 15.15625,-63.984375 H 60.3125 q 10.390625,0 16.25,-2.109375 5.859375,-2.1875 8.90625,-6.875 3.046875,-4.765625 3.046875,-10.3125 0,-8.125 -5.9375,-13.359375 Q 76.71875,-101.875 63.984375,-101.875 h -36.25 z"
       style="font-style:normal;font-variant:normal;font-weight:normal;font-stretch:normal;font-size:160px;line-height:normal;font-family:Arial;fill:#000000"
       id="path4955"
       inkscape:connector-curvature="0" />
  </g>
  <g
     aria-label="3"
     transform="matrix(0.0666667,0,0,0.0666667,37.2172,117.094)"
     style="font-style:normal;font-variant:normal;font-weight:normal;font-stretch:normal;font-size:120px;line-height:normal;font-family:Arial;fill:#000000"
     id="text26">
    <path
       d="m 5.0390625,-22.675781 10.5468755,-1.40625 q 1.816406,8.964843 6.152343,12.949218 4.394531,3.9257818 10.664063,3.9257818 7.441406,0 12.539062,-5.1562498 5.15625,-5.15625 5.15625,-12.773438 0,-7.265625 -4.746094,-11.953125 -4.746093,-4.746093 -12.070312,-4.746093 -2.988281,0 -7.441406,1.171875 l 1.171875,-9.257813 q 1.054687,0.117188 1.699218,0.117188 6.738282,0 12.128907,-3.515625 5.390625,-3.515625 5.390625,-10.839844 0,-5.800781 -3.925782,-9.609375 -3.925781,-3.808594 -10.136718,-3.808594 -6.152344,0 -10.253907,3.867188 -4.101562,3.867187 -5.273437,11.601562 l -10.546875,-1.875 Q 8.0273438,-74.589844 14.882813,-80.390625 21.738281,-86.25 31.933594,-86.25 q 7.03125,0 12.949218,3.046875 5.917969,2.988281 9.023438,8.203125 3.164062,5.214844 3.164062,11.074219 0,5.566406 -2.988281,10.136719 -2.988281,4.570312 -8.847656,7.265625 7.617187,1.757812 11.835937,7.324218 4.21875,5.507813 4.21875,13.828125 0,11.25 -8.203125,19.1015628 -8.203125,7.7929687 -20.742187,7.7929687 -11.308594,0 -18.808594,-6.7382812 Q 6.09375,-11.953125 5.0390625,-22.675781 Z"
       style="font-style:normal;font-variant:normal;font-weight:normal;font-stretch:normal;font-size:120px;line-height:normal;font-family:Arial;fill:#000000"
       id="path4952"
       inkscape:connector-curvature="0" />
  </g>
  <path
     stroke="transparent"
     fill="#000000"
     transform="matrix(0.0666667 0 0 0.0666667 -4.51118 -15.3333)"
     d="M 573.027,1877.07 L 562.823,1877.07 L 562.823,1845.23 L 573.027,1845.23 L 573.027,1877.07 Z "
     id="path28" />
  <path
     stroke="transparent"
     fill="#000000"
     transform="matrix(0.0666667 0 0 0.0666667 -4.51118 -15.3333)"
     d="M 2191.45,1651.84 L 1112.5,1651.84 L 1112.5,1641.84 L 2191.45,1641.84 Z "
     id="path30" />
  <path
     stroke="transparent"
     fill="#000000"
     transform="matrix(0.0666667 0 0 0.0666667 -4.51118 -15.3333)"
     d="M 2279.74,1646.84 C 2279.74,1646.84 2177.7,1673.35 2177.7,1673.35 C 2177.7,1673.35 2190.45,1658.44 2190.45,1646.84 C 2190.45,1634.8 2177.7,1619.33 2177.7,1619.33 C 2177.7,1619.33 2279.74,1646.84 2279.74,1646.84 C 2279.74,1646.84 2279.74,1646.84 2279.74,1646.84 "
     id="path32" />
  <path
     stroke="#000000"
     stroke-width="1"
     fill="transparent"
     transform="matrix(0.0666667 0 0 0.0666667 -4.51118 -15.3333)"
     d="M 2279.74,1646.84 C 2279.74,1646.84 2177.7,1673.35 2177.7,1673.35 C 2177.7,1673.35 2190.45,1658.44 2190.45,1646.84 C 2190.45,1634.8 2177.7,1619.33 2177.7,1619.33 C 2177.7,1619.33 2279.74,1646.84 2279.74,1646.84 C 2279.74,1646.84 2279.74,1646.84 2279.74,1646.84 "
     id="path34" />
  <g
     aria-label="R"
     transform="matrix(0.0666667,0,0,0.0666667,179.305,111.337)"
     style="font-style:normal;font-variant:normal;font-weight:normal;font-stretch:normal;font-size:160px;line-height:normal;font-family:Arial;fill:#000000"
     id="text36">
    <path
       d="m 12.578125,0 v -114.53125 h 50.78125 q 15.3125,0 23.28125,3.125 7.96875,3.04687 12.734375,10.85937 4.76563,7.812505 4.76563,17.26563 0,12.1875 -7.89063,20.546875 -7.890625,8.359375 -24.375,10.625 6.015625,2.890625 9.140625,5.703125 6.640625,6.09375 12.578125,15.234375 L 113.51563,0 H 94.453125 l -15.15625,-23.828125 q -6.640625,-10.3125 -10.9375,-15.78125 -4.296875,-5.46875 -7.734375,-7.65625 -3.359375,-2.1875 -6.875,-3.046875 -2.578125,-0.546875 -8.4375,-0.546875 H 27.734375 V 0 Z m 15.15625,-63.984375 H 60.3125 q 10.390625,0 16.25,-2.109375 5.859375,-2.1875 8.90625,-6.875 3.046875,-4.765625 3.046875,-10.3125 0,-8.125 -5.9375,-13.359375 Q 76.71875,-101.875 63.984375,-101.875 h -36.25 z"
       style="font-style:normal;font-variant:normal;font-weight:normal;font-stretch:normal;font-size:160px;line-height:normal;font-family:Arial;fill:#000000"
       id="path4949"
       inkscape:connector-curvature="0" />
  </g>
  <g
     aria-label="1"
     transform="matrix(0.0666667,0,0,0.0666667,187.038,107.137)"
     style="font-style:normal;font-variant:normal;font-weight:normal;font-stretch:normal;font-size:120px;line-height:normal;font-family:Arial;fill:#000000"
     id="text38">
    <path
       d="M 44.707031,0 H 34.160156 v -67.207031 q -3.808594,3.632812 -10.019531,7.265625 -6.152344,3.632812 -11.074219,5.449219 V -64.6875 q 8.847656,-4.160156 15.46875,-10.078125 6.621094,-5.917969 9.375,-11.484375 h 6.796875 z"
       style="font-style:normal;font-variant:normal;font-weight:normal;font-stretch:normal;font-size:120px;line-height:normal;font-family:Arial;fill:#000000"
       id="path4946"
       inkscape:connector-curvature="0" />
  </g>
  <path
     stroke="transparent"
     fill="#000000"
     transform="matrix(0.0666667 0 0 0.0666667 -4.51118 -15.3333)"
     d="M 2921.4,1642.98 L 2930.24,1637.88 L 2932.11,1644.85 L 2878.08,1738.42 L 2869.25,1733.32 L 2921.4,1642.98 Z "
     id="path40" />
  <g
     aria-label="N"
     transform="matrix(0.0666667,0,0,0.0666667,200.251,105.725)"
     style="font-style:normal;font-variant:normal;font-weight:normal;font-stretch:normal;font-size:160px;line-height:normal;font-family:Arial;fill:#000000"
     id="text42">
    <path
       d="m 12.1875,0 v -114.53125 h 15.546875 l 60.15625,89.921875 V -114.53125 H 102.42188 V 0 H 86.875 L 26.71875,-90 V 0 Z"
       style="font-style:normal;font-variant:normal;font-weight:normal;font-stretch:normal;font-size:160px;line-height:normal;font-family:Arial;fill:#000000"
       id="path4943"
       inkscape:connector-curvature="0" />
  </g>
  <path
     stroke="transparent"
     fill="#000000"
     transform="matrix(0.0666667 0 0 0.0666667 -4.51118 -15.3333)"
     d="M 3054.06,1703.47 L 3048.96,1712.31 L 2932.11,1644.85 L 2930.24,1637.88 L 2935.34,1634.93 L 3054.06,1703.47 Z "
     id="path44" />
  <g
     aria-label="O"
     transform="matrix(0.0666667,0,0,0.0666667,186.705,82.7251)"
     style="font-style:normal;font-variant:normal;font-weight:normal;font-stretch:normal;font-size:160px;line-height:normal;font-family:Arial;fill:#000000"
     id="text46">
    <path
       d="m 7.734375,-55.78125 q 0,-28.515625 15.3125,-44.60938 15.3125,-16.17187 39.53125,-16.17187 15.859375,0 28.59375,7.57812 12.734375,7.57813 19.375005,21.17188 6.71875,13.515625 6.71875,30.703125 0,17.421875 -7.03125,31.171875 -7.03125,13.75 -19.92188,20.859375 -12.890625,7.03125 -27.8125,7.03125 -16.171875,0 -28.90625,-7.8125 -12.734375,-7.8125 -19.296875,-21.328125 -6.5625,-13.515625 -6.5625,-28.59375 z m 15.625,0.234375 q 0,20.703125 11.09375,32.65625 11.171875,11.875 27.96875,11.875 17.109375,0 28.125,-12.03125 11.093755,-12.03125 11.093755,-34.140625 0,-13.984375 -4.76563,-24.375 -4.6875,-10.46875 -13.828125,-16.171875 -9.0625,-5.781255 -20.390625,-5.781255 -16.09375,0 -27.734375,11.093755 -11.5625,11.015625 -11.5625,36.875 z"
       style="font-style:normal;font-variant:normal;font-weight:normal;font-stretch:normal;font-size:160px;line-height:normal;font-family:Arial;fill:#000000"
       id="path4940"
       inkscape:connector-curvature="0" />
  </g>
  <path
     stroke="transparent"
     fill="#000000"
     transform="matrix(0.0666667 0 0 0.0666667 -4.51118 -15.3333)"
     d="M 2925.14,1499.54 L 2935.34,1499.54 L 2935.34,1634.93 L 2930.24,1637.88 L 2925.14,1632.77 L 2925.14,1499.54 Z "
     id="path48" />
  <g
     aria-label="R"
     transform="matrix(0.0666667,0,0,0.0666667,213.53,98.0584)"
     style="font-style:normal;font-variant:normal;font-weight:normal;font-stretch:normal;font-size:160px;line-height:normal;font-family:Arial;fill:#000000"
     id="text50">
    <path
       d="m 12.578125,0 v -114.53125 h 50.78125 q 15.3125,0 23.28125,3.125 7.96875,3.04687 12.734375,10.85937 4.76563,7.812505 4.76563,17.26563 0,12.1875 -7.89063,20.546875 -7.890625,8.359375 -24.375,10.625 6.015625,2.890625 9.140625,5.703125 6.640625,6.09375 12.578125,15.234375 L 113.51563,0 H 94.453125 l -15.15625,-23.828125 q -6.640625,-10.3125 -10.9375,-15.78125 -4.296875,-5.46875 -7.734375,-7.65625 -3.359375,-2.1875 -6.875,-3.046875 -2.578125,-0.546875 -8.4375,-0.546875 H 27.734375 V 0 Z m 15.15625,-63.984375 H 60.3125 q 10.390625,0 16.25,-2.109375 5.859375,-2.1875 8.90625,-6.875 3.046875,-4.765625 3.046875,-10.3125 0,-8.125 -5.9375,-13.359375 Q 76.71875,-101.875 63.984375,-101.875 h -36.25 z"
       style="font-style:normal;font-variant:normal;font-weight:normal;font-stretch:normal;font-size:160px;line-height:normal;font-family:Arial;fill:#000000"
       id="path4937"
       inkscape:connector-curvature="0" />
  </g>
  <g
     aria-label="2"
     transform="matrix(0.0666667,0,0,0.0666667,221.263,93.8584)"
     style="font-style:normal;font-variant:normal;font-weight:normal;font-stretch:normal;font-size:120px;line-height:normal;font-family:Arial;fill:#000000"
     id="text52">
    <path
       d="M 60.410156,-10.136719 V 0 H 3.6328125 Q 3.515625,-3.8085938 4.8632812,-7.3242187 7.03125,-13.125 11.777344,-18.75 q 4.804687,-5.625 13.828125,-13.007812 14.003906,-11.484375 18.925781,-18.164063 4.921875,-6.738281 4.921875,-12.714844 0,-6.269531 -4.511719,-10.546875 -4.453125,-4.335937 -11.660156,-4.335937 -7.617188,0 -12.1875,4.570312 -4.570313,4.570313 -4.628906,12.65625 L 5.625,-61.40625 Q 6.7382812,-73.535156 14.003906,-79.863281 21.269531,-86.25 33.515625,-86.25 q 12.363281,0 19.570312,6.855469 7.207032,6.855469 7.207032,16.992187 0,5.15625 -2.109375,10.136719 -2.109375,4.980469 -7.03125,10.488281 -4.863282,5.507813 -16.230469,15.117188 -9.492188,7.96875 -12.1875,10.839843 -2.695313,2.8125 -4.453125,5.683594 z"
       style="font-style:normal;font-variant:normal;font-weight:normal;font-stretch:normal;font-size:120px;line-height:normal;font-family:Arial;fill:#000000"
       id="path4934"
       inkscape:connector-curvature="0" />
  </g>
  <path
     stroke="transparent"
     fill="#000000"
     transform="matrix(0.0666667 0 0 0.0666667 -4.51118 -15.3333)"
     d="M 3243.09,1681.36 L 3248.19,1690.2 L 3209.14,1712.74 L 3204.04,1703.91 L 3243.09,1681.36 Z "
     id="path54" />
  <g
     aria-label="R"
     transform="matrix(0.0666667,0,0,0.0666667,200.251,121.058)"
     style="font-style:normal;font-variant:normal;font-weight:normal;font-stretch:normal;font-size:160px;line-height:normal;font-family:Arial;fill:#000000"
     id="text56">
    <path
       d="m 12.578125,0 v -114.53125 h 50.78125 q 15.3125,0 23.28125,3.125 7.96875,3.04687 12.734375,10.85937 4.76563,7.812505 4.76563,17.26563 0,12.1875 -7.89063,20.546875 -7.890625,8.359375 -24.375,10.625 6.015625,2.890625 9.140625,5.703125 6.640625,6.09375 12.578125,15.234375 L 113.51563,0 H 94.453125 l -15.15625,-23.828125 q -6.640625,-10.3125 -10.9375,-15.78125 -4.296875,-5.46875 -7.734375,-7.65625 -3.359375,-2.1875 -6.875,-3.046875 -2.578125,-0.546875 -8.4375,-0.546875 H 27.734375 V 0 Z m 15.15625,-63.984375 H 60.3125 q 10.390625,0 16.25,-2.109375 5.859375,-2.1875 8.90625,-6.875 3.046875,-4.765625 3.046875,-10.3125 0,-8.125 -5.9375,-13.359375 Q 76.71875,-101.875 63.984375,-101.875 h -36.25 z"
       style="font-style:normal;font-variant:normal;font-weight:normal;font-stretch:normal;font-size:160px;line-height:normal;font-family:Arial;fill:#000000"
       id="path4931"
       inkscape:connector-curvature="0" />
  </g>
  <g
     aria-label="3"
     transform="matrix(0.0666667,0,0,0.0666667,207.984,116.858)"
     style="font-style:normal;font-variant:normal;font-weight:normal;font-stretch:normal;font-size:120px;line-height:normal;font-family:Arial;fill:#000000"
     id="text58">
    <path
       d="m 5.0390625,-22.675781 10.5468755,-1.40625 q 1.816406,8.964843 6.152343,12.949218 4.394531,3.9257818 10.664063,3.9257818 7.441406,0 12.539062,-5.1562498 5.15625,-5.15625 5.15625,-12.773438 0,-7.265625 -4.746094,-11.953125 -4.746093,-4.746093 -12.070312,-4.746093 -2.988281,0 -7.441406,1.171875 l 1.171875,-9.257813 q 1.054687,0.117188 1.699218,0.117188 6.738282,0 12.128907,-3.515625 5.390625,-3.515625 5.390625,-10.839844 0,-5.800781 -3.925782,-9.609375 -3.925781,-3.808594 -10.136718,-3.808594 -6.152344,0 -10.253907,3.867188 -4.101562,3.867187 -5.273437,11.601562 l -10.546875,-1.875 Q 8.0273438,-74.589844 14.882813,-80.390625 21.738281,-86.25 31.933594,-86.25 q 7.03125,0 12.949218,3.046875 5.917969,2.988281 9.023438,8.203125 3.164062,5.214844 3.164062,11.074219 0,5.566406 -2.988281,10.136719 -2.988281,4.570312 -8.847656,7.265625 7.617187,1.757812 11.835937,7.324218 4.21875,5.507813 4.21875,13.828125 0,11.25 -8.203125,19.1015628 -8.203125,7.7929687 -20.742187,7.7929687 -11.308594,0 -18.808594,-6.7382812 Q 6.09375,-11.953125 5.0390625,-22.675781 Z"
       style="font-style:normal;font-variant:normal;font-weight:normal;font-stretch:normal;font-size:120px;line-height:normal;font-family:Arial;fill:#000000"
       id="path4928"
       inkscape:connector-curvature="0" />
  </g>
  <path
     stroke="transparent"
     fill="#000000"
     transform="matrix(0.0666667 0 0 0.0666667 -4.51118 -15.3333)"
     d="M 3134.53,1873.54 L 3124.32,1873.54 L 3124.32,1841.88 L 3134.53,1841.88 L 3134.53,1873.54 Z "
     id="path60" />
  <g
     aria-label="ZrCp"
     transform="matrix(0.0666667,0,0,0.0666667,200.851,75.0584)"
     style="font-style:normal;font-variant:normal;font-weight:normal;font-stretch:normal;font-size:160px;line-height:normal;font-family:Arial;fill:#009e73"
     id="text62">
    <path
       d="M 3.203125,0 V -14.0625 L 61.875,-87.421875 q 6.25,-7.8125 11.875,-13.593755 H 9.84375 v -13.51562 H 91.875 v 13.51562 L 27.578125,-21.5625 20.625,-13.515625 H 93.75 V 0 Z"
       style="font-style:normal;font-variant:normal;font-weight:normal;font-stretch:normal;font-size:160px;line-height:normal;font-family:Arial;fill:#009e73"
       id="path4919"
       inkscape:connector-curvature="0" />
    <path
       d="m 108.20313,0 v -82.96875 h 12.65625 v 12.578125 q 4.84375,-8.828125 8.90624,-11.640625 4.14063,-2.8125 9.0625,-2.8125 7.10938,0 14.45313,4.53125 l -4.84375,13.046875 q -5.15625,-3.046875 -10.3125,-3.046875 -4.60938,0 -8.28125,2.8125 -3.67187,2.734375 -5.23437,7.65625 -2.34375,7.5 -2.34375,16.40625 V 0 Z"
       style="font-style:normal;font-variant:normal;font-weight:normal;font-stretch:normal;font-size:160px;line-height:normal;font-family:Arial;fill:#009e73"
       id="path4921"
       inkscape:connector-curvature="0" />
    <path
       d="m 245.3125,-40.15625 15.15625,3.828125 q -4.76563,18.671875 -17.1875,28.515625 -12.34375,9.765625 -30.23438,9.765625 -18.51562,0 -30.15625,-7.5 -11.5625,-7.578125 -17.65625,-21.875 -6.01562,-14.296875 -6.01562,-30.703125 0,-17.890625 6.79687,-31.171875 6.875,-13.359375 19.45313,-20.234375 12.65625,-6.95313 27.8125,-6.95313 17.1875,0 28.90625,8.75 11.71875,8.750005 16.32812,24.60938 l -14.92187,3.515625 q -3.98438,-12.5 -11.5625,-18.203125 -7.57813,-5.70313 -19.0625,-5.70313 -13.20313,0 -22.10938,6.32813 -8.82812,6.328125 -12.42187,17.03125 -3.59375,10.625 -3.59375,21.953125 0,14.609375 4.21875,25.546875 4.29687,10.859375 13.28125,16.25 8.98437,5.390625 19.45312,5.390625 12.73438,0 21.5625,-7.34375 8.82813,-7.34375 11.95313,-21.796875 z"
       style="font-style:normal;font-variant:normal;font-weight:normal;font-stretch:normal;font-size:160px;line-height:normal;font-family:Arial;fill:#009e73"
       id="path4923"
       inkscape:connector-curvature="0" />
    <path
       d="M 277.42187,31.796875 V -82.96875 h 12.8125 v 10.78125 q 4.53125,-6.328125 10.23438,-9.453125 5.70312,-3.203125 13.82812,-3.203125 10.625,0 18.75,5.46875 8.125,5.46875 12.26563,15.46875 4.14062,9.921875 4.14062,21.796875 0,12.734375 -4.60937,22.96875 -4.53125,10.15625 -13.28125,15.625 Q 322.89062,1.875 313.28125,1.875 q -7.03125,0 -12.65625,-2.96875 -5.54688,-2.96875 -9.14063,-7.5 v 40.390625 z m 12.73438,-72.8125 q 0,16.015625 6.48437,23.671875 6.48438,7.65625 15.70313,7.65625 9.375,0 16.01562,-7.890625 6.71875,-7.96875 6.71875,-24.609375 0,-15.859375 -6.5625,-23.75 -6.48437,-7.890625 -15.54687,-7.890625 -8.98438,0 -15.9375,8.4375 -6.875,8.359375 -6.875,24.375 z"
       style="font-style:normal;font-variant:normal;font-weight:normal;font-stretch:normal;font-size:160px;line-height:normal;font-family:Arial;fill:#009e73"
       id="path4925"
       inkscape:connector-curvature="0" />
  </g>
  <g
     aria-label="2"
     transform="matrix(0.0666667,0,0,0.0666667,224.603,77.3251)"
     style="font-style:normal;font-variant:normal;font-weight:normal;font-stretch:normal;font-size:120px;line-height:normal;font-family:Arial;fill:#009e73"
     id="text64">
    <path
       d="M 60.410156,-10.136719 V 0 H 3.6328125 Q 3.515625,-3.8085938 4.8632812,-7.3242187 7.03125,-13.125 11.777344,-18.75 q 4.804687,-5.625 13.828125,-13.007812 14.003906,-11.484375 18.925781,-18.164063 4.921875,-6.738281 4.921875,-12.714844 0,-6.269531 -4.511719,-10.546875 -4.453125,-4.335937 -11.660156,-4.335937 -7.617188,0 -12.1875,4.570312 -4.570313,4.570313 -4.628906,12.65625 L 5.625,-61.40625 Q 6.7382812,-73.535156 14.003906,-79.863281 21.269531,-86.25 33.515625,-86.25 q 12.363281,0 19.570312,6.855469 7.207032,6.855469 7.207032,16.992187 0,5.15625 -2.109375,10.136719 -2.109375,4.980469 -7.03125,10.488281 -4.863282,5.507813 -16.230469,15.117188 -9.492188,7.96875 -12.1875,10.839843 -2.695313,2.8125 -4.453125,5.683594 z"
       style="font-style:normal;font-variant:normal;font-weight:normal;font-stretch:normal;font-size:120px;line-height:normal;font-family:Arial;fill:#009e73"
       id="path4916"
       inkscape:connector-curvature="0" />
  </g>
  <g
     aria-label="Cl"
     transform="matrix(0.0666667,0,0,0.0666667,229.053,75.0584)"
     style="font-style:normal;font-variant:normal;font-weight:normal;font-stretch:normal;font-size:160px;line-height:normal;font-family:Arial;fill:#009e73"
     id="text66">
    <path
       d="m 94.0625,-40.15625 15.15625,3.828125 Q 104.45313,-17.65625 92.03125,-7.8125 79.6875,1.953125 61.796875,1.953125 q -18.515625,0 -30.15625,-7.5 -11.5625,-7.578125 -17.65625,-21.875 Q 7.96875,-41.71875 7.96875,-58.125 q 0,-17.890625 6.796875,-31.171875 6.875,-13.359375 19.453125,-20.234375 12.65625,-6.95313 27.8125,-6.95313 17.1875,0 28.90625,8.75 11.71875,8.750005 16.32813,24.60938 l -14.92188,3.515625 q -3.984375,-12.5 -11.5625,-18.203125 -7.578125,-5.70313 -19.0625,-5.70313 -13.203125,0 -22.109375,6.32813 -8.828125,6.328125 -12.421875,17.03125 -3.59375,10.625 -3.59375,21.953125 0,14.609375 4.21875,25.546875 4.296875,10.859375 13.28125,16.25 8.984375,5.390625 19.453125,5.390625 12.734375,0 21.5625,-7.34375 8.828125,-7.34375 11.953125,-21.796875 z"
       style="font-style:normal;font-variant:normal;font-weight:normal;font-stretch:normal;font-size:160px;line-height:normal;font-family:Arial;fill:#009e73"
       id="path4911"
       inkscape:connector-curvature="0" />
    <path
       d="m 125.85938,0 v -114.53125 h 14.06249 V 0 Z"
       style="font-style:normal;font-variant:normal;font-weight:normal;font-stretch:normal;font-size:160px;line-height:normal;font-family:Arial;fill:#009e73"
       id="path4913"
       inkscape:connector-curvature="0" />
  </g>
  <path
     stroke="transparent"
     fill="#000000"
     transform="matrix(0.0666667 0 0 0.0666667 -4.51118 -15.3333)"
     d="M 3043.91,1336.36 L 3049.01,1345.2 L 3002.08,1372.29 L 2996.97,1363.46 L 3043.91,1336.36 Z "
     id="path68" />
  <g
     aria-label="Cp"
     transform="matrix(0.0666667,0,0,0.0666667,76.2691,87.5767)"
     style="font-style:normal;font-variant:normal;font-weight:normal;font-stretch:normal;font-size:160px;line-height:normal;font-family:Arial;fill:#009e73"
     id="text70">
    <path
       d="m 94.0625,-40.15625 15.15625,3.828125 Q 104.45313,-17.65625 92.03125,-7.8125 79.6875,1.953125 61.796875,1.953125 q -18.515625,0 -30.15625,-7.5 -11.5625,-7.578125 -17.65625,-21.875 Q 7.96875,-41.71875 7.96875,-58.125 q 0,-17.890625 6.796875,-31.171875 6.875,-13.359375 19.453125,-20.234375 12.65625,-6.95313 27.8125,-6.95313 17.1875,0 28.90625,8.75 11.71875,8.750005 16.32813,24.60938 l -14.92188,3.515625 q -3.984375,-12.5 -11.5625,-18.203125 -7.578125,-5.70313 -19.0625,-5.70313 -13.203125,0 -22.109375,6.32813 -8.828125,6.328125 -12.421875,17.03125 -3.59375,10.625 -3.59375,21.953125 0,14.609375 4.21875,25.546875 4.296875,10.859375 13.28125,16.25 8.984375,5.390625 19.453125,5.390625 12.734375,0 21.5625,-7.34375 8.828125,-7.34375 11.953125,-21.796875 z"
       style="font-style:normal;font-variant:normal;font-weight:normal;font-stretch:normal;font-size:160px;line-height:normal;font-family:Arial;fill:#009e73"
       id="path4906"
       inkscape:connector-curvature="0" />
    <path
       d="M 126.17188,31.796875 V -82.96875 h 12.81249 v 10.78125 q 4.53125,-6.328125 10.23438,-9.453125 5.70312,-3.203125 13.82812,-3.203125 10.625,0 18.75,5.46875 8.125,5.46875 12.26563,15.46875 4.14062,9.921875 4.14062,21.796875 0,12.734375 -4.60937,22.96875 -4.53125,10.15625 -13.28125,15.625 Q 171.64062,1.875 162.03125,1.875 155,1.875 149.375,-1.09375 q -5.54688,-2.96875 -9.14063,-7.5 v 40.390625 z m 12.73437,-72.8125 q 0,16.015625 6.48437,23.671875 6.48438,7.65625 15.70313,7.65625 9.375,0 16.01562,-7.890625 6.71875,-7.96875 6.71875,-24.609375 0,-15.859375 -6.5625,-23.75 -6.48437,-7.890625 -15.54687,-7.890625 -8.98438,0 -15.9375,8.4375 -6.875,8.359375 -6.875,24.375 z"
       style="font-style:normal;font-variant:normal;font-weight:normal;font-stretch:normal;font-size:160px;line-height:normal;font-family:Arial;fill:#009e73"
       id="path4908"
       inkscape:connector-curvature="0" />
  </g>
  <g
     aria-label="2"
     transform="matrix(0.0666667,0,0,0.0666667,89.9358,89.8433)"
     style="font-style:normal;font-variant:normal;font-weight:normal;font-stretch:normal;font-size:120px;line-height:normal;font-family:Arial;fill:#009e73"
     id="text72">
    <path
       d="M 60.410156,-10.136719 V 0 H 3.6328125 Q 3.515625,-3.8085938 4.8632812,-7.3242187 7.03125,-13.125 11.777344,-18.75 q 4.804687,-5.625 13.828125,-13.007812 14.003906,-11.484375 18.925781,-18.164063 4.921875,-6.738281 4.921875,-12.714844 0,-6.269531 -4.511719,-10.546875 -4.453125,-4.335937 -11.660156,-4.335937 -7.617188,0 -12.1875,4.570312 -4.570313,4.570313 -4.628906,12.65625 L 5.625,-61.40625 Q 6.7382812,-73.535156 14.003906,-79.863281 21.269531,-86.25 33.515625,-86.25 q 12.363281,0 19.570312,6.855469 7.207032,6.855469 7.207032,16.992187 0,5.15625 -2.109375,10.136719 -2.109375,4.980469 -7.03125,10.488281 -4.863282,5.507813 -16.230469,15.117188 -9.492188,7.96875 -12.1875,10.839843 -2.695313,2.8125 -4.453125,5.683594 z"
       style="font-style:normal;font-variant:normal;font-weight:normal;font-stretch:normal;font-size:120px;line-height:normal;font-family:Arial;fill:#009e73"
       id="path4903"
       inkscape:connector-curvature="0" />
  </g>
  <g
     aria-label="Zr(H)Cl"
     transform="matrix(0.0666667,0,0,0.0666667,94.3858,87.5767)"
     style="font-style:normal;font-variant:normal;font-weight:normal;font-stretch:normal;font-size:160px;line-height:normal;font-family:Arial;fill:#009e73"
     id="text74">
    <path
       d="M 3.203125,0 V -14.0625 L 61.875,-87.421875 q 6.25,-7.8125 11.875,-13.593755 H 9.84375 v -13.51562 H 91.875 v 13.51562 L 27.578125,-21.5625 20.625,-13.515625 H 93.75 V 0 Z"
       style="font-style:normal;font-variant:normal;font-weight:normal;font-stretch:normal;font-size:160px;line-height:normal;font-family:Arial;fill:#009e73"
       id="path4888"
       inkscape:connector-curvature="0" />
    <path
       d="m 108.20313,0 v -82.96875 h 12.65625 v 12.578125 q 4.84375,-8.828125 8.90624,-11.640625 4.14063,-2.8125 9.0625,-2.8125 7.10938,0 14.45313,4.53125 l -4.84375,13.046875 q -5.15625,-3.046875 -10.3125,-3.046875 -4.60938,0 -8.28125,2.8125 -3.67187,2.734375 -5.23437,7.65625 -2.34375,7.5 -2.34375,16.40625 V 0 Z"
       style="font-style:normal;font-variant:normal;font-weight:normal;font-stretch:normal;font-size:160px;line-height:normal;font-family:Arial;fill:#009e73"
       id="path4890"
       inkscape:connector-curvature="0" />
    <path
       d="m 188.67187,33.671875 q -11.64062,-14.6875 -19.6875,-34.375 -8.04687,-19.6875 -8.04687,-40.78125 0,-18.59375 6.01562,-35.625 7.03125,-19.765625 21.71875,-39.375005 H 198.75 q -9.45313,16.25 -12.5,23.20313 -4.76563,10.78125 -7.5,22.5 -3.35938,14.609375 -3.35938,29.375 0,37.578125 23.35938,75.078125 z"
       style="font-style:normal;font-variant:normal;font-weight:normal;font-stretch:normal;font-size:160px;line-height:normal;font-family:Arial;fill:#009e73"
       id="path4892"
       inkscape:connector-curvature="0" />
    <path
       d="m 217.5,0 v -114.53125 h 15.15625 V -67.5 h 59.53125 v -47.03125 h 15.15625 V 0 H 292.1875 V -53.984375 H 232.65625 V 0 Z"
       style="font-style:normal;font-variant:normal;font-weight:normal;font-stretch:normal;font-size:160px;line-height:normal;font-family:Arial;fill:#009e73"
       id="path4894"
       inkscape:connector-curvature="0" />
    <path
       d="M 340.07812,33.671875 H 330 q 23.35937,-37.5 23.35937,-75.078125 0,-14.6875 -3.35937,-29.140625 -2.65625,-11.71875 -7.42188,-22.5 Q 339.53125,-100.07813 330,-116.48438 h 10.07812 q 14.6875,19.60938 21.71875,39.375005 6.01563,17.03125 6.01563,35.625 0,21.09375 -8.125,40.78125 -8.04688,19.6875 -19.60938,34.375 z"
       style="font-style:normal;font-variant:normal;font-weight:normal;font-stretch:normal;font-size:160px;line-height:normal;font-family:Arial;fill:#009e73"
       id="path4896"
       inkscape:connector-curvature="0" />
    <path
       d="m 467.8125,-40.15625 15.15625,3.828125 q -4.76563,18.671875 -17.1875,28.515625 -12.34375,9.765625 -30.23438,9.765625 -18.51562,0 -30.15625,-7.5 -11.5625,-7.578125 -17.65625,-21.875 -6.01562,-14.296875 -6.01562,-30.703125 0,-17.890625 6.79687,-31.171875 6.875,-13.359375 19.45313,-20.234375 12.65625,-6.95313 27.8125,-6.95313 17.1875,0 28.90625,8.75 11.71875,8.750005 16.32812,24.60938 l -14.92187,3.515625 q -3.98438,-12.5 -11.5625,-18.203125 -7.57813,-5.70313 -19.0625,-5.70313 -13.20313,0 -22.10938,6.32813 -8.82812,6.328125 -12.42187,17.03125 -3.59375,10.625 -3.59375,21.953125 0,14.609375 4.21875,25.546875 4.29687,10.859375 13.28125,16.25 8.98437,5.390625 19.45312,5.390625 12.73438,0 21.5625,-7.34375 8.82813,-7.34375 11.95313,-21.796875 z"
       style="font-style:normal;font-variant:normal;font-weight:normal;font-stretch:normal;font-size:160px;line-height:normal;font-family:Arial;fill:#009e73"
       id="path4898"
       inkscape:connector-curvature="0" />
    <path
       d="m 499.60937,0 v -114.53125 h 14.0625 V 0 Z"
       style="font-style:normal;font-variant:normal;font-weight:normal;font-stretch:normal;font-size:160px;line-height:normal;font-family:Arial;fill:#009e73"
       id="path4900"
       inkscape:connector-curvature="0" />
  </g>
  <g
     aria-label="H"
     transform="matrix(0.0666667,0,0,0.0666667,171.638,98.0584)"
     style="font-style:normal;font-variant:normal;font-weight:normal;font-stretch:normal;font-size:160px;line-height:normal;font-family:Arial;fill:#009e73"
     id="text76">
    <path
       d="M 12.8125,0 V -114.53125 H 27.96875 V -67.5 H 87.5 v -47.03125 h 15.15625 V 0 H 87.5 V -53.984375 H 27.96875 V 0 Z"
       style="font-style:normal;font-variant:normal;font-weight:normal;font-stretch:normal;font-size:160px;line-height:normal;font-family:Arial;fill:#009e73"
       id="path4885"
       inkscape:connector-curvature="0" />
  </g>
  <path
     stroke="transparent"
     fill="#009e73"
     transform="matrix(0.0666667 0 0 0.0666667 -4.51118 -15.3333)"
     d="M 2770.24,1642.98 L 2770.24,1632.77 L 2925.14,1632.77 L 2930.24,1637.88 L 2921.4,1642.98 L 2770.24,1642.98 Z "
     id="path78" />
  <g
     aria-label="R"
     transform="matrix(0.0666667,0,0,0.0666667,3.40572,42.6987)"
     style="font-style:normal;font-variant:normal;font-weight:normal;font-stretch:normal;font-size:160px;line-height:normal;font-family:Arial;fill:#000000"
     id="text80">
    <path
       d="m 12.578125,0 v -114.53125 h 50.78125 q 15.3125,0 23.28125,3.125 7.96875,3.04687 12.734375,10.85937 4.76563,7.812505 4.76563,17.26563 0,12.1875 -7.89063,20.546875 -7.890625,8.359375 -24.375,10.625 6.015625,2.890625 9.140625,5.703125 6.640625,6.09375 12.578125,15.234375 L 113.51563,0 H 94.453125 l -15.15625,-23.828125 q -6.640625,-10.3125 -10.9375,-15.78125 -4.296875,-5.46875 -7.734375,-7.65625 -3.359375,-2.1875 -6.875,-3.046875 -2.578125,-0.546875 -8.4375,-0.546875 H 27.734375 V 0 Z m 15.15625,-63.984375 H 60.3125 q 10.390625,0 16.25,-2.109375 5.859375,-2.1875 8.90625,-6.875 3.046875,-4.765625 3.046875,-10.3125 0,-8.125 -5.9375,-13.359375 Q 76.71875,-101.875 63.984375,-101.875 h -36.25 z"
       style="font-style:normal;font-variant:normal;font-weight:normal;font-stretch:normal;font-size:160px;line-height:normal;font-family:Arial;fill:#000000"
       id="path4882"
       inkscape:connector-curvature="0" />
  </g>
  <g
     aria-label="1"
     transform="matrix(0.0666667,0,0,0.0666667,11.1391,38.4987)"
     style="font-style:normal;font-variant:normal;font-weight:normal;font-stretch:normal;font-size:120px;line-height:normal;font-family:Arial;fill:#000000"
     id="text82">
    <path
       d="M 44.707031,0 H 34.160156 v -67.207031 q -3.808594,3.632812 -10.019531,7.265625 -6.152344,3.632812 -11.074219,5.449219 V -64.6875 q 8.847656,-4.160156 15.46875,-10.078125 6.621094,-5.917969 9.375,-11.484375 h 6.796875 z"
       style="font-style:normal;font-variant:normal;font-weight:normal;font-stretch:normal;font-size:120px;line-height:normal;font-family:Arial;fill:#000000"
       id="path4879"
       inkscape:connector-curvature="0" />
  </g>
  <path
     stroke="transparent"
     fill="#000000"
     transform="matrix(0.0666667 0 0 0.0666667 -4.51118 -15.3333)"
     d="M 376.089,686.502 L 376.089,698.285 L 314.838,733.648 L 309.736,724.811 L 376.089,686.502 Z "
     id="path84" />
  <g
     aria-label="N"
     transform="matrix(0.0666667,0,0,0.0666667,29.9838,42.6987)"
     style="font-style:normal;font-variant:normal;font-weight:normal;font-stretch:normal;font-size:160px;line-height:normal;font-family:Arial;fill:#000000"
     id="text86">
    <path
       d="m 12.1875,0 v -114.53125 h 15.546875 l 60.15625,89.921875 V -114.53125 H 102.42188 V 0 H 86.875 L 26.71875,-90 V 0 Z"
       style="font-style:normal;font-variant:normal;font-weight:normal;font-stretch:normal;font-size:160px;line-height:normal;font-family:Arial;fill:#000000"
       id="path4876"
       inkscape:connector-curvature="0" />
  </g>
  <g
     aria-label="H"
     transform="matrix(0.0666667,0,0,0.0666667,29.9838,53.3653)"
     style="font-style:normal;font-variant:normal;font-weight:normal;font-stretch:normal;font-size:160px;line-height:normal;font-family:Arial;fill:#000000"
     id="text88">
    <path
       d="M 12.8125,0 V -114.53125 H 27.96875 V -67.5 H 87.5 v -47.03125 h 15.15625 V 0 H 87.5 V -53.984375 H 27.96875 V 0 Z"
       style="font-style:normal;font-variant:normal;font-weight:normal;font-stretch:normal;font-size:160px;line-height:normal;font-family:Arial;fill:#000000"
       id="path4873"
       inkscape:connector-curvature="0" />
  </g>
  <path
     stroke="transparent"
     fill="#000000"
     transform="matrix(0.0666667 0 0 0.0666667 -4.51118 -15.3333)"
     d="M 500.059,758.076 L 494.957,766.913 L 376.089,698.285 L 376.089,686.502 L 500.059,758.076 Z "
     id="path90" />
  <g
     aria-label="O"
     transform="matrix(0.0666667,0,0,0.0666667,16.4281,19.6813)"
     style="font-style:normal;font-variant:normal;font-weight:normal;font-stretch:normal;font-size:160px;line-height:normal;font-family:Arial;fill:#000000"
     id="text92">
    <path
       d="m 7.734375,-55.78125 q 0,-28.515625 15.3125,-44.60938 15.3125,-16.17187 39.53125,-16.17187 15.859375,0 28.59375,7.57812 12.734375,7.57813 19.375005,21.17188 6.71875,13.515625 6.71875,30.703125 0,17.421875 -7.03125,31.171875 -7.03125,13.75 -19.92188,20.859375 -12.890625,7.03125 -27.8125,7.03125 -16.171875,0 -28.90625,-7.8125 -12.734375,-7.8125 -19.296875,-21.328125 -6.5625,-13.515625 -6.5625,-28.59375 z m 15.625,0.234375 q 0,20.703125 11.09375,32.65625 11.171875,11.875 27.96875,11.875 17.109375,0 28.125,-12.03125 11.093755,-12.03125 11.093755,-34.140625 0,-13.984375 -4.76563,-24.375 -4.6875,-10.46875 -13.828125,-16.171875 -9.0625,-5.781255 -20.390625,-5.781255 -16.09375,0 -27.734375,11.093755 -11.5625,11.015625 -11.5625,36.875 z"
       style="font-style:normal;font-variant:normal;font-weight:normal;font-stretch:normal;font-size:160px;line-height:normal;font-family:Arial;fill:#000000"
       id="path4870"
       inkscape:connector-curvature="0" />
  </g>
  <path
     stroke="transparent"
     fill="#000000"
     transform="matrix(0.0666667 0 0 0.0666667 -4.51118 -15.3333)"
     d="M 350.271,553.887 L 360.476,553.887 L 360.476,704.353 L 350.271,704.353 L 350.271,553.887 Z "
     id="path94" />
  <path
     stroke="transparent"
     fill="#000000"
     transform="matrix(0.0666667 0 0 0.0666667 -4.51118 -15.3333)"
     d="M 391.703,553.887 L 401.907,553.887 L 401.907,704.353 L 391.703,704.353 L 391.703,553.887 Z "
     id="path96" />
  <g
     aria-label="R"
     transform="matrix(0.0666667,0,0,0.0666667,43.2729,35.0262)"
     style="font-style:normal;font-variant:normal;font-weight:normal;font-stretch:normal;font-size:160px;line-height:normal;font-family:Arial;fill:#000000"
     id="text98">
    <path
       d="m 12.578125,0 v -114.53125 h 50.78125 q 15.3125,0 23.28125,3.125 7.96875,3.04687 12.734375,10.85937 4.76563,7.812505 4.76563,17.26563 0,12.1875 -7.89063,20.546875 -7.890625,8.359375 -24.375,10.625 6.015625,2.890625 9.140625,5.703125 6.640625,6.09375 12.578125,15.234375 L 113.51563,0 H 94.453125 l -15.15625,-23.828125 q -6.640625,-10.3125 -10.9375,-15.78125 -4.296875,-5.46875 -7.734375,-7.65625 -3.359375,-2.1875 -6.875,-3.046875 -2.578125,-0.546875 -8.4375,-0.546875 H 27.734375 V 0 Z m 15.15625,-63.984375 H 60.3125 q 10.390625,0 16.25,-2.109375 5.859375,-2.1875 8.90625,-6.875 3.046875,-4.765625 3.046875,-10.3125 0,-8.125 -5.9375,-13.359375 Q 76.71875,-101.875 63.984375,-101.875 h -36.25 z"
       style="font-style:normal;font-variant:normal;font-weight:normal;font-stretch:normal;font-size:160px;line-height:normal;font-family:Arial;fill:#000000"
       id="path4867"
       inkscape:connector-curvature="0" />
  </g>
  <g
     aria-label="2"
     transform="matrix(0.0666667,0,0,0.0666667,51.0062,30.8262)"
     style="font-style:normal;font-variant:normal;font-weight:normal;font-stretch:normal;font-size:120px;line-height:normal;font-family:Arial;fill:#000000"
     id="text100">
    <path
       d="M 60.410156,-10.136719 V 0 H 3.6328125 Q 3.515625,-3.8085938 4.8632812,-7.3242187 7.03125,-13.125 11.777344,-18.75 q 4.804687,-5.625 13.828125,-13.007812 14.003906,-11.484375 18.925781,-18.164063 4.921875,-6.738281 4.921875,-12.714844 0,-6.269531 -4.511719,-10.546875 -4.453125,-4.335937 -11.660156,-4.335937 -7.617188,0 -12.1875,4.570312 -4.570313,4.570313 -4.628906,12.65625 L 5.625,-61.40625 Q 6.7382812,-73.535156 14.003906,-79.863281 21.269531,-86.25 33.515625,-86.25 q 12.363281,0 19.570312,6.855469 7.207032,6.855469 7.207032,16.992187 0,5.15625 -2.109375,10.136719 -2.109375,4.980469 -7.03125,10.488281 -4.863282,5.507813 -16.230469,15.117188 -9.492188,7.96875 -12.1875,10.839843 -2.695313,2.8125 -4.453125,5.683594 z"
       style="font-style:normal;font-variant:normal;font-weight:normal;font-stretch:normal;font-size:120px;line-height:normal;font-family:Arial;fill:#000000"
       id="path4864"
       inkscape:connector-curvature="0" />
  </g>
  <path
     stroke="transparent"
     fill="#000000"
     transform="matrix(0.0666667 0 0 0.0666667 -4.51118 -15.3333)"
     d="M 689.24,735.877 L 694.343,744.714 L 655.143,767.346 L 650.041,758.509 L 689.24,735.877 Z "
     id="path102" />
  <path
     stroke="transparent"
     fill="#000000"
     transform="matrix(0.0666667 0 0 0.0666667 -4.51118 -15.3333)"
     d="M 2199.97,703.091 L 1121.02,703.091 L 1121.02,693.091 L 2199.97,693.091 Z "
     id="path104" />
  <path
     stroke="transparent"
     fill="#000000"
     transform="matrix(0.0666667 0 0 0.0666667 -4.51118 -15.3333)"
     d="M 2288.26,698.091 C 2288.26,698.091 2186.22,724.602 2186.22,724.602 C 2186.22,724.602 2198.97,709.689 2198.97,698.091 C 2198.97,686.055 2186.22,670.58 2186.22,670.58 C 2186.22,670.58 2288.26,698.091 2288.26,698.091 C 2288.26,698.091 2288.26,698.091 2288.26,698.091 "
     id="path106" />
  <path
     stroke="#000000"
     stroke-width="1"
     fill="transparent"
     transform="matrix(0.0666667 0 0 0.0666667 -4.51118 -15.3333)"
     d="M 2288.26,698.091 C 2288.26,698.091 2186.22,724.602 2186.22,724.602 C 2186.22,724.602 2198.97,709.689 2198.97,698.091 C 2198.97,686.055 2186.22,670.58 2186.22,670.58 C 2186.22,670.58 2288.26,698.091 2288.26,698.091 C 2288.26,698.091 2288.26,698.091 2288.26,698.091 "
     id="path108" />
  <g
     aria-label="R"
     transform="matrix(0.0666667,0,0,0.0666667,179.8,48.0788)"
     style="font-style:normal;font-variant:normal;font-weight:normal;font-stretch:normal;font-size:160px;line-height:normal;font-family:Arial;fill:#000000"
     id="text110">
    <path
       d="m 12.578125,0 v -114.53125 h 50.78125 q 15.3125,0 23.28125,3.125 7.96875,3.04687 12.734375,10.85937 4.76563,7.812505 4.76563,17.26563 0,12.1875 -7.89063,20.546875 -7.890625,8.359375 -24.375,10.625 6.015625,2.890625 9.140625,5.703125 6.640625,6.09375 12.578125,15.234375 L 113.51563,0 H 94.453125 l -15.15625,-23.828125 q -6.640625,-10.3125 -10.9375,-15.78125 -4.296875,-5.46875 -7.734375,-7.65625 -3.359375,-2.1875 -6.875,-3.046875 -2.578125,-0.546875 -8.4375,-0.546875 H 27.734375 V 0 Z m 15.15625,-63.984375 H 60.3125 q 10.390625,0 16.25,-2.109375 5.859375,-2.1875 8.90625,-6.875 3.046875,-4.765625 3.046875,-10.3125 0,-8.125 -5.9375,-13.359375 Q 76.71875,-101.875 63.984375,-101.875 h -36.25 z"
       style="font-style:normal;font-variant:normal;font-weight:normal;font-stretch:normal;font-size:160px;line-height:normal;font-family:Arial;fill:#000000"
       id="path4861"
       inkscape:connector-curvature="0" />
  </g>
  <g
     aria-label="1"
     transform="matrix(0.0666667,0,0,0.0666667,187.533,43.8788)"
     style="font-style:normal;font-variant:normal;font-weight:normal;font-stretch:normal;font-size:120px;line-height:normal;font-family:Arial;fill:#000000"
     id="text112">
    <path
       d="M 44.707031,0 H 34.160156 v -67.207031 q -3.808594,3.632812 -10.019531,7.265625 -6.152344,3.632812 -11.074219,5.449219 V -64.6875 q 8.847656,-4.160156 15.46875,-10.078125 6.621094,-5.917969 9.375,-11.484375 h 6.796875 z"
       style="font-style:normal;font-variant:normal;font-weight:normal;font-stretch:normal;font-size:120px;line-height:normal;font-family:Arial;fill:#000000"
       id="path4858"
       inkscape:connector-curvature="0" />
  </g>
  <path
     stroke="transparent"
     fill="#000000"
     transform="matrix(0.0666667 0 0 0.0666667 -4.51118 -15.3333)"
     d="M 2928.83,694.099 L 2937.67,688.996 L 2939.53,695.966 L 2885.51,789.54 L 2876.67,784.438 L 2928.83,694.099 Z "
     id="path114" />
  <g
     aria-label="N"
     transform="matrix(0.0666667,0,0,0.0666667,200.746,42.4664)"
     style="font-style:normal;font-variant:normal;font-weight:normal;font-stretch:normal;font-size:160px;line-height:normal;font-family:Arial;fill:#000000"
     id="text116">
    <path
       d="m 12.1875,0 v -114.53125 h 15.546875 l 60.15625,89.921875 V -114.53125 H 102.42188 V 0 H 86.875 L 26.71875,-90 V 0 Z"
       style="font-style:normal;font-variant:normal;font-weight:normal;font-stretch:normal;font-size:160px;line-height:normal;font-family:Arial;fill:#000000"
       id="path4855"
       inkscape:connector-curvature="0" />
  </g>
  <g
     aria-label="H"
     transform="matrix(0.0666667,0,0,0.0666667,200.746,53.1331)"
     style="font-style:normal;font-variant:normal;font-weight:normal;font-stretch:normal;font-size:160px;line-height:normal;font-family:Arial;fill:#000000"
     id="text118">
    <path
       d="M 12.8125,0 V -114.53125 H 27.96875 V -67.5 H 87.5 v -47.03125 h 15.15625 V 0 H 87.5 V -53.984375 H 27.96875 V 0 Z"
       style="font-style:normal;font-variant:normal;font-weight:normal;font-stretch:normal;font-size:160px;line-height:normal;font-family:Arial;fill:#000000"
       id="path4852"
       inkscape:connector-curvature="0" />
  </g>
  <path
     stroke="transparent"
     fill="#000000"
     transform="matrix(0.0666667 0 0 0.0666667 -4.51118 -15.3333)"
     d="M 3061.49,754.592 L 3056.38,763.43 L 2939.53,695.966 L 2937.67,688.996 L 2942.77,686.051 L 3061.49,754.592 Z "
     id="path120" />
  <g
     aria-label="O"
     transform="matrix(0.0666667,0,0,0.0666667,187.2,19.4664)"
     style="font-style:normal;font-variant:normal;font-weight:normal;font-stretch:normal;font-size:160px;line-height:normal;font-family:Arial;fill:#000000"
     id="text122">
    <path
       d="m 7.734375,-55.78125 q 0,-28.515625 15.3125,-44.60938 15.3125,-16.17187 39.53125,-16.17187 15.859375,0 28.59375,7.57812 12.734375,7.57813 19.375005,21.17188 6.71875,13.515625 6.71875,30.703125 0,17.421875 -7.03125,31.171875 -7.03125,13.75 -19.92188,20.859375 -12.890625,7.03125 -27.8125,7.03125 -16.171875,0 -28.90625,-7.8125 -12.734375,-7.8125 -19.296875,-21.328125 -6.5625,-13.515625 -6.5625,-28.59375 z m 15.625,0.234375 q 0,20.703125 11.09375,32.65625 11.171875,11.875 27.96875,11.875 17.109375,0 28.125,-12.03125 11.093755,-12.03125 11.093755,-34.140625 0,-13.984375 -4.76563,-24.375 -4.6875,-10.46875 -13.828125,-16.171875 -9.0625,-5.781255 -20.390625,-5.781255 -16.09375,0 -27.734375,11.093755 -11.5625,11.015625 -11.5625,36.875 z"
       style="font-style:normal;font-variant:normal;font-weight:normal;font-stretch:normal;font-size:160px;line-height:normal;font-family:Arial;fill:#000000"
       id="path4849"
       inkscape:connector-curvature="0" />
  </g>
  <path
     stroke="transparent"
     fill="#000000"
     transform="matrix(0.0666667 0 0 0.0666667 -4.51118 -15.3333)"
     d="M 2932.56,550.663 L 2942.77,550.663 L 2942.77,686.051 L 2937.67,688.996 L 2932.56,683.894 L 2932.56,550.663 Z "
     id="path124" />
  <g
     aria-label="R"
     transform="matrix(0.0666667,0,0,0.0666667,214.025,34.7998)"
     style="font-style:normal;font-variant:normal;font-weight:normal;font-stretch:normal;font-size:160px;line-height:normal;font-family:Arial;fill:#000000"
     id="text126">
    <path
       d="m 12.578125,0 v -114.53125 h 50.78125 q 15.3125,0 23.28125,3.125 7.96875,3.04687 12.734375,10.85937 4.76563,7.812505 4.76563,17.26563 0,12.1875 -7.89063,20.546875 -7.890625,8.359375 -24.375,10.625 6.015625,2.890625 9.140625,5.703125 6.640625,6.09375 12.578125,15.234375 L 113.51563,0 H 94.453125 l -15.15625,-23.828125 q -6.640625,-10.3125 -10.9375,-15.78125 -4.296875,-5.46875 -7.734375,-7.65625 -3.359375,-2.1875 -6.875,-3.046875 -2.578125,-0.546875 -8.4375,-0.546875 H 27.734375 V 0 Z m 15.15625,-63.984375 H 60.3125 q 10.390625,0 16.25,-2.109375 5.859375,-2.1875 8.90625,-6.875 3.046875,-4.765625 3.046875,-10.3125 0,-8.125 -5.9375,-13.359375 Q 76.71875,-101.875 63.984375,-101.875 h -36.25 z"
       style="font-style:normal;font-variant:normal;font-weight:normal;font-stretch:normal;font-size:160px;line-height:normal;font-family:Arial;fill:#000000"
       id="path4846"
       inkscape:connector-curvature="0" />
  </g>
  <g
     aria-label="2"
     transform="matrix(0.0666667,0,0,0.0666667,221.758,30.5998)"
     style="font-style:normal;font-variant:normal;font-weight:normal;font-stretch:normal;font-size:120px;line-height:normal;font-family:Arial;fill:#000000"
     id="text128">
    <path
       d="M 60.410156,-10.136719 V 0 H 3.6328125 Q 3.515625,-3.8085938 4.8632812,-7.3242187 7.03125,-13.125 11.777344,-18.75 q 4.804687,-5.625 13.828125,-13.007812 14.003906,-11.484375 18.925781,-18.164063 4.921875,-6.738281 4.921875,-12.714844 0,-6.269531 -4.511719,-10.546875 -4.453125,-4.335937 -11.660156,-4.335937 -7.617188,0 -12.1875,4.570312 -4.570313,4.570313 -4.628906,12.65625 L 5.625,-61.40625 Q 6.7382812,-73.535156 14.003906,-79.863281 21.269531,-86.25 33.515625,-86.25 q 12.363281,0 19.570312,6.855469 7.207032,6.855469 7.207032,16.992187 0,5.15625 -2.109375,10.136719 -2.109375,4.980469 -7.03125,10.488281 -4.863282,5.507813 -16.230469,15.117188 -9.492188,7.96875 -12.1875,10.839843 -2.695313,2.8125 -4.453125,5.683594 z"
       style="font-style:normal;font-variant:normal;font-weight:normal;font-stretch:normal;font-size:120px;line-height:normal;font-family:Arial;fill:#000000"
       id="path4843"
       inkscape:connector-curvature="0" />
  </g>
  <path
     stroke="transparent"
     fill="#000000"
     transform="matrix(0.0666667 0 0 0.0666667 -4.51118 -15.3333)"
     d="M 3250.52,732.48 L 3255.62,741.317 L 3216.57,763.863 L 3211.47,755.025 L 3250.52,732.48 Z "
     id="path130" />
  <g
     aria-label="ZrCp"
     transform="matrix(0.0666667,0,0,0.0666667,201.346,11.7998)"
     style="font-style:normal;font-variant:normal;font-weight:normal;font-stretch:normal;font-size:160px;line-height:normal;font-family:Arial;fill:#009e73"
     id="text132">
    <path
       d="M 3.203125,0 V -14.0625 L 61.875,-87.421875 q 6.25,-7.8125 11.875,-13.593755 H 9.84375 v -13.51562 H 91.875 v 13.51562 L 27.578125,-21.5625 20.625,-13.515625 H 93.75 V 0 Z"
       style="font-style:normal;font-variant:normal;font-weight:normal;font-stretch:normal;font-size:160px;line-height:normal;font-family:Arial;fill:#009e73"
       id="path4834"
       inkscape:connector-curvature="0" />
    <path
       d="m 108.20313,0 v -82.96875 h 12.65625 v 12.578125 q 4.84375,-8.828125 8.90624,-11.640625 4.14063,-2.8125 9.0625,-2.8125 7.10938,0 14.45313,4.53125 l -4.84375,13.046875 q -5.15625,-3.046875 -10.3125,-3.046875 -4.60938,0 -8.28125,2.8125 -3.67187,2.734375 -5.23437,7.65625 -2.34375,7.5 -2.34375,16.40625 V 0 Z"
       style="font-style:normal;font-variant:normal;font-weight:normal;font-stretch:normal;font-size:160px;line-height:normal;font-family:Arial;fill:#009e73"
       id="path4836"
       inkscape:connector-curvature="0" />
    <path
       d="m 245.3125,-40.15625 15.15625,3.828125 q -4.76563,18.671875 -17.1875,28.515625 -12.34375,9.765625 -30.23438,9.765625 -18.51562,0 -30.15625,-7.5 -11.5625,-7.578125 -17.65625,-21.875 -6.01562,-14.296875 -6.01562,-30.703125 0,-17.890625 6.79687,-31.171875 6.875,-13.359375 19.45313,-20.234375 12.65625,-6.95313 27.8125,-6.95313 17.1875,0 28.90625,8.75 11.71875,8.750005 16.32812,24.60938 l -14.92187,3.515625 q -3.98438,-12.5 -11.5625,-18.203125 -7.57813,-5.70313 -19.0625,-5.70313 -13.20313,0 -22.10938,6.32813 -8.82812,6.328125 -12.42187,17.03125 -3.59375,10.625 -3.59375,21.953125 0,14.609375 4.21875,25.546875 4.29687,10.859375 13.28125,16.25 8.98437,5.390625 19.45312,5.390625 12.73438,0 21.5625,-7.34375 8.82813,-7.34375 11.95313,-21.796875 z"
       style="font-style:normal;font-variant:normal;font-weight:normal;font-stretch:normal;font-size:160px;line-height:normal;font-family:Arial;fill:#009e73"
       id="path4838"
       inkscape:connector-curvature="0" />
    <path
       d="M 277.42187,31.796875 V -82.96875 h 12.8125 v 10.78125 q 4.53125,-6.328125 10.23438,-9.453125 5.70312,-3.203125 13.82812,-3.203125 10.625,0 18.75,5.46875 8.125,5.46875 12.26563,15.46875 4.14062,9.921875 4.14062,21.796875 0,12.734375 -4.60937,22.96875 -4.53125,10.15625 -13.28125,15.625 Q 322.89062,1.875 313.28125,1.875 q -7.03125,0 -12.65625,-2.96875 -5.54688,-2.96875 -9.14063,-7.5 v 40.390625 z m 12.73438,-72.8125 q 0,16.015625 6.48437,23.671875 6.48438,7.65625 15.70313,7.65625 9.375,0 16.01562,-7.890625 6.71875,-7.96875 6.71875,-24.609375 0,-15.859375 -6.5625,-23.75 -6.48437,-7.890625 -15.54687,-7.890625 -8.98438,0 -15.9375,8.4375 -6.875,8.359375 -6.875,24.375 z"
       style="font-style:normal;font-variant:normal;font-weight:normal;font-stretch:normal;font-size:160px;line-height:normal;font-family:Arial;fill:#009e73"
       id="path4840"
       inkscape:connector-curvature="0" />
  </g>
  <g
     aria-label="2"
     transform="matrix(0.0666667,0,0,0.0666667,225.098,14.0664)"
     style="font-style:normal;font-variant:normal;font-weight:normal;font-stretch:normal;font-size:120px;line-height:normal;font-family:Arial;fill:#009e73"
     id="text134">
    <path
       d="M 60.410156,-10.136719 V 0 H 3.6328125 Q 3.515625,-3.8085938 4.8632812,-7.3242187 7.03125,-13.125 11.777344,-18.75 q 4.804687,-5.625 13.828125,-13.007812 14.003906,-11.484375 18.925781,-18.164063 4.921875,-6.738281 4.921875,-12.714844 0,-6.269531 -4.511719,-10.546875 -4.453125,-4.335937 -11.660156,-4.335937 -7.617188,0 -12.1875,4.570312 -4.570313,4.570313 -4.628906,12.65625 L 5.625,-61.40625 Q 6.7382812,-73.535156 14.003906,-79.863281 21.269531,-86.25 33.515625,-86.25 q 12.363281,0 19.570312,6.855469 7.207032,6.855469 7.207032,16.992187 0,5.15625 -2.109375,10.136719 -2.109375,4.980469 -7.03125,10.488281 -4.863282,5.507813 -16.230469,15.117188 -9.492188,7.96875 -12.1875,10.839843 -2.695313,2.8125 -4.453125,5.683594 z"
       style="font-style:normal;font-variant:normal;font-weight:normal;font-stretch:normal;font-size:120px;line-height:normal;font-family:Arial;fill:#009e73"
       id="path4831"
       inkscape:connector-curvature="0" />
  </g>
  <g
     aria-label="Cl"
     transform="matrix(0.0666667,0,0,0.0666667,229.548,11.7998)"
     style="font-style:normal;font-variant:normal;font-weight:normal;font-stretch:normal;font-size:160px;line-height:normal;font-family:Arial;fill:#009e73"
     id="text136">
    <path
       d="m 94.0625,-40.15625 15.15625,3.828125 Q 104.45313,-17.65625 92.03125,-7.8125 79.6875,1.953125 61.796875,1.953125 q -18.515625,0 -30.15625,-7.5 -11.5625,-7.578125 -17.65625,-21.875 Q 7.96875,-41.71875 7.96875,-58.125 q 0,-17.890625 6.796875,-31.171875 6.875,-13.359375 19.453125,-20.234375 12.65625,-6.95313 27.8125,-6.95313 17.1875,0 28.90625,8.75 11.71875,8.750005 16.32813,24.60938 l -14.92188,3.515625 q -3.984375,-12.5 -11.5625,-18.203125 -7.578125,-5.70313 -19.0625,-5.70313 -13.203125,0 -22.109375,6.32813 -8.828125,6.328125 -12.421875,17.03125 -3.59375,10.625 -3.59375,21.953125 0,14.609375 4.21875,25.546875 4.296875,10.859375 13.28125,16.25 8.984375,5.390625 19.453125,5.390625 12.734375,0 21.5625,-7.34375 8.828125,-7.34375 11.953125,-21.796875 z"
       style="font-style:normal;font-variant:normal;font-weight:normal;font-stretch:normal;font-size:160px;line-height:normal;font-family:Arial;fill:#009e73"
       id="path4826"
       inkscape:connector-curvature="0" />
    <path
       d="m 125.85938,0 v -114.53125 h 14.06249 V 0 Z"
       style="font-style:normal;font-variant:normal;font-weight:normal;font-stretch:normal;font-size:160px;line-height:normal;font-family:Arial;fill:#009e73"
       id="path4828"
       inkscape:connector-curvature="0" />
  </g>
  <path
     stroke="transparent"
     fill="#000000"
     transform="matrix(0.0666667 0 0 0.0666667 -4.51118 -15.3333)"
     d="M 3051.33,387.48 L 3056.43,396.317 L 3009.5,423.413 L 3004.4,414.576 L 3051.33,387.48 Z "
     id="path138" />
  <g
     aria-label="Cp"
     transform="matrix(0.0666667,0,0,0.0666667,76.7691,24.3267)"
     style="font-style:normal;font-variant:normal;font-weight:normal;font-stretch:normal;font-size:160px;line-height:normal;font-family:Arial;fill:#009e73"
     id="text140">
    <path
       d="m 94.0625,-40.15625 15.15625,3.828125 Q 104.45313,-17.65625 92.03125,-7.8125 79.6875,1.953125 61.796875,1.953125 q -18.515625,0 -30.15625,-7.5 -11.5625,-7.578125 -17.65625,-21.875 Q 7.96875,-41.71875 7.96875,-58.125 q 0,-17.890625 6.796875,-31.171875 6.875,-13.359375 19.453125,-20.234375 12.65625,-6.95313 27.8125,-6.95313 17.1875,0 28.90625,8.75 11.71875,8.750005 16.32813,24.60938 l -14.92188,3.515625 q -3.984375,-12.5 -11.5625,-18.203125 -7.578125,-5.70313 -19.0625,-5.70313 -13.203125,0 -22.109375,6.32813 -8.828125,6.328125 -12.421875,17.03125 -3.59375,10.625 -3.59375,21.953125 0,14.609375 4.21875,25.546875 4.296875,10.859375 13.28125,16.25 8.984375,5.390625 19.453125,5.390625 12.734375,0 21.5625,-7.34375 8.828125,-7.34375 11.953125,-21.796875 z"
       style="font-style:normal;font-variant:normal;font-weight:normal;font-stretch:normal;font-size:160px;line-height:normal;font-family:Arial;fill:#009e73"
       id="path4821"
       inkscape:connector-curvature="0" />
    <path
       d="M 126.17188,31.796875 V -82.96875 h 12.81249 v 10.78125 q 4.53125,-6.328125 10.23438,-9.453125 5.70312,-3.203125 13.82812,-3.203125 10.625,0 18.75,5.46875 8.125,5.46875 12.26563,15.46875 4.14062,9.921875 4.14062,21.796875 0,12.734375 -4.60937,22.96875 -4.53125,10.15625 -13.28125,15.625 Q 171.64062,1.875 162.03125,1.875 155,1.875 149.375,-1.09375 q -5.54688,-2.96875 -9.14063,-7.5 v 40.390625 z m 12.73437,-72.8125 q 0,16.015625 6.48437,23.671875 6.48438,7.65625 15.70313,7.65625 9.375,0 16.01562,-7.890625 6.71875,-7.96875 6.71875,-24.609375 0,-15.859375 -6.5625,-23.75 -6.48437,-7.890625 -15.54687,-7.890625 -8.98438,0 -15.9375,8.4375 -6.875,8.359375 -6.875,24.375 z"
       style="font-style:normal;font-variant:normal;font-weight:normal;font-stretch:normal;font-size:160px;line-height:normal;font-family:Arial;fill:#009e73"
       id="path4823"
       inkscape:connector-curvature="0" />
  </g>
  <g
     aria-label="2"
     transform="matrix(0.0666667,0,0,0.0666667,90.4358,26.5933)"
     style="font-style:normal;font-variant:normal;font-weight:normal;font-stretch:normal;font-size:120px;line-height:normal;font-family:Arial;fill:#009e73"
     id="text142">
    <path
       d="M 60.410156,-10.136719 V 0 H 3.6328125 Q 3.515625,-3.8085938 4.8632812,-7.3242187 7.03125,-13.125 11.777344,-18.75 q 4.804687,-5.625 13.828125,-13.007812 14.003906,-11.484375 18.925781,-18.164063 4.921875,-6.738281 4.921875,-12.714844 0,-6.269531 -4.511719,-10.546875 -4.453125,-4.335937 -11.660156,-4.335937 -7.617188,0 -12.1875,4.570312 -4.570313,4.570313 -4.628906,12.65625 L 5.625,-61.40625 Q 6.7382812,-73.535156 14.003906,-79.863281 21.269531,-86.25 33.515625,-86.25 q 12.363281,0 19.570312,6.855469 7.207032,6.855469 7.207032,16.992187 0,5.15625 -2.109375,10.136719 -2.109375,4.980469 -7.03125,10.488281 -4.863282,5.507813 -16.230469,15.117188 -9.492188,7.96875 -12.1875,10.839843 -2.695313,2.8125 -4.453125,5.683594 z"
       style="font-style:normal;font-variant:normal;font-weight:normal;font-stretch:normal;font-size:120px;line-height:normal;font-family:Arial;fill:#009e73"
       id="path4818"
       inkscape:connector-curvature="0" />
  </g>
  <g
     aria-label="Zr(H)Cl"
     transform="matrix(0.0666667,0,0,0.0666667,94.8858,24.3267)"
     style="font-style:normal;font-variant:normal;font-weight:normal;font-stretch:normal;font-size:160px;line-height:normal;font-family:Arial;fill:#009e73"
     id="text144">
    <path
       d="M 3.203125,0 V -14.0625 L 61.875,-87.421875 q 6.25,-7.8125 11.875,-13.593755 H 9.84375 v -13.51562 H 91.875 v 13.51562 L 27.578125,-21.5625 20.625,-13.515625 H 93.75 V 0 Z"
       style="font-style:normal;font-variant:normal;font-weight:normal;font-stretch:normal;font-size:160px;line-height:normal;font-family:Arial;fill:#009e73"
       id="path4803"
       inkscape:connector-curvature="0" />
    <path
       d="m 108.20313,0 v -82.96875 h 12.65625 v 12.578125 q 4.84375,-8.828125 8.90624,-11.640625 4.14063,-2.8125 9.0625,-2.8125 7.10938,0 14.45313,4.53125 l -4.84375,13.046875 q -5.15625,-3.046875 -10.3125,-3.046875 -4.60938,0 -8.28125,2.8125 -3.67187,2.734375 -5.23437,7.65625 -2.34375,7.5 -2.34375,16.40625 V 0 Z"
       style="font-style:normal;font-variant:normal;font-weight:normal;font-stretch:normal;font-size:160px;line-height:normal;font-family:Arial;fill:#009e73"
       id="path4805"
       inkscape:connector-curvature="0" />
    <path
       d="m 188.67187,33.671875 q -11.64062,-14.6875 -19.6875,-34.375 -8.04687,-19.6875 -8.04687,-40.78125 0,-18.59375 6.01562,-35.625 7.03125,-19.765625 21.71875,-39.375005 H 198.75 q -9.45313,16.25 -12.5,23.20313 -4.76563,10.78125 -7.5,22.5 -3.35938,14.609375 -3.35938,29.375 0,37.578125 23.35938,75.078125 z"
       style="font-style:normal;font-variant:normal;font-weight:normal;font-stretch:normal;font-size:160px;line-height:normal;font-family:Arial;fill:#009e73"
       id="path4807"
       inkscape:connector-curvature="0" />
    <path
       d="m 217.5,0 v -114.53125 h 15.15625 V -67.5 h 59.53125 v -47.03125 h 15.15625 V 0 H 292.1875 V -53.984375 H 232.65625 V 0 Z"
       style="font-style:normal;font-variant:normal;font-weight:normal;font-stretch:normal;font-size:160px;line-height:normal;font-family:Arial;fill:#009e73"
       id="path4809"
       inkscape:connector-curvature="0" />
    <path
       d="M 340.07812,33.671875 H 330 q 23.35937,-37.5 23.35937,-75.078125 0,-14.6875 -3.35937,-29.140625 -2.65625,-11.71875 -7.42188,-22.5 Q 339.53125,-100.07813 330,-116.48438 h 10.07812 q 14.6875,19.60938 21.71875,39.375005 6.01563,17.03125 6.01563,35.625 0,21.09375 -8.125,40.78125 -8.04688,19.6875 -19.60938,34.375 z"
       style="font-style:normal;font-variant:normal;font-weight:normal;font-stretch:normal;font-size:160px;line-height:normal;font-family:Arial;fill:#009e73"
       id="path4811"
       inkscape:connector-curvature="0" />
    <path
       d="m 467.8125,-40.15625 15.15625,3.828125 q -4.76563,18.671875 -17.1875,28.515625 -12.34375,9.765625 -30.23438,9.765625 -18.51562,0 -30.15625,-7.5 -11.5625,-7.578125 -17.65625,-21.875 -6.01562,-14.296875 -6.01562,-30.703125 0,-17.890625 6.79687,-31.171875 6.875,-13.359375 19.45313,-20.234375 12.65625,-6.95313 27.8125,-6.95313 17.1875,0 28.90625,8.75 11.71875,8.750005 16.32812,24.60938 l -14.92187,3.515625 q -3.98438,-12.5 -11.5625,-18.203125 -7.57813,-5.70313 -19.0625,-5.70313 -13.20313,0 -22.10938,6.32813 -8.82812,6.328125 -12.42187,17.03125 -3.59375,10.625 -3.59375,21.953125 0,14.609375 4.21875,25.546875 4.29687,10.859375 13.28125,16.25 8.98437,5.390625 19.45312,5.390625 12.73438,0 21.5625,-7.34375 8.82813,-7.34375 11.95313,-21.796875 z"
       style="font-style:normal;font-variant:normal;font-weight:normal;font-stretch:normal;font-size:160px;line-height:normal;font-family:Arial;fill:#009e73"
       id="path4813"
       inkscape:connector-curvature="0" />
    <path
       d="m 499.60937,0 v -114.53125 h 14.0625 V 0 Z"
       style="font-style:normal;font-variant:normal;font-weight:normal;font-stretch:normal;font-size:160px;line-height:normal;font-family:Arial;fill:#009e73"
       id="path4815"
       inkscape:connector-curvature="0" />
  </g>
  <g
     aria-label="H"
     transform="matrix(0.0666667,0,0,0.0666667,172.133,34.7998)"
     style="font-style:normal;font-variant:normal;font-weight:normal;font-stretch:normal;font-size:160px;line-height:normal;font-family:Arial;fill:#009e73"
     id="text146">
    <path
       d="M 12.8125,0 V -114.53125 H 27.96875 V -67.5 H 87.5 v -47.03125 h 15.15625 V 0 H 87.5 V -53.984375 H 27.96875 V 0 Z"
       style="font-style:normal;font-variant:normal;font-weight:normal;font-stretch:normal;font-size:160px;line-height:normal;font-family:Arial;fill:#009e73"
       id="path4800"
       inkscape:connector-curvature="0" />
  </g>
  <path
     stroke="transparent"
     fill="#009e73"
     transform="matrix(0.0666667 0 0 0.0666667 -4.51118 -15.3333)"
     d="M 2777.67,694.099 L 2777.67,683.894 L 2932.56,683.894 L 2937.67,688.996 L 2928.83,694.099 L 2777.67,694.099 Z "
     id="path148" />
  <path
     stroke="transparent"
     fill="#cc79a7"
     transform="matrix(0.0666667 0 0 0.0666667 -4.51118 -15.3333)"
     d="M 4654.21,1651.84 L 3715,1651.84 L 3715,1641.84 L 4654.21,1641.84 Z "
     id="path150" />
  <path
     stroke="transparent"
     fill="#cc79a7"
     transform="matrix(0.0666667 0 0 0.0666667 -4.51118 -15.3333)"
     d="M 4742.5,1646.84 C 4742.5,1646.84 4640.46,1673.35 4640.46,1673.35 C 4640.46,1673.35 4653.21,1658.44 4653.21,1646.84 C 4653.21,1634.8 4640.46,1619.33 4640.46,1619.33 C 4640.46,1619.33 4742.5,1646.84 4742.5,1646.84 C 4742.5,1646.84 4742.5,1646.84 4742.5,1646.84 "
     id="path152" />
  <path
     stroke="#cc79a7"
     stroke-width="1"
     fill="transparent"
     transform="matrix(0.0666667 0 0 0.0666667 -4.51118 -15.3333)"
     d="M 4742.5,1646.84 C 4742.5,1646.84 4640.46,1673.35 4640.46,1673.35 C 4640.46,1673.35 4653.21,1658.44 4653.21,1646.84 C 4653.21,1634.8 4640.46,1619.33 4640.46,1619.33 C 4640.46,1619.33 4742.5,1646.84 4742.5,1646.84 C 4742.5,1646.84 4742.5,1646.84 4742.5,1646.84 "
     id="path154"
     style="fill:#cc79a7" />
  <path
     stroke="transparent"
     fill="#cc79a7"
     transform="matrix(0.0666667 0 0 0.0666667 -4.51118 -15.3333)"
     d="M 4276.28,1701.36 L 4174.23,1599.32 L 4181.23,1592.32 L 4283.28,1694.36 Z "
     id="path156" />
  <path
     stroke="transparent"
     fill="#cc79a7"
     transform="matrix(0.0666667 0 0 0.0666667 -4.51118 -15.3333)"
     d="M 4174.23,1694.36 L 4276.28,1592.32 L 4283.28,1599.32 L 4181.23,1701.36 Z "
     id="path158" />
  <path
     stroke="transparent"
     fill="#000000"
     transform="matrix(0.0666667 0 0 0.0666667 -4.51118 -15.3333)"
     d="M 4661.71,703.091 L 3722.5,703.091 L 3722.5,693.091 L 4661.71,693.091 Z "
     id="path160" />
  <path
     stroke="transparent"
     fill="#000000"
     transform="matrix(0.0666667 0 0 0.0666667 -4.51118 -15.3333)"
     d="M 4750,698.091 C 4750,698.091 4647.96,724.602 4647.96,724.602 C 4647.96,724.602 4660.71,709.689 4660.71,698.091 C 4660.71,686.055 4647.96,670.58 4647.96,670.58 C 4647.96,670.58 4750,698.091 4750,698.091 C 4750,698.091 4750,698.091 4750,698.091 "
     id="path162" />
  <path
     stroke="#000000"
     stroke-width="1"
     fill="transparent"
     transform="matrix(0.0666667 0 0 0.0666667 -4.51118 -15.3333)"
     d="M 4750,698.091 C 4750,698.091 4647.96,724.602 4647.96,724.602 C 4647.96,724.602 4660.71,709.689 4660.71,698.091 C 4660.71,686.055 4647.96,670.58 4647.96,670.58 C 4647.96,670.58 4750,698.091 4750,698.091 C 4750,698.091 4750,698.091 4750,698.091 "
     id="path164" />
  <g
     aria-label="R"
     transform="matrix(0.0666667,0,0,0.0666667,329.406,98.4487)"
     style="font-style:normal;font-variant:normal;font-weight:normal;font-stretch:normal;font-size:160px;line-height:normal;font-family:Arial;fill:#cc79a7"
     id="text166">
    <path
       d="m 12.578125,0 v -114.53125 h 50.78125 q 15.3125,0 23.28125,3.125 7.96875,3.04687 12.734375,10.85937 4.76563,7.812505 4.76563,17.26563 0,12.1875 -7.89063,20.546875 -7.890625,8.359375 -24.375,10.625 6.015625,2.890625 9.140625,5.703125 6.640625,6.09375 12.578125,15.234375 L 113.51563,0 H 94.453125 l -15.15625,-23.828125 q -6.640625,-10.3125 -10.9375,-15.78125 -4.296875,-5.46875 -7.734375,-7.65625 -3.359375,-2.1875 -6.875,-3.046875 -2.578125,-0.546875 -8.4375,-0.546875 H 27.734375 V 0 Z m 15.15625,-63.984375 H 60.3125 q 10.390625,0 16.25,-2.109375 5.859375,-2.1875 8.90625,-6.875 3.046875,-4.765625 3.046875,-10.3125 0,-8.125 -5.9375,-13.359375 Q 76.71875,-101.875 63.984375,-101.875 h -36.25 z"
       style="font-style:normal;font-variant:normal;font-weight:normal;font-stretch:normal;font-size:160px;line-height:normal;font-family:Arial;fill:#cc79a7"
       id="path4797"
       inkscape:connector-curvature="0" />
  </g>
  <g
     aria-label="1"
     transform="matrix(0.0666667,0,0,0.0666667,337.139,94.2487)"
     style="font-style:normal;font-variant:normal;font-weight:normal;font-stretch:normal;font-size:120px;line-height:normal;font-family:Arial;fill:#cc79a7"
     id="text168">
    <path
       d="M 44.707031,0 H 34.160156 v -67.207031 q -3.808594,3.632812 -10.019531,7.265625 -6.152344,3.632812 -11.074219,5.449219 V -64.6875 q 8.847656,-4.160156 15.46875,-10.078125 6.621094,-5.917969 9.375,-11.484375 h 6.796875 z"
       style="font-style:normal;font-variant:normal;font-weight:normal;font-stretch:normal;font-size:120px;line-height:normal;font-family:Arial;fill:#cc79a7"
       id="path4794"
       inkscape:connector-curvature="0" />
  </g>
  <path
     stroke="transparent"
     fill="#cc79a7"
     transform="matrix(0.0666667 0 0 0.0666667 -4.51118 -15.3333)"
     d="M 5266.09,1522.75 L 5266.09,1534.53 L 5204.84,1569.9 L 5199.74,1561.06 L 5266.09,1522.75 Z "
     id="path170" />
  <g
     aria-label="N"
     transform="matrix(0.0666667,0,0,0.0666667,355.984,98.4487)"
     style="font-style:normal;font-variant:normal;font-weight:normal;font-stretch:normal;font-size:160px;line-height:normal;font-family:Arial;fill:#cc79a7"
     id="text172">
    <path
       d="m 12.1875,0 v -114.53125 h 15.546875 l 60.15625,89.921875 V -114.53125 H 102.42188 V 0 H 86.875 L 26.71875,-90 V 0 Z"
       style="font-style:normal;font-variant:normal;font-weight:normal;font-stretch:normal;font-size:160px;line-height:normal;font-family:Arial;fill:#cc79a7"
       id="path4791"
       inkscape:connector-curvature="0" />
  </g>
  <path
     stroke="transparent"
     fill="#cc79a7"
     transform="matrix(0.0666667 0 0 0.0666667 -4.51118 -15.3333)"
     d="M 5390.06,1594.33 L 5384.96,1603.16 L 5266.09,1534.53 L 5266.09,1522.75 L 5390.06,1594.33 Z "
     id="path174" />
  <path
     stroke="transparent"
     fill="#cc79a7"
     transform="matrix(0.0666667 0 0 0.0666667 -4.51118 -15.3333)"
     d="M 5369.34,1630.21 L 5364.24,1639.04 L 5263.54,1580.9 L 5268.64,1572.07 L 5369.34,1630.21 Z "
     id="path176" />
  <g
     aria-label="R"
     transform="matrix(0.0666667,0,0,0.0666667,369.273,90.7762)"
     style="font-style:normal;font-variant:normal;font-weight:normal;font-stretch:normal;font-size:160px;line-height:normal;font-family:Arial;fill:#cc79a7"
     id="text178">
    <path
       d="m 12.578125,0 v -114.53125 h 50.78125 q 15.3125,0 23.28125,3.125 7.96875,3.04687 12.734375,10.85937 4.76563,7.812505 4.76563,17.26563 0,12.1875 -7.89063,20.546875 -7.890625,8.359375 -24.375,10.625 6.015625,2.890625 9.140625,5.703125 6.640625,6.09375 12.578125,15.234375 L 113.51563,0 H 94.453125 l -15.15625,-23.828125 q -6.640625,-10.3125 -10.9375,-15.78125 -4.296875,-5.46875 -7.734375,-7.65625 -3.359375,-2.1875 -6.875,-3.046875 -2.578125,-0.546875 -8.4375,-0.546875 H 27.734375 V 0 Z m 15.15625,-63.984375 H 60.3125 q 10.390625,0 16.25,-2.109375 5.859375,-2.1875 8.90625,-6.875 3.046875,-4.765625 3.046875,-10.3125 0,-8.125 -5.9375,-13.359375 Q 76.71875,-101.875 63.984375,-101.875 h -36.25 z"
       style="font-style:normal;font-variant:normal;font-weight:normal;font-stretch:normal;font-size:160px;line-height:normal;font-family:Arial;fill:#cc79a7"
       id="path4788"
       inkscape:connector-curvature="0" />
  </g>
  <g
     aria-label="2"
     transform="matrix(0.0666667,0,0,0.0666667,377.006,86.5762)"
     style="font-style:normal;font-variant:normal;font-weight:normal;font-stretch:normal;font-size:120px;line-height:normal;font-family:Arial;fill:#cc79a7"
     id="text180">
    <path
       d="M 60.410156,-10.136719 V 0 H 3.6328125 Q 3.515625,-3.8085938 4.8632812,-7.3242187 7.03125,-13.125 11.777344,-18.75 q 4.804687,-5.625 13.828125,-13.007812 14.003906,-11.484375 18.925781,-18.164063 4.921875,-6.738281 4.921875,-12.714844 0,-6.269531 -4.511719,-10.546875 -4.453125,-4.335937 -11.660156,-4.335937 -7.617188,0 -12.1875,4.570312 -4.570313,4.570313 -4.628906,12.65625 L 5.625,-61.40625 Q 6.7382812,-73.535156 14.003906,-79.863281 21.269531,-86.25 33.515625,-86.25 q 12.363281,0 19.570312,6.855469 7.207032,6.855469 7.207032,16.992187 0,5.15625 -2.109375,10.136719 -2.109375,4.980469 -7.03125,10.488281 -4.863282,5.507813 -16.230469,15.117188 -9.492188,7.96875 -12.1875,10.839843 -2.695313,2.8125 -4.453125,5.683594 z"
       style="font-style:normal;font-variant:normal;font-weight:normal;font-stretch:normal;font-size:120px;line-height:normal;font-family:Arial;fill:#cc79a7"
       id="path4785"
       inkscape:connector-curvature="0" />
  </g>
  <path
     stroke="transparent"
     fill="#cc79a7"
     transform="matrix(0.0666667 0 0 0.0666667 -4.51118 -15.3333)"
     d="M 5579.24,1572.13 L 5584.34,1580.96 L 5545.14,1603.6 L 5540.04,1594.76 L 5579.24,1572.13 Z "
     id="path182" />
  <g
     aria-label="R"
     transform="matrix(0.0666667,0,0,0.0666667,355.984,113.794)"
     style="font-style:normal;font-variant:normal;font-weight:normal;font-stretch:normal;font-size:160px;line-height:normal;font-family:Arial;fill:#cc79a7"
     id="text184">
    <path
       d="m 12.578125,0 v -114.53125 h 50.78125 q 15.3125,0 23.28125,3.125 7.96875,3.04687 12.734375,10.85937 4.76563,7.812505 4.76563,17.26563 0,12.1875 -7.89063,20.546875 -7.890625,8.359375 -24.375,10.625 6.015625,2.890625 9.140625,5.703125 6.640625,6.09375 12.578125,15.234375 L 113.51563,0 H 94.453125 l -15.15625,-23.828125 q -6.640625,-10.3125 -10.9375,-15.78125 -4.296875,-5.46875 -7.734375,-7.65625 -3.359375,-2.1875 -6.875,-3.046875 -2.578125,-0.546875 -8.4375,-0.546875 H 27.734375 V 0 Z m 15.15625,-63.984375 H 60.3125 q 10.390625,0 16.25,-2.109375 5.859375,-2.1875 8.90625,-6.875 3.046875,-4.765625 3.046875,-10.3125 0,-8.125 -5.9375,-13.359375 Q 76.71875,-101.875 63.984375,-101.875 h -36.25 z"
       style="font-style:normal;font-variant:normal;font-weight:normal;font-stretch:normal;font-size:160px;line-height:normal;font-family:Arial;fill:#cc79a7"
       id="path4782"
       inkscape:connector-curvature="0" />
  </g>
  <g
     aria-label="3"
     transform="matrix(0.0666667,0,0,0.0666667,363.717,109.594)"
     style="font-style:normal;font-variant:normal;font-weight:normal;font-stretch:normal;font-size:120px;line-height:normal;font-family:Arial;fill:#cc79a7"
     id="text186">
    <path
       d="m 5.0390625,-22.675781 10.5468755,-1.40625 q 1.816406,8.964843 6.152343,12.949218 4.394531,3.9257818 10.664063,3.9257818 7.441406,0 12.539062,-5.1562498 5.15625,-5.15625 5.15625,-12.773438 0,-7.265625 -4.746094,-11.953125 -4.746093,-4.746093 -12.070312,-4.746093 -2.988281,0 -7.441406,1.171875 l 1.171875,-9.257813 q 1.054687,0.117188 1.699218,0.117188 6.738282,0 12.128907,-3.515625 5.390625,-3.515625 5.390625,-10.839844 0,-5.800781 -3.925782,-9.609375 -3.925781,-3.808594 -10.136718,-3.808594 -6.152344,0 -10.253907,3.867188 -4.101562,3.867187 -5.273437,11.601562 l -10.546875,-1.875 Q 8.0273438,-74.589844 14.882813,-80.390625 21.738281,-86.25 31.933594,-86.25 q 7.03125,0 12.949218,3.046875 5.917969,2.988281 9.023438,8.203125 3.164062,5.214844 3.164062,11.074219 0,5.566406 -2.988281,10.136719 -2.988281,4.570312 -8.847656,7.265625 7.617187,1.757812 11.835937,7.324218 4.21875,5.507813 4.21875,13.828125 0,11.25 -8.203125,19.1015628 -8.203125,7.7929687 -20.742187,7.7929687 -11.308594,0 -18.808594,-6.7382812 Q 6.09375,-11.953125 5.0390625,-22.675781 Z"
       style="font-style:normal;font-variant:normal;font-weight:normal;font-stretch:normal;font-size:120px;line-height:normal;font-family:Arial;fill:#cc79a7"
       id="path4779"
       inkscape:connector-curvature="0" />
  </g>
  <path
     stroke="transparent"
     fill="#cc79a7"
     transform="matrix(0.0666667 0 0 0.0666667 -4.51118 -15.3333)"
     d="M 5470.53,1764.57 L 5460.32,1764.57 L 5460.32,1732.73 L 5470.53,1732.73 L 5470.53,1764.57 Z "
     id="path188" />
  <g
     aria-label="R"
     transform="matrix(0.0666667,0,0,0.0666667,329.906,35.1987)"
     style="font-style:normal;font-variant:normal;font-weight:normal;font-stretch:normal;font-size:160px;line-height:normal;font-family:Arial;fill:#000000"
     id="text190">
    <path
       d="m 12.578125,0 v -114.53125 h 50.78125 q 15.3125,0 23.28125,3.125 7.96875,3.04687 12.734375,10.85937 4.76563,7.812505 4.76563,17.26563 0,12.1875 -7.89063,20.546875 -7.890625,8.359375 -24.375,10.625 6.015625,2.890625 9.140625,5.703125 6.640625,6.09375 12.578125,15.234375 L 113.51563,0 H 94.453125 l -15.15625,-23.828125 q -6.640625,-10.3125 -10.9375,-15.78125 -4.296875,-5.46875 -7.734375,-7.65625 -3.359375,-2.1875 -6.875,-3.046875 -2.578125,-0.546875 -8.4375,-0.546875 H 27.734375 V 0 Z m 15.15625,-63.984375 H 60.3125 q 10.390625,0 16.25,-2.109375 5.859375,-2.1875 8.90625,-6.875 3.046875,-4.765625 3.046875,-10.3125 0,-8.125 -5.9375,-13.359375 Q 76.71875,-101.875 63.984375,-101.875 h -36.25 z"
       style="font-style:normal;font-variant:normal;font-weight:normal;font-stretch:normal;font-size:160px;line-height:normal;font-family:Arial;fill:#000000"
       id="path4776"
       inkscape:connector-curvature="0" />
  </g>
  <g
     aria-label="1"
     transform="matrix(0.0666667,0,0,0.0666667,337.639,30.9987)"
     style="font-style:normal;font-variant:normal;font-weight:normal;font-stretch:normal;font-size:120px;line-height:normal;font-family:Arial;fill:#000000"
     id="text192">
    <path
       d="M 44.707031,0 H 34.160156 v -67.207031 q -3.808594,3.632812 -10.019531,7.265625 -6.152344,3.632812 -11.074219,5.449219 V -64.6875 q 8.847656,-4.160156 15.46875,-10.078125 6.621094,-5.917969 9.375,-11.484375 h 6.796875 z"
       style="font-style:normal;font-variant:normal;font-weight:normal;font-stretch:normal;font-size:120px;line-height:normal;font-family:Arial;fill:#000000"
       id="path4773"
       inkscape:connector-curvature="0" />
  </g>
  <path
     stroke="transparent"
     fill="#000000"
     transform="matrix(0.0666667 0 0 0.0666667 -4.51118 -15.3333)"
     d="M 5273.59,574.002 L 5273.59,585.785 L 5212.34,621.148 L 5207.24,612.311 L 5273.59,574.002 Z "
     id="path194" />
  <g
     aria-label="N"
     transform="matrix(0.0666667,0,0,0.0666667,356.484,35.1987)"
     style="font-style:normal;font-variant:normal;font-weight:normal;font-stretch:normal;font-size:160px;line-height:normal;font-family:Arial;fill:#000000"
     id="text196">
    <path
       d="m 12.1875,0 v -114.53125 h 15.546875 l 60.15625,89.921875 V -114.53125 H 102.42188 V 0 H 86.875 L 26.71875,-90 V 0 Z"
       style="font-style:normal;font-variant:normal;font-weight:normal;font-stretch:normal;font-size:160px;line-height:normal;font-family:Arial;fill:#000000"
       id="path4770"
       inkscape:connector-curvature="0" />
  </g>
  <path
     stroke="transparent"
     fill="#000000"
     transform="matrix(0.0666667 0 0 0.0666667 -4.51118 -15.3333)"
     d="M 5397.56,645.576 L 5392.46,654.413 L 5273.59,585.785 L 5273.59,574.002 L 5397.56,645.576 Z "
     id="path198" />
  <path
     stroke="transparent"
     fill="#000000"
     transform="matrix(0.0666667 0 0 0.0666667 -4.51118 -15.3333)"
     d="M 5418.27,609.695 L 5413.17,618.533 L 5291.75,548.431 L 5296.86,539.594 L 5418.27,609.695 Z "
     id="path200" />
  <g
     aria-label="R"
     transform="matrix(0.0666667,0,0,0.0666667,369.773,27.5262)"
     style="font-style:normal;font-variant:normal;font-weight:normal;font-stretch:normal;font-size:160px;line-height:normal;font-family:Arial;fill:#000000"
     id="text202">
    <path
       d="m 12.578125,0 v -114.53125 h 50.78125 q 15.3125,0 23.28125,3.125 7.96875,3.04687 12.734375,10.85937 4.76563,7.812505 4.76563,17.26563 0,12.1875 -7.89063,20.546875 -7.890625,8.359375 -24.375,10.625 6.015625,2.890625 9.140625,5.703125 6.640625,6.09375 12.578125,15.234375 L 113.51563,0 H 94.453125 l -15.15625,-23.828125 q -6.640625,-10.3125 -10.9375,-15.78125 -4.296875,-5.46875 -7.734375,-7.65625 -3.359375,-2.1875 -6.875,-3.046875 -2.578125,-0.546875 -8.4375,-0.546875 H 27.734375 V 0 Z m 15.15625,-63.984375 H 60.3125 q 10.390625,0 16.25,-2.109375 5.859375,-2.1875 8.90625,-6.875 3.046875,-4.765625 3.046875,-10.3125 0,-8.125 -5.9375,-13.359375 Q 76.71875,-101.875 63.984375,-101.875 h -36.25 z"
       style="font-style:normal;font-variant:normal;font-weight:normal;font-stretch:normal;font-size:160px;line-height:normal;font-family:Arial;fill:#000000"
       id="path4767"
       inkscape:connector-curvature="0" />
  </g>
  <g
     aria-label="2"
     transform="matrix(0.0666667,0,0,0.0666667,377.506,23.3262)"
     style="font-style:normal;font-variant:normal;font-weight:normal;font-stretch:normal;font-size:120px;line-height:normal;font-family:Arial;fill:#000000"
     id="text204">
    <path
       d="M 60.410156,-10.136719 V 0 H 3.6328125 Q 3.515625,-3.8085938 4.8632812,-7.3242187 7.03125,-13.125 11.777344,-18.75 q 4.804687,-5.625 13.828125,-13.007812 14.003906,-11.484375 18.925781,-18.164063 4.921875,-6.738281 4.921875,-12.714844 0,-6.269531 -4.511719,-10.546875 -4.453125,-4.335937 -11.660156,-4.335937 -7.617188,0 -12.1875,4.570312 -4.570313,4.570313 -4.628906,12.65625 L 5.625,-61.40625 Q 6.7382812,-73.535156 14.003906,-79.863281 21.269531,-86.25 33.515625,-86.25 q 12.363281,0 19.570312,6.855469 7.207032,6.855469 7.207032,16.992187 0,5.15625 -2.109375,10.136719 -2.109375,4.980469 -7.03125,10.488281 -4.863282,5.507813 -16.230469,15.117188 -9.492188,7.96875 -12.1875,10.839843 -2.695313,2.8125 -4.453125,5.683594 z"
       style="font-style:normal;font-variant:normal;font-weight:normal;font-stretch:normal;font-size:120px;line-height:normal;font-family:Arial;fill:#000000"
       id="path4764"
       inkscape:connector-curvature="0" />
  </g>
  <path
     stroke="transparent"
     fill="#000000"
     transform="matrix(0.0666667 0 0 0.0666667 -4.51118 -15.3333)"
     d="M 5586.74,623.377 L 5591.84,632.214 L 5552.64,654.846 L 5547.54,646.009 L 5586.74,623.377 Z "
     id="path206" />
  <path
     stroke="#cc79a7"
     stroke-width="8"
     fill="transparent"
     transform="matrix(0.0666667 0 0 0.0666667 -4.51118 -15.3333)"
     d="M 5408.43,1479.36 A 57.0818,57.0818 0 1 0 5522.6,1479.36A 57.0818,57.0818 0 1 0 5408.43,1479.36Z "
     id="path208"
     style="fill:none" />
  <path
     stroke="transparent"
     fill="#cc79a7"
     transform="matrix(0.0666667 0 0 0.0666667 -4.51118 -15.3333)"
     d="M 5434.08,1475.69 L 5497.62,1475.69 L 5497.62,1483.69 L 5434.08,1483.69 Z "
     id="path210" />
  <path
     stroke="transparent"
     fill="#cc79a7"
     transform="matrix(0.0666667 0 0 0.0666667 -4.51118 -15.3333)"
     d="M 5469.85,1447.92 L 5469.85,1511.46 L 5461.85,1511.46 L 5461.85,1447.92 Z "
     id="path212" />
  <path
     stroke="transparent"
     fill="#e69f00"
     transform="matrix(0.0666667 0 0 0.0666667 -4.51118 -15.3333)"
     d="M 3763.97,1446.1 L 3763.97,1263.16 L 3773.97,1263.16 L 3773.97,1446.1 Z "
     id="path214" />
  <path
     stroke="transparent"
     fill="#e69f00"
     transform="matrix(0.0666667 0 0 0.0666667 -4.51118 -15.3333)"
     d="M 3768.97,1258.16 L 5871.25,1258.16 L 5871.25,1268.16 L 3768.97,1268.16 Z "
     id="path216" />
  <g
     aria-label="nie"
     transform="matrix(0.0666667,0,0,0.0666667,265.782,65.6356)"
     style="font-style:normal;font-variant:normal;font-weight:normal;font-stretch:normal;font-size:160px;line-height:normal;font-family:Arial;fill:#e69f00"
     id="text218">
    <path
       d="m 10.546875,0 v -82.96875 h 12.65625 v 11.796875 q 9.140625,-13.671875 26.40625,-13.671875 7.5,0 13.75,2.734375 6.328125,2.65625 9.453125,7.03125 3.125,4.375 4.375,10.390625 0.78125,3.90625 0.78125,13.671875 V 0 h -14.0625 v -50.46875 q 0,-8.59375 -1.640625,-12.8125 -1.640625,-4.296875 -5.859375,-6.796875 -4.140625,-2.578125 -9.765625,-2.578125 -8.984375,0 -15.546875,5.703125 Q 24.609375,-61.25 24.609375,-45.3125 V 0 Z"
       style="font-style:normal;font-variant:normal;font-weight:normal;font-stretch:normal;font-size:160px;line-height:normal;font-family:Arial;fill:#e69f00"
       id="path4757"
       inkscape:connector-curvature="0" />
    <path
       d="M 99.6875,-98.359375 V -114.53125 H 113.75 v 16.171875 z M 99.6875,0 V -82.96875 H 113.75 V 0 Z"
       style="font-style:normal;font-variant:normal;font-weight:normal;font-stretch:normal;font-size:160px;line-height:normal;font-family:Arial;fill:#e69f00"
       id="path4759"
       inkscape:connector-curvature="0" />
    <path
       d="m 192.03125,-26.71875 14.53125,1.796875 q -3.4375,12.734375 -12.73438,19.765625 -9.29687,7.03125 -23.75,7.03125 -18.20312,0 -28.90625,-11.171875 -10.625,-11.25 -10.625,-31.484375 0,-20.9375 10.78125,-32.5 10.78125,-11.5625 27.96875,-11.5625 16.64063,0 27.1875,11.328125 10.54688,11.328125 10.54688,31.875 0,1.25 -0.0781,3.75 h -61.875 q 0.78125,13.671875 7.73438,20.9375 6.95312,7.265625 17.34375,7.265625 7.73437,0 13.20312,-4.0625 5.46875,-4.0625 8.67188,-12.96875 z m -46.17188,-22.734375 h 46.32813 q -0.9375,-10.46875 -5.3125,-15.703125 -6.71875,-8.125 -17.42188,-8.125 -9.6875,0 -16.32812,6.484375 -6.5625,6.484375 -7.26563,17.34375 z"
       style="font-style:normal;font-variant:normal;font-weight:normal;font-stretch:normal;font-size:160px;line-height:normal;font-family:Arial;fill:#e69f00"
       id="path4761"
       inkscape:connector-curvature="0" />
  </g>
  <g
     aria-label="biegnie"
     transform="matrix(0.0666667,0,0,0.0666667,283.012,65.6356)"
     style="font-style:normal;font-variant:normal;font-weight:normal;font-stretch:normal;font-size:160px;line-height:normal;font-family:Arial;fill:#e69f00"
     id="text220">
    <path
       d="M 23.515625,0 H 10.46875 v -114.53125 h 14.0625 v 40.859375 q 8.90625,-11.171875 22.734375,-11.171875 7.65625,0 14.453125,3.125 6.875,3.046875 11.25,8.671875 4.453125,5.546875 6.953125,13.4375 2.5,7.890625 2.5,16.875 0,21.328125 -10.546875,32.96875 Q 61.328125,1.875 46.5625,1.875 31.875,1.875 23.515625,-10.390625 Z m -0.15625,-42.109375 q 0,14.921875 4.0625,21.5625 6.640625,10.859375 17.96875,10.859375 9.21875,0 15.9375,-7.96875 6.71875,-8.046875 6.71875,-23.90625 0,-16.25 -6.484375,-23.984375 -6.40625,-7.734375 -15.546875,-7.734375 -9.21875,0 -15.9375,8.046875 -6.71875,7.96875 -6.71875,23.125 z"
       style="font-style:normal;font-variant:normal;font-weight:normal;font-stretch:normal;font-size:160px;line-height:normal;font-family:Arial;fill:#e69f00"
       id="path4742"
       inkscape:connector-curvature="0" />
    <path
       d="M 99.6875,-98.359375 V -114.53125 H 113.75 v 16.171875 z M 99.6875,0 V -82.96875 H 113.75 V 0 Z"
       style="font-style:normal;font-variant:normal;font-weight:normal;font-stretch:normal;font-size:160px;line-height:normal;font-family:Arial;fill:#e69f00"
       id="path4744"
       inkscape:connector-curvature="0" />
    <path
       d="m 192.03125,-26.71875 14.53125,1.796875 q -3.4375,12.734375 -12.73438,19.765625 -9.29687,7.03125 -23.75,7.03125 -18.20312,0 -28.90625,-11.171875 -10.625,-11.25 -10.625,-31.484375 0,-20.9375 10.78125,-32.5 10.78125,-11.5625 27.96875,-11.5625 16.64063,0 27.1875,11.328125 10.54688,11.328125 10.54688,31.875 0,1.25 -0.0781,3.75 h -61.875 q 0.78125,13.671875 7.73438,20.9375 6.95312,7.265625 17.34375,7.265625 7.73437,0 13.20312,-4.0625 5.46875,-4.0625 8.67188,-12.96875 z m -46.17188,-22.734375 h 46.32813 q -0.9375,-10.46875 -5.3125,-15.703125 -6.71875,-8.125 -17.42188,-8.125 -9.6875,0 -16.32812,6.484375 -6.5625,6.484375 -7.26563,17.34375 z"
       style="font-style:normal;font-variant:normal;font-weight:normal;font-stretch:normal;font-size:160px;line-height:normal;font-family:Arial;fill:#e69f00"
       id="path4746"
       inkscape:connector-curvature="0" />
    <path
       d="m 221.71875,6.875 13.67187,2.03125 q 0.85938,6.328125 4.76563,9.21875 5.23437,3.90625 14.29687,3.90625 9.76563,0 15.07813,-3.90625 5.3125,-3.90625 7.1875,-10.9375 1.09375,-4.296875 1.01562,-18.046875 Q 268.51562,0 254.76562,0 q -17.10937,0 -26.48437,-12.34375 -9.375,-12.34375 -9.375,-29.609375 0,-11.875 4.29687,-21.875 Q 227.5,-73.90625 235.625,-79.375 q 8.20312,-5.46875 19.21875,-5.46875 14.6875,0 24.21875,11.875 v -10 h 12.96875 V -11.25 q 0,19.375 -3.98438,27.421875 -3.90625,8.125 -12.5,12.8125 -8.51562,4.6875 -21.01562,4.6875 -14.84375,0 -23.98438,-6.71875 Q 221.40625,20.3125 221.71875,6.875 Z m 11.64062,-49.84375 q 0,16.328125 6.48438,23.828125 6.48437,7.5 16.25,7.5 9.6875,0 16.25,-7.421875 6.5625,-7.5 6.5625,-23.4375 0,-15.234375 -6.79688,-22.96875 -6.71875,-7.734375 -16.25,-7.734375 -9.375,0 -15.9375,7.65625 -6.5625,7.578125 -6.5625,22.578125 z"
       style="font-style:normal;font-variant:normal;font-weight:normal;font-stretch:normal;font-size:160px;line-height:normal;font-family:Arial;fill:#e69f00"
       id="path4748"
       inkscape:connector-curvature="0" />
    <path
       d="m 313.35937,0 v -82.96875 h 12.65625 v 11.796875 q 9.14063,-13.671875 26.40625,-13.671875 7.5,0 13.75,2.734375 6.32813,2.65625 9.45313,7.03125 3.125,4.375 4.375,10.390625 0.78125,3.90625 0.78125,13.671875 V 0 h -14.0625 v -50.46875 q 0,-8.59375 -1.64063,-12.8125 -1.64062,-4.296875 -5.85937,-6.796875 -4.14063,-2.578125 -9.76563,-2.578125 -8.98437,0 -15.54687,5.703125 -6.48438,5.703125 -6.48438,21.640625 V 0 Z"
       style="font-style:normal;font-variant:normal;font-weight:normal;font-stretch:normal;font-size:160px;line-height:normal;font-family:Arial;fill:#e69f00"
       id="path4750"
       inkscape:connector-curvature="0" />
    <path
       d="m 402.5,-98.359375 v -16.171875 h 14.0625 v 16.171875 z M 402.5,0 v -82.96875 h 14.0625 V 0 Z"
       style="font-style:normal;font-variant:normal;font-weight:normal;font-stretch:normal;font-size:160px;line-height:normal;font-family:Arial;fill:#e69f00"
       id="path4752"
       inkscape:connector-curvature="0" />
    <path
       d="m 494.84375,-26.71875 14.53125,1.796875 q -3.4375,12.734375 -12.73438,19.765625 -9.29687,7.03125 -23.75,7.03125 -18.20312,0 -28.90625,-11.171875 -10.625,-11.25 -10.625,-31.484375 0,-20.9375 10.78125,-32.5 10.78125,-11.5625 27.96875,-11.5625 16.64063,0 27.1875,11.328125 10.54688,11.328125 10.54688,31.875 0,1.25 -0.0781,3.75 h -61.875 q 0.78125,13.671875 7.73438,20.9375 6.95312,7.265625 17.34375,7.265625 7.73437,0 13.20312,-4.0625 5.46875,-4.0625 8.67188,-12.96875 z M 448.67187,-49.453125 H 495 q -0.9375,-10.46875 -5.3125,-15.703125 -6.71875,-8.125 -17.42188,-8.125 -9.6875,0 -16.32812,6.484375 -6.5625,6.484375 -7.26563,17.34375 z"
       style="font-style:normal;font-variant:normal;font-weight:normal;font-stretch:normal;font-size:160px;line-height:normal;font-family:Arial;fill:#e69f00"
       id="path4754"
       inkscape:connector-curvature="0" />
  </g>
  <text
     x="0"
     y="0"
     stroke="transparent"
     fill="#e69f00"
     transform="matrix(0.0666667 0 0 0.0666667 320.442 65.6356)"
     style="font:normal normal normal 160px 'Arial'"
     id="text222">
spontanicznie</text>
  <path
     stroke="transparent"
     fill="#e69f00"
     transform="matrix(0.0666667 0 0 0.0666667 -4.51118 -15.3333)"
     d="M 3739.83,1457.94 A 29.14,29.14 0 1 0 3798.11,1457.94A 29.14,29.14 0 1 0 3739.83,1457.94Z "
     id="path224" />
  <text
     xml:space="preserve"
     style="font-style:normal;font-weight:normal;font-size:10.66666698px;line-height:1.25;font-family:sans-serif;letter-spacing:0px;word-spacing:0px;fill:#000000;fill-opacity:1;stroke:none"
     x="48.252613"
     y="53.586739"
     id="text4944"><tspan
       sodipodi:role="line"
       id="tspan4942"
       x="48.252613"
       y="53.586739">\cmpd{w:amide-sec}</tspan></text>
  <text
     xml:space="preserve"
     style="font-style:normal;font-weight:normal;font-size:10.66666698px;line-height:1.25;font-family:sans-serif;letter-spacing:0px;word-spacing:0px;fill:#000000;fill-opacity:1;stroke:none"
     x="218.13861"
     y="53.586739"
     id="text4948"><tspan
       sodipodi:role="line"
       id="tspan4946"
       x="218.13861"
       y="53.586739">\cmpd{zr-amide-sec}</tspan></text>
  <text
     xml:space="preserve"
     style="font-style:normal;font-weight:normal;font-size:10.66666698px;line-height:1.25;font-family:sans-serif;letter-spacing:0px;word-spacing:0px;fill:#000000;fill-opacity:1;stroke:none"
     x="48.252613"
     y="118.71066"
     id="text4944-1"><tspan
       sodipodi:role="line"
       id="tspan4942-8"
       x="48.252613"
       y="118.71066">\cmpd{w:amide-tert}</tspan></text>
  <text
     xml:space="preserve"
     style="font-style:normal;font-weight:normal;font-size:10.66666698px;line-height:1.25;font-family:sans-serif;letter-spacing:0px;word-spacing:0px;fill:#000000;fill-opacity:1;stroke:none"
     x="218.13861"
     y="118.71066"
     id="text4948-8"><tspan
       sodipodi:role="line"
       id="tspan4946-0"
       x="218.13861"
       y="118.71066">\cmpd{zr-amide-tert}</tspan></text>
  <text
     xml:space="preserve"
     style="font-style:normal;font-weight:normal;font-size:10.66666698px;line-height:1.25;font-family:sans-serif;letter-spacing:0px;word-spacing:0px;fill:#000000;fill-opacity:1;stroke:none"
     x="374.9184"
     y="53.586739"
     id="text4948-0"><tspan
       sodipodi:role="line"
       id="tspan4946-2"
       x="374.9184"
       y="53.586739">\cmpd{w:imine}</tspan></text>
  <text
     xml:space="preserve"
     style="font-style:normal;font-weight:normal;font-size:10.66666698px;line-height:1.25;font-family:sans-serif;letter-spacing:0px;word-spacing:0px;fill:#000000;fill-opacity:1;stroke:none"
     x="374.9184"
     y="118.71066"
     id="text4948-8-1"><tspan
       sodipodi:role="line"
       id="tspan4946-0-1"
       x="374.9184"
       y="118.71066">\cmpd{iminium}</tspan></text>
</svg>
