<?xml version="1.0" encoding="UTF-8" standalone="no"?>
<svg
   xmlns:dc="http://purl.org/dc/elements/1.1/"
   xmlns:cc="http://creativecommons.org/ns#"
   xmlns:rdf="http://www.w3.org/1999/02/22-rdf-syntax-ns#"
   xmlns:svg="http://www.w3.org/2000/svg"
   xmlns="http://www.w3.org/2000/svg"
   xmlns:sodipodi="http://sodipodi.sourceforge.net/DTD/sodipodi-0.dtd"
   xmlns:inkscape="http://www.inkscape.org/namespaces/inkscape"
   viewBox="13.06 52.67 402.05 59.01"
   preserveAspectRatio="xMidYMid"
   width="100%"
   height="100%"
   version="1.1"
   id="svg316"
   sodipodi:docname="amide-tert-zr-reduction.svg"
   inkscape:version="0.92.3 (2405546, 2018-03-11)">
  <metadata
     id="metadata322">
    <rdf:RDF>
      <cc:Work
         rdf:about="">
        <dc:format>image/svg+xml</dc:format>
        <dc:type
           rdf:resource="http://purl.org/dc/dcmitype/StillImage" />
      </cc:Work>
    </rdf:RDF>
  </metadata>
  <defs
     id="defs320" />
  <sodipodi:namedview
     pagecolor="#ffffff"
     bordercolor="#666666"
     borderopacity="1"
     objecttolerance="10"
     gridtolerance="10"
     guidetolerance="10"
     inkscape:pageopacity="0"
     inkscape:pageshadow="2"
     inkscape:window-width="1920"
     inkscape:window-height="1017"
     id="namedview318"
     showgrid="false"
     inkscape:zoom="2.5326048"
     inkscape:cx="256.75421"
     inkscape:cy="34.964451"
     inkscape:window-x="-8"
     inkscape:window-y="-8"
     inkscape:window-maximized="1"
     inkscape:current-layer="svg316" />
  <clipPath
     id="9793">
    <rect
       x="0.255"
       y="0.255"
       width="465.99"
       height="769.29"
       id="rect2" />
  </clipPath>
  <g
     aria-label="R1"
     style="text-anchor:end;text-rendering:geometricPrecision"
     id="text11"
     transform="matrix(1.33333,0,0,1.33333,-71.412546,-28.120292)">
    <path
       d="m 13.717812,98.459999 v -5.726562 h 2.539062 q 0.765625,0 1.164063,0.15625 0.398437,0.152343 0.636718,0.542968 0.238282,0.390625 0.238282,0.863282 0,0.609375 -0.394532,1.027343 -0.394531,0.417969 -1.21875,0.53125 0.300782,0.144532 0.457032,0.285157 0.332031,0.304687 0.628906,0.761718 l 0.996094,1.558594 H 17.811562 L 17.053749,97.268593 Q 16.721718,96.752968 16.506874,96.47953 16.29203,96.206093 16.120155,96.096718 15.952187,95.987343 15.776405,95.944374 15.647499,95.91703 15.35453,95.91703 h -0.878906 v 2.542969 z m 0.757812,-3.199219 h 1.628906 q 0.519532,0 0.8125,-0.105468 0.292969,-0.109375 0.445313,-0.34375 0.152344,-0.238282 0.152344,-0.515625 0,-0.40625 -0.296875,-0.667969 -0.292969,-0.261719 -0.929688,-0.261719 h -1.8125 z"
       style="font-size:8px;font-family:Arial;fill:#000000"
       id="path1545"
       inkscape:connector-curvature="0" />
    <path
       d="m 21.105507,95.199999 h -0.527344 v -3.360351 q -0.19043,0.18164 -0.500976,0.363281 -0.307618,0.18164 -0.553711,0.272461 v -0.509766 q 0.442382,-0.208008 0.773437,-0.503906 0.331055,-0.295899 0.46875,-0.574219 h 0.339844 z"
       style="font-size:6px;font-family:Arial;fill:#000000"
       id="path1547"
       inkscape:connector-curvature="0" />
  </g>
  <path
     style="fill:#000000;fill-rule:evenodd;stroke:#000000;stroke-width:0;stroke-linejoin:miter;shape-rendering:geometricPrecision"
     inkscape:connector-curvature="0"
     id="path15"
     d="m -41.479288,94.359402 v 0 l -0.159999,-0.293333 -0.173333,-0.293333 4.973321,-2.866659 v 0.386666 0.386665 z" />
  <g
     aria-label="N"
     style="text-anchor:start;text-rendering:geometricPrecision"
     id="text20"
     transform="matrix(1.33333,0,0,1.33333,-71.412546,-28.120292)">
    <path
       d="m 33.609375,98.459999 v -5.726562 h 0.777344 l 3.007812,4.496093 v -4.496093 h 0.726563 v 5.726562 H 37.34375 l -3.007813,-4.5 v 4.5 z"
       style="font-size:8px;font-family:Arial;fill:#000000"
       id="path1550"
       inkscape:connector-curvature="0" />
  </g>
  <path
     style="fill:#000000;fill-rule:evenodd;stroke:#000000;stroke-width:0;stroke-linejoin:miter;shape-rendering:geometricPrecision"
     inkscape:connector-curvature="0"
     id="path24"
     d="m -36.839299,91.679408 v 0 -0.386665 -0.386666 l 9.026644,5.199987 -0.173333,0.293332 -0.16,0.293333 z" />
  <g
     aria-label="O"
     style="text-anchor:start;text-rendering:geometricPrecision"
     id="text30"
     transform="matrix(1.33333,0,0,1.33333,-71.412546,-28.120292)">
    <path
       d="m 23.216719,78.410934 q 0,-1.425781 0.765625,-2.230468 0.765625,-0.808594 1.976562,-0.808594 0.792969,0 1.429688,0.378906 0.636718,0.378906 0.96875,1.058594 0.335937,0.675781 0.335937,1.535156 0,0.871094 -0.351562,1.558594 -0.351563,0.6875 -0.996094,1.042969 -0.644531,0.351562 -1.390625,0.351562 -0.808594,0 -1.445313,-0.390625 -0.636718,-0.390625 -0.964843,-1.066406 -0.328125,-0.675781 -0.328125,-1.429688 z m 0.78125,0.01172 q 0,1.035156 0.554687,1.632813 0.558594,0.59375 1.398438,0.59375 0.855468,0 1.40625,-0.601563 0.554687,-0.601562 0.554687,-1.707031 0,-0.699219 -0.238281,-1.21875 -0.234375,-0.523438 -0.691406,-0.808594 -0.453125,-0.289062 -1.019532,-0.289062 -0.804687,0 -1.386718,0.554687 -0.578125,0.550781 -0.578125,1.84375 z"
       style="font-size:8px;font-family:Arial;fill:#000000"
       id="path1553"
       inkscape:connector-curvature="0" />
  </g>
  <path
     style="stroke:#000000;stroke-width:0.67999828;shape-rendering:auto"
     d="M -38.225964,91.29274 V 82.012763"
     id="line34"
     inkscape:connector-curvature="0" />
  <path
     style="fill:#000000;fill-rule:evenodd;stroke:#000000;stroke-width:0;stroke-linejoin:miter;shape-rendering:geometricPrecision"
     inkscape:connector-curvature="0"
     id="path36"
     d="m -35.799302,91.506075 v 0 l 0.679998,0.386666 v -9.879975 h -0.679998 z" />
  <path
     style="fill:#000000;fill-rule:evenodd;stroke:#000000;stroke-width:0;stroke-linejoin:miter;shape-rendering:geometricPrecision"
     inkscape:connector-curvature="0"
     id="path38"
     d="m -38.559295,91.892741 v 0 l 0.679998,-0.386666 v -9.493309 h -0.679998 z" />
  <g
     aria-label="R2"
     style="text-anchor:start;text-rendering:geometricPrecision"
     id="text46"
     transform="matrix(1.33333,0,0,1.33333,-71.412546,-28.120292)">
    <path
       d="m 43.588905,92.709999 v -5.726562 h 2.539063 q 0.765625,0 1.164062,0.15625 0.398438,0.152343 0.636719,0.542968 0.238281,0.390625 0.238281,0.863282 0,0.609375 -0.394531,1.027343 -0.394531,0.417969 -1.21875,0.53125 0.300781,0.144532 0.457031,0.285157 0.332032,0.304687 0.628907,0.761718 l 0.996093,1.558594 H 47.682655 L 46.924843,91.518593 Q 46.592812,91.002968 46.377968,90.72953 46.163124,90.456093 45.991249,90.346718 45.82328,90.237343 45.647499,90.194374 45.518593,90.16703 45.225624,90.16703 h -0.878906 v 2.542969 z m 0.757813,-3.199219 h 1.628906 q 0.519531,0 0.8125,-0.105468 0.292969,-0.109375 0.445313,-0.34375 0.152343,-0.238282 0.152343,-0.515625 0,-0.40625 -0.296875,-0.667969 -0.292968,-0.261719 -0.929687,-0.261719 h -1.8125 z"
       style="font-size:8px;font-family:Arial;fill:#000000"
       id="path1557"
       inkscape:connector-curvature="0" />
    <path
       d="m 51.761757,88.943163 v 0.506836 H 48.92289 q -0.0059,-0.19043 0.06152,-0.366211 0.108399,-0.290039 0.345703,-0.571289 0.240235,-0.28125 0.691407,-0.650391 0.700195,-0.574218 0.946289,-0.908203 0.246093,-0.336914 0.246093,-0.635742 0,-0.313476 -0.225586,-0.527344 -0.222656,-0.216796 -0.583007,-0.216796 -0.38086,0 -0.609375,0.228515 -0.228516,0.228516 -0.231446,0.632813 l -0.541992,-0.05566 q 0.05566,-0.606446 0.418945,-0.922852 0.363282,-0.319336 0.975586,-0.319336 0.618164,0 0.978516,0.342774 0.360352,0.342773 0.360352,0.849609 0,0.257812 -0.105469,0.506836 -0.105469,0.249023 -0.351563,0.524414 -0.243164,0.275391 -0.811523,0.755859 -0.47461,0.398438 -0.609375,0.541992 -0.134766,0.140625 -0.222656,0.28418 z"
       style="font-size:6px;font-family:Arial;fill:#000000"
       id="path1559"
       inkscape:connector-curvature="0" />
  </g>
  <path
     style="fill:#000000;fill-rule:evenodd;stroke:#000000;stroke-width:0;stroke-linejoin:miter;shape-rendering:geometricPrecision"
     inkscape:connector-curvature="0"
     id="path50"
     d="m -18.812678,96.612729 v 0 l -0.159999,-0.293332 -0.173333,-0.293333 4.199989,-2.426661 0.16,0.293333 0.173333,0.306666 z" />
  <g
     aria-label="R3"
     style="text-anchor:start;text-rendering:geometricPrecision"
     id="text58"
     transform="matrix(1.33333,0,0,1.33333,-71.412546,-28.120292)">
    <path
       d="m 33.628906,109.97 v -5.72656 h 2.539063 q 0.765625,0 1.164062,0.15625 0.398438,0.15234 0.636719,0.54297 0.238281,0.39062 0.238281,0.86328 0,0.60937 -0.394531,1.02734 -0.394531,0.41797 -1.21875,0.53125 0.300781,0.14453 0.457031,0.28516 0.332031,0.30469 0.628906,0.76172 l 0.996094,1.55859 h -0.953125 l -0.757812,-1.19141 q -0.332032,-0.51562 -0.546875,-0.78906 -0.214844,-0.27344 -0.386719,-0.38281 -0.167969,-0.10938 -0.34375,-0.15234 -0.128906,-0.0273 -0.421875,-0.0273 H 34.386719 V 109.97 Z m 0.757813,-3.19922 h 1.628906 q 0.519531,0 0.8125,-0.10547 0.292969,-0.10937 0.445312,-0.34375 0.152344,-0.23828 0.152344,-0.51562 0,-0.40625 -0.296875,-0.66797 -0.292969,-0.26172 -0.929687,-0.26172 h -1.8125 z"
       style="font-size:8px;font-family:Arial;fill:#000000"
       id="path1562"
       inkscape:connector-curvature="0" />
    <path
       d="m 39.033203,105.57621 0.527344,-0.0703 q 0.09082,0.44824 0.307617,0.64746 0.219727,0.19629 0.533203,0.19629 0.37207,0 0.626953,-0.25781 0.257813,-0.25782 0.257813,-0.63867 0,-0.36329 -0.237305,-0.59766 -0.237305,-0.23731 -0.603516,-0.23731 -0.149414,0 -0.37207,0.0586 l 0.05859,-0.46289 q 0.05273,0.006 0.08496,0.006 0.336914,0 0.606445,-0.17578 0.269531,-0.17579 0.269531,-0.542 0,-0.29004 -0.196289,-0.48047 -0.196289,-0.19043 -0.506836,-0.19043 -0.307617,0 -0.512695,0.19336 -0.205078,0.19336 -0.263672,0.58008 l -0.527344,-0.0937 q 0.09668,-0.53027 0.439454,-0.82031 0.342773,-0.29297 0.852539,-0.29297 0.351562,0 0.647461,0.15234 0.295898,0.14942 0.451171,0.41016 0.158204,0.26074 0.158204,0.55371 0,0.27832 -0.149414,0.50684 -0.149415,0.22851 -0.442383,0.36328 0.380859,0.0879 0.591797,0.36621 0.210937,0.27539 0.210937,0.69141 0,0.5625 -0.410156,0.95507 -0.410156,0.38965 -1.03711,0.38965 -0.565429,0 -0.940429,-0.33691 -0.372071,-0.33692 -0.424805,-0.87305 z"
       style="font-size:6px;font-family:Arial;fill:#000000"
       id="path1564"
       inkscape:connector-curvature="0" />
  </g>
  <path
     style="fill:#000000;fill-rule:evenodd;stroke:#000000;stroke-width:0;stroke-linejoin:miter;shape-rendering:geometricPrecision"
     inkscape:connector-curvature="0"
     id="path62"
     d="m -23.879332,102.54605 v 0 h 0.333333 0.346666 v 6.66665 h -0.346666 -0.333333 z" />
  <path
     style="stroke:#000000;stroke-width:0.67999828;shape-rendering:auto"
     d="M 85.960394,91.66607 H 12.760578"
     id="line66"
     inkscape:connector-curvature="0" />
  <path
     style="fill:#000000;fill-rule:evenodd;stroke:#000000;stroke-width:0;stroke-linejoin:miter;stroke-miterlimit:5.89496231;shape-rendering:geometricPrecision"
     inkscape:connector-curvature="0"
     id="path68"
     stroke-miterlimit="5.89496254687647"
     d="m 90.573715,91.666075 -6.799983,-1.706662 c 1.426664,0.959997 1.426664,2.453327 0,3.413324 z" />
  <g
     aria-label="R1"
     style="text-anchor:end;text-rendering:geometricPrecision"
     id="text75"
     transform="matrix(1.33333,0,0,1.33333,-71.412546,-28.120292)">
    <path
       d="m 146.01781,102.5 v -5.726563 h 2.53906 q 0.76562,0 1.16406,0.15625 0.39844,0.152344 0.63672,0.542969 0.23828,0.390625 0.23828,0.863281 0,0.609375 -0.39453,1.027344 -0.39453,0.417969 -1.21875,0.53125 0.30078,0.144529 0.45703,0.285159 0.33203,0.30469 0.62891,0.76172 l 0.99609,1.55859 h -0.95312 l -0.75782,-1.19141 q -0.33203,-0.51562 -0.54687,-0.78906 -0.21484,-0.27344 -0.38672,-0.38281 -0.16797,-0.10938 -0.34375,-0.152345 -0.12891,-0.02734 -0.42187,-0.02734 h -0.87891 V 102.5 Z m 0.75781,-3.199219 h 1.62891 q 0.51953,0 0.8125,-0.105469 0.29296,-0.109375 0.44531,-0.34375 0.15234,-0.238281 0.15234,-0.515625 0,-0.40625 -0.29687,-0.667968 -0.29297,-0.261719 -0.92969,-0.261719 h -1.8125 z"
       style="font-size:8px;font-family:Arial;fill:#000000"
       id="path1568"
       inkscape:connector-curvature="0" />
    <path
       d="m 153.4055,99.24 h -0.52734 v -3.360352 q -0.19043,0.181641 -0.50098,0.363282 -0.30762,0.18164 -0.55371,0.272461 v -0.509766 q 0.44238,-0.208008 0.77344,-0.503906 0.33105,-0.295899 0.46875,-0.574219 h 0.33984 z"
       style="font-size:6px;font-family:Arial;fill:#000000"
       id="path1570"
       inkscape:connector-curvature="0" />
  </g>
  <path
     style="fill:#000000;fill-rule:evenodd;stroke:#000000;stroke-width:0;stroke-linejoin:miter;shape-rendering:geometricPrecision"
     inkscape:connector-curvature="0"
     id="path79"
     d="m 129.32029,99.746055 v 0 l -0.30667,-0.173333 -0.29333,-0.16 4.62665,-8.013313 0.58667,-0.333333 0.12,0.466666 z" />
  <path
     style="fill:#000000;fill-rule:evenodd;stroke:#000000;stroke-width:0;stroke-linejoin:miter;shape-rendering:geometricPrecision"
     inkscape:connector-curvature="0"
     id="path83"
     d="m 134.05361,91.532742 v 0 l -0.12,-0.466666 0.34666,-0.199999 8.57331,4.959988 -0.17333,0.293332 -0.16,0.293333 z" />
  <g
     aria-label="N"
     style="text-anchor:start;text-rendering:geometricPrecision"
     id="text89"
     transform="matrix(1.33333,0,0,1.33333,-71.412546,-28.120292)">
    <path
       d="m 161.67938,98.290001 v -5.726563 h 0.77735 l 3.00781,4.496094 v -4.496094 h 0.72656 v 5.726563 h -0.77734 l -3.00782,-4.5 v 4.5 z"
       style="font-size:8px;font-family:Arial;fill:#000000"
       id="path1573"
       inkscape:connector-curvature="0" />
  </g>
  <path
     style="fill:#000000;fill-rule:evenodd;stroke:#000000;stroke-width:0;stroke-linejoin:miter;shape-rendering:geometricPrecision"
     inkscape:connector-curvature="0"
     id="path93"
     d="m 134.28027,90.866077 v 0 l -0.34666,0.199999 -0.33334,-0.346665 v -8.839978 h 0.33334 0.34666 z" />
  <g
     aria-label="O"
     style="text-anchor:start;text-rendering:geometricPrecision"
     id="text99"
     transform="matrix(1.33333,0,0,1.33333,-71.412546,-28.120292)">
    <path
       d="m 151.29672,78.250938 q 0,-1.425781 0.76563,-2.230468 0.76562,-0.808594 1.97656,-0.808594 0.79297,0 1.42969,0.378906 0.63672,0.378906 0.96875,1.058594 0.33593,0.675781 0.33593,1.535156 0,0.871094 -0.35156,1.558594 -0.35156,0.6875 -0.99609,1.042969 -0.64453,0.351562 -1.39063,0.351562 -0.80859,0 -1.44531,-0.390625 -0.63672,-0.390625 -0.96484,-1.066406 -0.32813,-0.675781 -0.32813,-1.429688 z m 0.78125,0.01172 q 0,1.035156 0.55469,1.632813 0.55859,0.59375 1.39844,0.59375 0.85547,0 1.40625,-0.601563 0.55468,-0.601562 0.55468,-1.707031 0,-0.699219 -0.23828,-1.21875 -0.23437,-0.523438 -0.6914,-0.808594 -0.45313,-0.289062 -1.01953,-0.289062 -0.80469,0 -1.38672,0.554687 -0.57813,0.550781 -0.57813,1.84375 z"
       style="font-size:8px;font-family:Arial;fill:#000000"
       id="path1576"
       inkscape:connector-curvature="0" />
  </g>
  <path
     style="fill:#000000;fill-rule:evenodd;stroke:#000000;stroke-width:0;stroke-linejoin:miter;shape-rendering:geometricPrecision"
     inkscape:connector-curvature="0"
     id="path103"
     d="m 151.85356,96.439396 v 0 l -0.16,-0.293332 -0.17333,-0.293333 4.33332,-2.493327 0.16,0.293333 0.17333,0.293332 z" />
  <g
     aria-label="R2"
     style="text-anchor:start;text-rendering:geometricPrecision"
     id="text111"
     transform="matrix(1.33333,0,0,1.33333,-71.412546,-28.120292)">
    <path
       d="m 171.65891,92.540001 v -5.726563 h 2.53906 q 0.76562,0 1.16406,0.15625 0.39844,0.152344 0.63672,0.542969 0.23828,0.390625 0.23828,0.863281 0,0.609375 -0.39453,1.027344 -0.39453,0.417969 -1.21875,0.53125 0.30078,0.144531 0.45703,0.285156 0.33203,0.304688 0.62891,0.761719 l 0.99609,1.558594 h -0.95312 l -0.75782,-1.191406 q -0.33203,-0.515625 -0.54687,-0.789063 -0.21485,-0.273437 -0.38672,-0.382812 -0.16797,-0.109375 -0.34375,-0.152344 -0.12891,-0.02734 -0.42188,-0.02734 h -0.8789 v 2.542969 z m 0.75781,-3.199219 h 1.6289 q 0.51954,0 0.8125,-0.105469 0.29297,-0.109375 0.44532,-0.34375 0.15234,-0.238281 0.15234,-0.515625 0,-0.40625 -0.29687,-0.667968 -0.29297,-0.261719 -0.92969,-0.261719 h -1.8125 z"
       style="font-size:8px;font-family:Arial;fill:#000000"
       id="path1579"
       inkscape:connector-curvature="0" />
    <path
       d="m 179.83176,88.773165 v 0.506836 h -2.83887 q -0.006,-0.19043 0.0615,-0.366211 0.1084,-0.290039 0.34571,-0.571289 0.24023,-0.28125 0.6914,-0.650391 0.7002,-0.574218 0.94629,-0.908203 0.2461,-0.336914 0.2461,-0.635742 0,-0.313477 -0.22559,-0.527344 -0.22266,-0.216797 -0.58301,-0.216797 -0.38086,0 -0.60937,0.228516 -0.22852,0.228516 -0.23145,0.632812 l -0.54199,-0.05566 q 0.0557,-0.606445 0.41894,-0.922851 0.36329,-0.319336 0.97559,-0.319336 0.61816,0 0.97852,0.342773 0.36035,0.342774 0.36035,0.84961 0,0.257812 -0.10547,0.506836 -0.10547,0.249023 -0.35156,0.524414 -0.24317,0.27539 -0.81153,0.755859 -0.47461,0.398438 -0.60937,0.541992 -0.13477,0.140625 -0.22266,0.28418 z"
       style="font-size:6px;font-family:Arial;fill:#000000"
       id="path1581"
       inkscape:connector-curvature="0" />
  </g>
  <path
     style="fill:#000000;fill-rule:evenodd;stroke:#000000;stroke-width:0;stroke-linejoin:miter;shape-rendering:geometricPrecision"
     inkscape:connector-curvature="0"
     id="path115"
     d="m 146.88024,102.27938 v 0 h 0.33333 0.34667 v 6.66665 h -0.34667 -0.33333 z" />
  <g
     aria-label="R3"
     style="text-anchor:start;text-rendering:geometricPrecision"
     id="text123"
     transform="matrix(1.33333,0,0,1.33333,-71.412546,-28.120292)">
    <path
       d="m 161.69891,109.79 v -5.72656 h 2.53907 q 0.76562,0 1.16406,0.15625 0.39844,0.15234 0.63672,0.54297 0.23828,0.39062 0.23828,0.86328 0,0.60937 -0.39453,1.02734 -0.39453,0.41797 -1.21875,0.53125 0.30078,0.14453 0.45703,0.28516 0.33203,0.30469 0.6289,0.76172 l 0.9961,1.55859 h -0.95313 l -0.75781,-1.19141 q -0.33203,-0.51562 -0.54687,-0.78906 -0.21485,-0.27344 -0.38672,-0.38281 -0.16797,-0.10938 -0.34375,-0.15234 -0.12891,-0.0273 -0.42188,-0.0273 h -0.8789 V 109.79 Z m 0.75782,-3.19922 h 1.6289 q 0.51953,0 0.8125,-0.10547 0.29297,-0.10937 0.44531,-0.34375 0.15235,-0.23828 0.15235,-0.51562 0,-0.40625 -0.29688,-0.66797 -0.29297,-0.26172 -0.92968,-0.26172 h -1.8125 z"
       style="font-size:8px;font-family:Arial;fill:#000000"
       id="path1584"
       inkscape:connector-curvature="0" />
    <path
       d="m 167.10321,105.39621 0.52734,-0.0703 q 0.0908,0.44824 0.30762,0.64746 0.21973,0.19629 0.5332,0.19629 0.37207,0 0.62696,-0.25781 0.25781,-0.25782 0.25781,-0.63868 0,-0.36328 -0.2373,-0.59765 -0.23731,-0.23731 -0.60352,-0.23731 -0.14941,0 -0.37207,0.0586 l 0.0586,-0.46289 q 0.0527,0.006 0.085,0.006 0.33692,0 0.60645,-0.17578 0.26953,-0.17579 0.26953,-0.542 0,-0.29004 -0.19629,-0.48047 -0.19629,-0.19043 -0.50683,-0.19043 -0.30762,0 -0.5127,0.19336 -0.20508,0.19336 -0.26367,0.58008 l -0.52735,-0.0937 q 0.0967,-0.53027 0.43946,-0.82031 0.34277,-0.29297 0.85254,-0.29297 0.35156,0 0.64746,0.15234 0.2959,0.14942 0.45117,0.41016 0.1582,0.26074 0.1582,0.55371 0,0.27832 -0.14941,0.50684 -0.14942,0.22851 -0.44238,0.36328 0.38086,0.0879 0.59179,0.36621 0.21094,0.27539 0.21094,0.69141 0,0.5625 -0.41016,0.95507 -0.41015,0.38965 -1.03711,0.38965 -0.56542,0 -0.94042,-0.33691 -0.37208,-0.33692 -0.42481,-0.87305 z"
       style="font-size:6px;font-family:Arial;fill:#000000"
       id="path1586"
       inkscape:connector-curvature="0" />
  </g>
  <path
     style="fill:#000000;fill-rule:evenodd;stroke:#000000;stroke-width:0;stroke-linejoin:miter;shape-rendering:geometricPrecision"
     inkscape:connector-curvature="0"
     id="path127"
     d="m 138.92026,73.239454 v 0 l -0.16,-0.293332 -0.17333,-0.293333 3.93332,-2.266661 0.16,0.293333 0.17333,0.293332 z" />
  <g
     aria-label="ZrCp2Cl"
     style="text-anchor:start;text-rendering:geometricPrecision"
     id="text137"
     transform="matrix(1.33333,0,0,1.33333,-71.412546,-28.120292)">
    <path
       d="m 161.68016,75.290001 v -0.703125 l 2.93359,-3.667969 q 0.3125,-0.390625 0.59375,-0.679687 h -3.19531 v -0.675782 h 4.10156 v 0.675782 l -3.21484,3.972656 -0.34766,0.402344 h 3.65625 v 0.675781 z"
       style="font-size:8px;font-family:Arial;fill:#009d73"
       id="path1589"
       inkscape:connector-curvature="0" />
    <path
       d="m 166.93016,75.290001 v -4.148438 h 0.63281 v 0.628907 q 0.24219,-0.441407 0.44532,-0.582032 0.20703,-0.140625 0.45312,-0.140625 0.35547,0 0.72266,0.226563 l -0.24219,0.652344 q -0.25781,-0.152344 -0.51563,-0.152344 -0.23046,0 -0.41406,0.140625 -0.18359,0.136719 -0.26172,0.382812 -0.11718,0.375 -0.11718,0.820313 v 2.171875 z"
       style="font-size:8px;font-family:Arial;fill:#009d73"
       id="path1591"
       inkscape:connector-curvature="0" />
    <path
       d="m 173.78563,73.282188 0.75781,0.191407 q -0.23828,0.933593 -0.85937,1.425781 -0.61719,0.488281 -1.51172,0.488281 -0.92578,0 -1.50781,-0.375 -0.57813,-0.378906 -0.88282,-1.09375 -0.30078,-0.714844 -0.30078,-1.535156 0,-0.894531 0.33985,-1.558594 0.34375,-0.667969 0.97265,-1.011719 0.63281,-0.347656 1.39063,-0.347656 0.85937,0 1.44531,0.4375 0.58594,0.4375 0.81641,1.230469 l -0.7461,0.175781 q -0.19922,-0.625 -0.57812,-0.910156 -0.37891,-0.285156 -0.95313,-0.285156 -0.66015,0 -1.10547,0.316406 -0.4414,0.316406 -0.62109,0.851562 -0.17969,0.53125 -0.17969,1.097657 0,0.730468 0.21094,1.277343 0.21484,0.542969 0.66406,0.8125 0.44922,0.269532 0.97266,0.269532 0.63672,0 1.07812,-0.367188 0.44141,-0.367187 0.59766,-1.089844 z"
       style="font-size:8px;font-family:Arial;fill:#009d73"
       id="path1593"
       inkscape:connector-curvature="0" />
    <path
       d="m 175.3911,76.879845 v -5.738282 h 0.64062 v 0.539063 q 0.22657,-0.316406 0.51172,-0.472656 0.28516,-0.160157 0.69141,-0.160157 0.53125,0 0.9375,0.273438 0.40625,0.273437 0.61328,0.773437 0.20703,0.496094 0.20703,1.089844 0,0.636719 -0.23047,1.148438 -0.22656,0.507812 -0.66406,0.78125 -0.43359,0.269531 -0.91406,0.269531 -0.35157,0 -0.63282,-0.148438 -0.27734,-0.148437 -0.45703,-0.375 v 2.019532 z m 0.63672,-3.640625 q 0,0.800781 0.32422,1.183593 0.32421,0.382813 0.78515,0.382813 0.46875,0 0.80078,-0.394531 0.33594,-0.398438 0.33594,-1.230469 0,-0.792969 -0.32812,-1.1875 -0.32422,-0.394531 -0.77735,-0.394531 -0.44922,0 -0.79687,0.421875 -0.34375,0.417968 -0.34375,1.21875 z"
       style="font-size:8px;font-family:Arial;fill:#009d73"
       id="path1595"
       inkscape:connector-curvature="0" />
    <path
       d="m 182.33739,76.593165 v 0.506836 h -2.83887 q -0.006,-0.19043 0.0615,-0.366211 0.1084,-0.290039 0.34571,-0.571289 0.24023,-0.28125 0.6914,-0.650391 0.7002,-0.574219 0.94629,-0.908203 0.2461,-0.336914 0.2461,-0.635742 0,-0.313477 -0.22559,-0.527344 -0.22266,-0.216797 -0.58301,-0.216797 -0.38086,0 -0.60937,0.228516 -0.22852,0.228516 -0.23145,0.632812 l -0.54199,-0.05566 q 0.0557,-0.606445 0.41894,-0.922851 0.36329,-0.319336 0.97559,-0.319336 0.61816,0 0.97852,0.342773 0.36035,0.342774 0.36035,0.84961 0,0.257812 -0.10547,0.506836 -0.10547,0.249023 -0.35156,0.524414 -0.24317,0.27539 -0.81153,0.755859 -0.47461,0.398438 -0.60937,0.541992 -0.13477,0.140625 -0.22266,0.28418 z"
       style="font-size:6px;font-family:Arial;fill:#009d73"
       id="path1597"
       inkscape:connector-curvature="0" />
    <path
       d="m 187.35985,73.282188 0.75781,0.191407 q -0.23828,0.933593 -0.85937,1.425781 -0.61719,0.488281 -1.51172,0.488281 -0.92578,0 -1.50782,-0.375 -0.57812,-0.378906 -0.88281,-1.09375 -0.30078,-0.714844 -0.30078,-1.535156 0,-0.894531 0.33984,-1.558594 0.34375,-0.667969 0.97266,-1.011719 0.63281,-0.347656 1.39063,-0.347656 0.85937,0 1.44531,0.4375 0.58594,0.4375 0.8164,1.230469 l -0.74609,0.175781 q -0.19922,-0.625 -0.57812,-0.910156 -0.37891,-0.285156 -0.95313,-0.285156 -0.66016,0 -1.10547,0.316406 -0.4414,0.316406 -0.62109,0.851562 -0.17969,0.53125 -0.17969,1.097657 0,0.730468 0.21094,1.277343 0.21484,0.542969 0.66406,0.8125 0.44922,0.269532 0.97266,0.269532 0.63672,0 1.07812,-0.367188 0.44141,-0.367187 0.59766,-1.089844 z"
       style="font-size:8px;font-family:Arial;fill:#009d73"
       id="path1599"
       inkscape:connector-curvature="0" />
    <path
       d="m 188.94969,75.290001 v -5.726563 h 0.70313 v 5.726563 z"
       style="font-size:8px;font-family:Arial;fill:#009d73"
       id="path1601"
       inkscape:connector-curvature="0" />
  </g>
  <g
     aria-label="Cp2Zr(H)Cl"
     style="text-anchor:start;text-rendering:geometricPrecision"
     id="text147"
     transform="matrix(1.33333,0,0,1.33333,-71.412546,-28.120292)">
    <path
       d="m 72.793121,82.672188 0.757813,0.191406 q -0.238281,0.933594 -0.859375,1.425781 -0.617188,0.488282 -1.511719,0.488282 -0.925781,0 -1.507812,-0.375 -0.578125,-0.378907 -0.882813,-1.09375 -0.300781,-0.714844 -0.300781,-1.535157 0,-0.894531 0.339844,-1.558593 0.34375,-0.667969 0.972656,-1.011719 0.632812,-0.347656 1.390625,-0.347656 0.859375,0 1.445312,0.4375 0.585938,0.4375 0.816407,1.230468 l -0.746094,0.175782 q -0.199219,-0.625 -0.578125,-0.910157 -0.378906,-0.285156 -0.953125,-0.285156 -0.660156,0 -1.105469,0.316406 -0.441406,0.316407 -0.621094,0.851563 -0.179687,0.53125 -0.179687,1.097656 0,0.730469 0.210937,1.277344 0.214844,0.542969 0.664063,0.8125 0.449219,0.269531 0.972656,0.269531 0.636719,0 1.078125,-0.367187 0.441406,-0.367188 0.597656,-1.089844 z"
       style="font-size:8px;font-family:Arial;fill:#009d73"
       id="path1604"
       inkscape:connector-curvature="0" />
    <path
       d="m 74.39859,86.269844 v -5.738281 h 0.640625 v 0.539062 q 0.226563,-0.316406 0.511719,-0.472656 0.285156,-0.160156 0.691406,-0.160156 0.53125,0 0.9375,0.273437 0.40625,0.273438 0.613281,0.773438 0.207032,0.496094 0.207032,1.089844 0,0.636718 -0.230469,1.148437 -0.226563,0.507813 -0.664063,0.78125 -0.433593,0.269531 -0.914062,0.269531 -0.351563,0 -0.632813,-0.148437 -0.277343,-0.148438 -0.457031,-0.375 v 2.019531 z m 0.636719,-3.640625 q 0,0.800781 0.324219,1.183594 0.324218,0.382812 0.785156,0.382812 0.46875,0 0.800781,-0.394531 0.335938,-0.398437 0.335938,-1.230469 0,-0.792968 -0.328125,-1.1875 -0.324219,-0.394531 -0.777344,-0.394531 -0.449219,0 -0.796875,0.421875 -0.34375,0.417969 -0.34375,1.21875 z"
       style="font-size:8px;font-family:Arial;fill:#009d73"
       id="path1606"
       inkscape:connector-curvature="0" />
    <path
       d="M 81.344879,85.983164 V 86.49 h -2.838867 q -0.0059,-0.190429 0.06152,-0.366211 0.108399,-0.290039 0.345704,-0.571289 0.240234,-0.28125 0.691406,-0.65039 0.700195,-0.574219 0.946289,-0.908204 0.246094,-0.336914 0.246094,-0.635742 0,-0.313476 -0.225586,-0.527343 -0.222657,-0.216797 -0.583008,-0.216797 -0.38086,0 -0.609375,0.228515 -0.228516,0.228516 -0.231445,0.632813 l -0.541993,-0.05566 q 0.05566,-0.606446 0.418946,-0.922852 0.363281,-0.319336 0.975586,-0.319336 0.618164,0 0.978515,0.342774 0.360352,0.342773 0.360352,0.849609 0,0.257813 -0.105469,0.506836 -0.105469,0.249023 -0.351562,0.524414 -0.243165,0.275391 -0.811524,0.755859 -0.474609,0.398438 -0.609375,0.541993 -0.134766,0.140625 -0.222656,0.284179 z"
       style="font-size:6px;font-family:Arial;fill:#009d73"
       id="path1608"
       inkscape:connector-curvature="0" />
    <path
       d="m 81.824371,84.68 v -0.703125 l 2.933594,-3.667968 q 0.3125,-0.390625 0.59375,-0.679688 h -3.195312 v -0.675781 h 4.101562 v 0.675781 l -3.214844,3.972656 -0.347656,0.402344 h 3.65625 V 84.68 Z"
       style="font-size:8px;font-family:Arial;fill:#009d73"
       id="path1610"
       inkscape:connector-curvature="0" />
    <path
       d="m 87.074371,84.68 v -4.148437 h 0.632813 v 0.628906 q 0.242187,-0.441406 0.445312,-0.582031 0.207032,-0.140625 0.453125,-0.140625 0.355469,0 0.722657,0.226562 l -0.242188,0.652344 q -0.257812,-0.152344 -0.515625,-0.152344 -0.230469,0 -0.414062,0.140625 -0.183594,0.136719 -0.261719,0.382813 -0.117188,0.375 -0.117188,0.820312 V 84.68 Z"
       style="font-size:8px;font-family:Arial;fill:#009d73"
       id="path1612"
       inkscape:connector-curvature="0" />
    <path
       d="m 91.097809,86.363594 q -0.582031,-0.734375 -0.984375,-1.71875 -0.402344,-0.984375 -0.402344,-2.039062 0,-0.929688 0.300781,-1.78125 0.351563,-0.988282 1.085938,-1.96875 h 0.503906 q -0.472656,0.8125 -0.625,1.160156 -0.238281,0.539062 -0.375,1.125 -0.167969,0.730469 -0.167969,1.46875 0,1.878906 1.167969,3.753906 z"
       style="font-size:8px;font-family:Arial;fill:#009d73"
       id="path1614"
       inkscape:connector-curvature="0" />
    <path
       d="m 92.539215,84.68 v -5.726562 h 0.757813 V 81.305 h 2.976562 v -2.351562 h 0.757813 V 84.68 H 96.27359 V 81.980782 H 93.297028 V 84.68 Z"
       style="font-size:8px;font-family:Arial;fill:#009d73"
       id="path1616"
       inkscape:connector-curvature="0" />
    <path
       d="m 98.668121,86.363594 h -0.503906 q 1.167969,-1.875 1.167969,-3.753906 0,-0.734375 -0.167969,-1.457031 -0.132812,-0.585938 -0.371094,-1.125 -0.152343,-0.351563 -0.628906,-1.171875 h 0.503906 q 0.734375,0.980468 1.085938,1.96875 0.300781,0.851562 0.300781,1.78125 0,1.054687 -0.40625,2.039062 -0.402344,0.984375 -0.980469,1.71875 z"
       style="font-size:8px;font-family:Arial;fill:#009d73"
       id="path1618"
       inkscape:connector-curvature="0" />
    <path
       d="m 105.05484,82.672188 0.75781,0.191406 q -0.23828,0.933594 -0.85937,1.425781 -0.61719,0.488282 -1.51172,0.488282 -0.92578,0 -1.50781,-0.375 -0.57813,-0.378907 -0.88282,-1.09375 -0.30078,-0.714844 -0.30078,-1.535157 0,-0.894531 0.33985,-1.558593 0.34375,-0.667969 0.97265,-1.011719 0.63282,-0.347656 1.39063,-0.347656 0.85937,0 1.44531,0.4375 0.58594,0.4375 0.81641,1.230468 l -0.7461,0.175782 q -0.19922,-0.625 -0.57812,-0.910157 -0.37891,-0.285156 -0.95313,-0.285156 -0.66015,0 -1.10547,0.316406 -0.4414,0.316407 -0.62109,0.851563 -0.17969,0.53125 -0.17969,1.097656 0,0.730469 0.21094,1.277344 0.21484,0.542969 0.66406,0.8125 0.44922,0.269531 0.97266,0.269531 0.63672,0 1.07812,-0.367187 0.44141,-0.367188 0.59766,-1.089844 z"
       style="font-size:8px;font-family:Arial;fill:#009d73"
       id="path1620"
       inkscape:connector-curvature="0" />
    <path
       d="m 106.64468,84.68 v -5.726562 h 0.70313 V 84.68 Z"
       style="font-size:8px;font-family:Arial;fill:#009d73"
       id="path1622"
       inkscape:connector-curvature="0" />
  </g>
  <path
     style="fill:#009d73;fill-rule:evenodd;stroke:#009d73;stroke-width:0;stroke-linejoin:miter;shape-rendering:geometricPrecision"
     inkscape:connector-curvature="0"
     id="path151"
     d="m 133.60027,90.719411 v 0 l 0.33334,0.346665 -0.58667,0.333333 -9.95997,0.01333 v -0.346666 -0.333332 z" />
  <g
     aria-label="H"
     style="text-anchor:start;text-rendering:geometricPrecision"
     id="text157"
     transform="matrix(1.33333,0,0,1.33333,-71.412546,-28.120292)">
    <path
       d="m 140.25063,92.540001 v -5.726563 h 0.75781 v 2.351563 h 2.97656 v -2.351563 h 0.75781 v 5.726563 H 143.985 v -2.699219 h -2.97656 v 2.699219 z"
       style="font-size:8px;font-family:Arial;fill:#009d73"
       id="path1625"
       inkscape:connector-curvature="0" />
  </g>
  <path
     style="stroke:#000000;stroke-width:0.67999828;shape-rendering:auto"
     d="M 250.14665,91.66607 H 186.25348"
     id="line161"
     inkscape:connector-curvature="0" />
  <path
     style="fill:#000000;fill-rule:evenodd;stroke:#000000;stroke-width:0;stroke-linejoin:miter;stroke-miterlimit:5.89496231;shape-rendering:geometricPrecision"
     inkscape:connector-curvature="0"
     id="path163"
     stroke-miterlimit="5.89496254687632"
     d="m 254.75997,91.666075 -6.79998,-1.706662 c 1.42666,0.959997 1.42666,2.453327 0,3.413324 z" />
  <g
     aria-label="R1"
     style="text-anchor:end;text-rendering:geometricPrecision"
     id="text171"
     transform="matrix(1.33333,0,0,1.33333,-71.412546,-28.120292)">
    <path
       d="m 258.59781,92.839996 v -5.726562 h 2.53906 q 0.76563,0 1.16406,0.15625 0.39844,0.152344 0.63672,0.542969 0.23828,0.390625 0.23828,0.863281 0,0.609375 -0.39453,1.027344 -0.39453,0.417968 -1.21875,0.53125 0.30078,0.144531 0.45703,0.285156 0.33204,0.304687 0.62891,0.761719 l 0.99609,1.558593 h -0.95312 l -0.75781,-1.191406 q -0.33203,-0.515625 -0.54688,-0.789062 -0.21484,-0.273438 -0.38672,-0.382813 -0.16797,-0.109375 -0.34375,-0.152344 -0.1289,-0.02734 -0.42187,-0.02734 h -0.87891 v 2.542968 z m 0.75781,-3.199218 h 1.62891 q 0.51953,0 0.8125,-0.105469 0.29297,-0.109375 0.44531,-0.34375 0.15234,-0.238281 0.15234,-0.515625 0,-0.40625 -0.29687,-0.667969 -0.29297,-0.261719 -0.92969,-0.261719 h -1.8125 z"
       style="font-size:8px;font-family:Arial;fill:#000000"
       id="path1629"
       inkscape:connector-curvature="0" />
    <path
       d="m 265.9855,89.579996 h -0.52734 v -3.360351 q -0.19043,0.18164 -0.50098,0.363281 -0.30761,0.181641 -0.55371,0.272461 v -0.509766 q 0.44239,-0.208007 0.77344,-0.503906 0.33106,-0.295898 0.46875,-0.574219 h 0.33984 z"
       style="font-size:6px;font-family:Arial;fill:#000000"
       id="path1631"
       inkscape:connector-curvature="0" />
  </g>
  <path
     style="fill:#000000;fill-rule:evenodd;stroke:#000000;stroke-width:0;stroke-linejoin:miter;shape-rendering:geometricPrecision"
     inkscape:connector-curvature="0"
     id="path175"
     d="m 284.9199,86.91942 v 0 l -0.16,-0.293332 -0.17334,-0.306666 5.06666,-2.919993 v 0.386666 0.386665 z" />
  <path
     style="fill:#000000;fill-rule:evenodd;stroke:#000000;stroke-width:0;stroke-linejoin:miter;shape-rendering:geometricPrecision"
     inkscape:connector-curvature="0"
     id="path179"
     d="m 289.65322,84.17276 v 0 -0.386665 -0.386666 l 8.93331,5.159987 -0.17333,0.293333 -0.16,0.293332 z" />
  <path
     style="stroke:#000000;stroke-width:0.67999828;shape-rendering:auto"
     d="m 289.6532,86.972753 7.38667,4.266652"
     id="line181"
     inkscape:connector-curvature="0" />
  <g
     aria-label="N"
     style="text-anchor:start;text-rendering:geometricPrecision"
     id="text187"
     transform="matrix(1.33333,0,0,1.33333,-71.412546,-28.120292)">
    <path
       d="m 278.47937,92.839996 v -5.726562 h 0.77734 l 3.00782,4.496094 v -4.496094 h 0.72656 v 5.726562 h -0.77734 l -3.00782,-4.5 v 4.5 z"
       style="font-size:8px;font-family:Arial;fill:#000000"
       id="path1635"
       inkscape:connector-curvature="0" />
  </g>
  <path
     style="fill:#000000;fill-rule:evenodd;stroke:#000000;stroke-width:0;stroke-linejoin:miter;shape-rendering:geometricPrecision"
     inkscape:connector-curvature="0"
     id="path191"
     d="m 307.58651,89.172748 v 0 l -0.16,-0.293333 -0.17334,-0.293332 4.33333,-2.506661 0.16,0.293333 0.17333,0.306666 z" />
  <g
     aria-label="R2"
     style="text-anchor:start;text-rendering:geometricPrecision"
     id="text199"
     transform="matrix(1.33333,0,0,1.33333,-71.412546,-28.120292)">
    <path
       d="m 288.4689,87.080002 v -5.726563 h 2.53907 q 0.76562,0 1.16406,0.15625 0.39844,0.152344 0.63672,0.542969 0.23828,0.390625 0.23828,0.863281 0,0.609375 -0.39453,1.027344 -0.39453,0.417969 -1.21875,0.53125 0.30078,0.144531 0.45703,0.285156 0.33203,0.304688 0.6289,0.761719 l 0.9961,1.558594 h -0.95313 l -0.75781,-1.191406 q -0.33203,-0.515625 -0.54687,-0.789063 -0.21485,-0.273437 -0.38672,-0.382812 -0.16797,-0.109375 -0.34375,-0.152344 -0.12891,-0.02734 -0.42188,-0.02734 h -0.8789 v 2.542969 z m 0.75782,-3.199219 h 1.6289 q 0.51953,0 0.8125,-0.105469 0.29297,-0.109375 0.44531,-0.34375 0.15235,-0.238281 0.15235,-0.515625 0,-0.40625 -0.29688,-0.667968 -0.29297,-0.261719 -0.92968,-0.261719 h -1.8125 z"
       style="font-size:8px;font-family:Arial;fill:#000000"
       id="path1638"
       inkscape:connector-curvature="0" />
    <path
       d="m 296.64175,83.313166 v 0.506836 h -2.83886 q -0.006,-0.19043 0.0615,-0.366211 0.1084,-0.290039 0.3457,-0.571289 0.24024,-0.28125 0.69141,-0.650391 0.7002,-0.574219 0.94629,-0.908203 0.24609,-0.336914 0.24609,-0.635742 0,-0.313477 -0.22558,-0.527344 -0.22266,-0.216797 -0.58301,-0.216797 -0.38086,0 -0.60938,0.228516 -0.22851,0.228516 -0.23144,0.632812 l -0.54199,-0.05566 q 0.0557,-0.606445 0.41894,-0.922851 0.36328,-0.319336 0.97559,-0.319336 0.61816,0 0.97851,0.342773 0.36035,0.342774 0.36035,0.84961 0,0.257812 -0.10546,0.506836 -0.10547,0.249023 -0.35157,0.524414 -0.24316,0.27539 -0.81152,0.755859 -0.47461,0.398438 -0.60937,0.541992 -0.13477,0.140625 -0.22266,0.28418 z"
       style="font-size:6px;font-family:Arial;fill:#000000"
       id="path1640"
       inkscape:connector-curvature="0" />
  </g>
  <path
     style="fill:#000000;fill-rule:evenodd;stroke:#000000;stroke-width:0;stroke-linejoin:miter;shape-rendering:geometricPrecision"
     inkscape:connector-curvature="0"
     id="path203"
     d="m 302.61319,95.0794 v 0 h 0.33333 0.34666 v 6.66665 h -0.34666 -0.33333 z" />
  <g
     aria-label="R3"
     style="text-anchor:start;text-rendering:geometricPrecision"
     id="text211"
     transform="matrix(1.33333,0,0,1.33333,-71.412546,-28.120292)">
    <path
       d="m 278.4989,104.35 v -5.726564 h 2.53906 q 0.76563,0 1.16407,0.15625 0.39843,0.152344 0.63672,0.542969 0.23828,0.390625 0.23828,0.863285 0,0.60937 -0.39453,1.02734 -0.39454,0.41797 -1.21875,0.53125 0.30078,0.14453 0.45703,0.28516 0.33203,0.30468 0.6289,0.76171 l 0.9961,1.5586 h -0.95313 l -0.75781,-1.19141 q -0.33203,-0.51562 -0.54688,-0.78906 -0.21484,-0.27344 -0.38671,-0.38281 -0.16797,-0.10938 -0.34375,-0.15235 -0.12891,-0.0273 -0.42188,-0.0273 h -0.87891 V 104.35 Z m 0.75781,-3.19922 h 1.62891 q 0.51953,0 0.8125,-0.10547 0.29297,-0.10937 0.44531,-0.34375 0.15235,-0.23828 0.15235,-0.51562 0,-0.406254 -0.29688,-0.667973 -0.29297,-0.261719 -0.92969,-0.261719 h -1.8125 z"
       style="font-size:8px;font-family:Arial;fill:#000000"
       id="path1643"
       inkscape:connector-curvature="0" />
    <path
       d="m 283.9032,99.956209 0.52734,-0.07031 q 0.0908,0.448241 0.30762,0.647461 0.21973,0.19629 0.5332,0.19629 0.37207,0 0.62696,-0.25782 0.25781,-0.25781 0.25781,-0.638665 0,-0.363282 -0.23731,-0.597657 -0.2373,-0.237304 -0.60351,-0.237304 -0.14942,0 -0.37207,0.05859 l 0.0586,-0.46289 q 0.0527,0.0059 0.085,0.0059 0.33692,0 0.60645,-0.175781 0.26953,-0.175781 0.26953,-0.541992 0,-0.290039 -0.19629,-0.480469 -0.19629,-0.19043 -0.50684,-0.19043 -0.30761,0 -0.51269,0.19336 -0.20508,0.193359 -0.26367,0.580078 l -0.52735,-0.09375 q 0.0967,-0.530274 0.43946,-0.820313 0.34277,-0.292969 0.85253,-0.292969 0.35157,0 0.64747,0.152344 0.29589,0.149414 0.45117,0.410156 0.1582,0.260743 0.1582,0.553711 0,0.278321 -0.14941,0.506836 -0.14942,0.228516 -0.44239,0.363282 0.38086,0.08789 0.5918,0.366211 0.21094,0.27539 0.21094,0.691406 0,0.562496 -0.41016,0.955076 -0.41015,0.38965 -1.03711,0.38965 -0.56543,0 -0.94043,-0.33691 -0.37207,-0.33692 -0.4248,-0.873051 z"
       style="font-size:6px;font-family:Arial;fill:#000000"
       id="path1645"
       inkscape:connector-curvature="0" />
  </g>
  <path
     style="fill:none;stroke:#000000;stroke-width:0.54399866"
     d="m 306.52875,80.51944 a 3.5555467,3.5555467 0 0 1 -3.55555,3.555547 3.5555467,3.5555467 0 0 1 -3.55555,-3.555547 3.5555467,3.5555467 0 0 1 3.55555,-3.555546 3.5555467,3.5555467 0 0 1 3.55555,3.555546 z"
     id="circle215"
     inkscape:connector-curvature="0" />
  <path
     style="stroke:#000000;stroke-width:0.54399866;shape-rendering:auto"
     d="m 300.8532,80.51944 h 4.23998"
     id="line217"
     inkscape:connector-curvature="0" />
  <path
     style="stroke:#000000;stroke-width:0.54399866;shape-rendering:auto"
     d="m 302.9732,78.39944 v 4.239991"
     id="line219"
     inkscape:connector-curvature="0" />
  <path
     style="stroke:#e69e00;stroke-width:0.67999828;shape-rendering:auto"
     d="M 234.85335,73.292785 V 61.092823"
     id="line222"
     inkscape:connector-curvature="0" />
  <path
     style="stroke:#e69e00;stroke-width:0.66226584;shape-rendering:auto"
     d="M 234.85335,61.092823 H 351.26877"
     id="line224"
     inkscape:connector-curvature="0" />
  <path
     style="fill:#e69e00;stroke:#e69e00;stroke-width:0.1466663"
     d="m 236.72668,74.079455 a 1.8733286,1.8733286 0 0 1 -1.87333,1.873327 1.8733286,1.8733286 0 0 1 -1.87332,-1.873327 1.8733286,1.8733286 0 0 1 1.87332,-1.873329 1.8733286,1.8733286 0 0 1 1.87333,1.873329 z"
     id="circle232"
     inkscape:connector-curvature="0" />
  <path
     style="stroke:#000000;stroke-width:0.67999828;shape-rendering:auto"
     d="M 405.63961,91.66607 H 341.75975"
     id="line235"
     inkscape:connector-curvature="0" />
  <path
     style="fill:#000000;fill-rule:evenodd;stroke:#000000;stroke-width:0;stroke-linejoin:miter;stroke-miterlimit:5.89496231;shape-rendering:geometricPrecision"
     inkscape:connector-curvature="0"
     id="path237"
     stroke-miterlimit="5.89496254687647"
     d="m 410.25292,91.666075 -6.79999,-1.706662 c 1.42667,0.959997 1.42667,2.453327 0,3.413324 z" />
  <g
     aria-label="R1"
     style="text-anchor:end;text-rendering:geometricPrecision"
     id="text245"
     transform="matrix(1.33333,0,0,1.33333,-71.412546,-28.120292)">
    <path
       d="m 376.7178,92.839996 v -5.726562 h 2.53907 q 0.76562,0 1.16406,0.15625 0.39844,0.152344 0.63672,0.542969 0.23828,0.390625 0.23828,0.863281 0,0.609375 -0.39453,1.027344 -0.39453,0.417968 -1.21875,0.53125 0.30078,0.144531 0.45703,0.285156 0.33203,0.304687 0.62891,0.761719 l 0.99609,1.558593 h -0.95313 l -0.75781,-1.191406 q -0.33203,-0.515625 -0.54687,-0.789062 -0.21485,-0.273438 -0.38672,-0.382813 -0.16797,-0.109375 -0.34375,-0.152344 -0.12891,-0.02734 -0.42188,-0.02734 h -0.8789 v 2.542968 z m 0.75782,-3.199218 h 1.6289 q 0.51953,0 0.8125,-0.105469 0.29297,-0.109375 0.44532,-0.34375 0.15234,-0.238281 0.15234,-0.515625 0,-0.40625 -0.29688,-0.667969 -0.29296,-0.261719 -0.92968,-0.261719 h -1.8125 z"
       style="font-size:8px;font-family:Arial;fill:#000000"
       id="path1692"
       inkscape:connector-curvature="0" />
    <path
       d="m 384.1055,89.579996 h -0.52734 v -3.360351 q -0.19043,0.18164 -0.50098,0.363281 -0.30762,0.181641 -0.55371,0.272461 v -0.509766 q 0.44238,-0.208007 0.77344,-0.503906 0.33105,-0.295898 0.46875,-0.574219 h 0.33984 z"
       style="font-size:6px;font-family:Arial;fill:#000000"
       id="path1694"
       inkscape:connector-curvature="0" />
  </g>
  <path
     style="fill:#000000;fill-rule:evenodd;stroke:#000000;stroke-width:0;stroke-linejoin:miter;shape-rendering:geometricPrecision"
     inkscape:connector-curvature="0"
     id="path249"
     d="m 442.5195,86.852754 v 0 l -0.16,-0.293333 -0.17333,-0.293333 4.63999,-2.679993 0.33333,0.2 v 0.386665 z" />
  <g
     aria-label="N"
     style="text-anchor:start;text-rendering:geometricPrecision"
     id="text255"
     transform="matrix(1.33333,0,0,1.33333,-71.412546,-28.120292)">
    <path
       d="m 396.60937,92.839996 v -5.726562 h 0.77735 l 3.00781,4.496094 v -4.496094 h 0.72656 v 5.726562 h -0.77734 l -3.00781,-4.5 v 4.5 z"
       style="font-size:8px;font-family:Arial;fill:#000000"
       id="path1697"
       inkscape:connector-curvature="0" />
  </g>
  <path
     style="fill:#000000;fill-rule:evenodd;stroke:#000000;stroke-width:0;stroke-linejoin:miter;shape-rendering:geometricPrecision"
     inkscape:connector-curvature="0"
     id="path259"
     d="m 447.15949,84.17276 v 0 -0.386665 l 0.34667,-0.2 8.67997,5.026654 -0.17333,0.293333 -0.16,0.293332 z" />
  <path
     style="fill:#000000;fill-rule:evenodd;stroke:#000000;stroke-width:0;stroke-linejoin:miter;shape-rendering:geometricPrecision"
     inkscape:connector-curvature="0"
     id="path263"
     d="m 465.18611,89.119415 v 0 l -0.16,-0.293333 -0.17333,-0.293333 4.19999,-2.42666 0.16,0.293332 0.17333,0.293333 z" />
  <g
     aria-label="R2"
     style="text-anchor:start;text-rendering:geometricPrecision"
     id="text271"
     transform="matrix(1.33333,0,0,1.33333,-71.412546,-28.120292)">
    <path
       d="m 406.5889,87.080002 v -5.726563 h 2.53906 q 0.76563,0 1.16406,0.15625 0.39844,0.152344 0.63672,0.542969 0.23828,0.390625 0.23828,0.863281 0,0.609375 -0.39453,1.027344 -0.39453,0.417969 -1.21875,0.53125 0.30078,0.144531 0.45703,0.285156 0.33203,0.304688 0.62891,0.761719 l 0.99609,1.558594 h -0.95312 l -0.75781,-1.191406 q -0.33204,-0.515625 -0.54688,-0.789063 -0.21484,-0.273437 -0.38672,-0.382812 -0.16797,-0.109375 -0.34375,-0.152344 -0.1289,-0.02734 -0.42187,-0.02734 h -0.87891 v 2.542969 z m 0.75781,-3.199219 h 1.62891 q 0.51953,0 0.8125,-0.105469 0.29297,-0.109375 0.44531,-0.34375 0.15234,-0.238281 0.15234,-0.515625 0,-0.40625 -0.29687,-0.667968 -0.29297,-0.261719 -0.92969,-0.261719 h -1.8125 z"
       style="font-size:8px;font-family:Arial;fill:#000000"
       id="path1700"
       inkscape:connector-curvature="0" />
    <path
       d="m 414.76175,83.313166 v 0.506836 h -2.83887 q -0.006,-0.19043 0.0615,-0.366211 0.10839,-0.290039 0.3457,-0.571289 0.24023,-0.28125 0.6914,-0.650391 0.7002,-0.574219 0.94629,-0.908203 0.2461,-0.336914 0.2461,-0.635742 0,-0.313477 -0.22559,-0.527344 -0.22265,-0.216797 -0.58301,-0.216797 -0.38086,0 -0.60937,0.228516 -0.22852,0.228516 -0.23145,0.632812 l -0.54199,-0.05566 q 0.0557,-0.606445 0.41895,-0.922851 0.36328,-0.319336 0.97558,-0.319336 0.61817,0 0.97852,0.342773 0.36035,0.342774 0.36035,0.84961 0,0.257812 -0.10547,0.506836 -0.10547,0.249023 -0.35156,0.524414 -0.24317,0.27539 -0.81152,0.755859 -0.47461,0.398438 -0.60938,0.541992 -0.13477,0.140625 -0.22266,0.28418 z"
       style="font-size:6px;font-family:Arial;fill:#000000"
       id="path1702"
       inkscape:connector-curvature="0" />
  </g>
  <path
     style="fill:#000000;fill-rule:evenodd;stroke:#000000;stroke-width:0;stroke-linejoin:miter;shape-rendering:geometricPrecision"
     inkscape:connector-curvature="0"
     id="path275"
     d="m 460.11946,94.946067 v 0 h 0.33333 0.34667 v 6.799983 h -0.34667 -0.33333 z" />
  <g
     aria-label="R3"
     style="text-anchor:start;text-rendering:geometricPrecision"
     id="text283"
     transform="matrix(1.33333,0,0,1.33333,-71.412546,-28.120292)">
    <path
       d="m 396.62891,104.35 v -5.726564 h 2.53906 q 0.76562,0 1.16406,0.15625 0.39844,0.152344 0.63672,0.542969 0.23828,0.390625 0.23828,0.863285 0,0.60937 -0.39453,1.02734 -0.39453,0.41797 -1.21875,0.53125 0.30078,0.14453 0.45703,0.28516 0.33203,0.30468 0.62891,0.76171 l 0.99609,1.5586 h -0.95312 l -0.75782,-1.19141 q -0.33203,-0.51562 -0.54687,-0.78906 -0.21485,-0.27344 -0.38672,-0.38281 -0.16797,-0.10938 -0.34375,-0.15235 -0.12891,-0.0273 -0.42188,-0.0273 h -0.8789 V 104.35 Z m 0.75781,-3.19922 h 1.6289 q 0.51954,0 0.8125,-0.10547 0.29297,-0.10937 0.44532,-0.34375 0.15234,-0.23828 0.15234,-0.51562 0,-0.406254 -0.29687,-0.667973 -0.29297,-0.261719 -0.92969,-0.261719 h -1.8125 z"
       style="font-size:8px;font-family:Arial;fill:#000000"
       id="path1705"
       inkscape:connector-curvature="0" />
    <path
       d="m 402.0332,99.956209 0.52735,-0.07031 q 0.0908,0.448241 0.30761,0.647461 0.21973,0.19629 0.53321,0.19629 0.37207,0 0.62695,-0.25782 0.25781,-0.25781 0.25781,-0.638665 0,-0.363282 -0.2373,-0.597657 -0.23731,-0.237304 -0.60352,-0.237304 -0.14941,0 -0.37207,0.05859 l 0.0586,-0.46289 q 0.0527,0.0059 0.085,0.0059 0.33691,0 0.60644,-0.175781 0.26953,-0.175781 0.26953,-0.541992 0,-0.290039 -0.19629,-0.480469 -0.19628,-0.19043 -0.50683,-0.19043 -0.30762,0 -0.5127,0.19336 -0.20508,0.193359 -0.26367,0.580078 l -0.52734,-0.09375 q 0.0967,-0.530274 0.43945,-0.820313 0.34277,-0.292969 0.85254,-0.292969 0.35156,0 0.64746,0.152344 0.2959,0.149414 0.45117,0.410156 0.15821,0.260743 0.15821,0.553711 0,0.278321 -0.14942,0.506836 -0.14941,0.228516 -0.44238,0.363282 0.38086,0.08789 0.5918,0.366211 0.21093,0.27539 0.21093,0.691406 0,0.562496 -0.41015,0.955076 -0.41016,0.38965 -1.03711,0.38965 -0.56543,0 -0.94043,-0.33691 -0.37207,-0.33692 -0.42481,-0.873051 z"
       style="font-size:6px;font-family:Arial;fill:#000000"
       id="path1707"
       inkscape:connector-curvature="0" />
  </g>
  <g
     aria-label="Nu"
     style="text-anchor:start;text-rendering:geometricPrecision"
     id="text289"
     transform="matrix(1.33333,0,0,1.33333,-71.412546,-28.120292)">
    <path
       d="m 386.63937,75.57 v -5.726563 h 0.77735 l 3.00781,4.496094 v -4.496094 h 0.72656 V 75.57 h -0.77734 l -3.00781,-4.5 v 4.5 z"
       style="font-size:8px;font-family:Arial;fill:#cc78a6"
       id="path1710"
       inkscape:connector-curvature="0" />
    <path
       d="m 395.05734,75.57 v -0.609375 q -0.48437,0.703125 -1.3164,0.703125 -0.36719,0 -0.6875,-0.140625 -0.31641,-0.140625 -0.47266,-0.351563 -0.15234,-0.214844 -0.21484,-0.523437 -0.043,-0.207032 -0.043,-0.65625 v -2.570313 h 0.70312 v 2.300781 q 0,0.550782 0.043,0.742188 0.0664,0.277344 0.28125,0.4375 0.21485,0.15625 0.53125,0.15625 0.31641,0 0.59375,-0.160156 0.27735,-0.164063 0.39063,-0.441407 0.11718,-0.28125 0.11718,-0.8125 v -2.222656 h 0.70313 V 75.57 Z"
       style="font-size:8px;font-family:Arial;fill:#cc78a6"
       id="path1712"
       inkscape:connector-curvature="0" />
  </g>
  <path
     style="fill:#cc78a6;fill-rule:evenodd;stroke:#cc78a6;stroke-width:0;stroke-linejoin:miter;shape-rendering:geometricPrecision"
     inkscape:connector-curvature="0"
     id="path293"
     d="m 447.50616,83.586095 v 0 l -0.34667,0.2 -0.33333,-0.2 v -9.039977 h 0.33333 0.34667 z" />
  <g
     aria-label="Nu"
     style="text-anchor:start;text-rendering:geometricPrecision"
     id="text299"
     transform="matrix(1.33333,0,0,1.33333,-71.412546,-28.120292)">
    <path
       d="m 327.79938,85.129997 v -5.726562 h 0.77734 l 3.00781,4.496094 v -4.496094 h 0.72657 v 5.726562 h -0.77735 l -3.00781,-4.5 v 4.5 z"
       style="font-size:8px;font-family:Arial;fill:#cc78a6"
       id="path1715"
       inkscape:connector-curvature="0" />
    <path
       d="m 336.21735,85.129997 v -0.609375 q -0.48438,0.703125 -1.31641,0.703125 -0.36719,0 -0.6875,-0.140625 -0.31641,-0.140625 -0.47266,-0.351562 -0.15234,-0.214844 -0.21484,-0.523438 -0.043,-0.207031 -0.043,-0.65625 V 80.98156 h 0.70313 v 2.300781 q 0,0.550781 0.043,0.742188 0.0664,0.277343 0.28125,0.4375 0.21485,0.15625 0.53125,0.15625 0.31641,0 0.59375,-0.160157 0.27735,-0.164062 0.39063,-0.441406 0.11719,-0.28125 0.11719,-0.8125 V 80.98156 h 0.70312 v 4.148437 z"
       style="font-size:8px;font-family:Arial;fill:#cc78a6"
       id="path1717"
       inkscape:connector-curvature="0" />
  </g>
  <path
     style="fill:none;stroke:#cc78a6;stroke-width:0.54399866"
     d="m 383.39521,72.386119 a 3.5555467,3.5555467 0 0 1 -3.55555,3.555547 3.5555467,3.5555467 0 0 1 -3.55554,-3.555547 3.5555467,3.5555467 0 0 1 3.55554,-3.555546 3.5555467,3.5555467 0 0 1 3.55555,3.555546 z"
     id="circle303"
     inkscape:connector-curvature="0" />
  <path
     style="stroke:#cc78a6;stroke-width:0.54399866;shape-rendering:auto"
     d="m 377.71968,72.386119 h 4.23997"
     id="line305"
     inkscape:connector-curvature="0" />
  <g
     aria-label="kwas"
     style="text-anchor:start;text-rendering:geometricPrecision"
     id="text310"
     transform="matrix(1.33333,0,0,1.33333,-71.412546,-28.120292)">
    <path
       d="m 208.09125,85.129997 v -5.726562 h 0.70312 v 3.265625 l 1.66407,-1.6875 h 0.91015 l -1.58594,1.539062 1.7461,2.609375 h -0.86719 l -1.37109,-2.121093 -0.4961,0.476562 v 1.644531 z"
       style="font-size:8px;font-family:Arial;fill:#000000"
       id="path1722"
       inkscape:connector-curvature="0" />
    <path
       d="M 212.85297,85.129997 211.58344,80.98156 H 212.31 l 0.66015,2.394531 0.2461,0.890625 q 0.0156,-0.06641 0.21484,-0.855469 l 0.66016,-2.429687 h 0.72265 l 0.6211,2.40625 0.20703,0.792969 0.23828,-0.800782 0.71094,-2.398437 h 0.68359 l -1.29687,4.148437 h -0.73047 l -0.66016,-2.484375 -0.16015,-0.707031 -0.83985,3.191406 z"
       style="font-size:8px;font-family:Arial;fill:#000000"
       id="path1724"
       inkscape:connector-curvature="0" />
    <path
       d="m 220.57562,84.618279 q -0.39062,0.332031 -0.7539,0.46875 -0.35938,0.136718 -0.77344,0.136718 -0.68359,0 -1.05078,-0.332031 -0.36719,-0.335937 -0.36719,-0.855469 0,-0.304687 0.13672,-0.554687 0.14062,-0.253906 0.36328,-0.40625 0.22656,-0.152344 0.50781,-0.230469 0.20703,-0.05469 0.625,-0.105469 0.85157,-0.101562 1.25391,-0.242187 0.004,-0.144531 0.004,-0.183594 0,-0.429687 -0.19922,-0.605469 -0.26953,-0.238281 -0.80078,-0.238281 -0.4961,0 -0.73438,0.175781 -0.23437,0.171875 -0.34766,0.613282 l -0.6875,-0.09375 q 0.0937,-0.441407 0.3086,-0.710938 0.21484,-0.273437 0.62109,-0.417969 0.40625,-0.148437 0.94141,-0.148437 0.53125,0 0.86328,0.125 0.33203,0.125 0.48828,0.316406 0.15625,0.1875 0.21875,0.476563 0.0352,0.179687 0.0352,0.648437 v 0.9375 q 0,0.980469 0.043,1.242188 0.0469,0.257812 0.17968,0.496093 h -0.73437 q -0.10938,-0.21875 -0.14063,-0.511718 z m -0.0586,-1.570313 q -0.38281,0.15625 -1.14844,0.265625 -0.43359,0.0625 -0.61328,0.140625 -0.17969,0.07813 -0.27734,0.230469 -0.0977,0.148437 -0.0977,0.332031 0,0.28125 0.21094,0.46875 0.21484,0.1875 0.625,0.1875 0.40625,0 0.72265,-0.175781 0.31641,-0.179688 0.46485,-0.488281 0.11328,-0.238282 0.11328,-0.703125 z"
       style="font-size:8px;font-family:Arial;fill:#000000"
       id="path1726"
       inkscape:connector-curvature="0" />
    <path
       d="m 222.04047,83.891716 0.69531,-0.109375 q 0.0586,0.417969 0.32422,0.640625 0.26953,0.222656 0.75,0.222656 0.48437,0 0.71875,-0.195312 0.23437,-0.199219 0.23437,-0.464844 0,-0.238281 -0.20703,-0.375 -0.14453,-0.09375 -0.71875,-0.238281 -0.77344,-0.195313 -1.07422,-0.335938 -0.29687,-0.144531 -0.45312,-0.394531 -0.15235,-0.253906 -0.15235,-0.558594 0,-0.277343 0.125,-0.511718 0.12891,-0.238282 0.34766,-0.394532 0.16406,-0.121093 0.44531,-0.203125 0.28516,-0.08594 0.60938,-0.08594 0.48828,0 0.85547,0.140625 0.37109,0.140625 0.54687,0.382812 0.17578,0.238282 0.24219,0.640625 l -0.6875,0.09375 q -0.0469,-0.320312 -0.27344,-0.5 -0.22265,-0.179687 -0.63281,-0.179687 -0.48438,0 -0.69141,0.160156 -0.20703,0.160156 -0.20703,0.375 0,0.136719 0.0859,0.246094 0.0859,0.113281 0.26953,0.1875 0.10547,0.03906 0.62109,0.179687 0.7461,0.199219 1.03907,0.328125 0.29687,0.125 0.46484,0.367188 0.16797,0.242187 0.16797,0.601562 0,0.351563 -0.20703,0.664063 -0.20313,0.308594 -0.58985,0.480469 -0.38671,0.167968 -0.875,0.167968 -0.80859,0 -1.23437,-0.335937 -0.42188,-0.335938 -0.53906,-0.996094 z"
       style="font-size:8px;font-family:Arial;fill:#000000"
       id="path1728"
       inkscape:connector-curvature="0" />
  </g>
  <text
     xml:space="preserve"
     style="font-style:normal;font-variant:normal;font-weight:normal;font-stretch:normal;font-size:10.66666698px;line-height:1.25;font-family:Arial;-inkscape-font-specification:Arial;text-align:end;letter-spacing:0px;word-spacing:0px;text-anchor:end;fill:#e69f00;fill-opacity:1;stroke:none"
     x="351.45462"
     y="57.190647"
     id="text1733"><tspan
       sodipodi:role="line"
       id="tspan1731"
       x="351.45462"
       y="57.190647">protonowy lub Lewisa</tspan></text>
  <text
     xml:space="preserve"
     style="font-style:normal;font-weight:normal;font-size:10.66666698px;line-height:1.25;font-family:sans-serif;letter-spacing:0px;word-spacing:0px;fill:#000000;fill-opacity:1;stroke:none"
     x="-6.2150798"
     y="117.42311"
     id="text4944-1"><tspan
       sodipodi:role="line"
       id="tspan4942-8"
       x="-6.2150798"
       y="117.42311">\cmpd{w:amide-tert}</tspan></text>
  <text
     xml:space="preserve"
     style="font-style:normal;font-weight:normal;font-size:10.66666698px;line-height:1.25;font-family:sans-serif;letter-spacing:0px;word-spacing:0px;fill:#000000;fill-opacity:1;stroke:none"
     x="163.67091"
     y="117.42311"
     id="text4948-8"><tspan
       sodipodi:role="line"
       id="tspan4946-0"
       x="163.67091"
       y="117.42311">\cmpd{zr-amide-tert}</tspan></text>
  <text
     xml:space="preserve"
     style="font-style:normal;font-weight:normal;font-size:10.66666698px;line-height:1.25;font-family:sans-serif;letter-spacing:0px;word-spacing:0px;fill:#000000;fill-opacity:1;stroke:none"
     x="320.45071"
     y="117.42311"
     id="text4948-8-1"><tspan
       sodipodi:role="line"
       id="tspan4946-0-1"
       x="320.45071"
       y="117.42311">\cmpd{iminium}</tspan></text>
  <text
     xml:space="preserve"
     style="font-style:normal;font-weight:normal;font-size:10.66666698px;line-height:1.25;font-family:sans-serif;letter-spacing:0px;word-spacing:0px;fill:#000000;fill-opacity:1;stroke:none"
     x="478.39087"
     y="117.42311"
     id="text4948-8-1-5"><tspan
       sodipodi:role="line"
       id="tspan4946-0-1-9"
       x="478.39087"
       y="117.42311">\cmpd{amine-tert-nu}</tspan></text>
</svg>
