<?xml version="1.0" encoding="UTF-8" standalone="no"?>
<svg
   xmlns:dc="http://purl.org/dc/elements/1.1/"
   xmlns:cc="http://creativecommons.org/ns#"
   xmlns:rdf="http://www.w3.org/1999/02/22-rdf-syntax-ns#"
   xmlns:svg="http://www.w3.org/2000/svg"
   xmlns="http://www.w3.org/2000/svg"
   xmlns:sodipodi="http://sodipodi.sourceforge.net/DTD/sodipodi-0.dtd"
   xmlns:inkscape="http://www.inkscape.org/namespaces/inkscape"
   viewBox="1.19 74.84 301.48 66.71"
   preserveAspectRatio="xMidYMid"
   width="100%"
   height="100%"
   version="1.1"
   id="svg424"
   sodipodi:docname="baran-aldehyde.svg"
   inkscape:version="0.92.3 (2405546, 2018-03-11)">
  <metadata
     id="metadata430">
    <rdf:RDF>
      <cc:Work
         rdf:about="">
        <dc:format>image/svg+xml</dc:format>
        <dc:type
           rdf:resource="http://purl.org/dc/dcmitype/StillImage" />
      </cc:Work>
    </rdf:RDF>
  </metadata>
  <defs
     id="defs428" />
  <sodipodi:namedview
     pagecolor="#ffffff"
     bordercolor="#666666"
     borderopacity="1"
     objecttolerance="10"
     gridtolerance="10"
     guidetolerance="10"
     inkscape:pageopacity="0"
     inkscape:pageshadow="2"
     inkscape:window-width="1920"
     inkscape:window-height="1017"
     id="namedview426"
     showgrid="false"
     inkscape:zoom="2.3882181"
     inkscape:cx="184.25452"
     inkscape:cy="33.576053"
     inkscape:window-x="-8"
     inkscape:window-y="-8"
     inkscape:window-maximized="1"
     inkscape:current-layer="svg424" />
  <clipPath
     id="9515">
    <rect
       x="0.255"
       y="0.255"
       width="302.74"
       height="769.29"
       id="rect2" />
  </clipPath>
  <path
     style="stroke:#000000;stroke-width:0.67999828;shape-rendering:auto"
     d="M 193.14603,91.638564 H 119.66622"
     id="line7"
     inkscape:connector-curvature="0" />
  <path
     style="fill:#000000;fill-rule:evenodd;stroke:#000000;stroke-width:0;stroke-linejoin:miter;stroke-miterlimit:5.89496231;shape-rendering:geometricPrecision"
     inkscape:connector-curvature="0"
     id="path9"
     stroke-miterlimit="5.89496254687632"
     d="m 197.75935,91.638564 -6.79998,-1.706662 c 1.44,0.959997 1.44,2.453327 0,3.413325 z" />
  <g
     aria-label="1) Cp2Zr(H)Cl"
     style="text-anchor:start;text-rendering:geometricPrecision"
     id="text20"
     transform="matrix(1.33333,0,0,1.33333,-50.74669,-35.93445)">
    <path
       d="m 132.31185,91.709999 h -0.69873 v -4.452466 q -0.25232,0.240674 -0.6638,0.481348 -0.40759,0.240674 -0.73366,0.361011 v -0.67544 q 0.58615,-0.27561 1.0248,-0.667675 0.43865,-0.392066 0.62109,-0.76084 h 0.4503 z"
       style="font-size:7.94999981px;font-family:Arial;fill:#000000"
       id="path1906"
       inkscape:connector-curvature="0" />
    <path
       d="m 134.7574,93.38307 h -0.50075 q 1.16067,-1.863281 1.16067,-3.730444 0,-0.729785 -0.16692,-1.447925 -0.13199,-0.582275 -0.36878,-1.117968 -0.15139,-0.349366 -0.62497,-1.164551 h 0.50075 q 0.72979,0.974341 1.07915,1.956445 0.29891,0.84624 0.29891,1.770117 0,1.048096 -0.40372,2.026319 -0.39982,0.978222 -0.97434,1.708007 z"
       style="font-size:7.94999981px;font-family:Arial;fill:#000000"
       id="path1908"
       inkscape:connector-curvature="0" />
    <path
       d="m 143.30909,89.714735 0.75307,0.19021 q -0.23679,0.927759 -0.854,1.416871 -0.61333,0.485229 -1.50227,0.485229 -0.92,0 -1.49839,-0.372656 -0.57451,-0.376538 -0.87729,-1.086914 -0.2989,-0.710376 -0.2989,-1.525562 0,-0.88894 0.33771,-1.548852 0.34161,-0.663794 0.96658,-1.005396 0.62886,-0.345483 1.38194,-0.345483 0.854,0 1.43627,0.434765 0.58228,0.434766 0.81131,1.222779 l -0.74143,0.174682 q -0.19798,-0.621093 -0.57451,-0.904467 -0.37654,-0.283374 -0.94717,-0.283374 -0.65603,0 -1.09856,0.314428 -0.43865,0.314429 -0.61721,0.846241 -0.17857,0.527929 -0.17857,1.090795 0,0.725904 0.20962,1.269361 0.2135,0.539575 0.65991,0.807422 0.44641,0.267846 0.96658,0.267846 0.63274,0 1.07139,-0.364892 0.43864,-0.364893 0.59392,-1.083033 z"
       style="font-size:7.94999981px;font-family:Arial;fill:#009d73"
       id="path1910"
       inkscape:connector-curvature="0" />
    <path
       d="m 144.90452,93.289906 v -5.702417 h 0.63662 v 0.535694 q 0.22515,-0.314429 0.50852,-0.469702 0.28338,-0.159156 0.68709,-0.159156 0.52793,0 0.93164,0.271729 0.40371,0.271728 0.60945,0.768603 0.20574,0.492994 0.20574,1.083033 0,0.632739 -0.22903,1.141259 -0.22515,0.504639 -0.65991,0.776367 -0.43089,0.267847 -0.90835,0.267847 -0.34937,0 -0.62886,-0.14751 -0.27561,-0.147509 -0.45418,-0.372656 v 2.006909 z m 0.63274,-3.617871 q 0,0.795777 0.32219,1.176197 0.3222,0.380419 0.78025,0.380419 0.46582,0 0.79578,-0.392065 0.33384,-0.395947 0.33384,-1.222778 0,-0.788013 -0.32608,-1.180078 -0.32219,-0.392066 -0.77248,-0.392066 -0.44641,0 -0.7919,0.419238 -0.3416,0.415357 -0.3416,1.211133 z"
       style="font-size:7.94999981px;font-family:Arial;fill:#009d73"
       id="path1912"
       inkscape:connector-curvature="0" />
    <path
       d="m 151.8074,93.006331 v 0.503668 h -2.82113 q -0.006,-0.189239 0.0611,-0.363922 0.10772,-0.288226 0.34354,-0.567719 0.23874,-0.279492 0.68709,-0.646325 0.69582,-0.57063 0.94037,-0.902527 0.24456,-0.334809 0.24456,-0.631769 0,-0.311517 -0.22418,-0.524048 -0.22126,-0.215442 -0.57936,-0.215442 -0.37848,0 -0.60557,0.227088 -0.22708,0.227087 -0.23,0.628857 l -0.5386,-0.05532 q 0.0553,-0.602655 0.41633,-0.917084 0.36101,-0.31734 0.96948,-0.31734 0.61431,0 0.9724,0.340631 0.3581,0.340631 0.3581,0.8443 0,0.256201 -0.10481,0.503668 -0.10481,0.247467 -0.34936,0.521136 -0.24165,0.27367 -0.80645,0.751136 -0.47165,0.395947 -0.60557,0.538604 -0.13392,0.139746 -0.22126,0.282404 z"
       style="font-size:5.9625001px;font-family:Arial;fill:#009d73"
       id="path1914"
       inkscape:connector-curvature="0" />
    <path
       d="m 152.28389,91.709999 v -0.69873 l 2.91526,-3.645044 q 0.31055,-0.388184 0.59004,-0.67544 h -3.17534 v -0.671557 h 4.07593 v 0.671557 l -3.19476,3.947827 -0.34548,0.399829 h 3.6334 v 0.671558 z"
       style="font-size:7.94999981px;font-family:Arial;fill:#009d73"
       id="path1916"
       inkscape:connector-curvature="0" />
    <path
       d="m 157.50108,91.709999 v -4.12251 h 0.62886 v 0.624976 q 0.24067,-0.438647 0.44253,-0.578394 0.20573,-0.139746 0.45029,-0.139746 0.35325,0 0.71814,0.225147 l -0.24067,0.648266 q -0.25621,-0.151391 -0.51241,-0.151391 -0.22902,0 -0.41147,0.139746 -0.18245,0.135864 -0.26008,0.38042 -0.11646,0.372656 -0.11646,0.815185 v 2.158301 z"
       style="font-size:7.94999981px;font-family:Arial;fill:#009d73"
       id="path1918"
       inkscape:connector-curvature="0" />
    <path
       d="m 161.49937,93.38307 q -0.57839,-0.729785 -0.97822,-1.708007 -0.39983,-0.978223 -0.39983,-2.026319 0,-0.923877 0.2989,-1.770117 0.34937,-0.982104 1.07915,-1.956445 h 0.50076 q -0.46971,0.807422 -0.6211,1.152905 -0.23679,0.535693 -0.37265,1.117969 -0.16692,0.725903 -0.16692,1.45957 0,1.867163 1.16067,3.730444 z"
       style="font-size:7.94999981px;font-family:Arial;fill:#009d73"
       id="path1920"
       inkscape:connector-curvature="0" />
    <path
       d="m 162.93177,91.709999 v -5.690771 h 0.75307 v 2.336865 h 2.95796 v -2.336865 h 0.75308 v 5.690771 h -0.75308 v -2.682348 h -2.95796 v 2.682348 z"
       style="font-size:7.94999981px;font-family:Arial;fill:#009d73"
       id="path1922"
       inkscape:connector-curvature="0" />
    <path
       d="m 169.02237,93.38307 h -0.50076 q 1.16067,-1.863281 1.16067,-3.730444 0,-0.729785 -0.16692,-1.447925 -0.13198,-0.582275 -0.36877,-1.117968 -0.15139,-0.349366 -0.62498,-1.164551 h 0.50076 q 0.72978,0.974341 1.07915,1.956445 0.2989,0.84624 0.2989,1.770117 0,1.048096 -0.40371,2.026319 -0.39983,0.978222 -0.97434,1.708007 z"
       style="font-size:7.94999981px;font-family:Arial;fill:#009d73"
       id="path1924"
       inkscape:connector-curvature="0" />
    <path
       d="m 175.36917,89.714735 0.75307,0.19021 q -0.23679,0.927759 -0.854,1.416871 -0.61333,0.485229 -1.50227,0.485229 -0.91999,0 -1.49839,-0.372656 -0.57451,-0.376538 -0.87729,-1.086914 -0.2989,-0.710376 -0.2989,-1.525562 0,-0.88894 0.33772,-1.548852 0.3416,-0.663794 0.96657,-1.005396 0.62886,-0.345483 1.38194,-0.345483 0.854,0 1.43628,0.434765 0.58227,0.434766 0.8113,1.222779 l -0.74143,0.174682 q -0.19798,-0.621093 -0.57451,-0.904467 -0.37654,-0.283374 -0.94717,-0.283374 -0.65603,0 -1.09856,0.314428 -0.43865,0.314429 -0.61721,0.846241 -0.17857,0.527929 -0.17857,1.090795 0,0.725904 0.20962,1.269361 0.2135,0.539575 0.65991,0.807422 0.44642,0.267846 0.96658,0.267846 0.63274,0 1.07139,-0.364892 0.43865,-0.364893 0.59392,-1.083033 z"
       style="font-size:7.94999981px;font-family:Arial;fill:#009d73"
       id="path1926"
       inkscape:connector-curvature="0" />
    <path
       d="m 176.94908,91.709999 v -5.690771 h 0.69873 v 5.690771 z"
       style="font-size:7.94999981px;font-family:Arial;fill:#009d73"
       id="path1928"
       inkscape:connector-curvature="0" />
  </g>
  <g
     aria-label="2) SiO2"
     style="text-anchor:start;text-rendering:geometricPrecision"
     id="text34"
     transform="matrix(1.33333,0,0,1.33333,-50.74669,-35.93445)">
    <path
       d="M 133.35218,104.65844 V 105.33 h -3.7615 q -0.008,-0.25232 0.0815,-0.48523 0.14363,-0.3843 0.45806,-0.75696 0.31831,-0.37265 0.91611,-0.86176 0.92776,-0.76084 1.25383,-1.20337 0.32608,-0.44641 0.32608,-0.84236 0,-0.41536 -0.29891,-0.69873 -0.29502,-0.28726 -0.77248,-0.28726 -0.50464,0 -0.80742,0.30279 -0.30279,0.30278 -0.30667,0.83847 l -0.71814,-0.0737 q 0.0738,-0.80354 0.5551,-1.22278 0.48135,-0.423121 1.29266,-0.423121 0.81906,0 1.29653,0.454171 0.47747,0.45418 0.47747,1.12574 0,0.3416 -0.13975,0.67155 -0.13975,0.32996 -0.46582,0.69485 -0.32219,0.3649 -1.07527,1.00152 -0.62886,0.52793 -0.80742,0.71814 -0.17857,0.18632 -0.29502,0.37653 z"
       style="font-size:7.94999981px;font-family:Arial;fill:#000000"
       id="path1886"
       inkscape:connector-curvature="0" />
    <path
       d="m 134.7574,107.00307 h -0.50075 q 1.16067,-1.86328 1.16067,-3.73044 0,-0.72979 -0.16692,-1.44793 -0.13199,-0.58227 -0.36878,-1.11796 -0.15139,-0.34937 -0.62497,-1.164555 h 0.50075 q 0.72979,0.974345 1.07915,1.956445 0.29891,0.84624 0.29891,1.77012 0,1.04809 -0.40372,2.02632 -0.39982,0.97822 -0.97434,1.708 z"
       style="font-size:7.94999981px;font-family:Arial;fill:#000000"
       id="path1888"
       inkscape:connector-curvature="0" />
    <path
       d="m 138.99249,103.50166 0.71037,-0.0621 q 0.0505,0.427 0.23291,0.70261 0.18633,0.27173 0.57451,0.44253 0.38819,0.16692 0.87342,0.16692 0.43088,0 0.76084,-0.1281 0.32995,-0.1281 0.48911,-0.34937 0.16304,-0.22514 0.16304,-0.48911 0,-0.26785 -0.15528,-0.46582 -0.15527,-0.20185 -0.5124,-0.33772 -0.22903,-0.0893 -1.01316,-0.27561 -0.78413,-0.19021 -1.09856,-0.35713 -0.40759,-0.2135 -0.60945,-0.52793 -0.19797,-0.31831 -0.19797,-0.71037 0,-0.43089 0.24456,-0.80354 0.24455,-0.376542 0.71425,-0.570634 0.46971,-0.194091 1.04422,-0.194091 0.63274,0 1.11408,0.205737 0.48523,0.201855 0.74532,0.597798 0.26008,0.39595 0.27949,0.89671 l -0.72202,0.0543 q -0.0582,-0.53957 -0.39595,-0.81518 -0.33384,-0.27561 -0.98987,-0.27561 -0.6832,0 -0.99763,0.25232 -0.31055,0.24844 -0.31055,0.60168 0,0.30667 0.22127,0.50464 0.21738,0.19797 1.13349,0.40759 0.92,0.20574 1.2616,0.36101 0.49688,0.22903 0.73367,0.58228 0.23679,0.34937 0.23679,0.80742 0,0.45418 -0.26008,0.85789 -0.26009,0.39983 -0.7492,0.62497 -0.48523,0.22127 -1.09468,0.22127 -0.77248,0 -1.29653,-0.22515 -0.52017,-0.22515 -0.81907,-0.67544 -0.29502,-0.45417 -0.31054,-1.0248 z"
       style="font-size:7.94999981px;font-family:Arial;fill:#000000"
       id="path1890"
       inkscape:connector-curvature="0" />
    <path
       d="m 144.47364,100.44277 v -0.80354 h 0.69873 v 0.80354 z m 0,4.88723 v -4.12251 h 0.69873 V 105.33 Z"
       style="font-size:7.94999981px;font-family:Arial;fill:#000000"
       id="path1892"
       inkscape:connector-curvature="0" />
    <path
       d="m 146.10013,102.55837 q 0,-1.41687 0.76084,-2.21653 0.76084,-0.803537 1.96421,-0.803537 0.78801,0 1.42075,0.376538 0.63274,0.376539 0.96269,1.051979 0.33384,0.67156 0.33384,1.52556 0,0.86565 -0.34936,1.54885 -0.34937,0.68321 -0.98987,1.03645 -0.6405,0.34937 -1.38194,0.34937 -0.80354,0 -1.43627,-0.38819 -0.63274,-0.38818 -0.95882,-1.05974 -0.32607,-0.67155 -0.32607,-1.42075 z m 0.77636,0.0117 q 0,1.02868 0.55123,1.6226 0.5551,0.59004 1.38969,0.59004 0.85012,0 1.39746,-0.5978 0.55122,-0.5978 0.55122,-1.69636 0,-0.69485 -0.23679,-1.21113 -0.23291,-0.52017 -0.68708,-0.80354 -0.4503,-0.28726 -1.01316,-0.28726 -0.79966,0 -1.37805,0.55122 -0.57452,0.54734 -0.57452,1.83223 z"
       style="font-size:7.94999981px;font-family:Arial;fill:#000000"
       id="path1894"
       inkscape:connector-curvature="0" />
    <path
       d="M 154.89734,106.62633 V 107.13 h -2.82113 q -0.006,-0.18924 0.0611,-0.36392 0.10772,-0.28823 0.34354,-0.56772 0.23874,-0.27949 0.68709,-0.64632 0.69582,-0.57063 0.94037,-0.90253 0.24456,-0.33481 0.24456,-0.63177 0,-0.31152 -0.22418,-0.52405 -0.22126,-0.21544 -0.57936,-0.21544 -0.37848,0 -0.60557,0.22709 -0.22708,0.22708 -0.22999,0.62885 l -0.53861,-0.0553 q 0.0553,-0.60266 0.41633,-0.91709 0.36101,-0.31734 0.96949,-0.31734 0.6143,0 0.9724,0.34064 0.3581,0.34063 0.3581,0.8443 0,0.2562 -0.10481,0.50366 -0.10481,0.24747 -0.34937,0.52114 -0.24164,0.27367 -0.80645,0.75114 -0.47164,0.39594 -0.60557,0.5386 -0.13392,0.13975 -0.22126,0.2824 z"
       style="font-size:5.9625001px;font-family:Arial;fill:#000000"
       id="path1896"
       inkscape:connector-curvature="0" />
  </g>
  <path
     style="fill:#000000;fill-rule:evenodd;stroke:#000000;stroke-width:0;stroke-linejoin:miter;shape-rendering:geometricPrecision"
     inkscape:connector-curvature="0"
     id="path38"
     d="m 18.46647,90.198568 v 0 l 0.266666,0.293332 0.266666,0.293333 -4.613322,14.199967 -0.373332,0.0533 -0.266666,-0.26667 z" />
  <path
     style="fill:#000000;fill-rule:evenodd;stroke:#000000;stroke-width:0;stroke-linejoin:miter;shape-rendering:geometricPrecision"
     inkscape:connector-curvature="0"
     id="path41"
     d="m 44.613071,97.758549 v 0 l -0.106666,0.373332 -0.106667,0.373333 -10.813306,-10.813307 0.106666,-0.373332 0.106667,-0.373332 z" />
  <path
     style="fill:#000000;fill-rule:evenodd;stroke:#000000;stroke-width:0;stroke-linejoin:miter;shape-rendering:geometricPrecision"
     inkscape:connector-curvature="0"
     id="path45"
     d="m 33.799765,86.945243 v 0 l -0.106667,0.373332 -0.106666,0.373332 -14.58663,3.093326 L 18.733136,90.4919 18.46647,90.198568 Z" />
  <g
     aria-label="NHBoc"
     style="text-anchor:start;text-rendering:geometricPrecision"
     id="text51"
     transform="matrix(1.33333,0,0,1.33333,-50.74669,-35.93445)">
    <path
       d="m 64.025565,84.489998 v -5.690771 h 0.772485 l 2.989013,4.467993 v -4.467993 h 0.722022 v 5.690771 H 67.7366 l -2.989014,-4.471875 v 4.471875 z"
       style="font-size:7.94999981px;font-family:Arial;fill:#000000"
       id="path1875"
       inkscape:connector-curvature="0" />
    <path
       d="m 69.801736,84.489998 v -5.690771 h 0.753077 v 2.336865 h 2.957959 v -2.336865 h 0.753076 v 5.690771 h -0.753076 v -2.682349 h -2.957959 v 2.682349 z"
       style="font-size:7.94999981px;font-family:Arial;fill:#000000"
       id="path1877"
       inkscape:connector-curvature="0" />
    <path
       d="m 75.492508,84.489998 v -5.690771 h 2.13501 q 0.652148,0 1.044213,0.174682 0.395948,0.170801 0.617212,0.531812 0.225147,0.357129 0.225147,0.749194 0,0.364893 -0.197974,0.687085 -0.197973,0.322192 -0.597802,0.520166 0.516284,0.151392 0.791894,0.516284 0.279492,0.364893 0.279492,0.861768 0,0.399829 -0.170801,0.745312 -0.166919,0.341602 -0.415356,0.52793 -0.248438,0.186328 -0.624976,0.283374 -0.372656,0.09316 -0.916113,0.09316 z m 0.753076,-3.299561 h 1.230542 q 0.500757,0 0.71814,-0.06599 0.287256,-0.0854 0.430883,-0.283374 0.14751,-0.197973 0.14751,-0.496875 0,-0.283374 -0.135864,-0.496875 -0.135864,-0.217383 -0.388184,-0.295019 -0.252319,-0.08152 -0.865649,-0.08152 h -1.137378 z m 0,2.628003 h 1.41687 q 0.364893,0 0.512402,-0.02717 0.260083,-0.04658 0.434766,-0.155273 0.174683,-0.108691 0.287256,-0.314429 0.112573,-0.209619 0.112573,-0.481347 0,-0.318311 -0.163037,-0.551221 -0.163037,-0.236792 -0.454175,-0.329956 -0.287256,-0.09705 -0.830713,-0.09705 h -1.315942 z"
       style="font-size:7.94999981px;font-family:Arial;fill:#000000"
       id="path1879"
       inkscape:connector-curvature="0" />
    <path
       d="m 80.48455,82.428743 q 0,-1.145142 0.636621,-1.696362 0.531811,-0.458057 1.296533,-0.458057 0.850122,0 1.389697,0.558984 0.539575,0.555103 0.539575,1.537207 0,0.795777 -0.240673,1.253833 -0.236792,0.454175 -0.694849,0.706495 -0.454175,0.252319 -0.99375,0.252319 -0.865649,0 -1.401343,-0.555103 -0.531811,-0.555102 -0.531811,-1.599316 z m 0.718139,0 q 0,0.791895 0.345484,1.187842 0.345483,0.392065 0.869531,0.392065 0.520166,0 0.865649,-0.395947 0.345484,-0.395947 0.345484,-1.207251 0,-0.764722 -0.349365,-1.156787 -0.345484,-0.395947 -0.861768,-0.395947 -0.524048,0 -0.869531,0.392065 -0.345484,0.392066 -0.345484,1.18396 z"
       style="font-size:7.94999981px;font-family:Arial;fill:#000000"
       id="path1881"
       inkscape:connector-curvature="0" />
    <path
       d="m 87.860038,82.979964 0.687085,0.08928 q -0.112573,0.710376 -0.578394,1.114087 -0.461938,0.399829 -1.137378,0.399829 -0.84624,0 -1.362524,-0.551221 -0.512402,-0.555102 -0.512402,-1.587671 0,-0.667675 0.221264,-1.168432 0.221265,-0.500757 0.671558,-0.749195 0.454175,-0.252319 0.985986,-0.252319 0.671558,0 1.09856,0.341602 0.427002,0.337719 0.547339,0.962695 l -0.679322,0.10481 q -0.09705,-0.415357 -0.345483,-0.624976 -0.244556,-0.209619 -0.593921,-0.209619 -0.52793,0 -0.857886,0.38042 -0.329956,0.376538 -0.329956,1.195605 0,0.830713 0.318311,1.207251 0.31831,0.376538 0.830713,0.376538 0.411474,0 0.687085,-0.252319 0.27561,-0.252319 0.349365,-0.776367 z"
       style="font-size:7.94999981px;font-family:Arial;fill:#000000"
       id="path1883"
       inkscape:connector-curvature="0" />
  </g>
  <path
     style="fill:#000000;fill-rule:evenodd;stroke:#000000;stroke-width:0;stroke-linejoin:miter;shape-rendering:geometricPrecision"
     inkscape:connector-curvature="0"
     id="path55"
     d="m 34.026431,87.411908 v 0 l -0.666665,-0.186666 0.09333,-0.679998 0.839998,0.226666 z" />
  <path
     style="fill:#000000;fill-rule:evenodd;stroke:#000000;stroke-width:0;stroke-linejoin:miter;shape-rendering:geometricPrecision"
     inkscape:connector-curvature="0"
     id="path57"
     d="m 35.133095,84.758581 v 0 l -1.399997,-0.373332 0.08,-0.693332 1.586663,0.426666 z" />
  <path
     style="fill:#000000;fill-rule:evenodd;stroke:#000000;stroke-width:0;stroke-linejoin:miter;shape-rendering:geometricPrecision"
     inkscape:connector-curvature="0"
     id="path59"
     d="m 36.239759,82.105255 v 0 l -2.146662,-0.573332 0.09333,-0.679998 2.319994,0.613331 z" />
  <path
     style="fill:#000000;fill-rule:evenodd;stroke:#000000;stroke-width:0;stroke-linejoin:miter;shape-rendering:geometricPrecision"
     inkscape:connector-curvature="0"
     id="path61"
     d="m 37.346423,79.451928 v 0 l -2.893326,-0.773331 0.09333,-0.679999 3.066659,0.813332 z" />
  <g
     aria-label="NH"
     style="text-anchor:start;text-rendering:geometricPrecision"
     id="text68"
     transform="matrix(1.33333,0,0,1.33333,-50.74669,-35.93445)">
    <path
       d="m 46.295565,127.41 v -5.69077 h 0.772485 l 2.989014,4.468 v -4.468 h 0.722021 V 127.41 H 50.0066 l -2.989014,-4.47187 V 127.41 Z"
       style="font-size:7.94999981px;font-family:Arial;fill:#000000"
       id="path1870"
       inkscape:connector-curvature="0" />
    <path
       d="m 46.32662,135.50999 v -5.69077 h 0.753076 v 2.33687 h 2.957959 v -2.33687 h 0.753076 v 5.69077 h -0.753076 v -2.68234 h -2.957959 v 2.68234 z"
       style="font-size:7.94999981px;font-family:Arial;fill:#000000"
       id="path1872"
       inkscape:connector-curvature="0" />
  </g>
  <path
     style="fill:#000000;fill-rule:evenodd;stroke:#000000;stroke-width:0;stroke-linejoin:miter;shape-rendering:geometricPrecision"
     inkscape:connector-curvature="0"
     id="path72"
     d="m 13.746482,104.77186 v 0 l 0.266666,0.26667 -0.133333,0.4 -14.06663189,4.57332 -0.3466658,-0.25333 0.0399999,-0.37333 z" />
  <path
     style="fill:#000000;fill-rule:evenodd;stroke:#000000;stroke-width:0;stroke-linejoin:miter;shape-rendering:geometricPrecision"
     inkscape:connector-curvature="0"
     id="path76"
     d="m -0.86681519,109.95852 v 0 l 0.3333325,-0.2 0.3466658,0.25333 v 14.78663 l -0.3466658,0.25333 -0.3333325,-0.2 z" />
  <path
     style="stroke:#000000;stroke-width:0.67999828;shape-rendering:auto"
     d="m -3.2801452,111.34518 v 12.11997"
     id="line78"
     inkscape:connector-curvature="0" />
  <path
     style="fill:#000000;fill-rule:evenodd;stroke:#000000;stroke-width:0;stroke-linejoin:miter;shape-rendering:geometricPrecision"
     inkscape:connector-curvature="0"
     id="path82"
     d="m -0.49348279,125.42515 v 0 l -0.0399999,-0.37334 0.3466658,-0.25333 9.62664259,3.14666 -0.1066664,0.32 -0.1066664,0.32 z" />
  <path
     style="fill:#000000;fill-rule:evenodd;stroke:#000000;stroke-width:0;stroke-linejoin:miter;shape-rendering:geometricPrecision"
     inkscape:connector-curvature="0"
     id="path86"
     d="m 17.719805,125.26515 v 0 l -0.279999,-0.2 -0.266666,-0.2 5.399986,-7.45332 h 0.426666 0.426665 z" />
  <path
     style="fill:#000000;fill-rule:evenodd;stroke:#000000;stroke-width:0;stroke-linejoin:miter;shape-rendering:geometricPrecision"
     inkscape:connector-curvature="0"
     id="path90"
     d="m 23.426457,117.41183 v 0 h -0.426665 -0.426666 l -8.693311,-11.9733 0.133333,-0.4 0.373332,-0.0533 z" />
  <path
     style="stroke:#000000;stroke-width:0.67999828;shape-rendering:auto"
     d="m 19.599798,117.41183 -6.639982,-9.13331"
     id="line92"
     inkscape:connector-curvature="0" />
  <g
     aria-label="N"
     style="text-anchor:start;text-rendering:geometricPrecision"
     id="text98"
     transform="matrix(1.33333,0,0,1.33333,-50.74669,-35.93445)">
    <path
       d="m 95.805563,90.599998 v -5.690771 h 0.772486 l 2.989013,4.467993 v -4.467993 h 0.722018 v 5.690771 h -0.772482 l -2.989013,-4.471874 v 4.471874 z"
       style="font-size:7.94999981px;font-family:Arial;fill:#000000"
       id="path1865"
       inkscape:connector-curvature="0" />
  </g>
  <path
     style="fill:#000000;fill-rule:evenodd;stroke:#000000;stroke-width:0;stroke-linejoin:miter;shape-rendering:geometricPrecision"
     inkscape:connector-curvature="0"
     id="path102"
     d="m 59.6797,94.065225 v 0 l -0.399999,0.106666 -0.253333,-0.279999 5.506653,-14.346631 0.226666,0.346666 0.226667,0.346666 z" />
  <path
     style="stroke:#000000;stroke-width:0.67999828;shape-rendering:auto"
     d="M 62.573024,93.291891 66.613012,82.745256"
     id="line104"
     inkscape:connector-curvature="0" />
  <path
     style="fill:#000000;fill-rule:evenodd;stroke:#000000;stroke-width:0;stroke-linejoin:miter;shape-rendering:geometricPrecision"
     inkscape:connector-curvature="0"
     id="path108"
     d="m 64.986354,80.238593 v 0 l -0.226667,-0.346666 -0.226666,-0.346666 10.879973,0.559999 -0.02667,0.346666 -0.01333,0.333332 z" />
  <path
     style="fill:#000000;fill-rule:evenodd;stroke:#000000;stroke-width:0;stroke-linejoin:miter;shape-rendering:geometricPrecision"
     inkscape:connector-curvature="0"
     id="path112"
     d="m 80.946314,85.425246 v 0 l 0.319999,-0.08 0.333332,-0.09333 2.679994,9.973308 -0.293333,0.239999 -0.386666,-0.146666 z" />
  <path
     style="fill:#000000;fill-rule:evenodd;stroke:#000000;stroke-width:0;stroke-linejoin:miter;shape-rendering:geometricPrecision"
     inkscape:connector-curvature="0"
     id="path116"
     d="m 83.59964,95.318555 v 0 l 0.386666,0.146666 0.02667,0.386666 -12.493302,8.119983 -0.36,-0.17334 0.02667,-0.41333 z" />
  <path
     style="stroke:#000000;stroke-width:0.67999828;shape-rendering:auto"
     d="M 84.146306,98.638547 74.052995,105.19853"
     id="line118"
     inkscape:connector-curvature="0" />
  <path
     style="fill:#000000;fill-rule:evenodd;stroke:#000000;stroke-width:0;stroke-linejoin:miter;shape-rendering:geometricPrecision"
     inkscape:connector-curvature="0"
     id="path122"
     d="m 71.186338,103.3852 v 0 l -0.02667,0.41333 -0.319999,0.17334 -11.639971,-9.426646 0.08,-0.373333 0.399999,-0.106666 z" />
  <path
     style="fill:#000000;fill-rule:evenodd;stroke:#000000;stroke-width:0;stroke-linejoin:miter;shape-rendering:geometricPrecision"
     inkscape:connector-curvature="0"
     id="path126"
     d="m 44.399738,98.505214 v 0 l 0.106667,-0.373333 0.106666,-0.373332 14.413297,-3.866657 0.253333,0.279999 -0.08,0.373333 z" />
  <path
     style="fill:#000000;fill-rule:evenodd;stroke:#000000;stroke-width:0;stroke-linejoin:miter;shape-rendering:geometricPrecision"
     inkscape:connector-curvature="0"
     id="path130"
     d="m 84.012973,95.851887 v 0 l -0.02667,-0.386666 0.293333,-0.239999 13.666632,6.973318 -0.333332,0.21333 -0.333333,0.21333 z" />
  <path
     style="fill:#000000;fill-rule:evenodd;stroke:#000000;stroke-width:0;stroke-linejoin:miter;shape-rendering:geometricPrecision"
     inkscape:connector-curvature="0"
     id="path134"
     d="m 97.279606,102.6252 v 0 l 0.333333,-0.21333 0.333332,-0.21333 0.799998,15.27996 -0.333332,0.2 -0.346666,-0.17333 z" />
  <path
     style="stroke:#000000;stroke-width:0.67999828;shape-rendering:auto"
     d="m 94.946279,104.1452 0.639998,12.0933"
     id="line136"
     inkscape:connector-curvature="0" />
  <path
     style="fill:#000000;fill-rule:evenodd;stroke:#000000;stroke-width:0;stroke-linejoin:miter;shape-rendering:geometricPrecision"
     inkscape:connector-curvature="0"
     id="path140"
     d="m 98.066271,117.50517 v 0 l 0.346666,0.17333 0.01333,0.4 -12.826635,8.33331 -0.01333,-0.4 -0.01333,-0.4 z" />
  <path
     style="fill:#000000;fill-rule:evenodd;stroke:#000000;stroke-width:0;stroke-linejoin:miter;shape-rendering:geometricPrecision"
     inkscape:connector-curvature="0"
     id="path144"
     d="m 85.572969,125.61181 v 0 l 0.01333,0.4 0.01333,0.4 -13.3733,-7.66665 0.32,-0.21333 0.319999,-0.21333 z" />
  <path
     style="stroke:#000000;stroke-width:0.67999828;shape-rendering:auto"
     d="M 85.492969,122.83849 75.106327,116.8785"
     id="line146"
     inkscape:connector-curvature="0" />
  <path
     style="fill:#000000;fill-rule:evenodd;stroke:#000000;stroke-width:0;stroke-linejoin:miter;shape-rendering:geometricPrecision"
     inkscape:connector-curvature="0"
     id="path150"
     d="m 72.866334,118.3185 v 0 l -0.319999,0.21333 -0.32,0.21333 -1.386663,-14.77329 0.319999,-0.17334 0.36,0.17334 z" />
  <path
     style="fill:#000000;fill-rule:evenodd;stroke:#000000;stroke-width:0;stroke-linejoin:miter;shape-rendering:geometricPrecision"
     inkscape:connector-curvature="0"
     id="path154"
     d="m -0.49348279,109.38519 v 0 l -0.0399999,0.37333 -0.3333325,0.2 L -13.77345,102.5052 v -0.38666 -0.38667 z" />
  <path
     style="fill:#000000;fill-rule:evenodd;stroke:#000000;stroke-width:0;stroke-linejoin:miter;shape-rendering:geometricPrecision"
     inkscape:connector-curvature="0"
     id="path158"
     d="m -13.77345,101.73187 v 0 0.38667 0.38666 l -12.906634,7.45332 -0.346666,-0.2 -0.346666,-0.2 z" />
  <path
     style="stroke:#000000;stroke-width:0.67999828;shape-rendering:auto"
     d="m -13.77345,105.29186 -10.493305,6.05332"
     id="line160"
     inkscape:connector-curvature="0" />
  <path
     style="fill:#000000;fill-rule:evenodd;stroke:#000000;stroke-width:0;stroke-linejoin:miter;shape-rendering:geometricPrecision"
     inkscape:connector-curvature="0"
     id="path164"
     d="m -27.373416,109.55852 v 0 l 0.346666,0.2 0.346666,0.2 v 14.89329 l -0.346666,0.2 -0.333332,-0.2 z" />
  <path
     style="fill:#000000;fill-rule:evenodd;stroke:#000000;stroke-width:0;stroke-linejoin:miter;shape-rendering:geometricPrecision"
     inkscape:connector-curvature="0"
     id="path168"
     d="m -27.02675,125.43848 v 0 -0.38667 l 0.346666,-0.2 12.906634,7.46665 v 0.38667 0.38666 z" />
  <path
     style="stroke:#000000;stroke-width:0.67999828;shape-rendering:auto"
     d="m -24.266755,123.46515 10.493305,6.05332"
     id="line170"
     inkscape:connector-curvature="0" />
  <path
     style="fill:#000000;fill-rule:evenodd;stroke:#000000;stroke-width:0;stroke-linejoin:miter;shape-rendering:geometricPrecision"
     inkscape:connector-curvature="0"
     id="path174"
     d="m -13.77345,133.09179 v 0 -0.38666 -0.38667 l 12.90663481,-7.46665 0.3333325,0.2 0.0399999,0.37334 z" />
  <g
     aria-label="Br"
     style="text-anchor:end;text-rendering:geometricPrecision"
     id="text180"
     transform="matrix(1.33333,0,0,1.33333,-50.74669,-35.93445)">
    <path
       d="m 1.8067478,129.60001 v -5.69078 h 2.1350097 q 0.6521484,0 1.0442139,0.17469 0.3959472,0.1708 0.6172119,0.53181 0.2251464,0.35713 0.2251464,0.74919 0,0.3649 -0.1979736,0.68709 -0.1979736,0.32219 -0.5978027,0.52016 0.5162842,0.1514 0.7918945,0.51629 0.2794922,0.36489 0.2794922,0.86177 0,0.39982 -0.1708008,0.74531 -0.1669189,0.3416 -0.4153564,0.52793 -0.2484375,0.18633 -0.6249756,0.28337 -0.3726562,0.0932 -0.9161133,0.0932 z m 0.7530762,-3.29956 h 1.2305419 q 0.5007568,0 0.7181397,-0.066 0.2872558,-0.0854 0.4308837,-0.28337 0.1475098,-0.19797 0.1475098,-0.49687 0,-0.28338 -0.1358643,-0.49688 -0.1358642,-0.21738 -0.3881835,-0.29502 -0.2523194,-0.0815 -0.8656494,-0.0815 H 2.559824 Z m 0,2.628 h 1.41687 q 0.3648926,0 0.5124024,-0.0272 0.260083,-0.0466 0.4347656,-0.15528 0.1746826,-0.10869 0.2872558,-0.31443 0.1125733,-0.20962 0.1125733,-0.48134 0,-0.31831 -0.1630371,-0.55122 -0.1630371,-0.2368 -0.4541748,-0.32996 -0.2872559,-0.097 -0.8307129,-0.097 H 2.559824 Z"
       style="font-size:7.94999981px;font-family:Arial;fill:#000000"
       id="path1854"
       inkscape:connector-curvature="0" />
    <path
       d="m 7.051108,129.60001 v -4.12251 h 0.6288574 v 0.62497 q 0.2406738,-0.43865 0.4425293,-0.57839 0.2057373,-0.13975 0.4502929,-0.13975 0.3532471,0 0.7181396,0.22515 l -0.2406738,0.64827 q -0.2562011,-0.1514 -0.5124023,-0.1514 -0.2290283,0 -0.4114746,0.13975 -0.1824463,0.13586 -0.260083,0.38042 -0.1164551,0.37266 -0.1164551,0.81519 v 2.1583 z"
       style="font-size:7.94999981px;font-family:Arial;fill:#000000"
       id="path1856"
       inkscape:connector-curvature="0" />
  </g>
  <path
     style="fill:#000000;fill-rule:evenodd;stroke:#000000;stroke-width:0;stroke-linejoin:miter;shape-rendering:geometricPrecision"
     inkscape:connector-curvature="0"
     id="path184"
     d="m -27.360082,124.85181 v 0 l 0.333332,0.2 v 0.38667 l -9.653309,5.58665 -0.16,-0.29333 -0.173332,-0.29333 z" />
  <g
     aria-label="Br"
     style="text-anchor:start;text-rendering:geometricPrecision"
     id="text190"
     transform="matrix(1.33333,0,0,1.33333,-50.74669,-35.93445)">
    <path
       d="m 119.73228,124.07 v -5.69077 h 2.13501 q 0.65215,0 1.04421,0.17468 0.39595,0.1708 0.61721,0.53181 0.22515,0.35713 0.22515,0.7492 0,0.36489 -0.19797,0.68708 -0.19798,0.32219 -0.59781,0.52017 0.51629,0.15139 0.7919,0.51628 0.27949,0.36489 0.27949,0.86177 0,0.39983 -0.1708,0.74531 -0.16692,0.3416 -0.41536,0.52793 -0.24844,0.18633 -0.62497,0.28338 -0.37266,0.0932 -0.91612,0.0932 z m 0.75307,-3.29956 h 1.23055 q 0.50075,0 0.71813,-0.066 0.28726,-0.0854 0.43089,-0.28338 0.14751,-0.19797 0.14751,-0.49687 0,-0.28338 -0.13587,-0.49688 -0.13586,-0.21738 -0.38818,-0.29502 -0.25232,-0.0815 -0.86565,-0.0815 h -1.13738 z m 0,2.628 h 1.41687 q 0.3649,0 0.51241,-0.0272 0.26008,-0.0466 0.43476,-0.15527 0.17468,-0.1087 0.28726,-0.31443 0.11257,-0.20962 0.11257,-0.48135 0,-0.31831 -0.16304,-0.55122 -0.16303,-0.23679 -0.45417,-0.32996 -0.28726,-0.097 -0.83071,-0.097 h -1.31595 z"
       style="font-size:7.94999981px;font-family:Arial;fill:#000000"
       id="path1849"
       inkscape:connector-curvature="0" />
    <path
       d="m 124.97664,124.07 v -4.12251 h 0.62885 v 0.62498 q 0.24068,-0.43865 0.44253,-0.5784 0.20574,-0.13974 0.4503,-0.13974 0.35324,0 0.71814,0.22514 l -0.24068,0.64827 q -0.2562,-0.15139 -0.5124,-0.15139 -0.22903,0 -0.41147,0.13974 -0.18245,0.13587 -0.26009,0.38042 -0.11645,0.37266 -0.11645,0.81519 v 2.1583 z"
       style="font-size:7.94999981px;font-family:Arial;fill:#000000"
       id="path1851"
       inkscape:connector-curvature="0" />
  </g>
  <path
     style="fill:#000000;fill-rule:evenodd;stroke:#000000;stroke-width:0;stroke-linejoin:miter;shape-rendering:geometricPrecision"
     inkscape:connector-curvature="0"
     id="path194"
     d="m 98.42627,118.0785 v 0 l -0.01333,-0.4 0.333332,-0.2 8.906638,5.14665 -0.17333,0.29334 -0.16,0.29333 z" />
  <g
     aria-label="Boc"
     style="text-anchor:start;text-rendering:geometricPrecision"
     id="text200"
     transform="matrix(1.33333,0,0,1.33333,-50.74669,-35.93445)">
    <path
       d="m 103.23228,81.68 v -5.690771 h 2.13501 q 0.65215,0 1.04421,0.174683 0.39595,0.1708 0.61721,0.531811 0.22515,0.357129 0.22515,0.749194 0,0.364893 -0.19797,0.687085 -0.19798,0.322193 -0.59781,0.520166 0.51629,0.151392 0.7919,0.516285 0.27949,0.364892 0.27949,0.861767 0,0.399829 -0.1708,0.745313 -0.16692,0.341601 -0.41536,0.527929 -0.24844,0.186328 -0.62497,0.283374 -0.37266,0.09316 -0.91612,0.09316 z m 0.75307,-3.29956 h 1.23055 q 0.50075,0 0.71813,-0.06599 0.28726,-0.0854 0.43089,-0.283374 0.14751,-0.197974 0.14751,-0.496875 0,-0.283374 -0.13587,-0.496875 -0.13586,-0.217383 -0.38818,-0.29502 -0.25232,-0.08152 -0.86565,-0.08152 h -1.13738 z m 0,2.628003 h 1.41687 q 0.3649,0 0.51241,-0.02717 0.26008,-0.04658 0.43476,-0.155274 0.17468,-0.108691 0.28726,-0.314428 0.11257,-0.209619 0.11257,-0.481348 0,-0.31831 -0.16304,-0.551221 -0.16303,-0.236792 -0.45417,-0.329956 -0.28726,-0.09705 -0.83071,-0.09705 h -1.31595 z"
       style="font-size:7.94999981px;font-family:Arial;fill:#000000"
       id="path1842"
       inkscape:connector-curvature="0" />
    <path
       d="m 108.22432,79.618745 q 0,-1.145141 0.63662,-1.696362 0.53181,-0.458056 1.29653,-0.458056 0.85012,0 1.3897,0.558984 0.53957,0.555102 0.53957,1.537207 0,0.795776 -0.24067,1.253833 -0.23679,0.454175 -0.69485,0.706494 -0.45417,0.252319 -0.99375,0.252319 -0.86565,0 -1.40134,-0.555102 -0.53181,-0.555103 -0.53181,-1.599317 z m 0.71814,0 q 0,0.791895 0.34548,1.187842 0.34548,0.392066 0.86953,0.392066 0.52017,0 0.86565,-0.395948 0.34548,-0.395947 0.34548,-1.207251 0,-0.764721 -0.34936,-1.156787 -0.34548,-0.395947 -0.86177,-0.395947 -0.52405,0 -0.86953,0.392066 -0.34548,0.392065 -0.34548,1.183959 z"
       style="font-size:7.94999981px;font-family:Arial;fill:#000000"
       id="path1844"
       inkscape:connector-curvature="0" />
    <path
       d="m 115.59981,80.169966 0.68708,0.08928 q -0.11257,0.710376 -0.57839,1.114087 -0.46194,0.399829 -1.13738,0.399829 -0.84624,0 -1.36252,-0.55122 -0.51241,-0.555103 -0.51241,-1.587671 0,-0.667676 0.22127,-1.168433 0.22126,-0.500757 0.67155,-0.749194 0.45418,-0.252319 0.98599,-0.252319 0.67156,0 1.09856,0.341601 0.427,0.33772 0.54734,0.962695 l -0.67932,0.10481 q -0.097,-0.415356 -0.34548,-0.624976 -0.24456,-0.209619 -0.59393,-0.209619 -0.52793,0 -0.85788,0.38042 -0.32996,0.376538 -0.32996,1.195606 0,0.830713 0.31831,1.207251 0.31831,0.376538 0.83072,0.376538 0.41147,0 0.68708,-0.25232 0.27561,-0.252319 0.34937,-0.776367 z"
       style="font-size:7.94999981px;font-family:Arial;fill:#000000"
       id="path1846"
       inkscape:connector-curvature="0" />
  </g>
  <path
     style="fill:#000000;fill-rule:evenodd;stroke:#000000;stroke-width:0;stroke-linejoin:miter;shape-rendering:geometricPrecision"
     inkscape:connector-curvature="0"
     id="path204"
     d="m 84.026306,76.291936 v 0 l -0.253333,-0.213333 -0.266666,-0.213333 2.146662,-2.653326 0.266666,0.213332 0.253332,0.213333 z" />
  <g
     aria-label="CN"
     style="text-anchor:start;text-rendering:geometricPrecision"
     id="text210"
     transform="matrix(1.33333,0,0,1.33333,-50.74669,-35.93445)">
    <path
       d="m 70.263727,112.75474 0.753076,0.19021 q -0.236792,0.92776 -0.854004,1.41687 -0.61333,0.48523 -1.502271,0.48523 -0.919995,0 -1.498388,-0.37266 -0.574512,-0.37654 -0.877295,-1.08691 -0.298901,-0.71038 -0.298901,-1.52557 0,-0.88894 0.337719,-1.54885 0.341602,-0.66379 0.966577,-1.00539 0.628858,-0.34549 1.381934,-0.34549 0.854004,0 1.436279,0.43477 0.582276,0.43476 0.811304,1.22278 l -0.741431,0.17468 q -0.197973,-0.62109 -0.574511,-0.90447 -0.376538,-0.28337 -0.947168,-0.28337 -0.656031,0 -1.09856,0.31443 -0.438647,0.31442 -0.617212,0.84624 -0.178564,0.52793 -0.178564,1.09079 0,0.72591 0.209619,1.26936 0.213501,0.53958 0.659912,0.80742 0.446411,0.26785 0.966577,0.26785 0.632739,0 1.071387,-0.36489 0.438647,-0.36489 0.593921,-1.08303 z"
       style="font-size:7.94999981px;font-family:Arial;fill:#cc78a6"
       id="path1837"
       inkscape:connector-curvature="0" />
    <path
       d="m 71.94068,114.75 v -5.69077 h 0.772485 l 2.989014,4.46799 v -4.46799 H 76.4242 V 114.75 h -0.772485 l -2.989014,-4.47187 V 114.75 Z"
       style="font-size:7.94999981px;font-family:Arial;fill:#cc78a6"
       id="path1839"
       inkscape:connector-curvature="0" />
  </g>
  <path
     style="fill:#000000;fill-rule:evenodd;stroke:#000000;stroke-width:0;stroke-linejoin:miter;shape-rendering:geometricPrecision"
     inkscape:connector-curvature="0"
     id="path214"
     d="m 44.173072,98.038548 v 0 l 0.666665,0.186666 -0.09333,0.679999 -0.826664,-0.226666 z" />
  <path
     style="fill:#000000;fill-rule:evenodd;stroke:#000000;stroke-width:0;stroke-linejoin:miter;shape-rendering:geometricPrecision"
     inkscape:connector-curvature="0"
     id="path216"
     d="m 42.999742,100.91854 v 0 l 1.41333,0.38667 -0.09333,0.66666 -1.57333,-0.41333 z" />
  <path
     style="fill:#000000;fill-rule:evenodd;stroke:#000000;stroke-width:0;stroke-linejoin:miter;shape-rendering:geometricPrecision"
     inkscape:connector-curvature="0"
     id="path218"
     d="m 41.826411,103.79853 v 0 l 2.159995,0.57334 -0.09333,0.67999 -2.319994,-0.61333 z" />
  <path
     style="fill:#000000;fill-rule:evenodd;stroke:#000000;stroke-width:0;stroke-linejoin:miter;shape-rendering:geometricPrecision"
     inkscape:connector-curvature="0"
     id="path220"
     d="m 40.653081,106.67853 v 0 l 2.906659,0.77333 -0.09333,0.68 -3.066659,-0.81333 z" />
  <path
     style="fill:#000000;fill-rule:evenodd;stroke:#000000;stroke-width:0;stroke-linejoin:miter;shape-rendering:geometricPrecision"
     inkscape:connector-curvature="0"
     id="path224"
     d="m 254.09255,86.985243 v 0 l 0.26666,0.293332 0.26667,0.293333 -4.61332,14.199962 -0.37333,0.0533 -0.26667,-0.26667 z" />
  <path
     style="fill:#000000;fill-rule:evenodd;stroke:#000000;stroke-width:0;stroke-linejoin:miter;shape-rendering:geometricPrecision"
     inkscape:connector-curvature="0"
     id="path228"
     d="m 279.67915,95.091889 v 0 l -0.12,0.373332 -0.12,0.373333 -10.23997,-11.359972 0.12,-0.373332 0.12,-0.373333 z" />
  <path
     style="fill:#000000;fill-rule:evenodd;stroke:#000000;stroke-width:0;stroke-linejoin:miter;shape-rendering:geometricPrecision"
     inkscape:connector-curvature="0"
     id="path232"
     d="m 269.43918,83.731917 v 0 l -0.12,0.373333 -0.12,0.373332 -14.5733,3.093326 -0.26667,-0.293333 -0.26666,-0.293332 z" />
  <g
     aria-label="NHBoc"
     style="text-anchor:start;text-rendering:geometricPrecision"
     id="text238"
     transform="matrix(1.33333,0,0,1.33333,-50.74669,-35.93445)">
    <path
       d="m 241.32557,82.239998 v -5.690771 h 0.77248 l 2.98902,4.467993 v -4.467993 h 0.72202 v 5.690771 h -0.77249 l -2.98901,-4.471875 v 4.471875 z"
       style="font-size:7.94999981px;font-family:Arial;fill:#000000"
       id="path1826"
       inkscape:connector-curvature="0" />
    <path
       d="m 247.10174,82.239998 v -5.690771 h 0.75308 v 2.336865 h 2.95795 v -2.336865 h 0.75308 v 5.690771 h -0.75308 v -2.682349 h -2.95795 v 2.682349 z"
       style="font-size:7.94999981px;font-family:Arial;fill:#000000"
       id="path1828"
       inkscape:connector-curvature="0" />
    <path
       d="m 252.79251,82.239998 v -5.690771 h 2.13501 q 0.65215,0 1.04421,0.174682 0.39595,0.170801 0.61722,0.531812 0.22514,0.357129 0.22514,0.749194 0,0.364893 -0.19797,0.687085 -0.19797,0.322192 -0.5978,0.520166 0.51628,0.151392 0.79189,0.516284 0.27949,0.364893 0.27949,0.861768 0,0.399829 -0.1708,0.745312 -0.16692,0.341602 -0.41535,0.52793 -0.24844,0.186328 -0.62498,0.283374 -0.37266,0.09316 -0.91611,0.09316 z m 0.75308,-3.299561 h 1.23054 q 0.50076,0 0.71814,-0.06599 0.28725,-0.0854 0.43088,-0.283374 0.14751,-0.197973 0.14751,-0.496875 0,-0.283374 -0.13586,-0.496875 -0.13587,-0.217383 -0.38819,-0.295019 -0.25231,-0.08152 -0.86564,-0.08152 h -1.13738 z m 0,2.628003 h 1.41687 q 0.36489,0 0.5124,-0.02717 0.26008,-0.04658 0.43477,-0.155273 0.17468,-0.108691 0.28725,-0.314429 0.11257,-0.209619 0.11257,-0.481347 0,-0.318311 -0.16303,-0.551221 -0.16304,-0.236792 -0.45418,-0.329956 -0.28725,-0.09705 -0.83071,-0.09705 h -1.31594 z"
       style="font-size:7.94999981px;font-family:Arial;fill:#000000"
       id="path1830"
       inkscape:connector-curvature="0" />
    <path
       d="m 257.78455,80.178743 q 0,-1.145142 0.63662,-1.696362 0.53182,-0.458057 1.29654,-0.458057 0.85012,0 1.38969,0.558984 0.53958,0.555103 0.53958,1.537207 0,0.795777 -0.24067,1.253833 -0.2368,0.454175 -0.69485,0.706495 -0.45418,0.252319 -0.99375,0.252319 -0.86565,0 -1.40135,-0.555103 -0.53181,-0.555102 -0.53181,-1.599316 z m 0.71814,0 q 0,0.791895 0.34549,1.187842 0.34548,0.392065 0.86953,0.392065 0.52016,0 0.86565,-0.395947 0.34548,-0.395947 0.34548,-1.207251 0,-0.764722 -0.34937,-1.156787 -0.34548,-0.395947 -0.86176,-0.395947 -0.52405,0 -0.86953,0.392065 -0.34549,0.392066 -0.34549,1.18396 z"
       style="font-size:7.94999981px;font-family:Arial;fill:#000000"
       id="path1832"
       inkscape:connector-curvature="0" />
    <path
       d="m 265.16004,80.729964 0.68709,0.08928 q -0.11258,0.710376 -0.5784,1.114087 -0.46194,0.399829 -1.13738,0.399829 -0.84624,0 -1.36252,-0.551221 -0.5124,-0.555102 -0.5124,-1.587671 0,-0.667675 0.22126,-1.168432 0.22127,-0.500757 0.67156,-0.749195 0.45417,-0.252319 0.98599,-0.252319 0.67155,0 1.09856,0.341602 0.427,0.337719 0.54733,0.962695 l -0.67932,0.10481 q -0.097,-0.415357 -0.34548,-0.624976 -0.24456,-0.209619 -0.59392,-0.209619 -0.52793,0 -0.85789,0.38042 -0.32995,0.376538 -0.32995,1.195605 0,0.830713 0.31831,1.207251 0.31831,0.376538 0.83071,0.376538 0.41148,0 0.68709,-0.252319 0.27561,-0.252319 0.34936,-0.776367 z"
       style="font-size:7.94999981px;font-family:Arial;fill:#000000"
       id="path1834"
       inkscape:connector-curvature="0" />
  </g>
  <path
     style="fill:#000000;fill-rule:evenodd;stroke:#000000;stroke-width:0;stroke-linejoin:miter;shape-rendering:geometricPrecision"
     inkscape:connector-curvature="0"
     id="path242"
     d="m 269.63918,84.211916 v 0 l -0.64,-0.213333 0.12,-0.679998 0.82666,0.279999 z" />
  <path
     style="fill:#000000;fill-rule:evenodd;stroke:#000000;stroke-width:0;stroke-linejoin:miter;shape-rendering:geometricPrecision"
     inkscape:connector-curvature="0"
     id="path244"
     d="m 270.87917,81.665256 v 0 l -1.38666,-0.453332 0.13333,-0.679999 1.54666,0.506666 z" />
  <path
     style="fill:#000000;fill-rule:evenodd;stroke:#000000;stroke-width:0;stroke-linejoin:miter;shape-rendering:geometricPrecision"
     inkscape:connector-curvature="0"
     id="path246"
     d="m 272.11917,79.105262 v 0 l -2.12,-0.679998 0.12,-0.679998 2.29333,0.746664 z" />
  <path
     style="fill:#000000;fill-rule:evenodd;stroke:#000000;stroke-width:0;stroke-linejoin:miter;shape-rendering:geometricPrecision"
     inkscape:connector-curvature="0"
     id="path248"
     d="m 273.34583,76.558602 v 0 l -2.83999,-0.933331 0.12,-0.666665 3.02666,0.986664 z" />
  <g
     aria-label="NH"
     style="text-anchor:start;text-rendering:geometricPrecision"
     id="text256"
     transform="matrix(1.33333,0,0,1.33333,-50.74669,-35.93445)">
    <path
       d="m 223.01557,125 v -5.69077 h 0.77249 l 2.98901,4.46799 v -4.46799 h 0.72202 V 125 h -0.77248 l -2.98902,-4.47187 V 125 Z"
       style="font-size:7.94999981px;font-family:Arial;fill:#000000"
       id="path1821"
       inkscape:connector-curvature="0" />
    <path
       d="m 223.04662,133.10001 v -5.69078 h 0.75308 v 2.33687 h 2.95796 v -2.33687 h 0.75308 v 5.69078 h -0.75308 v -2.68235 h -2.95796 v 2.68235 z"
       style="font-size:7.94999981px;font-family:Arial;fill:#000000"
       id="path1823"
       inkscape:connector-curvature="0" />
  </g>
  <path
     style="fill:#000000;fill-rule:evenodd;stroke:#000000;stroke-width:0;stroke-linejoin:miter;shape-rendering:geometricPrecision"
     inkscape:connector-curvature="0"
     id="path260"
     d="m 249.37256,101.55854 v 0 l 0.26667,0.26667 -0.13334,0.39999 -14.06663,4.57333 -0.34667,-0.25334 0.04,-0.37333 z" />
  <path
     style="fill:#000000;fill-rule:evenodd;stroke:#000000;stroke-width:0;stroke-linejoin:miter;shape-rendering:geometricPrecision"
     inkscape:connector-curvature="0"
     id="path264"
     d="m 234.75926,106.74519 v 0 l 0.33333,-0.2 0.34667,0.25334 v 14.78663 l -0.34667,0.25333 -0.33333,-0.2 z" />
  <path
     style="stroke:#000000;stroke-width:0.67999828;shape-rendering:auto"
     d="m 232.34595,108.13186 v 12.11997"
     id="line266"
     inkscape:connector-curvature="0" />
  <path
     style="fill:#000000;fill-rule:evenodd;stroke:#000000;stroke-width:0;stroke-linejoin:miter;shape-rendering:geometricPrecision"
     inkscape:connector-curvature="0"
     id="path270"
     d="m 235.13259,122.21182 v 0 l -0.04,-0.37333 0.34667,-0.25333 9.73331,3.17332 -0.10667,0.32 -0.10666,0.32 z" />
  <path
     style="fill:#000000;fill-rule:evenodd;stroke:#000000;stroke-width:0;stroke-linejoin:miter;shape-rendering:geometricPrecision"
     inkscape:connector-curvature="0"
     id="path274"
     d="m 253.33255,122.06515 v 0 l -0.28,-0.19999 -0.28,-0.2 5.42665,-7.46665 h 0.42667 0.42667 z" />
  <path
     style="fill:#000000;fill-rule:evenodd;stroke:#000000;stroke-width:0;stroke-linejoin:miter;shape-rendering:geometricPrecision"
     inkscape:connector-curvature="0"
     id="path278"
     d="m 259.05254,114.19851 v 0 h -0.42667 -0.42667 l -8.69331,-11.97331 0.13334,-0.39999 0.37333,-0.0533 z" />
  <path
     style="stroke:#000000;stroke-width:0.67999828;shape-rendering:auto"
     d="m 255.22588,114.19851 -6.63999,-9.13331"
     id="line280"
     inkscape:connector-curvature="0" />
  <g
     aria-label="N"
     style="text-anchor:start;text-rendering:geometricPrecision"
     id="text286"
     transform="matrix(1.33333,0,0,1.33333,-50.74669,-35.93445)">
    <path
       d="m 272.74558,90.010002 v -5.690771 h 0.77249 l 2.98901,4.467993 v -4.467993 h 0.72202 v 5.690771 h -0.77248 l -2.98902,-4.471875 v 4.471875 z"
       style="font-size:7.94999981px;font-family:Arial;fill:#000000"
       id="path1816"
       inkscape:connector-curvature="0" />
  </g>
  <path
     style="fill:#000000;fill-rule:evenodd;stroke:#000000;stroke-width:0;stroke-linejoin:miter;shape-rendering:geometricPrecision"
     inkscape:connector-curvature="0"
     id="path290"
     d="m 294.91911,92.18523 v 0 l -0.41333,0.09333 -0.24,-0.293333 6.25332,-14.026632 0.21333,0.36 0.21333,0.359999 z" />
  <path
     style="stroke:#000000;stroke-width:0.67999828;shape-rendering:auto"
     d="M 297.8391,91.571894 302.42576,81.26526"
     id="line292"
     inkscape:connector-curvature="0" />
  <path
     style="fill:#000000;fill-rule:evenodd;stroke:#000000;stroke-width:0;stroke-linejoin:miter;shape-rendering:geometricPrecision"
     inkscape:connector-curvature="0"
     id="path296"
     d="m 300.94576,78.678597 v 0 l -0.21333,-0.359999 -0.21333,-0.36 10.7733,1.133331 -0.0267,0.333332 -0.04,0.333333 z" />
  <path
     style="fill:#000000;fill-rule:evenodd;stroke:#000000;stroke-width:0;stroke-linejoin:miter;shape-rendering:geometricPrecision"
     inkscape:connector-curvature="0"
     id="path300"
     d="m 316.50572,84.225249 v 0 l 0.33334,-0.06667 0.33333,-0.06667 2.25333,10.559974 -0.30667,0.213333 -0.38666,-0.173333 z" />
  <path
     style="fill:#000000;fill-rule:evenodd;stroke:#000000;stroke-width:0;stroke-linejoin:miter;shape-rendering:geometricPrecision"
     inkscape:connector-curvature="0"
     id="path304"
     d="m 318.73239,94.69189 v 0 l 0.38666,0.173333 v 0.386666 l -12.8933,7.453311 -0.34667,-0.18666 0.04,-0.41334 z" />
  <path
     style="stroke:#000000;stroke-width:0.67999828;shape-rendering:auto"
     d="M 319.11904,98.038548 308.6924,104.0652"
     id="line306"
     inkscape:connector-curvature="0" />
  <path
     style="fill:#000000;fill-rule:evenodd;stroke:#000000;stroke-width:0;stroke-linejoin:miter;shape-rendering:geometricPrecision"
     inkscape:connector-curvature="0"
     id="path310"
     d="m 305.91908,102.1052 v 0 l -0.04,0.41334 -0.33333,0.16 -11.1333,-10.026645 0.0933,-0.373332 0.41333,-0.09333 z" />
  <path
     style="fill:#000000;fill-rule:evenodd;stroke:#000000;stroke-width:0;stroke-linejoin:miter;shape-rendering:geometricPrecision"
     inkscape:connector-curvature="0"
     id="path314"
     d="m 279.43915,95.838554 v 0 l 0.12,-0.373333 0.12,-0.373332 14.58663,-3.106659 0.24,0.293333 -0.0933,0.373332 z" />
  <path
     style="fill:#000000;fill-rule:evenodd;stroke:#000000;stroke-width:0;stroke-linejoin:miter;shape-rendering:geometricPrecision"
     inkscape:connector-curvature="0"
     id="path318"
     d="m 319.11905,95.251889 v 0 -0.386666 l 0.30667,-0.213333 13.26663,7.66665 -0.33333,0.2 -0.33333,0.2 z" />
  <path
     style="fill:#000000;fill-rule:evenodd;stroke:#000000;stroke-width:0;stroke-linejoin:miter;shape-rendering:geometricPrecision"
     inkscape:connector-curvature="0"
     id="path322"
     d="m 332.02569,102.71854 v 0 l 0.33333,-0.2 0.33333,-0.2 0.0133,15.29329 -0.34666,0.2 -0.33333,-0.2 z" />
  <path
     style="stroke:#000000;stroke-width:0.67999828;shape-rendering:auto"
     d="m 329.61235,104.1052 v 12.11997"
     id="line324"
     inkscape:connector-curvature="0" />
  <path
     style="fill:#000000;fill-rule:evenodd;stroke:#000000;stroke-width:0;stroke-linejoin:miter;shape-rendering:geometricPrecision"
     inkscape:connector-curvature="0"
     id="path328"
     d="m 332.02569,117.61183 v 0 l 0.33333,0.2 v 0.38667 l -13.2533,7.65331 0.0133,-0.4 0.0133,-0.4 z" />
  <path
     style="fill:#000000;fill-rule:evenodd;stroke:#000000;stroke-width:0;stroke-linejoin:miter;shape-rendering:geometricPrecision"
     inkscape:connector-curvature="0"
     id="path332"
     d="m 319.13238,125.05181 v 0 l -0.0133,0.4 -0.0133,0.4 -12.94664,-8.35998 0.33334,-0.18666 0.33333,-0.18667 z" />
  <path
     style="stroke:#000000;stroke-width:0.67999828;shape-rendering:auto"
     d="M 319.19904,122.27849 309.13241,115.7985"
     id="line334"
     inkscape:connector-curvature="0" />
  <path
     style="fill:#000000;fill-rule:evenodd;stroke:#000000;stroke-width:0;stroke-linejoin:miter;shape-rendering:geometricPrecision"
     inkscape:connector-curvature="0"
     id="path338"
     d="m 306.82575,117.1185 v 0 l -0.33333,0.18667 -0.33334,0.18666 -0.61333,-14.81329 0.33333,-0.16 0.34667,0.18666 z" />
  <path
     style="fill:#000000;fill-rule:evenodd;stroke:#000000;stroke-width:0;stroke-linejoin:miter;shape-rendering:geometricPrecision"
     inkscape:connector-curvature="0"
     id="path342"
     d="m 235.13259,106.17186 v 0 l -0.04,0.37333 -0.33333,0.2 -12.90663,-7.453312 v -0.386665 -0.386666 z" />
  <path
     style="fill:#000000;fill-rule:evenodd;stroke:#000000;stroke-width:0;stroke-linejoin:miter;shape-rendering:geometricPrecision"
     inkscape:connector-curvature="0"
     id="path346"
     d="m 221.85263,98.518547 v 0 0.386666 0.386665 l -12.8933,7.453312 -0.34667,-0.2 -0.34666,-0.2 z" />
  <path
     style="stroke:#000000;stroke-width:0.67999828;shape-rendering:auto"
     d="m 221.85263,102.07854 -10.49331,6.05332"
     id="line348"
     inkscape:connector-curvature="0" />
  <path
     style="fill:#000000;fill-rule:evenodd;stroke:#000000;stroke-width:0;stroke-linejoin:miter;shape-rendering:geometricPrecision"
     inkscape:connector-curvature="0"
     id="path352"
     d="m 208.266,106.34519 v 0 l 0.34666,0.2 0.34667,0.2 v 14.8933 l -0.34667,0.2 -0.33333,-0.2 z" />
  <path
     style="fill:#000000;fill-rule:evenodd;stroke:#000000;stroke-width:0;stroke-linejoin:miter;shape-rendering:geometricPrecision"
     inkscape:connector-curvature="0"
     id="path356"
     d="m 208.61266,122.22515 v 0 -0.38666 l 0.34667,-0.2 12.8933,7.46665 v 0.38666 0.38667 z" />
  <path
     style="stroke:#000000;stroke-width:0.67999828;shape-rendering:auto"
     d="m 211.35932,120.25183 10.49331,6.06665"
     id="line358"
     inkscape:connector-curvature="0" />
  <path
     style="fill:#000000;fill-rule:evenodd;stroke:#000000;stroke-width:0;stroke-linejoin:miter;shape-rendering:geometricPrecision"
     inkscape:connector-curvature="0"
     id="path362"
     d="m 221.85263,129.87847 v 0 -0.38667 -0.38666 l 12.90663,-7.46665 0.33333,0.2 0.04,0.37333 z" />
  <g
     aria-label="Br"
     style="text-anchor:end;text-rendering:geometricPrecision"
     id="text368"
     transform="matrix(1.33333,0,0,1.33333,-50.74669,-35.93445)">
    <path
       d="m 178.52675,127.19 v -5.69077 h 2.13501 q 0.65215,0 1.04422,0.17468 0.39594,0.1708 0.61721,0.53182 0.22514,0.35712 0.22514,0.74919 0,0.36489 -0.19797,0.68708 -0.19797,0.3222 -0.5978,0.52017 0.51628,0.15139 0.79189,0.51628 0.27949,0.3649 0.27949,0.86177 0,0.39983 -0.1708,0.74531 -0.16692,0.34161 -0.41535,0.52793 -0.24844,0.18633 -0.62498,0.28338 -0.37265,0.0932 -0.91611,0.0932 z m 0.75308,-3.29956 h 1.23054 q 0.50076,0 0.71814,-0.066 0.28726,-0.0854 0.43088,-0.28337 0.14751,-0.19798 0.14751,-0.49688 0,-0.28337 -0.13586,-0.49687 -0.13587,-0.21739 -0.38818,-0.29502 -0.25232,-0.0815 -0.86565,-0.0815 h -1.13738 z m 0,2.628 h 1.41687 q 0.36489,0 0.5124,-0.0272 0.26008,-0.0466 0.43477,-0.15527 0.17468,-0.10869 0.28725,-0.31443 0.11258,-0.20962 0.11258,-0.48135 0,-0.31831 -0.16304,-0.55122 -0.16304,-0.23679 -0.45418,-0.32995 -0.28725,-0.097 -0.83071,-0.097 h -1.31594 z"
       style="font-size:7.94999981px;font-family:Arial;fill:#000000"
       id="path1805"
       inkscape:connector-curvature="0" />
    <path
       d="m 183.77111,127.19 v -4.12251 h 0.62886 v 0.62498 q 0.24067,-0.43865 0.44253,-0.5784 0.20574,-0.13974 0.45029,-0.13974 0.35325,0 0.71814,0.22515 l -0.24067,0.64826 q -0.2562,-0.15139 -0.5124,-0.15139 -0.22903,0 -0.41148,0.13975 -0.18245,0.13586 -0.26008,0.38042 -0.11646,0.37265 -0.11646,0.81518 v 2.1583 z"
       style="font-size:7.94999981px;font-family:Arial;fill:#000000"
       id="path1807"
       inkscape:connector-curvature="0" />
  </g>
  <path
     style="fill:#000000;fill-rule:evenodd;stroke:#000000;stroke-width:0;stroke-linejoin:miter;shape-rendering:geometricPrecision"
     inkscape:connector-curvature="0"
     id="path372"
     d="m 208.27933,121.63849 v 0 l 0.33333,0.2 v 0.38666 l -9.55997,5.53332 -0.16,-0.29333 -0.17334,-0.29333 z" />
  <g
     aria-label="Br"
     style="text-anchor:start;text-rendering:geometricPrecision"
     id="text378"
     transform="matrix(1.33333,0,0,1.33333,-50.74669,-35.93445)">
    <path
       d="m 295.19226,124.17 v -5.69077 h 2.13501 q 0.65215,0 1.04421,0.17468 0.39595,0.1708 0.61722,0.53181 0.22514,0.35713 0.22514,0.7492 0,0.36489 -0.19797,0.68708 -0.19797,0.32219 -0.5978,0.52017 0.51628,0.15139 0.79189,0.51628 0.27949,0.36489 0.27949,0.86177 0,0.39983 -0.1708,0.74531 -0.16692,0.3416 -0.41535,0.52793 -0.24844,0.18633 -0.62498,0.28337 -0.37266,0.0932 -0.91611,0.0932 z m 0.75308,-3.29956 h 1.23054 q 0.50076,0 0.71814,-0.066 0.28725,-0.0854 0.43088,-0.28338 0.14751,-0.19797 0.14751,-0.49687 0,-0.28338 -0.13586,-0.49688 -0.13587,-0.21738 -0.38819,-0.29502 -0.25232,-0.0815 -0.86565,-0.0815 h -1.13737 z m 0,2.628 h 1.41687 q 0.36489,0 0.5124,-0.0272 0.26008,-0.0466 0.43476,-0.15528 0.17469,-0.10869 0.28726,-0.31442 0.11257,-0.20962 0.11257,-0.48135 0,-0.31831 -0.16303,-0.55122 -0.16304,-0.23679 -0.45418,-0.32996 -0.28725,-0.097 -0.83071,-0.097 h -1.31594 z"
       style="font-size:7.94999981px;font-family:Arial;fill:#000000"
       id="path1800"
       inkscape:connector-curvature="0" />
    <path
       d="m 300.43662,124.17 v -4.12251 h 0.62886 v 0.62497 q 0.24067,-0.43864 0.44253,-0.57839 0.20573,-0.13975 0.45029,-0.13975 0.35325,0 0.71814,0.22515 l -0.24067,0.64827 q -0.2562,-0.15139 -0.51241,-0.15139 -0.22902,0 -0.41147,0.13974 -0.18245,0.13587 -0.26008,0.38042 -0.11646,0.37266 -0.11646,0.81519 v 2.1583 z"
       style="font-size:7.94999981px;font-family:Arial;fill:#000000"
       id="path1802"
       inkscape:connector-curvature="0" />
  </g>
  <path
     style="fill:#000000;fill-rule:evenodd;stroke:#000000;stroke-width:0;stroke-linejoin:miter;shape-rendering:geometricPrecision"
     inkscape:connector-curvature="0"
     id="path382"
     d="m 332.35902,118.1985 v 0 -0.38667 l 0.34666,-0.2 8.81332,5.09332 -0.17334,0.29334 -0.16,0.29333 z" />
  <g
     aria-label="Boc"
     style="text-anchor:start;text-rendering:geometricPrecision"
     id="text388"
     transform="matrix(1.33333,0,0,1.33333,-50.74669,-35.93445)">
    <path
       d="m 280.62228,81.489998 v -5.690771 h 2.13501 q 0.65215,0 1.04422,0.174682 0.39594,0.170801 0.61721,0.531812 0.22515,0.357129 0.22515,0.749194 0,0.364893 -0.19798,0.687085 -0.19797,0.322192 -0.5978,0.520166 0.51628,0.151392 0.79189,0.516284 0.2795,0.364893 0.2795,0.861768 0,0.399829 -0.1708,0.745312 -0.16692,0.341602 -0.41536,0.52793 -0.24844,0.186328 -0.62498,0.283374 -0.37265,0.09316 -0.91611,0.09316 z m 0.75308,-3.299561 h 1.23054 q 0.50076,0 0.71814,-0.06599 0.28726,-0.0854 0.43089,-0.283374 0.14751,-0.197973 0.14751,-0.496875 0,-0.283374 -0.13587,-0.496875 -0.13586,-0.217383 -0.38818,-0.295019 -0.25232,-0.08152 -0.86565,-0.08152 h -1.13738 z m 0,2.628003 h 1.41687 q 0.36489,0 0.5124,-0.02717 0.26009,-0.04658 0.43477,-0.155273 0.17468,-0.108691 0.28725,-0.314429 0.11258,-0.209619 0.11258,-0.481347 0,-0.318311 -0.16304,-0.551221 -0.16304,-0.236792 -0.45417,-0.329956 -0.28726,-0.09705 -0.83072,-0.09705 h -1.31594 z"
       style="font-size:7.94999981px;font-family:Arial;fill:#000000"
       id="path1793"
       inkscape:connector-curvature="0" />
    <path
       d="m 285.61432,79.428743 q 0,-1.145142 0.63663,-1.696362 0.53181,-0.458057 1.29653,-0.458057 0.85012,0 1.3897,0.558984 0.53957,0.555103 0.53957,1.537207 0,0.795777 -0.24067,1.253833 -0.23679,0.454175 -0.69485,0.706495 -0.45418,0.252319 -0.99375,0.252319 -0.86565,0 -1.40134,-0.555103 -0.53182,-0.555102 -0.53182,-1.599316 z m 0.71814,0 q 0,0.791895 0.34549,1.187842 0.34548,0.392065 0.86953,0.392065 0.52017,0 0.86565,-0.395947 0.34548,-0.395947 0.34548,-1.207251 0,-0.764722 -0.34936,-1.156787 -0.34549,-0.395947 -0.86177,-0.395947 -0.52405,0 -0.86953,0.392065 -0.34549,0.392066 -0.34549,1.18396 z"
       style="font-size:7.94999981px;font-family:Arial;fill:#000000"
       id="path1795"
       inkscape:connector-curvature="0" />
    <path
       d="m 292.98981,79.979964 0.68709,0.08928 q -0.11258,0.710376 -0.5784,1.114087 -0.46193,0.399829 -1.13737,0.399829 -0.84624,0 -1.36253,-0.551221 -0.5124,-0.555102 -0.5124,-1.587671 0,-0.667675 0.22126,-1.168432 0.22127,-0.500757 0.67156,-0.749195 0.45418,-0.252319 0.98599,-0.252319 0.67156,0 1.09856,0.341602 0.427,0.337719 0.54734,0.962695 l -0.67932,0.10481 q -0.0971,-0.415357 -0.34549,-0.624976 -0.24455,-0.209619 -0.59392,-0.209619 -0.52793,0 -0.85788,0.38042 -0.32996,0.376538 -0.32996,1.195605 0,0.830713 0.31831,1.207251 0.31831,0.376538 0.83071,0.376538 0.41148,0 0.68709,-0.252319 0.27561,-0.252319 0.34936,-0.776367 z"
       style="font-size:7.94999981px;font-family:Arial;fill:#000000"
       id="path1797"
       inkscape:connector-curvature="0" />
  </g>
  <path
     style="fill:#000000;fill-rule:evenodd;stroke:#000000;stroke-width:0;stroke-linejoin:miter;shape-rendering:geometricPrecision"
     inkscape:connector-curvature="0"
     id="path392"
     d="m 320.31905,75.545271 v 0 l -0.25333,-0.226666 -0.25334,-0.226666 2.30666,-2.54666 0.25334,0.226666 0.25333,0.226666 z" />
  <path
     style="fill:#000000;fill-rule:evenodd;stroke:#000000;stroke-width:0;stroke-linejoin:miter;shape-rendering:geometricPrecision"
     inkscape:connector-curvature="0"
     id="path396"
     d="m 279.23915,95.358555 v 0 l 0.64,0.213333 -0.16,0.666665 -0.74666,-0.253333 z" />
  <path
     style="fill:#000000;fill-rule:evenodd;stroke:#000000;stroke-width:0;stroke-linejoin:miter;shape-rendering:geometricPrecision"
     inkscape:connector-curvature="0"
     id="path398"
     d="m 278.10582,98.065215 v 0 l 1.09333,0.359999 -0.14666,0.666665 -1.21334,-0.399999 z" />
  <path
     style="fill:#000000;fill-rule:evenodd;stroke:#000000;stroke-width:0;stroke-linejoin:miter;shape-rendering:geometricPrecision"
     inkscape:connector-curvature="0"
     id="path400"
     d="m 276.97249,100.77187 v 0 l 1.56,0.50667 -0.16,0.66667 -1.66667,-0.54667 z" />
  <path
     style="fill:#000000;fill-rule:evenodd;stroke:#000000;stroke-width:0;stroke-linejoin:miter;shape-rendering:geometricPrecision"
     inkscape:connector-curvature="0"
     id="path402"
     d="m 275.83916,103.47853 v 0 l 2.01333,0.65334 -0.16,0.66666 -2.12,-0.69333 z" />
  <path
     style="fill:#000000;fill-rule:evenodd;stroke:#000000;stroke-width:0;stroke-linejoin:miter;shape-rendering:geometricPrecision"
     inkscape:connector-curvature="0"
     id="path404"
     d="m 274.70583,106.18519 v 0 l 2.46666,0.8 -0.16,0.66667 -2.57333,-0.84 z" />
  <path
     style="fill:#000000;fill-rule:evenodd;stroke:#000000;stroke-width:0;stroke-linejoin:miter;shape-rendering:geometricPrecision"
     inkscape:connector-curvature="0"
     id="path406"
     d="m 273.5725,108.89185 v 0 l 2.91999,0.94667 -0.16,0.66666 -3.01332,-0.98666 z" />
  <g
     aria-label="O"
     style="text-anchor:start;text-rendering:geometricPrecision"
     id="text412"
     transform="matrix(1.33333,0,0,1.33333,-50.74669,-35.93445)">
    <path
       d="m 249.9343,117.66837 q 0,-1.41687 0.76084,-2.21653 0.76084,-0.80354 1.96421,-0.80354 0.78802,0 1.42076,0.37654 0.63273,0.37654 0.96269,1.05198 0.33384,0.67156 0.33384,1.52556 0,0.86565 -0.34937,1.54885 -0.34936,0.68321 -0.98986,1.03645 -0.64051,0.34937 -1.38194,0.34937 -0.80354,0 -1.43628,-0.38819 -0.63274,-0.38818 -0.95881,-1.05974 -0.32608,-0.67155 -0.32608,-1.42075 z m 0.77637,0.0117 q 0,1.02868 0.55122,1.6226 0.55511,0.59004 1.3897,0.59004 0.85012,0 1.39746,-0.5978 0.55122,-0.5978 0.55122,-1.69636 0,-0.69485 -0.23679,-1.21113 -0.23291,-0.52017 -0.68709,-0.80354 -0.45029,-0.28726 -1.01315,-0.28726 -0.79966,0 -1.37806,0.55122 -0.57451,0.54734 -0.57451,1.83223 z"
       style="font-size:7.94999981px;font-family:Arial;fill:#cc78a6"
       id="path1790"
       inkscape:connector-curvature="0" />
  </g>
  <path
     style="fill:#cc78a6;fill-rule:evenodd;stroke:#cc78a6;stroke-width:0;stroke-linejoin:miter;shape-rendering:geometricPrecision"
     inkscape:connector-curvature="0"
     id="path416"
     d="m 274.5725,110.23852 v 0 l 0.25333,-0.22667 0.25333,-0.22666 6.59999,7.33331 -0.25334,0.22667 -0.25333,0.22666 z" />
  <path
     style="stroke:#cc78a6;stroke-width:0.67999828;shape-rendering:auto"
     d="m 277.94582,109.34519 5.53332,6.14665"
     id="line418"
     inkscape:connector-curvature="0" />
  <text
     xml:space="preserve"
     style="font-style:normal;font-variant:normal;font-weight:normal;font-stretch:normal;font-size:10.66666698px;line-height:1.25;font-family:Arial;-inkscape-font-specification:Arial;text-align:start;letter-spacing:0px;word-spacing:0px;text-anchor:start;fill:#000000;fill-opacity:1;stroke:none"
     x="265.82245"
     y="147.41209"
     id="text1934"><tspan
       sodipodi:role="line"
       id="tspan1932"
       x="265.82245"
       y="147.41209">\cmpd{w:baran-diindole-aldehyde}, \SI{78}{\percent}</tspan></text>
  <text
     xml:space="preserve"
     style="font-style:normal;font-variant:normal;font-weight:normal;font-stretch:normal;font-size:10.66666698px;line-height:1.25;font-family:Arial;-inkscape-font-specification:Arial;text-align:start;letter-spacing:0px;word-spacing:0px;text-anchor:start;fill:#000000;fill-opacity:1;stroke:none"
     x="30.081835"
     y="147.41209"
     id="text1938"><tspan
       sodipodi:role="line"
       id="tspan1936"
       x="30.081835"
       y="147.41209">\cmpd{w:baran-diindole-nitrile}</tspan></text>
</svg>
