<?xml version="1.0" encoding="UTF-8" standalone="no"?>
<svg
   xmlns:dc="http://purl.org/dc/elements/1.1/"
   xmlns:cc="http://creativecommons.org/ns#"
   xmlns:rdf="http://www.w3.org/1999/02/22-rdf-syntax-ns#"
   xmlns:svg="http://www.w3.org/2000/svg"
   xmlns="http://www.w3.org/2000/svg"
   xmlns:sodipodi="http://sodipodi.sourceforge.net/DTD/sodipodi-0.dtd"
   xmlns:inkscape="http://www.inkscape.org/namespaces/inkscape"
   width="395px"
   height="100px"
   viewBox="0 0 395 100"
   version="1.1"
   id="svg156"
   sodipodi:docname="gal-allyl.svg"
   inkscape:version="0.92.4 (5da689c313, 2019-01-14)">
  <metadata
     id="metadata162">
    <rdf:RDF>
      <cc:Work
         rdf:about="">
        <dc:format>image/svg+xml</dc:format>
        <dc:type
           rdf:resource="http://purl.org/dc/dcmitype/StillImage" />
      </cc:Work>
    </rdf:RDF>
  </metadata>
  <defs
     id="defs160" />
  <sodipodi:namedview
     pagecolor="#ffffff"
     bordercolor="#666666"
     borderopacity="1"
     objecttolerance="10"
     gridtolerance="10"
     guidetolerance="10"
     inkscape:pageopacity="0"
     inkscape:pageshadow="2"
     inkscape:window-width="1920"
     inkscape:window-height="1017"
     id="namedview158"
     showgrid="false"
     inkscape:zoom="2.4560772"
     inkscape:cx="122.68119"
     inkscape:cy="56.635456"
     inkscape:window-x="-8"
     inkscape:window-y="-8"
     inkscape:window-maximized="1"
     inkscape:current-layer="svg156" />
  <path
     stroke="transparent"
     fill="#000000"
     transform="matrix(0.0666667 0 0 0.0666667 -5.62226 -41.3333)"
     d="M 3978.18,1569.56 L 1838.7,1569.56 L 1838.7,1559.56 L 3978.18,1559.56 Z "
     id="path2" />
  <path
     stroke="transparent"
     fill="#000000"
     transform="matrix(0.0666667 0 0 0.0666667 -5.62226 -41.3333)"
     d="M 4066.47,1564.56 C 4066.47,1564.56 3964.42,1591.07 3964.42,1591.07 C 3964.42,1591.07 3977.18,1576.15 3977.18,1564.56 C 3977.18,1552.52 3964.42,1537.04 3964.42,1537.04 C 3964.42,1537.04 4066.47,1564.56 4066.47,1564.56 C 4066.47,1564.56 4066.47,1564.56 4066.47,1564.56 "
     id="path4" />
  <path
     stroke="#000000"
     stroke-width="1"
     fill="transparent"
     transform="matrix(0.0666667 0 0 0.0666667 -5.62226 -41.3333)"
     d="M 4066.47,1564.56 C 4066.47,1564.56 3964.42,1591.07 3964.42,1591.07 C 3964.42,1591.07 3977.18,1576.15 3977.18,1564.56 C 3977.18,1552.52 3964.42,1537.04 3964.42,1537.04 C 3964.42,1537.04 4066.47,1564.56 4066.47,1564.56 C 4066.47,1564.56 4066.47,1564.56 4066.47,1564.56 "
     id="path6" />
  <g
     aria-label="1)"
     transform="matrix(0.0666667,0,0,0.0666667,124.42,55.7772)"
     style="font-style:normal;font-variant:normal;font-weight:normal;font-stretch:normal;font-size:159px;line-height:normal;font-family:Arial;fill:#000000"
     id="text8">
    <path
       d="M 59.236816,0 H 45.262207 v -89.049316 q -5.046387,4.813476 -13.275879,9.626953 -8.151855,4.813476 -14.67334,7.220215 v -13.508789 q 11.723145,-5.512208 20.496094,-13.353516 8.772949,-7.841307 12.421875,-15.216797 h 9.005859 z"
       style="font-style:normal;font-variant:normal;font-weight:normal;font-stretch:normal;font-size:159px;line-height:normal;font-family:Arial;fill:#000000"
       id="path1158"
       inkscape:connector-curvature="0" />
    <path
       d="M 108.14795,33.461426 H 98.132812 q 23.213378,-37.2656252 23.213378,-74.608887 0,-14.595703 -3.33838,-28.958496 -2.63965,-11.645508 -7.37549,-22.359375 -3.02783,-6.987305 -12.499508,-23.291018 h 10.015138 q 14.5957,19.486819 21.58301,39.128909 5.97802,16.924804 5.97802,35.402343 0,20.961914 -8.07421,40.52636753 Q 119.63818,18.865723 108.14795,33.461426 Z"
       style="font-style:normal;font-variant:normal;font-weight:normal;font-stretch:normal;font-size:159px;line-height:normal;font-family:Arial;fill:#000000"
       id="path1160"
       inkscape:connector-curvature="0" />
  </g>
  <g
     aria-label="Cp"
     transform="matrix(0.0666667,0,0,0.0666667,136.794,55.7772)"
     style="font-style:normal;font-variant:normal;font-weight:normal;font-stretch:normal;font-size:159px;line-height:normal;font-family:Arial;fill:#009e73"
     id="text10">
    <path
       d="m 93.474609,-39.905273 15.061521,3.804199 q -4.73584,18.555176 -17.080075,28.3374021 -12.266602,9.7045899 -30.04541,9.7045899 -18.399903,0 -29.967774,-7.453125 -11.490234,-7.530762 -17.545898,-21.738281 -5.9780277,-14.20752 -5.9780277,-30.511231 0,-17.778808 6.7543947,-30.977051 6.832031,-13.27588 19.331543,-20.10791 12.577148,-6.90967 27.638672,-6.90967 17.080078,0 28.725586,8.69531 11.645509,8.695317 16.226069,24.455571 l -14.828608,3.493653 q -3.959473,-12.421875 -11.490235,-18.089356 -7.530762,-5.667478 -18.943359,-5.667478 -13.120606,0 -21.971192,6.288572 -8.772949,6.288574 -12.344238,16.924805 -3.571289,10.558593 -3.571289,21.815918 0,14.518066 4.192383,25.387207 4.270019,10.791503 13.198242,16.148437 8.928223,5.356934 19.331543,5.356934 12.654785,0 21.427734,-7.297852 8.77295,-7.297851 11.878418,-21.660644 z"
       style="font-style:normal;font-variant:normal;font-weight:normal;font-stretch:normal;font-size:159px;line-height:normal;font-family:Arial;fill:#009e73"
       id="path1153"
       inkscape:connector-curvature="0" />
    <path
       d="m 125.3833,31.598145 v -114.04834 h 12.73242 v 10.713867 q 4.50293,-6.288574 10.17041,-9.394043 5.66748,-3.183106 13.7417,-3.183106 10.5586,0 18.63281,5.434571 8.07422,5.43457 12.18897,15.37207 4.11475,9.859863 4.11475,21.660645 0,12.654785 -4.58057,22.825195 -4.50293,10.0927733 -13.19824,15.5273437 -8.61768,5.3569335 -18.167,5.3569335 -6.9873,0 -12.57714,-2.9501953 -5.51221,-2.9501953 -9.0835,-7.453125 V 31.598145 Z m 12.65479,-72.357422 q 0,15.915527 6.44384,23.523925 6.44385,7.6083989 15.60498,7.6083989 9.31641,0 15.91553,-7.8413089 6.67676,-7.918945 6.67676,-24.455566 0,-15.760254 -6.52149,-23.601563 -6.44384,-7.841308 -15.4497,-7.841308 -8.92822,0 -15.83789,8.384765 -6.83203,8.307129 -6.83203,24.222657 z"
       style="font-style:normal;font-variant:normal;font-weight:normal;font-stretch:normal;font-size:159px;line-height:normal;font-family:Arial;fill:#009e73"
       id="path1155"
       inkscape:connector-curvature="0" />
  </g>
  <g
     aria-label="2"
     transform="matrix(0.0666667,0,0,0.0666667,150.356,58.0439)"
     style="font-style:normal;font-variant:normal;font-weight:normal;font-stretch:normal;font-size:119.25px;line-height:normal;font-family:Arial;fill:#009e73"
     id="text12">
    <path
       d="M 60.032593,-10.073364 V 0 H 3.6101074 q -0.1164551,-3.78479 1.2227783,-7.2784424 2.154419,-5.7645266 6.8708493,-11.3543696 4.774659,-5.589844 13.7417,-12.926514 13.916381,-11.412598 18.807495,-18.050537 4.891113,-6.696167 4.891113,-12.635376 0,-6.230347 -4.483521,-10.480957 -4.425293,-4.308838 -11.58728,-4.308838 -7.56958,0 -12.111328,4.541748 -4.541748,4.541748 -4.599976,12.577148 L 5.5898437,-61.022461 q 1.1063233,-12.053101 8.3265383,-18.341675 7.220215,-6.346801 19.38977,-6.346801 12.286011,0 19.447998,6.812622 7.161988,6.812622 7.161988,16.885986 0,5.124023 -2.096192,10.073364 -2.096191,4.949341 -6.987304,10.42273 -4.832886,5.473388 -16.129029,15.022705 -9.432861,7.918945 -12.111328,10.772094 -2.678467,2.794922 -4.425293,5.648072 z"
       style="font-style:normal;font-variant:normal;font-weight:normal;font-stretch:normal;font-size:119.25px;line-height:normal;font-family:Arial;fill:#009e73"
       id="path1150"
       inkscape:connector-curvature="0" />
  </g>
  <g
     aria-label="Zr(H)Cl"
     transform="matrix(0.0666667,0,0,0.0666667,154.777,55.7772)"
     style="font-style:normal;font-variant:normal;font-weight:normal;font-stretch:normal;font-size:159px;line-height:normal;font-family:Arial;fill:#009e73"
     id="text14">
    <path
       d="M 3.1831055,0 V -13.974609 L 61.488281,-86.875488 q 6.210938,-7.763672 11.800781,-13.508792 H 9.7822266 v -13.43115 H 91.300781 v 13.43115 l -63.895019,78.956546 -6.909668,7.996582 H 93.164062 V 0 Z"
       style="font-style:normal;font-variant:normal;font-weight:normal;font-stretch:normal;font-size:159px;line-height:normal;font-family:Arial;fill:#009e73"
       id="path1135"
       inkscape:connector-curvature="0" />
    <path
       d="M 107.52686,0 V -82.450195 H 120.104 v 12.499511 q 4.81348,-8.772949 8.85059,-11.567871 4.11475,-2.794922 9.00586,-2.794922 7.06494,0 14.36279,4.50293 l -4.81347,12.965332 q -5.12403,-3.027832 -10.24805,-3.027832 -4.58057,0 -8.22949,2.794922 -3.64893,2.717285 -5.20166,7.608398 -2.32911,7.453125 -2.32911,16.303711 V 0 Z"
       style="font-style:normal;font-variant:normal;font-weight:normal;font-stretch:normal;font-size:159px;line-height:normal;font-family:Arial;fill:#009e73"
       id="path1137"
       inkscape:connector-curvature="0" />
    <path
       d="M 187.49268,33.461426 Q 175.9248,18.865723 167.92822,-0.69873047 159.93164,-20.263184 159.93164,-41.225098 q 0,-18.477539 5.97803,-35.402343 6.9873,-19.64209 21.58301,-39.128909 h 10.01513 q -9.39404,16.14844 -12.42187,23.058108 -4.73584,10.713867 -7.45313,22.359375 -3.33838,14.518066 -3.33838,29.191406 0,37.3432618 23.21338,74.608887 z"
       style="font-style:normal;font-variant:normal;font-weight:normal;font-stretch:normal;font-size:159px;line-height:normal;font-family:Arial;fill:#009e73"
       id="path1139"
       inkscape:connector-curvature="0" />
    <path
       d="m 216.14062,0 v -113.81543 h 15.06153 v 46.737305 h 59.15918 v -46.737305 h 15.06152 V 0 H 290.36133 V -53.646973 H 231.20215 V 0 Z"
       style="font-style:normal;font-variant:normal;font-weight:normal;font-stretch:normal;font-size:159px;line-height:normal;font-family:Arial;fill:#009e73"
       id="path1141"
       inkscape:connector-curvature="0" />
    <path
       d="M 337.95264,33.461426 H 327.9375 q 23.21338,-37.2656252 23.21338,-74.608887 0,-14.595703 -3.33838,-28.958496 -2.63965,-11.645508 -7.37549,-22.359375 -3.02783,-6.987305 -12.49951,-23.291018 h 10.01514 q 14.5957,19.486819 21.583,39.128909 5.97803,16.924804 5.97803,35.402343 0,20.961914 -8.07422,40.52636753 Q 349.44287,18.865723 337.95264,33.461426 Z"
       style="font-style:normal;font-variant:normal;font-weight:normal;font-stretch:normal;font-size:159px;line-height:normal;font-family:Arial;fill:#009e73"
       id="path1143"
       inkscape:connector-curvature="0" />
    <path
       d="m 464.88867,-39.905273 15.06153,3.804199 q -4.73584,18.555176 -17.08008,28.3374021 -12.2666,9.7045899 -30.04541,9.7045899 -18.39991,0 -29.96778,-7.453125 -11.49023,-7.530762 -17.54589,-21.738281 -5.97803,-14.20752 -5.97803,-30.511231 0,-17.778808 6.75439,-30.977051 6.83203,-13.27588 19.33155,-20.10791 12.57714,-6.90967 27.63867,-6.90967 17.08008,0 28.72558,8.69531 11.64551,8.695317 16.22608,24.455571 l -14.82862,3.493653 q -3.95947,-12.421875 -11.49023,-18.089356 -7.53076,-5.667478 -18.94336,-5.667478 -13.12061,0 -21.97119,6.288572 -8.77295,6.288574 -12.34424,16.924805 -3.57129,10.558593 -3.57129,21.815918 0,14.518066 4.19238,25.387207 4.27002,10.791503 13.19825,16.148437 8.92822,5.356934 19.33154,5.356934 12.65478,0 21.42773,-7.297852 8.77295,-7.297851 11.87842,-21.660644 z"
       style="font-style:normal;font-variant:normal;font-weight:normal;font-stretch:normal;font-size:159px;line-height:normal;font-family:Arial;fill:#009e73"
       id="path1145"
       inkscape:connector-curvature="0" />
    <path
       d="m 496.48682,0 v -113.81543 h 13.97461 V 0 Z"
       style="font-style:normal;font-variant:normal;font-weight:normal;font-stretch:normal;font-size:159px;line-height:normal;font-family:Arial;fill:#009e73"
       id="path1147"
       inkscape:connector-curvature="0" />
  </g>
  <path
     stroke="transparent"
     fill="#cc79a7"
     transform="matrix(0.0666667 0 0 0.0666667 -5.62226 -41.3333)"
     d="M 3107.03,1705.32 L 3107.03,1717.1 L 2910.25,1830.72 L 2905.15,1821.88 L 3107.03,1705.32 Z "
     id="path16" />
  <path
     stroke="transparent"
     fill="#cc79a7"
     transform="matrix(0.0666667 0 0 0.0666667 -5.62226 -41.3333)"
     d="M 3104.48,1754.63 L 3109.58,1763.47 L 2930.96,1866.6 L 2925.86,1857.76 L 3104.48,1754.63 Z "
     id="path18" />
  <path
     stroke="transparent"
     fill="#cc79a7"
     transform="matrix(0.0666667 0 0 0.0666667 -5.62226 -41.3333)"
     d="M 3306.37,1820.41 L 3306.37,1832.19 L 3107.03,1717.1 L 3107.03,1705.32 L 3306.37,1820.41 Z "
     id="path20" />
  <g
     aria-label="SnBu"
     transform="matrix(0.0666667,0,0,0.0666667,224.558,76.914)"
     style="font-style:normal;font-variant:normal;font-weight:normal;font-stretch:normal;font-size:159px;line-height:normal;font-family:Arial;fill:#cc79a7"
     id="text22">
    <path
       d="m 7.1425781,-36.566895 14.2075199,-1.242187 q 1.009277,8.540039 4.658203,14.052246 3.726562,5.43457 11.490234,8.850586 7.763672,3.338379 17.468262,3.338379 8.617676,0 15.216797,-2.562012 6.599121,-2.562012 9.782226,-6.987304 3.260742,-4.50293 3.260742,-9.782227 0,-5.356934 -3.105468,-9.316406 -3.105469,-4.03711 -10.248047,-6.754395 -4.580567,-1.785644 -20.263184,-5.512207 -15.682617,-3.804199 -21.971191,-7.142578 -8.151856,-4.27002 -12.188965,-10.558594 -3.959473,-6.366211 -3.959473,-14.207519 0,-8.617676 4.891114,-16.070797 4.891113,-7.53077 14.285156,-11.4126 9.394043,-3.88184 20.884277,-3.88184 12.654785,0 22.281739,4.11475 9.704589,4.03711 14.90625,11.956053 5.20166,7.918945 5.589843,17.934082 l -14.440429,1.086914 q -1.164551,-10.791504 -7.918946,-16.303711 -6.676758,-5.512208 -19.797363,-5.512208 -13.664063,0 -19.952637,5.046388 -6.210937,4.96875 -6.210937,12.033691 0,6.133301 4.425293,10.092774 4.347656,3.959472 22.669922,8.151855 18.399902,4.114746 25.231933,7.220215 9.9375,4.580567 14.67334,11.645508 4.73584,6.987305 4.73584,16.148437 0,9.083497 -5.20166,17.157715 -5.20166,7.9965823 -14.983887,12.499512 -9.70459,4.425293 -21.893555,4.425293 -15.449707,0 -25.930664,-4.5029297 Q 19.331543,-7.0649414 13.353516,-16.070801 7.453125,-25.154297 7.1425781,-36.566895 Z"
       style="font-style:normal;font-variant:normal;font-weight:normal;font-stretch:normal;font-size:159px;line-height:normal;font-family:Arial;fill:#cc79a7"
       id="path1126"
       inkscape:connector-curvature="0" />
    <path
       d="m 116.68799,0 v -82.450195 h 12.57715 v 11.723144 q 9.08349,-13.586426 26.24121,-13.586426 7.45312,0 13.66406,2.717286 6.28857,2.639648 9.39404,6.987304 3.10547,4.347657 4.34766,10.325684 0.77637,3.881836 0.77637,13.586426 V 0 h -13.97461 v -50.15332 q 0,-8.540039 -1.63037,-12.732422 -1.63038,-4.27002 -5.82276,-6.754395 -4.11474,-2.562011 -9.70459,-2.562011 -8.92822,0 -15.4497,5.66748 -6.44385,5.667481 -6.44385,21.505371 V 0 Z"
       style="font-style:normal;font-variant:normal;font-weight:normal;font-stretch:normal;font-size:159px;line-height:normal;font-family:Arial;fill:#cc79a7"
       id="path1128"
       inkscape:connector-curvature="0" />
    <path
       d="m 206.3584,0 v -113.81543 h 42.70019 q 13.04297,0 20.88428,3.49365 7.91895,3.41602 12.34424,10.636233 4.50293,7.142578 4.50293,14.983887 0,7.297851 -3.95947,13.741699 -3.95948,6.443848 -11.95606,10.40332 10.32569,3.027832 15.83789,10.325684 5.58985,7.297852 5.58985,17.235352 0,7.996582 -3.41602,14.90625 -3.33838,6.832031 -8.30713,10.5585933 -4.96875,3.7265625 -12.49951,5.6674805 Q 260.62646,0 249.75732,0 Z m 15.06152,-65.991211 h 24.61084 q 10.01514,0 14.36279,-1.319824 5.74512,-1.708008 8.61768,-5.667481 2.9502,-3.959472 2.9502,-9.9375 0,-5.66748 -2.71729,-9.9375 -2.71728,-4.347656 -7.76367,-5.90039 -5.04639,-1.630374 -17.31299,-1.630374 h -22.74756 z m 0,52.560059 h 28.3374 q 7.29786,0 10.24805,-0.543457 5.20166,-0.931641 8.69531,-3.105469 3.49366,-2.173828 5.74512,-6.288574 2.25147,-4.192383 2.25147,-9.626953 0,-6.366211 -3.26075,-11.024415 -3.26074,-4.735839 -9.08349,-6.599121 -5.74512,-1.940918 -16.61426,-1.940918 h -26.31885 z"
       style="font-style:normal;font-variant:normal;font-weight:normal;font-stretch:normal;font-size:159px;line-height:normal;font-family:Arial;fill:#cc79a7"
       id="path1130"
       inkscape:connector-curvature="0" />
    <path
       d="m 365.43604,0 v -12.111328 q -9.62696,13.9746092 -26.16358,13.9746092 -7.29785,0 -13.66406,-2.79492183 -6.28858,-2.79492187 -9.39404,-6.98730467 -3.02784,-4.2700197 -4.27002,-10.4033207 -0.85401,-4.114746 -0.85401,-13.042968 v -51.084961 h 13.97461 v 45.728027 q 0,10.946777 0.85401,14.750977 1.31982,5.512207 5.58984,8.695312 4.27002,3.105469 10.55859,3.105469 6.28858,0 11.80078,-3.183106 5.51221,-3.260742 7.76368,-8.772949 2.3291,-5.589844 2.3291,-16.148437 v -44.175293 h 13.97461 V 0 Z"
       style="font-style:normal;font-variant:normal;font-weight:normal;font-stretch:normal;font-size:159px;line-height:normal;font-family:Arial;fill:#cc79a7"
       id="path1132"
       inkscape:connector-curvature="0" />
  </g>
  <g
     aria-label="3"
     transform="matrix(0.0666667,0,0,0.0666667,250.489,79.1807)"
     style="font-style:normal;font-variant:normal;font-weight:normal;font-stretch:normal;font-size:119.25px;line-height:normal;font-family:Arial;fill:#cc79a7"
     id="text24">
    <path
       d="m 5.0075684,-22.534058 10.4809566,-1.397461 q 1.805054,8.908814 6.113892,12.868287 4.367065,3.9012447 10.597412,3.9012447 7.394898,0 12.460693,-5.1240237 5.124024,-5.124023 5.124024,-12.693603 0,-7.220215 -4.716431,-11.878418 -4.71643,-4.716431 -11.994873,-4.716431 -2.969604,0 -7.394897,1.164551 l 1.164551,-9.199951 q 1.048095,0.116455 1.688598,0.116455 6.696167,0 12.053101,-3.493653 5.356933,-3.493652 5.356933,-10.772094 0,-5.764527 -3.901245,-9.549317 -3.901245,-3.78479 -10.073364,-3.78479 -6.113892,0 -10.189819,3.843018 -4.075928,3.843017 -5.240479,11.529053 L 6.0556641,-63.584473 q 1.9215088,-10.539184 8.7341309,-16.303711 6.812622,-5.822753 16.944214,-5.822753 6.987304,0 12.868286,3.027832 5.880981,2.969604 8.967041,8.151855 3.144287,5.182251 3.144287,11.005005 0,5.531616 -2.969604,10.073364 -2.969605,4.541748 -8.792359,7.220215 7.56958,1.746826 11.761963,7.278442 4.192383,5.473389 4.192383,13.7417 0,11.179687 -8.151856,18.9821773 -8.151855,7.7442627 -20.612548,7.7442627 -11.237915,0 -18.69104,-6.696167 -7.3948979,-6.696167 -8.4429936,-17.351807 z"
       style="font-style:normal;font-variant:normal;font-weight:normal;font-stretch:normal;font-size:119.25px;line-height:normal;font-family:Arial;fill:#cc79a7"
       id="path1123"
       inkscape:connector-curvature="0" />
  </g>
  <path
     stroke="transparent"
     fill="#cc79a7"
     transform="matrix(0.0666667 0 0 0.0666667 -5.62226 -41.3333)"
     d="M 3430.57,1748.7 L 3435.68,1757.53 L 3306.37,1832.19 L 3306.37,1820.41 L 3430.57,1748.7 Z "
     id="path26" />
  <g
     aria-label="2)"
     transform="matrix(0.0666667,0,0,0.0666667,124.42,80.553)"
     style="font-style:normal;font-variant:normal;font-weight:normal;font-stretch:normal;font-size:159px;line-height:normal;font-family:Arial;fill:#000000"
     id="text28">
    <path
       d="M 80.043457,-13.431152 V 0 H 4.8134766 Q 4.6582031,-5.0463867 6.4438477,-9.7045898 9.3164063,-17.390625 15.60498,-24.84375 q 6.366211,-7.453125 18.322266,-17.235352 18.555176,-15.216796 25.07666,-24.067382 6.521485,-8.928223 6.521485,-16.847168 0,-8.307129 -5.978028,-13.97461 -5.90039,-5.745118 -15.449707,-5.745118 -10.092773,0 -16.148437,6.055665 -6.055664,6.055664 -6.133301,16.769531 L 7.453125,-81.363281 q 1.4750977,-16.070801 11.102051,-24.455569 9.626953,-8.4624 25.853027,-8.4624 16.381348,0 25.930664,9.0835 9.549317,9.083492 9.549317,22.514645 0,6.832031 -2.794922,13.431152 -2.794922,6.599121 -9.316407,13.896973 -6.443847,7.297851 -21.505371,20.030273 -12.577148,10.558594 -16.148437,14.362793 -3.571289,3.726562 -5.900391,7.530762 z"
       style="font-style:normal;font-variant:normal;font-weight:normal;font-stretch:normal;font-size:159px;line-height:normal;font-family:Arial;fill:#000000"
       id="path1118"
       inkscape:connector-curvature="0" />
    <path
       d="M 108.14795,33.461426 H 98.132812 q 23.213378,-37.2656252 23.213378,-74.608887 0,-14.595703 -3.33838,-28.958496 -2.63965,-11.645508 -7.37549,-22.359375 -3.02783,-6.987305 -12.499508,-23.291018 h 10.015138 q 14.5957,19.486819 21.58301,39.128909 5.97802,16.924804 5.97802,35.402343 0,20.961914 -8.07421,40.52636753 Q 119.63818,18.865723 108.14795,33.461426 Z"
       style="font-style:normal;font-variant:normal;font-weight:normal;font-stretch:normal;font-size:159px;line-height:normal;font-family:Arial;fill:#000000"
       id="path1120"
       inkscape:connector-curvature="0" />
  </g>
  <g
     aria-label="Yb(OTf)"
     transform="matrix(0.0666667,0,0,0.0666667,136.794,80.553)"
     style="font-style:normal;font-variant:normal;font-weight:normal;font-stretch:normal;font-size:159px;line-height:normal;font-family:Arial;fill:#000000"
     id="text30">
    <path
       d="M 44.330566,0 V -48.212402 L 0.46582031,-113.81543 H 18.788086 L 41.225098,-79.5 q 6.210937,9.626953 11.567871,19.253906 5.124023,-8.928222 12.421875,-20.10791 L 87.263672,-113.81543 H 104.80957 L 59.39209,-48.212402 V 0 Z"
       style="font-style:normal;font-variant:normal;font-weight:normal;font-stretch:normal;font-size:159px;line-height:normal;font-family:Arial;fill:#000000"
       id="path1103"
       inkscape:connector-curvature="0" />
    <path
       d="m 129.57568,0 h -12.96533 v -113.81543 h 13.97461 v 40.604004 q 8.85059,-11.102051 22.59229,-11.102051 7.60839,0 14.36279,3.105469 6.83203,3.027832 11.17969,8.617676 4.42529,5.512207 6.90966,13.353516 2.48438,7.841308 2.48438,16.769531 0,21.194824 -10.48096,32.7626952 -10.48095,11.567871 -25.15429,11.567871 -14.59571,0 -22.90284,-12.1889652 z m -0.15527,-41.846191 q 0,14.828613 4.03711,21.427734 6.59912,10.7915039 17.85644,10.7915039 9.16114,0 15.8379,-7.9189449 6.67675,-7.996582 6.67675,-23.756836 0,-16.148438 -6.44384,-23.834473 -6.36622,-7.686035 -15.44971,-7.686035 -9.16113,0 -15.83789,7.996582 -6.67676,7.918945 -6.67676,22.980469 z"
       style="font-style:normal;font-variant:normal;font-weight:normal;font-stretch:normal;font-size:159px;line-height:normal;font-family:Arial;fill:#000000"
       id="path1105"
       inkscape:connector-curvature="0" />
    <path
       d="M 231.90088,33.461426 Q 220.33301,18.865723 212.33643,-0.69873047 204.33984,-20.263184 204.33984,-41.225098 q 0,-18.477539 5.97803,-35.402343 6.98731,-19.64209 21.58301,-39.128909 h 10.01514 q -9.39405,16.14844 -12.42188,23.058108 -4.73584,10.713867 -7.45312,22.359375 -3.33838,14.518066 -3.33838,29.191406 0,37.3432618 23.21338,74.608887 z"
       style="font-style:normal;font-variant:normal;font-weight:normal;font-stretch:normal;font-size:159px;line-height:normal;font-family:Arial;fill:#000000"
       id="path1107"
       inkscape:connector-curvature="0" />
    <path
       d="m 255.50244,-55.432617 q 0,-28.337403 15.2168,-44.330567 15.2168,-16.070796 39.28418,-16.070796 15.76025,0 28.41504,7.53076 12.65478,7.53076 19.2539,21.039548 6.67676,13.431152 6.67676,30.511231 0,17.312988 -6.9873,30.97705 -6.98731,13.664063 -19.79737,20.7290043 -12.81006,6.9873047 -27.63867,6.9873047 -16.0708,0 -28.72558,-7.7636719 -12.65479,-7.7636721 -19.17627,-21.1948241 -6.52149,-13.431152 -6.52149,-28.415039 z m 15.52735,0.23291 q 0,20.57373 11.02441,32.452148 11.10205,11.800782 27.79394,11.800782 17.00245,0 27.94922,-11.956055 11.02442,-11.956055 11.02442,-33.927246 0,-13.896973 -4.73584,-24.222656 -4.65821,-10.403321 -13.7417,-16.070801 -9.00586,-5.745115 -20.26319,-5.745115 -15.99316,0 -27.56103,11.024412 -11.49023,10.946777 -11.49023,36.644531 z"
       style="font-style:normal;font-variant:normal;font-weight:normal;font-stretch:normal;font-size:159px;line-height:normal;font-family:Arial;fill:#000000"
       id="path1109"
       inkscape:connector-curvature="0" />
    <path
       d="m 412.63916,0 v -100.38428 h -37.49854 v -13.43115 h 90.21387 v 13.43115 H 427.70068 V 0 Z"
       style="font-style:normal;font-variant:normal;font-weight:normal;font-stretch:normal;font-size:159px;line-height:normal;font-family:Arial;fill:#000000"
       id="path1111"
       inkscape:connector-curvature="0" />
    <path
       d="m 482.43457,0 v -71.581055 h -12.34424 v -10.86914 h 12.34424 v -8.77295 q 0,-8.307128 1.4751,-12.344235 2.01855,-5.43457 7.06494,-8.77295 5.12402,-3.41602 14.28516,-3.41602 5.90039,0 13.04296,1.39746 l -2.09619,12.18897 q -4.34765,-0.77637 -8.22949,-0.77637 -6.36621,0 -9.00586,2.71729 -2.63965,2.717281 -2.63965,10.170406 v 7.608399 h 16.0708 v 10.86914 h -16.0708 V 0 Z"
       style="font-style:normal;font-variant:normal;font-weight:normal;font-stretch:normal;font-size:159px;line-height:normal;font-family:Arial;fill:#000000"
       id="path1113"
       inkscape:connector-curvature="0" />
    <path
       d="m 532.35498,33.461426 h -10.01514 q 23.21338,-37.2656252 23.21338,-74.608887 0,-14.595703 -3.33838,-28.958496 -2.63964,-11.645508 -7.37548,-22.359375 -3.02784,-6.987305 -12.49952,-23.291018 h 10.01514 q 14.5957,19.486819 21.58301,39.128909 5.97803,16.924804 5.97803,35.402343 0,20.961914 -8.07422,40.52636753 Q 543.84521,18.865723 532.35498,33.461426 Z"
       style="font-style:normal;font-variant:normal;font-weight:normal;font-stretch:normal;font-size:159px;line-height:normal;font-family:Arial;fill:#000000"
       id="path1115"
       inkscape:connector-curvature="0" />
  </g>
  <g
     aria-label="3,"
     transform="matrix(0.0666667,0,0,0.0666667,174.513,82.8197)"
     style="font-style:normal;font-variant:normal;font-weight:normal;font-stretch:normal;font-size:119.25px;line-height:normal;font-family:Arial;fill:#000000"
     id="text32">
    <path
       d="m 5.0075684,-22.534058 10.4809566,-1.397461 q 1.805054,8.908814 6.113892,12.868287 4.367065,3.9012447 10.597412,3.9012447 7.394898,0 12.460693,-5.1240237 5.124024,-5.124023 5.124024,-12.693603 0,-7.220215 -4.716431,-11.878418 -4.71643,-4.716431 -11.994873,-4.716431 -2.969604,0 -7.394897,1.164551 l 1.164551,-9.199951 q 1.048095,0.116455 1.688598,0.116455 6.696167,0 12.053101,-3.493653 5.356933,-3.493652 5.356933,-10.772094 0,-5.764527 -3.901245,-9.549317 -3.901245,-3.78479 -10.073364,-3.78479 -6.113892,0 -10.189819,3.843018 -4.075928,3.843017 -5.240479,11.529053 L 6.0556641,-63.584473 q 1.9215088,-10.539184 8.7341309,-16.303711 6.812622,-5.822753 16.944214,-5.822753 6.987304,0 12.868286,3.027832 5.880981,2.969604 8.967041,8.151855 3.144287,5.182251 3.144287,11.005005 0,5.531616 -2.969604,10.073364 -2.969605,4.541748 -8.792359,7.220215 7.56958,1.746826 11.761963,7.278442 4.192383,5.473389 4.192383,13.7417 0,11.179687 -8.151856,18.9821773 -8.151855,7.7442627 -20.612548,7.7442627 -11.237915,0 -18.69104,-6.696167 -7.3948979,-6.696167 -8.4429936,-17.351807 z"
       style="font-style:normal;font-variant:normal;font-weight:normal;font-stretch:normal;font-size:119.25px;line-height:normal;font-family:Arial;fill:#000000"
       id="path1098"
       inkscape:connector-curvature="0" />
    <path
       d="M 76.976807,0 V -11.936646 H 88.913452 V 0 q 0,6.5797119 -2.329101,10.597412 -2.329102,4.075928 -7.394898,6.288574 l -2.911377,-4.48352 Q 79.597046,10.946777 81.169189,8.0936279 82.741333,5.2987061 82.916016,0 Z"
       style="font-style:normal;font-variant:normal;font-weight:normal;font-stretch:normal;font-size:119.25px;line-height:normal;font-family:Arial;fill:#000000"
       id="path1100"
       inkscape:connector-curvature="0" />
  </g>
  <g
     aria-label="H"
     transform="matrix(0.0666667,0,0,0.0666667,55.985,42.3121)"
     style="font-style:normal;font-variant:normal;font-weight:normal;font-stretch:normal;font-size:159px;line-height:normal;font-family:Arial;fill:#000000"
     id="text34">
    <path
       d="m 12.732422,0 v -113.81543 h 15.061523 v 46.737305 h 59.15918 V -113.81543 H 102.01465 V 0 H 86.953125 V -53.646973 H 27.793945 V 0 Z"
       style="font-style:normal;font-variant:normal;font-weight:normal;font-stretch:normal;font-size:159px;line-height:normal;font-family:Arial;fill:#000000"
       id="path1095"
       inkscape:connector-curvature="0" />
  </g>
  <g
     aria-label="N"
     transform="matrix(0.0666667,0,0,0.0666667,55.985,51.101)"
     style="font-style:normal;font-variant:normal;font-weight:normal;font-stretch:normal;font-size:159px;line-height:normal;font-family:Arial;fill:#000000"
     id="text36">
    <path
       d="m 12.111328,0 v -113.81543 h 15.449707 l 59.780274,89.359864 V -113.81543 H 101.78174 V 0 H 86.332031 L 26.551758,-89.4375 V 0 Z"
       style="font-style:normal;font-variant:normal;font-weight:normal;font-stretch:normal;font-size:159px;line-height:normal;font-family:Arial;fill:#000000"
       id="path1092"
       inkscape:connector-curvature="0" />
  </g>
  <path
     stroke="transparent"
     fill="#000000"
     transform="matrix(0.0666667 0 0 0.0666667 -5.62226 -41.3333)"
     d="M 981.609,1778.47 L 981.609,1784.36 L 976.169,1787.11 L 782.614,1675.36 L 782.273,1669.27 L 787.375,1666.33 L 981.609,1778.47 Z "
     id="path38" />
  <path
     stroke="transparent"
     fill="#000000"
     transform="matrix(0.0666667 0 0 0.0666667 -5.62226 -41.3333)"
     d="M 1175.84,1666.33 L 1186.05,1672.22 L 987.049,1787.11 L 981.609,1784.36 L 981.609,1778.47 L 1175.84,1666.33 Z "
     id="path40" />
  <path
     stroke="transparent"
     fill="#000000"
     transform="matrix(0.0666667 0 0 0.0666667 -5.62226 -41.3333)"
     d="M 1175.84,1442.05 L 1186.05,1436.16 L 1186.05,1672.22 L 1175.84,1666.33 L 1175.84,1442.05 Z "
     id="path42" />
  <path
     stroke="transparent"
     fill="#000000"
     transform="matrix(0.0666667 0 0 0.0666667 -5.62226 -41.3333)"
     d="M 1060.54,1375.48 L 1065.64,1366.64 L 1186.05,1436.16 L 1175.84,1442.05 L 1060.54,1375.48 Z "
     id="path44" />
  <path
     stroke="transparent"
     fill="#000000"
     transform="matrix(0.0666667 0 0 0.0666667 -5.62226 -41.3333)"
     d="M 787.375,1442.05 L 782.273,1439.1 L 782.502,1433.08 L 896.824,1367.07 L 901.927,1375.91 L 787.375,1442.05 Z "
     id="path46" />
  <path
     stroke="transparent"
     fill="#000000"
     transform="matrix(0.0666667 0 0 0.0666667 -5.62226 -41.3333)"
     d="M 787.375,1666.33 L 782.273,1669.27 L 777.171,1665.94 L 777.171,1442.31 L 782.273,1439.1 L 787.375,1442.05 L 787.375,1666.33 Z "
     id="path48" />
  <path
     stroke="transparent"
     fill="#000000"
     transform="matrix(0.0666667 0 0 0.0666667 -5.62226 -41.3333)"
     d="M 563.65,1341.15 L 601.128,1307.73 L 782.502,1433.08 L 782.273,1439.1 L 777.171,1442.31 L 563.65,1341.15 Z "
     id="path50" />
  <g
     aria-label="BnO"
     transform="matrix(0.0666667,0,0,0.0666667,2.86481,58.7735)"
     style="font-style:normal;font-variant:normal;font-weight:normal;font-stretch:normal;font-size:159px;line-height:normal;font-family:Arial;fill:#000000"
     id="text52">
    <path
       d="m 11.645508,0 v -113.81543 h 42.700195 q 13.042969,0 20.884277,3.49365 7.918946,3.41602 12.344239,10.636233 4.502929,7.142578 4.502929,14.983887 0,7.297851 -3.959472,13.741699 -3.959473,6.443848 -11.956055,10.40332 10.325684,3.027832 15.837891,10.325684 5.589843,7.297852 5.589843,17.235352 0,7.996582 -3.416015,14.90625 -3.338379,6.832031 -8.307129,10.5585933 -4.96875,3.7265625 -12.499512,5.6674805 Q 65.913574,0 55.044434,0 Z m 15.061523,-65.991211 h 24.61084 q 10.015137,0 14.362793,-1.319824 5.745117,-1.708008 8.617676,-5.667481 2.950195,-3.959472 2.950195,-9.9375 0,-5.66748 -2.717285,-9.9375 -2.717285,-4.347656 -7.763672,-5.90039 -5.046387,-1.630374 -17.312988,-1.630374 H 26.707031 Z m 0,52.560059 h 28.337403 q 7.297851,0 10.248046,-0.543457 5.201661,-0.931641 8.695313,-3.105469 3.493652,-2.173828 5.745117,-6.288574 2.251465,-4.192383 2.251465,-9.626953 0,-6.366211 -3.260742,-11.024415 -3.260742,-4.735839 -9.083496,-6.599121 -5.745117,-1.940918 -16.614258,-1.940918 H 26.707031 Z"
       style="font-style:normal;font-variant:normal;font-weight:normal;font-stretch:normal;font-size:159px;line-height:normal;font-family:Arial;fill:#000000"
       id="path1085"
       inkscape:connector-curvature="0" />
    <path
       d="m 116.68799,0 v -82.450195 h 12.57715 v 11.723144 q 9.08349,-13.586426 26.24121,-13.586426 7.45312,0 13.66406,2.717286 6.28857,2.639648 9.39404,6.987304 3.10547,4.347657 4.34766,10.325684 0.77637,3.881836 0.77637,13.586426 V 0 h -13.97461 v -50.15332 q 0,-8.540039 -1.63037,-12.732422 -1.63038,-4.27002 -5.82276,-6.754395 -4.11474,-2.562011 -9.70459,-2.562011 -8.92822,0 -15.4497,5.66748 -6.44385,5.667481 -6.44385,21.505371 V 0 Z"
       style="font-style:normal;font-variant:normal;font-weight:normal;font-stretch:normal;font-size:159px;line-height:normal;font-family:Arial;fill:#000000"
       id="path1087"
       inkscape:connector-curvature="0" />
    <path
       d="m 202.39893,-55.432617 q 0,-28.337403 15.21679,-44.330567 15.2168,-16.070796 39.28418,-16.070796 15.76026,0 28.41504,7.53076 12.65479,7.53076 19.25391,21.039548 6.67676,13.431152 6.67676,30.511231 0,17.312988 -6.98731,30.97705 -6.9873,13.664063 -19.79736,20.7290043 -12.81006,6.9873047 -27.63867,6.9873047 -16.07081,0 -28.72559,-7.7636719 -12.65479,-7.7636721 -19.17627,-21.1948241 -6.52148,-13.431152 -6.52148,-28.415039 z m 15.52734,0.23291 q 0,20.57373 11.02441,32.452148 11.10205,11.800782 27.79395,11.800782 17.00244,0 27.94922,-11.956055 11.02441,-11.956055 11.02441,-33.927246 0,-13.896973 -4.73584,-24.222656 -4.6582,-10.403321 -13.7417,-16.070801 -9.00586,-5.745115 -20.26318,-5.745115 -15.99317,0 -27.56104,11.024412 -11.49023,10.946777 -11.49023,36.644531 z"
       style="font-style:normal;font-variant:normal;font-weight:normal;font-stretch:normal;font-size:159px;line-height:normal;font-family:Arial;fill:#000000"
       id="path1089"
       inkscape:connector-curvature="0" />
  </g>
  <path
     stroke="transparent"
     fill="#000000"
     transform="matrix(0.0666667 0 0 0.0666667 -5.62226 -41.3333)"
     d="M 454.974,1403.89 L 449.871,1395.06 L 601.128,1307.73 L 563.65,1341.15 L 454.974,1403.89 Z "
     id="path54" />
  <g
     aria-label="BnO"
     transform="matrix(0.0666667,0,0,0.0666667,16.1477,81.7872)"
     style="font-style:normal;font-variant:normal;font-weight:normal;font-stretch:normal;font-size:159px;line-height:normal;font-family:Arial;fill:#000000"
     id="text56">
    <path
       d="m 11.645508,0 v -113.81543 h 42.700195 q 13.042969,0 20.884277,3.49365 7.918946,3.41602 12.344239,10.636233 4.502929,7.142578 4.502929,14.983887 0,7.297851 -3.959472,13.741699 -3.959473,6.443848 -11.956055,10.40332 10.325684,3.027832 15.837891,10.325684 5.589843,7.297852 5.589843,17.235352 0,7.996582 -3.416015,14.90625 -3.338379,6.832031 -8.307129,10.5585933 -4.96875,3.7265625 -12.499512,5.6674805 Q 65.913574,0 55.044434,0 Z m 15.061523,-65.991211 h 24.61084 q 10.015137,0 14.362793,-1.319824 5.745117,-1.708008 8.617676,-5.667481 2.950195,-3.959472 2.950195,-9.9375 0,-5.66748 -2.717285,-9.9375 -2.717285,-4.347656 -7.763672,-5.90039 -5.046387,-1.630374 -17.312988,-1.630374 H 26.707031 Z m 0,52.560059 h 28.337403 q 7.297851,0 10.248046,-0.543457 5.201661,-0.931641 8.695313,-3.105469 3.493652,-2.173828 5.745117,-6.288574 2.251465,-4.192383 2.251465,-9.626953 0,-6.366211 -3.260742,-11.024415 -3.260742,-4.735839 -9.083496,-6.599121 -5.745117,-1.940918 -16.614258,-1.940918 H 26.707031 Z"
       style="font-style:normal;font-variant:normal;font-weight:normal;font-stretch:normal;font-size:159px;line-height:normal;font-family:Arial;fill:#000000"
       id="path1078"
       inkscape:connector-curvature="0" />
    <path
       d="m 116.68799,0 v -82.450195 h 12.57715 v 11.723144 q 9.08349,-13.586426 26.24121,-13.586426 7.45312,0 13.66406,2.717286 6.28857,2.639648 9.39404,6.987304 3.10547,4.347657 4.34766,10.325684 0.77637,3.881836 0.77637,13.586426 V 0 h -13.97461 v -50.15332 q 0,-8.540039 -1.63037,-12.732422 -1.63038,-4.27002 -5.82276,-6.754395 -4.11474,-2.562011 -9.70459,-2.562011 -8.92822,0 -15.4497,5.66748 -6.44385,5.667481 -6.44385,21.505371 V 0 Z"
       style="font-style:normal;font-variant:normal;font-weight:normal;font-stretch:normal;font-size:159px;line-height:normal;font-family:Arial;fill:#000000"
       id="path1080"
       inkscape:connector-curvature="0" />
    <path
       d="m 202.39893,-55.432617 q 0,-28.337403 15.21679,-44.330567 15.2168,-16.070796 39.28418,-16.070796 15.76026,0 28.41504,7.53076 12.65479,7.53076 19.25391,21.039548 6.67676,13.431152 6.67676,30.511231 0,17.312988 -6.98731,30.97705 -6.9873,13.664063 -19.79736,20.7290043 -12.81006,6.9873047 -27.63867,6.9873047 -16.07081,0 -28.72559,-7.7636719 -12.65479,-7.7636721 -19.17627,-21.1948241 -6.52148,-13.431152 -6.52148,-28.415039 z m 15.52734,0.23291 q 0,20.57373 11.02441,32.452148 11.10205,11.800782 27.79395,11.800782 17.00244,0 27.94922,-11.956055 11.02441,-11.956055 11.02441,-33.927246 0,-13.896973 -4.73584,-24.222656 -4.6582,-10.403321 -13.7417,-16.070801 -9.00586,-5.745115 -20.26318,-5.745115 -15.99317,0 -27.56104,11.024412 -11.49023,10.946777 -11.49023,36.644531 z"
       style="font-style:normal;font-variant:normal;font-weight:normal;font-stretch:normal;font-size:159px;line-height:normal;font-family:Arial;fill:#000000"
       id="path1082"
       inkscape:connector-curvature="0" />
  </g>
  <path
     stroke="transparent"
     fill="#000000"
     transform="matrix(0.0666667 0 0 0.0666667 -5.62226 -41.3333)"
     d="M 663.571,1765.3 L 639.76,1724.06 L 777.171,1665.94 L 782.273,1669.27 L 782.614,1675.36 L 663.571,1765.3 Z "
     id="path58" />
  <g
     aria-label="OBn"
     transform="matrix(0.0666667,0,0,0.0666667,82.2569,81.7872)"
     style="font-style:normal;font-variant:normal;font-weight:normal;font-stretch:normal;font-size:159px;line-height:normal;font-family:Arial;fill:#000000"
     id="text60">
    <path
       d="m 7.6860352,-55.432617 q 0,-28.337403 15.2167968,-44.330567 15.216797,-16.070796 39.28418,-16.070796 15.760254,0 28.415039,7.53076 12.654789,7.53076 19.253909,21.039548 6.67675,13.431152 6.67675,30.511231 0,17.312988 -6.9873,30.97705 -6.9873,13.664063 -19.797363,20.7290043 -12.810059,6.9873047 -27.638672,6.9873047 -16.070801,0 -28.725586,-7.7636719 Q 20.729004,-13.586426 14.20752,-27.017578 7.6860352,-40.44873 7.6860352,-55.432617 Z m 15.5273438,0.23291 q 0,20.57373 11.024414,32.452148 11.102051,11.800782 27.793945,11.800782 17.002442,0 27.949219,-11.956055 11.024413,-11.956055 11.024413,-33.927246 0,-13.896973 -4.735839,-24.222656 -4.658203,-10.403321 -13.741699,-16.070801 -9.005859,-5.745115 -20.263184,-5.745115 -15.993164,0 -27.561035,11.024412 -11.490234,10.946777 -11.490234,36.644531 z"
       style="font-style:normal;font-variant:normal;font-weight:normal;font-stretch:normal;font-size:159px;line-height:normal;font-family:Arial;fill:#000000"
       id="path1071"
       inkscape:connector-curvature="0" />
    <path
       d="m 135.24316,0 v -113.81543 h 42.7002 q 13.04297,0 20.88428,3.49365 7.91894,3.41602 12.34423,10.636233 4.50293,7.142578 4.50293,14.983887 0,7.297851 -3.95947,13.741699 -3.95947,6.443848 -11.95605,10.40332 10.32568,3.027832 15.83789,10.325684 5.58984,7.297852 5.58984,17.235352 0,7.996582 -3.41601,14.90625 -3.33838,6.832031 -8.30713,10.5585933 -4.96875,3.7265625 -12.49951,5.6674805 Q 189.51123,0 178.64209,0 Z m 15.06153,-65.991211 h 24.61084 q 10.01513,0 14.36279,-1.319824 5.74512,-1.708008 8.61768,-5.667481 2.95019,-3.959472 2.95019,-9.9375 0,-5.66748 -2.71728,-9.9375 -2.71729,-4.347656 -7.76368,-5.90039 -5.04638,-1.630374 -17.31298,-1.630374 h -22.74756 z m 0,52.560059 h 28.3374 q 7.29785,0 10.24805,-0.543457 5.20166,-0.931641 8.69531,-3.105469 3.49365,-2.173828 5.74512,-6.288574 2.25146,-4.192383 2.25146,-9.626953 0,-6.366211 -3.26074,-11.024415 -3.26074,-4.735839 -9.0835,-6.599121 -5.74511,-1.940918 -16.61425,-1.940918 h -26.31885 z"
       style="font-style:normal;font-variant:normal;font-weight:normal;font-stretch:normal;font-size:159px;line-height:normal;font-family:Arial;fill:#000000"
       id="path1073"
       inkscape:connector-curvature="0" />
    <path
       d="m 240.28564,0 v -82.450195 h 12.57715 v 11.723144 q 9.0835,-13.586426 26.24121,-13.586426 7.45313,0 13.66407,2.717286 6.28857,2.639648 9.39404,6.987304 3.10547,4.347657 4.34766,10.325684 0.77636,3.881836 0.77636,13.586426 V 0 h -13.97461 v -50.15332 q 0,-8.540039 -1.63037,-12.732422 -1.63037,-4.27002 -5.82275,-6.754395 -4.11475,-2.562011 -9.70459,-2.562011 -8.92822,0 -15.44971,5.66748 -6.44385,5.667481 -6.44385,21.505371 V 0 Z"
       style="font-style:normal;font-variant:normal;font-weight:normal;font-stretch:normal;font-size:159px;line-height:normal;font-family:Arial;fill:#000000"
       id="path1075"
       inkscape:connector-curvature="0" />
  </g>
  <path
     stroke="transparent"
     fill="#000000"
     transform="matrix(0.0666667 0 0 0.0666667 -5.62226 -41.3333)"
     d="M 1323.53,1724.1 L 1299.72,1765.34 L 1291.75,1758.74 L 1313.83,1720.5 L 1323.53,1724.1 Z "
     id="path62" />
  <path
     stroke="transparent"
     fill="#000000"
     transform="matrix(0.0666667 0 0 0.0666667 -5.62226 -41.3333)"
     d="M 1275.9,1706.4 L 1260.58,1732.94 L 1252.6,1726.34 L 1266.2,1702.8 L 1275.9,1706.4 Z "
     id="path64" />
  <path
     stroke="transparent"
     fill="#000000"
     transform="matrix(0.0666667 0 0 0.0666667 -5.62226 -41.3333)"
     d="M 1228.26,1688.71 L 1221.43,1700.54 L 1213.46,1693.94 L 1218.56,1685.1 L 1228.26,1688.71 Z "
     id="path66" />
  <g
     aria-label="OBn"
     transform="matrix(0.0666667,0,0,0.0666667,55.685,97.1285)"
     style="font-style:normal;font-variant:normal;font-weight:normal;font-stretch:normal;font-size:159px;line-height:normal;font-family:Arial;fill:#000000"
     id="text68">
    <path
       d="m 7.6860352,-55.432617 q 0,-28.337403 15.2167968,-44.330567 15.216797,-16.070796 39.28418,-16.070796 15.760254,0 28.415039,7.53076 12.654789,7.53076 19.253909,21.039548 6.67675,13.431152 6.67675,30.511231 0,17.312988 -6.9873,30.97705 -6.9873,13.664063 -19.797363,20.7290043 -12.810059,6.9873047 -27.638672,6.9873047 -16.070801,0 -28.725586,-7.7636719 Q 20.729004,-13.586426 14.20752,-27.017578 7.6860352,-40.44873 7.6860352,-55.432617 Z m 15.5273438,0.23291 q 0,20.57373 11.024414,32.452148 11.102051,11.800782 27.793945,11.800782 17.002442,0 27.949219,-11.956055 11.024413,-11.956055 11.024413,-33.927246 0,-13.896973 -4.735839,-24.222656 -4.658203,-10.403321 -13.741699,-16.070801 -9.005859,-5.745115 -20.263184,-5.745115 -15.993164,0 -27.561035,11.024412 -11.490234,10.946777 -11.490234,36.644531 z"
       style="font-style:normal;font-variant:normal;font-weight:normal;font-stretch:normal;font-size:159px;line-height:normal;font-family:Arial;fill:#000000"
       id="path1064"
       inkscape:connector-curvature="0" />
    <path
       d="m 135.24316,0 v -113.81543 h 42.7002 q 13.04297,0 20.88428,3.49365 7.91894,3.41602 12.34423,10.636233 4.50293,7.142578 4.50293,14.983887 0,7.297851 -3.95947,13.741699 -3.95947,6.443848 -11.95605,10.40332 10.32568,3.027832 15.83789,10.325684 5.58984,7.297852 5.58984,17.235352 0,7.996582 -3.41601,14.90625 -3.33838,6.832031 -8.30713,10.5585933 -4.96875,3.7265625 -12.49951,5.6674805 Q 189.51123,0 178.64209,0 Z m 15.06153,-65.991211 h 24.61084 q 10.01513,0 14.36279,-1.319824 5.74512,-1.708008 8.61768,-5.667481 2.95019,-3.959472 2.95019,-9.9375 0,-5.66748 -2.71728,-9.9375 -2.71729,-4.347656 -7.76368,-5.90039 -5.04638,-1.630374 -17.31298,-1.630374 h -22.74756 z m 0,52.560059 h 28.3374 q 7.29785,0 10.24805,-0.543457 5.20166,-0.931641 8.69531,-3.105469 3.49365,-2.173828 5.74512,-6.288574 2.25146,-4.192383 2.25146,-9.626953 0,-6.366211 -3.26074,-11.024415 -3.26074,-4.735839 -9.0835,-6.599121 -5.74511,-1.940918 -16.61425,-1.940918 h -26.31885 z"
       style="font-style:normal;font-variant:normal;font-weight:normal;font-stretch:normal;font-size:159px;line-height:normal;font-family:Arial;fill:#000000"
       id="path1066"
       inkscape:connector-curvature="0" />
    <path
       d="m 240.28564,0 v -82.450195 h 12.57715 v 11.723144 q 9.0835,-13.586426 26.24121,-13.586426 7.45313,0 13.66407,2.717286 6.28857,2.639648 9.39404,6.987304 3.10547,4.347657 4.34766,10.325684 0.77636,3.881836 0.77636,13.586426 V 0 h -13.97461 v -50.15332 q 0,-8.540039 -1.63037,-12.732422 -1.63037,-4.27002 -5.82275,-6.754395 -4.11475,-2.562011 -9.70459,-2.562011 -8.92822,0 -15.44971,5.66748 -6.44385,5.667481 -6.44385,21.505371 V 0 Z"
       style="font-style:normal;font-variant:normal;font-weight:normal;font-stretch:normal;font-size:159px;line-height:normal;font-family:Arial;fill:#000000"
       id="path1068"
       inkscape:connector-curvature="0" />
  </g>
  <path
     stroke="transparent"
     fill="#000000"
     transform="matrix(0.0666667 0 0 0.0666667 -5.62226 -41.3333)"
     d="M 1005.42,1936.76 L 957.798,1936.76 L 976.169,1787.11 L 981.609,1784.36 L 987.049,1787.11 L 1005.42,1936.76 Z "
     id="path70" />
  <g
     aria-label="O"
     transform="matrix(0.0666667,0,0,0.0666667,82.2569,51.1046)"
     style="font-style:normal;font-variant:normal;font-weight:normal;font-stretch:normal;font-size:159px;line-height:normal;font-family:Arial;fill:#000000"
     id="text72">
    <path
       d="m 7.6860352,-55.432617 q 0,-28.337403 15.2167968,-44.330567 15.216797,-16.070796 39.28418,-16.070796 15.760254,0 28.415039,7.53076 12.654789,7.53076 19.253909,21.039548 6.67675,13.431152 6.67675,30.511231 0,17.312988 -6.9873,30.97705 -6.9873,13.664063 -19.797363,20.7290043 -12.810059,6.9873047 -27.638672,6.9873047 -16.070801,0 -28.725586,-7.7636719 Q 20.729004,-13.586426 14.20752,-27.017578 7.6860352,-40.44873 7.6860352,-55.432617 Z m 15.5273438,0.23291 q 0,20.57373 11.024414,32.452148 11.102051,11.800782 27.793945,11.800782 17.002442,0 27.949219,-11.956055 11.024413,-11.956055 11.024413,-33.927246 0,-13.896973 -4.735839,-24.222656 -4.658203,-10.403321 -13.741699,-16.070801 -9.005859,-5.745115 -20.263184,-5.745115 -15.993164,0 -27.561035,11.024412 -11.490234,10.946777 -11.490234,36.644531 z"
       style="font-style:normal;font-variant:normal;font-weight:normal;font-stretch:normal;font-size:159px;line-height:normal;font-family:Arial;fill:#000000"
       id="path1061"
       inkscape:connector-curvature="0" />
  </g>
  <path
     stroke="transparent"
     fill="#000000"
     transform="matrix(0.0666667 0 0 0.0666667 -5.62226 -41.3333)"
     d="M 1293.24,1344.47 L 1298.34,1353.31 L 1162.79,1431.57 L 1157.69,1422.73 L 1293.24,1344.47 Z "
     id="path74" />
  <path
     stroke="transparent"
     fill="#000000"
     transform="matrix(0.0666667 0 0 0.0666667 -5.62226 -41.3333)"
     d="M 1313.94,1380.33 L 1319.04,1389.17 L 1183.5,1467.43 L 1178.39,1458.59 L 1313.94,1380.33 Z "
     id="path76" />
  <g
     aria-label="H"
     transform="matrix(0.0666667,0,0,0.0666667,334.513,42.3121)"
     style="font-style:normal;font-variant:normal;font-weight:normal;font-stretch:normal;font-size:159px;line-height:normal;font-family:Arial;fill:#000000"
     id="text78">
    <path
       d="m 12.732422,0 v -113.81543 h 15.061523 v 46.737305 h 59.15918 V -113.81543 H 102.01465 V 0 H 86.953125 V -53.646973 H 27.793945 V 0 Z"
       style="font-style:normal;font-variant:normal;font-weight:normal;font-stretch:normal;font-size:159px;line-height:normal;font-family:Arial;fill:#000000"
       id="path1058"
       inkscape:connector-curvature="0" />
  </g>
  <g
     aria-label="N"
     transform="matrix(0.0666667,0,0,0.0666667,334.513,51.101)"
     style="font-style:normal;font-variant:normal;font-weight:normal;font-stretch:normal;font-size:159px;line-height:normal;font-family:Arial;fill:#000000"
     id="text80">
    <path
       d="m 12.111328,0 v -113.81543 h 15.449707 l 59.780274,89.359864 V -113.81543 H 101.78174 V 0 H 86.332031 L 26.551758,-89.4375 V 0 Z"
       style="font-style:normal;font-variant:normal;font-weight:normal;font-stretch:normal;font-size:159px;line-height:normal;font-family:Arial;fill:#000000"
       id="path1055"
       inkscape:connector-curvature="0" />
  </g>
  <path
     stroke="transparent"
     fill="#000000"
     transform="matrix(0.0666667 0 0 0.0666667 -5.62226 -41.3333)"
     d="M 5159.52,1778.47 L 5159.52,1784.36 L 5154.08,1787.11 L 4960.53,1675.36 L 4960.19,1669.27 L 4965.29,1666.33 L 5159.52,1778.47 Z "
     id="path82" />
  <path
     stroke="transparent"
     fill="#000000"
     transform="matrix(0.0666667 0 0 0.0666667 -5.62226 -41.3333)"
     d="M 5353.76,1666.33 L 5363.96,1672.22 L 5164.96,1787.11 L 5159.52,1784.36 L 5159.52,1778.47 L 5353.76,1666.33 Z "
     id="path84" />
  <path
     stroke="transparent"
     fill="#000000"
     transform="matrix(0.0666667 0 0 0.0666667 -5.62226 -41.3333)"
     d="M 5353.76,1442.05 L 5358.86,1439.1 L 5363.96,1439.1 L 5363.96,1672.22 L 5353.76,1666.33 L 5353.76,1442.05 Z "
     id="path86" />
  <path
     stroke="transparent"
     fill="#000000"
     transform="matrix(0.0666667 0 0 0.0666667 -5.62226 -41.3333)"
     d="M 5238.45,1375.48 L 5243.56,1366.64 L 5353.76,1430.26 L 5358.86,1439.1 L 5353.76,1442.05 L 5238.45,1375.48 Z "
     id="path88" />
  <path
     stroke="transparent"
     fill="#000000"
     transform="matrix(0.0666667 0 0 0.0666667 -5.62226 -41.3333)"
     d="M 4965.29,1442.05 L 4960.19,1439.1 L 4960.41,1433.08 L 5074.74,1367.07 L 5079.84,1375.91 L 4965.29,1442.05 Z "
     id="path90" />
  <path
     stroke="transparent"
     fill="#000000"
     transform="matrix(0.0666667 0 0 0.0666667 -5.62226 -41.3333)"
     d="M 4965.29,1666.33 L 4960.19,1669.27 L 4955.08,1665.94 L 4955.08,1442.31 L 4960.19,1439.1 L 4965.29,1442.05 L 4965.29,1666.33 Z "
     id="path92" />
  <path
     stroke="transparent"
     fill="#000000"
     transform="matrix(0.0666667 0 0 0.0666667 -5.62226 -41.3333)"
     d="M 4741.56,1341.15 L 4779.04,1307.73 L 4960.41,1433.08 L 4960.19,1439.1 L 4955.08,1442.31 L 4741.56,1341.15 Z "
     id="path94" />
  <g
     aria-label="BnO"
     transform="matrix(0.0666667,0,0,0.0666667,281.392,58.7735)"
     style="font-style:normal;font-variant:normal;font-weight:normal;font-stretch:normal;font-size:159px;line-height:normal;font-family:Arial;fill:#000000"
     id="text96">
    <path
       d="m 11.645508,0 v -113.81543 h 42.700195 q 13.042969,0 20.884277,3.49365 7.918946,3.41602 12.344239,10.636233 4.502929,7.142578 4.502929,14.983887 0,7.297851 -3.959472,13.741699 -3.959473,6.443848 -11.956055,10.40332 10.325684,3.027832 15.837891,10.325684 5.589843,7.297852 5.589843,17.235352 0,7.996582 -3.416015,14.90625 -3.338379,6.832031 -8.307129,10.5585933 -4.96875,3.7265625 -12.499512,5.6674805 Q 65.913574,0 55.044434,0 Z m 15.061523,-65.991211 h 24.61084 q 10.015137,0 14.362793,-1.319824 5.745117,-1.708008 8.617676,-5.667481 2.950195,-3.959472 2.950195,-9.9375 0,-5.66748 -2.717285,-9.9375 -2.717285,-4.347656 -7.763672,-5.90039 -5.046387,-1.630374 -17.312988,-1.630374 H 26.707031 Z m 0,52.560059 h 28.337403 q 7.297851,0 10.248046,-0.543457 5.201661,-0.931641 8.695313,-3.105469 3.493652,-2.173828 5.745117,-6.288574 2.251465,-4.192383 2.251465,-9.626953 0,-6.366211 -3.260742,-11.024415 -3.260742,-4.735839 -9.083496,-6.599121 -5.745117,-1.940918 -16.614258,-1.940918 H 26.707031 Z"
       style="font-style:normal;font-variant:normal;font-weight:normal;font-stretch:normal;font-size:159px;line-height:normal;font-family:Arial;fill:#000000"
       id="path1048"
       inkscape:connector-curvature="0" />
    <path
       d="m 116.68799,0 v -82.450195 h 12.57715 v 11.723144 q 9.08349,-13.586426 26.24121,-13.586426 7.45312,0 13.66406,2.717286 6.28857,2.639648 9.39404,6.987304 3.10547,4.347657 4.34766,10.325684 0.77637,3.881836 0.77637,13.586426 V 0 h -13.97461 v -50.15332 q 0,-8.540039 -1.63037,-12.732422 -1.63038,-4.27002 -5.82276,-6.754395 -4.11474,-2.562011 -9.70459,-2.562011 -8.92822,0 -15.4497,5.66748 -6.44385,5.667481 -6.44385,21.505371 V 0 Z"
       style="font-style:normal;font-variant:normal;font-weight:normal;font-stretch:normal;font-size:159px;line-height:normal;font-family:Arial;fill:#000000"
       id="path1050"
       inkscape:connector-curvature="0" />
    <path
       d="m 202.39893,-55.432617 q 0,-28.337403 15.21679,-44.330567 15.2168,-16.070796 39.28418,-16.070796 15.76026,0 28.41504,7.53076 12.65479,7.53076 19.25391,21.039548 6.67676,13.431152 6.67676,30.511231 0,17.312988 -6.98731,30.97705 -6.9873,13.664063 -19.79736,20.7290043 -12.81006,6.9873047 -27.63867,6.9873047 -16.07081,0 -28.72559,-7.7636719 -12.65479,-7.7636721 -19.17627,-21.1948241 -6.52148,-13.431152 -6.52148,-28.415039 z m 15.52734,0.23291 q 0,20.57373 11.02441,32.452148 11.10205,11.800782 27.79395,11.800782 17.00244,0 27.94922,-11.956055 11.02441,-11.956055 11.02441,-33.927246 0,-13.896973 -4.73584,-24.222656 -4.6582,-10.403321 -13.7417,-16.070801 -9.00586,-5.745115 -20.26318,-5.745115 -15.99317,0 -27.56104,11.024412 -11.49023,10.946777 -11.49023,36.644531 z"
       style="font-style:normal;font-variant:normal;font-weight:normal;font-stretch:normal;font-size:159px;line-height:normal;font-family:Arial;fill:#000000"
       id="path1052"
       inkscape:connector-curvature="0" />
  </g>
  <path
     stroke="transparent"
     fill="#000000"
     transform="matrix(0.0666667 0 0 0.0666667 -5.62226 -41.3333)"
     d="M 4632.89,1403.89 L 4627.78,1395.06 L 4779.04,1307.73 L 4741.56,1341.15 L 4632.89,1403.89 Z "
     id="path98" />
  <g
     aria-label="BnO"
     transform="matrix(0.0666667,0,0,0.0666667,294.675,81.7872)"
     style="font-style:normal;font-variant:normal;font-weight:normal;font-stretch:normal;font-size:159px;line-height:normal;font-family:Arial;fill:#000000"
     id="text100">
    <path
       d="m 11.645508,0 v -113.81543 h 42.700195 q 13.042969,0 20.884277,3.49365 7.918946,3.41602 12.344239,10.636233 4.502929,7.142578 4.502929,14.983887 0,7.297851 -3.959472,13.741699 -3.959473,6.443848 -11.956055,10.40332 10.325684,3.027832 15.837891,10.325684 5.589843,7.297852 5.589843,17.235352 0,7.996582 -3.416015,14.90625 -3.338379,6.832031 -8.307129,10.5585933 -4.96875,3.7265625 -12.499512,5.6674805 Q 65.913574,0 55.044434,0 Z m 15.061523,-65.991211 h 24.61084 q 10.015137,0 14.362793,-1.319824 5.745117,-1.708008 8.617676,-5.667481 2.950195,-3.959472 2.950195,-9.9375 0,-5.66748 -2.717285,-9.9375 -2.717285,-4.347656 -7.763672,-5.90039 -5.046387,-1.630374 -17.312988,-1.630374 H 26.707031 Z m 0,52.560059 h 28.337403 q 7.297851,0 10.248046,-0.543457 5.201661,-0.931641 8.695313,-3.105469 3.493652,-2.173828 5.745117,-6.288574 2.251465,-4.192383 2.251465,-9.626953 0,-6.366211 -3.260742,-11.024415 -3.260742,-4.735839 -9.083496,-6.599121 -5.745117,-1.940918 -16.614258,-1.940918 H 26.707031 Z"
       style="font-style:normal;font-variant:normal;font-weight:normal;font-stretch:normal;font-size:159px;line-height:normal;font-family:Arial;fill:#000000"
       id="path1041"
       inkscape:connector-curvature="0" />
    <path
       d="m 116.68799,0 v -82.450195 h 12.57715 v 11.723144 q 9.08349,-13.586426 26.24121,-13.586426 7.45312,0 13.66406,2.717286 6.28857,2.639648 9.39404,6.987304 3.10547,4.347657 4.34766,10.325684 0.77637,3.881836 0.77637,13.586426 V 0 h -13.97461 v -50.15332 q 0,-8.540039 -1.63037,-12.732422 -1.63038,-4.27002 -5.82276,-6.754395 -4.11474,-2.562011 -9.70459,-2.562011 -8.92822,0 -15.4497,5.66748 -6.44385,5.667481 -6.44385,21.505371 V 0 Z"
       style="font-style:normal;font-variant:normal;font-weight:normal;font-stretch:normal;font-size:159px;line-height:normal;font-family:Arial;fill:#000000"
       id="path1043"
       inkscape:connector-curvature="0" />
    <path
       d="m 202.39893,-55.432617 q 0,-28.337403 15.21679,-44.330567 15.2168,-16.070796 39.28418,-16.070796 15.76026,0 28.41504,7.53076 12.65479,7.53076 19.25391,21.039548 6.67676,13.431152 6.67676,30.511231 0,17.312988 -6.98731,30.97705 -6.9873,13.664063 -19.79736,20.7290043 -12.81006,6.9873047 -27.63867,6.9873047 -16.07081,0 -28.72559,-7.7636719 -12.65479,-7.7636721 -19.17627,-21.1948241 -6.52148,-13.431152 -6.52148,-28.415039 z m 15.52734,0.23291 q 0,20.57373 11.02441,32.452148 11.10205,11.800782 27.79395,11.800782 17.00244,0 27.94922,-11.956055 11.02441,-11.956055 11.02441,-33.927246 0,-13.896973 -4.73584,-24.222656 -4.6582,-10.403321 -13.7417,-16.070801 -9.00586,-5.745115 -20.26318,-5.745115 -15.99317,0 -27.56104,11.024412 -11.49023,10.946777 -11.49023,36.644531 z"
       style="font-style:normal;font-variant:normal;font-weight:normal;font-stretch:normal;font-size:159px;line-height:normal;font-family:Arial;fill:#000000"
       id="path1045"
       inkscape:connector-curvature="0" />
  </g>
  <path
     stroke="transparent"
     fill="#000000"
     transform="matrix(0.0666667 0 0 0.0666667 -5.62226 -41.3333)"
     d="M 4841.48,1765.3 L 4817.67,1724.06 L 4955.08,1665.94 L 4960.19,1669.27 L 4960.53,1675.36 L 4841.48,1765.3 Z "
     id="path102" />
  <g
     aria-label="OBn"
     transform="matrix(0.0666667,0,0,0.0666667,360.784,81.7872)"
     style="font-style:normal;font-variant:normal;font-weight:normal;font-stretch:normal;font-size:159px;line-height:normal;font-family:Arial;fill:#000000"
     id="text104">
    <path
       d="m 7.6860352,-55.432617 q 0,-28.337403 15.2167968,-44.330567 15.216797,-16.070796 39.28418,-16.070796 15.760254,0 28.415039,7.53076 12.654789,7.53076 19.253909,21.039548 6.67675,13.431152 6.67675,30.511231 0,17.312988 -6.9873,30.97705 -6.9873,13.664063 -19.797363,20.7290043 -12.810059,6.9873047 -27.638672,6.9873047 -16.070801,0 -28.725586,-7.7636719 Q 20.729004,-13.586426 14.20752,-27.017578 7.6860352,-40.44873 7.6860352,-55.432617 Z m 15.5273438,0.23291 q 0,20.57373 11.024414,32.452148 11.102051,11.800782 27.793945,11.800782 17.002442,0 27.949219,-11.956055 11.024413,-11.956055 11.024413,-33.927246 0,-13.896973 -4.735839,-24.222656 -4.658203,-10.403321 -13.741699,-16.070801 -9.005859,-5.745115 -20.263184,-5.745115 -15.993164,0 -27.561035,11.024412 -11.490234,10.946777 -11.490234,36.644531 z"
       style="font-style:normal;font-variant:normal;font-weight:normal;font-stretch:normal;font-size:159px;line-height:normal;font-family:Arial;fill:#000000"
       id="path1034"
       inkscape:connector-curvature="0" />
    <path
       d="m 135.24316,0 v -113.81543 h 42.7002 q 13.04297,0 20.88428,3.49365 7.91894,3.41602 12.34423,10.636233 4.50293,7.142578 4.50293,14.983887 0,7.297851 -3.95947,13.741699 -3.95947,6.443848 -11.95605,10.40332 10.32568,3.027832 15.83789,10.325684 5.58984,7.297852 5.58984,17.235352 0,7.996582 -3.41601,14.90625 -3.33838,6.832031 -8.30713,10.5585933 -4.96875,3.7265625 -12.49951,5.6674805 Q 189.51123,0 178.64209,0 Z m 15.06153,-65.991211 h 24.61084 q 10.01513,0 14.36279,-1.319824 5.74512,-1.708008 8.61768,-5.667481 2.95019,-3.959472 2.95019,-9.9375 0,-5.66748 -2.71728,-9.9375 -2.71729,-4.347656 -7.76368,-5.90039 -5.04638,-1.630374 -17.31298,-1.630374 h -22.74756 z m 0,52.560059 h 28.3374 q 7.29785,0 10.24805,-0.543457 5.20166,-0.931641 8.69531,-3.105469 3.49365,-2.173828 5.74512,-6.288574 2.25146,-4.192383 2.25146,-9.626953 0,-6.366211 -3.26074,-11.024415 -3.26074,-4.735839 -9.0835,-6.599121 -5.74511,-1.940918 -16.61425,-1.940918 h -26.31885 z"
       style="font-style:normal;font-variant:normal;font-weight:normal;font-stretch:normal;font-size:159px;line-height:normal;font-family:Arial;fill:#000000"
       id="path1036"
       inkscape:connector-curvature="0" />
    <path
       d="m 240.28564,0 v -82.450195 h 12.57715 v 11.723144 q 9.0835,-13.586426 26.24121,-13.586426 7.45313,0 13.66407,2.717286 6.28857,2.639648 9.39404,6.987304 3.10547,4.347657 4.34766,10.325684 0.77636,3.881836 0.77636,13.586426 V 0 h -13.97461 v -50.15332 q 0,-8.540039 -1.63037,-12.732422 -1.63037,-4.27002 -5.82275,-6.754395 -4.11475,-2.562011 -9.70459,-2.562011 -8.92822,0 -15.44971,5.66748 -6.44385,5.667481 -6.44385,21.505371 V 0 Z"
       style="font-style:normal;font-variant:normal;font-weight:normal;font-stretch:normal;font-size:159px;line-height:normal;font-family:Arial;fill:#000000"
       id="path1038"
       inkscape:connector-curvature="0" />
  </g>
  <path
     stroke="transparent"
     fill="#000000"
     transform="matrix(0.0666667 0 0 0.0666667 -5.62226 -41.3333)"
     d="M 5501.44,1724.1 L 5477.63,1765.34 L 5469.66,1758.74 L 5491.74,1720.5 L 5501.44,1724.1 Z "
     id="path106" />
  <path
     stroke="transparent"
     fill="#000000"
     transform="matrix(0.0666667 0 0 0.0666667 -5.62226 -41.3333)"
     d="M 5453.81,1706.4 L 5438.49,1732.94 L 5430.52,1726.34 L 5444.11,1702.8 L 5453.81,1706.4 Z "
     id="path108" />
  <path
     stroke="transparent"
     fill="#000000"
     transform="matrix(0.0666667 0 0 0.0666667 -5.62226 -41.3333)"
     d="M 5406.18,1688.71 L 5399.35,1700.54 L 5391.37,1693.94 L 5396.48,1685.1 L 5406.18,1688.71 Z "
     id="path110" />
  <g
     aria-label="OBn"
     transform="matrix(0.0666667,0,0,0.0666667,334.213,97.1285)"
     style="font-style:normal;font-variant:normal;font-weight:normal;font-stretch:normal;font-size:159px;line-height:normal;font-family:Arial;fill:#000000"
     id="text112">
    <path
       d="m 7.6860352,-55.432617 q 0,-28.337403 15.2167968,-44.330567 15.216797,-16.070796 39.28418,-16.070796 15.760254,0 28.415039,7.53076 12.654789,7.53076 19.253909,21.039548 6.67675,13.431152 6.67675,30.511231 0,17.312988 -6.9873,30.97705 -6.9873,13.664063 -19.797363,20.7290043 -12.810059,6.9873047 -27.638672,6.9873047 -16.070801,0 -28.725586,-7.7636719 Q 20.729004,-13.586426 14.20752,-27.017578 7.6860352,-40.44873 7.6860352,-55.432617 Z m 15.5273438,0.23291 q 0,20.57373 11.024414,32.452148 11.102051,11.800782 27.793945,11.800782 17.002442,0 27.949219,-11.956055 11.024413,-11.956055 11.024413,-33.927246 0,-13.896973 -4.735839,-24.222656 -4.658203,-10.403321 -13.741699,-16.070801 -9.005859,-5.745115 -20.263184,-5.745115 -15.993164,0 -27.561035,11.024412 -11.490234,10.946777 -11.490234,36.644531 z"
       style="font-style:normal;font-variant:normal;font-weight:normal;font-stretch:normal;font-size:159px;line-height:normal;font-family:Arial;fill:#000000"
       id="path1027"
       inkscape:connector-curvature="0" />
    <path
       d="m 135.24316,0 v -113.81543 h 42.7002 q 13.04297,0 20.88428,3.49365 7.91894,3.41602 12.34423,10.636233 4.50293,7.142578 4.50293,14.983887 0,7.297851 -3.95947,13.741699 -3.95947,6.443848 -11.95605,10.40332 10.32568,3.027832 15.83789,10.325684 5.58984,7.297852 5.58984,17.235352 0,7.996582 -3.41601,14.90625 -3.33838,6.832031 -8.30713,10.5585933 -4.96875,3.7265625 -12.49951,5.6674805 Q 189.51123,0 178.64209,0 Z m 15.06153,-65.991211 h 24.61084 q 10.01513,0 14.36279,-1.319824 5.74512,-1.708008 8.61768,-5.667481 2.95019,-3.959472 2.95019,-9.9375 0,-5.66748 -2.71728,-9.9375 -2.71729,-4.347656 -7.76368,-5.90039 -5.04638,-1.630374 -17.31298,-1.630374 h -22.74756 z m 0,52.560059 h 28.3374 q 7.29785,0 10.24805,-0.543457 5.20166,-0.931641 8.69531,-3.105469 3.49365,-2.173828 5.74512,-6.288574 2.25146,-4.192383 2.25146,-9.626953 0,-6.366211 -3.26074,-11.024415 -3.26074,-4.735839 -9.0835,-6.599121 -5.74511,-1.940918 -16.61425,-1.940918 h -26.31885 z"
       style="font-style:normal;font-variant:normal;font-weight:normal;font-stretch:normal;font-size:159px;line-height:normal;font-family:Arial;fill:#000000"
       id="path1029"
       inkscape:connector-curvature="0" />
    <path
       d="m 240.28564,0 v -82.450195 h 12.57715 v 11.723144 q 9.0835,-13.586426 26.24121,-13.586426 7.45313,0 13.66407,2.717286 6.28857,2.639648 9.39404,6.987304 3.10547,4.347657 4.34766,10.325684 0.77636,3.881836 0.77636,13.586426 V 0 h -13.97461 v -50.15332 q 0,-8.540039 -1.63037,-12.732422 -1.63037,-4.27002 -5.82275,-6.754395 -4.11475,-2.562011 -9.70459,-2.562011 -8.92822,0 -15.44971,5.66748 -6.44385,5.667481 -6.44385,21.505371 V 0 Z"
       style="font-style:normal;font-variant:normal;font-weight:normal;font-stretch:normal;font-size:159px;line-height:normal;font-family:Arial;fill:#000000"
       id="path1031"
       inkscape:connector-curvature="0" />
  </g>
  <path
     stroke="transparent"
     fill="#000000"
     transform="matrix(0.0666667 0 0 0.0666667 -5.62226 -41.3333)"
     d="M 5183.33,1936.76 L 5135.71,1936.76 L 5154.08,1787.11 L 5159.52,1784.36 L 5164.96,1787.11 L 5183.33,1936.76 Z "
     id="path114" />
  <g
     aria-label="H"
     transform="matrix(0.0666667,0,0,0.0666667,347.768,43.4619)"
     style="font-style:normal;font-variant:normal;font-weight:normal;font-stretch:normal;font-size:160px;line-height:normal;font-family:Arial;fill:#009e73"
     id="text116">
    <path
       d="M 12.8125,0 V -114.53125 H 27.96875 V -67.5 H 87.5 v -47.03125 h 15.15625 V 0 H 87.5 V -53.984375 H 27.96875 V 0 Z"
       style="font-style:normal;font-variant:normal;font-weight:normal;font-stretch:normal;font-size:160px;line-height:normal;font-family:Arial;fill:#009e73"
       id="path1024"
       inkscape:connector-curvature="0" />
  </g>
  <path
     stroke="transparent"
     fill="#009e73"
     transform="matrix(0.0666667 0 0 0.0666667 -5.62226 -41.3333)"
     d="M 5353.76,1297.93 L 5363.96,1297.93 L 5363.96,1439.1 L 5358.86,1439.1 L 5353.76,1430.26 L 5353.76,1297.93 Z "
     id="path118" />
  <path
     stroke="transparent"
     fill="#e69f00"
     transform="matrix(0.0666667 0 0 0.0666667 -5.62226 -41.3333)"
     d="M 5511.4,1323.54 L 5535.21,1364.78 L 5525.74,1368.77 L 5503.2,1329.74 L 5511.4,1323.54 Z "
     id="path120" />
  <path
     stroke="transparent"
     fill="#e69f00"
     transform="matrix(0.0666667 0 0 0.0666667 -5.62226 -41.3333)"
     d="M 5474.07,1351.8 L 5492.07,1382.98 L 5482.59,1386.98 L 5465.87,1358.01 L 5474.07,1351.8 Z "
     id="path122" />
  <path
     stroke="transparent"
     fill="#e69f00"
     transform="matrix(0.0666667 0 0 0.0666667 -5.62226 -41.3333)"
     d="M 5436.73,1380.07 L 5448.92,1401.18 L 5439.44,1405.18 L 5428.53,1386.28 L 5436.73,1380.07 Z "
     id="path124" />
  <path
     stroke="transparent"
     fill="#e69f00"
     transform="matrix(0.0666667 0 0 0.0666667 -5.62226 -41.3333)"
     d="M 5399.39,1408.33 L 5405.77,1419.38 L 5396.29,1423.38 L 5391.19,1414.54 L 5399.39,1408.33 Z "
     id="path126" />
  <path
     stroke="transparent"
     fill="#cc79a7"
     transform="matrix(0.0666667 0 0 0.0666667 -5.62226 -41.3333)"
     d="M 5757.53,1433.21 L 5757.53,1444.99 L 5555.64,1328.43 L 5560.74,1319.6 L 5757.53,1433.21 Z "
     id="path128" />
  <path
     stroke="transparent"
     fill="#cc79a7"
     transform="matrix(0.0666667 0 0 0.0666667 -5.62226 -41.3333)"
     d="M 5954.31,1319.6 L 5959.42,1328.43 L 5757.53,1444.99 L 5757.53,1433.21 L 5954.31,1319.6 Z "
     id="path130" />
  <path
     stroke="transparent"
     fill="#cc79a7"
     transform="matrix(0.0666667 0 0 0.0666667 -5.62226 -41.3333)"
     d="M 5933.6,1283.72 L 5938.7,1292.55 L 5760.08,1395.68 L 5754.98,1386.84 L 5933.6,1283.72 Z "
     id="path132" />
  <path
     stroke="transparent"
     fill="#e69f00"
     transform="matrix(0.0666667 0 0 0.0666667 -5.62226 -41.3333)"
     d="M 5715.47,1235.36 L 5715.47,965.579 L 5725.47,965.579 L 5725.47,1235.36 Z "
     id="path134" />
  <path
     stroke="transparent"
     fill="#e69f00"
     transform="matrix(0.0666667 0 0 0.0666667 -5.62226 -41.3333)"
     d="M 5691.33,1231.61 A 29.14,29.14 0 1 0 5749.61,1231.61A 29.14,29.14 0 1 0 5691.33,1231.61Z "
     id="path136" />
  <path
     stroke="transparent"
     fill="#e69f00"
     transform="matrix(0.0666667 0 0 0.0666667 -5.62226 -41.3333)"
     d="M 3717.97,1173.08 L 2117.5,1173.08 L 2117.5,1163.08 L 3717.97,1163.08 Z "
     id="path138" />
  <path
     stroke="transparent"
     fill="#e69f00"
     transform="matrix(0.0666667 0 0 0.0666667 -5.62226 -41.3333)"
     d="M 5720.47,970.579 L 4510,970 L 4510,960 L 5720.47,960.579 Z "
     id="path150" />
  <path
     stroke="transparent"
     fill="#e69f00"
     transform="matrix(0.0666667 0 0 0.0666667 -5.62226 -41.3333)"
     d="M 3710.47,1437.86 L 3710.47,1168.08 L 3720.47,1168.08 L 3720.47,1437.86 Z "
     id="path152" />
  <path
     stroke="transparent"
     fill="#e69f00"
     transform="matrix(0.0666667 0 0 0.0666667 -5.62226 -41.3333)"
     d="M 3686.33,1434.11 A 29.14,29.14 0 1 0 3744.61,1434.11A 29.14,29.14 0 1 0 3686.33,1434.11Z "
     id="path154" />
  <text
     xml:space="preserve"
     style="font-style:normal;font-weight:normal;font-size:10.66666698px;line-height:1.25;font-family:sans-serif;text-align:start;letter-spacing:0px;word-spacing:0px;text-anchor:start;fill:#e69f00;fill-opacity:1;stroke:none"
     x="135.86278"
     y="31.735939"
     id="text1135"><tspan
       sodipodi:role="line"
       id="tspan1133"
       x="135.86278"
       y="31.735939">w jednym naczyniu</tspan></text>
  <text
     xml:space="preserve"
     style="font-style:normal;font-weight:normal;font-size:10.66666698px;line-height:1.25;font-family:sans-serif;text-align:start;letter-spacing:0px;word-spacing:0px;text-anchor:start;fill:#000000;fill-opacity:1;stroke:none"
     x="2.6069176"
     y="103.36768"
     id="text1139"><tspan
       sodipodi:role="line"
       id="tspan1137"
       x="2.6069176"
       y="103.36768">\cmpd{lactam-gal}</tspan></text>
  <text
     xml:space="preserve"
     style="font-style:normal;font-weight:normal;font-size:10.66666698px;line-height:1.25;font-family:sans-serif;text-align:start;letter-spacing:0px;word-spacing:0px;text-anchor:start;fill:#000000;fill-opacity:1;stroke:none"
     x="280.23459"
     y="103.36768"
     id="text1139-6"><tspan
       sodipodi:role="line"
       id="tspan1137-5"
       x="280.23459"
       y="103.36768">\cmpd{allyl-amine-gal}</tspan></text>
  <text
     xml:space="preserve"
     style="font-style:normal;font-weight:normal;font-size:10.66666698px;line-height:1.25;font-family:sans-serif;text-align:start;letter-spacing:0px;word-spacing:0px;text-anchor:start;fill:#e69f00;fill-opacity:1;stroke:none"
     x="296.88358"
     y="19.039694"
     id="text999"><tspan
       sodipodi:role="line"
       id="tspan997"
       x="296.88358"
       y="19.039694">addycja \textit{syn}</tspan></text>
</svg>
