<?xml version="1.0" encoding="UTF-8" standalone="no"?>
<svg
   xmlns:dc="http://purl.org/dc/elements/1.1/"
   xmlns:cc="http://creativecommons.org/ns#"
   xmlns:rdf="http://www.w3.org/1999/02/22-rdf-syntax-ns#"
   xmlns:svg="http://www.w3.org/2000/svg"
   xmlns="http://www.w3.org/2000/svg"
   xmlns:sodipodi="http://sodipodi.sourceforge.net/DTD/sodipodi-0.dtd"
   xmlns:inkscape="http://www.inkscape.org/namespaces/inkscape"
   width="192px"
   height="206px"
   viewBox="0 0 192 206"
   version="1.1"
   id="svg112"
   sodipodi:docname="hydantoine-reduction-zr.svg"
   inkscape:version="0.92.4 (5da689c313, 2019-01-14)">
  <metadata
     id="metadata118">
    <rdf:RDF>
      <cc:Work
         rdf:about="">
        <dc:format>image/svg+xml</dc:format>
        <dc:type
           rdf:resource="http://purl.org/dc/dcmitype/StillImage" />
      </cc:Work>
    </rdf:RDF>
  </metadata>
  <defs
     id="defs116" />
  <sodipodi:namedview
     pagecolor="#ffffff"
     bordercolor="#666666"
     borderopacity="1"
     objecttolerance="10"
     gridtolerance="10"
     guidetolerance="10"
     inkscape:pageopacity="0"
     inkscape:pageshadow="2"
     inkscape:window-width="1920"
     inkscape:window-height="1017"
     id="namedview114"
     showgrid="false"
     inkscape:zoom="3.240334"
     inkscape:cx="174.79849"
     inkscape:cy="58.736508"
     inkscape:window-x="-8"
     inkscape:window-y="-8"
     inkscape:window-maximized="1"
     inkscape:current-layer="svg112" />
  <text
     xml:space="preserve"
     style="font-style:normal;font-weight:normal;font-size:10.66666698px;line-height:1.25;font-family:sans-serif;text-align:end;letter-spacing:0px;word-spacing:0px;text-anchor:end;fill:#000000;fill-opacity:1;stroke:none"
     x="57.928059"
     y="194.68961"
     id="text1023-8"><tspan
       sodipodi:role="line"
       id="tspan1021-0"
       x="57.928059"
       y="204.42113" /></text>
  <text
     xml:space="preserve"
     style="font-style:normal;font-weight:normal;font-size:10.66666698px;line-height:1.25;font-family:sans-serif;text-align:end;letter-spacing:0px;word-spacing:0px;text-anchor:end;fill:#000000;fill-opacity:1;stroke:none"
     x="57.928059"
     y="208.5466"
     id="text1023-8-0"><tspan
       sodipodi:role="line"
       id="tspan1021-0-5"
       x="57.928059"
       y="218.27812" /></text>
  <text
     xml:space="preserve"
     style="font-style:normal;font-weight:normal;font-size:10.66666698px;line-height:1.25;font-family:sans-serif;text-align:start;letter-spacing:0px;word-spacing:0px;text-anchor:start;fill:#000000;fill-opacity:1;stroke:none"
     x="3.4974995"
     y="180.72844"
     id="text1085"><tspan
       sodipodi:role="line"
       id="tspan1083"
       x="3.4974995"
       y="180.72844">\cmpd{thiazodione}, \ch{X} = \ch{S}</tspan></text>
  <text
     xml:space="preserve"
     style="font-style:normal;font-weight:normal;font-size:10.66666698px;line-height:1.25;font-family:sans-serif;text-align:start;letter-spacing:0px;word-spacing:0px;text-anchor:start;fill:#000000;fill-opacity:1;stroke:none"
     x="3.4974995"
     y="194.58543"
     id="text1089-9"><tspan
       sodipodi:role="line"
       id="tspan1087-6"
       x="3.4974995"
       y="194.58543">\cmpd{nh-hydantoin}, \ch{X} = \ch{NH}</tspan></text>
  <text
     xml:space="preserve"
     style="font-style:normal;font-weight:normal;font-size:10.66666698px;line-height:1.25;font-family:sans-serif;text-align:start;letter-spacing:0px;word-spacing:0px;text-anchor:start;fill:#000000;fill-opacity:1;stroke:none"
     x="3.4974995"
     y="208.44243"
     id="text1093"><tspan
       sodipodi:role="line"
       id="tspan1091"
       x="3.4974995"
       y="208.44243">\cmpd{hydantoin}, \ch{X} $\equiv$ \ch{NR^2}</tspan></text>
  <text
     xml:space="preserve"
     style="font-style:normal;font-weight:normal;font-size:10.66666698px;line-height:1.25;font-family:sans-serif;text-align:start;letter-spacing:0px;word-spacing:0px;text-anchor:start;fill:#000000;fill-opacity:1;stroke:none"
     x="126.55072"
     y="180.72844"
     id="text1085-3-7"><tspan
       sodipodi:role="line"
       id="tspan1083-6-3"
       x="126.55072"
       y="180.72844">\cmpd{thiazolone}, \ch{X} = \ch{S}</tspan></text>
  <text
     xml:space="preserve"
     style="font-style:normal;font-weight:normal;font-size:10.66666698px;line-height:1.25;font-family:sans-serif;text-align:start;letter-spacing:0px;word-spacing:0px;text-anchor:start;fill:#000000;fill-opacity:1;stroke:none"
     x="126.55072"
     y="194.58543"
     id="text1089-9-2"><tspan
       sodipodi:role="line"
       id="tspan1087-6-3"
       x="126.55072"
       y="194.58543">\cmpd{nh-imidazolone}, \ch{X} = \ch{NH}</tspan></text>
  <text
     xml:space="preserve"
     style="font-style:normal;font-weight:normal;font-size:10.66666698px;line-height:1.25;font-family:sans-serif;text-align:start;letter-spacing:0px;word-spacing:0px;text-anchor:start;fill:#000000;fill-opacity:1;stroke:none"
     x="126.55072"
     y="208.44243"
     id="text1093-5-1"><tspan
       sodipodi:role="line"
       id="tspan1091-3-8"
       x="126.55072"
       y="208.44243">\cmpd{imidazolone}, \ch{X} $\equiv$ \ch{NR^2}</tspan></text>
  <g
     aria-label="X"
     transform="matrix(0.0666667,0,0,0.0666667,12.23565,166.37215)"
     style="font-style:normal;font-variant:normal;font-weight:normal;font-stretch:normal;font-size:160px;line-height:normal;font-family:Arial;fill:#000000"
     id="text2">
    <path
       d="M 0.703125,0 45,-59.6875 5.9375,-114.53125 h 18.046875 l 20.78125,29.375 q 6.484375,9.140625 9.21875,14.0625 3.828125,-6.25 9.0625,-13.046875 L 86.09375,-114.53125 h 16.48438 L 62.34375,-60.546875 105.70313,0 H 86.953125 L 58.125,-40.859375 q -2.421875,-3.515625 -5,-7.65625 -3.828125,6.25 -5.46875,8.59375 L 18.90625,0 Z"
       style="font-style:normal;font-variant:normal;font-weight:normal;font-stretch:normal;font-size:160px;line-height:normal;font-family:Arial;fill:#000000"
       id="path985"
       inkscape:connector-curvature="0" />
  </g>
  <g
     aria-label="N"
     transform="matrix(0.0666667,0,0,0.0666667,23.17425,144.24975)"
     style="font-style:normal;font-variant:normal;font-weight:normal;font-stretch:normal;font-size:160px;line-height:normal;font-family:Arial;fill:#000000"
     id="text4">
    <path
       d="m 12.1875,0 v -114.53125 h 15.546875 l 60.15625,89.921875 V -114.53125 H 102.42188 V 0 H 86.875 L 26.71875,-90 V 0 Z"
       style="font-style:normal;font-variant:normal;font-weight:normal;font-stretch:normal;font-size:160px;line-height:normal;font-family:Arial;fill:#000000"
       id="path982"
       inkscape:connector-curvature="0" />
  </g>
  <path
     inkscape:connector-curvature="0"
     style="fill:#000000;stroke-width:0.0666667"
     stroke="transparent"
     d="m 11.583806,157.57281 -0.481,0.48133 -6.6329166,-6.63267 0.8305404,-0.132 z"
     id="path6" />
  <path
     inkscape:connector-curvature="0"
     style="fill:#000000;stroke-width:0.0666667"
     stroke="transparent"
     d="m 29.033348,155.04881 0.749267,0.38133 -8.393471,4.27667 -0.3088,-0.606 z"
     id="path8" />
  <path
     inkscape:connector-curvature="0"
     style="fill:#000000;stroke-width:0.0666667"
     stroke="transparent"
     d="m 27.576214,145.84814 0.671934,-0.106 1.534467,9.688 -0.749267,-0.38133 z"
     id="path10" />
  <path
     inkscape:connector-curvature="0"
     style="fill:#000000;stroke-width:0.0666667"
     stroke="transparent"
     d="m 12.042473,138.05747 -0.3818,-0.74934 10.794005,1.71 -0.1064,0.672 z"
     id="path12" />
  <path
     inkscape:connector-curvature="0"
     style="fill:#000000;stroke-width:0.0666667"
     stroke="transparent"
     d="m 5.3004298,151.28947 -0.8305404,0.132 7.1907836,-14.11334 0.3818,0.74934 z"
     id="path14" />
  <g
     aria-label="O"
     transform="matrix(0.0666667,0,0,0.0666667,0.75181016,128.17695)"
     style="font-style:normal;font-variant:normal;font-weight:normal;font-stretch:normal;font-size:160px;line-height:normal;font-family:Arial;fill:#000000"
     id="text16">
    <path
       d="m 7.734375,-55.78125 q 0,-28.515625 15.3125,-44.60938 15.3125,-16.17187 39.53125,-16.17187 15.859375,0 28.59375,7.57812 12.734375,7.57813 19.375005,21.17188 6.71875,13.515625 6.71875,30.703125 0,17.421875 -7.03125,31.171875 -7.03125,13.75 -19.92188,20.859375 -12.890625,7.03125 -27.8125,7.03125 -16.171875,0 -28.90625,-7.8125 -12.734375,-7.8125 -19.296875,-21.328125 -6.5625,-13.515625 -6.5625,-28.59375 z m 15.625,0.234375 q 0,20.703125 11.09375,32.65625 11.171875,11.875 27.96875,11.875 17.109375,0 28.125,-12.03125 11.093755,-12.03125 11.093755,-34.140625 0,-13.984375 -4.76563,-24.375 -4.6875,-10.46875 -13.828125,-16.171875 -9.0625,-5.781255 -20.390625,-5.781255 -16.09375,0 -27.734375,11.093755 -11.5625,11.015625 -11.5625,36.875 z"
       style="font-style:normal;font-variant:normal;font-weight:normal;font-stretch:normal;font-size:160px;line-height:normal;font-family:Arial;fill:#000000"
       id="path979"
       inkscape:connector-curvature="0" />
  </g>
  <path
     inkscape:connector-curvature="0"
     style="fill:#000000;stroke-width:0.0666667"
     stroke="transparent"
     d="m 6.1187368,130.2228 0.6062003,-0.30867 4.6547349,9.13534 -0.606133,0.30933 z"
     id="path18" />
  <path
     inkscape:connector-curvature="0"
     style="fill:#000000;stroke-width:0.0666667"
     stroke="transparent"
     d="m 8.5798047,128.96879 0.6061337,-0.30866 4.6547356,9.13534 -0.606134,0.30933 z"
     id="path20" />
  <g
     aria-label="O"
     transform="matrix(0.0666667,0,0,0.0666667,38.94705,166.37215)"
     style="font-style:normal;font-variant:normal;font-weight:normal;font-stretch:normal;font-size:160px;line-height:normal;font-family:Arial;fill:#000000"
     id="text22">
    <path
       d="m 7.734375,-55.78125 q 0,-28.515625 15.3125,-44.60938 15.3125,-16.17187 39.53125,-16.17187 15.859375,0 28.59375,7.57812 12.734375,7.57813 19.375005,21.17188 6.71875,13.515625 6.71875,30.703125 0,17.421875 -7.03125,31.171875 -7.03125,13.75 -19.92188,20.859375 -12.890625,7.03125 -27.8125,7.03125 -16.171875,0 -28.90625,-7.8125 -12.734375,-7.8125 -19.296875,-21.328125 -6.5625,-13.515625 -6.5625,-28.59375 z m 15.625,0.234375 q 0,20.703125 11.09375,32.65625 11.171875,11.875 27.96875,11.875 17.109375,0 28.125,-12.03125 11.093755,-12.03125 11.093755,-34.140625 0,-13.984375 -4.76563,-24.375 -4.6875,-10.46875 -13.828125,-16.171875 -9.0625,-5.781255 -20.390625,-5.781255 -16.09375,0 -27.734375,11.093755 -11.5625,11.015625 -11.5625,36.875 z"
       style="font-style:normal;font-variant:normal;font-weight:normal;font-stretch:normal;font-size:160px;line-height:normal;font-family:Arial;fill:#000000"
       id="path976-1"
       inkscape:connector-curvature="0" />
  </g>
  <path
     inkscape:connector-curvature="0"
     style="fill:#000000;stroke-width:0.0666667"
     stroke="transparent"
     d="m 39.185153,158.28948 -0.308867,0.606 -9.889738,-5.03867 0.308867,-0.60667 z"
     id="path24-8" />
  <path
     inkscape:connector-curvature="0"
     style="fill:#000000;stroke-width:0.0666667"
     stroke="transparent"
     d="m 37.931152,160.75081 -0.3088,0.606 -9.889805,-5.03934 0.308867,-0.606 z"
     id="path26-6" />
  <g
     aria-label="R"
     transform="matrix(0.0666667,0,0,0.0666667,34.02465,133.39935)"
     style="font-style:normal;font-variant:normal;font-weight:normal;font-stretch:normal;font-size:160px;line-height:normal;font-family:Arial;fill:#000000"
     id="text28-9">
    <path
       d="m 12.578125,0 v -114.53125 h 50.78125 q 15.3125,0 23.28125,3.125 7.96875,3.04687 12.734375,10.85937 4.76563,7.812505 4.76563,17.26563 0,12.1875 -7.89063,20.546875 -7.890625,8.359375 -24.375,10.625 6.015625,2.890625 9.140625,5.703125 6.640625,6.09375 12.578125,15.234375 L 113.51563,0 H 94.453125 l -15.15625,-23.828125 q -6.640625,-10.3125 -10.9375,-15.78125 -4.296875,-5.46875 -7.734375,-7.65625 -3.359375,-2.1875 -6.875,-3.046875 -2.578125,-0.546875 -8.4375,-0.546875 H 27.734375 V 0 Z m 15.15625,-63.984375 H 60.3125 q 10.390625,0 16.25,-2.109375 5.859375,-2.1875 8.90625,-6.875 3.046875,-4.765625 3.046875,-10.3125 0,-8.125 -5.9375,-13.359375 Q 76.71875,-101.875 63.984375,-101.875 h -36.25 z"
       style="font-style:normal;font-variant:normal;font-weight:normal;font-stretch:normal;font-size:160px;line-height:normal;font-family:Arial;fill:#000000"
       id="path973-4"
       inkscape:connector-curvature="0" />
  </g>
  <g
     aria-label="1"
     transform="matrix(0.0666667,0,0,0.0666667,41.72775,129.23265)"
     style="font-style:normal;font-variant:normal;font-weight:normal;font-stretch:normal;font-size:120px;line-height:normal;font-family:Arial;fill:#000000"
     id="text30-7">
    <path
       d="M 44.707031,0 H 34.160156 v -67.207031 q -3.808594,3.632812 -10.019531,7.265625 -6.152344,3.632812 -11.074219,5.449219 V -64.6875 q 8.847656,-4.160156 15.46875,-10.078125 6.621094,-5.917969 9.375,-11.484375 h 6.796875 z"
       style="font-style:normal;font-variant:normal;font-weight:normal;font-stretch:normal;font-size:120px;line-height:normal;font-family:Arial;fill:#000000"
       id="path970-8"
       inkscape:connector-curvature="0" />
  </g>
  <path
     inkscape:connector-curvature="0"
     style="fill:#000000;stroke-width:0.0666667"
     stroke="transparent"
     d="m 32.836283,133.77346 0.481067,0.48134 -1.710334,1.71 -0.481,-0.48067 z"
     id="path32" />
  <path
     inkscape:connector-curvature="0"
     style="fill:#000000;stroke-width:0.0666667"
     stroke="transparent"
     d="M 127.50513,144.6808 H 59.641156 v -0.66666 h 67.863974 z"
     id="path44" />
  <path
     inkscape:connector-curvature="0"
     style="fill:#000000;stroke-width:0.0666667"
     stroke="transparent"
     d="m 133.39113,144.34747 c 0,0 -6.80267,1.76733 -6.80267,1.76733 0,0 0.85,-0.994 0.85,-1.76733 0,-0.802 -0.85,-1.834 -0.85,-1.834 0,0 6.80267,1.834 6.80267,1.834 0,0 0,0 0,0"
     id="path46-5" />
  <path
     inkscape:connector-curvature="0"
     style="stroke:#000000;stroke-width:0.0666667"
     fill="transparent"
     d="m 133.39113,144.34747 c 0,0 -6.80267,1.76733 -6.80267,1.76733 0,0 0.85,-0.994 0.85,-1.76733 0,-0.802 -0.85,-1.834 -0.85,-1.834 0,0 6.80267,1.834 6.80267,1.834 0,0 0,0 0,0"
     id="path48" />
  <g
     aria-label="1)"
     transform="matrix(0.0666667,0,0,0.0666667,60.480379,137.55385)"
     style="font-style:normal;font-variant:normal;font-weight:normal;font-stretch:normal;font-size:159.84199524px;line-height:normal;font-family:Arial;fill:#000000"
     id="text50">
    <path
       d="M 59.550509,0 H 45.501896 v -89.520883 q -5.07311,4.838967 -13.346182,9.677933 -8.195024,4.838967 -14.751044,7.25845 v -13.580326 q 11.785226,-5.541397 20.604633,-13.42423 8.819407,-7.882834 12.487655,-15.297374 h 9.053551 z"
       style="font-style:normal;font-variant:normal;font-weight:normal;font-stretch:normal;font-size:159.84199524px;line-height:normal;font-family:Arial;fill:#000000"
       id="path965"
       inkscape:connector-curvature="0" />
    <path
       d="M 108.72065,33.638623 H 98.652482 q 23.336308,-37.4629676 23.336308,-75.003983 0,-14.672996 -3.35606,-29.111848 -2.65363,-11.707177 -7.41454,-22.47778 -3.04387,-7.024307 -12.565708,-23.414352 h 10.068168 q 14.673,19.590007 21.69731,39.336113 6.00968,17.014431 6.00968,35.589819 0,21.072919 -8.11698,40.74097736 Q 120.27174,18.965627 108.72065,33.638623 Z"
       style="font-style:normal;font-variant:normal;font-weight:normal;font-stretch:normal;font-size:159.84199524px;line-height:normal;font-family:Arial;fill:#000000"
       id="path967"
       inkscape:connector-curvature="0" />
  </g>
  <g
     aria-label="Cp"
     transform="matrix(0.0666667,0,0,0.0666667,72.916079,137.55385)"
     style="font-style:normal;font-variant:normal;font-weight:normal;font-stretch:normal;font-size:159.84199524px;line-height:normal;font-family:Arial;fill:#009e73"
     id="text52">
    <path
       d="m 93.96961,-40.116595 15.14128,3.824345 q -4.76092,18.653436 -17.170524,28.4874651 -12.33156,9.7559811 -30.204517,9.7559811 -18.497341,0 -30.12647,-7.4925935 Q 20.058297,-13.112039 13.970565,-27.394795 7.9608806,-41.677551 7.9608806,-58.0676 q 0,-17.872957 6.7901634,-31.141092 6.86821,-13.346178 19.433914,-20.214388 12.643752,-6.94626 27.785034,-6.94626 17.170527,0 28.877705,8.74136 11.707173,8.741355 16.312003,24.585068 l -14.907142,3.512154 q -3.980441,-12.487656 -11.551082,-18.185149 -7.570641,-5.697493 -19.043675,-5.697493 -13.190087,0 -22.087541,6.321876 -8.819407,6.321875 -12.409608,17.014431 -3.590202,10.614507 -3.590202,21.931445 0,14.594948 4.214584,25.521647 4.292632,10.848651 13.268135,16.233953 8.975502,5.385301 19.433914,5.385301 12.7218,0 21.541207,-7.336498 8.819407,-7.336497 11.94132,-21.77535 z"
       style="font-style:normal;font-variant:normal;font-weight:normal;font-stretch:normal;font-size:159.84199524px;line-height:normal;font-family:Arial;fill:#009e73"
       id="path960"
       inkscape:connector-curvature="0" />
    <path
       d="M 126.04728,31.765475 V -82.886816 h 12.79985 v 10.770603 q 4.52677,-6.321875 10.22426,-9.443789 5.6975,-3.199962 13.81447,-3.199962 10.61451,0 18.73149,5.463349 8.11697,5.46335 12.25351,15.453474 4.13654,9.912077 4.13654,21.77535 0,12.7218 -4.60483,22.946068 -4.52677,10.1462203 -13.26813,15.6095698 -8.66331,5.3853016 -18.2632,5.3853016 -7.02431,0 -12.64375,-2.9658183 -5.5414,-2.9658183 -9.1316,-7.4925935 V 31.765475 Z m 12.7218,-72.740596 q 0,15.999809 6.47797,23.648498 6.47797,7.6486897 15.68762,7.6486897 9.36574,0 15.99981,-7.8828327 6.71211,-7.960881 6.71211,-24.585073 0,-15.843713 -6.55602,-23.726546 -6.47797,-7.882833 -15.53152,-7.882833 -8.9755,0 -15.92176,8.429168 -6.86821,8.35112 -6.86821,24.350929 z"
       style="font-style:normal;font-variant:normal;font-weight:normal;font-stretch:normal;font-size:159.84199524px;line-height:normal;font-family:Arial;fill:#009e73"
       id="path962"
       inkscape:connector-curvature="0" />
  </g>
  <g
     aria-label="2"
     transform="matrix(0.0666667,0,0,0.0666667,86.538079,139.82045)"
     style="font-style:normal;font-variant:normal;font-weight:normal;font-stretch:normal;font-size:119.88200378px;line-height:normal;font-family:Arial;fill:#009e73"
     id="text54">
    <path
       d="M 60.350755,-10.126751 V 0 H 3.6292403 q -0.1170722,-3.8048488 1.2292589,-7.3170168 2.165837,-5.7950772 6.9072638,-11.4145462 4.799963,-5.619469 13.814528,-12.995022 13.990136,-11.473082 18.907171,-18.146202 4.917036,-6.731655 4.917036,-12.702341 0,-6.263366 -4.507283,-10.536504 -4.448746,-4.331674 -11.648691,-4.331674 -7.609697,0 -12.175516,4.565818 -4.565818,4.565819 -4.624354,12.643805 L 5.6194689,-61.345869 q 1.1121866,-12.11698 8.3706671,-18.438883 7.258481,-6.380438 19.492533,-6.380438 12.351124,0 19.551069,6.848728 7.199945,6.848727 7.199945,16.975479 0,5.151179 -2.107301,10.126751 -2.107301,4.975571 -7.024336,10.477968 -4.8585,5.502397 -16.21451,15.102323 -9.482854,7.960914 -12.175516,10.829185 -2.692662,2.809734 -4.448746,5.678005 z"
       style="font-style:normal;font-variant:normal;font-weight:normal;font-stretch:normal;font-size:119.88200378px;line-height:normal;font-family:Arial;fill:#009e73"
       id="path957-6"
       inkscape:connector-curvature="0" />
  </g>
  <g
     aria-label="Zr(H)Cl"
     transform="matrix(0.0666667,0,0,0.0666667,90.982879,137.55385)"
     style="font-style:normal;font-variant:normal;font-weight:normal;font-stretch:normal;font-size:159.84199524px;line-height:normal;font-family:Arial;fill:#009e73"
     id="text56">
    <path
       d="m 3.1999618,0 v -14.048613 l 58.6139352,-73.28693 q 6.243828,-7.804785 11.863273,-13.580327 H 9.834029 v -13.50228 h 81.950242 v 13.50228 l -64.23338,79.374664 -6.946259,8.038928 H 93.657419 V 0 Z"
       style="font-style:normal;font-variant:normal;font-weight:normal;font-stretch:normal;font-size:159.84199524px;line-height:normal;font-family:Arial;fill:#009e73"
       id="path942"
       inkscape:connector-curvature="0" />
    <path
       d="m 108.09627,0 v -82.886816 h 12.64375 v 12.565704 q 4.83897,-8.819407 8.89745,-11.62913 4.13654,-2.809722 9.05356,-2.809722 7.10235,0 14.43885,4.526775 l -4.83897,13.033991 q -5.15116,-3.043866 -10.30232,-3.043866 -4.60482,0 -8.27307,2.809722 -3.66825,2.731675 -5.2292,7.648689 -2.34144,7.492594 -2.34144,16.390049 V 0 Z"
       style="font-style:normal;font-variant:normal;font-weight:normal;font-stretch:normal;font-size:159.84199524px;line-height:normal;font-family:Arial;fill:#009e73"
       id="path944"
       inkscape:connector-curvature="0" />
    <path
       d="M 188.48555,33.638623 Q 176.85642,18.965627 168.81749,-0.70243064 160.77857,-20.370489 160.77857,-41.443408 q 0,-18.575388 6.00968,-35.589819 7.02431,-19.746106 21.6973,-39.336113 h 10.06817 q -9.44379,16.23395 -12.48765,23.180208 -4.76092,10.770603 -7.4926,22.477781 -3.35605,14.594947 -3.35605,29.345991 0,37.5410154 23.3363,75.003983 z"
       style="font-style:normal;font-variant:normal;font-weight:normal;font-stretch:normal;font-size:159.84199524px;line-height:normal;font-family:Arial;fill:#009e73"
       id="path946-5"
       inkscape:connector-curvature="0" />
    <path
       d="m 217.2852,0 v -114.41815 h 15.14128 v 46.984808 h 59.47246 v -46.984808 h 15.14129 V 0 H 291.89894 V -53.931064 H 232.42648 V 0 Z"
       style="font-style:normal;font-variant:normal;font-weight:normal;font-stretch:normal;font-size:159.84199524px;line-height:normal;font-family:Arial;fill:#009e73"
       id="path948-5"
       inkscape:connector-curvature="0" />
    <path
       d="m 339.74229,33.638623 h -10.06817 q 23.33631,-37.4629676 23.33631,-75.003983 0,-14.672996 -3.35606,-29.111848 -2.65363,-11.707177 -7.41455,-22.47778 -3.04386,-7.024307 -12.5657,-23.414352 h 10.06817 q 14.673,19.590007 21.6973,39.336113 6.00969,17.014431 6.00969,35.589819 0,21.072919 -8.11698,40.74097736 Q 351.29337,18.965627 339.74229,33.638623 Z"
       style="font-style:normal;font-variant:normal;font-weight:normal;font-stretch:normal;font-size:159.84199524px;line-height:normal;font-family:Arial;fill:#009e73"
       id="path950"
       inkscape:connector-curvature="0" />
    <path
       d="m 467.35053,-40.116595 15.14128,3.824345 q -4.76092,18.653436 -17.17052,28.4874651 -12.33156,9.7559811 -30.20452,9.7559811 -18.49734,0 -30.12647,-7.4925935 -11.55108,-7.5706417 -17.63881,-21.8533977 -6.00969,-14.282756 -6.00969,-30.672805 0,-17.872957 6.79016,-31.141092 6.86821,-13.346178 19.43392,-20.214388 12.64375,-6.94626 27.78503,-6.94626 17.17053,0 28.87771,8.74136 11.70717,8.741355 16.312,24.585068 l -14.90714,3.512154 q -3.98044,-12.487656 -11.55108,-18.185149 -7.57064,-5.697493 -19.04368,-5.697493 -13.19009,0 -22.08754,6.321876 -8.81941,6.321875 -12.40961,17.014431 -3.5902,10.614507 -3.5902,21.931445 0,14.594948 4.21458,25.521647 4.29264,10.848651 13.26814,16.233953 8.9755,5.385301 19.43391,5.385301 12.7218,0 21.54121,-7.336498 8.81941,-7.336497 11.94132,-21.77535 z"
       style="font-style:normal;font-variant:normal;font-weight:normal;font-stretch:normal;font-size:159.84199524px;line-height:normal;font-family:Arial;fill:#009e73"
       id="path952"
       inkscape:connector-curvature="0" />
    <path
       d="M 499.11599,0 V -114.41815 H 513.1646 V 0 Z"
       style="font-style:normal;font-variant:normal;font-weight:normal;font-stretch:normal;font-size:159.84199524px;line-height:normal;font-family:Arial;fill:#009e73"
       id="path954"
       inkscape:connector-curvature="0" />
  </g>
  <g
     aria-label="2)"
     transform="matrix(0.0666667,0,0,0.0666667,60.480379,157.74495)"
     style="font-style:normal;font-variant:normal;font-weight:normal;font-stretch:normal;font-size:159.84199524px;line-height:normal;font-family:Arial;fill:#000000"
     id="text58">
    <path
       d="M 80.467333,-13.502278 V 0 H 4.8389667 Q 4.682871,-5.0731102 6.4779715,-9.7559812 9.3657419,-17.482718 15.687618,-24.975312 q 6.399923,-7.492593 18.419292,-17.326622 18.653436,-15.297379 25.209455,-24.194834 6.55602,-8.975502 6.55602,-16.936383 0,-8.35112 -6.009685,-14.048613 -5.931636,-5.775536 -15.531522,-5.775536 -10.14622,0 -16.233952,6.087728 -6.087733,6.087732 -6.16578,16.858335 L 7.4925935,-81.794146 q 1.4829092,-16.155905 11.1608425,-24.585074 9.677933,-8.50721 25.989934,-8.50721 16.468096,0 26.067981,9.13159 9.599886,9.131603 9.599886,22.633881 0,6.86821 -2.809723,13.502277 -2.809722,6.634068 -9.365742,13.970565 -6.477971,7.336498 -21.619254,20.136346 -12.643751,10.614507 -16.233952,14.438852 -3.590202,3.746296 -5.931637,7.570641 z"
       style="font-style:normal;font-variant:normal;font-weight:normal;font-stretch:normal;font-size:159.84199524px;line-height:normal;font-family:Arial;fill:#000000"
       id="path937-4"
       inkscape:connector-curvature="0" />
    <path
       d="M 108.72065,33.638623 H 98.652482 q 23.336308,-37.4629676 23.336308,-75.003983 0,-14.672996 -3.35606,-29.111848 -2.65363,-11.707177 -7.41454,-22.47778 -3.04387,-7.024307 -12.565708,-23.414352 h 10.068168 q 14.673,19.590007 21.69731,39.336113 6.00968,17.014431 6.00968,35.589819 0,21.072919 -8.11698,40.74097736 Q 120.27174,18.965627 108.72065,33.638623 Z"
       style="font-style:normal;font-variant:normal;font-weight:normal;font-stretch:normal;font-size:159.84199524px;line-height:normal;font-family:Arial;fill:#000000"
       id="path939"
       inkscape:connector-curvature="0" />
  </g>
  <g
     aria-label="H"
     transform="matrix(0.0666667,0,0,0.0666667,72.916079,157.74495)"
     style="font-style:normal;font-variant:normal;font-weight:normal;font-stretch:normal;font-size:159.84199524px;line-height:normal;font-family:Arial;fill:#000000"
     id="text60">
    <path
       d="M 12.799847,0 V -114.41815 H 27.94113 v 46.984808 H 87.413591 V -114.41815 H 102.55487 V 0 H 87.413591 V -53.931064 H 27.94113 V 0 Z"
       style="font-style:normal;font-variant:normal;font-weight:normal;font-stretch:normal;font-size:159.84199524px;line-height:normal;font-family:Arial;fill:#000000"
       id="path934"
       inkscape:connector-curvature="0" />
  </g>
  <g
     aria-label="2"
     transform="matrix(0.0666667,0,0,0.0666667,80.611579,160.01155)"
     style="font-style:normal;font-variant:normal;font-weight:normal;font-stretch:normal;font-size:119.88200378px;line-height:normal;font-family:Arial;fill:#000000"
     id="text62">
    <path
       d="M 60.350755,-10.126751 V 0 H 3.6292403 q -0.1170722,-3.8048488 1.2292589,-7.3170168 2.165837,-5.7950772 6.9072638,-11.4145462 4.799963,-5.619469 13.814528,-12.995022 13.990136,-11.473082 18.907171,-18.146202 4.917036,-6.731655 4.917036,-12.702341 0,-6.263366 -4.507283,-10.536504 -4.448746,-4.331674 -11.648691,-4.331674 -7.609697,0 -12.175516,4.565818 -4.565818,4.565819 -4.624354,12.643805 L 5.6194689,-61.345869 q 1.1121866,-12.11698 8.3706671,-18.438883 7.258481,-6.380438 19.492533,-6.380438 12.351124,0 19.551069,6.848728 7.199945,6.848727 7.199945,16.975479 0,5.151179 -2.107301,10.126751 -2.107301,4.975571 -7.024336,10.477968 -4.8585,5.502397 -16.21451,15.102323 -9.482854,7.960914 -12.175516,10.829185 -2.692662,2.809734 -4.448746,5.678005 z"
       style="font-style:normal;font-variant:normal;font-weight:normal;font-stretch:normal;font-size:119.88200378px;line-height:normal;font-family:Arial;fill:#000000"
       id="path931"
       inkscape:connector-curvature="0" />
  </g>
  <g
     aria-label="O"
     transform="matrix(0.0666667,0,0,0.0666667,85.056479,157.74495)"
     style="font-style:normal;font-variant:normal;font-weight:normal;font-stretch:normal;font-size:159.84199524px;line-height:normal;font-family:Arial;fill:#000000"
     id="text64-6">
    <path
       d="m 7.7267371,-55.726164 q 0,-28.487465 15.2973789,-44.565326 15.297378,-16.1559 39.492211,-16.1559 15.843714,0 28.565513,7.57064 12.7218,7.57064 19.35587,21.150967 6.71211,13.502278 6.71211,30.672805 0,17.404671 -7.0243,31.141092 -7.02431,13.736422 -19.902206,20.8387758 -12.877895,7.0243064 -27.785035,7.0243064 -16.155904,0 -28.877704,-7.8047849 Q 20.838776,-13.658374 14.282756,-27.160652 7.7267371,-40.662929 7.7267371,-55.726164 Z m 15.6095699,0.234143 q 0,20.68268 11.082795,32.624001 11.160842,11.863273 27.94113,11.863273 17.092479,0 28.097225,-12.019369 11.082793,-12.019368 11.082793,-34.10691 0,-13.970565 -4.760917,-24.350929 -4.682871,-10.458411 -13.814469,-16.155904 -9.053551,-5.775541 -20.370489,-5.775541 -16.077857,0 -27.706986,11.082794 -11.551082,11.004747 -11.551082,36.838585 z"
       style="font-style:normal;font-variant:normal;font-weight:normal;font-stretch:normal;font-size:159.84199524px;line-height:normal;font-family:Arial;fill:#000000"
       id="path928"
       inkscape:connector-curvature="0" />
  </g>
  <g
     aria-label="X"
     transform="matrix(0.0666667,0,0,0.0666667,150.56403,159.63715)"
     style="font-style:normal;font-variant:normal;font-weight:normal;font-stretch:normal;font-size:160px;line-height:normal;font-family:Arial;fill:#000000"
     id="text66-6">
    <path
       d="M 0.703125,0 45,-59.6875 5.9375,-114.53125 h 18.046875 l 20.78125,29.375 q 6.484375,9.140625 9.21875,14.0625 3.828125,-6.25 9.0625,-13.046875 L 86.09375,-114.53125 h 16.48438 L 62.34375,-60.546875 105.70313,0 H 86.953125 L 58.125,-40.859375 q -2.421875,-3.515625 -5,-7.65625 -3.828125,6.25 -5.46875,8.59375 L 18.90625,0 Z"
       style="font-style:normal;font-variant:normal;font-weight:normal;font-stretch:normal;font-size:160px;line-height:normal;font-family:Arial;fill:#000000"
       id="path925"
       inkscape:connector-curvature="0" />
  </g>
  <g
     aria-label="N"
     transform="matrix(0.0666667,0,0,0.0666667,161.50203,137.51475)"
     style="font-style:normal;font-variant:normal;font-weight:normal;font-stretch:normal;font-size:160px;line-height:normal;font-family:Arial;fill:#000000"
     id="text68-7">
    <path
       d="m 12.1875,0 v -114.53125 h 15.546875 l 60.15625,89.921875 V -114.53125 H 102.42188 V 0 H 86.875 L 26.71875,-90 V 0 Z"
       style="font-style:normal;font-variant:normal;font-weight:normal;font-stretch:normal;font-size:160px;line-height:normal;font-family:Arial;fill:#000000"
       id="path922-2"
       inkscape:connector-curvature="0" />
  </g>
  <path
     inkscape:connector-curvature="0"
     style="fill:#000000;stroke-width:0.0666667"
     stroke="transparent"
     d="m 149.91199,150.83814 -0.48067,0.48067 -6.63334,-6.63267 0.83067,-0.13134 z"
     id="path70-2" />
  <path
     inkscape:connector-curvature="0"
     style="fill:#000000;stroke-width:0.0666667"
     stroke="transparent"
     d="m 167.36133,148.31347 0.74933,0.382 -8.39333,4.27667 -0.30867,-0.606 z"
     id="path72-8" />
  <path
     inkscape:connector-curvature="0"
     style="fill:#000000;stroke-width:0.0666667"
     stroke="transparent"
     d="m 165.90466,139.11347 0.672,-0.10667 1.534,9.68867 -0.74933,-0.382 z"
     id="path74-4" />
  <path
     inkscape:connector-curvature="0"
     style="fill:#000000;stroke-width:0.0666667"
     stroke="transparent"
     d="m 150.37065,131.3228 -0.382,-0.74934 10.79401,1.70934 -0.106,0.672 z"
     id="path76-5" />
  <path
     inkscape:connector-curvature="0"
     style="fill:#000000;stroke-width:0.0666667"
     stroke="transparent"
     d="m 143.62865,144.5548 -0.83067,0.13134 7.19067,-14.11268 0.382,0.74934 z"
     id="path78-7" />
  <path
     inkscape:connector-curvature="0"
     style="fill:#000000;stroke-width:0.0666667"
     stroke="transparent"
     d="m 146.88865,144.2408 -0.606,-0.30866 5.14401,-10.09668 0.606,0.30934 z"
     id="path80-1" />
  <g
     aria-label="O"
     transform="matrix(0.0666667,0,0,0.0666667,177.27503,159.63715)"
     style="font-style:normal;font-variant:normal;font-weight:normal;font-stretch:normal;font-size:160px;line-height:normal;font-family:Arial;fill:#000000"
     id="text82">
    <path
       d="m 7.734375,-55.78125 q 0,-28.515625 15.3125,-44.60938 15.3125,-16.17187 39.53125,-16.17187 15.859375,0 28.59375,7.57812 12.734375,7.57813 19.375005,21.17188 6.71875,13.515625 6.71875,30.703125 0,17.421875 -7.03125,31.171875 -7.03125,13.75 -19.92188,20.859375 -12.890625,7.03125 -27.8125,7.03125 -16.171875,0 -28.90625,-7.8125 -12.734375,-7.8125 -19.296875,-21.328125 -6.5625,-13.515625 -6.5625,-28.59375 z m 15.625,0.234375 q 0,20.703125 11.09375,32.65625 11.171875,11.875 27.96875,11.875 17.109375,0 28.125,-12.03125 11.093755,-12.03125 11.093755,-34.140625 0,-13.984375 -4.76563,-24.375 -4.6875,-10.46875 -13.828125,-16.171875 -9.0625,-5.781255 -20.390625,-5.781255 -16.09375,0 -27.734375,11.093755 -11.5625,11.015625 -11.5625,36.875 z"
       style="font-style:normal;font-variant:normal;font-weight:normal;font-stretch:normal;font-size:160px;line-height:normal;font-family:Arial;fill:#000000"
       id="path919-9"
       inkscape:connector-curvature="0" />
  </g>
  <path
     inkscape:connector-curvature="0"
     style="fill:#000000;stroke-width:0.0666667"
     stroke="transparent"
     d="m 177.51334,151.55414 -0.30867,0.60667 -9.89001,-5.03934 0.30867,-0.606 z"
     id="path84" />
  <path
     inkscape:connector-curvature="0"
     style="fill:#000000;stroke-width:0.0666667"
     stroke="transparent"
     d="m 176.25933,154.01547 -0.30866,0.606 -9.89001,-5.03867 0.30867,-0.60666 z"
     id="path86" />
  <g
     aria-label="R"
     transform="matrix(0.0666667,0,0,0.0666667,172.35303,126.66435)"
     style="font-style:normal;font-variant:normal;font-weight:normal;font-stretch:normal;font-size:160px;line-height:normal;font-family:Arial;fill:#000000"
     id="text88-4">
    <path
       d="m 12.578125,0 v -114.53125 h 50.78125 q 15.3125,0 23.28125,3.125 7.96875,3.04687 12.734375,10.85937 4.76563,7.812505 4.76563,17.26563 0,12.1875 -7.89063,20.546875 -7.890625,8.359375 -24.375,10.625 6.015625,2.890625 9.140625,5.703125 6.640625,6.09375 12.578125,15.234375 L 113.51563,0 H 94.453125 l -15.15625,-23.828125 q -6.640625,-10.3125 -10.9375,-15.78125 -4.296875,-5.46875 -7.734375,-7.65625 -3.359375,-2.1875 -6.875,-3.046875 -2.578125,-0.546875 -8.4375,-0.546875 H 27.734375 V 0 Z m 15.15625,-63.984375 H 60.3125 q 10.390625,0 16.25,-2.109375 5.859375,-2.1875 8.90625,-6.875 3.046875,-4.765625 3.046875,-10.3125 0,-8.125 -5.9375,-13.359375 Q 76.71875,-101.875 63.984375,-101.875 h -36.25 z"
       style="font-style:normal;font-variant:normal;font-weight:normal;font-stretch:normal;font-size:160px;line-height:normal;font-family:Arial;fill:#000000"
       id="path916-3"
       inkscape:connector-curvature="0" />
  </g>
  <g
     aria-label="1"
     transform="matrix(0.0666667,0,0,0.0666667,180.05603,122.49765)"
     style="font-style:normal;font-variant:normal;font-weight:normal;font-stretch:normal;font-size:120px;line-height:normal;font-family:Arial;fill:#000000"
     id="text90-2">
    <path
       d="M 44.707031,0 H 34.160156 v -67.207031 q -3.808594,3.632812 -10.019531,7.265625 -6.152344,3.632812 -11.074219,5.449219 V -64.6875 q 8.847656,-4.160156 15.46875,-10.078125 6.621094,-5.917969 9.375,-11.484375 h 6.796875 z"
       style="font-style:normal;font-variant:normal;font-weight:normal;font-stretch:normal;font-size:120px;line-height:normal;font-family:Arial;fill:#000000"
       id="path913-7"
       inkscape:connector-curvature="0" />
  </g>
  <path
     inkscape:connector-curvature="0"
     style="fill:#000000;stroke-width:0.0666667"
     stroke="transparent"
     d="m 171.16467,127.03879 0.48066,0.48067 -1.71,1.71067 -0.48133,-0.48134 z"
     id="path92" />
</svg>
