<?xml version="1.0" encoding="UTF-8" standalone="no"?>
<svg
   xmlns:dc="http://purl.org/dc/elements/1.1/"
   xmlns:cc="http://creativecommons.org/ns#"
   xmlns:rdf="http://www.w3.org/1999/02/22-rdf-syntax-ns#"
   xmlns:svg="http://www.w3.org/2000/svg"
   xmlns="http://www.w3.org/2000/svg"
   xmlns:sodipodi="http://sodipodi.sourceforge.net/DTD/sodipodi-0.dtd"
   xmlns:inkscape="http://www.inkscape.org/namespaces/inkscape"
   width="408px"
   height="75px"
   viewBox="0 0 408 75"
   version="1.1"
   id="svg170"
   sodipodi:docname="isatins.svg"
   inkscape:version="0.92.4 (5da689c313, 2019-01-14)">
  <metadata
     id="metadata176">
    <rdf:RDF>
      <cc:Work
         rdf:about="">
        <dc:format>image/svg+xml</dc:format>
        <dc:type
           rdf:resource="http://purl.org/dc/dcmitype/StillImage" />
      </cc:Work>
    </rdf:RDF>
  </metadata>
  <defs
     id="defs174" />
  <sodipodi:namedview
     pagecolor="#ffffff"
     bordercolor="#666666"
     borderopacity="1"
     objecttolerance="10"
     gridtolerance="10"
     guidetolerance="10"
     inkscape:pageopacity="0"
     inkscape:pageshadow="2"
     inkscape:window-width="1920"
     inkscape:window-height="1017"
     id="namedview172"
     showgrid="false"
     inkscape:zoom="2.3778199"
     inkscape:cx="149.15578"
     inkscape:cy="-12.082287"
     inkscape:window-x="-8"
     inkscape:window-y="-8"
     inkscape:window-maximized="1"
     inkscape:current-layer="svg170" />
  <path
     stroke="transparent"
     fill="#000000"
     transform="matrix(0.0666667 0 0 0.0666667 3.44441 -41.3333)"
     d="M 5.74828,1267.3 L -4.45619,1273.19 L -4.45619,1037.12 L 5.74828,1043.01 L 5.74828,1267.3 Z "
     id="path2" />
  <path
     stroke="transparent"
     fill="#000000"
     transform="matrix(0.0666667 0 0 0.0666667 3.44441 -41.3333)"
     d="M 47.1794,1246.32 L 36.975,1246.32 L 36.975,1063.99 L 47.1794,1063.99 L 47.1794,1246.32 Z "
     id="path4" />
  <path
     stroke="transparent"
     fill="#000000"
     transform="matrix(0.0666667 0 0 0.0666667 3.44441 -41.3333)"
     d="M 199.982,1379.44 L 199.982,1391.22 L -4.45619,1273.19 L 5.74828,1267.3 L 199.982,1379.44 Z "
     id="path6" />
  <path
     stroke="transparent"
     fill="#000000"
     transform="matrix(0.0666667 0 0 0.0666667 3.44441 -41.3333)"
     d="M 394.215,1267.3 L 399.317,1270.24 L 399.901,1275.8 L 199.982,1391.22 L 199.982,1379.44 L 394.215,1267.3 Z "
     id="path8" />
  <path
     stroke="transparent"
     fill="#000000"
     transform="matrix(0.0666667 0 0 0.0666667 3.44441 -41.3333)"
     d="M 355.335,1241.9 L 360.437,1250.74 L 202.533,1341.91 L 197.431,1333.07 L 355.335,1241.9 Z "
     id="path10" />
  <path
     stroke="transparent"
     fill="#000000"
     transform="matrix(0.0666667 0 0 0.0666667 3.44441 -41.3333)"
     d="M 394.215,1043.01 L 399.317,1040.07 L 404.42,1043.78 L 404.42,1266.53 L 399.317,1270.24 L 394.215,1267.3 L 394.215,1043.01 Z "
     id="path12" />
  <path
     stroke="transparent"
     fill="#000000"
     transform="matrix(0.0666667 0 0 0.0666667 3.44441 -41.3333)"
     d="M 199.982,930.874 L 199.982,919.091 L 399.901,1034.51 L 399.317,1040.07 L 394.215,1043.01 L 199.982,930.874 Z "
     id="path14" />
  <path
     stroke="transparent"
     fill="#000000"
     transform="matrix(0.0666667 0 0 0.0666667 3.44441 -41.3333)"
     d="M 197.431,977.241 L 202.533,968.404 L 360.437,1059.57 L 355.335,1068.41 L 197.431,977.241 Z "
     id="path16" />
  <path
     stroke="transparent"
     fill="#000000"
     transform="matrix(0.0666667 0 0 0.0666667 3.44441 -41.3333)"
     d="M 5.74828,1043.01 L -4.45619,1037.12 L 199.982,919.091 L 199.982,930.874 L 5.74828,1043.01 Z "
     id="path18" />
  <g
     aria-label="N"
     transform="matrix(0.0666667,0,0,0.0666667,40.8261,52.2579)"
     style="font-style:normal;font-variant:normal;font-weight:normal;font-stretch:normal;font-size:160px;line-height:normal;font-family:Arial;fill:#000000"
     id="text20">
    <path
       d="m 12.1875,0 v -114.53125 h 15.546875 l 60.15625,89.921875 V -114.53125 H 102.42188 V 0 H 86.875 L 26.71875,-90 V 0 Z"
       style="font-style:normal;font-variant:normal;font-weight:normal;font-stretch:normal;font-size:160px;line-height:normal;font-family:Arial;fill:#000000"
       id="path983"
       inkscape:connector-curvature="0" />
  </g>
  <path
     stroke="transparent"
     fill="#000000"
     transform="matrix(0.0666667 0 0 0.0666667 3.44441 -41.3333)"
     d="M 541.158,1310.96 L 538.004,1320.67 L 399.901,1275.8 L 399.317,1270.24 L 404.42,1266.53 L 541.158,1310.96 Z "
     id="path22" />
  <path
     stroke="transparent"
     fill="#000000"
     transform="matrix(0.0666667 0 0 0.0666667 3.44441 -41.3333)"
     d="M 747.211,1155.16 L 759.824,1155.16 L 676.548,1269.77 L 668.292,1263.78 L 747.211,1155.16 Z "
     id="path24" />
  <path
     stroke="transparent"
     fill="#000000"
     transform="matrix(0.0666667 0 0 0.0666667 3.44441 -41.3333)"
     d="M 616.276,974.939 L 620.174,962.943 L 759.824,1155.16 L 747.211,1155.16 L 616.276,974.939 Z "
     id="path26" />
  <path
     stroke="transparent"
     fill="#000000"
     transform="matrix(0.0666667 0 0 0.0666667 3.44441 -41.3333)"
     d="M 404.42,1043.78 L 399.317,1040.07 L 399.901,1034.51 L 620.174,962.943 L 616.276,974.939 L 404.42,1043.78 Z "
     id="path28" />
  <g
     aria-label="Bn"
     transform="matrix(0.0666667,0,0,0.0666667,45.8679,66.8518)"
     style="font-style:normal;font-variant:normal;font-weight:normal;font-stretch:normal;font-size:160px;line-height:normal;font-family:Arial;fill:#000000"
     id="text30">
    <path
       d="M 11.71875,0 V -114.53125 H 54.6875 q 13.125,0 21.015625,3.51562 7.96875,3.4375 12.421875,10.70313 4.53125,7.1875 4.53125,15.078125 0,7.34375 -3.984375,13.828125 -3.984375,6.484375 -12.03125,10.46875 10.390625,3.046875 15.9375,10.390625 5.625,7.34375 5.625,17.34375 0,8.046875 -3.4375,15 -3.359375,6.875 -8.359375,10.625 -5,3.75 -12.578125,5.703125 Q 66.328125,0 55.390625,0 Z M 26.875,-66.40625 h 24.765625 q 10.078125,0 14.453125,-1.328125 5.78125,-1.71875 8.671875,-5.703125 2.96875,-3.984375 2.96875,-10 0,-5.703125 -2.734375,-10 -2.734375,-4.375 -7.8125,-5.9375 -5.078125,-1.64063 -17.421875,-1.64063 H 26.875 Z m 0,52.890625 h 28.515625 q 7.34375,0 10.3125,-0.546875 5.234375,-0.9375 8.75,-3.125 3.515625,-2.1875 5.78125,-6.328125 2.265625,-4.21875 2.265625,-9.6875 0,-6.40625 -3.28125,-11.09375 -3.28125,-4.765625 -9.140625,-6.640625 -5.78125,-1.953125 -16.71875,-1.953125 H 26.875 Z"
       style="font-style:normal;font-variant:normal;font-weight:normal;font-stretch:normal;font-size:160px;line-height:normal;font-family:Arial;fill:#000000"
       id="path986"
       inkscape:connector-curvature="0" />
    <path
       d="m 117.42188,0 v -82.96875 h 12.65624 v 11.796875 q 9.14063,-13.671875 26.40625,-13.671875 7.5,0 13.75,2.734375 6.32813,2.65625 9.45313,7.03125 3.125,4.375 4.375,10.390625 0.78125,3.90625 0.78125,13.671875 V 0 h -14.0625 v -50.46875 q 0,-8.59375 -1.64063,-12.8125 -1.64062,-4.296875 -5.85937,-6.796875 -4.14063,-2.578125 -9.76563,-2.578125 -8.98437,0 -15.54687,5.703125 -6.48438,5.703125 -6.48438,21.640625 V 0 Z"
       style="font-style:normal;font-variant:normal;font-weight:normal;font-stretch:normal;font-size:160px;line-height:normal;font-family:Arial;fill:#000000"
       id="path988"
       inkscape:connector-curvature="0" />
  </g>
  <path
     stroke="transparent"
     fill="#000000"
     transform="matrix(0.0666667 0 0 0.0666667 3.44441 -41.3333)"
     d="M 667.708,1477.15 L 658.003,1480.3 L 643.73,1436.38 L 653.435,1433.22 L 667.708,1477.15 Z "
     id="path32" />
  <g
     aria-label="O"
     transform="matrix(0.0666667,0,0,0.0666667,64.8904,39.8437)"
     style="font-style:normal;font-variant:normal;font-weight:normal;font-stretch:normal;font-size:160px;line-height:normal;font-family:Arial;fill:#000000"
     id="text34">
    <path
       d="m 7.734375,-55.78125 q 0,-28.515625 15.3125,-44.60938 15.3125,-16.17187 39.53125,-16.17187 15.859375,0 28.59375,7.57812 12.734375,7.57813 19.375005,21.17188 6.71875,13.515625 6.71875,30.703125 0,17.421875 -7.03125,31.171875 -7.03125,13.75 -19.92188,20.859375 -12.890625,7.03125 -27.8125,7.03125 -16.171875,0 -28.90625,-7.8125 -12.734375,-7.8125 -19.296875,-21.328125 -6.5625,-13.515625 -6.5625,-28.59375 z m 15.625,0.234375 q 0,20.703125 11.09375,32.65625 11.171875,11.875 27.96875,11.875 17.109375,0 28.125,-12.03125 11.093755,-12.03125 11.093755,-34.140625 0,-13.984375 -4.76563,-24.375 -4.6875,-10.46875 -13.828125,-16.171875 -9.0625,-5.781255 -20.390625,-5.781255 -16.09375,0 -27.734375,11.093755 -11.5625,11.015625 -11.5625,36.875 z"
       style="font-style:normal;font-variant:normal;font-weight:normal;font-stretch:normal;font-size:160px;line-height:normal;font-family:Arial;fill:#000000"
       id="path991"
       inkscape:connector-curvature="0" />
  </g>
  <path
     stroke="transparent"
     fill="#000000"
     transform="matrix(0.0666667 0 0 0.0666667 3.44441 -41.3333)"
     d="M 903.691,1129.34 L 903.691,1139.54 L 738.467,1139.54 L 738.467,1129.34 L 903.691,1129.34 Z "
     id="path36" />
  <path
     stroke="transparent"
     fill="#000000"
     transform="matrix(0.0666667 0 0 0.0666667 3.44441 -41.3333)"
     d="M 903.691,1170.77 L 903.691,1180.97 L 738.466,1180.97 L 738.466,1170.77 L 903.691,1170.77 Z "
     id="path38" />
  <g
     aria-label="O"
     transform="matrix(0.0666667,0,0,0.0666667,45.2679,12.8356)"
     style="font-style:normal;font-variant:normal;font-weight:normal;font-stretch:normal;font-size:160px;line-height:normal;font-family:Arial;fill:#000000"
     id="text40">
    <path
       d="m 7.734375,-55.78125 q 0,-28.515625 15.3125,-44.60938 15.3125,-16.17187 39.53125,-16.17187 15.859375,0 28.59375,7.57812 12.734375,7.57813 19.375005,21.17188 6.71875,13.515625 6.71875,30.703125 0,17.421875 -7.03125,31.171875 -7.03125,13.75 -19.92188,20.859375 -12.890625,7.03125 -27.8125,7.03125 -16.171875,0 -28.90625,-7.8125 -12.734375,-7.8125 -19.296875,-21.328125 -6.5625,-13.515625 -6.5625,-28.59375 z m 15.625,0.234375 q 0,20.703125 11.09375,32.65625 11.171875,11.875 27.96875,11.875 17.109375,0 28.125,-12.03125 11.093755,-12.03125 11.093755,-34.140625 0,-13.984375 -4.76563,-24.375 -4.6875,-10.46875 -13.828125,-16.171875 -9.0625,-5.781255 -20.390625,-5.781255 -16.09375,0 -27.734375,11.093755 -11.5625,11.015625 -11.5625,36.875 z"
       style="font-style:normal;font-variant:normal;font-weight:normal;font-stretch:normal;font-size:160px;line-height:normal;font-family:Arial;fill:#000000"
       id="path994"
       inkscape:connector-curvature="0" />
  </g>
  <path
     stroke="transparent"
     fill="#000000"
     transform="matrix(0.0666667 0 0 0.0666667 3.44441 -41.3333)"
     d="M 636.473,829.23 L 646.178,832.384 L 598.725,978.431 L 589.02,975.277 L 636.473,829.23 Z "
     id="path42" />
  <path
     stroke="transparent"
     fill="#000000"
     transform="matrix(0.0666667 0 0 0.0666667 3.44441 -41.3333)"
     d="M 675.877,842.033 L 685.582,845.187 L 638.128,991.234 L 628.423,988.08 L 675.877,842.033 Z "
     id="path44" />
  <path
     stroke="transparent"
     fill="#000000"
     transform="matrix(0.0666667 0 0 0.0666667 3.44441 -41.3333)"
     d="M 1835.32,1168.15 L 1254.94,1168.15 L 1254.94,1158.15 L 1835.32,1158.15 Z "
     id="path46" />
  <path
     stroke="transparent"
     fill="#000000"
     transform="matrix(0.0666667 0 0 0.0666667 3.44441 -41.3333)"
     d="M 1923.61,1163.15 C 1923.61,1163.15 1821.57,1189.66 1821.57,1189.66 C 1821.57,1189.66 1834.32,1174.75 1834.32,1163.15 C 1834.32,1151.11 1821.57,1135.64 1821.57,1135.64 C 1821.57,1135.64 1923.61,1163.15 1923.61,1163.15 C 1923.61,1163.15 1923.61,1163.15 1923.61,1163.15 "
     id="path48" />
  <path
     stroke="#000000"
     stroke-width="1"
     fill="transparent"
     transform="matrix(0.0666667 0 0 0.0666667 3.44441 -41.3333)"
     d="M 1923.61,1163.15 C 1923.61,1163.15 1821.57,1189.66 1821.57,1189.66 C 1821.57,1189.66 1834.32,1174.75 1834.32,1163.15 C 1834.32,1151.11 1821.57,1135.64 1821.57,1135.64 C 1821.57,1135.64 1923.61,1163.15 1923.61,1163.15 C 1923.61,1163.15 1923.61,1163.15 1923.61,1163.15 "
     id="path50" />
  <g
     aria-label="RMgX"
     transform="matrix(0.0666667,0,0,0.0666667,91.9055,31.9581)"
     style="font-style:normal;font-variant:normal;font-weight:normal;font-stretch:normal;font-size:160px;line-height:normal;font-family:Arial;fill:#cc79a7"
     id="text52">
    <path
       d="m 12.578125,0 v -114.53125 h 50.78125 q 15.3125,0 23.28125,3.125 7.96875,3.04687 12.734375,10.85937 4.76563,7.812505 4.76563,17.26563 0,12.1875 -7.89063,20.546875 -7.890625,8.359375 -24.375,10.625 6.015625,2.890625 9.140625,5.703125 6.640625,6.09375 12.578125,15.234375 L 113.51563,0 H 94.453125 l -15.15625,-23.828125 q -6.640625,-10.3125 -10.9375,-15.78125 -4.296875,-5.46875 -7.734375,-7.65625 -3.359375,-2.1875 -6.875,-3.046875 -2.578125,-0.546875 -8.4375,-0.546875 H 27.734375 V 0 Z m 15.15625,-63.984375 H 60.3125 q 10.390625,0 16.25,-2.109375 5.859375,-2.1875 8.90625,-6.875 3.046875,-4.765625 3.046875,-10.3125 0,-8.125 -5.9375,-13.359375 Q 76.71875,-101.875 63.984375,-101.875 h -36.25 z"
       style="font-style:normal;font-variant:normal;font-weight:normal;font-stretch:normal;font-size:160px;line-height:normal;font-family:Arial;fill:#cc79a7"
       id="path997"
       inkscape:connector-curvature="0" />
    <path
       d="m 127.5,0 v -114.53125 h 22.8125 l 27.10937,81.09375 q 3.75,11.328125 5.46875,16.953125 1.95313,-6.25 6.09375,-18.359375 l 27.42188,-79.6875 h 20.39062 V 0 H 222.1875 V -95.859375 L 188.90625,0 h -13.67188 l -33.125,-97.5 V 0 Z"
       style="font-style:normal;font-variant:normal;font-weight:normal;font-stretch:normal;font-size:160px;line-height:normal;font-family:Arial;fill:#cc79a7"
       id="path999"
       inkscape:connector-curvature="0" />
    <path
       d="m 257.03125,6.875 13.67187,2.03125 q 0.85938,6.328125 4.76563,9.21875 5.23437,3.90625 14.29687,3.90625 9.76563,0 15.07813,-3.90625 5.3125,-3.90625 7.1875,-10.9375 1.09375,-4.296875 1.01562,-18.046875 Q 303.82812,0 290.07812,0 q -17.10937,0 -26.48437,-12.34375 -9.375,-12.34375 -9.375,-29.609375 0,-11.875 4.29687,-21.875 4.29688,-10.078125 12.42188,-15.546875 8.20312,-5.46875 19.21875,-5.46875 14.6875,0 24.21875,11.875 v -10 h 12.96875 V -11.25 q 0,19.375 -3.98438,27.421875 -3.90625,8.125 -12.5,12.8125 -8.51562,4.6875 -21.01562,4.6875 -14.84375,0 -23.98438,-6.71875 Q 256.71875,20.3125 257.03125,6.875 Z m 11.64062,-49.84375 q 0,16.328125 6.48438,23.828125 6.48437,7.5 16.25,7.5 9.6875,0 16.25,-7.421875 6.5625,-7.5 6.5625,-23.4375 0,-15.234375 -6.79688,-22.96875 -6.71875,-7.734375 -16.25,-7.734375 -9.375,0 -15.9375,7.65625 -6.5625,7.578125 -6.5625,22.578125 z"
       style="font-style:normal;font-variant:normal;font-weight:normal;font-stretch:normal;font-size:160px;line-height:normal;font-family:Arial;fill:#cc79a7"
       id="path1001"
       inkscape:connector-curvature="0" />
    <path
       d="m 338.82812,0 44.29688,-59.6875 -39.0625,-54.84375 h 18.04687 l 20.78125,29.375 q 6.48438,9.140625 9.21875,14.0625 3.82813,-6.25 9.0625,-13.046875 l 23.04688,-30.390625 h 16.48437 L 400.46875,-60.546875 443.82812,0 h -18.75 L 396.25,-40.859375 q -2.42188,-3.515625 -5,-7.65625 -3.82813,6.25 -5.46875,8.59375 L 357.03125,0 Z"
       style="font-style:normal;font-variant:normal;font-weight:normal;font-stretch:normal;font-size:160px;line-height:normal;font-family:Arial;fill:#cc79a7"
       id="path1003"
       inkscape:connector-curvature="0" />
  </g>
  <path
     stroke="transparent"
     d="m 144.62448,43.153409 -0.68,0.392667 V 27.808068 l 0.68,0.392667 z"
     id="path54"
     inkscape:connector-curvature="0"
     style="fill:#000000;stroke-width:0.0666667" />
  <path
     stroke="transparent"
     d="m 147.38648,41.754742 h -0.68 v -12.15534 h 0.68 z"
     id="path56"
     inkscape:connector-curvature="0"
     style="fill:#000000;stroke-width:0.0666667" />
  <path
     stroke="transparent"
     d="m 157.57382,50.629413 v 0.785333 l -13.62934,-7.86867 0.68,-0.392667 z"
     id="path58"
     inkscape:connector-curvature="0"
     style="fill:#000000;stroke-width:0.0666667" />
  <path
     stroke="transparent"
     d="m 170.52249,43.153409 0.34,0.196 0.0387,0.370667 -13.32734,7.69467 v -0.785333 z"
     id="path60"
     inkscape:connector-curvature="0"
     style="fill:#000000;stroke-width:0.0666667" />
  <path
     stroke="transparent"
     d="m 167.93049,41.460075 0.34,0.589333 -10.52667,6.078003 -0.34067,-0.589333 z"
     id="path62"
     inkscape:connector-curvature="0"
     style="fill:#000000;stroke-width:0.0666667" />
  <path
     stroke="transparent"
     d="m 170.52249,28.200735 0.34,-0.196 0.34,0.247333 v 14.850008 l -0.34,0.247333 -0.34,-0.196 z"
     id="path64"
     inkscape:connector-curvature="0"
     style="fill:#000000;stroke-width:0.0666667" />
  <path
     stroke="transparent"
     d="m 157.57382,20.724998 v -0.785534 l 13.32734,7.694604 -0.0387,0.370667 -0.34,0.196 z"
     id="path66"
     inkscape:connector-curvature="0"
     style="fill:#000000;stroke-width:0.0666667" />
  <path
     stroke="transparent"
     d="m 157.40315,23.816133 0.34067,-0.589134 10.52667,6.077736 -0.34,0.589334 z"
     id="path68"
     inkscape:connector-curvature="0"
     style="fill:#000000;stroke-width:0.0666667" />
  <path
     stroke="transparent"
     d="m 144.62448,28.200735 -0.68,-0.392667 13.62934,-7.868604 v 0.785534 z"
     id="path70"
     inkscape:connector-curvature="0"
     style="fill:#000000;stroke-width:0.0666667" />
  <g
     aria-label="N"
     transform="matrix(0.0666667,0,0,0.0666667,181.623,52.2579)"
     style="font-style:normal;font-variant:normal;font-weight:normal;font-stretch:normal;font-size:160px;line-height:normal;font-family:Arial;fill:#000000"
     id="text72">
    <path
       d="m 12.1875,0 v -114.53125 h 15.546875 l 60.15625,89.921875 V -114.53125 H 102.42188 V 0 H 86.875 L 26.71875,-90 V 0 Z"
       style="font-style:normal;font-variant:normal;font-weight:normal;font-stretch:normal;font-size:160px;line-height:normal;font-family:Arial;fill:#000000"
       id="path1006"
       inkscape:connector-curvature="0" />
  </g>
  <path
     stroke="transparent"
     d="m 180.3185,46.064077 -0.21,0.647334 -9.20734,-2.991335 -0.0387,-0.370667 0.34,-0.247333 z"
     id="path74"
     inkscape:connector-curvature="0"
     style="fill:#000000;stroke-width:0.0666667" />
  <path
     stroke="transparent"
     d="m 194.05517,35.677405 h 0.84133 l -5.552,7.640671 -0.55,-0.399334 z"
     id="path76"
     inkscape:connector-curvature="0"
     style="fill:#000000;stroke-width:0.0666667" />
  <path
     stroke="transparent"
     d="m 185.3265,23.662666 0.13,-0.399867 0.45533,0.04787 8.98467,12.366739 h -0.84133 z"
     id="path78"
     inkscape:connector-curvature="0"
     style="fill:#000000;stroke-width:0.0666667" />
  <path
     stroke="transparent"
     d="m 171.20249,28.252068 -0.34,-0.247333 0.0387,-0.370667 14.15867,-4.600136 0.39667,0.228867 -0.13,0.399867 z"
     id="path80"
     inkscape:connector-curvature="0"
     style="fill:#000000;stroke-width:0.0666667" />
  <g
     aria-label="Bn"
     transform="matrix(0.0666667,0,0,0.0666667,186.665,66.8518)"
     style="font-style:normal;font-variant:normal;font-weight:normal;font-stretch:normal;font-size:160px;line-height:normal;font-family:Arial;fill:#000000"
     id="text82">
    <path
       d="M 11.71875,0 V -114.53125 H 54.6875 q 13.125,0 21.015625,3.51562 7.96875,3.4375 12.421875,10.70313 4.53125,7.1875 4.53125,15.078125 0,7.34375 -3.984375,13.828125 -3.984375,6.484375 -12.03125,10.46875 10.390625,3.046875 15.9375,10.390625 5.625,7.34375 5.625,17.34375 0,8.046875 -3.4375,15 -3.359375,6.875 -8.359375,10.625 -5,3.75 -12.578125,5.703125 Q 66.328125,0 55.390625,0 Z M 26.875,-66.40625 h 24.765625 q 10.078125,0 14.453125,-1.328125 5.78125,-1.71875 8.671875,-5.703125 2.96875,-3.984375 2.96875,-10 0,-5.703125 -2.734375,-10 -2.734375,-4.375 -7.8125,-5.9375 -5.078125,-1.64063 -17.421875,-1.64063 H 26.875 Z m 0,52.890625 h 28.515625 q 7.34375,0 10.3125,-0.546875 5.234375,-0.9375 8.75,-3.125 3.515625,-2.1875 5.78125,-6.328125 2.265625,-4.21875 2.265625,-9.6875 0,-6.40625 -3.28125,-11.09375 -3.28125,-4.765625 -9.140625,-6.640625 -5.78125,-1.953125 -16.71875,-1.953125 H 26.875 Z"
       style="font-style:normal;font-variant:normal;font-weight:normal;font-stretch:normal;font-size:160px;line-height:normal;font-family:Arial;fill:#000000"
       id="path1009"
       inkscape:connector-curvature="0" />
    <path
       d="m 117.42188,0 v -82.96875 h 12.65624 v 11.796875 q 9.14063,-13.671875 26.40625,-13.671875 7.5,0 13.75,2.734375 6.32813,2.65625 9.45313,7.03125 3.125,4.375 4.375,10.390625 0.78125,3.90625 0.78125,13.671875 V 0 h -14.0625 v -50.46875 q 0,-8.59375 -1.64063,-12.8125 -1.64062,-4.296875 -5.85937,-6.796875 -4.14063,-2.578125 -9.76563,-2.578125 -8.98437,0 -15.54687,5.703125 -6.48438,5.703125 -6.48438,21.640625 V 0 Z"
       style="font-style:normal;font-variant:normal;font-weight:normal;font-stretch:normal;font-size:160px;line-height:normal;font-family:Arial;fill:#000000"
       id="path1011"
       inkscape:connector-curvature="0" />
  </g>
  <path
     stroke="transparent"
     d="m 188.75517,57.143416 -0.64667,0.21 -0.952,-2.928001 0.64733,-0.210667 z"
     id="path84"
     inkscape:connector-curvature="0"
     style="fill:#000000;stroke-width:0.0666667" />
  <g
     aria-label="O"
     transform="matrix(0.0666667,0,0,0.0666667,205.687,39.8437)"
     style="font-style:normal;font-variant:normal;font-weight:normal;font-stretch:normal;font-size:160px;line-height:normal;font-family:Arial;fill:#000000"
     id="text86">
    <path
       d="m 7.734375,-55.78125 q 0,-28.515625 15.3125,-44.60938 15.3125,-16.17187 39.53125,-16.17187 15.859375,0 28.59375,7.57812 12.734375,7.57813 19.375005,21.17188 6.71875,13.515625 6.71875,30.703125 0,17.421875 -7.03125,31.171875 -7.03125,13.75 -19.92188,20.859375 -12.890625,7.03125 -27.8125,7.03125 -16.171875,0 -28.90625,-7.8125 -12.734375,-7.8125 -19.296875,-21.328125 -6.5625,-13.515625 -6.5625,-28.59375 z m 15.625,0.234375 q 0,20.703125 11.09375,32.65625 11.171875,11.875 27.96875,11.875 17.109375,0 28.125,-12.03125 11.093755,-12.03125 11.093755,-34.140625 0,-13.984375 -4.76563,-24.375 -4.6875,-10.46875 -13.828125,-16.171875 -9.0625,-5.781255 -20.390625,-5.781255 -16.09375,0 -27.734375,11.093755 -11.5625,11.015625 -11.5625,36.875 z"
       style="font-style:normal;font-variant:normal;font-weight:normal;font-stretch:normal;font-size:160px;line-height:normal;font-family:Arial;fill:#000000"
       id="path1014"
       inkscape:connector-curvature="0" />
  </g>
  <path
     stroke="transparent"
     d="m 204.48718,33.956071 v 0.68 H 193.4725 v -0.68 z"
     id="path88"
     inkscape:connector-curvature="0"
     style="fill:#000000;stroke-width:0.0666667" />
  <path
     stroke="transparent"
     d="m 204.48718,36.718072 v 0.680001 H 193.4725 v -0.680001 z"
     id="path90"
     inkscape:connector-curvature="0"
     style="fill:#000000;stroke-width:0.0666667" />
  <g
     aria-label="OH"
     transform="matrix(0.0666667,0,0,0.0666667,192.726,17.1617)"
     style="font-style:normal;font-variant:normal;font-weight:normal;font-stretch:normal;font-size:160px;line-height:normal;font-family:Arial;fill:#000000"
     id="text92">
    <path
       d="m 7.734375,-55.78125 q 0,-28.515625 15.3125,-44.60938 15.3125,-16.17187 39.53125,-16.17187 15.859375,0 28.59375,7.57812 12.734375,7.57813 19.375005,21.17188 6.71875,13.515625 6.71875,30.703125 0,17.421875 -7.03125,31.171875 -7.03125,13.75 -19.92188,20.859375 -12.890625,7.03125 -27.8125,7.03125 -16.171875,0 -28.90625,-7.8125 -12.734375,-7.8125 -19.296875,-21.328125 -6.5625,-13.515625 -6.5625,-28.59375 z m 15.625,0.234375 q 0,20.703125 11.09375,32.65625 11.171875,11.875 27.96875,11.875 17.109375,0 28.125,-12.03125 11.093755,-12.03125 11.093755,-34.140625 0,-13.984375 -4.76563,-24.375 -4.6875,-10.46875 -13.828125,-16.171875 -9.0625,-5.781255 -20.390625,-5.781255 -16.09375,0 -27.734375,11.093755 -11.5625,11.015625 -11.5625,36.875 z"
       style="font-style:normal;font-variant:normal;font-weight:normal;font-stretch:normal;font-size:160px;line-height:normal;font-family:Arial;fill:#000000"
       id="path1017"
       inkscape:connector-curvature="0" />
    <path
       d="m 137.1875,0 v -114.53125 h 15.15625 V -67.5 H 211.875 v -47.03125 h 15.15625 V 0 H 211.875 V -53.984375 H 152.34375 V 0 Z"
       style="font-style:normal;font-variant:normal;font-weight:normal;font-stretch:normal;font-size:160px;line-height:normal;font-family:Arial;fill:#000000"
       id="path1019"
       inkscape:connector-curvature="0" />
  </g>
  <g
     aria-label="R"
     transform="matrix(0.0666667,0,0,0.0666667,178.433,12.4199)"
     style="font-style:normal;font-variant:normal;font-weight:normal;font-stretch:normal;font-size:160px;line-height:normal;font-family:Arial;fill:#cc79a7"
     id="text94">
    <path
       d="m 12.578125,0 v -114.53125 h 50.78125 q 15.3125,0 23.28125,3.125 7.96875,3.04687 12.734375,10.85937 4.76563,7.812505 4.76563,17.26563 0,12.1875 -7.89063,20.546875 -7.890625,8.359375 -24.375,10.625 6.015625,2.890625 9.140625,5.703125 6.640625,6.09375 12.578125,15.234375 L 113.51563,0 H 94.453125 l -15.15625,-23.828125 q -6.640625,-10.3125 -10.9375,-15.78125 -4.296875,-5.46875 -7.734375,-7.65625 -3.359375,-2.1875 -6.875,-3.046875 -2.578125,-0.546875 -8.4375,-0.546875 H 27.734375 V 0 Z m 15.15625,-63.984375 H 60.3125 q 10.390625,0 16.25,-2.109375 5.859375,-2.1875 8.90625,-6.875 3.046875,-4.765625 3.046875,-10.3125 0,-8.125 -5.9375,-13.359375 Q 76.71875,-101.875 63.984375,-101.875 h -36.25 z"
       style="font-style:normal;font-variant:normal;font-weight:normal;font-stretch:normal;font-size:160px;line-height:normal;font-family:Arial;fill:#cc79a7"
       id="path1022"
       inkscape:connector-curvature="0" />
  </g>
  <path
     stroke="transparent"
     d="m 192.27117,16.669196 0.45533,0.505533 -6.81467,6.135937 -0.45533,-0.04787 0.21,-0.647 z"
     id="path96"
     inkscape:connector-curvature="0"
     style="fill:#000000;stroke-width:0.0666667" />
  <path
     stroke="transparent"
     d="m 185.6665,22.615799 -0.21,0.647 -0.39667,-0.228867 -1.804,-8.488404 0.66534,-0.141467 z"
     id="path98"
     inkscape:connector-curvature="0"
     style="fill:#cc79a7;stroke-width:0.0666667" />
  <path
     stroke="transparent"
     fill="#000000"
     transform="matrix(0.0666667 0 0 0.0666667 3.44441 -41.3333)"
     d="M 4552.6,1168.15 L 3334.88,1168.15 L 3334.88,1158.15 L 4552.6,1158.15 Z "
     id="path100" />
  <path
     stroke="transparent"
     fill="#000000"
     transform="matrix(0.0666667 0 0 0.0666667 3.44441 -41.3333)"
     d="M 4640.89,1163.15 C 4640.89,1163.15 4538.85,1189.66 4538.85,1189.66 C 4538.85,1189.66 4551.6,1174.75 4551.6,1163.15 C 4551.6,1151.11 4538.85,1135.64 4538.85,1135.64 C 4538.85,1135.64 4640.89,1163.15 4640.89,1163.15 C 4640.89,1163.15 4640.89,1163.15 4640.89,1163.15 "
     id="path102" />
  <path
     stroke="#000000"
     stroke-width="1"
     fill="transparent"
     transform="matrix(0.0666667 0 0 0.0666667 3.44441 -41.3333)"
     d="M 4640.89,1163.15 C 4640.89,1163.15 4538.85,1189.66 4538.85,1189.66 C 4538.85,1189.66 4551.6,1174.75 4551.6,1163.15 C 4551.6,1151.11 4538.85,1135.64 4538.85,1135.64 C 4538.85,1135.64 4640.89,1163.15 4640.89,1163.15 C 4640.89,1163.15 4640.89,1163.15 4640.89,1163.15 "
     id="path104" />
  <g
     aria-label="1)"
     transform="matrix(0.0666667,0,0,0.0666667,228.3,28.35)"
     style="font-style:normal;font-variant:normal;font-weight:normal;font-stretch:normal;font-size:159.84199524px;line-height:normal;font-family:Arial;fill:#000000"
     id="text106">
    <path
       d="M 59.550509,0 H 45.501896 v -89.520883 q -5.07311,4.838967 -13.346182,9.677933 -8.195024,4.838967 -14.751044,7.25845 v -13.580326 q 11.785226,-5.541397 20.604633,-13.42423 8.819407,-7.882834 12.487655,-15.297374 h 9.053551 z"
       style="font-style:normal;font-variant:normal;font-weight:normal;font-stretch:normal;font-size:159.84199524px;line-height:normal;font-family:Arial;fill:#000000"
       id="path1025"
       inkscape:connector-curvature="0" />
    <path
       d="M 108.72065,33.638623 H 98.652482 q 23.336308,-37.4629676 23.336308,-75.003983 0,-14.672996 -3.35606,-29.111848 -2.65363,-11.707177 -7.41454,-22.47778 -3.04387,-7.024307 -12.565708,-23.414352 h 10.068168 q 14.673,19.590007 21.69731,39.336113 6.00968,17.014431 6.00968,35.589819 0,21.072919 -8.11698,40.74097736 Q 120.27174,18.965627 108.72065,33.638623 Z"
       style="font-style:normal;font-variant:normal;font-weight:normal;font-stretch:normal;font-size:159.84199524px;line-height:normal;font-family:Arial;fill:#000000"
       id="path1027"
       inkscape:connector-curvature="0" />
  </g>
  <g
     aria-label="Cp"
     transform="matrix(0.0666667,0,0,0.0666667,240.736,28.35)"
     style="font-style:normal;font-variant:normal;font-weight:normal;font-stretch:normal;font-size:159.84199524px;line-height:normal;font-family:Arial;fill:#000000"
     id="text108">
    <path
       d="m 93.96961,-40.116595 15.14128,3.824345 q -4.76092,18.653436 -17.170524,28.4874651 -12.33156,9.7559811 -30.204517,9.7559811 -18.497341,0 -30.12647,-7.4925935 Q 20.058297,-13.112039 13.970565,-27.394795 7.9608806,-41.677551 7.9608806,-58.0676 q 0,-17.872957 6.7901634,-31.141092 6.86821,-13.346178 19.433914,-20.214388 12.643752,-6.94626 27.785034,-6.94626 17.170527,0 28.877705,8.74136 11.707173,8.741355 16.312003,24.585068 l -14.907142,3.512154 q -3.980441,-12.487656 -11.551082,-18.185149 -7.570641,-5.697493 -19.043675,-5.697493 -13.190087,0 -22.087541,6.321876 -8.819407,6.321875 -12.409608,17.014431 -3.590202,10.614507 -3.590202,21.931445 0,14.594948 4.214584,25.521647 4.292632,10.848651 13.268135,16.233953 8.975502,5.385301 19.433914,5.385301 12.7218,0 21.541207,-7.336498 8.819407,-7.336497 11.94132,-21.77535 z"
       style="font-style:normal;font-variant:normal;font-weight:normal;font-stretch:normal;font-size:159.84199524px;line-height:normal;font-family:Arial;fill:#000000"
       id="path1030"
       inkscape:connector-curvature="0" />
    <path
       d="M 126.04728,31.765475 V -82.886816 h 12.79985 v 10.770603 q 4.52677,-6.321875 10.22426,-9.443789 5.6975,-3.199962 13.81447,-3.199962 10.61451,0 18.73149,5.463349 8.11697,5.46335 12.25351,15.453474 4.13654,9.912077 4.13654,21.77535 0,12.7218 -4.60483,22.946068 -4.52677,10.1462203 -13.26813,15.6095698 -8.66331,5.3853016 -18.2632,5.3853016 -7.02431,0 -12.64375,-2.9658183 -5.5414,-2.9658183 -9.1316,-7.4925935 V 31.765475 Z m 12.7218,-72.740596 q 0,15.999809 6.47797,23.648498 6.47797,7.6486897 15.68762,7.6486897 9.36574,0 15.99981,-7.8828327 6.71211,-7.960881 6.71211,-24.585073 0,-15.843713 -6.55602,-23.726546 -6.47797,-7.882833 -15.53152,-7.882833 -8.9755,0 -15.92176,8.429168 -6.86821,8.35112 -6.86821,24.350929 z"
       style="font-style:normal;font-variant:normal;font-weight:normal;font-stretch:normal;font-size:159.84199524px;line-height:normal;font-family:Arial;fill:#000000"
       id="path1032"
       inkscape:connector-curvature="0" />
  </g>
  <g
     aria-label="2"
     transform="matrix(0.0666667,0,0,0.0666667,254.358,30.6167)"
     style="font-style:normal;font-variant:normal;font-weight:normal;font-stretch:normal;font-size:119.88200378px;line-height:normal;font-family:Arial;fill:#000000"
     id="text110">
    <path
       d="M 60.350755,-10.126751 V 0 H 3.6292403 q -0.1170722,-3.8048488 1.2292589,-7.3170168 2.165837,-5.7950772 6.9072638,-11.4145462 4.799963,-5.619469 13.814528,-12.995022 13.990136,-11.473082 18.907171,-18.146202 4.917036,-6.731655 4.917036,-12.702341 0,-6.263366 -4.507283,-10.536504 -4.448746,-4.331674 -11.648691,-4.331674 -7.609697,0 -12.175516,4.565818 -4.565818,4.565819 -4.624354,12.643805 L 5.6194689,-61.345869 q 1.1121866,-12.11698 8.3706671,-18.438883 7.258481,-6.380438 19.492533,-6.380438 12.351124,0 19.551069,6.848728 7.199945,6.848727 7.199945,16.975479 0,5.151179 -2.107301,10.126751 -2.107301,4.975571 -7.024336,10.477968 -4.8585,5.502397 -16.21451,15.102323 -9.482854,7.960914 -12.175516,10.829185 -2.692662,2.809734 -4.448746,5.678005 z"
       style="font-style:normal;font-variant:normal;font-weight:normal;font-stretch:normal;font-size:119.88200378px;line-height:normal;font-family:Arial;fill:#000000"
       id="path1035"
       inkscape:connector-curvature="0" />
  </g>
  <g
     aria-label="Zr(H)Cl"
     transform="matrix(0.0666667,0,0,0.0666667,258.803,28.35)"
     style="font-style:normal;font-variant:normal;font-weight:normal;font-stretch:normal;font-size:159.84199524px;line-height:normal;font-family:Arial;fill:#000000"
     id="text112">
    <path
       d="m 3.1999618,0 v -14.048613 l 58.6139352,-73.28693 q 6.243828,-7.804785 11.863273,-13.580327 H 9.834029 v -13.50228 h 81.950242 v 13.50228 l -64.23338,79.374664 -6.946259,8.038928 H 93.657419 V 0 Z"
       style="font-style:normal;font-variant:normal;font-weight:normal;font-stretch:normal;font-size:159.84199524px;line-height:normal;font-family:Arial;fill:#000000"
       id="path1038"
       inkscape:connector-curvature="0" />
    <path
       d="m 108.09627,0 v -82.886816 h 12.64375 v 12.565704 q 4.83897,-8.819407 8.89745,-11.62913 4.13654,-2.809722 9.05356,-2.809722 7.10235,0 14.43885,4.526775 l -4.83897,13.033991 q -5.15116,-3.043866 -10.30232,-3.043866 -4.60482,0 -8.27307,2.809722 -3.66825,2.731675 -5.2292,7.648689 -2.34144,7.492594 -2.34144,16.390049 V 0 Z"
       style="font-style:normal;font-variant:normal;font-weight:normal;font-stretch:normal;font-size:159.84199524px;line-height:normal;font-family:Arial;fill:#000000"
       id="path1040"
       inkscape:connector-curvature="0" />
    <path
       d="M 188.48555,33.638623 Q 176.85642,18.965627 168.81749,-0.70243064 160.77857,-20.370489 160.77857,-41.443408 q 0,-18.575388 6.00968,-35.589819 7.02431,-19.746106 21.6973,-39.336113 h 10.06817 q -9.44379,16.23395 -12.48765,23.180208 -4.76092,10.770603 -7.4926,22.477781 -3.35605,14.594947 -3.35605,29.345991 0,37.5410154 23.3363,75.003983 z"
       style="font-style:normal;font-variant:normal;font-weight:normal;font-stretch:normal;font-size:159.84199524px;line-height:normal;font-family:Arial;fill:#000000"
       id="path1042"
       inkscape:connector-curvature="0" />
    <path
       d="m 217.2852,0 v -114.41815 h 15.14128 v 46.984808 h 59.47246 v -46.984808 h 15.14129 V 0 H 291.89894 V -53.931064 H 232.42648 V 0 Z"
       style="font-style:normal;font-variant:normal;font-weight:normal;font-stretch:normal;font-size:159.84199524px;line-height:normal;font-family:Arial;fill:#000000"
       id="path1044"
       inkscape:connector-curvature="0" />
    <path
       d="m 339.74229,33.638623 h -10.06817 q 23.33631,-37.4629676 23.33631,-75.003983 0,-14.672996 -3.35606,-29.111848 -2.65363,-11.707177 -7.41455,-22.47778 -3.04386,-7.024307 -12.5657,-23.414352 h 10.06817 q 14.673,19.590007 21.6973,39.336113 6.00969,17.014431 6.00969,35.589819 0,21.072919 -8.11698,40.74097736 Q 351.29337,18.965627 339.74229,33.638623 Z"
       style="font-style:normal;font-variant:normal;font-weight:normal;font-stretch:normal;font-size:159.84199524px;line-height:normal;font-family:Arial;fill:#000000"
       id="path1046"
       inkscape:connector-curvature="0" />
    <path
       d="m 467.35053,-40.116595 15.14128,3.824345 q -4.76092,18.653436 -17.17052,28.4874651 -12.33156,9.7559811 -30.20452,9.7559811 -18.49734,0 -30.12647,-7.4925935 -11.55108,-7.5706417 -17.63881,-21.8533977 -6.00969,-14.282756 -6.00969,-30.672805 0,-17.872957 6.79016,-31.141092 6.86821,-13.346178 19.43392,-20.214388 12.64375,-6.94626 27.78503,-6.94626 17.17053,0 28.87771,8.74136 11.70717,8.741355 16.312,24.585068 l -14.90714,3.512154 q -3.98044,-12.487656 -11.55108,-18.185149 -7.57064,-5.697493 -19.04368,-5.697493 -13.19009,0 -22.08754,6.321876 -8.81941,6.321875 -12.40961,17.014431 -3.5902,10.614507 -3.5902,21.931445 0,14.594948 4.21458,25.521647 4.29264,10.848651 13.26814,16.233953 8.9755,5.385301 19.43391,5.385301 12.7218,0 21.54121,-7.336498 8.81941,-7.336497 11.94132,-21.77535 z"
       style="font-style:normal;font-variant:normal;font-weight:normal;font-stretch:normal;font-size:159.84199524px;line-height:normal;font-family:Arial;fill:#000000"
       id="path1048"
       inkscape:connector-curvature="0" />
    <path
       d="M 499.11599,0 V -114.41815 H 513.1646 V 0 Z"
       style="font-style:normal;font-variant:normal;font-weight:normal;font-stretch:normal;font-size:159.84199524px;line-height:normal;font-family:Arial;fill:#000000"
       id="path1050"
       inkscape:connector-curvature="0" />
  </g>
  <path
     stroke="transparent"
     d="M 4892.19,1267.3 L 4881.98,1273.19 L 4881.98,1037.12 L 4892.19,1043.01 L 4892.19,1267.3 Z "
     id="path114"
     transform="matrix(0.0666667 0 0 0.0666667 3.44441 -41.3333)"
     fill="#000000" />
  <path
     stroke="transparent"
     fill="#000000"
     transform="matrix(0.0666667 0 0 0.0666667 3.44441 -41.3333)"
     d="M 4933.62,1246.32 L 4923.41,1246.32 L 4923.41,1063.99 L 4933.62,1063.99 L 4933.62,1246.32 Z "
     id="path116" />
  <path
     stroke="transparent"
     fill="#000000"
     transform="matrix(0.0666667 0 0 0.0666667 3.44441 -41.3333)"
     d="M 5086.42,1379.44 L 5086.42,1391.22 L 4881.98,1273.19 L 4892.19,1267.3 L 5086.42,1379.44 Z "
     id="path118" />
  <path
     stroke="transparent"
     fill="#000000"
     transform="matrix(0.0666667 0 0 0.0666667 3.44441 -41.3333)"
     d="M 5280.65,1267.3 L 5285.76,1270.24 L 5286.34,1275.8 L 5086.42,1391.22 L 5086.42,1379.44 L 5280.65,1267.3 Z "
     id="path120" />
  <path
     stroke="transparent"
     fill="#000000"
     transform="matrix(0.0666667 0 0 0.0666667 3.44441 -41.3333)"
     d="M 5241.77,1241.9 L 5246.88,1250.74 L 5088.97,1341.91 L 5083.87,1333.07 L 5241.77,1241.9 Z "
     id="path122" />
  <path
     stroke="transparent"
     fill="#000000"
     transform="matrix(0.0666667 0 0 0.0666667 3.44441 -41.3333)"
     d="M 5280.65,1043.01 L 5285.76,1040.07 L 5290.86,1043.78 L 5290.86,1266.53 L 5285.76,1270.24 L 5280.65,1267.3 L 5280.65,1043.01 Z "
     id="path124" />
  <path
     stroke="transparent"
     fill="#000000"
     transform="matrix(0.0666667 0 0 0.0666667 3.44441 -41.3333)"
     d="M 5086.42,930.874 L 5086.42,919.091 L 5286.34,1034.51 L 5285.76,1040.07 L 5280.65,1043.01 L 5086.42,930.874 Z "
     id="path126" />
  <path
     stroke="transparent"
     fill="#000000"
     transform="matrix(0.0666667 0 0 0.0666667 3.44441 -41.3333)"
     d="M 5083.87,977.241 L 5088.97,968.404 L 5246.88,1059.57 L 5241.77,1068.41 L 5083.87,977.241 Z "
     id="path128" />
  <path
     stroke="transparent"
     fill="#000000"
     transform="matrix(0.0666667 0 0 0.0666667 3.44441 -41.3333)"
     d="M 4892.19,1043.01 L 4881.98,1037.12 L 5086.42,919.091 L 5086.42,930.874 L 4892.19,1043.01 Z "
     id="path130" />
  <g
     aria-label="N"
     transform="matrix(0.0666667,0,0,0.0666667,366.589,52.2579)"
     style="font-style:normal;font-variant:normal;font-weight:normal;font-stretch:normal;font-size:159px;line-height:normal;font-family:Arial;fill:#000000"
     id="text132">
    <path
       d="m 12.111328,0 v -113.81543 h 15.449707 l 59.780274,89.359864 V -113.81543 H 101.78174 V 0 H 86.332031 L 26.551758,-89.4375 V 0 Z"
       style="font-style:normal;font-variant:normal;font-weight:normal;font-stretch:normal;font-size:159px;line-height:normal;font-family:Arial;fill:#000000"
       id="path1053"
       inkscape:connector-curvature="0" />
  </g>
  <path
     stroke="transparent"
     fill="#000000"
     transform="matrix(0.0666667 0 0 0.0666667 3.44441 -41.3333)"
     d="M 5427.65,1310.98 L 5424.49,1320.68 L 5286.34,1275.8 L 5285.76,1270.24 L 5290.86,1266.53 L 5427.65,1310.98 Z "
     id="path134" />
  <path
     stroke="transparent"
     fill="#000000"
     transform="matrix(0.0666667 0 0 0.0666667 3.44441 -41.3333)"
     d="M 5633.65,1155.16 L 5639.96,1155.16 L 5642.56,1160.26 L 5563.04,1269.7 L 5554.78,1263.71 L 5633.65,1155.16 Z "
     id="path136" />
  <path
     stroke="transparent"
     fill="#000000"
     transform="matrix(0.0666667 0 0 0.0666667 3.44441 -41.3333)"
     d="M 5502.72,974.939 L 5504.66,968.941 L 5510.32,968.045 L 5642.56,1150.05 L 5639.96,1155.16 L 5633.65,1155.16 L 5502.72,974.939 Z "
     id="path138" />
  <path
     stroke="transparent"
     fill="#000000"
     transform="matrix(0.0666667 0 0 0.0666667 3.44441 -41.3333)"
     d="M 5484.71,1020.65 L 5492.97,1014.65 L 5592.87,1152.16 L 5584.62,1158.15 L 5484.71,1020.65 Z "
     id="path140" />
  <path
     stroke="transparent"
     fill="#000000"
     transform="matrix(0.0666667 0 0 0.0666667 3.44441 -41.3333)"
     d="M 5290.86,1043.78 L 5285.76,1040.07 L 5286.34,1034.51 L 5500.61,964.892 L 5504.66,968.941 L 5502.72,974.939 L 5290.86,1043.78 Z "
     id="path142" />
  <g
     aria-label="Bn"
     transform="matrix(0.0666667,0,0,0.0666667,371.63,66.8518)"
     style="font-style:normal;font-variant:normal;font-weight:normal;font-stretch:normal;font-size:159px;line-height:normal;font-family:Arial;fill:#000000"
     id="text144">
    <path
       d="m 11.645508,0 v -113.81543 h 42.700195 q 13.042969,0 20.884277,3.49365 7.918946,3.41602 12.344239,10.636233 4.502929,7.142578 4.502929,14.983887 0,7.297851 -3.959472,13.741699 -3.959473,6.443848 -11.956055,10.40332 10.325684,3.027832 15.837891,10.325684 5.589843,7.297852 5.589843,17.235352 0,7.996582 -3.416015,14.90625 -3.338379,6.832031 -8.307129,10.5585933 -4.96875,3.7265625 -12.499512,5.6674805 Q 65.913574,0 55.044434,0 Z m 15.061523,-65.991211 h 24.61084 q 10.015137,0 14.362793,-1.319824 5.745117,-1.708008 8.617676,-5.667481 2.950195,-3.959472 2.950195,-9.9375 0,-5.66748 -2.717285,-9.9375 -2.717285,-4.347656 -7.763672,-5.90039 -5.046387,-1.630374 -17.312988,-1.630374 H 26.707031 Z m 0,52.560059 h 28.337403 q 7.297851,0 10.248046,-0.543457 5.201661,-0.931641 8.695313,-3.105469 3.493652,-2.173828 5.745117,-6.288574 2.251465,-4.192383 2.251465,-9.626953 0,-6.366211 -3.260742,-11.024415 -3.260742,-4.735839 -9.083496,-6.599121 -5.745117,-1.940918 -16.614258,-1.940918 H 26.707031 Z"
       style="font-style:normal;font-variant:normal;font-weight:normal;font-stretch:normal;font-size:159px;line-height:normal;font-family:Arial;fill:#000000"
       id="path1056"
       inkscape:connector-curvature="0" />
    <path
       d="m 116.68799,0 v -82.450195 h 12.57715 v 11.723144 q 9.08349,-13.586426 26.24121,-13.586426 7.45312,0 13.66406,2.717286 6.28857,2.639648 9.39404,6.987304 3.10547,4.347657 4.34766,10.325684 0.77637,3.881836 0.77637,13.586426 V 0 h -13.97461 v -50.15332 q 0,-8.540039 -1.63037,-12.732422 -1.63038,-4.27002 -5.82276,-6.754395 -4.11474,-2.562011 -9.70459,-2.562011 -8.92822,0 -15.4497,5.66748 -6.44385,5.667481 -6.44385,21.505371 V 0 Z"
       style="font-style:normal;font-variant:normal;font-weight:normal;font-stretch:normal;font-size:159px;line-height:normal;font-family:Arial;fill:#000000"
       id="path1058"
       inkscape:connector-curvature="0" />
  </g>
  <path
     stroke="transparent"
     fill="#000000"
     transform="matrix(0.0666667 0 0 0.0666667 3.44441 -41.3333)"
     d="M 5553.9,1476.4 L 5544.2,1479.55 L 5530.12,1436.24 L 5539.83,1433.08 L 5553.9,1476.4 Z "
     id="path146" />
  <g
     aria-label="Nu"
     transform="matrix(0.0666667,0,0,0.0666667,390.953,39.8437)"
     style="font-style:normal;font-variant:normal;font-weight:normal;font-stretch:normal;font-size:159px;line-height:normal;font-family:Arial;fill:#009e73"
     id="text148">
    <path
       d="m 12.111328,0 v -113.81543 h 15.449707 l 59.780274,89.359864 V -113.81543 H 101.78174 V 0 H 86.332031 L 26.551758,-89.4375 V 0 Z"
       style="font-style:normal;font-variant:normal;font-weight:normal;font-stretch:normal;font-size:159px;line-height:normal;font-family:Arial;fill:#009e73"
       id="path1061"
       inkscape:connector-curvature="0" />
    <path
       d="m 179.41846,0 v -12.111328 q -9.62696,13.9746092 -26.16358,13.9746092 -7.29785,0 -13.66406,-2.79492183 -6.28857,-2.79492187 -9.39404,-6.98730467 -3.02783,-4.2700197 -4.27002,-10.4033207 -0.85401,-4.114746 -0.85401,-13.042968 v -51.084961 h 13.97461 v 45.728027 q 0,10.946777 0.85401,14.750977 1.31982,5.512207 5.58984,8.695312 4.27002,3.105469 10.55859,3.105469 6.28858,0 11.80079,-3.183106 5.5122,-3.260742 7.76367,-8.772949 2.3291,-5.589844 2.3291,-16.148437 v -44.175293 h 13.97461 V 0 Z"
       style="font-style:normal;font-variant:normal;font-weight:normal;font-stretch:normal;font-size:159px;line-height:normal;font-family:Arial;fill:#009e73"
       id="path1063"
       inkscape:connector-curvature="0" />
  </g>
  <path
     stroke="transparent"
     fill="#009e73"
     transform="matrix(0.0666667 0 0 0.0666667 3.44441 -41.3333)"
     d="M 5799.63,1150.05 L 5799.63,1160.26 L 5642.56,1160.26 L 5639.96,1155.16 L 5642.56,1150.05 L 5799.63,1150.05 Z "
     id="path150" />
  <g
     aria-label="R"
     transform="matrix(0.0666667,0,0,0.0666667,371.33,12.8356)"
     style="font-style:normal;font-variant:normal;font-weight:normal;font-stretch:normal;font-size:159px;line-height:normal;font-family:Arial;fill:#cc79a7"
     id="text152">
    <path
       d="m 12.499512,0 v -113.81543 h 50.463867 q 15.216797,0 23.135742,3.10547 7.918945,3.02783 12.654785,10.791503 4.735844,7.763672 4.735844,17.157715 0,12.111328 -7.841313,20.418457 -7.841308,8.307129 -24.222656,10.558594 5.978028,2.872558 9.083496,5.66748 6.599121,6.055664 12.499512,15.13916 L 112.80615,0 H 93.862793 L 78.80127,-23.679199 q -6.599122,-10.248047 -10.869141,-15.682617 -4.27002,-5.434571 -7.686035,-7.608399 -3.338379,-2.173828 -6.832032,-3.027832 -2.562011,-0.543457 -8.384765,-0.543457 H 27.561035 V 0 Z m 15.061523,-63.584473 h 32.374512 q 10.325683,0 16.148437,-2.096191 5.822754,-2.173828 8.850586,-6.832031 3.027832,-4.73584 3.027832,-10.248047 0,-8.074219 -5.90039,-13.275879 -5.822754,-5.201659 -18.477539,-5.201659 H 27.561035 Z"
       style="font-style:normal;font-variant:normal;font-weight:normal;font-stretch:normal;font-size:159px;line-height:normal;font-family:Arial;fill:#cc79a7"
       id="path1066"
       inkscape:connector-curvature="0" />
  </g>
  <path
     stroke="transparent"
     fill="#cc79a7"
     transform="matrix(0.0666667 0 0 0.0666667 3.44441 -41.3333)"
     d="M 5540.53,842.04 L 5550.24,845.194 L 5510.32,968.045 L 5504.66,968.941 L 5500.61,964.892 L 5540.53,842.04 Z "
     id="path154" />
  <g
     aria-label="2)"
     transform="matrix(0.0666667,0,0,0.0666667,228.3,52.7227)"
     style="font-style:normal;font-variant:normal;font-weight:normal;font-stretch:normal;font-size:159.84199524px;line-height:normal;font-family:Arial;fill:#000000"
     id="text156">
    <path
       d="M 80.467333,-13.502278 V 0 H 4.8389667 Q 4.682871,-5.0731102 6.4779715,-9.7559812 9.3657419,-17.482718 15.687618,-24.975312 q 6.399923,-7.492593 18.419292,-17.326622 18.653436,-15.297379 25.209455,-24.194834 6.55602,-8.975502 6.55602,-16.936383 0,-8.35112 -6.009685,-14.048613 -5.931636,-5.775536 -15.531522,-5.775536 -10.14622,0 -16.233952,6.087728 -6.087733,6.087732 -6.16578,16.858335 L 7.4925935,-81.794146 q 1.4829092,-16.155905 11.1608425,-24.585074 9.677933,-8.50721 25.989934,-8.50721 16.468096,0 26.067981,9.13159 9.599886,9.131603 9.599886,22.633881 0,6.86821 -2.809723,13.502277 -2.809722,6.634068 -9.365742,13.970565 -6.477971,7.336498 -21.619254,20.136346 -12.643751,10.614507 -16.233952,14.438852 -3.590202,3.746296 -5.931637,7.570641 z"
       style="font-style:normal;font-variant:normal;font-weight:normal;font-stretch:normal;font-size:159.84199524px;line-height:normal;font-family:Arial;fill:#000000"
       id="path1069"
       inkscape:connector-curvature="0" />
    <path
       d="M 108.72065,33.638623 H 98.652482 q 23.336308,-37.4629676 23.336308,-75.003983 0,-14.672996 -3.35606,-29.111848 -2.65363,-11.707177 -7.41454,-22.47778 -3.04387,-7.024307 -12.565708,-23.414352 h 10.068168 q 14.673,19.590007 21.69731,39.336113 6.00968,17.014431 6.00968,35.589819 0,21.072919 -8.11698,40.74097736 Q 120.27174,18.965627 108.72065,33.638623 Z"
       style="font-style:normal;font-variant:normal;font-weight:normal;font-stretch:normal;font-size:159.84199524px;line-height:normal;font-family:Arial;fill:#000000"
       id="path1071"
       inkscape:connector-curvature="0" />
  </g>
  <g
     aria-label="TFA,"
     transform="matrix(0.0666667,0,0,0.0666667,240.736,52.7227)"
     style="font-style:normal;font-variant:normal;font-weight:normal;font-stretch:normal;font-size:159.84199524px;line-height:normal;font-family:Arial;fill:#000000"
     id="text158">
    <path
       d="M 41.443408,0 V -100.91587 H 3.7462968 v -13.50228 H 94.437898 v 13.50228 H 56.584691 V 0 Z"
       style="font-style:normal;font-variant:normal;font-weight:normal;font-stretch:normal;font-size:159.84199524px;line-height:normal;font-family:Arial;fill:#000000"
       id="path1074"
       inkscape:connector-curvature="0" />
    <path
       d="m 110.82794,0 v -114.41815 h 77.18933 v 13.50228 h -62.04804 v 35.433724 h 53.69692 v 13.502278 H 125.96923 V 0 Z"
       style="font-style:normal;font-variant:normal;font-weight:normal;font-stretch:normal;font-size:159.84199524px;line-height:normal;font-family:Arial;fill:#000000"
       id="path1076"
       inkscape:connector-curvature="0" />
    <path
       d="m 186.45632,0 43.94094,-114.41815 h 16.312 L 293.53797,0 H 276.28939 L 262.94321,-34.653245 H 215.09988 L 202.53417,0 Z m 33.01424,-46.984805 h 38.78978 l -11.94132,-31.687427 q -5.46335,-14.438852 -8.11698,-23.726548 -2.18534,11.004749 -6.16578,21.8534 z"
       style="font-style:normal;font-variant:normal;font-weight:normal;font-stretch:normal;font-size:159.84199524px;line-height:normal;font-family:Arial;fill:#000000"
       id="path1078"
       inkscape:connector-curvature="0" />
    <path
       d="m 307.66461,0 v -15.999809 h 15.99981 V 0 q 0,8.819407 -3.12192,14.204709 -3.12191,5.463349 -9.91207,8.429167 l -3.9024,-6.009684 q 4.44873,-1.951196 6.55602,-5.775541 Q 315.39135,7.1023543 315.62549,0 Z"
       style="font-style:normal;font-variant:normal;font-weight:normal;font-stretch:normal;font-size:159.84199524px;line-height:normal;font-family:Arial;fill:#000000"
       id="path1080"
       inkscape:connector-curvature="0" />
  </g>
  <g
     aria-label="Nu"
     transform="matrix(0.0666667,0,0,0.0666667,266.783,52.7227)"
     style="font-style:normal;font-variant:normal;font-weight:normal;font-stretch:normal;font-size:159.84199524px;line-height:normal;font-family:Arial;fill:#009e73"
     id="text160">
    <path
       d="m 12.175464,0 v -114.41815 h 15.531522 l 60.096844,89.833077 v -89.833077 h 14.5169 V 0 H 86.789208 L 26.692364,-89.911122 V 0 Z"
       style="font-style:normal;font-variant:normal;font-weight:normal;font-stretch:normal;font-size:159.84199524px;line-height:normal;font-family:Arial;fill:#009e73"
       id="path1083"
       inkscape:connector-curvature="0" />
    <path
       d="m 180.36858,0 v -12.175464 q -9.67793,14.0486124 -26.30212,14.0486124 -7.3365,0 -13.73643,-2.80972259 -6.32187,-2.80972261 -9.44379,-7.02430641 -3.04386,-4.2926314 -4.29263,-10.4584114 -0.85852,-4.136536 -0.85852,-13.112039 v -51.355485 h 14.04861 v 45.970183 q 0,11.004747 0.85853,14.829092 1.32681,5.541397 5.61944,8.741359 4.29263,3.121914 10.61451,3.121914 6.32187,0 11.86327,-3.199962 5.5414,-3.27801 7.80479,-8.819407 2.34143,-5.619445 2.34143,-16.233953 v -44.409226 h 14.04861 V 0 Z"
       style="font-style:normal;font-variant:normal;font-weight:normal;font-stretch:normal;font-size:159.84199524px;line-height:normal;font-family:Arial;fill:#009e73"
       id="path1085"
       inkscape:connector-curvature="0" />
  </g>
  <g
     aria-label="3)"
     transform="matrix(0.0666667,0,0,0.0666667,228.3,68.0407)"
     style="font-style:normal;font-variant:normal;font-weight:normal;font-stretch:normal;font-size:159.84199524px;line-height:normal;font-family:Arial;fill:#000000"
     id="text162">
    <path
       d="m 6.712115,-30.204518 14.048613,-1.873148 q 2.419483,11.941321 8.195024,17.248575 5.853589,5.2292055 14.204709,5.2292055 9.912076,0 16.702239,-6.8682105 6.868211,-6.868211 6.868211,-17.014431 0,-9.677934 -6.321876,-15.921762 -6.321875,-6.321875 -16.077857,-6.321875 -3.98044,0 -9.912076,1.560957 l 1.560956,-12.331561 q 1.404862,0.156096 2.263388,0.156096 8.975503,0 16.155905,-4.682871 7.180402,-4.682871 7.180402,-14.438852 0,-7.726737 -5.229206,-12.799847 -5.229206,-5.073108 -13.502278,-5.073108 -8.195024,0 -13.658373,5.151156 -5.46335,5.151158 -7.024307,15.453474 L 8.1169763,-85.228251 q 2.5755787,-14.126661 11.7071777,-21.853399 9.131598,-7.80478 22.711924,-7.80478 9.365742,0 17.248575,4.05848 7.882832,3.98044 12.019368,10.926703 4.214584,6.946259 4.214584,14.751043 0,7.414546 -3.98044,13.502278 -3.98044,6.087733 -11.785225,9.677934 10.14622,2.341435 15.765665,9.755981 5.619445,7.336498 5.619445,18.419292 0,14.985187 -10.926699,25.4435991 -10.926698,10.380364 -27.628938,10.380364 -15.063235,0 -25.05336,-8.9755027 Q 8.1169763,-15.921761 6.712115,-30.204518 Z"
       style="font-style:normal;font-variant:normal;font-weight:normal;font-stretch:normal;font-size:159.84199524px;line-height:normal;font-family:Arial;fill:#000000"
       id="path1088"
       inkscape:connector-curvature="0" />
    <path
       d="M 108.72065,33.638623 H 98.652482 q 23.336308,-37.4629676 23.336308,-75.003983 0,-14.672996 -3.35606,-29.111848 -2.65363,-11.707177 -7.41454,-22.47778 -3.04387,-7.024307 -12.565708,-23.414352 h 10.068168 q 14.673,19.590007 21.69731,39.336113 6.00968,17.014431 6.00968,35.589819 0,21.072919 -8.11698,40.74097736 Q 120.27174,18.965627 108.72065,33.638623 Z"
       style="font-style:normal;font-variant:normal;font-weight:normal;font-stretch:normal;font-size:159.84199524px;line-height:normal;font-family:Arial;fill:#000000"
       id="path1090"
       inkscape:connector-curvature="0" />
  </g>
  <g
     aria-label="TFA"
     transform="matrix(0.0666667,0,0,0.0666667,240.736,68.0407)"
     style="font-style:normal;font-variant:normal;font-weight:normal;font-stretch:normal;font-size:159.84199524px;line-height:normal;font-family:Arial;fill:#000000"
     id="text164">
    <path
       d="M 41.443408,0 V -100.91587 H 3.7462968 v -13.50228 H 94.437898 v 13.50228 H 56.584691 V 0 Z"
       style="font-style:normal;font-variant:normal;font-weight:normal;font-stretch:normal;font-size:159.84199524px;line-height:normal;font-family:Arial;fill:#000000"
       id="path1093"
       inkscape:connector-curvature="0" />
    <path
       d="m 110.82794,0 v -114.41815 h 77.18933 v 13.50228 h -62.04804 v 35.433724 h 53.69692 v 13.502278 H 125.96923 V 0 Z"
       style="font-style:normal;font-variant:normal;font-weight:normal;font-stretch:normal;font-size:159.84199524px;line-height:normal;font-family:Arial;fill:#000000"
       id="path1095"
       inkscape:connector-curvature="0" />
    <path
       d="m 186.45632,0 43.94094,-114.41815 h 16.312 L 293.53797,0 H 276.28939 L 262.94321,-34.653245 H 215.09988 L 202.53417,0 Z m 33.01424,-46.984805 h 38.78978 l -11.94132,-31.687427 q -5.46335,-14.438852 -8.11698,-23.726548 -2.18534,11.004749 -6.16578,21.8534 z"
       style="font-style:normal;font-variant:normal;font-weight:normal;font-stretch:normal;font-size:159.84199524px;line-height:normal;font-family:Arial;fill:#000000"
       id="path1097"
       inkscape:connector-curvature="0" />
  </g>
  <path
     stroke="#009e73"
     stroke-width="8"
     fill="transparent"
     transform="matrix(0.0666667 0 0 0.0666667 3.44441 -41.3333)"
     d="M 4160.12,1256.94 A 57.0818,57.0818 0 1 0 4274.28,1256.94A 57.0818,57.0818 0 1 0 4160.12,1256.94Z "
     id="path166"
     style="fill:none" />
  <path
     stroke="transparent"
     fill="#009e73"
     transform="matrix(0.0666667 0 0 0.0666667 3.44441 -41.3333)"
     d="M 4185.76,1253.27 L 4249.3,1253.27 L 4249.3,1261.27 L 4185.76,1261.27 Z "
     id="path168" />
  <text
     xml:space="preserve"
     style="font-style:normal;font-weight:normal;font-size:10.66666698px;line-height:1.25;font-family:sans-serif;text-align:start;letter-spacing:0px;word-spacing:0px;text-anchor:start;fill:#000000;fill-opacity:1;stroke:none"
     x="2.7827473"
     y="75"
     id="text1102"><tspan
       sodipodi:role="line"
       id="tspan1100"
       x="2.7827473"
       y="75">\cmpd{isatin}</tspan></text>
  <text
     xml:space="preserve"
     style="font-style:normal;font-weight:normal;font-size:10.66666698px;line-height:1.25;font-family:sans-serif;text-align:start;letter-spacing:0px;word-spacing:0px;text-anchor:start;fill:#000000;fill-opacity:1;stroke:none"
     x="143.5799"
     y="75"
     id="text1106"><tspan
       sodipodi:role="line"
       id="tspan1104"
       x="143.5799"
       y="75">\cmpd{oxindole}</tspan></text>
  <text
     xml:space="preserve"
     style="font-style:normal;font-weight:normal;font-size:10.66666698px;line-height:1.25;font-family:sans-serif;text-align:start;letter-spacing:0px;word-spacing:0px;text-anchor:start;fill:#000000;fill-opacity:1;stroke:none"
     x="328.54532"
     y="75"
     id="text1110"><tspan
       sodipodi:role="line"
       id="tspan1108"
       x="328.54532"
       y="75">\cmpd{2-3-indole}</tspan></text>
</svg>
