<?xml version="1.0" encoding="UTF-8" standalone="no"?>
<svg
   xmlns:dc="http://purl.org/dc/elements/1.1/"
   xmlns:cc="http://creativecommons.org/ns#"
   xmlns:rdf="http://www.w3.org/1999/02/22-rdf-syntax-ns#"
   xmlns:svg="http://www.w3.org/2000/svg"
   xmlns="http://www.w3.org/2000/svg"
   xmlns:sodipodi="http://sodipodi.sourceforge.net/DTD/sodipodi-0.dtd"
   xmlns:inkscape="http://www.inkscape.org/namespaces/inkscape"
   viewBox="1.8 85.95 137.82 377.04"
   preserveAspectRatio="xMidYMid"
   width="100%"
   height="100%"
   version="1.1"
   id="svg414"
   sodipodi:docname="isoxazolidinone-reduction-zr.svg"
   inkscape:version="0.92.3 (2405546, 2018-03-11)">
  <metadata
     id="metadata420">
    <rdf:RDF>
      <cc:Work
         rdf:about="">
        <dc:format>image/svg+xml</dc:format>
        <dc:type
           rdf:resource="http://purl.org/dc/dcmitype/StillImage" />
      </cc:Work>
    </rdf:RDF>
  </metadata>
  <defs
     id="defs418" />
  <sodipodi:namedview
     pagecolor="#ffffff"
     bordercolor="#666666"
     borderopacity="1"
     objecttolerance="10"
     gridtolerance="10"
     guidetolerance="10"
     inkscape:pageopacity="0"
     inkscape:pageshadow="2"
     inkscape:window-width="1920"
     inkscape:window-height="1017"
     id="namedview416"
     showgrid="false"
     inkscape:zoom="2.5037131"
     inkscape:cx="97.61624"
     inkscape:cy="276.45598"
     inkscape:window-x="-8"
     inkscape:window-y="-8"
     inkscape:window-maximized="1"
     inkscape:current-layer="svg414" />
  <clipPath
     id="9614">
    <rect
       x="0.255"
       y="0.255"
       width="139.49"
       height="769.29"
       id="rect2" />
  </clipPath>
  <g
     aria-label="N"
     style="font-size:15.99995995px;text-anchor:start;stroke-width:1.33333004;text-rendering:geometricPrecision"
     id="text9">
    <path
       d="m -3.7332129,113.37188 v -7.58768 h 1.029978 l 3.9853416,5.95731 v -5.95731 h 0.9626929 v 7.58768 H 1.2148217 l -3.9853416,-5.96249 v 5.96249 z"
       style="font-size:10.59997368px;font-family:Arial;fill:#000000;stroke-width:1.33333004"
       id="path1954"
       inkscape:connector-curvature="0" />
  </g>
  <g
     aria-label="O"
     style="font-size:15.99995995px;text-anchor:start;stroke-width:1.33333004;text-rendering:geometricPrecision"
     id="text15">
    <path
       d="m -19.588192,111.27638 q 0,-1.88916 1.01445,-2.95536 1.014451,-1.07139 2.618939,-1.07139 1.050681,0 1.894331,0.50205 0.84365,0.50205 1.283591,1.40263 0.445116,0.89541 0.445116,2.03408 0,1.1542 -0.465819,2.06513 -0.46582,0.91094 -1.319821,1.38193 -0.854002,0.46582 -1.842574,0.46582 -1.071384,0 -1.915034,-0.51757 -0.84365,-0.51758 -1.278415,-1.41299 -0.434764,-0.89541 -0.434764,-1.89433 z m 1.035153,0.0155 q 0,1.37158 0.734959,2.16347 0.740135,0.78671 1.852925,0.78671 1.133494,0 1.863277,-0.79706 0.734959,-0.79707 0.734959,-2.26181 0,-0.92647 -0.315722,-1.61484 -0.310546,-0.69356 -0.916111,-1.07139 -0.600389,-0.38301 -1.350875,-0.38301 -1.066209,0 -1.837398,0.73496 -0.766014,0.72979 -0.766014,2.44297 z"
       style="font-size:10.59997368px;font-family:Arial;fill:#000000;stroke-width:1.33333004"
       id="path1951"
       inkscape:connector-curvature="0" />
  </g>
  <path
     style="fill:#000000;fill-rule:evenodd;stroke:#000000;stroke-width:0;stroke-linejoin:miter;shape-rendering:geometricPrecision"
     inkscape:connector-curvature="0"
     id="path19"
     d="m -19.540595,125.98518 v 0 l 0.386666,-0.17333 0.386666,-0.17334 12.8533009,7.43999 0.04,0.41333 0.04,0.41333 z" />
  <path
     style="fill:#000000;fill-rule:evenodd;stroke:#000000;stroke-width:0;stroke-linejoin:miter;shape-rendering:geometricPrecision"
     inkscape:connector-curvature="0"
     id="path22"
     d="m -5.8339623,133.90516 v 0 l -0.04,-0.41333 -0.04,-0.41333 11.0399724,-9.94665 0.4133323,0.0933 0.4133323,0.0933 z" />
  <path
     style="fill:#000000;fill-rule:evenodd;stroke:#000000;stroke-width:0;stroke-linejoin:miter;shape-rendering:geometricPrecision"
     inkscape:connector-curvature="0"
     id="path26"
     d="m 5.9526749,123.31852 v 0 l -0.4133323,-0.0933 -0.4133323,-0.0933 -3.5466578,-7.98664 0.3066659,-0.13334 0.3066659,-0.14666 z" />
  <path
     style="fill:#000000;fill-rule:evenodd;stroke:#000000;stroke-width:0;stroke-linejoin:miter;shape-rendering:geometricPrecision"
     inkscape:connector-curvature="0"
     id="path30"
     d="m -5.4072967,109.35855 v 0 l 0.04,0.33334 0.026667,0.33333 -5.2133203,0.56 -0.04,-0.34667 -0.02667,-0.33333 z" />
  <path
     style="fill:#000000;fill-rule:evenodd;stroke:#000000;stroke-width:0;stroke-linejoin:miter;shape-rendering:geometricPrecision"
     inkscape:connector-curvature="0"
     id="path34"
     d="m -17.5806,116.7852 v 0 l 0.333333,0.0667 0.333332,0.0667 -1.853328,8.71997 -0.386666,0.17334 -0.386666,0.17333 z" />
  <g
     aria-label="O"
     style="font-size:15.99995995px;text-anchor:start;stroke-width:1.33333004;text-rendering:geometricPrecision"
     id="text40">
    <path
       d="m 16.918384,126.87634 q 0,-1.88916 1.014451,-2.95536 1.01445,-1.07139 2.618938,-1.07139 1.050681,0 1.894332,0.50205 0.84365,0.50205 1.28359,1.40263 0.445116,0.89541 0.445116,2.03408 0,1.1542 -0.465819,2.06513 -0.465819,0.91094 -1.319821,1.38193 -0.854002,0.46582 -1.842573,0.46582 -1.071384,0 -1.915035,-0.51757 -0.84365,-0.51758 -1.278414,-1.41299 -0.434765,-0.89541 -0.434765,-1.89433 z m 1.035154,0.0155 q 0,1.37158 0.734959,2.16347 0.740135,0.78672 1.852925,0.78672 1.133493,0 1.863277,-0.79707 0.734959,-0.79707 0.734959,-2.26181 0,-0.92647 -0.315722,-1.61484 -0.310546,-0.69356 -0.916111,-1.07139 -0.600389,-0.383 -1.350876,-0.383 -1.066208,0 -1.837398,0.73495 -0.766013,0.72979 -0.766013,2.44297 z"
       style="font-size:10.59997368px;font-family:Arial;fill:#000000;stroke-width:1.33333004"
       id="path1948"
       inkscape:connector-curvature="0" />
  </g>
  <path
     style="stroke:#000000;stroke-width:0.67999828;shape-rendering:auto"
     d="m 5.8326755,121.87852 9.7733095,2.08001"
     id="line44" />
  <path
     style="fill:#000000;fill-rule:evenodd;stroke:#000000;stroke-width:0;stroke-linejoin:miter;shape-rendering:geometricPrecision"
     inkscape:connector-curvature="0"
     id="path46"
     d="m 4.9926773,124.17185 v 0 l -0.6266651,0.56 10.5999738,2.25333 0.146666,-0.66667 z" />
  <path
     style="fill:#000000;fill-rule:evenodd;stroke:#000000;stroke-width:0;stroke-linejoin:miter;shape-rendering:geometricPrecision"
     inkscape:connector-curvature="0"
     id="path48"
     d="m 5.0860104,121.37186 v 0 l 0.3466658,0.76 10.1066418,2.15999 0.146666,-0.66666 z" />
  <path
     style="fill:#000000;fill-rule:evenodd;stroke:#000000;stroke-width:0;stroke-linejoin:miter;shape-rendering:geometricPrecision"
     inkscape:connector-curvature="0"
     id="path52"
     d="m 2.4060171,104.4919 v 0 l -0.2933326,-0.17333 -0.2933326,-0.16 4.7599881,-8.239982 h 0.3866657 0.3866657 z" />
  <g
     aria-label="RO"
     style="font-size:15.99995995px;text-anchor:end;stroke-width:1.33333004;text-rendering:geometricPrecision"
     id="text58">
    <path
       d="m -11.633982,86.785278 v -7.587676 h 3.3642495 q 1.0144507,0 1.542379,0.207031 0.5279284,0.201855 0.8436503,0.719431 0.3157218,0.517577 0.3157218,1.143845 0,0.80742 -0.5227526,1.361227 -0.5227526,0.553808 -1.6148397,0.703905 0.3985342,0.191503 0.6055649,0.377831 0.4399403,0.40371 0.8332987,1.009275 l 1.319821,2.065131 h -1.2628875 l -1.0040991,-1.578609 q -0.4399403,-0.683201 -0.7246076,-1.045505 -0.2846672,-0.362304 -0.512401,-0.507226 -0.2225581,-0.144921 -0.4554677,-0.201855 -0.1708003,-0.03623 -0.558983,-0.03623 h -1.164548 v 3.369425 z m 1.004099,-4.238954 h 2.1582956 q 0.6883772,0 1.0765598,-0.139746 0.3881826,-0.144921 0.5900376,-0.455467 0.201855,-0.315722 0.201855,-0.683202 0,-0.53828 -0.3933584,-0.885056 -0.3881827,-0.346777 -1.2318329,-0.346777 h -2.4015567 z"
       style="font-size:10.59997368px;font-family:Arial;fill:#000000;stroke-width:1.33333004"
       id="path1942"
       inkscape:connector-curvature="0" />
    <path
       d="m -4.2947424,83.08978 q 0,-1.889156 1.0144506,-2.955364 1.0144506,-1.071384 2.61893884,-1.071384 1.05068098,0 1.89433126,0.502049 0.8436502,0.50205 1.2835905,1.402634 0.4451161,0.895408 0.4451161,2.034077 0,1.154196 -0.4658191,2.065131 -0.4658192,0.910935 -1.319821,1.38193 -0.85400177,0.46582 -1.84257353,0.46582 -1.07138407,0 -1.91503427,-0.517577 -0.8436503,-0.517577 -1.2784148,-1.412985 -0.4347646,-0.895408 -0.4347646,-1.894331 z m 1.0351537,0.01553 q 0,1.371579 0.7349591,2.163471 0.7401349,0.786717 1.8529251,0.786717 1.13349328,0 1.8632766,-0.797068 0.7349591,-0.797069 0.7349591,-2.261811 0,-0.926463 -0.3157218,-1.61484 -0.3105461,-0.693553 -0.91611104,-1.071384 -0.60038914,-0.383007 -1.35087555,-0.383007 -1.06620831,0 -1.83739781,0.734959 -0.7660137,0.729784 -0.7660137,2.442963 z"
       style="font-size:10.59997368px;font-family:Arial;fill:#000000;stroke-width:1.33333004"
       id="path1944"
       inkscape:connector-curvature="0" />
  </g>
  <path
     style="fill:#000000;fill-rule:evenodd;stroke:#000000;stroke-width:0;stroke-linejoin:miter;shape-rendering:geometricPrecision"
     inkscape:connector-curvature="0"
     id="path62"
     d="m 7.3526714,95.918588 v 0 H 6.9660057 6.57934 l -4.4799888,-7.75998 0.2933326,-0.16 0.2933326,-0.173333 z" />
  <g
     aria-label="O"
     style="font-size:15.99995995px;text-anchor:start;stroke-width:1.33333004;text-rendering:geometricPrecision"
     id="text68">
    <path
       d="m 18.691713,96.383084 q 0,-1.889155 1.01445,-2.955364 1.014451,-1.071384 2.618939,-1.071384 1.050681,0 1.894331,0.50205 0.843651,0.502049 1.283591,1.402633 0.445116,0.895408 0.445116,2.034077 0,1.154196 -0.465819,2.065132 -0.465819,0.910935 -1.319821,1.38193 -0.854002,0.465822 -1.842574,0.465822 -1.071384,0 -1.915034,-0.51758 -0.84365,-0.517577 -1.278415,-1.412985 -0.434764,-0.895408 -0.434764,-1.894331 z m 1.035154,0.01553 q 0,1.371579 0.734959,2.163472 0.740134,0.786716 1.852925,0.786716 1.133493,0 1.863276,-0.797068 0.734959,-0.797068 0.734959,-2.261811 0,-0.926462 -0.315721,-1.614839 -0.310547,-0.693553 -0.916111,-1.071385 -0.60039,-0.383006 -1.350876,-0.383006 -1.066208,0 -1.837398,0.734959 -0.766013,0.729783 -0.766013,2.442962 z"
       style="font-size:10.59997368px;font-family:Arial;fill:#000000;stroke-width:1.33333004"
       id="path1939"
       inkscape:connector-curvature="0" />
  </g>
  <path
     style="stroke:#000000;stroke-width:0.67999828;shape-rendering:auto"
     d="M 6.9660068,94.531921 H 17.019314"
     id="line72" />
  <path
     style="fill:#000000;fill-rule:evenodd;stroke:#000000;stroke-width:0;stroke-linejoin:miter;shape-rendering:geometricPrecision"
     inkscape:connector-curvature="0"
     id="path74"
     d="m 6.7526729,96.958586 v 0 L 6.3660072,97.638584 H 17.019314 v -0.679998 z" />
  <path
     style="fill:#000000;fill-rule:evenodd;stroke:#000000;stroke-width:0;stroke-linejoin:miter;shape-rendering:geometricPrecision"
     inkscape:connector-curvature="0"
     id="path76"
     d="m 6.3660072,94.198593 v 0 l 0.3866657,0.679998 H 17.019314 v -0.679998 z" />
  <g
     aria-label="N"
     style="font-size:15.99995995px;text-anchor:start;stroke-width:1.33333004;text-rendering:geometricPrecision"
     id="text82">
    <path
       d="m 126.49313,110.47855 v -7.58767 h 1.02997 l 3.98535,5.95731 v -5.95731 h 0.96269 v 7.58767 h -1.02998 l -3.98534,-5.96248 v 5.96248 z"
       style="font-size:10.59997368px;font-family:Arial;fill:#000000;stroke-width:1.33333004"
       id="path1935"
       inkscape:connector-curvature="0" />
  </g>
  <g
     aria-label="O"
     style="font-size:15.99995995px;text-anchor:start;stroke-width:1.33333004;text-rendering:geometricPrecision"
     id="text88">
    <path
       d="m 110.63816,108.38305 q 0,-1.88915 1.01445,-2.95536 1.01446,-1.07138 2.61894,-1.07138 1.05068,0 1.89433,0.50205 0.84365,0.50204 1.2836,1.40263 0.44511,0.89541 0.44511,2.03408 0,1.15419 -0.46582,2.06513 -0.46582,0.91093 -1.31982,1.38193 -0.854,0.46582 -1.84257,0.46582 -1.07139,0 -1.91504,-0.51758 -0.84365,-0.51758 -1.27841,-1.41299 -0.43477,-0.8954 -0.43477,-1.89433 z m 1.03516,0.0155 q 0,1.37158 0.73496,2.16347 0.74013,0.78672 1.85292,0.78672 1.1335,0 1.86328,-0.79707 0.73496,-0.79707 0.73496,-2.26181 0,-0.92646 -0.31572,-1.61484 -0.31055,-0.69355 -0.91612,-1.07138 -0.60038,-0.38301 -1.35087,-0.38301 -1.06621,0 -1.8374,0.73496 -0.76601,0.72978 -0.76601,2.44296 z"
       style="font-size:10.59997368px;font-family:Arial;fill:#000000;stroke-width:1.33333004"
       id="path1932"
       inkscape:connector-curvature="0" />
  </g>
  <path
     style="fill:#000000;fill-rule:evenodd;stroke:#000000;stroke-width:0;stroke-linejoin:miter;shape-rendering:geometricPrecision"
     inkscape:connector-curvature="0"
     id="path92"
     d="m 110.68575,123.09185 v 0 l 0.38666,-0.17333 0.38667,-0.17333 12.86663,7.43998 0.04,0.41333 0.04,0.41333 z" />
  <path
     style="fill:#000000;fill-rule:evenodd;stroke:#000000;stroke-width:0;stroke-linejoin:miter;shape-rendering:geometricPrecision"
     inkscape:connector-curvature="0"
     id="path96"
     d="m 124.40571,131.01183 v 0 l -0.04,-0.41333 -0.04,-0.41333 11.02664,-9.95998 0.41333,0.0933 0.0933,0.37333 z" />
  <path
     style="fill:#000000;fill-rule:evenodd;stroke:#000000;stroke-width:0;stroke-linejoin:miter;shape-rendering:geometricPrecision"
     inkscape:connector-curvature="0"
     id="path100"
     d="m 135.87235,119.73186 v 0 l -0.10667,0.58667 -0.41333,-0.0933 -3.57332,-8.01331 0.32,-0.13333 0.30666,-0.14667 z" />
  <path
     style="fill:#000000;fill-rule:evenodd;stroke:#000000;stroke-width:0;stroke-linejoin:miter;shape-rendering:geometricPrecision"
     inkscape:connector-curvature="0"
     id="path104"
     d="m 124.85904,106.4519 v 0 l 0.04,0.33333 0.0267,0.34666 -5.21332,0.54667 -0.04,-0.34667 -0.0267,-0.33333 z" />
  <path
     style="fill:#000000;fill-rule:evenodd;stroke:#000000;stroke-width:0;stroke-linejoin:miter;shape-rendering:geometricPrecision"
     inkscape:connector-curvature="0"
     id="path108"
     d="m 112.64574,113.85188 v 0 l 0.33333,0.0667 0.33334,0.0667 -1.85333,8.75998 -0.38667,0.17333 -0.38666,0.17333 z" />
  <g
     aria-label="OH"
     style="font-size:15.99995995px;text-anchor:start;stroke-width:1.33333004;text-rendering:geometricPrecision"
     id="text114">
    <path
       d="m 147.15806,123.983 q 0,-1.88916 1.01445,-2.95537 1.01445,-1.07138 2.61894,-1.07138 1.05068,0 1.89433,0.50205 0.84365,0.50205 1.28359,1.40263 0.44512,0.89541 0.44512,2.03408 0,1.1542 -0.46582,2.06513 -0.46582,0.91094 -1.31982,1.38193 -0.854,0.46582 -1.84257,0.46582 -1.07139,0 -1.91504,-0.51758 -0.84365,-0.51757 -1.27841,-1.41298 -0.43477,-0.89541 -0.43477,-1.89433 z m 1.03516,0.0155 q 0,1.37157 0.73495,2.16347 0.74014,0.78671 1.85293,0.78671 1.13349,0 1.86328,-0.79706 0.73496,-0.79707 0.73496,-2.26182 0,-0.92646 -0.31573,-1.61483 -0.31054,-0.69356 -0.91611,-1.07139 -0.60039,-0.38301 -1.35087,-0.38301 -1.06621,0 -1.8374,0.73496 -0.76601,0.72979 -0.76601,2.44297 z"
       style="font-size:10.59997368px;font-family:Arial;fill:#cc78a6;stroke-width:1.33333004"
       id="path1927"
       inkscape:connector-curvature="0" />
    <path
       d="m 155.73431,127.6785 v -7.58768 h 1.0041 v 3.11581 h 3.94393 v -3.11581 h 1.0041 v 7.58768 h -1.0041 v -3.57646 h -3.94393 v 3.57646 z"
       style="font-size:10.59997368px;font-family:Arial;fill:#cc78a6;stroke-width:1.33333004"
       id="path1929"
       inkscape:connector-curvature="0" />
  </g>
  <path
     style="fill:#cc78a6;fill-rule:evenodd;stroke:#cc78a6;stroke-width:0;stroke-linejoin:miter;shape-rendering:geometricPrecision"
     inkscape:connector-curvature="0"
     id="path118"
     d="m 135.85902,120.69186 v 0 l -0.0933,-0.37333 0.68,-0.2 9.21331,1.95999 -0.0667,0.33334 -0.0667,0.33333 z" />
  <path
     style="fill:#000000;fill-rule:evenodd;stroke:#000000;stroke-width:0;stroke-linejoin:miter;shape-rendering:geometricPrecision"
     inkscape:connector-curvature="0"
     id="path122"
     d="m 132.65902,101.55857 v 0 l -0.29333,-0.17333 -0.29333,-0.16 4.73332,-8.213311 h 0.38667 0.38666 z" />
  <g
     aria-label="RO"
     style="font-size:15.99995995px;text-anchor:end;stroke-width:1.33333004;text-rendering:geometricPrecision"
     id="text128">
    <path
       d="m 118.59235,83.891953 v -7.587677 h 3.36425 q 1.01445,0 1.54238,0.207031 0.52793,0.201855 0.84365,0.719432 0.31572,0.517576 0.31572,1.143844 0,0.80742 -0.52275,1.361227 -0.52275,0.553808 -1.61484,0.703905 0.39853,0.191503 0.60556,0.377831 0.43994,0.40371 0.8333,1.009275 l 1.31982,2.065132 h -1.26288 l -1.0041,-1.57861 q -0.43994,-0.683201 -0.72461,-1.045505 -0.28467,-0.362304 -0.5124,-0.507225 -0.22256,-0.144922 -0.45547,-0.201855 -0.1708,-0.03623 -0.55898,-0.03623 h -1.16455 v 3.369426 z m 1.0041,-4.238955 h 2.15829 q 0.68838,0 1.07656,-0.139746 0.38819,-0.144921 0.59004,-0.455467 0.20186,-0.315722 0.20186,-0.683202 0,-0.53828 -0.39336,-0.885056 -0.38818,-0.346776 -1.23183,-0.346776 h -2.40156 z"
       style="font-size:10.59997368px;font-family:Arial;fill:#000000;stroke-width:1.33333004"
       id="path1922"
       inkscape:connector-curvature="0" />
    <path
       d="m 125.93159,80.196454 q 0,-1.889156 1.01445,-2.955364 1.01445,-1.071384 2.61894,-1.071384 1.05068,0 1.89433,0.50205 0.84365,0.502049 1.28359,1.402633 0.44512,0.895408 0.44512,2.034077 0,1.154196 -0.46582,2.065131 -0.46582,0.910936 -1.31982,1.381931 -0.85401,0.465819 -1.84258,0.465819 -1.07138,0 -1.91503,-0.517577 -0.84365,-0.517577 -1.27842,-1.412985 -0.43476,-0.895408 -0.43476,-1.894331 z m 1.03515,0.01553 q 0,1.371579 0.73496,2.163471 0.74014,0.786717 1.85293,0.786717 1.13349,0 1.86327,-0.797068 0.73496,-0.797068 0.73496,-2.261811 0,-0.926462 -0.31572,-1.61484 -0.31054,-0.693553 -0.91611,-1.071384 -0.60039,-0.383007 -1.35088,-0.383007 -1.0662,0 -1.83739,0.73496 -0.76602,0.729783 -0.76602,2.442962 z"
       style="font-size:10.59997368px;font-family:Arial;fill:#000000;stroke-width:1.33333004"
       id="path1924"
       inkscape:connector-curvature="0" />
  </g>
  <path
     style="fill:#000000;fill-rule:evenodd;stroke:#000000;stroke-width:0;stroke-linejoin:miter;shape-rendering:geometricPrecision"
     inkscape:connector-curvature="0"
     id="path132"
     d="m 137.57901,93.011929 v 0 h -0.38666 -0.38667 l -4.49332,-7.786647 0.29333,-0.16 0.29333,-0.173333 z" />
  <g
     aria-label="O"
     style="font-size:15.99995995px;text-anchor:start;stroke-width:1.33333004;text-rendering:geometricPrecision"
     id="text138">
    <path
       d="m 148.91806,93.489751 q 0,-1.889156 1.01445,-2.955364 1.01445,-1.071384 2.61894,-1.071384 1.05068,0 1.89433,0.502049 0.84365,0.50205 1.28359,1.402634 0.44511,0.895408 0.44511,2.034077 0,1.154196 -0.46582,2.065131 -0.46582,0.910935 -1.31982,1.38193 -0.854,0.46582 -1.84257,0.46582 -1.07138,0 -1.91503,-0.517577 -0.84365,-0.517577 -1.27842,-1.412985 -0.43476,-0.895408 -0.43476,-1.894331 z m 1.03515,0.01553 q 0,1.371579 0.73496,2.163471 0.74013,0.786717 1.85292,0.786717 1.1335,0 1.86328,-0.797068 0.73496,-0.797069 0.73496,-2.261811 0,-0.926463 -0.31572,-1.61484 -0.31055,-0.693553 -0.91611,-1.071384 -0.60039,-0.383007 -1.35088,-0.383007 -1.06621,0 -1.8374,0.734959 -0.76601,0.729784 -0.76601,2.442963 z"
       style="font-size:10.59997368px;font-family:Arial;fill:#000000;stroke-width:1.33333004"
       id="path1919"
       inkscape:connector-curvature="0" />
  </g>
  <path
     style="stroke:#000000;stroke-width:0.67999828;shape-rendering:auto"
     d="m 137.19235,91.625267 h 10.09331"
     id="line142" />
  <path
     style="fill:#000000;fill-rule:evenodd;stroke:#000000;stroke-width:0;stroke-linejoin:miter;shape-rendering:geometricPrecision"
     inkscape:connector-curvature="0"
     id="path144"
     d="m 136.97901,94.051926 v 0 l -0.38666,0.679999 h 10.6933 v -0.679999 z" />
  <path
     style="fill:#000000;fill-rule:evenodd;stroke:#000000;stroke-width:0;stroke-linejoin:miter;shape-rendering:geometricPrecision"
     inkscape:connector-curvature="0"
     id="path146"
     d="m 136.59235,91.291933 v 0 l 0.38666,0.679999 h 10.30664 v -0.679999 z" />
  <g
     aria-label="R: Bn, t-Bu, Et"
     style="font-size:15.99995995px;text-anchor:middle;stroke-width:1.33333004;text-rendering:geometricPrecision"
     id="text156">
    <path
       d="m 30.71858,75.291969 v -7.587676 h 3.36425 q 1.01445,0 1.542379,0.207031 0.527928,0.201855 0.84365,0.719431 0.315722,0.517577 0.315722,1.143845 0,0.80742 -0.522753,1.361227 -0.522752,0.553807 -1.614839,0.703905 0.398534,0.191503 0.605564,0.377831 0.439941,0.40371 0.833299,1.009275 l 1.319821,2.065131 H 36.142786 L 35.138687,73.71336 q -0.439941,-0.683201 -0.724608,-1.045505 -0.284667,-0.362304 -0.512401,-0.507226 -0.222558,-0.144921 -0.455468,-0.201855 -0.1708,-0.03623 -0.558983,-0.03623 h -1.164548 v 3.369425 z m 1.004099,-4.238954 h 2.158296 q 0.688377,0 1.07656,-0.139746 0.388182,-0.144921 0.590037,-0.455467 0.201855,-0.315722 0.201855,-0.683202 0,-0.53828 -0.393358,-0.885056 -0.388183,-0.346777 -1.231833,-0.346777 h -2.401557 z"
       style="font-size:10.59997368px;font-family:Arial;fill:#e69e00;stroke-width:1.33333004"
       id="path1893"
       inkscape:connector-curvature="0" />
    <path
       d="m 38.502936,70.856336 v -1.061033 h 1.061032 v 1.061033 z m 0,4.435633 v -1.061032 h 1.061032 v 1.061032 z"
       style="font-size:10.59997368px;font-family:Arial;fill:#e69e00;stroke-width:1.33333004"
       id="path1895"
       inkscape:connector-curvature="0" />
    <path
       d="m 44.201457,75.291969 v -7.587676 h 2.846673 q 0.869529,0 1.392281,0.232909 0.527929,0.227734 0.822948,0.709081 0.300194,0.47617 0.300194,0.998923 0,0.486522 -0.263964,0.916111 -0.263964,0.429589 -0.797068,0.693553 0.688377,0.201855 1.055856,0.688377 0.372656,0.486522 0.372656,1.149021 0,0.533104 -0.227734,0.993747 -0.222558,0.455468 -0.553807,0.703905 -0.33125,0.248437 -0.833299,0.377831 -0.496874,0.124218 -1.221481,0.124218 z m 1.004099,-4.399403 h 1.640719 q 0.667674,0 0.957517,-0.08799 0.383007,-0.113867 0.57451,-0.377831 0.196679,-0.263964 0.196679,-0.662498 0,-0.377831 -0.181152,-0.662499 -0.181151,-0.289843 -0.517576,-0.393358 -0.336425,-0.108691 -1.154197,-0.108691 h -1.5165 z m 0,3.503995 h 1.889156 q 0.486522,0 0.683201,-0.03623 0.346776,-0.06211 0.579686,-0.207031 0.23291,-0.144921 0.383007,-0.419237 0.150097,-0.279491 0.150097,-0.641795 0,-0.424413 -0.217382,-0.734959 -0.217382,-0.315722 -0.605565,-0.439941 -0.383007,-0.129394 -1.107614,-0.129394 h -1.754586 z"
       style="font-size:10.59997368px;font-family:Arial;fill:#e69e00;stroke-width:1.33333004"
       id="path1897"
       inkscape:connector-curvature="0" />
    <path
       d="m 51.204272,75.291969 v -5.496666 h 0.838475 v 0.781541 q 0.605565,-0.905759 1.74941,-0.905759 0.496873,0 0.910935,0.181152 0.419237,0.175976 0.626268,0.465819 0.207031,0.289843 0.289843,0.688377 0.05176,0.258788 0.05176,0.90576 v 3.379776 h -0.931639 v -3.343546 q 0,-0.569335 -0.108691,-0.848826 -0.108691,-0.284667 -0.388182,-0.450292 -0.274316,-0.1708 -0.646972,-0.1708 -0.595213,0 -1.029977,0.377831 -0.429589,0.377831 -0.429589,1.433688 v 3.001945 z"
       style="font-size:10.59997368px;font-family:Arial;fill:#e69e00;stroke-width:1.33333004"
       id="path1899"
       inkscape:connector-curvature="0" />
    <path
       d="m 57.347909,75.291969 v -1.061032 h 1.061032 v 1.061032 q 0,0.584862 -0.20703,0.94199 -0.207031,0.362304 -0.657323,0.558983 L 57.2858,76.394408 q 0.295019,-0.129394 0.434764,-0.383007 0.139746,-0.248437 0.155273,-0.719432 z"
       style="font-size:10.59997368px;font-family:Arial;fill:#e69e00;stroke-width:1.33333004"
       id="path1901"
       inkscape:connector-curvature="0" />
    <path
       d="m 64.826894,74.531131 -0.155273,0.766014 q -0.336425,0.08799 -0.652146,0.08799 -0.558983,0 -0.890233,-0.274316 -0.248437,-0.20703 -0.248437,-0.564158 0,-0.181152 0.13457,-0.833299 l 0.667675,-3.193449 h -0.740135 l 0.150097,-0.724608 h 0.740135 l 0.284667,-1.350875 1.071384,-0.646971 -0.419237,1.997846 h 0.921287 l -0.155273,0.724608 h -0.916111 l -0.63662,3.038176 q -0.119043,0.579686 -0.119043,0.693553 0,0.165624 0.09316,0.253613 0.09834,0.08799 0.315722,0.08799 0.310546,0 0.553807,-0.06211 z"
       style="font-style:italic;font-size:10.59997368px;font-family:Arial;fill:#e69e00;stroke-width:1.33333004"
       id="path1903"
       inkscape:connector-curvature="0" />
    <path
       d="m 65.561852,73.014631 v -0.936814 h 2.8622 v 0.936814 z"
       style="font-size:10.59997368px;font-family:Arial;fill:#e69e00;stroke-width:1.33333004"
       id="path1905"
       inkscape:connector-curvature="0" />
    <path
       d="m 69.542018,75.291969 v -7.587676 h 2.846673 q 0.869529,0 1.392281,0.232909 0.527929,0.227734 0.822947,0.709081 0.300195,0.47617 0.300195,0.998923 0,0.486522 -0.263964,0.916111 -0.263964,0.429589 -0.797069,0.693553 0.688378,0.201855 1.055857,0.688377 0.372656,0.486522 0.372656,1.149021 0,0.533104 -0.227734,0.993747 -0.222558,0.455468 -0.553807,0.703905 -0.33125,0.248437 -0.833299,0.377831 -0.496874,0.124218 -1.221482,0.124218 z m 1.004099,-4.399403 h 1.640719 q 0.667674,0 0.957517,-0.08799 0.383007,-0.113867 0.57451,-0.377831 0.196679,-0.263964 0.196679,-0.662498 0,-0.377831 -0.181152,-0.662499 -0.181152,-0.289843 -0.517577,-0.393358 -0.336424,-0.108691 -1.154196,-0.108691 h -1.5165 z m 0,3.503995 h 1.889155 q 0.486523,0 0.683202,-0.03623 0.346776,-0.06211 0.579686,-0.207031 0.23291,-0.144921 0.383007,-0.419237 0.150097,-0.279491 0.150097,-0.641795 0,-0.424413 -0.217382,-0.734959 Q 73.7965,72.041587 73.408317,71.917368 73.02531,71.787974 72.300702,71.787974 h -1.754585 z"
       style="font-size:10.59997368px;font-family:Arial;fill:#e69e00;stroke-width:1.33333004"
       id="path1907"
       inkscape:connector-curvature="0" />
    <path
       d="m 80.147168,75.291969 v -0.80742 q -0.641795,0.931639 -1.744234,0.931639 -0.486522,0 -0.910935,-0.186328 -0.419237,-0.186328 -0.626268,-0.465819 -0.201855,-0.284667 -0.284667,-0.693553 -0.05693,-0.274316 -0.05693,-0.869529 v -3.405656 h 0.931639 v 3.048528 q 0,0.729783 0.05693,0.983396 0.08799,0.367479 0.372655,0.579686 0.284668,0.207031 0.703905,0.207031 0.419237,0 0.786717,-0.212207 0.367479,-0.217382 0.517577,-0.584862 0.155273,-0.372655 0.155273,-1.07656 v -2.945012 h 0.931638 v 5.496666 z"
       style="font-size:10.59997368px;font-family:Arial;fill:#e69e00;stroke-width:1.33333004"
       id="path1909"
       inkscape:connector-curvature="0" />
    <path
       d="m 82.68847,75.291969 v -1.061032 h 1.061032 v 1.061032 q 0,0.584862 -0.20703,0.94199 -0.207031,0.362304 -0.657323,0.558983 l -0.258788,-0.398534 q 0.295018,-0.129394 0.434764,-0.383007 0.139746,-0.248437 0.155273,-0.719432 z"
       style="font-size:10.59997368px;font-family:Arial;fill:#e69e00;stroke-width:1.33333004"
       id="path1911"
       inkscape:connector-curvature="0" />
    <path
       d="m 88.464627,75.291969 v -7.587676 h 5.486315 v 0.895408 h -4.482215 v 2.32392 h 4.197548 v 0.890232 h -4.197548 v 2.582708 h 4.658191 v 0.895408 z"
       style="font-size:10.59997368px;font-family:Arial;fill:#e69e00;stroke-width:1.33333004"
       id="path1913"
       inkscape:connector-curvature="0" />
    <path
       d="m 97.439407,74.458671 0.13457,0.822947 q -0.393359,0.08281 -0.703905,0.08281 -0.507225,0 -0.786716,-0.160449 Q 95.803864,75.043532 95.689997,74.784744 95.57613,74.52078 95.57613,73.682305 v -3.162394 h -0.683201 v -0.724608 h 0.683201 v -1.361227 l 0.926463,-0.558983 v 1.92021 h 0.936814 v 0.724608 h -0.936814 v 3.214152 q 0,0.398534 0.04658,0.512401 0.05176,0.113867 0.160449,0.181152 0.113866,0.06728 0.320897,0.06728 0.155273,0 0.408886,-0.03623 z"
       style="font-size:10.59997368px;font-family:Arial;fill:#e69e00;stroke-width:1.33333004"
       id="path1915"
       inkscape:connector-curvature="0" />
  </g>
  <g
     aria-label="N"
     style="font-size:15.99995995px;text-anchor:start;stroke-width:1.33333004;text-rendering:geometricPrecision"
     id="text162">
    <path
       d="m -4.7465428,189.87834 v -7.58767 h 1.0299779 l 3.98534164,5.9573 v -5.9573 H 1.2314697 v 7.58767 H 0.20149175 l -3.98534165,-5.96248 v 5.96248 z"
       style="font-size:10.59997368px;font-family:Arial;fill:#000000;stroke-width:1.33333004"
       id="path1890"
       inkscape:connector-curvature="0" />
  </g>
  <path
     style="fill:#000000;fill-rule:evenodd;stroke:#000000;stroke-width:0;stroke-linejoin:miter;shape-rendering:geometricPrecision"
     inkscape:connector-curvature="0"
     id="path166"
     d="m -20.567259,202.49166 v 0 l 0.386666,-0.17334 0.386666,-0.17333 12.8666341,7.43998 0.04,0.41333 0.04,0.41334 z" />
  <g
     aria-label="O"
     style="font-size:15.99995995px;text-anchor:start;stroke-width:1.33333004;text-rendering:geometricPrecision"
     id="text172">
    <path
       d="m -20.601523,187.78286 q 0,-1.88915 1.014451,-2.95536 1.01445,-1.07138 2.618938,-1.07138 1.050681,0 1.894332,0.50205 0.84365,0.50205 1.28359,1.40263 0.445116,0.89541 0.445116,2.03408 0,1.15419 -0.465819,2.06513 -0.465819,0.91093 -1.319821,1.38193 -0.854002,0.46582 -1.842573,0.46582 -1.071384,0 -1.915035,-0.51758 -0.84365,-0.51758 -1.278414,-1.41298 -0.434765,-0.89541 -0.434765,-1.89434 z m 1.035154,0.0155 q 0,1.37158 0.734959,2.16347 0.740135,0.78672 1.852925,0.78672 1.133493,0 1.863277,-0.79707 0.734959,-0.79707 0.734959,-2.26181 0,-0.92646 -0.315722,-1.61484 -0.310546,-0.69355 -0.916111,-1.07138 -0.600389,-0.38301 -1.350876,-0.38301 -1.066208,0 -1.837398,0.73496 -0.766013,0.72978 -0.766013,2.44296 z"
       style="font-size:10.59997368px;font-family:Arial;fill:#000000;stroke-width:1.33333004"
       id="path1887"
       inkscape:connector-curvature="0" />
  </g>
  <path
     style="fill:#000000;fill-rule:evenodd;stroke:#000000;stroke-width:0;stroke-linejoin:miter;shape-rendering:geometricPrecision"
     inkscape:connector-curvature="0"
     id="path176"
     d="m -6.8472931,210.41164 v 0 l -0.04,-0.41334 -0.04,-0.41333 11.0266391,-9.95997 0.4133323,0.0933 0.4133323,0.0933 z" />
  <path
     style="fill:#000000;fill-rule:evenodd;stroke:#000000;stroke-width:0;stroke-linejoin:miter;shape-rendering:geometricPrecision"
     inkscape:connector-curvature="0"
     id="path180"
     d="m 4.9260108,199.81166 v 0 l -0.4133323,-0.0933 -0.4133323,-0.0933 -3.53332447,-7.94665 0.3066659,-0.13333 0.30666587,-0.14667 z" />
  <path
     style="fill:#000000;fill-rule:evenodd;stroke:#000000;stroke-width:0;stroke-linejoin:miter;shape-rendering:geometricPrecision"
     inkscape:connector-curvature="0"
     id="path184"
     d="m -6.4739607,185.86503 v 0 l 0.04,0.33333 0.026667,0.33334 -5.0799873,0.53333 -0.04,-0.33334 -0.02667,-0.33333 z" />
  <path
     style="fill:#000000;fill-rule:evenodd;stroke:#000000;stroke-width:0;stroke-linejoin:miter;shape-rendering:geometricPrecision"
     inkscape:connector-curvature="0"
     id="path188"
     d="m -18.580597,193.18501 v 0 l 0.333332,0.0667 0.333333,0.0667 -1.879995,8.82665 -0.386666,0.17333 -0.386666,0.17334 z" />
  <g
     aria-label="O"
     style="font-size:15.99995995px;text-anchor:start;stroke-width:1.33333004;text-rendering:geometricPrecision"
     id="text194">
    <path
       d="m 15.905053,203.38281 q 0,-1.88916 1.01445,-2.95536 1.014451,-1.07139 2.618939,-1.07139 1.050681,0 1.894331,0.50205 0.843651,0.50205 1.283591,1.40263 0.445116,0.89541 0.445116,2.03408 0,1.1542 -0.465819,2.06513 -0.465819,0.91094 -1.319821,1.38193 -0.854002,0.46582 -1.842574,0.46582 -1.071384,0 -1.915034,-0.51757 -0.84365,-0.51758 -1.278415,-1.41299 -0.434764,-0.89541 -0.434764,-1.89433 z m 1.035153,0.0155 q 0,1.37158 0.734959,2.16347 0.740135,0.78671 1.852926,0.78671 1.133493,0 1.863276,-0.79706 0.734959,-0.79707 0.734959,-2.26181 0,-0.92647 -0.315722,-1.61484 -0.310546,-0.69356 -0.916111,-1.07139 -0.600389,-0.38301 -1.350875,-0.38301 -1.066208,0 -1.837398,0.73496 -0.766014,0.72979 -0.766014,2.44297 z"
       style="font-size:10.59997368px;font-family:Arial;fill:#000000;stroke-width:1.33333004"
       id="path1884"
       inkscape:connector-curvature="0" />
  </g>
  <path
     style="stroke:#000000;stroke-width:0.67999828;shape-rendering:auto"
     d="m 4.8060107,198.37167 9.7333103,2.06667"
     id="line198" />
  <path
     style="fill:#000000;fill-rule:evenodd;stroke:#000000;stroke-width:0;stroke-linejoin:miter;shape-rendering:geometricPrecision"
     inkscape:connector-curvature="0"
     id="path200"
     d="m 3.9660132,200.66499 v 0 l -0.6266651,0.56 10.5599739,2.25333 0.146666,-0.66667 z" />
  <path
     style="fill:#000000;fill-rule:evenodd;stroke:#000000;stroke-width:0;stroke-linejoin:miter;shape-rendering:geometricPrecision"
     inkscape:connector-curvature="0"
     id="path202"
     d="m 4.0593463,197.865 v 0 l 0.3466658,0.76 10.0666419,2.14666 0.146666,-0.66667 z" />
  <path
     style="fill:#000000;fill-rule:evenodd;stroke:#000000;stroke-width:0;stroke-linejoin:miter;shape-rendering:geometricPrecision"
     inkscape:connector-curvature="0"
     id="path206"
     d="m 1.3660197,181.02504 v 0 l -0.2933326,-0.17333 -0.29333257,-0.16 4.78665467,-8.27998 h 0.3866657 0.3866657 z" />
  <path
     style="fill:#000000;fill-rule:evenodd;stroke:#000000;stroke-width:0;stroke-linejoin:miter;shape-rendering:geometricPrecision"
     inkscape:connector-curvature="0"
     id="path210"
     d="m 6.3393406,172.41173 v 0 H 5.9526749 5.5660092 l -4.3733224,-7.54665 0.2933326,-0.17333 0.2933326,-0.17333 z" />
  <g
     aria-label="Ph"
     style="font-size:15.99995995px;text-anchor:end;stroke-width:1.33333004;text-rendering:geometricPrecision"
     id="text216">
    <path
       d="m -10.957034,163.29176 v -7.58767 h 2.8621995 q 0.7556622,0 1.1541964,0.0725 0.5589829,0.0932 0.936814,0.35713 0.3778311,0.25878 0.6055649,0.72978 0.2329096,0.47099 0.2329096,1.03515 0,0.96787 -0.6159164,1.64072 -0.6159165,0.66768 -2.2255804,0.66768 h -1.946089 v 3.08475 z m 1.0040986,-3.98016 h 1.9616163 q 0.9730444,0 1.3819301,-0.36231 0.4088857,-0.3623 0.4088857,-1.01962 0,-0.47617 -0.2432611,-0.8126 -0.2380853,-0.3416 -0.6314437,-0.45029 -0.2536127,-0.0673 -0.9368141,-0.0673 h -1.9409132 z"
       style="font-size:10.59997368px;font-family:Arial;fill:#000000;stroke-width:1.33333004"
       id="path1878"
       inkscape:connector-curvature="0" />
    <path
       d="m -3.9956261,163.29176 v -7.58767 h 0.9316383 v 2.72245 q 0.6521468,-0.75566 1.6458944,-0.75566 0.61074065,0 1.0610325,0.24326 0.45029185,0.23809 0.64179528,0.6625 0.1966792,0.42441 0.1966792,1.23183 v 3.48329 h -0.93163831 v -3.48329 q 0,-0.69873 -0.30537034,-1.01445 -0.30019453,-0.3209 -0.85400183,-0.3209 -0.4140614,0 -0.781541,0.21739 -0.3623038,0.2122 -0.5175768,0.57968 -0.1552731,0.36748 -0.1552731,1.01445 v 3.00712 z"
       style="font-size:10.59997368px;font-family:Arial;fill:#000000;stroke-width:1.33333004"
       id="path1880"
       inkscape:connector-curvature="0" />
  </g>
  <path
     style="stroke:#000000;stroke-width:0.67999828;shape-rendering:auto"
     d="m 5.9526753,171.02505 9.9999747,0.0134"
     id="line220" />
  <path
     style="fill:#000000;fill-rule:evenodd;stroke:#000000;stroke-width:0;stroke-linejoin:miter;shape-rendering:geometricPrecision"
     inkscape:connector-curvature="0"
     id="path222"
     d="m 5.7393421,173.45173 v 0 l -0.3866657,0.68 H 15.95265 v -0.68 z" />
  <path
     style="fill:#000000;fill-rule:evenodd;stroke:#000000;stroke-width:0;stroke-linejoin:miter;shape-rendering:geometricPrecision"
     inkscape:connector-curvature="0"
     id="path224"
     d="m 5.3526764,170.69173 v 0 l 0.3866657,0.68 H 15.95265 v -0.68 z" />
  <g
     aria-label="O"
     style="font-size:15.99995995px;text-anchor:start;stroke-width:1.33333004;text-rendering:geometricPrecision"
     id="text230">
    <path
       d="m 17.665048,172.88957 q 0,-1.88916 1.014451,-2.95536 1.01445,-1.07139 2.618939,-1.07139 1.05068,0 1.894331,0.50205 0.84365,0.50205 1.28359,1.40263 0.445116,0.89541 0.445116,2.03408 0,1.1542 -0.465819,2.06513 -0.465819,0.91094 -1.319821,1.38193 -0.854001,0.46582 -1.842573,0.46582 -1.071384,0 -1.915035,-0.51757 -0.84365,-0.51758 -1.278414,-1.41299 -0.434765,-0.89541 -0.434765,-1.89433 z m 1.035154,0.0155 q 0,1.37158 0.734959,2.16347 0.740135,0.78671 1.852925,0.78671 1.133493,0 1.863277,-0.79706 0.734959,-0.79707 0.734959,-2.26181 0,-0.92647 -0.315722,-1.61484 -0.310546,-0.69356 -0.916111,-1.07139 -0.600389,-0.38301 -1.350876,-0.38301 -1.066208,0 -1.837398,0.73496 -0.766013,0.72979 -0.766013,2.44297 z"
       style="font-size:10.59997368px;font-family:Arial;fill:#000000;stroke-width:1.33333004"
       id="path1874"
       inkscape:connector-curvature="0" />
  </g>
  <g
     aria-label="NH"
     style="font-size:15.99995995px;text-anchor:start;stroke-width:1.33333004;text-rendering:geometricPrecision"
     id="text238">
    <path
       d="m 131.15979,204.81166 v -7.58768 h 1.02998 l 3.98534,5.95731 v -5.95731 h 0.96269 v 7.58768 h -1.02997 l -3.98535,-5.96248 v 5.96248 z"
       style="font-size:10.59997368px;font-family:Arial;fill:#000000;stroke-width:1.33333004"
       id="path1869"
       inkscape:connector-curvature="0" />
    <path
       d="m 138.86133,204.81166 v -7.58768 h 1.0041 v 3.11582 h 3.94394 v -3.11582 h 1.0041 v 7.58768 h -1.0041 v -3.57646 h -3.94394 v 3.57646 z"
       style="font-size:10.59997368px;font-family:Arial;fill:#cc78a6;stroke-width:1.33333004"
       id="path1871"
       inkscape:connector-curvature="0" />
  </g>
  <g
     aria-label="O"
     style="font-size:15.99995995px;text-anchor:start;stroke-width:1.33333004;text-rendering:geometricPrecision"
     id="text244">
    <path
       d="m 115.3048,202.72947 q 0,-1.88915 1.01445,-2.95536 1.01445,-1.07138 2.61894,-1.07138 1.05068,0 1.89433,0.50205 0.84365,0.50205 1.28359,1.40263 0.44511,0.89541 0.44511,2.03408 0,1.15419 -0.46581,2.06513 -0.46582,0.91093 -1.31983,1.38193 -0.854,0.46582 -1.84257,0.46582 -1.07138,0 -1.91503,-0.51758 -0.84365,-0.51758 -1.27842,-1.41298 -0.43476,-0.89541 -0.43476,-1.89434 z m 1.03515,0.0155 q 0,1.37158 0.73496,2.16347 0.74014,0.78672 1.85293,0.78672 1.13349,0 1.86327,-0.79707 0.73496,-0.79707 0.73496,-2.26181 0,-0.92646 -0.31572,-1.61484 -0.31055,-0.69355 -0.91611,-1.07138 -0.60039,-0.38301 -1.35088,-0.38301 -1.06621,0 -1.83739,0.73496 -0.76602,0.72978 -0.76602,2.44296 z"
       style="font-size:10.59997368px;font-family:Arial;fill:#000000;stroke-width:1.33333004"
       id="path1866"
       inkscape:connector-curvature="0" />
  </g>
  <path
     style="fill:#000000;fill-rule:evenodd;stroke:#000000;stroke-width:0;stroke-linejoin:miter;shape-rendering:geometricPrecision"
     inkscape:connector-curvature="0"
     id="path248"
     d="m 115.33907,217.43828 v 0 l 0.38666,-0.17333 0.38667,-0.17333 12.86663,7.42665 0.04,0.41333 0.04,0.41333 z" />
  <path
     style="fill:#000000;fill-rule:evenodd;stroke:#000000;stroke-width:0;stroke-linejoin:miter;shape-rendering:geometricPrecision"
     inkscape:connector-curvature="0"
     id="path252"
     d="m 129.05903,225.34493 v 0 l -0.04,-0.41333 -0.04,-0.41333 11.02664,-9.94664 0.41334,0.0933 0.41333,0.0933 z" />
  <path
     style="fill:#000000;fill-rule:evenodd;stroke:#000000;stroke-width:0;stroke-linejoin:miter;shape-rendering:geometricPrecision"
     inkscape:connector-curvature="0"
     id="path256"
     d="m 140.83234,214.75829 v 0 l -0.41333,-0.0933 -0.41334,-0.0933 -3.54665,-7.95998 0.30666,-0.13334 0.32,-0.14666 z" />
  <path
     style="fill:#000000;fill-rule:evenodd;stroke:#000000;stroke-width:0;stroke-linejoin:miter;shape-rendering:geometricPrecision"
     inkscape:connector-curvature="0"
     id="path260"
     d="m 129.5257,200.79833 v 0 l 0.04,0.33333 0.0267,0.34666 -5.21332,0.54667 -0.04,-0.34667 -0.0267,-0.33333 z" />
  <path
     style="fill:#000000;fill-rule:evenodd;stroke:#000000;stroke-width:0;stroke-linejoin:miter;shape-rendering:geometricPrecision"
     inkscape:connector-curvature="0"
     id="path264"
     d="m 117.29906,208.25164 v 0 l 0.33334,0.0667 0.33333,0.0667 -1.85333,8.70665 -0.38667,0.17333 -0.38666,0.17333 z" />
  <g
     aria-label="O"
     style="font-size:15.99995995px;text-anchor:start;stroke-width:1.33333004;text-rendering:geometricPrecision"
     id="text270">
    <path
       d="m 151.81138,218.32943 q 0,-1.88915 1.01445,-2.95536 1.01445,-1.07138 2.61894,-1.07138 1.05068,0 1.89433,0.50205 0.84365,0.50205 1.28359,1.40263 0.44512,0.89541 0.44512,2.03408 0,1.15419 -0.46582,2.06513 -0.46582,0.91093 -1.31982,1.38193 -0.854,0.46582 -1.84257,0.46582 -1.07139,0 -1.91504,-0.51758 -0.84365,-0.51758 -1.27841,-1.41298 -0.43477,-0.89541 -0.43477,-1.89434 z m 1.03516,0.0155 q 0,1.37158 0.73495,2.16347 0.74014,0.78672 1.85293,0.78672 1.13349,0 1.86328,-0.79707 0.73496,-0.79707 0.73496,-2.26181 0,-0.92646 -0.31573,-1.61484 -0.31054,-0.69355 -0.91611,-1.07138 -0.60039,-0.38301 -1.35087,-0.38301 -1.06621,0 -1.8374,0.73496 -0.76601,0.72978 -0.76601,2.44296 z"
       style="font-size:10.59997368px;font-family:Arial;fill:#000000;stroke-width:1.33333004"
       id="path1863"
       inkscape:connector-curvature="0" />
  </g>
  <path
     style="stroke:#000000;stroke-width:0.67999828;shape-rendering:auto"
     d="m 140.71234,213.31828 9.82663,2.08"
     id="line274" />
  <path
     style="fill:#000000;fill-rule:evenodd;stroke:#000000;stroke-width:0;stroke-linejoin:miter;shape-rendering:geometricPrecision"
     inkscape:connector-curvature="0"
     id="path276"
     d="m 139.87234,215.61162 v 0 l -0.62666,0.56 10.6533,2.26666 0.14667,-0.66666 z" />
  <path
     style="fill:#000000;fill-rule:evenodd;stroke:#000000;stroke-width:0;stroke-linejoin:miter;shape-rendering:geometricPrecision"
     inkscape:connector-curvature="0"
     id="path278"
     d="m 139.96567,212.81163 v 0 l 0.34667,0.76 10.15997,2.15999 0.14667,-0.66666 z" />
  <path
     style="fill:#e69e00;stroke:#e69e00;stroke-width:0.1466663"
     d="m 14.585986,79.878632 a 1.8733286,1.8733286 0 0 1 -1.873328,1.873328 1.8733286,1.8733286 0 0 1 -1.873329,-1.873328 1.8733286,1.8733286 0 0 1 1.873329,-1.873329 1.8733286,1.8733286 0 0 1 1.873328,1.873329 z"
     id="circle297" />
  <path
     style="stroke:#e69e00;stroke-width:0.67999828;shape-rendering:auto"
     d="M 12.712658,79.878632 H 98.365784"
     id="line301" />
  <path
     style="fill:#000000;fill-rule:evenodd;stroke:#000000;stroke-width:0;stroke-linejoin:miter;shape-rendering:geometricPrecision"
     inkscape:connector-curvature="0"
     id="path303"
     d="m 145.15233,165.05175 v 0 l -0.2,0.34666 -0.2,0.34667 h -11.19997 v -0.34667 -0.33333 z" />
  <g
     aria-label="Ph"
     style="font-size:15.99995995px;text-anchor:end;stroke-width:1.33333004;text-rendering:geometricPrecision"
     id="text309">
    <path
       d="m 120.37598,169.55841 v -7.58768 h 2.8622 q 0.75566,0 1.15419,0.0725 0.55899,0.0932 0.93682,0.35713 0.37783,0.25879 0.60556,0.72979 0.23291,0.47099 0.23291,1.03515 0,0.96787 -0.61592,1.64072 -0.61591,0.66767 -2.22558,0.66767 h -1.94608 v 3.08476 z m 1.0041,-3.98017 h 1.96161 q 0.97305,0 1.38193,-0.3623 0.40889,-0.3623 0.40889,-1.01963 0,-0.47617 -0.24326,-0.81259 -0.23809,-0.3416 -0.63145,-0.45029 -0.25361,-0.0673 -0.93681,-0.0673 h -1.94091 z"
       style="font-size:10.59997368px;font-family:Arial;fill:#000000;stroke-width:1.33333004"
       id="path1855"
       inkscape:connector-curvature="0" />
    <path
       d="m 127.33738,169.55841 v -7.58768 h 0.93164 v 2.72246 q 0.65215,-0.75566 1.6459,-0.75566 0.61074,0 1.06103,0.24326 0.45029,0.23808 0.6418,0.6625 0.19667,0.42441 0.19667,1.23183 v 3.48329 h -0.93163 v -3.48329 q 0,-0.69873 -0.30537,-1.01445 -0.3002,-0.3209 -0.85401,-0.3209 -0.41406,0 -0.78154,0.21738 -0.3623,0.21221 -0.51757,0.57969 -0.15528,0.36748 -0.15528,1.01445 v 3.00712 z"
       style="font-size:10.59997368px;font-family:Arial;fill:#000000;stroke-width:1.33333004"
       id="path1857"
       inkscape:connector-curvature="0" />
  </g>
  <g
     aria-label="O"
     style="font-size:15.99995995px;text-anchor:start;stroke-width:1.33333004;text-rendering:geometricPrecision"
     id="text315">
    <path
       d="m 149.01138,152.58293 q 0,-1.88916 1.01445,-2.95537 1.01445,-1.07138 2.61894,-1.07138 1.05068,0 1.89433,0.50205 0.84365,0.50205 1.28359,1.40263 0.44512,0.89541 0.44512,2.03408 0,1.1542 -0.46582,2.06513 -0.46582,0.91094 -1.31982,1.38193 -0.85401,0.46582 -1.84258,0.46582 -1.07138,0 -1.91503,-0.51758 -0.84365,-0.51757 -1.27842,-1.41298 -0.43476,-0.89541 -0.43476,-1.89433 z m 1.03515,0.0155 q 0,1.37157 0.73496,2.16347 0.74014,0.78671 1.85293,0.78671 1.13349,0 1.86327,-0.79706 0.73496,-0.79707 0.73496,-2.26182 0,-0.92646 -0.31572,-1.61484 -0.31055,-0.69355 -0.91611,-1.07138 -0.60039,-0.38301 -1.35088,-0.38301 -1.0662,0 -1.83739,0.73496 -0.76602,0.72979 -0.76602,2.44297 z"
       style="font-size:10.59997368px;font-family:Arial;fill:#cc78a6;stroke-width:1.33333004"
       id="path1852"
       inkscape:connector-curvature="0" />
  </g>
  <path
     style="stroke:#cc78a6;stroke-width:0.67999828;shape-rendering:auto"
     d="m 143.75232,164.70509 4.28,-7.39999"
     id="line319" />
  <path
     style="fill:#cc78a6;fill-rule:evenodd;stroke:#cc78a6;stroke-width:0;stroke-linejoin:miter;shape-rendering:geometricPrecision"
     inkscape:connector-curvature="0"
     id="path321"
     d="m 145.75233,166.10508 v 0 l 0.38666,0.68 4.58666,-7.93332 -0.58667,-0.33333 z" />
  <path
     style="fill:#cc78a6;fill-rule:evenodd;stroke:#cc78a6;stroke-width:0;stroke-linejoin:miter;shape-rendering:geometricPrecision"
     inkscape:connector-curvature="0"
     id="path323"
     d="m 143.16567,165.05175 v 0 h 0.78666 l 4.37332,-7.58665 -0.58666,-0.33333 z" />
  <path
     style="fill:#009d73;fill-rule:evenodd;stroke:#009d73;stroke-width:0;stroke-linejoin:miter;shape-rendering:geometricPrecision"
     inkscape:connector-curvature="0"
     id="path327"
     d="m 144.75233,165.74508 v 0 l 0.2,-0.34667 0.2,-0.34666 4.94665,8.57331 -0.29333,0.16 -0.29333,0.17333 z" />
  <g
     aria-label="H"
     style="font-size:15.99995995px;text-anchor:start;stroke-width:1.33333004;text-rendering:geometricPrecision"
     id="text333">
    <path
       d="m 149.61982,182.89171 v -7.6354 h 1.01041 v 3.13541 h 3.96874 v -3.13541 h 1.01042 v 7.6354 h -1.01042 v -3.59895 h -3.96874 v 3.59895 z"
       style="font-size:10.66664028px;font-family:Arial;fill:#009d73;stroke-width:1.33333004"
       id="path1848"
       inkscape:connector-curvature="0" />
  </g>
  <path
     style="stroke:#000000;stroke-width:0.67999828;shape-rendering:auto"
     d="M 99.952438,114.25188 H 30.819279"
     id="line337" />
  <path
     style="fill:#000000;fill-rule:evenodd;stroke:#000000;stroke-width:0;stroke-linejoin:miter;stroke-miterlimit:5.89496231;shape-rendering:geometricPrecision"
     inkscape:connector-curvature="0"
     id="path339"
     stroke-miterlimit="5.89496254687647"
     d="m 104.56576,114.25188 -6.799981,-1.70667 c 1.439996,0.96 1.439996,2.45333 0,3.41333 z" />
  <g
     aria-label="1) Cp2Zr(H)Cl"
     style="font-size:15.99995995px;text-anchor:middle;stroke-width:1.33333004;text-rendering:geometricPrecision"
     id="text350">
    <path
       d="m 35.74128,107.46523 h -0.931638 v -5.9366 q -0.336425,0.32089 -0.885056,0.64179 -0.543456,0.3209 -0.97822,0.48135 v -0.90059 q 0.781541,-0.36748 1.366402,-0.89023 0.584862,-0.52275 0.828123,-1.014448 h 0.600389 z"
       style="font-size:10.59997368px;font-family:Arial;fill:#000000;stroke-width:1.33333004"
       id="path1822"
       inkscape:connector-curvature="0" />
    <path
       d="M 39.002014,109.69599 H 38.33434 q 1.547555,-2.48437 1.547555,-4.97391 0,-0.97305 -0.222558,-1.93057 -0.175976,-0.77636 -0.491698,-1.49062 -0.201855,-0.46582 -0.833299,-1.552728 h 0.667674 q 0.973045,1.299118 1.438864,2.608588 0.398534,1.12832 0.398534,2.36015 0,1.39746 -0.53828,2.70175 -0.533104,1.30429 -1.299118,2.27734 z"
       style="font-size:10.59997368px;font-family:Arial;fill:#000000;stroke-width:1.33333004"
       id="path1824"
       inkscape:connector-curvature="0" />
    <path
       d="m 50.404232,104.80489 1.004099,0.25361 q -0.315722,1.23701 -1.138669,1.88916 -0.817771,0.64697 -2.003022,0.64697 -1.226657,0 -1.997847,-0.49688 -0.766013,-0.50205 -1.169723,-1.44921 -0.398535,-0.94717 -0.398535,-2.03408 0,-1.18525 0.450292,-2.06513 0.455468,-0.88506 1.288767,-1.34052 0.838474,-0.460648 1.842573,-0.460648 1.138669,0 1.915034,0.579688 0.776366,0.57968 1.081736,1.63037 l -0.988572,0.2329 q -0.263964,-0.82812 -0.766013,-1.20595 -0.50205,-0.37783 -1.262888,-0.37783 -0.874705,0 -1.464742,0.41924 -0.584862,0.41923 -0.822948,1.12831 -0.238085,0.70391 -0.238085,1.4544 0,0.96786 0.279492,1.69247 0.284667,0.71943 0.87988,1.07656 0.595214,0.35713 1.288767,0.35713 0.84365,0 1.428512,-0.48652 0.584861,-0.48652 0.791892,-1.44404 z"
       style="font-size:10.59997368px;font-family:Arial;fill:#009d73;stroke-width:1.33333004"
       id="path1826"
       inkscape:connector-curvature="0" />
    <path
       d="m 52.531473,109.57177 v -7.6032 h 0.848826 v 0.71425 q 0.300195,-0.41923 0.678026,-0.62627 0.377831,-0.2122 0.916111,-0.2122 0.703904,0 1.242184,0.3623 0.53828,0.36231 0.812596,1.0248 0.274315,0.65733 0.274315,1.44404 0,0.84365 -0.30537,1.52168 -0.300194,0.67285 -0.879881,1.03515 -0.57451,0.35713 -1.211129,0.35713 -0.465819,0 -0.838475,-0.19668 -0.367479,-0.19668 -0.605565,-0.49687 v 2.67587 z m 0.84365,-4.82382 q 0,1.06104 0.429589,1.56826 0.429589,0.50723 1.040329,0.50723 0.621093,0 1.061033,-0.52276 0.445116,-0.52792 0.445116,-1.63036 0,-1.05068 -0.434765,-1.57344 -0.429588,-0.52275 -1.029977,-0.52275 -0.595214,0 -1.055857,0.55898 -0.455468,0.55381 -0.455468,1.61484 z"
       style="font-size:10.59997368px;font-family:Arial;fill:#009d73;stroke-width:1.33333004"
       id="path1828"
       inkscape:connector-curvature="0" />
    <path
       d="m 61.735283,109.19367 v 0.67156 h -3.76149 q -0.0078,-0.25232 0.08152,-0.48523 0.143628,-0.3843 0.458056,-0.75696 0.318309,-0.37265 0.916111,-0.86176 0.927756,-0.76084 1.25383,-1.20337 0.326073,-0.44641 0.326073,-0.84236 0,-0.41535 -0.298901,-0.69872 -0.295018,-0.28726 -0.772483,-0.28726 -0.504637,0 -0.80742,0.30278 -0.302782,0.30279 -0.306664,0.83848 l -0.718138,-0.0738 q 0.07375,-0.80354 0.555101,-1.22277 0.481347,-0.42312 1.292648,-0.42312 0.819066,0 1.29653,0.45417 0.477465,0.45418 0.477465,1.12573 0,0.3416 -0.139746,0.67156 -0.139746,0.32995 -0.465819,0.69484 -0.322192,0.3649 -1.075266,1.00152 -0.628856,0.52792 -0.80742,0.71813 -0.178564,0.18633 -0.295019,0.37654 z"
       style="font-size:7.94998026px;font-family:Arial;fill:#009d73;stroke-width:1.33333004"
       id="path1830"
       inkscape:connector-curvature="0" />
    <path
       d="m 62.37061,107.46523 v -0.93164 l 3.887002,-4.86004 q 0.414061,-0.51758 0.786716,-0.90059 H 62.81055 v -0.895404 h 5.434557 v 0.895404 l -4.259658,5.26376 -0.460643,0.5331 h 4.844519 v 0.89541 z"
       style="font-size:10.59997368px;font-family:Arial;fill:#009d73;stroke-width:1.33333004"
       id="path1832"
       inkscape:connector-curvature="0" />
    <path
       d="m 69.326841,107.46523 v -5.49666 h 0.838474 v 0.8333 q 0.320898,-0.58487 0.590038,-0.77119 0.274316,-0.18633 0.600389,-0.18633 0.470995,0 0.957517,0.30019 l -0.320897,0.86436 q -0.341601,-0.20186 -0.683202,-0.20186 -0.30537,0 -0.548631,0.18633 -0.243261,0.18115 -0.346777,0.50722 -0.155273,0.49688 -0.155273,1.08692 v 2.87772 z"
       style="font-size:10.59997368px;font-family:Arial;fill:#009d73;stroke-width:1.33333004"
       id="path1834"
       inkscape:connector-curvature="0" />
    <path
       d="m 74.657883,109.69599 q -0.77119,-0.97305 -1.304294,-2.27734 -0.533104,-1.30429 -0.533104,-2.70175 0,-1.23183 0.398534,-2.36015 0.465819,-1.30947 1.438864,-2.608588 h 0.667674 q -0.626268,1.076558 -0.828123,1.537208 -0.315722,0.71425 -0.496874,1.49062 -0.222558,0.96787 -0.222558,1.94609 0,2.48954 1.547555,4.97391 z"
       style="font-size:10.59997368px;font-family:Arial;fill:#009d73;stroke-width:1.33333004"
       id="path1836"
       inkscape:connector-curvature="0" />
    <path
       d="m 76.567742,107.46523 v -7.587674 h 1.004099 v 3.115814 h 3.943935 v -3.115814 h 1.004099 v 7.587674 h -1.004099 v -3.57645 h -3.943935 v 3.57645 z"
       style="font-size:10.59997368px;font-family:Arial;fill:#009d73;stroke-width:1.33333004"
       id="path1838"
       inkscape:connector-curvature="0" />
    <path
       d="m 84.688522,109.69599 h -0.667674 q 1.547555,-2.48437 1.547555,-4.97391 0,-0.97305 -0.222558,-1.93057 -0.175976,-0.77636 -0.491698,-1.49062 -0.201855,-0.46582 -0.833299,-1.552728 h 0.667674 q 0.973045,1.299118 1.438864,2.608588 0.398534,1.12832 0.398534,2.36015 0,1.39746 -0.53828,2.70175 -0.533104,1.30429 -1.299118,2.27734 z"
       style="font-size:10.59997368px;font-family:Arial;fill:#009d73;stroke-width:1.33333004"
       id="path1840"
       inkscape:connector-curvature="0" />
    <path
       d="m 93.150904,104.80489 1.004099,0.25361 q -0.315722,1.23701 -1.138669,1.88916 -0.817772,0.64697 -2.003022,0.64697 -1.226658,0 -1.997847,-0.49688 -0.766014,-0.50205 -1.169724,-1.44921 -0.398534,-0.94717 -0.398534,-2.03408 0,-1.18525 0.450292,-2.06513 0.455468,-0.88506 1.288766,-1.34052 0.838475,-0.460648 1.842574,-0.460648 1.138669,0 1.915034,0.579688 0.776365,0.57968 1.081736,1.63037 l -0.988572,0.2329 q -0.263964,-0.82812 -0.766014,-1.20595 -0.502049,-0.37783 -1.262887,-0.37783 -0.874705,0 -1.464743,0.41924 -0.584862,0.41923 -0.822947,1.12831 -0.238085,0.70391 -0.238085,1.4544 0,0.96786 0.279491,1.69247 0.284668,0.71943 0.879881,1.07656 0.595213,0.35713 1.288766,0.35713 0.84365,0 1.428512,-0.48652 0.584862,-0.48652 0.791893,-1.44404 z"
       style="font-size:10.59997368px;font-family:Arial;fill:#009d73;stroke-width:1.33333004"
       id="path1842"
       inkscape:connector-curvature="0" />
    <path
       d="m 95.257442,107.46523 v -7.587674 h 0.931638 v 7.587674 z"
       style="font-size:10.59997368px;font-family:Arial;fill:#009d73;stroke-width:1.33333004"
       id="path1844"
       inkscape:connector-curvature="0" />
  </g>
  <g
     aria-label="2) H2O"
     style="font-size:15.99995995px;text-anchor:start;stroke-width:1.33333004;text-rendering:geometricPrecision"
     id="text362">
    <path
       d="m 36.995496,126.75642 v 0.89541 h -5.015319 q -0.01035,-0.33642 0.108691,-0.64697 0.191503,-0.5124 0.61074,-1.00927 0.424413,-0.49688 1.221482,-1.14902 1.237008,-1.01445 1.671773,-1.60449 0.434764,-0.59522 0.434764,-1.12314 0,-0.55381 -0.398534,-0.93164 -0.393358,-0.38301 -1.029978,-0.38301 -0.67285,0 -1.07656,0.40371 -0.403709,0.40371 -0.408885,1.11797 l -0.957517,-0.0983 q 0.09834,-1.07139 0.740135,-1.63037 0.641795,-0.56416 1.72353,-0.56416 1.092088,0 1.728707,0.60557 0.63662,0.60556 0.63662,1.50097 0,0.45547 -0.186328,0.89541 -0.186328,0.43994 -0.621092,0.92646 -0.429589,0.48652 -1.433688,1.33535 -0.838475,0.7039 -1.07656,0.95752 -0.238085,0.24843 -0.393358,0.50204 z"
       style="font-size:10.59997368px;font-family:Arial;fill:#000000;stroke-width:1.33333004"
       id="path1811"
       inkscape:connector-curvature="0" />
    <path
       d="M 38.869124,129.88259 H 38.20145 q 1.547555,-2.48437 1.547555,-4.97391 0,-0.97305 -0.222558,-1.93057 -0.175976,-0.77636 -0.491698,-1.49062 -0.201855,-0.46582 -0.833299,-1.55273 h 0.667674 q 0.973045,1.29912 1.438864,2.60859 0.398534,1.12832 0.398534,2.36015 0,1.39746 -0.53828,2.70175 -0.533104,1.30429 -1.299118,2.27734 z"
       style="font-size:10.59997368px;font-family:Arial;fill:#000000;stroke-width:1.33333004"
       id="path1813"
       inkscape:connector-curvature="0" />
    <path
       d="m 44.888543,127.65183 v -7.58767 h 1.004099 v 3.11581 h 3.943935 v -3.11581 h 1.004099 v 7.58767 h -1.004099 v -3.57645 h -3.943935 v 3.57645 z"
       style="font-size:10.59997368px;font-family:Arial;fill:#cc78a6;stroke-width:1.33333004"
       id="path1815"
       inkscape:connector-curvature="0" />
    <path
       d="m 55.702017,129.38027 v 0.67156 h -3.76149 q -0.0078,-0.25232 0.08152,-0.48523 0.143628,-0.3843 0.458056,-0.75696 0.31831,-0.37265 0.916111,-0.86176 0.927756,-0.76084 1.25383,-1.20337 0.326073,-0.44641 0.326073,-0.84236 0,-0.41535 -0.2989,-0.69872 -0.295019,-0.28726 -0.772484,-0.28726 -0.504637,0 -0.80742,0.30278 -0.302782,0.30279 -0.306664,0.83848 l -0.718138,-0.0738 q 0.07376,-0.80354 0.555101,-1.22277 0.481347,-0.42312 1.292649,-0.42312 0.819065,0 1.29653,0.45417 0.477464,0.45418 0.477464,1.12573 0,0.3416 -0.139746,0.67156 -0.139745,0.32995 -0.465819,0.69484 -0.322191,0.3649 -1.075266,1.00152 -0.628855,0.52792 -0.807419,0.71813 -0.178565,0.18633 -0.295019,0.37654 z"
       style="font-size:7.94998026px;font-family:Arial;fill:#cc78a6;stroke-width:1.33333004"
       id="path1817"
       inkscape:connector-curvature="0" />
    <path
       d="m 56.637536,123.95633 q 0,-1.88915 1.014451,-2.95536 1.014451,-1.07138 2.618939,-1.07138 1.050681,0 1.894331,0.50205 0.84365,0.50205 1.283591,1.40263 0.445116,0.89541 0.445116,2.03408 0,1.15419 -0.465819,2.06513 -0.46582,0.91093 -1.319821,1.38193 -0.854002,0.46582 -1.842574,0.46582 -1.071384,0 -1.915034,-0.51758 -0.84365,-0.51758 -1.278415,-1.41298 -0.434765,-0.89541 -0.434765,-1.89434 z m 1.035154,0.0155 q 0,1.37158 0.734959,2.16347 0.740135,0.78672 1.852925,0.78672 1.133494,0 1.863277,-0.79707 0.734959,-0.79707 0.734959,-2.26181 0,-0.92646 -0.315722,-1.61484 -0.310546,-0.69355 -0.916111,-1.07138 -0.600389,-0.38301 -1.350875,-0.38301 -1.066209,0 -1.837398,0.73496 -0.766014,0.72978 -0.766014,2.44296 z"
       style="font-size:10.59997368px;font-family:Arial;fill:#cc78a6;stroke-width:1.33333004"
       id="path1819"
       inkscape:connector-curvature="0" />
  </g>
  <path
     style="stroke:#000000;stroke-width:0.67999828;shape-rendering:auto"
     d="M 99.952438,188.75835 H 30.819279"
     id="line366" />
  <path
     style="fill:#000000;fill-rule:evenodd;stroke:#000000;stroke-width:0;stroke-linejoin:miter;stroke-miterlimit:5.89496231;shape-rendering:geometricPrecision"
     inkscape:connector-curvature="0"
     id="path368"
     stroke-miterlimit="5.89496254687647"
     d="m 104.56576,188.75836 -6.799981,-1.70667 c 1.439996,0.96 1.439996,2.45333 0,3.41333 z" />
  <g
     aria-label="1) Cp2Zr(H)Cl"
     style="font-size:15.99995995px;text-anchor:middle;stroke-width:1.33333004;text-rendering:geometricPrecision"
     id="text380">
    <path
       d="m 35.74128,181.95837 h -0.931638 v -5.9366 q -0.336425,0.3209 -0.885056,0.64179 -0.543456,0.3209 -0.97822,0.48135 v -0.90058 q 0.781541,-0.36748 1.366402,-0.89024 0.584862,-0.52275 0.828123,-1.01445 h 0.600389 z"
       style="font-size:10.59997368px;font-family:Arial;fill:#000000;stroke-width:1.33333004"
       id="path1785"
       inkscape:connector-curvature="0" />
    <path
       d="M 39.002014,184.18913 H 38.33434 q 1.547555,-2.48437 1.547555,-4.97391 0,-0.97305 -0.222558,-1.93056 -0.175976,-0.77637 -0.491698,-1.49063 -0.201855,-0.46582 -0.833299,-1.55273 h 0.667674 q 0.973045,1.29912 1.438864,2.60859 0.398534,1.12832 0.398534,2.36015 0,1.39746 -0.53828,2.70175 -0.533104,1.3043 -1.299118,2.27734 z"
       style="font-size:10.59997368px;font-family:Arial;fill:#000000;stroke-width:1.33333004"
       id="path1787"
       inkscape:connector-curvature="0" />
    <path
       d="m 50.404232,179.29803 1.004099,0.25361 q -0.315722,1.23701 -1.138669,1.88916 -0.817771,0.64697 -2.003022,0.64697 -1.226657,0 -1.997847,-0.49688 -0.766013,-0.50205 -1.169723,-1.44921 -0.398535,-0.94717 -0.398535,-2.03408 0,-1.18525 0.450292,-2.06513 0.455468,-0.88506 1.288767,-1.34052 0.838474,-0.46065 1.842573,-0.46065 1.138669,0 1.915034,0.57969 0.776366,0.57969 1.081736,1.63037 l -0.988572,0.23291 q -0.263964,-0.82813 -0.766013,-1.20596 -0.50205,-0.37783 -1.262888,-0.37783 -0.874705,0 -1.464742,0.41924 -0.584862,0.41924 -0.822948,1.12832 -0.238085,0.7039 -0.238085,1.45439 0,0.96787 0.279492,1.69247 0.284667,0.71943 0.87988,1.07656 0.595214,0.35713 1.288767,0.35713 0.84365,0 1.428512,-0.48652 0.584861,-0.48652 0.791892,-1.44404 z"
       style="font-size:10.59997368px;font-family:Arial;fill:#009d73;stroke-width:1.33333004"
       id="path1789"
       inkscape:connector-curvature="0" />
    <path
       d="m 52.531473,184.06491 v -7.6032 h 0.848826 v 0.71425 q 0.300195,-0.41923 0.678026,-0.62626 0.377831,-0.21221 0.916111,-0.21221 0.703904,0 1.242184,0.3623 0.53828,0.36231 0.812596,1.02481 0.274315,0.65732 0.274315,1.44403 0,0.84366 -0.30537,1.52168 -0.300194,0.67285 -0.879881,1.03515 -0.57451,0.35713 -1.211129,0.35713 -0.465819,0 -0.838475,-0.19668 -0.367479,-0.19668 -0.605565,-0.49687 v 2.67587 z m 0.84365,-4.82381 q 0,1.06103 0.429589,1.56825 0.429589,0.50723 1.040329,0.50723 0.621093,0 1.061033,-0.52275 0.445116,-0.52793 0.445116,-1.63037 0,-1.05068 -0.434765,-1.57343 -0.429588,-0.52276 -1.029977,-0.52276 -0.595214,0 -1.055857,0.55899 -0.455468,0.5538 -0.455468,1.61484 z"
       style="font-size:10.59997368px;font-family:Arial;fill:#009d73;stroke-width:1.33333004"
       id="path1791"
       inkscape:connector-curvature="0" />
    <path
       d="m 61.735283,183.68681 v 0.67156 h -3.76149 q -0.0078,-0.25232 0.08152,-0.48523 0.143628,-0.3843 0.458056,-0.75696 0.318309,-0.37265 0.916111,-0.86176 0.927756,-0.76084 1.25383,-1.20337 0.326073,-0.44641 0.326073,-0.84235 0,-0.41536 -0.298901,-0.69873 -0.295018,-0.28726 -0.772483,-0.28726 -0.504637,0 -0.80742,0.30278 -0.302782,0.30279 -0.306664,0.83848 l -0.718138,-0.0738 q 0.07375,-0.80353 0.555101,-1.22277 0.481347,-0.42312 1.292648,-0.42312 0.819066,0 1.29653,0.45417 0.477465,0.45418 0.477465,1.12573 0,0.3416 -0.139746,0.67156 -0.139746,0.32995 -0.465819,0.69485 -0.322192,0.36489 -1.075266,1.00151 -0.628856,0.52793 -0.80742,0.71813 -0.178564,0.18633 -0.295019,0.37654 z"
       style="font-size:7.94998026px;font-family:Arial;fill:#009d73;stroke-width:1.33333004"
       id="path1793"
       inkscape:connector-curvature="0" />
    <path
       d="m 62.37061,181.95837 v -0.93163 l 3.887002,-4.86005 q 0.414061,-0.51758 0.786716,-0.90058 H 62.81055 v -0.89541 h 5.434557 v 0.89541 l -4.259658,5.26375 -0.460643,0.53311 h 4.844519 v 0.8954 z"
       style="font-size:10.59997368px;font-family:Arial;fill:#009d73;stroke-width:1.33333004"
       id="path1795"
       inkscape:connector-curvature="0" />
    <path
       d="m 69.326841,181.95837 v -5.49666 h 0.838474 v 0.8333 q 0.320898,-0.58487 0.590038,-0.77119 0.274316,-0.18633 0.600389,-0.18633 0.470995,0 0.957517,0.30019 l -0.320897,0.86436 q -0.341601,-0.20186 -0.683202,-0.20186 -0.30537,0 -0.548631,0.18633 -0.243261,0.18115 -0.346777,0.50723 -0.155273,0.49687 -0.155273,1.08691 v 2.87772 z"
       style="font-size:10.59997368px;font-family:Arial;fill:#009d73;stroke-width:1.33333004"
       id="path1797"
       inkscape:connector-curvature="0" />
    <path
       d="m 74.657883,184.18913 q -0.77119,-0.97304 -1.304294,-2.27734 -0.533104,-1.30429 -0.533104,-2.70175 0,-1.23183 0.398534,-2.36015 0.465819,-1.30947 1.438864,-2.60859 h 0.667674 q -0.626268,1.07656 -0.828123,1.53721 -0.315722,0.71425 -0.496874,1.49062 -0.222558,0.96787 -0.222558,1.94609 0,2.48954 1.547555,4.97391 z"
       style="font-size:10.59997368px;font-family:Arial;fill:#009d73;stroke-width:1.33333004"
       id="path1799"
       inkscape:connector-curvature="0" />
    <path
       d="m 76.567742,181.95837 v -7.58767 h 1.004099 v 3.11581 h 3.943935 v -3.11581 h 1.004099 v 7.58767 h -1.004099 v -3.57645 h -3.943935 v 3.57645 z"
       style="font-size:10.59997368px;font-family:Arial;fill:#009d73;stroke-width:1.33333004"
       id="path1801"
       inkscape:connector-curvature="0" />
    <path
       d="m 84.688522,184.18913 h -0.667674 q 1.547555,-2.48437 1.547555,-4.97391 0,-0.97305 -0.222558,-1.93056 -0.175976,-0.77637 -0.491698,-1.49063 -0.201855,-0.46582 -0.833299,-1.55273 h 0.667674 q 0.973045,1.29912 1.438864,2.60859 0.398534,1.12832 0.398534,2.36015 0,1.39746 -0.53828,2.70175 -0.533104,1.3043 -1.299118,2.27734 z"
       style="font-size:10.59997368px;font-family:Arial;fill:#009d73;stroke-width:1.33333004"
       id="path1803"
       inkscape:connector-curvature="0" />
    <path
       d="m 93.150904,179.29803 1.004099,0.25361 q -0.315722,1.23701 -1.138669,1.88916 -0.817772,0.64697 -2.003022,0.64697 -1.226658,0 -1.997847,-0.49688 -0.766014,-0.50205 -1.169724,-1.44921 -0.398534,-0.94717 -0.398534,-2.03408 0,-1.18525 0.450292,-2.06513 0.455468,-0.88506 1.288766,-1.34052 0.838475,-0.46065 1.842574,-0.46065 1.138669,0 1.915034,0.57969 0.776365,0.57969 1.081736,1.63037 l -0.988572,0.23291 q -0.263964,-0.82813 -0.766014,-1.20596 -0.502049,-0.37783 -1.262887,-0.37783 -0.874705,0 -1.464743,0.41924 -0.584862,0.41924 -0.822947,1.12832 -0.238085,0.7039 -0.238085,1.45439 0,0.96787 0.279491,1.69247 0.284668,0.71943 0.879881,1.07656 0.595213,0.35713 1.288766,0.35713 0.84365,0 1.428512,-0.48652 0.584862,-0.48652 0.791893,-1.44404 z"
       style="font-size:10.59997368px;font-family:Arial;fill:#009d73;stroke-width:1.33333004"
       id="path1805"
       inkscape:connector-curvature="0" />
    <path
       d="m 95.257442,181.95837 v -7.58767 h 0.931638 v 7.58767 z"
       style="font-size:10.59997368px;font-family:Arial;fill:#009d73;stroke-width:1.33333004"
       id="path1807"
       inkscape:connector-curvature="0" />
  </g>
  <g
     aria-label="2) H2O"
     style="font-size:15.99995995px;text-anchor:start;stroke-width:1.33333004;text-rendering:geometricPrecision"
     id="text392">
    <path
       d="m 36.995496,201.26292 v 0.89541 h -5.015319 q -0.01035,-0.33643 0.108691,-0.64698 0.191503,-0.5124 0.61074,-1.00927 0.424413,-0.49687 1.221482,-1.14902 1.237008,-1.01445 1.671773,-1.60449 0.434764,-0.59521 0.434764,-1.12314 0,-0.55381 -0.398534,-0.93164 -0.393358,-0.38301 -1.029978,-0.38301 -0.67285,0 -1.07656,0.40371 -0.403709,0.40371 -0.408885,1.11797 l -0.957517,-0.0983 q 0.09834,-1.07138 0.740135,-1.63037 0.641795,-0.56416 1.72353,-0.56416 1.092088,0 1.728707,0.60557 0.63662,0.60556 0.63662,1.50097 0,0.45547 -0.186328,0.89541 -0.186328,0.43994 -0.621092,0.92646 -0.429589,0.48652 -1.433688,1.33535 -0.838475,0.70391 -1.07656,0.95752 -0.238085,0.24843 -0.393358,0.50205 z"
       style="font-size:10.59997368px;font-family:Arial;fill:#000000;stroke-width:1.33333004"
       id="path1774"
       inkscape:connector-curvature="0" />
    <path
       d="M 38.869124,204.38908 H 38.20145 q 1.547555,-2.48437 1.547555,-4.97391 0,-0.97305 -0.222558,-1.93056 -0.175976,-0.77637 -0.491698,-1.49062 -0.201855,-0.46582 -0.833299,-1.55274 h 0.667674 q 0.973045,1.29912 1.438864,2.60859 0.398534,1.12832 0.398534,2.36015 0,1.39746 -0.53828,2.70175 -0.533104,1.3043 -1.299118,2.27734 z"
       style="font-size:10.59997368px;font-family:Arial;fill:#000000;stroke-width:1.33333004"
       id="path1776"
       inkscape:connector-curvature="0" />
    <path
       d="m 44.888543,202.15833 v -7.58768 h 1.004099 v 3.11581 h 3.943935 v -3.11581 h 1.004099 v 7.58768 h -1.004099 v -3.57646 h -3.943935 v 3.57646 z"
       style="font-size:10.59997368px;font-family:Arial;fill:#cc78a6;stroke-width:1.33333004"
       id="path1778"
       inkscape:connector-curvature="0" />
    <path
       d="m 55.702017,203.88676 v 0.67156 h -3.76149 q -0.0078,-0.25232 0.08152,-0.48523 0.143628,-0.3843 0.458056,-0.75696 0.31831,-0.37265 0.916111,-0.86176 0.927756,-0.76084 1.25383,-1.20337 0.326073,-0.44641 0.326073,-0.84235 0,-0.41536 -0.2989,-0.69873 -0.295019,-0.28726 -0.772484,-0.28726 -0.504637,0 -0.80742,0.30279 -0.302782,0.30278 -0.306664,0.83847 l -0.718138,-0.0737 q 0.07376,-0.80354 0.555101,-1.22278 0.481347,-0.42312 1.292649,-0.42312 0.819065,0 1.29653,0.45417 0.477464,0.45418 0.477464,1.12573 0,0.3416 -0.139746,0.67156 -0.139745,0.32996 -0.465819,0.69485 -0.322191,0.36489 -1.075266,1.00151 -0.628855,0.52793 -0.807419,0.71814 -0.178565,0.18632 -0.295019,0.37653 z"
       style="font-size:7.94998026px;font-family:Arial;fill:#cc78a6;stroke-width:1.33333004"
       id="path1780"
       inkscape:connector-curvature="0" />
    <path
       d="m 56.637536,198.46283 q 0,-1.88916 1.014451,-2.95537 1.014451,-1.07138 2.618939,-1.07138 1.050681,0 1.894331,0.50205 0.84365,0.50205 1.283591,1.40263 0.445116,0.89541 0.445116,2.03408 0,1.15419 -0.465819,2.06513 -0.46582,0.91094 -1.319821,1.38193 -0.854002,0.46582 -1.842574,0.46582 -1.071384,0 -1.915034,-0.51758 -0.84365,-0.51757 -1.278415,-1.41298 -0.434765,-0.89541 -0.434765,-1.89433 z m 1.035154,0.0155 q 0,1.37158 0.734959,2.16348 0.740135,0.78671 1.852925,0.78671 1.133494,0 1.863277,-0.79707 0.734959,-0.79706 0.734959,-2.26181 0,-0.92646 -0.315722,-1.61484 -0.310546,-0.69355 -0.916111,-1.07138 -0.600389,-0.38301 -1.350875,-0.38301 -1.066209,0 -1.837398,0.73496 -0.766014,0.72978 -0.766014,2.44296 z"
       style="font-size:10.59997368px;font-family:Arial;fill:#cc78a6;stroke-width:1.33333004"
       id="path1782"
       inkscape:connector-curvature="0" />
  </g>
  <g
     aria-label="H"
     style="font-size:15.99995995px;text-anchor:start;stroke-width:1.33333004;text-rendering:geometricPrecision"
     id="text398">
    <path
       d="m 143.6065,113.67854 v -7.63539 h 1.01041 v 3.1354 h 3.96874 v -3.1354 h 1.01042 v 7.63539 h -1.01042 v -3.59895 h -3.96874 v 3.59895 z"
       style="font-size:10.66664028px;font-family:Arial;fill:#009d73;stroke-width:1.33333004"
       id="path1771"
       inkscape:connector-curvature="0" />
  </g>
  <path
     style="fill:#009d73;fill-rule:evenodd;stroke:#009d73;stroke-width:0;stroke-linejoin:miter;shape-rendering:geometricPrecision"
     inkscape:connector-curvature="0"
     id="path402"
     d="m 136.44568,120.11853 v 0 l -0.68,0.2 0.10667,-0.58667 6.34665,-6.33332 0.24,0.24 0.24,0.24 z" />
  <g
     aria-label="+"
     style="font-size:15.99995995px;text-anchor:start;stroke-width:1.33333004;text-rendering:geometricPrecision"
     id="text408">
    <path
       d="m 130.62424,188.17733 v -2.09375 h -2.07812 v -0.875 h 2.07812 v -2.07812 h 0.88541 v 2.07812 h 2.07812 v 0.875 h -2.07812 v 2.09375 z"
       style="font-size:10.66664028px;font-family:Arial;fill:#000000;stroke-width:1.33333004"
       id="path1768"
       inkscape:connector-curvature="0" />
  </g>
  <text
     xml:space="preserve"
     style="font-style:normal;font-variant:normal;font-weight:normal;font-stretch:normal;font-size:10.66666698px;line-height:1.25;font-family:Arial;-inkscape-font-specification:Arial;text-align:start;letter-spacing:0px;word-spacing:0px;text-anchor:start;fill:#000000;fill-opacity:1;stroke:none"
     x="5.7940679"
     y="144.2634"
     id="text1959"><tspan
       sodipodi:role="line"
       id="tspan1957"
       x="5.7940679"
       y="144.2634">\cmpd{ncoor-isoxazolidinone}</tspan></text>
  <text
     xml:space="preserve"
     style="font-style:normal;font-variant:normal;font-weight:normal;font-stretch:normal;font-size:10.66666698px;line-height:1.25;font-family:Arial;-inkscape-font-specification:Arial;text-align:start;letter-spacing:0px;word-spacing:0px;text-anchor:start;fill:#000000;fill-opacity:1;stroke:none"
     x="5.7940679"
     y="222.14772"
     id="text1959-4"><tspan
       sodipodi:role="line"
       id="tspan1957-1"
       x="5.7940679"
       y="222.14772">\cmpd{ncoph-isoxazolidinone}</tspan></text>
  <text
     xml:space="preserve"
     style="font-style:normal;font-variant:normal;font-weight:normal;font-stretch:normal;font-size:10.66666698px;line-height:1.25;font-family:Arial;-inkscape-font-specification:Arial;text-align:start;letter-spacing:0px;word-spacing:0px;text-anchor:start;fill:#000000;fill-opacity:1;stroke:none"
     x="95.660591"
     y="144.2634"
     id="text1959-45"><tspan
       sodipodi:role="line"
       id="tspan1957-13"
       x="95.660591"
       y="144.2634">\cmpd{ncoor-isoxazolidine-oh}</tspan></text>
  <text
     xml:space="preserve"
     style="font-style:normal;font-variant:normal;font-weight:normal;font-stretch:normal;font-size:10.66666698px;line-height:1.25;font-family:Arial;-inkscape-font-specification:Arial;text-align:start;letter-spacing:0px;word-spacing:0px;text-anchor:start;fill:#000000;fill-opacity:1;stroke:none"
     x="86.873642"
     y="222.14772"
     id="text1959-45-9"><tspan
       sodipodi:role="line"
       id="tspan1957-13-8"
       x="86.873642"
       y="222.14772">\cmpd{isoxazolidinone}</tspan></text>
</svg>
