<?xml version="1.0" encoding="UTF-8" standalone="no"?>
<svg
   xmlns:dc="http://purl.org/dc/elements/1.1/"
   xmlns:cc="http://creativecommons.org/ns#"
   xmlns:rdf="http://www.w3.org/1999/02/22-rdf-syntax-ns#"
   xmlns:svg="http://www.w3.org/2000/svg"
   xmlns="http://www.w3.org/2000/svg"
   xmlns:sodipodi="http://sodipodi.sourceforge.net/DTD/sodipodi-0.dtd"
   xmlns:inkscape="http://www.inkscape.org/namespaces/inkscape"
   viewBox="14.12 77.7 424.85 68.3"
   preserveAspectRatio="xMidYMid"
   width="100%"
   height="100%"
   version="1.1"
   id="svg296"
   sodipodi:docname="kainic.svg"
   inkscape:version="0.92.3 (2405546, 2018-03-11)">
  <metadata
     id="metadata302">
    <rdf:RDF>
      <cc:Work
         rdf:about="">
        <dc:format>image/svg+xml</dc:format>
        <dc:type
           rdf:resource="http://purl.org/dc/dcmitype/StillImage" />
      </cc:Work>
    </rdf:RDF>
  </metadata>
  <defs
     id="defs300" />
  <sodipodi:namedview
     pagecolor="#ffffff"
     bordercolor="#666666"
     borderopacity="1"
     objecttolerance="10"
     gridtolerance="10"
     guidetolerance="10"
     inkscape:pageopacity="0"
     inkscape:pageshadow="2"
     inkscape:window-width="1920"
     inkscape:window-height="1017"
     id="namedview298"
     showgrid="false"
     inkscape:zoom="1.6947158"
     inkscape:cx="134.42077"
     inkscape:cy="-48.271315"
     inkscape:window-x="-8"
     inkscape:window-y="-8"
     inkscape:window-maximized="1"
     inkscape:current-layer="svg296" />
  <clipPath
     id="9772">
    <rect
       x="0.255"
       y="0.255"
       width="465.99"
       height="769.29"
       id="rect2" />
  </clipPath>
  <g
     aria-label="NH"
     style="font-size:15.99995995px;text-anchor:start;stroke-width:1.33333004;text-rendering:geometricPrecision"
     id="text11">
    <path
       d="m 7.1063033,145.70326 v -7.58767 h 1.0299779 l 3.9853418,5.95731 v -5.95731 h 0.962693 v 7.58767 h -1.029978 l -3.9853418,-5.96248 v 5.96248 z"
       style="font-size:10.59997368px;font-family:Arial;fill:#000000;stroke-width:1.33333004"
       id="path1495"
       inkscape:connector-curvature="0" />
    <path
       d="m 7.1477095,156.50322 v -7.58768 h 1.004099 v 3.11582 h 3.9439355 v -3.11582 h 1.004099 v 7.58768 h -1.004099 v -3.57646 H 8.1518085 v 3.57646 z"
       style="font-size:10.59997368px;font-family:Arial;fill:#000000;stroke-width:1.33333004"
       id="path1497"
       inkscape:connector-curvature="0" />
  </g>
  <path
     style="fill:#000000;fill-rule:evenodd;stroke:#000000;stroke-width:0;stroke-linejoin:miter;shape-rendering:geometricPrecision"
     inkscape:connector-curvature="0"
     id="path15"
     d="m 2.3655593,117.90332 v 0 l 0.3866657,-0.0667 0.2399994,0.34667 -4.7599881,14.06663 -0.399999,0.12 -0.399999,0.12 z" />
  <path
     style="fill:#000000;fill-rule:evenodd;stroke:#000000;stroke-width:0;stroke-linejoin:miter;shape-rendering:geometricPrecision"
     inkscape:connector-curvature="0"
     id="path18"
     d="m -2.5677617,132.48995 v 0 l 0.399999,-0.12 0.399999,-0.12 7.733314,5.75999 -0.1999995,0.26666 -0.1999995,0.28 z" />
  <path
     style="fill:#000000;fill-rule:evenodd;stroke:#000000;stroke-width:0;stroke-linejoin:miter;shape-rendering:geometricPrecision"
     inkscape:connector-curvature="0"
     id="path22"
     d="m 14.765528,138.6766 v 0 l -0.199999,-0.28 -0.2,-0.26667 7.893314,-5.59998 0.399999,0.13333 0.399999,0.13333 z" />
  <path
     style="fill:#000000;fill-rule:evenodd;stroke:#000000;stroke-width:0;stroke-linejoin:miter;shape-rendering:geometricPrecision"
     inkscape:connector-curvature="0"
     id="path26"
     d="m 23.058841,132.79661 v 0 l -0.399999,-0.13333 -0.399999,-0.13333 -4.426656,-14.1733 0.253333,-0.33333 0.386666,0.08 z" />
  <path
     style="fill:#000000;fill-rule:evenodd;stroke:#000000;stroke-width:0;stroke-linejoin:miter;shape-rendering:geometricPrecision"
     inkscape:connector-curvature="0"
     id="path30"
     d="m 17.898854,117.67665 v 0 l 0.186666,0.34667 -0.253333,0.33333 -14.8399626,-0.17333 -0.2399994,-0.34667 0.1999995,-0.33333 z" />
  <g
     aria-label="O"
     style="font-size:15.99995995px;text-anchor:start;stroke-width:1.33333004;text-rendering:geometricPrecision"
     id="text36">
    <path
       d="m -20.441985,137.40776 q 0,-1.88916 1.014451,-2.95537 1.014451,-1.07138 2.618939,-1.07138 1.050681,0 1.894331,0.50205 0.84365,0.50205 1.283591,1.40263 0.445116,0.89541 0.445116,2.03408 0,1.1542 -0.46582,2.06513 -0.465819,0.91094 -1.31982,1.38193 -0.854002,0.46582 -1.842574,0.46582 -1.071384,0 -1.915034,-0.51758 -0.843651,-0.51757 -1.278415,-1.41298 -0.434765,-0.89541 -0.434765,-1.89433 z m 1.035154,0.0155 q 0,1.37158 0.734959,2.16348 0.740135,0.78671 1.852925,0.78671 1.133493,0 1.863277,-0.79707 0.734959,-0.79706 0.734959,-2.26181 0,-0.92646 -0.315722,-1.61484 -0.310546,-0.69355 -0.916111,-1.07138 -0.600389,-0.38301 -1.350876,-0.38301 -1.066208,0 -1.837397,0.73496 -0.766014,0.72979 -0.766014,2.44296 z"
       style="font-size:10.59997368px;font-family:Arial;fill:#000000;stroke-width:1.33333004"
       id="path1500"
       inkscape:connector-curvature="0" />
  </g>
  <path
     style="stroke:#000000;stroke-width:0.67999828;shape-rendering:auto"
     d="m -1.7544308,133.68994 -9.2933122,2.89333"
     id="line40" />
  <path
     style="fill:#000000;fill-rule:evenodd;stroke:#000000;stroke-width:0;stroke-linejoin:miter;shape-rendering:geometricPrecision"
     inkscape:connector-curvature="0"
     id="path42"
     d="m -2.1544294,131.27662 v 0 l 0.266666,-0.8 -10.0799746,3.14666 0.199999,0.65333 z" />
  <path
     style="fill:#000000;fill-rule:evenodd;stroke:#000000;stroke-width:0;stroke-linejoin:miter;shape-rendering:geometricPrecision"
     inkscape:connector-curvature="0"
     id="path44"
     d="m -0.8610993,133.76995 v 0 l -0.6799983,-0.50667 -9.6133094,2.99999 0.213333,0.65333 z" />
  <path
     style="fill:#000000;fill-rule:evenodd;stroke:#000000;stroke-width:0;stroke-linejoin:miter;shape-rendering:geometricPrecision"
     inkscape:connector-curvature="0"
     id="path48"
     d="m 2.9522245,117.50332 v 0 l -0.1999995,0.33333 -0.3866657,0.0667 -10.1466413,-12.0933 1.6533292,-0.49334 1.5599961,-0.48 z" />
  <g
     aria-label="MeOOC"
     style="font-size:15.99995995px;text-anchor:end;stroke-width:1.33333004;text-rendering:geometricPrecision"
     id="text53">
    <path
       d="m -55.661382,110.90334 v -7.58767 h 1.511325 l 1.795991,5.37244 q 0.248437,0.75049 0.362304,1.12315 0.129394,-0.41407 0.40371,-1.21631 l 1.816695,-5.27928 h 1.350875 v 7.58767 h -0.967868 v -6.35066 l -2.204878,6.35066 h -0.905759 l -2.194526,-6.45936 v 6.45936 z"
       style="font-size:10.59997368px;font-family:Arial;fill:#000000;stroke-width:1.33333004"
       id="path1504"
       inkscape:connector-curvature="0" />
    <path
       d="m -43.146373,109.13323 0.962693,0.11904 q -0.227734,0.84365 -0.84365,1.30947 -0.615917,0.46582 -1.573434,0.46582 -1.205954,0 -1.915034,-0.74013 -0.703905,-0.74531 -0.703905,-2.08584 0,-1.3871 0.714256,-2.15312 0.714256,-0.76601 1.852925,-0.76601 1.102439,0 1.801168,0.75049 0.698728,0.75048 0.698728,2.11171 0,0.0828 -0.0052,0.24844 h -4.099209 q 0.05176,0.90575 0.512401,1.3871 0.460643,0.48135 1.149021,0.48135 0.512401,0 0.874705,-0.26914 0.362303,-0.26914 0.57451,-0.85918 z m -3.058879,-1.50615 h 3.06923 q -0.06211,-0.69355 -0.351952,-1.04033 -0.445116,-0.53828 -1.154196,-0.53828 -0.641796,0 -1.081736,0.42959 -0.434764,0.42959 -0.481346,1.14902 z"
       style="font-size:10.59997368px;font-family:Arial;fill:#000000;stroke-width:1.33333004"
       id="path1506"
       inkscape:connector-curvature="0" />
    <path
       d="m -41.195108,107.20784 q 0,-1.88915 1.01445,-2.95536 1.014451,-1.07138 2.618939,-1.07138 1.050681,0 1.894332,0.50205 0.84365,0.50205 1.28359,1.40263 0.445116,0.89541 0.445116,2.03408 0,1.15419 -0.465819,2.06513 -0.465819,0.91093 -1.319821,1.38193 -0.854002,0.46582 -1.842573,0.46582 -1.071385,0 -1.915035,-0.51758 -0.84365,-0.51758 -1.278415,-1.41298 -0.434764,-0.89541 -0.434764,-1.89434 z m 1.035154,0.0155 q 0,1.37158 0.734959,2.16347 0.740135,0.78672 1.852925,0.78672 1.133493,0 1.863276,-0.79707 0.734959,-0.79707 0.734959,-2.26181 0,-0.92646 -0.315721,-1.61484 -0.310546,-0.69355 -0.916111,-1.07138 -0.60039,-0.38301 -1.350876,-0.38301 -1.066208,0 -1.837398,0.73496 -0.766013,0.72978 -0.766013,2.44296 z"
       style="font-size:10.59997368px;font-family:Arial;fill:#000000;stroke-width:1.33333004"
       id="path1508"
       inkscape:connector-curvature="0" />
    <path
       d="m -32.955286,107.20784 q 0,-1.88915 1.014451,-2.95536 1.01445,-1.07138 2.618939,-1.07138 1.050681,0 1.894331,0.50205 0.84365,0.50205 1.28359,1.40263 0.445117,0.89541 0.445117,2.03408 0,1.15419 -0.46582,2.06513 -0.465819,0.91093 -1.319821,1.38193 -0.854001,0.46582 -1.842573,0.46582 -1.071384,0 -1.915034,-0.51758 -0.843651,-0.51758 -1.278415,-1.41298 -0.434765,-0.89541 -0.434765,-1.89434 z m 1.035154,0.0155 q 0,1.37158 0.734959,2.16347 0.740135,0.78672 1.852925,0.78672 1.133493,0 1.863277,-0.79707 0.734959,-0.79707 0.734959,-2.26181 0,-0.92646 -0.315722,-1.61484 -0.310546,-0.69355 -0.916111,-1.07138 -0.600389,-0.38301 -1.350876,-0.38301 -1.066208,0 -1.837397,0.73496 -0.766014,0.72978 -0.766014,2.44296 z"
       style="font-size:10.59997368px;font-family:Arial;fill:#000000;stroke-width:1.33333004"
       id="path1510"
       inkscape:connector-curvature="0" />
    <path
       d="m -18.996237,108.243 1.004099,0.25361 q -0.315722,1.23701 -1.138669,1.88916 -0.817772,0.64697 -2.003023,0.64697 -1.226657,0 -1.997846,-0.49688 -0.766014,-0.50205 -1.169724,-1.44921 -0.398534,-0.94717 -0.398534,-2.03408 0,-1.18525 0.450292,-2.06513 0.455467,-0.88506 1.288766,-1.34052 0.838475,-0.46065 1.842574,-0.46065 1.138669,0 1.915034,0.57969 0.776365,0.57968 1.081735,1.63037 l -0.988571,0.23291 q -0.263964,-0.82813 -0.766014,-1.20596 -0.50205,-0.37783 -1.262887,-0.37783 -0.874705,0 -1.464743,0.41924 -0.584862,0.41923 -0.822947,1.12831 -0.238085,0.70391 -0.238085,1.4544 0,0.96786 0.279491,1.69247 0.284667,0.71943 0.879881,1.07656 0.595213,0.35713 1.288766,0.35713 0.84365,0 1.428512,-0.48652 0.584862,-0.48652 0.791893,-1.44404 z"
       style="font-size:10.59997368px;font-family:Arial;fill:#000000;stroke-width:1.33333004"
       id="path1512"
       inkscape:connector-curvature="0" />
  </g>
  <path
     style="fill:#000000;fill-rule:evenodd;stroke:#000000;stroke-width:0;stroke-linejoin:miter;shape-rendering:geometricPrecision"
     inkscape:connector-curvature="0"
     id="path57"
     d="m -4.5677567,104.83668 v 0 l -1.5599961,0.48 -1.6533292,0.49334 -9.279977,0.85333 -0.02667,-0.33334 -0.04,-0.33333 z" />
  <path
     style="fill:#000000;fill-rule:evenodd;stroke:#000000;stroke-width:0;stroke-linejoin:miter;shape-rendering:geometricPrecision"
     inkscape:connector-curvature="0"
     id="path61"
     d="m 18.472186,118.10332 v 0 l -0.386666,-0.08 -0.186666,-0.34667 7.813314,-12.47997 1.546662,0.52 1.639996,0.53333 z" />
  <path
     style="fill:#000000;fill-rule:evenodd;stroke:#000000;stroke-width:0;stroke-linejoin:miter;shape-rendering:geometricPrecision"
     inkscape:connector-curvature="0"
     id="path67"
     d="m 28.298828,105.49002 v 0 l 0.773331,0.0933 -6.293317,-14.639964 -0.626666,0.266666 z" />
  <path
     style="fill:#000000;fill-rule:evenodd;stroke:#000000;stroke-width:0;stroke-linejoin:miter;shape-rendering:geometricPrecision"
     inkscape:connector-curvature="0"
     id="path69"
     d="m 25.858834,106.79668 v 0 l 0.493332,-0.56 -6.119985,-14.199963 -0.626665,0.266666 z" />
  <path
     style="fill:#000000;fill-rule:evenodd;stroke:#000000;stroke-width:0;stroke-linejoin:miter;shape-rendering:geometricPrecision"
     inkscape:connector-curvature="0"
     id="path73"
     d="m 28.898826,106.25001 v 0 l -1.639996,-0.53333 -1.546662,-0.52 16.826624,1.97333 -0.04,0.33333 -0.04,0.33334 z" />
  <path
     style="stroke:#000000;stroke-width:0.67999828;shape-rendering:auto"
     d="M 145.87186,132.55661 H 54.325424"
     id="line77" />
  <path
     style="fill:#000000;fill-rule:evenodd;stroke:#000000;stroke-width:0;stroke-linejoin:miter;stroke-miterlimit:5.89496231;shape-rendering:geometricPrecision"
     inkscape:connector-curvature="0"
     id="path79"
     stroke-miterlimit="5.89496254687632"
     d="m 150.48519,132.55662 -6.79998,-1.70667 c 1.43999,0.96 1.43999,2.45333 0,3.41333 z" />
  <g
     aria-label="1) Cp2Zr(H)Cl"
     style="font-size:15.99995995px;text-anchor:start;stroke-width:1.33333004;text-rendering:geometricPrecision"
     id="text90">
    <path
       d="m 67.061187,113.10333 h -0.931638 v -5.9366 q -0.336425,0.32089 -0.885057,0.64179 -0.543455,0.3209 -0.97822,0.48135 v -0.90059 q 0.781541,-0.36748 1.366403,-0.89023 0.584862,-0.52275 0.828123,-1.01445 h 0.600389 z"
       style="font-size:10.59997368px;font-family:Arial;fill:#000000;stroke-width:1.33333004"
       id="path1517"
       inkscape:connector-curvature="0" />
    <path
       d="m 70.321921,115.33409 h -0.667674 q 1.547555,-2.48437 1.547555,-4.97391 0,-0.97305 -0.222558,-1.93057 -0.175976,-0.77636 -0.491698,-1.49062 -0.201855,-0.46582 -0.833299,-1.55273 h 0.667674 q 0.973045,1.29912 1.438864,2.60859 0.398534,1.12832 0.398534,2.36015 0,1.39746 -0.53828,2.70175 -0.533104,1.30429 -1.299118,2.27734 z"
       style="font-size:10.59997368px;font-family:Arial;fill:#000000;stroke-width:1.33333004"
       id="path1519"
       inkscape:connector-curvature="0" />
    <path
       d="m 81.724139,110.44299 1.004099,0.25361 q -0.315722,1.23701 -1.138669,1.88916 -0.817772,0.64697 -2.003023,0.64697 -1.226657,0 -1.997846,-0.49688 -0.766014,-0.50205 -1.169724,-1.44921 -0.398534,-0.94717 -0.398534,-2.03408 0,-1.18525 0.450292,-2.06513 0.455468,-0.88506 1.288766,-1.34052 0.838475,-0.46065 1.842574,-0.46065 1.138669,0 1.915034,0.57969 0.776365,0.57968 1.081736,1.63036 l -0.988572,0.23291 q -0.263964,-0.82812 -0.766014,-1.20595 -0.502049,-0.37783 -1.262887,-0.37783 -0.874705,0 -1.464743,0.41924 -0.584862,0.41923 -0.822947,1.12831 -0.238085,0.70391 -0.238085,1.4544 0,0.96786 0.279491,1.69247 0.284667,0.71943 0.879881,1.07656 0.595213,0.35713 1.288766,0.35713 0.84365,0 1.428512,-0.48652 0.584862,-0.48653 0.791893,-1.44404 z"
       style="font-size:10.59997368px;font-family:Arial;fill:#009d73;stroke-width:1.33333004"
       id="path1521"
       inkscape:connector-curvature="0" />
    <path
       d="m 83.85138,115.20987 v -7.6032 h 0.848826 v 0.71425 q 0.300194,-0.41923 0.678025,-0.62627 0.377831,-0.2122 0.916111,-0.2122 0.703905,0 1.242185,0.3623 0.53828,0.36231 0.812595,1.0248 0.274316,0.65733 0.274316,1.44404 0,0.84365 -0.30537,1.52168 -0.300195,0.67285 -0.879881,1.03515 -0.57451,0.35713 -1.21113,0.35713 -0.465819,0 -0.838474,-0.19668 -0.36748,-0.19668 -0.605565,-0.49687 v 2.67587 z m 0.84365,-4.82382 q 0,1.06104 0.429589,1.56826 0.429588,0.50723 1.040329,0.50723 0.621092,0 1.061033,-0.52276 0.445116,-0.52792 0.445116,-1.63036 0,-1.05068 -0.434765,-1.57344 -0.429589,-0.52275 -1.029978,-0.52275 -0.595213,0 -1.055857,0.55898 -0.455467,0.55381 -0.455467,1.61484 z"
       style="font-size:10.59997368px;font-family:Arial;fill:#009d73;stroke-width:1.33333004"
       id="path1523"
       inkscape:connector-curvature="0" />
    <path
       d="m 93.055189,114.83177 v 0.67156 h -3.76149 q -0.0078,-0.25232 0.08152,-0.48523 0.143627,-0.3843 0.458055,-0.75696 0.31831,-0.37265 0.916111,-0.86176 0.927757,-0.76084 1.25383,-1.20337 0.326074,-0.44641 0.326074,-0.84236 0,-0.41535 -0.298901,-0.69872 -0.295019,-0.28726 -0.772483,-0.28726 -0.504638,0 -0.80742,0.30278 -0.302783,0.30279 -0.306665,0.83848 l -0.718137,-0.0738 q 0.07375,-0.80354 0.555101,-1.22277 0.481346,-0.42312 1.292648,-0.42312 0.819065,0 1.29653,0.45417 0.477464,0.45418 0.477464,1.12573 0,0.3416 -0.139745,0.67156 -0.139746,0.32995 -0.465819,0.69484 -0.322192,0.3649 -1.075266,1.00152 -0.628856,0.52792 -0.80742,0.71813 -0.178564,0.18633 -0.295019,0.37654 z"
       style="font-size:7.94998026px;font-family:Arial;fill:#009d73;stroke-width:1.33333004"
       id="path1525"
       inkscape:connector-curvature="0" />
    <path
       d="m 93.690516,113.10333 v -0.93164 l 3.887002,-4.86004 q 0.414062,-0.51758 0.786717,-0.90059 h -4.233779 v -0.8954 h 5.434557 v 0.8954 l -4.259657,5.26376 -0.460644,0.5331 h 4.84452 v 0.89541 z"
       style="font-size:10.59997368px;font-family:Arial;fill:#009d73;stroke-width:1.33333004"
       id="path1527"
       inkscape:connector-curvature="0" />
    <path
       d="m 100.64675,113.10333 v -5.49666 h 0.83847 v 0.8333 q 0.3209,-0.58487 0.59004,-0.77119 0.27432,-0.18633 0.60039,-0.18633 0.47099,0 0.95752,0.30019 l -0.3209,0.86436 q -0.3416,-0.20186 -0.6832,-0.20186 -0.30537,0 -0.54863,0.18633 -0.24327,0.18115 -0.34678,0.50722 -0.15527,0.49688 -0.15527,1.08692 v 2.87772 z"
       style="font-size:10.59997368px;font-family:Arial;fill:#009d73;stroke-width:1.33333004"
       id="path1529"
       inkscape:connector-curvature="0" />
    <path
       d="m 105.97779,115.33409 q -0.77119,-0.97305 -1.30429,-2.27734 -0.53311,-1.30429 -0.53311,-2.70175 0,-1.23183 0.39854,-2.36015 0.46581,-1.30947 1.43886,-2.60859 h 0.66767 q -0.62626,1.07656 -0.82812,1.53721 -0.31572,0.71425 -0.49687,1.49062 -0.22256,0.96787 -0.22256,1.94609 0,2.48954 1.54755,4.97391 z"
       style="font-size:10.59997368px;font-family:Arial;fill:#009d73;stroke-width:1.33333004"
       id="path1531"
       inkscape:connector-curvature="0" />
    <path
       d="m 107.88765,113.10333 v -7.58767 h 1.0041 v 3.11581 h 3.94393 v -3.11581 h 1.0041 v 7.58767 h -1.0041 v -3.57645 h -3.94393 v 3.57645 z"
       style="font-size:10.59997368px;font-family:Arial;fill:#009d73;stroke-width:1.33333004"
       id="path1533"
       inkscape:connector-curvature="0" />
    <path
       d="m 116.00843,115.33409 h -0.66768 q 1.54756,-2.48437 1.54756,-4.97391 0,-0.97305 -0.22256,-1.93057 -0.17597,-0.77636 -0.4917,-1.49062 -0.20185,-0.46582 -0.8333,-1.55273 h 0.66768 q 0.97304,1.29912 1.43886,2.60859 0.39854,1.12832 0.39854,2.36015 0,1.39746 -0.53828,2.70175 -0.53311,1.30429 -1.29912,2.27734 z"
       style="font-size:10.59997368px;font-family:Arial;fill:#009d73;stroke-width:1.33333004"
       id="path1535"
       inkscape:connector-curvature="0" />
    <path
       d="m 124.47081,110.44299 1.0041,0.25361 q -0.31572,1.23701 -1.13867,1.88916 -0.81777,0.64697 -2.00302,0.64697 -1.22666,0 -1.99785,-0.49688 -0.76601,-0.50205 -1.16972,-1.44921 -0.39854,-0.94717 -0.39854,-2.03408 0,-1.18525 0.4503,-2.06513 0.45546,-0.88506 1.28876,-1.34052 0.83848,-0.46065 1.84258,-0.46065 1.13866,0 1.91503,0.57969 0.77637,0.57968 1.08174,1.63036 l -0.98858,0.23291 q -0.26396,-0.82812 -0.76601,-1.20595 -0.50205,-0.37783 -1.26289,-0.37783 -0.8747,0 -1.46474,0.41924 -0.58486,0.41923 -0.82295,1.12831 -0.23808,0.70391 -0.23808,1.4544 0,0.96786 0.27949,1.69247 0.28467,0.71943 0.87988,1.07656 0.59521,0.35713 1.28877,0.35713 0.84365,0 1.42851,-0.48652 0.58486,-0.48653 0.79189,-1.44404 z"
       style="font-size:10.59997368px;font-family:Arial;fill:#009d73;stroke-width:1.33333004"
       id="path1537"
       inkscape:connector-curvature="0" />
    <path
       d="m 126.57735,113.10333 v -7.58767 h 0.93164 v 7.58767 z"
       style="font-size:10.59997368px;font-family:Arial;fill:#009d73;stroke-width:1.33333004"
       id="path1539"
       inkscape:connector-curvature="0" />
  </g>
  <g
     aria-label="2) TMSCN"
     style="font-size:15.99995995px;text-anchor:start;stroke-width:1.33333004;text-rendering:geometricPrecision"
     id="text98">
    <path
       d="m 68.448293,126.54122 v 0.89541 h -5.01532 q -0.01035,-0.33642 0.108692,-0.64697 0.191503,-0.5124 0.61074,-1.00928 0.424413,-0.49687 1.221482,-1.14902 1.237008,-1.01445 1.671773,-1.60448 0.434764,-0.59522 0.434764,-1.12315 0,-0.5538 -0.398534,-0.93163 -0.393358,-0.38301 -1.029978,-0.38301 -0.67285,0 -1.07656,0.40371 -0.40371,0.40371 -0.408885,1.11796 l -0.957517,-0.0983 q 0.09834,-1.07138 0.740134,-1.63036 0.641796,-0.56416 1.723531,-0.56416 1.092087,0 1.728707,0.60556 0.636619,0.60557 0.636619,1.50098 0,0.45546 -0.186327,0.8954 -0.186328,0.43995 -0.621092,0.92647 -0.429589,0.48652 -1.433688,1.33535 -0.838475,0.7039 -1.07656,0.95751 -0.238085,0.24844 -0.393358,0.50205 z"
       style="font-size:10.59997368px;font-family:Arial;fill:#000000;stroke-width:1.33333004"
       id="path1542"
       inkscape:connector-curvature="0" />
    <path
       d="m 70.321921,129.66739 h -0.667674 q 1.547555,-2.48437 1.547555,-4.97392 0,-0.97304 -0.222558,-1.93056 -0.175976,-0.77636 -0.491698,-1.49062 -0.201855,-0.46582 -0.833299,-1.55273 h 0.667674 q 0.973045,1.29912 1.438864,2.60859 0.398534,1.12831 0.398534,2.36015 0,1.39745 -0.53828,2.70175 -0.533104,1.30429 -1.299118,2.27734 z"
       style="font-size:10.59997368px;font-family:Arial;fill:#000000;stroke-width:1.33333004"
       id="path1544"
       inkscape:connector-curvature="0" />
    <path
       d="m 78.240847,127.43663 v -6.69227 h -2.499896 v -0.89541 h 6.014242 v 0.89541 h -2.510247 v 6.69227 z"
       style="font-size:10.59997368px;font-family:Arial;fill:#cc78a6;stroke-width:1.33333004"
       id="path1546"
       inkscape:connector-curvature="0" />
    <path
       d="m 82.759293,127.43663 v -7.58768 h 1.511324 l 1.795992,5.37245 q 0.248437,0.75049 0.362304,1.12314 0.129394,-0.41406 0.40371,-1.2163 l 1.816694,-5.27929 h 1.350876 v 7.58768 h -0.967869 v -6.35067 l -2.204877,6.35067 h -0.90576 l -2.194525,-6.45936 v 6.45936 z"
       style="font-size:10.59997368px;font-family:Arial;fill:#cc78a6;stroke-width:1.33333004"
       id="path1548"
       inkscape:connector-curvature="0" />
    <path
       d="m 91.288959,124.99884 0.947165,-0.0828 q 0.06728,0.56934 0.310546,0.93682 0.248437,0.3623 0.766014,0.59003 0.517577,0.22256 1.164548,0.22256 0.57451,0 1.014451,-0.1708 0.43994,-0.1708 0.652146,-0.46582 0.217383,-0.30019 0.217383,-0.65215 0,-0.35712 -0.207031,-0.62109 -0.207031,-0.26914 -0.683201,-0.45029 -0.305371,-0.11904 -1.350876,-0.36748 -1.045505,-0.25361 -1.464742,-0.47617 -0.543456,-0.28467 -0.812596,-0.7039 -0.263964,-0.42442 -0.263964,-0.94717 0,-0.57451 0.326073,-1.07138 0.326074,-0.50205 0.952342,-0.76084 0.626268,-0.25879 1.392281,-0.25879 0.84365,0 1.485446,0.27432 0.646971,0.26914 0.993747,0.79706 0.346777,0.52793 0.372656,1.19561 l -0.962693,0.0725 q -0.07764,-0.71943 -0.527929,-1.08691 -0.445116,-0.36748 -1.319821,-0.36748 -0.910935,0 -1.330172,0.33642 -0.414062,0.33125 -0.414062,0.80225 0,0.40888 0.295019,0.67284 0.289843,0.26397 1.511325,0.54346 1.226657,0.27432 1.682124,0.48135 0.662499,0.30537 0.978221,0.77636 0.315721,0.46582 0.315721,1.07656 0,0.60557 -0.346776,1.14385 -0.346777,0.5331 -0.998923,0.8333 -0.646971,0.29501 -1.459567,0.29501 -1.029978,0 -1.728707,-0.30019 -0.693553,-0.30019 -1.092087,-0.90058 -0.393358,-0.60557 -0.414061,-1.36641 z"
       style="font-size:10.59997368px;font-family:Arial;fill:#cc78a6;stroke-width:1.33333004"
       id="path1550"
       inkscape:connector-curvature="0" />
    <path
       d="m 104.12486,124.77629 1.0041,0.25361 q -0.31572,1.23701 -1.13867,1.88915 -0.81777,0.64697 -2.00302,0.64697 -1.22666,0 -1.997846,-0.49687 -0.766013,-0.50205 -1.169723,-1.44921 -0.398535,-0.94717 -0.398535,-2.03408 0,-1.18525 0.450292,-2.06513 0.455468,-0.88506 1.288762,-1.34053 0.83848,-0.46064 1.84258,-0.46064 1.13867,0 1.91503,0.57969 0.77637,0.57968 1.08174,1.63036 l -0.98857,0.23291 q -0.26397,-0.82812 -0.76602,-1.20595 -0.50205,-0.37783 -1.26288,-0.37783 -0.87471,0 -1.46475,0.41923 -0.584859,0.41924 -0.822945,1.12832 -0.238085,0.70391 -0.238085,1.45439 0,0.96787 0.279492,1.69248 0.284668,0.71943 0.879878,1.07656 0.59522,0.35713 1.28877,0.35713 0.84365,0 1.42851,-0.48653 0.58486,-0.48652 0.79189,-1.44403 z"
       style="font-size:10.59997368px;font-family:Arial;fill:#cc78a6;stroke-width:1.33333004"
       id="path1552"
       inkscape:connector-curvature="0" />
    <path
       d="m 106.3608,127.43663 v -7.58768 h 1.02997 l 3.98534,5.95731 v -5.95731 h 0.9627 v 7.58768 h -1.02998 l -3.98534,-5.96248 v 5.96248 z"
       style="font-size:10.59997368px;font-family:Arial;fill:#cc78a6;stroke-width:1.33333004"
       id="path1554"
       inkscape:connector-curvature="0" />
  </g>
  <g
     aria-label="NH"
     style="font-size:15.99995995px;text-anchor:start;stroke-width:1.33333004;text-rendering:geometricPrecision"
     id="text106">
    <path
       d="m 232.83908,144.63658 v -7.58768 h 1.02998 l 3.98534,5.95731 v -5.95731 h 0.96269 v 7.58768 h -1.02997 l -3.98535,-5.96248 v 5.96248 z"
       style="font-size:10.59997368px;font-family:Arial;fill:#000000;stroke-width:1.33333004"
       id="path1557"
       inkscape:connector-curvature="0" />
    <path
       d="m 232.88049,155.43655 v -7.58767 h 1.0041 v 3.11581 h 3.94393 v -3.11581 h 1.0041 v 7.58767 h -1.0041 v -3.57645 h -3.94393 v 3.57645 z"
       style="font-size:10.59997368px;font-family:Arial;fill:#000000;stroke-width:1.33333004"
       id="path1559"
       inkscape:connector-curvature="0" />
  </g>
  <path
     style="fill:#000000;fill-rule:evenodd;stroke:#000000;stroke-width:0;stroke-linejoin:miter;shape-rendering:geometricPrecision"
     inkscape:connector-curvature="0"
     id="path110"
     d="m 228.08499,116.83665 v 0 l 0.38667,-0.0667 0.24,0.34666 -4.74665,14.06664 -0.4,0.12 -0.29334,-0.2 z" />
  <path
     style="fill:#000000;fill-rule:evenodd;stroke:#000000;stroke-width:0;stroke-linejoin:miter;shape-rendering:geometricPrecision"
     inkscape:connector-curvature="0"
     id="path114"
     d="m 223.61834,131.76995 v 0 l -0.0533,-0.46666 0.4,-0.12 7.73331,5.75998 -0.2,0.26667 -0.2,0.28 z" />
  <path
     style="fill:#000000;fill-rule:evenodd;stroke:#000000;stroke-width:0;stroke-linejoin:miter;shape-rendering:geometricPrecision"
     inkscape:connector-curvature="0"
     id="path118"
     d="m 240.4983,137.60994 v 0 l -0.2,-0.28 -0.2,-0.26667 7.89331,-5.59999 0.4,0.13334 0.4,0.13333 z" />
  <path
     style="fill:#000000;fill-rule:evenodd;stroke:#000000;stroke-width:0;stroke-linejoin:miter;shape-rendering:geometricPrecision"
     inkscape:connector-curvature="0"
     id="path122"
     d="m 248.79161,131.72995 v 0 l -0.4,-0.13333 -0.4,-0.13334 -4.42665,-14.17329 0.25333,-0.33334 0.38666,0.08 z" />
  <path
     style="fill:#000000;fill-rule:evenodd;stroke:#000000;stroke-width:0;stroke-linejoin:miter;shape-rendering:geometricPrecision"
     inkscape:connector-curvature="0"
     id="path126"
     d="m 243.63162,116.60999 v 0 l 0.18667,0.34666 -0.25333,0.33334 -14.8533,-0.17334 -0.24,-0.34666 0.2,-0.33333 z" />
  <path
     style="fill:#cc78a6;fill-rule:evenodd;stroke:#cc78a6;stroke-width:0;stroke-linejoin:miter;shape-rendering:geometricPrecision"
     inkscape:connector-curvature="0"
     id="path130"
     d="m 223.27167,131.10329 v 0 l 0.29334,0.2 0.0533,0.46666 -5.25332,6.97332 -1.12,-1.12 -1.12,-1.12 z" />
  <g
     aria-label="NC"
     style="font-size:15.99995995px;text-anchor:end;stroke-width:1.33333004;text-rendering:geometricPrecision"
     id="text136">
    <path
       d="m 202.02549,146.31657 v -7.58767 h 1.02998 l 3.98534,5.95731 v -5.95731 h 0.96269 v 7.58767 h -1.02997 l -3.98535,-5.96248 v 5.96248 z"
       style="font-size:10.59997368px;font-family:Arial;fill:#cc78a6;stroke-width:1.33333004"
       id="path1562"
       inkscape:connector-curvature="0" />
    <path
       d="m 215.10983,143.65623 1.0041,0.25361 q -0.31572,1.23701 -1.13867,1.88916 -0.81777,0.64697 -2.00302,0.64697 -1.22666,0 -1.99785,-0.49688 -0.76601,-0.50204 -1.16972,-1.44921 -0.39853,-0.94717 -0.39853,-2.03408 0,-1.18525 0.45029,-2.06513 0.45547,-0.88506 1.28876,-1.34052 0.83848,-0.46065 1.84258,-0.46065 1.13867,0 1.91503,0.57969 0.77637,0.57969 1.08174,1.63037 l -0.98857,0.23291 q -0.26397,-0.82813 -0.76602,-1.20596 -0.50205,-0.37783 -1.26288,-0.37783 -0.87471,0 -1.46475,0.41924 -0.58486,0.41924 -0.82294,1.12832 -0.23809,0.7039 -0.23809,1.45439 0,0.96787 0.27949,1.69247 0.28467,0.71943 0.87988,1.07656 0.59522,0.35713 1.28877,0.35713 0.84365,0 1.42851,-0.48652 0.58486,-0.48652 0.79189,-1.44404 z"
       style="font-size:10.59997368px;font-family:Arial;fill:#cc78a6;stroke-width:1.33333004"
       id="path1564"
       inkscape:connector-curvature="0" />
  </g>
  <path
     style="fill:#000000;fill-rule:evenodd;stroke:#000000;stroke-width:0;stroke-linejoin:miter;shape-rendering:geometricPrecision"
     inkscape:connector-curvature="0"
     id="path140"
     d="m 228.67166,116.43666 v 0 l -0.2,0.33333 -0.38667,0.0667 -10.1333,-12.0933 1.65333,-0.49333 1.55999,-0.48 z" />
  <path
     style="fill:#000000;fill-rule:evenodd;stroke:#000000;stroke-width:0;stroke-linejoin:miter;shape-rendering:geometricPrecision"
     inkscape:connector-curvature="0"
     id="path144"
     d="m 221.16501,103.77002 v 0 l -1.55999,0.48 -1.65333,0.49333 -9.27998,0.86667 -0.0267,-0.33334 -0.04,-0.34666 z" />
  <g
     aria-label="MeOOC"
     style="font-size:15.99995995px;text-anchor:end;stroke-width:1.33333004;text-rendering:geometricPrecision"
     id="text150">
    <path
       d="m 170.07138,109.83667 v -7.58768 h 1.51133 l 1.79599,5.37245 q 0.24844,0.75049 0.3623,1.12314 0.1294,-0.41406 0.40371,-1.2163 l 1.8167,-5.27929 h 1.35087 v 7.58768 h -0.96787 V 103.486 l -2.20487,6.35067 h -0.90576 l -2.19453,-6.45936 v 6.45936 z"
       style="font-size:10.59997368px;font-family:Arial;fill:#000000;stroke-width:1.33333004"
       id="path1567"
       inkscape:connector-curvature="0" />
    <path
       d="m 182.58639,108.06656 0.96269,0.11904 q -0.22773,0.84365 -0.84365,1.30947 -0.61591,0.46582 -1.57343,0.46582 -1.20595,0 -1.91503,-0.74014 -0.70391,-0.74531 -0.70391,-2.08583 0,-1.38711 0.71426,-2.15312 0.71425,-0.76601 1.85292,-0.76601 1.10244,0 1.80117,0.75048 0.69873,0.75049 0.69873,2.11172 0,0.0828 -0.005,0.24843 h -4.0992 q 0.0517,0.90576 0.5124,1.38711 0.46064,0.48134 1.14902,0.48134 0.5124,0 0.8747,-0.26914 0.36231,-0.26914 0.57451,-0.85917 z m -3.05888,-1.50615 h 3.06923 q -0.0621,-0.69355 -0.35195,-1.04033 -0.44511,-0.53828 -1.1542,-0.53828 -0.64179,0 -1.08173,0.42959 -0.43477,0.42959 -0.48135,1.14902 z"
       style="font-size:10.59997368px;font-family:Arial;fill:#000000;stroke-width:1.33333004"
       id="path1569"
       inkscape:connector-curvature="0" />
    <path
       d="m 184.53766,106.14117 q 0,-1.88915 1.01445,-2.95536 1.01445,-1.07139 2.61894,-1.07139 1.05068,0 1.89433,0.50205 0.84365,0.50205 1.28359,1.40264 0.44511,0.8954 0.44511,2.03407 0,1.1542 -0.46581,2.06513 -0.46582,0.91094 -1.31983,1.38193 -0.854,0.46582 -1.84257,0.46582 -1.07138,0 -1.91503,-0.51757 -0.84365,-0.51758 -1.27842,-1.41299 -0.43476,-0.89541 -0.43476,-1.89433 z m 1.03515,0.0155 q 0,1.37158 0.73496,2.16347 0.74013,0.78672 1.85292,0.78672 1.1335,0 1.86328,-0.79707 0.73496,-0.79707 0.73496,-2.26181 0,-0.92647 -0.31572,-1.61484 -0.31055,-0.69356 -0.91611,-1.07139 -0.60039,-0.383 -1.35088,-0.383 -1.06621,0 -1.8374,0.73496 -0.76601,0.72978 -0.76601,2.44296 z"
       style="font-size:10.59997368px;font-family:Arial;fill:#000000;stroke-width:1.33333004"
       id="path1571"
       inkscape:connector-curvature="0" />
    <path
       d="m 192.77748,106.14117 q 0,-1.88915 1.01445,-2.95536 1.01445,-1.07139 2.61894,-1.07139 1.05068,0 1.89433,0.50205 0.84365,0.50205 1.28359,1.40264 0.44512,0.8954 0.44512,2.03407 0,1.1542 -0.46582,2.06513 -0.46582,0.91094 -1.31982,1.38193 -0.85401,0.46582 -1.84258,0.46582 -1.07138,0 -1.91503,-0.51757 -0.84365,-0.51758 -1.27842,-1.41299 -0.43476,-0.89541 -0.43476,-1.89433 z m 1.03515,0.0155 q 0,1.37158 0.73496,2.16347 0.74014,0.78672 1.85293,0.78672 1.13349,0 1.86327,-0.79707 0.73496,-0.79707 0.73496,-2.26181 0,-0.92647 -0.31572,-1.61484 -0.31054,-0.69356 -0.91611,-1.07139 -0.60039,-0.383 -1.35088,-0.383 -1.0662,0 -1.83739,0.73496 -0.76602,0.72978 -0.76602,2.44296 z"
       style="font-size:10.59997368px;font-family:Arial;fill:#000000;stroke-width:1.33333004"
       id="path1573"
       inkscape:connector-curvature="0" />
    <path
       d="m 206.73653,107.17632 1.0041,0.25362 q -0.31572,1.23701 -1.13867,1.88915 -0.81777,0.64697 -2.00302,0.64697 -1.22666,0 -1.99785,-0.49687 -0.76601,-0.50205 -1.16972,-1.44921 -0.39854,-0.94717 -0.39854,-2.03408 0,-1.18525 0.45029,-2.06513 0.45547,-0.88506 1.28877,-1.34053 0.83847,-0.46064 1.84257,-0.46064 1.13867,0 1.91504,0.57969 0.77636,0.57968 1.08173,1.63036 l -0.98857,0.23291 q -0.26396,-0.82812 -0.76601,-1.20595 -0.50205,-0.37783 -1.26289,-0.37783 -0.87471,0 -1.46474,0.41923 -0.58486,0.41924 -0.82295,1.12832 -0.23809,0.70391 -0.23809,1.45439 0,0.96787 0.2795,1.69248 0.28466,0.71943 0.87988,1.07656 0.59521,0.35713 1.28876,0.35713 0.84365,0 1.42852,-0.48653 0.58486,-0.48652 0.79189,-1.44404 z"
       style="font-size:10.59997368px;font-family:Arial;fill:#000000;stroke-width:1.33333004"
       id="path1575"
       inkscape:connector-curvature="0" />
  </g>
  <path
     style="fill:#000000;fill-rule:evenodd;stroke:#000000;stroke-width:0;stroke-linejoin:miter;shape-rendering:geometricPrecision"
     inkscape:connector-curvature="0"
     id="path154"
     d="m 244.20495,117.03665 v 0 l -0.38666,-0.08 -0.18667,-0.34666 7.81332,-12.47997 1.54666,0.52 1.64,0.53333 z" />
  <path
     style="fill:#000000;fill-rule:evenodd;stroke:#000000;stroke-width:0;stroke-linejoin:miter;shape-rendering:geometricPrecision"
     inkscape:connector-curvature="0"
     id="path160"
     d="m 254.0316,104.42335 v 0 l 0.77333,0.0933 -6.30665,-14.639968 -0.62667,0.266666 z" />
  <path
     style="fill:#000000;fill-rule:evenodd;stroke:#000000;stroke-width:0;stroke-linejoin:miter;shape-rendering:geometricPrecision"
     inkscape:connector-curvature="0"
     id="path162"
     d="m 251.5916,105.73002 v 0 l 0.49333,-0.56 -6.13331,-14.199967 -0.62667,0.266666 z" />
  <path
     style="fill:#000000;fill-rule:evenodd;stroke:#000000;stroke-width:0;stroke-linejoin:miter;shape-rendering:geometricPrecision"
     inkscape:connector-curvature="0"
     id="path166"
     d="m 254.6316,105.18335 v 0 l -1.64,-0.53333 -1.54666,-0.52 16.82662,1.97333 -0.04,0.33333 -0.04,0.33333 z" />
  <g
     aria-label="1) HCl, MeOH"
     style="font-size:15.99995995px;text-anchor:start;stroke-width:1.33333004;text-rendering:geometricPrecision"
     id="text172">
    <path
       d="m 309.32725,114.18333 h -0.93163 v -5.93661 q -0.33643,0.3209 -0.88506,0.6418 -0.54346,0.32089 -0.97822,0.48134 v -0.90058 q 0.78154,-0.36748 1.3664,-0.89023 0.58486,-0.52276 0.82813,-1.01445 h 0.60038 z"
       style="font-size:10.59997368px;font-family:Arial;fill:#000000;stroke-width:1.33333004"
       id="path1579"
       inkscape:connector-curvature="0" />
    <path
       d="m 312.58799,116.41408 h -0.66768 q 1.54756,-2.48437 1.54756,-4.97391 0,-0.97304 -0.22256,-1.93056 -0.17597,-0.77637 -0.4917,-1.49062 -0.20185,-0.46582 -0.8333,-1.55273 h 0.66768 q 0.97304,1.29911 1.43886,2.60858 0.39854,1.12832 0.39854,2.36015 0,1.39746 -0.53828,2.70175 -0.53311,1.3043 -1.29912,2.27734 z"
       style="font-size:10.59997368px;font-family:Arial;fill:#000000;stroke-width:1.33333004"
       id="path1581"
       inkscape:connector-curvature="0" />
    <path
       d="m 318.60741,114.18333 v -7.58768 h 1.0041 v 3.11581 h 3.94393 v -3.11581 h 1.0041 v 7.58768 h -1.0041 v -3.57646 h -3.94393 v 3.57646 z"
       style="font-size:10.59997368px;font-family:Arial;fill:#000000;stroke-width:1.33333004"
       id="path1583"
       inkscape:connector-curvature="0" />
    <path
       d="m 331.65034,111.52298 1.0041,0.25361 q -0.31572,1.23701 -1.13867,1.88916 -0.81777,0.64697 -2.00302,0.64697 -1.22666,0 -1.99785,-0.49687 -0.76601,-0.50205 -1.16972,-1.44922 -0.39853,-0.94716 -0.39853,-2.03407 0,-1.18526 0.45029,-2.06514 0.45547,-0.88505 1.28876,-1.34052 0.83848,-0.46064 1.84258,-0.46064 1.13867,0 1.91503,0.57968 0.77637,0.57969 1.08174,1.63037 l -0.98857,0.23291 q -0.26397,-0.82812 -0.76602,-1.20596 -0.50205,-0.37783 -1.26288,-0.37783 -0.87471,0 -1.46475,0.41924 -0.58486,0.41924 -0.82294,1.12832 -0.23809,0.7039 -0.23809,1.45439 0,0.96787 0.27949,1.69248 0.28467,0.71943 0.87988,1.07656 0.59522,0.35712 1.28877,0.35712 0.84365,0 1.42851,-0.48652 0.58486,-0.48652 0.79189,-1.44404 z"
       style="font-size:10.59997368px;font-family:Arial;fill:#000000;stroke-width:1.33333004"
       id="path1585"
       inkscape:connector-curvature="0" />
    <path
       d="m 333.75688,114.18333 v -7.58768 h 0.93164 v 7.58768 z"
       style="font-size:10.59997368px;font-family:Arial;fill:#000000;stroke-width:1.33333004"
       id="path1587"
       inkscape:connector-curvature="0" />
    <path
       d="m 336.381,114.18333 v -1.06104 h 1.06103 v 1.06104 q 0,0.58486 -0.20703,0.94199 -0.20703,0.3623 -0.65732,0.55898 l -0.25879,-0.39853 q 0.29502,-0.1294 0.43476,-0.38301 0.13975,-0.24844 0.15528,-0.71943 z"
       style="font-size:10.59997368px;font-family:Arial;fill:#000000;stroke-width:1.33333004"
       id="path1589"
       inkscape:connector-curvature="0" />
    <path
       d="m 342.1054,114.18333 v -7.58768 h 1.51132 l 1.79599,5.37245 q 0.24844,0.75048 0.36231,1.12314 0.12939,-0.41406 0.40371,-1.21631 l 1.81669,-5.27928 h 1.35088 v 7.58768 h -0.96787 v -6.35067 l -2.20488,6.35067 h -0.90576 l -2.19452,-6.45936 v 6.45936 z"
       style="font-size:10.59997368px;font-family:Arial;fill:#000000;stroke-width:1.33333004"
       id="path1591"
       inkscape:connector-curvature="0" />
    <path
       d="m 354.6204,112.41321 0.9627,0.11905 q -0.22774,0.84365 -0.84366,1.30947 -0.61591,0.46582 -1.57343,0.46582 -1.20595,0 -1.91503,-0.74014 -0.70391,-0.74531 -0.70391,-2.08583 0,-1.38711 0.71426,-2.15312 0.71425,-0.76602 1.85292,-0.76602 1.10244,0 1.80117,0.75049 0.69873,0.75049 0.69873,2.11171 0,0.0828 -0.005,0.24844 h -4.0992 q 0.0517,0.90576 0.5124,1.3871 0.46064,0.48135 1.14902,0.48135 0.5124,0 0.8747,-0.26914 0.36231,-0.26914 0.57451,-0.85918 z m -3.05888,-1.50614 h 3.06923 q -0.0621,-0.69356 -0.35195,-1.04033 -0.44511,-0.53828 -1.15419,-0.53828 -0.6418,0 -1.08174,0.42958 -0.43477,0.42959 -0.48135,1.14903 z"
       style="font-size:10.59997368px;font-family:Arial;fill:#000000;stroke-width:1.33333004"
       id="path1593"
       inkscape:connector-curvature="0" />
    <path
       d="m 356.57167,110.48783 q 0,-1.88916 1.01445,-2.95537 1.01445,-1.07138 2.61894,-1.07138 1.05068,0 1.89433,0.50205 0.84365,0.50205 1.28359,1.40263 0.44512,0.89541 0.44512,2.03408 0,1.1542 -0.46582,2.06513 -0.46582,0.91094 -1.31982,1.38193 -0.854,0.46582 -1.84258,0.46582 -1.07138,0 -1.91503,-0.51758 -0.84365,-0.51757 -1.27842,-1.41298 -0.43476,-0.89541 -0.43476,-1.89433 z m 1.03515,0.0155 q 0,1.37157 0.73496,2.16347 0.74014,0.78671 1.85293,0.78671 1.13349,0 1.86327,-0.79706 0.73496,-0.79707 0.73496,-2.26182 0,-0.92646 -0.31572,-1.61484 -0.31054,-0.69355 -0.91611,-1.07138 -0.60039,-0.38301 -1.35087,-0.38301 -1.06621,0 -1.8374,0.73496 -0.76602,0.72979 -0.76602,2.44297 z"
       style="font-size:10.59997368px;font-family:Arial;fill:#000000;stroke-width:1.33333004"
       id="path1595"
       inkscape:connector-curvature="0" />
    <path
       d="m 365.14792,114.18333 v -7.58768 h 1.0041 v 3.11581 h 3.94393 v -3.11581 h 1.0041 v 7.58768 h -1.0041 v -3.57646 h -3.94393 v 3.57646 z"
       style="font-size:10.59997368px;font-family:Arial;fill:#000000;stroke-width:1.33333004"
       id="path1597"
       inkscape:connector-curvature="0" />
  </g>
  <path
     style="stroke:#000000;stroke-width:0.67999828;shape-rendering:auto"
     d="m 386.27127,132.55661 h -92.8931"
     id="line176" />
  <path
     style="fill:#000000;fill-rule:evenodd;stroke:#000000;stroke-width:0;stroke-linejoin:miter;stroke-miterlimit:5.89496231;shape-rendering:geometricPrecision"
     inkscape:connector-curvature="0"
     id="path178"
     stroke-miterlimit="5.89496254687654"
     d="m 390.88459,132.55662 -6.79999,-1.70667 c 1.44,0.96 1.44,2.45333 0,3.41333 z" />
  <g
     aria-label="2) KOH"
     style="font-size:15.99995995px;text-anchor:start;stroke-width:1.33333004;text-rendering:geometricPrecision"
     id="text267">
    <path
       d="m 310.74792,127.28225 v 0.90104 h -5.04686 q -0.0104,-0.33854 0.10937,-0.65104 0.19271,-0.51563 0.61459,-1.01562 0.42708,-0.5 1.22916,-1.15625 1.24479,-1.02083 1.68229,-1.61458 0.4375,-0.59896 0.4375,-1.13021 0,-0.55729 -0.40104,-0.93749 -0.39584,-0.38542 -1.03646,-0.38542 -0.67708,0 -1.08333,0.40625 -0.40625,0.40625 -0.41146,1.125 l -0.96354,-0.099 q 0.099,-1.07812 0.74479,-1.64062 0.64583,-0.56771 1.73437,-0.56771 1.09896,0 1.73958,0.60937 0.64063,0.60938 0.64063,1.51042 0,0.45833 -0.1875,0.90104 -0.1875,0.4427 -0.625,0.93229 -0.43229,0.48958 -1.44271,1.34374 -0.84375,0.70833 -1.08333,0.96354 -0.23958,0.25 -0.39583,0.50521 z"
       style="font-size:10.66664028px;font-family:Arial;fill:#000000;stroke-width:1.33333004"
       id="path1658"
       inkscape:connector-curvature="0" />
    <path
       d="m 312.63333,130.42807 h -0.67187 q 1.55729,-2.49999 1.55729,-5.00519 0,-0.97917 -0.22396,-1.9427 -0.17708,-0.78125 -0.49479,-1.5 -0.20312,-0.46875 -0.83854,-1.5625 h 0.67187 q 0.97917,1.30729 1.44792,2.625 0.40104,1.13541 0.40104,2.37499 0,1.40625 -0.54167,2.71874 -0.53645,1.3125 -1.30729,2.29166 z"
       style="font-size:10.66664028px;font-family:Arial;fill:#000000;stroke-width:1.33333004"
       id="path1660"
       inkscape:connector-curvature="0" />
    <path
       d="m 318.61769,128.18329 v -7.6354 h 1.01042 v 3.78645 l 3.79166,-3.78645 h 1.36978 l -3.20311,3.09374 3.34374,4.54166 h -1.33333 l -2.71875,-3.86458 -1.24999,1.21875 v 2.64583 z"
       style="font-size:10.66664028px;font-family:Arial;fill:#000000;stroke-width:1.33333004"
       id="path1662"
       inkscape:connector-curvature="0" />
    <path
       d="m 325.47705,124.46455 q 0,-1.90104 1.02083,-2.97395 1.02083,-1.07813 2.63541,-1.07813 1.05729,0 1.90625,0.50521 0.84895,0.50521 1.29166,1.41146 0.44792,0.90104 0.44792,2.04687 0,1.16145 -0.46875,2.07812 -0.46875,0.91666 -1.32812,1.39062 -0.85938,0.46875 -1.85417,0.46875 -1.07812,0 -1.92707,-0.52084 -0.84896,-0.52083 -1.28646,-1.42187 -0.4375,-0.90104 -0.4375,-1.90624 z m 1.04167,0.0156 q 0,1.38021 0.73958,2.17708 0.74479,0.79167 1.86458,0.79167 1.14062,0 1.87499,-0.80209 0.73958,-0.80208 0.73958,-2.27603 0,-0.93229 -0.3177,-1.625 -0.3125,-0.69791 -0.92188,-1.07812 -0.60416,-0.38542 -1.35937,-0.38542 -1.07291,0 -1.84895,0.73959 -0.77083,0.73437 -0.77083,2.45832 z"
       style="font-size:10.66664028px;font-family:Arial;fill:#000000;stroke-width:1.33333004"
       id="path1664"
       inkscape:connector-curvature="0" />
    <path
       d="m 334.10724,128.18329 v -7.6354 h 1.01041 v 3.13541 h 3.96874 v -3.13541 h 1.01042 v 7.6354 h -1.01042 v -3.59895 h -3.96874 v 3.59895 z"
       style="font-size:10.66664028px;font-family:Arial;fill:#000000;stroke-width:1.33333004"
       id="path1666"
       inkscape:connector-curvature="0" />
  </g>
  <path
     style="fill:#e69e00;stroke:#e69e00;stroke-width:0.1466663"
     d="m 477.25102,95.91671 a 1.8599954,1.8599954 0 0 1 -1.86,1.859995 1.8599954,1.8599954 0 0 1 -1.85999,-1.859995 1.8599954,1.8599954 0 0 1 1.85999,-1.859995 1.8599954,1.8599954 0 0 1 1.86,1.859995 z"
     id="circle271" />
  <path
     style="stroke:#e69e00;stroke-width:0.71771264;shape-rendering:auto"
     d="M 475.39102,82.930077 H 369.38299"
     id="line274"
     inkscape:connector-curvature="0" />
  <path
     style="stroke:#e69e00;stroke-width:0.67999828;shape-rendering:auto"
     d="M 475.39102,95.130035 V 82.930077"
     id="line276" />
  <path
     style="fill:#009d73;fill-rule:evenodd;stroke:#009d73;stroke-width:0;stroke-linejoin:miter;shape-rendering:geometricPrecision"
     inkscape:connector-curvature="0"
     id="path278"
     d="m 223.65834,130.96995 v 0 l -0.18667,0.66667 -0.66666,-0.10667 0.21333,-0.81333 z" />
  <path
     style="fill:#009d73;fill-rule:evenodd;stroke:#009d73;stroke-width:0;stroke-linejoin:miter;shape-rendering:geometricPrecision"
     inkscape:connector-curvature="0"
     id="path280"
     d="m 220.61835,129.75662 v 0 l -0.38667,1.41333 -0.66666,-0.10666 0.41333,-1.56 z" />
  <path
     style="fill:#009d73;fill-rule:evenodd;stroke:#009d73;stroke-width:0;stroke-linejoin:miter;shape-rendering:geometricPrecision"
     inkscape:connector-curvature="0"
     id="path282"
     d="m 217.57835,128.54329 v 0 l -0.58666,2.16 -0.66667,-0.0933 0.61334,-2.31999 z" />
  <path
     style="fill:#009d73;fill-rule:evenodd;stroke:#009d73;stroke-width:0;stroke-linejoin:miter;shape-rendering:geometricPrecision"
     inkscape:connector-curvature="0"
     id="path284"
     d="m 214.53836,127.31663 v 0 l -0.77333,2.91999 -0.68,-0.0933 0.81333,-3.07999 z" />
  <g
     aria-label="H"
     style="font-size:15.99995995px;text-anchor:start;stroke-width:1.33333004;text-rendering:geometricPrecision"
     id="text290">
    <path
       d="m 205.72587,131.52995 v -7.63539 h 1.01041 v 3.1354 h 3.96874 v -3.1354 h 1.01042 v 7.63539 h -1.01042 V 127.931 h -3.96874 v 3.59895 z"
       style="font-size:10.66664028px;font-family:Arial;fill:#009d73;stroke-width:1.33333004"
       id="path1672"
       inkscape:connector-curvature="0" />
  </g>
  <text
     xml:space="preserve"
     style="font-style:normal;font-variant:normal;font-weight:normal;font-stretch:normal;font-size:10.66666698px;line-height:1.25;font-family:Arial;-inkscape-font-specification:Arial;text-align:start;letter-spacing:0px;word-spacing:0px;text-anchor:start;fill:#e69f00;fill-opacity:1;stroke:none"
     x="370.23615"
     y="79.449883"
     id="text1677"><tspan
       sodipodi:role="line"
       id="tspan1675"
       x="370.23615"
       y="79.449883">\iupac{kwas ($-$)-\a-kainowy}</tspan></text>
  <text
     xml:space="preserve"
     style="font-style:normal;font-variant:normal;font-weight:normal;font-stretch:normal;font-size:10.66666698px;line-height:1.25;font-family:Arial;-inkscape-font-specification:Arial;text-align:start;letter-spacing:0px;word-spacing:0px;text-anchor:start;fill:#000000;fill-opacity:1;stroke:none"
     x="31.378786"
     y="159.769"
     id="text1681"><tspan
       sodipodi:role="line"
       id="tspan1679"
       x="31.378786"
       y="159.769">\cmpd{kainic-amide}</tspan></text>
  <text
     xml:space="preserve"
     style="font-style:normal;font-variant:normal;font-weight:normal;font-stretch:normal;font-size:10.66666698px;line-height:1.25;font-family:Arial;-inkscape-font-specification:Arial;text-align:start;letter-spacing:0px;word-spacing:0px;text-anchor:start;fill:#000000;fill-opacity:1;stroke:none"
     x="258.36719"
     y="159.769"
     id="text1681-0"><tspan
       sodipodi:role="line"
       id="tspan1679-4"
       x="258.36719"
       y="159.769">\cmpd{kainic-cn}</tspan></text>
  <text
     xml:space="preserve"
     style="font-style:normal;font-variant:normal;font-weight:normal;font-stretch:normal;font-size:10.66666698px;line-height:1.25;font-family:Arial;-inkscape-font-specification:Arial;text-align:start;letter-spacing:0px;word-spacing:0px;text-anchor:start;fill:#000000;fill-opacity:1;stroke:none"
     x="496.75052"
     y="159.769"
     id="text1681-0-4"><tspan
       sodipodi:role="line"
       id="tspan1679-4-7"
       x="496.75052"
       y="159.769">\cmpd{kainic-acid}</tspan></text>
  <g
     aria-label="N"
     transform="matrix(0.0666667,0,0,0.0666667,473.53451,145.17258)"
     style="font-style:normal;font-weight:normal;font-size:159px;font-family:Arial;fill:#000000;stroke:none"
     id="text98-8">
    <path
       d="m 12.111328,0 v -113.81543 h 15.449707 l 59.780274,89.359864 V -113.81543 H 101.78174 V 0 H 86.332031 L 26.551758,-89.4375 V 0 Z"
       style="font-style:normal;font-weight:normal;font-size:159px;font-family:Arial;fill:#000000;stroke:none"
       id="path990"
       inkscape:connector-curvature="0" />
  </g>
  <g
     aria-label="H"
     transform="matrix(0.0666667,0,0,0.0666667,473.53451,155.43655)"
     style="font-style:normal;font-weight:normal;font-size:159px;font-family:Arial;fill:#000000;stroke:none"
     id="text100">
    <path
       d="m 12.732422,0 v -113.81543 h 15.061523 v 46.737305 h 59.15918 V -113.81543 H 102.01465 V 0 H 86.953125 V -53.646973 H 27.793945 V 0 Z"
       style="font-style:normal;font-weight:normal;font-size:159px;font-family:Arial;fill:#000000;stroke:none"
       id="path987"
       inkscape:connector-curvature="0" />
  </g>
  <path
     inkscape:connector-curvature="0"
     style="fill:#000000;stroke:none;stroke-width:0.0666667"
     d="m 465.46435,131.71333 -0.402,0.12533 -0.25867,-0.296 4.792,-14.16934 0.38267,-0.0707 0.24333,0.34334 z"
     id="path102" />
  <path
     inkscape:connector-curvature="0"
     style="fill:#000000;stroke:none;stroke-width:0.0666667"
     d="m 472.66569,137.07867 -0.40601,0.546 -7.242,-5.39534 0.0447,-0.39067 0.402,-0.12533 z"
     id="path104" />
  <path
     inkscape:connector-curvature="0"
     style="fill:#000000;stroke:none;stroke-width:0.0666667"
     d="m 489.49103,132.00066 0.79666,0.26934 -7.79467,5.52267 -0.39333,-0.55534 z"
     id="path106" />
  <path
     inkscape:connector-curvature="0"
     style="fill:#000000;stroke:none;stroke-width:0.0666667"
     d="m 485.07102,117.82332 0.25134,-0.33733 0.38133,0.08 4.584,14.70401 -0.79666,-0.26934 z"
     id="path108" />
  <path
     inkscape:connector-curvature="0"
     style="fill:#000000;stroke:none;stroke-width:0.0666667"
     d="m 470.22168,117.64599 -0.24333,-0.34333 0.194,-0.338 14.96467,0.17933 0.18534,0.342 -0.25134,0.33733 z"
     id="path110-4" />
  <g
     aria-label="HOOC"
     transform="matrix(0.0666667,0,0,0.0666667,422.37951,140.57238)"
     style="font-style:normal;font-weight:normal;font-size:159px;font-family:Arial;fill:#000000;stroke:none"
     id="text112">
    <path
       d="m 12.732422,0 v -113.81543 h 15.061523 v 46.737305 h 59.15918 V -113.81543 H 102.01465 V 0 H 86.953125 V -53.646973 H 27.793945 V 0 Z"
       style="font-style:normal;font-weight:normal;font-size:159px;font-family:Arial;fill:#000000;stroke:none"
       id="path978"
       inkscape:connector-curvature="0" />
    <path
       d="m 122.58838,-55.432617 q 0,-28.337403 15.2168,-44.330567 15.21679,-16.070796 39.28418,-16.070796 15.76025,0 28.41503,7.53076 12.65479,7.53076 19.25391,21.039548 6.67676,13.431152 6.67676,30.511231 0,17.312988 -6.98731,30.97705 -6.9873,13.664063 -19.79736,20.7290043 -12.81006,6.9873047 -27.63867,6.9873047 -16.0708,0 -28.72559,-7.7636719 -12.65478,-7.7636721 -19.17627,-21.1948241 -6.52148,-13.431152 -6.52148,-28.415039 z m 15.52734,0.23291 q 0,20.57373 11.02442,32.452148 11.10205,11.800782 27.79394,11.800782 17.00244,0 27.94922,-11.956055 11.02441,-11.956055 11.02441,-33.927246 0,-13.896973 -4.73584,-24.222656 -4.6582,-10.403321 -13.74169,-16.070801 -9.00586,-5.745115 -20.26319,-5.745115 -15.99316,0 -27.56103,11.024412 -11.49024,10.946777 -11.49024,36.644531 z"
       style="font-style:normal;font-weight:normal;font-size:159px;font-family:Arial;fill:#000000;stroke:none"
       id="path980"
       inkscape:connector-curvature="0" />
    <path
       d="m 246.18604,-55.432617 q 0,-28.337403 15.21679,-44.330567 15.2168,-16.070796 39.28418,-16.070796 15.76026,0 28.41504,7.53076 12.65479,7.53076 19.25391,21.039548 6.67675,13.431152 6.67675,30.511231 0,17.312988 -6.9873,30.97705 -6.9873,13.664063 -19.79736,20.7290043 -12.81006,6.9873047 -27.63868,6.9873047 -16.0708,0 -28.72558,-7.7636719 -12.65479,-7.7636721 -19.17627,-21.1948241 -6.52148,-13.431152 -6.52148,-28.415039 z m 15.52734,0.23291 q 0,20.57373 11.02441,32.452148 11.10205,11.800782 27.79395,11.800782 17.00244,0 27.94922,-11.956055 11.02441,-11.956055 11.02441,-33.927246 0,-13.896973 -4.73584,-24.222656 -4.6582,-10.403321 -13.7417,-16.070801 -9.00586,-5.745115 -20.26318,-5.745115 -15.99317,0 -27.56104,11.024412 -11.49023,10.946777 -11.49023,36.644531 z"
       style="font-style:normal;font-weight:normal;font-size:159px;font-family:Arial;fill:#000000;stroke:none"
       id="path982"
       inkscape:connector-curvature="0" />
    <path
       d="m 455.57227,-39.905273 15.06152,3.804199 q -4.73584,18.555176 -17.08008,28.3374021 -12.2666,9.7045899 -30.04541,9.7045899 -18.3999,0 -29.96777,-7.453125 -11.49024,-7.530762 -17.5459,-21.738281 -5.97803,-14.20752 -5.97803,-30.511231 0,-17.778808 6.7544,-30.977051 6.83203,-13.27588 19.33154,-20.10791 12.57715,-6.90967 27.63867,-6.90967 17.08008,0 28.72559,8.69531 11.6455,8.695317 16.22607,24.455571 l -14.82861,3.493653 q -3.95947,-12.421875 -11.49024,-18.089356 -7.53076,-5.667478 -18.94336,-5.667478 -13.1206,0 -21.97119,6.288572 -8.77295,6.288574 -12.34424,16.924805 -3.57128,10.558593 -3.57128,21.815918 0,14.518066 4.19238,25.387207 4.27002,10.791503 13.19824,16.148437 8.92822,5.356934 19.33154,5.356934 12.65479,0 21.42774,-7.297852 8.77295,-7.297851 11.87842,-21.660644 z"
       style="font-style:normal;font-weight:normal;font-size:159px;font-family:Arial;fill:#000000;stroke:none"
       id="path984"
       inkscape:connector-curvature="0" />
  </g>
  <path
     inkscape:connector-curvature="0"
     style="fill:#000000;stroke:none;stroke-width:0.0666667"
     d="m 455.81834,136.38333 -0.94533,-3.03067 9.93067,-1.81 0.25867,0.296 -0.0447,0.39067 z"
     id="path114-9" />
  <path
     inkscape:connector-curvature="0"
     style="fill:#000000;stroke:none;stroke-width:0.0666667"
     d="m 459.45901,105.27666 3.20067,-0.98134 7.51267,12.66934 -0.194,0.338 -0.38267,0.0707 z"
     id="path116" />
  <g
     aria-label="HOOC"
     transform="matrix(0.0666667,0,0,0.0666667,417.79551,110.36948)"
     style="font-style:normal;font-weight:normal;font-size:159px;font-family:Arial;fill:#000000;stroke:none"
     id="text118">
    <path
       d="m 12.732422,0 v -113.81543 h 15.061523 v 46.737305 h 59.15918 V -113.81543 H 102.01465 V 0 H 86.953125 V -53.646973 H 27.793945 V 0 Z"
       style="font-style:normal;font-weight:normal;font-size:159px;font-family:Arial;fill:#000000;stroke:none"
       id="path969"
       inkscape:connector-curvature="0" />
    <path
       d="m 122.58838,-55.432617 q 0,-28.337403 15.2168,-44.330567 15.21679,-16.070796 39.28418,-16.070796 15.76025,0 28.41503,7.53076 12.65479,7.53076 19.25391,21.039548 6.67676,13.431152 6.67676,30.511231 0,17.312988 -6.98731,30.97705 -6.9873,13.664063 -19.79736,20.7290043 -12.81006,6.9873047 -27.63867,6.9873047 -16.0708,0 -28.72559,-7.7636719 -12.65478,-7.7636721 -19.17627,-21.1948241 -6.52148,-13.431152 -6.52148,-28.415039 z m 15.52734,0.23291 q 0,20.57373 11.02442,32.452148 11.10205,11.800782 27.79394,11.800782 17.00244,0 27.94922,-11.956055 11.02441,-11.956055 11.02441,-33.927246 0,-13.896973 -4.73584,-24.222656 -4.6582,-10.403321 -13.74169,-16.070801 -9.00586,-5.745115 -20.26319,-5.745115 -15.99316,0 -27.56103,11.024412 -11.49024,10.946777 -11.49024,36.644531 z"
       style="font-style:normal;font-weight:normal;font-size:159px;font-family:Arial;fill:#000000;stroke:none"
       id="path971"
       inkscape:connector-curvature="0" />
    <path
       d="m 246.18604,-55.432617 q 0,-28.337403 15.21679,-44.330567 15.2168,-16.070796 39.28418,-16.070796 15.76026,0 28.41504,7.53076 12.65479,7.53076 19.25391,21.039548 6.67675,13.431152 6.67675,30.511231 0,17.312988 -6.9873,30.97705 -6.9873,13.664063 -19.79736,20.7290043 -12.81006,6.9873047 -27.63868,6.9873047 -16.0708,0 -28.72558,-7.7636719 -12.65479,-7.7636721 -19.17627,-21.1948241 -6.52148,-13.431152 -6.52148,-28.415039 z m 15.52734,0.23291 q 0,20.57373 11.02441,32.452148 11.10205,11.800782 27.79395,11.800782 17.00244,0 27.94922,-11.956055 11.02441,-11.956055 11.02441,-33.927246 0,-13.896973 -4.73584,-24.222656 -4.6582,-10.403321 -13.7417,-16.070801 -9.00586,-5.745115 -20.26318,-5.745115 -15.99317,0 -27.56104,11.024412 -11.49023,10.946777 -11.49023,36.644531 z"
       style="font-style:normal;font-weight:normal;font-size:159px;font-family:Arial;fill:#000000;stroke:none"
       id="path973"
       inkscape:connector-curvature="0" />
    <path
       d="m 455.57227,-39.905273 15.06152,3.804199 q -4.73584,18.555176 -17.08008,28.3374021 -12.2666,9.7045899 -30.04541,9.7045899 -18.3999,0 -29.96777,-7.453125 -11.49024,-7.530762 -17.5459,-21.738281 -5.97803,-14.20752 -5.97803,-30.511231 0,-17.778808 6.7544,-30.977051 6.83203,-13.27588 19.33154,-20.10791 12.57715,-6.90967 27.63867,-6.90967 17.08008,0 28.72559,8.69531 11.6455,8.695317 16.22607,24.455571 l -14.82861,3.493653 q -3.95947,-12.421875 -11.49024,-18.089356 -7.53076,-5.667478 -18.94336,-5.667478 -13.1206,0 -21.97119,6.288572 -8.77295,6.288574 -12.34424,16.924805 -3.57128,10.558593 -3.57128,21.815918 0,14.518066 4.19238,25.387207 4.27002,10.791503 13.19824,16.148437 8.92822,5.356934 19.33154,5.356934 12.65479,0 21.42774,-7.297852 8.77295,-7.297851 11.87842,-21.660644 z"
       style="font-style:normal;font-weight:normal;font-size:159px;font-family:Arial;fill:#000000;stroke:none"
       id="path975"
       inkscape:connector-curvature="0" />
  </g>
  <path
     inkscape:connector-curvature="0"
     style="fill:#000000;stroke:none;stroke-width:0.0666667"
     d="m 450.85834,106.07666 -0.0633,-0.67734 11.86467,-1.104 -3.20067,0.98134 z"
     id="path120" />
  <path
     inkscape:connector-curvature="0"
     style="fill:#000000;stroke:none;stroke-width:0.0666667"
     d="m 492.95036,104.65799 3.17667,1.05667 -10.42334,11.85133 -0.38133,-0.08 -0.18534,-0.342 z"
     id="path122-3" />
  <path
     inkscape:connector-curvature="0"
     style="fill:#000000;stroke:none;stroke-width:0.0666667"
     d="m 486.83569,91.76998 0.62467,-0.26933 6.38934,14.82401 -0.62534,0.26933 z"
     id="path124" />
  <path
     inkscape:connector-curvature="0"
     style="fill:#000000;stroke:none;stroke-width:0.0666667"
     d="m 489.37236,90.67665 0.62467,-0.26934 6.38867,14.82401 -0.62467,0.26934 z"
     id="path126-8" />
  <path
     inkscape:connector-curvature="0"
     style="fill:#000000;stroke:none;stroke-width:0.0666667"
     d="m 509.7697,106.62932 -0.0793,0.67534 -13.56334,-1.59 -3.17667,-1.05667 z"
     id="path128" />
</svg>
