<?xml version="1.0" encoding="UTF-8" standalone="no"?>
<svg
   xmlns:dc="http://purl.org/dc/elements/1.1/"
   xmlns:cc="http://creativecommons.org/ns#"
   xmlns:rdf="http://www.w3.org/1999/02/22-rdf-syntax-ns#"
   xmlns:svg="http://www.w3.org/2000/svg"
   xmlns="http://www.w3.org/2000/svg"
   xmlns:sodipodi="http://sodipodi.sourceforge.net/DTD/sodipodi-0.dtd"
   xmlns:inkscape="http://www.inkscape.org/namespaces/inkscape"
   width="191px"
   height="92px"
   viewBox="0 0 191 92"
   version="1.1"
   id="svg78"
   sodipodi:docname="laurolactam.svg"
   inkscape:version="0.92.4 (5da689c313, 2019-01-14)">
  <metadata
     id="metadata84">
    <rdf:RDF>
      <cc:Work
         rdf:about="">
        <dc:format>image/svg+xml</dc:format>
        <dc:type
           rdf:resource="http://purl.org/dc/dcmitype/StillImage" />
      </cc:Work>
    </rdf:RDF>
  </metadata>
  <defs
     id="defs82" />
  <sodipodi:namedview
     pagecolor="#ffffff"
     bordercolor="#666666"
     borderopacity="1"
     objecttolerance="10"
     gridtolerance="10"
     guidetolerance="10"
     inkscape:pageopacity="0"
     inkscape:pageshadow="2"
     inkscape:window-width="1920"
     inkscape:window-height="1017"
     id="namedview80"
     showgrid="false"
     inkscape:zoom="1.7958115"
     inkscape:cx="95.5"
     inkscape:cy="46"
     inkscape:window-x="-8"
     inkscape:window-y="-8"
     inkscape:window-maximized="1"
     inkscape:current-layer="svg78" />
  <g
     aria-label="NH"
     transform="matrix(0.0666667,0,0,0.0666667,33.8546,24.5706)"
     style="font-style:normal;font-variant:normal;font-weight:normal;font-stretch:normal;font-size:160px;line-height:normal;font-family:Arial;fill:#000000"
     id="text2">
    <path
       d="m 12.1875,0 v -114.53125 h 15.546875 l 60.15625,89.921875 V -114.53125 H 102.42188 V 0 H 86.875 L 26.71875,-90 V 0 Z"
       style="font-style:normal;font-variant:normal;font-weight:normal;font-stretch:normal;font-size:160px;line-height:normal;font-family:Arial;fill:#000000"
       id="path920"
       inkscape:connector-curvature="0" />
    <path
       d="m 128.4375,0 v -114.53125 h 15.15625 V -67.5 H 203.125 v -47.03125 h 15.15625 V 0 H 203.125 V -53.984375 H 143.59375 V 0 Z"
       style="font-style:normal;font-variant:normal;font-weight:normal;font-stretch:normal;font-size:160px;line-height:normal;font-family:Arial;fill:#000000"
       id="path922"
       inkscape:connector-curvature="0" />
  </g>
  <path
     stroke="transparent"
     fill="#000000"
     transform="matrix(0.0666667 0 0 0.0666667 2.51055 -63.3333)"
     d="M 20.369,1586.82 L 10.1646,1580.88 L 212.986,1465.81 L 221.202,1472.88 L 20.369,1586.82 Z "
     id="path4" />
  <path
     stroke="transparent"
     fill="#000000"
     transform="matrix(0.0666667 0 0 0.0666667 2.51055 -63.3333)"
     d="M 20.369,1809.9 L 10.1646,1815.79 L 10.1646,1580.88 L 20.369,1586.82 L 20.369,1809.9 Z "
     id="path6" />
  <path
     stroke="transparent"
     fill="#000000"
     transform="matrix(0.0666667 0 0 0.0666667 2.51055 -63.3333)"
     d="M 218.689,1924.4 L 208.484,1930.29 L 10.1646,1815.79 L 20.369,1809.9 L 218.689,1924.4 Z "
     id="path8" />
  <path
     stroke="transparent"
     fill="#000000"
     transform="matrix(0.0666667 0 0 0.0666667 2.51055 -63.3333)"
     d="M 302.667,1260.66 L 295.653,1250.46 L 457.16,1250.46 L 457.16,1260.66 L 302.667,1260.66 Z "
     id="path10" />
  <path
     stroke="transparent"
     fill="#000000"
     transform="matrix(0.0666667 0 0 0.0666667 2.51055 -63.3333)"
     d="M 221.202,1472.88 L 212.986,1465.81 L 295.653,1250.46 L 302.667,1260.66 L 221.202,1472.88 Z "
     id="path12" />
  <path
     stroke="transparent"
     fill="#000000"
     transform="matrix(0.0666667 0 0 0.0666667 2.51055 -63.3333)"
     d="M 218.689,2153.4 L 208.484,2159.29 L 208.484,1930.29 L 218.689,1924.4 L 218.689,2153.4 Z "
     id="path14" />
  <path
     stroke="transparent"
     fill="#000000"
     transform="matrix(0.0666667 0 0 0.0666667 2.51055 -63.3333)"
     d="M 411.906,2264.96 L 411.906,2276.74 L 208.484,2159.29 L 218.689,2153.4 L 411.906,2264.96 Z "
     id="path16" />
  <path
     stroke="transparent"
     fill="#000000"
     transform="matrix(0.0666667 0 0 0.0666667 2.51055 -63.3333)"
     d="M 605.124,2153.4 L 615.328,2159.29 L 411.906,2276.74 L 411.906,2264.96 L 605.124,2153.4 Z "
     id="path18" />
  <path
     stroke="transparent"
     fill="#000000"
     transform="matrix(0.0666667 0 0 0.0666667 2.51055 -63.3333)"
     d="M 605.124,1924.4 L 615.328,1930.29 L 615.328,2159.29 L 605.124,2153.4 L 605.124,1924.4 Z "
     id="path20" />
  <path
     stroke="transparent"
     fill="#000000"
     transform="matrix(0.0666667 0 0 0.0666667 2.51055 -63.3333)"
     d="M 803.444,1809.9 L 813.648,1815.79 L 615.328,1930.29 L 605.124,1924.4 L 803.444,1809.9 Z "
     id="path22" />
  <path
     stroke="transparent"
     fill="#000000"
     transform="matrix(0.0666667 0 0 0.0666667 2.51055 -63.3333)"
     d="M 803.444,1586.79 L 813.648,1580.9 L 813.648,1815.79 L 803.444,1809.9 L 803.444,1586.79 Z "
     id="path24" />
  <path
     stroke="transparent"
     fill="#000000"
     transform="matrix(0.0666667 0 0 0.0666667 2.51055 -63.3333)"
     d="M 606.11,1472.86 L 614.342,1465.83 L 813.648,1580.9 L 803.444,1586.79 L 606.11,1472.86 Z "
     id="path26" />
  <path
     stroke="transparent"
     fill="#000000"
     transform="matrix(0.0666667 0 0 0.0666667 2.51055 -63.3333)"
     d="M 614.342,1465.83 L 606.11,1472.86 L 559.443,1351.29 L 568.969,1347.63 L 614.342,1465.83 Z "
     id="path28" />
  <g
     aria-label="O"
     transform="matrix(0.0666667,0,0,0.0666667,9.62979,11.9245)"
     style="font-style:normal;font-variant:normal;font-weight:normal;font-stretch:normal;font-size:160px;line-height:normal;font-family:Arial;fill:#000000"
     id="text30">
    <path
       d="m 7.734375,-55.78125 q 0,-28.515625 15.3125,-44.60938 15.3125,-16.17187 39.53125,-16.17187 15.859375,0 28.59375,7.57812 12.734375,7.57813 19.375005,21.17188 6.71875,13.515625 6.71875,30.703125 0,17.421875 -7.03125,31.171875 -7.03125,13.75 -19.92188,20.859375 -12.890625,7.03125 -27.8125,7.03125 -16.171875,0 -28.90625,-7.8125 -12.734375,-7.8125 -19.296875,-21.328125 -6.5625,-13.515625 -6.5625,-28.59375 z m 15.625,0.234375 q 0,20.703125 11.09375,32.65625 11.171875,11.875 27.96875,11.875 17.109375,0 28.125,-12.03125 11.093755,-12.03125 11.093755,-34.140625 0,-13.984375 -4.76563,-24.375 -4.6875,-10.46875 -13.828125,-16.171875 -9.0625,-5.781255 -20.390625,-5.781255 -16.09375,0 -27.734375,11.093755 -11.5625,11.015625 -11.5625,36.875 z"
       style="font-style:normal;font-variant:normal;font-weight:normal;font-stretch:normal;font-size:160px;line-height:normal;font-family:Arial;fill:#000000"
       id="path917"
       inkscape:connector-curvature="0" />
  </g>
  <path
     stroke="transparent"
     fill="#000000"
     transform="matrix(0.0666667 0 0 0.0666667 2.51055 -63.3333)"
     d="M 198.809,1155.13 L 207.219,1149.35 L 294.357,1276.14 L 285.947,1281.92 L 198.809,1155.13 Z "
     id="path32" />
  <path
     stroke="transparent"
     fill="#000000"
     transform="matrix(0.0666667 0 0 0.0666667 2.51055 -63.3333)"
     d="M 232.954,1131.66 L 241.364,1125.88 L 328.501,1252.67 L 320.092,1258.45 L 232.954,1131.66 Z "
     id="path34" />
  <g
     aria-label="N"
     transform="matrix(0.0666667,0,0,0.0666667,165.355,24.5706)"
     style="font-style:normal;font-variant:normal;font-weight:normal;font-stretch:normal;font-size:160px;line-height:normal;font-family:Arial;fill:#000000"
     id="text36">
    <path
       d="m 12.1875,0 v -114.53125 h 15.546875 l 60.15625,89.921875 V -114.53125 H 102.42188 V 0 H 86.875 L 26.71875,-90 V 0 Z"
       style="font-style:normal;font-variant:normal;font-weight:normal;font-stretch:normal;font-size:160px;line-height:normal;font-family:Arial;fill:#000000"
       id="path914"
       inkscape:connector-curvature="0" />
  </g>
  <path
     stroke="transparent"
     fill="#000000"
     transform="matrix(0.0666667 0 0 0.0666667 2.51055 -63.3333)"
     d="M 1992.87,1586.82 L 1982.66,1580.88 L 2185.49,1465.81 L 2193.7,1472.88 L 1992.87,1586.82 Z "
     id="path38" />
  <path
     stroke="transparent"
     fill="#000000"
     transform="matrix(0.0666667 0 0 0.0666667 2.51055 -63.3333)"
     d="M 1992.87,1809.9 L 1982.66,1815.79 L 1982.66,1580.88 L 1992.87,1586.82 L 1992.87,1809.9 Z "
     id="path40" />
  <path
     stroke="transparent"
     fill="#000000"
     transform="matrix(0.0666667 0 0 0.0666667 2.51055 -63.3333)"
     d="M 2191.19,1924.4 L 2180.98,1930.29 L 1982.66,1815.79 L 1992.87,1809.9 L 2191.19,1924.4 Z "
     id="path42" />
  <path
     stroke="transparent"
     fill="#000000"
     transform="matrix(0.0666667 0 0 0.0666667 2.51055 -63.3333)"
     d="M 2275.17,1260.66 L 2268.15,1250.46 L 2429.66,1250.46 L 2429.66,1260.66 L 2275.17,1260.66 Z "
     id="path44" />
  <path
     stroke="transparent"
     fill="#000000"
     transform="matrix(0.0666667 0 0 0.0666667 2.51055 -63.3333)"
     d="M 2299.99,1301.88 L 2299.99,1291.68 L 2429.66,1291.68 L 2429.66,1301.88 L 2299.99,1301.88 Z "
     id="path46" />
  <path
     stroke="transparent"
     fill="#000000"
     transform="matrix(0.0666667 0 0 0.0666667 2.51055 -63.3333)"
     d="M 2193.7,1472.88 L 2185.49,1465.81 L 2268.15,1250.46 L 2275.17,1260.66 L 2193.7,1472.88 Z "
     id="path48" />
  <path
     stroke="transparent"
     fill="#000000"
     transform="matrix(0.0666667 0 0 0.0666667 2.51055 -63.3333)"
     d="M 2191.19,2153.4 L 2180.98,2159.29 L 2180.98,1930.29 L 2191.19,1924.4 L 2191.19,2153.4 Z "
     id="path50" />
  <path
     stroke="transparent"
     fill="#000000"
     transform="matrix(0.0666667 0 0 0.0666667 2.51055 -63.3333)"
     d="M 2384.41,2264.96 L 2384.41,2276.74 L 2180.98,2159.29 L 2191.19,2153.4 L 2384.41,2264.96 Z "
     id="path52" />
  <path
     stroke="transparent"
     fill="#000000"
     transform="matrix(0.0666667 0 0 0.0666667 2.51055 -63.3333)"
     d="M 2577.62,2153.4 L 2587.83,2159.29 L 2384.41,2276.74 L 2384.41,2264.96 L 2577.62,2153.4 Z "
     id="path54" />
  <path
     stroke="transparent"
     fill="#000000"
     transform="matrix(0.0666667 0 0 0.0666667 2.51055 -63.3333)"
     d="M 2577.62,1924.4 L 2587.83,1930.29 L 2587.83,2159.29 L 2577.62,2153.4 L 2577.62,1924.4 Z "
     id="path56" />
  <path
     stroke="transparent"
     fill="#000000"
     transform="matrix(0.0666667 0 0 0.0666667 2.51055 -63.3333)"
     d="M 2775.94,1809.9 L 2786.15,1815.79 L 2587.83,1930.29 L 2577.62,1924.4 L 2775.94,1809.9 Z "
     id="path58" />
  <path
     stroke="transparent"
     fill="#000000"
     transform="matrix(0.0666667 0 0 0.0666667 2.51055 -63.3333)"
     d="M 2775.94,1586.79 L 2786.15,1580.9 L 2786.15,1815.79 L 2775.94,1809.9 L 2775.94,1586.79 Z "
     id="path60" />
  <path
     stroke="transparent"
     fill="#000000"
     transform="matrix(0.0666667 0 0 0.0666667 2.51055 -63.3333)"
     d="M 2578.61,1472.86 L 2586.84,1465.83 L 2786.15,1580.9 L 2775.94,1586.79 L 2578.61,1472.86 Z "
     id="path62" />
  <path
     stroke="transparent"
     fill="#000000"
     transform="matrix(0.0666667 0 0 0.0666667 2.51055 -63.3333)"
     d="M 2586.84,1465.83 L 2578.61,1472.86 L 2531.94,1351.29 L 2541.47,1347.63 L 2586.84,1465.83 Z "
     id="path64" />
  <path
     stroke="transparent"
     fill="#000000"
     transform="matrix(0.0666667 0 0 0.0666667 2.51055 -63.3333)"
     d="M 1806.74,1703.75 L 916.281,1703.75 L 916.281,1693.75 L 1806.74,1693.75 Z "
     id="path66" />
  <path
     stroke="transparent"
     fill="#000000"
     transform="matrix(0.0666667 0 0 0.0666667 2.51055 -63.3333)"
     d="M 1895.03,1698.75 C 1895.03,1698.75 1792.99,1725.26 1792.99,1725.26 C 1792.99,1725.26 1805.74,1710.35 1805.74,1698.75 C 1805.74,1686.71 1792.99,1671.24 1792.99,1671.24 C 1792.99,1671.24 1895.03,1698.75 1895.03,1698.75 C 1895.03,1698.75 1895.03,1698.75 1895.03,1698.75 "
     id="path68" />
  <path
     stroke="#000000"
     stroke-width="1"
     fill="transparent"
     transform="matrix(0.0666667 0 0 0.0666667 2.51055 -63.3333)"
     d="M 1895.03,1698.75 C 1895.03,1698.75 1792.99,1725.26 1792.99,1725.26 C 1792.99,1725.26 1805.74,1710.35 1805.74,1698.75 C 1805.74,1686.71 1792.99,1671.24 1792.99,1671.24 C 1792.99,1671.24 1895.03,1698.75 1895.03,1698.75 C 1895.03,1698.75 1895.03,1698.75 1895.03,1698.75 "
     id="path70" />
  <g
     aria-label="Cp"
     transform="matrix(0.0666667,0,0,0.0666667,66.096,44.6667)"
     style="font-style:normal;font-variant:normal;font-weight:normal;font-stretch:normal;font-size:160px;line-height:normal;font-family:Arial;fill:#009e73"
     id="text72">
    <path
       d="m 94.0625,-40.15625 15.15625,3.828125 Q 104.45313,-17.65625 92.03125,-7.8125 79.6875,1.953125 61.796875,1.953125 q -18.515625,0 -30.15625,-7.5 -11.5625,-7.578125 -17.65625,-21.875 Q 7.96875,-41.71875 7.96875,-58.125 q 0,-17.890625 6.796875,-31.171875 6.875,-13.359375 19.453125,-20.234375 12.65625,-6.95313 27.8125,-6.95313 17.1875,0 28.90625,8.75 11.71875,8.750005 16.32813,24.60938 l -14.92188,3.515625 q -3.984375,-12.5 -11.5625,-18.203125 -7.578125,-5.70313 -19.0625,-5.70313 -13.203125,0 -22.109375,6.32813 -8.828125,6.328125 -12.421875,17.03125 -3.59375,10.625 -3.59375,21.953125 0,14.609375 4.21875,25.546875 4.296875,10.859375 13.28125,16.25 8.984375,5.390625 19.453125,5.390625 12.734375,0 21.5625,-7.34375 8.828125,-7.34375 11.953125,-21.796875 z"
       style="font-style:normal;font-variant:normal;font-weight:normal;font-stretch:normal;font-size:160px;line-height:normal;font-family:Arial;fill:#009e73"
       id="path909"
       inkscape:connector-curvature="0" />
    <path
       d="M 126.17188,31.796875 V -82.96875 h 12.81249 v 10.78125 q 4.53125,-6.328125 10.23438,-9.453125 5.70312,-3.203125 13.82812,-3.203125 10.625,0 18.75,5.46875 8.125,5.46875 12.26563,15.46875 4.14062,9.921875 4.14062,21.796875 0,12.734375 -4.60937,22.96875 -4.53125,10.15625 -13.28125,15.625 Q 171.64062,1.875 162.03125,1.875 155,1.875 149.375,-1.09375 q -5.54688,-2.96875 -9.14063,-7.5 v 40.390625 z m 12.73437,-72.8125 q 0,16.015625 6.48437,23.671875 6.48438,7.65625 15.70313,7.65625 9.375,0 16.01562,-7.890625 6.71875,-7.96875 6.71875,-24.609375 0,-15.859375 -6.5625,-23.75 -6.48437,-7.890625 -15.54687,-7.890625 -8.98438,0 -15.9375,8.4375 -6.875,8.359375 -6.875,24.375 z"
       style="font-style:normal;font-variant:normal;font-weight:normal;font-stretch:normal;font-size:160px;line-height:normal;font-family:Arial;fill:#009e73"
       id="path911"
       inkscape:connector-curvature="0" />
  </g>
  <g
     aria-label="2"
     transform="matrix(0.0666667,0,0,0.0666667,79.7626,46.9333)"
     style="font-style:normal;font-variant:normal;font-weight:normal;font-stretch:normal;font-size:120px;line-height:normal;font-family:Arial;fill:#009e73"
     id="text74">
    <path
       d="M 60.410156,-10.136719 V 0 H 3.6328125 Q 3.515625,-3.8085938 4.8632812,-7.3242187 7.03125,-13.125 11.777344,-18.75 q 4.804687,-5.625 13.828125,-13.007812 14.003906,-11.484375 18.925781,-18.164063 4.921875,-6.738281 4.921875,-12.714844 0,-6.269531 -4.511719,-10.546875 -4.453125,-4.335937 -11.660156,-4.335937 -7.617188,0 -12.1875,4.570312 -4.570313,4.570313 -4.628906,12.65625 L 5.625,-61.40625 Q 6.7382812,-73.535156 14.003906,-79.863281 21.269531,-86.25 33.515625,-86.25 q 12.363281,0 19.570312,6.855469 7.207032,6.855469 7.207032,16.992187 0,5.15625 -2.109375,10.136719 -2.109375,4.980469 -7.03125,10.488281 -4.863282,5.507813 -16.230469,15.117188 -9.492188,7.96875 -12.1875,10.839843 -2.695313,2.8125 -4.453125,5.683594 z"
       style="font-style:normal;font-variant:normal;font-weight:normal;font-stretch:normal;font-size:120px;line-height:normal;font-family:Arial;fill:#009e73"
       id="path906"
       inkscape:connector-curvature="0" />
  </g>
  <g
     aria-label="Zr(H)Cl"
     transform="matrix(0.0666667,0,0,0.0666667,84.2126,44.6667)"
     style="font-style:normal;font-variant:normal;font-weight:normal;font-stretch:normal;font-size:160px;line-height:normal;font-family:Arial;fill:#009e73"
     id="text76">
    <path
       d="M 3.203125,0 V -14.0625 L 61.875,-87.421875 q 6.25,-7.8125 11.875,-13.593755 H 9.84375 v -13.51562 H 91.875 v 13.51562 L 27.578125,-21.5625 20.625,-13.515625 H 93.75 V 0 Z"
       style="font-style:normal;font-variant:normal;font-weight:normal;font-stretch:normal;font-size:160px;line-height:normal;font-family:Arial;fill:#009e73"
       id="path891"
       inkscape:connector-curvature="0" />
    <path
       d="m 108.20313,0 v -82.96875 h 12.65625 v 12.578125 q 4.84375,-8.828125 8.90624,-11.640625 4.14063,-2.8125 9.0625,-2.8125 7.10938,0 14.45313,4.53125 l -4.84375,13.046875 q -5.15625,-3.046875 -10.3125,-3.046875 -4.60938,0 -8.28125,2.8125 -3.67187,2.734375 -5.23437,7.65625 -2.34375,7.5 -2.34375,16.40625 V 0 Z"
       style="font-style:normal;font-variant:normal;font-weight:normal;font-stretch:normal;font-size:160px;line-height:normal;font-family:Arial;fill:#009e73"
       id="path893"
       inkscape:connector-curvature="0" />
    <path
       d="m 188.67187,33.671875 q -11.64062,-14.6875 -19.6875,-34.375 -8.04687,-19.6875 -8.04687,-40.78125 0,-18.59375 6.01562,-35.625 7.03125,-19.765625 21.71875,-39.375005 H 198.75 q -9.45313,16.25 -12.5,23.20313 -4.76563,10.78125 -7.5,22.5 -3.35938,14.609375 -3.35938,29.375 0,37.578125 23.35938,75.078125 z"
       style="font-style:normal;font-variant:normal;font-weight:normal;font-stretch:normal;font-size:160px;line-height:normal;font-family:Arial;fill:#009e73"
       id="path895"
       inkscape:connector-curvature="0" />
    <path
       d="m 217.5,0 v -114.53125 h 15.15625 V -67.5 h 59.53125 v -47.03125 h 15.15625 V 0 H 292.1875 V -53.984375 H 232.65625 V 0 Z"
       style="font-style:normal;font-variant:normal;font-weight:normal;font-stretch:normal;font-size:160px;line-height:normal;font-family:Arial;fill:#009e73"
       id="path897"
       inkscape:connector-curvature="0" />
    <path
       d="M 340.07812,33.671875 H 330 q 23.35937,-37.5 23.35937,-75.078125 0,-14.6875 -3.35937,-29.140625 -2.65625,-11.71875 -7.42188,-22.5 Q 339.53125,-100.07813 330,-116.48438 h 10.07812 q 14.6875,19.60938 21.71875,39.375005 6.01563,17.03125 6.01563,35.625 0,21.09375 -8.125,40.78125 -8.04688,19.6875 -19.60938,34.375 z"
       style="font-style:normal;font-variant:normal;font-weight:normal;font-stretch:normal;font-size:160px;line-height:normal;font-family:Arial;fill:#009e73"
       id="path899"
       inkscape:connector-curvature="0" />
    <path
       d="m 467.8125,-40.15625 15.15625,3.828125 q -4.76563,18.671875 -17.1875,28.515625 -12.34375,9.765625 -30.23438,9.765625 -18.51562,0 -30.15625,-7.5 -11.5625,-7.578125 -17.65625,-21.875 -6.01562,-14.296875 -6.01562,-30.703125 0,-17.890625 6.79687,-31.171875 6.875,-13.359375 19.45313,-20.234375 12.65625,-6.95313 27.8125,-6.95313 17.1875,0 28.90625,8.75 11.71875,8.750005 16.32812,24.60938 l -14.92187,3.515625 q -3.98438,-12.5 -11.5625,-18.203125 -7.57813,-5.70313 -19.0625,-5.70313 -13.20313,0 -22.10938,6.32813 -8.82812,6.328125 -12.42187,17.03125 -3.59375,10.625 -3.59375,21.953125 0,14.609375 4.21875,25.546875 4.29687,10.859375 13.28125,16.25 8.98437,5.390625 19.45312,5.390625 12.73438,0 21.5625,-7.34375 8.82813,-7.34375 11.95313,-21.796875 z"
       style="font-style:normal;font-variant:normal;font-weight:normal;font-stretch:normal;font-size:160px;line-height:normal;font-family:Arial;fill:#009e73"
       id="path901"
       inkscape:connector-curvature="0" />
    <path
       d="m 499.60937,0 v -114.53125 h 14.0625 V 0 Z"
       style="font-style:normal;font-variant:normal;font-weight:normal;font-stretch:normal;font-size:160px;line-height:normal;font-family:Arial;fill:#009e73"
       id="path903"
       inkscape:connector-curvature="0" />
  </g>
  <text
     xml:space="preserve"
     style="font-style:normal;font-weight:normal;font-size:10.66666698px;line-height:1.25;font-family:sans-serif;text-align:start;letter-spacing:0px;word-spacing:0px;text-anchor:start;fill:#000000;fill-opacity:1;stroke:none"
     x="42.877548"
     y="100.35277"
     id="text927"><tspan
       sodipodi:role="line"
       id="tspan925"
       x="42.877548"
       y="100.35277">\cmpd{laurolactam}</tspan></text>
  <text
     xml:space="preserve"
     style="font-style:normal;font-weight:normal;font-size:10.66666698px;line-height:1.25;font-family:sans-serif;text-align:start;letter-spacing:0px;word-spacing:0px;text-anchor:start;fill:#000000;fill-opacity:1;stroke:none"
     x="172.95335"
     y="100.35277"
     id="text927-0"><tspan
       sodipodi:role="line"
       id="tspan925-8"
       x="172.95335"
       y="100.35277">\cmpd{lauro-imine}</tspan></text>
</svg>
