<?xml version="1.0" encoding="UTF-8" standalone="no"?>
<svg
   xmlns:dc="http://purl.org/dc/elements/1.1/"
   xmlns:cc="http://creativecommons.org/ns#"
   xmlns:rdf="http://www.w3.org/1999/02/22-rdf-syntax-ns#"
   xmlns:svg="http://www.w3.org/2000/svg"
   xmlns="http://www.w3.org/2000/svg"
   xmlns:sodipodi="http://sodipodi.sourceforge.net/DTD/sodipodi-0.dtd"
   xmlns:inkscape="http://www.inkscape.org/namespaces/inkscape"
   viewBox="2.87 35.26 136.56 29.51"
   preserveAspectRatio="xMidYMid"
   width="100%"
   height="100%"
   version="1.1"
   id="svg117"
   sodipodi:docname="metalloimine.svg"
   inkscape:version="0.92.3 (2405546, 2018-03-11)">
  <metadata
     id="metadata123">
    <rdf:RDF>
      <cc:Work
         rdf:about="">
        <dc:format>image/svg+xml</dc:format>
        <dc:type
           rdf:resource="http://purl.org/dc/dcmitype/StillImage" />
      </cc:Work>
    </rdf:RDF>
  </metadata>
  <defs
     id="defs121" />
  <sodipodi:namedview
     pagecolor="#ffffff"
     bordercolor="#666666"
     borderopacity="1"
     objecttolerance="10"
     gridtolerance="10"
     guidetolerance="10"
     inkscape:pageopacity="0"
     inkscape:pageshadow="2"
     inkscape:window-width="1920"
     inkscape:window-height="1017"
     id="namedview119"
     showgrid="false"
     inkscape:zoom="2.6362039"
     inkscape:cx="25.036001"
     inkscape:cy="14.755"
     inkscape:window-x="-8"
     inkscape:window-y="-8"
     inkscape:window-maximized="1"
     inkscape:current-layer="svg117" />
  <clipPath
     id="9804">
    <rect
       x="0.255"
       y="0.255"
       width="139.49"
       height="769.29"
       id="rect2" />
  </clipPath>
  <g
     aria-label="R"
     style="text-anchor:start;text-rendering:geometricPrecision"
     id="text9"
     transform="matrix(1.33333,0,0,1.33333,-23.764605,-17.042433)">
    <path
       d="m 3.4989061,58.970001 v -5.726562 h 2.5390625 q 0.765625,0 1.1640625,0.15625 0.3984375,0.152343 0.6367188,0.542968 0.2382812,0.390625 0.2382812,0.863282 0,0.609375 -0.3945312,1.027343 -0.3945313,0.417969 -1.21875,0.53125 0.3007812,0.144532 0.4570312,0.285157 0.3320313,0.304687 0.6289063,0.761718 l 0.9960937,1.558594 H 7.5926561 L 6.8348436,57.778595 Q 6.5028124,57.26297 6.2879686,56.989532 6.0731249,56.716095 5.9012499,56.60672 5.7332811,56.497345 5.5574999,56.454376 5.4285936,56.427032 5.1356249,56.427032 H 4.2567186 v 2.542969 z m 0.7578125,-3.199219 h 1.6289063 q 0.5195312,0 0.8125,-0.105468 0.2929687,-0.109375 0.4453125,-0.34375 0.1523437,-0.238282 0.1523437,-0.515625 0,-0.40625 -0.296875,-0.667969 -0.2929687,-0.261719 -0.9296875,-0.261719 h -1.8125 z"
       style="font-size:8px;font-family:Arial;fill:#000000"
       id="path1134"
       inkscape:connector-curvature="0" />
  </g>
  <path
     style="fill:#000000;fill-rule:evenodd;stroke:#000000;stroke-width:0;stroke-linejoin:miter;shape-rendering:geometricPrecision"
     inkscape:connector-curvature="0"
     id="path13"
     d="m -11.29797,55.024053 v 0 l -0.159999,-0.293332 -0.173333,-0.293333 8.6799783,-5.013321 0.1733329,0.293333 0.1733329,0.293332 z" />
  <g
     aria-label="N"
     style="text-anchor:start;text-rendering:geometricPrecision"
     id="text18"
     transform="matrix(1.33333,0,0,1.33333,-23.764605,-17.042433)">
    <path
       d="m 23.419374,47.459999 v -5.726562 h 0.777344 l 3.007813,4.496093 v -4.496093 h 0.726562 v 5.726562 h -0.777344 l -3.007812,-4.5 v 4.5 z"
       style="font-size:8px;font-family:Arial;fill:#000000"
       id="path1131"
       inkscape:connector-curvature="0" />
  </g>
  <path
     style="fill:#000000;fill-rule:evenodd;stroke:#000000;stroke-width:0;stroke-linejoin:miter;shape-rendering:geometricPrecision"
     inkscape:connector-curvature="0"
     id="path22"
     d="m -2.6046579,50.010732 v 0 L -2.7779908,49.7174 -2.9513237,49.424067 5.9019875,44.317413 6.0619871,44.610746 6.23532,44.904079 Z" />
  <path
     style="stroke:#000000;stroke-width:0.67999828;shape-rendering:auto"
     d="M -1.3913263,52.104062 7.4486503,46.997405"
     id="line24"
     inkscape:connector-curvature="0" />
  <path
     style="stroke:#000000;stroke-width:0.67999828;shape-rendering:auto"
     d="M -4.164654,47.330738 4.6886572,42.210751"
     id="line26"
     inkscape:connector-curvature="0" />
  <path
     style="stroke:#000000;stroke-width:0.67999828;shape-rendering:auto"
     d="M 85.088455,52.464061 H 21.448615"
     id="line30"
     inkscape:connector-curvature="0" />
  <path
     style="fill:#000000;fill-rule:evenodd;stroke:#000000;stroke-width:0;stroke-linejoin:miter;stroke-miterlimit:5.89496231;shape-rendering:geometricPrecision"
     inkscape:connector-curvature="0"
     id="path32"
     stroke-miterlimit="5.89496254687647"
     d="m 89.701778,52.46406 -6.799983,-1.693329 c 1.439996,0.946664 1.439996,2.439993 0,3.386658 z" />
  <g
     aria-label="Cp2Zr(H)Cl"
     style="text-anchor:start;text-rendering:geometricPrecision"
     id="text41"
     transform="matrix(1.33333,0,0,1.33333,-23.764605,-17.042433)">
    <path
       d="m 41.233124,45.052189 0.757812,0.191406 q -0.238281,0.933594 -0.859375,1.425781 -0.617187,0.488282 -1.511718,0.488282 -0.925782,0 -1.507813,-0.375 -0.578125,-0.378907 -0.882812,-1.09375 -0.300782,-0.714844 -0.300782,-1.535157 0,-0.894531 0.339844,-1.558593 0.34375,-0.667969 0.972656,-1.011719 0.632813,-0.347656 1.390625,-0.347656 0.859375,0 1.445313,0.4375 0.585937,0.4375 0.816406,1.230468 l -0.746094,0.175782 q -0.199218,-0.625 -0.578125,-0.910157 -0.378906,-0.285156 -0.953125,-0.285156 -0.660156,0 -1.105468,0.316406 -0.441407,0.316407 -0.621094,0.851563 -0.179688,0.53125 -0.179688,1.097656 0,0.730469 0.210938,1.277344 0.214844,0.542969 0.664062,0.8125 0.449219,0.269531 0.972657,0.269531 0.636718,0 1.078125,-0.367187 0.441406,-0.367188 0.597656,-1.089844 z"
       style="font-size:8px;font-family:Arial;fill:#009d73"
       id="path1107"
       inkscape:connector-curvature="0" />
    <path
       d="m 42.838593,48.649845 v -5.738281 h 0.640625 v 0.539062 q 0.226562,-0.316406 0.511718,-0.472656 0.285157,-0.160156 0.691407,-0.160156 0.53125,0 0.9375,0.273437 0.40625,0.273438 0.613281,0.773438 0.207031,0.496094 0.207031,1.089844 0,0.636718 -0.230469,1.148437 -0.226562,0.507813 -0.664062,0.78125 -0.433594,0.269531 -0.914063,0.269531 -0.351562,0 -0.632812,-0.148437 -0.277344,-0.148438 -0.457031,-0.375 v 2.019531 z m 0.636718,-3.640625 q 0,0.800781 0.324219,1.183594 0.324219,0.382812 0.785156,0.382812 0.46875,0 0.800782,-0.394531 0.335937,-0.398437 0.335937,-1.230469 0,-0.792968 -0.328125,-1.1875 -0.324219,-0.394531 -0.777344,-0.394531 -0.449218,0 -0.796875,0.421875 -0.34375,0.417969 -0.34375,1.21875 z"
       style="font-size:8px;font-family:Arial;fill:#009d73"
       id="path1109"
       inkscape:connector-curvature="0" />
    <path
       d="m 49.784882,48.363165 v 0.506836 h -2.838868 q -0.0059,-0.190429 0.06152,-0.366211 0.108398,-0.290039 0.345703,-0.571289 0.240234,-0.28125 0.691406,-0.65039 0.700196,-0.574219 0.946289,-0.908203 0.246094,-0.336914 0.246094,-0.635743 0,-0.313476 -0.225586,-0.527343 -0.222656,-0.216797 -0.583008,-0.216797 -0.380859,0 -0.609375,0.228515 -0.228515,0.228516 -0.231445,0.632813 l -0.541992,-0.05566 q 0.05566,-0.606445 0.418945,-0.922852 0.363281,-0.319336 0.975586,-0.319336 0.618164,0 0.978516,0.342774 0.360351,0.342773 0.360351,0.849609 0,0.257813 -0.105469,0.506836 -0.105468,0.249024 -0.351562,0.524414 -0.243164,0.275391 -0.811523,0.75586 -0.47461,0.398437 -0.609375,0.541992 -0.134766,0.140625 -0.222657,0.284179 z"
       style="font-size:6px;font-family:Arial;fill:#009d73"
       id="path1111"
       inkscape:connector-curvature="0" />
    <path
       d="m 50.264374,47.060001 v -0.703125 l 2.933594,-3.667968 q 0.3125,-0.390625 0.59375,-0.679688 h -3.195313 v -0.675781 h 4.101563 v 0.675781 l -3.214844,3.972656 -0.347656,0.402344 h 3.65625 v 0.675781 z"
       style="font-size:8px;font-family:Arial;fill:#009d73"
       id="path1113"
       inkscape:connector-curvature="0" />
    <path
       d="m 55.514374,47.060001 v -4.148437 h 0.632812 v 0.628906 q 0.242188,-0.441406 0.445313,-0.582031 0.207031,-0.140625 0.453125,-0.140625 0.355469,0 0.722656,0.226562 l -0.242187,0.652344 q -0.257813,-0.152344 -0.515625,-0.152344 -0.230469,0 -0.414063,0.140625 -0.183594,0.136719 -0.261719,0.382813 -0.117187,0.375 -0.117187,0.820312 v 2.171875 z"
       style="font-size:8px;font-family:Arial;fill:#009d73"
       id="path1115"
       inkscape:connector-curvature="0" />
    <path
       d="m 59.537811,48.743595 q -0.582031,-0.734375 -0.984375,-1.71875 -0.402343,-0.984375 -0.402343,-2.039062 0,-0.929688 0.300781,-1.78125 0.351562,-0.988282 1.085937,-1.96875 h 0.503907 q -0.472657,0.8125 -0.625,1.160156 -0.238282,0.539062 -0.375,1.125 -0.167969,0.730469 -0.167969,1.46875 0,1.878906 1.167969,3.753906 z"
       style="font-size:8px;font-family:Arial;fill:#009d73"
       id="path1117"
       inkscape:connector-curvature="0" />
    <path
       d="m 60.979218,47.060001 v -5.726562 h 0.757812 v 2.351562 h 2.976563 v -2.351562 h 0.757812 v 5.726562 H 64.713593 V 44.360783 H 61.73703 v 2.699218 z"
       style="font-size:8px;font-family:Arial;fill:#009d73"
       id="path1119"
       inkscape:connector-curvature="0" />
    <path
       d="m 67.108124,48.743595 h -0.503906 q 1.167968,-1.875 1.167968,-3.753906 0,-0.734375 -0.167968,-1.457031 -0.132813,-0.585938 -0.371094,-1.125 -0.152344,-0.351563 -0.628906,-1.171875 h 0.503906 q 0.734375,0.980468 1.085937,1.96875 0.300782,0.851562 0.300782,1.78125 0,1.054687 -0.40625,2.039062 -0.402344,0.984375 -0.980469,1.71875 z"
       style="font-size:8px;font-family:Arial;fill:#009d73"
       id="path1121"
       inkscape:connector-curvature="0" />
    <path
       d="m 73.494843,45.052189 0.757812,0.191406 q -0.238281,0.933594 -0.859375,1.425781 -0.617187,0.488282 -1.511719,0.488282 -0.925781,0 -1.507812,-0.375 -0.578125,-0.378907 -0.882813,-1.09375 -0.300781,-0.714844 -0.300781,-1.535157 0,-0.894531 0.339844,-1.558593 0.34375,-0.667969 0.972656,-1.011719 0.632813,-0.347656 1.390625,-0.347656 0.859375,0 1.445313,0.4375 0.585937,0.4375 0.816406,1.230468 l -0.746094,0.175782 q -0.199219,-0.625 -0.578125,-0.910157 -0.378906,-0.285156 -0.953125,-0.285156 -0.660156,0 -1.105469,0.316406 -0.441406,0.316407 -0.621093,0.851563 -0.179688,0.53125 -0.179688,1.097656 0,0.730469 0.210938,1.277344 0.214843,0.542969 0.664062,0.8125 0.449219,0.269531 0.972656,0.269531 0.636719,0 1.078125,-0.367187 0.441407,-0.367188 0.597657,-1.089844 z"
       style="font-size:8px;font-family:Arial;fill:#009d73"
       id="path1123"
       inkscape:connector-curvature="0" />
    <path
       d="m 75.084686,47.060001 v -5.726562 h 0.703125 v 5.726562 z"
       style="font-size:8px;font-family:Arial;fill:#009d73"
       id="path1125"
       inkscape:connector-curvature="0" />
  </g>
  <path
     style="fill:#009d73;fill-rule:evenodd;stroke:#009d73;stroke-width:0;stroke-linejoin:miter;shape-rendering:geometricPrecision"
     inkscape:connector-curvature="0"
     id="path45"
     d="m 142.35498,44.677412 v 0 l -0.24,-0.239999 -0.24,-0.239999 3.69332,-3.693324 0.24,0.239999 0.24,0.239999 z" />
  <path
     style="fill:#009d73;fill-rule:evenodd;stroke:#009d73;stroke-width:0;stroke-linejoin:miter;shape-rendering:geometricPrecision"
     inkscape:connector-curvature="0"
     id="path49"
     d="m 143.56831,50.504065 v 0 l 0.17333,-0.293333 0.16,-0.293333 4.19999,2.413328 -0.17333,0.293332 -0.16,0.293333 z" />
  <g
     aria-label="Cl"
     style="text-anchor:start;text-rendering:geometricPrecision"
     id="text55"
     transform="matrix(1.33333,0,0,1.33333,-23.764605,-17.042433)">
    <path
       d="m 132.05312,41.412186 0.75782,0.191406 q -0.23829,0.933594 -0.85938,1.425781 -0.61719,0.488281 -1.51172,0.488281 -0.92578,0 -1.50781,-0.375 -0.57813,-0.378906 -0.88281,-1.09375 -0.30078,-0.714843 -0.30078,-1.535156 0,-0.894531 0.33984,-1.558594 0.34375,-0.667968 0.97266,-1.011718 0.63281,-0.347657 1.39062,-0.347657 0.85938,0 1.44531,0.4375 0.58594,0.4375 0.81641,1.230469 l -0.74609,0.175781 q -0.19922,-0.625 -0.57813,-0.910156 -0.37891,-0.285156 -0.95312,-0.285156 -0.66016,0 -1.10547,0.316406 -0.44141,0.316406 -0.6211,0.851563 -0.17968,0.53125 -0.17968,1.097656 0,0.730469 0.21093,1.277344 0.21485,0.542968 0.66407,0.8125 0.44921,0.269531 0.97265,0.269531 0.63672,0 1.07813,-0.367188 0.4414,-0.367187 0.59765,-1.089843 z"
       style="font-size:8px;font-family:Arial;fill:#009d73"
       id="path1102"
       inkscape:connector-curvature="0" />
    <path
       d="m 133.64297,43.419998 v -5.726562 h 0.70312 v 5.726562 z"
       style="font-size:8px;font-family:Arial;fill:#009d73"
       id="path1104"
       inkscape:connector-curvature="0" />
  </g>
  <path
     style="fill:#009d73;fill-rule:evenodd;stroke:#009d73;stroke-width:0;stroke-linejoin:miter;shape-rendering:geometricPrecision"
     inkscape:connector-curvature="0"
     id="path59"
     d="m 138.71499,53.490724 v 0 h 0.33333 0.34667 v 4.133323 h -0.34667 -0.33333 z" />
  <g
     aria-label="Cp"
     style="text-anchor:start;text-rendering:geometricPrecision"
     id="text65"
     transform="matrix(1.33333,0,0,1.33333,-23.764605,-17.042433)">
    <path
       d="m 133.88312,55.302189 0.75781,0.191406 q -0.23828,0.933594 -0.85937,1.425781 -0.61719,0.488282 -1.51172,0.488282 -0.92578,0 -1.50782,-0.375 -0.57812,-0.378907 -0.88281,-1.09375 -0.30078,-0.714844 -0.30078,-1.535157 0,-0.894531 0.33984,-1.558593 0.34375,-0.667969 0.97266,-1.011719 0.63281,-0.347656 1.39063,-0.347656 0.85937,0 1.44531,0.4375 0.58594,0.4375 0.8164,1.230468 l -0.74609,0.175782 q -0.19922,-0.625 -0.57812,-0.910157 -0.37891,-0.285156 -0.95313,-0.285156 -0.66016,0 -1.10547,0.316406 -0.4414,0.316407 -0.62109,0.851563 -0.17969,0.53125 -0.17969,1.097656 0,0.730469 0.21094,1.277344 0.21484,0.542969 0.66406,0.8125 0.44922,0.269531 0.97266,0.269531 0.63672,0 1.07812,-0.367187 0.44141,-0.367188 0.59766,-1.089844 z"
       style="font-size:8px;font-family:Arial;fill:#009d73"
       id="path1097"
       inkscape:connector-curvature="0" />
    <path
       d="m 135.48859,58.899845 v -5.738281 h 0.64062 v 0.539062 q 0.22656,-0.316406 0.51172,-0.472656 0.28516,-0.160156 0.69141,-0.160156 0.53125,0 0.9375,0.273437 0.40625,0.273438 0.61328,0.773438 0.20703,0.496094 0.20703,1.089844 0,0.636718 -0.23047,1.148437 -0.22656,0.507813 -0.66406,0.78125 -0.4336,0.269531 -0.91406,0.269531 -0.35157,0 -0.63282,-0.148437 -0.27734,-0.148438 -0.45703,-0.375 v 2.019531 z m 0.63672,-3.640625 q 0,0.800781 0.32421,1.183594 0.32422,0.382812 0.78516,0.382812 0.46875,0 0.80078,-0.394531 0.33594,-0.398437 0.33594,-1.230469 0,-0.792968 -0.32813,-1.1875 -0.32421,-0.394531 -0.77734,-0.394531 -0.44922,0 -0.79687,0.421875 -0.34375,0.417969 -0.34375,1.21875 z"
       style="font-size:8px;font-family:Arial;fill:#009d73"
       id="path1099"
       inkscape:connector-curvature="0" />
  </g>
  <g
     aria-label="Cp"
     style="text-anchor:start;text-rendering:geometricPrecision"
     id="text71"
     transform="matrix(1.33333,0,0,1.33333,-23.764605,-17.042433)">
    <path
       d="m 123.91312,61.062187 0.75782,0.191406 q -0.23828,0.933594 -0.85938,1.425782 -0.61719,0.488281 -1.51172,0.488281 -0.92578,0 -1.50781,-0.375 -0.57812,-0.378906 -0.88281,-1.09375 -0.30078,-0.714844 -0.30078,-1.535156 0,-0.894532 0.33984,-1.558594 0.34375,-0.667969 0.97266,-1.011719 0.63281,-0.347656 1.39062,-0.347656 0.85938,0 1.44531,0.4375 0.58594,0.4375 0.81641,1.230469 l -0.74609,0.175781 q -0.19922,-0.625 -0.57813,-0.910156 -0.3789,-0.285157 -0.95312,-0.285157 -0.66016,0 -1.10547,0.316407 -0.44141,0.316406 -0.6211,0.851562 -0.17968,0.53125 -0.17968,1.097656 0,0.730469 0.21093,1.277344 0.21485,0.542969 0.66407,0.8125 0.44922,0.269531 0.97265,0.269531 0.63672,0 1.07813,-0.367187 0.4414,-0.367188 0.59765,-1.089844 z"
       style="font-size:8px;font-family:Arial;fill:#009d73"
       id="path1092"
       inkscape:connector-curvature="0" />
    <path
       d="m 125.51859,64.659843 v -5.738281 h 0.64063 v 0.539063 q 0.22656,-0.316407 0.51172,-0.472657 0.28515,-0.160156 0.6914,-0.160156 0.53125,0 0.9375,0.273438 0.40625,0.273437 0.61328,0.773437 0.20704,0.496094 0.20704,1.089844 0,0.636719 -0.23047,1.148437 -0.22657,0.507813 -0.66407,0.78125 -0.43359,0.269532 -0.91406,0.269532 -0.35156,0 -0.63281,-0.148438 -0.27734,-0.148437 -0.45703,-0.375 v 2.019531 z m 0.63672,-3.640625 q 0,0.800782 0.32422,1.183594 0.32422,0.382813 0.78516,0.382813 0.46875,0 0.80078,-0.394532 0.33594,-0.398437 0.33594,-1.230468 0,-0.792969 -0.32813,-1.1875 -0.32422,-0.394532 -0.77734,-0.394532 -0.44922,0 -0.79688,0.421875 -0.34375,0.417969 -0.34375,1.21875 z"
       style="font-size:8px;font-family:Arial;fill:#009d73"
       id="path1094"
       inkscape:connector-curvature="0" />
  </g>
  <path
     d="m 124.54169,39.184093 a 0.95894956,0.95894956 0 0 0 0.30667,1.399996 0.95894956,0.95894956 0 0 0 1.35999,-0.453332 0.95894956,0.95894956 0 0 1 1.34667,-0.439999 0.95894956,0.95894956 0 0 1 0.30666,1.399997 0.95894956,0.95894956 0 0 0 0.30667,1.399996 0.95894956,0.95894956 0 0 0 1.36,-0.439999 0.95894956,0.95894956 0 0 1 1.35999,-0.453332 0.95894956,0.95894956 0 0 1 0.30667,1.399997 0.95894956,0.95894956 0 0 0 0.30666,1.399996 0.95894956,0.95894956 0 0 0 1.36,-0.439999"
     id="path75"
     inkscape:connector-curvature="0"
     style="fill:none;fill-rule:evenodd;stroke:#000000;stroke-width:0.67999828;stroke-linejoin:bevel;shape-rendering:geometricPrecision" />
  <g
     aria-label="Zr"
     style="text-anchor:middle;text-rendering:geometricPrecision"
     id="text79"
     transform="matrix(1.33333,0,0,1.33333,-23.764605,-17.042433)">
    <path
       d="m 118.48891,51.560001 v -0.703125 l 2.93359,-3.667968 q 0.3125,-0.390625 0.59375,-0.679688 h -3.19531 v -0.675781 h 4.10156 v 0.675781 l -3.21484,3.972656 -0.34766,0.402344 h 3.65625 v 0.675781 z"
       style="font-size:8px;font-family:Arial;fill:#009d73"
       id="path1087"
       inkscape:connector-curvature="0" />
    <path
       d="m 123.73891,51.560001 v -4.148437 h 0.63281 v 0.628906 q 0.24219,-0.441406 0.44531,-0.582031 0.20703,-0.140625 0.45313,-0.140625 0.35547,0 0.72265,0.226562 l -0.24218,0.652344 q -0.25782,-0.152344 -0.51563,-0.152344 -0.23047,0 -0.41406,0.140625 -0.1836,0.136719 -0.26172,0.382813 -0.11719,0.375 -0.11719,0.820312 v 2.171875 z"
       style="font-size:8px;font-family:Arial;fill:#009d73"
       id="path1089"
       inkscape:connector-curvature="0" />
  </g>
  <path
     style="fill:#009d73;fill-rule:evenodd;stroke:#009d73;stroke-width:0;stroke-linejoin:miter;shape-rendering:geometricPrecision"
     inkscape:connector-curvature="0"
     id="path83"
     d="m 106.7284,43.864081 v 0 0.386666 l -0.33333,0.199999 -8.559979,-4.933321 0.173333,-0.293332 0.159999,-0.293333 z" />
  <path
     style="fill:#000000;fill-rule:evenodd;stroke:#000000;stroke-width:0;stroke-linejoin:miter;shape-rendering:geometricPrecision"
     inkscape:connector-curvature="0"
     id="path87"
     d="m 106.39507,44.450746 v 0 l 0.33333,-0.199999 0.34667,0.199999 v 10.106642 h -0.34667 -0.33333 z" />
  <g
     aria-label="H"
     style="text-anchor:start;text-rendering:geometricPrecision"
     id="text93"
     transform="matrix(1.33333,0,0,1.33333,-23.764605,-17.042433)">
    <path
       d="m 85.640625,43.369999 v -5.726563 h 0.757812 v 2.351563 H 89.375 v -2.351563 h 0.757812 v 5.726563 H 89.375 V 40.67078 h -2.976563 v 2.699219 z"
       style="font-size:8px;font-family:Arial;fill:#009d73"
       id="path1084"
       inkscape:connector-curvature="0" />
  </g>
  <path
     style="fill:#000000;fill-rule:evenodd;stroke:#000000;stroke-width:0;stroke-linejoin:miter;shape-rendering:geometricPrecision"
     inkscape:connector-curvature="0"
     id="path97"
     d="m 107.07507,44.450746 v 0 l -0.34667,-0.199999 v -0.386666 l 8.63998,-4.986654 0.16,0.293333 0.17333,0.293332 z" />
  <path
     style="stroke:#000000;stroke-width:0.67999828;shape-rendering:auto"
     d="m 109.4884,45.85074 7.42664,-4.293318"
     id="line99"
     inkscape:connector-curvature="0" />
  <g
     aria-label="R"
     style="text-anchor:start;text-rendering:geometricPrecision"
     id="text105"
     transform="matrix(1.33333,0,0,1.33333,-23.764605,-17.042433)">
    <path
       d="m 95.598907,60.630001 v -5.726562 h 2.539063 q 0.765625,0 1.164062,0.15625 0.398438,0.152343 0.636719,0.542968 0.238279,0.390625 0.238279,0.863282 0,0.609375 -0.394529,1.027343 -0.394531,0.417969 -1.21875,0.53125 0.300781,0.144532 0.457031,0.285157 0.332032,0.304687 0.628907,0.761718 l 0.996091,1.558594 H 99.692657 L 98.934845,59.438595 Q 98.602814,58.92297 98.38797,58.649532 98.173126,58.376095 98.001251,58.26672 q -0.167969,-0.109375 -0.34375,-0.152344 -0.128906,-0.02734 -0.421875,-0.02734 H 96.35672 v 2.542969 z m 0.757813,-3.199219 h 1.628906 q 0.519531,0 0.8125,-0.105468 0.292969,-0.109375 0.445313,-0.34375 0.152343,-0.238282 0.152343,-0.515625 0,-0.40625 -0.296875,-0.667969 -0.292968,-0.261719 -0.929687,-0.261719 h -1.8125 z"
       style="font-size:8px;font-family:Arial;fill:#000000"
       id="path1080"
       inkscape:connector-curvature="0" />
  </g>
  <g
     aria-label="N"
     style="text-anchor:start;text-rendering:geometricPrecision"
     id="text111"
     transform="matrix(1.33333,0,0,1.33333,-23.764605,-17.042433)">
    <path
       d="m 105.53938,43.369999 v -5.726563 h 0.77734 l 3.00781,4.496094 v -4.496094 h 0.72656 v 5.726563 h -0.77734 l -3.00781,-4.5 v 4.5 z"
       style="font-size:8px;font-family:Arial;fill:#000000"
       id="path1077"
       inkscape:connector-curvature="0" />
  </g>
  <text
     xml:space="preserve"
     style="font-style:normal;font-variant:normal;font-weight:normal;font-stretch:normal;font-size:10.66666698px;line-height:1.25;font-family:Arial;-inkscape-font-specification:Arial;text-align:start;letter-spacing:0px;word-spacing:0px;text-anchor:start;fill:#000000;fill-opacity:1;stroke:none"
     x="-7.7210879"
     y="76.634422"
     id="text1144-2"><tspan
       sodipodi:role="line"
       id="tspan1142-8"
       x="-7.7210879"
       y="76.634422">\cmpd{w:nitrile}</tspan></text>
  <text
     xml:space="preserve"
     style="font-style:normal;font-variant:normal;font-weight:normal;font-stretch:normal;font-size:10.66666698px;line-height:1.25;font-family:Arial;-inkscape-font-specification:Arial;text-align:start;letter-spacing:0px;word-spacing:0px;text-anchor:start;fill:#000000;fill-opacity:1;stroke:none"
     x="113.70816"
     y="76.634422"
     id="text1144"><tspan
       sodipodi:role="line"
       id="tspan1142"
       x="113.70816"
       y="76.634422">\cmpd{w:metalloimine}</tspan></text>
</svg>
