<?xml version="1.0" encoding="UTF-8" standalone="no"?>
<svg
   xmlns:dc="http://purl.org/dc/elements/1.1/"
   xmlns:cc="http://creativecommons.org/ns#"
   xmlns:rdf="http://www.w3.org/1999/02/22-rdf-syntax-ns#"
   xmlns:svg="http://www.w3.org/2000/svg"
   xmlns="http://www.w3.org/2000/svg"
   xmlns:sodipodi="http://sodipodi.sourceforge.net/DTD/sodipodi-0.dtd"
   xmlns:inkscape="http://www.inkscape.org/namespaces/inkscape"
   viewBox="1.25 104.09 463.45 76.36"
   preserveAspectRatio="xMidYMid"
   width="100%"
   height="100%"
   version="1.1"
   id="svg477"
   sodipodi:docname="nitrile-cf-two-step.svg"
   inkscape:version="0.92.3 (2405546, 2018-03-11)">
  <metadata
     id="metadata483">
    <rdf:RDF>
      <cc:Work
         rdf:about="">
        <dc:format>image/svg+xml</dc:format>
        <dc:type
           rdf:resource="http://purl.org/dc/dcmitype/StillImage" />
      </cc:Work>
    </rdf:RDF>
  </metadata>
  <defs
     id="defs481" />
  <sodipodi:namedview
     pagecolor="#ffffff"
     bordercolor="#666666"
     borderopacity="1"
     objecttolerance="10"
     gridtolerance="10"
     guidetolerance="10"
     inkscape:pageopacity="0"
     inkscape:pageshadow="2"
     inkscape:window-width="1920"
     inkscape:window-height="1017"
     id="namedview479"
     showgrid="false"
     inkscape:zoom="1.5535656"
     inkscape:cx="289.84387"
     inkscape:cy="53.297512"
     inkscape:window-x="-8"
     inkscape:window-y="-8"
     inkscape:window-maximized="1"
     inkscape:current-layer="svg477" />
  <clipPath
     id="9347">
    <rect
       x="0.255"
       y="0.255"
       width="465.99"
       height="769.29"
       id="rect2" />
  </clipPath>
  <path
     style="stroke:#000000;stroke-width:0.67999828;shape-rendering:auto"
     d="M 95.738572,142.28867 H 32.352077"
     id="line7"
     inkscape:connector-curvature="0" />
  <path
     style="fill:#000000;fill-rule:evenodd;stroke:#000000;stroke-width:0;stroke-linejoin:miter;stroke-miterlimit:5.89496231;shape-rendering:geometricPrecision"
     inkscape:connector-curvature="0"
     id="path9"
     stroke-miterlimit="5.89496254687632"
     d="m 100.35191,142.28868 -6.799986,-1.69333 c 1.439996,0.94667 1.439996,2.44 0,3.38666 z" />
  <g
     aria-label="3) MeOH"
     style="text-anchor:start;text-rendering:geometricPrecision"
     id="text16"
     transform="matrix(1.33333,0,0,1.33333,-77.647648,-47.724176)">
    <path
       d="m 83.453841,136.51773 0.69873,-0.0932 q 0.120337,0.59392 0.407593,0.85789 0.291138,0.26008 0.706494,0.26008 0.492993,0 0.830713,-0.3416 0.341601,-0.3416 0.341601,-0.84624 0,-0.48135 -0.314428,-0.7919 -0.314429,-0.31443 -0.799658,-0.31443 -0.197974,0 -0.492994,0.0776 l 0.07764,-0.61333 q 0.06987,0.008 0.112573,0.008 0.446411,0 0.80354,-0.23291 0.357129,-0.23291 0.357129,-0.71814 0,-0.3843 -0.260083,-0.63662 -0.260083,-0.25232 -0.671557,-0.25232 -0.407593,0 -0.679322,0.2562 -0.271728,0.25621 -0.349365,0.76861 l -0.69873,-0.12422 q 0.1281,-0.70261 0.582275,-1.08691 0.454175,-0.38819 1.129614,-0.38819 0.465821,0 0.857886,0.20186 0.392065,0.19797 0.597803,0.54345 0.209619,0.34549 0.209619,0.73367 0,0.36878 -0.197974,0.67156 -0.197973,0.30278 -0.586157,0.48135 0.504639,0.11645 0.784131,0.48523 0.279492,0.36489 0.279492,0.91611 0,0.74531 -0.543457,1.26548 -0.543457,0.51628 -1.37417,0.51628 -0.749194,0 -1.246069,-0.44641 -0.492993,-0.44641 -0.562866,-1.15679 z"
       style="font-size:7.94999981px;font-family:Arial;fill:#000000"
       id="path1909"
       inkscape:connector-curvature="0" />
    <path
       d="m 88.5274,139.69308 h -0.500757 q 1.160669,-1.86329 1.160669,-3.73045 0,-0.72978 -0.166919,-1.44792 -0.131982,-0.58228 -0.368774,-1.11797 -0.151392,-0.34937 -0.624976,-1.16455 H 88.5274 q 0.729785,0.97434 1.079151,1.95644 0.298901,0.84624 0.298901,1.77012 0,1.0481 -0.403711,2.02632 -0.399829,0.97822 -0.974341,1.70801 z"
       style="font-size:7.94999981px;font-family:Arial;fill:#000000"
       id="path1911"
       inkscape:connector-curvature="0" />
    <path
       d="m 92.995394,138.02 v -5.69077 h 1.133496 l 1.346997,4.02935 q 0.186328,0.56286 0.271728,0.84236 0.09705,-0.31055 0.302783,-0.91223 l 1.362525,-3.95948 h 1.013159 V 138.02 h -0.725903 v -4.76301 L 96.046517,138.02 h -0.679322 l -1.645898,-4.84453 V 138.02 Z"
       style="font-size:7.94999981px;font-family:Arial;fill:#56b4e8"
       id="path1913"
       inkscape:connector-curvature="0" />
    <path
       d="m 102.38167,136.69242 0.72202,0.0893 q -0.1708,0.63274 -0.63274,0.9821 -0.46193,0.34937 -1.18007,0.34937 -0.90447,0 -1.436283,-0.5551 -0.527929,-0.55899 -0.527929,-1.56438 0,-1.04034 0.535693,-1.61485 0.535689,-0.57451 1.389699,-0.57451 0.82683,0 1.35088,0.56287 0.52405,0.56286 0.52405,1.58379 0,0.0621 -0.004,0.18632 h -3.07441 q 0.0388,0.67933 0.3843,1.04034 0.34548,0.36101 0.86177,0.36101 0.3843,0 0.65603,-0.20186 0.27173,-0.20185 0.43088,-0.64438 z m -2.29416,-1.12962 h 2.30193 q -0.0466,-0.52016 -0.26397,-0.78025 -0.33384,-0.40371 -0.86565,-0.40371 -0.48135,0 -0.8113,0.32219 -0.32608,0.3222 -0.36101,0.86177 z"
       style="font-size:7.94999981px;font-family:Arial;fill:#56b4e8"
       id="path1915"
       inkscape:connector-curvature="0" />
    <path
       d="m 103.84512,135.24837 q 0,-1.41687 0.76084,-2.21652 0.76084,-0.80354 1.96421,-0.80354 0.78802,0 1.42076,0.37653 0.63273,0.37654 0.96269,1.05198 0.33384,0.67156 0.33384,1.52556 0,0.86565 -0.34937,1.54885 -0.34936,0.68321 -0.98986,1.03645 -0.64051,0.34937 -1.38194,0.34937 -0.80354,0 -1.43628,-0.38818 -0.63274,-0.38819 -0.95881,-1.05974 -0.32608,-0.67156 -0.32608,-1.42076 z m 0.77637,0.0117 q 0,1.02869 0.55122,1.62261 0.55511,0.59004 1.3897,0.59004 0.85012,0 1.39746,-0.59781 0.55122,-0.5978 0.55122,-1.69636 0,-0.69485 -0.23679,-1.21113 -0.23291,-0.52017 -0.68709,-0.80354 -0.45029,-0.28726 -1.01315,-0.28726 -0.79966,0 -1.37806,0.55122 -0.57451,0.54734 -0.57451,1.83223 z"
       style="font-size:7.94999981px;font-family:Arial;fill:#56b4e8"
       id="path1917"
       inkscape:connector-curvature="0" />
    <path
       d="m 110.27733,138.02 v -5.69077 h 0.75307 v 2.33687 h 2.95796 v -2.33687 h 0.75308 V 138.02 h -0.75308 v -2.68234 H 111.0304 V 138.02 Z"
       style="font-size:7.94999981px;font-family:Arial;fill:#56b4e8"
       id="path1919"
       inkscape:connector-curvature="0" />
  </g>
  <path
     style="fill:#000000;fill-rule:evenodd;stroke:#000000;stroke-width:0;stroke-linejoin:miter;shape-rendering:geometricPrecision"
     inkscape:connector-curvature="0"
     id="path20"
     d="m 151.24511,146.96867 v 0 l 0.33334,-0.2 0.34666,0.2 v 14.8933 l -0.34666,0.2 -0.33334,-0.2 z" />
  <path
     style="stroke:#000000;stroke-width:0.67999828;shape-rendering:auto"
     d="m 154.32511,148.35533 v 12.11996"
     id="line22"
     inkscape:connector-curvature="0" />
  <path
     style="fill:#000000;fill-rule:evenodd;stroke:#000000;stroke-width:0;stroke-linejoin:miter;shape-rendering:geometricPrecision"
     inkscape:connector-curvature="0"
     id="path25"
     d="m 151.57845,162.44863 v 0 -0.38666 l 0.34666,-0.2 12.8933,7.45331 v 0.38667 0.38666 z" />
  <path
     style="fill:#000000;fill-rule:evenodd;stroke:#000000;stroke-width:0;stroke-linejoin:miter;shape-rendering:geometricPrecision"
     inkscape:connector-curvature="0"
     id="path29"
     d="m 164.81841,170.08861 v 0 -0.38666 -0.38667 l 12.90664,-7.45331 0.33333,0.2 v 0.38666 z" />
  <path
     style="stroke:#000000;stroke-width:0.67999828;shape-rendering:auto"
     d="m 164.81843,166.52862 10.49329,-6.05333"
     id="line31"
     inkscape:connector-curvature="0" />
  <path
     style="fill:#000000;fill-rule:evenodd;stroke:#000000;stroke-width:0;stroke-linejoin:miter;shape-rendering:geometricPrecision"
     inkscape:connector-curvature="0"
     id="path35"
     d="m 178.40505,161.86197 v 0 l -0.34667,0.2 -0.33333,-0.2 v -14.8933 l 0.33333,-0.2 0.33333,-0.2 z" />
  <path
     style="fill:#000000;fill-rule:evenodd;stroke:#000000;stroke-width:0;stroke-linejoin:miter;shape-rendering:geometricPrecision"
     inkscape:connector-curvature="0"
     id="path39"
     d="m 178.39171,146.56867 v 0 l -0.33333,0.2 -0.33333,0.2 -12.90664,-7.45331 v -0.38667 -0.38667 z" />
  <path
     style="stroke:#000000;stroke-width:0.67999828;shape-rendering:auto"
     d="m 175.31172,148.35533 -10.49329,-6.05331"
     id="line41"
     inkscape:connector-curvature="0" />
  <path
     style="fill:#000000;fill-rule:evenodd;stroke:#000000;stroke-width:0;stroke-linejoin:miter;shape-rendering:geometricPrecision"
     inkscape:connector-curvature="0"
     id="path45"
     d="m 164.81841,138.74202 v 0 0.38667 0.38667 l -12.8933,7.45331 -0.34666,-0.2 v -0.38666 z" />
  <g
     aria-label="HN"
     style="text-anchor:end;text-rendering:geometricPrecision"
     id="text51"
     transform="matrix(1.33333,0,0,1.33333,-77.647648,-47.724176)">
    <path
       d="m 193.73638,143.25999 v -5.69077 h 0.75308 v 2.33687 h 2.95796 v -2.33687 h 0.75307 v 5.69077 h -0.75307 v -2.68234 h -2.95796 v 2.68234 z"
       style="font-size:7.94999981px;font-family:Arial;fill:#000000"
       id="path1925"
       inkscape:connector-curvature="0" />
    <path
       d="m 199.45045,143.25999 v -5.69077 h 0.77248 l 2.98901,4.468 v -4.468 h 0.72203 v 5.69077 h -0.77249 l -2.98901,-4.47187 v 4.47187 z"
       style="font-size:7.94999981px;font-family:Arial;fill:#000000"
       id="path1927"
       inkscape:connector-curvature="0" />
  </g>
  <path
     style="fill:#000000;fill-rule:evenodd;stroke:#000000;stroke-width:0;stroke-linejoin:miter;shape-rendering:geometricPrecision"
     inkscape:connector-curvature="0"
     id="path55"
     d="m 178.05838,162.44863 v 0 -0.38666 l 0.34667,-0.2 12.8933,7.45331 v 0.38667 0.38666 z" />
  <path
     style="fill:#000000;fill-rule:evenodd;stroke:#000000;stroke-width:0;stroke-linejoin:miter;shape-rendering:geometricPrecision"
     inkscape:connector-curvature="0"
     id="path59"
     d="m 191.29835,170.08861 v 0 -0.38666 -0.38667 l 12.91996,-7.45331 0.33334,0.2 0.33333,0.2 z" />
  <path
     style="fill:#000000;fill-rule:evenodd;stroke:#000000;stroke-width:0;stroke-linejoin:miter;shape-rendering:geometricPrecision"
     inkscape:connector-curvature="0"
     id="path63"
     d="m 204.55165,146.38201 v 0 0.38666 l -0.33334,0.2 -8.53331,-4.91999 0.17333,-0.29333 0.16,-0.29333 z" />
  <path
     style="fill:#cc78a6;fill-rule:evenodd;stroke:#cc78a6;stroke-width:0;stroke-linejoin:miter;shape-rendering:geometricPrecision"
     inkscape:connector-curvature="0"
     id="path67"
     d="m 191.64501,134.0087 v 0 h -0.34666 -0.33334 v -9.97331 l 0.33334,-0.19999 0.33333,-0.2 z" />
  <path
     style="fill:#cc78a6;fill-rule:evenodd;stroke:#cc78a6;stroke-width:0;stroke-linejoin:miter;shape-rendering:geometricPrecision"
     inkscape:connector-curvature="0"
     id="path71"
     d="m 191.63168,123.6354 v 0 l -0.33333,0.2 -0.33334,0.19999 -12.90663,-7.46664 v -0.38667 l 0.34667,-0.2 z" />
  <g
     aria-label="O"
     style="text-anchor:start;text-rendering:geometricPrecision"
     id="text77"
     transform="matrix(1.33333,0,0,1.33333,-77.647648,-47.724176)">
    <path
       d="m 208.9343,123.28837 q 0,-1.41687 0.76084,-2.21653 0.76084,-0.80354 1.96421,-0.80354 0.78802,0 1.42076,0.37654 0.63273,0.37653 0.96269,1.05197 0.33384,0.67156 0.33384,1.52557 0,0.86564 -0.34937,1.54885 -0.34936,0.6832 -0.98986,1.03645 -0.64051,0.34936 -1.38194,0.34936 -0.80354,0 -1.43628,-0.38818 -0.63274,-0.38818 -0.95881,-1.05974 -0.32608,-0.67156 -0.32608,-1.42075 z m 0.77637,0.0116 q 0,1.02869 0.55122,1.62261 0.55511,0.59004 1.3897,0.59004 0.85012,0 1.39746,-0.5978 0.55122,-0.59781 0.55122,-1.69637 0,-0.69484 -0.23679,-1.21113 -0.23291,-0.52017 -0.68709,-0.80354 -0.45029,-0.28725 -1.01315,-0.28725 -0.79966,0 -1.37806,0.55122 -0.57451,0.54733 -0.57451,1.83222 z"
       style="font-size:7.94999981px;font-family:Arial;fill:#cc78a6"
       id="path1930"
       inkscape:connector-curvature="0" />
  </g>
  <path
     style="stroke:#cc78a6;stroke-width:0.67999828;shape-rendering:auto"
     d="m 190.60501,122.64873 8.22665,-4.74665"
     id="line81"
     inkscape:connector-curvature="0" />
  <path
     style="fill:#cc78a6;fill-rule:evenodd;stroke:#cc78a6;stroke-width:0;stroke-linejoin:miter;shape-rendering:geometricPrecision"
     inkscape:connector-curvature="0"
     id="path83"
     d="m 191.64501,124.83539 v 0 0.78667 l 8.73331,-5.03999 -0.34666,-0.6 z" />
  <path
     style="fill:#cc78a6;fill-rule:evenodd;stroke:#cc78a6;stroke-width:0;stroke-linejoin:miter;shape-rendering:geometricPrecision"
     inkscape:connector-curvature="0"
     id="path85"
     d="m 189.92502,122.64873 v 0 l 0.67999,0.38667 8.39998,-4.83999 -0.34666,-0.6 z" />
  <path
     style="fill:#cc78a6;fill-rule:evenodd;stroke:#cc78a6;stroke-width:0;stroke-linejoin:miter;shape-rendering:geometricPrecision"
     inkscape:connector-curvature="0"
     id="path89"
     d="m 178.40505,115.98208 v 0 l -0.34667,0.2 -0.33333,-0.2 -0.0133,-15.09329 h 0.34667 0.34667 z" />
  <path
     style="fill:#cc78a6;fill-rule:evenodd;stroke:#cc78a6;stroke-width:0;stroke-linejoin:miter;shape-rendering:geometricPrecision"
     inkscape:connector-curvature="0"
     id="path93"
     d="m 177.72505,115.98208 v 0 l 0.33333,0.2 v 0.38667 l -13.06663,7.55998 -0.17334,-0.29333 -0.17333,-0.29334 z" />
  <path
     style="fill:#000000;fill-rule:evenodd;stroke:#000000;stroke-width:0;stroke-linejoin:miter;shape-rendering:geometricPrecision"
     inkscape:connector-curvature="0"
     id="path97"
     d="m 204.88498,162.26197 v 0 l -0.33333,-0.2 -0.33334,-0.2 v -14.8933 l 0.33334,-0.2 0.34666,0.2 z" />
  <g
     aria-label="OMe"
     style="text-anchor:start;text-rendering:geometricPrecision"
     id="text103"
     transform="matrix(1.33333,0,0,1.33333,-77.647648,-47.724176)">
    <path
       d="m 218.8643,140.48836 q 0,-1.41687 0.76084,-2.21652 0.76084,-0.80354 1.96421,-0.80354 0.78801,0 1.42075,0.37653 0.63274,0.37654 0.96269,1.05198 0.33384,0.67156 0.33384,1.52556 0,0.86565 -0.34936,1.54886 -0.34937,0.6832 -0.98987,1.03645 -0.6405,0.34936 -1.38194,0.34936 -0.80354,0 -1.43627,-0.38818 -0.63274,-0.38819 -0.95882,-1.05974 -0.32607,-0.67156 -0.32607,-1.42076 z m 0.77636,0.0117 q 0,1.02869 0.55123,1.62261 0.5551,0.59004 1.38969,0.59004 0.85012,0 1.39746,-0.59781 0.55122,-0.5978 0.55122,-1.69636 0,-0.69485 -0.23679,-1.21113 -0.23291,-0.52017 -0.68708,-0.80354 -0.4503,-0.28726 -1.01316,-0.28726 -0.79966,0 -1.37805,0.55122 -0.57452,0.54734 -0.57452,1.83223 z"
       style="font-size:7.94999981px;font-family:Arial;fill:#56b4e8"
       id="path1934"
       inkscape:connector-curvature="0" />
    <path
       d="m 225.24992,143.25999 v -5.69077 h 1.13349 l 1.347,4.02935 q 0.18633,0.56286 0.27173,0.84236 0.097,-0.31055 0.30278,-0.91223 l 1.36253,-3.95948 h 1.01316 v 5.69077 h -0.72591 v -4.76301 l -1.65366,4.76301 h -0.67932 l -1.6459,-4.84453 v 4.84453 z"
       style="font-size:7.94999981px;font-family:Arial;fill:#56b4e8"
       id="path1936"
       inkscape:connector-curvature="0" />
    <path
       d="m 234.6362,141.93241 0.72202,0.0893 q -0.1708,0.63274 -0.63274,0.9821 -0.46194,0.34937 -1.18008,0.34937 -0.90447,0 -1.43628,-0.5551 -0.52793,-0.55899 -0.52793,-1.56438 0,-1.04034 0.5357,-1.61485 0.53569,-0.57451 1.38969,-0.57451 0.82683,0 1.35088,0.56287 0.52405,0.56286 0.52405,1.58379 0,0.0621 -0.004,0.18632 h -3.07442 q 0.0388,0.67933 0.38431,1.04034 0.34548,0.36101 0.86176,0.36101 0.3843,0 0.65603,-0.20186 0.27173,-0.20185 0.43089,-0.64438 z m -2.29417,-1.12962 h 2.30193 q -0.0466,-0.52016 -0.26396,-0.78025 -0.33384,-0.40371 -0.86565,-0.40371 -0.48135,0 -0.81131,0.32219 -0.32607,0.3222 -0.36101,0.86177 z"
       style="font-size:7.94999981px;font-family:Arial;fill:#56b4e8"
       id="path1938"
       inkscape:connector-curvature="0" />
  </g>
  <g
     aria-label="MeO"
     style="text-anchor:end;text-rendering:geometricPrecision"
     id="text109"
     transform="matrix(1.33333,0,0,1.33333,-77.647648,-47.724176)">
    <path
       d="m 148.44468,143.25999 v -5.69077 h 1.1335 l 1.347,4.02935 q 0.18633,0.56286 0.27173,0.84236 0.097,-0.31055 0.30278,-0.91223 l 1.36252,-3.95948 h 1.01316 v 5.69077 h -0.7259 v -4.76301 l -1.65366,4.76301 h -0.67932 l -1.6459,-4.84453 v 4.84453 z"
       style="font-size:7.94999981px;font-family:Arial;fill:#000000"
       id="path1941"
       inkscape:connector-curvature="0" />
    <path
       d="m 157.83096,141.93241 0.72202,0.0893 q -0.1708,0.63274 -0.63273,0.9821 -0.46194,0.34937 -1.18008,0.34937 -0.90447,0 -1.43628,-0.5551 -0.52793,-0.55899 -0.52793,-1.56438 0,-1.04034 0.53569,-1.61485 0.5357,-0.57451 1.3897,-0.57451 0.82683,0 1.35088,0.56287 0.52405,0.56286 0.52405,1.58379 0,0.0621 -0.004,0.18632 h -3.07441 q 0.0388,0.67933 0.3843,1.04034 0.34549,0.36101 0.86177,0.36101 0.3843,0 0.65603,-0.20186 0.27173,-0.20185 0.43088,-0.64438 z m -2.29416,-1.12962 h 2.30193 q -0.0466,-0.52016 -0.26397,-0.78025 -0.33384,-0.40371 -0.86565,-0.40371 -0.48134,0 -0.8113,0.32219 -0.32608,0.3222 -0.36101,0.86177 z"
       style="font-size:7.94999981px;font-family:Arial;fill:#000000"
       id="path1943"
       inkscape:connector-curvature="0" />
    <path
       d="m 159.29442,140.48836 q 0,-1.41687 0.76084,-2.21652 0.76084,-0.80354 1.9642,-0.80354 0.78802,0 1.42076,0.37653 0.63274,0.37654 0.96269,1.05198 0.33384,0.67156 0.33384,1.52556 0,0.86565 -0.34937,1.54886 -0.34936,0.6832 -0.98986,1.03645 -0.64051,0.34936 -1.38194,0.34936 -0.80354,0 -1.43628,-0.38818 -0.63274,-0.38819 -0.95881,-1.05974 -0.32607,-0.67156 -0.32607,-1.42076 z m 0.77636,0.0117 q 0,1.02869 0.55122,1.62261 0.55511,0.59004 1.3897,0.59004 0.85012,0 1.39746,-0.59781 0.55122,-0.5978 0.55122,-1.69636 0,-0.69485 -0.23679,-1.21113 -0.23291,-0.52017 -0.68708,-0.80354 -0.4503,-0.28726 -1.01316,-0.28726 -0.79966,0 -1.37806,0.55122 -0.57451,0.54734 -0.57451,1.83223 z"
       style="font-size:7.94999981px;font-family:Arial;fill:#000000"
       id="path1945"
       inkscape:connector-curvature="0" />
  </g>
  <path
     style="fill:#000000;fill-rule:evenodd;stroke:#000000;stroke-width:0;stroke-linejoin:miter;shape-rendering:geometricPrecision"
     inkscape:connector-curvature="0"
     id="path113"
     d="m 151.57845,146.38201 v 0 0.38666 l -0.33334,0.2 -7.95998,-4.59999 0.17334,-0.29333 0.16,-0.29333 z" />
  <path
     style="fill:#000000;fill-rule:evenodd;stroke:#000000;stroke-width:0;stroke-linejoin:miter;shape-rendering:geometricPrecision"
     inkscape:connector-curvature="0"
     id="path117"
     d="m 151.24511,161.86197 v 0 l 0.33334,0.2 v 0.38666 l -8.22665,4.74666 -0.16,-0.29334 -0.17333,-0.29333 z" />
  <g
     aria-label="MeO"
     style="text-anchor:end;text-rendering:geometricPrecision"
     id="text123"
     transform="matrix(1.33333,0,0,1.33333,-77.647648,-47.724176)">
    <path
       d="m 148.44468,166.2 v -5.69077 h 1.1335 l 1.347,4.02934 q 0.18633,0.56287 0.27173,0.84236 0.097,-0.31055 0.30278,-0.91223 l 1.36252,-3.95947 h 1.01316 V 166.2 h -0.7259 v -4.76302 L 151.49581,166.2 h -0.67932 l -1.6459,-4.84453 V 166.2 Z"
       style="font-size:7.94999981px;font-family:Arial;fill:#000000"
       id="path1948"
       inkscape:connector-curvature="0" />
    <path
       d="m 157.83096,164.87241 0.72202,0.0893 q -0.1708,0.63274 -0.63273,0.98211 -0.46194,0.34936 -1.18008,0.34936 -0.90447,0 -1.43628,-0.5551 -0.52793,-0.55899 -0.52793,-1.56438 0,-1.04033 0.53569,-1.61485 0.5357,-0.57451 1.3897,-0.57451 0.82683,0 1.35088,0.56287 0.52405,0.56287 0.52405,1.58379 0,0.0621 -0.004,0.18633 h -3.07441 q 0.0388,0.67932 0.3843,1.04033 0.34549,0.36101 0.86177,0.36101 0.3843,0 0.65603,-0.20186 0.27173,-0.20185 0.43088,-0.64438 z m -2.29416,-1.12962 h 2.30193 q -0.0466,-0.52016 -0.26397,-0.78024 -0.33384,-0.40372 -0.86565,-0.40372 -0.48134,0 -0.8113,0.3222 -0.32608,0.32219 -0.36101,0.86176 z"
       style="font-size:7.94999981px;font-family:Arial;fill:#000000"
       id="path1950"
       inkscape:connector-curvature="0" />
    <path
       d="m 159.29442,163.42837 q 0,-1.41687 0.76084,-2.21653 0.76084,-0.80354 1.9642,-0.80354 0.78802,0 1.42076,0.37654 0.63274,0.37653 0.96269,1.05197 0.33384,0.67156 0.33384,1.52556 0,0.86565 -0.34937,1.54886 -0.34936,0.6832 -0.98986,1.03645 -0.64051,0.34936 -1.38194,0.34936 -0.80354,0 -1.43628,-0.38818 -0.63274,-0.38818 -0.95881,-1.05974 -0.32607,-0.67156 -0.32607,-1.42075 z m 0.77636,0.0116 q 0,1.02869 0.55122,1.62261 0.55511,0.59004 1.3897,0.59004 0.85012,0 1.39746,-0.5978 0.55122,-0.59781 0.55122,-1.69637 0,-0.69485 -0.23679,-1.21113 -0.23291,-0.52017 -0.68708,-0.80354 -0.4503,-0.28726 -1.01316,-0.28726 -0.79966,0 -1.37806,0.55123 -0.57451,0.54733 -0.57451,1.83222 z"
       style="font-size:7.94999981px;font-family:Arial;fill:#000000"
       id="path1952"
       inkscape:connector-curvature="0" />
  </g>
  <path
     style="fill:#56b4e8;fill-rule:evenodd;stroke:#56b4e8;stroke-width:0;stroke-linejoin:miter;shape-rendering:geometricPrecision"
     inkscape:connector-curvature="0"
     id="path127"
     d="m 204.89831,146.96867 v 0 l -0.34666,-0.2 v -0.38666 l 8.26664,-4.77333 0.16,0.29334 0.17333,0.29333 z" />
  <path
     style="fill:#000000;fill-rule:evenodd;stroke:#000000;stroke-width:0;stroke-linejoin:miter;shape-rendering:geometricPrecision"
     inkscape:connector-curvature="0"
     id="path131"
     d="m 345.55129,143.58201 v 0 l 0.33334,-0.2 0.34666,0.2 v 14.8933 l -0.34666,0.2 -0.33334,-0.2 z" />
  <path
     style="stroke:#000000;stroke-width:0.67999828;shape-rendering:auto"
     d="m 348.63127,144.96868 v 12.11997"
     id="line133"
     inkscape:connector-curvature="0" />
  <path
     style="fill:#000000;fill-rule:evenodd;stroke:#000000;stroke-width:0;stroke-linejoin:miter;shape-rendering:geometricPrecision"
     inkscape:connector-curvature="0"
     id="path137"
     d="m 345.88463,159.06197 v 0 -0.38666 l 0.34666,-0.2 12.8933,7.45331 v 0.38667 0.38666 z" />
  <path
     style="fill:#000000;fill-rule:evenodd;stroke:#000000;stroke-width:0;stroke-linejoin:miter;shape-rendering:geometricPrecision"
     inkscape:connector-curvature="0"
     id="path141"
     d="m 359.12459,166.70195 v 0 -0.38666 -0.38667 l 12.90664,-7.45331 0.33333,0.2 v 0.38666 z" />
  <path
     style="stroke:#000000;stroke-width:0.67999828;shape-rendering:auto"
     d="m 359.12458,163.14195 10.49333,-6.0533"
     id="line143"
     inkscape:connector-curvature="0" />
  <path
     style="fill:#000000;fill-rule:evenodd;stroke:#000000;stroke-width:0;stroke-linejoin:miter;shape-rendering:geometricPrecision"
     inkscape:connector-curvature="0"
     id="path147"
     d="m 372.71123,158.47531 v 0 l -0.34667,0.2 -0.33333,-0.2 v -14.8933 l 0.33333,-0.2 0.33333,-0.2 z" />
  <path
     style="fill:#000000;fill-rule:evenodd;stroke:#000000;stroke-width:0;stroke-linejoin:miter;shape-rendering:geometricPrecision"
     inkscape:connector-curvature="0"
     id="path151"
     d="m 372.69789,143.18201 v 0 l -0.33333,0.2 -0.33333,0.2 -12.90664,-7.46665 v -0.38666 -0.38667 z" />
  <path
     style="stroke:#000000;stroke-width:0.67999828;shape-rendering:auto"
     d="m 369.61791,144.96868 -10.49333,-6.06666"
     id="line153"
     inkscape:connector-curvature="0" />
  <path
     style="fill:#000000;fill-rule:evenodd;stroke:#000000;stroke-width:0;stroke-linejoin:miter;shape-rendering:geometricPrecision"
     inkscape:connector-curvature="0"
     id="path157"
     d="m 359.12459,135.34203 v 0 0.38667 0.38666 l -12.8933,7.46665 -0.34666,-0.2 v -0.38666 z" />
  <g
     aria-label="HN"
     style="text-anchor:end;text-rendering:geometricPrecision"
     id="text163"
     transform="matrix(1.33333,0,0,1.33333,-77.647648,-47.724176)">
    <path
       d="m 339.46639,140.72 v -5.69077 h 0.75308 v 2.33687 h 2.95796 v -2.33687 h 0.75308 V 140.72 h -0.75308 v -2.68235 h -2.95796 V 140.72 Z"
       style="font-size:7.94999981px;font-family:Arial;fill:#000000"
       id="path1958"
       inkscape:connector-curvature="0" />
    <path
       d="m 345.18046,140.72 v -5.69077 h 0.77248 l 2.98902,4.46799 v -4.46799 h 0.72202 V 140.72 h -0.77249 l -2.98901,-4.47187 V 140.72 Z"
       style="font-size:7.94999981px;font-family:Arial;fill:#000000"
       id="path1960"
       inkscape:connector-curvature="0" />
  </g>
  <path
     style="fill:#000000;fill-rule:evenodd;stroke:#000000;stroke-width:0;stroke-linejoin:miter;shape-rendering:geometricPrecision"
     inkscape:connector-curvature="0"
     id="path167"
     d="m 372.36456,159.06197 v 0 -0.38666 l 0.34667,-0.2 12.8933,7.45331 v 0.38667 0.38666 z" />
  <path
     style="fill:#000000;fill-rule:evenodd;stroke:#000000;stroke-width:0;stroke-linejoin:miter;shape-rendering:geometricPrecision"
     inkscape:connector-curvature="0"
     id="path171"
     d="m 385.60453,166.70195 v 0 -0.38666 -0.38667 l 12.91996,-7.45331 0.33334,0.2 0.33333,0.2 z" />
  <path
     style="fill:#000000;fill-rule:evenodd;stroke:#000000;stroke-width:0;stroke-linejoin:miter;shape-rendering:geometricPrecision"
     inkscape:connector-curvature="0"
     id="path175"
     d="m 399.19116,143.18201 v 0 l -0.33333,0.2 -0.33334,0.2 -8.57331,-4.94665 0.17334,-0.29333 0.16,-0.30667 z" />
  <path
     style="stroke:#000000;stroke-width:0.67999828;shape-rendering:auto"
     d="m 396.09783,144.96868 -7.35996,-4.25333"
     id="line177"
     inkscape:connector-curvature="0" />
  <path
     style="fill:#cc78a6;fill-rule:evenodd;stroke:#cc78a6;stroke-width:0;stroke-linejoin:miter;shape-rendering:geometricPrecision"
     inkscape:connector-curvature="0"
     id="path181"
     d="m 385.95119,130.67538 v 0 h -0.34666 -0.33334 v -10.02664 l 0.33334,-0.2 0.33333,-0.2 z" />
  <path
     style="fill:#cc78a6;fill-rule:evenodd;stroke:#cc78a6;stroke-width:0;stroke-linejoin:miter;shape-rendering:geometricPrecision"
     inkscape:connector-curvature="0"
     id="path185"
     d="m 385.93786,120.24874 v 0 l -0.33333,0.2 -0.33334,0.2 -12.90663,-7.46665 v -0.38667 l 0.34667,-0.2 z" />
  <g
     aria-label="O"
     style="text-anchor:start;text-rendering:geometricPrecision"
     id="text191"
     transform="matrix(1.33333,0,0,1.33333,-77.647648,-47.724176)">
    <path
       d="m 354.6643,120.74837 q 0,-1.41687 0.76084,-2.21653 0.76084,-0.80354 1.96421,-0.80354 0.78801,0 1.42075,0.37654 0.63274,0.37653 0.9627,1.05197 0.33383,0.67156 0.33383,1.52556 0,0.86565 -0.34936,1.54886 -0.34937,0.6832 -0.98987,1.03645 -0.6405,0.34936 -1.38193,0.34936 -0.80354,0 -1.43628,-0.38818 -0.63274,-0.38818 -0.95882,-1.05974 -0.32607,-0.67156 -0.32607,-1.42075 z m 0.77637,0.0116 q 0,1.02869 0.55122,1.62261 0.5551,0.59004 1.3897,0.59004 0.85012,0 1.39746,-0.5978 0.55122,-0.59781 0.55122,-1.69637 0,-0.69485 -0.23679,-1.21113 -0.23291,-0.52017 -0.68709,-0.80354 -0.45029,-0.28726 -1.01316,-0.28726 -0.79966,0 -1.37805,0.55122 -0.57451,0.54734 -0.57451,1.83223 z"
       style="font-size:7.94999981px;font-family:Arial;fill:#cc78a6"
       id="path1964"
       inkscape:connector-curvature="0" />
  </g>
  <path
     style="stroke:#cc78a6;stroke-width:0.67999828;shape-rendering:auto"
     d="m 384.91121,119.26207 8.18663,-4.73332"
     id="line195"
     inkscape:connector-curvature="0" />
  <path
     style="fill:#cc78a6;fill-rule:evenodd;stroke:#cc78a6;stroke-width:0;stroke-linejoin:miter;shape-rendering:geometricPrecision"
     inkscape:connector-curvature="0"
     id="path197"
     d="m 385.95119,121.44873 v 0 0.78667 l 8.69331,-5.02666 -0.34666,-0.58666 z" />
  <path
     style="fill:#cc78a6;fill-rule:evenodd;stroke:#cc78a6;stroke-width:0;stroke-linejoin:miter;shape-rendering:geometricPrecision"
     inkscape:connector-curvature="0"
     id="path199"
     d="m 384.2312,119.26207 v 0 l 0.68,0.38667 8.35997,-4.82666 -0.34666,-0.58666 z" />
  <path
     style="fill:#cc78a6;fill-rule:evenodd;stroke:#cc78a6;stroke-width:0;stroke-linejoin:miter;shape-rendering:geometricPrecision"
     inkscape:connector-curvature="0"
     id="path203"
     d="m 372.71123,112.59542 v 0 l -0.34667,0.2 -0.33333,-0.2 V 97.502128 h 0.33333 0.33333 z" />
  <path
     style="fill:#cc78a6;fill-rule:evenodd;stroke:#cc78a6;stroke-width:0;stroke-linejoin:miter;shape-rendering:geometricPrecision"
     inkscape:connector-curvature="0"
     id="path207"
     d="m 372.03123,112.59542 v 0 l 0.33333,0.2 v 0.38667 l -13.06663,7.55998 -0.17334,-0.29333 -0.17333,-0.29334 z" />
  <g
     aria-label="MeO"
     style="text-anchor:end;text-rendering:geometricPrecision"
     id="text213"
     transform="matrix(1.33333,0,0,1.33333,-77.647648,-47.724176)">
    <path
       d="m 294.1747,140.72 v -5.69077 h 1.13349 l 1.347,4.02935 q 0.18633,0.56286 0.27173,0.84235 0.097,-0.31054 0.30278,-0.91223 l 1.36252,-3.95947 h 1.01316 V 140.72 h -0.7259 v -4.76301 l -1.65366,4.76301 h -0.67932 l -1.6459,-4.84453 V 140.72 Z"
       style="font-size:7.94999981px;font-family:Arial;fill:#000000"
       id="path1968"
       inkscape:connector-curvature="0" />
    <path
       d="m 303.56097,139.39241 0.72203,0.0893 q -0.17081,0.63273 -0.63274,0.9821 -0.46194,0.34937 -1.18008,0.34937 -0.90447,0 -1.43628,-0.55511 -0.52793,-0.55898 -0.52793,-1.56438 0,-1.04033 0.53569,-1.61484 0.5357,-0.57451 1.3897,-0.57451 0.82683,0 1.35088,0.56286 0.52405,0.56287 0.52405,1.58379 0,0.0621 -0.004,0.18633 h -3.07441 q 0.0388,0.67932 0.3843,1.04033 0.34549,0.36101 0.86177,0.36101 0.3843,0 0.65603,-0.20185 0.27173,-0.20186 0.43088,-0.64439 z m -2.29416,-1.12961 h 2.30193 q -0.0466,-0.52017 -0.26397,-0.78025 -0.33383,-0.40371 -0.86565,-0.40371 -0.48134,0 -0.8113,0.32219 -0.32607,0.32219 -0.36101,0.86177 z"
       style="font-size:7.94999981px;font-family:Arial;fill:#000000"
       id="path1970"
       inkscape:connector-curvature="0" />
    <path
       d="m 305.02443,137.94837 q 0,-1.41687 0.76084,-2.21653 0.76084,-0.80354 1.96421,-0.80354 0.78801,0 1.42075,0.37654 0.63274,0.37654 0.96269,1.05198 0.33384,0.67156 0.33384,1.52556 0,0.86565 -0.34936,1.54885 -0.34937,0.6832 -0.98987,1.03645 -0.64051,0.34937 -1.38194,0.34937 -0.80354,0 -1.43628,-0.38819 -0.63274,-0.38818 -0.95881,-1.05974 -0.32607,-0.67156 -0.32607,-1.42075 z m 0.77636,0.0116 q 0,1.02868 0.55122,1.6226 0.55511,0.59004 1.3897,0.59004 0.85012,0 1.39746,-0.5978 0.55122,-0.5978 0.55122,-1.69636 0,-0.69485 -0.23679,-1.21114 -0.23291,-0.52016 -0.68708,-0.80354 -0.4503,-0.28725 -1.01316,-0.28725 -0.79966,0 -1.37805,0.55122 -0.57452,0.54734 -0.57452,1.83223 z"
       style="font-size:7.94999981px;font-family:Arial;fill:#000000"
       id="path1972"
       inkscape:connector-curvature="0" />
  </g>
  <path
     style="fill:#000000;fill-rule:evenodd;stroke:#000000;stroke-width:0;stroke-linejoin:miter;shape-rendering:geometricPrecision"
     inkscape:connector-curvature="0"
     id="path217"
     d="m 345.88463,142.99535 v 0 0.38666 l -0.33334,0.2 -7.99998,-4.62665 0.17334,-0.29334 0.16,-0.29333 z" />
  <g
     aria-label="MeO"
     style="text-anchor:end;text-rendering:geometricPrecision"
     id="text223"
     transform="matrix(1.33333,0,0,1.33333,-77.647648,-47.724176)">
    <path
       d="m 294.1747,163.66 v -5.69077 h 1.13349 l 1.347,4.02935 q 0.18633,0.56286 0.27173,0.84236 0.097,-0.31055 0.30278,-0.91224 l 1.36252,-3.95947 h 1.01316 V 163.66 h -0.7259 v -4.76301 l -1.65366,4.76301 h -0.67932 l -1.6459,-4.84453 V 163.66 Z"
       style="font-size:7.94999981px;font-family:Arial;fill:#000000"
       id="path1975"
       inkscape:connector-curvature="0" />
    <path
       d="m 303.56097,162.33242 0.72203,0.0893 q -0.17081,0.63274 -0.63274,0.9821 -0.46194,0.34937 -1.18008,0.34937 -0.90447,0 -1.43628,-0.5551 -0.52793,-0.55899 -0.52793,-1.56438 0,-1.04034 0.53569,-1.61485 0.5357,-0.57451 1.3897,-0.57451 0.82683,0 1.35088,0.56287 0.52405,0.56286 0.52405,1.58379 0,0.0621 -0.004,0.18632 h -3.07441 q 0.0388,0.67932 0.3843,1.04034 0.34549,0.36101 0.86177,0.36101 0.3843,0 0.65603,-0.20186 0.27173,-0.20185 0.43088,-0.64438 z m -2.29416,-1.12962 h 2.30193 q -0.0466,-0.52016 -0.26397,-0.78025 -0.33383,-0.40371 -0.86565,-0.40371 -0.48134,0 -0.8113,0.32219 -0.32607,0.3222 -0.36101,0.86177 z"
       style="font-size:7.94999981px;font-family:Arial;fill:#000000"
       id="path1977"
       inkscape:connector-curvature="0" />
    <path
       d="m 305.02443,160.88837 q 0,-1.41687 0.76084,-2.21653 0.76084,-0.80354 1.96421,-0.80354 0.78801,0 1.42075,0.37654 0.63274,0.37654 0.96269,1.05198 0.33384,0.67156 0.33384,1.52556 0,0.86565 -0.34936,1.54885 -0.34937,0.68321 -0.98987,1.03645 -0.64051,0.34937 -1.38194,0.34937 -0.80354,0 -1.43628,-0.38818 -0.63274,-0.38819 -0.95881,-1.05975 -0.32607,-0.67155 -0.32607,-1.42075 z m 0.77636,0.0117 q 0,1.02868 0.55122,1.62261 0.55511,0.59003 1.3897,0.59003 0.85012,0 1.39746,-0.5978 0.55122,-0.5978 0.55122,-1.69636 0,-0.69485 -0.23679,-1.21113 -0.23291,-0.52017 -0.68708,-0.80354 -0.4503,-0.28726 -1.01316,-0.28726 -0.79966,0 -1.37805,0.55122 -0.57452,0.54734 -0.57452,1.83223 z"
       style="font-size:7.94999981px;font-family:Arial;fill:#000000"
       id="path1979"
       inkscape:connector-curvature="0" />
  </g>
  <path
     style="fill:#000000;fill-rule:evenodd;stroke:#000000;stroke-width:0;stroke-linejoin:miter;shape-rendering:geometricPrecision"
     inkscape:connector-curvature="0"
     id="path227"
     d="m 345.55129,158.47531 v 0 l 0.33334,0.2 v 0.38666 l -8.26665,4.77333 -0.16,-0.29334 -0.17333,-0.29333 z" />
  <path
     style="fill:#000000;fill-rule:evenodd;stroke:#000000;stroke-width:0;stroke-linejoin:miter;shape-rendering:geometricPrecision"
     inkscape:connector-curvature="0"
     id="path231"
     d="m 399.19116,158.87531 v 0 l -0.33333,-0.2 -0.33334,-0.2 v -14.8933 l 0.33334,-0.2 0.33333,-0.2 z" />
  <path
     style="fill:none;stroke:#000000;stroke-width:0.54399866"
     d="m 398.52201,131.20871 a 3.5575215,3.5575215 0 0 1 -3.55752,3.55751 3.5575215,3.5575215 0 0 1 -3.55752,-3.55751 3.5575215,3.5575215 0 0 1 3.55752,-3.55752 3.5575215,3.5575215 0 0 1 3.55752,3.55752 z"
     id="circle235"
     inkscape:connector-curvature="0" />
  <path
     style="stroke:#000000;stroke-width:0.54399866;shape-rendering:auto"
     d="m 392.84451,131.20871 h 4.23998"
     id="line237"
     inkscape:connector-curvature="0" />
  <path
     style="stroke:#000000;stroke-width:0.54399866;shape-rendering:auto"
     d="m 394.96449,129.08872 v 4.23997"
     id="line239"
     inkscape:connector-curvature="0" />
  <path
     style="fill:none;fill-rule:evenodd;stroke:#000000;stroke-width:0.67999828;stroke-linejoin:miter;shape-rendering:geometricPrecision"
     inkscape:connector-curvature="0"
     id="path242"
     d="m 403.24448,96.928796 h 6.55999 v 88.799774 h -6.55999" />
  <path
     style="fill:none;fill-rule:evenodd;stroke:#000000;stroke-width:0.67999828;stroke-linejoin:miter;shape-rendering:geometricPrecision"
     inkscape:connector-curvature="0"
     id="path245"
     d="m 314.13804,185.72857 h -6.55998 V 96.928796 h 6.55998" />
  <path
     style="stroke:#000000;stroke-width:0.67999828;shape-rendering:auto"
     d="M 291.73811,142.28867 H 246.52487"
     id="line249"
     inkscape:connector-curvature="0" />
  <path
     style="fill:#000000;fill-rule:evenodd;stroke:#000000;stroke-width:0;stroke-linejoin:miter;stroke-miterlimit:5.89496231;shape-rendering:geometricPrecision"
     inkscape:connector-curvature="0"
     id="path251"
     stroke-miterlimit="5.89496254687654"
     d="m 296.35142,142.28868 -6.79999,-1.69333 c 1.44,0.94667 1.44,2.44 0,3.38666 z" />
  <g
     aria-label="TMSOTf"
     style="text-anchor:start;text-rendering:geometricPrecision"
     id="text257"
     transform="matrix(1.33333,0,0,1.33333,-77.647648,-47.724176)">
    <path
       d="m 245.66126,138.69 v -5.01921 h -1.87493 v -0.67156 h 4.5107 v 0.67156 h -1.88269 V 138.69 Z"
       style="font-size:7.94999981px;font-family:Arial;fill:#000000"
       id="path1986"
       inkscape:connector-curvature="0" />
    <path
       d="m 249.0501,138.69 v -5.69077 h 1.1335 l 1.347,4.02935 q 0.18632,0.56286 0.27173,0.84236 0.097,-0.31055 0.30278,-0.91224 l 1.36252,-3.95947 h 1.01316 V 138.69 h -0.7259 v -4.76301 l -1.65366,4.76301 h -0.67932 l -1.6459,-4.84453 V 138.69 Z"
       style="font-size:7.94999981px;font-family:Arial;fill:#000000"
       id="path1988"
       inkscape:connector-curvature="0" />
    <path
       d="m 255.44737,136.86166 0.71038,-0.0621 q 0.0505,0.427 0.23291,0.70261 0.18632,0.27173 0.57451,0.44253 0.38818,0.16692 0.87341,0.16692 0.43088,0 0.76084,-0.1281 0.32996,-0.1281 0.48911,-0.34937 0.16304,-0.22514 0.16304,-0.48911 0,-0.26784 -0.15527,-0.46582 -0.15528,-0.20185 -0.51241,-0.33772 -0.22903,-0.0893 -1.01316,-0.27561 -0.78413,-0.19021 -1.09856,-0.35713 -0.40759,-0.2135 -0.60944,-0.52793 -0.19798,-0.31831 -0.19798,-0.71037 0,-0.43089 0.24456,-0.80354 0.24455,-0.37654 0.71426,-0.57063 0.4697,-0.19409 1.04421,-0.19409 0.63274,0 1.11409,0.20573 0.48523,0.20186 0.74531,0.59781 0.26008,0.39594 0.27949,0.8967 l -0.72202,0.0543 q -0.0582,-0.53957 -0.39595,-0.81518 -0.33384,-0.27561 -0.98987,-0.27561 -0.6832,0 -0.99763,0.25232 -0.31054,0.24844 -0.31054,0.60168 0,0.30667 0.22126,0.50464 0.21738,0.19798 1.1335,0.40759 0.91999,0.20574 1.26159,0.36102 0.49688,0.22902 0.73367,0.58227 0.23679,0.34937 0.23679,0.80742 0,0.45418 -0.26008,0.85789 -0.26008,0.39983 -0.7492,0.62497 -0.48522,0.22127 -1.09467,0.22127 -0.77249,0 -1.29654,-0.22515 -0.52016,-0.22514 -0.81906,-0.67544 -0.29502,-0.45417 -0.31055,-1.0248 z"
       style="font-size:7.94999981px;font-family:Arial;fill:#000000"
       id="path1990"
       inkscape:connector-curvature="0" />
    <path
       d="m 260.78489,135.91837 q 0,-1.41687 0.76084,-2.21653 0.76084,-0.80354 1.96421,-0.80354 0.78801,0 1.42075,0.37654 0.63274,0.37654 0.9627,1.05198 0.33384,0.67156 0.33384,1.52556 0,0.86565 -0.34937,1.54885 -0.34936,0.68321 -0.98987,1.03645 -0.6405,0.34937 -1.38193,0.34937 -0.80354,0 -1.43628,-0.38819 -0.63274,-0.38818 -0.95881,-1.05974 -0.32608,-0.67155 -0.32608,-1.42075 z m 0.77637,0.0117 q 0,1.02868 0.55122,1.6226 0.5551,0.59004 1.3897,0.59004 0.85012,0 1.39746,-0.5978 0.55122,-0.5978 0.55122,-1.69636 0,-0.69485 -0.23679,-1.21113 -0.23291,-0.52017 -0.68709,-0.80354 -0.45029,-0.28726 -1.01316,-0.28726 -0.79965,0 -1.37805,0.55122 -0.57451,0.54734 -0.57451,1.83223 z"
       style="font-size:7.94999981px;font-family:Arial;fill:#000000"
       id="path1992"
       inkscape:connector-curvature="0" />
    <path
       d="m 268.64173,138.69 v -5.01921 h -1.87493 v -0.67156 h 4.5107 v 0.67156 h -1.88269 V 138.69 Z"
       style="font-size:7.94999981px;font-family:Arial;fill:#000000"
       id="path1994"
       inkscape:connector-curvature="0" />
    <path
       d="m 272.1315,138.69 v -3.57905 h -0.61721 v -0.54346 h 0.61721 v -0.43864 q 0,-0.41536 0.0737,-0.61722 0.10093,-0.27173 0.35325,-0.43864 0.2562,-0.1708 0.71426,-0.1708 0.29502,0 0.65215,0.0699 l -0.10481,0.60945 q -0.21738,-0.0388 -0.41148,-0.0388 -0.31831,0 -0.45029,0.13586 -0.13198,0.13587 -0.13198,0.50852 v 0.38042 h 0.80354 v 0.54346 h -0.80354 v 3.579 z"
       style="font-size:7.94999981px;font-family:Arial;fill:#000000"
       id="path1996"
       inkscape:connector-curvature="0" />
  </g>
  <path
     style="fill:#000000;fill-rule:evenodd;stroke:#000000;stroke-width:0;stroke-linejoin:miter;shape-rendering:geometricPrecision"
     inkscape:connector-curvature="0"
     id="path273"
     d="m -44.167732,144.87534 v 0 l 0.333333,-0.2 0.346665,0.2 v 14.94663 l -0.346665,0.2 -0.333333,-0.2 z" />
  <path
     style="stroke:#000000;stroke-width:0.67999828;shape-rendering:auto"
     d="m -41.074406,146.27534 v 12.14664"
     id="line275"
     inkscape:connector-curvature="0" />
  <path
     style="fill:#000000;fill-rule:evenodd;stroke:#000000;stroke-width:0;stroke-linejoin:miter;shape-rendering:geometricPrecision"
     inkscape:connector-curvature="0"
     id="path279"
     d="m -43.834399,160.40864 v 0 -0.38667 l 0.346665,-0.2 12.946635,7.49332 v 0.38666 0.38667 z" />
  <path
     style="fill:#000000;fill-rule:evenodd;stroke:#000000;stroke-width:0;stroke-linejoin:miter;shape-rendering:geometricPrecision"
     inkscape:connector-curvature="0"
     id="path283"
     d="m -30.541099,168.08862 v 0 -0.38667 -0.38666 l 12.946634,-7.49332 0.333333,0.2 v 0.38667 z" />
  <path
     style="stroke:#000000;stroke-width:0.67999828;shape-rendering:auto"
     d="m -30.541097,164.51528 10.519973,-6.07997"
     id="line285"
     inkscape:connector-curvature="0" />
  <path
     style="fill:#000000;fill-rule:evenodd;stroke:#000000;stroke-width:0;stroke-linejoin:miter;shape-rendering:geometricPrecision"
     inkscape:connector-curvature="0"
     id="path289"
     d="m -16.914467,159.82197 v 0 l -0.346665,0.2 -0.333333,-0.2 v -14.94663 l 0.333333,-0.2 0.333332,-0.2 z" />
  <path
     style="fill:#000000;fill-rule:evenodd;stroke:#000000;stroke-width:0;stroke-linejoin:miter;shape-rendering:geometricPrecision"
     inkscape:connector-curvature="0"
     id="path293"
     d="m -16.9278,144.47534 v 0 l -0.333332,0.2 -0.333333,0.2 -12.946634,-7.47998 v -0.38666 -0.38667 z" />
  <path
     style="stroke:#000000;stroke-width:0.67999828;shape-rendering:auto"
     d="m -20.021124,146.27534 -10.519973,-6.07999"
     id="line295"
     inkscape:connector-curvature="0" />
  <path
     style="fill:#000000;fill-rule:evenodd;stroke:#000000;stroke-width:0;stroke-linejoin:miter;shape-rendering:geometricPrecision"
     inkscape:connector-curvature="0"
     id="path299"
     d="m -30.541099,136.62203 v 0 0.38667 0.38666 l -12.946635,7.47998 -0.346665,-0.2 v -0.38666 z" />
  <path
     style="fill:#000000;fill-rule:evenodd;stroke:#000000;stroke-width:0;stroke-linejoin:miter;shape-rendering:geometricPrecision"
     inkscape:connector-curvature="0"
     id="path303"
     d="m -17.261132,160.40864 v 0 -0.38667 l 0.346665,-0.2 12.9466347,7.49332 v 0.38666 0.38667 z" />
  <path
     style="fill:#000000;fill-rule:evenodd;stroke:#000000;stroke-width:0;stroke-linejoin:miter;shape-rendering:geometricPrecision"
     inkscape:connector-curvature="0"
     id="path307"
     d="m -3.9678323,168.08862 v 0 -0.38667 -0.38666 l 12.9599676,-7.49332 0.3333325,0.2 0.3333325,0.2 z" />
  <path
     style="fill:#000000;fill-rule:evenodd;stroke:#000000;stroke-width:0;stroke-linejoin:miter;shape-rendering:geometricPrecision"
     inkscape:connector-curvature="0"
     id="path311"
     d="m 9.6588003,160.22197 v 0 l -0.3333325,-0.2 -0.3333325,-0.2 v -9.01331 h 0.3333325 0.3466658 z" />
  <g
     aria-label="CN"
     style="text-anchor:start;text-rendering:geometricPrecision"
     id="text317"
     transform="matrix(1.33333,0,0,1.33333,-77.647648,-47.724176)">
    <path
       d="m 67.023729,145.43473 0.753076,0.19021 q -0.236792,0.92776 -0.854004,1.41687 -0.61333,0.48523 -1.50227,0.48523 -0.919995,0 -1.498389,-0.37266 -0.574512,-0.37654 -0.877295,-1.08691 -0.298901,-0.71038 -0.298901,-1.52556 0,-0.88894 0.337719,-1.54886 0.341602,-0.66379 0.966578,-1.00539 0.628857,-0.34548 1.381933,-0.34548 0.854004,0 1.436279,0.43476 0.582276,0.43477 0.811304,1.22278 l -0.741431,0.17468 q -0.197973,-0.62109 -0.574511,-0.90447 -0.376538,-0.28337 -0.947168,-0.28337 -0.65603,0 -1.09856,0.31443 -0.438647,0.31443 -0.617212,0.84624 -0.178564,0.52793 -0.178564,1.09079 0,0.72591 0.209619,1.26937 0.213501,0.53957 0.659912,0.80742 0.446411,0.26784 0.966577,0.26784 0.632739,0 1.071387,-0.36489 0.438647,-0.36489 0.593921,-1.08303 z"
       style="font-size:7.94999981px;font-family:Arial;fill:#000000"
       id="path2016"
       inkscape:connector-curvature="0" />
    <path
       d="m 68.700682,147.42999 v -5.69077 h 0.772485 l 2.989014,4.46799 v -4.46799 h 0.722021 v 5.69077 h -0.772485 l -2.989013,-4.47187 v 4.47187 z"
       style="font-size:7.94999981px;font-family:Arial;fill:#000000"
       id="path2018"
       inkscape:connector-curvature="0" />
  </g>
  <path
     style="fill:#000000;fill-rule:evenodd;stroke:#000000;stroke-width:0;stroke-linejoin:miter;shape-rendering:geometricPrecision"
     inkscape:connector-curvature="0"
     id="path321"
     d="m -43.834399,144.28868 v 0 0.38666 l -0.333333,0.2 -8.013313,-4.62665 0.173333,-0.29334 0.159999,-0.29333 z" />
  <g
     aria-label="MeO"
     style="text-anchor:end;text-rendering:geometricPrecision"
     id="text327"
     transform="matrix(1.33333,0,0,1.33333,-77.647648,-47.724176)">
    <path
       d="m 1.8446877,141.67999 v -5.69077 h 1.133496 l 1.3469971,4.02935 q 0.1863281,0.56286 0.2717285,0.84236 0.097046,-0.31055 0.3027832,-0.91224 l 1.3625244,-3.95947 H 7.275376 v 5.69077 H 6.5494727 v -4.76301 l -1.6536621,4.76301 H 4.2164894 L 2.570591,136.83546 v 4.84453 z"
       style="font-size:7.94999981px;font-family:Arial;fill:#000000"
       id="path2021"
       inkscape:connector-curvature="0" />
    <path
       d="m 11.230967,140.3524 0.722021,0.0893 q -0.170801,0.63274 -0.632739,0.9821 -0.461939,0.34937 -1.180078,0.34937 -0.9044679,0 -1.4362794,-0.55511 -0.5279297,-0.55898 -0.5279297,-1.56438 0,-1.04033 0.5356933,-1.61484 0.5356934,-0.57451 1.3896968,-0.57451 0.826832,0 1.350879,0.56287 0.524048,0.56286 0.524048,1.58378 0,0.0621 -0.0039,0.18633 H 8.8979834 q 0.038818,0.67932 0.3843017,1.04033 0.3454834,0.36102 0.8617679,0.36102 0.384301,0 0.65603,-0.20186 0.271728,-0.20186 0.430884,-0.64439 z M 8.9368017,139.22279 H 11.23873 q -0.04658,-0.52017 -0.263964,-0.78025 -0.333838,-0.40371 -0.86565,-0.40371 -0.4813475,0 -0.8113035,0.32219 -0.3260743,0.3222 -0.3610108,0.86177 z"
       style="font-size:7.94999981px;font-family:Arial;fill:#000000"
       id="path2023"
       inkscape:connector-curvature="0" />
    <path
       d="m 12.694419,138.90836 q 0,-1.41687 0.76084,-2.21653 0.76084,-0.80354 1.964209,-0.80354 0.788012,0 1.420752,0.37654 0.632739,0.37654 0.962695,1.05198 0.333838,0.67156 0.333838,1.52556 0,0.86565 -0.349365,1.54885 -0.349366,0.68321 -0.989869,1.03645 -0.640502,0.34937 -1.381933,0.34937 -0.80354,0 -1.436279,-0.38819 -0.63274,-0.38818 -0.958814,-1.05974 -0.326074,-0.67155 -0.326074,-1.42075 z m 0.776367,0.0117 q 0,1.02868 0.551221,1.6226 0.555102,0.59004 1.389697,0.59004 0.850122,0 1.397461,-0.5978 0.551221,-0.5978 0.551221,-1.69636 0,-0.69485 -0.236792,-1.21113 -0.232911,-0.52017 -0.687085,-0.80354 -0.450293,-0.28726 -1.013159,-0.28726 -0.799659,0 -1.378052,0.55122 -0.574512,0.54734 -0.574512,1.83223 z"
       style="font-size:7.94999981px;font-family:Arial;fill:#000000"
       id="path2025"
       inkscape:connector-curvature="0" />
  </g>
  <path
     style="fill:#000000;fill-rule:evenodd;stroke:#000000;stroke-width:0;stroke-linejoin:miter;shape-rendering:geometricPrecision"
     inkscape:connector-curvature="0"
     id="path331"
     d="m -44.167732,159.82197 v 0 l 0.333333,0.2 v 0.38667 l -8.27998,4.78665 -0.159999,-0.29333 -0.173333,-0.29333 z" />
  <g
     aria-label="MeO"
     style="text-anchor:end;text-rendering:geometricPrecision"
     id="text337"
     transform="matrix(1.33333,0,0,1.33333,-77.647648,-47.724176)">
    <path
       d="m 1.8446877,164.69 v -5.69077 h 1.133496 l 1.3469971,4.02935 q 0.1863281,0.56286 0.2717285,0.84236 0.097046,-0.31055 0.3027832,-0.91224 l 1.3625244,-3.95947 H 7.275376 V 164.69 H 6.5494727 v -4.76301 L 4.8958106,164.69 H 4.2164894 L 2.570591,159.84547 V 164.69 Z"
       style="font-size:7.94999981px;font-family:Arial;fill:#000000"
       id="path2028"
       inkscape:connector-curvature="0" />
    <path
       d="m 11.230967,163.36241 0.722021,0.0893 q -0.170801,0.63274 -0.632739,0.9821 -0.461939,0.34937 -1.180078,0.34937 -0.9044679,0 -1.4362794,-0.55511 -0.5279297,-0.55898 -0.5279297,-1.56438 0,-1.04033 0.5356933,-1.61484 0.5356934,-0.57451 1.3896968,-0.57451 0.826832,0 1.350879,0.56286 0.524048,0.56287 0.524048,1.58379 0,0.0621 -0.0039,0.18633 H 8.8979834 q 0.038818,0.67932 0.3843017,1.04033 0.3454834,0.36101 0.8617679,0.36101 0.384301,0 0.65603,-0.20185 0.271728,-0.20186 0.430884,-0.64439 z M 8.9368017,162.2328 H 11.23873 q -0.04658,-0.52017 -0.263964,-0.78025 -0.333838,-0.40371 -0.86565,-0.40371 -0.4813475,0 -0.8113035,0.32219 -0.3260743,0.3222 -0.3610108,0.86177 z"
       style="font-size:7.94999981px;font-family:Arial;fill:#000000"
       id="path2030"
       inkscape:connector-curvature="0" />
    <path
       d="m 12.694419,161.91837 q 0,-1.41687 0.76084,-2.21653 0.76084,-0.80354 1.964209,-0.80354 0.788012,0 1.420752,0.37654 0.632739,0.37654 0.962695,1.05198 0.333838,0.67156 0.333838,1.52556 0,0.86565 -0.349365,1.54885 -0.349366,0.68321 -0.989869,1.03645 -0.640502,0.34937 -1.381933,0.34937 -0.80354,0 -1.436279,-0.38819 -0.63274,-0.38818 -0.958814,-1.05974 -0.326074,-0.67155 -0.326074,-1.42075 z m 0.776367,0.0117 q 0,1.02868 0.551221,1.6226 0.555102,0.59004 1.389697,0.59004 0.850122,0 1.397461,-0.5978 0.551221,-0.5978 0.551221,-1.69636 0,-0.69485 -0.236792,-1.21113 -0.232911,-0.52017 -0.687085,-0.80354 -0.450293,-0.28726 -1.013159,-0.28726 -0.799659,0 -1.378052,0.55122 -0.574512,0.54734 -0.574512,1.83223 z"
       style="font-size:7.94999981px;font-family:Arial;fill:#000000"
       id="path2032"
       inkscape:connector-curvature="0" />
  </g>
  <path
     style="fill:#000000;fill-rule:evenodd;stroke:#000000;stroke-width:0;stroke-linejoin:miter;shape-rendering:geometricPrecision"
     inkscape:connector-curvature="0"
     id="path341"
     d="m 484.21761,144.87534 v 0 l 0.33334,-0.2 0.34666,0.2 v 14.94663 l -0.34666,0.2 -0.33334,-0.2 z" />
  <path
     style="stroke:#000000;stroke-width:0.67999828;shape-rendering:auto"
     d="m 487.31094,146.27534 v 12.14664"
     id="line343"
     inkscape:connector-curvature="0" />
  <path
     style="fill:#000000;fill-rule:evenodd;stroke:#000000;stroke-width:0;stroke-linejoin:miter;shape-rendering:geometricPrecision"
     inkscape:connector-curvature="0"
     id="path347"
     d="m 484.55095,160.40864 v 0 -0.38667 l 0.34666,-0.2 12.9333,7.49332 v 0.38666 0.38667 z" />
  <path
     style="fill:#000000;fill-rule:evenodd;stroke:#000000;stroke-width:0;stroke-linejoin:miter;shape-rendering:geometricPrecision"
     inkscape:connector-curvature="0"
     id="path351"
     d="m 497.83091,168.08862 v 0 -0.38667 -0.38666 l 12.95997,-7.49332 0.33333,0.2 0.04,0.37333 z" />
  <path
     style="stroke:#000000;stroke-width:0.67999828;shape-rendering:auto"
     d="m 497.8309,164.51528 10.53333,-6.0933"
     id="line353"
     inkscape:connector-curvature="0" />
  <path
     style="fill:#000000;fill-rule:evenodd;stroke:#000000;stroke-width:0;stroke-linejoin:miter;shape-rendering:geometricPrecision"
     inkscape:connector-curvature="0"
     id="path357"
     d="m 511.47088,159.76864 v 0 l -0.34667,0.25333 -0.33333,-0.2 v -14.94663 l 0.33333,-0.2 0.34667,0.25334 z" />
  <path
     style="fill:#000000;fill-rule:evenodd;stroke:#000000;stroke-width:0;stroke-linejoin:miter;shape-rendering:geometricPrecision"
     inkscape:connector-curvature="0"
     id="path361"
     d="m 511.16421,144.30201 v 0 l -0.04,0.37333 -0.33333,0.2 -12.95997,-7.47998 v -0.38666 -0.38667 z" />
  <path
     style="stroke:#000000;stroke-width:0.67999828;shape-rendering:auto"
     d="M 508.36423,146.27534 497.8309,140.19535"
     id="line363"
     inkscape:connector-curvature="0" />
  <path
     style="fill:#000000;fill-rule:evenodd;stroke:#000000;stroke-width:0;stroke-linejoin:miter;shape-rendering:geometricPrecision"
     inkscape:connector-curvature="0"
     id="path367"
     d="m 497.83091,136.62203 v 0 0.38667 0.38666 l -12.9333,7.47998 -0.34666,-0.2 v -0.38666 z" />
  <path
     style="fill:#000000;fill-rule:evenodd;stroke:#000000;stroke-width:0;stroke-linejoin:miter;shape-rendering:geometricPrecision"
     inkscape:connector-curvature="0"
     id="path371"
     d="m 511.16421,160.3953 v 0 l -0.04,-0.37333 0.34667,-0.25333 14.11996,4.59999 0.13334,0.4 0.13333,0.4 z" />
  <path
     style="fill:#000000;fill-rule:evenodd;stroke:#000000;stroke-width:0;stroke-linejoin:miter;shape-rendering:geometricPrecision"
     inkscape:connector-curvature="0"
     id="path375"
     d="m 525.85751,165.16863 v 0 l -0.13333,-0.4 -0.13334,-0.4 8.71998,-12.01331 h 0.42667 0.42666 z" />
  <path
     style="fill:#000000;fill-rule:evenodd;stroke:#000000;stroke-width:0;stroke-linejoin:miter;shape-rendering:geometricPrecision"
     inkscape:connector-curvature="0"
     id="path379"
     d="m 535.16415,152.35532 v 0 h -0.42666 -0.42667 l -8.71998,-12.0133 0.13334,-0.4 0.37333,-0.0533 z" />
  <path
     style="fill:#000000;fill-rule:evenodd;stroke:#000000;stroke-width:0;stroke-linejoin:miter;shape-rendering:geometricPrecision"
     inkscape:connector-curvature="0"
     id="path383"
     d="m 525.45751,139.67536 v 0 l 0.26667,0.26666 -0.13334,0.4 -14.11996,4.58666 -0.34667,-0.25334 0.04,-0.37333 z" />
  <path
     style="fill:#000000;fill-rule:evenodd;stroke:#000000;stroke-width:0;stroke-linejoin:miter;shape-rendering:geometricPrecision"
     inkscape:connector-curvature="0"
     id="path387"
     d="m 526.09751,139.88869 v 0 l -0.37333,0.0533 -0.26667,-0.26666 2.75999,-8.51998 0.32,0.10666 0.33334,0.10667 z" />
  <g
     aria-label="NH"
     style="text-anchor:start;text-rendering:geometricPrecision"
     id="text393"
     transform="matrix(1.33333,0,0,1.33333,-77.647648,-47.724176)">
    <path
       d="m 453.80558,132.94 v -5.69077 h 0.77248 l 2.98902,4.46799 v -4.46799 h 0.72202 V 132.94 h -0.77249 l -2.98901,-4.47187 V 132.94 Z"
       style="font-size:7.94999981px;font-family:Arial;fill:#000000"
       id="path2038"
       inkscape:connector-curvature="0" />
    <path
       d="m 459.58175,132.94 v -5.69077 h 0.75308 v 2.33687 h 2.95796 v -2.33687 h 0.75307 V 132.94 h -0.75307 v -2.68235 h -2.95796 V 132.94 Z"
       style="font-size:7.94999981px;font-family:Arial;fill:#000000"
       id="path2040"
       inkscape:connector-curvature="0" />
  </g>
  <path
     style="fill:#cc78a6;fill-rule:evenodd;stroke:#cc78a6;stroke-width:0;stroke-linejoin:miter;shape-rendering:geometricPrecision"
     inkscape:connector-curvature="0"
     id="path397"
     d="m 526.64417,120.60874 v 0 l -0.25333,0.22666 -0.25333,0.22667 -6.06665,-6.74665 0.12,-0.37333 0.12,-0.37334 z" />
  <path
     style="fill:#cc78a6;fill-rule:evenodd;stroke:#cc78a6;stroke-width:0;stroke-linejoin:miter;shape-rendering:geometricPrecision"
     inkscape:connector-curvature="0"
     id="path401"
     d="m 520.31086,113.56875 v 0 l -0.12,0.37334 -0.12,0.37333 -14.62663,3.10666 -0.26667,-0.29333 0.12,-0.37334 z" />
  <path
     style="stroke:#cc78a6;stroke-width:0.67999828;shape-rendering:auto"
     d="m 518.88418,113.51542 2.77335,-8.54664"
     id="line405"
     inkscape:connector-curvature="0" />
  <path
     style="fill:#cc78a6;fill-rule:evenodd;stroke:#cc78a6;stroke-width:0;stroke-linejoin:miter;shape-rendering:geometricPrecision"
     inkscape:connector-curvature="0"
     id="path407"
     d="m 521.11085,114.46209 v 0 l 0.53334,0.58666 2.95999,-9.11998 -0.64,-0.21333 z" />
  <path
     style="fill:#cc78a6;fill-rule:evenodd;stroke:#cc78a6;stroke-width:0;stroke-linejoin:miter;shape-rendering:geometricPrecision"
     inkscape:connector-curvature="0"
     id="path409"
     d="m 518.3642,113.98209 v 0 l 0.77333,-0.16 2.85332,-8.75998 -0.65333,-0.2 z" />
  <g
     aria-label="O"
     style="text-anchor:start;text-rendering:geometricPrecision"
     id="text415"
     transform="matrix(1.33333,0,0,1.33333,-77.647648,-47.724176)">
    <path
       d="m 449.2243,110.65837 q 0,-1.41687 0.76084,-2.21653 0.76084,-0.80354 1.96421,-0.80354 0.78801,0 1.42075,0.37654 0.63274,0.37654 0.96269,1.05198 0.33384,0.67155 0.33384,1.52556 0,0.86565 -0.34936,1.54885 -0.34937,0.6832 -0.98987,1.03645 -0.6405,0.34937 -1.38193,0.34937 -0.80355,0 -1.43628,-0.38819 -0.63274,-0.38818 -0.95882,-1.05974 -0.32607,-0.67156 -0.32607,-1.42075 z m 0.77637,0.0116 q 0,1.02868 0.55122,1.6226 0.5551,0.59004 1.38969,0.59004 0.85013,0 1.39746,-0.5978 0.55122,-0.5978 0.55122,-1.69636 0,-0.69485 -0.23679,-1.21114 -0.23291,-0.52016 -0.68708,-0.80354 -0.4503,-0.28725 -1.01316,-0.28725 -0.79966,0 -1.37805,0.55122 -0.57451,0.54734 -0.57451,1.83223 z"
       style="font-size:7.94999981px;font-family:Arial;fill:#cc78a6"
       id="path2044"
       inkscape:connector-curvature="0" />
  </g>
  <path
     style="fill:#cc78a6;fill-rule:evenodd;stroke:#cc78a6;stroke-width:0;stroke-linejoin:miter;shape-rendering:geometricPrecision"
     inkscape:connector-curvature="0"
     id="path419"
     d="m 505.29756,116.75541 v 0 l -0.12,0.37334 -0.38666,0.08 -10.13331,-11.2533 0.25333,-0.22667 0.25333,-0.22666 z" />
  <path
     style="fill:#cc78a6;fill-rule:evenodd;stroke:#cc78a6;stroke-width:0;stroke-linejoin:miter;shape-rendering:geometricPrecision"
     inkscape:connector-curvature="0"
     id="path423"
     d="m 504.7909,117.20874 v 0 l 0.38666,-0.08 0.26667,0.29333 -4.67999,14.4133 -0.32,-0.10667 -0.32,-0.10667 z" />
  <path
     style="fill:#000000;fill-rule:evenodd;stroke:#000000;stroke-width:0;stroke-linejoin:miter;shape-rendering:geometricPrecision"
     inkscape:connector-curvature="0"
     id="path427"
     d="m 484.55095,144.28868 v 0 0.38666 l -0.33334,0.2 -8.13331,-4.69332 0.17333,-0.29333 0.16,-0.29333 z" />
  <g
     aria-label="MeO"
     style="text-anchor:end;text-rendering:geometricPrecision"
     id="text433"
     transform="matrix(1.33333,0,0,1.33333,-77.647648,-47.724176)">
    <path
       d="m 398.13469,141.67999 v -5.69077 h 1.13349 l 1.347,4.02935 q 0.18633,0.56286 0.27173,0.84236 0.097,-0.31055 0.30278,-0.91224 l 1.36253,-3.95947 h 1.01316 v 5.69077 h -0.72591 v -4.76301 l -1.65366,4.76301 h -0.67932 l -1.6459,-4.84453 v 4.84453 z"
       style="font-size:7.94999981px;font-family:Arial;fill:#000000"
       id="path2047"
       inkscape:connector-curvature="0" />
    <path
       d="m 407.52097,140.3524 0.72202,0.0893 q -0.1708,0.63274 -0.63274,0.9821 -0.46194,0.34937 -1.18008,0.34937 -0.90447,0 -1.43628,-0.55511 -0.52793,-0.55898 -0.52793,-1.56438 0,-1.04033 0.53569,-1.61484 0.5357,-0.57451 1.3897,-0.57451 0.82683,0 1.35088,0.56287 0.52405,0.56286 0.52405,1.58378 0,0.0621 -0.004,0.18633 h -3.07442 q 0.0388,0.67932 0.3843,1.04033 0.34549,0.36102 0.86177,0.36102 0.3843,0 0.65603,-0.20186 0.27173,-0.20186 0.43089,-0.64439 z m -2.29417,-1.12961 h 2.30193 q -0.0466,-0.52017 -0.26397,-0.78025 -0.33383,-0.40371 -0.86564,-0.40371 -0.48135,0 -0.81131,0.32219 -0.32607,0.3222 -0.36101,0.86177 z"
       style="font-size:7.94999981px;font-family:Arial;fill:#000000"
       id="path2049"
       inkscape:connector-curvature="0" />
    <path
       d="m 408.98442,138.90836 q 0,-1.41687 0.76084,-2.21653 0.76084,-0.80354 1.96421,-0.80354 0.78801,0 1.42075,0.37654 0.63274,0.37654 0.96269,1.05198 0.33384,0.67156 0.33384,1.52556 0,0.86565 -0.34936,1.54885 -0.34937,0.68321 -0.98987,1.03645 -0.6405,0.34937 -1.38194,0.34937 -0.80354,0 -1.43627,-0.38819 -0.63274,-0.38818 -0.95882,-1.05974 -0.32607,-0.67155 -0.32607,-1.42075 z m 0.77637,0.0117 q 0,1.02868 0.55122,1.6226 0.5551,0.59004 1.38969,0.59004 0.85013,0 1.39746,-0.5978 0.55122,-0.5978 0.55122,-1.69636 0,-0.69485 -0.23679,-1.21113 -0.23291,-0.52017 -0.68708,-0.80354 -0.4503,-0.28726 -1.01316,-0.28726 -0.79966,0 -1.37805,0.55122 -0.57451,0.54734 -0.57451,1.83223 z"
       style="font-size:7.94999981px;font-family:Arial;fill:#000000"
       id="path2051"
       inkscape:connector-curvature="0" />
  </g>
  <path
     style="fill:#000000;fill-rule:evenodd;stroke:#000000;stroke-width:0;stroke-linejoin:miter;shape-rendering:geometricPrecision"
     inkscape:connector-curvature="0"
     id="path437"
     d="m 484.21761,159.82197 v 0 l 0.33334,0.2 v 0.38667 l -8.26665,4.77332 -0.16,-0.29333 -0.17333,-0.29334 z" />
  <g
     aria-label="MeO"
     style="text-anchor:end;text-rendering:geometricPrecision"
     id="text443"
     transform="matrix(1.33333,0,0,1.33333,-77.647648,-47.724176)">
    <path
       d="m 398.13469,164.69 v -5.69077 h 1.13349 l 1.347,4.02935 q 0.18633,0.56286 0.27173,0.84236 0.097,-0.31055 0.30278,-0.91224 l 1.36253,-3.95947 h 1.01316 V 164.69 h -0.72591 v -4.76301 l -1.65366,4.76301 h -0.67932 l -1.6459,-4.84453 V 164.69 Z"
       style="font-size:7.94999981px;font-family:Arial;fill:#000000"
       id="path2054"
       inkscape:connector-curvature="0" />
    <path
       d="m 407.52097,163.36241 0.72202,0.0893 q -0.1708,0.63274 -0.63274,0.9821 -0.46194,0.34937 -1.18008,0.34937 -0.90447,0 -1.43628,-0.55511 -0.52793,-0.55898 -0.52793,-1.56438 0,-1.04033 0.53569,-1.61484 0.5357,-0.57451 1.3897,-0.57451 0.82683,0 1.35088,0.56286 0.52405,0.56287 0.52405,1.58379 0,0.0621 -0.004,0.18633 h -3.07442 q 0.0388,0.67932 0.3843,1.04033 0.34549,0.36101 0.86177,0.36101 0.3843,0 0.65603,-0.20185 0.27173,-0.20186 0.43089,-0.64439 z m -2.29417,-1.12961 h 2.30193 q -0.0466,-0.52017 -0.26397,-0.78025 -0.33383,-0.40371 -0.86564,-0.40371 -0.48135,0 -0.81131,0.32219 -0.32607,0.3222 -0.36101,0.86177 z"
       style="font-size:7.94999981px;font-family:Arial;fill:#000000"
       id="path2056"
       inkscape:connector-curvature="0" />
    <path
       d="m 408.98442,161.91837 q 0,-1.41687 0.76084,-2.21653 0.76084,-0.80354 1.96421,-0.80354 0.78801,0 1.42075,0.37654 0.63274,0.37654 0.96269,1.05198 0.33384,0.67156 0.33384,1.52556 0,0.86565 -0.34936,1.54885 -0.34937,0.68321 -0.98987,1.03645 -0.6405,0.34937 -1.38194,0.34937 -0.80354,0 -1.43627,-0.38819 -0.63274,-0.38818 -0.95882,-1.05974 -0.32607,-0.67155 -0.32607,-1.42075 z m 0.77637,0.0117 q 0,1.02868 0.55122,1.6226 0.5551,0.59004 1.38969,0.59004 0.85013,0 1.39746,-0.5978 0.55122,-0.5978 0.55122,-1.69636 0,-0.69485 -0.23679,-1.21113 -0.23291,-0.52017 -0.68708,-0.80354 -0.4503,-0.28726 -1.01316,-0.28726 -0.79966,0 -1.37805,0.55122 -0.57451,0.54734 -0.57451,1.83223 z"
       style="font-size:7.94999981px;font-family:Arial;fill:#000000"
       id="path2058"
       inkscape:connector-curvature="0" />
  </g>
  <path
     style="stroke:#000000;stroke-width:0.67999828;shape-rendering:auto"
     d="M 437.07108,142.28867 H 416.52445"
     id="line447"
     inkscape:connector-curvature="0" />
  <path
     style="fill:#000000;fill-rule:evenodd;stroke:#000000;stroke-width:0;stroke-linejoin:miter;stroke-miterlimit:5.89496231;shape-rendering:geometricPrecision"
     inkscape:connector-curvature="0"
     id="path449"
     stroke-miterlimit="5.89496254687654"
     d="m 441.68439,142.28868 -6.79999,-1.69333 c 1.44,0.94667 1.44,2.44 0,3.38666 z" />
  <g
     aria-label="1) Cp2Zr(H)Cl"
     style="text-anchor:start;text-rendering:geometricPrecision"
     id="text461"
     transform="matrix(1.33333,0,0,1.33333,-77.647648,-47.724176)">
    <path
       d="m 86.081843,115.88 h -0.69873 v -4.45247 q -0.252319,0.24068 -0.663794,0.48135 -0.407593,0.24067 -0.733667,0.36101 v -0.67544 q 0.586157,-0.27561 1.024805,-0.66768 0.438647,-0.39206 0.621094,-0.76084 h 0.450292 z"
       style="font-size:7.94999981px;font-family:Arial;fill:#000000"
       id="path2062"
       inkscape:connector-curvature="0" />
    <path
       d="m 88.5274,117.55307 h -0.500757 q 1.160669,-1.86328 1.160669,-3.73045 0,-0.72978 -0.166919,-1.44792 -0.131982,-0.58228 -0.368774,-1.11797 -0.151392,-0.34936 -0.624976,-1.16455 H 88.5274 q 0.729785,0.97434 1.079151,1.95645 0.298901,0.84624 0.298901,1.77011 0,1.0481 -0.403711,2.02632 -0.399829,0.97822 -0.974341,1.70801 z"
       style="font-size:7.94999981px;font-family:Arial;fill:#000000"
       id="path2064"
       inkscape:connector-curvature="0" />
    <path
       d="m 97.079085,113.88473 0.753076,0.19021 q -0.236792,0.92776 -0.854004,1.41687 -0.61333,0.48523 -1.50227,0.48523 -0.919995,0 -1.498389,-0.37265 -0.574512,-0.37654 -0.877295,-1.08692 -0.298901,-0.71037 -0.298901,-1.52556 0,-0.88894 0.337719,-1.54885 0.341602,-0.6638 0.966578,-1.0054 0.628857,-0.34548 1.381933,-0.34548 0.854004,0 1.436279,0.43477 0.582276,0.43476 0.811304,1.22277 l -0.741431,0.17469 q -0.197973,-0.6211 -0.574511,-0.90447 -0.376538,-0.28338 -0.947168,-0.28338 -0.65603,0 -1.09856,0.31443 -0.438647,0.31443 -0.617212,0.84624 -0.178564,0.52793 -0.178564,1.0908 0,0.7259 0.209619,1.26936 0.213501,0.53958 0.659912,0.80742 0.446411,0.26785 0.966577,0.26785 0.63274,0 1.071387,-0.36489 0.438647,-0.3649 0.593921,-1.08304 z"
       style="font-size:7.94999981px;font-family:Arial;fill:#009d73"
       id="path2066"
       inkscape:connector-curvature="0" />
    <path
       d="m 98.67452,117.4599 v -5.70241 h 0.636621 v 0.53569 q 0.225146,-0.31443 0.50852,-0.4697 0.283379,-0.15916 0.687089,-0.15916 0.52793,0 0.93164,0.27173 0.40371,0.27173 0.60944,0.76861 0.20574,0.49299 0.20574,1.08303 0,0.63274 -0.22903,1.14126 -0.22514,0.50464 -0.65991,0.77636 -0.43088,0.26785 -0.90835,0.26785 -0.34936,0 -0.628855,-0.14751 -0.275611,-0.14751 -0.454175,-0.37265 v 2.0069 z m 0.632739,-3.61787 q 0,0.79578 0.322192,1.1762 0.322193,0.38042 0.780249,0.38042 0.46582,0 0.79578,-0.39207 0.33383,-0.39594 0.33383,-1.22277 0,-0.78802 -0.32607,-1.18008 -0.32219,-0.39207 -0.77249,-0.39207 -0.446406,0 -0.79189,0.41924 -0.341601,0.41536 -0.341601,1.21113 z"
       style="font-size:7.94999981px;font-family:Arial;fill:#009d73"
       id="path2068"
       inkscape:connector-curvature="0" />
    <path
       d="M 105.57739,117.17633 V 117.68 h -2.82112 q -0.006,-0.18924 0.0611,-0.36392 0.10772,-0.28823 0.34354,-0.56772 0.23873,-0.2795 0.68709,-0.64633 0.69581,-0.57063 0.94037,-0.90253 0.24456,-0.3348 0.24456,-0.63176 0,-0.31152 -0.22418,-0.52405 -0.22126,-0.21544 -0.57936,-0.21544 -0.37848,0 -0.60557,0.22708 -0.22709,0.22709 -0.23,0.62886 l -0.5386,-0.0553 q 0.0553,-0.60265 0.41632,-0.91708 0.36101,-0.31734 0.96949,-0.31734 0.6143,0 0.9724,0.34063 0.3581,0.34063 0.3581,0.8443 0,0.2562 -0.10481,0.50367 -0.10481,0.24747 -0.34936,0.52114 -0.24165,0.27366 -0.80646,0.75113 -0.47164,0.39595 -0.60556,0.53861 -0.13393,0.13974 -0.22127,0.2824 z"
       style="font-size:5.9625001px;font-family:Arial;fill:#009d73"
       id="path2070"
       inkscape:connector-curvature="0" />
    <path
       d="m 106.05389,115.88 v -0.69873 l 2.91526,-3.64505 q 0.31054,-0.38818 0.59004,-0.67544 h -3.17535 v -0.67155 h 4.07593 v 0.67155 l -3.19475,3.94783 -0.34548,0.39983 h 3.6334 V 115.88 Z"
       style="font-size:7.94999981px;font-family:Arial;fill:#009d73"
       id="path2072"
       inkscape:connector-curvature="0" />
    <path
       d="m 111.27108,115.88 v -4.12251 h 0.62885 v 0.62497 q 0.24068,-0.43864 0.44253,-0.57839 0.20574,-0.13975 0.4503,-0.13975 0.35324,0 0.71814,0.22515 l -0.24068,0.64827 q -0.2562,-0.1514 -0.5124,-0.1514 -0.22903,0 -0.41147,0.13975 -0.18245,0.13587 -0.26009,0.38042 -0.11645,0.37266 -0.11645,0.81519 v 2.1583 z"
       style="font-size:7.94999981px;font-family:Arial;fill:#009d73"
       id="path2074"
       inkscape:connector-curvature="0" />
    <path
       d="m 115.26937,117.55307 q -0.5784,-0.72979 -0.97823,-1.70801 -0.39982,-0.97822 -0.39982,-2.02632 0,-0.92387 0.2989,-1.77011 0.34936,-0.98211 1.07915,-1.95645 h 0.50075 q -0.4697,0.80742 -0.62109,1.15291 -0.23679,0.53569 -0.37266,1.11796 -0.16692,0.72591 -0.16692,1.45957 0,1.86717 1.16067,3.73045 z"
       style="font-size:7.94999981px;font-family:Arial;fill:#009d73"
       id="path2076"
       inkscape:connector-curvature="0" />
    <path
       d="m 116.70176,115.88 v -5.69077 h 0.75308 v 2.33686 h 2.95796 v -2.33686 h 0.75308 V 115.88 h -0.75308 v -2.68235 h -2.95796 V 115.88 Z"
       style="font-size:7.94999981px;font-family:Arial;fill:#009d73"
       id="path2078"
       inkscape:connector-curvature="0" />
    <path
       d="m 122.79237,117.55307 h -0.50076 q 1.16067,-1.86328 1.16067,-3.73045 0,-0.72978 -0.16692,-1.44792 -0.13198,-0.58228 -0.36878,-1.11797 -0.15139,-0.34936 -0.62497,-1.16455 h 0.50076 q 0.72978,0.97434 1.07915,1.95645 0.2989,0.84624 0.2989,1.77011 0,1.0481 -0.40371,2.02632 -0.39983,0.97822 -0.97434,1.70801 z"
       style="font-size:7.94999981px;font-family:Arial;fill:#009d73"
       id="path2080"
       inkscape:connector-curvature="0" />
    <path
       d="m 129.13917,113.88473 0.75307,0.19021 q -0.23679,0.92776 -0.854,1.41687 -0.61333,0.48523 -1.50227,0.48523 -0.92,0 -1.49839,-0.37265 -0.57451,-0.37654 -0.8773,-1.08692 -0.2989,-0.71037 -0.2989,-1.52556 0,-0.88894 0.33772,-1.54885 0.3416,-0.6638 0.96658,-1.0054 0.62886,-0.34548 1.38193,-0.34548 0.85401,0 1.43628,0.43477 0.58228,0.43476 0.81131,1.22277 l -0.74144,0.17469 q -0.19797,-0.6211 -0.57451,-0.90447 -0.37653,-0.28338 -0.94716,-0.28338 -0.65603,0 -1.09856,0.31443 -0.43865,0.31443 -0.61722,0.84624 -0.17856,0.52793 -0.17856,1.0908 0,0.7259 0.20962,1.26936 0.2135,0.53958 0.65991,0.80742 0.44641,0.26785 0.96658,0.26785 0.63274,0 1.07138,-0.36489 0.43865,-0.3649 0.59393,-1.08304 z"
       style="font-size:7.94999981px;font-family:Arial;fill:#009d73"
       id="path2082"
       inkscape:connector-curvature="0" />
    <path
       d="m 130.71907,115.88 v -5.69077 h 0.69873 V 115.88 Z"
       style="font-size:7.94999981px;font-family:Arial;fill:#009d73"
       id="path2084"
       inkscape:connector-curvature="0" />
  </g>
  <g
     aria-label="2) i-PrCOCl"
     style="text-anchor:start;text-rendering:geometricPrecision"
     id="text471"
     transform="matrix(1.33333,0,0,1.33333,-77.647648,-47.724176)">
    <path
       d="M 87.122176,126.33844 V 127.01 h -3.761499 q -0.0078,-0.25232 0.08152,-0.48523 0.143628,-0.3843 0.458057,-0.75696 0.31831,-0.37265 0.916113,-0.86176 0.927759,-0.76084 1.253833,-1.20337 0.326074,-0.44641 0.326074,-0.84236 0,-0.41536 -0.298901,-0.69873 -0.29502,-0.28726 -0.772485,-0.28726 -0.504639,0 -0.807422,0.30279 -0.302784,0.30278 -0.306665,0.83847 l -0.71814,-0.0738 q 0.07375,-0.80354 0.555103,-1.22278 0.481347,-0.42312 1.292651,-0.42312 0.819067,0 1.296533,0.45417 0.477466,0.45418 0.477466,1.12574 0,0.3416 -0.139746,0.67155 -0.139746,0.32996 -0.465821,0.69485 -0.322192,0.3649 -1.075268,1.00152 -0.628857,0.52793 -0.807422,0.71814 -0.178564,0.18632 -0.295019,0.37653 z"
       style="font-size:7.94999981px;font-family:Arial;fill:#000000"
       id="path2087"
       inkscape:connector-curvature="0" />
    <path
       d="m 88.5274,128.68307 h -0.500757 q 1.160669,-1.86328 1.160669,-3.73044 0,-0.72979 -0.166919,-1.44793 -0.131982,-0.58227 -0.368774,-1.11796 -0.151392,-0.34937 -0.624976,-1.16456 H 88.5274 q 0.729785,0.97435 1.079151,1.95645 0.298901,0.84624 0.298901,1.77012 0,1.04809 -0.403711,2.02632 -0.399829,0.97822 -0.974341,1.708 z"
       style="font-size:7.94999981px;font-family:Arial;fill:#000000"
       id="path2089"
       inkscape:connector-curvature="0" />
    <path
       d="m 93.666951,122.11501 0.166919,-0.79578 h 0.698731 l -0.166919,0.79578 z m -1.024805,4.89499 0.861768,-4.12251 h 0.702612 L 93.344759,127.01 Z"
       style="font-style:italic;font-size:7.94999981px;font-family:Arial;fill:#cc78a6"
       id="path2091"
       inkscape:connector-curvature="0" />
    <path
       d="m 94.427791,125.30199 v -0.70261 h 2.146655 v 0.70261 z"
       style="font-size:7.94999981px;font-family:Arial;fill:#cc78a6"
       id="path2093"
       inkscape:connector-curvature="0" />
    <path
       d="m 97.443978,127.01 v -5.69077 h 2.146655 q 0.566747,0 0.865647,0.0543 0.41924,0.0699 0.70261,0.26784 0.28338,0.19409 0.45418,0.54734 0.17468,0.35325 0.17468,0.77637 0,0.7259 -0.46194,1.23054 -0.46194,0.50076 -1.669186,0.50076 h -1.45957 V 127.01 Z m 0.753076,-2.98513 h 1.471215 q 0.729781,0 1.036451,-0.27173 0.30666,-0.27173 0.30666,-0.76472 0,-0.35713 -0.18244,-0.60945 -0.17857,-0.2562 -0.47359,-0.33772 -0.19021,-0.0505 -0.702608,-0.0505 h -1.455688 z"
       style="font-size:7.94999981px;font-family:Arial;fill:#cc78a6"
       id="path2095"
       inkscape:connector-curvature="0" />
    <path
       d="m 102.65728,127.01 v -4.12251 h 0.62886 v 0.62498 q 0.24067,-0.43865 0.44253,-0.5784 0.20574,-0.13974 0.45029,-0.13974 0.35325,0 0.71814,0.22514 l -0.24067,0.64827 q -0.2562,-0.15139 -0.5124,-0.15139 -0.22903,0 -0.41148,0.13975 -0.18244,0.13586 -0.26008,0.38042 -0.11646,0.37265 -0.11646,0.81518 v 2.1583 z"
       style="font-size:7.94999981px;font-family:Arial;fill:#cc78a6"
       id="path2097"
       inkscape:connector-curvature="0" />
    <path
       d="m 109.46991,125.01474 0.75307,0.19021 q -0.23679,0.92776 -0.854,1.41687 -0.61333,0.48523 -1.50227,0.48523 -0.92,0 -1.49839,-0.37266 -0.57451,-0.37654 -0.8773,-1.08691 -0.2989,-0.71038 -0.2989,-1.52556 0,-0.88894 0.33772,-1.54886 0.3416,-0.66379 0.96658,-1.00539 0.62886,-0.34549 1.38193,-0.34549 0.85401,0 1.43628,0.43477 0.58228,0.43477 0.81131,1.22278 l -0.74144,0.17468 q -0.19797,-0.62109 -0.57451,-0.90447 -0.37653,-0.28337 -0.94716,-0.28337 -0.65603,0 -1.09856,0.31443 -0.43865,0.31443 -0.61722,0.84624 -0.17856,0.52793 -0.17856,1.09079 0,0.72591 0.20962,1.26936 0.2135,0.53958 0.65991,0.80743 0.44641,0.26784 0.96658,0.26784 0.63274,0 1.07138,-0.36489 0.43865,-0.36489 0.59393,-1.08303 z"
       style="font-size:7.94999981px;font-family:Arial;fill:#cc78a6"
       id="path2099"
       inkscape:connector-curvature="0" />
    <path
       d="m 110.92559,124.23837 q 0,-1.41687 0.76084,-2.21653 0.76084,-0.80354 1.96421,-0.80354 0.78802,0 1.42075,0.37654 0.63274,0.37654 0.9627,1.05198 0.33384,0.67156 0.33384,1.52556 0,0.86565 -0.34937,1.54885 -0.34936,0.68321 -0.98987,1.03645 -0.6405,0.34937 -1.38193,0.34937 -0.80354,0 -1.43628,-0.38819 -0.63274,-0.38818 -0.95881,-1.05974 -0.32608,-0.67155 -0.32608,-1.42075 z m 0.77637,0.0117 q 0,1.02868 0.55122,1.6226 0.5551,0.59004 1.3897,0.59004 0.85012,0 1.39746,-0.5978 0.55122,-0.5978 0.55122,-1.69636 0,-0.69485 -0.23679,-1.21113 -0.23291,-0.52017 -0.68709,-0.80354 -0.45029,-0.28726 -1.01316,-0.28726 -0.79965,0 -1.37805,0.55122 -0.57451,0.54734 -0.57451,1.83223 z"
       style="font-size:7.94999981px;font-family:Arial;fill:#cc78a6"
       id="path2101"
       inkscape:connector-curvature="0" />
    <path
       d="m 121.3949,125.01474 0.75308,0.19021 q -0.23679,0.92776 -0.85401,1.41687 -0.61333,0.48523 -1.50227,0.48523 -0.91999,0 -1.49838,-0.37266 -0.57452,-0.37654 -0.8773,-1.08691 -0.2989,-0.71038 -0.2989,-1.52556 0,-0.88894 0.33772,-1.54886 0.3416,-0.66379 0.96658,-1.00539 0.62885,-0.34549 1.38193,-0.34549 0.854,0 1.43628,0.43477 0.58227,0.43477 0.8113,1.22278 l -0.74143,0.17468 q -0.19797,-0.62109 -0.57451,-0.90447 -0.37654,-0.28337 -0.94717,-0.28337 -0.65603,0 -1.09856,0.31443 -0.43864,0.31443 -0.61721,0.84624 -0.17856,0.52793 -0.17856,1.09079 0,0.72591 0.20962,1.26936 0.2135,0.53958 0.65991,0.80743 0.44641,0.26784 0.96658,0.26784 0.63273,0 1.07138,-0.36489 0.43865,-0.36489 0.59392,-1.08303 z"
       style="font-size:7.94999981px;font-family:Arial;fill:#cc78a6"
       id="path2103"
       inkscape:connector-curvature="0" />
    <path
       d="m 122.97481,127.01 v -5.69077 h 0.69873 V 127.01 Z"
       style="font-size:7.94999981px;font-family:Arial;fill:#cc78a6"
       id="path2105"
       inkscape:connector-curvature="0" />
  </g>
  <text
     xml:space="preserve"
     style="font-style:normal;font-variant:normal;font-weight:normal;font-stretch:normal;font-size:10.66666698px;line-height:1.25;font-family:Arial;-inkscape-font-specification:Arial;text-align:start;letter-spacing:0px;word-spacing:0px;text-anchor:start;fill:#000000;fill-opacity:1;stroke:none"
     x="-70.820518"
     y="189.93369"
     id="text2529-3"><tspan
       sodipodi:role="line"
       id="tspan2527-3"
       x="-70.820518"
       y="189.93369">\cmpd{zr-fc:sub-h}</tspan></text>
  <text
     xml:space="preserve"
     style="font-style:normal;font-variant:normal;font-weight:normal;font-stretch:normal;font-size:10.66666698px;line-height:1.25;font-family:Arial;-inkscape-font-specification:Arial;text-align:start;letter-spacing:0px;word-spacing:0px;text-anchor:start;fill:#000000;fill-opacity:1;stroke:none"
     x="462.80338"
     y="189.93369"
     id="text2529-3-2"><tspan
       sodipodi:role="line"
       id="tspan2527-3-0"
       x="462.80338"
       y="189.93369">\cmpd{zr-fc:prod-h}, \SI{89}{\percent}</tspan></text>
  <text
     xml:space="preserve"
     style="font-style:normal;font-variant:normal;font-weight:normal;font-stretch:normal;font-size:10.66666698px;line-height:1.25;font-family:Arial;-inkscape-font-specification:Arial;text-align:start;letter-spacing:0px;word-spacing:0px;text-anchor:start;fill:#000000;fill-opacity:1;stroke:none"
     x="126.09023"
     y="189.93369"
     id="text2529-3-1"><tspan
       sodipodi:role="line"
       id="tspan2527-3-6"
       x="126.09023"
       y="189.93369">\cmpd{zr-fc:intermediate}, \SI{76}{\percent}</tspan></text>
  <text
     xml:space="preserve"
     style="font-style:normal;font-variant:normal;font-weight:normal;font-stretch:normal;font-size:10.66666698px;line-height:1.25;font-family:Arial;-inkscape-font-specification:Arial;text-align:start;letter-spacing:0px;word-spacing:0px;text-anchor:start;fill:#000000;fill-opacity:1;stroke:none"
     x="322.71542"
     y="189.93369"
     id="text2529-3-1-5"><tspan
       sodipodi:role="line"
       id="tspan2527-3-6-8"
       x="322.71542"
       y="189.93369">\cmpd{zr-fc:acyloiminium}</tspan></text>
</svg>
