<?xml version="1.0" encoding="UTF-8" standalone="no"?>
<svg
   xmlns:dc="http://purl.org/dc/elements/1.1/"
   xmlns:cc="http://creativecommons.org/ns#"
   xmlns:rdf="http://www.w3.org/1999/02/22-rdf-syntax-ns#"
   xmlns:svg="http://www.w3.org/2000/svg"
   xmlns="http://www.w3.org/2000/svg"
   xmlns:sodipodi="http://sodipodi.sourceforge.net/DTD/sodipodi-0.dtd"
   xmlns:inkscape="http://www.inkscape.org/namespaces/inkscape"
   viewBox="-.03 106.78 140.08 52.22"
   preserveAspectRatio="xMidYMid"
   width="100%"
   height="100%"
   version="1.1"
   id="svg155"
   sodipodi:docname="nitrones-zr.svg"
   inkscape:version="0.92.3 (2405546, 2018-03-11)">
  <metadata
     id="metadata161">
    <rdf:RDF>
      <cc:Work
         rdf:about="">
        <dc:format>image/svg+xml</dc:format>
        <dc:type
           rdf:resource="http://purl.org/dc/dcmitype/StillImage" />
      </cc:Work>
    </rdf:RDF>
  </metadata>
  <defs
     id="defs159" />
  <sodipodi:namedview
     pagecolor="#ffffff"
     bordercolor="#666666"
     borderopacity="1"
     objecttolerance="10"
     gridtolerance="10"
     guidetolerance="10"
     inkscape:pageopacity="0"
     inkscape:pageshadow="2"
     inkscape:window-width="1920"
     inkscape:window-height="1017"
     id="namedview157"
     showgrid="false"
     inkscape:zoom="5.13992"
     inkscape:cx="79.254983"
     inkscape:cy="18.029453"
     inkscape:window-x="-8"
     inkscape:window-y="-8"
     inkscape:window-maximized="1"
     inkscape:current-layer="svg155" />
  <clipPath
     id="73566">
    <rect
       x="0.255"
       y="0.255"
       width="139.49"
       height="769.29"
       id="rect2" />
  </clipPath>
  <path
     style="stroke:#000000;stroke-width:0.67999828;shape-rendering:auto"
     d="M 101.94325,117.61004 H 37.370079"
     id="line7" />
  <path
     style="fill:#000000;fill-rule:evenodd;stroke:#000000;stroke-width:0;stroke-linejoin:miter;stroke-miterlimit:5.89496231;shape-rendering:geometricPrecision"
     inkscape:connector-curvature="0"
     id="path9"
     stroke-miterlimit="5.89496254687647"
     d="m 106.55657,117.61004 -6.799978,-1.69333 c 1.439998,0.94666 1.439998,2.43999 0,3.38666 z" />
  <path
     inkscape:connector-curvature="0"
     id="path1222"
     style="font-size:10.59997368px;font-family:Arial;text-anchor:start;fill:#000000;stroke-width:1.33333004;text-rendering:geometricPrecision"
     d="m 41.705856,112.27672 h -0.931639 v -5.93661 q -0.336425,0.3209 -0.885056,0.6418 -0.543456,0.32089 -0.97822,0.48134 v -0.90058 q 0.781541,-0.36748 1.366403,-0.89023 0.584861,-0.52275 0.828123,-1.01445 h 0.600389 z" />
  <path
     inkscape:connector-curvature="0"
     id="path1224"
     style="font-size:10.59997368px;font-family:Arial;text-anchor:start;fill:#000000;stroke-width:1.33333004;text-rendering:geometricPrecision"
     d="m 44.96659,114.50747 h -0.667674 q 1.547554,-2.48436 1.547554,-4.97391 0,-0.97304 -0.222558,-1.93056 -0.175976,-0.77637 -0.491698,-1.49062 -0.201855,-0.46582 -0.833298,-1.55273 h 0.667674 q 0.973044,1.29912 1.438863,2.60858 0.398534,1.12832 0.398534,2.36016 0,1.39745 -0.538279,2.70175 -0.533105,1.30429 -1.299118,2.27733 z" />
  <path
     inkscape:connector-curvature="0"
     id="path1226"
     style="font-size:10.59997368px;font-family:Arial;text-anchor:start;fill:#009d73;stroke-width:1.33333004;text-rendering:geometricPrecision"
     d="m 56.368807,109.61637 1.004099,0.25362 q -0.315721,1.237 -1.138669,1.88915 -0.817771,0.64697 -2.003022,0.64697 -1.226657,0 -1.997847,-0.49687 -0.766013,-0.50205 -1.169723,-1.44922 -0.398534,-0.94716 -0.398534,-2.03407 0,-1.18525 0.450291,-2.06514 0.455468,-0.88505 1.288767,-1.34052 0.838474,-0.46064 1.842573,-0.46064 1.138669,0 1.915035,0.57968 0.776365,0.57969 1.081735,1.63037 l -0.988572,0.23291 q -0.263964,-0.82812 -0.766013,-1.20595 -0.50205,-0.37783 -1.262888,-0.37783 -0.874705,0 -1.464742,0.41923 -0.584862,0.41924 -0.822947,1.12832 -0.238086,0.7039 -0.238086,1.45439 0,0.96787 0.279492,1.69248 0.284667,0.71943 0.87988,1.07656 0.595214,0.35712 1.288767,0.35712 0.84365,0 1.428512,-0.48652 0.584862,-0.48652 0.791892,-1.44404 z" />
  <path
     inkscape:connector-curvature="0"
     id="path1228"
     style="font-size:10.59997368px;font-family:Arial;text-anchor:start;fill:#009d73;stroke-width:1.33333004;text-rendering:geometricPrecision"
     d="m 58.496048,114.38326 v -7.60321 h 0.848826 v 0.71426 q 0.300195,-0.41924 0.678026,-0.62627 0.377831,-0.21221 0.916111,-0.21221 0.703904,0 1.242184,0.36231 0.53828,0.3623 0.812596,1.0248 0.274316,0.65732 0.274316,1.44404 0,0.84365 -0.305371,1.52167 -0.300194,0.67285 -0.87988,1.03516 -0.574511,0.35713 -1.21113,0.35713 -0.465819,0 -0.838475,-0.19668 -0.367479,-0.19668 -0.605565,-0.49688 v 2.67588 z m 0.84365,-4.82382 q 0,1.06103 0.429589,1.56826 0.429589,0.50722 1.04033,0.50722 0.621092,0 1.061032,-0.52275 0.445116,-0.52793 0.445116,-1.63037 0,-1.05068 -0.434764,-1.57343 -0.429589,-0.52275 -1.029978,-0.52275 -0.595214,0 -1.055857,0.55898 -0.455468,0.55381 -0.455468,1.61484 z" />
  <path
     inkscape:connector-curvature="0"
     id="path1230"
     style="font-size:7.94998026px;font-family:Arial;text-anchor:start;fill:#009d73;stroke-width:1.33333004;text-rendering:geometricPrecision"
     d="m 67.699858,114.00516 v 0.67155 h -3.76149 q -0.0078,-0.25232 0.08152,-0.48523 0.143628,-0.3843 0.458056,-0.75695 0.31831,-0.37266 0.916111,-0.86177 0.927756,-0.76084 1.25383,-1.20336 0.326073,-0.44641 0.326073,-0.84236 0,-0.41536 -0.2989,-0.69873 -0.295019,-0.28725 -0.772484,-0.28725 -0.504637,0 -0.80742,0.30278 -0.302782,0.30278 -0.306664,0.83847 l -0.718138,-0.0738 q 0.07375,-0.80354 0.555101,-1.22278 0.481347,-0.42312 1.292648,-0.42312 0.819066,0 1.29653,0.45418 0.477465,0.45417 0.477465,1.12573 0,0.3416 -0.139746,0.67155 -0.139745,0.32996 -0.465819,0.69485 -0.322191,0.36489 -1.075266,1.00151 -0.628856,0.52793 -0.80742,0.71814 -0.178564,0.18633 -0.295018,0.37654 z" />
  <path
     inkscape:connector-curvature="0"
     id="path1232"
     style="font-size:10.59997368px;font-family:Arial;text-anchor:start;fill:#009d73;stroke-width:1.33333004;text-rendering:geometricPrecision"
     d="m 68.335185,112.27672 v -0.93164 l 3.887002,-4.86005 q 0.414061,-0.51757 0.786717,-0.90058 h -4.233779 v -0.89541 h 5.434557 v 0.89541 l -4.259658,5.26376 -0.460643,0.5331 H 74.3339 v 0.89541 z" />
  <path
     inkscape:connector-curvature="0"
     id="path1234"
     style="font-size:10.59997368px;font-family:Arial;text-anchor:start;fill:#009d73;stroke-width:1.33333004;text-rendering:geometricPrecision"
     d="m 75.291416,112.27672 v -5.49667 h 0.838474 v 0.8333 q 0.320898,-0.58486 0.590038,-0.77119 0.274316,-0.18633 0.600389,-0.18633 0.470995,0 0.957517,0.3002 l -0.320897,0.86435 q -0.341601,-0.20185 -0.683202,-0.20185 -0.30537,0 -0.548631,0.18632 -0.243261,0.18116 -0.346777,0.50723 -0.155273,0.49687 -0.155273,1.08691 v 2.87773 z" />
  <path
     inkscape:connector-curvature="0"
     id="path1236"
     style="font-size:10.59997368px;font-family:Arial;text-anchor:start;fill:#009d73;stroke-width:1.33333004;text-rendering:geometricPrecision"
     d="m 80.622458,114.50747 q -0.77119,-0.97304 -1.304294,-2.27733 -0.533104,-1.3043 -0.533104,-2.70175 0,-1.23184 0.398534,-2.36016 0.465819,-1.30946 1.438864,-2.60858 h 0.667674 q -0.626268,1.07656 -0.828123,1.5372 -0.315722,0.71426 -0.496874,1.49062 -0.222558,0.96787 -0.222558,1.94609 0,2.48955 1.547555,4.97391 z" />
  <path
     inkscape:connector-curvature="0"
     id="path1238"
     style="font-size:10.59997368px;font-family:Arial;text-anchor:start;fill:#009d73;stroke-width:1.33333004;text-rendering:geometricPrecision"
     d="m 82.532317,112.27672 v -7.58768 h 1.004099 v 3.11581 h 3.943935 v -3.11581 h 1.004099 v 7.58768 h -1.004099 v -3.57646 h -3.943935 v 3.57646 z" />
  <path
     inkscape:connector-curvature="0"
     id="path1240"
     style="font-size:10.59997368px;font-family:Arial;text-anchor:start;fill:#009d73;stroke-width:1.33333004;text-rendering:geometricPrecision"
     d="m 90.653097,114.50747 h -0.667674 q 1.547555,-2.48436 1.547555,-4.97391 0,-0.97304 -0.222558,-1.93056 -0.175976,-0.77637 -0.491698,-1.49062 -0.201855,-0.46582 -0.833299,-1.55273 h 0.667674 q 0.973045,1.29912 1.438864,2.60858 0.398534,1.12832 0.398534,2.36016 0,1.39745 -0.53828,2.70175 -0.533104,1.30429 -1.299118,2.27733 z" />
  <path
     inkscape:connector-curvature="0"
     id="path1242"
     style="font-size:10.59997368px;font-family:Arial;text-anchor:start;fill:#009d73;stroke-width:1.33333004;text-rendering:geometricPrecision"
     d="m 99.115479,109.61637 1.004101,0.25362 q -0.315724,1.237 -1.138671,1.88915 -0.817771,0.64697 -2.003022,0.64697 -1.226657,0 -1.997847,-0.49687 -0.766014,-0.50205 -1.169724,-1.44922 -0.398534,-0.94716 -0.398534,-2.03407 0,-1.18525 0.450292,-2.06514 0.455468,-0.88505 1.288766,-1.34052 0.838475,-0.46064 1.842574,-0.46064 1.138669,0 1.915034,0.57968 0.776366,0.57969 1.081736,1.63037 l -0.988572,0.23291 q -0.263964,-0.82812 -0.766014,-1.20595 -0.502049,-0.37783 -1.262887,-0.37783 -0.874705,0 -1.464743,0.41923 -0.584861,0.41924 -0.822947,1.12832 -0.238085,0.7039 -0.238085,1.45439 0,0.96787 0.279491,1.69248 0.284668,0.71943 0.879881,1.07656 0.595213,0.35712 1.288766,0.35712 0.843651,0 1.428512,-0.48652 0.584862,-0.48652 0.791893,-1.44404 z" />
  <path
     inkscape:connector-curvature="0"
     id="path1244"
     style="font-size:10.59997368px;font-family:Arial;text-anchor:start;fill:#009d73;stroke-width:1.33333004;text-rendering:geometricPrecision"
     d="m 101.22202,112.27672 v -7.58768 h 0.93164 v 7.58768 z" />
  <path
     inkscape:connector-curvature="0"
     id="path1246"
     style="font-size:10.59997368px;font-family:Arial;text-anchor:start;fill:#000000;stroke-width:1.33333004;text-rendering:geometricPrecision"
     d="m 43.092962,128.67703 v 0.89541 h -5.01532 q -0.01035,-0.33643 0.108691,-0.64697 0.191504,-0.5124 0.610741,-1.00928 0.424413,-0.49687 1.221481,-1.14902 1.237009,-1.01445 1.671773,-1.60449 0.434765,-0.59521 0.434765,-1.12314 0,-0.55381 -0.398534,-0.93164 -0.393359,-0.383 -1.029978,-0.383 -0.67285,0 -1.07656,0.40371 -0.40371,0.40371 -0.408886,1.11796 l -0.957517,-0.0983 q 0.09834,-1.07138 0.740135,-1.63036 0.641795,-0.56416 1.723531,-0.56416 1.092087,0 1.728707,0.60556 0.636619,0.60557 0.636619,1.50097 0,0.45547 -0.186328,0.89541 -0.186327,0.43994 -0.621092,0.92647 -0.429589,0.48652 -1.433688,1.33534 -0.838474,0.70391 -1.076559,0.95752 -0.238086,0.24844 -0.393359,0.50205 z" />
  <path
     inkscape:connector-curvature="0"
     id="path1248"
     style="font-size:10.59997368px;font-family:Arial;text-anchor:start;fill:#000000;stroke-width:1.33333004;text-rendering:geometricPrecision"
     d="m 44.96659,131.80319 h -0.667674 q 1.547554,-2.48436 1.547554,-4.97391 0,-0.97304 -0.222558,-1.93056 -0.175976,-0.77637 -0.491698,-1.49062 -0.201855,-0.46582 -0.833298,-1.55273 h 0.667674 q 0.973044,1.29912 1.438863,2.60858 0.398534,1.12832 0.398534,2.36015 0,1.39746 -0.538279,2.70176 -0.533105,1.30429 -1.299118,2.27733 z" />
  <path
     inkscape:connector-curvature="0"
     id="path1250"
     style="font-size:10.59997368px;font-family:Arial;text-anchor:start;fill:#000000;stroke-width:1.33333004;text-rendering:geometricPrecision"
     d="m 52.699187,129.6172 v -6.69227 h -2.499896 v -0.89541 h 6.014243 v 0.89541 h -2.510248 v 6.69227 z" />
  <path
     inkscape:connector-curvature="0"
     id="path1252"
     style="font-size:10.59997368px;font-family:Arial;text-anchor:start;fill:#000000;stroke-width:1.33333004;text-rendering:geometricPrecision"
     d="m 57.300445,129.6172 v -7.58768 h 5.118835 v 0.89541 h -4.114736 v 2.3498 h 3.560929 v 0.89541 h -3.560929 v 3.44706 z" />
  <path
     inkscape:connector-curvature="0"
     id="path1254"
     style="font-size:10.59997368px;font-family:Arial;text-anchor:start;fill:#000000;stroke-width:1.33333004;text-rendering:geometricPrecision"
     d="m 62.504096,129.6172 2.913958,-7.58767 h 1.081735 l 3.105461,7.58767 h -1.143844 l -0.885057,-2.29804 h -3.172746 l -0.833299,2.29804 z m 2.18935,-3.11581 h 2.572357 l -0.791893,-2.10136 q -0.362303,-0.95752 -0.538279,-1.57344 -0.144922,0.72979 -0.408886,1.44922 z" />
  <g
     aria-label="R1"
     style="font-size:15.99995995px;text-anchor:end;stroke-width:1.33333004;text-rendering:geometricPrecision"
     id="text32">
    <path
       d="m 112.19774,130.86333 v -7.58768 h 3.36425 q 1.01445,0 1.54238,0.20703 0.52793,0.20186 0.84365,0.71943 0.31572,0.51758 0.31572,1.14385 0,0.80742 -0.52275,1.36123 -0.52276,0.5538 -1.61484,0.7039 0.39853,0.1915 0.60556,0.37783 0.43994,0.40371 0.8333,1.00928 l 1.31982,2.06513 h -1.26289 l -1.00409,-1.57861 q -0.43994,-0.6832 -0.72461,-1.04551 -0.28467,-0.3623 -0.5124,-0.50722 -0.22256,-0.14492 -0.45547,-0.20186 -0.1708,-0.0362 -0.55898,-0.0362 h -1.16455 v 3.36943 z m 1.0041,-4.23896 h 2.15829 q 0.68838,0 1.07656,-0.13974 0.38819,-0.14492 0.59004,-0.45547 0.20186,-0.31572 0.20186,-0.6832 0,-0.53828 -0.39336,-0.88506 -0.38819,-0.34677 -1.23184,-0.34677 h -2.40155 z"
       style="font-size:10.59997368px;font-family:Arial;fill:#000000;stroke-width:1.33333004"
       id="path1217"
       inkscape:connector-curvature="0" />
    <path
       d="m 121.98641,126.54334 h -0.69873 v -4.45246 q -0.25232,0.24068 -0.66379,0.48135 -0.40759,0.24067 -0.73367,0.36101 v -0.67544 q 0.58616,-0.27561 1.02481,-0.66767 0.43864,-0.39207 0.62109,-0.76084 h 0.45029 z"
       style="font-size:7.94998026px;font-family:Arial;fill:#000000;stroke-width:1.33333004"
       id="path1219"
       inkscape:connector-curvature="0" />
  </g>
  <path
     style="fill:#000000;fill-rule:evenodd;stroke:#000000;stroke-width:0;stroke-linejoin:miter;shape-rendering:geometricPrecision"
     inkscape:connector-curvature="0"
     id="path36"
     d="m 123.6632,122.22336 v 0 l -0.16,-0.30667 -0.17333,-0.29333 4.83998,-2.78666 0.33334,0.2 v 0.38667 z" />
  <g
     aria-label="N"
     style="font-size:15.99995995px;text-anchor:start;stroke-width:1.33333004;text-rendering:geometricPrecision"
     id="text41">
    <path
       d="m 138.76392,130.86333 v -7.58768 h 1.02997 l 3.98535,5.95731 v -5.95731 h 0.96269 v 7.58768 h -1.02998 l -3.98534,-5.96249 v 5.96249 z"
       style="font-size:10.59997368px;font-family:Arial;fill:#000000;stroke-width:1.33333004"
       id="path1214"
       inkscape:connector-curvature="0" />
  </g>
  <path
     style="fill:#000000;fill-rule:evenodd;stroke:#000000;stroke-width:0;stroke-linejoin:miter;shape-rendering:geometricPrecision"
     inkscape:connector-curvature="0"
     id="path45"
     d="m 128.50319,119.42337 v 0 -0.38667 l 0.34666,-0.2 8.61331,4.97332 -0.17333,0.29334 -0.16,0.29333 z" />
  <path
     style="stroke:#000000;stroke-width:0.67999828;shape-rendering:auto"
     d="m 131.26317,117.43671 7.41333,4.27999"
     id="line47" />
  <path
     style="fill:#000000;fill-rule:evenodd;stroke:#000000;stroke-width:0;stroke-linejoin:miter;shape-rendering:geometricPrecision"
     inkscape:connector-curvature="0"
     id="path51"
     d="m 146.46314,124.39669 v 0 l -0.16,-0.29333 -0.17333,-0.29334 4.33332,-2.50666 0.16,0.30667 0.17333,0.29333 z" />
  <g
     aria-label="R2"
     style="font-size:15.99995995px;text-anchor:start;stroke-width:1.33333004;text-rendering:geometricPrecision"
     id="text59">
    <path
       d="m 152.0831,123.19669 v -7.58767 h 3.36425 q 1.01445,0 1.54238,0.20703 0.52793,0.20185 0.84365,0.71943 0.31572,0.51758 0.31572,1.14384 0,0.80742 -0.52275,1.36123 -0.52275,0.55381 -1.61484,0.70391 0.39853,0.1915 0.60556,0.37783 0.43994,0.40371 0.8333,1.00927 l 1.31982,2.06513 h -1.26288 l -1.0041,-1.57861 q -0.43994,-0.6832 -0.72461,-1.0455 -0.28467,-0.3623 -0.5124,-0.50723 -0.22256,-0.14492 -0.45547,-0.20185 -0.1708,-0.0362 -0.55898,-0.0362 h -1.16455 v 3.36942 z m 1.0041,-4.23895 h 2.15829 q 0.68838,0 1.07656,-0.13975 0.38819,-0.14492 0.59004,-0.45546 0.20186,-0.31573 0.20186,-0.68321 0,-0.53828 -0.39336,-0.88505 -0.38818,-0.34678 -1.23183,-0.34678 h -2.40156 z"
       style="font-size:10.59997368px;font-family:Arial;fill:#000000;stroke-width:1.33333004"
       id="path1208"
       inkscape:connector-curvature="0" />
    <path
       d="m 162.9121,118.20515 v 0.67155 h -3.76149 q -0.008,-0.25231 0.0815,-0.48522 0.14363,-0.3843 0.45806,-0.75696 0.31831,-0.37266 0.91611,-0.86177 0.92775,-0.76083 1.25383,-1.20336 0.32607,-0.44641 0.32607,-0.84236 0,-0.41535 -0.2989,-0.69873 -0.29502,-0.28725 -0.77248,-0.28725 -0.50464,0 -0.80742,0.30278 -0.30279,0.30278 -0.30667,0.83847 l -0.71814,-0.0738 q 0.0738,-0.80354 0.55511,-1.22278 0.48134,-0.42311 1.29264,-0.42311 0.81907,0 1.29653,0.45417 0.47747,0.45417 0.47747,1.12573 0,0.3416 -0.13975,0.67156 -0.13974,0.32995 -0.46582,0.69484 -0.32219,0.36489 -1.07526,1.00151 -0.62886,0.52793 -0.80742,0.71814 -0.17857,0.18633 -0.29502,0.37654 z"
       style="font-size:7.94998026px;font-family:Arial;fill:#000000;stroke-width:1.33333004"
       id="path1210"
       inkscape:connector-curvature="0" />
  </g>
  <g
     aria-label="O"
     style="font-size:15.99995995px;text-anchor:start;stroke-width:1.33333004;text-rendering:geometricPrecision"
     id="text65">
    <path
       d="m 138.17556,142.51448 q 0,-1.88916 1.01445,-2.95537 1.01445,-1.07138 2.61894,-1.07138 1.05068,0 1.89433,0.50205 0.84365,0.50205 1.28359,1.40263 0.44512,0.89541 0.44512,2.03408 0,1.1542 -0.46582,2.06513 -0.46582,0.91094 -1.31982,1.38193 -0.854,0.46582 -1.84257,0.46582 -1.07139,0 -1.91504,-0.51758 -0.84365,-0.51757 -1.27841,-1.41298 -0.43477,-0.89541 -0.43477,-1.89433 z m 1.03516,0.0155 q 0,1.37158 0.73496,2.16348 0.74013,0.78671 1.85292,0.78671 1.13349,0 1.86328,-0.79707 0.73496,-0.79706 0.73496,-2.26181 0,-0.92646 -0.31572,-1.61484 -0.31055,-0.69355 -0.91612,-1.07138 -0.60039,-0.38301 -1.35087,-0.38301 -1.06621,0 -1.8374,0.73496 -0.76601,0.72979 -0.76601,2.44296 z"
       style="font-size:10.59997368px;font-family:Arial;fill:#cc78a6;stroke-width:1.33333004"
       id="path1205"
       inkscape:connector-curvature="0" />
  </g>
  <path
     style="fill:#cc78a6;fill-rule:evenodd;stroke:#cc78a6;stroke-width:0;stroke-linejoin:miter;shape-rendering:geometricPrecision"
     inkscape:connector-curvature="0"
     id="path69"
     d="m 141.46315,130.23667 v 0 h 0.33334 0.34666 v 6.53332 h -0.34666 -0.33334 z" />
  <path
     style="fill:none;stroke:#000000;stroke-width:0.54399866"
     d="m 152.81868,131.81001 a 3.5555468,3.5555468 0 0 1 -3.55554,3.55555 3.5555468,3.5555468 0 0 1 -3.55555,-3.55555 3.5555468,3.5555468 0 0 1 3.55555,-3.55554 3.5555468,3.5555468 0 0 1 3.55554,3.55554 z"
     id="circle73" />
  <path
     style="stroke:#000000;stroke-width:0.54399866;shape-rendering:auto"
     d="m 147.14314,131.81001 h 4.23998"
     id="line75" />
  <path
     style="stroke:#000000;stroke-width:0.54399866;shape-rendering:auto"
     d="m 149.26314,129.69002 v 4.23997"
     id="line77" />
  <path
     style="fill:none;stroke:#cc78a6;stroke-width:0.54399866"
     d="m 152.65868,145.91664 a 3.5555468,3.5555468 0 0 1 -3.55555,3.55555 3.5555468,3.5555468 0 0 1 -3.55554,-3.55555 3.5555468,3.5555468 0 0 1 3.55554,-3.55555 3.5555468,3.5555468 0 0 1 3.55555,3.55555 z"
     id="circle80" />
  <path
     style="stroke:#cc78a6;stroke-width:0.54399866;shape-rendering:auto"
     d="m 146.98314,145.91664 h 4.23999"
     id="line82" />
  <g
     aria-label="R1"
     style="font-size:15.99995995px;text-anchor:end;stroke-width:1.33333004;text-rendering:geometricPrecision"
     id="text89">
    <path
       d="m -22.535251,133.06334 v -7.58768 h 3.364249 q 1.014451,0 1.542379,0.20703 0.527929,0.20186 0.843651,0.71944 0.315721,0.51757 0.315721,1.14384 0,0.80742 -0.522752,1.36123 -0.522753,0.5538 -1.61484,0.7039 0.398534,0.19151 0.605565,0.37783 0.43994,0.40371 0.833299,1.00928 l 1.319821,2.06513 h -1.262888 l -1.004099,-1.57861 q -0.43994,-0.6832 -0.724608,-1.04551 -0.284667,-0.3623 -0.512401,-0.50722 -0.222558,-0.14492 -0.455467,-0.20186 -0.170801,-0.0362 -0.558983,-0.0362 h -1.164548 v 3.36943 z m 1.004099,-4.23896 h 2.158295 q 0.688378,0 1.07656,-0.13974 0.388183,-0.14492 0.590038,-0.45547 0.201855,-0.31572 0.201855,-0.6832 0,-0.53828 -0.393359,-0.88506 -0.388182,-0.34677 -1.231833,-0.34677 h -2.401556 z"
       style="font-size:10.59997368px;font-family:Arial;fill:#000000;stroke-width:1.33333004"
       id="path1195"
       inkscape:connector-curvature="0" />
    <path
       d="m -12.746579,128.74335 h -0.698729 v -4.45245 q -0.252319,0.24067 -0.663792,0.48134 -0.407592,0.24067 -0.733665,0.36101 v -0.67544 q 0.586155,-0.27561 1.024802,-0.66767 0.438646,-0.39206 0.621092,-0.76084 h 0.450292 z"
       style="font-size:7.94998026px;font-family:Arial;fill:#000000;stroke-width:1.33333004"
       id="path1197"
       inkscape:connector-curvature="0" />
  </g>
  <path
     style="fill:#000000;fill-rule:evenodd;stroke:#000000;stroke-width:0;stroke-linejoin:miter;shape-rendering:geometricPrecision"
     inkscape:connector-curvature="0"
     id="path93"
     d="m -11.003132,124.37002 v 0 l -0.159999,-0.29333 -0.173333,-0.29333 5.1066539,-2.94666 v 0.38666 0.38667 z" />
  <g
     aria-label="N"
     style="font-size:15.99995995px;text-anchor:start;stroke-width:1.33333004;text-rendering:geometricPrecision"
     id="text99">
    <path
       d="m 4.0309196,133.06334 v -7.58768 h 1.029978 l 3.9853416,5.95731 v -5.95731 h 0.9626928 v 7.58768 H 8.9789542 l -3.9853416,-5.96249 v 5.96249 z"
       style="font-size:10.59997368px;font-family:Arial;fill:#000000;stroke-width:1.33333004"
       id="path1192"
       inkscape:connector-curvature="0" />
  </g>
  <path
     style="fill:#000000;fill-rule:evenodd;stroke:#000000;stroke-width:0;stroke-linejoin:miter;shape-rendering:geometricPrecision"
     inkscape:connector-curvature="0"
     id="path103"
     d="m -6.2298101,121.61003 v 0 -0.38667 -0.38666 l 9.0266441,5.21332 -0.1733329,0.29333 -0.1599996,0.29333 z" />
  <g
     aria-label="O"
     style="font-size:15.99995995px;text-anchor:start;stroke-width:1.33333004;text-rendering:geometricPrecision"
     id="text109">
    <path
       d="m -9.8507324,106.35456 q 0,-1.88916 1.0144506,-2.95537 1.0144507,-1.07138 2.6189389,-1.07138 1.0506809,0 1.8943312,0.50205 0.8436502,0.50205 1.2835906,1.40263 0.445116,0.89541 0.445116,2.03408 0,1.1542 -0.4658191,2.06513 -0.4658192,0.91094 -1.319821,1.38193 -0.8540017,0.46582 -1.8425735,0.46582 -1.0713841,0 -1.9150343,-0.51758 -0.8436503,-0.51757 -1.2784148,-1.41298 -0.4347646,-0.89541 -0.4347646,-1.89433 z m 1.0351537,0.0155 q 0,1.37157 0.7349591,2.16347 0.7401349,0.78671 1.8529251,0.78671 1.1334933,0 1.8632766,-0.79707 0.7349592,-0.79706 0.7349592,-2.26181 0,-0.92646 -0.3157219,-1.61484 -0.3105461,-0.69355 -0.916111,-1.07138 -0.6003892,-0.38301 -1.3508756,-0.38301 -1.0662083,0 -1.8373978,0.73496 -0.7660137,0.72979 -0.7660137,2.44297 z"
       style="font-size:10.59997368px;font-family:Arial;fill:#000000;stroke-width:1.33333004"
       id="path1189"
       inkscape:connector-curvature="0" />
  </g>
  <path
     style="stroke:#000000;stroke-width:0.67999828;shape-rendering:auto"
     d="m -7.6164732,121.22337 v -9.25332"
     id="line113" />
  <path
     style="fill:#000000;fill-rule:evenodd;stroke:#000000;stroke-width:0;stroke-linejoin:miter;shape-rendering:geometricPrecision"
     inkscape:connector-curvature="0"
     id="path115"
     d="m -5.1898127,121.4367 v 0 l 0.6799983,0.38666 v -9.85331 h -0.6799983 z" />
  <path
     style="fill:#000000;fill-rule:evenodd;stroke:#000000;stroke-width:0;stroke-linejoin:miter;shape-rendering:geometricPrecision"
     inkscape:connector-curvature="0"
     id="path117"
     d="m -7.9498058,121.82336 v 0 l 0.6799983,-0.38666 v -9.46665 h -0.6799983 z" />
  <g
     aria-label="R2"
     style="font-size:15.99995995px;text-anchor:start;stroke-width:1.33333004;text-rendering:geometricPrecision"
     id="text125">
    <path
       d="m 17.350097,125.39668 v -7.58767 h 3.364249 q 1.014451,0 1.542379,0.20703 0.527929,0.20185 0.84365,0.71943 0.315722,0.51758 0.315722,1.14384 0,0.80742 -0.522752,1.36123 -0.522753,0.55381 -1.61484,0.70391 0.398534,0.1915 0.605565,0.37783 0.43994,0.40371 0.833299,1.00927 l 1.319821,2.06513 h -1.262888 l -1.004099,-1.57861 q -0.43994,-0.6832 -0.724608,-1.0455 -0.284667,-0.36231 -0.512401,-0.50723 -0.222558,-0.14492 -0.455467,-0.20185 -0.170801,-0.0362 -0.558983,-0.0362 h -1.164548 v 3.36942 z m 1.004099,-4.23895 h 2.158295 q 0.688377,0 1.07656,-0.13975 0.388183,-0.14492 0.590038,-0.45546 0.201855,-0.31573 0.201855,-0.68321 0,-0.53828 -0.393359,-0.88505 -0.388182,-0.34678 -1.231833,-0.34678 h -2.401556 z"
       style="font-size:10.59997368px;font-family:Arial;fill:#000000;stroke-width:1.33333004"
       id="path1183"
       inkscape:connector-curvature="0" />
    <path
       d="m 28.179098,120.40514 v 0.67155 h -3.76149 q -0.0078,-0.25232 0.08152,-0.48522 0.143627,-0.38431 0.458055,-0.75696 0.31831,-0.37266 0.916111,-0.86177 0.927757,-0.76083 1.25383,-1.20336 0.326074,-0.44641 0.326074,-0.84236 0,-0.41535 -0.298901,-0.69873 -0.295019,-0.28725 -0.772483,-0.28725 -0.504638,0 -0.80742,0.30278 -0.302783,0.30278 -0.306665,0.83847 l -0.718137,-0.0738 q 0.07375,-0.80354 0.555101,-1.22278 0.481346,-0.42311 1.292648,-0.42311 0.819065,0 1.29653,0.45417 0.477464,0.45417 0.477464,1.12573 0,0.3416 -0.139745,0.67155 -0.139746,0.32996 -0.465819,0.69485 -0.322192,0.36489 -1.075266,1.00151 -0.628856,0.52793 -0.80742,0.71814 -0.178564,0.18633 -0.295019,0.37654 z"
       style="font-size:7.94998026px;font-family:Arial;fill:#000000;stroke-width:1.33333004"
       id="path1185"
       inkscape:connector-curvature="0" />
  </g>
  <path
     style="fill:#000000;fill-rule:evenodd;stroke:#000000;stroke-width:0;stroke-linejoin:miter;shape-rendering:geometricPrecision"
     inkscape:connector-curvature="0"
     id="path129"
     d="m 11.796812,126.55668 v 0 l -0.16,-0.29333 -0.173333,-0.30667 4.333322,-2.49332 0.16,0.29333 0.173333,0.29333 z" />
  <g
     aria-label="OTBS"
     style="font-size:15.99995995px;text-anchor:start;stroke-width:1.33333004;text-rendering:geometricPrecision"
     id="text135">
    <path
       d="m 3.4292354,144.71446 q 0,-1.88916 1.0144506,-2.95536 1.0144506,-1.07139 2.6189388,-1.07139 1.050681,0 1.8943313,0.50205 0.8436502,0.50205 1.2835909,1.40263 0.445116,0.89541 0.445116,2.03408 0,1.1542 -0.465819,2.06513 -0.4658196,0.91094 -1.3198214,1.38193 -0.8540018,0.46582 -1.8425735,0.46582 -1.0713841,0 -1.9150343,-0.51757 Q 4.2987645,147.5042 3.864,146.60879 3.4292354,145.71338 3.4292354,144.71446 Z m 1.0351537,0.0155 q 0,1.37158 0.7349591,2.16347 0.7401349,0.78671 1.8529251,0.78671 1.1334933,0 1.8632766,-0.79706 0.7349591,-0.79707 0.7349591,-2.26181 0,-0.92647 -0.3157218,-1.61484 -0.3105461,-0.69356 -0.916111,-1.07139 -0.6003892,-0.38301 -1.3508756,-0.38301 -1.0662083,0 -1.8373978,0.73496 -0.7660137,0.72979 -0.7660137,2.44297 z"
       style="font-size:10.59997368px;font-family:Arial;fill:#cc78a6;stroke-width:1.33333004"
       id="path1174"
       inkscape:connector-curvature="0" />
    <path
       d="m 13.904991,148.40996 v -6.69227 h -2.499896 v -0.89541 h 6.014242 v 0.89541 H 14.90909 v 6.69227 z"
       style="font-size:10.59997368px;font-family:Arial;fill:#cc78a6;stroke-width:1.33333004"
       id="path1176"
       inkscape:connector-curvature="0" />
    <path
       d="m 18.413084,148.40996 v -7.58768 h 2.846673 q 0.869529,0 1.392282,0.23291 0.527928,0.22773 0.822947,0.70908 0.300195,0.47617 0.300195,0.99892 0,0.48653 -0.263965,0.91612 -0.263964,0.42958 -0.797068,0.69355 0.688377,0.20185 1.055857,0.68838 0.372655,0.48652 0.372655,1.14902 0,0.5331 -0.227734,0.99374 -0.222558,0.45547 -0.553807,0.70391 -0.331249,0.24844 -0.833299,0.37783 -0.496873,0.12422 -1.221481,0.12422 z m 1.0041,-4.39941 h 1.640718 q 0.667674,0 0.957517,-0.088 0.383007,-0.11387 0.574511,-0.37783 0.196679,-0.26397 0.196679,-0.6625 0,-0.37783 -0.181152,-0.6625 -0.181152,-0.28984 -0.517577,-0.39336 -0.336425,-0.10869 -1.154196,-0.10869 h -1.5165 z m 0,3.504 h 1.889155 q 0.486522,0 0.683201,-0.0362 0.346777,-0.0621 0.579687,-0.20703 0.232909,-0.14492 0.383006,-0.41924 0.150098,-0.27949 0.150098,-0.64179 0,-0.42442 -0.217383,-0.73496 -0.217382,-0.31572 -0.605565,-0.43994 -0.383006,-0.1294 -1.107614,-0.1294 h -1.754585 z"
       style="font-size:10.59997368px;font-family:Arial;fill:#cc78a6;stroke-width:1.33333004"
       id="path1178"
       inkscape:connector-curvature="0" />
    <path
       d="m 25.193342,145.97217 0.947166,-0.0828 q 0.06728,0.56933 0.310546,0.93681 0.248436,0.36231 0.766013,0.59004 0.517577,0.22256 1.164548,0.22256 0.574511,0 1.014451,-0.1708 0.43994,-0.1708 0.652147,-0.46582 0.217382,-0.3002 0.217382,-0.65215 0,-0.35713 -0.207031,-0.62109 -0.207031,-0.26914 -0.683201,-0.45029 -0.305371,-0.11904 -1.350876,-0.36748 -1.045505,-0.25361 -1.464742,-0.47617 -0.543456,-0.28467 -0.812596,-0.70391 -0.263964,-0.42441 -0.263964,-0.94716 0,-0.57451 0.326073,-1.07139 0.326074,-0.50205 0.952342,-0.76083 0.626268,-0.25879 1.392281,-0.25879 0.843651,0 1.485446,0.27431 0.646971,0.26914 0.993747,0.79707 0.346777,0.52793 0.372656,1.1956 l -0.962693,0.0725 q -0.07764,-0.71943 -0.527929,-1.08691 -0.445116,-0.36748 -1.31982,-0.36748 -0.910936,0 -1.330173,0.33643 -0.414061,0.33125 -0.414061,0.80224 0,0.40889 0.295018,0.67285 0.289843,0.26397 1.511325,0.54346 1.226657,0.27431 1.682125,0.48134 0.662498,0.30538 0.97822,0.77637 0.315722,0.46582 0.315722,1.07656 0,0.60556 -0.346777,1.14384 -0.346776,0.53311 -0.998923,0.8333 -0.646971,0.29502 -1.459567,0.29502 -1.029978,0 -1.728707,-0.30019 -0.693552,-0.3002 -1.092087,-0.90059 -0.393358,-0.60556 -0.414061,-1.3664 z"
       style="font-size:10.59997368px;font-family:Arial;fill:#cc78a6;stroke-width:1.33333004"
       id="path1180"
       inkscape:connector-curvature="0" />
  </g>
  <path
     style="fill:#cc78a6;fill-rule:evenodd;stroke:#cc78a6;stroke-width:0;stroke-linejoin:miter;shape-rendering:geometricPrecision"
     inkscape:connector-curvature="0"
     id="path139"
     d="m 6.7168242,134.90333 v 0 h 0.3333325 0.3466658 v 4.13332 H 7.0501567 6.7168242 Z" />
  <path
     style="fill:#009d73;fill-rule:evenodd;stroke:#009d73;stroke-width:0;stroke-linejoin:miter;shape-rendering:geometricPrecision"
     inkscape:connector-curvature="0"
     id="path143"
     d="m 128.84985,118.8367 v 0 l -0.34666,0.2 -0.33334,-0.2 v -9.13331 h 0.33334 0.34666 z" />
  <g
     aria-label="H"
     style="font-size:15.99995995px;text-anchor:start;stroke-width:1.33333004;text-rendering:geometricPrecision"
     id="text149">
    <path
       d="m 125.49071,107.89006 v -7.6354 h 1.01041 v 3.13541 h 3.96874 v -3.13541 h 1.01042 v 7.6354 h -1.01042 v -3.59895 h -3.96874 v 3.59895 z"
       style="font-size:10.66664028px;font-family:Arial;fill:#009d73;stroke-width:1.33333004"
       id="path1171"
       inkscape:connector-curvature="0" />
  </g>
  <text
     xml:space="preserve"
     style="font-style:normal;font-variant:normal;font-weight:normal;font-stretch:normal;font-size:10.66666698px;line-height:1.25;font-family:Arial;-inkscape-font-specification:Arial;text-align:start;letter-spacing:0px;word-spacing:0px;text-anchor:start;fill:#000000;fill-opacity:1;stroke:none"
     x="-21.765779"
     y="152.77422"
     id="text1277"><tspan
       sodipodi:role="line"
       id="tspan1275"
       x="-21.765779"
       y="152.77422">\cmpd{notbs-amide-tert}</tspan></text>
  <text
     xml:space="preserve"
     style="font-style:normal;font-variant:normal;font-weight:normal;font-stretch:normal;font-size:10.66666698px;line-height:1.25;font-family:Arial;-inkscape-font-specification:Arial;text-align:start;letter-spacing:0px;word-spacing:0px;text-anchor:start;fill:#000000;fill-opacity:1;stroke:none"
     x="111.89389"
     y="152.77422"
     id="text1277-0"><tspan
       sodipodi:role="line"
       id="tspan1275-1"
       x="111.89389"
       y="152.77422">\cmpd{nitrone}</tspan></text>
</svg>
