<?xml version="1.0" encoding="UTF-8" standalone="no"?>
<svg
   xmlns:dc="http://purl.org/dc/elements/1.1/"
   xmlns:cc="http://creativecommons.org/ns#"
   xmlns:rdf="http://www.w3.org/1999/02/22-rdf-syntax-ns#"
   xmlns:svg="http://www.w3.org/2000/svg"
   xmlns="http://www.w3.org/2000/svg"
   xmlns:sodipodi="http://sodipodi.sourceforge.net/DTD/sodipodi-0.dtd"
   xmlns:inkscape="http://www.inkscape.org/namespaces/inkscape"
   viewBox="1.82 83.54 617.80683 77.171753"
   preserveAspectRatio="xMidYMid"
   width="617.80676"
   height="77.171753"
   version="1.1"
   id="svg374"
   sodipodi:docname="oligophospinities.svg"
   inkscape:version="0.92.3 (2405546, 2018-03-11)">
  <metadata
     id="metadata380">
    <rdf:RDF>
      <cc:Work
         rdf:about="">
        <dc:format>image/svg+xml</dc:format>
        <dc:type
           rdf:resource="http://purl.org/dc/dcmitype/StillImage" />
        <dc:title></dc:title>
      </cc:Work>
    </rdf:RDF>
  </metadata>
  <defs
     id="defs378" />
  <sodipodi:namedview
     pagecolor="#ffffff"
     bordercolor="#666666"
     borderopacity="1"
     objecttolerance="10"
     gridtolerance="10"
     guidetolerance="10"
     inkscape:pageopacity="0"
     inkscape:pageshadow="2"
     inkscape:window-width="1920"
     inkscape:window-height="1017"
     id="namedview376"
     showgrid="false"
     inkscape:zoom="1.5578346"
     inkscape:cx="223.21002"
     inkscape:cy="71.563158"
     inkscape:window-x="-8"
     inkscape:window-y="-8"
     inkscape:window-maximized="1"
     inkscape:current-layer="svg374"
     fit-margin-left="0.5"
     fit-margin-right="0.5"
     fit-margin-top="0.5"
     fit-margin-bottom="0.5" />
  <clipPath
     id="9749">
    <rect
       x="0.255"
       y="0.255"
       width="465.98999"
       height="769.28998"
       id="rect2" />
  </clipPath>
  <g
     aria-label="O"
     style="text-anchor:start;text-rendering:geometricPrecision"
     id="text9"
     transform="matrix(1.33333,0,0,1.33333,0.91344879,-35.295174)">
    <path
       d="m 10.316719,132.84094 q 0,-1.42578 0.765625,-2.23047 0.765625,-0.80859 1.976563,-0.80859 0.792968,0 1.429687,0.37891 0.636719,0.3789 0.96875,1.05859 0.335938,0.67578 0.335938,1.53516 0,0.87109 -0.351563,1.55859 -0.351562,0.6875 -0.996094,1.04297 -0.644531,0.35156 -1.390625,0.35156 -0.808593,0 -1.445312,-0.39062 -0.636719,-0.39063 -0.964844,-1.06641 -0.328125,-0.67578 -0.328125,-1.42969 z m 0.78125,0.0117 q 0,1.03516 0.554688,1.63281 0.558593,0.59375 1.398437,0.59375 0.855469,0 1.40625,-0.60156 0.554688,-0.60156 0.554688,-1.70703 0,-0.69922 -0.238282,-1.21875 -0.234375,-0.52344 -0.691406,-0.80859 -0.453125,-0.28907 -1.019531,-0.28907 -0.804688,0 -1.386719,0.55469 -0.578125,0.55078 -0.578125,1.84375 z"
       style="font-size:8px;font-family:Arial;fill:#000000"
       id="path1937"
       inkscape:connector-curvature="0" />
  </g>
  <path
     style="fill:#000000;fill-rule:evenodd;stroke:#000000;stroke-width:0;stroke-linejoin:miter;shape-rendering:geometricPrecision"
     inkscape:connector-curvature="0"
     id="path13"
     d="m 3.3401088,121.01111 v 0 l 0.34667,0.25333 0.34666,0.25334 v 14.82663 l -0.34666,0.25333 -0.34667,0.25333 z" />
  <path
     style="fill:#000000;fill-rule:evenodd;stroke:#000000;stroke-width:0;stroke-linejoin:miter;shape-rendering:geometricPrecision"
     inkscape:connector-curvature="0"
     id="path16"
     d="m 3.3401088,136.85107 v 0 l 0.34667,-0.25333 0.34666,-0.25333 9.3333102,3.03999 -0.10667,0.33333 -0.10666,0.32 z" />
  <path
     style="fill:#000000;fill-rule:evenodd;stroke:#000000;stroke-width:0;stroke-linejoin:miter;shape-rendering:geometricPrecision"
     inkscape:connector-curvature="0"
     id="path20"
     d="m 21.793399,137.1044 v 0 l -0.28,-0.19999 -0.28,-0.2 5.63998,-7.77332 h 0.42667 0.42666 z" />
  <path
     style="fill:#000000;fill-rule:evenodd;stroke:#000000;stroke-width:0;stroke-linejoin:miter;shape-rendering:geometricPrecision"
     inkscape:connector-curvature="0"
     id="path24"
     d="m 27.726709,128.93109 v 0 h -0.42666 -0.42667 l -8.71997,-12.0133 0.13333,-0.4 0.13333,-0.4 z" />
  <path
     style="fill:#000000;fill-rule:evenodd;stroke:#000000;stroke-width:0;stroke-linejoin:miter;shape-rendering:geometricPrecision"
     inkscape:connector-curvature="0"
     id="path28"
     d="m 18.420069,116.11779 v 0 l -0.13333,0.4 -0.13333,0.4 -14.1199702,4.59999 -0.34666,-0.25334 -0.34667,-0.25333 z" />
  <path
     style="stroke:#000000;stroke-width:0.67999828;shape-rendering:auto"
     d="m 16.966739,116.09112 4.73332,-14.59996"
     id="line32"
     inkscape:connector-curvature="0" />
  <path
     style="fill:#000000;fill-rule:evenodd;stroke:#000000;stroke-width:0;stroke-linejoin:miter;shape-rendering:geometricPrecision"
     inkscape:connector-curvature="0"
     id="path34"
     d="m 19.166739,117.15779 v 0 l 0.50666,0.68 4.98666,-15.38664 -0.65334,-0.21333 z" />
  <path
     style="fill:#000000;fill-rule:evenodd;stroke:#000000;stroke-width:0;stroke-linejoin:miter;shape-rendering:geometricPrecision"
     inkscape:connector-curvature="0"
     id="path36"
     d="m 16.393409,116.77112 v 0 l 0.8,-0.25333 4.83999,-14.91997 -0.65334,-0.21333 z" />
  <g
     aria-label="O"
     style="text-anchor:start;text-rendering:geometricPrecision"
     id="text42"
     transform="matrix(1.33333,0,0,1.33333,0.91344879,-35.295174)">
    <path
       d="m 28.58672,123.53094 q 0,-1.42578 0.765625,-2.23047 0.765625,-0.8086 1.976562,-0.8086 0.792969,0 1.429688,0.37891 0.636718,0.37891 0.96875,1.05859 0.335937,0.67579 0.335937,1.53516 0,0.87109 -0.351562,1.55859 -0.351563,0.6875 -0.996094,1.04297 -0.644531,0.35157 -1.390625,0.35157 -0.808594,0 -1.445313,-0.39063 -0.636718,-0.39062 -0.964843,-1.06641 -0.328125,-0.67578 -0.328125,-1.42968 z m 0.78125,0.0117 q 0,1.03515 0.554687,1.63281 0.558594,0.59375 1.398438,0.59375 0.855468,0 1.40625,-0.60156 0.554687,-0.60157 0.554687,-1.70704 0,-0.69921 -0.238281,-1.21875 -0.234375,-0.52343 -0.691406,-0.80859 -0.453125,-0.28906 -1.019532,-0.28906 -0.804687,0 -1.386718,0.55469 -0.578125,0.55078 -0.578125,1.84375 z"
       style="font-size:8px;font-family:Arial;fill:#000000"
       id="path1933"
       inkscape:connector-curvature="0" />
  </g>
  <path
     style="stroke:#000000;stroke-width:0.67999828;shape-rendering:auto"
     d="m 27.300049,127.54443 h 10.01331"
     id="line46"
     inkscape:connector-curvature="0" />
  <path
     style="fill:#000000;fill-rule:evenodd;stroke:#000000;stroke-width:0;stroke-linejoin:miter;shape-rendering:geometricPrecision"
     inkscape:connector-curvature="0"
     id="path48"
     d="m 26.966719,129.97109 v 0 l -0.49334,0.68 h 10.83998 v -0.68 z" />
  <path
     style="fill:#000000;fill-rule:evenodd;stroke:#000000;stroke-width:0;stroke-linejoin:miter;shape-rendering:geometricPrecision"
     inkscape:connector-curvature="0"
     id="path50"
     d="m 26.473379,127.2111 v 0 l 0.49334,0.67999 h 10.34664 v -0.67999 z" />
  <path
     style="stroke:#000000;stroke-width:0.67999828;shape-rendering:auto"
     d="M 123.15315,127.55776 H 58.193299"
     id="line54"
     inkscape:connector-curvature="0" />
  <path
     style="fill:#000000;fill-rule:evenodd;stroke:#000000;stroke-width:0;stroke-linejoin:miter;stroke-miterlimit:5.89496231;shape-rendering:geometricPrecision"
     inkscape:connector-curvature="0"
     id="path56"
     stroke-miterlimit="5.89496254687647"
     d="m 127.76647,127.55776 -6.79998,-1.70666 c 1.43999,0.96 1.43999,2.45333 0,3.41332 z" />
  <g
     aria-label="[Cp2Zr(H)Cl]"
     style="text-anchor:start;text-rendering:geometricPrecision"
     id="text65"
     transform="matrix(1.33333,0,0,1.33333,0.91344879,-35.295174)">
    <path
       d="m 45.722969,119.26984 v -7.3164 h 1.550781 v 0.58203 h -0.847656 v 6.15234 h 0.847656 v 0.58203 z"
       style="font-size:8px;font-family:Arial;fill:#009d73"
       id="path1906"
       inkscape:connector-curvature="0" />
    <path
       d="m 52.101875,115.67219 0.757813,0.1914 q -0.238281,0.9336 -0.859375,1.42579 -0.617188,0.48828 -1.511719,0.48828 -0.925781,0 -1.507812,-0.375 -0.578125,-0.37891 -0.882813,-1.09375 -0.300781,-0.71485 -0.300781,-1.53516 0,-0.89453 0.339844,-1.55859 0.34375,-0.66797 0.972656,-1.01172 0.632812,-0.34766 1.390625,-0.34766 0.859375,0 1.445312,0.4375 0.585938,0.4375 0.816407,1.23047 l -0.746094,0.17578 q -0.199219,-0.625 -0.578125,-0.91015 -0.378906,-0.28516 -0.953125,-0.28516 -0.660156,0 -1.105469,0.31641 -0.441406,0.3164 -0.621094,0.85156 -0.179687,0.53125 -0.179687,1.09765 0,0.73047 0.210937,1.27735 0.214844,0.54297 0.664063,0.8125 0.449219,0.26953 0.972656,0.26953 0.636719,0 1.078125,-0.36719 0.441406,-0.36719 0.597656,-1.08984 z"
       style="font-size:8px;font-family:Arial;fill:#009d73"
       id="path1908"
       inkscape:connector-curvature="0" />
    <path
       d="m 53.707344,119.26984 v -5.73828 h 0.640625 v 0.53907 q 0.226563,-0.31641 0.511719,-0.47266 0.285156,-0.16016 0.691406,-0.16016 0.53125,0 0.9375,0.27344 0.40625,0.27344 0.613281,0.77344 0.207032,0.49609 0.207032,1.08984 0,0.63672 -0.230469,1.14844 -0.226563,0.50781 -0.664063,0.78125 -0.433593,0.26953 -0.914062,0.26953 -0.351563,0 -0.632813,-0.14844 -0.277343,-0.14843 -0.457031,-0.375 v 2.01953 z m 0.636719,-3.64062 q 0,0.80078 0.324219,1.18359 0.324218,0.38282 0.785156,0.38282 0.46875,0 0.800781,-0.39454 0.335938,-0.39843 0.335938,-1.23046 0,-0.79297 -0.328125,-1.1875 -0.324219,-0.39454 -0.777344,-0.39454 -0.449219,0 -0.796875,0.42188 -0.34375,0.41797 -0.34375,1.21875 z"
       style="font-size:8px;font-family:Arial;fill:#009d73"
       id="path1910"
       inkscape:connector-curvature="0" />
    <path
       d="M 60.653633,118.98316 V 119.49 h -2.838867 q -0.0059,-0.19043 0.06152,-0.36621 0.108399,-0.29004 0.345703,-0.57129 0.240235,-0.28125 0.691407,-0.65039 0.700195,-0.57422 0.946289,-0.9082 0.246094,-0.33692 0.246094,-0.63575 0,-0.31347 -0.225586,-0.52734 -0.222657,-0.2168 -0.583008,-0.2168 -0.38086,0 -0.609375,0.22852 -0.228516,0.22851 -0.231446,0.63281 l -0.541992,-0.0557 q 0.05566,-0.60645 0.418946,-0.92285 0.363281,-0.31934 0.975586,-0.31934 0.618164,0 0.978515,0.34277 0.360352,0.34278 0.360352,0.84961 0,0.25782 -0.105469,0.50684 -0.105469,0.24902 -0.351563,0.52441 -0.243164,0.27539 -0.811523,0.75586 -0.474609,0.39844 -0.609375,0.54199 -0.134766,0.14063 -0.222656,0.28418 z"
       style="font-size:6px;font-family:Arial;fill:#009d73"
       id="path1912"
       inkscape:connector-curvature="0" />
    <path
       d="m 61.133125,117.68 v -0.70312 l 2.933594,-3.66797 q 0.3125,-0.39063 0.59375,-0.67969 h -3.195312 v -0.67578 h 4.101562 v 0.67578 l -3.214844,3.97266 -0.347656,0.40234 h 3.65625 V 117.68 Z"
       style="font-size:8px;font-family:Arial;fill:#009d73"
       id="path1914"
       inkscape:connector-curvature="0" />
    <path
       d="m 66.383125,117.68 v -4.14844 h 0.632813 v 0.62891 q 0.242187,-0.44141 0.445312,-0.58203 0.207032,-0.14063 0.453125,-0.14063 0.355469,0 0.722657,0.22657 l -0.242188,0.65234 q -0.257812,-0.15234 -0.515625,-0.15234 -0.230469,0 -0.414062,0.14062 -0.183594,0.13672 -0.261719,0.38281 -0.117188,0.375 -0.117188,0.82032 V 117.68 Z"
       style="font-size:8px;font-family:Arial;fill:#009d73"
       id="path1916"
       inkscape:connector-curvature="0" />
    <path
       d="m 70.406563,119.36359 q -0.582031,-0.73437 -0.984375,-1.71875 -0.402344,-0.98437 -0.402344,-2.03906 0,-0.92969 0.300781,-1.78125 0.351563,-0.98828 1.085938,-1.96875 h 0.503906 q -0.472656,0.8125 -0.625,1.16016 -0.238281,0.53906 -0.375,1.125 -0.167969,0.73047 -0.167969,1.46875 0,1.8789 1.167969,3.7539 z"
       style="font-size:8px;font-family:Arial;fill:#009d73"
       id="path1918"
       inkscape:connector-curvature="0" />
    <path
       d="m 71.847969,117.68 v -5.72656 h 0.757813 v 2.35156 h 2.976562 v -2.35156 h 0.757813 V 117.68 h -0.757813 v -2.69922 H 72.605782 V 117.68 Z"
       style="font-size:8px;font-family:Arial;fill:#009d73"
       id="path1920"
       inkscape:connector-curvature="0" />
    <path
       d="m 77.976875,119.36359 h -0.503906 q 1.167969,-1.875 1.167969,-3.7539 0,-0.73438 -0.167969,-1.45703 -0.132812,-0.58594 -0.371094,-1.125 -0.152343,-0.35157 -0.628906,-1.17188 h 0.503906 q 0.734375,0.98047 1.085938,1.96875 0.300781,0.85156 0.300781,1.78125 0,1.05469 -0.40625,2.03906 -0.402344,0.98438 -0.980469,1.71875 z"
       style="font-size:8px;font-family:Arial;fill:#009d73"
       id="path1922"
       inkscape:connector-curvature="0" />
    <path
       d="m 84.363594,115.67219 0.757813,0.1914 q -0.238282,0.9336 -0.859375,1.42579 -0.617188,0.48828 -1.511719,0.48828 -0.925781,0 -1.507813,-0.375 -0.578125,-0.37891 -0.882812,-1.09375 -0.300781,-0.71485 -0.300781,-1.53516 0,-0.89453 0.339843,-1.55859 0.34375,-0.66797 0.972657,-1.01172 0.632812,-0.34766 1.390625,-0.34766 0.859375,0 1.445312,0.4375 0.585938,0.4375 0.816406,1.23047 l -0.746093,0.17578 q -0.199219,-0.625 -0.578125,-0.91015 -0.378907,-0.28516 -0.953125,-0.28516 -0.660157,0 -1.105469,0.31641 -0.441406,0.3164 -0.621094,0.85156 -0.179687,0.53125 -0.179687,1.09765 0,0.73047 0.210937,1.27735 0.214844,0.54297 0.664063,0.8125 0.449218,0.26953 0.972656,0.26953 0.636719,0 1.078125,-0.36719 0.441406,-0.36719 0.597656,-1.08984 z"
       style="font-size:8px;font-family:Arial;fill:#009d73"
       id="path1924"
       inkscape:connector-curvature="0" />
    <path
       d="m 85.953438,117.68 v -5.72656 h 0.703125 V 117.68 Z"
       style="font-size:8px;font-family:Arial;fill:#009d73"
       id="path1926"
       inkscape:connector-curvature="0" />
    <path
       d="m 88.926094,119.26984 h -1.550781 v -0.58203 h 0.847656 v -6.15234 h -0.847656 v -0.58203 h 1.550781 z"
       style="font-size:8px;font-family:Arial;fill:#009d73"
       id="path1928"
       inkscape:connector-curvature="0" />
  </g>
  <g
     aria-label="O"
     style="text-anchor:start;text-rendering:geometricPrecision"
     id="text71"
     transform="matrix(1.33333,0,0,1.33333,0.91344879,-35.295174)">
    <path
       d="m 114.70672,132.37094 q 0,-1.42578 0.76562,-2.23047 0.76563,-0.80859 1.97657,-0.80859 0.79296,0 1.42968,0.3789 0.63672,0.37891 0.96875,1.0586 0.33594,0.67578 0.33594,1.53515 0,0.8711 -0.35156,1.5586 -0.35156,0.6875 -0.9961,1.04297 -0.64453,0.35156 -1.39062,0.35156 -0.80859,0 -1.44531,-0.39063 -0.63672,-0.39062 -0.96485,-1.0664 -0.32812,-0.67578 -0.32812,-1.42969 z m 0.78125,0.0117 q 0,1.03516 0.55469,1.63281 0.55859,0.59375 1.39843,0.59375 0.85547,0 1.40625,-0.60156 0.55469,-0.60156 0.55469,-1.70703 0,-0.69922 -0.23828,-1.21875 -0.23438,-0.52344 -0.69141,-0.8086 -0.45312,-0.28906 -1.01953,-0.28906 -0.80469,0 -1.38672,0.55469 -0.57812,0.55078 -0.57812,1.84375 z"
       style="font-size:8px;font-family:Arial;fill:#000000"
       id="path1903"
       inkscape:connector-curvature="0" />
  </g>
  <path
     style="fill:#000000;fill-rule:evenodd;stroke:#000000;stroke-width:0;stroke-linejoin:miter;shape-rendering:geometricPrecision"
     inkscape:connector-curvature="0"
     id="path75"
     d="m 142.52643,120.37111 v 0 l 0.34667,0.25334 0.34666,0.25333 v 14.83996 l -0.34666,0.25333 -0.34667,0.25334 z" />
  <path
     style="fill:#000000;fill-rule:evenodd;stroke:#000000;stroke-width:0;stroke-linejoin:miter;shape-rendering:geometricPrecision"
     inkscape:connector-curvature="0"
     id="path79"
     d="m 142.52643,136.22441 v 0 l 0.34667,-0.25334 0.34666,-0.25333 9.34665,3.05333 -0.10667,0.32 -0.10667,0.32 z" />
  <path
     style="fill:#000000;fill-rule:evenodd;stroke:#000000;stroke-width:0;stroke-linejoin:miter;shape-rendering:geometricPrecision"
     inkscape:connector-curvature="0"
     id="path83"
     d="m 161.00639,136.43774 v 0 l -0.28,-0.2 -0.28,-0.2 5.61332,-7.73331 h 0.42666 l -0.0533,0.65333 z" />
  <path
     style="fill:#000000;fill-rule:evenodd;stroke:#000000;stroke-width:0;stroke-linejoin:miter;shape-rendering:geometricPrecision"
     inkscape:connector-curvature="0"
     id="path87"
     d="m 166.6597,127.95776 v 0 l -0.17333,0.34667 h -0.42666 l -8.71998,-12.01331 0.13333,-0.4 0.13333,-0.39999 z" />
  <path
     style="fill:#000000;fill-rule:evenodd;stroke:#000000;stroke-width:0;stroke-linejoin:miter;shape-rendering:geometricPrecision"
     inkscape:connector-curvature="0"
     id="path91"
     d="m 157.60639,115.49113 v 0 l -0.13333,0.39999 -0.13333,0.4 -14.11997,4.58666 -0.34666,-0.25333 -0.34667,-0.25334 z" />
  <path
     style="stroke:#000000;stroke-width:0.67999828;shape-rendering:auto"
     d="m 156.15306,115.46446 4.73333,-14.59997"
     id="line95"
     inkscape:connector-curvature="0" />
  <path
     style="fill:#000000;fill-rule:evenodd;stroke:#000000;stroke-width:0;stroke-linejoin:miter;shape-rendering:geometricPrecision"
     inkscape:connector-curvature="0"
     id="path97"
     d="m 158.35306,116.53112 v 0 l 0.50666,0.68 4.98666,-15.38663 -0.65333,-0.21333 z" />
  <path
     style="fill:#000000;fill-rule:evenodd;stroke:#000000;stroke-width:0;stroke-linejoin:miter;shape-rendering:geometricPrecision"
     inkscape:connector-curvature="0"
     id="path99"
     d="m 155.57973,116.14446 v 0 l 0.8,-0.25334 4.83999,-14.91996 -0.65333,-0.21333 z" />
  <g
     aria-label="O"
     style="text-anchor:start;text-rendering:geometricPrecision"
     id="text105"
     transform="matrix(1.33333,0,0,1.33333,0.91344879,-35.295174)">
    <path
       d="m 132.97672,123.06094 q 0,-1.42579 0.76562,-2.23047 0.76563,-0.8086 1.97656,-0.8086 0.79297,0 1.42969,0.37891 0.63672,0.37891 0.96875,1.05859 0.33594,0.67578 0.33594,1.53516 0,0.87109 -0.35156,1.55859 -0.35157,0.6875 -0.9961,1.04297 -0.64453,0.35156 -1.39062,0.35156 -0.8086,0 -1.44532,-0.39062 -0.63671,-0.39063 -0.96484,-1.06641 -0.32812,-0.67578 -0.32812,-1.42968 z m 0.78125,0.0117 q 0,1.03516 0.55468,1.63282 0.5586,0.59375 1.39844,0.59375 0.85547,0 1.40625,-0.60157 0.55469,-0.60156 0.55469,-1.70703 0,-0.69922 -0.23828,-1.21875 -0.23438,-0.52343 -0.69141,-0.80859 -0.45312,-0.28906 -1.01953,-0.28906 -0.80469,0 -1.38672,0.55468 -0.57812,0.55079 -0.57812,1.84375 z"
       style="font-size:8px;font-family:Arial;fill:#000000"
       id="path1899"
       inkscape:connector-curvature="0" />
  </g>
  <path
     style="fill:#000000;fill-rule:evenodd;stroke:#000000;stroke-width:0;stroke-linejoin:miter;shape-rendering:geometricPrecision"
     inkscape:connector-curvature="0"
     id="path109"
     d="m 167.04637,128.65109 v 0 l -0.56,-0.34666 0.17333,-0.34667 9.85331,0.0133 v 0.33334 0.34666 z" />
  <g
     aria-label="ZrCp2Cl"
     style="text-anchor:start;text-rendering:geometricPrecision"
     id="text119"
     transform="matrix(1.33333,0,0,1.33333,0.91344879,-35.295174)">
    <path
       d="m 139.15016,115.88 v -0.70313 l 2.9336,-3.66797 q 0.3125,-0.39062 0.59375,-0.67968 h -3.19532 v -0.67579 h 4.10157 v 0.67579 l -3.21485,3.97265 -0.34765,0.40235 h 3.65625 V 115.88 Z"
       style="font-size:8px;font-family:Arial;fill:#009d73"
       id="path1884"
       inkscape:connector-curvature="0" />
    <path
       d="m 144.40016,115.88 v -4.14844 h 0.63281 v 0.62891 q 0.24219,-0.44141 0.44532,-0.58204 0.20703,-0.14062 0.45312,-0.14062 0.35547,0 0.72266,0.22656 l -0.24219,0.65235 q -0.25781,-0.15235 -0.51562,-0.15235 -0.23047,0 -0.41407,0.14063 -0.18359,0.13672 -0.26172,0.38281 -0.11718,0.375 -0.11718,0.82031 V 115.88 Z"
       style="font-size:8px;font-family:Arial;fill:#009d73"
       id="path1886"
       inkscape:connector-curvature="0" />
    <path
       d="m 151.25563,113.87218 0.75781,0.19141 q -0.23828,0.93359 -0.85937,1.42578 -0.61719,0.48828 -1.51172,0.48828 -0.92578,0 -1.50781,-0.375 -0.57813,-0.3789 -0.88282,-1.09375 -0.30078,-0.71484 -0.30078,-1.53515 0,-0.89453 0.33985,-1.5586 0.34375,-0.66797 0.97265,-1.01172 0.63282,-0.34765 1.39063,-0.34765 0.85937,0 1.44531,0.4375 0.58594,0.4375 0.81641,1.23047 l -0.7461,0.17578 q -0.19922,-0.625 -0.57812,-0.91016 -0.37891,-0.28515 -0.95313,-0.28515 -0.66015,0 -1.10547,0.3164 -0.4414,0.31641 -0.62109,0.85156 -0.17969,0.53125 -0.17969,1.09766 0,0.73047 0.21094,1.27734 0.21484,0.54297 0.66406,0.8125 0.44922,0.26954 0.97266,0.26954 0.63672,0 1.07812,-0.36719 0.44141,-0.36719 0.59766,-1.08985 z"
       style="font-size:8px;font-family:Arial;fill:#009d73"
       id="path1888"
       inkscape:connector-curvature="0" />
    <path
       d="m 152.8611,117.46984 v -5.73828 h 0.64062 v 0.53906 q 0.22657,-0.3164 0.51172,-0.47265 0.28516,-0.16016 0.69141,-0.16016 0.53125,0 0.9375,0.27344 0.40625,0.27343 0.61328,0.77343 0.20703,0.4961 0.20703,1.08985 0,0.63672 -0.23047,1.14844 -0.22656,0.50781 -0.66406,0.78125 -0.43359,0.26953 -0.91406,0.26953 -0.35156,0 -0.63281,-0.14844 -0.27735,-0.14844 -0.45704,-0.375 v 2.01953 z m 0.63672,-3.64062 q 0,0.80078 0.32422,1.18359 0.32422,0.38281 0.78515,0.38281 0.46875,0 0.80078,-0.39453 0.33594,-0.39844 0.33594,-1.23047 0,-0.79297 -0.32812,-1.1875 -0.32422,-0.39453 -0.77735,-0.39453 -0.44922,0 -0.79687,0.42188 -0.34375,0.41796 -0.34375,1.21875 z"
       style="font-size:8px;font-family:Arial;fill:#009d73"
       id="path1890"
       inkscape:connector-curvature="0" />
    <path
       d="M 159.80739,117.18316 V 117.69 h -2.83887 q -0.006,-0.19043 0.0615,-0.36621 0.1084,-0.29004 0.34571,-0.57129 0.24023,-0.28125 0.6914,-0.65039 0.7002,-0.57422 0.94629,-0.90821 0.2461,-0.33691 0.2461,-0.63574 0,-0.31348 -0.22559,-0.52734 -0.22266,-0.2168 -0.58301,-0.2168 -0.38086,0 -0.60937,0.22852 -0.22852,0.22851 -0.23145,0.63281 l -0.54199,-0.0557 q 0.0557,-0.60644 0.41895,-0.92285 0.36328,-0.31933 0.97558,-0.31933 0.61817,0 0.97852,0.34277 0.36035,0.34277 0.36035,0.84961 0,0.25781 -0.10547,0.50684 -0.10547,0.24902 -0.35156,0.52441 -0.24317,0.27539 -0.81153,0.75586 -0.47461,0.39844 -0.60937,0.54199 -0.13477,0.14063 -0.22266,0.28418 z"
       style="font-size:6px;font-family:Arial;fill:#009d73"
       id="path1892"
       inkscape:connector-curvature="0" />
    <path
       d="m 164.82985,113.87218 0.75781,0.19141 q -0.23828,0.93359 -0.85937,1.42578 -0.61719,0.48828 -1.51172,0.48828 -0.92578,0 -1.50781,-0.375 -0.57813,-0.3789 -0.88282,-1.09375 -0.30078,-0.71484 -0.30078,-1.53515 0,-0.89453 0.33985,-1.5586 0.34375,-0.66797 0.97265,-1.01172 0.63281,-0.34765 1.39063,-0.34765 0.85937,0 1.44531,0.4375 0.58594,0.4375 0.81641,1.23047 l -0.7461,0.17578 q -0.19922,-0.625 -0.57812,-0.91016 -0.37891,-0.28515 -0.95313,-0.28515 -0.66015,0 -1.10547,0.3164 -0.4414,0.31641 -0.62109,0.85156 -0.17969,0.53125 -0.17969,1.09766 0,0.73047 0.21094,1.27734 0.21484,0.54297 0.66406,0.8125 0.44922,0.26954 0.97266,0.26954 0.63672,0 1.07812,-0.36719 0.44141,-0.36719 0.59766,-1.08985 z"
       style="font-size:8px;font-family:Arial;fill:#009d73"
       id="path1894"
       inkscape:connector-curvature="0" />
    <path
       d="m 166.41969,115.88 v -5.72657 h 0.70313 V 115.88 Z"
       style="font-size:8px;font-family:Arial;fill:#009d73"
       id="path1896"
       inkscape:connector-curvature="0" />
  </g>
  <path
     style="fill:#009d73;fill-rule:evenodd;stroke:#009d73;stroke-width:0;stroke-linejoin:miter;shape-rendering:geometricPrecision"
     inkscape:connector-curvature="0"
     id="path123"
     d="m 184.81965,123.8111 v 0 l -0.29333,-0.17333 -0.29333,-0.17333 1.69333,-2.93333 0.29333,0.17334 0.29333,0.17333 z" />
  <g
     aria-label="H"
     style="text-anchor:start;text-rendering:geometricPrecision"
     id="text129"
     transform="matrix(1.33333,0,0,1.33333,0.91344879,-35.295174)">
    <path
       d="m 127.15063,136.10001 v -5.72657 h 0.75781 v 2.35157 h 2.97656 v -2.35157 h 0.75781 v 5.72657 H 130.885 v -2.69922 h -2.97656 v 2.69922 z"
       style="font-size:8px;font-family:Arial;fill:#009d73"
       id="path1881"
       inkscape:connector-curvature="0" />
  </g>
  <path
     style="fill:#009d73;fill-rule:evenodd;stroke:#009d73;stroke-width:0;stroke-linejoin:miter;shape-rendering:geometricPrecision"
     inkscape:connector-curvature="0"
     id="path133"
     d="m 166.43304,128.95776 v 0 l 0.0533,-0.65333 0.56,0.34666 4.19999,8.22665 -0.30667,0.14666 -0.30667,0.16 z" />
  <path
     style="fill:#000000;fill-rule:evenodd;stroke:#000000;stroke-width:0;stroke-linejoin:miter;shape-rendering:geometricPrecision"
     inkscape:connector-curvature="0"
     id="path137"
     d="m 352.0459,137.37107 v 0 h -0.34666 -0.33334 v -3.99999 h 0.33334 0.34666 z" />
  <g
     aria-label="O"
     style="text-anchor:start;text-rendering:geometricPrecision"
     id="text143"
     transform="matrix(1.33333,0,0,1.33333,0.91344879,-35.295174)">
    <path
       d="m 260.37671,122.31094 q 0,-1.42579 0.76562,-2.23047 0.76563,-0.8086 1.97657,-0.8086 0.79297,0 1.42968,0.37891 0.63672,0.37891 0.96875,1.05859 0.33594,0.67578 0.33594,1.53516 0,0.87109 -0.35156,1.55859 -0.35156,0.6875 -0.99609,1.04297 -0.64454,0.35156 -1.39063,0.35156 -0.80859,0 -1.44531,-0.39062 -0.63672,-0.39063 -0.96485,-1.06641 -0.32812,-0.67578 -0.32812,-1.42968 z m 0.78125,0.0117 q 0,1.03516 0.55469,1.63282 0.55859,0.59375 1.39843,0.59375 0.85547,0 1.40625,-0.60157 0.55469,-0.60156 0.55469,-1.70703 0,-0.69922 -0.23828,-1.21875 -0.23437,-0.52343 -0.69141,-0.80859 -0.45312,-0.28906 -1.01953,-0.28906 -0.80468,0 -1.38672,0.55468 -0.57812,0.55079 -0.57812,1.84375 z"
       style="font-size:8px;font-family:Arial;fill:#000000"
       id="path1878"
       inkscape:connector-curvature="0" />
  </g>
  <g
     aria-label="ClCp2Zr"
     style="text-anchor:end;text-rendering:geometricPrecision"
     id="text153"
     transform="matrix(1.33333,0,0,1.33333,0.91344879,-35.295174)">
    <path
       d="m 240.42392,134.60219 0.75781,0.1914 q -0.23828,0.9336 -0.85937,1.42579 -0.61719,0.48828 -1.51172,0.48828 -0.92578,0 -1.50781,-0.375 -0.57813,-0.37891 -0.88282,-1.09375 -0.30078,-0.71485 -0.30078,-1.53516 0,-0.89453 0.33985,-1.55859 0.34375,-0.66797 0.97265,-1.01172 0.63281,-0.34766 1.39063,-0.34766 0.85937,0 1.44531,0.4375 0.58594,0.4375 0.81641,1.23047 l -0.7461,0.17578 q -0.19922,-0.625 -0.57812,-0.91015 -0.37891,-0.28516 -0.95313,-0.28516 -0.66015,0 -1.10547,0.31641 -0.4414,0.3164 -0.62109,0.85156 -0.17969,0.53125 -0.17969,1.09765 0,0.73047 0.21094,1.27735 0.21484,0.54297 0.66406,0.8125 0.44922,0.26953 0.97266,0.26953 0.63672,0 1.07812,-0.36719 0.44141,-0.36719 0.59766,-1.08984 z"
       style="font-size:8px;font-family:Arial;fill:#009d73"
       id="path1863"
       inkscape:connector-curvature="0" />
    <path
       d="m 242.01376,136.61 v -5.72656 h 0.70313 V 136.61 Z"
       style="font-size:8px;font-family:Arial;fill:#009d73"
       id="path1865"
       inkscape:connector-curvature="0" />
    <path
       d="m 247.98642,134.60219 0.75781,0.1914 q -0.23828,0.9336 -0.85937,1.42579 -0.61719,0.48828 -1.51172,0.48828 -0.92578,0 -1.50781,-0.375 -0.57813,-0.37891 -0.88282,-1.09375 -0.30078,-0.71485 -0.30078,-1.53516 0,-0.89453 0.33985,-1.55859 0.34375,-0.66797 0.97265,-1.01172 0.63281,-0.34766 1.39063,-0.34766 0.85937,0 1.44531,0.4375 0.58594,0.4375 0.81641,1.23047 l -0.7461,0.17578 q -0.19922,-0.625 -0.57812,-0.91015 -0.37891,-0.28516 -0.95313,-0.28516 -0.66015,0 -1.10547,0.31641 -0.4414,0.3164 -0.62109,0.85156 -0.17969,0.53125 -0.17969,1.09765 0,0.73047 0.21094,1.27735 0.21484,0.54297 0.66406,0.8125 0.44922,0.26953 0.97266,0.26953 0.63672,0 1.07812,-0.36719 0.44141,-0.36719 0.59766,-1.08984 z"
       style="font-size:8px;font-family:Arial;fill:#009d73"
       id="path1867"
       inkscape:connector-curvature="0" />
    <path
       d="m 249.59189,138.19984 v -5.73828 h 0.64062 v 0.53907 q 0.22657,-0.31641 0.51172,-0.47266 0.28516,-0.16016 0.69141,-0.16016 0.53125,0 0.9375,0.27344 0.40625,0.27344 0.61328,0.77344 0.20703,0.49609 0.20703,1.08984 0,0.63672 -0.23047,1.14844 -0.22656,0.50781 -0.66406,0.78125 -0.43359,0.26953 -0.91406,0.26953 -0.35157,0 -0.63282,-0.14844 -0.27734,-0.14843 -0.45703,-0.375 v 2.01953 z m 0.63672,-3.64062 q 0,0.80078 0.32422,1.18359 0.32421,0.38282 0.78515,0.38282 0.46875,0 0.80078,-0.39454 0.33594,-0.39843 0.33594,-1.23046 0,-0.79297 -0.32812,-1.1875 -0.32422,-0.39454 -0.77735,-0.39454 -0.44922,0 -0.79687,0.42188 -0.34375,0.41797 -0.34375,1.21875 z"
       style="font-size:8px;font-family:Arial;fill:#009d73"
       id="path1869"
       inkscape:connector-curvature="0" />
    <path
       d="M 256.53818,137.91316 V 138.42 h -2.83887 q -0.006,-0.19043 0.0615,-0.36621 0.1084,-0.29004 0.34571,-0.57129 0.24023,-0.28125 0.6914,-0.65039 0.7002,-0.57422 0.94629,-0.9082 0.2461,-0.33692 0.2461,-0.63575 0,-0.31347 -0.22559,-0.52734 -0.22266,-0.2168 -0.58301,-0.2168 -0.38086,0 -0.60937,0.22852 -0.22852,0.22852 -0.23145,0.63281 l -0.54199,-0.0557 q 0.0557,-0.60645 0.41894,-0.92285 0.36329,-0.31934 0.97559,-0.31934 0.61816,0 0.97852,0.34277 0.36035,0.34278 0.36035,0.84961 0,0.25782 -0.10547,0.50684 -0.10547,0.24902 -0.35156,0.52441 -0.24317,0.27539 -0.81153,0.75586 -0.47461,0.39844 -0.60937,0.54199 -0.13477,0.14063 -0.22266,0.28418 z"
       style="font-size:6px;font-family:Arial;fill:#009d73"
       id="path1871"
       inkscape:connector-curvature="0" />
    <path
       d="m 257.01767,136.61 v -0.70312 l 2.93359,-3.66797 q 0.3125,-0.39063 0.59375,-0.67969 h -3.19531 v -0.67578 h 4.10156 v 0.67578 l -3.21484,3.97266 -0.34766,0.40234 h 3.65625 V 136.61 Z"
       style="font-size:8px;font-family:Arial;fill:#009d73"
       id="path1873"
       inkscape:connector-curvature="0" />
    <path
       d="m 262.26767,136.61 v -4.14844 h 0.63281 v 0.62891 q 0.24219,-0.44141 0.44531,-0.58203 0.20704,-0.14063 0.45313,-0.14063 0.35547,0 0.72266,0.22657 l -0.24219,0.65234 q -0.25781,-0.15234 -0.51563,-0.15234 -0.23047,0 -0.41406,0.14062 -0.18359,0.13672 -0.26172,0.38281 -0.11719,0.375 -0.11719,0.82032 V 136.61 Z"
       style="font-size:8px;font-family:Arial;fill:#009d73"
       id="path1875"
       inkscape:connector-curvature="0" />
  </g>
  <path
     style="fill:#000000;fill-rule:evenodd;stroke:#000000;stroke-width:0;stroke-linejoin:miter;shape-rendering:geometricPrecision"
     inkscape:connector-curvature="0"
     id="path157"
     d="m 356.71256,124.79777 v 0 l -0.16,-0.29333 -0.17333,-0.29334 8.61331,-4.97332 v 0.38667 0.38666 z" />
  <path
     style="fill:#000000;fill-rule:evenodd;stroke:#000000;stroke-width:0;stroke-linejoin:miter;shape-rendering:geometricPrecision"
     inkscape:connector-curvature="0"
     id="path161"
     d="m 364.99254,120.01111 v 0 -0.38666 -0.38667 l 13.2933,7.67998 v 0.38667 0.38666 z" />
  <path
     style="fill:#000000;fill-rule:evenodd;stroke:#000000;stroke-width:0;stroke-linejoin:miter;shape-rendering:geometricPrecision"
     inkscape:connector-curvature="0"
     id="path165"
     d="m 378.28584,127.69109 v 0 -0.38666 -0.38667 l 13.27996,-7.67998 v 0.38667 0.38666 z" />
  <path
     style="fill:#000000;fill-rule:evenodd;stroke:#000000;stroke-width:0;stroke-linejoin:miter;shape-rendering:geometricPrecision"
     inkscape:connector-curvature="0"
     id="path169"
     d="m 391.5658,120.01111 v 0 -0.38666 -0.38667 l 13.2933,7.67998 v 0.38667 l -0.46666,0.12 z" />
  <path
     style="fill:#000000;fill-rule:evenodd;stroke:#000000;stroke-width:0;stroke-linejoin:miter;shape-rendering:geometricPrecision"
     inkscape:connector-curvature="0"
     id="path173"
     d="m 418.49907,114.43779 v 0 h -0.34667 -0.33333 v -4.13332 h 0.33333 0.34667 z" />
  <path
     style="fill:#000000;fill-rule:evenodd;stroke:#000000;stroke-width:0;stroke-linejoin:miter;shape-rendering:geometricPrecision"
     inkscape:connector-curvature="0"
     id="path177"
     d="m 405.32577,127.42443 v 0 l -0.46667,-0.12 v -0.38667 l 8.25332,-4.77332 0.16,0.29333 0.17333,0.29334 z" />
  <path
     style="stroke:#000000;stroke-width:0.67999828;shape-rendering:auto"
     d="M 390.17915,119.62445 V 104.27782"
     id="line181"
     inkscape:connector-curvature="0" />
  <path
     style="fill:#000000;fill-rule:evenodd;stroke:#000000;stroke-width:0;stroke-linejoin:miter;shape-rendering:geometricPrecision"
     inkscape:connector-curvature="0"
     id="path183"
     d="m 392.6058,119.83778 v 0 l 0.68,0.38667 v -15.94663 h -0.68 z" />
  <path
     style="fill:#000000;fill-rule:evenodd;stroke:#000000;stroke-width:0;stroke-linejoin:miter;shape-rendering:geometricPrecision"
     inkscape:connector-curvature="0"
     id="path185"
     d="m 389.84581,120.22445 v 0 l 0.68,-0.38667 v -15.55996 h -0.68 z" />
  <g
     aria-label="ZrCp2Cl"
     style="text-anchor:start;text-rendering:geometricPrecision"
     id="text195"
     transform="matrix(1.33333,0,0,1.33333,0.91344879,-35.295174)">
    <path
       d="m 310.64017,107.83 v -0.70312 l 2.93359,-3.66797 q 0.3125,-0.39063 0.59375,-0.67969 h -3.19531 v -0.67578 h 4.10156 v 0.67578 l -3.21484,3.97266 -0.34766,0.40234 h 3.65625 V 107.83 Z"
       style="font-size:8px;font-family:Arial;fill:#009d73"
       id="path1847"
       inkscape:connector-curvature="0" />
    <path
       d="m 315.89017,107.83 v -4.14844 h 0.63281 v 0.62891 q 0.24219,-0.44141 0.44531,-0.58203 0.20703,-0.14063 0.45313,-0.14063 0.35547,0 0.72265,0.22657 l -0.24218,0.65234 q -0.25782,-0.15234 -0.51563,-0.15234 -0.23047,0 -0.41406,0.14062 -0.1836,0.13672 -0.26172,0.38281 -0.11719,0.375 -0.11719,0.82032 V 107.83 Z"
       style="font-size:8px;font-family:Arial;fill:#009d73"
       id="path1849"
       inkscape:connector-curvature="0" />
    <path
       d="m 322.74564,105.82219 0.75781,0.19141 q -0.23828,0.93359 -0.85938,1.42578 -0.61718,0.48828 -1.51172,0.48828 -0.92578,0 -1.50781,-0.375 -0.57812,-0.37891 -0.88281,-1.09375 -0.30078,-0.71485 -0.30078,-1.53516 0,-0.89453 0.33984,-1.55859 0.34375,-0.66797 0.97266,-1.01172 0.63281,-0.34766 1.39062,-0.34766 0.85938,0 1.44532,0.4375 0.58593,0.4375 0.8164,1.23047 l -0.74609,0.17578 q -0.19922,-0.625 -0.57813,-0.91015 -0.3789,-0.28516 -0.95312,-0.28516 -0.66016,0 -1.10547,0.31641 -0.44141,0.3164 -0.62109,0.85156 -0.17969,0.53125 -0.17969,1.09766 0,0.73046 0.21094,1.27734 0.21484,0.54297 0.66406,0.8125 0.44922,0.26953 0.97265,0.26953 0.63672,0 1.07813,-0.36719 0.44141,-0.36718 0.59766,-1.08984 z"
       style="font-size:8px;font-family:Arial;fill:#009d73"
       id="path1851"
       inkscape:connector-curvature="0" />
    <path
       d="m 324.3511,109.41985 v -5.73829 h 0.64063 v 0.53907 q 0.22656,-0.31641 0.51172,-0.47266 0.28515,-0.16016 0.6914,-0.16016 0.53125,0 0.9375,0.27344 0.40625,0.27344 0.61329,0.77344 0.20703,0.49609 0.20703,1.08984 0,0.63672 -0.23047,1.14844 -0.22656,0.50781 -0.66406,0.78125 -0.4336,0.26953 -0.91407,0.26953 -0.35156,0 -0.63281,-0.14844 -0.27734,-0.14843 -0.45703,-0.375 v 2.01954 z m 0.63672,-3.64063 q 0,0.80078 0.32422,1.18359 0.32422,0.38282 0.78516,0.38282 0.46875,0 0.80078,-0.39453 0.33594,-0.39844 0.33594,-1.23047 0,-0.79297 -0.32813,-1.1875 -0.32422,-0.39453 -0.77734,-0.39453 -0.44922,0 -0.79688,0.42187 -0.34375,0.41797 -0.34375,1.21875 z"
       style="font-size:8px;font-family:Arial;fill:#009d73"
       id="path1853"
       inkscape:connector-curvature="0" />
    <path
       d="M 331.29739,109.13317 V 109.64 h -2.83886 q -0.006,-0.19043 0.0615,-0.36621 0.1084,-0.29004 0.3457,-0.57129 0.24024,-0.28125 0.69141,-0.65039 0.70019,-0.57422 0.94629,-0.9082 0.24609,-0.33692 0.24609,-0.63574 0,-0.31348 -0.22558,-0.52735 -0.22266,-0.21679 -0.58301,-0.21679 -0.38086,0 -0.60938,0.22851 -0.22851,0.22852 -0.23144,0.63281 l -0.54199,-0.0557 q 0.0557,-0.60645 0.41894,-0.92285 0.36328,-0.31934 0.97559,-0.31934 0.61816,0 0.97851,0.34278 0.36035,0.34277 0.36035,0.8496 0,0.25782 -0.10546,0.50684 -0.10547,0.24902 -0.35157,0.52441 -0.24316,0.2754 -0.81152,0.75586 -0.47461,0.39844 -0.60938,0.542 -0.13476,0.14062 -0.22265,0.28418 z"
       style="font-size:6px;font-family:Arial;fill:#009d73"
       id="path1855"
       inkscape:connector-curvature="0" />
    <path
       d="m 336.31985,105.82219 0.75782,0.19141 q -0.23828,0.93359 -0.85938,1.42578 -0.61719,0.48828 -1.51172,0.48828 -0.92578,0 -1.50781,-0.375 -0.57812,-0.37891 -0.88281,-1.09375 -0.30078,-0.71485 -0.30078,-1.53516 0,-0.89453 0.33984,-1.55859 0.34375,-0.66797 0.97266,-1.01172 0.63281,-0.34766 1.39062,-0.34766 0.85938,0 1.44531,0.4375 0.58594,0.4375 0.81641,1.23047 l -0.74609,0.17578 q -0.19922,-0.625 -0.57813,-0.91015 -0.3789,-0.28516 -0.95312,-0.28516 -0.66016,0 -1.10547,0.31641 -0.44141,0.3164 -0.6211,0.85156 -0.17968,0.53125 -0.17968,1.09766 0,0.73046 0.21093,1.27734 0.21485,0.54297 0.66407,0.8125 0.44922,0.26953 0.97265,0.26953 0.63672,0 1.07813,-0.36719 0.4414,-0.36718 0.59765,-1.08984 z"
       style="font-size:8px;font-family:Arial;fill:#009d73"
       id="path1857"
       inkscape:connector-curvature="0" />
    <path
       d="m 337.9097,107.83 v -5.72656 h 0.70312 V 107.83 Z"
       style="font-size:8px;font-family:Arial;fill:#009d73"
       id="path1859"
       inkscape:connector-curvature="0" />
  </g>
  <g
     aria-label="O"
     style="text-anchor:start;text-rendering:geometricPrecision"
     id="text201"
     transform="matrix(1.33333,0,0,1.33333,0.91344879,-35.295174)">
    <path
       d="m 310.21671,116.55093 q 0,-1.42578 0.76562,-2.23046 0.76563,-0.8086 1.97656,-0.8086 0.79297,0 1.42969,0.37891 0.63672,0.3789 0.96875,1.05859 0.33594,0.67578 0.33594,1.53516 0,0.87109 -0.35156,1.55859 -0.35157,0.6875 -0.9961,1.04297 -0.64453,0.35156 -1.39062,0.35156 -0.8086,0 -1.44532,-0.39062 -0.63671,-0.39063 -0.96484,-1.06641 -0.32812,-0.67578 -0.32812,-1.42969 z m 0.78125,0.0117 q 0,1.03516 0.55468,1.63282 0.5586,0.59375 1.39844,0.59375 0.85547,0 1.40625,-0.60157 0.55469,-0.60156 0.55469,-1.70703 0,-0.69922 -0.23828,-1.21875 -0.23438,-0.52344 -0.69141,-0.80859 -0.45312,-0.28906 -1.01953,-0.28906 -0.80469,0 -1.38672,0.55468 -0.57812,0.55078 -0.57812,1.84375 z"
       style="font-size:8px;font-family:Arial;fill:#000000"
       id="path1844"
       inkscape:connector-curvature="0" />
  </g>
  <g
     aria-label="O"
     style="text-anchor:start;text-rendering:geometricPrecision"
     id="text207"
     transform="matrix(1.33333,0,0,1.33333,-8.1646238,-35.295174)">
    <path
       d="m 395.62671,122.31094 q 0,-1.42579 0.76562,-2.23047 0.76563,-0.8086 1.97657,-0.8086 0.79297,0 1.42968,0.37891 0.63672,0.37891 0.96875,1.05859 0.33594,0.67578 0.33594,1.53516 0,0.87109 -0.35156,1.55859 -0.35156,0.6875 -0.99609,1.04297 -0.64454,0.35156 -1.39063,0.35156 -0.80859,0 -1.44531,-0.39062 -0.63672,-0.39063 -0.96485,-1.06641 -0.32812,-0.67578 -0.32812,-1.42968 z m 0.78125,0.0117 q 0,1.03516 0.55469,1.63282 0.55859,0.59375 1.39843,0.59375 0.85547,0 1.40625,-0.60157 0.55469,-0.60156 0.55469,-1.70703 0,-0.69922 -0.23828,-1.21875 -0.23437,-0.52343 -0.69141,-0.80859 -0.45312,-0.28906 -1.01953,-0.28906 -0.80468,0 -1.38672,0.55468 -0.57812,0.55079 -0.57812,1.84375 z"
       style="font-size:8px;font-family:Arial;fill:#000000"
       id="path1841"
       inkscape:connector-curvature="0" />
  </g>
  <path
     style="fill:#000000;fill-rule:evenodd;stroke:#000000;stroke-width:0;stroke-linejoin:miter;shape-rendering:geometricPrecision"
     inkscape:connector-curvature="0"
     id="path211"
     d="m 527.96737,124.79777 v 0 l -0.16,-0.29333 -0.17333,-0.29334 8.61331,-4.97332 v 0.38667 0.38666 z" />
  <path
     style="fill:#000000;fill-rule:evenodd;stroke:#000000;stroke-width:0;stroke-linejoin:miter;shape-rendering:geometricPrecision"
     inkscape:connector-curvature="0"
     id="path215"
     d="m 536.24735,120.01111 v 0 -0.38666 -0.38667 l 13.2933,7.67998 v 0.38667 0.38666 z" />
  <path
     style="fill:#000000;fill-rule:evenodd;stroke:#000000;stroke-width:0;stroke-linejoin:miter;shape-rendering:geometricPrecision"
     inkscape:connector-curvature="0"
     id="path219"
     d="m 549.54065,127.69109 v 0 -0.38666 -0.38667 l 13.27997,-7.67998 v 0.38667 0.38666 z" />
  <path
     style="fill:#000000;fill-rule:evenodd;stroke:#000000;stroke-width:0;stroke-linejoin:miter;shape-rendering:geometricPrecision"
     inkscape:connector-curvature="0"
     id="path223"
     d="m 562.82062,120.01111 v 0 -0.38666 -0.38667 l 13.2933,7.67998 v 0.38667 l -0.46667,0.12 z" />
  <path
     style="fill:#000000;fill-rule:evenodd;stroke:#000000;stroke-width:0;stroke-linejoin:miter;shape-rendering:geometricPrecision"
     inkscape:connector-curvature="0"
     id="path227"
     d="m 576.58058,127.42443 v 0 l -0.46666,-0.12 v -0.38667 l 8.18664,-4.73332 0.16,0.29333 0.17334,0.29334 z" />
  <path
     style="stroke:#000000;stroke-width:0.67999828;shape-rendering:auto"
     d="M 561.43397,119.62445 V 104.27782"
     id="line231"
     inkscape:connector-curvature="0" />
  <path
     style="fill:#000000;fill-rule:evenodd;stroke:#000000;stroke-width:0;stroke-linejoin:miter;shape-rendering:geometricPrecision"
     inkscape:connector-curvature="0"
     id="path233"
     d="m 563.86061,119.83778 v 0 l 0.68,0.38667 v -15.94663 h -0.68 z" />
  <path
     style="fill:#000000;fill-rule:evenodd;stroke:#000000;stroke-width:0;stroke-linejoin:miter;shape-rendering:geometricPrecision"
     inkscape:connector-curvature="0"
     id="path235"
     d="m 561.10062,120.22445 v 0 l 0.68,-0.38667 v -15.55996 h -0.68 z" />
  <g
     aria-label="O"
     style="text-anchor:start;text-rendering:geometricPrecision"
     id="text241"
     transform="matrix(1.33333,0,0,1.33333,-8.1646238,-35.295174)">
    <path
       d="m 445.46671,116.55093 q 0,-1.42578 0.76562,-2.23046 0.76563,-0.8086 1.97656,-0.8086 0.79297,0 1.42969,0.37891 0.63672,0.3789 0.96875,1.05859 0.33594,0.67578 0.33594,1.53516 0,0.87109 -0.35156,1.55859 -0.35157,0.6875 -0.9961,1.04297 -0.64453,0.35156 -1.39062,0.35156 -0.8086,0 -1.44532,-0.39062 -0.63671,-0.39063 -0.96484,-1.06641 -0.32812,-0.67578 -0.32812,-1.42969 z m 0.78125,0.0117 q 0,1.03516 0.55468,1.63282 0.5586,0.59375 1.39844,0.59375 0.85547,0 1.40625,-0.60157 0.55469,-0.60156 0.55469,-1.70703 0,-0.69922 -0.23828,-1.21875 -0.23438,-0.52344 -0.69141,-0.80859 -0.45312,-0.28906 -1.01953,-0.28906 -0.80469,0 -1.38672,0.55468 -0.57812,0.55078 -0.57812,1.84375 z"
       style="font-size:8px;font-family:Arial;fill:#000000"
       id="path1837"
       inkscape:connector-curvature="0" />
  </g>
  <path
     style="stroke:#000000;stroke-width:0.67999828;shape-rendering:auto"
     d="M 301.81935,127.55776 H 235.85954"
     id="line245"
     inkscape:connector-curvature="0" />
  <path
     style="fill:#000000;fill-rule:evenodd;stroke:#000000;stroke-width:0;stroke-linejoin:miter;stroke-miterlimit:5.89496231;shape-rendering:geometricPrecision"
     inkscape:connector-curvature="0"
     id="path247"
     stroke-miterlimit="5.89496254687639"
     d="m 306.43268,127.55776 -6.79998,-1.70666 c 1.44,0.96 1.44,2.45333 0,3.41332 z" />
  <g
     aria-label="[Cp2Zr(H)Cl]"
     style="text-anchor:start;text-rendering:geometricPrecision"
     id="text257"
     transform="matrix(1.33333,0,0,1.33333,0.91344879,-35.295174)">
    <path
       d="m 178.47296,119.26984 v -7.3164 h 1.55078 v 0.58203 h -0.84765 v 6.15234 h 0.84765 v 0.58203 z"
       style="font-size:8px;font-family:Arial;fill:#009d73"
       id="path1811"
       inkscape:connector-curvature="0" />
    <path
       d="m 184.85187,115.67219 0.75781,0.1914 q -0.23828,0.9336 -0.85937,1.42579 -0.61719,0.48828 -1.51172,0.48828 -0.92578,0 -1.50782,-0.375 -0.57812,-0.37891 -0.88281,-1.09375 -0.30078,-0.71485 -0.30078,-1.53516 0,-0.89453 0.33984,-1.55859 0.34375,-0.66797 0.97266,-1.01172 0.63281,-0.34766 1.39063,-0.34766 0.85937,0 1.44531,0.4375 0.58594,0.4375 0.8164,1.23047 l -0.74609,0.17578 q -0.19922,-0.625 -0.57812,-0.91015 -0.37891,-0.28516 -0.95313,-0.28516 -0.66016,0 -1.10547,0.31641 -0.4414,0.3164 -0.62109,0.85156 -0.17969,0.53125 -0.17969,1.09765 0,0.73047 0.21094,1.27735 0.21484,0.54297 0.66406,0.8125 0.44922,0.26953 0.97266,0.26953 0.63672,0 1.07812,-0.36719 0.44141,-0.36719 0.59766,-1.08984 z"
       style="font-size:8px;font-family:Arial;fill:#009d73"
       id="path1813"
       inkscape:connector-curvature="0" />
    <path
       d="m 186.45734,119.26984 v -5.73828 h 0.64062 v 0.53907 q 0.22656,-0.31641 0.51172,-0.47266 0.28516,-0.16016 0.69141,-0.16016 0.53125,0 0.9375,0.27344 0.40625,0.27344 0.61328,0.77344 0.20703,0.49609 0.20703,1.08984 0,0.63672 -0.23047,1.14844 -0.22656,0.50781 -0.66406,0.78125 -0.4336,0.26953 -0.91406,0.26953 -0.35157,0 -0.63282,-0.14844 -0.27734,-0.14843 -0.45703,-0.375 v 2.01953 z m 0.63672,-3.64062 q 0,0.80078 0.32421,1.18359 0.32422,0.38282 0.78516,0.38282 0.46875,0 0.80078,-0.39454 0.33594,-0.39843 0.33594,-1.23046 0,-0.79297 -0.32813,-1.1875 -0.32421,-0.39454 -0.77734,-0.39454 -0.44922,0 -0.79687,0.42188 -0.34375,0.41797 -0.34375,1.21875 z"
       style="font-size:8px;font-family:Arial;fill:#009d73"
       id="path1815"
       inkscape:connector-curvature="0" />
    <path
       d="M 193.40363,118.98316 V 119.49 h -2.83887 q -0.006,-0.19043 0.0615,-0.36621 0.1084,-0.29004 0.3457,-0.57129 0.24024,-0.28125 0.69141,-0.65039 0.7002,-0.57422 0.94629,-0.9082 0.24609,-0.33692 0.24609,-0.63575 0,-0.31347 -0.22558,-0.52734 -0.22266,-0.2168 -0.58301,-0.2168 -0.38086,0 -0.60937,0.22852 -0.22852,0.22851 -0.23145,0.63281 l -0.54199,-0.0557 q 0.0557,-0.60645 0.41894,-0.92285 0.36328,-0.31934 0.97559,-0.31934 0.61816,0 0.97851,0.34277 0.36036,0.34278 0.36036,0.84961 0,0.25782 -0.10547,0.50684 -0.10547,0.24902 -0.35157,0.52441 -0.24316,0.27539 -0.81152,0.75586 -0.47461,0.39844 -0.60937,0.54199 -0.13477,0.14063 -0.22266,0.28418 z"
       style="font-size:6px;font-family:Arial;fill:#009d73"
       id="path1817"
       inkscape:connector-curvature="0" />
    <path
       d="m 193.88312,117.68 v -0.70312 l 2.93359,-3.66797 q 0.3125,-0.39063 0.59375,-0.67969 h -3.19531 v -0.67578 h 4.10156 v 0.67578 l -3.21484,3.97266 -0.34766,0.40234 h 3.65625 V 117.68 Z"
       style="font-size:8px;font-family:Arial;fill:#009d73"
       id="path1819"
       inkscape:connector-curvature="0" />
    <path
       d="m 199.13312,117.68 v -4.14844 h 0.63281 v 0.62891 q 0.24219,-0.44141 0.44531,-0.58203 0.20703,-0.14063 0.45313,-0.14063 0.35547,0 0.72265,0.22657 l -0.24218,0.65234 q -0.25782,-0.15234 -0.51563,-0.15234 -0.23047,0 -0.41406,0.14062 -0.18359,0.13672 -0.26172,0.38281 -0.11719,0.375 -0.11719,0.82032 V 117.68 Z"
       style="font-size:8px;font-family:Arial;fill:#009d73"
       id="path1821"
       inkscape:connector-curvature="0" />
    <path
       d="m 203.15656,119.36359 q -0.58204,-0.73437 -0.98438,-1.71875 -0.40234,-0.98437 -0.40234,-2.03906 0,-0.92969 0.30078,-1.78125 0.35156,-0.98828 1.08594,-1.96875 h 0.5039 q -0.47265,0.8125 -0.625,1.16016 -0.23828,0.53906 -0.375,1.125 -0.16797,0.73047 -0.16797,1.46875 0,1.8789 1.16797,3.7539 z"
       style="font-size:8px;font-family:Arial;fill:#009d73"
       id="path1823"
       inkscape:connector-curvature="0" />
    <path
       d="m 204.59796,117.68 v -5.72656 h 0.75781 v 2.35156 h 2.97657 v -2.35156 h 0.75781 V 117.68 h -0.75781 v -2.69922 h -2.97657 V 117.68 Z"
       style="font-size:8px;font-family:Arial;fill:#009d73"
       id="path1825"
       inkscape:connector-curvature="0" />
    <path
       d="m 210.72687,119.36359 h -0.50391 q 1.16797,-1.875 1.16797,-3.7539 0,-0.73438 -0.16797,-1.45703 -0.13281,-0.58594 -0.37109,-1.125 -0.15235,-0.35157 -0.62891,-1.17188 h 0.50391 q 0.73437,0.98047 1.08594,1.96875 0.30078,0.85156 0.30078,1.78125 0,1.05469 -0.40625,2.03906 -0.40235,0.98438 -0.98047,1.71875 z"
       style="font-size:8px;font-family:Arial;fill:#009d73"
       id="path1827"
       inkscape:connector-curvature="0" />
    <path
       d="m 217.11359,115.67219 0.75781,0.1914 q -0.23828,0.9336 -0.85938,1.42579 -0.61718,0.48828 -1.51171,0.48828 -0.92579,0 -1.50782,-0.375 -0.57812,-0.37891 -0.88281,-1.09375 -0.30078,-0.71485 -0.30078,-1.53516 0,-0.89453 0.33984,-1.55859 0.34375,-0.66797 0.97266,-1.01172 0.63281,-0.34766 1.39062,-0.34766 0.85938,0 1.44532,0.4375 0.58593,0.4375 0.8164,1.23047 l -0.74609,0.17578 q -0.19922,-0.625 -0.57813,-0.91015 -0.3789,-0.28516 -0.95312,-0.28516 -0.66016,0 -1.10547,0.31641 -0.44141,0.3164 -0.62109,0.85156 -0.17969,0.53125 -0.17969,1.09765 0,0.73047 0.21094,1.27735 0.21484,0.54297 0.66406,0.8125 0.44922,0.26953 0.97266,0.26953 0.63671,0 1.07812,-0.36719 0.44141,-0.36719 0.59766,-1.08984 z"
       style="font-size:8px;font-family:Arial;fill:#009d73"
       id="path1829"
       inkscape:connector-curvature="0" />
    <path
       d="m 218.70343,117.68 v -5.72656 h 0.70313 V 117.68 Z"
       style="font-size:8px;font-family:Arial;fill:#009d73"
       id="path1831"
       inkscape:connector-curvature="0" />
    <path
       d="m 221.67609,119.26984 h -1.55078 v -0.58203 h 0.84765 v -6.15234 h -0.84765 v -0.58203 h 1.55078 z"
       style="font-size:8px;font-family:Arial;fill:#009d73"
       id="path1833"
       inkscape:connector-curvature="0" />
  </g>
  <path
     style="fill:#cc78a6;fill-rule:evenodd;stroke:#cc78a6;stroke-width:0;stroke-linejoin:miter;shape-rendering:geometricPrecision"
     inkscape:connector-curvature="0"
     id="path261"
     d="m 522.62072,133.37108 v 0 h 0.33333 0.34667 v 4.13332 h -0.34667 -0.33333 z" />
  <g
     aria-label="PPh2"
     style="text-anchor:start;text-rendering:geometricPrecision"
     id="text269"
     transform="matrix(1.33333,0,0,1.33333,-8.1646238,-35.295174)">
    <path
       d="m 396.2872,136.61 v -5.72656 h 2.16016 q 0.57031,0 0.87109,0.0547 0.42188,0.0703 0.70703,0.26953 0.28516,0.19531 0.45703,0.55078 0.17578,0.35547 0.17578,0.78125 0,0.73047 -0.46484,1.23828 -0.46484,0.50391 -1.67969,0.50391 h -1.46875 V 136.61 Z m 0.75781,-3.00391 h 1.48047 q 0.73438,0 1.04297,-0.27343 0.30859,-0.27344 0.30859,-0.76953 0,-0.35938 -0.18359,-0.61329 -0.17969,-0.25781 -0.47656,-0.33984 -0.19141,-0.0508 -0.70703,-0.0508 h -1.46485 z"
       style="font-size:8px;font-family:Arial;fill:#cc78a6"
       id="path1802"
       inkscape:connector-curvature="0" />
    <path
       d="m 401.63095,136.61 v -5.72656 h 2.16016 q 0.57031,0 0.87109,0.0547 0.42188,0.0703 0.70703,0.26953 0.28516,0.19531 0.45703,0.55078 0.17578,0.35547 0.17578,0.78125 0,0.73047 -0.46484,1.23828 -0.46484,0.50391 -1.67969,0.50391 h -1.46875 V 136.61 Z m 0.75781,-3.00391 h 1.48047 q 0.73438,0 1.04297,-0.27343 0.30859,-0.27344 0.30859,-0.76953 0,-0.35938 -0.18359,-0.61329 -0.17969,-0.25781 -0.47656,-0.33984 -0.19141,-0.0508 -0.70703,-0.0508 h -1.46485 z"
       style="font-size:8px;font-family:Arial;fill:#cc78a6"
       id="path1804"
       inkscape:connector-curvature="0" />
    <path
       d="m 406.88486,136.61 v -5.72656 h 0.70312 v 2.05469 q 0.49219,-0.57032 1.24219,-0.57032 0.46094,0 0.80078,0.1836 0.33984,0.17968 0.48438,0.5 0.14843,0.32031 0.14843,0.92968 V 136.61 h -0.70312 v -2.62891 q 0,-0.52734 -0.23047,-0.76562 -0.22656,-0.24219 -0.64453,-0.24219 -0.3125,0 -0.58985,0.16406 -0.27343,0.16016 -0.39062,0.4375 -0.11719,0.27735 -0.11719,0.76563 V 136.61 Z"
       style="font-size:8px;font-family:Arial;fill:#cc78a6"
       id="path1806"
       inkscape:connector-curvature="0" />
    <path
       d="M 413.83115,137.91316 V 138.42 h -2.83887 q -0.006,-0.19043 0.0615,-0.36621 0.1084,-0.29004 0.34571,-0.57129 0.24023,-0.28125 0.6914,-0.65039 0.7002,-0.57422 0.94629,-0.9082 0.24609,-0.33692 0.24609,-0.63575 0,-0.31347 -0.22558,-0.52734 -0.22266,-0.2168 -0.58301,-0.2168 -0.38086,0 -0.60937,0.22852 -0.22852,0.22852 -0.23145,0.63281 l -0.54199,-0.0557 q 0.0557,-0.60645 0.41894,-0.92285 0.36328,-0.31934 0.97559,-0.31934 0.61816,0 0.97852,0.34277 0.36035,0.34278 0.36035,0.84961 0,0.25782 -0.10547,0.50684 -0.10547,0.24902 -0.35156,0.52441 -0.24317,0.27539 -0.81153,0.75586 -0.47461,0.39844 -0.60937,0.54199 -0.13477,0.14063 -0.22266,0.28418 z"
       style="font-size:6px;font-family:Arial;fill:#cc78a6"
       id="path1808"
       inkscape:connector-curvature="0" />
  </g>
  <g
     aria-label="PPh2"
     style="text-anchor:start;text-rendering:geometricPrecision"
     id="text277"
     transform="matrix(1.33333,0,0,1.33333,-8.1646238,-35.295174)">
    <path
       d="m 446.11719,107.83 v -5.72656 h 2.16015 q 0.57032,0 0.8711,0.0547 0.42187,0.0703 0.70703,0.26953 0.28515,0.19531 0.45703,0.55078 0.17578,0.35547 0.17578,0.78125 0,0.73047 -0.46484,1.23828 -0.46485,0.50391 -1.67969,0.50391 H 446.875 V 107.83 Z m 0.75781,-3.0039 h 1.48047 q 0.73437,0 1.04297,-0.27344 0.30859,-0.27344 0.30859,-0.76953 0,-0.35938 -0.18359,-0.61328 -0.17969,-0.25782 -0.47657,-0.33985 -0.1914,-0.0508 -0.70703,-0.0508 H 446.875 Z"
       style="font-size:8px;font-family:Arial;fill:#cc78a6"
       id="path1793"
       inkscape:connector-curvature="0" />
    <path
       d="m 451.46094,107.83 v -5.72656 h 2.16015 q 0.57032,0 0.8711,0.0547 0.42187,0.0703 0.70703,0.26953 0.28515,0.19531 0.45703,0.55078 0.17578,0.35547 0.17578,0.78125 0,0.73047 -0.46484,1.23828 -0.46485,0.50391 -1.67969,0.50391 h -1.46875 V 107.83 Z m 0.75781,-3.0039 h 1.48047 q 0.73437,0 1.04297,-0.27344 0.30859,-0.27344 0.30859,-0.76953 0,-0.35938 -0.18359,-0.61328 -0.17969,-0.25782 -0.47657,-0.33985 -0.1914,-0.0508 -0.70703,-0.0508 h -1.46484 z"
       style="font-size:8px;font-family:Arial;fill:#cc78a6"
       id="path1795"
       inkscape:connector-curvature="0" />
    <path
       d="m 456.71484,107.83 v -5.72656 h 0.70313 v 2.05469 q 0.49219,-0.57032 1.24219,-0.57032 0.46093,0 0.80078,0.1836 0.33984,0.17969 0.48437,0.5 0.14844,0.32031 0.14844,0.92969 v 2.6289 h -0.70313 v -2.6289 q 0,-0.52735 -0.23046,-0.76563 -0.22657,-0.24219 -0.64454,-0.24219 -0.3125,0 -0.58984,0.16407 -0.27344,0.16015 -0.39062,0.4375 -0.11719,0.27734 -0.11719,0.76562 V 107.83 Z"
       style="font-size:8px;font-family:Arial;fill:#cc78a6"
       id="path1797"
       inkscape:connector-curvature="0" />
    <path
       d="M 463.66113,109.13317 V 109.64 h -2.83886 q -0.006,-0.19043 0.0615,-0.36621 0.1084,-0.29004 0.3457,-0.57129 0.24024,-0.28125 0.69141,-0.65039 0.70019,-0.57422 0.94629,-0.9082 0.24609,-0.33692 0.24609,-0.63574 0,-0.31348 -0.22558,-0.52735 -0.22266,-0.21679 -0.58301,-0.21679 -0.38086,0 -0.60938,0.22851 -0.22851,0.22852 -0.23144,0.63281 l -0.542,-0.0557 q 0.0557,-0.60645 0.41895,-0.92285 0.36328,-0.31934 0.97559,-0.31934 0.61816,0 0.97851,0.34278 0.36035,0.34277 0.36035,0.8496 0,0.25782 -0.10547,0.50684 -0.10546,0.24902 -0.35156,0.52441 -0.24316,0.2754 -0.81152,0.75586 -0.47461,0.39844 -0.60938,0.542 -0.13476,0.14062 -0.22265,0.28418 z"
       style="font-size:6px;font-family:Arial;fill:#cc78a6"
       id="path1799"
       inkscape:connector-curvature="0" />
  </g>
  <path
     style="fill:#cc78a6;fill-rule:evenodd;stroke:#cc78a6;stroke-width:0;stroke-linejoin:miter;shape-rendering:geometricPrecision"
     inkscape:connector-curvature="0"
     id="path281"
     d="m 589.75388,114.73113 v 0 h -0.34666 -0.33334 v -2.85333 h 0.33334 0.34666 z" />
  <path
     style="stroke:#000000;stroke-width:0.67999828;shape-rendering:auto"
     d="M 502.42649,127.55776 H 457.03992"
     id="line285"
     inkscape:connector-curvature="0" />
  <path
     style="fill:#000000;fill-rule:evenodd;stroke:#000000;stroke-width:0;stroke-linejoin:miter;stroke-miterlimit:5.89496231;shape-rendering:geometricPrecision"
     inkscape:connector-curvature="0"
     id="path287"
     stroke-miterlimit="5.89496254687647"
     d="m 507.0398,127.55776 -6.79999,-1.70666 c 1.44,0.96 1.44,2.45333 0,3.41332 z" />
  <path
     style="fill:#009d73;fill-rule:evenodd;stroke:#009d73;stroke-width:0;stroke-linejoin:miter;shape-rendering:geometricPrecision"
     inkscape:connector-curvature="0"
     id="path291"
     d="m 404.39244,127.42443 v 0 l 0.46666,-0.12 v 0.68 l -4.58665,7.91998 -0.29333,-0.17334 -0.29334,-0.15999 z" />
  <g
     aria-label="H"
     style="text-anchor:start;text-rendering:geometricPrecision"
     id="text297"
     transform="matrix(1.33333,0,0,1.33333,0.91344879,-35.295174)">
    <path
       d="m 294.94061,135.06 v -5.72656 h 0.75782 v 2.35156 h 2.97656 v -2.35156 h 0.75781 V 135.06 h -0.75781 v -2.69922 h -2.97656 V 135.06 Z"
       style="font-size:8px;font-family:Arial;fill:#009d73"
       id="path1789"
       inkscape:connector-curvature="0" />
  </g>
  <g
     aria-label="H"
     style="text-anchor:start;text-rendering:geometricPrecision"
     id="text303"
     transform="matrix(1.33333,0,0,1.33333,0.91344879,-35.295174)">
    <path
       d="m 306.45062,135.06 v -5.72656 h 0.75782 v 2.35156 h 2.97656 v -2.35156 h 0.75781 V 135.06 H 310.185 v -2.69922 h -2.97656 V 135.06 Z"
       style="font-size:8px;font-family:Arial;fill:#009d73"
       id="path1786"
       inkscape:connector-curvature="0" />
  </g>
  <path
     style="fill:#009d73;fill-rule:evenodd;stroke:#009d73;stroke-width:0;stroke-linejoin:miter;shape-rendering:geometricPrecision"
     inkscape:connector-curvature="0"
     id="path307"
     d="m 404.8591,127.98443 v 0 -0.68 l 0.46667,0.12 4.69332,8.14665 -0.29333,0.15999 -0.29333,0.17334 z" />
  <path
     style="fill:#009d73;fill-rule:evenodd;stroke:#009d73;stroke-width:0;stroke-linejoin:miter;shape-rendering:geometricPrecision"
     inkscape:connector-curvature="0"
     id="path311"
     d="m 575.64725,127.42443 v 0 l 0.46667,-0.12 v 0.68 l -4.58666,7.91998 -0.29333,-0.17334 -0.29333,-0.15999 z" />
  <g
     aria-label="H"
     style="text-anchor:start;text-rendering:geometricPrecision"
     id="text317"
     transform="matrix(1.33333,0,0,1.33333,-8.1646238,-35.295174)">
    <path
       d="m 430.19061,135.06 v -5.72656 h 0.75782 v 2.35156 h 2.97656 v -2.35156 h 0.75781 V 135.06 h -0.75781 v -2.69922 h -2.97656 V 135.06 Z"
       style="font-size:8px;font-family:Arial;fill:#009d73"
       id="path1783"
       inkscape:connector-curvature="0" />
  </g>
  <path
     style="fill:#009d73;fill-rule:evenodd;stroke:#009d73;stroke-width:0;stroke-linejoin:miter;shape-rendering:geometricPrecision"
     inkscape:connector-curvature="0"
     id="path321"
     d="m 576.11392,127.98443 v 0 -0.68 l 0.46666,0.12 4.69332,8.14665 -0.29333,0.15999 -0.29333,0.17334 z" />
  <g
     aria-label="H"
     style="text-anchor:start;text-rendering:geometricPrecision"
     id="text327"
     transform="matrix(1.33333,0,0,1.33333,-8.1646238,-35.295174)">
    <path
       d="m 441.70062,135.06 v -5.72656 h 0.75782 v 2.35156 h 2.97656 v -2.35156 h 0.75781 V 135.06 H 445.435 v -2.69922 h -2.97656 V 135.06 Z"
       style="font-size:8px;font-family:Arial;fill:#009d73"
       id="path1780"
       inkscape:connector-curvature="0" />
  </g>
  <g
     aria-label="Ph2PCl"
     style="text-anchor:start;text-rendering:geometricPrecision"
     id="text337"
     transform="matrix(1.33333,0,0,1.33333,-3.6255875,-35.295174)">
    <path
       d="m 349.61719,118.5 v -5.72656 h 2.16015 q 0.57032,0 0.8711,0.0547 0.42187,0.0703 0.70703,0.26953 0.28515,0.19531 0.45703,0.55078 0.17578,0.35547 0.17578,0.78125 0,0.73047 -0.46484,1.23828 -0.46485,0.50391 -1.67969,0.50391 H 350.375 V 118.5 Z m 0.75781,-3.00391 h 1.48047 q 0.73437,0 1.04297,-0.27343 0.30859,-0.27344 0.30859,-0.76953 0,-0.35938 -0.18359,-0.61329 -0.17969,-0.25781 -0.47657,-0.33984 -0.1914,-0.0508 -0.70703,-0.0508 H 350.375 Z"
       style="font-size:8px;font-family:Arial;fill:#cc78a6"
       id="path1767"
       inkscape:connector-curvature="0" />
    <path
       d="m 354.87109,118.5 v -5.72656 h 0.70313 v 2.05469 q 0.49219,-0.57032 1.24219,-0.57032 0.46093,0 0.80078,0.1836 0.33984,0.17968 0.48437,0.5 0.14844,0.32031 0.14844,0.92968 V 118.5 h -0.70313 v -2.62891 q 0,-0.52734 -0.23046,-0.76562 -0.22657,-0.24219 -0.64454,-0.24219 -0.3125,0 -0.58984,0.16406 -0.27344,0.16016 -0.39062,0.4375 -0.11719,0.27735 -0.11719,0.76563 V 118.5 Z"
       style="font-size:8px;font-family:Arial;fill:#cc78a6"
       id="path1769"
       inkscape:connector-curvature="0" />
    <path
       d="M 361.81738,119.80316 V 120.31 h -2.83886 q -0.006,-0.19043 0.0615,-0.36621 0.1084,-0.29004 0.3457,-0.57129 0.24024,-0.28125 0.69141,-0.65039 0.70019,-0.57422 0.94629,-0.9082 0.24609,-0.33692 0.24609,-0.63575 0,-0.31347 -0.22558,-0.52734 -0.22266,-0.2168 -0.58301,-0.2168 -0.38086,0 -0.60938,0.22852 -0.22851,0.22851 -0.23144,0.63281 l -0.542,-0.0557 q 0.0557,-0.60645 0.41895,-0.92285 0.36328,-0.31934 0.97559,-0.31934 0.61816,0 0.97851,0.34277 0.36035,0.34278 0.36035,0.84961 0,0.25782 -0.10547,0.50684 -0.10546,0.24902 -0.35156,0.52441 -0.24316,0.27539 -0.81152,0.75586 -0.47461,0.39844 -0.60938,0.54199 -0.13476,0.14063 -0.22265,0.28418 z"
       style="font-size:6px;font-family:Arial;fill:#cc78a6"
       id="path1771"
       inkscape:connector-curvature="0" />
    <path
       d="m 362.75391,118.5 v -5.72656 h 2.16015 q 0.57031,0 0.8711,0.0547 0.42187,0.0703 0.70703,0.26953 0.28515,0.19531 0.45703,0.55078 0.17578,0.35547 0.17578,0.78125 0,0.73047 -0.46484,1.23828 -0.46485,0.50391 -1.67969,0.50391 h -1.46875 V 118.5 Z m 0.75781,-3.00391 h 1.48047 q 0.73437,0 1.04297,-0.27343 0.30859,-0.27344 0.30859,-0.76953 0,-0.35938 -0.18359,-0.61329 -0.17969,-0.25781 -0.47657,-0.33984 -0.1914,-0.0508 -0.70703,-0.0508 h -1.46484 z"
       style="font-size:8px;font-family:Arial;fill:#cc78a6"
       id="path1773"
       inkscape:connector-curvature="0" />
    <path
       d="m 372.18359,116.49219 0.75782,0.1914 q -0.23829,0.9336 -0.85938,1.42579 -0.61719,0.48828 -1.51172,0.48828 -0.92578,0 -1.50781,-0.375 -0.57813,-0.37891 -0.88281,-1.09375 -0.30078,-0.71485 -0.30078,-1.53516 0,-0.89453 0.33984,-1.55859 0.34375,-0.66797 0.97266,-1.01172 0.63281,-0.34766 1.39062,-0.34766 0.85938,0 1.44531,0.4375 0.58594,0.4375 0.81641,1.23047 l -0.74609,0.17578 q -0.19922,-0.625 -0.57813,-0.91015 -0.37891,-0.28516 -0.95312,-0.28516 -0.66016,0 -1.10547,0.31641 -0.44141,0.3164 -0.6211,0.85156 -0.17968,0.53125 -0.17968,1.09765 0,0.73047 0.21093,1.27735 0.21485,0.54297 0.66407,0.8125 0.44921,0.26953 0.97265,0.26953 0.63672,0 1.07813,-0.36719 0.4414,-0.36719 0.59765,-1.08984 z"
       style="font-size:8px;font-family:Arial;fill:#cc78a6"
       id="path1775"
       inkscape:connector-curvature="0" />
    <path
       d="m 373.77344,118.5 v -5.72656 h 0.70312 V 118.5 Z"
       style="font-size:8px;font-family:Arial;fill:#cc78a6"
       id="path1777"
       inkscape:connector-curvature="0" />
  </g>
  <path
     style="stroke:#e69e00;stroke-width:0.67999828;shape-rendering:auto"
     d="m 212.72625,95.664503 h 165.1996"
     id="line341"
     inkscape:connector-curvature="0" />
  <path
     style="stroke:#e69e00;stroke-width:0.67999828;shape-rendering:auto"
     d="M 377.84585,110.11781 V 95.864505"
     id="line343"
     inkscape:connector-curvature="0" />
  <path
     style="fill:#e69e00;stroke:#e69e00;stroke-width:0.1466663"
     d="m 379.71918,109.58447 a 1.8733286,1.8733286 0 0 1 -1.87333,1.87333 1.8733286,1.8733286 0 0 1 -1.87333,-1.87333 1.8733286,1.8733286 0 0 1 1.87333,-1.87333 1.8733286,1.8733286 0 0 1 1.87333,1.87333 z"
     id="circle345"
     inkscape:connector-curvature="0" />
  <path
     style="fill:#e69e00;stroke:#e69e00;stroke-width:0.1466663"
     d="m 290.21274,134.61108 a 1.8733286,1.8733286 0 0 1 -1.87333,1.87333 1.8733286,1.8733286 0 0 1 -1.87333,-1.87333 1.8733286,1.8733286 0 0 1 1.87333,-1.87333 1.8733286,1.8733286 0 0 1 1.87333,1.87333 z"
     id="circle364"
     inkscape:connector-curvature="0" />
  <path
     style="stroke:#e69e00;stroke-width:0.67999828;shape-rendering:auto"
     d="m 288.33941,134.21108 v 20.61328"
     id="line368"
     inkscape:connector-curvature="0" />
  <path
     style="stroke:#e69e00;stroke-width:0.67999828;shape-rendering:auto"
     d="m 195.1663,154.82436 h 93.17311"
     id="line370"
     inkscape:connector-curvature="0" />
  <text
     xml:space="preserve"
     style="font-style:normal;font-variant:normal;font-weight:normal;font-stretch:normal;font-size:10.66666698px;line-height:1.25;font-family:Arial;-inkscape-font-specification:Arial;text-align:start;letter-spacing:0px;word-spacing:0px;text-anchor:start;fill:#e69f00;fill-opacity:1;stroke:none"
     x="213.30664"
     y="91.717087"
     id="text1942"><tspan
       sodipodi:role="line"
       id="tspan1940"
       x="213.30664"
       y="91.717087">wizanie podwjne nienaruszone</tspan></text>
  <text
     xml:space="preserve"
     style="font-style:normal;font-variant:normal;font-weight:normal;font-stretch:normal;font-size:10.66666698px;line-height:1.25;font-family:Arial;-inkscape-font-specification:Arial;text-align:start;letter-spacing:0px;word-spacing:0px;text-anchor:start;fill:#e69f00;fill-opacity:1;stroke:none"
     x="195.83136"
     y="151.17847"
     id="text1946"><tspan
       sodipodi:role="line"
       id="tspan1944"
       x="195.83136"
       y="151.17847">drugi ekwiwalent</tspan></text>
  <text
     xml:space="preserve"
     style="font-style:normal;font-variant:normal;font-weight:normal;font-stretch:normal;font-size:10.66666698px;line-height:1.25;font-family:Arial;-inkscape-font-specification:Arial;text-align:start;letter-spacing:0px;word-spacing:0px;text-anchor:start;fill:#000000;fill-opacity:1;stroke:none"
     x="26.712833"
     y="157.96696"
     id="text1950"><tspan
       sodipodi:role="line"
       id="tspan1948"
       x="26.712833"
       y="157.96696">\cmpd{w:1-metine-y-lacton}</tspan></text>
  <text
     xml:space="preserve"
     style="font-style:normal;font-variant:normal;font-weight:normal;font-stretch:normal;font-size:10.66666698px;line-height:1.25;font-family:Arial;-inkscape-font-specification:Arial;text-align:start;letter-spacing:0px;word-spacing:0px;text-anchor:start;fill:#000000;fill-opacity:1;stroke:none"
     x="128.66351"
     y="157.96696"
     id="text1950-1"><tspan
       sodipodi:role="line"
       id="tspan1948-2"
       x="128.66351"
       y="157.96696">\cmpd{w:zr-lacton}</tspan></text>
  <text
     xml:space="preserve"
     style="font-style:normal;font-variant:normal;font-weight:normal;font-stretch:normal;font-size:10.66666698px;line-height:1.25;font-family:Arial;-inkscape-font-specification:Arial;text-align:start;letter-spacing:0px;word-spacing:0px;text-anchor:start;fill:#000000;fill-opacity:1;stroke:none"
     x="423.09641"
     y="157.96696"
     id="text1950-1-2"><tspan
       sodipodi:role="line"
       id="tspan1948-2-5"
       x="423.09641"
       y="157.96696">\cmpd{w:di-oxo-zr}</tspan></text>
  <text
     xml:space="preserve"
     style="font-style:normal;font-variant:normal;font-weight:normal;font-stretch:normal;font-size:10.66666698px;line-height:1.25;font-family:Arial;-inkscape-font-specification:Arial;text-align:start;letter-spacing:0px;word-spacing:0px;text-anchor:start;fill:#000000;fill-opacity:1;stroke:none"
     x="593.91077"
     y="157.96696"
     id="text1950-1-2-1"><tspan
       sodipodi:role="line"
       id="tspan1948-2-5-4"
       x="593.91077"
       y="157.96696">\cmpd{w:di-phosphinine}</tspan></text>
</svg>
