<?xml version="1.0" encoding="UTF-8" standalone="no"?>
<svg
   xmlns:dc="http://purl.org/dc/elements/1.1/"
   xmlns:cc="http://creativecommons.org/ns#"
   xmlns:rdf="http://www.w3.org/1999/02/22-rdf-syntax-ns#"
   xmlns:svg="http://www.w3.org/2000/svg"
   xmlns="http://www.w3.org/2000/svg"
   xmlns:sodipodi="http://sodipodi.sourceforge.net/DTD/sodipodi-0.dtd"
   xmlns:inkscape="http://www.inkscape.org/namespaces/inkscape"
   viewBox=".37 58.08 298.63 52.92"
   preserveAspectRatio="xMidYMid"
   width="100%"
   height="100%"
   version="1.1"
   id="svg287"
   sodipodi:docname="phosphonation.svg"
   inkscape:version="0.92.3 (2405546, 2018-03-11)">
  <metadata
     id="metadata293">
    <rdf:RDF>
      <cc:Work
         rdf:about="">
        <dc:format>image/svg+xml</dc:format>
        <dc:type
           rdf:resource="http://purl.org/dc/dcmitype/StillImage" />
      </cc:Work>
    </rdf:RDF>
  </metadata>
  <defs
     id="defs291" />
  <sodipodi:namedview
     pagecolor="#ffffff"
     bordercolor="#666666"
     borderopacity="1"
     objecttolerance="10"
     gridtolerance="10"
     guidetolerance="10"
     inkscape:pageopacity="0"
     inkscape:pageshadow="2"
     inkscape:window-width="1920"
     inkscape:window-height="1017"
     id="namedview289"
     showgrid="false"
     inkscape:zoom="2.4110103"
     inkscape:cx="175.8813"
     inkscape:cy="52.452073"
     inkscape:window-x="-8"
     inkscape:window-y="-8"
     inkscape:window-maximized="1"
     inkscape:current-layer="svg287" />
  <clipPath
     id="73604">
    <rect
       x="0.255"
       y="0.255"
       width="302.74"
       height="769.29"
       id="rect2" />
  </clipPath>
  <g
     aria-label="R1"
     style="font-size:15.99995995px;text-anchor:end;stroke-width:1.33333004;text-rendering:geometricPrecision"
     id="text11">
    <path
       d="m -48.524087,93.873314 v -7.635398 h 3.385408 q 1.020831,0 1.55208,0.208333 0.531248,0.203124 0.848956,0.723956 0.317707,0.520833 0.317707,1.151039 0,0.812498 -0.52604,1.369789 -0.52604,0.55729 -1.624996,0.708331 0.401041,0.192708 0.609374,0.380208 0.442707,0.406249 0.838539,1.015622 l 1.328122,2.07812 h -1.27083 l -1.010414,-1.588538 q -0.442708,-0.687498 -0.729165,-1.052081 -0.286458,-0.364582 -0.515624,-0.510415 -0.223958,-0.145833 -0.458332,-0.203124 -0.171875,-0.03646 -0.562499,-0.03646 h -1.171872 v 3.390617 z m 1.010414,-4.265615 h 2.17187 q 0.692706,0 1.08333,-0.140624 0.390624,-0.145833 0.593749,-0.458332 0.203124,-0.317708 0.203124,-0.687499 0,-0.541665 -0.395832,-0.890622 -0.390624,-0.348958 -1.23958,-0.348958 h -2.416661 z"
       style="font-size:10.66664028px;font-family:Arial;fill:#000000;stroke-width:1.33333004"
       id="path1477"
       inkscape:connector-curvature="0" />
    <path
       d="m -38.673851,89.526658 h -0.703123 v -4.480457 q -0.253906,0.242186 -0.667967,0.484373 -0.410156,0.242187 -0.73828,0.363281 v -0.679686 q 0.589843,-0.277343 1.031248,-0.671873 0.441405,-0.394531 0.624998,-0.765624 h 0.453124 z"
       style="font-size:7.99997997px;font-family:Arial;fill:#000000;stroke-width:1.33333004"
       id="path1479"
       inkscape:connector-curvature="0" />
  </g>
  <path
     style="fill:#000000;fill-rule:evenodd;stroke:#000000;stroke-width:0;stroke-linejoin:miter;shape-rendering:geometricPrecision"
     inkscape:connector-curvature="0"
     id="path15"
     d="m -36.894535,85.073331 v 0 l -0.159999,-0.293332 -0.173333,-0.293333 4.973321,-2.86666 v 0.386666 0.386666 z" />
  <g
     aria-label="(EtO)2P"
     style="font-size:15.99995995px;text-anchor:start;stroke-width:1.33333004;text-rendering:geometricPrecision"
     id="text24"
     transform="translate(0,6.2214583)">
    <path
       d="m 196.74634,70.744832 q -0.77604,-0.979164 -1.31249,-2.291661 -0.53646,-1.312497 -0.53646,-2.718743 0,-1.239581 0.40104,-2.374995 0.46875,-1.317705 1.44791,-2.624993 h 0.67188 q -0.63021,1.083331 -0.83334,1.546871 -0.3177,0.718748 -0.49999,1.499996 -0.22396,0.973956 -0.22396,1.958329 0,2.505202 1.55729,5.005196 z"
       style="font-size:10.66664028px;font-family:Arial;fill:#cc78a6;stroke-width:1.33333004"
       id="path1482"
       inkscape:connector-curvature="0" />
    <path
       d="m 198.6578,68.500046 v -7.635398 h 5.52082 v 0.901039 h -4.51041 v 2.338536 h 4.22395 v 0.895831 h -4.22395 v 2.598952 h 4.68749 v 0.90104 z"
       style="font-size:10.66664028px;font-family:Arial;fill:#cc78a6;stroke-width:1.33333004"
       id="path1484"
       inkscape:connector-curvature="0" />
    <path
       d="m 207.68902,67.661506 0.13542,0.828123 q -0.39583,0.08333 -0.70833,0.08333 -0.51042,0 -0.79167,-0.161458 -0.28125,-0.161458 -0.39583,-0.421874 -0.11458,-0.265624 -0.11458,-1.109372 v -3.182284 h -0.6875 v -0.729165 h 0.6875 v -1.369788 l 0.93229,-0.562498 v 1.932286 h 0.9427 v 0.729165 h -0.9427 v 3.234367 q 0,0.401041 0.0469,0.515624 0.0521,0.114583 0.16146,0.182291 0.11458,0.06771 0.32292,0.06771 0.15625,0 0.41145,-0.03646 z"
       style="font-size:10.66664028px;font-family:Arial;fill:#cc78a6;stroke-width:1.33333004"
       id="path1486"
       inkscape:connector-curvature="0" />
    <path
       d="m 208.41298,64.781305 q 0,-1.901037 1.02083,-2.973951 1.02083,-1.078122 2.63541,-1.078122 1.05729,0 1.90625,0.505207 0.84895,0.505207 1.29166,1.411455 0.44792,0.901039 0.44792,2.04687 0,1.161455 -0.46875,2.078119 -0.46875,0.916665 -1.32813,1.390622 -0.85937,0.468749 -1.85416,0.468749 -1.07812,0 -1.92708,-0.520832 -0.84895,-0.520832 -1.28645,-1.421872 -0.4375,-0.901039 -0.4375,-1.906245 z m 1.04166,0.01563 q 0,1.380205 0.73959,2.177078 0.74479,0.791665 1.86457,0.791665 1.14063,0 1.875,-0.802082 0.73958,-0.802081 0.73958,-2.276036 0,-0.932289 -0.31771,-1.624996 -0.3125,-0.697915 -0.92187,-1.078122 -0.60416,-0.385416 -1.35937,-0.385416 -1.07291,0 -1.84895,0.739582 -0.77084,0.734373 -0.77084,2.458327 z"
       style="font-size:10.66664028px;font-family:Arial;fill:#cc78a6;stroke-width:1.33333004"
       id="path1488"
       inkscape:connector-curvature="0" />
    <path
       d="m 217.50671,70.744832 h -0.67188 q 1.55729,-2.499994 1.55729,-5.005196 0,-0.979164 -0.22396,-1.942704 -0.17708,-0.781248 -0.49479,-1.499996 -0.20312,-0.468749 -0.83854,-1.562496 h 0.67188 q 0.97916,1.307288 1.44791,2.624993 0.40104,1.135414 0.40104,2.374995 0,1.406246 -0.54166,2.718743 -0.53646,1.312497 -1.30729,2.291661 z"
       style="font-size:10.66664028px;font-family:Arial;fill:#cc78a6;stroke-width:1.33333004"
       id="path1490"
       inkscape:connector-curvature="0" />
    <path
       d="m 223.77883,70.237593 v 0.67578 h -3.78515 q -0.008,-0.253906 0.082,-0.48828 0.14453,-0.386718 0.46094,-0.761717 0.32031,-0.374999 0.92187,-0.867185 0.93359,-0.765623 1.26172,-1.210935 0.32812,-0.449217 0.32812,-0.847654 0,-0.417968 -0.30078,-0.703123 -0.29687,-0.289062 -0.77734,-0.289062 -0.50781,0 -0.8125,0.304687 -0.30469,0.304687 -0.30859,0.843748 l -0.72266,-0.07422 q 0.0742,-0.808591 0.55859,-1.230465 0.48438,-0.425781 1.30078,-0.425781 0.82422,0 1.30469,0.45703 0.48046,0.457031 0.48046,1.13281 0,0.343749 -0.14062,0.67578 -0.14062,0.33203 -0.46875,0.699217 -0.32422,0.367186 -1.08203,1.00781 -0.63281,0.531248 -0.8125,0.722654 -0.17968,0.1875 -0.29687,0.378905 z"
       style="font-size:7.99997997px;font-family:Arial;fill:#cc78a6;stroke-width:1.33333004"
       id="path1492"
       inkscape:connector-curvature="0" />
    <path
       d="m 225.02752,68.500046 v -7.635398 h 2.8802 q 0.76042,0 1.16146,0.07292 0.5625,0.09375 0.9427,0.359375 0.38021,0.260416 0.60938,0.734373 0.23437,0.473957 0.23437,1.041664 0,0.973956 -0.61979,1.651037 -0.61979,0.671874 -2.23958,0.671874 h -1.95832 v 3.104159 z m 1.01042,-4.005199 h 1.97395 q 0.97916,0 1.39062,-0.364582 0.41146,-0.364583 0.41146,-1.026039 0,-0.479166 -0.24479,-0.817707 -0.23959,-0.343749 -0.63542,-0.453123 -0.25521,-0.06771 -0.9427,-0.06771 h -1.95312 z"
       style="font-size:10.66664028px;font-family:Arial;fill:#cc78a6;stroke-width:1.33333004"
       id="path1494"
       inkscape:connector-curvature="0" />
  </g>
  <path
     style="fill:#000000;fill-rule:evenodd;stroke:#000000;stroke-width:0;stroke-linejoin:miter;shape-rendering:geometricPrecision"
     inkscape:connector-curvature="0"
     id="path28"
     d="m -14.227925,87.326659 v 0 l -0.159999,-0.293333 -0.173333,-0.293332 4.199989,-2.426661 0.16,0.293333 0.173333,0.293332 z" />
  <path
     style="fill:#000000;fill-rule:evenodd;stroke:#000000;stroke-width:0;stroke-linejoin:miter;shape-rendering:geometricPrecision"
     inkscape:connector-curvature="0"
     id="path32"
     d="m -32.254546,82.393338 v 0 -0.386666 -0.386666 l 8.893311,5.133321 -0.173333,0.293333 -0.16,0.293332 z" />
  <g
     aria-label="O"
     style="font-size:15.99995995px;text-anchor:start;stroke-width:1.33333004;text-rendering:geometricPrecision"
     id="text38">
    <path
       d="m -35.872247,67.154627 q 0,-1.901037 1.020831,-2.973951 1.020831,-1.078123 2.63541,-1.078123 1.057289,0 1.906245,0.505207 0.848956,0.505207 1.291664,1.411455 0.447915,0.90104 0.447915,2.04687 0,1.161456 -0.468749,2.07812 -0.468748,0.916664 -1.328121,1.390621 -0.859373,0.468749 -1.854162,0.468749 -1.078123,0 -1.927079,-0.520832 -0.848956,-0.520832 -1.286455,-1.421871 -0.437499,-0.90104 -0.437499,-1.906245 z m 1.041664,0.01562 q 0,1.380205 0.739582,2.177078 0.744789,0.791665 1.864578,0.791665 1.140622,0 1.874996,-0.802081 0.739581,-0.802082 0.739581,-2.276036 0,-0.93229 -0.317707,-1.624996 -0.3125,-0.697915 -0.921873,-1.078123 -0.604165,-0.385415 -1.359372,-0.385415 -1.072914,0 -1.848954,0.739581 -0.770831,0.734373 -0.770831,2.458327 z"
       style="font-size:10.66664028px;font-family:Arial;fill:#000000;stroke-width:1.33333004"
       id="path1497"
       inkscape:connector-curvature="0" />
  </g>
  <path
     style="fill:#000000;fill-rule:evenodd;stroke:#000000;stroke-width:0;stroke-linejoin:miter;shape-rendering:geometricPrecision"
     inkscape:connector-curvature="0"
     id="path44"
     d="m -31.214549,82.220005 v 0 l 0.679999,0.386666 v -9.853309 h -0.679999 z" />
  <path
     style="fill:#000000;fill-rule:evenodd;stroke:#000000;stroke-width:0;stroke-linejoin:miter;shape-rendering:geometricPrecision"
     inkscape:connector-curvature="0"
     id="path46"
     d="m -33.974542,82.606671 v 0 l 0.679998,-0.386666 v -9.466643 h -0.679998 z" />
  <g
     aria-label="R2"
     style="font-size:15.99995995px;text-anchor:start;stroke-width:1.33333004;text-rendering:geometricPrecision"
     id="text54">
    <path
       d="m -8.7227302,86.206665 v -7.635398 h 3.3854083 q 1.0208308,0 1.5520795,0.208333 0.5312487,0.203125 0.8489563,0.723957 0.3177075,0.520832 0.3177075,1.151038 0,0.812498 -0.5260404,1.369789 -0.5260403,0.55729 -1.6249959,0.708331 0.4010406,0.192708 0.6093734,0.380208 0.4427073,0.406249 0.8385396,1.015622 l 1.3281218,2.07812 h -1.2708302 l -1.0104142,-1.588538 q -0.4427072,-0.687498 -0.7291649,-1.05208 -0.2864576,-0.364583 -0.5156237,-0.510416 -0.2239578,-0.145833 -0.4583322,-0.203124 -0.1718746,-0.03646 -0.5624986,-0.03646 H -7.712316 v 3.390617 z m 1.0104142,-4.265614 h 2.1718696 q 0.6927066,0 1.0833307,-0.140625 0.390624,-0.145833 0.5937485,-0.458332 0.2031245,-0.317708 0.2031245,-0.687499 0,-0.541665 -0.3958323,-0.890622 -0.3906241,-0.348958 -1.2395803,-0.348958 H -7.712316 Z"
       style="font-size:10.66664028px;font-family:Arial;fill:#000000;stroke-width:1.33333004"
       id="path1501"
       inkscape:connector-curvature="0" />
    <path
       d="m 2.1743783,81.18423 v 0.675779 h -3.7851467 q -0.00781,-0.253905 0.082031,-0.48828 0.1445309,-0.386718 0.4609363,-0.761717 0.32031174,-0.374999 0.92187274,-0.867185 0.93359141,-0.765623 1.26171556,-1.210934 0.3281242,-0.449218 0.3281242,-0.847655 0,-0.417967 -0.3007805,-0.703123 -0.29687425,-0.289062 -0.7773418,-0.289062 -0.50781122,0 -0.81249796,0.304687 -0.30468674,0.304687 -0.30859298,0.843748 l -0.72265446,-0.07422 q 0.074219,-0.808591 0.55859237,-1.230465 0.48437379,-0.42578 1.300778,-0.42578 0.82421673,0 1.30468423,0.45703 0.4804675,0.45703 0.4804675,1.132809 0,0.343749 -0.1406246,0.67578 -0.1406246,0.33203 -0.4687488,0.699217 -0.324218,0.367186 -1.08202857,1.00781 -0.63281092,0.531249 -0.81249797,0.722654 -0.17968705,0.1875 -0.29687425,0.378906 z"
       style="font-size:7.99997997px;font-family:Arial;fill:#000000;stroke-width:1.33333004"
       id="path1503"
       inkscape:connector-curvature="0" />
  </g>
  <g
     aria-label="NH"
     style="font-size:15.99995995px;text-anchor:start;stroke-width:1.33333004;text-rendering:geometricPrecision"
     id="text62">
    <path
       d="m -22.028736,93.873314 v -7.635398 h 1.036456 l 4.010406,5.994777 v -5.994777 h 0.968748 v 7.635398 h -1.036456 l -4.010407,-5.999985 v 5.999985 z"
       style="font-size:10.66664028px;font-family:Arial;fill:#000000;stroke-width:1.33333004"
       id="path1506"
       inkscape:connector-curvature="0" />
    <path
       d="m -21.98707,104.53995 v -7.6354 h 1.010415 v 3.13541 h 3.96874 v -3.13541 h 1.010414 v 7.6354 h -1.010414 V 100.941 h -3.96874 v 3.59895 z"
       style="font-size:10.66664028px;font-family:Arial;fill:#000000;stroke-width:1.33333004"
       id="path1508"
       inkscape:connector-curvature="0" />
  </g>
  <path
     style="stroke:#000000;stroke-width:0.67999828;shape-rendering:auto"
     d="M 256.98474,89.454788 H 123.02507"
     id="line66"
     inkscape:connector-curvature="0" />
  <path
     style="fill:#000000;fill-rule:evenodd;stroke:#000000;stroke-width:0;stroke-linejoin:miter;stroke-miterlimit:5.89496231;shape-rendering:geometricPrecision"
     inkscape:connector-curvature="0"
     id="path68"
     stroke-miterlimit="5.89496254687632"
     d="m 261.59805,89.454794 -6.79998,-1.706663 c 1.44,0.959998 1.44,2.453328 0,3.413325 z" />
  <g
     aria-label="Cp2Zr(H)Cl,"
     style="font-size:15.99995995px;text-anchor:middle;stroke-width:1.33333004;text-rendering:geometricPrecision"
     id="text79"
     transform="translate(0,6.2214583)">
    <path
       d="m 139.10987,66.546358 1.0041,0.253613 q -0.31572,1.237009 -1.13867,1.889155 -0.81777,0.646971 -2.00302,0.646971 -1.22666,0 -1.99785,-0.496873 -0.76601,-0.50205 -1.16972,-1.449216 -0.39854,-0.947165 -0.39854,-2.034077 0,-1.18525 0.4503,-2.065131 0.45546,-0.885056 1.28876,-1.340524 0.83848,-0.460643 1.84258,-0.460643 1.13867,0 1.91503,0.579686 0.77637,0.579686 1.08174,1.630367 l -0.98858,0.232909 q -0.26396,-0.828123 -0.76601,-1.205954 -0.50205,-0.377831 -1.26289,-0.377831 -0.8747,0 -1.46474,0.419237 -0.58486,0.419238 -0.82295,1.128318 -0.23808,0.703904 -0.23808,1.454391 0,0.967868 0.27949,1.692476 0.28467,0.719432 0.87988,1.07656 0.59521,0.357128 1.28877,0.357128 0.84365,0 1.42851,-0.486522 0.58486,-0.486523 0.79189,-1.44404 z"
       style="font-size:10.59997368px;font-family:Arial;fill:#009d73;stroke-width:1.33333004"
       id="path1512"
       inkscape:connector-curvature="0" />
    <path
       d="m 141.23711,71.313241 v -7.603204 h 0.84883 v 0.714256 q 0.30019,-0.419237 0.67802,-0.626268 0.37783,-0.212206 0.91611,-0.212206 0.70391,0 1.24219,0.362303 0.53828,0.362304 0.81259,1.024803 0.27432,0.657322 0.27432,1.444039 0,0.84365 -0.30537,1.521676 -0.30019,0.67285 -0.87988,1.035154 -0.57451,0.357128 -1.21113,0.357128 -0.46582,0 -0.83847,-0.19668 -0.36748,-0.196679 -0.60557,-0.496873 v 2.675872 z m 0.84365,-4.823816 q 0,1.061032 0.42959,1.568258 0.42959,0.507225 1.04033,0.507225 0.62109,0 1.06103,-0.522753 0.44512,-0.527928 0.44512,-1.630367 0,-1.050681 -0.43477,-1.573433 -0.42958,-0.522753 -1.02997,-0.522753 -0.59522,0 -1.05586,0.558983 -0.45547,0.553807 -0.45547,1.61484 z"
       style="font-size:10.59997368px;font-family:Arial;fill:#009d73;stroke-width:1.33333004"
       id="path1514"
       inkscape:connector-curvature="0" />
    <path
       d="m 150.44092,70.935141 v 0.671556 h -3.76149 q -0.008,-0.252319 0.0815,-0.485228 0.14363,-0.384301 0.45806,-0.756956 0.31831,-0.372656 0.91611,-0.861766 0.92775,-0.760838 1.25383,-1.203366 0.32607,-0.44641 0.32607,-0.842356 0,-0.415356 -0.2989,-0.698729 -0.29502,-0.287255 -0.77248,-0.287255 -0.50464,0 -0.80742,0.302782 -0.30279,0.302783 -0.30667,0.838475 l -0.71814,-0.07375 q 0.0738,-0.803538 0.55511,-1.222775 0.48134,-0.423119 1.29264,-0.423119 0.81907,0 1.29653,0.454173 0.47747,0.454174 0.47747,1.12573 0,0.341601 -0.13975,0.671556 -0.13974,0.329955 -0.46582,0.694847 -0.32219,0.364892 -1.07526,1.001511 -0.62886,0.527928 -0.80742,0.718138 -0.17857,0.186328 -0.29502,0.376537 z"
       style="font-size:7.94998026px;font-family:Arial;fill:#009d73;stroke-width:1.33333004"
       id="path1516"
       inkscape:connector-curvature="0" />
    <path
       d="m 151.07625,69.206703 v -0.931638 l 3.887,-4.860047 q 0.41406,-0.517576 0.78672,-0.900583 h -4.23378 v -0.895408 h 5.43455 v 0.895408 l -4.25965,5.263756 -0.46065,0.533104 h 4.84452 v 0.895408 z"
       style="font-size:10.59997368px;font-family:Arial;fill:#009d73;stroke-width:1.33333004"
       id="path1518"
       inkscape:connector-curvature="0" />
    <path
       d="m 158.03248,69.206703 v -5.496666 h 0.83847 v 0.833299 q 0.3209,-0.584862 0.59004,-0.77119 0.27432,-0.186327 0.60039,-0.186327 0.471,0 0.95752,0.300194 l -0.3209,0.864354 q -0.3416,-0.201855 -0.6832,-0.201855 -0.30537,0 -0.54863,0.186327 -0.24326,0.181152 -0.34678,0.507226 -0.15527,0.496873 -0.15527,1.086911 v 2.877727 z"
       style="font-size:10.59997368px;font-family:Arial;fill:#009d73;stroke-width:1.33333004"
       id="path1520"
       inkscape:connector-curvature="0" />
    <path
       d="m 163.36352,71.437459 q -0.77119,-0.973044 -1.30429,-2.277338 -0.53311,-1.304293 -0.53311,-2.701751 0,-1.231833 0.39854,-2.36015 0.46582,-1.30947 1.43886,-2.608587 h 0.66768 q -0.62627,1.076559 -0.82813,1.537203 -0.31572,0.714256 -0.49687,1.490621 -0.22256,0.967869 -0.22256,1.946089 0,2.489545 1.54756,4.973913 z"
       style="font-size:10.59997368px;font-family:Arial;fill:#009d73;stroke-width:1.33333004"
       id="path1522"
       inkscape:connector-curvature="0" />
    <path
       d="m 165.27338,69.206703 v -7.587676 h 1.0041 v 3.115812 h 3.94394 v -3.115812 h 1.00409 v 7.587676 h -1.00409 v -3.576456 h -3.94394 v 3.576456 z"
       style="font-size:10.59997368px;font-family:Arial;fill:#009d73;stroke-width:1.33333004"
       id="path1524"
       inkscape:connector-curvature="0" />
    <path
       d="m 173.39416,71.437459 h -0.66767 q 1.54755,-2.484368 1.54755,-4.973913 0,-0.973045 -0.22256,-1.930562 -0.17597,-0.776365 -0.4917,-1.490621 -0.20185,-0.465819 -0.83329,-1.55273 h 0.66767 q 0.97304,1.299117 1.43886,2.608587 0.39854,1.128317 0.39854,2.36015 0,1.397458 -0.53828,2.701751 -0.53311,1.304294 -1.29912,2.277338 z"
       style="font-size:10.59997368px;font-family:Arial;fill:#009d73;stroke-width:1.33333004"
       id="path1526"
       inkscape:connector-curvature="0" />
    <path
       d="m 181.85654,66.546358 1.0041,0.253613 q -0.31572,1.237009 -1.13867,1.889155 -0.81777,0.646971 -2.00302,0.646971 -1.22666,0 -1.99785,-0.496873 -0.76601,-0.50205 -1.16972,-1.449216 -0.39854,-0.947165 -0.39854,-2.034077 0,-1.18525 0.4503,-2.065131 0.45546,-0.885056 1.28876,-1.340524 0.83848,-0.460643 1.84258,-0.460643 1.13866,0 1.91503,0.579686 0.77637,0.579686 1.08174,1.630367 l -0.98858,0.232909 q -0.26396,-0.828123 -0.76601,-1.205954 -0.50205,-0.377831 -1.26289,-0.377831 -0.8747,0 -1.46474,0.419237 -0.58486,0.419238 -0.82295,1.128318 -0.23808,0.703904 -0.23808,1.454391 0,0.967868 0.27949,1.692476 0.28467,0.719432 0.87988,1.07656 0.59521,0.357128 1.28877,0.357128 0.84365,0 1.42851,-0.486522 0.58486,-0.486523 0.79189,-1.44404 z"
       style="font-size:10.59997368px;font-family:Arial;fill:#009d73;stroke-width:1.33333004"
       id="path1528"
       inkscape:connector-curvature="0" />
    <path
       d="m 183.96308,69.206703 v -7.587676 h 0.93164 v 7.587676 z"
       style="font-size:10.59997368px;font-family:Arial;fill:#009d73;stroke-width:1.33333004"
       id="path1530"
       inkscape:connector-curvature="0" />
    <path
       d="m 186.5872,69.206703 v -1.061032 h 1.06103 v 1.061032 q 0,0.584862 -0.20703,0.94199 -0.20703,0.362304 -0.65732,0.558983 l -0.25879,-0.398534 q 0.29502,-0.129394 0.43476,-0.383007 0.13975,-0.248437 0.15527,-0.719432 z"
       style="font-size:10.59997368px;font-family:Arial;fill:#000000;stroke-width:1.33333004"
       id="path1532"
       inkscape:connector-curvature="0" />
  </g>
  <g
     aria-label="P"
     style="font-size:15.99995995px;text-anchor:start;stroke-width:1.33333004;text-rendering:geometricPrecision"
     id="text85">
    <path
       d="m 308.80239,79.406685 v -7.587677 h 2.8622 q 0.75566,0 1.1542,0.07246 0.55898,0.09316 0.93681,0.357128 0.37783,0.258789 0.60557,0.729784 0.23291,0.470994 0.23291,1.035153 0,0.967869 -0.61592,1.640719 -0.61592,0.667674 -2.22558,0.667674 h -1.94609 v 3.084758 z m 1.0041,-3.980166 h 1.96162 q 0.97304,0 1.38193,-0.362304 0.40888,-0.362304 0.40888,-1.019626 0,-0.476171 -0.24326,-0.812596 -0.23808,-0.341601 -0.63144,-0.450292 -0.25362,-0.06728 -0.93682,-0.06728 h -1.94091 z"
       style="font-size:10.59997368px;font-family:Arial;fill:#cc78a6;stroke-width:1.33333004"
       id="path1535"
       inkscape:connector-curvature="0" />
  </g>
  <g
     aria-label="O"
     style="font-size:15.99995995px;text-anchor:start;stroke-width:1.33333004;text-rendering:geometricPrecision"
     id="text91">
    <path
       d="m 318.75032,64.857877 q 0,-1.889156 1.01445,-2.955364 1.01445,-1.071384 2.61894,-1.071384 1.05068,0 1.89433,0.502049 0.84365,0.50205 1.28359,1.402634 0.44511,0.895407 0.44511,2.034077 0,1.154196 -0.46582,2.065131 -0.46581,0.910935 -1.31982,1.38193 -0.854,0.465819 -1.84257,0.465819 -1.07138,0 -1.91503,-0.517576 -0.84365,-0.517577 -1.27842,-1.412985 -0.43476,-0.895408 -0.43476,-1.894331 z m 1.03515,0.01553 q 0,1.371579 0.73496,2.163471 0.74013,0.786717 1.85292,0.786717 1.1335,0 1.86328,-0.797068 0.73496,-0.797069 0.73496,-2.261811 0,-0.926463 -0.31572,-1.61484 -0.31055,-0.693553 -0.91611,-1.071384 -0.60039,-0.383007 -1.35088,-0.383007 -1.06621,0 -1.8374,0.734959 -0.76601,0.729784 -0.76601,2.442963 z"
       style="font-size:10.59997368px;font-family:Arial;fill:#cc78a6;stroke-width:1.33333004"
       id="path1538"
       inkscape:connector-curvature="0" />
  </g>
  <path
     style="stroke:#cc78a6;stroke-width:0.67999828;shape-rendering:auto"
     d="m 318.53125,69.806702 -2.06668,2.066665"
     id="line95" />
  <path
     style="fill:#cc78a6;fill-rule:evenodd;stroke:#cc78a6;stroke-width:0;stroke-linejoin:miter;shape-rendering:geometricPrecision"
     inkscape:connector-curvature="0"
     id="path97"
     d="m 317.18458,68.460039 v 0 l -0.48,-0.479998 -2.06666,2.066661 0.48,0.479999 z" />
  <path
     style="fill:#cc78a6;fill-rule:evenodd;stroke:#cc78a6;stroke-width:0;stroke-linejoin:miter;shape-rendering:geometricPrecision"
     inkscape:connector-curvature="0"
     id="path99"
     d="m 318.77124,70.046702 v 0 l -0.48,-0.479999 -2.06666,2.066662 0.48,0.479999 z" />
  <g
     aria-label="EtO"
     style="font-size:15.99995995px;text-anchor:end;stroke-width:1.33333004;text-rendering:geometricPrecision"
     id="text105">
    <path
       d="m 285.01632,68.633369 v -7.587676 h 5.48632 v 0.895408 h -4.48222 v 2.32392 h 4.19755 v 0.890232 h -4.19755 v 2.582709 h 4.65819 v 0.895407 z"
       style="font-size:10.59997368px;font-family:Arial;fill:#cc78a6;stroke-width:1.33333004"
       id="path1542"
       inkscape:connector-curvature="0" />
    <path
       d="m 293.9911,67.800071 0.13457,0.822947 q -0.39335,0.08281 -0.7039,0.08281 -0.50723,0 -0.78672,-0.160449 -0.27949,-0.160448 -0.39336,-0.419237 -0.11386,-0.263964 -0.11386,-1.102439 v -3.162394 h -0.6832 v -0.724608 h 0.6832 v -1.361227 l 0.92646,-0.558983 v 1.92021 h 0.93681 v 0.724608 h -0.93681 v 3.214152 q 0,0.398534 0.0466,0.512401 0.0518,0.113867 0.16045,0.181152 0.11387,0.06729 0.3209,0.06729 0.15527,0 0.40888,-0.03623 z"
       style="font-size:10.59997368px;font-family:Arial;fill:#cc78a6;stroke-width:1.33333004"
       id="path1544"
       inkscape:connector-curvature="0" />
    <path
       d="m 294.71054,64.937871 q 0,-1.889156 1.01445,-2.955364 1.01445,-1.071384 2.61893,-1.071384 1.05069,0 1.89434,0.50205 0.84365,0.502049 1.28359,1.402633 0.44511,0.895408 0.44511,2.034077 0,1.154196 -0.46582,2.065131 -0.46582,0.910936 -1.31982,1.38193 -0.854,0.46582 -1.84257,0.46582 -1.07138,0 -1.91504,-0.517577 -0.84365,-0.517577 -1.27841,-1.412985 -0.43476,-0.895408 -0.43476,-1.894331 z m 1.03515,0.01553 q 0,1.371579 0.73496,2.163471 0.74013,0.786717 1.85292,0.786717 1.1335,0 1.86328,-0.797068 0.73496,-0.797069 0.73496,-2.261811 0,-0.926463 -0.31572,-1.61484 -0.31055,-0.693553 -0.91611,-1.071384 -0.60039,-0.383007 -1.35088,-0.383007 -1.06621,0 -1.8374,0.734959 -0.76601,0.729784 -0.76601,2.442963 z"
       style="font-size:10.59997368px;font-family:Arial;fill:#cc78a6;stroke-width:1.33333004"
       id="path1546"
       inkscape:connector-curvature="0" />
  </g>
  <g
     aria-label="EtO"
     style="font-size:15.99995995px;text-anchor:end;stroke-width:1.33333004;text-rendering:geometricPrecision"
     id="text111">
    <path
       d="m 283.85632,85.073334 v -7.587677 h 5.48631 v 0.895408 h -4.48221 v 2.32392 h 4.19754 v 0.890232 h -4.19754 v 2.582709 h 4.65819 v 0.895408 z"
       style="font-size:10.59997368px;font-family:Arial;fill:#cc78a6;stroke-width:1.33333004"
       id="path1549"
       inkscape:connector-curvature="0" />
    <path
       d="m 292.8311,84.240035 0.13457,0.822947 q -0.39336,0.08281 -0.7039,0.08281 -0.50723,0 -0.78672,-0.160448 -0.27949,-0.160449 -0.39336,-0.419238 -0.11387,-0.263964 -0.11387,-1.102438 v -3.162395 h -0.6832 v -0.724607 h 0.6832 v -1.361227 l 0.92647,-0.558983 v 1.92021 h 0.93681 v 0.724607 h -0.93681 v 3.214152 q 0,0.398535 0.0466,0.512402 0.0518,0.113866 0.16045,0.181151 0.11386,0.06728 0.32089,0.06728 0.15528,0 0.40889,-0.03623 z"
       style="font-size:10.59997368px;font-family:Arial;fill:#cc78a6;stroke-width:1.33333004"
       id="path1551"
       inkscape:connector-curvature="0" />
    <path
       d="m 293.55053,81.377835 q 0,-1.889155 1.01445,-2.955364 1.01445,-1.071384 2.61894,-1.071384 1.05068,0 1.89433,0.50205 0.84365,0.502049 1.28359,1.402633 0.44512,0.895408 0.44512,2.034077 0,1.154196 -0.46582,2.065132 -0.46582,0.910935 -1.31982,1.38193 -0.854,0.465819 -1.84257,0.465819 -1.07139,0 -1.91504,-0.517577 -0.84365,-0.517577 -1.27841,-1.412985 -0.43477,-0.895408 -0.43477,-1.894331 z m 1.03516,0.01553 q 0,1.371579 0.73495,2.163472 0.74014,0.786716 1.85293,0.786716 1.13349,0 1.86328,-0.797068 0.73496,-0.797068 0.73496,-2.261811 0,-0.926462 -0.31573,-1.614839 -0.31054,-0.693553 -0.91611,-1.071385 -0.60039,-0.383006 -1.35087,-0.383006 -1.06621,0 -1.8374,0.734959 -0.76601,0.729783 -0.76601,2.442962 z"
       style="font-size:10.59997368px;font-family:Arial;fill:#cc78a6;stroke-width:1.33333004"
       id="path1553"
       inkscape:connector-curvature="0" />
  </g>
  <path
     style="fill:#cc78a6;fill-rule:evenodd;stroke:#cc78a6;stroke-width:0;stroke-linejoin:miter;shape-rendering:geometricPrecision"
     inkscape:connector-curvature="0"
     id="path115"
     d="m 307.77127,71.740031 v 0 l -0.21333,0.266666 -0.21334,0.266666 -4.63998,-3.786657 0.21333,-0.266666 0.21333,-0.266666 z" />
  <path
     style="fill:#cc78a6;fill-rule:evenodd;stroke:#cc78a6;stroke-width:0;stroke-linejoin:miter;shape-rendering:geometricPrecision"
     inkscape:connector-curvature="0"
     id="path119"
     d="m 302.37128,79.206679 v 0 l -0.12,-0.306666 -0.12,-0.319999 5.03999,-1.986662 0.12,0.306666 0.12,0.32 z" />
  <g
     aria-label="R1"
     style="font-size:15.99995995px;text-anchor:end;stroke-width:1.33333004;text-rendering:geometricPrecision"
     id="text127">
    <path
       d="m 295.4258,101.89996 v -7.587673 h 3.36425 q 1.01445,0 1.54238,0.207031 0.52792,0.201855 0.84365,0.719431 0.31572,0.517577 0.31572,1.143845 0,0.80742 -0.52276,1.361227 -0.52275,0.553808 -1.61483,0.703905 0.39853,0.191503 0.60556,0.377831 0.43994,0.40371 0.8333,1.009275 l 1.31982,2.065128 H 300.85 l -1.0041,-1.57861 q -0.43994,-0.683197 -0.7246,-1.045501 -0.28467,-0.362304 -0.51241,-0.507226 -0.22255,-0.144921 -0.45546,-0.201854 -0.1708,-0.03623 -0.55899,-0.03623 h -1.16454 v 3.369421 z m 1.0041,-4.238951 h 2.15829 q 0.68838,0 1.07656,-0.139746 0.38818,-0.144921 0.59004,-0.455467 0.20185,-0.315722 0.20185,-0.683202 0,-0.53828 -0.39335,-0.885056 -0.38819,-0.346777 -1.23184,-0.346777 h -2.40155 z"
       style="font-size:10.59997368px;font-family:Arial;fill:#000000;stroke-width:1.33333004"
       id="path1556"
       inkscape:connector-curvature="0" />
    <path
       d="m 305.21447,97.579974 h -0.69873 v -4.452455 q -0.25232,0.240674 -0.66379,0.481347 -0.40759,0.240673 -0.73367,0.36101 v -0.675438 q 0.58616,-0.27561 1.0248,-0.667674 0.43865,-0.392065 0.6211,-0.760838 h 0.45029 z"
       style="font-size:7.94998026px;font-family:Arial;fill:#000000;stroke-width:1.33333004"
       id="path1558"
       inkscape:connector-curvature="0" />
  </g>
  <path
     style="fill:#000000;fill-rule:evenodd;stroke:#000000;stroke-width:0;stroke-linejoin:miter;shape-rendering:geometricPrecision"
     inkscape:connector-curvature="0"
     id="path131"
     d="m 306.95794,92.913312 v 0 l -0.17333,-0.28 -0.18667,-0.293332 4.58666,-2.813327 0.34666,0.186667 0.0133,0.386665 z" />
  <g
     aria-label="N"
     style="font-size:15.99995995px;text-anchor:start;stroke-width:1.33333004;text-rendering:geometricPrecision"
     id="text137">
    <path
       d="m 321.99199,101.19329 v -7.587676 h 1.02998 l 3.98534,5.95731 v -5.95731 H 327.97 v 7.587676 h -1.02998 l -3.98534,-5.962484 v 5.962484 z"
       style="font-size:10.59997368px;font-family:Arial;fill:#000000;stroke-width:1.33333004"
       id="path1561"
       inkscape:connector-curvature="0" />
  </g>
  <path
     style="fill:#000000;fill-rule:evenodd;stroke:#000000;stroke-width:0;stroke-linejoin:miter;shape-rendering:geometricPrecision"
     inkscape:connector-curvature="0"
     id="path141"
     d="m 311.54459,90.099985 v 0 l -0.0133,-0.386665 0.69333,-0.01333 8.51998,4.626655 -0.16,0.306666 -0.16,0.293333 z" />
  <path
     style="fill:#000000;fill-rule:evenodd;stroke:#000000;stroke-width:0;stroke-linejoin:miter;shape-rendering:geometricPrecision"
     inkscape:connector-curvature="0"
     id="path145"
     d="m 324.83789,103.03329 v 0 l 0.33334,-0.0133 0.34666,-0.0133 0.10667,4.26666 -0.33333,0.0133 -0.34667,0.0133 z" />
  <g
     aria-label="R3(H)"
     style="font-size:15.99995995px;text-anchor:start;stroke-width:1.33333004;text-rendering:geometricPrecision"
     id="text155">
    <path
       d="m 322.41786,116.53992 v -7.58768 h 3.36425 q 1.01445,0 1.54238,0.20703 0.52793,0.20186 0.84365,0.71943 0.31572,0.51758 0.31572,1.14385 0,0.80742 -0.52275,1.36122 -0.52275,0.55381 -1.61484,0.70391 0.39854,0.1915 0.60557,0.37783 0.43994,0.40371 0.83329,1.00928 l 1.31983,2.06513 h -1.26289 l -1.0041,-1.57861 q -0.43994,-0.6832 -0.72461,-1.04551 -0.28467,-0.3623 -0.5124,-0.50722 -0.22256,-0.14492 -0.45547,-0.20186 -0.1708,-0.0362 -0.55898,-0.0362 h -1.16455 v 3.36943 z m 1.0041,-4.23896 h 2.1583 q 0.68837,0 1.07656,-0.13974 0.38818,-0.14492 0.59003,-0.45547 0.20186,-0.31572 0.20186,-0.6832 0,-0.53828 -0.39336,-0.88506 -0.38818,-0.34677 -1.23183,-0.34677 h -2.40156 z"
       style="font-size:10.59997368px;font-family:Arial;fill:#000000;stroke-width:1.33333004"
       id="path1564"
       inkscape:connector-curvature="0" />
    <path
       d="m 329.57854,110.71766 0.69873,-0.0932 q 0.12033,0.59392 0.40759,0.85788 0.29114,0.26008 0.70649,0.26008 0.49299,0 0.83071,-0.3416 0.3416,-0.3416 0.3416,-0.84624 0,-0.48134 -0.31443,-0.79189 -0.31442,-0.31443 -0.79965,-0.31443 -0.19797,0 -0.49299,0.0776 l 0.0776,-0.61333 q 0.0699,0.008 0.11258,0.008 0.44641,0 0.80353,-0.23291 0.35713,-0.23291 0.35713,-0.71814 0,-0.3843 -0.26008,-0.63662 -0.26008,-0.25232 -0.67156,-0.25232 -0.40759,0 -0.67932,0.2562 -0.27172,0.2562 -0.34936,0.7686 l -0.69873,-0.12422 q 0.1281,-0.70261 0.58228,-1.08691 0.45417,-0.38818 1.12961,-0.38818 0.46582,0 0.85788,0.20185 0.39206,0.19798 0.5978,0.54346 0.20962,0.34548 0.20962,0.73367 0,0.36877 -0.19797,0.67155 -0.19798,0.30278 -0.58616,0.48135 0.50464,0.11645 0.78413,0.48523 0.27949,0.36489 0.27949,0.91611 0,0.74531 -0.54345,1.26547 -0.54346,0.51629 -1.37417,0.51629 -0.74919,0 -1.24607,-0.44641 -0.49299,-0.44641 -0.56286,-1.15679 z"
       style="font-size:7.94998026px;font-family:Arial;fill:#000000;stroke-width:1.33333004"
       id="path1566"
       inkscape:connector-curvature="0" />
    <path
       d="m 336.14918,118.77067 q -0.77119,-0.97304 -1.3043,-2.27733 -0.5331,-1.3043 -0.5331,-2.70176 0,-1.23183 0.39853,-2.36015 0.46582,-1.30947 1.43887,-2.60858 h 0.66767 q -0.62627,1.07656 -0.82812,1.5372 -0.31572,0.71426 -0.49688,1.49062 -0.22255,0.96787 -0.22255,1.94609 0,2.48954 1.54755,4.97391 z"
       style="font-size:10.59997368px;font-family:Arial;fill:#000000;stroke-width:1.33333004"
       id="path1568"
       inkscape:connector-curvature="0" />
    <path
       d="m 338.05903,116.53992 v -7.58768 h 1.0041 v 3.11581 h 3.94394 v -3.11581 h 1.0041 v 7.58768 h -1.0041 v -3.57646 h -3.94394 v 3.57646 z"
       style="font-size:10.59997368px;font-family:Arial;fill:#000000;stroke-width:1.33333004"
       id="path1570"
       inkscape:connector-curvature="0" />
    <path
       d="m 346.17982,118.77067 h -0.66768 q 1.54756,-2.48437 1.54756,-4.97391 0,-0.97304 -0.22256,-1.93056 -0.17598,-0.77637 -0.4917,-1.49062 -0.20185,-0.46582 -0.8333,-1.55273 h 0.66768 q 0.97304,1.29911 1.43886,2.60858 0.39853,1.12832 0.39853,2.36015 0,1.39746 -0.53828,2.70176 -0.5331,1.30429 -1.29911,2.27733 z"
       style="font-size:10.59997368px;font-family:Arial;fill:#000000;stroke-width:1.33333004"
       id="path1572"
       inkscape:connector-curvature="0" />
  </g>
  <g
     aria-label="R2"
     style="font-size:15.99995995px;text-anchor:start;stroke-width:1.33333004;text-rendering:geometricPrecision"
     id="text163">
    <path
       d="m 335.09783,93.17997 v -7.587677 h 3.36424 q 1.01446,0 1.54238,0.207031 0.52793,0.201855 0.84365,0.719432 0.31573,0.517577 0.31573,1.143845 0,0.80742 -0.52276,1.361227 -0.52275,0.553807 -1.61484,0.703904 0.39854,0.191504 0.60557,0.377831 0.43994,0.40371 0.8333,1.009275 l 1.31982,2.065132 h -1.26289 l -1.0041,-1.57861 q -0.43994,-0.683201 -0.72461,-1.045505 -0.28466,-0.362304 -0.5124,-0.507225 -0.22256,-0.144922 -0.45546,-0.201855 -0.17081,-0.03623 -0.55899,-0.03623 h -1.16455 v 3.369425 z m 1.00409,-4.238955 h 2.1583 q 0.68838,0 1.07656,-0.139745 0.38818,-0.144922 0.59004,-0.455468 0.20185,-0.315722 0.20185,-0.683201 0,-0.53828 -0.39336,-0.885057 -0.38818,-0.346776 -1.23183,-0.346776 h -2.40156 z"
       style="font-size:10.59997368px;font-family:Arial;fill:#000000;stroke-width:1.33333004"
       id="path1575"
       inkscape:connector-curvature="0" />
    <path
       d="m 345.92683,88.188425 v 0.671556 h -3.76149 q -0.008,-0.252319 0.0815,-0.485229 0.14362,-0.384301 0.45805,-0.756956 0.31831,-0.372655 0.91611,-0.861765 0.92776,-0.760838 1.25383,-1.203366 0.32607,-0.44641 0.32607,-0.842357 0,-0.415355 -0.2989,-0.698728 -0.29501,-0.287256 -0.77248,-0.287256 -0.50464,0 -0.80742,0.302783 -0.30278,0.302782 -0.30666,0.838474 l -0.71814,-0.07375 q 0.0737,-0.803538 0.5551,-1.222776 0.48135,-0.423119 1.29265,-0.423119 0.81906,0 1.29653,0.454174 0.47746,0.454174 0.47746,1.12573 0,0.3416 -0.13974,0.671556 -0.13975,0.329955 -0.46582,0.694846 -0.32219,0.364892 -1.07527,1.001512 -0.62885,0.527928 -0.80742,0.718137 -0.17856,0.186328 -0.29502,0.376538 z"
       style="font-size:7.94998026px;font-family:Arial;fill:#000000;stroke-width:1.33333004"
       id="path1577"
       inkscape:connector-curvature="0" />
  </g>
  <path
     style="fill:#000000;fill-rule:evenodd;stroke:#000000;stroke-width:0;stroke-linejoin:miter;shape-rendering:geometricPrecision"
     inkscape:connector-curvature="0"
     id="path167"
     d="m 329.62455,94.606641 v 0 l -0.17333,-0.293333 -0.17334,-0.293333 4.23999,-2.599993 0.17334,0.293333 0.17333,0.293332 z" />
  <path
     style="fill:#000000;fill-rule:evenodd;stroke:#000000;stroke-width:0;stroke-linejoin:miter;shape-rendering:geometricPrecision"
     inkscape:connector-curvature="0"
     id="path171"
     d="m 311.1846,81.153341 v 0 h 0.33333 0.34666 v 7.973313 l -0.33333,0.586666 -0.34666,-0.186667 z" />
  <path
     style="stroke:#cc78a6;stroke-width:0.67999828;shape-rendering:auto"
     d="m 230.43813,65.121517 2.55999,-2.186661"
     id="line175"
     inkscape:connector-curvature="0" />
  <path
     style="stroke:#cc78a6;stroke-width:0.67999828;shape-rendering:auto"
     d="m 231.9848,66.908187 2.54666,-2.173336"
     id="line177"
     inkscape:connector-curvature="0" />
  <path
     style="stroke:#cc78a6;stroke-width:0.67999828;shape-rendering:auto"
     d="m 230.43813,65.121517 2.55999,-2.186661"
     id="line179"
     inkscape:connector-curvature="0" />
  <g
     aria-label="O"
     style="font-size:15.99995995px;text-anchor:start;stroke-width:1.33333004;text-rendering:geometricPrecision"
     id="text185"
     transform="translate(0,6.2214583)">
    <path
       d="m 235.00706,53.927995 q 0,-1.901037 1.02083,-2.973951 1.02084,-1.078122 2.63541,-1.078122 1.05729,0 1.90625,0.505207 0.84896,0.505207 1.29166,1.411455 0.44792,0.901039 0.44792,2.04687 0,1.161455 -0.46875,2.07812 -0.46875,0.916664 -1.32812,1.390621 -0.85937,0.468749 -1.85416,0.468749 -1.07813,0 -1.92708,-0.520832 -0.84896,-0.520832 -1.28646,-1.421871 -0.4375,-0.90104 -0.4375,-1.906246 z m 1.04167,0.01563 q 0,1.380205 0.73958,2.177078 0.74479,0.791665 1.86458,0.791665 1.14062,0 1.87499,-0.802081 0.73958,-0.802082 0.73958,-2.276036 0,-0.93229 -0.3177,-1.624996 -0.3125,-0.697915 -0.92188,-1.078123 -0.60416,-0.385415 -1.35937,-0.385415 -1.07291,0 -1.84895,0.739581 -0.77083,0.734373 -0.77083,2.458327 z"
       style="font-size:10.66664028px;font-family:Arial;fill:#cc78a6;stroke-width:1.33333004"
       id="path1583"
       inkscape:connector-curvature="0" />
  </g>
  <g
     aria-label="H"
     style="font-size:15.99995995px;text-anchor:start;stroke-width:1.33333004;text-rendering:geometricPrecision"
     id="text191"
     transform="translate(0,6.2214583)">
    <path
       d="M 235.6123,79.353348 V 71.71795 h 1.01041 v 3.135409 h 3.96874 V 71.71795 h 1.01042 v 7.635398 h -1.01042 v -3.59895 h -3.96874 v 3.59895 z"
       style="font-size:10.66664028px;font-family:Arial;fill:#cc78a6;stroke-width:1.33333004"
       id="path1586"
       inkscape:connector-curvature="0" />
  </g>
  <path
     style="fill:#cc78a6;fill-rule:evenodd;stroke:#cc78a6;stroke-width:0;stroke-linejoin:miter;shape-rendering:geometricPrecision"
     inkscape:connector-curvature="0"
     id="path195"
     d="m 231.87813,76.054827 v 0 l 0.22666,-0.266666 0.22667,-0.253332 2.39999,2.053328 -0.22666,0.253333 -0.22667,0.266665 z" />
  <path
     style="fill:#009d73;fill-rule:evenodd;stroke:#009d73;stroke-width:0;stroke-linejoin:miter;shape-rendering:geometricPrecision"
     inkscape:connector-curvature="0"
     id="path199"
     d="m 312.22459,89.699986 v 0 l -0.69333,0.01333 0.33333,-0.586666 8.30665,-4.786654 0.16,0.293332 0.17333,0.293333 z" />
  <g
     aria-label="H"
     style="font-size:15.99995995px;text-anchor:start;stroke-width:1.33333004;text-rendering:geometricPrecision"
     id="text205">
    <path
       d="m 321.81208,86.246658 v -7.635397 h 1.01041 v 3.135408 h 3.96875 v -3.135408 h 1.01041 v 7.635397 h -1.01041 v -3.598949 h -3.96875 v 3.598949 z"
       style="font-size:10.66664028px;font-family:Arial;fill:#009d73;stroke-width:1.33333004"
       id="path1589"
       inkscape:connector-curvature="0" />
  </g>
  <g
     aria-label="R1"
     style="font-size:15.99995995px;text-anchor:end;stroke-width:1.33333004;text-rendering:geometricPrecision"
     id="text213">
    <path
       d="m 52.755664,93.873314 v -7.635398 h 3.385408 q 1.020831,0 1.55208,0.208333 0.531248,0.203124 0.848956,0.723956 0.317707,0.520833 0.317707,1.151039 0,0.812498 -0.52604,1.369789 -0.52604,0.55729 -1.624996,0.708331 0.401041,0.192708 0.609373,0.380208 0.442708,0.406249 0.83854,1.015622 l 1.328122,2.07812 h -1.27083 l -1.010415,-1.588538 q -0.442707,-0.687498 -0.729164,-1.052081 -0.286458,-0.364582 -0.515624,-0.510415 -0.223958,-0.145833 -0.458332,-0.203124 -0.171875,-0.03646 -0.562499,-0.03646 h -1.171872 v 3.390617 z m 1.010414,-4.265615 h 2.17187 q 0.692706,0 1.08333,-0.140624 0.390624,-0.145833 0.593749,-0.458332 0.203124,-0.317708 0.203124,-0.687499 0,-0.541665 -0.395832,-0.890622 -0.390624,-0.348958 -1.23958,-0.348958 h -2.416661 z"
       style="font-size:10.66664028px;font-family:Arial;fill:#000000;stroke-width:1.33333004"
       id="path1592"
       inkscape:connector-curvature="0" />
    <path
       d="m 62.6059,89.526658 h -0.703123 v -4.480457 q -0.253906,0.242186 -0.667967,0.484373 -0.410156,0.242187 -0.73828,0.363281 v -0.679686 q 0.589842,-0.277343 1.031248,-0.671873 0.441405,-0.394531 0.624998,-0.765624 H 62.6059 Z"
       style="font-size:7.99997997px;font-family:Arial;fill:#000000;stroke-width:1.33333004"
       id="path1594"
       inkscape:connector-curvature="0" />
  </g>
  <path
     style="fill:#000000;fill-rule:evenodd;stroke:#000000;stroke-width:0;stroke-linejoin:miter;shape-rendering:geometricPrecision"
     inkscape:connector-curvature="0"
     id="path217"
     d="m 64.305212,85.126664 v 0 l -0.159999,-0.293332 -0.173333,-0.306666 5.053321,-2.90666 v 0.386666 0.386666 z" />
  <path
     style="fill:#000000;fill-rule:evenodd;stroke:#000000;stroke-width:0;stroke-linejoin:miter;shape-rendering:geometricPrecision"
     inkscape:connector-curvature="0"
     id="path221"
     d="m 69.025201,82.393338 v 0 -0.386666 -0.386666 l 8.946644,5.159988 -0.173333,0.293332 -0.16,0.293333 z" />
  <g
     aria-label="N"
     style="font-size:15.99995995px;text-anchor:start;stroke-width:1.33333004;text-rendering:geometricPrecision"
     id="text227">
    <path
       d="m 79.251005,93.873314 v -7.635398 h 1.036456 l 4.010407,5.994777 v -5.994777 h 0.968747 v 7.635398 h -1.036456 l -4.010406,-5.999985 v 5.999985 z"
       style="font-size:10.66664028px;font-family:Arial;fill:#000000;stroke-width:1.33333004"
       id="path1597"
       inkscape:connector-curvature="0" />
  </g>
  <g
     aria-label="O"
     style="font-size:15.99995995px;text-anchor:start;stroke-width:1.33333004;text-rendering:geometricPrecision"
     id="text233">
    <path
       d="m 65.4075,67.154627 q 0,-1.901037 1.020831,-2.973951 1.020831,-1.078123 2.63541,-1.078123 1.057289,0 1.906245,0.505207 0.848956,0.505207 1.291664,1.411455 0.447915,0.90104 0.447915,2.04687 0,1.161456 -0.468749,2.07812 -0.468748,0.916664 -1.328121,1.390621 -0.859373,0.468749 -1.854162,0.468749 -1.078123,0 -1.927079,-0.520832 Q 66.282498,69.961911 65.844999,69.060872 65.4075,68.159832 65.4075,67.154627 Z m 1.041664,0.01562 q 0,1.380205 0.739582,2.177078 0.744789,0.791665 1.864578,0.791665 1.140622,0 1.874996,-0.802081 0.739581,-0.802082 0.739581,-2.276036 0,-0.93229 -0.317707,-1.624996 -0.3125,-0.697915 -0.921873,-1.078123 -0.604165,-0.385415 -1.359372,-0.385415 -1.072914,0 -1.848954,0.739581 -0.770831,0.734373 -0.770831,2.458327 z"
       style="font-size:10.66664028px;font-family:Arial;fill:#000000;stroke-width:1.33333004"
       id="path1600"
       inkscape:connector-curvature="0" />
  </g>
  <path
     style="fill:#000000;fill-rule:evenodd;stroke:#000000;stroke-width:0;stroke-linejoin:miter;shape-rendering:geometricPrecision"
     inkscape:connector-curvature="0"
     id="path239"
     d="m 70.065198,82.220005 v 0 l 0.679998,0.386666 v -9.853309 h -0.679998 z" />
  <path
     style="fill:#000000;fill-rule:evenodd;stroke:#000000;stroke-width:0;stroke-linejoin:miter;shape-rendering:geometricPrecision"
     inkscape:connector-curvature="0"
     id="path241"
     d="m 67.305205,82.606671 v 0 l 0.679998,-0.386666 v -9.466643 h -0.679998 z" />
  <g
     aria-label="R2"
     style="font-size:15.99995995px;text-anchor:start;stroke-width:1.33333004;text-rendering:geometricPrecision"
     id="text249">
    <path
       d="m 92.557015,86.206665 v -7.635398 h 3.385408 q 1.020831,0 1.55208,0.208333 0.531248,0.203125 0.848956,0.723957 0.317708,0.520832 0.317708,1.151038 0,0.812498 -0.526041,1.369789 -0.52604,0.55729 -1.624996,0.708331 0.401041,0.192708 0.609374,0.380208 0.442707,0.406249 0.838539,1.015622 l 1.328122,2.07812 h -1.27083 l -1.010414,-1.588538 q -0.442708,-0.687498 -0.729165,-1.05208 -0.286458,-0.364583 -0.515624,-0.510416 -0.223958,-0.145833 -0.458332,-0.203124 -0.171875,-0.03646 -0.562499,-0.03646 h -1.171872 v 3.390617 z m 1.010414,-4.265614 h 2.17187 q 0.692706,0 1.08333,-0.140625 0.390624,-0.145833 0.593749,-0.458332 0.203124,-0.317708 0.203124,-0.687499 0,-0.541665 -0.395832,-0.890622 -0.390624,-0.348958 -1.23958,-0.348958 h -2.416661 z"
       style="font-size:10.66664028px;font-family:Arial;fill:#000000;stroke-width:1.33333004"
       id="path1604"
       inkscape:connector-curvature="0" />
    <path
       d="m 103.45412,81.18423 v 0.675779 h -3.785143 q -0.0078,-0.253905 0.08203,-0.48828 0.144531,-0.386718 0.460933,-0.761717 0.32032,-0.374999 0.92188,-0.867185 0.93359,-0.765623 1.26171,-1.210934 0.32813,-0.449218 0.32813,-0.847655 0,-0.417967 -0.30078,-0.703123 -0.29688,-0.289062 -0.77735,-0.289062 -0.50781,0 -0.81249,0.304687 -0.30469,0.304687 -0.3086,0.843748 l -0.722652,-0.07422 q 0.07422,-0.808591 0.558592,-1.230465 0.48437,-0.42578 1.30078,-0.42578 0.82422,0 1.30468,0.45703 0.48047,0.45703 0.48047,1.132809 0,0.343749 -0.14062,0.67578 -0.14063,0.33203 -0.46875,0.699217 -0.32422,0.367186 -1.08203,1.00781 -0.63281,0.531249 -0.8125,0.722654 -0.17969,0.1875 -0.29687,0.378906 z"
       style="font-size:7.99997997px;font-family:Arial;fill:#000000;stroke-width:1.33333004"
       id="path1606"
       inkscape:connector-curvature="0" />
  </g>
  <path
     style="fill:#000000;fill-rule:evenodd;stroke:#000000;stroke-width:0;stroke-linejoin:miter;shape-rendering:geometricPrecision"
     inkscape:connector-curvature="0"
     id="path253"
     d="m 86.971822,87.366659 v 0 l -0.159999,-0.293333 -0.173333,-0.293332 4.333322,-2.506661 0.16,0.306666 0.173333,0.293333 z" />
  <g
     aria-label="R3"
     style="font-size:15.99995995px;text-anchor:start;stroke-width:1.33333004;text-rendering:geometricPrecision"
     id="text261">
    <path
       d="m 79.277047,109.2066 v -7.6354 h 3.385408 q 1.020831,0 1.552079,0.20833 0.531249,0.20313 0.848957,0.72396 0.317707,0.52083 0.317707,1.15104 0,0.81249 -0.52604,1.36979 -0.52604,0.55729 -1.624996,0.70833 0.401041,0.1927 0.609373,0.3802 0.442708,0.40625 0.83854,1.01563 l 1.328122,2.07812 h -1.27083 l -1.010415,-1.58854 q -0.442707,-0.6875 -0.729165,-1.05208 -0.286457,-0.36458 -0.515623,-0.51042 -0.223958,-0.14583 -0.458332,-0.20312 -0.171875,-0.0365 -0.562499,-0.0365 h -1.171872 v 3.39062 z m 1.010414,-4.26562 h 2.171869 q 0.692707,0 1.083331,-0.14062 0.390624,-0.14584 0.593749,-0.45833 0.203124,-0.31771 0.203124,-0.6875 0,-0.54167 -0.395832,-0.89063 -0.390624,-0.34895 -1.23958,-0.34895 h -2.416661 z"
       style="font-size:10.66664028px;font-family:Arial;fill:#000000;stroke-width:1.33333004"
       id="path1609"
       inkscape:connector-curvature="0" />
    <path
       d="m 86.482758,103.34823 0.703123,-0.0937 q 0.121094,0.59765 0.410156,0.86327 0.292968,0.26172 0.710935,0.26172 0.496093,0 0.835936,-0.34375 0.343749,-0.34375 0.343749,-0.85156 0,-0.48437 -0.316406,-0.79687 -0.316405,-0.3164 -0.804685,-0.3164 -0.199218,0 -0.496093,0.0781 l 0.07813,-0.61719 q 0.07031,0.008 0.113281,0.008 0.449218,0 0.808592,-0.23438 0.359374,-0.23437 0.359374,-0.72265 0,-0.38672 -0.261718,-0.640626 -0.261718,-0.253906 -0.67578,-0.253906 -0.410155,0 -0.683592,0.257812 -0.273436,0.25781 -0.351561,0.77344 l -0.703124,-0.125 q 0.128906,-0.707033 0.585937,-1.093751 0.45703,-0.390624 1.136715,-0.390624 0.468749,0 0.86328,0.203124 0.39453,0.199219 0.601561,0.546874 0.210936,0.347657 0.210936,0.738277 0,0.3711 -0.199218,0.67578 -0.199218,0.30469 -0.589842,0.48438 0.507811,0.11718 0.78906,0.48828 0.28125,0.36718 0.28125,0.92187 0,0.75 -0.546874,1.27343 -0.546873,0.51953 -1.382809,0.51953 -0.753904,0 -1.253903,-0.44921 -0.496093,-0.44922 -0.566405,-1.16406 z"
       style="font-size:7.99997997px;font-family:Arial;fill:#000000;stroke-width:1.33333004"
       id="path1611"
       inkscape:connector-curvature="0" />
  </g>
  <path
     style="fill:#000000;fill-rule:evenodd;stroke:#000000;stroke-width:0;stroke-linejoin:miter;shape-rendering:geometricPrecision"
     inkscape:connector-curvature="0"
     id="path265"
     d="m 81.971835,93.286644 v 0 h 0.333332 0.346666 v 6.66665 h -0.346666 -0.333332 z" />
  <g
     aria-label="lub"
     style="font-size:15.99995995px;text-anchor:start;stroke-width:1.33333004;text-rendering:geometricPrecision"
     id="text271">
    <path
       d="m 20.707612,88.326653 v -7.635398 h 0.937498 v 7.635398 z"
       style="font-size:10.66664028px;font-family:Arial;fill:#000000;stroke-width:1.33333004"
       id="path1614"
       inkscape:connector-curvature="0" />
    <path
       d="m 26.72843,88.326653 v -0.812498 q -0.645831,0.937497 -1.755204,0.937497 -0.489582,0 -0.916664,-0.187499 -0.421874,-0.1875 -0.630207,-0.468749 -0.203124,-0.286458 -0.286457,-0.697915 -0.05729,-0.276041 -0.05729,-0.874998 v -3.427075 h 0.937498 v 3.067701 q 0,0.734373 0.05729,0.989581 0.08854,0.369791 0.374999,0.583332 0.286458,0.208333 0.708332,0.208333 0.421874,0 0.791665,-0.213542 0.36979,-0.218749 0.520832,-0.58854 0.156249,-0.374999 0.156249,-1.08333 v -2.963535 h 0.937498 v 5.531237 z"
       style="font-size:10.66664028px;font-family:Arial;fill:#000000;stroke-width:1.33333004"
       id="path1616"
       inkscape:connector-curvature="0" />
    <path
       d="m 29.905505,88.326653 h -0.869789 v -7.635398 h 0.937498 v 2.723951 q 0.593748,-0.744789 1.515621,-0.744789 0.510415,0 0.963539,0.208332 0.458332,0.203125 0.749998,0.578124 0.296875,0.369791 0.463541,0.895831 0.166666,0.52604 0.166666,1.124997 0,1.421872 -0.703123,2.197911 -0.703123,0.77604 -1.687496,0.77604 -0.979164,0 -1.536455,-0.817706 z m -0.01042,-2.807285 q 0,0.994789 0.270832,1.437496 0.442708,0.723957 1.197914,0.723957 0.614582,0 1.062498,-0.531249 0.447915,-0.536457 0.447915,-1.593746 0,-1.083331 -0.432291,-1.598954 -0.427082,-0.515624 -1.036455,-0.515624 -0.614582,0 -1.062498,0.536457 -0.447915,0.531249 -0.447915,1.541663 z"
       style="font-size:10.66664028px;font-family:Arial;fill:#000000;stroke-width:1.33333004"
       id="path1618"
       inkscape:connector-curvature="0" />
  </g>
  <path
     inkscape:connector-curvature="0"
     id="path1621"
     style="font-size:10.59997368px;font-family:Arial;text-anchor:start;fill:#000000;stroke-width:1.33333004;text-rendering:geometricPrecision"
     d="m 164.26663,106.04142 v -6.692269 h -2.4999 v -0.895408 h 6.01425 v 0.895408 h -2.51025 v 6.692269 z" />
  <path
     inkscape:connector-curvature="0"
     id="path1623"
     style="font-size:10.59997368px;font-family:Arial;text-anchor:start;fill:#000000;stroke-width:1.33333004;text-rendering:geometricPrecision"
     d="m 168.84718,106.04142 v -7.587677 h 1.0041 v 3.115817 h 3.94394 v -3.115817 h 1.0041 v 7.587677 h -1.0041 v -3.57646 h -3.94394 v 3.57646 z" />
  <path
     inkscape:connector-curvature="0"
     id="path1625"
     style="font-size:10.59997368px;font-family:Arial;text-anchor:start;fill:#000000;stroke-width:1.33333004;text-rendering:geometricPrecision"
     d="m 176.52802,106.04142 v -7.587677 h 5.11884 v 0.895408 h -4.11474 v 2.349799 h 3.56093 v 0.89541 h -3.56093 v 3.44706 z" />
  <path
     inkscape:connector-curvature="0"
     id="path1627"
     style="font-size:10.59997368px;font-family:Arial;text-anchor:start;fill:#000000;stroke-width:1.33333004;text-rendering:geometricPrecision"
     d="m 181.90047,106.04142 v -1.06103 h 1.06103 v 1.06103 q 0,0.58486 -0.20703,0.94199 -0.20703,0.36231 -0.65732,0.55898 l -0.25879,-0.39853 q 0.29502,-0.12939 0.43477,-0.38301 0.13974,-0.24843 0.15527,-0.71943 z" />
  <text
     xml:space="preserve"
     style="font-style:normal;font-variant:normal;font-weight:normal;font-stretch:normal;font-size:10.66666698px;line-height:1.25;font-family:Arial;-inkscape-font-specification:Arial;text-align:start;letter-spacing:0px;word-spacing:0px;text-anchor:start;fill:#000000;fill-opacity:1;stroke:none"
     x="188.78773"
     y="106.01803"
     id="text1679"><tspan
       sodipodi:role="line"
       id="tspan1677"
       x="188.78773"
       y="106.01803">\SI{60}{\degreeCelsius}</tspan></text>
  <text
     xml:space="preserve"
     style="font-style:normal;font-variant:normal;font-weight:normal;font-stretch:normal;font-size:10.66666698px;line-height:1.25;font-family:Arial;-inkscape-font-specification:Arial;text-align:start;letter-spacing:0px;word-spacing:0px;text-anchor:start;fill:#000000;fill-opacity:1;stroke:none"
     x="-51.565247"
     y="114.45182"
     id="text1683"><tspan
       sodipodi:role="line"
       x="-51.565247"
       y="114.45182"
       id="tspan1685">\cmpd{w:amide-sec}</tspan></text>
  <text
     xml:space="preserve"
     style="font-style:normal;font-variant:normal;font-weight:normal;font-stretch:normal;font-size:10.66666698px;line-height:1.25;font-family:Arial;-inkscape-font-specification:Arial;text-align:start;letter-spacing:0px;word-spacing:0px;text-anchor:start;fill:#000000;fill-opacity:1;stroke:none"
     x="50.05191"
     y="114.45182"
     id="text1683-6"><tspan
       sodipodi:role="line"
       x="50.05191"
       y="114.45182"
       id="tspan1685-0">\cmpd{w:amide-tert}</tspan></text>
  <text
     xml:space="preserve"
     style="font-style:normal;font-variant:normal;font-weight:normal;font-stretch:normal;font-size:10.66666698px;line-height:1.25;font-family:Arial;-inkscape-font-specification:Arial;text-align:start;letter-spacing:0px;word-spacing:0px;text-anchor:start;fill:#000000;fill-opacity:1;stroke:none"
     x="274.85394"
     y="114.45182"
     id="text1683-8"><tspan
       sodipodi:role="line"
       x="274.85394"
       y="114.45182"
       id="tspan1685-7">\cmpd{aminophosphine}</tspan></text>
</svg>
