<?xml version="1.0" encoding="UTF-8" standalone="no"?>
<svg
   xmlns:dc="http://purl.org/dc/elements/1.1/"
   xmlns:cc="http://creativecommons.org/ns#"
   xmlns:rdf="http://www.w3.org/1999/02/22-rdf-syntax-ns#"
   xmlns:svg="http://www.w3.org/2000/svg"
   xmlns="http://www.w3.org/2000/svg"
   xmlns:sodipodi="http://sodipodi.sourceforge.net/DTD/sodipodi-0.dtd"
   xmlns:inkscape="http://www.inkscape.org/namespaces/inkscape"
   viewBox="24.53 76.19 243.84 54.07"
   preserveAspectRatio="xMidYMid"
   width="100%"
   height="100%"
   version="1.1"
   id="svg325"
   sodipodi:docname="synthesis.svg"
   inkscape:version="0.92.3 (2405546, 2018-03-11)">
  <metadata
     id="metadata331">
    <rdf:RDF>
      <cc:Work
         rdf:about="">
        <dc:format>image/svg+xml</dc:format>
        <dc:type
           rdf:resource="http://purl.org/dc/dcmitype/StillImage" />
      </cc:Work>
    </rdf:RDF>
  </metadata>
  <defs
     id="defs329" />
  <sodipodi:namedview
     pagecolor="#ffffff"
     bordercolor="#666666"
     borderopacity="1"
     objecttolerance="10"
     gridtolerance="10"
     guidetolerance="10"
     inkscape:pageopacity="0"
     inkscape:pageshadow="2"
     inkscape:window-width="1920"
     inkscape:window-height="1017"
     id="namedview327"
     showgrid="false"
     inkscape:zoom="2.9527559"
     inkscape:cx="128.1764"
     inkscape:cy="2.668765"
     inkscape:window-x="-8"
     inkscape:window-y="-8"
     inkscape:window-maximized="1"
     inkscape:current-layer="svg325" />
  <clipPath
     id="9319">
    <rect
       x="0.255"
       y="0.255"
       width="302.74"
       height="769.29"
       id="rect2" />
  </clipPath>
  <g
     id="Bond's parts"
     transform="matrix(1.33333,0,0,1.33333,-48.816178,-34.407989)">
    <path
       style="fill:#000000;fill-rule:evenodd;stroke:#000000;stroke-width:0;stroke-linejoin:miter;shape-rendering:geometricPrecision"
       inkscape:connector-curvature="0"
       id="path7"
       d="m 35.65,81 v 0 h 0.32 l 0.03,0.05 0.1,0.2 0.1,0.2 0.1,0.2 0.1,0.3 0.1,0.2 0.1,0.2 0.1,0.2 0.1,0.2 0.1,0.3 v 0.2 l -0.02,0.05 -0.43,0.05 -0.05,-0.2 -0.1,-0.2 -0.1,-0.3 -0.1,-0.2 -0.1,-0.2 -0.1,-0.2 -0.1,-0.2 -0.1,-0.2 -0.1,-0.3 -0.1,-0.2 -0.03,-0.05 z" />
    <path
       style="fill:#000000;fill-rule:evenodd;stroke:#000000;stroke-width:0;stroke-linejoin:miter;shape-rendering:geometricPrecision"
       inkscape:connector-curvature="0"
       id="path9"
       d="m 38.95,87.6 v 0 l 0.05,-0.05 0.1,0.2 0.1,0.3 0.1,0.2 0.1,0.2 0.1,0.2 0.1,0.2 0.1,0.3 0.1,0.2 0.1,0.2 0.1,0.2 0.1,0.2 0.1,0.2 0.1,0.3 0.1,0.2 0.1,0.2 0.1,0.2 0.1,0.2 0.1,0.2 0.03,0.05 -0.18,0.1 -0.4,0.05 -0.05,-0.2 -0.1,-0.3 -0.1,-0.2 -0.1,-0.2 -0.1,-0.2 -0.1,-0.2 -0.1,-0.2 -0.1,-0.3 -0.1,-0.2 -0.1,-0.2 -0.1,-0.2 -0.1,-0.2 -0.1,-0.3 -0.1,-0.2 -0.1,-0.2 -0.1,-0.2 -0.1,-0.2 V 87.9 l 0.02,-0.1 0.26,-0.1 z" />
  </g>
  <path
     style="fill:#000000;fill-rule:evenodd;stroke:#000000;stroke-width:0;stroke-linejoin:miter;shape-rendering:geometricPrecision"
     inkscape:connector-curvature="0"
     id="path13"
     d="m -11.349605,70.831748 v 0 l 0.213333,0.306666 0.213333,0.306666 -3.986657,6.373317 -0.626665,0.359999 -0.573332,0.266666 z" />
  <path
     style="fill:#000000;fill-rule:evenodd;stroke:#000000;stroke-width:0;stroke-linejoin:miter;shape-rendering:geometricPrecision"
     inkscape:connector-curvature="0"
     id="path17"
     d="m -16.109593,78.445062 v 0 l 0.573332,-0.266666 0.626665,-0.359999 14.5066303,-0.533332 0.3199992,1.573329 0.3333325,1.639996 z" />
  <path
     style="fill:#000000;fill-rule:evenodd;stroke:#000000;stroke-width:0;stroke-linejoin:miter;shape-rendering:geometricPrecision"
     inkscape:connector-curvature="0"
     id="path20"
     d="m 0.250366,80.49839 v 0 l -0.3333325,-1.639996 -0.3199992,-1.573329 13.4399667,-5.13332 0.719998,0.08 0.639998,0.02667 z" />
  <path
     style="fill:#000000;fill-rule:evenodd;stroke:#000000;stroke-width:0;stroke-linejoin:miter;shape-rendering:geometricPrecision"
     inkscape:connector-curvature="0"
     id="path23"
     d="m 14.396997,72.258411 v 0 l -0.639998,-0.02667 -0.719998,-0.08 -6.1866515,-4.253323 0.08,-0.359999 0.08,-0.359999 z" />
  <path
     style="fill:#000000;fill-rule:evenodd;stroke:#000000;stroke-width:0;stroke-linejoin:miter;shape-rendering:geometricPrecision"
     inkscape:connector-curvature="0"
     id="path27"
     d="m -10.922939,71.44508 v 0 l -0.213333,-0.306666 -0.213333,-0.306666 18.3599541,-3.653324 -0.08,0.359999 -0.08,0.359999 z" />
  <path
     style="fill:none;fill-rule:evenodd;stroke:#000000;stroke-width:0.67999828;stroke-linejoin:bevel;shape-rendering:geometricPrecision"
     inkscape:connector-curvature="0"
     id="path31"
     d="M -0.6962983,75.831735 C 4.5703552,74.751738 8.5436786,72.605077 8.250346,71.045081 7.9036802,69.485085 3.3703582,69.085086 -1.8696287,70.165083 c -5.2799868,1.106664 -9.2799763,3.226659 -8.9466443,4.813321 0.306666,1.559996 4.8666545,1.946662 10.1199747,0.853331 z" />
  <path
     style="fill:#000000;fill-rule:evenodd;stroke:#000000;stroke-width:0;stroke-linejoin:miter;shape-rendering:geometricPrecision"
     inkscape:connector-curvature="0"
     id="path34"
     d="m 11.223672,112.32498 v 0 l 0.693332,0.16 0.559998,0.04 -7.8933135,4.98665 -0.5999985,-1.48 -0.5733319,-1.47999 z" />
  <path
     style="fill:#000000;fill-rule:evenodd;stroke:#000000;stroke-width:0;stroke-linejoin:miter;shape-rendering:geometricPrecision"
     inkscape:connector-curvature="0"
     id="path38"
     d="m 3.4103581,114.55164 v 0 l 0.5733319,1.47999 0.5999985,1.48 -18.8932865,-9.49331 1.53333,-0.41333 1.533329,-0.41333 z" />
  <path
     style="fill:#000000;fill-rule:evenodd;stroke:#000000;stroke-width:0;stroke-linejoin:miter;shape-rendering:geometricPrecision"
     inkscape:connector-curvature="0"
     id="path41"
     d="m -11.242939,107.19166 v 0 l -1.533329,0.41333 -1.53333,0.41333 -1.17333,-9.399975 0.386666,0.426666 0.559998,0.453332 z" />
  <g
     id="g47"
     transform="matrix(1.33333,0,0,1.33333,-48.816178,-34.407989)">
    <path
       style="fill:#000000;fill-rule:evenodd;stroke:#000000;stroke-width:0;stroke-linejoin:miter;shape-rendering:geometricPrecision"
       inkscape:connector-curvature="0"
       id="path45"
       d="m 25.1,99.8 v 0 l 0.07,0.1 h 0.48 l 0.5,0.1 0.5,0.1 0.5,0.1 0.5,0.1 0.6,0.1 0.5,0.1 0.5,0.1 0.5,0.1 0.5,0.1 0.5,0.1 0.6,0.1 0.5,0.1 0.5,0.1 0.5,0.1 0.5,0.1 0.5,0.1 0.5,0.1 0.6,0.1 0.5,0.1 0.47,0.1 -0.02,0.05 -0.1,0.2 -0.05,0.05 -0.08,0.1 h -0.32 l -0.5,-0.1 -0.6,-0.1 -0.5,-0.1 -0.5,-0.1 -0.5,-0.1 -0.5,-0.1 -0.5,-0.1 -0.5,-0.1 -0.6,-0.1 -0.5,-0.1 -0.5,-0.1 -0.5,-0.1 -0.5,-0.1 -0.5,-0.1 -0.5,-0.1 -0.6,-0.1 -0.5,-0.1 -0.5,-0.1 -0.43,-0.1 -0.07,-0.1 -0.1,-0.1 -0.1,-0.1 -0.1,-0.1 z" />
  </g>
  <g
     id="g53"
     transform="matrix(1.33333,0,0,1.33333,-48.816178,-34.407989)">
    <path
       style="fill:#000000;fill-rule:evenodd;stroke:#000000;stroke-width:0;stroke-linejoin:miter;shape-rendering:geometricPrecision"
       inkscape:connector-curvature="0"
       id="path51"
       d="m 38.5,103.65 v 0 l 0.05,0.05 0.07,0.1 0.26,0.1 0.07,0.1 0.1,0.1 0.1,0.1 0.1,0.1 0.1,0.1 0.07,0.1 0.25,0.1 0.08,0.1 0.1,0.1 0.1,0.1 0.1,0.1 0.1,0.1 0.07,0.1 0.25,0.1 0.08,0.1 0.1,0.1 0.1,0.1 0.1,0.1 0.1,0.1 0.1,0.1 0.07,0.1 0.26,0.1 0.07,0.1 0.1,0.1 0.1,0.1 0.1,0.1 0.1,0.1 0.07,0.1 0.25,0.1 0.08,0.1 0.1,0.1 0.1,0.1 0.1,0.1 0.1,0.1 0.07,0.1 0.25,0.1 0.08,0.1 0.1,0.1 0.1,0.1 0.1,0.1 0.1,0.1 0.08,0.1 0.25,0.1 0.07,0.1 0.1,0.1 0.1,0.1 0.1,0.1 0.1,0.1 0.1,0.1 0.07,0.1 0.25,0.1 0.08,0.1 0.1,0.1 0.1,0.1 0.1,0.1 0.1,0.1 0.07,0.1 0.25,0.1 0.08,0.1 0.1,0.1 0.1,0.1 0.08,0.1 h -0.58 l -0.33,-0.1 -0.07,-0.1 -0.1,-0.1 -0.1,-0.1 -0.07,-0.1 -0.25,-0.1 -0.08,-0.1 -0.1,-0.1 -0.1,-0.1 -0.1,-0.1 -0.1,-0.1 -0.1,-0.1 -0.08,-0.1 -0.25,-0.1 -0.07,-0.1 -0.1,-0.1 -0.1,-0.1 -0.1,-0.1 -0.1,-0.1 -0.07,-0.1 -0.26,-0.1 -0.07,-0.1 -0.1,-0.1 -0.1,-0.1 -0.1,-0.1 -0.1,-0.1 -0.07,-0.1 -0.25,-0.1 -0.08,-0.1 -0.1,-0.1 -0.1,-0.1 -0.1,-0.1 -0.1,-0.1 -0.1,-0.1 -0.08,-0.1 -0.25,-0.1 -0.07,-0.1 -0.1,-0.1 -0.1,-0.1 -0.1,-0.1 -0.1,-0.1 -0.07,-0.1 -0.26,-0.1 -0.07,-0.1 -0.1,-0.1 -0.1,-0.1 -0.1,-0.1 -0.1,-0.1 -0.1,-0.1 -0.08,-0.1 -0.25,-0.1 -0.07,-0.1 -0.1,-0.1 -0.1,-0.1 -0.1,-0.1 -0.1,-0.1 -0.08,-0.1 -0.25,-0.1 -0.07,-0.1 -0.05,-0.05 v -0.2 l 0.05,-0.05 z" />
  </g>
  <path
     style="fill:none;fill-rule:evenodd;stroke:#000000;stroke-width:0.67999828;stroke-linejoin:bevel;shape-rendering:geometricPrecision"
     inkscape:connector-curvature="0"
     id="path57"
     d="m -3.6962908,109.81832 c -4.7733214,-2.44 -8.1066462,-5.77332 -7.2799822,-7.42665 0.799998,-1.54666 5.4266535,-0.8 10.2133082,1.58666 4.8933211,2.56 8.1599796,5.77332 7.333315,7.47998 -0.7866647,1.52 -5.3999865,0.77333 -10.266641,-1.63999 z" />
  <g
     aria-label="Zr"
     style="font-size:15.99995995px;text-anchor:middle;stroke-width:1.33333004;text-rendering:geometricPrecision"
     id="text63">
    <path
       d="M 2.7324081,96.805023 V 95.873385 L 6.6194102,91.013338 Q 7.0334717,90.495762 7.406127,90.112755 H 3.1723484 v -0.895408 h 5.4345569 v 0.895408 l -4.2596574,5.263756 -0.4606434,0.533104 h 4.8445192 v 0.895408 z"
       style="font-size:10.59997368px;font-family:Arial;fill:#000000;stroke-width:1.33333004"
       id="path1562"
       inkscape:connector-curvature="0" />
    <path
       d="m 9.6886408,96.805023 v -5.496666 h 0.8384742 v 0.833299 q 0.320898,-0.584862 0.590038,-0.77119 0.274316,-0.186327 0.600389,-0.186327 0.470995,0 0.957517,0.300194 l -0.320897,0.864354 q -0.341601,-0.201855 -0.683202,-0.201855 -0.30537,0 -0.548631,0.186327 -0.243261,0.181152 -0.346777,0.507226 -0.155273,0.496873 -0.155273,1.086911 v 2.877727 z"
       style="font-size:10.59997368px;font-family:Arial;fill:#000000;stroke-width:1.33333004"
       id="path1564"
       inkscape:connector-curvature="0" />
  </g>
  <g
     aria-label="Cl"
     style="font-size:15.99995995px;text-anchor:start;stroke-width:1.33333004;text-rendering:geometricPrecision"
     id="text69">
    <path
       d="m 26.215273,86.478029 1.0041,0.253613 q -0.315722,1.237009 -1.13867,1.889155 -0.817771,0.646972 -2.003022,0.646972 -1.226657,0 -1.997846,-0.496874 -0.766014,-0.50205 -1.169724,-1.449215 -0.398534,-0.947166 -0.398534,-2.034077 0,-1.185251 0.450292,-2.065132 0.455467,-0.885056 1.288766,-1.340524 0.838474,-0.460643 1.842573,-0.460643 1.138669,0 1.915035,0.579686 0.776365,0.579686 1.081735,1.630367 l -0.988571,0.232909 q -0.263965,-0.828123 -0.766014,-1.205954 -0.50205,-0.377831 -1.262888,-0.377831 -0.874705,0 -1.464742,0.419237 -0.584862,0.419238 -0.822947,1.128318 -0.238086,0.703904 -0.238086,1.454391 0,0.967869 0.279492,1.692476 0.284667,0.719432 0.87988,1.07656 0.595214,0.357128 1.288767,0.357128 0.84365,0 1.428512,-0.486522 0.584862,-0.486522 0.791892,-1.44404 z"
       style="font-size:10.59997368px;font-family:Arial;fill:#000000;stroke-width:1.33333004"
       id="path1567"
       inkscape:connector-curvature="0" />
    <path
       d="m 28.321811,89.138374 v -7.587676 h 0.931638 v 7.587676 z"
       style="font-size:10.59997368px;font-family:Arial;fill:#000000;stroke-width:1.33333004"
       id="path1569"
       inkscape:connector-curvature="0" />
  </g>
  <path
     style="stroke:#000000;stroke-width:0.67999828;shape-rendering:auto"
     d="M 15.94366,89.85836 15.036995,87.938377"
     id="line73" />
  <path
     style="stroke:#000000;stroke-width:0.67999828;shape-rendering:auto"
     d="M 19.22365,88.29837 18.316986,86.391708"
     id="line75" />
  <g
     aria-label="Cl"
     style="font-size:15.99995995px;text-anchor:start;stroke-width:1.33333004;text-rendering:geometricPrecision"
     id="text80">
    <path
       d="m 26.215273,101.82465 1.0041,0.25361 q -0.315722,1.23701 -1.13867,1.88916 -0.817771,0.64697 -2.003022,0.64697 -1.226657,0 -1.997846,-0.49688 -0.766014,-0.50205 -1.169724,-1.44921 -0.398534,-0.94717 -0.398534,-2.03408 0,-1.18525 0.450292,-2.06513 0.455467,-0.885057 1.288766,-1.340524 0.838474,-0.460644 1.842573,-0.460644 1.138669,0 1.915035,0.579686 0.776365,0.579686 1.081735,1.630367 l -0.988571,0.23291 Q 25.837442,98.382762 25.335393,98.004931 24.833343,97.6271 24.072505,97.6271 q -0.874705,0 -1.464742,0.419237 -0.584862,0.419237 -0.822947,1.128318 -0.238086,0.703904 -0.238086,1.454395 0,0.96786 0.279492,1.69247 0.284667,0.71943 0.87988,1.07656 0.595214,0.35713 1.288767,0.35713 0.84365,0 1.428512,-0.48652 0.584862,-0.48652 0.791892,-1.44404 z"
       style="font-size:10.59997368px;font-family:Arial;fill:#000000;stroke-width:1.33333004"
       id="path1574"
       inkscape:connector-curvature="0" />
    <path
       d="m 28.321811,104.48499 v -7.587673 h 0.931638 v 7.587673 z"
       style="font-size:10.59997368px;font-family:Arial;fill:#000000;stroke-width:1.33333004"
       id="path1576"
       inkscape:connector-curvature="0" />
  </g>
  <path
     style="fill:#000000;fill-rule:evenodd;stroke:#000000;stroke-width:0;stroke-linejoin:miter;shape-rendering:geometricPrecision"
     inkscape:connector-curvature="0"
     id="path84"
     d="m 11.90367,95.871685 v 0 l 0.453332,-0.959997 0.439999,-0.959998 6.733317,3.173325 -0.453332,0.959998 -0.439999,0.959998 z" />
  <path
     style="fill:#000000;fill-rule:evenodd;stroke:#000000;stroke-width:0;stroke-linejoin:miter;shape-rendering:geometricPrecision"
     inkscape:connector-curvature="0"
     id="path88"
     d="m 3.4103581,98.178346 v 0 l 0.2799993,0.186666 0.2799993,0.186667 -6.0933181,9.066641 -0.2799993,-0.18666 -0.2799993,-0.18667 z" />
  <g
     id="g96"
     transform="matrix(1.33333,0,0,1.33333,-48.816178,-34.407989)">
    <path
       style="fill:#009d73;fill-rule:evenodd;stroke:#009d73;stroke-width:0;stroke-linejoin:miter;shape-rendering:geometricPrecision"
       inkscape:connector-curvature="0"
       id="path92"
       d="m 176.88,80.9 v 0 l 0.02,-0.05 0.1,0.2 0.1,0.3 0.1,0.2 0.1,0.2 0.1,0.2 0.1,0.2 0.1,0.2 0.1,0.3 0.1,0.2 0.1,0.2 0.05,0.2 -0.2,0.05 -0.3,0.05 -0.05,-0.2 -0.1,-0.2 -0.1,-0.2 -0.1,-0.2 -0.1,-0.2 -0.1,-0.3 -0.1,-0.2 -0.1,-0.2 -0.1,-0.2 -0.1,-0.2 -0.05,-0.2 0.2,-0.05 z" />
    <path
       style="fill:#009d73;fill-rule:evenodd;stroke:#009d73;stroke-width:0;stroke-linejoin:miter;shape-rendering:geometricPrecision"
       inkscape:connector-curvature="0"
       id="path94"
       d="m 179.73,87.7 v 0 l 0.32,-0.05 0.05,0.2 0.1,0.2 0.1,0.2 0.1,0.2 0.1,0.3 0.1,0.2 0.1,0.2 0.1,0.2 0.1,0.2 0.1,0.2 0.1,0.3 0.1,0.2 0.1,0.2 0.1,0.2 0.1,0.2 0.1,0.3 0.1,0.2 0.05,0.2 -0.2,0.05 -0.3,0.05 -0.05,-0.2 -0.1,-0.2 -0.1,-0.2 -0.1,-0.3 -0.1,-0.2 -0.1,-0.2 -0.1,-0.2 -0.1,-0.2 -0.1,-0.2 -0.1,-0.3 -0.1,-0.2 -0.1,-0.2 -0.1,-0.2 -0.1,-0.2 -0.1,-0.2 -0.1,-0.3 -0.1,-0.2 V 87.9 l 0.05,-0.1 z" />
  </g>
  <path
     style="fill:#009d73;fill-rule:evenodd;stroke:#009d73;stroke-width:0;stroke-linejoin:miter;shape-rendering:geometricPrecision"
     inkscape:connector-curvature="0"
     id="path100"
     d="m 176.62326,70.831748 v 0 l 0.21333,0.306666 0.21333,0.306666 -3.98665,6.373317 -0.62667,0.359999 -0.57333,0.266666 z" />
  <path
     style="fill:#009d73;fill-rule:evenodd;stroke:#009d73;stroke-width:0;stroke-linejoin:miter;shape-rendering:geometricPrecision"
     inkscape:connector-curvature="0"
     id="path104"
     d="m 171.86327,78.445062 v 0 l 0.57333,-0.266666 0.62667,-0.359999 14.50663,-0.533332 0.32,1.573329 0.33333,1.639996 z" />
  <path
     style="fill:#009d73;fill-rule:evenodd;stroke:#009d73;stroke-width:0;stroke-linejoin:miter;shape-rendering:geometricPrecision"
     inkscape:connector-curvature="0"
     id="path108"
     d="m 188.22323,80.49839 v 0 l -0.33333,-1.639996 -0.32,-1.573329 13.43996,-5.13332 0.72,0.08 0.64,0.02667 z" />
  <path
     style="fill:#009d73;fill-rule:evenodd;stroke:#009d73;stroke-width:0;stroke-linejoin:miter;shape-rendering:geometricPrecision"
     inkscape:connector-curvature="0"
     id="path112"
     d="m 202.36986,72.258411 v 0 l -0.64,-0.02667 -0.72,-0.08 -6.18665,-4.253323 0.08,-0.359999 0.08,-0.359999 z" />
  <path
     style="fill:#009d73;fill-rule:evenodd;stroke:#009d73;stroke-width:0;stroke-linejoin:miter;shape-rendering:geometricPrecision"
     inkscape:connector-curvature="0"
     id="path116"
     d="m 177.04992,71.44508 v 0 l -0.21333,-0.306666 -0.21333,-0.306666 18.35995,-3.653324 -0.08,0.359999 -0.08,0.359999 z" />
  <path
     style="fill:none;fill-rule:evenodd;stroke:#009d73;stroke-width:0.67999828;stroke-linejoin:bevel;shape-rendering:geometricPrecision"
     inkscape:connector-curvature="0"
     id="path120"
     d="m 187.2899,75.831735 c 5.25332,-1.079997 9.22664,-3.226658 8.93331,-4.786654 -0.34667,-1.559996 -4.86666,-1.959995 -10.11998,-0.879998 -5.27998,1.106664 -9.27997,3.226659 -8.94664,4.813321 0.30667,1.559996 4.86665,1.946662 10.13331,0.853331 z" />
  <path
     style="fill:#009d73;fill-rule:evenodd;stroke:#009d73;stroke-width:0;stroke-linejoin:miter;shape-rendering:geometricPrecision"
     inkscape:connector-curvature="0"
     id="path124"
     d="m 199.19654,112.32498 v 0 l 0.69333,0.16 0.56,0.04 -7.89332,4.98665 -0.6,-1.48 -0.57333,-1.47999 z" />
  <path
     style="fill:#009d73;fill-rule:evenodd;stroke:#009d73;stroke-width:0;stroke-linejoin:miter;shape-rendering:geometricPrecision"
     inkscape:connector-curvature="0"
     id="path128"
     d="m 191.38322,114.55164 v 0 l 0.57333,1.47999 0.6,1.48 -18.89328,-9.49331 1.53333,-0.41333 1.53332,-0.41333 z" />
  <path
     style="fill:#009d73;fill-rule:evenodd;stroke:#009d73;stroke-width:0;stroke-linejoin:miter;shape-rendering:geometricPrecision"
     inkscape:connector-curvature="0"
     id="path132"
     d="m 176.72992,107.19166 v 0 l -1.53332,0.41333 -1.53333,0.41333 -1.17333,-9.399975 0.38666,0.426666 0.56,0.453332 z" />
  <path
     style="fill:#009d73;fill-rule:evenodd;stroke:#009d73;stroke-width:0;stroke-linejoin:miter;shape-rendering:geometricPrecision"
     inkscape:connector-curvature="0"
     id="path136"
     d="m 173.4366,99.498343 v 0 l -0.56,-0.453332 -0.38666,-0.426666 15.61329,3.039995 -0.16,0.32 -0.16,0.32 z" />
  <g
     id="g142"
     transform="matrix(1.33333,0,0,1.33333,-48.816178,-34.407989)">
    <path
       style="fill:#009d73;fill-rule:evenodd;stroke:#009d73;stroke-width:0;stroke-linejoin:miter;shape-rendering:geometricPrecision"
       inkscape:connector-curvature="0"
       id="path140"
       d="m 179.45,103.7 v 0 h 0.1 l 0.1,0.1 0.08,0.1 0.25,0.1 0.07,0.1 0.1,0.1 0.1,0.1 0.1,0.1 0.1,0.1 0.1,0.1 0.07,0.1 0.26,0.1 0.07,0.1 0.1,0.1 0.1,0.1 0.1,0.1 0.1,0.1 0.08,0.1 0.25,0.1 0.07,0.1 0.1,0.1 0.1,0.1 0.1,0.1 0.1,0.1 0.08,0.1 0.25,0.1 0.07,0.1 0.1,0.1 0.1,0.1 0.1,0.1 0.1,0.1 0.1,0.1 0.07,0.1 0.26,0.1 0.07,0.1 0.1,0.1 0.1,0.1 0.1,0.1 0.1,0.1 0.08,0.1 0.25,0.1 0.07,0.1 0.1,0.1 0.1,0.1 0.1,0.1 0.1,0.1 0.08,0.1 0.25,0.1 0.07,0.1 0.1,0.1 0.1,0.1 0.1,0.1 0.1,0.1 0.1,0.1 0.07,0.1 0.26,0.1 0.07,0.1 0.1,0.1 0.1,0.1 0.1,0.1 0.1,0.1 0.08,0.1 0.25,0.1 0.07,0.1 0.07,0.1 h -0.57 l -0.32,-0.1 -0.08,-0.1 -0.1,-0.1 -0.07,-0.1 -0.25,-0.1 -0.08,-0.1 -0.1,-0.1 -0.1,-0.1 -0.1,-0.1 -0.1,-0.1 -0.07,-0.1 -0.26,-0.1 -0.07,-0.1 -0.1,-0.1 -0.1,-0.1 -0.1,-0.1 -0.1,-0.1 -0.1,-0.1 -0.07,-0.1 -0.25,-0.1 -0.08,-0.1 -0.1,-0.1 -0.1,-0.1 -0.1,-0.1 -0.1,-0.1 -0.07,-0.1 -0.25,-0.1 -0.08,-0.1 -0.1,-0.1 -0.1,-0.1 -0.1,-0.1 -0.1,-0.1 -0.07,-0.1 -0.26,-0.1 -0.07,-0.1 -0.1,-0.1 -0.1,-0.1 -0.1,-0.1 -0.1,-0.1 -0.1,-0.1 -0.07,-0.1 -0.25,-0.1 -0.08,-0.1 -0.1,-0.1 -0.1,-0.1 -0.1,-0.1 -0.1,-0.1 -0.07,-0.1 -0.25,-0.1 -0.08,-0.1 -0.1,-0.1 -0.1,-0.1 -0.1,-0.1 -0.1,-0.1 -0.1,-0.1 -0.08,-0.1 -0.25,-0.1 -0.07,-0.1 -0.1,-0.1 -0.05,-0.05 v -0.2 l 0.1,-0.2 z" />
  </g>
  <path
     style="fill:none;fill-rule:evenodd;stroke:#009d73;stroke-width:0.67999828;stroke-linejoin:bevel;shape-rendering:geometricPrecision"
     inkscape:connector-curvature="0"
     id="path146"
     d="m 184.27657,109.81832 c -4.75999,-2.44 -8.10664,-5.77332 -7.26665,-7.42665 0.78667,-1.54666 5.41332,-0.8 10.19998,1.58666 4.89332,2.56 8.15998,5.77332 7.33331,7.47998 -0.77333,1.52 -5.39998,0.77333 -10.26664,-1.63999 z" />
  <g
     aria-label="Zr"
     style="font-size:15.99995995px;text-anchor:middle;stroke-width:1.33333004;text-rendering:geometricPrecision"
     id="text152">
    <path
       d="m 190.70528,96.805023 v -0.931638 l 3.887,-4.860047 q 0.41407,-0.517576 0.78672,-0.900583 h -4.23378 v -0.895408 h 5.43456 v 0.895408 l -4.25966,5.263756 -0.46064,0.533104 h 4.84452 v 0.895408 z"
       style="font-size:10.59997368px;font-family:Arial;fill:#009d73;stroke-width:1.33333004"
       id="path1579"
       inkscape:connector-curvature="0" />
    <path
       d="m 197.66152,96.805023 v -5.496666 h 0.83847 v 0.833299 q 0.3209,-0.584862 0.59004,-0.77119 0.27431,-0.186327 0.60039,-0.186327 0.47099,0 0.95751,0.300194 l -0.32089,0.864354 q -0.3416,-0.201855 -0.68321,-0.201855 -0.30537,0 -0.54863,0.186327 -0.24326,0.181152 -0.34677,0.507226 -0.15528,0.496873 -0.15528,1.086911 v 2.877727 z"
       style="font-size:10.59997368px;font-family:Arial;fill:#009d73;stroke-width:1.33333004"
       id="path1581"
       inkscape:connector-curvature="0" />
  </g>
  <g
     aria-label="Cl"
     style="font-size:15.99995995px;text-anchor:start;stroke-width:1.33333004;text-rendering:geometricPrecision"
     id="text158">
    <path
       d="m 214.18814,86.478029 1.0041,0.253613 q -0.31573,1.237009 -1.13867,1.889155 -0.81777,0.646972 -2.00302,0.646972 -1.22666,0 -1.99785,-0.496874 -0.76602,-0.50205 -1.16973,-1.449215 -0.39853,-0.947166 -0.39853,-2.034077 0,-1.185251 0.45029,-2.065132 0.45547,-0.885056 1.28877,-1.340524 0.83847,-0.460643 1.84257,-0.460643 1.13867,0 1.91504,0.579686 0.77636,0.579686 1.08173,1.630367 l -0.98857,0.232909 q -0.26396,-0.828123 -0.76601,-1.205954 -0.50205,-0.377831 -1.26289,-0.377831 -0.87471,0 -1.46474,0.419237 -0.58486,0.419238 -0.82295,1.128318 -0.23809,0.703904 -0.23809,1.454391 0,0.967869 0.2795,1.692476 0.28466,0.719432 0.87988,1.07656 0.59521,0.357128 1.28876,0.357128 0.84365,0 1.42852,-0.486522 0.58486,-0.486522 0.79189,-1.44404 z"
       style="font-size:10.59997368px;font-family:Arial;fill:#009d73;stroke-width:1.33333004"
       id="path1584"
       inkscape:connector-curvature="0" />
    <path
       d="m 216.29468,89.138374 v -7.587676 h 0.93163 v 7.587676 z"
       style="font-size:10.59997368px;font-family:Arial;fill:#009d73;stroke-width:1.33333004"
       id="path1586"
       inkscape:connector-curvature="0" />
  </g>
  <path
     style="stroke:#009d73;stroke-width:0.67999828;shape-rendering:auto"
     d="m 203.86319,89.871696 -0.90666,-1.906662"
     id="line162" />
  <path
     style="stroke:#009d73;stroke-width:0.67999828;shape-rendering:auto"
     d="m 207.08984,88.351707 -0.90666,-1.920005"
     id="line164" />
  <g
     aria-label="H"
     style="font-size:15.99995995px;text-anchor:start;stroke-width:1.33333004;text-rendering:geometricPrecision"
     id="text170">
    <path
       d="m 208.80534,104.48499 v -7.587673 h 1.0041 v 3.115813 h 3.94393 v -3.115813 h 1.0041 v 7.587673 h -1.0041 v -3.57645 h -3.94393 v 3.57645 z"
       style="font-size:10.59997368px;font-family:Arial;fill:#009d73;stroke-width:1.33333004"
       id="path1591"
       inkscape:connector-curvature="0" />
  </g>
  <path
     style="fill:#009d73;fill-rule:evenodd;stroke:#009d73;stroke-width:0;stroke-linejoin:miter;shape-rendering:geometricPrecision"
     inkscape:connector-curvature="0"
     id="path174"
     d="m 199.9032,95.885019 v 0 l 0.45333,-0.959998 0.44,-0.959998 6.99998,3.293325 -0.45333,0.959998 -0.44,0.959998 z" />
  <path
     style="fill:#009d73;fill-rule:evenodd;stroke:#009d73;stroke-width:0;stroke-linejoin:miter;shape-rendering:geometricPrecision"
     inkscape:connector-curvature="0"
     id="path178"
     d="m 191.38322,98.178346 v 0 l 0.28,0.186666 0.28,0.186667 -6.09332,9.066641 -0.28,-0.18666 -0.28,-0.18667 z" />
  <g
     id="g186"
     transform="matrix(1.33333,0,0,1.33333,-48.816178,-34.407989)">
    <path
       style="fill:#000000;fill-rule:evenodd;stroke:#000000;stroke-width:0;stroke-linejoin:miter;shape-rendering:geometricPrecision"
       inkscape:connector-curvature="0"
       id="path182"
       d="m 246.65,81 v 0 h 0.33 l 0.02,0.05 0.1,0.2 0.1,0.3 0.1,0.2 0.1,0.2 0.1,0.2 0.1,0.2 0.1,0.2 0.1,0.3 0.1,0.2 0.05,0.2 -0.2,0.05 -0.3,0.05 -0.05,-0.2 -0.1,-0.2 -0.1,-0.2 -0.1,-0.2 -0.1,-0.3 -0.1,-0.2 -0.1,-0.2 -0.1,-0.2 -0.1,-0.2 -0.1,-0.2 -0.05,-0.2 z" />
    <path
       style="fill:#000000;fill-rule:evenodd;stroke:#000000;stroke-width:0;stroke-linejoin:miter;shape-rendering:geometricPrecision"
       inkscape:connector-curvature="0"
       id="path184"
       d="m 249.85,87.7 v 0 l 0.2,-0.05 0.05,0.2 0.1,0.2 0.1,0.2 0.1,0.2 0.1,0.2 0.1,0.3 0.1,0.2 0.1,0.2 0.1,0.2 0.1,0.2 0.1,0.3 0.1,0.2 0.1,0.2 0.1,0.2 0.1,0.2 0.1,0.2 0.1,0.3 v 0.2 l -0.02,0.05 -0.43,0.05 -0.05,-0.2 -0.1,-0.2 -0.1,-0.2 -0.1,-0.3 -0.1,-0.2 -0.1,-0.2 -0.1,-0.2 -0.1,-0.2 -0.1,-0.3 -0.1,-0.2 -0.1,-0.2 -0.1,-0.2 -0.1,-0.2 -0.1,-0.2 -0.1,-0.3 -0.1,-0.2 -0.1,-0.2 V 87.9 l 0.02,-0.1 z" />
  </g>
  <path
     style="fill:#000000;fill-rule:evenodd;stroke:#000000;stroke-width:0;stroke-linejoin:miter;shape-rendering:geometricPrecision"
     inkscape:connector-curvature="0"
     id="path190"
     d="m 269.96969,70.831748 v 0 l 0.21333,0.306666 0.21334,0.306666 -3.98666,6.373317 -0.62666,0.359999 -0.57334,0.266666 z" />
  <path
     style="fill:#000000;fill-rule:evenodd;stroke:#000000;stroke-width:0;stroke-linejoin:miter;shape-rendering:geometricPrecision"
     inkscape:connector-curvature="0"
     id="path194"
     d="m 265.2097,78.445062 v 0 l 0.57334,-0.266666 0.62666,-0.359999 14.50663,-0.533332 0.32,1.573329 0.33333,1.639996 z" />
  <path
     style="fill:#000000;fill-rule:evenodd;stroke:#000000;stroke-width:0;stroke-linejoin:miter;shape-rendering:geometricPrecision"
     inkscape:connector-curvature="0"
     id="path198"
     d="m 281.56966,80.49839 v 0 l -0.33333,-1.639996 -0.32,-1.573329 13.43997,-5.13332 0.72,0.08 0.62666,0.02667 z" />
  <path
     style="fill:#000000;fill-rule:evenodd;stroke:#000000;stroke-width:0;stroke-linejoin:miter;shape-rendering:geometricPrecision"
     inkscape:connector-curvature="0"
     id="path202"
     d="m 295.70296,72.258411 v 0 l -0.62666,-0.02667 -0.72,-0.08 -6.17332,-4.253323 0.08,-0.359999 0.08,-0.359999 z" />
  <path
     style="fill:#000000;fill-rule:evenodd;stroke:#000000;stroke-width:0;stroke-linejoin:miter;shape-rendering:geometricPrecision"
     inkscape:connector-curvature="0"
     id="path206"
     d="m 270.39636,71.44508 v 0 l -0.21334,-0.306666 -0.21333,-0.306666 18.37329,-3.653324 -0.08,0.359999 -0.08,0.359999 z" />
  <path
     style="fill:none;fill-rule:evenodd;stroke:#000000;stroke-width:0.67999828;stroke-linejoin:bevel;shape-rendering:geometricPrecision"
     inkscape:connector-curvature="0"
     id="path210"
     d="m 280.63633,75.831735 c 5.25332,-1.079997 9.22665,-3.226658 8.93331,-4.786654 -0.34666,-1.559996 -4.86665,-1.959995 -10.11997,-0.879998 -5.27999,1.106664 -9.27998,3.226659 -8.94665,4.813321 0.30667,1.559996 4.86666,1.946662 10.13331,0.853331 z" />
  <path
     style="fill:#000000;fill-rule:evenodd;stroke:#000000;stroke-width:0;stroke-linejoin:miter;shape-rendering:geometricPrecision"
     inkscape:connector-curvature="0"
     id="path214"
     d="m 292.54297,112.32498 v 0 l 0.69333,0.16 0.56,0.04 -7.89331,4.98665 -0.6,-1.48 -0.57334,-1.47999 z" />
  <path
     style="fill:#000000;fill-rule:evenodd;stroke:#000000;stroke-width:0;stroke-linejoin:miter;shape-rendering:geometricPrecision"
     inkscape:connector-curvature="0"
     id="path218"
     d="m 284.72965,114.55164 v 0 l 0.57334,1.47999 0.6,1.48 -18.89329,-9.49331 1.53333,-0.41333 1.53333,-0.41333 z" />
  <path
     style="fill:#000000;fill-rule:evenodd;stroke:#000000;stroke-width:0;stroke-linejoin:miter;shape-rendering:geometricPrecision"
     inkscape:connector-curvature="0"
     id="path222"
     d="m 270.07636,107.19166 v 0 l -1.53333,0.41333 -1.53333,0.41333 -1.16,-9.399975 0.38667,0.426666 0.56,0.453332 z" />
  <path
     style="fill:#000000;fill-rule:evenodd;stroke:#000000;stroke-width:0;stroke-linejoin:miter;shape-rendering:geometricPrecision"
     inkscape:connector-curvature="0"
     id="path226"
     d="m 266.79637,99.498343 v 0 l -0.56,-0.453332 -0.38667,-0.426666 15.59996,3.039995 -0.16,0.32 -0.16,0.32 z" />
  <g
     id="g232"
     transform="matrix(1.33333,0,0,1.33333,-48.816178,-34.407989)">
    <path
       style="fill:#000000;fill-rule:evenodd;stroke:#000000;stroke-width:0;stroke-linejoin:miter;shape-rendering:geometricPrecision"
       inkscape:connector-curvature="0"
       id="path230"
       d="m 249.5,103.65 v 0 l 0.05,0.05 0.1,0.1 0.08,0.1 0.25,0.1 0.07,0.1 0.1,0.1 0.1,0.1 0.1,0.1 0.1,0.1 0.07,0.1 0.25,0.1 0.08,0.1 0.1,0.1 0.1,0.1 0.1,0.1 0.1,0.1 0.07,0.1 0.25,0.1 0.08,0.1 0.1,0.1 0.1,0.1 0.1,0.1 0.1,0.1 0.1,0.1 0.08,0.1 0.25,0.1 0.07,0.1 0.1,0.1 0.1,0.1 0.1,0.1 0.1,0.1 0.07,0.1 0.25,0.1 0.08,0.1 0.1,0.1 0.1,0.1 0.1,0.1 0.1,0.1 0.07,0.1 0.25,0.1 0.08,0.1 0.1,0.1 0.1,0.1 0.1,0.1 0.1,0.1 0.07,0.1 0.26,0.1 0.07,0.1 0.1,0.1 0.1,0.1 0.1,0.1 0.1,0.1 0.1,0.1 0.07,0.1 0.25,0.1 0.08,0.1 0.1,0.1 0.1,0.1 0.1,0.1 0.1,0.1 0.08,0.1 0.25,0.1 0.07,0.1 0.1,0.1 0.08,0.1 h -0.58 l -0.32,-0.1 -0.08,-0.1 -0.1,-0.1 -0.1,-0.1 -0.08,-0.1 -0.25,-0.1 -0.07,-0.1 -0.1,-0.1 -0.1,-0.1 -0.1,-0.1 -0.1,-0.1 -0.08,-0.1 -0.25,-0.1 -0.07,-0.1 -0.1,-0.1 -0.1,-0.1 -0.1,-0.1 -0.1,-0.1 -0.1,-0.1 -0.07,-0.1 -0.26,-0.1 -0.07,-0.1 -0.1,-0.1 -0.1,-0.1 -0.1,-0.1 -0.1,-0.1 -0.08,-0.1 -0.25,-0.1 -0.07,-0.1 -0.1,-0.1 -0.1,-0.1 -0.1,-0.1 -0.1,-0.1 -0.08,-0.1 -0.25,-0.1 -0.07,-0.1 -0.1,-0.1 -0.1,-0.1 -0.1,-0.1 -0.1,-0.1 -0.07,-0.1 -0.25,-0.1 -0.08,-0.1 -0.1,-0.1 -0.1,-0.1 -0.1,-0.1 -0.1,-0.1 -0.1,-0.1 -0.08,-0.1 -0.25,-0.1 -0.07,-0.1 -0.1,-0.1 -0.1,-0.1 -0.1,-0.1 -0.1,-0.1 -0.08,-0.1 -0.25,-0.1 -0.07,-0.1 -0.1,-0.1 -0.05,-0.05 v -0.2 l 0.05,-0.05 z" />
  </g>
  <path
     style="fill:none;fill-rule:evenodd;stroke:#000000;stroke-width:0.67999828;stroke-linejoin:bevel;shape-rendering:geometricPrecision"
     inkscape:connector-curvature="0"
     id="path236"
     d="m 277.62301,109.81832 c -4.75999,-2.44 -8.10665,-5.77332 -7.26665,-7.42665 0.8,-1.54666 5.41332,-0.8 10.19997,1.58666 4.89332,2.56 8.15998,5.77332 7.33332,7.47998 -0.77333,1.52 -5.39999,0.77333 -10.26664,-1.63999 z" />
  <g
     aria-label="Zr"
     style="font-size:15.99995995px;text-anchor:middle;stroke-width:1.33333004;text-rendering:geometricPrecision"
     id="text242">
    <path
       d="m 284.0517,96.805023 v -0.931638 l 3.887,-4.860047 q 0.41407,-0.517576 0.78672,-0.900583 h -4.23378 v -0.895408 h 5.43456 v 0.895408 l -4.25966,5.263756 -0.46064,0.533104 h 4.84452 v 0.895408 z"
       style="font-size:10.59997368px;font-family:Arial;fill:#000000;stroke-width:1.33333004"
       id="path1594"
       inkscape:connector-curvature="0" />
    <path
       d="m 291.00794,96.805023 v -5.496666 h 0.83847 v 0.833299 q 0.3209,-0.584862 0.59004,-0.77119 0.27431,-0.186327 0.60039,-0.186327 0.47099,0 0.95751,0.300194 l -0.32089,0.864354 q -0.3416,-0.201855 -0.68321,-0.201855 -0.30537,0 -0.54863,0.186327 -0.24326,0.181152 -0.34677,0.507226 -0.15528,0.496873 -0.15528,1.086911 v 2.877727 z"
       style="font-size:10.59997368px;font-family:Arial;fill:#000000;stroke-width:1.33333004"
       id="path1596"
       inkscape:connector-curvature="0" />
  </g>
  <g
     aria-label="H"
     style="font-size:15.99995995px;text-anchor:start;stroke-width:1.33333004;text-rendering:geometricPrecision"
     id="text248">
    <path
       d="m 302.16511,89.138374 v -7.587676 h 1.0041 v 3.115812 h 3.94393 v -3.115812 h 1.0041 v 7.587676 h -1.0041 v -3.576456 h -3.94393 v 3.576456 z"
       style="font-size:10.59997368px;font-family:Arial;fill:#000000;stroke-width:1.33333004"
       id="path1599"
       inkscape:connector-curvature="0" />
  </g>
  <path
     style="stroke:#000000;stroke-width:0.67999828;shape-rendering:auto"
     d="m 297.3963,89.791702 -0.89334,-1.919998"
     id="line252" />
  <path
     style="stroke:#000000;stroke-width:0.67999828;shape-rendering:auto"
     d="m 300.82297,88.165039 -0.90671,-1.906662"
     id="line254" />
  <path
     style="fill:#000000;fill-rule:evenodd;stroke:#000000;stroke-width:0;stroke-linejoin:miter;shape-rendering:geometricPrecision"
     inkscape:connector-curvature="0"
     id="path258"
     d="m 293.2363,95.885019 v 0 l 0.45333,-0.959998 0.44,-0.959998 6.99998,3.293325 -0.45333,0.959998 -0.44,0.946664 z" />
  <g
     aria-label="H"
     style="font-size:15.99995995px;text-anchor:start;stroke-width:1.33333004;text-rendering:geometricPrecision"
     id="text264">
    <path
       d="m 302.16511,104.48499 v -7.587673 h 1.0041 v 3.115813 h 3.94393 v -3.115813 h 1.0041 v 7.587673 h -1.0041 v -3.57645 h -3.94393 v 3.57645 z"
       style="font-size:10.59997368px;font-family:Arial;fill:#000000;stroke-width:1.33333004"
       id="path1604"
       inkscape:connector-curvature="0" />
  </g>
  <path
     style="fill:#000000;fill-rule:evenodd;stroke:#000000;stroke-width:0;stroke-linejoin:miter;shape-rendering:geometricPrecision"
     inkscape:connector-curvature="0"
     id="path268"
     d="m 284.72965,98.178346 v 0 l 0.28,0.186666 0.28,0.186667 -6.07998,9.066641 -0.28,-0.18666 -0.28,-0.18667 z" />
  <path
     style="stroke:#000000;stroke-width:0.67999828;shape-rendering:auto"
     d="M 139.41002,92.405029 H 55.143562"
     id="line272" />
  <path
     style="fill:#000000;fill-rule:evenodd;stroke:#000000;stroke-width:0;stroke-linejoin:miter;stroke-miterlimit:5.89496231;shape-rendering:geometricPrecision"
     inkscape:connector-curvature="0"
     id="path274"
     stroke-miterlimit="5.89496254687639"
     d="m 144.02334,92.405027 -6.79998,-1.693329 c 1.42666,0.946664 1.42666,2.439994 0,3.386658 z" />
  <g
     aria-label="+"
     style="font-size:15.99995995px;text-anchor:start;stroke-width:1.33333004;text-rendering:geometricPrecision"
     id="text279">
    <path
       d="m 242.58493,96.285031 v -2.080659 h -2.06513 v -0.869529 h 2.06513 v -2.065131 h 0.87988 v 2.065131 h 2.06514 v 0.869529 h -2.06514 v 2.080659 z"
       style="font-size:10.59997368px;font-family:Arial;fill:#000000;stroke-width:1.33333004"
       id="path1608"
       inkscape:connector-curvature="0" />
  </g>
  <g
     aria-label="CH2Cl2"
     style="font-size:15.99995995px;text-anchor:start;stroke-width:1.33333004;text-rendering:geometricPrecision"
     id="text291">
    <path
       d="m 226.04144,130.62458 1.0041,0.25362 q -0.31572,1.237 -1.13867,1.88915 -0.81777,0.64697 -2.00302,0.64697 -1.22666,0 -1.99785,-0.49687 -0.76601,-0.50205 -1.16972,-1.44922 -0.39854,-0.94716 -0.39854,-2.03407 0,-1.18526 0.45029,-2.06514 0.45547,-0.88505 1.28877,-1.34052 0.83848,-0.46064 1.84257,-0.46064 1.13867,0 1.91504,0.57968 0.77636,0.57969 1.08173,1.63037 l -0.98857,0.23291 q -0.26396,-0.82812 -0.76601,-1.20595 -0.50205,-0.37784 -1.26289,-0.37784 -0.8747,0 -1.46474,0.41924 -0.58486,0.41924 -0.82295,1.12832 -0.23808,0.7039 -0.23808,1.45439 0,0.96787 0.27949,1.69248 0.28467,0.71943 0.87988,1.07656 0.59521,0.35712 1.28876,0.35712 0.84366,0 1.42852,-0.48652 0.58486,-0.48652 0.79189,-1.44404 z"
       style="font-size:10.59997368px;font-family:Arial;fill:#000000;stroke-width:1.33333004"
       id="path1611"
       inkscape:connector-curvature="0" />
    <path
       d="m 228.31878,133.28493 v -7.58768 h 1.0041 v 3.11581 h 3.94393 v -3.11581 h 1.0041 v 7.58768 h -1.0041 v -3.57646 h -3.94393 v 3.57646 z"
       style="font-size:10.59997368px;font-family:Arial;fill:#000000;stroke-width:1.33333004"
       id="path1613"
       inkscape:connector-curvature="0" />
    <path
       d="m 239.13225,135.01337 v 0.67155 h -3.76149 q -0.008,-0.25232 0.0815,-0.48523 0.14363,-0.3843 0.45806,-0.75695 0.31831,-0.37266 0.91611,-0.86177 0.92775,-0.76084 1.25383,-1.20336 0.32607,-0.44641 0.32607,-0.84236 0,-0.41536 -0.2989,-0.69873 -0.29502,-0.28725 -0.77248,-0.28725 -0.50464,0 -0.80742,0.30278 -0.30279,0.30278 -0.30667,0.83847 l -0.71814,-0.0737 q 0.0738,-0.80354 0.55511,-1.22278 0.48134,-0.42312 1.29264,-0.42312 0.81907,0 1.29653,0.45418 0.47747,0.45417 0.47747,1.12573 0,0.3416 -0.13975,0.67155 -0.13974,0.32996 -0.46582,0.69485 -0.32219,0.36489 -1.07526,1.00151 -0.62886,0.52793 -0.80742,0.71814 -0.17857,0.18633 -0.29502,0.37654 z"
       style="font-size:7.94998026px;font-family:Arial;fill:#000000;stroke-width:1.33333004"
       id="path1615"
       inkscape:connector-curvature="0" />
    <path
       d="m 245.787,130.62458 1.00409,0.25362 q -0.31572,1.237 -1.13866,1.88915 -0.81778,0.64697 -2.00303,0.64697 -1.22665,0 -1.99784,-0.49687 -0.76602,-0.50205 -1.16973,-1.44922 -0.39853,-0.94716 -0.39853,-2.03407 0,-1.18526 0.45029,-2.06514 0.45547,-0.88505 1.28877,-1.34052 0.83847,-0.46064 1.84257,-0.46064 1.13867,0 1.91503,0.57968 0.77637,0.57969 1.08174,1.63037 l -0.98857,0.23291 q -0.26397,-0.82812 -0.76602,-1.20595 -0.50204,-0.37784 -1.26288,-0.37784 -0.87471,0 -1.46475,0.41924 -0.58486,0.41924 -0.82294,1.12832 -0.23809,0.7039 -0.23809,1.45439 0,0.96787 0.27949,1.69248 0.28467,0.71943 0.87988,1.07656 0.59522,0.35712 1.28877,0.35712 0.84365,0 1.42851,-0.48652 0.58486,-0.48652 0.7919,-1.44404 z"
       style="font-size:10.59997368px;font-family:Arial;fill:#000000;stroke-width:1.33333004"
       id="path1617"
       inkscape:connector-curvature="0" />
    <path
       d="m 247.89353,133.28493 v -7.58768 h 0.93164 v 7.58768 z"
       style="font-size:10.59997368px;font-family:Arial;fill:#000000;stroke-width:1.33333004"
       id="path1619"
       inkscape:connector-curvature="0" />
    <path
       d="m 253.57782,135.01337 v 0.67155 h -3.76149 q -0.008,-0.25232 0.0815,-0.48523 0.14363,-0.3843 0.45806,-0.75695 0.31831,-0.37266 0.91611,-0.86177 0.92775,-0.76084 1.25383,-1.20336 0.32607,-0.44641 0.32607,-0.84236 0,-0.41536 -0.2989,-0.69873 -0.29502,-0.28725 -0.77248,-0.28725 -0.50464,0 -0.80742,0.30278 -0.30279,0.30278 -0.30667,0.83847 l -0.71814,-0.0737 q 0.0738,-0.80354 0.55511,-1.22278 0.48134,-0.42312 1.29264,-0.42312 0.81907,0 1.29653,0.45418 0.47747,0.45417 0.47747,1.12573 0,0.3416 -0.13975,0.67155 -0.13974,0.32996 -0.46582,0.69485 -0.32219,0.36489 -1.07526,1.00151 -0.62886,0.52793 -0.80742,0.71814 -0.17857,0.18633 -0.29502,0.37654 z"
       style="font-size:7.94998026px;font-family:Arial;fill:#000000;stroke-width:1.33333004"
       id="path1621"
       inkscape:connector-curvature="0" />
  </g>
  <g
     aria-label="H"
     style="font-size:15.99995995px;text-anchor:start;stroke-width:1.33333004;text-rendering:geometricPrecision"
     id="text297">
    <path
       d="m 89.05098,87.7117 v -7.635397 h 1.010414 v 3.135409 h 3.96874 v -3.135409 h 1.010415 V 87.7117 h -1.010415 v -3.598949 h -3.96874 V 87.7117 Z"
       style="font-size:10.66664028px;font-family:Arial;fill:#000000;stroke-width:1.33333004"
       id="path1624"
       inkscape:connector-curvature="0" />
  </g>
  <path
     style="stroke:#000000;stroke-width:0.67999828;shape-rendering:auto"
     d="M 280.59631,138.59158 V 125.28494"
     id="line301" />
  <path
     style="stroke:#000000;stroke-width:0.67999828;shape-rendering:auto"
     d="m 190.10323,138.59158 h 90.49308"
     id="line303" />
  <path
     style="stroke:#000000;stroke-width:0.67999828;shape-rendering:auto"
     d="m 190.10323,138.59158 v -8.69331"
     id="line305" />
  <path
     style="fill:#000000;fill-rule:evenodd;stroke:#000000;stroke-width:0;stroke-linejoin:miter;stroke-miterlimit:5.89496231;shape-rendering:geometricPrecision"
     inkscape:connector-curvature="0"
     id="path307"
     stroke-miterlimit="5.8949625468766"
     d="m 190.10322,125.28495 -1.69332,6.79998 c 0.94666,-1.42667 2.43999,-1.44 3.39999,0 z" />
  <path
     style="fill:none;stroke:#000000;stroke-width:0.54399866"
     d="m 104.48565,78.325066 a 3.5555468,3.5555468 0 0 1 -3.55554,3.555546 3.5555468,3.5555468 0 0 1 -3.55555,-3.555546 3.5555468,3.5555468 0 0 1 3.55555,-3.555547 3.5555468,3.5555468 0 0 1 3.55554,3.555547 z"
     id="circle311" />
  <path
     style="stroke:#000000;stroke-width:0.54399866;shape-rendering:auto"
     d="m 98.81012,78.325066 h 4.23999"
     id="line313" />
  <path
     style="fill:none;fill-rule:evenodd;stroke:#000000;stroke-width:0.67999828;stroke-linejoin:miter;shape-rendering:geometricPrecision"
     inkscape:connector-curvature="0"
     id="path316"
     d="m 105.74344,73.99174 h 1.94666 v 15.026629 h -1.94666" />
  <path
     style="fill:none;fill-rule:evenodd;stroke:#000000;stroke-width:0.67999828;stroke-linejoin:miter;shape-rendering:geometricPrecision"
     inkscape:connector-curvature="0"
     id="path319"
     d="M 87.383481,89.018369 H 85.43682 V 73.99174 h 1.946661" />
  <text
     xml:space="preserve"
     style="font-style:normal;font-variant:normal;font-weight:normal;font-stretch:normal;font-size:10.66666698px;line-height:1.25;font-family:Arial;-inkscape-font-specification:Arial;text-align:start;letter-spacing:0px;word-spacing:0px;text-anchor:start;fill:#000000;fill-opacity:1;stroke:none"
     x="19.261583"
     y="128.82317"
     id="text1634"><tspan
       sodipodi:role="line"
       id="tspan1632"
       x="19.261583"
       y="128.82317">\cmpd{w:zirconocene-dichloride}</tspan></text>
  <text
     xml:space="preserve"
     style="font-style:normal;font-variant:normal;font-weight:normal;font-stretch:normal;font-size:10.66666698px;line-height:1.25;font-family:Arial;-inkscape-font-specification:Arial;text-align:start;letter-spacing:0px;word-spacing:0px;text-anchor:start;fill:#000000;fill-opacity:1;stroke:none"
     x="157.67728"
     y="128.82317"
     id="text1634-2"><tspan
       sodipodi:role="line"
       id="tspan1632-5"
       x="157.67728"
       y="128.82317">\cmpd{w:schwartz}</tspan></text>
  <text
     xml:space="preserve"
     style="font-style:normal;font-variant:normal;font-weight:normal;font-stretch:normal;font-size:10.66666698px;line-height:1.25;font-family:Arial;-inkscape-font-specification:Arial;text-align:start;letter-spacing:0px;word-spacing:0px;text-anchor:start;fill:#000000;fill-opacity:1;stroke:none"
     x="300.40347"
     y="128.82317"
     id="text1634-4"><tspan
       sodipodi:role="line"
       id="tspan1632-6"
       x="300.40347"
       y="128.82317">\cmpd{w:zirconocene-dihydride}</tspan></text>
  <g
     transform="matrix(1.33333,0,0,1.33333,-48.629482,-34.28721)"
     id="Oval">
    <path
       style="fill:#e69e00;stroke:#e69e00;stroke-width:0.11"
       d="m 196.815,78.940002 a 1.395,1.395 0 0 1 -1.395,1.395 1.395,1.395 0 0 1 -1.395,-1.395 1.395,1.395 0 0 1 1.395,-1.395 1.395,1.395 0 0 1 1.395,1.395 z"
       id="circle333"
       inkscape:connector-curvature="0" />
  </g>
  <path
     style="stroke:#e69e00;stroke-width:0.67999828;shape-rendering:auto"
     d="M 211.92987,71.219193 V 54.712566"
     id="line336" />
  <path
     style="stroke:#e69e00;stroke-width:0.67999828;shape-rendering:auto"
     d="M 211.92987,54.712566 H 318.22293"
     id="line338" />
  <text
     xml:space="preserve"
     style="font-style:normal;font-variant:normal;font-weight:normal;font-stretch:normal;font-size:10.66666698px;line-height:1.25;font-family:Arial;-inkscape-font-specification:Arial;text-align:end;letter-spacing:0px;word-spacing:0px;text-anchor:end;fill:#e69f00;fill-opacity:1;stroke:none"
     x="318.68127"
     y="51.519997"
     id="text945"><tspan
       sodipodi:role="line"
       id="tspan943"
       x="318.68127"
       y="51.519997">odczynnik Schwartza</tspan></text>
</svg>
