<?xml version="1.0" encoding="UTF-8" standalone="no"?>
<svg
   xmlns:dc="http://purl.org/dc/elements/1.1/"
   xmlns:cc="http://creativecommons.org/ns#"
   xmlns:rdf="http://www.w3.org/1999/02/22-rdf-syntax-ns#"
   xmlns:svg="http://www.w3.org/2000/svg"
   xmlns="http://www.w3.org/2000/svg"
   xmlns:sodipodi="http://sodipodi.sourceforge.net/DTD/sodipodi-0.dtd"
   xmlns:inkscape="http://www.inkscape.org/namespaces/inkscape"
   viewBox="4.75 132.54 295.07 147.11"
   preserveAspectRatio="xMidYMid"
   width="100%"
   height="100%"
   version="1.1"
   id="svg411"
   sodipodi:docname="zirconoorganics-transformations.svg"
   inkscape:version="0.92.3 (2405546, 2018-03-11)">
  <metadata
     id="metadata417">
    <rdf:RDF>
      <cc:Work
         rdf:about="">
        <dc:format>image/svg+xml</dc:format>
        <dc:type
           rdf:resource="http://purl.org/dc/dcmitype/StillImage" />
      </cc:Work>
    </rdf:RDF>
  </metadata>
  <defs
     id="defs415" />
  <sodipodi:namedview
     pagecolor="#ffffff"
     bordercolor="#666666"
     borderopacity="1"
     objecttolerance="10"
     gridtolerance="10"
     guidetolerance="10"
     inkscape:pageopacity="0"
     inkscape:pageshadow="2"
     inkscape:window-width="1920"
     inkscape:window-height="1017"
     id="namedview413"
     showgrid="false"
     inkscape:zoom="2.1350866"
     inkscape:cx="189.64807"
     inkscape:cy="-1.1165586"
     inkscape:window-x="-8"
     inkscape:window-y="-8"
     inkscape:window-maximized="1"
     inkscape:current-layer="svg411" />
  <clipPath
     id="9675">
    <rect
       x="0.255"
       y="0.255"
       width="302.74"
       height="769.29"
       id="rect2" />
  </clipPath>
  <path
     style="stroke:#e69e00;stroke-width:0.67999828;shape-rendering:auto"
     d="M 124.08635,126.78323 H 231.58479"
     id="line81"
     inkscape:connector-curvature="0"
     sodipodi:nodetypes="cc" />
  <path
     inkscape:connector-curvature="0"
     style="stroke:#e69e00;stroke-width:0.67999828;shape-rendering:auto"
     d="M 231.50479,141.23651 V 126.98322"
     id="line83" />
  <path
     inkscape:connector-curvature="0"
     style="fill:#e69e00;stroke:#e69e00;stroke-width:0.1466663"
     d="m 233.37812,140.7032 a 1.8733286,1.8733286 0 0 1 -1.87333,1.87333 1.8733286,1.8733286 0 0 1 -1.87333,-1.87333 1.8733286,1.8733286 0 0 1 1.87333,-1.87333 1.8733286,1.8733286 0 0 1 1.87333,1.87333 z"
     id="circle85" />
  <path
     inkscape:connector-curvature="0"
     style="stroke:#e69e00;stroke-width:0.67999828;shape-rendering:auto"
     d="m 138.39836,270.42285 -0.08,29.94663"
     id="line209" />
  <path
     inkscape:connector-curvature="0"
     style="fill:#e69e00;stroke:#e69e00;stroke-width:0.1466663"
     d="m 140.25836,270.95621 a 1.8599954,1.8599954 0 0 1 -1.86,1.85999 1.8599954,1.8599954 0 0 1 -1.85999,-1.85999 1.8599954,1.8599954 0 0 1 1.85999,-1.86 1.8599954,1.8599954 0 0 1 1.86,1.86 z"
     id="circle211" />
  <path
     inkscape:connector-curvature="0"
     style="stroke:#e69e00;stroke-width:0.67999828;shape-rendering:auto"
     d="M 110.41177,230.36964 H 5.3320336"
     id="line355" />
  <path
     inkscape:connector-curvature="0"
     style="stroke:#e69e00;stroke-width:0.67999828;shape-rendering:auto"
     d="m 5.4253664,199.91638 -0.093333,30.45326"
     id="line357" />
  <path
     inkscape:connector-curvature="0"
     style="fill:#e69e00;stroke:#e69e00;stroke-width:0.1466663"
     d="m 7.298695,200.44971 a 1.8733286,1.8733286 0 0 1 -1.8733286,1.87333 1.8733286,1.8733286 0 0 1 -1.8733286,-1.87333 1.8733286,1.8733286 0 0 1 1.8733286,-1.87333 1.8733286,1.8733286 0 0 1 1.8733286,1.87333 z"
     id="circle359" />
  <path
     inkscape:connector-curvature="0"
     style="stroke:#e69e00;stroke-width:0.67999828;shape-rendering:auto"
     d="m 292.31799,218.78299 v 39.09323"
     id="line389" />
  <path
     inkscape:connector-curvature="0"
     style="stroke:#e69e00;stroke-width:0.67999828;shape-rendering:auto"
     d="M 191.65157,257.87622 H 292.31799"
     id="line391" />
  <path
     inkscape:connector-curvature="0"
     style="fill:#e69e00;stroke:#e69e00;stroke-width:0.1466663"
     d="m 294.04465,219.58301 a 1.8733286,1.8733286 0 0 1 -1.87332,1.87333 1.8733286,1.8733286 0 0 1 -1.87333,-1.87333 1.8733286,1.8733286 0 0 1 1.87333,-1.87333 1.8733286,1.8733286 0 0 1 1.87332,1.87333 z"
     id="circle393" />
  <text
     xml:space="preserve"
     style="font-style:normal;font-variant:normal;font-weight:normal;font-stretch:normal;font-size:10.66666698px;line-height:1.25;font-family:Arial;-inkscape-font-specification:Arial;text-align:start;letter-spacing:0px;word-spacing:0px;text-anchor:start;fill:#e69f00;fill-opacity:1;stroke:none"
     x="124.46104"
     y="122.60762"
     id="text2017"><tspan
       sodipodi:role="line"
       id="tspan2015"
       x="124.46104"
       y="122.60762">sprzęganie krzyżowe</tspan></text>
  <text
     xml:space="preserve"
     style="font-style:normal;font-variant:normal;font-weight:normal;font-stretch:normal;font-size:10.66666698px;line-height:1.25;font-family:Arial;-inkscape-font-specification:Arial;text-align:end;letter-spacing:0px;word-spacing:0px;text-anchor:end;fill:#e69f00;fill-opacity:1;stroke:none"
     x="110.04218"
     y="226.60214"
     id="text2021"><tspan
       sodipodi:role="line"
       id="tspan2019"
       x="110.04218"
       y="226.60214">wiązanie sprzężone</tspan></text>
  <text
     xml:space="preserve"
     style="font-style:normal;font-variant:normal;font-weight:normal;font-stretch:normal;font-size:10.66666698px;line-height:1.25;font-family:Arial;-inkscape-font-specification:Arial;text-align:end;letter-spacing:0px;word-spacing:0px;text-anchor:end;fill:#e69f00;fill-opacity:1;stroke:none"
     x="257.13718"
     y="239.09544"
     id="text2033"><tspan
       sodipodi:role="line"
       id="tspan2031"
       x="257.13718"
       y="239.09544">podstawienie</tspan></text>
  <text
     xml:space="preserve"
     style="font-style:normal;font-variant:normal;font-weight:normal;font-stretch:normal;font-size:10.66666698px;line-height:1.25;font-family:Arial;-inkscape-font-specification:Arial;text-align:end;letter-spacing:0px;word-spacing:0px;text-anchor:end;fill:#e69f00;fill-opacity:1;stroke:none"
     x="276.2049"
     y="252.09688"
     id="text2037"><tspan
       sodipodi:role="line"
       id="tspan2035"
       x="276.2049"
       y="252.09688">w grupie allilowej</tspan></text>
  <g
     id="g1351">
    <path
       d="m 153.45251,289.20096 -2.72916,4.35415 v 3.40104 h -1.03125 v -3.29166 l -2.73957,-4.46353 h 1.14062 l 2.11978,3.46874 2.14062,-3.46874 z"
       style="font-size:10.66664028px;font-family:'Arial CE';text-anchor:end;fill:#e69e00;stroke-width:1.33333004;text-rendering:geometricPrecision"
       id="path1888"
       inkscape:connector-curvature="0" />
    <path
       d="m 176.53579,290.09158 q 0.47395,0.52083 0.72395,1.27604 0.25521,0.7552 0.25521,1.71354 0,0.95833 -0.26042,1.71874 -0.2552,0.75521 -0.71874,1.26042 -0.47917,0.52604 -1.13542,0.79166 -0.65104,0.26562 -1.48958,0.26562 -0.8177,0 -1.48958,-0.27083 -0.66666,-0.27083 -1.13541,-0.78645 -0.46875,-0.51563 -0.72396,-1.26563 -0.25,-0.74999 -0.25,-1.71353 0,-0.94792 0.25,-1.69792 0.25,-0.7552 0.72917,-1.29166 0.45833,-0.51042 1.13541,-0.78125 0.68229,-0.27083 1.48437,-0.27083 0.83333,0 1.49479,0.27604 0.66667,0.27083 1.13021,0.77604 z m -0.0937,2.98958 q 0,-1.51042 -0.67709,-2.32812 -0.67708,-0.82292 -1.84895,-0.82292 -1.18229,0 -1.85937,0.82292 -0.67187,0.8177 -0.67187,2.32812 0,1.52603 0.6875,2.33853 0.68749,0.80729 1.84374,0.80729 1.15625,0 1.83854,-0.80729 0.6875,-0.8125 0.6875,-2.33853 z"
       style="font-size:10.66664028px;font-family:'Arial CE';text-anchor:end;fill:#e69e00;stroke-width:1.33333004;text-rendering:geometricPrecision"
       id="path1892"
       inkscape:connector-curvature="0" />
    <path
       d="m 180.95765,295.47177 -1.46875,3.41145 h -0.76041 l 0.90625,-3.41145 z"
       style="font-size:10.66664028px;font-family:'Arial CE';text-anchor:end;fill:#e69e00;stroke-width:1.33333004;text-rendering:geometricPrecision"
       id="path1894"
       inkscape:connector-curvature="0" />
    <path
       d="m 192.54616,296.95615 h -1.27603 l -3.67708,-6.93749 v 6.93749 h -0.96354 v -7.75519 h 1.59896 l 3.35416,6.33331 v -6.33331 h 0.96353 z"
       style="font-size:10.66664028px;font-family:'Arial CE';text-anchor:end;fill:#e69e00;stroke-width:1.33333004;text-rendering:geometricPrecision"
       id="path1896"
       inkscape:connector-curvature="0" />
    <path
       d="m 197.61386,294.03428 h -3.24999 v -0.94271 h 3.24999 z"
       style="font-size:10.66664028px;font-family:'Arial CE';text-anchor:end;fill:#e69e00;stroke-width:1.33333004;text-rendering:geometricPrecision"
       id="path1898"
       inkscape:connector-curvature="0" />
    <path
       d="m 205.87946,296.95615 h -1.33853 l -2.59375,-3.08333 h -1.45312 v 3.08333 h -1.03125 v -7.75519 h 2.17187 q 0.70313,0 1.17188,0.0937 0.46874,0.0885 0.84374,0.32291 0.42188,0.26563 0.65625,0.67188 0.23958,0.40104 0.23958,1.02083 0,0.83854 -0.42187,1.40624 -0.42187,0.5625 -1.16145,0.84896 z m -2.41145,-5.57291 q 0,-0.33333 -0.11979,-0.58854 -0.11458,-0.26041 -0.38541,-0.4375 -0.22396,-0.15104 -0.53125,-0.20833 -0.30729,-0.0625 -0.72396,-0.0625 h -1.21354 v 2.92708 h 1.04167 q 0.48958,0 0.85416,-0.0833 0.36458,-0.0885 0.61979,-0.32291 0.23437,-0.21875 0.34375,-0.5 0.11458,-0.28646 0.11458,-0.72396 z"
       style="font-size:10.66664028px;font-family:'Arial CE';text-anchor:end;fill:#e69e00;stroke-width:1.33333004;text-rendering:geometricPrecision"
       id="path1900"
       inkscape:connector-curvature="0" />
    <path
       d="m 210.07216,292.60949 h -3.14843 v -0.59375 h 1.21094 v -3.89843 h -1.21094 v -0.53124 q 0.2461,0 0.52735,-0.0391 0.28125,-0.043 0.42578,-0.12109 0.17968,-0.0977 0.28125,-0.24609 0.10546,-0.15235 0.12109,-0.40625 h 0.60547 v 5.24217 h 1.18749 z"
       style="font-size:7.99997997px;font-family:'Arial CE';text-anchor:end;fill:#e69e00;stroke-width:1.33333004;text-rendering:geometricPrecision"
       id="path1902"
       inkscape:connector-curvature="0" />
    <path
       sodipodi:nodetypes="cc"
       inkscape:connector-curvature="0"
       id="line207"
       d="M 210.89154,300.36948 H 138.31836"
       style="stroke:#e69e00;stroke-width:0.67999828;shape-rendering:auto" />
    <text
       id="text2045"
       y="296.33258"
       x="155.87154"
       style="font-style:normal;font-variant:normal;font-weight:normal;font-stretch:normal;font-size:10.66666698px;line-height:1.25;font-family:Arial;-inkscape-font-specification:Arial;text-align:start;letter-spacing:0px;word-spacing:0px;text-anchor:start;fill:#e69f00;fill-opacity:1;stroke:none"
       xml:space="preserve"><tspan
         y="296.33258"
         x="155.87154"
         id="tspan2043"
         sodipodi:role="line">$\equiv$</tspan></text>
  </g>
  <text
     xml:space="preserve"
     style="font-style:normal;font-variant:normal;font-weight:normal;font-stretch:normal;font-size:10.66666698px;line-height:1.25;font-family:Arial;-inkscape-font-specification:Arial;text-align:start;letter-spacing:0px;word-spacing:0px;text-anchor:start;fill:#000000;fill-opacity:1;stroke:none"
     x="-37.696537"
     y="179.3701"
     id="text2185-5"><tspan
       sodipodi:role="line"
       id="tspan2183-1"
       x="-37.696537"
       y="179.3701">\cmpd{w:alkane-terminal}</tspan></text>
  <text
     xml:space="preserve"
     style="font-style:normal;font-variant:normal;font-weight:normal;font-stretch:normal;font-size:10.66666698px;line-height:1.25;font-family:Arial;-inkscape-font-specification:Arial;text-align:start;letter-spacing:0px;word-spacing:0px;text-anchor:start;fill:#000000;fill-opacity:1;stroke:none"
     x="160.80888"
     y="179.3701"
     id="text2185-57"><tspan
       sodipodi:role="line"
       id="tspan2183-9"
       x="160.80888"
       y="179.3701">\cmpd{w:zircono-alkane-terminal}</tspan></text>
  <g
     aria-label="R1"
     style="text-anchor:end;text-rendering:geometricPrecision"
     id="text11"
     transform="matrix(1.33333,0,0,1.33333,-50.761161,-70.958725)">
    <path
       d="m 10.987812,172.89999 v -5.72656 h 2.539063 q 0.765625,0 1.164062,0.15625 0.398438,0.15235 0.636719,0.54297 0.238281,0.39063 0.238281,0.86328 0,0.60938 -0.394531,1.02735 -0.394531,0.41796 -1.21875,0.53125 0.300781,0.14453 0.457031,0.28515 0.332031,0.30469 0.628906,0.76172 l 0.996094,1.55859 h -0.953125 l -0.757812,-1.1914 q -0.332032,-0.51563 -0.546875,-0.78906 -0.214844,-0.27344 -0.386719,-0.38282 -0.167969,-0.10937 -0.34375,-0.15234 -0.128906,-0.0273 -0.421875,-0.0273 h -0.878906 v 2.54296 z m 0.757813,-3.19921 h 1.628906 q 0.519531,0 0.8125,-0.10547 0.292969,-0.10938 0.445312,-0.34375 0.152344,-0.23828 0.152344,-0.51563 0,-0.40625 -0.296875,-0.66797 -0.292969,-0.26172 -0.929687,-0.26172 h -1.8125 z"
       style="font-size:8px;font-family:Arial;fill:#cc78a6"
       id="path1931"
       inkscape:connector-curvature="0" />
    <path
       d="m 18.375507,169.63999 h -0.527343 v -3.36035 q -0.19043,0.18164 -0.500977,0.36328 -0.307617,0.18164 -0.553711,0.27246 v -0.50976 q 0.442383,-0.20801 0.773438,-0.50391 0.331054,-0.2959 0.46875,-0.57422 h 0.339843 z"
       style="font-size:6px;font-family:Arial;fill:#cc78a6"
       id="path1933"
       inkscape:connector-curvature="0" />
  </g>
  <path
     style="fill:#cc78a6;fill-rule:evenodd;stroke:#cc78a6;stroke-width:0;stroke-linejoin:miter;shape-rendering:geometricPrecision"
     inkscape:connector-curvature="0"
     id="path15"
     d="m -29.82788,157.66736 v 0 l 0.173333,-0.29333 0.159999,-0.29333 9.65331,5.57332 v 0.38666 0.38667 z" />
  <path
     style="fill:#cc78a6;fill-rule:evenodd;stroke:#cc78a6;stroke-width:0;stroke-linejoin:miter;shape-rendering:geometricPrecision"
     inkscape:connector-curvature="0"
     id="path18"
     d="m -19.841238,163.42735 v 0 -0.38667 -0.38666 l 13.106633,-7.57332 0.173333,0.29334 0.173333,0.29333 z" />
  <path
     style="stroke:#cc78a6;stroke-width:0.67999828;shape-rendering:auto"
     d="m -19.841237,159.85402 11.906634,-6.86663"
     id="line20"
     inkscape:connector-curvature="0" />
  <path
     style="stroke:#000000;stroke-width:0.67999828;shape-rendering:auto"
     d="M 97.22514,158.2007 H 12.81201"
     id="line24"
     inkscape:connector-curvature="0" />
  <path
     style="fill:#000000;fill-rule:evenodd;stroke:#000000;stroke-width:0;stroke-linejoin:miter;stroke-miterlimit:5.89496231;shape-rendering:geometricPrecision"
     inkscape:connector-curvature="0"
     id="path26"
     stroke-miterlimit="5.89496254687647"
     d="m 101.83846,158.2007 -6.79998,-1.69333 c 1.42666,0.94666 1.42666,2.43999 0,3.38665 z" />
  <g
     aria-label="[Cp2Zr(H)Cl]"
     style="text-anchor:start;text-rendering:geometricPrecision"
     id="text35"
     transform="matrix(1.33333,0,0,1.33333,-50.761161,-70.958725)">
    <path
       d="m 58.722969,167.45984 v -7.31641 h 1.550781 v 0.58203 h -0.847656 v 6.15235 h 0.847656 v 0.58203 z"
       style="font-size:8px;font-family:Arial;fill:#009d73"
       id="path1904"
       inkscape:connector-curvature="0" />
    <path
       d="m 65.101875,163.86218 0.757813,0.19141 q -0.238281,0.93359 -0.859375,1.42578 -0.617188,0.48828 -1.511719,0.48828 -0.925781,0 -1.507812,-0.375 -0.578125,-0.3789 -0.882813,-1.09375 -0.300781,-0.71484 -0.300781,-1.53515 0,-0.89454 0.339844,-1.5586 0.34375,-0.66797 0.972656,-1.01172 0.632812,-0.34765 1.390625,-0.34765 0.859375,0 1.445312,0.4375 0.585938,0.4375 0.816407,1.23047 l -0.746094,0.17578 q -0.199219,-0.625 -0.578125,-0.91016 -0.378906,-0.28516 -0.953125,-0.28516 -0.660156,0 -1.105469,0.31641 -0.441406,0.31641 -0.621094,0.85156 -0.179687,0.53125 -0.179687,1.09766 0,0.73047 0.210937,1.27734 0.214844,0.54297 0.664063,0.8125 0.449219,0.26953 0.972656,0.26953 0.636719,0 1.078125,-0.36718 0.441406,-0.36719 0.597656,-1.08985 z"
       style="font-size:8px;font-family:Arial;fill:#009d73"
       id="path1906"
       inkscape:connector-curvature="0" />
    <path
       d="m 66.707344,167.45984 v -5.73828 h 0.640625 v 0.53906 q 0.226563,-0.31641 0.511719,-0.47266 0.285156,-0.16015 0.691406,-0.16015 0.53125,0 0.9375,0.27344 0.40625,0.27343 0.613281,0.77343 0.207032,0.4961 0.207032,1.08985 0,0.63672 -0.230469,1.14843 -0.226563,0.50782 -0.664063,0.78125 -0.433593,0.26954 -0.914062,0.26954 -0.351563,0 -0.632813,-0.14844 -0.277343,-0.14844 -0.457031,-0.375 v 2.01953 z m 0.636719,-3.64063 q 0,0.80079 0.324219,1.1836 0.324218,0.38281 0.785156,0.38281 0.46875,0 0.800781,-0.39453 0.335938,-0.39844 0.335938,-1.23047 0,-0.79297 -0.328125,-1.1875 -0.324219,-0.39453 -0.777344,-0.39453 -0.449219,0 -0.796875,0.42187 -0.34375,0.41797 -0.34375,1.21875 z"
       style="font-size:8px;font-family:Arial;fill:#009d73"
       id="path1908"
       inkscape:connector-curvature="0" />
    <path
       d="M 73.653633,167.17316 V 167.68 h -2.838867 q -0.0059,-0.19043 0.06152,-0.36622 0.108399,-0.29003 0.345703,-0.57128 0.240235,-0.28125 0.691407,-0.6504 0.700195,-0.57421 0.946289,-0.9082 0.246094,-0.33691 0.246094,-0.63574 0,-0.31348 -0.225586,-0.52734 -0.222657,-0.2168 -0.583008,-0.2168 -0.38086,0 -0.609375,0.22851 -0.228516,0.22852 -0.231446,0.63282 l -0.541992,-0.0557 q 0.05566,-0.60644 0.418946,-0.92285 0.363281,-0.31933 0.975586,-0.31933 0.618164,0 0.978515,0.34277 0.360352,0.34277 0.360352,0.84961 0,0.25781 -0.105469,0.50683 -0.105469,0.24903 -0.351563,0.52442 -0.243164,0.27539 -0.811523,0.75586 -0.474609,0.39843 -0.609375,0.54199 -0.134766,0.14062 -0.222656,0.28418 z"
       style="font-size:6px;font-family:Arial;fill:#009d73"
       id="path1910"
       inkscape:connector-curvature="0" />
    <path
       d="m 74.133125,165.87 v -0.70313 l 2.933594,-3.66797 q 0.3125,-0.39062 0.59375,-0.67969 h -3.195312 v -0.67578 h 4.101562 v 0.67578 l -3.214844,3.97266 -0.347656,0.40234 h 3.65625 V 165.87 Z"
       style="font-size:8px;font-family:Arial;fill:#009d73"
       id="path1912"
       inkscape:connector-curvature="0" />
    <path
       d="m 79.383125,165.87 v -4.14844 h 0.632813 v 0.6289 q 0.242187,-0.4414 0.445312,-0.58203 0.207032,-0.14062 0.453125,-0.14062 0.355469,0 0.722657,0.22656 l -0.242188,0.65234 q -0.257812,-0.15234 -0.515625,-0.15234 -0.230469,0 -0.414062,0.14063 -0.183594,0.13671 -0.261719,0.38281 -0.117188,0.375 -0.117188,0.82031 V 165.87 Z"
       style="font-size:8px;font-family:Arial;fill:#009d73"
       id="path1914"
       inkscape:connector-curvature="0" />
    <path
       d="m 83.406563,167.55359 q -0.582031,-0.73438 -0.984375,-1.71875 -0.402344,-0.98438 -0.402344,-2.03906 0,-0.92969 0.300781,-1.78125 0.351563,-0.98828 1.085938,-1.96875 h 0.503906 q -0.472656,0.8125 -0.625,1.16015 -0.238281,0.53907 -0.375,1.125 -0.167969,0.73047 -0.167969,1.46875 0,1.87891 1.167969,3.75391 z"
       style="font-size:8px;font-family:Arial;fill:#009d73"
       id="path1916"
       inkscape:connector-curvature="0" />
    <path
       d="m 84.847969,165.87 v -5.72657 h 0.757813 v 2.35157 h 2.976562 v -2.35157 h 0.757813 V 165.87 h -0.757813 v -2.69922 H 85.605782 V 165.87 Z"
       style="font-size:8px;font-family:Arial;fill:#009d73"
       id="path1918"
       inkscape:connector-curvature="0" />
    <path
       d="m 90.976875,167.55359 h -0.503906 q 1.167969,-1.875 1.167969,-3.75391 0,-0.73437 -0.167969,-1.45703 -0.132812,-0.58594 -0.371094,-1.125 -0.152343,-0.35156 -0.628906,-1.17187 h 0.503906 q 0.734375,0.98047 1.085938,1.96875 0.300781,0.85156 0.300781,1.78125 0,1.05468 -0.40625,2.03906 -0.402344,0.98437 -0.980469,1.71875 z"
       style="font-size:8px;font-family:Arial;fill:#009d73"
       id="path1920"
       inkscape:connector-curvature="0" />
    <path
       d="m 97.363594,163.86218 0.757813,0.19141 q -0.238282,0.93359 -0.859375,1.42578 -0.617188,0.48828 -1.511719,0.48828 -0.925781,0 -1.507813,-0.375 -0.578125,-0.3789 -0.882812,-1.09375 -0.300781,-0.71484 -0.300781,-1.53515 0,-0.89454 0.339843,-1.5586 0.34375,-0.66797 0.972657,-1.01172 0.632812,-0.34765 1.390625,-0.34765 0.859375,0 1.445312,0.4375 0.585938,0.4375 0.816406,1.23047 l -0.746093,0.17578 q -0.199219,-0.625 -0.578125,-0.91016 -0.378907,-0.28516 -0.953125,-0.28516 -0.660157,0 -1.105469,0.31641 -0.441406,0.31641 -0.621094,0.85156 -0.179687,0.53125 -0.179687,1.09766 0,0.73047 0.210937,1.27734 0.214844,0.54297 0.664063,0.8125 0.449218,0.26953 0.972656,0.26953 0.636719,0 1.078125,-0.36718 0.441406,-0.36719 0.597656,-1.08985 z"
       style="font-size:8px;font-family:Arial;fill:#009d73"
       id="path1922"
       inkscape:connector-curvature="0" />
    <path
       d="m 98.953438,165.87 v -5.72657 h 0.703125 V 165.87 Z"
       style="font-size:8px;font-family:Arial;fill:#009d73"
       id="path1924"
       inkscape:connector-curvature="0" />
    <path
       d="m 101.92609,167.45984 h -1.55078 v -0.58203 h 0.84766 v -6.15235 h -0.84766 v -0.58203 h 1.55078 z"
       style="font-size:8px;font-family:Arial;fill:#009d73"
       id="path1926"
       inkscape:connector-curvature="0" />
  </g>
  <g
     aria-label="R1"
     style="text-anchor:end;text-rendering:geometricPrecision"
     id="text43"
     transform="matrix(1.33333,0,0,1.33333,-50.761161,-70.958725)">
    <path
       d="m 131.53781,168.25999 v -5.72656 h 2.53906 q 0.76563,0 1.16407,0.15625 0.39843,0.15235 0.63672,0.54297 0.23828,0.39063 0.23828,0.86328 0,0.60938 -0.39453,1.02735 -0.39454,0.41796 -1.21875,0.53125 0.30078,0.14453 0.45703,0.28515 0.33203,0.30469 0.6289,0.76172 l 0.9961,1.55859 h -0.95313 l -0.75781,-1.1914 q -0.33203,-0.51563 -0.54688,-0.78906 -0.21484,-0.27344 -0.38671,-0.38282 -0.16797,-0.10937 -0.34375,-0.15234 -0.12891,-0.0273 -0.42188,-0.0273 h -0.87891 v 2.54296 z m 0.75781,-3.19921 h 1.62891 q 0.51953,0 0.8125,-0.10547 0.29297,-0.10938 0.44531,-0.34375 0.15235,-0.23828 0.15235,-0.51563 0,-0.40625 -0.29688,-0.66797 -0.29297,-0.26172 -0.92969,-0.26172 h -1.8125 z"
       style="font-size:8px;font-family:Arial;fill:#cc78a6"
       id="path1899"
       inkscape:connector-curvature="0" />
    <path
       d="m 138.92551,164.99999 h -0.52735 v -3.36035 q -0.19043,0.18164 -0.50097,0.36328 -0.30762,0.18164 -0.55371,0.27247 v -0.50977 q 0.44238,-0.20801 0.77343,-0.50391 0.33106,-0.2959 0.46875,-0.57422 h 0.33985 z"
       style="font-size:6px;font-family:Arial;fill:#cc78a6"
       id="path1901"
       inkscape:connector-curvature="0" />
  </g>
  <path
     style="fill:#cc78a6;fill-rule:evenodd;stroke:#cc78a6;stroke-width:0;stroke-linejoin:miter;shape-rendering:geometricPrecision"
     inkscape:connector-curvature="0"
     id="path47"
     d="m 130.97172,151.52071 v 0 l 0.17333,-0.29333 0.16,-0.29333 9.58665,5.53332 v 0.38666 l -0.33334,0.2 z" />
  <path
     style="fill:#cc78a6;fill-rule:evenodd;stroke:#cc78a6;stroke-width:0;stroke-linejoin:miter;shape-rendering:geometricPrecision"
     inkscape:connector-curvature="0"
     id="path51"
     d="m 141.23836,157.05403 v 0 l -0.34666,-0.2 v -0.38666 l 13.27996,-7.66665 v 0.38666 0.38667 z" />
  <g
     aria-label="H"
     style="text-anchor:start;text-rendering:geometricPrecision"
     id="text57-2"
     transform="matrix(1.33333,0,0,1.33333,-50.761161,-70.958725)">
    <path
       d="m 141.48062,185.50999 v -5.72656 h 0.75781 v 2.35156 h 2.97657 v -2.35156 h 0.75781 v 5.72656 H 145.215 v -2.69921 h -2.97657 v 2.69921 z"
       style="font-size:8px;font-family:Arial;fill:#009d73"
       id="path1896-5"
       inkscape:connector-curvature="0" />
  </g>
  <path
     style="fill:#009d73;fill-rule:evenodd;stroke:#009d73;stroke-width:0;stroke-linejoin:miter;shape-rendering:geometricPrecision"
     inkscape:connector-curvature="0"
     id="path61"
     d="m 140.55836,157.05403 v 0 l 0.33334,-0.2 0.34666,0.2 v 9.98664 h -0.34666 -0.33334 z" />
  <g
     aria-label="ZrCp2Cl"
     style="text-anchor:start;text-rendering:geometricPrecision"
     id="text71"
     transform="matrix(1.33333,0,0,1.33333,-50.761161,-70.958725)">
    <path
       d="m 161.37016,174.00999 v -0.70312 l 2.9336,-3.66797 q 0.3125,-0.39062 0.59375,-0.67969 h -3.19532 v -0.67578 h 4.10157 v 0.67578 l -3.21485,3.97266 -0.34765,0.40234 h 3.65625 v 0.67578 z"
       style="font-size:8px;font-family:Arial;fill:#009d73"
       id="path1881"
       inkscape:connector-curvature="0" />
    <path
       d="m 166.62016,174.00999 v -4.14843 h 0.63282 v 0.6289 q 0.24218,-0.4414 0.44531,-0.58203 0.20703,-0.14062 0.45312,-0.14062 0.35547,0 0.72266,0.22656 l -0.24219,0.65234 q -0.25781,-0.15234 -0.51562,-0.15234 -0.23047,0 -0.41407,0.14062 -0.18359,0.13672 -0.26171,0.38282 -0.11719,0.375 -0.11719,0.82031 v 2.17187 z"
       style="font-size:8px;font-family:Arial;fill:#009d73"
       id="path1883"
       inkscape:connector-curvature="0" />
    <path
       d="m 173.47563,172.00218 0.75781,0.19141 q -0.23828,0.93359 -0.85937,1.42578 -0.61719,0.48828 -1.51172,0.48828 -0.92578,0 -1.50781,-0.375 -0.57813,-0.37891 -0.88281,-1.09375 -0.30079,-0.71484 -0.30079,-1.53516 0,-0.89453 0.33985,-1.55859 0.34375,-0.66797 0.97265,-1.01172 0.63282,-0.34765 1.39063,-0.34765 0.85937,0 1.44531,0.4375 0.58594,0.4375 0.81641,1.23046 l -0.7461,0.17579 q -0.19921,-0.625 -0.57812,-0.91016 -0.37891,-0.28516 -0.95313,-0.28516 -0.66015,0 -1.10546,0.31641 -0.44141,0.31641 -0.6211,0.85156 -0.17969,0.53125 -0.17969,1.09766 0,0.73047 0.21094,1.27734 0.21485,0.54297 0.66406,0.8125 0.44922,0.26953 0.97266,0.26953 0.63672,0 1.07813,-0.36718 0.4414,-0.36719 0.59765,-1.08985 z"
       style="font-size:8px;font-family:Arial;fill:#009d73"
       id="path1885"
       inkscape:connector-curvature="0" />
    <path
       d="m 175.0811,175.59984 v -5.73828 h 0.64063 v 0.53906 q 0.22656,-0.31641 0.51171,-0.47266 0.28516,-0.16015 0.69141,-0.16015 0.53125,0 0.9375,0.27343 0.40625,0.27344 0.61328,0.77344 0.20703,0.4961 0.20703,1.08985 0,0.63671 -0.23047,1.14843 -0.22656,0.50782 -0.66406,0.78125 -0.43359,0.26953 -0.91406,0.26953 -0.35156,0 -0.63281,-0.14843 -0.27735,-0.14844 -0.45703,-0.375 v 2.01953 z m 0.63672,-3.64063 q 0,0.80078 0.32422,1.1836 0.32422,0.38281 0.78515,0.38281 0.46875,0 0.80079,-0.39453 0.33593,-0.39844 0.33593,-1.23047 0,-0.79297 -0.32812,-1.1875 -0.32422,-0.39453 -0.77735,-0.39453 -0.44921,0 -0.79687,0.42187 -0.34375,0.41797 -0.34375,1.21875 z"
       style="font-size:8px;font-family:Arial;fill:#009d73"
       id="path1887"
       inkscape:connector-curvature="0" />
    <path
       d="m 182.02739,175.31316 v 0.50683 h -2.83887 q -0.006,-0.19043 0.0615,-0.36621 0.10839,-0.29004 0.3457,-0.57129 0.24023,-0.28125 0.69141,-0.65039 0.70019,-0.57421 0.94628,-0.9082 0.2461,-0.33691 0.2461,-0.63574 0,-0.31348 -0.22559,-0.52735 -0.22265,-0.21679 -0.58301,-0.21679 -0.38086,0 -0.60937,0.22851 -0.22852,0.22852 -0.23145,0.63282 l -0.54199,-0.0557 q 0.0557,-0.60644 0.41895,-0.92285 0.36328,-0.31934 0.97558,-0.31934 0.61817,0 0.97852,0.34278 0.36035,0.34277 0.36035,0.84961 0,0.25781 -0.10547,0.50683 -0.10547,0.24903 -0.35156,0.52442 -0.24317,0.27539 -0.81152,0.75586 -0.47461,0.39843 -0.60938,0.54199 -0.13477,0.14062 -0.22266,0.28418 z"
       style="font-size:6px;font-family:Arial;fill:#009d73"
       id="path1889"
       inkscape:connector-curvature="0" />
    <path
       d="m 187.04985,172.00218 0.75781,0.19141 q -0.23828,0.93359 -0.85937,1.42578 -0.61719,0.48828 -1.51172,0.48828 -0.92578,0 -1.50781,-0.375 -0.57813,-0.37891 -0.88282,-1.09375 -0.30078,-0.71484 -0.30078,-1.53516 0,-0.89453 0.33985,-1.55859 0.34375,-0.66797 0.97265,-1.01172 0.63282,-0.34765 1.39063,-0.34765 0.85937,0 1.44531,0.4375 0.58594,0.4375 0.81641,1.23046 l -0.7461,0.17579 q -0.19922,-0.625 -0.57812,-0.91016 -0.37891,-0.28516 -0.95313,-0.28516 -0.66015,0 -1.10547,0.31641 -0.4414,0.31641 -0.62109,0.85156 -0.17969,0.53125 -0.17969,1.09766 0,0.73047 0.21094,1.27734 0.21484,0.54297 0.66406,0.8125 0.44922,0.26953 0.97266,0.26953 0.63672,0 1.07812,-0.36718 0.44141,-0.36719 0.59766,-1.08985 z"
       style="font-size:8px;font-family:Arial;fill:#009d73"
       id="path1891"
       inkscape:connector-curvature="0" />
    <path
       d="m 188.63969,174.00999 v -5.72656 h 0.70313 v 5.72656 z"
       style="font-size:8px;font-family:Arial;fill:#009d73"
       id="path1893"
       inkscape:connector-curvature="0" />
  </g>
  <path
     style="fill:#009d73;fill-rule:evenodd;stroke:#009d73;stroke-width:0;stroke-linejoin:miter;shape-rendering:geometricPrecision"
     inkscape:connector-curvature="0"
     id="path75"
     d="m 154.17166,149.57405 v 0 -0.38667 -0.38666 l 8.93331,5.14665 -0.17333,0.30667 -0.16,0.29333 z" />
  <path
     style="fill:#56b4e8;fill-rule:evenodd;stroke:#56b4e8;stroke-width:0;stroke-linejoin:miter;shape-rendering:geometricPrecision"
     inkscape:connector-curvature="0"
     id="path92-2"
     d="m -44.081178,300.66701 v 0 l -0.173333,-0.29334 -0.173333,-0.29333 13.119968,-7.57331 0.333332,0.2 v 0.38666 z" />
  <path
     style="fill:#56b4e8;fill-rule:evenodd;stroke:#56b4e8;stroke-width:0;stroke-linejoin:miter;shape-rendering:geometricPrecision"
     inkscape:connector-curvature="0"
     id="path96-4"
     d="m -30.974544,293.09369 v 0 -0.38666 l 0.346666,-0.2 12.946634,7.47998 v 0.38666 0.38667 z" />
  <path
     style="fill:#56b4e8;fill-rule:evenodd;stroke:#56b4e8;stroke-width:0;stroke-linejoin:miter;shape-rendering:geometricPrecision"
     inkscape:connector-curvature="0"
     id="path100"
     d="m -17.681244,300.76034 v 0 -0.38667 -0.38666 l 13.2933,-7.66665 v 0.38667 0.38666 z" />
  <path
     style="fill:#000000;fill-rule:evenodd;stroke:#000000;stroke-width:0;stroke-linejoin:miter;shape-rendering:geometricPrecision"
     inkscape:connector-curvature="0"
     id="path104"
     d="m -30.627878,292.50703 v 0 l -0.346666,0.2 -0.333332,-0.2 -0.01333,-15.34663 0.346666,0.2 0.346666,0.2 z" />
  <path
     style="fill:#cc78a6;fill-rule:evenodd;stroke:#cc78a6;stroke-width:0;stroke-linejoin:miter;shape-rendering:geometricPrecision"
     inkscape:connector-curvature="0"
     id="path108"
     d="m -30.627878,277.5604 v 0 l -0.346666,-0.2 -0.346666,-0.2 13.306634,-7.67998 0.333332,0.2 0.333333,0.2 z" />
  <g
     aria-label="R1"
     style="text-anchor:start;text-rendering:geometricPrecision"
     id="text116-8"
     transform="matrix(1.33333,0,0,1.33333,-50.761161,-70.958725)">
    <path
       d="m 22.538906,247.12 v -5.72657 h 2.539063 q 0.765625,0 1.164062,0.15625 0.398438,0.15235 0.636719,0.54297 0.238281,0.39063 0.238281,0.86328 0,0.60938 -0.394531,1.02735 -0.394531,0.41797 -1.21875,0.53125 0.300781,0.14453 0.457031,0.28515 0.332031,0.30469 0.628906,0.76172 l 0.996094,1.5586 h -0.953125 l -0.757812,-1.19141 q -0.332032,-0.51563 -0.546875,-0.78906 -0.214844,-0.27344 -0.386719,-0.38282 -0.167969,-0.10937 -0.34375,-0.15234 -0.128906,-0.0273 -0.421875,-0.0273 H 23.296719 V 247.12 Z m 0.757813,-3.19922 h 1.628906 q 0.519531,0 0.8125,-0.10547 0.292969,-0.10938 0.445312,-0.34375 0.152344,-0.23828 0.152344,-0.51563 0,-0.40625 -0.296875,-0.66797 -0.292969,-0.26171 -0.929687,-0.26171 h -1.8125 z"
       style="font-size:8px;font-family:Arial;fill:#cc78a6"
       id="path1876"
       inkscape:connector-curvature="0" />
    <path
       d="m 29.926601,243.86 h -0.527343 v -3.36036 q -0.19043,0.18164 -0.500977,0.36328 -0.307617,0.18165 -0.553711,0.27247 v -0.50977 q 0.442383,-0.20801 0.773438,-0.50391 0.331054,-0.29589 0.46875,-0.57421 h 0.339843 z"
       style="font-size:6px;font-family:Arial;fill:#cc78a6"
       id="path1878"
       inkscape:connector-curvature="0" />
  </g>
  <path
     style="fill:#cc78a6;fill-rule:evenodd;stroke:#cc78a6;stroke-width:0;stroke-linejoin:miter;shape-rendering:geometricPrecision"
     inkscape:connector-curvature="0"
     id="path120-8"
     d="m -17.347911,269.88042 v 0 l -0.333333,-0.2 -0.333332,-0.2 v -9.10665 h 0.333332 0.346666 z" />
  <path
     style="fill:#cc78a6;fill-rule:evenodd;stroke:#cc78a6;stroke-width:0;stroke-linejoin:miter;shape-rendering:geometricPrecision"
     inkscape:connector-curvature="0"
     id="path124-3"
     d="m 335.19788,280.29372 v 0 l 0.33333,-0.2 0.33333,-0.2 0.0133,10.47998 h -0.34666 -0.33333 z" />
  <g
     aria-label="R1"
     style="text-anchor:start;text-rendering:geometricPrecision"
     id="text132"
     transform="matrix(1.33333,0,0,1.33333,-50.761161,-70.958725)">
    <path
       d="m 287.44891,277.94 v -5.72656 h 2.53907 q 0.76562,0 1.16406,0.15625 0.39844,0.15234 0.63672,0.54297 0.23828,0.39062 0.23828,0.86328 0,0.60937 -0.39453,1.02734 -0.39453,0.41797 -1.21875,0.53125 0.30078,0.14453 0.45703,0.28516 0.33203,0.30469 0.6289,0.76172 l 0.9961,1.55859 h -0.95313 l -0.75781,-1.1914 q -0.33203,-0.51563 -0.54687,-0.78907 -0.21485,-0.27343 -0.38672,-0.38281 -0.16797,-0.10937 -0.34375,-0.15234 -0.12891,-0.0274 -0.42188,-0.0274 h -0.8789 V 277.94 Z m 0.75782,-3.19922 h 1.6289 q 0.51953,0 0.8125,-0.10547 0.29297,-0.10937 0.44531,-0.34375 0.15235,-0.23828 0.15235,-0.51562 0,-0.40625 -0.29688,-0.66797 -0.29297,-0.26172 -0.92968,-0.26172 h -1.8125 z"
       style="font-size:8px;font-family:Arial;fill:#cc78a6"
       id="path1871"
       inkscape:connector-curvature="0" />
    <path
       d="m 294.83661,274.68 h -0.52734 v -3.36035 q -0.19043,0.18164 -0.50098,0.36328 -0.30762,0.18164 -0.55371,0.27246 v -0.50976 q 0.44238,-0.20801 0.77344,-0.50391 0.33105,-0.2959 0.46875,-0.57422 h 0.33984 z"
       style="font-size:6px;font-family:Arial;fill:#cc78a6"
       id="path1873"
       inkscape:connector-curvature="0" />
  </g>
  <path
     style="fill:#cc78a6;fill-rule:evenodd;stroke:#cc78a6;stroke-width:0;stroke-linejoin:miter;shape-rendering:geometricPrecision"
     inkscape:connector-curvature="0"
     id="path136"
     d="m 321.89124,272.61374 v 0 l 0.34667,-0.2 0.34666,-0.2 13.27997,7.67998 -0.33333,0.2 -0.33333,0.2 z" />
  <path
     style="fill:#000000;fill-rule:evenodd;stroke:#000000;stroke-width:0;stroke-linejoin:miter;shape-rendering:geometricPrecision"
     inkscape:connector-curvature="0"
     id="path140"
     d="m 321.90458,257.26711 v 0 l 0.33333,-0.2 0.34666,0.2 v 14.94663 l -0.34666,0.2 -0.34667,0.2 z" />
  <path
     style="fill:#56b4e8;fill-rule:evenodd;stroke:#56b4e8;stroke-width:0;stroke-linejoin:miter;shape-rendering:geometricPrecision"
     inkscape:connector-curvature="0"
     id="path144"
     d="m 335.53121,249.78713 v 0 -0.38666 -0.38667 l 13.46663,7.75998 -0.17333,0.29333 -0.17333,0.29334 z" />
  <path
     style="stroke:#56b4e8;stroke-width:0.67999828;shape-rendering:auto"
     d="m 335.53121,252.58713 11.91997,6.86665"
     id="line146"
     inkscape:connector-curvature="0" />
  <path
     style="fill:#56b4e8;fill-rule:evenodd;stroke:#56b4e8;stroke-width:0;stroke-linejoin:miter;shape-rendering:geometricPrecision"
     inkscape:connector-curvature="0"
     id="path150"
     d="m 322.58457,257.26711 v 0 l -0.34666,-0.2 v -0.38666 l 13.2933,-7.66665 v 0.38667 0.38666 z" />
  <path
     style="fill:#56b4e8;fill-rule:evenodd;stroke:#56b4e8;stroke-width:0;stroke-linejoin:miter;shape-rendering:geometricPrecision"
     inkscape:connector-curvature="0"
     id="path154"
     d="m 308.78461,249.6938 v 0 l 0.17333,-0.29333 0.17333,-0.29334 13.10664,7.57332 v 0.38666 l -0.33333,0.2 z" />
  <path
     style="fill:#cc78a6;fill-rule:evenodd;stroke:#cc78a6;stroke-width:0;stroke-linejoin:miter;shape-rendering:geometricPrecision"
     inkscape:connector-curvature="0"
     id="path158"
     d="m 336.9712,160.29402 v 0 l 0.33334,-0.2 0.33333,-0.2 0.0133,10.47998 h -0.34666 -0.33334 z" />
  <path
     style="fill:#cc78a6;fill-rule:evenodd;stroke:#cc78a6;stroke-width:0;stroke-linejoin:miter;shape-rendering:geometricPrecision"
     inkscape:connector-curvature="0"
     id="path162"
     d="m 323.66457,152.61404 v 0 l 0.34667,-0.2 0.34666,-0.2 13.27997,7.67998 -0.33333,0.2 -0.33334,0.2 z" />
  <g
     aria-label="R1"
     style="text-anchor:start;text-rendering:geometricPrecision"
     id="text170"
     transform="matrix(1.33333,0,0,1.33333,-50.761161,-70.958725)">
    <path
       d="m 288.7789,187.94 v -5.72656 h 2.53906 q 0.76563,0 1.16407,0.15625 0.39843,0.15234 0.63671,0.54297 0.23829,0.39062 0.23829,0.86328 0,0.60937 -0.39454,1.02734 -0.39453,0.41797 -1.21875,0.53125 0.30079,0.14453 0.45704,0.28516 0.33203,0.30469 0.6289,0.76172 l 0.9961,1.55859 h -0.95313 l -0.75781,-1.1914 q -0.33203,-0.51563 -0.54688,-0.78907 -0.21484,-0.27343 -0.38672,-0.38281 -0.16796,-0.10937 -0.34375,-0.15234 -0.1289,-0.0274 -0.42187,-0.0274 h -0.87891 V 187.94 Z m 0.75781,-3.19922 h 1.62891 q 0.51953,0 0.8125,-0.10547 0.29297,-0.10937 0.44531,-0.34375 0.15235,-0.23828 0.15235,-0.51562 0,-0.40625 -0.29688,-0.66797 -0.29297,-0.26172 -0.92969,-0.26172 h -1.8125 z"
       style="font-size:8px;font-family:Arial;fill:#cc78a6"
       id="path1865"
       inkscape:connector-curvature="0" />
    <path
       d="m 296.1666,184.68 h -0.52735 v -3.36035 q -0.19043,0.18164 -0.50097,0.36328 -0.30762,0.18164 -0.55372,0.27246 v -0.50976 q 0.44239,-0.20801 0.77344,-0.50391 0.33106,-0.2959 0.46875,-0.57422 h 0.33985 z"
       style="font-size:6px;font-family:Arial;fill:#cc78a6"
       id="path1867"
       inkscape:connector-curvature="0" />
  </g>
  <path
     style="fill:#000000;fill-rule:evenodd;stroke:#000000;stroke-width:0;stroke-linejoin:miter;shape-rendering:geometricPrecision"
     inkscape:connector-curvature="0"
     id="path174-6"
     d="m 323.6779,137.26741 v 0 l 0.33334,-0.2 0.34666,0.2 v 14.94663 l -0.34666,0.2 -0.34667,0.2 z" />
  <path
     style="fill:#56b4e8;fill-rule:evenodd;stroke:#56b4e8;stroke-width:0;stroke-linejoin:miter;shape-rendering:geometricPrecision"
     inkscape:connector-curvature="0"
     id="path178-2"
     d="m 324.3579,137.26741 v 0 l -0.34666,-0.2 v -0.38666 l 13.11996,-7.57332 0.17334,0.29334 0.17333,0.29333 z" />
  <path
     style="fill:#56b4e8;fill-rule:evenodd;stroke:#56b4e8;stroke-width:0;stroke-linejoin:miter;shape-rendering:geometricPrecision"
     inkscape:connector-curvature="0"
     id="path182"
     d="m 310.5446,129.6941 v 0 l 0.17334,-0.29333 0.17333,-0.29334 13.11997,7.57332 v 0.38666 l -0.33334,0.2 z" />
  <path
     style="stroke:#000000;stroke-width:0.67999828;shape-rendering:auto"
     d="M 157.71832,275.9604 H 119.30508"
     id="line202"
     inkscape:connector-curvature="0" />
  <path
     style="fill:#000000;fill-rule:evenodd;stroke:#000000;stroke-width:0;stroke-linejoin:miter;stroke-miterlimit:5.89496231;shape-rendering:geometricPrecision"
     inkscape:connector-curvature="0"
     id="path204"
     stroke-miterlimit="5.89496254687652"
     d="m 114.69176,275.9604 6.79998,1.69333 c -1.42666,-0.94666 -1.42666,-2.43999 0,-3.38666 z" />
  <path
     style="stroke:#000000;stroke-width:0.67999828;shape-rendering:auto"
     d="M 157.71832,275.9604 V 186.37396"
     id="line208"
     inkscape:connector-curvature="0" />
  <path
     style="stroke:#56b4e8;stroke-width:0.67999828;shape-rendering:auto"
     d="m 136.53171,258.41378 v -9.10665"
     id="line210"
     inkscape:connector-curvature="0" />
  <path
     style="fill:#56b4e8;fill-rule:evenodd;stroke:#56b4e8;stroke-width:0;stroke-linejoin:miter;shape-rendering:geometricPrecision"
     inkscape:connector-curvature="0"
     id="path212"
     d="m 138.90503,258.61378 v 0 l 0.68,0.38666 v -9.69331 h -0.68 z" />
  <path
     style="fill:#56b4e8;fill-rule:evenodd;stroke:#56b4e8;stroke-width:0;stroke-linejoin:miter;shape-rendering:geometricPrecision"
     inkscape:connector-curvature="0"
     id="path214-8"
     d="m 136.19837,259.00044 v 0 l 0.68,-0.38666 v -9.30665 h -0.68 z" />
  <g
     aria-label="Y"
     style="text-anchor:start;text-rendering:geometricPrecision"
     id="text220-3"
     transform="matrix(1.33333,0,0,1.33333,-50.761161,-70.958725)">
    <path
       d="m 141.04047,238.87 v -2.42579 l -2.20703,-3.30078 h 0.92187 l 1.12891,1.72657 q 0.3125,0.48437 0.58203,0.96875 0.25781,-0.44922 0.625,-1.01172 l 1.10937,-1.6836 h 0.88282 l -2.28516,3.30078 V 238.87 Z"
       style="font-size:8px;font-family:Arial;fill:#56b4e8"
       id="path1859"
       inkscape:connector-curvature="0" />
  </g>
  <path
     style="fill:#56b4e8;fill-rule:evenodd;stroke:#56b4e8;stroke-width:0;stroke-linejoin:miter;shape-rendering:geometricPrecision"
     inkscape:connector-curvature="0"
     id="path224-0"
     d="m 137.8917,258.02711 v 0 0.38667 0.38666 l -13.11996,7.58665 -0.17334,-0.29333 -0.17333,-0.29333 z" />
  <path
     style="fill:#56b4e8;fill-rule:evenodd;stroke:#56b4e8;stroke-width:0;stroke-linejoin:miter;shape-rendering:geometricPrecision"
     inkscape:connector-curvature="0"
     id="path228"
     d="m 137.8917,258.80044 v 0 -0.38666 -0.38667 l 13.4533,7.77332 -0.17333,0.29333 -0.17333,0.29333 z" />
  <path
     style="stroke:#000000;stroke-width:0.67999828;shape-rendering:auto"
     d="M 290.54465,158.2007 H 218.34483"
     id="line232"
     inkscape:connector-curvature="0" />
  <path
     style="fill:#000000;fill-rule:evenodd;stroke:#000000;stroke-width:0;stroke-linejoin:miter;stroke-miterlimit:5.89496231;shape-rendering:geometricPrecision"
     inkscape:connector-curvature="0"
     id="path234-9"
     stroke-miterlimit="5.89496254687647"
     d="m 295.15798,158.2007 -6.79999,-1.69333 c 1.44,0.94666 1.44,2.43999 0,3.38665 z" />
  <path
     style="fill:#56b4e8;fill-rule:evenodd;stroke:#56b4e8;stroke-width:0;stroke-linejoin:miter;shape-rendering:geometricPrecision"
     inkscape:connector-curvature="0"
     id="path238-4"
     d="m 256.75807,131.90743 v 0 l -0.34666,-0.2 v -0.38667 l 13.10663,-7.57331 0.17333,0.29333 0.17334,0.29333 z" />
  <path
     style="fill:#56b4e8;fill-rule:evenodd;stroke:#56b4e8;stroke-width:0;stroke-linejoin:miter;shape-rendering:geometricPrecision"
     inkscape:connector-curvature="0"
     id="path242-2"
     d="m 256.41141,131.32076 v 0 0.38667 l -0.33334,0.2 -13.1333,-7.57332 0.17334,-0.29333 0.17333,-0.29333 z" />
  <path
     style="fill:#56b4e8;fill-rule:evenodd;stroke:#56b4e8;stroke-width:0;stroke-linejoin:miter;shape-rendering:geometricPrecision"
     inkscape:connector-curvature="0"
     id="path246"
     d="m 256.07807,131.90743 v 0 l 0.33334,-0.2 0.34666,0.2 v 10.06664 h -0.34666 -0.33334 z" />
  <g
     aria-label="X"
     style="text-anchor:start;text-rendering:geometricPrecision"
     id="text252"
     transform="matrix(1.33333,0,0,1.33333,-50.761161,-70.958725)">
    <path
       d="m 227.73515,166.66 2.21485,-2.98437 -1.95313,-2.74219 h 0.90235 l 1.03906,1.46875 q 0.32422,0.45703 0.46094,0.70313 0.1914,-0.3125 0.45312,-0.65235 l 1.15234,-1.51953 h 0.82422 l -2.01172,2.69922 2.16797,3.02734 h -0.9375 l -1.4414,-2.04297 q -0.1211,-0.17578 -0.25,-0.38281 -0.19141,0.3125 -0.27344,0.42969 l -1.4375,1.99609 z"
       style="font-size:8px;font-family:Arial;fill:#56b4e8"
       id="path1855"
       inkscape:connector-curvature="0" />
  </g>
  <path
     style="fill:#56b4e8;fill-rule:evenodd;stroke:#56b4e8;stroke-width:0;stroke-linejoin:miter;shape-rendering:geometricPrecision"
     inkscape:connector-curvature="0"
     id="path256-8"
     d="m 96.87847,256.48045 v 0 l -0.34666,0.58666 -0.33333,-0.58666 v -14.75996 h 0.33333 0.33333 z" />
  <path
     style="fill:#56b4e8;fill-rule:evenodd;stroke:#56b4e8;stroke-width:0;stroke-linejoin:miter;shape-rendering:geometricPrecision"
     inkscape:connector-curvature="0"
     id="path260-6"
     d="m 109.65177,249.10713 v 0 l 0.17334,0.29334 0.17333,0.29333 -13.11997,7.57331 -0.34666,-0.2 0.34666,-0.58666 z" />
  <g
     aria-label="HY"
     style="text-anchor:end;text-rendering:geometricPrecision"
     id="text266-4"
     transform="matrix(1.33333,0,0,1.33333,-50.761161,-70.958725)">
    <path
       d="m 92.695625,243.42 v -5.72656 h 0.757813 V 240.045 H 96.43 v -2.35156 h 0.757813 V 243.42 H 96.43 v -2.69922 H 93.453438 V 243.42 Z"
       style="font-size:8px;font-family:Arial;fill:#56b4e8"
       id="path1850"
       inkscape:connector-curvature="0" />
    <path
       d="m 100.06672,243.42 v -2.42578 l -2.207032,-3.30078 h 0.921875 l 1.128906,1.72656 q 0.312501,0.48437 0.582031,0.96875 0.25781,-0.44922 0.625,-1.01172 l 1.10938,-1.68359 h 0.88281 l -2.28516,3.30078 V 243.42 Z"
       style="font-size:8px;font-family:Arial;fill:#56b4e8"
       id="path1852"
       inkscape:connector-curvature="0" />
  </g>
  <path
     style="fill:#56b4e8;fill-rule:evenodd;stroke:#56b4e8;stroke-width:0;stroke-linejoin:miter;shape-rendering:geometricPrecision"
     inkscape:connector-curvature="0"
     id="path270-8"
     d="m 96.19848,256.48045 v 0 l 0.33333,0.58666 -0.33333,0.2 -8.02665,-4.62665 0.17333,-0.29333 0.16,-0.29334 z" />
  <path
     style="fill:#56b4e8;fill-rule:evenodd;stroke:#56b4e8;stroke-width:0;stroke-linejoin:miter;shape-rendering:geometricPrecision"
     inkscape:connector-curvature="0"
     id="path274-4"
     d="m 18.412,201.33392 v 0 l -0.17333,-0.29333 -0.17334,-0.29333 13.46664,-7.75999 v 0.38667 0.38667 z" />
  <path
     style="fill:#56b4e8;fill-rule:evenodd;stroke:#56b4e8;stroke-width:0;stroke-linejoin:miter;shape-rendering:geometricPrecision"
     inkscape:connector-curvature="0"
     id="path278"
     d="m 31.53197,193.76061 v 0 -0.38667 -0.38667 l 13.27996,7.66665 v 0.38667 0.38666 z" />
  <path
     style="stroke:#56b4e8;stroke-width:0.67999828;shape-rendering:auto"
     d="m 31.53197,196.5606 11.8933,6.86664"
     id="line280"
     inkscape:connector-curvature="0" />
  <path
     style="fill:#56b4e8;fill-rule:evenodd;stroke:#56b4e8;stroke-width:0;stroke-linejoin:miter;shape-rendering:geometricPrecision"
     inkscape:connector-curvature="0"
     id="path284"
     d="m 44.81193,201.42725 v 0 -0.38666 -0.38667 l 13.29331,-7.66665 v 0.38667 0.38667 z" />
  <path
     style="fill:#56b4e8;fill-rule:evenodd;stroke:#56b4e8;stroke-width:0;stroke-linejoin:miter;shape-rendering:geometricPrecision"
     inkscape:connector-curvature="0"
     id="path288"
     d="m 236.58479,200.00059 v 0 l -0.17333,-0.29333 -0.17334,-0.29333 13.4533,-7.75999 v 0.38667 0.38667 z" />
  <path
     style="fill:#56b4e8;fill-rule:evenodd;stroke:#56b4e8;stroke-width:0;stroke-linejoin:miter;shape-rendering:geometricPrecision"
     inkscape:connector-curvature="0"
     id="path292"
     d="m 249.69142,192.42728 v 0 -0.38667 -0.38667 l 13.2933,7.66665 v 0.38667 0.38666 z" />
  <path
     style="stroke:#56b4e8;stroke-width:0.67999828;shape-rendering:auto"
     d="m 249.69142,195.22727 11.91997,6.86664"
     id="line294"
     inkscape:connector-curvature="0" />
  <path
     style="fill:#56b4e8;fill-rule:evenodd;stroke:#56b4e8;stroke-width:0;stroke-linejoin:miter;shape-rendering:geometricPrecision"
     inkscape:connector-curvature="0"
     id="path298"
     d="m 262.98472,200.09392 v 0 -0.38666 -0.38667 l 13.2933,-7.66665 v 0.38667 0.38667 z" />
  <g
     aria-label="X"
     style="text-anchor:start;text-rendering:geometricPrecision"
     id="text304"
     transform="matrix(1.33333,0,0,1.33333,-50.761161,-70.958725)">
    <path
       d="m 252.60516,206.14999 2.21485,-2.98437 -1.95313,-2.74219 h 0.90235 l 1.03906,1.46875 q 0.32422,0.45703 0.46094,0.70313 0.1914,-0.3125 0.45312,-0.65235 l 1.15234,-1.51953 h 0.82422 l -2.01172,2.69922 2.16797,3.02734 h -0.9375 l -1.4414,-2.04296 q -0.1211,-0.17579 -0.25,-0.38282 -0.19141,0.3125 -0.27344,0.42969 l -1.4375,1.99609 z"
       style="font-size:8px;font-family:Arial;fill:#56b4e8"
       id="path1845"
       inkscape:connector-curvature="0" />
  </g>
  <path
     style="fill:#56b4e8;fill-rule:evenodd;stroke:#56b4e8;stroke-width:0;stroke-linejoin:miter;shape-rendering:geometricPrecision"
     inkscape:connector-curvature="0"
     id="path308"
     d="m 276.27802,192.42728 v 0 -0.38667 -0.38667 l 10.29331,5.93332 -0.17333,0.29334 -0.16,0.30666 z" />
  <path
     style="stroke:#000000;stroke-width:0.67999828;shape-rendering:auto"
     d="M 126.57173,209.04057 H -20.254572"
     id="line312"
     inkscape:connector-curvature="0" />
  <path
     style="stroke:#000000;stroke-width:0.67999828;shape-rendering:auto"
     d="M -20.254572,228.09384 V 209.04057"
     id="line314-5"
     inkscape:connector-curvature="0" />
  <path
     style="fill:#000000;fill-rule:evenodd;stroke:#000000;stroke-width:0;stroke-linejoin:miter;stroke-miterlimit:5.89496231;shape-rendering:geometricPrecision"
     inkscape:connector-curvature="0"
     id="path316"
     stroke-miterlimit="5.89496254687643"
     d="m -20.254571,232.70718 1.693329,-6.79999 c -0.946664,1.42667 -2.439993,1.44 -3.399991,0 z" />
  <path
     style="stroke:#000000;stroke-width:0.67999828;shape-rendering:auto"
     d="M 325.03791,228.09384 V 209.04057"
     id="line320"
     inkscape:connector-curvature="0" />
  <path
     style="fill:#000000;fill-rule:evenodd;stroke:#000000;stroke-width:0;stroke-linejoin:miter;stroke-miterlimit:5.89496231;shape-rendering:geometricPrecision"
     inkscape:connector-curvature="0"
     id="path322"
     stroke-miterlimit="5.89496254687625"
     d="m 325.0379,232.70718 1.69333,-6.79999 c -0.94666,1.42667 -2.43999,1.44 -3.39999,0 z" />
  <path
     style="stroke:#000000;stroke-width:0.67999828;shape-rendering:auto"
     d="m 186.78491,209.04057 h 138.253"
     id="line326"
     inkscape:connector-curvature="0" />
  <path
     style="stroke:#000000;stroke-width:0.67999828;shape-rendering:auto"
     d="M 186.78491,209.04057 V 186.37396"
     id="line328-2"
     inkscape:connector-curvature="0" />
  <path
     style="stroke:#000000;stroke-width:0.67999828;shape-rendering:auto"
     d="M 126.57173,209.04057 V 186.37396"
     id="line330-8"
     inkscape:connector-curvature="0" />
  <path
     style="fill:#000000;fill-rule:evenodd;stroke:#000000;stroke-width:0;stroke-linejoin:miter;shape-rendering:geometricPrecision"
     inkscape:connector-curvature="0"
     id="path332"
     d="m 96.19848,257.26711 v 0 l 0.33333,-0.2 0.34666,0.2 -0.0133,15.34663 -0.33333,-0.2 -0.33333,-0.2 z" />
  <path
     style="fill:#cc78a6;fill-rule:evenodd;stroke:#cc78a6;stroke-width:0;stroke-linejoin:miter;shape-rendering:geometricPrecision"
     inkscape:connector-curvature="0"
     id="path350"
     d="m 96.19848,272.21374 v 0 l 0.33333,0.2 0.33333,0.2 -13.27997,7.67998 -0.34666,-0.2 -0.34667,-0.2 z" />
  <path
     style="fill:#cc78a6;fill-rule:evenodd;stroke:#cc78a6;stroke-width:0;stroke-linejoin:miter;shape-rendering:geometricPrecision"
     inkscape:connector-curvature="0"
     id="path354"
     d="m 82.89184,279.89372 v 0 l 0.34667,0.2 0.34666,0.2 v 10.07998 h -0.34666 -0.33333 z" />
  <g
     aria-label="R1"
     style="text-anchor:start;text-rendering:geometricPrecision"
     id="text362-1"
     transform="matrix(1.33333,0,0,1.33333,-50.761161,-70.958725)">
    <path
       d="m 98.228905,277.94 v -5.72656 h 2.539065 q 0.76562,0 1.16406,0.15625 0.39844,0.15234 0.63672,0.54297 0.23828,0.39062 0.23828,0.86328 0,0.60937 -0.39453,1.02734 -0.39453,0.41797 -1.21875,0.53125 0.30078,0.14453 0.45703,0.28516 0.33203,0.30469 0.62891,0.76172 l 0.99609,1.55859 h -0.95313 l -0.75781,-1.1914 q -0.33203,-0.51563 -0.54687,-0.78907 -0.21485,-0.27343 -0.38672,-0.38281 -0.16797,-0.10937 -0.34375,-0.15234 -0.12891,-0.0274 -0.421877,-0.0274 H 98.986717 V 277.94 Z m 0.757812,-3.19922 h 1.628903 q 0.51953,0 0.8125,-0.10547 0.29297,-0.10937 0.44532,-0.34375 0.15234,-0.23828 0.15234,-0.51562 0,-0.40625 -0.29688,-0.66797 -0.29296,-0.26172 -0.92968,-0.26172 h -1.812503 z"
       style="font-size:8px;font-family:Arial;fill:#cc78a6"
       id="path1834"
       inkscape:connector-curvature="0" />
    <path
       d="m 105.6166,274.68 h -0.52734 v -3.36035 q -0.19043,0.18164 -0.50098,0.36328 -0.30762,0.18164 -0.55371,0.27246 v -0.50976 q 0.44238,-0.20801 0.77344,-0.50391 0.33105,-0.2959 0.46875,-0.57422 h 0.33984 z"
       style="font-size:6px;font-family:Arial;fill:#cc78a6"
       id="path1836"
       inkscape:connector-curvature="0" />
  </g>
  <g
     aria-label="R2"
     style="text-anchor:start;text-rendering:geometricPrecision"
     id="text390"
     transform="matrix(1.33333,0,0,1.33333,-50.761161,-70.958725)">
    <path
       d="m 89.348907,207.14999 v -5.72656 h 2.539063 q 0.765625,0 1.164062,0.15625 0.398438,0.15235 0.636719,0.54297 0.238281,0.39063 0.238281,0.86328 0,0.60938 -0.394531,1.02735 -0.394531,0.41796 -1.21875,0.53125 0.300781,0.14453 0.457031,0.28515 0.332032,0.30469 0.628907,0.76172 l 0.996093,1.55859 h -0.953125 l -0.757812,-1.1914 q -0.332031,-0.51563 -0.546875,-0.78906 -0.214844,-0.27344 -0.386719,-0.38282 -0.167969,-0.10937 -0.34375,-0.15234 -0.128906,-0.0273 -0.421875,-0.0273 H 90.10672 v 2.54296 z m 0.757813,-3.19921 h 1.628906 q 0.519531,0 0.8125,-0.10547 0.292969,-0.10938 0.445313,-0.34375 0.152343,-0.23828 0.152343,-0.51563 0,-0.40625 -0.296875,-0.66797 -0.292968,-0.26172 -0.929687,-0.26172 h -1.8125 z"
       style="font-size:8px;font-family:Arial;fill:#56b4e8"
       id="path1829"
       inkscape:connector-curvature="0" />
    <path
       d="m 97.521759,203.38316 v 0.50683 h -2.838867 q -0.0059,-0.19043 0.06152,-0.36621 0.108399,-0.29004 0.345703,-0.57129 0.240235,-0.28125 0.691407,-0.65039 0.700195,-0.57422 0.946289,-0.9082 0.246093,-0.33691 0.246093,-0.63574 0,-0.31348 -0.225585,-0.52735 -0.222657,-0.21679 -0.583008,-0.21679 -0.38086,0 -0.609375,0.22851 -0.228516,0.22852 -0.231446,0.63282 l -0.541992,-0.0557 q 0.05566,-0.60644 0.418946,-0.92285 0.363281,-0.31934 0.975585,-0.31934 0.618165,0 0.978516,0.34278 0.360352,0.34277 0.360352,0.84961 0,0.25781 -0.105469,0.50683 -0.105469,0.24903 -0.351563,0.52442 -0.243164,0.27539 -0.811523,0.75586 -0.474609,0.39843 -0.609375,0.54199 -0.134766,0.14062 -0.222656,0.28418 z"
       style="font-size:6px;font-family:Arial;fill:#56b4e8"
       id="path1831"
       inkscape:connector-curvature="0" />
  </g>
  <path
     style="fill:#56b4e8;fill-rule:evenodd;stroke:#56b4e8;stroke-width:0;stroke-linejoin:miter;shape-rendering:geometricPrecision"
     inkscape:connector-curvature="0"
     id="path394"
     d="m 58.10524,193.76061 v 0 -0.38667 -0.38667 l 8.99998,5.18666 -0.17334,0.29333 -0.16,0.29333 z" />
  <g
     aria-label="O"
     style="text-anchor:start;text-rendering:geometricPrecision"
     id="text400"
     transform="matrix(1.33333,0,0,1.33333,-50.761161,-70.958725)">
    <path
       d="m 78.936722,187.10094 q 0,-1.42578 0.765625,-2.23047 0.765625,-0.8086 1.976562,-0.8086 0.792969,0 1.429688,0.37891 0.636719,0.37891 0.96875,1.05859 0.335937,0.67579 0.335937,1.53516 0,0.87109 -0.351562,1.55859 -0.351563,0.6875 -0.996094,1.04297 -0.644531,0.35157 -1.390625,0.35157 -0.808594,0 -1.445312,-0.39063 -0.636719,-0.39062 -0.964844,-1.06641 -0.328125,-0.67578 -0.328125,-1.42968 z m 0.78125,0.0117 q 0,1.03515 0.554687,1.63281 0.558594,0.59375 1.398438,0.59375 0.855469,0 1.40625,-0.60156 0.554687,-0.60157 0.554687,-1.70704 0,-0.69921 -0.238281,-1.21875 -0.234375,-0.52343 -0.691406,-0.80859 -0.453125,-0.28906 -1.019531,-0.28906 -0.804688,0 -1.386719,0.55469 -0.578125,0.55078 -0.578125,1.84375 z"
       style="font-size:8px;font-family:Arial;fill:#56b4e8"
       id="path1826"
       inkscape:connector-curvature="0" />
  </g>
  <path
     style="stroke:#56b4e8;stroke-width:0.67999828;shape-rendering:auto"
     d="M 56.71858,193.37394 V 184.1073"
     id="line404"
     inkscape:connector-curvature="0" />
  <path
     style="fill:#56b4e8;fill-rule:evenodd;stroke:#56b4e8;stroke-width:0;stroke-linejoin:miter;shape-rendering:geometricPrecision"
     inkscape:connector-curvature="0"
     id="path406"
     d="m 59.14524,193.58727 v 0 l 0.67999,0.38667 v -9.86664 h -0.67999 z" />
  <path
     style="fill:#56b4e8;fill-rule:evenodd;stroke:#56b4e8;stroke-width:0;stroke-linejoin:miter;shape-rendering:geometricPrecision"
     inkscape:connector-curvature="0"
     id="path408"
     d="m 56.38524,193.97394 v 0 l 0.68,-0.38667 v -9.47997 h -0.68 z" />
  <path
     style="fill:#56b4e8;fill-rule:evenodd;stroke:#56b4e8;stroke-width:0;stroke-linejoin:miter;shape-rendering:geometricPrecision"
     inkscape:connector-curvature="0"
     id="path412"
     d="m -4.387944,293.09369 v 0 -0.38666 -0.38667 l 8.959974,5.17332 -0.17333,0.29333 -0.16,0.29334 z" />
  <g
     aria-label="R2"
     style="text-anchor:start;text-rendering:geometricPrecision"
     id="text420"
     transform="matrix(1.33333,0,0,1.33333,-50.761161,-70.958725)">
    <path
       d="m 42.468906,281.64999 v -5.72656 h 2.539063 q 0.765625,0 1.164062,0.15625 0.398438,0.15235 0.636719,0.54297 0.238281,0.39063 0.238281,0.86328 0,0.60938 -0.394531,1.02735 -0.394531,0.41796 -1.21875,0.53125 0.300781,0.14453 0.457031,0.28515 0.332032,0.30469 0.628907,0.76172 l 0.996093,1.55859 h -0.953125 l -0.757812,-1.1914 q -0.332031,-0.51563 -0.546875,-0.78906 -0.214844,-0.27344 -0.386719,-0.38282 -0.167969,-0.10937 -0.34375,-0.15234 -0.128906,-0.0273 -0.421875,-0.0273 h -0.878906 v 2.54296 z m 0.757813,-3.19921 h 1.628906 q 0.519531,0 0.8125,-0.10547 0.292969,-0.10938 0.445313,-0.34375 0.152343,-0.23828 0.152343,-0.51563 0,-0.40625 -0.296875,-0.66797 -0.292968,-0.26172 -0.929687,-0.26172 h -1.8125 z"
       style="font-size:8px;font-family:Arial;fill:#56b4e8"
       id="path1820"
       inkscape:connector-curvature="0" />
    <path
       d="m 50.641758,277.88316 v 0.50683 h -2.838867 q -0.0059,-0.19043 0.06152,-0.36621 0.108399,-0.29004 0.345703,-0.57129 0.240235,-0.28125 0.691407,-0.65039 0.700195,-0.57422 0.946289,-0.9082 0.246093,-0.33691 0.246093,-0.63574 0,-0.31348 -0.225586,-0.52735 -0.222656,-0.21679 -0.583007,-0.21679 -0.38086,0 -0.609375,0.22851 -0.228516,0.22852 -0.231446,0.63282 l -0.541992,-0.0557 q 0.05566,-0.60644 0.418945,-0.92285 0.363282,-0.31934 0.975586,-0.31934 0.618164,0 0.978516,0.34278 0.360352,0.34277 0.360352,0.84961 0,0.25781 -0.105469,0.50683 -0.105469,0.24903 -0.351563,0.52442 -0.243164,0.27539 -0.811523,0.75586 -0.474609,0.39843 -0.609375,0.54199 -0.134766,0.14062 -0.222656,0.28418 z"
       style="font-size:6px;font-family:Arial;fill:#56b4e8"
       id="path1822"
       inkscape:connector-curvature="0" />
  </g>
  <g
     aria-label="O"
     style="text-anchor:start;text-rendering:geometricPrecision"
     id="text426"
     transform="matrix(1.33333,0,0,1.33333,-50.761161,-70.958725)">
    <path
       d="m 32.066719,261.60095 q 0,-1.42578 0.765625,-2.23047 0.765625,-0.80859 1.976563,-0.80859 0.792968,0 1.429687,0.37891 0.636719,0.3789 0.96875,1.05859 0.335938,0.67578 0.335938,1.53516 0,0.87109 -0.351563,1.55859 -0.351562,0.6875 -0.996094,1.04297 -0.644531,0.35156 -1.390625,0.35156 -0.808593,0 -1.445312,-0.39062 -0.636719,-0.39063 -0.964844,-1.06641 -0.328125,-0.67578 -0.328125,-1.42969 z m 0.78125,0.0117 q 0,1.03516 0.554688,1.63281 0.558593,0.59375 1.398437,0.59375 0.855469,0 1.40625,-0.60156 0.554688,-0.60156 0.554688,-1.70703 0,-0.69922 -0.238282,-1.21875 -0.234375,-0.52344 -0.691406,-0.80859 -0.453125,-0.28907 -1.019531,-0.28907 -0.804688,0 -1.386719,0.55469 -0.578125,0.55078 -0.578125,1.84375 z"
       style="font-size:8px;font-family:Arial;fill:#56b4e8"
       id="path1817"
       inkscape:connector-curvature="0" />
  </g>
  <path
     style="stroke:#56b4e8;stroke-width:0.67999828;shape-rendering:auto"
     d="m -5.774605,292.70703 v -9.26666"
     id="line430"
     inkscape:connector-curvature="0" />
  <path
     style="fill:#56b4e8;fill-rule:evenodd;stroke:#56b4e8;stroke-width:0;stroke-linejoin:miter;shape-rendering:geometricPrecision"
     inkscape:connector-curvature="0"
     id="path432"
     d="m -3.347947,292.92036 v 0 l 0.679999,0.38666 v -9.86664 h -0.679999 z" />
  <path
     style="fill:#56b4e8;fill-rule:evenodd;stroke:#56b4e8;stroke-width:0;stroke-linejoin:miter;shape-rendering:geometricPrecision"
     inkscape:connector-curvature="0"
     id="path434"
     d="m -6.10794,293.30702 v 0 l 0.679999,-0.38666 v -9.47998 H -6.10794 Z" />
  <text
     xml:space="preserve"
     style="font-style:normal;font-variant:normal;font-weight:normal;font-stretch:normal;font-size:10.66666698px;line-height:1.25;font-family:Arial;-inkscape-font-specification:Arial;text-align:start;letter-spacing:0px;word-spacing:0px;text-anchor:start;fill:#000000;fill-opacity:1;stroke:none"
     x="306.00204"
     y="179.3701"
     id="text2185-57-4"><tspan
       sodipodi:role="line"
       id="tspan2183-9-0"
       x="306.00204"
       y="179.3701">\cmpd{w:zr-cross-coupled}</tspan></text>
  <text
     xml:space="preserve"
     style="font-style:normal;font-variant:normal;font-weight:normal;font-stretch:normal;font-size:10.66666698px;line-height:1.25;font-family:Arial;-inkscape-font-specification:Arial;text-align:start;letter-spacing:0px;word-spacing:0px;text-anchor:start;fill:#000000;fill-opacity:1;stroke:none"
     x="24.514633"
     y="301.3981"
     id="text2185-57-4-8-5"><tspan
       sodipodi:role="line"
       id="tspan2183-9-0-6-5"
       x="24.514633"
       y="301.3981">\cmpd{w:zr-coupled}</tspan></text>
  <text
     xml:space="preserve"
     style="font-style:normal;font-variant:normal;font-weight:normal;font-stretch:normal;font-size:10.66666698px;line-height:1.25;font-family:Arial;-inkscape-font-specification:Arial;text-align:start;letter-spacing:0px;word-spacing:0px;text-anchor:start;fill:#000000;fill-opacity:1;stroke:none"
     x="102.7316"
     y="301.3981"
     id="text2185-57-4-8-5-1"><tspan
       sodipodi:role="line"
       id="tspan2183-9-0-6-5-6"
       x="102.7316"
       y="301.3981">\cmpd{w:zr-addition}</tspan></text>
  <text
     xml:space="preserve"
     style="font-style:normal;font-variant:normal;font-weight:normal;font-stretch:normal;font-size:10.66666698px;line-height:1.25;font-family:Arial;-inkscape-font-specification:Arial;text-align:start;letter-spacing:0px;word-spacing:0px;text-anchor:start;fill:#000000;fill-opacity:1;stroke:none"
     x="306.00204"
     y="301.3981"
     id="text2185-57-4-8"><tspan
       sodipodi:role="line"
       id="tspan2183-9-0-6"
       x="306.00204"
       y="301.3981">\cmpd{w:zr-allyl}</tspan></text>
</svg>
