<?xml version="1.0" encoding="UTF-8" standalone="no"?>
<svg
   xmlns:dc="http://purl.org/dc/elements/1.1/"
   xmlns:cc="http://creativecommons.org/ns#"
   xmlns:rdf="http://www.w3.org/1999/02/22-rdf-syntax-ns#"
   xmlns:svg="http://www.w3.org/2000/svg"
   xmlns="http://www.w3.org/2000/svg"
   xmlns:sodipodi="http://sodipodi.sourceforge.net/DTD/sodipodi-0.dtd"
   xmlns:inkscape="http://www.inkscape.org/namespaces/inkscape"
   viewBox="1.75 95.66 299.37 108.34"
   preserveAspectRatio="xMidYMid"
   width="100%"
   height="100%"
   version="1.1"
   id="svg365"
   sodipodi:docname="zr-deoxygenation.svg"
   inkscape:version="0.92.3 (2405546, 2018-03-11)">
  <metadata
     id="metadata371">
    <rdf:RDF>
      <cc:Work
         rdf:about="">
        <dc:format>image/svg+xml</dc:format>
        <dc:type
           rdf:resource="http://purl.org/dc/dcmitype/StillImage" />
      </cc:Work>
    </rdf:RDF>
  </metadata>
  <defs
     id="defs369" />
  <sodipodi:namedview
     pagecolor="#ffffff"
     bordercolor="#666666"
     borderopacity="1"
     objecttolerance="10"
     gridtolerance="10"
     guidetolerance="10"
     inkscape:pageopacity="0"
     inkscape:pageshadow="2"
     inkscape:window-width="1920"
     inkscape:window-height="1017"
     id="namedview367"
     showgrid="false"
     inkscape:zoom="3.4012552"
     inkscape:cx="190.68801"
     inkscape:cy="58.103251"
     inkscape:window-x="-8"
     inkscape:window-y="-8"
     inkscape:window-maximized="1"
     inkscape:current-layer="svg365" />
  <clipPath
     id="9322">
    <rect
       x="0.255"
       y="0.255"
       width="302.74"
       height="769.29"
       id="rect2" />
  </clipPath>
  <path
     inkscape:connector-curvature="0"
     id="path1660"
     style="font-size:10.59997368px;font-family:Arial;text-anchor:start;fill:#000000;stroke-width:1.33333004;text-rendering:geometricPrecision"
     d="m 6.4601313,122.55036 v -7.58767 h 1.0299779 l 3.9853418,5.9573 v -5.9573 h 0.962693 v 7.58767 h -1.029978 l -3.9853418,-5.96248 v 5.96248 z" />
  <path
     inkscape:connector-curvature="0"
     id="path1662"
     style="font-size:10.59997368px;font-family:Arial;text-anchor:start;fill:#000000;stroke-width:1.33333004;text-rendering:geometricPrecision"
     d="m 6.5015374,132.13804 v -7.58768 h 1.0040991 v 3.11581 h 3.9439355 v -3.11581 h 1.004099 v 7.58768 h -1.004099 v -3.57646 H 7.5056365 v 3.57646 z" />
  <path
     style="fill:#000000;fill-rule:evenodd;stroke:#000000;stroke-width:0;stroke-linejoin:miter;shape-rendering:geometricPrecision"
     inkscape:connector-curvature="0"
     id="path15"
     d="m 1.5193904,94.830421 v 0 l 0.3866657,-0.08 0.2399994,0.346666 -4.6399884,14.093303 -0.399999,0.13333 -0.266666,-0.28 z" />
  <path
     style="fill:#000000;fill-rule:evenodd;stroke:#000000;stroke-width:0;stroke-linejoin:miter;shape-rendering:geometricPrecision"
     inkscape:connector-curvature="0"
     id="path18"
     d="m -2.9472651,109.71038 v 0 l 0.053333,-0.38666 0.399999,-0.13333 7.8799803,5.77331 -0.1999995,0.28 -0.1999995,0.26667 z" />
  <path
     style="fill:#000000;fill-rule:evenodd;stroke:#000000;stroke-width:0;stroke-linejoin:miter;shape-rendering:geometricPrecision"
     inkscape:connector-curvature="0"
     id="path22"
     d="m 14.052692,115.5237 v 0 l -0.199999,-0.28 -0.186666,-0.28 7.87998,-5.67998 0.399999,0.13333 0.399999,0.13333 z" />
  <path
     style="fill:#000000;fill-rule:evenodd;stroke:#000000;stroke-width:0;stroke-linejoin:miter;shape-rendering:geometricPrecision"
     inkscape:connector-curvature="0"
     id="path26"
     d="m 22.346005,109.55038 v 0 l -0.399999,-0.13333 -0.399999,-0.13333 -4.546655,-14.146633 0.253332,-0.333332 0.253333,-0.333333 z" />
  <path
     style="fill:#000000;fill-rule:evenodd;stroke:#000000;stroke-width:0;stroke-linejoin:miter;shape-rendering:geometricPrecision"
     inkscape:connector-curvature="0"
     id="path30"
     d="m 17.506017,94.470422 v 0 l -0.253333,0.333333 -0.253332,0.333332 -14.8532965,-0.04 -0.2399994,-0.346666 0.1866662,-0.333332 z" />
  <path
     inkscape:connector-curvature="0"
     id="path1665"
     style="font-size:10.59997368px;font-family:Arial;text-anchor:start;fill:#000000;stroke-width:1.33333004;text-rendering:geometricPrecision"
     d="m 32.898384,114.69487 q 0,-1.88915 1.01445,-2.95536 1.014451,-1.07138 2.618939,-1.07138 1.050681,0 1.894331,0.50205 0.84365,0.50205 1.283591,1.40263 0.445116,0.89541 0.445116,2.03408 0,1.15419 -0.465819,2.06513 -0.465819,0.91093 -1.319821,1.38193 -0.854002,0.46582 -1.842574,0.46582 -1.071384,0 -1.915034,-0.51758 -0.84365,-0.51758 -1.278415,-1.41298 -0.434764,-0.89541 -0.434764,-1.89434 z m 1.035153,0.0155 q 0,1.37158 0.734959,2.16347 0.740135,0.78672 1.852925,0.78672 1.133494,0 1.863277,-0.79707 0.734959,-0.79707 0.734959,-2.26181 0,-0.92646 -0.315722,-1.61484 -0.310546,-0.69355 -0.916111,-1.07138 -0.600389,-0.38301 -1.350875,-0.38301 -1.066209,0 -1.837398,0.73496 -0.766014,0.72978 -0.766014,2.44296 z" />
  <path
     style="stroke:#000000;stroke-width:0.67999828;shape-rendering:auto"
     d="m 22.372671,108.11039 9.399975,3.09333"
     id="line40" />
  <path
     style="fill:#000000;fill-rule:evenodd;stroke:#000000;stroke-width:0;stroke-linejoin:miter;shape-rendering:geometricPrecision"
     inkscape:connector-curvature="0"
     id="path42"
     d="m 21.306008,110.29705 v 0 l -0.679999,0.49333 10.173308,3.35999 0.213333,-0.65333 z" />
  <path
     style="fill:#000000;fill-rule:evenodd;stroke:#000000;stroke-width:0;stroke-linejoin:miter;shape-rendering:geometricPrecision"
     inkscape:connector-curvature="0"
     id="path44"
     d="m 21.692673,107.52372 v 0 l 0.253333,0.8 9.719976,3.19999 0.213333,-0.65333 z" />
  <path
     style="fill:#000000;fill-rule:evenodd;stroke:#000000;stroke-width:0;stroke-linejoin:miter;shape-rendering:geometricPrecision"
     inkscape:connector-curvature="0"
     id="path48"
     d="m -3.1605979,109.04372 v 0 l 0.266666,0.28 -0.053333,0.38666 -13.5999661,5.61332 -0.946664,-1.31999 -1.026664,-1.38667 z" />
  <path
     inkscape:connector-curvature="0"
     id="path1669"
     style="font-size:10.59997368px;font-family:Arial;text-anchor:end;fill:#000000;stroke-width:1.33333004;text-rendering:geometricPrecision"
     d="m -38.09693,107.85706 v -7.58767 h 2.8622 q 0.755662,0 1.154196,0.0725 0.558983,0.0932 0.936814,0.35713 0.377832,0.25878 0.605565,0.72978 0.23291,0.47099 0.23291,1.03515 0,0.96787 -0.615916,1.64072 -0.615917,0.66768 -2.225581,0.66768 h -1.946089 v 3.08475 z m 1.004099,-3.98016 h 1.961616 q 0.973045,0 1.381931,-0.36231 0.408885,-0.3623 0.408885,-1.01962 0,-0.47617 -0.243261,-0.8126 -0.238085,-0.3416 -0.631444,-0.45029 -0.253612,-0.0673 -0.936814,-0.0673 h -1.940913 z" />
  <path
     inkscape:connector-curvature="0"
     id="path1671"
     style="font-size:10.59997368px;font-family:Arial;text-anchor:end;fill:#000000;stroke-width:1.33333004;text-rendering:geometricPrecision"
     d="m -31.135522,107.85706 v -7.58767 h 0.931639 v 2.72245 q 0.652147,-0.75566 1.645894,-0.75566 0.610741,0 1.061033,0.24326 0.450292,0.23809 0.641795,0.6625 0.196679,0.42441 0.196679,1.23183 v 3.48329 h -0.931638 v -3.48329 q 0,-0.69873 -0.305371,-1.01445 -0.300194,-0.3209 -0.854001,-0.3209 -0.414062,0 -0.781541,0.21739 -0.362304,0.2122 -0.517577,0.57968 -0.155273,0.36748 -0.155273,1.01445 v 3.00712 z" />
  <path
     style="fill:#000000;fill-rule:evenodd;stroke:#000000;stroke-width:0;stroke-linejoin:miter;shape-rendering:geometricPrecision"
     inkscape:connector-curvature="0"
     id="path57"
     d="m -18.520559,112.61704 v 0 l 1.026664,1.38667 0.946664,1.31999 -9.013311,-8.17331 0.226666,-0.25333 0.226666,-0.25333 z" />
  <path
     inkscape:connector-curvature="0"
     id="path1674"
     style="font-size:10.59997368px;font-family:Arial;text-anchor:end;fill:#000000;stroke-width:1.33333004;text-rendering:geometricPrecision"
     d="m -23.364886,86.457108 v -7.587677 h 2.846673 q 0.869529,0 1.392281,0.23291 0.527929,0.227733 0.822947,0.70908 0.300195,0.476171 0.300195,0.998923 0,0.486522 -0.263964,0.916111 -0.263964,0.429589 -0.797069,0.693553 0.688378,0.201855 1.055857,0.688377 0.372656,0.486523 0.372656,1.149021 0,0.533104 -0.227734,0.993748 -0.222558,0.455467 -0.553807,0.703904 -0.33125,0.248437 -0.833299,0.377831 -0.496874,0.124219 -1.221482,0.124219 z m 1.004099,-4.399404 h 1.640719 q 0.667674,0 0.957517,-0.08799 0.383007,-0.113867 0.57451,-0.377831 0.196679,-0.263964 0.196679,-0.662498 0,-0.377831 -0.181152,-0.662498 -0.181152,-0.289843 -0.517576,-0.393359 -0.336425,-0.108691 -1.154197,-0.108691 h -1.5165 z m 0,3.503996 h 1.889155 q 0.486523,0 0.683202,-0.03623 0.346776,-0.06211 0.579686,-0.207031 0.23291,-0.144921 0.383007,-0.419237 0.150097,-0.279491 0.150097,-0.641795 0,-0.424413 -0.217382,-0.734959 -0.217382,-0.315722 -0.605565,-0.43994 -0.383007,-0.129395 -1.107615,-0.129395 h -1.754585 z" />
  <path
     inkscape:connector-curvature="0"
     id="path1676"
     style="font-size:10.59997368px;font-family:Arial;text-anchor:end;fill:#000000;stroke-width:1.33333004;text-rendering:geometricPrecision"
     d="m -16.362072,86.457108 v -5.496666 h 0.838475 v 0.781541 q 0.605565,-0.90576 1.74941,-0.90576 0.496873,0 0.910935,0.181152 0.419237,0.175976 0.626268,0.465819 0.207031,0.289843 0.289843,0.688377 0.05176,0.258789 0.05176,0.90576 v 3.379777 h -0.931639 v -3.343547 q 0,-0.569334 -0.108691,-0.848826 -0.108691,-0.284667 -0.388183,-0.450292 -0.274315,-0.1708 -0.646971,-0.1708 -0.595213,0 -1.029977,0.377831 -0.429589,0.377831 -0.429589,1.433688 v 3.001946 z" />
  <path
     inkscape:connector-curvature="0"
     id="path1678"
     style="font-size:10.59997368px;font-family:Arial;text-anchor:end;fill:#000000;stroke-width:1.33333004;text-rendering:geometricPrecision"
     d="m -10.648023,82.761609 q 0,-1.889156 1.0144507,-2.955364 1.0144506,-1.071384 2.6189388,-1.071384 1.050681,0 1.8943312,0.50205 0.8436503,0.502049 1.2835906,1.402633 0.4451161,0.895408 0.4451161,2.034077 0,1.154196 -0.4658192,2.065131 -0.4658191,0.910936 -1.3198209,1.381931 -0.8540018,0.465819 -1.8425736,0.465819 -1.071384,0 -1.9150343,-0.517577 -0.8436502,-0.517577 -1.2784144,-1.412985 -0.434765,-0.895408 -0.434765,-1.894331 z m 1.0351538,0.01553 q 0,1.371579 0.7349591,2.163471 0.7401349,0.786717 1.8529251,0.786717 1.1334932,0 1.8632766,-0.797068 0.7349591,-0.797068 0.7349591,-2.261811 0,-0.926462 -0.3157219,-1.61484 -0.3105461,-0.693553 -0.916111,-1.071384 -0.6003891,-0.383007 -1.3508755,-0.383007 -1.0662083,0 -1.8373978,0.73496 -0.7660137,0.729783 -0.7660137,2.442962 z" />
  <path
     style="fill:#000000;fill-rule:evenodd;stroke:#000000;stroke-width:0;stroke-linejoin:miter;shape-rendering:geometricPrecision"
     inkscape:connector-curvature="0"
     id="path67"
     d="m 2.0927223,94.417089 v 0 l -0.1866662,0.333332 -0.3866657,0.08 -5.8799853,-6.066651 1.2933301,-0.919998 1.2933301,-0.933331 z" />
  <path
     inkscape:connector-curvature="0"
     id="path1681"
     style="font-size:10.59997368px;font-family:Arial;text-anchor:start;fill:#000000;stroke-width:1.33333004;text-rendering:geometricPrecision"
     d="m 318.52602,122.88369 v -7.58768 h 1.02998 l 3.98534,5.95731 v -5.95731 h 0.96269 v 7.58768 h -1.02998 l -3.98534,-5.96249 v 5.96249 z" />
  <path
     inkscape:connector-curvature="0"
     id="path1683"
     style="font-size:10.59997368px;font-family:Arial;text-anchor:start;fill:#000000;stroke-width:1.33333004;text-rendering:geometricPrecision"
     d="m 318.56742,132.47137 v -7.58768 h 1.0041 v 3.11581 h 3.94394 v -3.11581 h 1.0041 v 7.58768 h -1.0041 v -3.57646 h -3.94394 v 3.57646 z" />
  <path
     style="fill:#000000;fill-rule:evenodd;stroke:#000000;stroke-width:0;stroke-linejoin:miter;shape-rendering:geometricPrecision"
     inkscape:connector-curvature="0"
     id="path79"
     d="m 313.22528,95.27042 v 0 l 0.38666,-0.08 0.25334,0.333333 -4.42666,14.173297 -0.4,0.13333 -0.26666,-0.28 z" />
  <path
     style="fill:#000000;fill-rule:evenodd;stroke:#000000;stroke-width:0;stroke-linejoin:miter;shape-rendering:geometricPrecision"
     inkscape:connector-curvature="0"
     id="path83"
     d="m 308.99862,110.21705 v 0 l 0.04,-0.38667 0.4,-0.13333 7.93331,5.62665 -0.2,0.28 -0.19999,0.28 z" />
  <path
     style="fill:#000000;fill-rule:evenodd;stroke:#000000;stroke-width:0;stroke-linejoin:miter;shape-rendering:geometricPrecision"
     inkscape:connector-curvature="0"
     id="path87"
     d="m 326.18525,115.6837 v 0 l -0.21334,-0.26666 -0.2,-0.28 7.69332,-5.70666 0.4,0.12 -0.0267,0.45334 z" />
  <path
     style="fill:#000000;fill-rule:evenodd;stroke:#000000;stroke-width:0;stroke-linejoin:miter;shape-rendering:geometricPrecision"
     inkscape:connector-curvature="0"
     id="path91"
     d="m 334.05189,109.04372 v 0 l -0.18666,0.50666 -0.4,-0.12 -4.74666,-14.066627 0.24,-0.346666 0.24,-0.346665 z" />
  <path
     style="fill:#000000;fill-rule:evenodd;stroke:#000000;stroke-width:0;stroke-linejoin:miter;shape-rendering:geometricPrecision"
     inkscape:connector-curvature="0"
     id="path95"
     d="m 329.19857,94.670422 v 0 l -0.24,0.346665 -0.24,0.346666 -14.85329,0.16 -0.25334,-0.333333 0.18667,-0.346665 z" />
  <path
     style="fill:#000000;fill-rule:evenodd;stroke:#000000;stroke-width:0;stroke-linejoin:miter;shape-rendering:geometricPrecision"
     inkscape:connector-curvature="0"
     id="path99"
     d="m 308.77196,109.55038 v 0 l 0.26666,0.28 -0.04,0.38667 -13.5333,5.82665 -0.97333,-1.30666 -1.04,-1.37333 z" />
  <path
     inkscape:connector-curvature="0"
     id="path1686"
     style="font-size:10.59997368px;font-family:Arial;text-anchor:end;fill:#000000;stroke-width:1.33333004;text-rendering:geometricPrecision"
     d="m 273.74228,108.76373 v -7.58767 h 2.8622 q 0.75566,0 1.1542,0.0725 0.55898,0.0932 0.93681,0.35713 0.37783,0.25878 0.60556,0.72978 0.23291,0.47099 0.23291,1.03515 0,0.96787 -0.61591,1.64072 -0.61592,0.66767 -2.22558,0.66767 h -1.94609 v 3.08476 z m 1.0041,-3.98016 h 1.96161 q 0.97305,0 1.38193,-0.36231 0.40889,-0.3623 0.40889,-1.01962 0,-0.47617 -0.24326,-0.8126 -0.23809,-0.3416 -0.63144,-0.45029 -0.25362,-0.0673 -0.93682,-0.0673 h -1.94091 z" />
  <path
     inkscape:connector-curvature="0"
     id="path1688"
     style="font-size:10.59997368px;font-family:Arial;text-anchor:end;fill:#000000;stroke-width:1.33333004;text-rendering:geometricPrecision"
     d="m 280.70369,108.76373 v -7.58767 h 0.93164 v 2.72245 q 0.65214,-0.75566 1.64589,-0.75566 0.61074,0 1.06103,0.24326 0.45029,0.23808 0.6418,0.6625 0.19668,0.42441 0.19668,1.23183 v 3.48329 h -0.93164 v -3.48329 q 0,-0.69873 -0.30537,-1.01445 -0.3002,-0.3209 -0.854,-0.3209 -0.41407,0 -0.78154,0.21738 -0.36231,0.21221 -0.51758,0.57969 -0.15527,0.36748 -0.15527,1.01445 v 3.00712 z" />
  <path
     style="fill:#000000;fill-rule:evenodd;stroke:#000000;stroke-width:0;stroke-linejoin:miter;shape-rendering:geometricPrecision"
     inkscape:connector-curvature="0"
     id="path109"
     d="m 293.45199,113.36371 v 0 l 1.04,1.37333 0.97333,1.30666 -9.13331,-8.03998 0.22667,-0.25333 0.21333,-0.26667 z" />
  <path
     inkscape:connector-curvature="0"
     id="path1691"
     style="font-size:10.59997368px;font-family:Arial;text-anchor:end;fill:#000000;stroke-width:1.33333004;text-rendering:geometricPrecision"
     d="m 288.14098,87.030441 v -7.587676 h 2.84667 q 0.86953,0 1.39229,0.232909 0.52792,0.227734 0.82294,0.709081 0.3002,0.47617 0.3002,0.998923 0,0.486522 -0.26397,0.916111 -0.26396,0.429589 -0.79707,0.693553 0.68838,0.201855 1.05586,0.688377 0.37266,0.486522 0.37266,1.149021 0,0.533104 -0.22774,0.993747 -0.22256,0.455468 -0.5538,0.703905 -0.33125,0.248437 -0.8333,0.377831 -0.49688,0.124218 -1.22148,0.124218 z m 1.0041,-4.399403 h 1.64072 q 0.66767,0 0.95752,-0.08799 0.383,-0.113867 0.57451,-0.377831 0.19668,-0.263964 0.19668,-0.662498 0,-0.377831 -0.18116,-0.662499 -0.18115,-0.289843 -0.51757,-0.393358 -0.33643,-0.108691 -1.1542,-0.108691 h -1.5165 z m 0,3.503995 h 1.88916 q 0.48652,0 0.6832,-0.03623 0.34677,-0.06211 0.57968,-0.207031 0.23291,-0.144921 0.38301,-0.419237 0.1501,-0.279491 0.1501,-0.641795 0,-0.424413 -0.21739,-0.734959 -0.21738,-0.315722 -0.60556,-0.439941 -0.38301,-0.129394 -1.10761,-0.129394 h -1.75459 z" />
  <path
     inkscape:connector-curvature="0"
     id="path1693"
     style="font-size:10.59997368px;font-family:Arial;text-anchor:end;fill:#000000;stroke-width:1.33333004;text-rendering:geometricPrecision"
     d="m 295.1438,87.030441 v -5.496666 h 0.83847 v 0.781541 q 0.60556,-0.905759 1.74941,-0.905759 0.49687,0 0.91093,0.181152 0.41924,0.175976 0.62627,0.465819 0.20703,0.289843 0.28985,0.688377 0.0517,0.258788 0.0517,0.90576 v 3.379776 h -0.93163 v -3.343546 q 0,-0.569335 -0.1087,-0.848826 -0.10869,-0.284667 -0.38818,-0.450292 -0.27431,-0.1708 -0.64697,-0.1708 -0.59521,0 -1.02998,0.377831 -0.42959,0.377831 -0.42959,1.433688 v 3.001945 z" />
  <path
     inkscape:connector-curvature="0"
     id="path1695"
     style="font-size:10.59997368px;font-family:Arial;text-anchor:end;fill:#000000;stroke-width:1.33333004;text-rendering:geometricPrecision"
     d="m 300.85784,83.334943 q 0,-1.889156 1.01445,-2.955364 1.01446,-1.071384 2.61894,-1.071384 1.05068,0 1.89433,0.502049 0.84365,0.50205 1.2836,1.402634 0.44511,0.895408 0.44511,2.034077 0,1.154196 -0.46582,2.065131 -0.46582,0.910935 -1.31982,1.38193 -0.854,0.465819 -1.84257,0.465819 -1.07139,0 -1.91504,-0.517576 -0.84365,-0.517577 -1.27841,-1.412985 -0.43477,-0.895408 -0.43477,-1.894331 z m 1.03516,0.01553 q 0,1.371579 0.73496,2.163471 0.74013,0.786717 1.85292,0.786717 1.1335,0 1.86328,-0.797068 0.73496,-0.797069 0.73496,-2.261811 0,-0.926463 -0.31572,-1.61484 -0.31055,-0.693553 -0.91612,-1.071384 -0.60038,-0.383007 -1.35087,-0.383007 -1.06621,0 -1.8374,0.734959 -0.76601,0.729784 -0.76601,2.442963 z" />
  <path
     style="fill:#000000;fill-rule:evenodd;stroke:#000000;stroke-width:0;stroke-linejoin:miter;shape-rendering:geometricPrecision"
     inkscape:connector-curvature="0"
     id="path119"
     d="m 313.79861,94.843755 v 0 l -0.18667,0.346665 -0.38666,0.08 -5.97332,-5.973318 1.28,-0.946665 1.27999,-0.946664 z" />
  <path
     inkscape:connector-curvature="0"
     id="path1698"
     style="font-size:10.59997368px;font-family:Arial;text-anchor:start;fill:#000000;stroke-width:1.33333004;text-rendering:geometricPrecision"
     d="m 6.7401343,180.37686 v -7.58767 h 1.0299779 l 3.9853418,5.9573 v -5.9573 h 0.962693 v 7.58767 h -1.029978 l -3.9853417,-5.96248 v 5.96248 z" />
  <path
     inkscape:connector-curvature="0"
     id="path1700"
     style="font-size:10.59997368px;font-family:Arial;text-anchor:start;fill:#000000;stroke-width:1.33333004;text-rendering:geometricPrecision"
     d="m 6.7815405,189.96454 v -7.58768 h 1.004099 v 3.11581 h 3.9439355 v -3.11581 h 1.004099 v 7.58768 h -1.004099 v -3.57646 H 7.7856395 v 3.57646 z" />
  <path
     style="fill:#000000;fill-rule:evenodd;stroke:#000000;stroke-width:0;stroke-linejoin:miter;shape-rendering:geometricPrecision"
     inkscape:connector-curvature="0"
     id="path131"
     d="m 1.7193899,152.29692 v 0 l 0.2533327,0.33334 0.2533327,0.33333 -4.5199887,14.15996 -0.399999,0.13334 -0.399999,0.13333 z" />
  <path
     style="fill:#000000;fill-rule:evenodd;stroke:#000000;stroke-width:0;stroke-linejoin:miter;shape-rendering:geometricPrecision"
     inkscape:connector-curvature="0"
     id="path135"
     d="m -3.0939314,167.39022 v 0 l 0.399999,-0.13333 0.399999,-0.13334 7.9333135,5.71999 -0.1999995,0.26667 -0.1866662,0.27999 z" />
  <path
     style="fill:#000000;fill-rule:evenodd;stroke:#000000;stroke-width:0;stroke-linejoin:miter;shape-rendering:geometricPrecision"
     inkscape:connector-curvature="0"
     id="path139"
     d="m 14.319358,173.29687 v 0 l -0.199999,-0.28 -0.2,-0.26666 7.813314,-5.74666 0.399999,0.13334 0.399999,0.13333 z" />
  <path
     style="fill:#000000;fill-rule:evenodd;stroke:#000000;stroke-width:0;stroke-linejoin:miter;shape-rendering:geometricPrecision"
     inkscape:connector-curvature="0"
     id="path143"
     d="m 22.532671,167.27022 v 0 l -0.399999,-0.13333 -0.399999,-0.13334 -4.653321,-14.09329 0.239999,-0.34667 0.239999,-0.34667 z" />
  <path
     style="fill:#000000;fill-rule:evenodd;stroke:#000000;stroke-width:0;stroke-linejoin:miter;shape-rendering:geometricPrecision"
     inkscape:connector-curvature="0"
     id="path147"
     d="m 17.55935,152.21692 v 0 l -0.239999,0.34667 -0.239999,0.34667 -14.8532967,0.0533 -0.2533327,-0.33333 -0.2533327,-0.33334 z" />
  <path
     inkscape:connector-curvature="0"
     id="path1703"
     style="font-size:10.59997368px;font-family:Arial;text-anchor:start;fill:#000000;stroke-width:1.33333004;text-rendering:geometricPrecision"
     d="m 33.125045,172.28137 q 0,-1.88916 1.014451,-2.95536 1.01445,-1.07139 2.618939,-1.07139 1.050681,0 1.894331,0.50205 0.84365,0.50205 1.28359,1.40263 0.445117,0.89541 0.445117,2.03408 0,1.1542 -0.46582,2.06513 -0.465819,0.91094 -1.319821,1.38193 -0.854001,0.46582 -1.842573,0.46582 -1.071384,0 -1.915034,-0.51757 -0.843651,-0.51758 -1.278415,-1.41299 -0.434765,-0.89541 -0.434765,-1.89433 z m 1.035154,0.0155 q 0,1.37157 0.734959,2.16347 0.740135,0.78671 1.852925,0.78671 1.133493,0 1.863277,-0.79706 0.734959,-0.79707 0.734959,-2.26181 0,-0.92647 -0.315722,-1.61484 -0.310546,-0.69356 -0.916111,-1.07139 -0.600389,-0.38301 -1.350876,-0.38301 -1.066208,0 -1.837397,0.73496 -0.766014,0.72979 -0.766014,2.44297 z" />
  <path
     style="stroke:#000000;stroke-width:0.67999828;shape-rendering:auto"
     d="m 22.546005,165.81689 9.479977,3.02666"
     id="line157"
     inkscape:connector-curvature="0" />
  <path
     style="fill:#000000;fill-rule:evenodd;stroke:#000000;stroke-width:0;stroke-linejoin:miter;shape-rendering:geometricPrecision"
     inkscape:connector-curvature="0"
     id="path159"
     d="m 21.492674,168.03022 v 0 l -0.679998,0.49333 10.266641,3.27999 0.199999,-0.65333 z" />
  <path
     style="fill:#000000;fill-rule:evenodd;stroke:#000000;stroke-width:0;stroke-linejoin:miter;shape-rendering:geometricPrecision"
     inkscape:connector-curvature="0"
     id="path161"
     d="m 21.866006,165.24356 v 0 l 0.266666,0.8 9.786642,3.11999 0.2,-0.64 z" />
  <path
     style="fill:#000000;fill-rule:evenodd;stroke:#000000;stroke-width:0;stroke-linejoin:miter;shape-rendering:geometricPrecision"
     inkscape:connector-curvature="0"
     id="path165"
     d="m -2.8005988,166.93689 v 0 l 0.2133328,0.64 -0.6266651,0.26666 -0.2533327,-0.74666 z" />
  <path
     style="fill:#000000;fill-rule:evenodd;stroke:#000000;stroke-width:0;stroke-linejoin:miter;shape-rendering:geometricPrecision"
     inkscape:connector-curvature="0"
     id="path167"
     d="m -5.653925,167.63022 v 0 l 0.3599991,1.09333 -0.6266651,0.26667 -0.399999,-1.2 z" />
  <path
     style="fill:#000000;fill-rule:evenodd;stroke:#000000;stroke-width:0;stroke-linejoin:miter;shape-rendering:geometricPrecision"
     inkscape:connector-curvature="0"
     id="path169"
     d="m -8.5205845,168.31022 v 0 l 0.5066654,1.55999 -0.6266651,0.26667 -0.5466653,-1.66666 z" />
  <path
     style="fill:#000000;fill-rule:evenodd;stroke:#000000;stroke-width:0;stroke-linejoin:miter;shape-rendering:geometricPrecision"
     inkscape:connector-curvature="0"
     id="path171"
     d="m -11.387244,169.00355 v 0 l 0.666665,2.01333 -0.626665,0.26666 -0.693332,-2.11999 z" />
  <path
     style="fill:#000000;fill-rule:evenodd;stroke:#000000;stroke-width:0;stroke-linejoin:miter;shape-rendering:geometricPrecision"
     inkscape:connector-curvature="0"
     id="path173"
     d="m -14.24057,169.69688 v 0 l 0.813331,2.46666 -0.626665,0.25333 -0.853331,-2.55999 z" />
  <path
     style="fill:#000000;fill-rule:evenodd;stroke:#000000;stroke-width:0;stroke-linejoin:miter;shape-rendering:geometricPrecision"
     inkscape:connector-curvature="0"
     id="path175"
     d="m -17.10723,170.39021 v 0 l 0.959998,2.90666 -0.626665,0.26667 -0.986664,-3.01333 z" />
  <path
     inkscape:connector-curvature="0"
     id="path1707"
     style="font-size:10.59997368px;font-family:Arial;text-anchor:end;fill:#000000;stroke-width:1.33333004;text-rendering:geometricPrecision"
     d="m -47.236374,166.01689 v -7.58767 h 2.846673 q 0.869529,0 1.392281,0.2329 0.527929,0.22774 0.822947,0.70908 0.300195,0.47618 0.300195,0.99893 0,0.48652 -0.263964,0.91611 -0.263964,0.42959 -0.797069,0.69355 0.688378,0.20186 1.055857,0.68838 0.372655,0.48652 0.372655,1.14902 0,0.5331 -0.227733,0.99375 -0.222558,0.45547 -0.553808,0.7039 -0.331249,0.24844 -0.833298,0.37783 -0.496874,0.12422 -1.221482,0.12422 z m 1.004099,-4.3994 h 1.640719 q 0.667674,0 0.957517,-0.088 0.383007,-0.11387 0.57451,-0.37783 0.196679,-0.26397 0.196679,-0.6625 0,-0.37783 -0.181152,-0.6625 -0.181152,-0.28984 -0.517577,-0.39336 -0.336425,-0.10869 -1.154196,-0.10869 h -1.5165 z m 0,3.50399 h 1.889155 q 0.486523,0 0.683202,-0.0362 0.346776,-0.0621 0.579686,-0.20703 0.232909,-0.14492 0.383007,-0.41923 0.150097,-0.2795 0.150097,-0.6418 0,-0.42441 -0.217382,-0.73496 -0.217382,-0.31572 -0.605565,-0.43994 -0.383007,-0.12939 -1.107615,-0.12939 h -1.754585 z" />
  <path
     inkscape:connector-curvature="0"
     id="path1709"
     style="font-size:10.59997368px;font-family:Arial;text-anchor:end;fill:#000000;stroke-width:1.33333004;text-rendering:geometricPrecision"
     d="m -36.631225,166.01689 v -0.80742 q -0.641795,0.93164 -1.744234,0.93164 -0.486522,0 -0.910935,-0.18633 -0.419237,-0.18633 -0.626268,-0.46582 -0.201855,-0.28466 -0.284667,-0.69355 -0.05693,-0.27432 -0.05693,-0.86953 v -3.40565 h 0.931639 v 3.04852 q 0,0.72979 0.05693,0.9834 0.08799,0.36748 0.372655,0.57969 0.284668,0.20703 0.703905,0.20703 0.419237,0 0.786717,-0.21221 0.367479,-0.21738 0.517577,-0.58486 0.155273,-0.37266 0.155273,-1.07656 v -2.94501 h 0.931638 v 5.49666 z" />
  <path
     inkscape:connector-curvature="0"
     id="path1711"
     style="font-size:10.59997368px;font-family:Arial;text-anchor:end;fill:#000000;stroke-width:1.33333004;text-rendering:geometricPrecision"
     d="m -34.519511,162.32139 q 0,-1.88915 1.014451,-2.95536 1.01445,-1.07138 2.618938,-1.07138 1.050681,0 1.894332,0.50204 0.84365,0.50205 1.28359,1.40264 0.445116,0.89541 0.445116,2.03407 0,1.1542 -0.465819,2.06514 -0.465819,0.91093 -1.319821,1.38193 -0.854002,0.46582 -1.842573,0.46582 -1.071384,0 -1.915035,-0.51758 -0.84365,-0.51758 -1.278414,-1.41299 -0.434765,-0.8954 -0.434765,-1.89433 z m 1.035154,0.0155 q 0,1.37158 0.734959,2.16347 0.740135,0.78672 1.852925,0.78672 1.133493,0 1.863277,-0.79707 0.734959,-0.79707 0.734959,-2.26181 0,-0.92646 -0.315722,-1.61484 -0.310546,-0.69355 -0.916111,-1.07138 -0.600389,-0.38301 -1.350876,-0.38301 -1.066208,0 -1.837398,0.73496 -0.766013,0.72978 -0.766013,2.44296 z" />
  <path
     inkscape:connector-curvature="0"
     id="path1713"
     style="font-style:italic;font-size:7.94998026px;font-family:Arial;text-anchor:end;fill:#000000;stroke-width:1.33333004;text-rendering:geometricPrecision"
     d="m -48.700851,161.12627 -0.116455,0.57451 q -0.252318,0.066 -0.48911,0.066 -0.419237,0 -0.667674,-0.20574 -0.186328,-0.15527 -0.186328,-0.42312 0,-0.13586 0.100928,-0.62497 l 0.500755,-2.39509 h -0.555101 l 0.112573,-0.54346 h 0.555101 l 0.213501,-1.01315 0.803538,-0.48523 -0.314428,1.49838 h 0.690965 l -0.116455,0.54346 h -0.687083 l -0.477465,2.27863 q -0.08928,0.43477 -0.08928,0.52017 0,0.12421 0.06987,0.1902 0.07376,0.066 0.236792,0.066 0.232909,0 0.415355,-0.0466 z" />
  <path
     style="fill:#000000;fill-rule:evenodd;stroke:#000000;stroke-width:0;stroke-linejoin:miter;shape-rendering:geometricPrecision"
     inkscape:connector-curvature="0"
     id="path188"
     d="m -17.040563,171.80354 v 0 l -0.226666,0.25333 -0.226666,0.25334 -8.719979,-7.77332 0.226667,-0.25333 0.226666,-0.25333 z" />
  <path
     style="stroke:#000000;stroke-width:0.67999828;shape-rendering:auto"
     d="M 242.14546,167.89688 H 61.21257"
     id="line192"
     inkscape:connector-curvature="0" />
  <path
     style="fill:#000000;fill-rule:evenodd;stroke:#000000;stroke-width:0;stroke-linejoin:miter;stroke-miterlimit:5.89496231;shape-rendering:geometricPrecision"
     inkscape:connector-curvature="0"
     id="path194"
     stroke-miterlimit="5.89496254687632"
     d="m 246.75878,167.89689 -6.79999,-1.70667 c 1.42667,0.96 1.42667,2.45333 0,3.41333 z" />
  <path
     inkscape:connector-curvature="0"
     id="path1717"
     style="font-size:10.59997368px;font-family:Arial;text-anchor:middle;fill:#000000;stroke-width:1.33333004;text-rendering:geometricPrecision"
     d="m 93.214533,162.57689 h -0.931639 v -5.93661 q -0.336425,0.3209 -0.885056,0.6418 -0.543456,0.3209 -0.97822,0.48134 v -0.90058 q 0.781541,-0.36748 1.366402,-0.89023 0.584862,-0.52275 0.828123,-1.01445 h 0.60039 z" />
  <path
     inkscape:connector-curvature="0"
     id="path1719"
     style="font-size:10.59997368px;font-family:Arial;text-anchor:middle;fill:#000000;stroke-width:1.33333004;text-rendering:geometricPrecision"
     d="m 96.475267,164.80765 h -0.667675 q 1.547555,-2.48437 1.547555,-4.97392 0,-0.97304 -0.222558,-1.93056 -0.175976,-0.77637 -0.491698,-1.49062 -0.201855,-0.46582 -0.833299,-1.55273 h 0.667675 q 0.973044,1.29912 1.438863,2.60859 0.398534,1.12831 0.398534,2.36015 0,1.39745 -0.53828,2.70175 -0.533104,1.30429 -1.299117,2.27734 z" />
  <path
     inkscape:connector-curvature="0"
     id="path1721"
     style="font-size:10.59997368px;font-family:Arial;text-anchor:middle;fill:#009d73;stroke-width:1.33333004;text-rendering:geometricPrecision"
     d="m 107.87748,159.91654 1.0041,0.25362 q -0.31572,1.23701 -1.13867,1.88915 -0.81777,0.64697 -2.00302,0.64697 -1.22666,0 -1.99784,-0.49687 -0.76602,-0.50205 -1.16973,-1.44922 -0.39853,-0.94716 -0.39853,-2.03407 0,-1.18525 0.45029,-2.06513 0.45547,-0.88506 1.28877,-1.34053 0.83847,-0.46064 1.84257,-0.46064 1.13867,0 1.91503,0.57968 0.77637,0.57969 1.08174,1.63037 l -0.98857,0.23291 q -0.26397,-0.82812 -0.76602,-1.20595 -0.50205,-0.37783 -1.26288,-0.37783 -0.87471,0 -1.46475,0.41923 -0.58486,0.41924 -0.82294,1.12832 -0.23809,0.70391 -0.23809,1.45439 0,0.96787 0.27949,1.69248 0.28467,0.71943 0.87988,1.07656 0.59522,0.35713 1.28877,0.35713 0.84365,0 1.42851,-0.48653 0.58486,-0.48652 0.79189,-1.44404 z" />
  <path
     inkscape:connector-curvature="0"
     id="path1723"
     style="font-size:10.59997368px;font-family:Arial;text-anchor:middle;fill:#009d73;stroke-width:1.33333004;text-rendering:geometricPrecision"
     d="m 110.00473,164.68343 v -7.60321 h 0.84882 v 0.71426 q 0.3002,-0.41924 0.67803,-0.62627 0.37783,-0.21221 0.91611,-0.21221 0.7039,0 1.24218,0.36231 0.53828,0.3623 0.8126,1.0248 0.27431,0.65732 0.27431,1.44404 0,0.84365 -0.30537,1.52168 -0.30019,0.67285 -0.87988,1.03515 -0.57451,0.35713 -1.21113,0.35713 -0.46582,0 -0.83847,-0.19668 -0.36748,-0.19668 -0.60557,-0.49688 v 2.67588 z m 0.84365,-4.82382 q 0,1.06103 0.42958,1.56826 0.42959,0.50722 1.04033,0.50722 0.6211,0 1.06104,-0.52275 0.44511,-0.52793 0.44511,-1.63037 0,-1.05068 -0.43476,-1.57343 -0.42959,-0.52275 -1.02998,-0.52275 -0.59521,0 -1.05586,0.55898 -0.45546,0.55381 -0.45546,1.61484 z" />
  <path
     inkscape:connector-curvature="0"
     id="path1725"
     style="font-size:7.94998026px;font-family:Arial;text-anchor:middle;fill:#009d73;stroke-width:1.33333004;text-rendering:geometricPrecision"
     d="m 119.20853,164.30533 v 0.67155 h -3.76149 q -0.008,-0.25232 0.0815,-0.48523 0.14363,-0.3843 0.45806,-0.75695 0.31831,-0.37266 0.91611,-0.86177 0.92776,-0.76083 1.25383,-1.20336 0.32607,-0.44641 0.32607,-0.84236 0,-0.41535 -0.2989,-0.69873 -0.29502,-0.28725 -0.77248,-0.28725 -0.50464,0 -0.80742,0.30278 -0.30278,0.30278 -0.30667,0.83847 l -0.71813,-0.0738 q 0.0738,-0.80354 0.5551,-1.22278 0.48134,-0.42312 1.29265,-0.42312 0.81906,0 1.29653,0.45418 0.47746,0.45417 0.47746,1.12573 0,0.3416 -0.13974,0.67155 -0.13975,0.32996 -0.46582,0.69485 -0.3222,0.36489 -1.07527,1.00151 -0.62886,0.52793 -0.80742,0.71814 -0.17856,0.18633 -0.29502,0.37654 z" />
  <path
     inkscape:connector-curvature="0"
     id="path1727"
     style="font-size:10.59997368px;font-family:Arial;text-anchor:middle;fill:#009d73;stroke-width:1.33333004;text-rendering:geometricPrecision"
     d="m 119.84386,162.57689 v -0.93164 l 3.887,-4.86005 q 0.41407,-0.51757 0.78672,-0.90058 h -4.23378 v -0.89541 h 5.43456 v 0.89541 l -4.25966,5.26376 -0.46064,0.5331 h 4.84452 v 0.89541 z" />
  <path
     inkscape:connector-curvature="0"
     id="path1729"
     style="font-size:10.59997368px;font-family:Arial;text-anchor:middle;fill:#009d73;stroke-width:1.33333004;text-rendering:geometricPrecision"
     d="m 126.80009,162.57689 v -5.49667 h 0.83848 v 0.8333 q 0.3209,-0.58486 0.59003,-0.77119 0.27432,-0.18633 0.60039,-0.18633 0.471,0 0.95752,0.3002 l -0.3209,0.86435 q -0.3416,-0.20185 -0.6832,-0.20185 -0.30537,0 -0.54863,0.18633 -0.24326,0.18115 -0.34678,0.50722 -0.15527,0.49687 -0.15527,1.08691 v 2.87773 z" />
  <path
     inkscape:connector-curvature="0"
     id="path1731"
     style="font-size:10.59997368px;font-family:Arial;text-anchor:middle;fill:#009d73;stroke-width:1.33333004;text-rendering:geometricPrecision"
     d="m 132.13113,164.80765 q -0.77118,-0.97305 -1.30429,-2.27734 -0.5331,-1.3043 -0.5331,-2.70175 0,-1.23184 0.39853,-2.36015 0.46582,-1.30947 1.43886,-2.60859 h 0.66768 q -0.62627,1.07656 -0.82812,1.5372 -0.31573,0.71426 -0.49688,1.49062 -0.22256,0.96787 -0.22256,1.94609 0,2.48955 1.54756,4.97392 z" />
  <path
     inkscape:connector-curvature="0"
     id="path1733"
     style="font-size:10.59997368px;font-family:Arial;text-anchor:middle;fill:#009d73;stroke-width:1.33333004;text-rendering:geometricPrecision"
     d="m 134.04099,162.57689 v -7.58768 h 1.0041 v 3.11582 h 3.94394 v -3.11582 h 1.0041 v 7.58768 h -1.0041 v -3.57646 h -3.94394 v 3.57646 z" />
  <path
     inkscape:connector-curvature="0"
     id="path1735"
     style="font-size:10.59997368px;font-family:Arial;text-anchor:middle;fill:#009d73;stroke-width:1.33333004;text-rendering:geometricPrecision"
     d="m 142.16177,164.80765 h -0.66767 q 1.54755,-2.48437 1.54755,-4.97392 0,-0.97304 -0.22255,-1.93056 -0.17598,-0.77637 -0.4917,-1.49062 -0.20186,-0.46582 -0.8333,-1.55273 h 0.66767 q 0.97305,1.29912 1.43887,2.60859 0.39853,1.12831 0.39853,2.36015 0,1.39745 -0.53828,2.70175 -0.5331,1.30429 -1.29912,2.27734 z" />
  <path
     inkscape:connector-curvature="0"
     id="path1737"
     style="font-size:10.59997368px;font-family:Arial;text-anchor:middle;fill:#009d73;stroke-width:1.33333004;text-rendering:geometricPrecision"
     d="m 150.62416,159.91654 1.0041,0.25362 q -0.31573,1.23701 -1.13867,1.88915 -0.81778,0.64697 -2.00303,0.64697 -1.22665,0 -1.99784,-0.49687 -0.76602,-0.50205 -1.16973,-1.44922 -0.39853,-0.94716 -0.39853,-2.03407 0,-1.18525 0.45029,-2.06513 0.45547,-0.88506 1.28877,-1.34053 0.83847,-0.46064 1.84257,-0.46064 1.13867,0 1.91504,0.57968 0.77636,0.57969 1.08173,1.63037 l -0.98857,0.23291 q -0.26397,-0.82812 -0.76601,-1.20595 -0.50205,-0.37783 -1.26289,-0.37783 -0.87471,0 -1.46474,0.41923 -0.58487,0.41924 -0.82295,1.12832 -0.23809,0.70391 -0.23809,1.45439 0,0.96787 0.27949,1.69248 0.28467,0.71943 0.87988,1.07656 0.59522,0.35713 1.28877,0.35713 0.84365,0 1.42851,-0.48653 0.58487,-0.48652 0.7919,-1.44404 z" />
  <path
     inkscape:connector-curvature="0"
     id="path1739"
     style="font-size:10.59997368px;font-family:Arial;text-anchor:middle;fill:#009d73;stroke-width:1.33333004;text-rendering:geometricPrecision"
     d="m 152.73069,162.57689 v -7.58768 h 0.93164 v 7.58768 z" />
  <path
     inkscape:connector-curvature="0"
     id="path1741"
     style="font-size:10.59997368px;font-family:Arial;text-anchor:middle;fill:#000000;stroke-width:1.33333004;text-rendering:geometricPrecision"
     d="m 155.35481,158.14126 v -1.06104 h 1.06103 v 1.06104 z m 0,4.43563 v -1.06103 h 1.06103 v 1.06103 q 0,0.58486 -0.20703,0.94199 -0.20703,0.3623 -0.65732,0.55898 l -0.25879,-0.39853 q 0.29502,-0.1294 0.43477,-0.38301 0.13974,-0.24844 0.15527,-0.71943 z" />
  <path
     inkscape:connector-curvature="0"
     id="path1743"
     style="font-size:10.59997368px;font-family:Arial;text-anchor:middle;fill:#000000;stroke-width:1.33333004;text-rendering:geometricPrecision"
     d="m 165.62871,161.68148 v 0.89541 h -5.01532 q -0.0104,-0.33643 0.10869,-0.64697 0.1915,-0.5124 0.61074,-1.00928 0.42441,-0.49687 1.22148,-1.14902 1.23701,-1.01445 1.67177,-1.60449 0.43477,-0.59521 0.43477,-1.12314 0,-0.5538 -0.39854,-0.93164 -0.39335,-0.383 -1.02997,-0.383 -0.67285,0 -1.07656,0.40371 -0.40371,0.40371 -0.40889,1.11796 l -0.95752,-0.0983 q 0.0983,-1.07138 0.74014,-1.63036 0.64179,-0.56416 1.72353,-0.56416 1.09209,0 1.72871,0.60556 0.63662,0.60557 0.63662,1.50098 0,0.45546 -0.18633,0.8954 -0.18633,0.43994 -0.62109,0.92647 -0.42959,0.48652 -1.43369,1.33534 -0.83848,0.70391 -1.07656,0.95752 -0.23809,0.24844 -0.39336,0.50205 z" />
  <path
     inkscape:connector-curvature="0"
     id="path1745"
     style="font-size:10.59997368px;font-family:Arial;text-anchor:middle;fill:#000000;stroke-width:1.33333004;text-rendering:geometricPrecision"
     d="m 167.50234,164.80765 h -0.66768 q 1.54756,-2.48437 1.54756,-4.97392 0,-0.97304 -0.22256,-1.93056 -0.17598,-0.77637 -0.4917,-1.49062 -0.20186,-0.46582 -0.8333,-1.55273 h 0.66768 q 0.97304,1.29912 1.43886,2.60859 0.39853,1.12831 0.39853,2.36015 0,1.39745 -0.53828,2.70175 -0.5331,1.30429 -1.29911,2.27734 z" />
  <path
     inkscape:connector-curvature="0"
     id="path1747"
     style="font-size:10.59997368px;font-family:Arial;text-anchor:middle;fill:#cc78a6;stroke-width:1.33333004;text-rendering:geometricPrecision"
     d="m 173.48035,162.57689 v -7.58768 h 1.02998 l 3.98534,5.95731 v -5.95731 h 0.96269 v 7.58768 h -1.02998 l -3.98534,-5.96249 v 5.96249 z" />
  <path
     inkscape:connector-curvature="0"
     id="path1749"
     style="font-size:10.59997368px;font-family:Arial;text-anchor:middle;fill:#cc78a6;stroke-width:1.33333004;text-rendering:geometricPrecision"
     d="m 184.6186,161.89886 q -0.51758,0.43994 -0.99892,0.6211 -0.47617,0.18115 -1.02481,0.18115 -0.90576,0 -1.39228,-0.43994 -0.48652,-0.44512 -0.48652,-1.1335 0,-0.40371 0.18115,-0.73496 0.18633,-0.33642 0.48135,-0.53828 0.30019,-0.20185 0.67285,-0.30537 0.27431,-0.0725 0.82812,-0.13974 1.12832,-0.13457 1.66142,-0.3209 0.005,-0.1915 0.005,-0.24326 0,-0.56933 -0.26397,-0.80224 -0.35712,-0.31573 -1.06103,-0.31573 -0.65732,0 -0.97304,0.23291 -0.31055,0.22774 -0.46065,0.8126 l -0.91093,-0.12422 q 0.12422,-0.58486 0.40888,-0.94199 0.28467,-0.3623 0.82295,-0.55381 0.53828,-0.19668 1.24736,-0.19668 0.70391,0 1.14385,0.16563 0.43994,0.16562 0.64697,0.41924 0.20703,0.24843 0.28984,0.63144 0.0466,0.23809 0.0466,0.85918 v 1.24218 q 0,1.29912 0.0569,1.6459 0.0621,0.3416 0.23808,0.65732 h -0.97304 q -0.14492,-0.28984 -0.18633,-0.67803 z m -0.0776,-2.08066 q -0.50722,0.20704 -1.52167,0.35196 -0.57451,0.0828 -0.8126,0.18632 -0.23808,0.10352 -0.36748,0.30537 -0.12939,0.19668 -0.12939,0.43995 0,0.37265 0.27949,0.62109 0.28467,0.24843 0.82812,0.24843 0.53828,0 0.95752,-0.23291 0.41924,-0.23808 0.61592,-0.64697 0.15009,-0.31572 0.15009,-0.93163 z" />
  <path
     inkscape:connector-curvature="0"
     id="path1751"
     style="font-size:10.59997368px;font-family:Arial;text-anchor:middle;fill:#cc78a6;stroke-width:1.33333004;text-rendering:geometricPrecision"
     d="m 187.0098,162.57689 v -7.58768 h 2.84668 q 0.86953,0 1.39228,0.23291 0.52793,0.22774 0.82295,0.70908 0.30019,0.47617 0.30019,0.99893 0,0.48652 -0.26396,0.91611 -0.26397,0.42959 -0.79707,0.69355 0.68837,0.20185 1.05585,0.68838 0.37266,0.48652 0.37266,1.14902 0,0.5331 -0.22773,0.99375 -0.22256,0.45546 -0.55381,0.7039 -0.33125,0.24844 -0.8333,0.37783 -0.49687,0.12422 -1.22148,0.12422 z m 1.0041,-4.3994 h 1.64072 q 0.66768,0 0.95752,-0.088 0.38301,-0.11387 0.57451,-0.37783 0.19668,-0.26397 0.19668,-0.6625 0,-0.37783 -0.18115,-0.6625 -0.18116,-0.28984 -0.51758,-0.39336 -0.33643,-0.10869 -1.1542,-0.10869 h -1.5165 z m 0,3.50399 h 1.88916 q 0.48652,0 0.6832,-0.0362 0.34678,-0.0621 0.57969,-0.20703 0.23291,-0.14492 0.383,-0.41924 0.1501,-0.27949 0.1501,-0.64179 0,-0.42442 -0.21738,-0.73496 -0.21738,-0.31572 -0.60557,-0.43994 -0.383,-0.1294 -1.10761,-0.1294 h -1.75459 z" />
  <path
     inkscape:connector-curvature="0"
     id="path1753"
     style="font-size:10.59997368px;font-family:Arial;text-anchor:middle;fill:#cc78a6;stroke-width:1.33333004;text-rendering:geometricPrecision"
     d="m 194.16272,162.57689 v -7.58768 h 1.0041 v 3.11582 h 3.94393 v -3.11582 h 1.0041 v 7.58768 h -1.0041 v -3.57646 h -3.94393 v 3.57646 z" />
  <path
     inkscape:connector-curvature="0"
     id="path1755"
     style="font-size:7.94998026px;font-family:Arial;text-anchor:middle;fill:#cc78a6;stroke-width:1.33333004;text-rendering:geometricPrecision"
     d="m 203.5438,164.97688 v -1.36252 h -2.46884 v -0.6405 l 2.59694,-3.68773 h 0.57063 v 3.68773 h 0.7686 v 0.6405 h -0.7686 v 1.36252 z m 0,-2.00302 v -2.56589 l -1.78176,2.56589 z" />
  <path
     inkscape:connector-curvature="0"
     id="path1758"
     style="font-size:10.59997368px;font-family:Arial;text-anchor:start;fill:#000000;stroke-width:1.33333004;text-rendering:geometricPrecision"
     d="m 315.41936,180.91017 v -7.58767 h 1.02998 l 3.98534,5.9573 v -5.9573 h 0.96269 v 7.58767 h -1.02998 l -3.98534,-5.96248 v 5.96248 z" />
  <path
     inkscape:connector-curvature="0"
     id="path1760"
     style="font-size:10.59997368px;font-family:Arial;text-anchor:start;fill:#000000;stroke-width:1.33333004;text-rendering:geometricPrecision"
     d="m 315.46076,190.49784 v -7.58767 h 1.0041 v 3.11581 h 3.94394 v -3.11581 h 1.0041 v 7.58767 h -1.0041 v -3.57645 h -3.94394 v 3.57645 z" />
  <path
     style="fill:#000000;fill-rule:evenodd;stroke:#000000;stroke-width:0;stroke-linejoin:miter;shape-rendering:geometricPrecision"
     inkscape:connector-curvature="0"
     id="path223"
     d="m 310.41195,152.81692 v 0 l 0.25333,0.33334 0.25334,0.33333 -4.53333,14.15996 -0.39999,0.13334 -0.4,0.13333 z" />
  <path
     style="fill:#000000;fill-rule:evenodd;stroke:#000000;stroke-width:0;stroke-linejoin:miter;shape-rendering:geometricPrecision"
     inkscape:connector-curvature="0"
     id="path227"
     d="m 305.5853,167.91022 v 0 l 0.4,-0.13333 0.39999,-0.13334 7.91999,5.70665 -0.2,0.28 -0.18667,0.26667 z" />
  <path
     style="fill:#000000;fill-rule:evenodd;stroke:#000000;stroke-width:0;stroke-linejoin:miter;shape-rendering:geometricPrecision"
     inkscape:connector-curvature="0"
     id="path231"
     d="m 323.11859,173.72354 v 0 l -0.2,-0.26667 -0.2,-0.28 7.69331,-5.63998 0.4,0.13333 -0.04,0.44 z" />
  <path
     style="fill:#000000;fill-rule:evenodd;stroke:#000000;stroke-width:0;stroke-linejoin:miter;shape-rendering:geometricPrecision"
     inkscape:connector-curvature="0"
     id="path235"
     d="m 330.99857,167.16355 v 0 l -0.18667,0.50667 -0.4,-0.13333 -4.63999,-14.0933 0.24,-0.34667 0.24,-0.34666 z" />
  <path
     style="fill:#000000;fill-rule:evenodd;stroke:#000000;stroke-width:0;stroke-linejoin:miter;shape-rendering:geometricPrecision"
     inkscape:connector-curvature="0"
     id="path239"
     d="m 326.25191,152.75026 v 0 l -0.24,0.34666 -0.24,0.34667 -14.85329,0.04 -0.25334,-0.33333 -0.25333,-0.33334 z" />
  <path
     style="fill:#000000;fill-rule:evenodd;stroke:#000000;stroke-width:0;stroke-linejoin:miter;shape-rendering:geometricPrecision"
     inkscape:connector-curvature="0"
     id="path243"
     d="m 305.87863,167.45689 v 0 l 0.21333,0.63999 -0.62666,0.26667 -0.25334,-0.74666 z" />
  <path
     style="fill:#000000;fill-rule:evenodd;stroke:#000000;stroke-width:0;stroke-linejoin:miter;shape-rendering:geometricPrecision"
     inkscape:connector-curvature="0"
     id="path245"
     d="m 303.0253,168.15022 v 0 l 0.36,1.09333 -0.62666,0.26666 -0.4,-1.19999 z" />
  <path
     style="fill:#000000;fill-rule:evenodd;stroke:#000000;stroke-width:0;stroke-linejoin:miter;shape-rendering:geometricPrecision"
     inkscape:connector-curvature="0"
     id="path247"
     d="m 300.15864,168.83022 v 0 l 0.50667,1.55999 -0.62667,0.26667 -0.54666,-1.66666 z" />
  <path
     style="fill:#000000;fill-rule:evenodd;stroke:#000000;stroke-width:0;stroke-linejoin:miter;shape-rendering:geometricPrecision"
     inkscape:connector-curvature="0"
     id="path249"
     d="m 297.29198,169.52355 v 0 l 0.66667,2.01333 -0.62667,0.26666 -0.69333,-2.11999 z" />
  <path
     style="fill:#000000;fill-rule:evenodd;stroke:#000000;stroke-width:0;stroke-linejoin:miter;shape-rendering:geometricPrecision"
     inkscape:connector-curvature="0"
     id="path251"
     d="m 294.43866,170.21688 v 0 l 0.81333,2.46666 -0.62667,0.25333 -0.85333,-2.55999 z" />
  <path
     style="fill:#000000;fill-rule:evenodd;stroke:#000000;stroke-width:0;stroke-linejoin:miter;shape-rendering:geometricPrecision"
     inkscape:connector-curvature="0"
     id="path253"
     d="m 291.572,170.91021 v 0 l 0.96,2.90666 -0.62667,0.26667 -0.98666,-3.01333 z" />
  <path
     style="fill:#000000;fill-rule:evenodd;stroke:#000000;stroke-width:0;stroke-linejoin:miter;shape-rendering:geometricPrecision"
     inkscape:connector-curvature="0"
     id="path257"
     d="m 291.63867,172.32354 v 0 l -0.22667,0.25333 -0.22667,0.25334 -8.59998,-7.69332 0.22667,-0.25333 0.22667,-0.25333 z" />
  <path
     inkscape:connector-curvature="0"
     id="path1763"
     style="font-size:10.59997368px;font-family:Arial;text-anchor:end;fill:#000000;stroke-width:1.33333004;text-rendering:geometricPrecision"
     d="m 261.45618,166.52356 v -7.58768 h 2.84668 q 0.86953,0 1.39228,0.23291 0.52793,0.22774 0.82295,0.70908 0.30019,0.47617 0.30019,0.99893 0,0.48652 -0.26396,0.91611 -0.26397,0.42959 -0.79707,0.69355 0.68837,0.20186 1.05585,0.68838 0.37266,0.48652 0.37266,1.14902 0,0.5331 -0.22773,0.99375 -0.22256,0.45546 -0.55381,0.7039 -0.33125,0.24844 -0.8333,0.37783 -0.49687,0.12422 -1.22148,0.12422 z m 1.0041,-4.3994 h 1.64072 q 0.66768,0 0.95752,-0.088 0.38301,-0.11387 0.57451,-0.37783 0.19668,-0.26397 0.19668,-0.6625 0,-0.37783 -0.18115,-0.6625 -0.18116,-0.28984 -0.51758,-0.39336 -0.33643,-0.10869 -1.1542,-0.10869 h -1.5165 z m 0,3.50399 h 1.88916 q 0.48652,0 0.6832,-0.0362 0.34678,-0.0621 0.57969,-0.20703 0.23291,-0.14492 0.383,-0.41924 0.1501,-0.27949 0.1501,-0.64179 0,-0.42442 -0.21738,-0.73496 -0.21738,-0.31572 -0.60557,-0.43994 -0.383,-0.1294 -1.10761,-0.1294 h -1.75459 z" />
  <path
     inkscape:connector-curvature="0"
     id="path1765"
     style="font-size:10.59997368px;font-family:Arial;text-anchor:end;fill:#000000;stroke-width:1.33333004;text-rendering:geometricPrecision"
     d="m 272.06133,166.52356 v -0.80742 q -0.64179,0.93164 -1.74423,0.93164 -0.48652,0 -0.91094,-0.18633 -0.41923,-0.18633 -0.62626,-0.46582 -0.20186,-0.28467 -0.28467,-0.69355 -0.0569,-0.27432 -0.0569,-0.86953 v -3.40566 h 0.93163 v 3.04853 q 0,0.72978 0.0569,0.9834 0.088,0.36748 0.37265,0.57968 0.28467,0.20703 0.70391,0.20703 0.41923,0 0.78671,-0.2122 0.36748,-0.21738 0.51758,-0.58486 0.15527,-0.37266 0.15527,-1.07656 v -2.94502 h 0.93164 v 5.49667 z" />
  <path
     inkscape:connector-curvature="0"
     id="path1767"
     style="font-size:10.59997368px;font-family:Arial;text-anchor:end;fill:#000000;stroke-width:1.33333004;text-rendering:geometricPrecision"
     d="m 274.17305,162.82806 q 0,-1.88915 1.01445,-2.95536 1.01445,-1.07139 2.61894,-1.07139 1.05068,0 1.89433,0.50205 0.84365,0.50205 1.28359,1.40264 0.44511,0.8954 0.44511,2.03407 0,1.1542 -0.46581,2.06513 -0.46582,0.91094 -1.31983,1.38193 -0.854,0.46582 -1.84257,0.46582 -1.07138,0 -1.91503,-0.51757 -0.84365,-0.51758 -1.27842,-1.41299 -0.43476,-0.89541 -0.43476,-1.89433 z m 1.03515,0.0155 q 0,1.37158 0.73496,2.16347 0.74013,0.78672 1.85293,0.78672 1.13349,0 1.86327,-0.79707 0.73496,-0.79707 0.73496,-2.26181 0,-0.92647 -0.31572,-1.61484 -0.31055,-0.69356 -0.91611,-1.07139 -0.60039,-0.383 -1.35088,-0.383 -1.06621,0 -1.8374,0.73496 -0.76601,0.72978 -0.76601,2.44296 z" />
  <path
     inkscape:connector-curvature="0"
     id="path1769"
     style="font-style:italic;font-size:7.94998026px;font-family:Arial;text-anchor:end;fill:#000000;stroke-width:1.33333004;text-rendering:geometricPrecision"
     d="m 259.99171,161.63294 -0.11646,0.57451 q -0.25232,0.066 -0.48911,0.066 -0.41924,0 -0.66767,-0.20573 -0.18633,-0.15528 -0.18633,-0.42312 0,-0.13587 0.10093,-0.62498 l 0.50075,-2.39508 h -0.5551 l 0.11257,-0.54346 h 0.5551 l 0.21351,-1.01316 0.80353,-0.48522 -0.31442,1.49838 h 0.69096 l -0.11645,0.54346 h -0.68709 l -0.47746,2.27863 q -0.0893,0.43476 -0.0893,0.52016 0,0.12422 0.0699,0.19021 0.0738,0.066 0.23679,0.066 0.23291,0 0.41536,-0.0466 z" />
  <path
     style="stroke:#000000;stroke-width:0.67999828;shape-rendering:auto"
     d="m -15.920566,172.33688 -2.039996,9.87998"
     id="line271"
     inkscape:connector-curvature="0" />
  <path
     style="fill:#000000;fill-rule:evenodd;stroke:#000000;stroke-width:0;stroke-linejoin:miter;shape-rendering:geometricPrecision"
     inkscape:connector-curvature="0"
     id="path273"
     d="m -18.24056,171.64354 v 0 l -0.586665,-0.52 -2.173328,10.45331 0.666665,0.14667 z" />
  <path
     style="fill:#000000;fill-rule:evenodd;stroke:#000000;stroke-width:0;stroke-linejoin:miter;shape-rendering:geometricPrecision"
     inkscape:connector-curvature="0"
     id="path275"
     d="m -15.4939,171.97688 v 0 l -0.733332,0.17333 -2.066661,9.99997 0.666665,0.13334 z" />
  <path
     inkscape:connector-curvature="0"
     id="path1773"
     style="font-size:10.59997368px;font-family:Arial;text-anchor:start;fill:#000000;stroke-width:1.33333004;text-rendering:geometricPrecision"
     d="m -24.008145,187.56134 q 0,-1.88916 1.014451,-2.95537 1.01445,-1.07138 2.618939,-1.07138 1.050681,0 1.894331,0.50205 0.84365,0.50205 1.28359,1.40263 0.445116,0.89541 0.445116,2.03408 0,1.1542 -0.465819,2.06513 -0.465819,0.91094 -1.319821,1.38193 -0.854001,0.46582 -1.842573,0.46582 -1.071384,0 -1.915035,-0.51758 -0.84365,-0.51757 -1.278414,-1.41298 -0.434765,-0.89541 -0.434765,-1.89433 z m 1.035154,0.0155 q 0,1.37158 0.734959,2.16348 0.740135,0.78671 1.852925,0.78671 1.133493,0 1.863277,-0.79707 0.734959,-0.79706 0.734959,-2.26181 0,-0.92646 -0.315722,-1.61484 -0.310546,-0.69355 -0.916111,-1.07138 -0.600389,-0.38301 -1.350876,-0.38301 -1.066208,0 -1.837397,0.73496 -0.766014,0.72979 -0.766014,2.44296 z" />
  <path
     inkscape:connector-curvature="0"
     id="path1776"
     style="font-size:10.59997368px;font-family:Arial;text-anchor:start;fill:#000000;stroke-width:1.33333004;text-rendering:geometricPrecision"
     d="m 284.67109,188.06799 q 0,-1.88916 1.01445,-2.95536 1.01445,-1.07139 2.61894,-1.07139 1.05068,0 1.89433,0.50205 0.84365,0.50205 1.28359,1.40264 0.44512,0.8954 0.44512,2.03407 0,1.1542 -0.46582,2.06513 -0.46582,0.91094 -1.31982,1.38193 -0.854,0.46582 -1.84257,0.46582 -1.07139,0 -1.91504,-0.51757 -0.84365,-0.51758 -1.27841,-1.41299 -0.43477,-0.89541 -0.43477,-1.89433 z m 1.03516,0.0155 q 0,1.37158 0.73496,2.16347 0.74013,0.78672 1.85292,0.78672 1.13349,0 1.86328,-0.79707 0.73496,-0.79707 0.73496,-2.26181 0,-0.92647 -0.31573,-1.61484 -0.31054,-0.69356 -0.91611,-1.07139 -0.60039,-0.383 -1.35087,-0.383 -1.06621,0 -1.8374,0.73495 -0.76601,0.72979 -0.76601,2.44297 z" />
  <path
     style="stroke:#000000;stroke-width:0.67999828;shape-rendering:auto"
     d="m 292.75867,172.85687 -2.05335,9.89331"
     id="line291"
     inkscape:connector-curvature="0" />
  <path
     style="fill:#000000;fill-rule:evenodd;stroke:#000000;stroke-width:0;stroke-linejoin:miter;shape-rendering:geometricPrecision"
     inkscape:connector-curvature="0"
     id="path293"
     d="m 290.43867,172.16354 v 0 l -0.58667,-0.52 -2.17332,10.46664 0.65333,0.14667 z" />
  <path
     style="fill:#000000;fill-rule:evenodd;stroke:#000000;stroke-width:0;stroke-linejoin:miter;shape-rendering:geometricPrecision"
     inkscape:connector-curvature="0"
     id="path295"
     d="m 293.18533,172.49687 v 0 l -0.73333,0.17334 -2.08,10.0133 0.66667,0.13334 z" />
  <path
     style="stroke:#000000;stroke-width:0.67999828;shape-rendering:auto"
     d="M 242.14546,105.48373 H 61.21257"
     id="line299" />
  <path
     style="fill:#000000;fill-rule:evenodd;stroke:#000000;stroke-width:0;stroke-linejoin:miter;stroke-miterlimit:5.89496231;shape-rendering:geometricPrecision"
     inkscape:connector-curvature="0"
     id="path301"
     stroke-miterlimit="5.89496254687632"
     d="m 246.75878,105.48373 -6.79999,-1.69333 c 1.42667,0.94666 1.42667,2.43999 0,3.38666 z" />
  <path
     inkscape:connector-curvature="0"
     id="path1781"
     style="font-size:10.59997368px;font-family:Arial;text-anchor:middle;fill:#000000;stroke-width:1.33333004;text-rendering:geometricPrecision"
     d="m 93.214533,100.16373 h -0.931639 v -5.93661 q -0.336425,0.320898 -0.885056,0.641796 -0.543456,0.320897 -0.97822,0.481346 v -0.900584 q 0.781541,-0.367479 1.366402,-0.890232 0.584862,-0.522752 0.828123,-1.01445 h 0.60039 z" />
  <path
     inkscape:connector-curvature="0"
     id="path1783"
     style="font-size:10.59997368px;font-family:Arial;text-anchor:middle;fill:#000000;stroke-width:1.33333004;text-rendering:geometricPrecision"
     d="m 96.475267,102.39448 h -0.667675 q 1.547555,-2.484366 1.547555,-4.97391 0,-0.973045 -0.222558,-1.930562 -0.175976,-0.776365 -0.491698,-1.490621 -0.201855,-0.46582 -0.833299,-1.552731 h 0.667675 q 0.973044,1.299118 1.438863,2.608587 0.398534,1.128318 0.398534,2.360151 0,1.397457 -0.53828,2.701746 -0.533104,1.3043 -1.299117,2.27734 z" />
  <path
     inkscape:connector-curvature="0"
     id="path1785"
     style="font-size:10.59997368px;font-family:Arial;text-anchor:middle;fill:#009d73;stroke-width:1.33333004;text-rendering:geometricPrecision"
     d="m 107.87748,97.503382 1.0041,0.253613 q -0.31572,1.237008 -1.13867,1.889155 -0.81777,0.64697 -2.00302,0.64697 -1.22666,0 -1.99784,-0.496873 -0.76602,-0.502049 -1.16973,-1.449215 -0.39853,-0.947166 -0.39853,-2.034077 0,-1.185251 0.45029,-2.065131 0.45547,-0.885057 1.28877,-1.340524 0.83847,-0.460644 1.84257,-0.460644 1.13867,0 1.91503,0.579686 0.77637,0.579686 1.08174,1.630367 l -0.98857,0.23291 q -0.26397,-0.828123 -0.76602,-1.205954 -0.50205,-0.377831 -1.26288,-0.377831 -0.87471,0 -1.46475,0.419237 -0.58486,0.419237 -0.82294,1.128317 -0.23809,0.703905 -0.23809,1.454391 0,0.967869 0.27949,1.692477 0.28467,0.719431 0.87988,1.076559 0.59522,0.357128 1.28877,0.357128 0.84365,0 1.42851,-0.486522 0.58486,-0.486522 0.79189,-1.444039 z" />
  <path
     inkscape:connector-curvature="0"
     id="path1787"
     style="font-size:10.59997368px;font-family:Arial;text-anchor:middle;fill:#009d73;stroke-width:1.33333004;text-rendering:geometricPrecision"
     d="m 110.00473,102.27026 v -7.603199 h 0.84882 v 0.714256 q 0.3002,-0.419237 0.67803,-0.626268 0.37783,-0.212207 0.91611,-0.212207 0.7039,0 1.24218,0.362304 0.53828,0.362304 0.8126,1.024802 0.27431,0.657323 0.27431,1.44404 0,0.84365 -0.30537,1.521676 -0.30019,0.672849 -0.87988,1.035153 -0.57451,0.357133 -1.21113,0.357133 -0.46582,0 -0.83847,-0.19668 -0.36748,-0.196683 -0.60557,-0.496878 v 2.675868 z m 0.84365,-4.823812 q 0,1.061033 0.42958,1.568258 0.42959,0.507226 1.04033,0.507226 0.6211,0 1.06104,-0.522753 0.44511,-0.527928 0.44511,-1.630367 0,-1.050681 -0.43476,-1.573434 -0.42959,-0.522752 -1.02998,-0.522752 -0.59521,0 -1.05586,0.558983 -0.45546,0.553807 -0.45546,1.614839 z" />
  <path
     inkscape:connector-curvature="0"
     id="path1789"
     style="font-size:7.94998026px;font-family:Arial;text-anchor:middle;fill:#009d73;stroke-width:1.33333004;text-rendering:geometricPrecision"
     d="m 119.20853,101.89216 v 0.67156 h -3.76149 q -0.008,-0.25232 0.0815,-0.48523 0.14363,-0.3843 0.45806,-0.75695 0.31831,-0.37266 0.91611,-0.86177 0.92776,-0.760837 1.25383,-1.203365 0.32607,-0.44641 0.32607,-0.842357 0,-0.415355 -0.2989,-0.698728 -0.29502,-0.287255 -0.77248,-0.287255 -0.50464,0 -0.80742,0.302782 -0.30278,0.302782 -0.30667,0.838474 l -0.71813,-0.07375 q 0.0738,-0.803538 0.5551,-1.222776 0.48134,-0.423119 1.29265,-0.423119 0.81906,0 1.29653,0.454174 0.47746,0.454174 0.47746,1.12573 0,0.3416 -0.13974,0.671556 -0.13975,0.329955 -0.46582,0.694847 -0.3222,0.364887 -1.07527,1.001507 -0.62886,0.52793 -0.80742,0.71814 -0.17856,0.18633 -0.29502,0.37653 z" />
  <path
     inkscape:connector-curvature="0"
     id="path1791"
     style="font-size:10.59997368px;font-family:Arial;text-anchor:middle;fill:#009d73;stroke-width:1.33333004;text-rendering:geometricPrecision"
     d="m 119.84386,100.16373 v -0.931642 l 3.887,-4.860046 q 0.41407,-0.517577 0.78672,-0.900584 H 120.2838 V 92.57605 h 5.43456 v 0.895408 l -4.25966,5.263757 -0.46064,0.533104 h 4.84452 v 0.895411 z" />
  <path
     inkscape:connector-curvature="0"
     id="path1793"
     style="font-size:10.59997368px;font-family:Arial;text-anchor:middle;fill:#009d73;stroke-width:1.33333004;text-rendering:geometricPrecision"
     d="m 126.80009,100.16373 v -5.496669 h 0.83848 v 0.833298 q 0.3209,-0.584861 0.59003,-0.771189 0.27432,-0.186328 0.60039,-0.186328 0.471,0 0.95752,0.300195 l -0.3209,0.864353 q -0.3416,-0.201855 -0.6832,-0.201855 -0.30537,0 -0.54863,0.186328 -0.24326,0.181152 -0.34678,0.507225 -0.15527,0.496874 -0.15527,1.086912 v 2.87773 z" />
  <path
     inkscape:connector-curvature="0"
     id="path1795"
     style="font-size:10.59997368px;font-family:Arial;text-anchor:middle;fill:#009d73;stroke-width:1.33333004;text-rendering:geometricPrecision"
     d="m 132.13113,102.39448 q -0.77118,-0.97304 -1.30429,-2.27734 -0.5331,-1.304289 -0.5331,-2.701746 0,-1.231833 0.39853,-2.360151 0.46582,-1.309469 1.43886,-2.608587 h 0.66768 q -0.62627,1.07656 -0.82812,1.537203 -0.31573,0.714256 -0.49688,1.490622 -0.22256,0.967868 -0.22256,1.946089 0,2.489544 1.54756,4.97391 z" />
  <path
     inkscape:connector-curvature="0"
     id="path1797"
     style="font-size:10.59997368px;font-family:Arial;text-anchor:middle;fill:#009d73;stroke-width:1.33333004;text-rendering:geometricPrecision"
     d="m 134.04099,100.16373 v -7.58768 h 1.0041 v 3.115813 h 3.94394 V 92.57605 h 1.0041 v 7.58768 h -1.0041 v -3.576459 h -3.94394 v 3.576459 z" />
  <path
     inkscape:connector-curvature="0"
     id="path1799"
     style="font-size:10.59997368px;font-family:Arial;text-anchor:middle;fill:#009d73;stroke-width:1.33333004;text-rendering:geometricPrecision"
     d="m 142.16177,102.39448 h -0.66767 q 1.54755,-2.484366 1.54755,-4.97391 0,-0.973045 -0.22255,-1.930562 -0.17598,-0.776365 -0.4917,-1.490621 -0.20186,-0.46582 -0.8333,-1.552731 h 0.66767 q 0.97305,1.299118 1.43887,2.608587 0.39853,1.128318 0.39853,2.360151 0,1.397457 -0.53828,2.701746 -0.5331,1.3043 -1.29912,2.27734 z" />
  <path
     inkscape:connector-curvature="0"
     id="path1801"
     style="font-size:10.59997368px;font-family:Arial;text-anchor:middle;fill:#009d73;stroke-width:1.33333004;text-rendering:geometricPrecision"
     d="m 150.62416,97.503382 1.0041,0.253613 q -0.31573,1.237008 -1.13867,1.889155 -0.81778,0.64697 -2.00303,0.64697 -1.22665,0 -1.99784,-0.496873 -0.76602,-0.502049 -1.16973,-1.449215 -0.39853,-0.947166 -0.39853,-2.034077 0,-1.185251 0.45029,-2.065131 0.45547,-0.885057 1.28877,-1.340524 0.83847,-0.460644 1.84257,-0.460644 1.13867,0 1.91504,0.579686 0.77636,0.579686 1.08173,1.630367 l -0.98857,0.23291 q -0.26397,-0.828123 -0.76601,-1.205954 -0.50205,-0.377831 -1.26289,-0.377831 -0.87471,0 -1.46474,0.419237 -0.58487,0.419237 -0.82295,1.128317 -0.23809,0.703905 -0.23809,1.454391 0,0.967869 0.27949,1.692477 0.28467,0.719431 0.87988,1.076559 0.59522,0.357128 1.28877,0.357128 0.84365,0 1.42851,-0.486522 0.58487,-0.486522 0.7919,-1.444039 z" />
  <path
     inkscape:connector-curvature="0"
     id="path1803"
     style="font-size:10.59997368px;font-family:Arial;text-anchor:middle;fill:#009d73;stroke-width:1.33333004;text-rendering:geometricPrecision"
     d="m 152.73069,100.16373 v -7.58768 h 0.93164 v 7.58768 z" />
  <path
     inkscape:connector-curvature="0"
     id="path1805"
     style="font-size:10.59997368px;font-family:Arial;text-anchor:middle;fill:#000000;stroke-width:1.33333004;text-rendering:geometricPrecision"
     d="m 155.35481,95.728093 v -1.061032 h 1.06103 v 1.061032 z m 0,4.435637 v -1.061036 h 1.06103 v 1.061036 q 0,0.58486 -0.20703,0.94199 -0.20703,0.3623 -0.65732,0.55898 l -0.25879,-0.39853 q 0.29502,-0.1294 0.43477,-0.38301 0.13974,-0.24844 0.15527,-0.71943 z" />
  <path
     inkscape:connector-curvature="0"
     id="path1807"
     style="font-size:10.59997368px;font-family:Arial;text-anchor:middle;fill:#000000;stroke-width:1.33333004;text-rendering:geometricPrecision"
     d="m 165.62871,99.268319 v 0.895411 h -5.01532 q -0.0104,-0.336428 0.10869,-0.646974 0.1915,-0.512401 0.61074,-1.009275 0.42441,-0.496874 1.22148,-1.149021 1.23701,-1.01445 1.67177,-1.604488 0.43477,-0.595213 0.43477,-1.123142 0,-0.553807 -0.39854,-0.931638 -0.39335,-0.383007 -1.02997,-0.383007 -0.67285,0 -1.07656,0.40371 -0.40371,0.40371 -0.40889,1.117966 l -0.95752,-0.09834 q 0.0983,-1.071385 0.74014,-1.630368 0.64179,-0.564158 1.72353,-0.564158 1.09209,0 1.72871,0.605565 0.63662,0.605565 0.63662,1.500972 0,0.455468 -0.18633,0.895408 -0.18633,0.439941 -0.62109,0.926463 -0.42959,0.486522 -1.43369,1.335348 -0.83848,0.703905 -1.07656,0.957517 -0.23809,0.248437 -0.39336,0.50205 z" />
  <path
     inkscape:connector-curvature="0"
     id="path1809"
     style="font-size:10.59997368px;font-family:Arial;text-anchor:middle;fill:#000000;stroke-width:1.33333004;text-rendering:geometricPrecision"
     d="m 167.50234,102.39448 h -0.66768 q 1.54756,-2.484366 1.54756,-4.97391 0,-0.973045 -0.22256,-1.930562 -0.17598,-0.776365 -0.4917,-1.490621 -0.20186,-0.46582 -0.8333,-1.552731 h 0.66768 q 0.97304,1.299118 1.43886,2.608587 0.39853,1.128318 0.39853,2.360151 0,1.397457 -0.53828,2.701746 -0.5331,1.3043 -1.29911,2.27734 z" />
  <path
     inkscape:connector-curvature="0"
     id="path1811"
     style="font-size:10.59997368px;font-family:Arial;text-anchor:middle;fill:#cc78a6;stroke-width:1.33333004;text-rendering:geometricPrecision"
     d="m 173.48035,100.16373 v -7.58768 h 1.02998 l 3.98534,5.95731 v -5.95731 h 0.96269 v 7.58768 h -1.02998 l -3.98534,-5.962488 v 5.962488 z" />
  <path
     inkscape:connector-curvature="0"
     id="path1813"
     style="font-size:10.59997368px;font-family:Arial;text-anchor:middle;fill:#cc78a6;stroke-width:1.33333004;text-rendering:geometricPrecision"
     d="m 184.6186,99.485701 q -0.51758,0.43994 -0.99892,0.621089 -0.47617,0.18116 -1.02481,0.18116 -0.90576,0 -1.39228,-0.439945 -0.48652,-0.445116 -0.48652,-1.133493 0,-0.40371 0.18115,-0.734959 0.18633,-0.336425 0.48135,-0.53828 0.30019,-0.201855 0.67285,-0.305371 0.27431,-0.07246 0.82812,-0.139745 1.12832,-0.13457 1.66142,-0.320898 0.005,-0.191504 0.005,-0.243261 0,-0.569335 -0.26397,-0.802244 -0.35712,-0.315722 -1.06103,-0.315722 -0.65732,0 -0.97304,0.232909 -0.31055,0.227734 -0.46065,0.812596 l -0.91093,-0.124218 q 0.12422,-0.584862 0.40888,-0.94199 0.28467,-0.362304 0.82295,-0.553807 0.53828,-0.19668 1.24736,-0.19668 0.70391,0 1.14385,0.165625 0.43994,0.165625 0.64697,0.419237 0.20703,0.248437 0.28984,0.631444 0.0466,0.238085 0.0466,0.859177 v 1.242185 q 0,1.299118 0.0569,1.645894 0.0621,0.341601 0.23808,0.657326 h -0.97304 q -0.14492,-0.289846 -0.18633,-0.678029 z m -0.0776,-2.080659 q -0.50722,0.207031 -1.52167,0.351953 -0.57451,0.08281 -0.8126,0.186327 -0.23808,0.103516 -0.36748,0.30537 -0.12939,0.19668 -0.12939,0.439941 0,0.372655 0.27949,0.621092 0.28467,0.248437 0.82812,0.248437 0.53828,0 0.95752,-0.23291 0.41924,-0.238085 0.61592,-0.646971 0.15009,-0.315722 0.15009,-0.931638 z" />
  <path
     inkscape:connector-curvature="0"
     id="path1815"
     style="font-size:10.59997368px;font-family:Arial;text-anchor:middle;fill:#cc78a6;stroke-width:1.33333004;text-rendering:geometricPrecision"
     d="m 187.0098,100.16373 v -7.58768 h 2.84668 q 0.86953,0 1.39228,0.23291 0.52793,0.227734 0.82295,0.70908 0.30019,0.476171 0.30019,0.998923 0,0.486523 -0.26396,0.916111 -0.26397,0.429589 -0.79707,0.693553 0.68837,0.201855 1.05585,0.688378 0.37266,0.486522 0.37266,1.14902 0,0.533104 -0.22773,0.993748 -0.22256,0.455467 -0.55381,0.703904 -0.33125,0.248437 -0.8333,0.377833 -0.49687,0.12422 -1.22148,0.12422 z m 1.0041,-4.399406 h 1.64072 q 0.66768,0 0.95752,-0.08799 0.38301,-0.113867 0.57451,-0.377831 0.19668,-0.263965 0.19668,-0.662499 0,-0.377831 -0.18115,-0.662498 -0.18116,-0.289843 -0.51758,-0.393359 -0.33643,-0.108691 -1.1542,-0.108691 h -1.5165 z m 0,3.503995 h 1.88916 q 0.48652,0 0.6832,-0.03623 0.34678,-0.06211 0.57969,-0.20703 0.23291,-0.144922 0.383,-0.419237 0.1501,-0.279492 0.1501,-0.641796 0,-0.424413 -0.21738,-0.734959 -0.21738,-0.315722 -0.60557,-0.43994 -0.383,-0.129394 -1.10761,-0.129394 h -1.75459 z" />
  <path
     inkscape:connector-curvature="0"
     id="path1817"
     style="font-size:10.59997368px;font-family:Arial;text-anchor:middle;fill:#cc78a6;stroke-width:1.33333004;text-rendering:geometricPrecision"
     d="m 194.16272,100.16373 v -7.58768 h 1.0041 v 3.115813 h 3.94393 V 92.57605 h 1.0041 v 7.58768 h -1.0041 v -3.576459 h -3.94393 v 3.576459 z" />
  <path
     inkscape:connector-curvature="0"
     id="path1819"
     style="font-size:7.94998026px;font-family:Arial;text-anchor:middle;fill:#cc78a6;stroke-width:1.33333004;text-rendering:geometricPrecision"
     d="m 203.5438,102.56372 v -1.36252 h -2.46884 v -0.6405 l 2.59694,-3.687737 h 0.57063 v 3.687737 h 0.7686 v 0.6405 h -0.7686 v 1.36252 z m 0,-2.00302 v -2.565889 l -1.78176,2.565889 z" />
  <path
     style="fill:#cc78a6;fill-rule:evenodd;stroke:#cc78a6;stroke-width:0;stroke-linejoin:miter;shape-rendering:geometricPrecision"
     inkscape:connector-curvature="0"
     id="path323"
     d="m 333.83856,110.00372 v 0 l 0.0267,-0.45334 0.55999,0.0667 6.37332,6.39998 -0.24,0.24 -0.24,0.24 z" />
  <path
     inkscape:connector-curvature="0"
     id="path1822"
     style="font-size:10.66664028px;font-family:Arial;text-anchor:start;fill:#cc78a6;stroke-width:1.33333004;text-rendering:geometricPrecision"
     d="m 341.6927,124.60368 v -7.63539 h 1.01041 v 3.1354 h 3.96874 v -3.1354 h 1.01041 v 7.63539 h -1.01041 v -3.59895 h -3.96874 v 3.59895 z" />
  <path
     style="fill:#009d73;fill-rule:evenodd;stroke:#009d73;stroke-width:0;stroke-linejoin:miter;shape-rendering:geometricPrecision"
     inkscape:connector-curvature="0"
     id="path333"
     d="m 334.42522,109.61705 v 0 l -0.55999,-0.0667 0.18666,-0.50666 8.46665,-4.87999 0.16,0.29333 0.17333,0.29334 z" />
  <path
     inkscape:connector-curvature="0"
     id="path1825"
     style="font-size:10.66664028px;font-family:Arial;text-anchor:start;fill:#009d73;stroke-width:1.33333004;text-rendering:geometricPrecision"
     d="m 344.1327,106.08372 v -7.6354 h 1.01041 v 3.13541 h 3.96874 v -3.13541 h 1.01042 v 7.6354 h -1.01042 v -3.59895 h -3.96874 v 3.59895 z" />
  <path
     inkscape:connector-curvature="0"
     id="path1828"
     style="font-size:10.66664028px;font-family:Arial;text-anchor:start;fill:#cc78a6;stroke-width:1.33333004;text-rendering:geometricPrecision"
     d="m 338.65272,182.71019 v -7.6354 h 1.01041 v 3.13541 h 3.96874 v -3.13541 h 1.01042 v 7.6354 h -1.01042 v -3.59895 h -3.96874 v 3.59895 z" />
  <path
     style="fill:#cc78a6;fill-rule:evenodd;stroke:#cc78a6;stroke-width:0;stroke-linejoin:miter;shape-rendering:geometricPrecision"
     inkscape:connector-curvature="0"
     id="path349"
     d="m 330.7719,168.11022 v 0 l 0.04,-0.44 0.56,0.0667 6.35998,6.35998 -0.24,0.24 -0.24,0.24 z" />
  <path
     inkscape:connector-curvature="0"
     id="path1831"
     style="font-size:10.66664028px;font-family:Arial;text-anchor:start;fill:#009d73;stroke-width:1.33333004;text-rendering:geometricPrecision"
     d="m 341.09272,164.19023 v -7.6354 h 1.01041 v 3.13541 h 3.96874 v -3.13541 h 1.01042 v 7.6354 h -1.01042 v -3.59895 h -3.96874 v 3.59895 z" />
  <path
     style="fill:#009d73;fill-rule:evenodd;stroke:#009d73;stroke-width:0;stroke-linejoin:miter;shape-rendering:geometricPrecision"
     inkscape:connector-curvature="0"
     id="path359"
     d="m 331.3719,167.73689 v 0 l -0.56,-0.0667 0.18667,-0.50667 8.45331,-4.87998 0.16,0.29333 0.17333,0.30666 z" />
  <text
     xml:space="preserve"
     style="font-style:normal;font-variant:normal;font-weight:normal;font-stretch:normal;font-size:10.66666698px;line-height:1.25;font-family:Arial;-inkscape-font-specification:Arial;text-align:start;letter-spacing:0px;word-spacing:0px;text-anchor:start;fill:#000000;fill-opacity:1;stroke:none"
     x="23.800682"
     y="138.14197"
     id="text1910"><tspan
       sodipodi:role="line"
       id="tspan1908"
       x="23.800682"
       y="138.14197">\cmpd{5-lactam-deoxy}</tspan></text>
  <text
     xml:space="preserve"
     style="font-style:normal;font-variant:normal;font-weight:normal;font-stretch:normal;font-size:10.66666698px;line-height:1.25;font-family:Arial;-inkscape-font-specification:Arial;text-align:start;letter-spacing:0px;word-spacing:0px;text-anchor:start;fill:#000000;fill-opacity:1;stroke:none"
     x="274.00244"
     y="138.14197"
     id="text1910-0"><tspan
       sodipodi:role="line"
       id="tspan1908-8"
       x="274.00244"
       y="138.14197">\cmpd{pyrrolidine-deoxy}</tspan></text>
  <text
     xml:space="preserve"
     style="font-style:normal;font-variant:normal;font-weight:normal;font-stretch:normal;font-size:10.66666698px;line-height:1.25;font-family:Arial;-inkscape-font-specification:Arial;text-align:start;letter-spacing:0px;word-spacing:0px;text-anchor:start;fill:#000000;fill-opacity:1;stroke:none"
     x="23.800682"
     y="197.17604"
     id="text1910-4"><tspan
       sodipodi:role="line"
       id="tspan1908-6"
       x="23.800682"
       y="197.17604">\cmpd{5-lactam-ester}</tspan></text>
  <text
     xml:space="preserve"
     style="font-style:normal;font-variant:normal;font-weight:normal;font-stretch:normal;font-size:10.66666698px;line-height:1.25;font-family:Arial;-inkscape-font-specification:Arial;text-align:start;letter-spacing:0px;word-spacing:0px;text-anchor:start;fill:#000000;fill-opacity:1;stroke:none"
     x="251.06973"
     y="197.17604"
     id="text1910-0-5"><tspan
       sodipodi:role="line"
       id="tspan1908-8-5"
       x="251.06973"
       y="197.17604">\cmpd{pyrrolidine-ester}</tspan></text>
</svg>
