<?xml version="1.0" encoding="UTF-8" standalone="no"?>
<svg
   xmlns:dc="http://purl.org/dc/elements/1.1/"
   xmlns:cc="http://creativecommons.org/ns#"
   xmlns:rdf="http://www.w3.org/1999/02/22-rdf-syntax-ns#"
   xmlns:svg="http://www.w3.org/2000/svg"
   xmlns="http://www.w3.org/2000/svg"
   xmlns:sodipodi="http://sodipodi.sourceforge.net/DTD/sodipodi-0.dtd"
   xmlns:inkscape="http://www.inkscape.org/namespaces/inkscape"
   viewBox="1.47 73.87 302.01 80.15"
   preserveAspectRatio="xMidYMid"
   width="100%"
   height="100%"
   version="1.1"
   id="svg281"
   sodipodi:docname="zr-glu.svg"
   inkscape:version="0.92.3 (2405546, 2018-03-11)">
  <metadata
     id="metadata287">
    <rdf:RDF>
      <cc:Work
         rdf:about="">
        <dc:format>image/svg+xml</dc:format>
        <dc:type
           rdf:resource="http://purl.org/dc/dcmitype/StillImage" />
      </cc:Work>
    </rdf:RDF>
  </metadata>
  <defs
     id="defs285" />
  <sodipodi:namedview
     pagecolor="#ffffff"
     bordercolor="#666666"
     borderopacity="1"
     objecttolerance="10"
     gridtolerance="10"
     guidetolerance="10"
     inkscape:pageopacity="0"
     inkscape:pageshadow="2"
     inkscape:window-width="1920"
     inkscape:window-height="1017"
     id="namedview283"
     showgrid="false"
     inkscape:zoom="2.384027"
     inkscape:cx="123.08613"
     inkscape:cy="53.292821"
     inkscape:window-x="-8"
     inkscape:window-y="-8"
     inkscape:window-maximized="1"
     inkscape:current-layer="svg281" />
  <clipPath
     id="17091">
    <rect
       x="0.255"
       y="0.255"
       width="302.74"
       height="769.29"
       id="rect2" />
  </clipPath>
  <g
     id="g1573"
     transform="translate(0,-3.2133179)">
    <g
       aria-label="HN"
       style="font-size:15.99995995px;text-anchor:start;stroke-width:1.33333004;text-rendering:geometricPrecision"
       id="text11">
      <path
         d="m 5.2108603,93.37838 v -7.587677 h 1.0040991 v 3.115813 h 3.9439356 v -3.115813 h 1.004099 V 93.37838 H 10.158895 V 89.801924 H 6.2149594 v 3.576456 z"
         style="font-size:10.59997368px;font-family:Arial;fill:#000000;stroke-width:1.33333004"
         id="path1575"
         inkscape:connector-curvature="0" />
      <path
         d="m 5.1694542,104.17836 v -7.587676 h 1.0299779 l 3.9853419,5.957306 v -5.957306 h 0.962693 v 7.587676 H 10.117489 L 6.1321471,98.215875 v 5.962485 z"
         style="font-size:10.59997368px;font-family:Arial;fill:#000000;stroke-width:1.33333004"
         id="path1577"
         inkscape:connector-curvature="0" />
    </g>
    <path
       d="m -5.4379402,121.29831 v 0 l 0.3466658,-0.2 0.3466658,-0.2 12.9466343,7.47999 v 0.38666 l -0.3599991,0.18667 z"
       id="path15"
       inkscape:connector-curvature="0"
       style="fill:#000000;fill-rule:evenodd;stroke:#000000;stroke-width:0;stroke-linejoin:miter;shape-rendering:geometricPrecision" />
    <path
       d="m 8.5620248,128.95163 v 0 l -0.3599991,-0.18667 v -0.38666 l 12.9466343,-7.47999 0.333333,0.2 0.333332,0.2 z"
       id="path18"
       inkscape:connector-curvature="0"
       style="fill:#000000;fill-rule:evenodd;stroke:#000000;stroke-width:0;stroke-linejoin:miter;shape-rendering:geometricPrecision" />
    <path
       d="m 21.815325,121.29831 v 0 l -0.333332,-0.2 -0.333333,-0.2 v -14.94662 l 0.333333,-0.2 0.333332,-0.2 z"
       id="path22"
       inkscape:connector-curvature="0"
       style="fill:#000000;fill-rule:evenodd;stroke:#000000;stroke-width:0;stroke-linejoin:miter;shape-rendering:geometricPrecision" />
    <path
       d="m 21.815325,105.55169 v 0 l -0.333332,0.2 -0.333333,0.2 -8.639978,-4.99999 0.173333,-0.29333 0.159999,-0.29334 z"
       id="path26"
       inkscape:connector-curvature="0"
       style="fill:#000000;fill-rule:evenodd;stroke:#000000;stroke-width:0;stroke-linejoin:miter;shape-rendering:geometricPrecision" />
    <path
       d="m 3.5087041,100.3917 v 0 l 0.1599996,0.29333 0.1733329,0.29333 -8.5866452,4.97333 -0.3466658,-0.2 0.013333,-0.4 z"
       id="path30"
       inkscape:connector-curvature="0"
       style="fill:#000000;fill-rule:evenodd;stroke:#000000;stroke-width:0;stroke-linejoin:miter;shape-rendering:geometricPrecision" />
    <path
       d="m -5.4246069,105.96502 v 0 l 0.3333325,-0.21333 0.3466658,0.2 v 14.94662 l -0.3466658,0.2 -0.3466658,0.2 z"
       id="path34"
       inkscape:connector-curvature="0"
       style="fill:#000000;fill-rule:evenodd;stroke:#000000;stroke-width:0;stroke-linejoin:miter;shape-rendering:geometricPrecision" />
    <path
       d="m -5.0779411,105.35169 v 0 l -0.013333,0.4 -0.3333325,0.21333 -14.2399644,-6.733318 1.29333,-1.146664 1.21333,-1.09333 z"
       id="path38"
       inkscape:connector-curvature="0"
       style="fill:#000000;fill-rule:evenodd;stroke:#000000;stroke-width:0;stroke-linejoin:miter;shape-rendering:geometricPrecision" />
    <g
       aria-label="BnO"
       style="font-size:15.99995995px;text-anchor:end;stroke-width:1.33333004;text-rendering:geometricPrecision"
       id="text43">
      <path
         d="m -47.96217,109.91167 v -7.58768 h 2.846672 q 0.869529,0 1.392282,0.23291 0.527928,0.22773 0.822947,0.70908 0.300195,0.47617 0.300195,0.99892 0,0.48653 -0.263965,0.91611 -0.263964,0.42959 -0.797068,0.69356 0.688377,0.20185 1.055857,0.68837 0.372655,0.48653 0.372655,1.14903 0,0.5331 -0.227734,0.99374 -0.222558,0.45547 -0.553807,0.70391 -0.331249,0.24843 -0.833299,0.37783 -0.496873,0.12422 -1.221481,0.12422 z m 1.004099,-4.39941 h 1.640718 q 0.667674,0 0.957517,-0.088 0.383007,-0.11387 0.574511,-0.37784 0.196679,-0.26396 0.196679,-0.66249 0,-0.37783 -0.181152,-0.6625 -0.181152,-0.28985 -0.517577,-0.39336 -0.336425,-0.10869 -1.154196,-0.10869 h -1.5165 z m 0,3.504 h 1.889155 q 0.486522,0 0.683202,-0.0362 0.346776,-0.0621 0.579686,-0.20703 0.232909,-0.14492 0.383007,-0.41924 0.150097,-0.27949 0.150097,-0.64179 0,-0.42442 -0.217382,-0.73496 -0.217383,-0.31573 -0.605565,-0.43994 -0.383007,-0.1294 -1.107615,-0.1294 h -1.754585 z"
         style="font-size:10.59997368px;font-family:Arial;fill:#000000;stroke-width:1.33333004"
         id="path1580"
         inkscape:connector-curvature="0" />
      <path
         d="M -40.959356,109.91167 V 104.415 h 0.838475 v 0.78154 q 0.605564,-0.90576 1.749409,-0.90576 0.496874,0 0.910936,0.18115 0.419237,0.17598 0.626268,0.46582 0.20703,0.28985 0.289843,0.68838 0.05176,0.25879 0.05176,0.90576 v 3.37978 h -0.931638 v -3.34355 q 0,-0.56933 -0.108691,-0.84883 -0.108691,-0.28466 -0.388183,-0.45029 -0.274316,-0.1708 -0.646971,-0.1708 -0.595213,0 -1.029978,0.37783 -0.429589,0.37783 -0.429589,1.43369 v 3.00195 z"
         style="font-size:10.59997368px;font-family:Arial;fill:#000000;stroke-width:1.33333004"
         id="path1582"
         inkscape:connector-curvature="0" />
      <path
         d="m -35.245307,106.21617 q 0,-1.88916 1.01445,-2.95537 1.014451,-1.07138 2.618939,-1.07138 1.050681,0 1.894331,0.50205 0.843651,0.50205 1.283591,1.40263 0.445116,0.89541 0.445116,2.03408 0,1.1542 -0.465819,2.06513 -0.465819,0.91094 -1.319821,1.38193 -0.854002,0.46582 -1.842574,0.46582 -1.071384,0 -1.915034,-0.51758 -0.84365,-0.51757 -1.278415,-1.41298 -0.434764,-0.89541 -0.434764,-1.89433 z m 1.035153,0.0155 q 0,1.37157 0.73496,2.16347 0.740134,0.78671 1.852925,0.78671 1.133493,0 1.863276,-0.79706 0.734959,-0.79707 0.734959,-2.26182 0,-0.92646 -0.315721,-1.61484 -0.310547,-0.69355 -0.916112,-1.07138 -0.600389,-0.38301 -1.350875,-0.38301 -1.066208,0 -1.837398,0.73496 -0.766014,0.72979 -0.766014,2.44297 z"
         style="font-size:10.59997368px;font-family:Arial;fill:#000000;stroke-width:1.33333004"
         id="path1584"
         inkscape:connector-curvature="0" />
    </g>
    <path
       d="m -17.157911,96.991708 v 0 l -1.21333,1.09333 -1.29333,1.146664 -6.959983,4.013328 -0.159999,-0.29334 -0.173333,-0.30666 z"
       id="path47"
       inkscape:connector-curvature="0"
       style="fill:#000000;fill-rule:evenodd;stroke:#000000;stroke-width:0;stroke-linejoin:miter;shape-rendering:geometricPrecision" />
    <g
       aria-label="BnO"
       style="font-size:15.99995995px;text-anchor:end;stroke-width:1.33333004;text-rendering:geometricPrecision"
       id="text53">
      <path
         d="m -34.682203,132.92494 v -7.58767 h 2.846673 q 0.869529,0 1.392281,0.23291 0.527929,0.22773 0.822947,0.70908 0.300195,0.47617 0.300195,0.99892 0,0.48652 -0.263964,0.91611 -0.263964,0.42959 -0.797069,0.69355 0.688378,0.20186 1.055857,0.68838 0.372656,0.48652 0.372656,1.14902 0,0.5331 -0.227734,0.99375 -0.222558,0.45547 -0.553807,0.7039 -0.33125,0.24844 -0.833299,0.37783 -0.496874,0.12422 -1.221482,0.12422 z m 1.004099,-4.3994 h 1.640719 q 0.667674,0 0.957517,-0.088 0.383007,-0.11387 0.57451,-0.37783 0.196679,-0.26396 0.196679,-0.6625 0,-0.37783 -0.181152,-0.6625 -0.181152,-0.28984 -0.517577,-0.39336 -0.336424,-0.10869 -1.154196,-0.10869 h -1.5165 z m 0,3.50399 h 1.889155 q 0.486523,0 0.683202,-0.0362 0.346776,-0.0621 0.579686,-0.20703 0.23291,-0.14492 0.383007,-0.41923 0.150097,-0.2795 0.150097,-0.6418 0,-0.42441 -0.217382,-0.73496 -0.217382,-0.31572 -0.605565,-0.43994 -0.383007,-0.12939 -1.107615,-0.12939 h -1.754585 z"
         style="font-size:10.59997368px;font-family:Arial;fill:#000000;stroke-width:1.33333004"
         id="path1587"
         inkscape:connector-curvature="0" />
      <path
         d="m -27.679389,132.92494 v -5.49666 h 0.838475 v 0.78154 q 0.605565,-0.90576 1.74941,-0.90576 0.496873,0 0.910935,0.18115 0.419237,0.17598 0.626268,0.46582 0.207031,0.28984 0.289843,0.68838 0.05176,0.25878 0.05176,0.90576 v 3.37977 h -0.931639 v -3.34354 q 0,-0.56934 -0.108691,-0.84883 -0.108691,-0.28467 -0.388183,-0.45029 -0.274315,-0.1708 -0.646971,-0.1708 -0.595213,0 -1.029977,0.37783 -0.429589,0.37783 -0.429589,1.43369 v 3.00194 z"
         style="font-size:10.59997368px;font-family:Arial;fill:#000000;stroke-width:1.33333004"
         id="path1589"
         inkscape:connector-curvature="0" />
      <path
         d="m -21.96534,129.22944 q 0,-1.88915 1.014451,-2.95536 1.01445,-1.07138 2.618938,-1.07138 1.050681,0 1.894332,0.50205 0.84365,0.50204 1.28359,1.40263 0.445116,0.89541 0.445116,2.03408 0,1.15419 -0.465819,2.06513 -0.465819,0.91093 -1.319821,1.38193 -0.854002,0.46582 -1.842573,0.46582 -1.071384,0 -1.915035,-0.51758 -0.84365,-0.51758 -1.278414,-1.41299 -0.434765,-0.8954 -0.434765,-1.89433 z m 1.035154,0.0155 q 0,1.37158 0.734959,2.16347 0.740135,0.78672 1.852925,0.78672 1.133493,0 1.863277,-0.79707 0.734959,-0.79707 0.734959,-2.26181 0,-0.92646 -0.315722,-1.61484 -0.310546,-0.69355 -0.916111,-1.07138 -0.600389,-0.38301 -1.350876,-0.38301 -1.066208,0 -1.837398,0.73496 -0.766013,0.72978 -0.766013,2.44296 z"
         style="font-size:10.59997368px;font-family:Arial;fill:#000000;stroke-width:1.33333004"
         id="path1591"
         inkscape:connector-curvature="0" />
    </g>
    <path
       d="m -5.2646073,120.80498 v 0 l 0.3466658,0.58667 -0.5466653,0.41333 -0.4266656,-0.73333 z"
       id="path57"
       inkscape:connector-curvature="0"
       style="fill:#000000;fill-rule:evenodd;stroke:#000000;stroke-width:0;stroke-linejoin:miter;shape-rendering:geometricPrecision" />
    <path
       d="m -7.9579339,121.91165 v 0 l 0.7199982,1.26666 -0.533332,0.41333 -0.8266646,-1.41333 z"
       id="path59"
       inkscape:connector-curvature="0"
       style="fill:#000000;fill-rule:evenodd;stroke:#000000;stroke-width:0;stroke-linejoin:miter;shape-rendering:geometricPrecision" />
    <path
       d="m -10.65126,123.03164 v 0 l 1.1066634,1.92 -0.5466654,0.41333 -1.199997,-2.07999 z"
       id="path61"
       inkscape:connector-curvature="0"
       style="fill:#000000;fill-rule:evenodd;stroke:#000000;stroke-width:0;stroke-linejoin:miter;shape-rendering:geometricPrecision" />
    <path
       d="m -13.344587,124.13831 v 0 l 1.49333,2.59999 -0.546666,0.41333 -1.586662,-2.75999 z"
       id="path63"
       inkscape:connector-curvature="0"
       style="fill:#000000;fill-rule:evenodd;stroke:#000000;stroke-width:0;stroke-linejoin:miter;shape-rendering:geometricPrecision" />
    <g
       aria-label="OBn"
       style="font-size:15.99995995px;text-anchor:start;stroke-width:1.33333004;text-rendering:geometricPrecision"
       id="text68">
      <path
         d="m 31.154369,129.22944 q 0,-1.88915 1.01445,-2.95536 1.014451,-1.07138 2.618939,-1.07138 1.050681,0 1.894331,0.50205 0.843651,0.50204 1.283591,1.40263 0.445116,0.89541 0.445116,2.03408 0,1.15419 -0.465819,2.06513 -0.465819,0.91093 -1.319821,1.38193 -0.854002,0.46582 -1.842574,0.46582 -1.071384,0 -1.915034,-0.51758 -0.84365,-0.51758 -1.278415,-1.41299 -0.434764,-0.8954 -0.434764,-1.89433 z m 1.035154,0.0155 q 0,1.37158 0.734959,2.16347 0.740135,0.78672 1.852925,0.78672 1.133493,0 1.863276,-0.79707 0.734959,-0.79707 0.734959,-2.26181 0,-0.92646 -0.315721,-1.61484 -0.310547,-0.69355 -0.916111,-1.07138 -0.60039,-0.38301 -1.350876,-0.38301 -1.066208,0 -1.837398,0.73496 -0.766013,0.72978 -0.766013,2.44296 z"
         style="font-size:10.59997368px;font-family:Arial;fill:#000000;stroke-width:1.33333004"
         id="path1594"
         inkscape:connector-curvature="0" />
      <path
         d="m 39.658156,132.92494 v -7.58767 h 2.846673 q 0.869529,0 1.392282,0.23291 0.527928,0.22773 0.822947,0.70908 0.300194,0.47617 0.300194,0.99892 0,0.48652 -0.263964,0.91611 -0.263964,0.42959 -0.797068,0.69355 0.688377,0.20186 1.055857,0.68838 0.372655,0.48652 0.372655,1.14902 0,0.5331 -0.227734,0.99375 -0.222558,0.45547 -0.553807,0.7039 -0.331249,0.24844 -0.833299,0.37783 -0.496874,0.12422 -1.221481,0.12422 z m 1.004099,-4.3994 h 1.640719 q 0.667674,0 0.957517,-0.088 0.383007,-0.11387 0.57451,-0.37783 0.19668,-0.26396 0.19668,-0.6625 0,-0.37783 -0.181152,-0.6625 -0.181152,-0.28984 -0.517577,-0.39336 -0.336425,-0.10869 -1.154196,-0.10869 h -1.516501 z m 0,3.50399 h 1.889156 q 0.486522,0 0.683201,-0.0362 0.346777,-0.0621 0.579686,-0.20703 0.23291,-0.14492 0.383007,-0.41923 0.150098,-0.2795 0.150098,-0.6418 0,-0.42441 -0.217383,-0.73496 -0.217382,-0.31572 -0.605565,-0.43994 -0.383006,-0.12939 -1.107614,-0.12939 h -1.754586 z"
         style="font-size:10.59997368px;font-family:Arial;fill:#000000;stroke-width:1.33333004"
         id="path1596"
         inkscape:connector-curvature="0" />
      <path
         d="m 46.660971,132.92494 v -5.49666 h 0.838474 v 0.78154 q 0.605565,-0.90576 1.74941,-0.90576 0.496874,0 0.910935,0.18115 0.419238,0.17598 0.626268,0.46582 0.207031,0.28984 0.289843,0.68838 0.05176,0.25878 0.05176,0.90576 v 3.37977 h -0.931638 v -3.34354 q 0,-0.56934 -0.108691,-0.84883 -0.108692,-0.28467 -0.388183,-0.45029 -0.274316,-0.1708 -0.646971,-0.1708 -0.595214,0 -1.029978,0.37783 -0.429589,0.37783 -0.429589,1.43369 v 3.00194 z"
         style="font-size:10.59997368px;font-family:Arial;fill:#000000;stroke-width:1.33333004"
         id="path1598"
         inkscape:connector-curvature="0" />
    </g>
    <path
       d="m 21.30866,121.39165 v 0 l 0.346665,-0.58667 0.626666,0.26667 -0.426666,0.73333 z"
       id="path72"
       inkscape:connector-curvature="0"
       style="fill:#000000;fill-rule:evenodd;stroke:#000000;stroke-width:0;stroke-linejoin:miter;shape-rendering:geometricPrecision" />
    <path
       d="m 23.69532,123.21831 v 0 l 0.733332,-1.26666 0.626665,0.26666 -0.813331,1.41333 z"
       id="path74"
       inkscape:connector-curvature="0"
       style="fill:#000000;fill-rule:evenodd;stroke:#000000;stroke-width:0;stroke-linejoin:miter;shape-rendering:geometricPrecision" />
    <path
       d="m 26.081981,125.03164 v 0 l 1.119997,-1.92 0.626665,0.25334 -1.199997,2.09332 z"
       id="path76"
       inkscape:connector-curvature="0"
       style="fill:#000000;fill-rule:evenodd;stroke:#000000;stroke-width:0;stroke-linejoin:miter;shape-rendering:geometricPrecision" />
    <path
       d="m 28.468642,126.8583 v 0 l 1.493329,-2.59999 0.639999,0.26666 -1.586663,2.74666 z"
       id="path78"
       inkscape:connector-curvature="0"
       style="fill:#000000;fill-rule:evenodd;stroke:#000000;stroke-width:0;stroke-linejoin:miter;shape-rendering:geometricPrecision" />
    <g
       aria-label="OBn"
       style="font-size:15.99995995px;text-anchor:start;stroke-width:1.33333004;text-rendering:geometricPrecision"
       id="text84">
      <path
         d="m 4.5811014,144.57608 q 0,-1.88916 1.0144506,-2.95537 1.0144506,-1.07138 2.6189388,-1.07138 1.050681,0 1.8943312,0.50205 0.84365,0.50205 1.283591,1.40263 0.445116,0.89541 0.445116,2.03408 0,1.1542 -0.465819,2.06513 -0.46582,0.91094 -1.319821,1.38193 -0.8540022,0.46582 -1.842574,0.46582 -1.071384,0 -1.9150343,-0.51758 -0.8436502,-0.51757 -1.2784148,-1.41298 -0.4347645,-0.89541 -0.4347645,-1.89433 z m 1.0351537,0.0155 q 0,1.37158 0.7349591,2.16348 0.7401349,0.78671 1.8529251,0.78671 1.1334932,0 1.8632767,-0.79707 0.734959,-0.79706 0.734959,-2.26181 0,-0.92646 -0.315722,-1.61484 -0.310546,-0.69355 -0.9161109,-1.07138 -0.6003891,-0.38301 -1.3508755,-0.38301 -1.0662083,0 -1.8373978,0.73496 -0.7660137,0.72979 -0.7660137,2.44296 z"
         style="font-size:10.59997368px;font-family:Arial;fill:#000000;stroke-width:1.33333004"
         id="path1601"
         inkscape:connector-curvature="0" />
      <path
         d="m 13.084889,148.27158 v -7.58768 h 2.846673 q 0.869529,0 1.392281,0.23291 0.527929,0.22773 0.822947,0.70908 0.300195,0.47617 0.300195,0.99892 0,0.48652 -0.263964,0.91611 -0.263964,0.42959 -0.797069,0.69356 0.688378,0.20185 1.055857,0.68837 0.372656,0.48653 0.372656,1.14902 0,0.53311 -0.227734,0.99375 -0.222558,0.45547 -0.553807,0.70391 -0.33125,0.24843 -0.833299,0.37783 -0.496874,0.12422 -1.221482,0.12422 z m 1.004099,-4.39941 h 1.640719 q 0.667674,0 0.957517,-0.088 0.383007,-0.11386 0.57451,-0.37783 0.196679,-0.26396 0.196679,-0.66249 0,-0.37784 -0.181152,-0.6625 -0.181152,-0.28985 -0.517577,-0.39336 -0.336424,-0.10869 -1.154196,-0.10869 h -1.5165 z m 0,3.504 h 1.889155 q 0.486523,0 0.683202,-0.0362 0.346776,-0.0621 0.579686,-0.20703 0.23291,-0.14492 0.383007,-0.41924 0.150097,-0.27949 0.150097,-0.6418 0,-0.42441 -0.217382,-0.73495 -0.217382,-0.31573 -0.605565,-0.43995 -0.383007,-0.12939 -1.107615,-0.12939 h -1.754585 z"
         style="font-size:10.59997368px;font-family:Arial;fill:#000000;stroke-width:1.33333004"
         id="path1603"
         inkscape:connector-curvature="0" />
      <path
         d="m 20.087703,148.27158 v -5.49667 h 0.838475 v 0.78154 q 0.605565,-0.90576 1.74941,-0.90576 0.496873,0 0.910935,0.18115 0.419237,0.17598 0.626268,0.46582 0.207031,0.28985 0.289843,0.68838 0.05176,0.25879 0.05176,0.90576 v 3.37978 h -0.931639 v -3.34355 q 0,-0.56933 -0.108691,-0.84883 -0.108691,-0.28466 -0.388183,-0.45029 -0.274315,-0.1708 -0.646971,-0.1708 -0.595213,0 -1.029978,0.37783 -0.429588,0.37783 -0.429588,1.43369 v 3.00195 z"
         style="font-size:10.59997368px;font-family:Arial;fill:#000000;stroke-width:1.33333004"
         id="path1605"
         inkscape:connector-curvature="0" />
    </g>
    <path
       d="m 7.8420266,128.95163 v 0 l 0.3599991,-0.18667 0.3599991,0.18667 1.2266636,9.99997 H 8.2020257 6.615363 Z"
       id="path88"
       inkscape:connector-curvature="0"
       style="fill:#000000;fill-rule:evenodd;stroke:#000000;stroke-width:0;stroke-linejoin:miter;shape-rendering:geometricPrecision" />
    <g
       aria-label="O"
       style="font-size:15.99995995px;text-anchor:start;stroke-width:1.33333004;text-rendering:geometricPrecision"
       id="text94">
      <path
         d="m 31.154369,98.549535 q 0,-1.889156 1.01445,-2.955364 1.014451,-1.071384 2.618939,-1.071384 1.050681,0 1.894331,0.502049 0.843651,0.50205 1.283591,1.402634 0.445116,0.895408 0.445116,2.034077 0,1.154196 -0.465819,2.065133 -0.465819,0.91093 -1.319821,1.38193 -0.854002,0.46582 -1.842574,0.46582 -1.071384,0 -1.915034,-0.51758 -0.84365,-0.51758 -1.278415,-1.41298 -0.434764,-0.895412 -0.434764,-1.894335 z m 1.035154,0.01553 q 0,1.371579 0.734959,2.163465 0.740135,0.78672 1.852925,0.78672 1.133493,0 1.863276,-0.79707 0.734959,-0.797064 0.734959,-2.261806 0,-0.926463 -0.315721,-1.61484 -0.310547,-0.693553 -0.916111,-1.071384 -0.60039,-0.383007 -1.350876,-0.383007 -1.066208,0 -1.837398,0.734959 -0.766013,0.729784 -0.766013,2.442963 z"
         style="font-size:10.59997368px;font-family:Arial;fill:#000000;stroke-width:1.33333004"
         id="path1608"
         inkscape:connector-curvature="0" />
    </g>
    <path
       d="m 21.828658,106.75168 v 0 0.78667 l 8.706645,-5.02666 -0.346666,-0.58666 z"
       id="path100"
       inkscape:connector-curvature="0"
       style="fill:#000000;fill-rule:evenodd;stroke:#000000;stroke-width:0;stroke-linejoin:miter;shape-rendering:geometricPrecision" />
    <path
       d="m 20.095329,104.56502 v 0 l 0.679999,0.38667 8.373312,-4.82666 -0.333332,-0.586662 z"
       id="path102"
       inkscape:connector-curvature="0"
       style="fill:#000000;fill-rule:evenodd;stroke:#000000;stroke-width:0;stroke-linejoin:miter;shape-rendering:geometricPrecision" />
  </g>
  <g
     aria-label="Cp2Zr(H)Cl"
     style="font-size:15.99995995px;text-anchor:start;stroke-width:1.33333004;text-rendering:geometricPrecision"
     id="text112">
    <path
       d="m 131.45443,67.38476 1.0041,0.253613 q -0.31572,1.237008 -1.13867,1.889155 -0.81777,0.646971 -2.00302,0.646971 -1.22666,0 -1.99784,-0.496874 -0.76602,-0.502049 -1.16973,-1.449215 -0.39853,-0.947165 -0.39853,-2.034077 0,-1.185251 0.45029,-2.065131 0.45547,-0.885057 1.28877,-1.340524 0.83847,-0.460644 1.84257,-0.460644 1.13867,0 1.91503,0.579686 0.77637,0.579686 1.08174,1.630367 l -0.98857,0.23291 q -0.26397,-0.828123 -0.76602,-1.205954 -0.50205,-0.377831 -1.26288,-0.377831 -0.87471,0 -1.46475,0.419237 -0.58486,0.419237 -0.82294,1.128318 -0.23809,0.703904 -0.23809,1.454391 0,0.967868 0.27949,1.692476 0.28467,0.719432 0.87988,1.07656 0.59522,0.357128 1.28877,0.357128 0.84365,0 1.42851,-0.486523 0.58486,-0.486522 0.79189,-1.444039 z"
       style="font-size:10.59997368px;font-family:Arial;fill:#009d73;stroke-width:1.33333004"
       id="path1611"
       inkscape:connector-curvature="0" />
    <path
       d="m 133.58167,72.151643 v -7.603204 h 0.84883 v 0.714256 q 0.3002,-0.419237 0.67803,-0.626268 0.37783,-0.212206 0.91611,-0.212206 0.7039,0 1.24218,0.362303 0.53828,0.362304 0.8126,1.024802 0.27431,0.657323 0.27431,1.44404 0,0.84365 -0.30537,1.521676 -0.30019,0.67285 -0.87988,1.035153 -0.57451,0.357128 -1.21113,0.357128 -0.46582,0 -0.83847,-0.196679 -0.36748,-0.196679 -0.60557,-0.496874 v 2.675873 z m 0.84365,-4.823816 q 0,1.061032 0.42959,1.568257 0.42959,0.507226 1.04033,0.507226 0.6211,0 1.06104,-0.522753 0.44511,-0.527928 0.44511,-1.630367 0,-1.050681 -0.43476,-1.573434 -0.42959,-0.522752 -1.02998,-0.522752 -0.59521,0 -1.05586,0.558983 -0.45547,0.553807 -0.45547,1.61484 z"
       style="font-size:10.59997368px;font-family:Arial;fill:#009d73;stroke-width:1.33333004"
       id="path1613"
       inkscape:connector-curvature="0" />
    <path
       d="m 142.78548,71.773543 v 0.671556 h -3.76149 q -0.008,-0.252319 0.0815,-0.485228 0.14363,-0.384301 0.45806,-0.756957 0.31831,-0.372655 0.91611,-0.861765 0.92776,-0.760838 1.25383,-1.203366 0.32607,-0.44641 0.32607,-0.842356 0,-0.415356 -0.2989,-0.698729 -0.29502,-0.287255 -0.77248,-0.287255 -0.50464,0 -0.80742,0.302782 -0.30278,0.302783 -0.30667,0.838475 l -0.71813,-0.07375 q 0.0737,-0.803538 0.5551,-1.222775 0.48134,-0.423119 1.29265,-0.423119 0.81906,0 1.29653,0.454173 0.47746,0.454174 0.47746,1.12573 0,0.341601 -0.13975,0.671556 -0.13974,0.329955 -0.46581,0.694847 -0.3222,0.364891 -1.07527,1.001511 -0.62886,0.527928 -0.80742,0.718138 -0.17856,0.186327 -0.29502,0.376537 z"
       style="font-size:7.94998026px;font-family:Arial;fill:#009d73;stroke-width:1.33333004"
       id="path1615"
       inkscape:connector-curvature="0" />
    <path
       d="m 143.42081,70.045105 v -0.931638 l 3.887,-4.860047 q 0.41406,-0.517577 0.78672,-0.900584 h -4.23378 v -0.895407 h 5.43456 v 0.895407 l -4.25966,5.263757 -0.46064,0.533104 h 4.84451 v 0.895408 z"
       style="font-size:10.59997368px;font-family:Arial;fill:#009d73;stroke-width:1.33333004"
       id="path1617"
       inkscape:connector-curvature="0" />
    <path
       d="m 150.37704,70.045105 v -5.496666 h 0.83848 v 0.833299 q 0.32089,-0.584862 0.59003,-0.77119 0.27432,-0.186327 0.60039,-0.186327 0.471,0 0.95752,0.300194 l -0.3209,0.864353 q -0.3416,-0.201855 -0.6832,-0.201855 -0.30537,0 -0.54863,0.186328 -0.24326,0.181152 -0.34678,0.507225 -0.15527,0.496874 -0.15527,1.086912 v 2.877727 z"
       style="font-size:10.59997368px;font-family:Arial;fill:#009d73;stroke-width:1.33333004"
       id="path1619"
       inkscape:connector-curvature="0" />
    <path
       d="m 155.70808,72.275861 q -0.77119,-0.973044 -1.30429,-2.277338 -0.5331,-1.304294 -0.5331,-2.701751 0,-1.231833 0.39853,-2.36015 0.46582,-1.30947 1.43886,-2.608588 h 0.66768 q -0.62627,1.07656 -0.82812,1.537204 -0.31573,0.714256 -0.49688,1.490621 -0.22256,0.967869 -0.22256,1.946089 0,2.489544 1.54756,4.973913 z"
       style="font-size:10.59997368px;font-family:Arial;fill:#009d73;stroke-width:1.33333004"
       id="path1621"
       inkscape:connector-curvature="0" />
    <path
       d="m 157.61794,70.045105 v -7.587676 h 1.0041 v 3.115812 h 3.94394 v -3.115812 h 1.0041 v 7.587676 h -1.0041 v -3.576456 h -3.94394 v 3.576456 z"
       style="font-size:10.59997368px;font-family:Arial;fill:#009d73;stroke-width:1.33333004"
       id="path1623"
       inkscape:connector-curvature="0" />
    <path
       d="m 165.73872,72.275861 h -0.66767 q 1.54755,-2.484369 1.54755,-4.973913 0,-0.973045 -0.22256,-1.930562 -0.17597,-0.776365 -0.49169,-1.490621 -0.20186,-0.465819 -0.8333,-1.552731 h 0.66767 q 0.97305,1.299118 1.43887,2.608588 0.39853,1.128317 0.39853,2.36015 0,1.397457 -0.53828,2.701751 -0.5331,1.304294 -1.29912,2.277338 z"
       style="font-size:10.59997368px;font-family:Arial;fill:#009d73;stroke-width:1.33333004"
       id="path1625"
       inkscape:connector-curvature="0" />
    <path
       d="m 174.2011,67.38476 1.0041,0.253613 q -0.31572,1.237008 -1.13867,1.889155 -0.81777,0.646971 -2.00302,0.646971 -1.22666,0 -1.99785,-0.496874 -0.76601,-0.502049 -1.16972,-1.449215 -0.39853,-0.947165 -0.39853,-2.034077 0,-1.185251 0.45029,-2.065131 0.45547,-0.885057 1.28877,-1.340524 0.83847,-0.460644 1.84257,-0.460644 1.13867,0 1.91503,0.579686 0.77637,0.579686 1.08174,1.630367 l -0.98857,0.23291 q -0.26397,-0.828123 -0.76602,-1.205954 -0.50205,-0.377831 -1.26288,-0.377831 -0.87471,0 -1.46475,0.419237 -0.58486,0.419237 -0.82294,1.128318 -0.23809,0.703904 -0.23809,1.454391 0,0.967868 0.27949,1.692476 0.28467,0.719432 0.87988,1.07656 0.59522,0.357128 1.28877,0.357128 0.84365,0 1.42851,-0.486523 0.58486,-0.486522 0.79189,-1.444039 z"
       style="font-size:10.59997368px;font-family:Arial;fill:#009d73;stroke-width:1.33333004"
       id="path1627"
       inkscape:connector-curvature="0" />
    <path
       d="m 176.30764,70.045105 v -7.587676 h 0.93164 v 7.587676 z"
       style="font-size:10.59997368px;font-family:Arial;fill:#009d73;stroke-width:1.33333004"
       id="path1629"
       inkscape:connector-curvature="0" />
  </g>
  <g
     aria-label="Tf2O, 2-F-Py, Et3SiH"
     style="font-size:15.99995995px;text-anchor:middle;stroke-width:1.33333004;text-rendering:geometricPrecision"
     id="text136">
    <path
       d="m 106.32607,144.09825 v -6.69227 h -2.4999 v -0.89541 h 6.01424 v 0.89541 h -2.51024 v 6.69227 z"
       style="font-size:10.59997368px;font-family:Arial;fill:#cc78a6;stroke-width:1.33333004"
       id="path1632"
       inkscape:connector-curvature="0" />
    <path
       d="m 110.97908,144.09825 v -4.77206 h -0.82294 v -0.7246 h 0.82294 v -0.58487 q 0,-0.5538 0.0983,-0.82294 0.13457,-0.36231 0.471,-0.58487 0.3416,-0.22773 0.95234,-0.22773 0.39336,0 0.86953,0.0932 l -0.13975,0.8126 q -0.28984,-0.0518 -0.54863,-0.0518 -0.42441,0 -0.60039,0.18115 -0.17597,0.18116 -0.17597,0.67803 v 0.50723 h 1.07138 v 0.7246 h -1.07138 v 4.77206 z"
       style="font-size:10.59997368px;font-family:Arial;fill:#cc78a6;stroke-width:1.33333004"
       id="path1634"
       inkscape:connector-curvature="0" />
    <path
       d="m 116.9998,145.82669 v 0.67156 h -3.76149 q -0.008,-0.25232 0.0815,-0.48523 0.14362,-0.3843 0.45805,-0.75696 0.31831,-0.37265 0.91611,-0.86176 0.92776,-0.76084 1.25383,-1.20337 0.32608,-0.44641 0.32608,-0.84236 0,-0.41535 -0.29891,-0.69873 -0.29501,-0.28725 -0.77248,-0.28725 -0.50464,0 -0.80742,0.30278 -0.30278,0.30278 -0.30666,0.83848 l -0.71814,-0.0738 q 0.0738,-0.80354 0.5551,-1.22277 0.48135,-0.42312 1.29265,-0.42312 0.81906,0 1.29653,0.45417 0.47746,0.45417 0.47746,1.12573 0,0.3416 -0.13974,0.67156 -0.13975,0.32995 -0.46582,0.69484 -0.32219,0.36489 -1.07527,1.00151 -0.62885,0.52793 -0.80742,0.71814 -0.17856,0.18633 -0.29502,0.37654 z"
       style="font-size:7.94998026px;font-family:Arial;fill:#cc78a6;stroke-width:1.33333004"
       id="path1636"
       inkscape:connector-curvature="0" />
    <path
       d="m 117.93532,140.40275 q 0,-1.88915 1.01445,-2.95536 1.01445,-1.07139 2.61894,-1.07139 1.05068,0 1.89433,0.50205 0.84365,0.50205 1.28359,1.40264 0.44511,0.89541 0.44511,2.03407 0,1.1542 -0.46582,2.06514 -0.46581,0.91093 -1.31982,1.38193 -0.854,0.46582 -1.84257,0.46582 -1.07138,0 -1.91503,-0.51758 -0.84365,-0.51758 -1.27842,-1.41299 -0.43476,-0.8954 -0.43476,-1.89433 z m 1.03515,0.0155 q 0,1.37158 0.73496,2.16347 0.74013,0.78672 1.85292,0.78672 1.1335,0 1.86328,-0.79707 0.73496,-0.79707 0.73496,-2.26181 0,-0.92646 -0.31572,-1.61484 -0.31055,-0.69355 -0.91611,-1.07138 -0.60039,-0.38301 -1.35088,-0.38301 -1.06621,0 -1.8374,0.73496 -0.76601,0.72978 -0.76601,2.44296 z"
       style="font-size:10.59997368px;font-family:Arial;fill:#cc78a6;stroke-width:1.33333004"
       id="path1638"
       inkscape:connector-curvature="0" />
    <path
       d="m 126.60473,144.09825 v -1.06103 h 1.06103 v 1.06103 q 0,0.58486 -0.20703,0.94199 -0.20703,0.3623 -0.65732,0.55898 l -0.25879,-0.39853 q 0.29502,-0.12939 0.43476,-0.38301 0.13975,-0.24843 0.15528,-0.71943 z"
       style="font-size:10.59997368px;font-family:Arial;fill:#cc78a6;stroke-width:1.33333004"
       id="path1640"
       inkscape:connector-curvature="0" />
    <path
       d="m 136.87863,143.20284 v 0.89541 h -5.01532 q -0.0104,-0.33642 0.10869,-0.64697 0.1915,-0.5124 0.61074,-1.00927 0.42441,-0.49688 1.22148,-1.14903 1.23701,-1.01445 1.67177,-1.60448 0.43477,-0.59522 0.43477,-1.12315 0,-0.5538 -0.39853,-0.93163 -0.39336,-0.38301 -1.02998,-0.38301 -0.67285,0 -1.07656,0.40371 -0.40371,0.40371 -0.40889,1.11797 l -0.95752,-0.0983 q 0.0983,-1.07139 0.74014,-1.63037 0.64179,-0.56416 1.72353,-0.56416 1.09209,0 1.72871,0.60557 0.63662,0.60556 0.63662,1.50097 0,0.45547 -0.18633,0.89541 -0.18633,0.43994 -0.62109,0.92646 -0.42959,0.48652 -1.43369,1.33535 -0.83848,0.7039 -1.07656,0.95751 -0.23809,0.24844 -0.39336,0.50205 z"
       style="font-size:10.59997368px;font-family:Arial;fill:#cc78a6;stroke-width:1.33333004"
       id="path1642"
       inkscape:connector-curvature="0" />
    <path
       d="m 137.77921,141.82091 v -0.93681 h 2.8622 v 0.93681 z"
       style="font-size:10.59997368px;font-family:Arial;fill:#cc78a6;stroke-width:1.33333004"
       id="path1644"
       inkscape:connector-curvature="0" />
    <path
       d="m 141.85254,144.09825 v -7.58768 h 5.11884 v 0.89541 h -4.11474 v 2.3498 h 3.56093 v 0.89541 h -3.56093 v 3.44706 z"
       style="font-size:10.59997368px;font-family:Arial;fill:#cc78a6;stroke-width:1.33333004"
       id="path1646"
       inkscape:connector-curvature="0" />
    <path
       d="m 147.7995,141.82091 v -0.93681 h 2.8622 v 0.93681 z"
       style="font-size:10.59997368px;font-family:Arial;fill:#cc78a6;stroke-width:1.33333004"
       id="path1648"
       inkscape:connector-curvature="0" />
    <path
       d="m 151.82107,144.09825 v -7.58768 h 2.8622 q 0.75567,0 1.1542,0.0725 0.55898,0.0932 0.93681,0.35712 0.37784,0.25879 0.60557,0.72979 0.23291,0.47099 0.23291,1.03515 0,0.96787 -0.61592,1.64072 -0.61591,0.66767 -2.22558,0.66767 h -1.94609 v 3.08476 z m 1.0041,-3.98016 h 1.96162 q 0.97304,0 1.38193,-0.36231 0.40889,-0.3623 0.40889,-1.01962 0,-0.47618 -0.24327,-0.8126 -0.23808,-0.3416 -0.63144,-0.45029 -0.25361,-0.0673 -0.93681,-0.0673 h -1.94092 z"
       style="font-size:10.59997368px;font-family:Arial;fill:#cc78a6;stroke-width:1.33333004"
       id="path1650"
       inkscape:connector-curvature="0" />
    <path
       d="m 158.74107,146.21514 -0.10351,-0.8747 q 0.30537,0.0828 0.5331,0.0828 0.31055,0 0.49688,-0.10352 0.18632,-0.10351 0.30537,-0.28984 0.088,-0.13975 0.28466,-0.69355 0.0259,-0.0776 0.0828,-0.22774 l -2.08584,-5.50701 h 1.0041 l 1.14385,3.18309 q 0.22255,0.60557 0.39853,1.27324 0.16045,-0.64179 0.38301,-1.25253 l 1.1749,-3.2038 h 0.93163 l -2.09101,5.58983 q -0.33642,0.90575 -0.52275,1.24736 -0.24844,0.46064 -0.56933,0.67285 -0.3209,0.21738 -0.76602,0.21738 -0.26914,0 -0.60039,-0.11387 z"
       style="font-size:10.59997368px;font-family:Arial;fill:#cc78a6;stroke-width:1.33333004"
       id="path1652"
       inkscape:connector-curvature="0" />
    <path
       d="m 163.53901,144.09825 v -1.06103 h 1.06103 v 1.06103 q 0,0.58486 -0.20703,0.94199 -0.20703,0.3623 -0.65732,0.55898 l -0.25879,-0.39853 q 0.29502,-0.12939 0.43477,-0.38301 0.13974,-0.24843 0.15527,-0.71943 z"
       style="font-size:10.59997368px;font-family:Arial;fill:#cc78a6;stroke-width:1.33333004"
       id="path1654"
       inkscape:connector-curvature="0" />
    <path
       d="m 169.31517,144.09825 v -7.58768 h 5.48631 v 0.89541 h -4.48222 v 2.32392 h 4.19755 v 0.89023 h -4.19755 v 2.58271 h 4.6582 v 0.89541 z"
       style="font-size:10.59997368px;font-family:Arial;fill:#cc78a6;stroke-width:1.33333004"
       id="path1656"
       inkscape:connector-curvature="0" />
    <path
       d="m 178.28995,143.26495 0.13457,0.82295 q -0.39336,0.0828 -0.70391,0.0828 -0.50722,0 -0.78671,-0.16045 -0.27949,-0.16045 -0.39336,-0.41923 -0.11387,-0.26397 -0.11387,-1.10244 v -3.1624 h -0.6832 v -0.7246 h 0.6832 v -1.36123 l 0.92646,-0.55898 v 1.92021 h 0.93682 v 0.7246 h -0.93682 v 3.21416 q 0,0.39853 0.0466,0.5124 0.0517,0.11386 0.16045,0.18115 0.11386,0.0673 0.32089,0.0673 0.15528,0 0.40889,-0.0362 z"
       style="font-size:10.59997368px;font-family:Arial;fill:#cc78a6;stroke-width:1.33333004"
       id="path1658"
       inkscape:connector-curvature="0" />
    <path
       d="m 178.83082,144.99598 0.69873,-0.0932 q 0.12034,0.59392 0.40759,0.85789 0.29114,0.26008 0.7065,0.26008 0.49299,0 0.83071,-0.3416 0.3416,-0.3416 0.3416,-0.84624 0,-0.48134 -0.31443,-0.79189 -0.31443,-0.31443 -0.79966,-0.31443 -0.19797,0 -0.49299,0.0776 l 0.0776,-0.61333 q 0.0699,0.008 0.11257,0.008 0.44641,0 0.80354,-0.23291 0.35713,-0.23291 0.35713,-0.71813 0,-0.38431 -0.26009,-0.63662 -0.26008,-0.25232 -0.67155,-0.25232 -0.40759,0 -0.67932,0.2562 -0.27173,0.2562 -0.34937,0.7686 l -0.69872,-0.12422 q 0.1281,-0.70261 0.58227,-1.08691 0.45417,-0.38818 1.12961,-0.38818 0.46582,0 0.85788,0.20185 0.39207,0.19798 0.59781,0.54346 0.20961,0.34548 0.20961,0.73366 0,0.36878 -0.19797,0.67156 -0.19797,0.30278 -0.58615,0.48135 0.50463,0.11645 0.78412,0.48522 0.2795,0.3649 0.2795,0.91611 0,0.74532 -0.54346,1.26548 -0.54346,0.51628 -1.37417,0.51628 -0.74919,0 -1.24606,-0.44641 -0.49299,-0.44641 -0.56287,-1.15678 z"
       style="font-size:7.94998026px;font-family:Arial;fill:#cc78a6;stroke-width:1.33333004"
       id="path1660"
       inkscape:connector-curvature="0" />
    <path
       d="m 183.39843,141.66046 0.94717,-0.0828 q 0.0673,0.56934 0.31055,0.93682 0.24843,0.3623 0.76601,0.59003 0.51758,0.22256 1.16455,0.22256 0.57451,0 1.01445,-0.1708 0.43994,-0.1708 0.65214,-0.46582 0.21739,-0.30019 0.21739,-0.65214 0,-0.35713 -0.20703,-0.6211 -0.20703,-0.26914 -0.68321,-0.45029 -0.30537,-0.11904 -1.35087,-0.36748 -1.04551,-0.25361 -1.46474,-0.47617 -0.54346,-0.28467 -0.8126,-0.7039 -0.26396,-0.42442 -0.26396,-0.94717 0,-0.57451 0.32607,-1.07138 0.32607,-0.50205 0.95234,-0.76084 0.62627,-0.25879 1.39228,-0.25879 0.84365,0 1.48545,0.27432 0.64697,0.26914 0.99375,0.79706 0.34677,0.52793 0.37265,1.19561 l -0.96269,0.0725 q -0.0776,-0.71943 -0.52793,-1.08691 -0.44512,-0.36748 -1.31982,-0.36748 -0.91094,0 -1.33017,0.33642 -0.41406,0.33125 -0.41406,0.80225 0,0.40888 0.29501,0.67285 0.28985,0.26396 1.51133,0.54345 1.22666,0.27432 1.68212,0.48135 0.6625,0.30537 0.97822,0.77636 0.31573,0.46582 0.31573,1.07656 0,0.60557 -0.34678,1.14385 -0.34678,0.5331 -0.99892,0.8333 -0.64698,0.29502 -1.45957,0.29502 -1.02998,0 -1.72871,-0.3002 -0.69355,-0.30019 -1.09208,-0.90058 -0.39336,-0.60557 -0.41407,-1.36641 z"
       style="font-size:10.59997368px;font-family:Arial;fill:#cc78a6;stroke-width:1.33333004"
       id="path1662"
       inkscape:connector-curvature="0" />
    <path
       d="m 190.70662,137.58196 v -1.07139 h 0.93164 v 1.07139 z m 0,6.51629 v -5.49666 h 0.93164 v 5.49666 z"
       style="font-size:10.59997368px;font-family:Arial;fill:#cc78a6;stroke-width:1.33333004"
       id="path1664"
       inkscape:connector-curvature="0" />
    <path
       d="m 193.21169,144.09825 v -7.58768 h 1.0041 v 3.11582 h 3.94394 v -3.11582 h 1.0041 v 7.58768 h -1.0041 v -3.57645 h -3.94394 v 3.57645 z"
       style="font-size:10.59997368px;font-family:Arial;fill:#cc78a6;stroke-width:1.33333004"
       id="path1666"
       inkscape:connector-curvature="0" />
  </g>
  <path
     style="stroke:#000000;stroke-width:0.67999828;shape-rendering:auto"
     d="M 237.76146,96.365044 214.97485,75.805092"
     id="line246" />
  <path
     style="fill:#000000;fill-rule:evenodd;stroke:#000000;stroke-width:0;stroke-linejoin:miter;stroke-miterlimit:5.89496231;shape-rendering:geometricPrecision"
     inkscape:connector-curvature="0"
     id="path248"
     stroke-miterlimit="5.89496254687641"
     d="m 241.18811,99.458368 -3.90666,-5.813318 c 0.42667,1.666662 -0.57333,2.773326 -2.27999,2.519993 z" />
  <path
     style="stroke:#cc78a6;stroke-width:0.67999828;shape-rendering:auto"
     d="m 236.68146,125.1383 -23.6266,24.18661"
     id="line251" />
  <path
     style="fill:#cc78a6;fill-rule:evenodd;stroke:#cc78a6;stroke-width:0;stroke-linejoin:miter;stroke-miterlimit:5.89496231;shape-rendering:geometricPrecision"
     inkscape:connector-curvature="0"
     id="path253"
     stroke-miterlimit="5.89496254687639"
     d="m 239.90811,121.83165 -5.97332,3.67999 c 1.69333,-0.36 2.76,0.67999 2.44,2.37332 z" />
  <path
     style="stroke:#cc78a6;stroke-width:0.67999828;shape-rendering:auto"
     d="m 231.2948,135.52495 -9.62665,0.10667"
     id="line255" />
  <path
     style="stroke:#cc78a6;stroke-width:0.67999828;shape-rendering:auto"
     d="m 226.53482,140.3916 -0.10667,-9.62665"
     id="line257" />
  <path
     style="stroke:#000000;stroke-width:0.67999828;shape-rendering:auto"
     d="M 214.97485,75.805092 H 91.855156"
     id="line261" />
  <path
     style="stroke:#cc78a6;stroke-width:0.67999828;shape-rendering:auto"
     d="M 213.05486,149.32491 H 89.935158"
     id="line263" />
  <path
     style="stroke:#000000;stroke-width:0.67999828;shape-rendering:auto"
     d="M 62.175224,100.09837 91.855156,75.805092"
     id="line265" />
  <path
     style="stroke:#cc78a6;stroke-width:0.67999828;shape-rendering:auto"
     d="M 89.935158,149.32491 62.441887,125.03164"
     id="line267" />
  <g
     id="text160"
     style="font-size:15.99995995px;text-anchor:start;stroke-width:1.33333004;text-rendering:geometricPrecision"
     aria-label="N"
     transform="translate(0,2)">
    <path
       inkscape:connector-curvature="0"
       id="path1677"
       style="font-size:10.59997368px;font-family:Arial;fill:#000000;stroke-width:1.33333004"
       d="m 307.00868,97.031708 v -7.587677 h 1.02998 l 3.98534,5.95731 v -5.95731 h 0.9627 v 7.587677 h -1.02998 l -3.98534,-5.962485 v 5.962485 z" />
  </g>
  <path
     style="fill:#000000;fill-rule:evenodd;stroke:#000000;stroke-width:0;stroke-linejoin:miter;shape-rendering:geometricPrecision"
     inkscape:connector-curvature="0"
     id="path164"
     d="m 296.40131,118.07166 v 0 l 0.34666,-0.2 0.34667,-0.2 12.94663,7.49332 v 0.38666 l -0.36,0.18667 z" />
  <path
     style="fill:#000000;fill-rule:evenodd;stroke:#000000;stroke-width:0;stroke-linejoin:miter;shape-rendering:geometricPrecision"
     inkscape:connector-curvature="0"
     id="path168"
     d="m 310.40127,125.73831 v 0 l -0.36,-0.18667 v -0.38666 l 12.94664,-7.49332 0.33333,0.2 0.33333,0.2 z" />
  <path
     style="fill:#000000;fill-rule:evenodd;stroke:#000000;stroke-width:0;stroke-linejoin:miter;shape-rendering:geometricPrecision"
     inkscape:connector-curvature="0"
     id="path172"
     d="m 323.65457,118.07166 v 0 l -0.33333,-0.2 -0.33333,-0.2 v -14.93329 l 0.33333,-0.2 0.34666,0.2 z" />
  <path
     style="fill:#009e73;fill-rule:evenodd;stroke:#000000;stroke-width:0;stroke-linejoin:miter;shape-rendering:geometricPrecision"
     inkscape:connector-curvature="0"
     id="path176"
     d="m 323.32124,102.1517 v 0 0.38667 l -0.33333,0.2 -8.61332,-4.986659 0.17334,-0.293333 0.16,-0.293332 z" />
  <path
     inkscape:connector-curvature="0"
     id="line178"
     d="m 320.56125,104.12503 -7.4,-4.279991"
     style="stroke:#009e73;stroke-width:0.67999828;shape-rendering:auto;fill:#009e73" />
  <path
     style="fill:#000000;fill-rule:evenodd;stroke:#000000;stroke-width:0;stroke-linejoin:miter;shape-rendering:geometricPrecision"
     inkscape:connector-curvature="0"
     id="path182"
     d="m 305.37462,97.165046 v 0 l 0.16,0.293332 0.17333,0.293333 -8.61331,4.986659 -0.34667,-0.2 0.0133,-0.4 z" />
  <path
     style="fill:#000000;fill-rule:evenodd;stroke:#000000;stroke-width:0;stroke-linejoin:miter;shape-rendering:geometricPrecision"
     inkscape:connector-curvature="0"
     id="path186"
     d="m 296.41464,102.7517 v 0 l 0.33333,-0.21333 0.34667,0.2 v 14.93329 l -0.34667,0.2 -0.34666,0.2 z" />
  <path
     style="fill:#000000;fill-rule:evenodd;stroke:#000000;stroke-width:0;stroke-linejoin:miter;shape-rendering:geometricPrecision"
     inkscape:connector-curvature="0"
     id="path190"
     d="m 296.7613,102.13837 v 0 l -0.0133,0.4 -0.33333,0.21333 -14.23997,-6.746651 1.29333,-1.146664 1.21333,-1.093331 z" />
  <path
     style="fill:#000000;fill-rule:evenodd;stroke:#000000;stroke-width:0;stroke-linejoin:miter;shape-rendering:geometricPrecision"
     inkscape:connector-curvature="0"
     id="path194"
     d="m 284.68133,93.765054 v 0 l -1.21333,1.093331 -1.29333,1.146664 -7.06664,4.079991 -0.16,-0.306667 -0.17334,-0.293333 z" />
  <g
     id="text200"
     style="font-size:15.99995995px;text-anchor:end;stroke-width:1.33333004;text-rendering:geometricPrecision"
     aria-label="BnO"
     transform="translate(0,2)">
    <path
       inkscape:connector-curvature="0"
       id="path1681"
       style="font-size:10.59997368px;font-family:Arial;fill:#000000;stroke-width:1.33333004"
       d="m 253.86376,104.69836 v -7.58768 h 2.84667 q 0.86953,0 1.39228,0.23291 0.52793,0.227734 0.82295,0.70908 0.3002,0.476171 0.3002,0.998923 0,0.486523 -0.26397,0.916111 -0.26396,0.429586 -0.79707,0.693556 0.68838,0.20185 1.05586,0.68837 0.37265,0.48653 0.37265,1.14903 0,0.5331 -0.22773,0.99374 -0.22256,0.45547 -0.55381,0.70391 -0.33125,0.24843 -0.83329,0.37783 -0.49688,0.12422 -1.22149,0.12422 z m 1.0041,-4.39941 h 1.64072 q 0.66767,0 0.95751,-0.088 0.38301,-0.11387 0.57451,-0.377836 0.19668,-0.263964 0.19668,-0.662498 0,-0.377831 -0.18115,-0.662498 -0.18115,-0.289843 -0.51758,-0.393359 -0.33642,-0.108691 -1.15419,-0.108691 h -1.5165 z m 0,3.504 h 1.88915 q 0.48653,0 0.68321,-0.0362 0.34677,-0.0621 0.57968,-0.20703 0.23291,-0.14492 0.38301,-0.41924 0.1501,-0.27949 0.1501,-0.64179 0,-0.42442 -0.21739,-0.73496 -0.21738,-0.31573 -0.60556,-0.43994 -0.38301,-0.1294 -1.10762,-0.1294 h -1.75458 z" />
    <path
       inkscape:connector-curvature="0"
       id="path1683"
       style="font-size:10.59997368px;font-family:Arial;fill:#000000;stroke-width:1.33333004"
       d="m 260.86657,104.69836 v -5.496669 h 0.83848 v 0.781541 q 0.60556,-0.90576 1.74941,-0.90576 0.49687,0 0.91093,0.181152 0.41924,0.175976 0.62627,0.465819 0.20703,0.289847 0.28984,0.688377 0.0518,0.25879 0.0518,0.90576 v 3.37978 h -0.93164 v -3.34355 q 0,-0.56933 -0.10869,-0.84883 -0.10869,-0.28466 -0.38818,-0.45029 -0.27432,-0.170798 -0.64697,-0.170798 -0.59521,0 -1.02998,0.377828 -0.42959,0.37783 -0.42959,1.43369 v 3.00195 z" />
    <path
       inkscape:connector-curvature="0"
       id="path1685"
       style="font-size:10.59997368px;font-family:Arial;fill:#000000;stroke-width:1.33333004"
       d="m 266.58062,101.00286 q 0,-1.889157 1.01445,-2.955366 1.01445,-1.071384 2.61894,-1.071384 1.05068,0 1.89433,0.50205 0.84365,0.502049 1.28359,1.402633 0.44512,0.895408 0.44512,2.034077 0,1.1542 -0.46582,2.06513 -0.46582,0.91094 -1.31982,1.38193 -0.854,0.46582 -1.84257,0.46582 -1.07139,0 -1.91504,-0.51758 -0.84365,-0.51757 -1.27841,-1.41298 -0.43477,-0.89541 -0.43477,-1.89433 z m 1.03516,0.0155 q 0,1.37157 0.73496,2.16347 0.74013,0.78671 1.85292,0.78671 1.13349,0 1.86328,-0.79707 0.73496,-0.79706 0.73496,-2.26181 0,-0.926458 -0.31573,-1.614836 -0.31054,-0.693553 -0.91611,-1.071384 -0.60039,-0.383006 -1.35087,-0.383006 -1.06621,0 -1.8374,0.734959 -0.76601,0.729783 -0.76601,2.442967 z" />
  </g>
  <g
     id="text206"
     style="font-size:15.99995995px;text-anchor:end;stroke-width:1.33333004;text-rendering:geometricPrecision"
     aria-label="BnO"
     transform="translate(0,2)">
    <path
       inkscape:connector-curvature="0"
       id="path1688"
       style="font-size:10.59997368px;font-family:Arial;fill:#000000;stroke-width:1.33333004"
       d="m 267.15706,127.71162 v -7.58768 h 2.84668 q 0.86953,0 1.39228,0.23291 0.52793,0.22773 0.82295,0.70908 0.30019,0.47617 0.30019,0.99892 0,0.48653 -0.26396,0.91611 -0.26397,0.42959 -0.79707,0.69356 0.68837,0.20185 1.05585,0.68837 0.37266,0.48653 0.37266,1.14902 0,0.53311 -0.22773,0.99375 -0.22256,0.45547 -0.55381,0.70391 -0.33125,0.24843 -0.8333,0.37783 -0.49687,0.12422 -1.22148,0.12422 z m 1.0041,-4.39941 h 1.64072 q 0.66768,0 0.95752,-0.088 0.38301,-0.11387 0.57451,-0.37784 0.19668,-0.26396 0.19668,-0.66249 0,-0.37784 -0.18115,-0.6625 -0.18116,-0.28985 -0.51758,-0.39336 -0.33643,-0.10869 -1.1542,-0.10869 h -1.5165 z m 0,3.504 h 1.88916 q 0.48652,0 0.6832,-0.0362 0.34678,-0.0621 0.57969,-0.20703 0.23291,-0.14492 0.383,-0.41924 0.1501,-0.27949 0.1501,-0.6418 0,-0.42441 -0.21738,-0.73495 -0.21738,-0.31573 -0.60557,-0.43994 -0.383,-0.1294 -1.10761,-0.1294 h -1.75459 z" />
    <path
       inkscape:connector-curvature="0"
       id="path1690"
       style="font-size:10.59997368px;font-family:Arial;fill:#000000;stroke-width:1.33333004"
       d="m 274.15988,127.71162 v -5.49667 h 0.83847 v 0.78154 q 0.60557,-0.90576 1.74941,-0.90576 0.49688,0 0.91094,0.18115 0.41923,0.17598 0.62627,0.46582 0.20703,0.28985 0.28984,0.68838 0.0518,0.25879 0.0518,0.90576 v 3.37978 h -0.93164 v -3.34355 q 0,-0.56933 -0.10869,-0.84883 -0.10869,-0.28466 -0.38819,-0.45029 -0.27431,-0.1708 -0.64697,-0.1708 -0.59521,0 -1.02997,0.37783 -0.42959,0.37783 -0.42959,1.43369 v 3.00195 z" />
    <path
       inkscape:connector-curvature="0"
       id="path1692"
       style="font-size:10.59997368px;font-family:Arial;fill:#000000;stroke-width:1.33333004"
       d="m 279.87393,124.01612 q 0,-1.88916 1.01445,-2.95537 1.01445,-1.07138 2.61894,-1.07138 1.05068,0 1.89433,0.50205 0.84365,0.50205 1.28359,1.40263 0.44511,0.89541 0.44511,2.03408 0,1.1542 -0.46582,2.06513 -0.46581,0.91094 -1.31982,1.38193 -0.854,0.46582 -1.84257,0.46582 -1.07138,0 -1.91503,-0.51758 -0.84365,-0.51757 -1.27842,-1.41298 -0.43476,-0.89541 -0.43476,-1.89433 z m 1.03515,0.0155 q 0,1.37157 0.73496,2.16347 0.74013,0.78671 1.85292,0.78671 1.1335,0 1.86328,-0.79707 0.73496,-0.79706 0.73496,-2.26181 0,-0.92646 -0.31572,-1.61484 -0.31055,-0.69355 -0.91611,-1.07138 -0.60039,-0.38301 -1.35088,-0.38301 -1.06621,0 -1.8374,0.73496 -0.76601,0.72979 -0.76601,2.44297 z" />
  </g>
  <path
     style="fill:#000000;fill-rule:evenodd;stroke:#000000;stroke-width:0;stroke-linejoin:miter;shape-rendering:geometricPrecision"
     inkscape:connector-curvature="0"
     id="path210"
     d="m 296.57464,117.57833 v 0 l 0.34666,0.58666 -0.54666,0.41334 -0.42667,-0.73334 z" />
  <path
     style="fill:#000000;fill-rule:evenodd;stroke:#000000;stroke-width:0;stroke-linejoin:miter;shape-rendering:geometricPrecision"
     inkscape:connector-curvature="0"
     id="path212"
     d="m 293.84131,118.71166 v 0 l 0.73333,1.25333 -0.54666,0.42666 -0.81333,-1.41333 z" />
  <path
     style="fill:#000000;fill-rule:evenodd;stroke:#000000;stroke-width:0;stroke-linejoin:miter;shape-rendering:geometricPrecision"
     inkscape:connector-curvature="0"
     id="path214"
     d="m 291.10799,119.84499 v 0 l 1.11999,1.93333 -0.54666,0.41333 -1.2,-2.07999 z" />
  <path
     style="fill:#000000;fill-rule:evenodd;stroke:#000000;stroke-width:0;stroke-linejoin:miter;shape-rendering:geometricPrecision"
     inkscape:connector-curvature="0"
     id="path216"
     d="m 288.37466,120.97832 v 0 l 1.50666,2.59999 -0.54666,0.41334 -1.58667,-2.74666 z" />
  <g
     id="text222"
     style="font-size:15.99995995px;text-anchor:start;stroke-width:1.33333004;text-rendering:geometricPrecision"
     aria-label="OBn"
     transform="translate(0,2)">
    <path
       inkscape:connector-curvature="0"
       id="path1695"
       style="font-size:10.59997368px;font-family:Arial;fill:#000000;stroke-width:1.33333004"
       d="m 332.9803,124.01612 q 0,-1.88916 1.01445,-2.95537 1.01445,-1.07138 2.61894,-1.07138 1.05068,0 1.89433,0.50205 0.84365,0.50205 1.28359,1.40263 0.44511,0.89541 0.44511,2.03408 0,1.1542 -0.46582,2.06513 -0.46581,0.91094 -1.31982,1.38193 -0.854,0.46582 -1.84257,0.46582 -1.07138,0 -1.91503,-0.51758 -0.84365,-0.51757 -1.27842,-1.41298 -0.43476,-0.89541 -0.43476,-1.89433 z m 1.03515,0.0155 q 0,1.37157 0.73496,2.16347 0.74013,0.78671 1.85292,0.78671 1.1335,0 1.86328,-0.79707 0.73496,-0.79706 0.73496,-2.26181 0,-0.92646 -0.31572,-1.61484 -0.31055,-0.69355 -0.91611,-1.07138 -0.60039,-0.38301 -1.35088,-0.38301 -1.06621,0 -1.8374,0.73496 -0.76601,0.72979 -0.76601,2.44297 z" />
    <path
       inkscape:connector-curvature="0"
       id="path1697"
       style="font-size:10.59997368px;font-family:Arial;fill:#000000;stroke-width:1.33333004"
       d="m 341.48408,127.71162 v -7.58768 h 2.84668 q 0.86953,0 1.39228,0.23291 0.52793,0.22773 0.82295,0.70908 0.30019,0.47617 0.30019,0.99892 0,0.48653 -0.26396,0.91611 -0.26397,0.42959 -0.79707,0.69356 0.68837,0.20185 1.05585,0.68837 0.37266,0.48653 0.37266,1.14902 0,0.53311 -0.22773,0.99375 -0.22256,0.45547 -0.55381,0.70391 -0.33125,0.24843 -0.8333,0.37783 -0.49687,0.12422 -1.22148,0.12422 z m 1.0041,-4.39941 h 1.64072 q 0.66768,0 0.95752,-0.088 0.38301,-0.11387 0.57451,-0.37784 0.19668,-0.26396 0.19668,-0.66249 0,-0.37784 -0.18115,-0.6625 -0.18116,-0.28985 -0.51758,-0.39336 -0.33643,-0.10869 -1.1542,-0.10869 h -1.5165 z m 0,3.504 h 1.88916 q 0.48652,0 0.6832,-0.0362 0.34678,-0.0621 0.57969,-0.20703 0.23291,-0.14492 0.383,-0.41924 0.1501,-0.27949 0.1501,-0.6418 0,-0.42441 -0.21738,-0.73495 -0.21738,-0.31573 -0.60557,-0.43994 -0.383,-0.1294 -1.10761,-0.1294 h -1.75459 z" />
    <path
       inkscape:connector-curvature="0"
       id="path1699"
       style="font-size:10.59997368px;font-family:Arial;fill:#000000;stroke-width:1.33333004"
       d="m 348.4869,127.71162 v -5.49667 h 0.83847 v 0.78154 q 0.60557,-0.90576 1.74941,-0.90576 0.49688,0 0.91094,0.18115 0.41924,0.17598 0.62627,0.46582 0.20703,0.28985 0.28984,0.68838 0.0518,0.25879 0.0518,0.90576 v 3.37978 h -0.93164 v -3.34355 q 0,-0.56933 -0.10869,-0.84883 -0.10869,-0.28466 -0.38819,-0.45029 -0.27431,-0.1708 -0.64697,-0.1708 -0.59521,0 -1.02997,0.37783 -0.42959,0.37783 -0.42959,1.43369 v 3.00195 z" />
  </g>
  <path
     style="fill:#000000;fill-rule:evenodd;stroke:#000000;stroke-width:0;stroke-linejoin:miter;shape-rendering:geometricPrecision"
     inkscape:connector-curvature="0"
     id="path226"
     d="m 323.14791,118.16499 v 0 l 0.34666,-0.58666 0.62667,0.26666 -0.42667,0.73334 z" />
  <path
     style="fill:#000000;fill-rule:evenodd;stroke:#000000;stroke-width:0;stroke-linejoin:miter;shape-rendering:geometricPrecision"
     inkscape:connector-curvature="0"
     id="path228"
     d="m 325.5479,119.99166 v 0 l 0.72,-1.25333 0.64,0.26666 -0.81334,1.41333 z" />
  <path
     style="fill:#000000;fill-rule:evenodd;stroke:#000000;stroke-width:0;stroke-linejoin:miter;shape-rendering:geometricPrecision"
     inkscape:connector-curvature="0"
     id="path230"
     d="m 327.93456,121.83165 v 0 l 1.12,-1.93333 0.64,0.26667 -1.21333,2.07999 z" />
  <path
     style="fill:#000000;fill-rule:evenodd;stroke:#000000;stroke-width:0;stroke-linejoin:miter;shape-rendering:geometricPrecision"
     inkscape:connector-curvature="0"
     id="path232"
     d="m 330.33455,123.65831 v 0 l 1.50667,-2.59999 0.62666,0.26667 -1.58666,2.75999 z" />
  <g
     id="text238"
     style="font-size:15.99995995px;text-anchor:start;stroke-width:1.33333004;text-rendering:geometricPrecision"
     aria-label="OBn"
     transform="translate(0,2)">
    <path
       inkscape:connector-curvature="0"
       id="path1702"
       style="font-size:10.59997368px;font-family:Arial;fill:#000000;stroke-width:1.33333004"
       d="m 306.42033,139.36276 q 0,-1.88916 1.01445,-2.95536 1.01445,-1.07139 2.61894,-1.07139 1.05068,0 1.89433,0.50205 0.84365,0.50205 1.28359,1.40263 0.44512,0.89541 0.44512,2.03408 0,1.1542 -0.46582,2.06513 -0.46582,0.91094 -1.31982,1.38193 -0.85401,0.46582 -1.84258,0.46582 -1.07138,0 -1.91503,-0.51757 -0.84365,-0.51758 -1.27842,-1.41299 -0.43476,-0.89541 -0.43476,-1.89433 z m 1.03515,0.0155 q 0,1.37158 0.73496,2.16347 0.74014,0.78671 1.85293,0.78671 1.13349,0 1.86327,-0.79706 0.73496,-0.79707 0.73496,-2.26181 0,-0.92647 -0.31572,-1.61484 -0.31054,-0.69356 -0.91611,-1.07139 -0.60039,-0.38301 -1.35088,-0.38301 -1.0662,0 -1.83739,0.73496 -0.76602,0.72979 -0.76602,2.44297 z" />
    <path
       inkscape:connector-curvature="0"
       id="path1704"
       style="font-size:10.59997368px;font-family:Arial;fill:#000000;stroke-width:1.33333004"
       d="m 314.92412,143.05826 v -7.58768 h 2.84667 q 0.86953,0 1.39228,0.23291 0.52793,0.22773 0.82295,0.70908 0.30019,0.47617 0.30019,0.99892 0,0.48653 -0.26396,0.91612 -0.26397,0.42958 -0.79707,0.69355 0.68838,0.20185 1.05586,0.68838 0.37265,0.48652 0.37265,1.14902 0,0.5331 -0.22773,0.99374 -0.22256,0.45547 -0.55381,0.70391 -0.33125,0.24844 -0.8333,0.37783 -0.49687,0.12422 -1.22148,0.12422 z m 1.0041,-4.39941 h 1.64071 q 0.66768,0 0.95752,-0.088 0.38301,-0.11387 0.57451,-0.37783 0.19668,-0.26397 0.19668,-0.6625 0,-0.37783 -0.18115,-0.6625 -0.18115,-0.28984 -0.51758,-0.39336 -0.33642,-0.10869 -1.15419,-0.10869 h -1.5165 z m 0,3.504 h 1.88915 q 0.48652,0 0.6832,-0.0362 0.34678,-0.0621 0.57969,-0.20703 0.23291,-0.14492 0.38301,-0.41924 0.15009,-0.27949 0.15009,-0.64179 0,-0.42442 -0.21738,-0.73496 -0.21738,-0.31572 -0.60556,-0.43994 -0.38301,-0.1294 -1.10762,-0.1294 h -1.75458 z" />
    <path
       inkscape:connector-curvature="0"
       id="path1706"
       style="font-size:10.59997368px;font-family:Arial;fill:#000000;stroke-width:1.33333004"
       d="m 321.92693,143.05826 v -5.49667 h 0.83848 v 0.78154 q 0.60556,-0.90576 1.74941,-0.90576 0.49687,0 0.91093,0.18116 0.41924,0.17597 0.62627,0.46581 0.20703,0.28985 0.28984,0.68838 0.0518,0.25879 0.0518,0.90576 v 3.37978 h -0.93164 v -3.34355 q 0,-0.56933 -0.10869,-0.84882 -0.10869,-0.28467 -0.38818,-0.4503 -0.27432,-0.1708 -0.64697,-0.1708 -0.59522,0 -1.02998,0.37783 -0.42959,0.37784 -0.42959,1.43369 v 3.00195 z" />
  </g>
  <path
     style="fill:#000000;fill-rule:evenodd;stroke:#000000;stroke-width:0;stroke-linejoin:miter;shape-rendering:geometricPrecision"
     inkscape:connector-curvature="0"
     id="path242"
     d="m 309.68127,125.73831 v 0 l 0.36,-0.18667 0.36,0.18667 1.22666,9.87997 h -1.58666 -1.58666 z" />
  <g
     id="text271"
     style="font-size:15.99995995px;text-anchor:start;stroke-width:1.33333004;text-rendering:geometricPrecision"
     aria-label="H"
     transform="translate(0,2)">
    <path
       inkscape:connector-curvature="0"
       id="path1709"
       style="font-size:10.66664028px;font-family:Arial;fill:#009d73;stroke-width:1.33333004"
       d="m 333.60203,97.058372 v -7.635397 h 1.01041 v 3.135409 h 3.96874 v -3.135409 h 1.01042 v 7.635397 h -1.01042 v -3.598949 h -3.96874 v 3.598949 z" />
  </g>
  <path
     style="fill:#009d73;fill-rule:evenodd;stroke:#009d73;stroke-width:0;stroke-linejoin:miter;shape-rendering:geometricPrecision"
     inkscape:connector-curvature="0"
     id="path275"
     d="m 323.6679,102.73837 v 0 l -0.34666,-0.2 v -0.38667 l 8.71998,-5.039987 0.16,0.293332 0.17333,0.293333 z" />
  <text
     xml:space="preserve"
     style="font-style:normal;font-variant:normal;font-weight:normal;font-stretch:normal;font-size:10.66666698px;line-height:1.25;font-family:Arial;-inkscape-font-specification:Arial;text-align:center;letter-spacing:0px;word-spacing:0px;text-anchor:middle;fill:#000000;fill-opacity:1;stroke:none"
     x="151.53146"
     y="89.95401"
     id="text1466"><tspan
       sodipodi:role="line"
       id="tspan1464"
       x="151.53146"
       y="89.95401"
       style="text-align:center;text-anchor:middle">\acrshort{thf}, \SI{-25}{\degreeCelsius} do rt</tspan></text>
  <text
     xml:space="preserve"
     style="font-style:normal;font-variant:normal;font-weight:normal;font-stretch:normal;font-size:10.66666698px;line-height:1.25;font-family:Arial;-inkscape-font-specification:Arial;text-align:center;letter-spacing:0px;word-spacing:0px;text-anchor:middle;fill:#cc79a7;fill-opacity:1;stroke:none"
     x="151.53146"
     y="163.80786"
     id="text1466-8"><tspan
       sodipodi:role="line"
       id="tspan1464-4"
       x="151.53146"
       y="163.80786"
       style="text-align:center;text-anchor:middle;fill:#cc79a7">\acrshort{dcm}, \SI{-78}{\degreeCelsius} do rt</tspan></text>
  <text
     xml:space="preserve"
     style="font-style:normal;font-variant:normal;font-weight:normal;font-stretch:normal;font-size:10.66666698px;line-height:1.25;font-family:Arial;-inkscape-font-specification:Arial;text-align:start;letter-spacing:0px;word-spacing:0px;text-anchor:start;fill:#000000;fill-opacity:1;stroke:none"
     x="-32.63921"
     y="157.28262"
     id="text1488"><tspan
       sodipodi:role="line"
       id="tspan1486"
       x="-32.63921"
       y="157.28262">\cmpd{lactam-glu}</tspan></text>
  <text
     xml:space="preserve"
     style="font-style:normal;font-variant:normal;font-weight:normal;font-stretch:normal;font-size:10.66666698px;line-height:1.25;font-family:Arial;-inkscape-font-specification:Arial;text-align:start;letter-spacing:0px;word-spacing:0px;text-anchor:start;fill:#000000;fill-opacity:1;stroke:none"
     x="267.81845"
     y="157.28262"
     id="text1488-6"><tspan
       sodipodi:role="line"
       id="tspan1486-6"
       x="267.81845"
       y="157.28262">\cmpd{imine-glu}</tspan></text>
</svg>
