<?xml version="1.0" encoding="UTF-8" standalone="no"?>
<svg
   xmlns:dc="http://purl.org/dc/elements/1.1/"
   xmlns:cc="http://creativecommons.org/ns#"
   xmlns:rdf="http://www.w3.org/1999/02/22-rdf-syntax-ns#"
   xmlns:svg="http://www.w3.org/2000/svg"
   xmlns="http://www.w3.org/2000/svg"
   xmlns:sodipodi="http://sodipodi.sourceforge.net/DTD/sodipodi-0.dtd"
   xmlns:inkscape="http://www.inkscape.org/namespaces/inkscape"
   viewBox="5.97 55.65 460.03 55.86"
   preserveAspectRatio="xMidYMid"
   width="100%"
   height="100%"
   version="1.1"
   id="svg328"
   sodipodi:docname="zr-knoevenagel.svg"
   inkscape:version="0.92.3 (2405546, 2018-03-11)">
  <metadata
     id="metadata334">
    <rdf:RDF>
      <cc:Work
         rdf:about="">
        <dc:format>image/svg+xml</dc:format>
        <dc:type
           rdf:resource="http://purl.org/dc/dcmitype/StillImage" />
      </cc:Work>
    </rdf:RDF>
  </metadata>
  <defs
     id="defs332" />
  <sodipodi:namedview
     pagecolor="#ffffff"
     bordercolor="#666666"
     borderopacity="1"
     objecttolerance="10"
     gridtolerance="10"
     guidetolerance="10"
     inkscape:pageopacity="0"
     inkscape:pageshadow="2"
     inkscape:window-width="1920"
     inkscape:window-height="1017"
     id="namedview330"
     showgrid="false"
     inkscape:zoom="2.2134073"
     inkscape:cx="263.68332"
     inkscape:cy="36.105957"
     inkscape:window-x="-8"
     inkscape:window-y="-8"
     inkscape:window-maximized="1"
     inkscape:current-layer="svg328" />
  <clipPath
     id="10001">
    <rect
       x="0.255"
       y="0.255"
       width="465.99"
       height="769.29"
       id="rect2" />
  </clipPath>
  <path
     style="fill:#000000;fill-rule:evenodd;stroke:#000000;stroke-width:0;stroke-linejoin:miter;shape-rendering:geometricPrecision"
     inkscape:connector-curvature="0"
     id="path7"
     d="m -26.283981,87.848591 v 0 l 0.346665,0.199999 0.346666,0.2 v 14.94663 l -0.346666,0.2 -0.333332,-0.2 z" />
  <path
     style="stroke:#000000;stroke-width:0.67999828;shape-rendering:auto"
     d="m -23.17732,89.64859 v 12.14664"
     id="line9" />
  <path
     style="fill:#000000;fill-rule:evenodd;stroke:#000000;stroke-width:0;stroke-linejoin:miter;shape-rendering:geometricPrecision"
     inkscape:connector-curvature="0"
     id="path12"
     d="m -25.937316,103.78188 v 0 -0.38666 l 0.346666,-0.2 12.946634,7.47998 v 0.38667 0.38666 z" />
  <path
     style="fill:#000000;fill-rule:evenodd;stroke:#000000;stroke-width:0;stroke-linejoin:miter;shape-rendering:geometricPrecision"
     inkscape:connector-curvature="0"
     id="path16"
     d="m -12.644016,111.44853 v 0 -0.38666 -0.38667 l 12.95996803,-7.47998 0.3333325,0.2 0.3333325,0.2 z" />
  <path
     style="stroke:#000000;stroke-width:0.67999828;shape-rendering:auto"
     d="m -12.644016,107.87521 10.533309,-6.07998"
     id="line18" />
  <path
     style="fill:#000000;fill-rule:evenodd;stroke:#000000;stroke-width:0;stroke-linejoin:miter;shape-rendering:geometricPrecision"
     inkscape:connector-curvature="0"
     id="path22"
     d="m 0.98261703,103.59522 v 0 l -0.3333325,-0.2 -0.3333325,-0.2 V 88.24859 l 0.3333325,-0.2 0.3466658,0.2 z" />
  <path
     style="fill:#000000;fill-rule:evenodd;stroke:#000000;stroke-width:0;stroke-linejoin:miter;shape-rendering:geometricPrecision"
     inkscape:connector-curvature="0"
     id="path26"
     d="m 0.64928453,87.661924 v 0 0.386666 l -0.3333325,0.2 -12.95996803,-7.479982 v -0.386665 -0.386666 z" />
  <path
     style="stroke:#000000;stroke-width:0.67999828;shape-rendering:auto"
     d="M -2.110707,89.64859 -12.644016,83.568604"
     id="line28" />
  <path
     style="fill:#000000;fill-rule:evenodd;stroke:#000000;stroke-width:0;stroke-linejoin:miter;shape-rendering:geometricPrecision"
     inkscape:connector-curvature="0"
     id="path32"
     d="m -12.644016,79.995277 v 0 0.386666 0.386665 l -12.946634,7.479982 -0.346666,-0.2 -0.346665,-0.199999 z" />
  <g
     aria-label="MeO2C"
     style="font-size:15.99995995px;text-anchor:end;stroke-width:1.33333004;text-rendering:geometricPrecision"
     id="text42">
    <path
       d="m -69.858666,115.26186 v -7.63539 h 1.520829 l 1.807287,5.40623 q 0.25,0.75521 0.364583,1.13021 0.130208,-0.41667 0.406249,-1.22396 l 1.82812,-5.31248 h 1.359372 v 7.63539 h -0.973956 v -6.39061 l -2.218745,6.39061 h -0.911456 l -2.208328,-6.49998 v 6.49998 z"
       style="font-size:10.66664028px;font-family:Arial;fill:#000000;stroke-width:1.33333004"
       id="path1574"
       inkscape:connector-curvature="0" />
    <path
       d="m -57.264948,113.48062 0.968748,0.11979 q -0.229166,0.84896 -0.848957,1.3177 -0.61979,0.46875 -1.583329,0.46875 -1.213539,0 -1.927078,-0.74479 -0.708332,-0.74999 -0.708332,-2.09895 0,-1.39583 0.718748,-2.16666 0.718748,-0.77083 1.864579,-0.77083 1.109372,0 1.812495,0.7552 0.703124,0.75521 0.703124,2.125 0,0.0833 -0.0052,0.25 h -4.124989 q 0.05208,0.91145 0.515623,1.39583 0.463541,0.48437 1.156247,0.48437 0.515624,0 0.880207,-0.27083 0.364582,-0.27083 0.578123,-0.86458 z m -3.078117,-1.51562 h 3.088534 q -0.0625,-0.69792 -0.354166,-1.04688 -0.447916,-0.54166 -1.161455,-0.54166 -0.645832,0 -1.088539,0.43229 -0.437499,0.43229 -0.484374,1.15625 z"
       style="font-size:10.66664028px;font-family:Arial;fill:#000000;stroke-width:1.33333004"
       id="path1576"
       inkscape:connector-curvature="0" />
    <path
       d="m -55.301412,111.54312 q 0,-1.90103 1.020831,-2.97395 1.020831,-1.07812 2.63541,-1.07812 1.057289,0 1.906246,0.50521 0.848956,0.5052 1.291663,1.41145 0.447916,0.90104 0.447916,2.04687 0,1.16146 -0.468749,2.07812 -0.468749,0.91667 -1.328122,1.39062 -0.859373,0.46875 -1.854162,0.46875 -1.078122,0 -1.927079,-0.52083 -0.848956,-0.52083 -1.286455,-1.42187 -0.437499,-0.90104 -0.437499,-1.90625 z m 1.041664,0.0156 q 0,1.3802 0.739582,2.17708 0.74479,0.79166 1.864579,0.79166 1.140622,0 1.874995,-0.80208 0.739582,-0.80208 0.739582,-2.27604 0,-0.93229 -0.317708,-1.62499 -0.312499,-0.69792 -0.921873,-1.07813 -0.604165,-0.38541 -1.359371,-0.38541 -1.072914,0 -1.848954,0.73958 -0.770832,0.73437 -0.770832,2.45833 z"
       style="font-size:10.66664028px;font-family:Arial;fill:#000000;stroke-width:1.33333004"
       id="path1578"
       inkscape:connector-curvature="0" />
    <path
       d="m -43.498055,116.99941 v 0.67578 h -3.785147 q -0.0078,-0.2539 0.08203,-0.48828 0.14453,-0.38672 0.460936,-0.76172 0.320312,-0.375 0.921873,-0.86718 0.933591,-0.76562 1.261715,-1.21094 0.328124,-0.44921 0.328124,-0.84765 0,-0.41797 -0.30078,-0.70312 -0.296874,-0.28906 -0.777342,-0.28906 -0.507811,0 -0.812498,0.30468 -0.304687,0.30469 -0.308593,0.84375 l -0.722654,-0.0742 q 0.07422,-0.80859 0.558592,-1.23046 0.484374,-0.42578 1.300778,-0.42578 0.824217,0 1.304684,0.45703 0.480468,0.45703 0.480468,1.13281 0,0.34374 -0.140625,0.67577 -0.140625,0.33204 -0.468749,0.69922 -0.324218,0.36719 -1.082028,1.00781 -0.632811,0.53125 -0.812498,0.72266 -0.179687,0.1875 -0.296874,0.3789 z"
       style="font-size:7.99997997px;font-family:Arial;fill:#000000;stroke-width:1.33333004"
       id="path1580"
       inkscape:connector-curvature="0" />
    <path
       d="m -36.801457,112.58479 1.010414,0.2552 q -0.317707,1.24479 -1.14583,1.90104 -0.822915,0.65104 -2.01562,0.65104 -1.234372,0 -2.010412,-0.5 -0.770831,-0.5052 -1.17708,-1.45833 -0.401041,-0.95312 -0.401041,-2.04687 0,-1.1927 0.453124,-2.07812 0.458332,-0.89062 1.296872,-1.34895 0.843747,-0.46354 1.854162,-0.46354 1.14583,0 1.927078,0.58333 0.781248,0.58333 1.088539,1.64062 l -0.994789,0.23438 q -0.265624,-0.83334 -0.770832,-1.21354 -0.505207,-0.38021 -1.27083,-0.38021 -0.880206,0 -1.473954,0.42187 -0.588541,0.42188 -0.828123,1.13542 -0.239583,0.70833 -0.239583,1.46353 0,0.97396 0.281249,1.70313 0.286458,0.72395 0.885415,1.08333 0.598957,0.35937 1.296872,0.35937 0.848956,0 1.437496,-0.48958 0.58854,-0.48958 0.796873,-1.45312 z"
       style="font-size:10.66664028px;font-family:Arial;fill:#000000;stroke-width:1.33333004"
       id="path1582"
       inkscape:connector-curvature="0" />
  </g>
  <path
     style="fill:#000000;fill-rule:evenodd;stroke:#000000;stroke-width:0;stroke-linejoin:miter;shape-rendering:geometricPrecision"
     inkscape:connector-curvature="0"
     id="path46"
     d="m -26.270648,103.19522 v 0 l 0.333332,0.2 v 0.38666 l -8.346645,4.81333 -0.16,-0.29334 -0.173333,-0.29333 z" />
  <path
     style="fill:#000000;fill-rule:evenodd;stroke:#000000;stroke-width:0;stroke-linejoin:miter;shape-rendering:geometricPrecision"
     inkscape:connector-curvature="0"
     id="path50"
     d="m 0.99595033,88.24859 v 0 l -0.3466658,-0.2 V 87.661924 L 13.929251,79.995277 v 0.386666 0.386665 z" />
  <g
     aria-label="N"
     style="font-size:15.99995995px;text-anchor:start;stroke-width:1.33333004;text-rendering:geometricPrecision"
     id="text56">
    <path
       d="m 24.168398,92.248573 v -7.635397 h 1.036456 l 4.010406,5.994776 v -5.994776 h 0.968748 v 7.635397 h -1.036456 l -4.010407,-5.999985 v 5.999985 z"
       style="font-size:10.66664028px;font-family:Arial;fill:#000000;stroke-width:1.33333004"
       id="path1585"
       inkscape:connector-curvature="0" />
  </g>
  <path
     style="fill:#000000;fill-rule:evenodd;stroke:#000000;stroke-width:0;stroke-linejoin:miter;shape-rendering:geometricPrecision"
     inkscape:connector-curvature="0"
     id="path60"
     d="m 13.929251,80.768608 v 0 -0.386665 -0.386666 l 8.919978,5.13332 -0.173333,0.306666 -0.159999,0.293333 z" />
  <g
     aria-label="O"
     style="font-size:15.99995995px;text-anchor:start;stroke-width:1.33333004;text-rendering:geometricPrecision"
     id="text66">
    <path
       d="m 10.311549,65.516565 q 0,-1.901037 1.020831,-2.973951 1.02083,-1.078122 2.63541,-1.078122 1.057289,0 1.906245,0.505207 0.848956,0.505207 1.291664,1.411455 0.447915,0.901039 0.447915,2.04687 0,1.161455 -0.468749,2.078119 -0.468749,0.916665 -1.328121,1.390622 -0.859373,0.468749 -1.854162,0.468749 -1.078123,0 -1.927079,-0.520832 -0.848956,-0.520832 -1.286455,-1.421872 -0.437499,-0.901039 -0.437499,-1.906245 z m 1.041664,0.01563 q 0,1.380205 0.739581,2.177078 0.74479,0.791665 1.864579,0.791665 1.140622,0 1.874996,-0.802082 0.739581,-0.802081 0.739581,-2.276036 0,-0.932289 -0.317708,-1.624996 -0.312499,-0.697915 -0.921872,-1.078122 -0.604165,-0.385416 -1.359372,-0.385416 -1.072914,0 -1.848954,0.739582 -0.770831,0.734373 -0.770831,2.458327 z"
       style="font-size:10.66664028px;font-family:Arial;fill:#000000;stroke-width:1.33333004"
       id="path1588"
       inkscape:connector-curvature="0" />
  </g>
  <path
     style="stroke:#000000;stroke-width:0.67999828;shape-rendering:auto"
     d="M 12.542592,80.38195 V 71.168633"
     id="line70" />
  <path
     style="fill:#000000;fill-rule:evenodd;stroke:#000000;stroke-width:0;stroke-linejoin:miter;shape-rendering:geometricPrecision"
     inkscape:connector-curvature="0"
     id="path72"
     d="m 14.969249,80.595275 v 0 l 0.679998,0.386666 v -9.813309 h -0.679998 z" />
  <path
     style="fill:#000000;fill-rule:evenodd;stroke:#000000;stroke-width:0;stroke-linejoin:miter;shape-rendering:geometricPrecision"
     inkscape:connector-curvature="0"
     id="path74"
     d="m 12.209256,80.981941 v 0 l 0.679998,-0.386666 v -9.426643 h -0.679998 z" />
  <path
     style="fill:#000000;fill-rule:evenodd;stroke:#000000;stroke-width:0;stroke-linejoin:miter;shape-rendering:geometricPrecision"
     inkscape:connector-curvature="0"
     id="path78"
     d="m 31.849207,85.768596 v 0 l -0.16,-0.293333 -0.173333,-0.293332 8.826645,-5.093321 0.173333,0.293333 0.173332,0.293332 z" />
  <path
     style="fill:#000000;fill-rule:evenodd;stroke:#000000;stroke-width:0;stroke-linejoin:miter;shape-rendering:geometricPrecision"
     inkscape:connector-curvature="0"
     id="path82"
     d="m 26.889219,91.568581 v 0 h 0.333332 0.346666 v 11.826639 h -0.346666 -0.346665 z" />
  <path
     style="stroke:#000000;stroke-width:0.67999828;shape-rendering:auto"
     d="M 131.11563,91.728577 H 50.862492"
     id="line86" />
  <path
     style="fill:#000000;fill-rule:evenodd;stroke:#000000;stroke-width:0;stroke-linejoin:miter;stroke-miterlimit:5.89496231;shape-rendering:geometricPrecision"
     inkscape:connector-curvature="0"
     id="path88"
     stroke-miterlimit="5.89496254687639"
     d="m 135.72895,91.728581 -6.79999,-1.706663 c 1.44,0.959998 1.44,2.453328 0,3.413325 z" />
  <path
     style="fill:#000000;fill-rule:evenodd;stroke:#000000;stroke-width:0;stroke-linejoin:miter;shape-rendering:geometricPrecision"
     inkscape:connector-curvature="0"
     id="path91"
     d="m 443.80818,87.848591 v 0 l 0.34666,0.199999 0.34667,0.2 v 14.94663 l -0.34667,0.2 -0.33333,-0.2 z" />
  <path
     style="stroke:#000000;stroke-width:0.67999828;shape-rendering:auto"
     d="m 446.91483,89.64859 v 12.14664"
     id="line93" />
  <path
     style="fill:#000000;fill-rule:evenodd;stroke:#000000;stroke-width:0;stroke-linejoin:miter;shape-rendering:geometricPrecision"
     inkscape:connector-curvature="0"
     id="path97"
     d="m 444.15484,103.78188 v 0 -0.38666 l 0.34667,-0.2 12.9333,7.47998 v 0.38667 0.38666 z" />
  <path
     style="fill:#000000;fill-rule:evenodd;stroke:#000000;stroke-width:0;stroke-linejoin:miter;shape-rendering:geometricPrecision"
     inkscape:connector-curvature="0"
     id="path101"
     d="m 457.43481,111.44853 v 0 -0.38666 -0.38667 l 12.95997,-7.47998 0.33333,0.2 0.33333,0.2 z" />
  <path
     style="stroke:#000000;stroke-width:0.67999828;shape-rendering:auto"
     d="m 457.43481,107.87521 10.5333,-6.07998"
     id="line103" />
  <path
     style="fill:#000000;fill-rule:evenodd;stroke:#000000;stroke-width:0;stroke-linejoin:miter;shape-rendering:geometricPrecision"
     inkscape:connector-curvature="0"
     id="path107"
     d="m 471.06144,103.59522 v 0 l -0.33333,-0.2 -0.33333,-0.2 V 88.24859 l 0.33333,-0.2 0.34667,0.2 z" />
  <path
     style="fill:#000000;fill-rule:evenodd;stroke:#000000;stroke-width:0;stroke-linejoin:miter;shape-rendering:geometricPrecision"
     inkscape:connector-curvature="0"
     id="path111"
     d="m 470.72811,87.661924 v 0 0.386666 l -0.33333,0.2 -12.95997,-7.479982 v -0.386665 -0.386666 z" />
  <path
     style="stroke:#000000;stroke-width:0.67999828;shape-rendering:auto"
     d="m 467.96811,89.64859 -10.5333,-6.079986"
     id="line113" />
  <path
     style="fill:#000000;fill-rule:evenodd;stroke:#000000;stroke-width:0;stroke-linejoin:miter;shape-rendering:geometricPrecision"
     inkscape:connector-curvature="0"
     id="path117"
     d="m 457.43481,79.995277 v 0 0.386666 0.386665 l -12.9333,7.479982 -0.34667,-0.2 -0.34666,-0.199999 z" />
  <g
     aria-label="MeO2C"
     style="font-size:15.99995995px;text-anchor:end;stroke-width:1.33333004;text-rendering:geometricPrecision"
     id="text127">
    <path
       d="m 400.2335,115.26186 v -7.63539 h 1.52083 l 1.80729,5.40623 q 0.25,0.75521 0.36458,1.13021 0.13021,-0.41667 0.40625,-1.22396 l 1.82812,-5.31248 h 1.35937 v 7.63539 h -0.97395 v -6.39061 l -2.21875,6.39061 h -0.91145 l -2.20833,-6.49998 v 6.49998 z"
       style="font-size:10.66664028px;font-family:Arial;fill:#000000;stroke-width:1.33333004"
       id="path1596"
       inkscape:connector-curvature="0" />
    <path
       d="m 412.82722,113.48062 0.96875,0.11979 q -0.22917,0.84896 -0.84896,1.3177 -0.61979,0.46875 -1.58333,0.46875 -1.21353,0 -1.92707,-0.74479 -0.70834,-0.74999 -0.70834,-2.09895 0,-1.39583 0.71875,-2.16666 0.71875,-0.77083 1.86458,-0.77083 1.10937,0 1.8125,0.7552 0.70312,0.75521 0.70312,2.125 0,0.0833 -0.005,0.25 h -4.12499 q 0.0521,0.91145 0.51563,1.39583 0.46354,0.48437 1.15624,0.48437 0.51563,0 0.88021,-0.27083 0.36458,-0.27083 0.57812,-0.86458 z m -3.07811,-1.51562 h 3.08853 q -0.0625,-0.69792 -0.35417,-1.04688 -0.44791,-0.54166 -1.16145,-0.54166 -0.64583,0 -1.08854,0.43229 -0.4375,0.43229 -0.48437,1.15625 z"
       style="font-size:10.66664028px;font-family:Arial;fill:#000000;stroke-width:1.33333004"
       id="path1598"
       inkscape:connector-curvature="0" />
    <path
       d="m 414.79076,111.54312 q 0,-1.90103 1.02083,-2.97395 1.02083,-1.07812 2.63541,-1.07812 1.05729,0 1.90625,0.50521 0.84895,0.5052 1.29166,1.41145 0.44791,0.90104 0.44791,2.04687 0,1.16146 -0.46874,2.07812 -0.46875,0.91667 -1.32813,1.39062 -0.85937,0.46875 -1.85416,0.46875 -1.07812,0 -1.92708,-0.52083 -0.84895,-0.52083 -1.28645,-1.42187 -0.4375,-0.90104 -0.4375,-1.90625 z m 1.04166,0.0156 q 0,1.3802 0.73958,2.17708 0.74479,0.79166 1.86458,0.79166 1.14063,0 1.875,-0.80208 0.73958,-0.80208 0.73958,-2.27604 0,-0.93229 -0.31771,-1.62499 -0.3125,-0.69792 -0.92187,-1.07813 -0.60417,-0.38541 -1.35937,-0.38541 -1.07292,0 -1.84896,0.73958 -0.77083,0.73437 -0.77083,2.45833 z"
       style="font-size:10.66664028px;font-family:Arial;fill:#000000;stroke-width:1.33333004"
       id="path1600"
       inkscape:connector-curvature="0" />
    <path
       d="m 426.59412,116.99941 v 0.67578 h -3.78515 q -0.008,-0.2539 0.082,-0.48828 0.14453,-0.38672 0.46094,-0.76172 0.32031,-0.375 0.92187,-0.86718 0.93359,-0.76562 1.26171,-1.21094 0.32813,-0.44921 0.32813,-0.84765 0,-0.41797 -0.30078,-0.70312 -0.29688,-0.28906 -0.77734,-0.28906 -0.50781,0 -0.8125,0.30468 -0.30469,0.30469 -0.30859,0.84375 l -0.72266,-0.0742 q 0.0742,-0.80859 0.55859,-1.23046 0.48438,-0.42578 1.30078,-0.42578 0.82422,0 1.30469,0.45703 0.48046,0.45703 0.48046,1.13281 0,0.34374 -0.14062,0.67577 -0.14063,0.33204 -0.46875,0.69922 -0.32422,0.36719 -1.08203,1.00781 -0.63281,0.53125 -0.8125,0.72266 -0.17968,0.1875 -0.29687,0.3789 z"
       style="font-size:7.99997997px;font-family:Arial;fill:#000000;stroke-width:1.33333004"
       id="path1602"
       inkscape:connector-curvature="0" />
    <path
       d="m 433.29071,112.58479 1.01042,0.2552 q -0.31771,1.24479 -1.14583,1.90104 -0.82292,0.65104 -2.01562,0.65104 -1.23437,0 -2.01041,-0.5 -0.77084,-0.5052 -1.17708,-1.45833 -0.40105,-0.95312 -0.40105,-2.04687 0,-1.1927 0.45313,-2.07812 0.45833,-0.89062 1.29687,-1.34895 0.84375,-0.46354 1.85416,-0.46354 1.14583,0 1.92708,0.58333 0.78125,0.58333 1.08854,1.64062 l -0.99479,0.23438 q -0.26562,-0.83334 -0.77083,-1.21354 -0.50521,-0.38021 -1.27083,-0.38021 -0.88021,0 -1.47396,0.42187 -0.58854,0.42188 -0.82812,1.13542 -0.23958,0.70833 -0.23958,1.46353 0,0.97396 0.28125,1.70313 0.28646,0.72395 0.88541,1.08333 0.59896,0.35937 1.29687,0.35937 0.84896,0 1.4375,-0.48958 0.58854,-0.48958 0.79687,-1.45312 z"
       style="font-size:10.66664028px;font-family:Arial;fill:#000000;stroke-width:1.33333004"
       id="path1604"
       inkscape:connector-curvature="0" />
  </g>
  <path
     style="fill:#000000;fill-rule:evenodd;stroke:#000000;stroke-width:0;stroke-linejoin:miter;shape-rendering:geometricPrecision"
     inkscape:connector-curvature="0"
     id="path131"
     d="m 443.82151,103.19522 v 0 l 0.33333,0.2 v 0.38666 l -8.30664,4.79999 -0.16,-0.30666 -0.17334,-0.29334 z" />
  <path
     style="fill:#000000;fill-rule:evenodd;stroke:#000000;stroke-width:0;stroke-linejoin:miter;shape-rendering:geometricPrecision"
     inkscape:connector-curvature="0"
     id="path135"
     d="m 471.07478,88.24859 v 0 l -0.34667,-0.2 v -0.386666 l 13.2933,-7.666647 v 0.386666 0.386665 z" />
  <path
     style="fill:#000000;fill-rule:evenodd;stroke:#000000;stroke-width:0;stroke-linejoin:miter;shape-rendering:geometricPrecision"
     inkscape:connector-curvature="0"
     id="path139"
     d="m 484.02141,80.768608 v 0 -0.386665 -0.386666 l 13.27997,7.666647 v 0.386666 l -0.33334,0.2 z" />
  <path
     style="stroke:#000000;stroke-width:0.67999828;shape-rendering:auto"
     d="m 484.02142,83.568604 10.51996,6.079986"
     id="line141" />
  <g
     aria-label="CO2Me"
     style="font-size:15.99995995px;text-anchor:start;stroke-width:1.33333004;text-rendering:geometricPrecision"
     id="text151">
    <path
       d="m 512.99885,81.904855 1.01041,0.255208 q -0.31771,1.244789 -1.14583,1.901037 -0.82292,0.65104 -2.01562,0.65104 -1.23437,0 -2.01041,-0.499999 -0.77083,-0.505207 -1.17708,-1.458329 -0.40104,-0.953123 -0.40104,-2.04687 0,-1.192706 0.45312,-2.07812 0.45833,-0.890623 1.29687,-1.348955 0.84375,-0.463541 1.85416,-0.463541 1.14583,0 1.92708,0.583332 0.78125,0.583332 1.08854,1.640621 l -0.99479,0.234375 q -0.26562,-0.833332 -0.77083,-1.213539 -0.50521,-0.380208 -1.27083,-0.380208 -0.88021,0 -1.47395,0.421874 -0.58854,0.421874 -0.82813,1.135414 -0.23958,0.708332 -0.23958,1.463538 0,0.973956 0.28125,1.703121 0.28646,0.723957 0.88541,1.083331 0.59896,0.359374 1.29688,0.359374 0.84895,0 1.43749,-0.489582 0.58854,-0.489582 0.79688,-1.453122 z"
       style="font-size:10.66664028px;font-family:Arial;fill:#cc78a6;stroke-width:1.33333004"
       id="path1608"
       inkscape:connector-curvature="0" />
    <path
       d="m 514.95197,80.863191 q 0,-1.901037 1.02083,-2.973951 1.02083,-1.078122 2.63541,-1.078122 1.05729,0 1.90624,0.505207 0.84896,0.505207 1.29167,1.411455 0.44791,0.901039 0.44791,2.04687 0,1.161455 -0.46875,2.07812 -0.46875,0.916664 -1.32812,1.390621 -0.85937,0.468749 -1.85416,0.468749 -1.07812,0 -1.92708,-0.520832 -0.84896,-0.520832 -1.28646,-1.421871 -0.43749,-0.90104 -0.43749,-1.906246 z m 1.04166,0.01563 q 0,1.380205 0.73958,2.177078 0.74479,0.791665 1.86458,0.791665 1.14062,0 1.875,-0.802081 0.73958,-0.802082 0.73958,-2.276037 0,-0.932289 -0.31771,-1.624995 -0.3125,-0.697915 -0.92187,-1.078123 -0.60417,-0.385416 -1.35938,-0.385416 -1.07291,0 -1.84895,0.739582 -0.77083,0.734373 -0.77083,2.458327 z"
       style="font-size:10.66664028px;font-family:Arial;fill:#cc78a6;stroke-width:1.33333004"
       id="path1610"
       inkscape:connector-curvature="0" />
    <path
       d="m 526.75532,86.31948 v 0.675779 h -3.78515 q -0.008,-0.253905 0.082,-0.48828 0.14453,-0.386718 0.46093,-0.761717 0.32031,-0.374999 0.92187,-0.867185 0.9336,-0.765623 1.26172,-1.210934 0.32812,-0.449218 0.32812,-0.847655 0,-0.417967 -0.30078,-0.703123 -0.29687,-0.289062 -0.77734,-0.289062 -0.50781,0 -0.8125,0.304687 -0.30468,0.304687 -0.30859,0.843748 l -0.72265,-0.07422 q 0.0742,-0.808592 0.55859,-1.230466 0.48437,-0.42578 1.30078,-0.42578 0.82421,0 1.30468,0.45703 0.48047,0.45703 0.48047,1.132809 0,0.34375 -0.14063,0.67578 -0.14062,0.33203 -0.46874,0.699217 -0.32422,0.367187 -1.08203,1.00781 -0.63281,0.531249 -0.8125,0.722654 -0.17969,0.1875 -0.29688,0.378906 z"
       style="font-size:7.99997997px;font-family:Arial;fill:#cc78a6;stroke-width:1.33333004"
       id="path1612"
       inkscape:connector-curvature="0" />
    <path
       d="m 527.97277,84.581932 v -7.635398 h 1.52083 l 1.80728,5.406237 q 0.25,0.755206 0.36459,1.130205 0.1302,-0.416665 0.40625,-1.223955 l 1.82812,-5.312487 h 1.35937 v 7.635398 h -0.97396 v -6.390609 l -2.21874,6.390609 h -0.91146 l -2.20833,-6.499984 v 6.499984 z"
       style="font-size:10.66664028px;font-family:Arial;fill:#cc78a6;stroke-width:1.33333004"
       id="path1614"
       inkscape:connector-curvature="0" />
    <path
       d="m 540.56648,82.800686 0.96875,0.119792 q -0.22916,0.848956 -0.84895,1.317705 -0.61979,0.468749 -1.58333,0.468749 -1.21354,0 -1.92708,-0.74479 -0.70833,-0.749998 -0.70833,-2.098953 0,-1.39583 0.71874,-2.166662 0.71875,-0.770831 1.86458,-0.770831 1.10938,0 1.8125,0.755207 0.70312,0.755206 0.70312,2.124994 0,0.08333 -0.005,0.25 h -4.12499 q 0.0521,0.911456 0.51563,1.39583 0.46354,0.484373 1.15624,0.484373 0.51563,0 0.88021,-0.270832 0.36458,-0.270833 0.57812,-0.864582 z m -3.07811,-1.515621 h 3.08853 q -0.0625,-0.697915 -0.35416,-1.046872 -0.44792,-0.541666 -1.16146,-0.541666 -0.64583,0 -1.08854,0.432291 -0.4375,0.432291 -0.48437,1.156247 z"
       style="font-size:10.66664028px;font-family:Arial;fill:#cc78a6;stroke-width:1.33333004"
       id="path1616"
       inkscape:connector-curvature="0" />
  </g>
  <path
     style="fill:#cc78a6;fill-rule:evenodd;stroke:#cc78a6;stroke-width:0;stroke-linejoin:miter;shape-rendering:geometricPrecision"
     inkscape:connector-curvature="0"
     id="path155"
     d="m 497.64804,88.24859 v 0 l -0.34666,-0.2 v -0.386666 l 8.54664,-4.933321 0.16,0.293333 0.17333,0.293333 z" />
  <path
     style="fill:#cc78a6;fill-rule:evenodd;stroke:#cc78a6;stroke-width:0;stroke-linejoin:miter;shape-rendering:geometricPrecision"
     inkscape:connector-curvature="0"
     id="path159"
     d="m 496.96804,88.24859 v 0 l 0.33334,-0.2 0.34666,0.2 v 9.986641 h -0.34666 -0.33334 z" />
  <g
     aria-label="CO2Me"
     style="font-size:15.99995995px;text-anchor:start;stroke-width:1.33333004;text-rendering:geometricPrecision"
     id="text169">
    <path
       d="m 499.70554,104.91813 1.01041,0.25521 q -0.3177,1.24479 -1.14583,1.90104 -0.82291,0.65104 -2.01562,0.65104 -1.23437,0 -2.01041,-0.5 -0.77083,-0.50521 -1.17708,-1.45833 -0.40104,-0.95313 -0.40104,-2.04687 0,-1.19271 0.45313,-2.07812 0.45833,-0.89063 1.29687,-1.34896 0.84375,-0.463539 1.85416,-0.463539 1.14583,0 1.92708,0.583329 0.78125,0.58334 1.08854,1.64062 l -0.99479,0.23438 q -0.26563,-0.83333 -0.77083,-1.21354 -0.50521,-0.38021 -1.27083,-0.38021 -0.88021,0 -1.47396,0.42188 -0.58854,0.42187 -0.82812,1.13541 -0.23958,0.70833 -0.23958,1.46354 0,0.97395 0.28124,1.70312 0.28646,0.72396 0.88542,1.08333 0.59896,0.35937 1.29687,0.35937 0.84896,0 1.4375,-0.48958 0.58854,-0.48958 0.79687,-1.45312 z"
       style="font-size:10.66664028px;font-family:Arial;fill:#cc78a6;stroke-width:1.33333004"
       id="path1619"
       inkscape:connector-curvature="0" />
    <path
       d="m 501.65866,103.87647 q 0,-1.90104 1.02083,-2.97395 1.02083,-1.078127 2.63541,-1.078127 1.05729,0 1.90625,0.505207 0.84895,0.50521 1.29166,1.41146 0.44792,0.90103 0.44792,2.04686 0,1.16146 -0.46875,2.07812 -0.46875,0.91667 -1.32812,1.39063 -0.85938,0.46875 -1.85417,0.46875 -1.07812,0 -1.92707,-0.52084 -0.84896,-0.52083 -1.28646,-1.42187 -0.4375,-0.90104 -0.4375,-1.90624 z m 1.04167,0.0156 q 0,1.38021 0.73958,2.17708 0.74479,0.79166 1.86458,0.79166 1.14062,0 1.87499,-0.80208 0.73958,-0.80208 0.73958,-2.27603 0,-0.93229 -0.31771,-1.625 -0.31249,-0.69791 -0.92187,-1.07812 -0.60416,-0.38542 -1.35937,-0.38542 -1.07291,0 -1.84895,0.73958 -0.77083,0.73438 -0.77083,2.45833 z"
       style="font-size:10.66664028px;font-family:Arial;fill:#cc78a6;stroke-width:1.33333004"
       id="path1621"
       inkscape:connector-curvature="0" />
    <path
       d="m 513.46202,109.33275 v 0.67578 h -3.78515 q -0.008,-0.2539 0.082,-0.48828 0.14453,-0.38671 0.46094,-0.76171 0.32031,-0.375 0.92187,-0.86719 0.93359,-0.76562 1.26172,-1.21093 0.32812,-0.44922 0.32812,-0.84766 0,-0.41796 -0.30078,-0.70312 -0.29688,-0.28906 -0.77734,-0.28906 -0.50781,0 -0.8125,0.30469 -0.30469,0.30468 -0.30859,0.84374 l -0.72266,-0.0742 q 0.0742,-0.80859 0.55859,-1.23046 0.48438,-0.42578 1.30078,-0.42578 0.82422,0 1.30469,0.45703 0.48046,0.45703 0.48046,1.13281 0,0.34375 -0.14062,0.67578 -0.14063,0.33203 -0.46875,0.69922 -0.32422,0.36718 -1.08203,1.00781 -0.63281,0.53124 -0.8125,0.72265 -0.17968,0.1875 -0.29687,0.3789 z"
       style="font-size:7.99997997px;font-family:Arial;fill:#cc78a6;stroke-width:1.33333004"
       id="path1623"
       inkscape:connector-curvature="0" />
    <path
       d="m 514.67946,107.59521 v -7.635401 h 1.52083 l 1.80729,5.406241 q 0.25,0.7552 0.36458,1.1302 0.13021,-0.41666 0.40625,-1.22395 l 1.82812,-5.312491 h 1.35937 v 7.635401 h -0.97395 v -6.39061 l -2.21875,6.39061 h -0.91145 l -2.20833,-6.49999 v 6.49999 z"
       style="font-size:10.66664028px;font-family:Arial;fill:#cc78a6;stroke-width:1.33333004"
       id="path1625"
       inkscape:connector-curvature="0" />
    <path
       d="m 527.27318,105.81396 0.96875,0.11979 q -0.22917,0.84896 -0.84896,1.31771 -0.61979,0.46875 -1.58333,0.46875 -1.21354,0 -1.92708,-0.74479 -0.70833,-0.75 -0.70833,-2.09896 0,-1.39583 0.71875,-2.16666 0.71875,-0.77083 1.86458,-0.77083 1.10937,0 1.81249,0.75521 0.70313,0.7552 0.70313,2.12499 0,0.0833 -0.005,0.25 h -4.12499 q 0.0521,0.91146 0.51562,1.39583 0.46354,0.48438 1.15625,0.48438 0.51562,0 0.88021,-0.27084 0.36458,-0.27083 0.57812,-0.86458 z m -3.07812,-1.51562 h 3.08854 q -0.0625,-0.69791 -0.35417,-1.04687 -0.44791,-0.54167 -1.16145,-0.54167 -0.64584,0 -1.08854,0.43229 -0.4375,0.43229 -0.48438,1.15625 z"
       style="font-size:10.66664028px;font-family:Arial;fill:#cc78a6;stroke-width:1.33333004"
       id="path1627"
       inkscape:connector-curvature="0" />
  </g>
  <path
     style="fill:#000000;fill-rule:evenodd;stroke:#000000;stroke-width:0;stroke-linejoin:miter;shape-rendering:geometricPrecision"
     inkscape:connector-curvature="0"
     id="path173"
     d="m 195.22213,87.848591 v 0 l 0.34667,0.199999 0.34666,0.2 v 14.94663 l -0.34666,0.2 -0.33334,-0.2 z" />
  <path
     style="stroke:#000000;stroke-width:0.67999828;shape-rendering:auto"
     d="m 198.3288,89.64859 v 12.14664"
     id="line175" />
  <path
     style="fill:#000000;fill-rule:evenodd;stroke:#000000;stroke-width:0;stroke-linejoin:miter;shape-rendering:geometricPrecision"
     inkscape:connector-curvature="0"
     id="path179"
     d="m 195.5688,103.78188 v 0 -0.38666 l 0.34666,-0.2 12.9333,7.47998 v 0.38667 0.38666 z" />
  <path
     style="fill:#000000;fill-rule:evenodd;stroke:#000000;stroke-width:0;stroke-linejoin:miter;shape-rendering:geometricPrecision"
     inkscape:connector-curvature="0"
     id="path183"
     d="m 208.84876,111.44853 v 0 -0.38666 -0.38667 l 12.95997,-7.47998 0.33333,0.2 0.33334,0.2 z" />
  <path
     style="stroke:#000000;stroke-width:0.67999828;shape-rendering:auto"
     d="m 208.84877,107.87521 10.53329,-6.07998"
     id="line185" />
  <path
     style="fill:#000000;fill-rule:evenodd;stroke:#000000;stroke-width:0;stroke-linejoin:miter;shape-rendering:geometricPrecision"
     inkscape:connector-curvature="0"
     id="path189"
     d="m 222.4754,103.59522 v 0 l -0.33334,-0.2 -0.33333,-0.2 V 88.24859 l 0.33333,-0.2 0.34667,0.2 z" />
  <path
     style="fill:#000000;fill-rule:evenodd;stroke:#000000;stroke-width:0;stroke-linejoin:miter;shape-rendering:geometricPrecision"
     inkscape:connector-curvature="0"
     id="path193"
     d="m 222.14206,87.661924 v 0 0.386666 l -0.33333,0.2 -12.95997,-7.479982 v -0.386665 -0.386666 z" />
  <path
     style="stroke:#000000;stroke-width:0.67999828;shape-rendering:auto"
     d="M 219.38206,89.64859 208.84877,83.568604"
     id="line195" />
  <path
     style="fill:#000000;fill-rule:evenodd;stroke:#000000;stroke-width:0;stroke-linejoin:miter;shape-rendering:geometricPrecision"
     inkscape:connector-curvature="0"
     id="path199"
     d="m 208.84876,79.995277 v 0 0.386666 0.386665 l -12.9333,7.479982 -0.34666,-0.2 -0.34667,-0.199999 z" />
  <path
     style="fill:#000000;fill-rule:evenodd;stroke:#000000;stroke-width:0;stroke-linejoin:miter;shape-rendering:geometricPrecision"
     inkscape:connector-curvature="0"
     id="path203"
     d="m 195.23546,103.19522 v 0 l 0.33334,0.2 v 0.38666 l -8.25332,4.75999 -0.16,-0.29333 -0.17333,-0.29333 z" />
  <g
     aria-label="MeO2C"
     style="font-size:15.99995995px;text-anchor:end;stroke-width:1.33333004;text-rendering:geometricPrecision"
     id="text213">
    <path
       d="m 151.64746,115.26186 v -7.63539 h 1.52083 l 1.80729,5.40623 q 0.25,0.75521 0.36458,1.13021 0.13021,-0.41667 0.40625,-1.22396 l 1.82812,-5.31248 h 1.35937 v 7.63539 h -0.97396 v -6.39061 l -2.21874,6.39061 h -0.91146 l -2.20832,-6.49998 v 6.49998 z"
       style="font-size:10.66664028px;font-family:Arial;fill:#000000;stroke-width:1.33333004"
       id="path1633"
       inkscape:connector-curvature="0" />
    <path
       d="m 164.24118,113.48062 0.96875,0.11979 q -0.22917,0.84896 -0.84896,1.3177 -0.61979,0.46875 -1.58333,0.46875 -1.21354,0 -1.92708,-0.74479 -0.70833,-0.74999 -0.70833,-2.09895 0,-1.39583 0.71875,-2.16666 0.71875,-0.77083 1.86458,-0.77083 1.10937,0 1.81249,0.7552 0.70313,0.75521 0.70313,2.125 0,0.0833 -0.005,0.25 h -4.12499 q 0.0521,0.91145 0.51562,1.39583 0.46354,0.48437 1.15625,0.48437 0.51562,0 0.8802,-0.27083 0.36459,-0.27083 0.57813,-0.86458 z m -3.07812,-1.51562 h 3.08854 q -0.0625,-0.69792 -0.35417,-1.04688 -0.44792,-0.54166 -1.16146,-0.54166 -0.64583,0 -1.08854,0.43229 -0.43749,0.43229 -0.48437,1.15625 z"
       style="font-size:10.66664028px;font-family:Arial;fill:#000000;stroke-width:1.33333004"
       id="path1635"
       inkscape:connector-curvature="0" />
    <path
       d="m 166.20471,111.54312 q 0,-1.90103 1.02084,-2.97395 1.02083,-1.07812 2.63541,-1.07812 1.05728,0 1.90624,0.50521 0.84896,0.5052 1.29166,1.41145 0.44792,0.90104 0.44792,2.04687 0,1.16146 -0.46875,2.07812 -0.46875,0.91667 -1.32812,1.39062 -0.85937,0.46875 -1.85416,0.46875 -1.07812,0 -1.92708,-0.52083 -0.84896,-0.52083 -1.28646,-1.42187 -0.4375,-0.90104 -0.4375,-1.90625 z m 1.04167,0.0156 q 0,1.3802 0.73958,2.17708 0.74479,0.79166 1.86458,0.79166 1.14062,0 1.87499,-0.80208 0.73959,-0.80208 0.73959,-2.27604 0,-0.93229 -0.31771,-1.62499 -0.3125,-0.69792 -0.92187,-1.07813 -0.60417,-0.38541 -1.35938,-0.38541 -1.07291,0 -1.84895,0.73958 -0.77083,0.73437 -0.77083,2.45833 z"
       style="font-size:10.66664028px;font-family:Arial;fill:#000000;stroke-width:1.33333004"
       id="path1637"
       inkscape:connector-curvature="0" />
    <path
       d="m 178.00807,116.99941 v 0.67578 h -3.78515 q -0.008,-0.2539 0.082,-0.48828 0.14453,-0.38672 0.46093,-0.76172 0.32031,-0.375 0.92187,-0.86718 0.9336,-0.76562 1.26172,-1.21094 0.32812,-0.44921 0.32812,-0.84765 0,-0.41797 -0.30078,-0.70312 -0.29687,-0.28906 -0.77734,-0.28906 -0.50781,0 -0.8125,0.30468 -0.30468,0.30469 -0.30859,0.84375 l -0.72265,-0.0742 q 0.0742,-0.80859 0.55859,-1.23046 0.48437,-0.42578 1.30078,-0.42578 0.82421,0 1.30468,0.45703 0.48047,0.45703 0.48047,1.13281 0,0.34374 -0.14063,0.67577 -0.14062,0.33204 -0.46874,0.69922 -0.32422,0.36719 -1.08203,1.00781 -0.63281,0.53125 -0.8125,0.72266 -0.17969,0.1875 -0.29688,0.3789 z"
       style="font-size:7.99997997px;font-family:Arial;fill:#000000;stroke-width:1.33333004"
       id="path1639"
       inkscape:connector-curvature="0" />
    <path
       d="m 184.70467,112.58479 1.01041,0.2552 q -0.3177,1.24479 -1.14583,1.90104 -0.82291,0.65104 -2.01562,0.65104 -1.23437,0 -2.01041,-0.5 -0.77083,-0.5052 -1.17708,-1.45833 -0.40104,-0.95312 -0.40104,-2.04687 0,-1.1927 0.45312,-2.07812 0.45834,-0.89062 1.29688,-1.34895 0.84374,-0.46354 1.85416,-0.46354 1.14583,0 1.92708,0.58333 0.78124,0.58333 1.08854,1.64062 l -0.99479,0.23438 q -0.26563,-0.83334 -0.77084,-1.21354 -0.5052,-0.38021 -1.27083,-0.38021 -0.8802,0 -1.47395,0.42187 -0.58854,0.42188 -0.82812,1.13542 -0.23959,0.70833 -0.23959,1.46353 0,0.97396 0.28125,1.70313 0.28646,0.72395 0.88542,1.08333 0.59895,0.35937 1.29687,0.35937 0.84896,0 1.4375,-0.48958 0.58854,-0.48958 0.79687,-1.45312 z"
       style="font-size:10.66664028px;font-family:Arial;fill:#000000;stroke-width:1.33333004"
       id="path1641"
       inkscape:connector-curvature="0" />
  </g>
  <path
     style="fill:#000000;fill-rule:evenodd;stroke:#000000;stroke-width:0;stroke-linejoin:miter;shape-rendering:geometricPrecision"
     inkscape:connector-curvature="0"
     id="path217"
     d="m 222.48873,88.24859 v 0 l -0.34667,-0.2 v -0.386666 l 13.2933,-7.666647 v 0.386666 0.386665 z" />
  <path
     style="fill:#009d73;fill-rule:evenodd;stroke:#009d73;stroke-width:0;stroke-linejoin:miter;shape-rendering:geometricPrecision"
     inkscape:connector-curvature="0"
     id="path221"
     d="m 235.43536,80.768608 v 0 -0.386665 -0.386666 l 9.01332,5.199987 -0.17334,0.293332 -0.16,0.293333 z" />
  <path
     style="stroke:#009d73;stroke-width:0.67999828;shape-rendering:auto"
     d="m 235.43535,83.568604 7.46666,4.306648"
     id="line223" />
  <g
     aria-label="N"
     style="font-size:15.99995995px;text-anchor:start;stroke-width:1.33333004;text-rendering:geometricPrecision"
     id="text229">
    <path
       d="m 245.66118,92.248573 v -7.635397 h 1.03645 l 4.01041,5.994776 v -5.994776 h 0.96875 v 7.635397 h -1.03646 l -4.01041,-5.999985 v 5.999985 z"
       style="font-size:10.66664028px;font-family:Arial;fill:#009d73;stroke-width:1.33333004"
       id="path1645"
       inkscape:connector-curvature="0" />
  </g>
  <path
     style="fill:#009d73;fill-rule:evenodd;stroke:#009d73;stroke-width:0;stroke-linejoin:miter;shape-rendering:geometricPrecision"
     inkscape:connector-curvature="0"
     id="path233"
     d="m 253.44865,85.701929 v 0 l -0.16,-0.293332 -0.17333,-0.293333 8.71998,-5.026654 0.17333,0.293333 0.17333,0.293332 z" />
  <path
     style="fill:#009d73;fill-rule:evenodd;stroke:#009d73;stroke-width:0;stroke-linejoin:miter;shape-rendering:geometricPrecision"
     inkscape:connector-curvature="0"
     id="path237"
     d="m 248.382,91.568581 v 0 h 0.33333 0.34667 v 11.826639 h -0.34667 -0.34666 z" />
  <path
     style="fill:none;stroke:#009d73;stroke-width:0.54399866"
     d="m 252.27088,77.11528 a 3.5555468,3.5555468 0 0 1 -3.55555,3.555547 3.5555468,3.5555468 0 0 1 -3.55554,-3.555547 3.5555468,3.5555468 0 0 1 3.55554,-3.555547 3.5555468,3.5555468 0 0 1 3.55555,3.555547 z"
     id="circle241" />
  <path
     style="stroke:#009d73;stroke-width:0.54399866;shape-rendering:auto"
     d="m 246.59534,77.11528 h 4.23999"
     id="line243" />
  <path
     style="stroke:#009d73;stroke-width:0.54399866;shape-rendering:auto"
     d="m 248.71533,74.995293 v 4.23999"
     id="line245" />
  <g
     aria-label="Cp2Zr(H)Cl"
     style="font-size:15.99995995px;text-anchor:start;stroke-width:1.33333004;text-rendering:geometricPrecision"
     id="text254">
    <path
       d="m 72.973271,81.491525 1.010415,0.255208 q -0.317708,1.244789 -1.145831,1.901037 -0.822915,0.65104 -2.01562,0.65104 -1.234372,0 -2.010412,-0.499999 -0.770831,-0.505207 -1.17708,-1.458329 -0.401041,-0.953123 -0.401041,-2.04687 0,-1.192706 0.453124,-2.07812 0.458332,-0.890623 1.296872,-1.348955 0.843748,-0.463541 1.854162,-0.463541 1.145831,0 1.927079,0.583332 0.781248,0.583332 1.088539,1.640621 l -0.99479,0.234374 q -0.265624,-0.833331 -0.770831,-1.213538 -0.505207,-0.380208 -1.27083,-0.380208 -0.880206,0 -1.473955,0.421874 -0.58854,0.421874 -0.828123,1.135414 -0.239583,0.708332 -0.239583,1.463538 0,0.973956 0.28125,1.703121 0.286457,0.723957 0.885414,1.083331 0.598957,0.359374 1.296872,0.359374 0.848956,0 1.437496,-0.489582 0.588541,-0.489582 0.796873,-1.453122 z"
       style="font-size:10.66664028px;font-family:Arial;fill:#009d73;stroke-width:1.33333004"
       id="path1651"
       inkscape:connector-curvature="0" />
    <path
       d="m 75.113891,86.288388 v -7.651022 h 0.854165 v 0.718748 q 0.302082,-0.421874 0.68229,-0.630207 0.380207,-0.213541 0.921873,-0.213541 0.708331,0 1.249996,0.364582 0.541666,0.364583 0.817707,1.031248 0.276041,0.661457 0.276041,1.453121 0,0.848957 -0.307291,1.531246 -0.302083,0.677082 -0.885415,1.041665 -0.578123,0.359374 -1.218747,0.359374 -0.468748,0 -0.843748,-0.197916 -0.36979,-0.197917 -0.609373,-0.499999 v 2.692701 z m 0.848957,-4.854154 q 0,1.067705 0.43229,1.578121 0.432291,0.510415 1.046873,0.510415 0.624998,0 1.067705,-0.52604 0.447916,-0.531249 0.447916,-1.640621 0,-1.057289 -0.437499,-1.583329 -0.432291,-0.526041 -1.036456,-0.526041 -0.598957,0 -1.062497,0.562499 -0.458332,0.55729 -0.458332,1.624996 z"
       style="font-size:10.66664028px;font-family:Arial;fill:#009d73;stroke-width:1.33333004"
       id="path1653"
       inkscape:connector-curvature="0" />
    <path
       d="m 84.375587,85.90615 v 0.675779 H 80.59044 q -0.0078,-0.253905 0.08203,-0.48828 0.144531,-0.386718 0.460937,-0.761717 0.320311,-0.374999 0.921872,-0.867185 0.933592,-0.765623 1.261716,-1.210934 0.328124,-0.449218 0.328124,-0.847655 0,-0.417967 -0.300781,-0.703123 -0.296874,-0.289062 -0.777341,-0.289062 -0.507812,0 -0.812498,0.304687 -0.304687,0.304687 -0.308593,0.843748 l -0.722655,-0.07422 q 0.07422,-0.808591 0.558593,-1.230465 0.484373,-0.42578 1.300778,-0.42578 0.824216,0 1.304684,0.45703 0.480467,0.45703 0.480467,1.132809 0,0.34375 -0.140624,0.67578 -0.140625,0.33203 -0.468749,0.699217 -0.324218,0.367187 -1.082029,1.00781 -0.63281,0.531249 -0.812498,0.722654 -0.179687,0.1875 -0.296874,0.378906 z"
       style="font-size:7.99997997px;font-family:Arial;fill:#009d73;stroke-width:1.33333004"
       id="path1655"
       inkscape:connector-curvature="0" />
    <path
       d="m 85.014908,84.168602 v -0.937498 l 3.911449,-4.890613 q 0.416665,-0.520832 0.791664,-0.906247 h -4.260406 v -0.90104 h 5.468737 v 0.90104 l -4.286448,5.296862 -0.463541,0.536457 h 4.874988 v 0.901039 z"
       style="font-size:10.66664028px;font-family:Arial;fill:#009d73;stroke-width:1.33333004"
       id="path1657"
       inkscape:connector-curvature="0" />
    <path
       d="m 92.014892,84.168602 v -5.531236 h 0.843748 v 0.838539 q 0.322916,-0.58854 0.593749,-0.776039 0.276041,-0.1875 0.604165,-0.1875 0.473957,0 0.963539,0.302083 l -0.322916,0.869789 q -0.343749,-0.203124 -0.687498,-0.203124 -0.307291,0 -0.552082,0.187499 -0.244791,0.182291 -0.348958,0.510416 -0.156249,0.499998 -0.156249,1.093747 v 2.895826 z"
       style="font-size:10.66664028px;font-family:Arial;fill:#009d73;stroke-width:1.33333004"
       id="path1659"
       inkscape:connector-curvature="0" />
    <path
       d="m 97.379461,86.413388 q -0.776039,-0.979164 -1.312496,-2.291661 -0.536457,-1.312497 -0.536457,-2.718743 0,-1.23958 0.40104,-2.374994 0.468749,-1.317705 1.447913,-2.624994 h 0.671874 q -0.630207,1.083331 -0.833331,1.546871 -0.317708,0.718749 -0.499999,1.499997 -0.223958,0.973956 -0.223958,1.958328 0,2.505202 1.557288,5.005196 z"
       style="font-size:10.66664028px;font-family:Arial;fill:#009d73;stroke-width:1.33333004"
       id="path1661"
       inkscape:connector-curvature="0" />
    <path
       d="m 99.301331,84.168602 v -7.635398 h 1.010419 v 3.135409 h 3.96874 v -3.135409 h 1.01041 v 7.635398 h -1.01041 v -3.598949 h -3.96874 v 3.598949 z"
       style="font-size:10.66664028px;font-family:Arial;fill:#009d73;stroke-width:1.33333004"
       id="path1663"
       inkscape:connector-curvature="0" />
    <path
       d="m 107.47318,86.413388 h -0.67187 q 1.55729,-2.499994 1.55729,-5.005196 0,-0.979164 -0.22396,-1.942703 -0.17708,-0.781248 -0.49479,-1.499997 -0.20312,-0.468749 -0.83854,-1.562496 h 0.67187 q 0.97917,1.307289 1.44792,2.624994 0.40104,1.135414 0.40104,2.374994 0,1.406246 -0.54167,2.718743 -0.53645,1.312497 -1.30729,2.291661 z"
       style="font-size:10.66664028px;font-family:Arial;fill:#009d73;stroke-width:1.33333004"
       id="path1665"
       inkscape:connector-curvature="0" />
    <path
       d="m 115.98879,81.491525 1.01041,0.255208 q -0.3177,1.244789 -1.14583,1.901037 -0.82291,0.65104 -2.01562,0.65104 -1.23437,0 -2.01041,-0.499999 -0.77083,-0.505207 -1.17708,-1.458329 -0.40104,-0.953123 -0.40104,-2.04687 0,-1.192706 0.45312,-2.07812 0.45834,-0.890623 1.29688,-1.348955 0.84374,-0.463541 1.85416,-0.463541 1.14583,0 1.92708,0.583332 0.78124,0.583332 1.08854,1.640621 l -0.99479,0.234374 q -0.26563,-0.833331 -0.77083,-1.213538 -0.50521,-0.380208 -1.27084,-0.380208 -0.8802,0 -1.47395,0.421874 -0.58854,0.421874 -0.82812,1.135414 -0.23959,0.708332 -0.23959,1.463538 0,0.973956 0.28125,1.703121 0.28646,0.723957 0.88542,1.083331 0.59896,0.359374 1.29687,0.359374 0.84896,0 1.4375,-0.489582 0.58854,-0.489582 0.79687,-1.453122 z"
       style="font-size:10.66664028px;font-family:Arial;fill:#009d73;stroke-width:1.33333004"
       id="path1667"
       inkscape:connector-curvature="0" />
    <path
       d="m 118.10858,84.168602 v -7.635398 h 0.9375 v 7.635398 z"
       style="font-size:10.66664028px;font-family:Arial;fill:#009d73;stroke-width:1.33333004"
       id="path1669"
       inkscape:connector-curvature="0" />
  </g>
  <g
     aria-label="TiCl4"
     style="font-size:15.99995995px;text-anchor:start;stroke-width:1.33333004;text-rendering:geometricPrecision"
     id="text262">
    <path
       d="m 84.308038,106.67521 v -6.734359 h -2.515619 v -0.90104 h 6.052068 v 0.90104 h -2.526035 v 6.734359 z"
       style="font-size:10.66664028px;font-family:Arial;fill:#009d73;stroke-width:1.33333004"
       id="path1672"
       inkscape:connector-curvature="0" />
    <path
       d="m 88.375736,100.11793 v -1.078119 h 0.937497 v 1.078119 z m 0,6.55728 v -5.53124 h 0.937497 v 5.53124 z"
       style="font-size:10.66664028px;font-family:Arial;fill:#009d73;stroke-width:1.33333004"
       id="path1674"
       inkscape:connector-curvature="0" />
    <path
       d="m 96.313216,103.99813 1.010414,0.25521 q -0.317707,1.24479 -1.14583,1.90104 -0.822915,0.65104 -2.01562,0.65104 -1.234372,0 -2.010412,-0.5 -0.770831,-0.50521 -1.17708,-1.45833 -0.401041,-0.95312 -0.401041,-2.04687 0,-1.19271 0.453124,-2.07812 0.458332,-0.890624 1.296872,-1.348956 0.843748,-0.463541 1.854162,-0.463541 1.14583,0 1.927078,0.583332 0.781249,0.583335 1.088539,1.640625 l -0.994789,0.23437 q -0.265624,-0.83333 -0.770831,-1.21354 -0.505207,-0.380206 -1.27083,-0.380206 -0.880207,0 -1.473955,0.421876 -0.58854,0.42187 -0.828123,1.13541 -0.239583,0.70833 -0.239583,1.46354 0,0.97396 0.28125,1.70312 0.286457,0.72396 0.885414,1.08333 0.598957,0.35938 1.296872,0.35938 0.848956,0 1.437496,-0.48959 0.58854,-0.48958 0.796873,-1.45312 z"
       style="font-size:10.66664028px;font-family:Arial;fill:#009d73;stroke-width:1.33333004"
       id="path1676"
       inkscape:connector-curvature="0" />
    <path
       d="m 98.433003,106.67521 v -7.635399 h 0.937498 v 7.635399 z"
       style="font-size:10.66664028px;font-family:Arial;fill:#009d73;stroke-width:1.33333004"
       id="path1678"
       inkscape:connector-curvature="0" />
    <path
       d="m 102.71164,109.08854 v -1.37109 h -2.48437 v -0.64453 l 2.61327,-3.71093 h 0.57422 v 3.71093 h 0.77344 v 0.64453 h -0.77344 v 1.37109 z m 0,-2.01562 v -2.58203 l -1.79297,2.58203 z"
       style="font-size:7.99997997px;font-family:Arial;fill:#009d73;stroke-width:1.33333004"
       id="path1680"
       inkscape:connector-curvature="0" />
  </g>
  <path
     style="stroke:#000000;stroke-width:0.67999828;shape-rendering:auto"
     d="M 387.51498,91.728577 H 278.63525"
     id="line266" />
  <path
     style="fill:#000000;fill-rule:evenodd;stroke:#000000;stroke-width:0;stroke-linejoin:miter;stroke-miterlimit:5.89496231;shape-rendering:geometricPrecision"
     inkscape:connector-curvature="0"
     id="path268"
     stroke-miterlimit="5.89496254687647"
     d="m 392.12831,91.728581 -6.79999,-1.706663 c 1.44,0.959998 1.44,2.453328 0,3.413325 z" />
  <g
     aria-label="NaH"
     style="font-size:15.99995995px;text-anchor:start;stroke-width:1.33333004;text-rendering:geometricPrecision"
     id="text274">
    <path
       d="m 325.16766,105.16855 v -7.635399 h 1.03646 l 4.0104,5.994779 v -5.994779 h 0.96875 v 7.635399 h -1.03645 l -4.01041,-5.999987 v 5.999987 z"
       style="font-size:10.66664028px;font-family:Arial;fill:#000000;stroke-width:1.33333004"
       id="path1684"
       inkscape:connector-curvature="0" />
    <path
       d="m 336.37597,104.48626 q -0.52083,0.44271 -1.00521,0.625 -0.47916,0.18229 -1.03125,0.18229 -0.91145,0 -1.40103,-0.44271 -0.48959,-0.44791 -0.48959,-1.14062 0,-0.40625 0.18229,-0.73958 0.1875,-0.33854 0.48438,-0.54167 0.30208,-0.20312 0.67708,-0.30729 0.27604,-0.0729 0.83333,-0.14062 1.13542,-0.13542 1.67187,-0.32292 0.005,-0.19271 0.005,-0.24479 0,-0.57292 -0.26562,-0.80729 -0.35938,-0.31771 -1.06771,-0.31771 -0.66146,0 -0.97916,0.23438 -0.3125,0.22916 -0.46354,0.8177 l -0.91667,-0.125 q 0.125,-0.58854 0.41146,-0.94791 0.28646,-0.364583 0.82812,-0.557291 0.54167,-0.197916 1.25521,-0.197916 0.70833,0 1.15104,0.166666 0.4427,0.166666 0.65104,0.421871 0.20833,0.25 0.29166,0.63542 0.0469,0.23958 0.0469,0.86458 v 1.25 q 0,1.30728 0.0573,1.65624 0.0625,0.34375 0.23958,0.66146 h -0.97916 q -0.14584,-0.29167 -0.1875,-0.68229 z m -0.0781,-2.09375 q -0.51041,0.20834 -1.53124,0.35417 -0.57813,0.0833 -0.81771,0.1875 -0.23958,0.10417 -0.36979,0.30729 -0.13021,0.19792 -0.13021,0.44271 0,0.375 0.28125,0.625 0.28646,0.25 0.83333,0.25 0.54167,0 0.96354,-0.23438 0.42188,-0.23958 0.61979,-0.65104 0.15104,-0.31771 0.15104,-0.9375 z"
       style="font-size:10.66664028px;font-family:Arial;fill:#000000;stroke-width:1.33333004"
       id="path1686"
       inkscape:connector-curvature="0" />
    <path
       d="m 338.85513,105.16855 v -7.635399 h 1.01041 v 3.135409 h 3.96874 v -3.135409 h 1.01042 v 7.635399 h -1.01042 v -3.59895 h -3.96874 v 3.59895 z"
       style="font-size:10.66664028px;font-family:Arial;fill:#000000;stroke-width:1.33333004"
       id="path1688"
       inkscape:connector-curvature="0" />
  </g>
  <g
     aria-label="MeO2C"
     style="font-size:15.99995995px;text-anchor:end;stroke-width:1.33333004;text-rendering:geometricPrecision"
     id="text284">
    <path
       d="m 291.14043,84.861923 v -7.635398 h 1.52083 l 1.80728,5.406237 q 0.25,0.755207 0.36458,1.130206 0.13021,-0.416666 0.40625,-1.223956 l 1.82812,-5.312487 h 1.35938 v 7.635398 h -0.97396 v -6.390609 l -2.21874,6.390609 h -0.91146 l -2.20833,-6.499984 v 6.499984 z"
       style="font-size:10.66664028px;font-family:Arial;fill:#cc78a6;stroke-width:1.33333004"
       id="path1691"
       inkscape:connector-curvature="0" />
    <path
       d="m 303.73414,83.080678 0.96875,0.119791 q -0.22916,0.848956 -0.84895,1.317705 -0.61979,0.468749 -1.58333,0.468749 -1.21354,0 -1.92708,-0.74479 -0.70833,-0.749998 -0.70833,-2.098953 0,-1.39583 0.71874,-2.166661 0.71875,-0.770832 1.86458,-0.770832 1.10938,0 1.8125,0.755207 0.70312,0.755206 0.70312,2.124994 0,0.08333 -0.005,0.25 h -4.12499 q 0.0521,0.911456 0.51563,1.39583 0.46354,0.484373 1.15624,0.484373 0.51563,0 0.88021,-0.270832 0.36458,-0.270833 0.57812,-0.864581 z m -3.07811,-1.515622 h 3.08853 q -0.0625,-0.697915 -0.35416,-1.046872 -0.44792,-0.541665 -1.16146,-0.541665 -0.64583,0 -1.08854,0.43229 -0.4375,0.432291 -0.48437,1.156247 z"
       style="font-size:10.66664028px;font-family:Arial;fill:#cc78a6;stroke-width:1.33333004"
       id="path1693"
       inkscape:connector-curvature="0" />
    <path
       d="m 305.69768,81.143182 q 0,-1.901037 1.02083,-2.973951 1.02083,-1.078122 2.63541,-1.078122 1.05729,0 1.90625,0.505207 0.84895,0.505207 1.29166,1.411455 0.44792,0.901039 0.44792,2.04687 0,1.161455 -0.46875,2.07812 -0.46875,0.916664 -1.32812,1.390621 -0.85938,0.468749 -1.85417,0.468749 -1.07812,0 -1.92708,-0.520832 -0.84895,-0.520832 -1.28645,-1.421871 -0.4375,-0.90104 -0.4375,-1.906246 z m 1.04166,0.01563 q 0,1.380205 0.73959,2.177078 0.74479,0.791665 1.86457,0.791665 1.14063,0 1.875,-0.802081 0.73958,-0.802082 0.73958,-2.276036 0,-0.93229 -0.31771,-1.624996 -0.3125,-0.697915 -0.92187,-1.078123 -0.60416,-0.385415 -1.35937,-0.385415 -1.07291,0 -1.84895,0.739581 -0.77084,0.734373 -0.77084,2.458327 z"
       style="font-size:10.66664028px;font-family:Arial;fill:#cc78a6;stroke-width:1.33333004"
       id="path1695"
       inkscape:connector-curvature="0" />
    <path
       d="m 317.50104,86.599471 v 0.675779 h -3.78515 q -0.008,-0.253905 0.082,-0.48828 0.14453,-0.386717 0.46094,-0.761716 0.32031,-0.374999 0.92187,-0.867186 0.93359,-0.765623 1.26172,-1.210934 0.32812,-0.449218 0.32812,-0.847654 0,-0.417968 -0.30078,-0.703124 -0.29687,-0.289061 -0.77734,-0.289061 -0.50781,0 -0.8125,0.304686 -0.30469,0.304687 -0.30859,0.843748 l -0.72266,-0.07422 q 0.0742,-0.808592 0.5586,-1.230466 0.48437,-0.42578 1.30077,-0.42578 0.82422,0 1.30469,0.45703 0.48046,0.45703 0.48046,1.13281 0,0.343749 -0.14062,0.675779 -0.14062,0.332031 -0.46875,0.699217 -0.32422,0.367187 -1.08203,1.00781 -0.63281,0.531249 -0.8125,0.722655 -0.17968,0.187499 -0.29687,0.378905 z"
       style="font-size:7.99997997px;font-family:Arial;fill:#cc78a6;stroke-width:1.33333004"
       id="path1697"
       inkscape:connector-curvature="0" />
    <path
       d="m 324.19764,82.184847 1.01041,0.255207 q -0.31771,1.244789 -1.14583,1.901037 -0.82292,0.65104 -2.01562,0.65104 -1.23437,0 -2.01041,-0.499999 -0.77083,-0.505207 -1.17708,-1.458329 -0.40104,-0.953123 -0.40104,-2.04687 0,-1.192706 0.45312,-2.07812 0.45833,-0.890623 1.29687,-1.348955 0.84375,-0.463541 1.85416,-0.463541 1.14583,0 1.92708,0.583332 0.78125,0.583332 1.08854,1.640621 l -0.99479,0.234375 q -0.26562,-0.833332 -0.77083,-1.213539 -0.50521,-0.380207 -1.27083,-0.380207 -0.88021,0 -1.47395,0.421874 -0.58854,0.421874 -0.82813,1.135413 -0.23958,0.708332 -0.23958,1.463538 0,0.973956 0.28125,1.703121 0.28646,0.723957 0.88541,1.083331 0.59896,0.359374 1.29688,0.359374 0.84895,0 1.43749,-0.489582 0.58854,-0.489582 0.79688,-1.453121 z"
       style="font-size:10.66664028px;font-family:Arial;fill:#cc78a6;stroke-width:1.33333004"
       id="path1699"
       inkscape:connector-curvature="0" />
  </g>
  <path
     style="fill:#cc78a6;fill-rule:evenodd;stroke:#cc78a6;stroke-width:0;stroke-linejoin:miter;shape-rendering:geometricPrecision"
     inkscape:connector-curvature="0"
     id="path288"
     d="m 326.7818,78.168615 v 0 l -0.16,-0.293333 -0.17333,-0.293332 8.59998,-4.973321 v 0.386665 0.386666 z" />
  <g
     aria-label="CO2Me"
     style="font-size:15.99995995px;text-anchor:start;stroke-width:1.33333004;text-rendering:geometricPrecision"
     id="text298">
    <path
       d="m 350.74592,82.184847 1.01041,0.255207 q -0.31771,1.244789 -1.14583,1.901037 -0.82292,0.65104 -2.01562,0.65104 -1.23437,0 -2.01041,-0.499999 -0.77083,-0.505207 -1.17708,-1.458329 -0.40104,-0.953123 -0.40104,-2.04687 0,-1.192706 0.45312,-2.07812 0.45833,-0.890623 1.29687,-1.348955 0.84375,-0.463541 1.85416,-0.463541 1.14583,0 1.92708,0.583332 0.78125,0.583332 1.08854,1.640621 l -0.99479,0.234375 q -0.26562,-0.833332 -0.77083,-1.213539 -0.50521,-0.380207 -1.27083,-0.380207 -0.88021,0 -1.47395,0.421874 -0.58854,0.421874 -0.82813,1.135413 -0.23958,0.708332 -0.23958,1.463538 0,0.973956 0.28125,1.703121 0.28646,0.723957 0.88541,1.083331 0.59896,0.359374 1.29688,0.359374 0.84895,0 1.43749,-0.489582 0.58854,-0.489582 0.79688,-1.453121 z"
       style="font-size:10.66664028px;font-family:Arial;fill:#cc78a6;stroke-width:1.33333004"
       id="path1702"
       inkscape:connector-curvature="0" />
    <path
       d="m 352.69904,81.143182 q 0,-1.901037 1.02083,-2.973951 1.02083,-1.078122 2.63541,-1.078122 1.05729,0 1.90624,0.505207 0.84896,0.505207 1.29167,1.411455 0.44791,0.901039 0.44791,2.04687 0,1.161455 -0.46875,2.07812 -0.46875,0.916664 -1.32812,1.390621 -0.85937,0.468749 -1.85416,0.468749 -1.07812,0 -1.92708,-0.520832 -0.84896,-0.520832 -1.28646,-1.421871 -0.43749,-0.90104 -0.43749,-1.906246 z m 1.04166,0.01563 q 0,1.380205 0.73958,2.177078 0.74479,0.791665 1.86458,0.791665 1.14062,0 1.875,-0.802081 0.73958,-0.802082 0.73958,-2.276036 0,-0.93229 -0.31771,-1.624996 -0.3125,-0.697915 -0.92187,-1.078123 -0.60417,-0.385415 -1.35937,-0.385415 -1.07292,0 -1.84896,0.739581 -0.77083,0.734373 -0.77083,2.458327 z"
       style="font-size:10.66664028px;font-family:Arial;fill:#cc78a6;stroke-width:1.33333004"
       id="path1704"
       inkscape:connector-curvature="0" />
    <path
       d="m 364.50239,86.599471 v 0.675779 h -3.78515 q -0.008,-0.253905 0.082,-0.48828 0.14453,-0.386717 0.46093,-0.761716 0.32031,-0.374999 0.92187,-0.867186 0.9336,-0.765623 1.26172,-1.210934 0.32812,-0.449218 0.32812,-0.847654 0,-0.417968 -0.30078,-0.703124 -0.29687,-0.289061 -0.77734,-0.289061 -0.50781,0 -0.8125,0.304686 -0.30468,0.304687 -0.30859,0.843748 l -0.72265,-0.07422 q 0.0742,-0.808592 0.55859,-1.230466 0.48437,-0.42578 1.30078,-0.42578 0.82421,0 1.30468,0.45703 0.48047,0.45703 0.48047,1.13281 0,0.343749 -0.14063,0.675779 -0.14062,0.332031 -0.46874,0.699217 -0.32422,0.367187 -1.08203,1.00781 -0.63281,0.531249 -0.8125,0.722655 -0.17969,0.187499 -0.29688,0.378905 z"
       style="font-size:7.99997997px;font-family:Arial;fill:#cc78a6;stroke-width:1.33333004"
       id="path1706"
       inkscape:connector-curvature="0" />
    <path
       d="m 365.71984,84.861923 v -7.635398 h 1.52083 l 1.80728,5.406237 q 0.25,0.755207 0.36459,1.130206 0.1302,-0.416666 0.40625,-1.223956 l 1.82812,-5.312487 h 1.35937 v 7.635398 h -0.97396 v -6.390609 l -2.21874,6.390609 h -0.91146 l -2.20833,-6.499984 v 6.499984 z"
       style="font-size:10.66664028px;font-family:Arial;fill:#cc78a6;stroke-width:1.33333004"
       id="path1708"
       inkscape:connector-curvature="0" />
    <path
       d="m 378.31355,83.080678 0.96875,0.119791 q -0.22916,0.848956 -0.84895,1.317705 -0.61979,0.468749 -1.58333,0.468749 -1.21354,0 -1.92708,-0.74479 -0.70833,-0.749998 -0.70833,-2.098953 0,-1.39583 0.71874,-2.166661 0.71875,-0.770832 1.86458,-0.770832 1.10938,0 1.8125,0.755207 0.70312,0.755206 0.70312,2.124994 0,0.08333 -0.005,0.25 h -4.12499 q 0.0521,0.911456 0.51563,1.39583 0.46354,0.484373 1.15624,0.484373 0.51563,0 0.88021,-0.270832 0.36458,-0.270833 0.57812,-0.864581 z m -3.07811,-1.515622 h 3.08853 q -0.0625,-0.697915 -0.35416,-1.046872 -0.44792,-0.541665 -1.16146,-0.541665 -0.64583,0 -1.08854,0.43229 -0.4375,0.432291 -0.48437,1.156247 z"
       style="font-size:10.66664028px;font-family:Arial;fill:#cc78a6;stroke-width:1.33333004"
       id="path1710"
       inkscape:connector-curvature="0" />
  </g>
  <path
     style="fill:#cc78a6;fill-rule:evenodd;stroke:#cc78a6;stroke-width:0;stroke-linejoin:miter;shape-rendering:geometricPrecision"
     inkscape:connector-curvature="0"
     id="path302"
     d="m 335.04845,73.38196 v 0 -0.386666 -0.386665 l 8.99998,5.199987 -0.17334,0.293332 -0.16,0.293333 z" />
  <path
     style="fill:none;fill-rule:evenodd;stroke:#000000;stroke-width:0.67999828;stroke-linejoin:miter;shape-rendering:geometricPrecision"
     inkscape:connector-curvature="0"
     id="path306"
     d="m 262.4353,68.16864 h 4.19999 v 50.99987 h -4.19999" />
  <path
     style="fill:none;fill-rule:evenodd;stroke:#000000;stroke-width:0.67999828;stroke-linejoin:miter;shape-rendering:geometricPrecision"
     inkscape:connector-curvature="0"
     id="path309"
     d="m 149.83558,119.16851 h -4.19999 V 68.16864 h 4.19999" />
  <path
     style="stroke:#e69e00;stroke-width:0.67999828;shape-rendering:auto"
     d="M 166.16887,86.515266 V 64.528641"
     id="line313" />
  <path
     style="fill:#e69e00;stroke:#e69e00;stroke-width:0.1466663"
     d="m 168.02886,86.261925 a 1.8599954,1.8599954 0 0 1 -1.85999,1.859995 1.8599954,1.8599954 0 0 1 -1.86,-1.859995 1.8599954,1.8599954 0 0 1 1.86,-1.859996 1.8599954,1.8599954 0 0 1 1.85999,1.859996 z"
     id="circle315" />
  <path
     style="stroke:#e69e00;stroke-width:0.67999828;shape-rendering:auto"
     d="M 249.12866,64.528641 H 166.16887"
     id="line318" />
  <text
     xml:space="preserve"
     style="font-style:normal;font-variant:normal;font-weight:normal;font-stretch:normal;font-size:10.66666698px;line-height:1.25;font-family:Arial;-inkscape-font-specification:Arial;text-align:end;letter-spacing:0px;word-spacing:0px;text-anchor:end;fill:#e69f00;fill-opacity:1;stroke:none"
     x="247.16629"
     y="60.395554"
     id="text1745"><tspan
       sodipodi:role="line"
       id="tspan1743"
       x="247.16629"
       y="60.395554">nie wydzielane</tspan></text>
  <text
     xml:space="preserve"
     style="font-style:normal;font-variant:normal;font-weight:normal;font-stretch:normal;font-size:10.66666698px;line-height:1.25;font-family:Arial;-inkscape-font-specification:Arial;text-align:start;letter-spacing:0px;word-spacing:0px;text-anchor:start;fill:#000000;fill-opacity:1;stroke:none"
     x="1.2592473"
     y="122.8048"
     id="text1749"><tspan
       sodipodi:role="line"
       id="tspan1747"
       x="1.2592473"
       y="122.8048">\cmpd{knoev-amide}</tspan></text>
  <text
     xml:space="preserve"
     style="font-style:normal;font-variant:normal;font-weight:normal;font-stretch:normal;font-size:10.66666698px;line-height:1.25;font-family:Arial;-inkscape-font-specification:Arial;text-align:start;letter-spacing:0px;word-spacing:0px;text-anchor:start;fill:#000000;fill-opacity:1;stroke:none"
     x="224.70352"
     y="122.8048"
     id="text1749-2"><tspan
       sodipodi:role="line"
       id="tspan1747-3"
       x="224.70352"
       y="122.8048">\cmpd{knoev-iminium}</tspan></text>
  <text
     xml:space="preserve"
     style="font-style:normal;font-variant:normal;font-weight:normal;font-stretch:normal;font-size:10.66666698px;line-height:1.25;font-family:Arial;-inkscape-font-specification:Arial;text-align:start;letter-spacing:0px;word-spacing:0px;text-anchor:start;fill:#000000;fill-opacity:1;stroke:none"
     x="471.8338"
     y="122.8048"
     id="text1749-3"><tspan
       sodipodi:role="line"
       id="tspan1747-1"
       x="471.8338"
       y="122.8048">\cmpd{knoev-product}</tspan></text>
</svg>
