<?xml version="1.0" encoding="UTF-8" standalone="no"?>
<svg
   xmlns:dc="http://purl.org/dc/elements/1.1/"
   xmlns:cc="http://creativecommons.org/ns#"
   xmlns:rdf="http://www.w3.org/1999/02/22-rdf-syntax-ns#"
   xmlns:svg="http://www.w3.org/2000/svg"
   xmlns="http://www.w3.org/2000/svg"
   xmlns:sodipodi="http://sodipodi.sourceforge.net/DTD/sodipodi-0.dtd"
   xmlns:inkscape="http://www.inkscape.org/namespaces/inkscape"
   width="191px"
   height="204px"
   viewBox="0 0 191 204"
   version="1.1"
   id="svg206"
   sodipodi:docname="zr-ncac-add.svg"
   inkscape:version="0.92.4 (5da689c313, 2019-01-14)">
  <metadata
     id="metadata212">
    <rdf:RDF>
      <cc:Work
         rdf:about="">
        <dc:format>image/svg+xml</dc:format>
        <dc:type
           rdf:resource="http://purl.org/dc/dcmitype/StillImage" />
      </cc:Work>
    </rdf:RDF>
  </metadata>
  <defs
     id="defs210" />
  <sodipodi:namedview
     pagecolor="#ffffff"
     bordercolor="#666666"
     borderopacity="1"
     objecttolerance="10"
     gridtolerance="10"
     guidetolerance="10"
     inkscape:pageopacity="0"
     inkscape:pageshadow="2"
     inkscape:window-width="1031"
     inkscape:window-height="1008"
     id="namedview208"
     showgrid="false"
     inkscape:zoom="2.3137255"
     inkscape:cx="121.59427"
     inkscape:cy="124.20638"
     inkscape:window-x="880"
     inkscape:window-y="0"
     inkscape:window-maximized="0"
     inkscape:current-layer="svg206" />
  <g
     aria-label="R"
     transform="matrix(0.0666667,0,0,0.0666667,25.078392,53.7333)"
     style="font-style:normal;font-variant:normal;font-weight:normal;font-stretch:normal;font-size:160px;line-height:normal;font-family:Arial;fill:#000000"
     id="text2">
    <path
       d="m 12.578125,0 v -114.53125 h 50.78125 q 15.3125,0 23.28125,3.125 7.96875,3.04687 12.734375,10.85937 4.76563,7.812505 4.76563,17.26563 0,12.1875 -7.89063,20.546875 -7.890625,8.359375 -24.375,10.625 6.015625,2.890625 9.140625,5.703125 6.640625,6.09375 12.578125,15.234375 L 113.51563,0 H 94.453125 l -15.15625,-23.828125 q -6.640625,-10.3125 -10.9375,-15.78125 -4.296875,-5.46875 -7.734375,-7.65625 -3.359375,-2.1875 -6.875,-3.046875 -2.578125,-0.546875 -8.4375,-0.546875 H 27.734375 V 0 Z m 15.15625,-63.984375 H 60.3125 q 10.390625,0 16.25,-2.109375 5.859375,-2.1875 8.90625,-6.875 3.046875,-4.765625 3.046875,-10.3125 0,-8.125 -5.9375,-13.359375 Q 76.71875,-101.875 63.984375,-101.875 h -36.25 z"
       style="font-style:normal;font-variant:normal;font-weight:normal;font-stretch:normal;font-size:160px;line-height:normal;font-family:Arial;fill:#000000"
       id="path1019"
       inkscape:connector-curvature="0" />
  </g>
  <g
     aria-label="1"
     transform="matrix(0.0666667,0,0,0.0666667,32.811692,49.5333)"
     style="font-style:normal;font-variant:normal;font-weight:normal;font-stretch:normal;font-size:120px;line-height:normal;font-family:Arial;fill:#000000"
     id="text4">
    <path
       d="M 44.707031,0 H 34.160156 v -67.207031 q -3.808594,3.632812 -10.019531,7.265625 -6.152344,3.632812 -11.074219,5.449219 V -64.6875 q 8.847656,-4.160156 15.46875,-10.078125 6.621094,-5.917969 9.375,-11.484375 h 6.796875 z"
       style="font-style:normal;font-variant:normal;font-weight:normal;font-stretch:normal;font-size:120px;line-height:normal;font-family:Arial;fill:#000000"
       id="path1022"
       inkscape:connector-curvature="0" />
  </g>
  <path
     stroke="transparent"
     d="m 28.604865,33.992055 0.680333,0.392801 v 8.726271 h -0.680333 z"
     id="path6"
     inkscape:connector-curvature="0"
     style="fill:#000000;stroke-width:0.0666667" />
  <g
     aria-label="N"
     transform="matrix(0.0666667,0,0,0.0666667,38.367392,30.716)"
     style="font-style:normal;font-variant:normal;font-weight:normal;font-stretch:normal;font-size:160px;line-height:normal;font-family:Arial;fill:#000000"
     id="text8">
    <path
       d="m 12.1875,0 v -114.53125 h 15.546875 l 60.15625,89.921875 V -114.53125 H 102.42188 V 0 H 86.875 L 26.71875,-90 V 0 Z"
       style="font-style:normal;font-variant:normal;font-weight:normal;font-stretch:normal;font-size:160px;line-height:normal;font-family:Arial;fill:#000000"
       id="path1025"
       inkscape:connector-curvature="0" />
  </g>
  <path
     stroke="transparent"
     d="m 36.552002,29.403787 0.340133,0.5892 -7.606937,4.391869 -0.680333,-0.392801 z"
     id="path10"
     inkscape:connector-curvature="0"
     style="fill:#000000;stroke-width:0.0666667" />
  <g
     aria-label="O"
     transform="matrix(0.0666667,0,0,0.0666667,11.522592,30.716)"
     style="font-style:normal;font-variant:normal;font-weight:normal;font-stretch:normal;font-size:160px;line-height:normal;font-family:Arial;fill:#000000"
     id="text12">
    <path
       d="m 7.734375,-55.78125 q 0,-28.515625 15.3125,-44.60938 15.3125,-16.17187 39.53125,-16.17187 15.859375,0 28.59375,7.57812 12.734375,7.57813 19.375005,21.17188 6.71875,13.515625 6.71875,30.703125 0,17.421875 -7.03125,31.171875 -7.03125,13.75 -19.92188,20.859375 -12.890625,7.03125 -27.8125,7.03125 -16.171875,0 -28.90625,-7.8125 -12.734375,-7.8125 -19.296875,-21.328125 -6.5625,-13.515625 -6.5625,-28.59375 z m 15.625,0.234375 q 0,20.703125 11.09375,32.65625 11.171875,11.875 27.96875,11.875 17.109375,0 28.125,-12.03125 11.093755,-12.03125 11.093755,-34.140625 0,-13.984375 -4.76563,-24.375 -4.6875,-10.46875 -13.828125,-16.171875 -9.0625,-5.781255 -20.390625,-5.781255 -16.09375,0 -27.734375,11.093755 -11.5625,11.015625 -11.5625,36.875 z"
       style="font-style:normal;font-variant:normal;font-weight:normal;font-stretch:normal;font-size:160px;line-height:normal;font-family:Arial;fill:#000000"
       id="path1028"
       inkscape:connector-curvature="0" />
  </g>
  <path
     stroke="transparent"
     d="m 19.799327,30.895587 0.340133,-0.589133 8.975672,5.182136 -0.340201,0.589133 z"
     id="path14"
     inkscape:connector-curvature="0"
     style="fill:#000000;stroke-width:0.0666667" />
  <path
     stroke="transparent"
     d="m 21.180328,28.503586 0.340133,-0.589134 8.975671,5.18207 -0.340133,0.589133 z"
     id="path16"
     inkscape:connector-curvature="0"
     style="fill:#000000;stroke-width:0.0666667" />
  <g
     aria-label="R"
     transform="matrix(0.0666667,0,0,0.0666667,51.656392,38.3884)"
     style="font-style:normal;font-variant:normal;font-weight:normal;font-stretch:normal;font-size:160px;line-height:normal;font-family:Arial;fill:#000000"
     id="text18">
    <path
       d="m 12.578125,0 v -114.53125 h 50.78125 q 15.3125,0 23.28125,3.125 7.96875,3.04687 12.734375,10.85937 4.76563,7.812505 4.76563,17.26563 0,12.1875 -7.89063,20.546875 -7.890625,8.359375 -24.375,10.625 6.015625,2.890625 9.140625,5.703125 6.640625,6.09375 12.578125,15.234375 L 113.51563,0 H 94.453125 l -15.15625,-23.828125 q -6.640625,-10.3125 -10.9375,-15.78125 -4.296875,-5.46875 -7.734375,-7.65625 -3.359375,-2.1875 -6.875,-3.046875 -2.578125,-0.546875 -8.4375,-0.546875 H 27.734375 V 0 Z m 15.15625,-63.984375 H 60.3125 q 10.390625,0 16.25,-2.109375 5.859375,-2.1875 8.90625,-6.875 3.046875,-4.765625 3.046875,-10.3125 0,-8.125 -5.9375,-13.359375 Q 76.71875,-101.875 63.984375,-101.875 h -36.25 z"
       style="font-style:normal;font-variant:normal;font-weight:normal;font-stretch:normal;font-size:160px;line-height:normal;font-family:Arial;fill:#000000"
       id="path1031"
       inkscape:connector-curvature="0" />
  </g>
  <g
     aria-label="2"
     transform="matrix(0.0666667,0,0,0.0666667,59.389792,34.1884)"
     style="font-style:normal;font-variant:normal;font-weight:normal;font-stretch:normal;font-size:120px;line-height:normal;font-family:Arial;fill:#000000"
     id="text20">
    <path
       d="M 60.410156,-10.136719 V 0 H 3.6328125 Q 3.515625,-3.8085938 4.8632812,-7.3242187 7.03125,-13.125 11.777344,-18.75 q 4.804687,-5.625 13.828125,-13.007812 14.003906,-11.484375 18.925781,-18.164063 4.921875,-6.738281 4.921875,-12.714844 0,-6.269531 -4.511719,-10.546875 -4.453125,-4.335937 -11.660156,-4.335937 -7.617188,0 -12.1875,4.570312 -4.570313,4.570313 -4.628906,12.65625 L 5.625,-61.40625 Q 6.7382812,-73.535156 14.003906,-79.863281 21.269531,-86.25 33.515625,-86.25 q 12.363281,0 19.570312,6.855469 7.207032,6.855469 7.207032,16.992187 0,5.15625 -2.109375,10.136719 -2.109375,4.980469 -7.03125,10.488281 -4.863282,5.507813 -16.230469,15.117188 -9.492188,7.96875 -12.1875,10.839843 -2.695313,2.8125 -4.453125,5.683594 z"
       style="font-style:normal;font-variant:normal;font-weight:normal;font-stretch:normal;font-size:120px;line-height:normal;font-family:Arial;fill:#000000"
       id="path1034"
       inkscape:connector-curvature="0" />
  </g>
  <path
     stroke="transparent"
     d="m 50.489142,30.889321 -0.3402,0.589133 -2.622935,-1.514334 0.340201,-0.5892 z"
     id="path22"
     inkscape:connector-curvature="0"
     style="fill:#000000;stroke-width:0.0666667" />
  <g
     aria-label="R"
     transform="matrix(0.0666667,0,0,0.0666667,38.367392,15.3711)"
     style="font-style:normal;font-variant:normal;font-weight:normal;font-stretch:normal;font-size:160px;line-height:normal;font-family:Arial;fill:#000000"
     id="text24">
    <path
       d="m 12.578125,0 v -114.53125 h 50.78125 q 15.3125,0 23.28125,3.125 7.96875,3.04687 12.734375,10.85937 4.76563,7.812505 4.76563,17.26563 0,12.1875 -7.89063,20.546875 -7.890625,8.359375 -24.375,10.625 6.015625,2.890625 9.140625,5.703125 6.640625,6.09375 12.578125,15.234375 L 113.51563,0 H 94.453125 l -15.15625,-23.828125 q -6.640625,-10.3125 -10.9375,-15.78125 -4.296875,-5.46875 -7.734375,-7.65625 -3.359375,-2.1875 -6.875,-3.046875 -2.578125,-0.546875 -8.4375,-0.546875 H 27.734375 V 0 Z m 15.15625,-63.984375 H 60.3125 q 10.390625,0 16.25,-2.109375 5.859375,-2.1875 8.90625,-6.875 3.046875,-4.765625 3.046875,-10.3125 0,-8.125 -5.9375,-13.359375 Q 76.71875,-101.875 63.984375,-101.875 h -36.25 z"
       style="font-style:normal;font-variant:normal;font-weight:normal;font-stretch:normal;font-size:160px;line-height:normal;font-family:Arial;fill:#000000"
       id="path1037"
       inkscape:connector-curvature="0" />
  </g>
  <g
     aria-label="3"
     transform="matrix(0.0666667,0,0,0.0666667,46.100792,11.1711)"
     style="font-style:normal;font-variant:normal;font-weight:normal;font-stretch:normal;font-size:120px;line-height:normal;font-family:Arial;fill:#000000"
     id="text26">
    <path
       d="m 5.0390625,-22.675781 10.5468755,-1.40625 q 1.816406,8.964843 6.152343,12.949218 4.394531,3.9257818 10.664063,3.9257818 7.441406,0 12.539062,-5.1562498 5.15625,-5.15625 5.15625,-12.773438 0,-7.265625 -4.746094,-11.953125 -4.746093,-4.746093 -12.070312,-4.746093 -2.988281,0 -7.441406,1.171875 l 1.171875,-9.257813 q 1.054687,0.117188 1.699218,0.117188 6.738282,0 12.128907,-3.515625 5.390625,-3.515625 5.390625,-10.839844 0,-5.800781 -3.925782,-9.609375 -3.925781,-3.808594 -10.136718,-3.808594 -6.152344,0 -10.253907,3.867188 -4.101562,3.867187 -5.273437,11.601562 l -10.546875,-1.875 Q 8.0273438,-74.589844 14.882813,-80.390625 21.738281,-86.25 31.933594,-86.25 q 7.03125,0 12.949218,3.046875 5.917969,2.988281 9.023438,8.203125 3.164062,5.214844 3.164062,11.074219 0,5.566406 -2.988281,10.136719 -2.988281,4.570312 -8.847656,7.265625 7.617187,1.757812 11.835937,7.324218 4.21875,5.507813 4.21875,13.828125 0,11.25 -8.203125,19.1015628 -8.203125,7.7929687 -20.742187,7.7929687 -11.308594,0 -18.808594,-6.7382812 Q 6.09375,-11.953125 5.0390625,-22.675781 Z"
       style="font-style:normal;font-variant:normal;font-weight:normal;font-stretch:normal;font-size:120px;line-height:normal;font-family:Arial;fill:#000000"
       id="path1040"
       inkscape:connector-curvature="0" />
  </g>
  <g
     aria-label="(H)"
     transform="matrix(0.0666667,0,0,0.0666667,50.567392,15.3711)"
     style="font-style:normal;font-variant:normal;font-weight:normal;font-stretch:normal;font-size:160px;line-height:normal;font-family:Arial;fill:#000000"
     id="text28">
    <path
       d="m 37.421875,33.671875 q -11.640625,-14.6875 -19.6875,-34.375 -8.046875,-19.6875 -8.046875,-40.78125 0,-18.59375 6.015625,-35.625 7.03125,-19.765625 21.71875,-39.375005 H 47.5 q -9.453125,16.25 -12.5,23.20313 -4.765625,10.78125 -7.5,22.5 -3.359375,14.609375 -3.359375,29.375 0,37.578125 23.359375,75.078125 z"
       style="font-style:normal;font-variant:normal;font-weight:normal;font-stretch:normal;font-size:160px;line-height:normal;font-family:Arial;fill:#000000"
       id="path1043"
       inkscape:connector-curvature="0" />
    <path
       d="M 66.25,0 V -114.53125 H 81.40625 V -67.5 h 59.53125 v -47.03125 h 15.15625 V 0 H 140.9375 V -53.984375 H 81.40625 V 0 Z"
       style="font-style:normal;font-variant:normal;font-weight:normal;font-stretch:normal;font-size:160px;line-height:normal;font-family:Arial;fill:#000000"
       id="path1045"
       inkscape:connector-curvature="0" />
    <path
       d="M 188.82812,33.671875 H 178.75 q 23.35937,-37.5 23.35937,-75.078125 0,-14.6875 -3.35937,-29.140625 -2.65625,-11.71875 -7.42188,-22.5 -3.04687,-7.031255 -12.57812,-23.437505 h 10.07812 q 14.6875,19.60938 21.71875,39.375005 6.01563,17.03125 6.01563,35.625 0,21.09375 -8.125,40.78125 -8.04688,19.6875 -19.60938,34.375 z"
       style="font-style:normal;font-variant:normal;font-weight:normal;font-stretch:normal;font-size:160px;line-height:normal;font-family:Arial;fill:#000000"
       id="path1047"
       inkscape:connector-curvature="0" />
  </g>
  <path
     stroke="transparent"
     d="m 41.893938,17.148914 h 0.680334 v 4.300469 h -0.680334 z"
     id="path30"
     inkscape:connector-curvature="0"
     style="fill:#000000;stroke-width:0.0666667" />
  <path
     stroke="transparent"
     d="M 48.739646,132.9161 V 60.986068 h 0.666667 V 132.9161 Z"
     id="path32"
     inkscape:connector-curvature="0"
     style="fill:#000000;stroke-width:0.0666667" />
  <path
     stroke="transparent"
     d="m 49.072979,138.80211 c 0,0 -1.834067,-6.80267 -1.834067,-6.80267 0,0 1.031667,0.85 1.834067,0.85 0.773268,0 1.767468,-0.85 1.767468,-0.85 0,0 -1.767468,6.80267 -1.767468,6.80267 0,0 0,0 0,0"
     id="path34"
     inkscape:connector-curvature="0"
     style="fill:#000000;stroke-width:0.0666667" />
  <path
     fill="transparent"
     d="m 49.072979,138.80211 c 0,0 -1.834067,-6.80267 -1.834067,-6.80267 0,0 1.031667,0.85 1.834067,0.85 0.773268,0 1.767468,-0.85 1.767468,-0.85 0,0 -1.767468,6.80267 -1.767468,6.80267 0,0 0,0 0,0"
     id="path36"
     inkscape:connector-curvature="0"
     style="stroke:#000000;stroke-width:0.0666667" />
  <g
     aria-label="1)"
     transform="matrix(0.0666667,0,0,0.0666667,66.548706,70.7698)"
     style="font-style:normal;font-variant:normal;font-weight:normal;font-stretch:normal;font-size:160px;line-height:normal;font-family:Arial;fill:#000000"
     id="text38">
    <path
       d="m 59.609375,0 h -14.0625 v -89.609375 q -5.078125,4.84375 -13.359375,9.6875 -8.203125,4.84375 -14.765625,7.265625 V -86.25 q 11.796875,-5.546875 20.625,-13.4375 8.828125,-7.89063 12.5,-15.3125 h 9.0625 z"
       style="font-style:normal;font-variant:normal;font-weight:normal;font-stretch:normal;font-size:160px;line-height:normal;font-family:Arial;fill:#000000"
       id="path1050"
       inkscape:connector-curvature="0" />
    <path
       d="M 108.82813,33.671875 H 98.75 q 23.35938,-37.5 23.35938,-75.078125 0,-14.6875 -3.35938,-29.140625 -2.65625,-11.71875 -7.42187,-22.5 -3.04688,-7.031255 -12.57813,-23.437505 h 10.07813 q 14.6875,19.60938 21.71874,39.375005 6.01563,17.03125 6.01563,35.625 0,21.09375 -8.125,40.78125 -8.04687,19.6875 -19.60937,34.375 z"
       style="font-style:normal;font-variant:normal;font-weight:normal;font-stretch:normal;font-size:160px;line-height:normal;font-family:Arial;fill:#000000"
       id="path1052"
       inkscape:connector-curvature="0" />
  </g>
  <g
     aria-label="Cp"
     transform="matrix(0.0666667,0,0,0.0666667,78.997706,70.7698)"
     style="font-style:normal;font-variant:normal;font-weight:normal;font-stretch:normal;font-size:160px;line-height:normal;font-family:Arial;fill:#009e73"
     id="text40">
    <path
       d="m 94.0625,-40.15625 15.15625,3.828125 Q 104.45313,-17.65625 92.03125,-7.8125 79.6875,1.953125 61.796875,1.953125 q -18.515625,0 -30.15625,-7.5 -11.5625,-7.578125 -17.65625,-21.875 Q 7.96875,-41.71875 7.96875,-58.125 q 0,-17.890625 6.796875,-31.171875 6.875,-13.359375 19.453125,-20.234375 12.65625,-6.95313 27.8125,-6.95313 17.1875,0 28.90625,8.75 11.71875,8.750005 16.32813,24.60938 l -14.92188,3.515625 q -3.984375,-12.5 -11.5625,-18.203125 -7.578125,-5.70313 -19.0625,-5.70313 -13.203125,0 -22.109375,6.32813 -8.828125,6.328125 -12.421875,17.03125 -3.59375,10.625 -3.59375,21.953125 0,14.609375 4.21875,25.546875 4.296875,10.859375 13.28125,16.25 8.984375,5.390625 19.453125,5.390625 12.734375,0 21.5625,-7.34375 8.828125,-7.34375 11.953125,-21.796875 z"
       style="font-style:normal;font-variant:normal;font-weight:normal;font-stretch:normal;font-size:160px;line-height:normal;font-family:Arial;fill:#009e73"
       id="path1055"
       inkscape:connector-curvature="0" />
    <path
       d="M 126.17188,31.796875 V -82.96875 h 12.81249 v 10.78125 q 4.53125,-6.328125 10.23438,-9.453125 5.70312,-3.203125 13.82812,-3.203125 10.625,0 18.75,5.46875 8.125,5.46875 12.26563,15.46875 4.14062,9.921875 4.14062,21.796875 0,12.734375 -4.60937,22.96875 -4.53125,10.15625 -13.28125,15.625 Q 171.64062,1.875 162.03125,1.875 155,1.875 149.375,-1.09375 q -5.54688,-2.96875 -9.14063,-7.5 v 40.390625 z m 12.73437,-72.8125 q 0,16.015625 6.48437,23.671875 6.48438,7.65625 15.70313,7.65625 9.375,0 16.01562,-7.890625 6.71875,-7.96875 6.71875,-24.609375 0,-15.859375 -6.5625,-23.75 -6.48437,-7.890625 -15.54687,-7.890625 -8.98438,0 -15.9375,8.4375 -6.875,8.359375 -6.875,24.375 z"
       style="font-style:normal;font-variant:normal;font-weight:normal;font-stretch:normal;font-size:160px;line-height:normal;font-family:Arial;fill:#009e73"
       id="path1057"
       inkscape:connector-curvature="0" />
  </g>
  <g
     aria-label="2"
     transform="matrix(0.0666667,0,0,0.0666667,92.664406,73.0365)"
     style="font-style:normal;font-variant:normal;font-weight:normal;font-stretch:normal;font-size:120px;line-height:normal;font-family:Arial;fill:#009e73"
     id="text42">
    <path
       d="M 60.410156,-10.136719 V 0 H 3.6328125 Q 3.515625,-3.8085938 4.8632812,-7.3242187 7.03125,-13.125 11.777344,-18.75 q 4.804687,-5.625 13.828125,-13.007812 14.003906,-11.484375 18.925781,-18.164063 4.921875,-6.738281 4.921875,-12.714844 0,-6.269531 -4.511719,-10.546875 -4.453125,-4.335937 -11.660156,-4.335937 -7.617188,0 -12.1875,4.570312 -4.570313,4.570313 -4.628906,12.65625 L 5.625,-61.40625 Q 6.7382812,-73.535156 14.003906,-79.863281 21.269531,-86.25 33.515625,-86.25 q 12.363281,0 19.570312,6.855469 7.207032,6.855469 7.207032,16.992187 0,5.15625 -2.109375,10.136719 -2.109375,4.980469 -7.03125,10.488281 -4.863282,5.507813 -16.230469,15.117188 -9.492188,7.96875 -12.1875,10.839843 -2.695313,2.8125 -4.453125,5.683594 z"
       style="font-style:normal;font-variant:normal;font-weight:normal;font-stretch:normal;font-size:120px;line-height:normal;font-family:Arial;fill:#009e73"
       id="path1060"
       inkscape:connector-curvature="0" />
  </g>
  <g
     aria-label="Zr(H)Cl"
     transform="matrix(0.0666667,0,0,0.0666667,97.114406,70.7698)"
     style="font-style:normal;font-variant:normal;font-weight:normal;font-stretch:normal;font-size:160px;line-height:normal;font-family:Arial;fill:#009e73"
     id="text44">
    <path
       d="M 3.203125,0 V -14.0625 L 61.875,-87.421875 q 6.25,-7.8125 11.875,-13.593755 H 9.84375 v -13.51562 H 91.875 v 13.51562 L 27.578125,-21.5625 20.625,-13.515625 H 93.75 V 0 Z"
       style="font-style:normal;font-variant:normal;font-weight:normal;font-stretch:normal;font-size:160px;line-height:normal;font-family:Arial;fill:#009e73"
       id="path1063"
       inkscape:connector-curvature="0" />
    <path
       d="m 108.20313,0 v -82.96875 h 12.65625 v 12.578125 q 4.84375,-8.828125 8.90624,-11.640625 4.14063,-2.8125 9.0625,-2.8125 7.10938,0 14.45313,4.53125 l -4.84375,13.046875 q -5.15625,-3.046875 -10.3125,-3.046875 -4.60938,0 -8.28125,2.8125 -3.67187,2.734375 -5.23437,7.65625 -2.34375,7.5 -2.34375,16.40625 V 0 Z"
       style="font-style:normal;font-variant:normal;font-weight:normal;font-stretch:normal;font-size:160px;line-height:normal;font-family:Arial;fill:#009e73"
       id="path1065"
       inkscape:connector-curvature="0" />
    <path
       d="m 188.67187,33.671875 q -11.64062,-14.6875 -19.6875,-34.375 -8.04687,-19.6875 -8.04687,-40.78125 0,-18.59375 6.01562,-35.625 7.03125,-19.765625 21.71875,-39.375005 H 198.75 q -9.45313,16.25 -12.5,23.20313 -4.76563,10.78125 -7.5,22.5 -3.35938,14.609375 -3.35938,29.375 0,37.578125 23.35938,75.078125 z"
       style="font-style:normal;font-variant:normal;font-weight:normal;font-stretch:normal;font-size:160px;line-height:normal;font-family:Arial;fill:#009e73"
       id="path1067"
       inkscape:connector-curvature="0" />
    <path
       d="m 217.5,0 v -114.53125 h 15.15625 V -67.5 h 59.53125 v -47.03125 h 15.15625 V 0 H 292.1875 V -53.984375 H 232.65625 V 0 Z"
       style="font-style:normal;font-variant:normal;font-weight:normal;font-stretch:normal;font-size:160px;line-height:normal;font-family:Arial;fill:#009e73"
       id="path1069"
       inkscape:connector-curvature="0" />
    <path
       d="M 340.07812,33.671875 H 330 q 23.35937,-37.5 23.35937,-75.078125 0,-14.6875 -3.35937,-29.140625 -2.65625,-11.71875 -7.42188,-22.5 Q 339.53125,-100.07813 330,-116.48438 h 10.07812 q 14.6875,19.60938 21.71875,39.375005 6.01563,17.03125 6.01563,35.625 0,21.09375 -8.125,40.78125 -8.04688,19.6875 -19.60938,34.375 z"
       style="font-style:normal;font-variant:normal;font-weight:normal;font-stretch:normal;font-size:160px;line-height:normal;font-family:Arial;fill:#009e73"
       id="path1071"
       inkscape:connector-curvature="0" />
    <path
       d="m 467.8125,-40.15625 15.15625,3.828125 q -4.76563,18.671875 -17.1875,28.515625 -12.34375,9.765625 -30.23438,9.765625 -18.51562,0 -30.15625,-7.5 -11.5625,-7.578125 -17.65625,-21.875 -6.01562,-14.296875 -6.01562,-30.703125 0,-17.890625 6.79687,-31.171875 6.875,-13.359375 19.45313,-20.234375 12.65625,-6.95313 27.8125,-6.95313 17.1875,0 28.90625,8.75 11.71875,8.750005 16.32812,24.60938 l -14.92187,3.515625 q -3.98438,-12.5 -11.5625,-18.203125 -7.57813,-5.70313 -19.0625,-5.70313 -13.20313,0 -22.10938,6.32813 -8.82812,6.328125 -12.42187,17.03125 -3.59375,10.625 -3.59375,21.953125 0,14.609375 4.21875,25.546875 4.29687,10.859375 13.28125,16.25 8.98437,5.390625 19.45312,5.390625 12.73438,0 21.5625,-7.34375 8.82813,-7.34375 11.95313,-21.796875 z"
       style="font-style:normal;font-variant:normal;font-weight:normal;font-stretch:normal;font-size:160px;line-height:normal;font-family:Arial;fill:#009e73"
       id="path1073"
       inkscape:connector-curvature="0" />
    <path
       d="m 499.60937,0 v -114.53125 h 14.0625 V 0 Z"
       style="font-style:normal;font-variant:normal;font-weight:normal;font-stretch:normal;font-size:160px;line-height:normal;font-family:Arial;fill:#009e73"
       id="path1075"
       inkscape:connector-curvature="0" />
  </g>
  <g
     aria-label="HN"
     transform="matrix(0.0666667,0,0,0.0666667,133.441,41.6298)"
     style="font-style:normal;font-variant:normal;font-weight:normal;font-stretch:normal;font-size:160px;line-height:normal;font-family:Arial;fill:#000000"
     id="text46">
    <path
       d="M 12.8125,0 V -114.53125 H 27.96875 V -67.5 H 87.5 v -47.03125 h 15.15625 V 0 H 87.5 V -53.984375 H 27.96875 V 0 Z"
       style="font-style:normal;font-variant:normal;font-weight:normal;font-stretch:normal;font-size:160px;line-height:normal;font-family:Arial;fill:#000000"
       id="path1078"
       inkscape:connector-curvature="0" />
    <path
       d="m 127.8125,0 v -114.53125 h 15.54687 l 60.15625,89.921875 v -89.921875 h 14.53125 V 0 H 202.5 L 142.34375,-90 V 0 Z"
       style="font-style:normal;font-variant:normal;font-weight:normal;font-stretch:normal;font-size:160px;line-height:normal;font-family:Arial;fill:#000000"
       id="path1080"
       inkscape:connector-curvature="0" />
  </g>
  <path
     stroke="transparent"
     fill="#000000"
     transform="matrix(0.0666667 0 0 0.0666667 3.44389 -10.3333)"
     d="M 2182,645.239 L 2173.74,639.241 L 2256.61,525.184 L 2260.5,537.181 L 2182,645.239 Z "
     id="path48" />
  <g
     aria-label="O"
     transform="matrix(0.0666667,0,0,0.0666667,145.163,14.7594)"
     style="font-style:normal;font-variant:normal;font-weight:normal;font-stretch:normal;font-size:160px;line-height:normal;font-family:Arial;fill:#000000"
     id="text50">
    <path
       d="m 7.734375,-55.78125 q 0,-28.515625 15.3125,-44.60938 15.3125,-16.17187 39.53125,-16.17187 15.859375,0 28.59375,7.57812 12.734375,7.57813 19.375005,21.17188 6.71875,13.515625 6.71875,30.703125 0,17.421875 -7.03125,31.171875 -7.03125,13.75 -19.92188,20.859375 -12.890625,7.03125 -27.8125,7.03125 -16.171875,0 -28.90625,-7.8125 -12.734375,-7.8125 -19.296875,-21.328125 -6.5625,-13.515625 -6.5625,-28.59375 z m 15.625,0.234375 q 0,20.703125 11.09375,32.65625 11.171875,11.875 27.96875,11.875 17.109375,0 28.125,-12.03125 11.093755,-12.03125 11.093755,-34.140625 0,-13.984375 -4.76563,-24.375 -4.6875,-10.46875 -13.828125,-16.171875 -9.0625,-5.781255 -20.390625,-5.781255 -16.09375,0 -27.734375,11.093755 -11.5625,11.015625 -11.5625,36.875 z"
       style="font-style:normal;font-variant:normal;font-weight:normal;font-stretch:normal;font-size:160px;line-height:normal;font-family:Arial;fill:#000000"
       id="path1083"
       inkscape:connector-curvature="0" />
  </g>
  <path
     stroke="transparent"
     fill="#000000"
     transform="matrix(0.0666667 0 0 0.0666667 3.44389 -10.3333)"
     d="M 2191.61,408.353 L 2201.32,405.199 L 2248.43,550.216 L 2238.73,553.369 L 2191.61,408.353 Z "
     id="path52" />
  <path
     stroke="transparent"
     fill="#000000"
     transform="matrix(0.0666667 0 0 0.0666667 3.44389 -10.3333)"
     d="M 2230.81,395.615 L 2240.52,392.462 L 2287.64,537.478 L 2277.93,540.632 L 2230.81,395.615 Z "
     id="path54" />
  <path
     stroke="transparent"
     d="M 155.48997,133.4841 V 61.554068 h 0.66666 V 133.4841 Z"
     id="path56"
     inkscape:connector-curvature="0"
     style="fill:#000000;stroke-width:0.0666667" />
  <path
     stroke="transparent"
     d="m 155.8233,139.37011 c 0,0 -1.834,-6.80267 -1.834,-6.80267 0,0 1.03133,0.85 1.834,0.85 0.77267,0 1.76733,-0.85 1.76733,-0.85 0,0 -1.76733,6.80267 -1.76733,6.80267 0,0 0,0 0,0"
     id="path58"
     inkscape:connector-curvature="0"
     style="fill:#000000;stroke-width:0.0666667" />
  <path
     fill="transparent"
     d="m 155.8233,139.37011 c 0,0 -1.834,-6.80267 -1.834,-6.80267 0,0 1.03133,0.85 1.834,0.85 0.77267,0 1.76733,-0.85 1.76733,-0.85 0,0 -1.76733,6.80267 -1.76733,6.80267 0,0 0,0 0,0"
     id="path60"
     inkscape:connector-curvature="0"
     style="stroke:#000000;stroke-width:0.0666667" />
  <path
     stroke="transparent"
     fill="#000000"
     transform="matrix(0.0666667 0 0 0.0666667 3.44389 -10.3333)"
     d="M 2481.45,598.24 L 2471.25,605.654 L 2260.5,537.181 L 2256.61,525.184 L 2481.45,598.24 Z "
     id="path62" />
  <path
     stroke="transparent"
     fill="#000000"
     transform="matrix(0.0666667 0 0 0.0666667 3.44389 -10.3333)"
     d="M 2481.45,834.654 L 2471.25,827.24 L 2471.25,749.342 L 2481.45,749.342 L 2481.45,834.654 L 2481.45,834.654 Z "
     id="path64" />
  <path
     stroke="transparent"
     fill="#000000"
     transform="matrix(0.0666667 0 0 0.0666667 3.44389 -10.3333)"
     d="M 2471.25,605.654 L 2481.45,598.24 L 2481.45,687.138 L 2471.25,687.138 L 2471.25,605.654 L 2471.25,605.654 Z "
     id="path66" />
  <path
     stroke="transparent"
     fill="#000000"
     transform="matrix(0.0666667 0 0 0.0666667 3.44389 -10.3333)"
     d="M 2256.61,907.71 L 2260.5,895.714 L 2471.25,827.24 L 2481.45,834.654 L 2256.61,907.71 Z "
     id="path68" />
  <path
     stroke="transparent"
     fill="#000000"
     transform="matrix(0.0666667 0 0 0.0666667 3.44389 -10.3333)"
     d="M 2179.92,802.162 L 2188.18,796.164 L 2260.5,895.714 L 2256.61,907.71 L 2179.92,802.162 Z "
     id="path70" />
  <g
     aria-label="R"
     transform="matrix(0.0666667,0,0,0.0666667,175.873,41.7493)"
     style="font-style:normal;font-variant:normal;font-weight:normal;font-stretch:normal;font-size:160px;line-height:normal;font-family:Arial;fill:#000000"
     id="text72">
    <path
       d="m 12.578125,0 v -114.53125 h 50.78125 q 15.3125,0 23.28125,3.125 7.96875,3.04687 12.734375,10.85937 4.76563,7.812505 4.76563,17.26563 0,12.1875 -7.89063,20.546875 -7.890625,8.359375 -24.375,10.625 6.015625,2.890625 9.140625,5.703125 6.640625,6.09375 12.578125,15.234375 L 113.51563,0 H 94.453125 l -15.15625,-23.828125 q -6.640625,-10.3125 -10.9375,-15.78125 -4.296875,-5.46875 -7.734375,-7.65625 -3.359375,-2.1875 -6.875,-3.046875 -2.578125,-0.546875 -8.4375,-0.546875 H 27.734375 V 0 Z m 15.15625,-63.984375 H 60.3125 q 10.390625,0 16.25,-2.109375 5.859375,-2.1875 8.90625,-6.875 3.046875,-4.765625 3.046875,-10.3125 0,-8.125 -5.9375,-13.359375 Q 76.71875,-101.875 63.984375,-101.875 h -36.25 z"
       style="font-style:normal;font-variant:normal;font-weight:normal;font-stretch:normal;font-size:160px;line-height:normal;font-family:Arial;fill:#000000"
       id="path1086"
       inkscape:connector-curvature="0" />
  </g>
  <path
     stroke="transparent"
     fill="#000000"
     transform="matrix(0.0666667 0 0 0.0666667 3.44389 -10.3333)"
     d="M 2414.27,723.342 L 2414.27,713.138 L 2573.44,713.138 L 2573.44,723.342 L 2414.27,723.342 Z "
     id="path74" />
  <g
     aria-label="CN"
     transform="matrix(0.0666667,0,0,0.0666667,72.1896,123.617)"
     style="font-style:normal;font-variant:normal;font-weight:normal;font-stretch:normal;font-size:160px;line-height:normal;font-family:Arial;fill:#cc79a7"
     id="text76">
    <path
       d="m 94.0625,-40.15625 15.15625,3.828125 Q 104.45313,-17.65625 92.03125,-7.8125 79.6875,1.953125 61.796875,1.953125 q -18.515625,0 -30.15625,-7.5 -11.5625,-7.578125 -17.65625,-21.875 Q 7.96875,-41.71875 7.96875,-58.125 q 0,-17.890625 6.796875,-31.171875 6.875,-13.359375 19.453125,-20.234375 12.65625,-6.95313 27.8125,-6.95313 17.1875,0 28.90625,8.75 11.71875,8.750005 16.32813,24.60938 l -14.92188,3.515625 q -3.984375,-12.5 -11.5625,-18.203125 -7.578125,-5.70313 -19.0625,-5.70313 -13.203125,0 -22.109375,6.32813 -8.828125,6.328125 -12.421875,17.03125 -3.59375,10.625 -3.59375,21.953125 0,14.609375 4.21875,25.546875 4.296875,10.859375 13.28125,16.25 8.984375,5.390625 19.453125,5.390625 12.734375,0 21.5625,-7.34375 8.828125,-7.34375 11.953125,-21.796875 z"
       style="font-style:normal;font-variant:normal;font-weight:normal;font-stretch:normal;font-size:160px;line-height:normal;font-family:Arial;fill:#cc79a7"
       id="path1089"
       inkscape:connector-curvature="0" />
    <path
       d="m 127.8125,0 v -114.53125 h 15.54687 l 60.15625,89.921875 v -89.921875 h 14.53125 V 0 H 202.5 L 142.34375,-90 V 0 Z"
       style="font-style:normal;font-variant:normal;font-weight:normal;font-stretch:normal;font-size:160px;line-height:normal;font-family:Arial;fill:#cc79a7"
       id="path1091"
       inkscape:connector-curvature="0" />
  </g>
  <path
     stroke="transparent"
     d="m 96.738603,111.5481 0.34,0.196 v 0.39333 l -8.01467,4.62733 -0.34,-0.58933 z"
     id="path78"
     inkscape:connector-curvature="0"
     style="fill:#cc79a7;stroke-width:0.0666667" />
  <g
     aria-label="PNP"
     transform="matrix(0.0666667,0,0,0.0666667,106.801,123.617)"
     style="font-style:normal;font-variant:normal;font-weight:normal;font-stretch:normal;font-size:160px;line-height:normal;font-family:Arial;fill:#cc79a7"
     id="text80">
    <path
       d="m 12.34375,0 v -114.53125 h 43.203125 q 11.40625,0 17.421875,1.09375 8.4375,1.40625 14.140625,5.39062 5.703125,3.90625 9.140625,11.01563 3.515625,7.109375 3.515625,15.625 0,14.609375 -9.296875,24.765625 Q 81.171875,-46.5625 56.875,-46.5625 H 27.5 V 0 Z M 27.5,-60.078125 h 29.609375 q 14.6875,0 20.859375,-5.46875 6.171875,-5.46875 6.171875,-15.390625 0,-7.1875 -3.671875,-12.265625 Q 76.875,-98.359375 70.9375,-100 q -3.828125,-1.01563 -14.140625,-1.01563 H 27.5 Z"
       style="font-style:normal;font-variant:normal;font-weight:normal;font-stretch:normal;font-size:160px;line-height:normal;font-family:Arial;fill:#cc79a7"
       id="path1094"
       inkscape:connector-curvature="0" />
    <path
       d="m 119.0625,0 v -114.53125 h 15.54687 l 60.15625,89.921875 v -89.921875 h 14.53125 V 0 H 193.75 L 133.59375,-90 V 0 Z"
       style="font-style:normal;font-variant:normal;font-weight:normal;font-stretch:normal;font-size:160px;line-height:normal;font-family:Arial;fill:#cc79a7"
       id="path1096"
       inkscape:connector-curvature="0" />
    <path
       d="m 234.84375,0 v -114.53125 h 43.20312 q 11.40625,0 17.42188,1.09375 8.4375,1.40625 14.14062,5.39062 5.70313,3.90625 9.14063,11.01563 3.51562,7.109375 3.51562,15.625 0,14.609375 -9.29687,24.765625 Q 303.67187,-46.5625 279.375,-46.5625 H 250 V 0 Z M 250,-60.078125 h 29.60937 q 14.6875,0 20.85938,-5.46875 6.17187,-5.46875 6.17187,-15.390625 0,-7.1875 -3.67187,-12.265625 -3.59375,-5.15625 -9.53125,-6.796875 -3.82813,-1.01563 -14.14063,-1.01563 H 250 Z"
       style="font-style:normal;font-variant:normal;font-weight:normal;font-stretch:normal;font-size:160px;line-height:normal;font-family:Arial;fill:#cc79a7"
       id="path1098"
       inkscape:connector-curvature="0" />
  </g>
  <path
     stroke="transparent"
     d="m 105.56861,116.25276 -0.34067,0.58934 -8.149337,-4.70467 v -0.39333 l 0.340001,-0.196 z"
     id="path82"
     inkscape:connector-curvature="0"
     style="fill:#cc79a7;stroke-width:0.0666667" />
  <g
     aria-label="CO"
     transform="matrix(0.0666667,0,0,0.0666667,93.2119,100.599)"
     style="font-style:normal;font-variant:normal;font-weight:normal;font-stretch:normal;font-size:160px;line-height:normal;font-family:Arial;fill:#cc79a7"
     id="text84">
    <path
       d="m 94.0625,-40.15625 15.15625,3.828125 Q 104.45313,-17.65625 92.03125,-7.8125 79.6875,1.953125 61.796875,1.953125 q -18.515625,0 -30.15625,-7.5 -11.5625,-7.578125 -17.65625,-21.875 Q 7.96875,-41.71875 7.96875,-58.125 q 0,-17.890625 6.796875,-31.171875 6.875,-13.359375 19.453125,-20.234375 12.65625,-6.95313 27.8125,-6.95313 17.1875,0 28.90625,8.75 11.71875,8.750005 16.32813,24.60938 l -14.92188,3.515625 q -3.984375,-12.5 -11.5625,-18.203125 -7.578125,-5.70313 -19.0625,-5.70313 -13.203125,0 -22.109375,6.32813 -8.828125,6.328125 -12.421875,17.03125 -3.59375,10.625 -3.59375,21.953125 0,14.609375 4.21875,25.546875 4.296875,10.859375 13.28125,16.25 8.984375,5.390625 19.453125,5.390625 12.734375,0 21.5625,-7.34375 8.828125,-7.34375 11.953125,-21.796875 z"
       style="font-style:normal;font-variant:normal;font-weight:normal;font-stretch:normal;font-size:160px;line-height:normal;font-family:Arial;fill:#cc79a7"
       id="path1101"
       inkscape:connector-curvature="0" />
    <path
       d="m 123.35938,-55.78125 q 0,-28.515625 15.31249,-44.60938 15.3125,-16.17187 39.53125,-16.17187 15.85938,0 28.59375,7.57812 12.73438,7.57813 19.375,21.17188 6.71875,13.515625 6.71875,30.703125 0,17.421875 -7.03125,31.171875 -7.03125,13.75 -19.92187,20.859375 -12.89063,7.03125 -27.8125,7.03125 -16.17188,0 -28.90625,-7.8125 -12.73438,-7.8125 -19.29688,-21.328125 -6.56249,-13.515625 -6.56249,-28.59375 z m 15.62499,0.234375 q 0,20.703125 11.09375,32.65625 11.17188,11.875 27.96875,11.875 17.10938,0 28.125,-12.03125 11.09375,-12.03125 11.09375,-34.140625 0,-13.984375 -4.76562,-24.375 -4.6875,-10.46875 -13.82813,-16.171875 -9.0625,-5.781255 -20.39062,-5.781255 -16.09375,0 -27.73438,11.093755 -11.5625,11.015625 -11.5625,36.875 z"
       style="font-style:normal;font-variant:normal;font-weight:normal;font-stretch:normal;font-size:160px;line-height:normal;font-family:Arial;fill:#cc79a7"
       id="path1103"
       inkscape:connector-curvature="0" />
  </g>
  <g
     aria-label="2"
     transform="matrix(0.0666667,0,0,0.0666667,109.242,102.866)"
     style="font-style:normal;font-variant:normal;font-weight:normal;font-stretch:normal;font-size:120px;line-height:normal;font-family:Arial;fill:#cc79a7"
     id="text86">
    <path
       d="M 60.410156,-10.136719 V 0 H 3.6328125 Q 3.515625,-3.8085938 4.8632812,-7.3242187 7.03125,-13.125 11.777344,-18.75 q 4.804687,-5.625 13.828125,-13.007812 14.003906,-11.484375 18.925781,-18.164063 4.921875,-6.738281 4.921875,-12.714844 0,-6.269531 -4.511719,-10.546875 -4.453125,-4.335937 -11.660156,-4.335937 -7.617188,0 -12.1875,4.570312 -4.570313,4.570313 -4.628906,12.65625 L 5.625,-61.40625 Q 6.7382812,-73.535156 14.003906,-79.863281 21.269531,-86.25 33.515625,-86.25 q 12.363281,0 19.570312,6.855469 7.207032,6.855469 7.207032,16.992187 0,5.15625 -2.109375,10.136719 -2.109375,4.980469 -7.03125,10.488281 -4.863282,5.507813 -16.230469,15.117188 -9.492188,7.96875 -12.1875,10.839843 -2.695313,2.8125 -4.453125,5.683594 z"
       style="font-style:normal;font-variant:normal;font-weight:normal;font-stretch:normal;font-size:120px;line-height:normal;font-family:Arial;fill:#cc79a7"
       id="path1106"
       inkscape:connector-curvature="0" />
  </g>
  <g
     aria-label="Me"
     transform="matrix(0.0666667,0,0,0.0666667,113.692,100.599)"
     style="font-style:normal;font-variant:normal;font-weight:normal;font-stretch:normal;font-size:160px;line-height:normal;font-family:Arial;fill:#cc79a7"
     id="text88">
    <path
       d="m 11.875,0 v -114.53125 h 22.8125 l 27.109375,81.09375 q 3.75,11.328125 5.46875,16.953125 1.953125,-6.25 6.09375,-18.359375 l 27.421875,-79.6875 h 20.39063 V 0 H 106.5625 V -95.859375 L 73.28125,0 H 59.609375 l -33.125,-97.5 V 0 Z"
       style="font-style:normal;font-variant:normal;font-weight:normal;font-stretch:normal;font-size:160px;line-height:normal;font-family:Arial;fill:#cc79a7"
       id="path1109"
       inkscape:connector-curvature="0" />
    <path
       d="m 200.78125,-26.71875 14.53125,1.796875 q -3.4375,12.734375 -12.73438,19.765625 -9.29687,7.03125 -23.75,7.03125 -18.20312,0 -28.90625,-11.171875 -10.625,-11.25 -10.625,-31.484375 0,-20.9375 10.78125,-32.5 10.78125,-11.5625 27.96875,-11.5625 16.64063,0 27.1875,11.328125 10.54688,11.328125 10.54688,31.875 0,1.25 -0.0781,3.75 h -61.875 q 0.78125,13.671875 7.73438,20.9375 6.95312,7.265625 17.34375,7.265625 7.73437,0 13.20312,-4.0625 5.46875,-4.0625 8.67188,-12.96875 z M 154.60937,-49.453125 H 200.9375 Q 200,-59.921875 195.625,-65.15625 q -6.71875,-8.125 -17.42188,-8.125 -9.6875,0 -16.32812,6.484375 -6.5625,6.484375 -7.26563,17.34375 z"
       style="font-style:normal;font-variant:normal;font-weight:normal;font-stretch:normal;font-size:160px;line-height:normal;font-family:Arial;fill:#cc79a7"
       id="path1111"
       inkscape:connector-curvature="0" />
  </g>
  <path
     stroke="transparent"
     d="m 96.738603,102.51076 h 0.680001 v 9.03734 l -0.340001,0.196 -0.34,-0.196 z"
     id="path90"
     inkscape:connector-curvature="0"
     style="fill:#cc79a7;stroke-width:0.0666667" />
  <g
     aria-label="2)"
     transform="matrix(0.0666667,0,0,0.0666667,67.0126,86.4167)"
     style="font-style:normal;font-variant:normal;font-weight:normal;font-stretch:normal;font-size:160px;line-height:normal;font-family:Arial;fill:#000000"
     id="text92">
    <path
       d="M 80.546875,-13.515625 V 0 H 4.84375 Q 4.6875,-5.078125 6.484375,-9.765625 9.375,-17.5 15.703125,-25 q 6.40625,-7.5 18.4375,-17.34375 Q 52.8125,-57.65625 59.375,-66.5625 q 6.5625,-8.984375 6.5625,-16.953125 0,-8.359375 -6.015625,-14.0625 -5.9375,-5.781255 -15.546875,-5.781255 -10.15625,0 -16.25,6.093755 -6.09375,6.09375 -6.171875,16.875 L 7.5,-81.875 Q 8.984375,-98.046875 18.671875,-106.48438 28.359375,-115 44.6875,-115 q 16.484375,0 26.09375,9.14062 9.609375,9.14063 9.609375,22.656255 0,6.875 -2.8125,13.515625 -2.8125,6.640625 -9.375,13.984375 -6.484375,7.34375 -21.640625,20.15625 -12.65625,10.625 -16.25,14.453125 -3.59375,3.75 -5.9375,7.578125 z"
       style="font-style:normal;font-variant:normal;font-weight:normal;font-stretch:normal;font-size:160px;line-height:normal;font-family:Arial;fill:#000000"
       id="path1114"
       inkscape:connector-curvature="0" />
    <path
       d="M 108.82813,33.671875 H 98.75 q 23.35938,-37.5 23.35938,-75.078125 0,-14.6875 -3.35938,-29.140625 -2.65625,-11.71875 -7.42187,-22.5 -3.04688,-7.031255 -12.57813,-23.437505 h 10.07813 q 14.6875,19.60938 21.71874,39.375005 6.01563,17.03125 6.01563,35.625 0,21.09375 -8.125,40.78125 -8.04687,19.6875 -19.60937,34.375 z"
       style="font-style:normal;font-variant:normal;font-weight:normal;font-stretch:normal;font-size:160px;line-height:normal;font-family:Arial;fill:#000000"
       id="path1116"
       inkscape:connector-curvature="0" />
  </g>
  <g
     aria-label="ZnCl"
     transform="matrix(0.0666667,0,0,0.0666667,79.4616,86.4167)"
     style="font-style:normal;font-variant:normal;font-weight:normal;font-stretch:normal;font-size:160px;line-height:normal;font-family:Arial;fill:#000000"
     id="text94">
    <path
       d="M 3.203125,0 V -14.0625 L 61.875,-87.421875 q 6.25,-7.8125 11.875,-13.593755 H 9.84375 v -13.51562 H 91.875 v 13.51562 L 27.578125,-21.5625 20.625,-13.515625 H 93.75 V 0 Z"
       style="font-style:normal;font-variant:normal;font-weight:normal;font-stretch:normal;font-size:160px;line-height:normal;font-family:Arial;fill:#000000"
       id="path1119"
       inkscape:connector-curvature="0" />
    <path
       d="m 108.35938,0 v -82.96875 h 12.65625 v 11.796875 q 9.14062,-13.671875 26.40624,-13.671875 7.5,0 13.75,2.734375 6.32813,2.65625 9.45313,7.03125 3.125,4.375 4.375,10.390625 0.78125,3.90625 0.78125,13.671875 V 0 h -14.0625 v -50.46875 q 0,-8.59375 -1.64063,-12.8125 -1.64062,-4.296875 -5.85937,-6.796875 -4.14063,-2.578125 -9.76563,-2.578125 -8.98437,0 -15.54687,5.703125 -6.48437,5.703125 -6.48437,21.640625 V 0 Z"
       style="font-style:normal;font-variant:normal;font-weight:normal;font-stretch:normal;font-size:160px;line-height:normal;font-family:Arial;fill:#000000"
       id="path1121"
       inkscape:connector-curvature="0" />
    <path
       d="m 280.9375,-40.15625 15.15625,3.828125 q -4.76563,18.671875 -17.1875,28.515625 -12.34375,9.765625 -30.23438,9.765625 -18.51562,0 -30.15625,-7.5 -11.5625,-7.578125 -17.65625,-21.875 -6.01562,-14.296875 -6.01562,-30.703125 0,-17.890625 6.79687,-31.171875 6.875,-13.359375 19.45313,-20.234375 12.65625,-6.95313 27.8125,-6.95313 17.1875,0 28.90625,8.75 11.71875,8.750005 16.32812,24.60938 l -14.92187,3.515625 q -3.98438,-12.5 -11.5625,-18.203125 -7.57813,-5.70313 -19.0625,-5.70313 -13.20313,0 -22.10938,6.32813 -8.82812,6.328125 -12.42187,17.03125 -3.59375,10.625 -3.59375,21.953125 0,14.609375 4.21875,25.546875 4.29687,10.859375 13.28125,16.25 8.98437,5.390625 19.45312,5.390625 12.73438,0 21.5625,-7.34375 8.82813,-7.34375 11.95313,-21.796875 z"
       style="font-style:normal;font-variant:normal;font-weight:normal;font-stretch:normal;font-size:160px;line-height:normal;font-family:Arial;fill:#000000"
       id="path1123"
       inkscape:connector-curvature="0" />
    <path
       d="m 312.73437,0 v -114.53125 h 14.0625 V 0 Z"
       style="font-style:normal;font-variant:normal;font-weight:normal;font-stretch:normal;font-size:160px;line-height:normal;font-family:Arial;fill:#000000"
       id="path1125"
       inkscape:connector-curvature="0" />
  </g>
  <g
     aria-label="2,"
     transform="matrix(0.0666667,0,0,0.0666667,102.062,88.6833)"
     style="font-style:normal;font-variant:normal;font-weight:normal;font-stretch:normal;font-size:120px;line-height:normal;font-family:Arial;fill:#000000"
     id="text96">
    <path
       d="M 60.410156,-10.136719 V 0 H 3.6328125 Q 3.515625,-3.8085938 4.8632812,-7.3242187 7.03125,-13.125 11.777344,-18.75 q 4.804687,-5.625 13.828125,-13.007812 14.003906,-11.484375 18.925781,-18.164063 4.921875,-6.738281 4.921875,-12.714844 0,-6.269531 -4.511719,-10.546875 -4.453125,-4.335937 -11.660156,-4.335937 -7.617188,0 -12.1875,4.570312 -4.570313,4.570313 -4.628906,12.65625 L 5.625,-61.40625 Q 6.7382812,-73.535156 14.003906,-79.863281 21.269531,-86.25 33.515625,-86.25 q 12.363281,0 19.570312,6.855469 7.207032,6.855469 7.207032,16.992187 0,5.15625 -2.109375,10.136719 -2.109375,4.980469 -7.03125,10.488281 -4.863282,5.507813 -16.230469,15.117188 -9.492188,7.96875 -12.1875,10.839843 -2.695313,2.8125 -4.453125,5.683594 z"
       style="font-style:normal;font-variant:normal;font-weight:normal;font-stretch:normal;font-size:120px;line-height:normal;font-family:Arial;fill:#000000"
       id="path1128"
       inkscape:connector-curvature="0" />
    <path
       d="M 77.460937,0 V -12.011719 H 89.472656 V 0 q 0,6.6210937 -2.34375,10.664063 -2.34375,4.101562 -7.441406,6.328124 L 76.757812,12.480469 Q 80.097656,11.015625 81.679687,8.1445313 83.261719,5.3320312 83.4375,0 Z"
       style="font-style:normal;font-variant:normal;font-weight:normal;font-stretch:normal;font-size:120px;line-height:normal;font-family:Arial;fill:#000000"
       id="path1130"
       inkscape:connector-curvature="0" />
  </g>
  <g
     transform="matrix(0.0666667 0 0 0.0666667 108.734 88.4167)"
     style="font-style:normal;font-variant:normal;font-weight:normal;font-stretch:normal;font-size:160px;line-height:normal;font-family:Arial;fill:#000000"
     id="text98" />
  <g
     aria-label="Et"
     transform="matrix(0.0666667,0,0,0.0666667,111.698,86.4167)"
     style="font-style:normal;font-variant:normal;font-weight:normal;font-stretch:normal;font-size:160px;line-height:normal;font-family:Arial;fill:#000000"
     id="text100">
    <path
       d="m 12.65625,0 v -114.53125 h 82.8125 v 13.51562 H 27.8125 V -65.9375 H 91.171875 V -52.5 H 27.8125 v 38.984375 H 98.125 V 0 Z"
       style="font-style:normal;font-variant:normal;font-weight:normal;font-stretch:normal;font-size:160px;line-height:normal;font-family:Arial;fill:#000000"
       id="path1134"
       inkscape:connector-curvature="0" />
    <path
       d="m 148.125,-12.578125 2.03125,12.421875 q -5.9375,1.25 -10.625,1.25 -7.65625,0 -11.875,-2.421875 Q 123.4375,-3.75 121.71875,-7.65625 120,-11.640625 120,-24.296875 V -72.03125 h -10.3125 v -10.9375 H 120 v -20.54688 l 13.98437,-8.4375 v 28.98438 H 148.125 v 10.9375 h -14.14063 v 48.515625 q 0,6.015625 0.70313,7.734375 0.78125,1.71875 2.42187,2.734375 1.71875,1.015625 4.84375,1.015625 2.34375,0 6.17188,-0.546875 z"
       style="font-style:normal;font-variant:normal;font-weight:normal;font-stretch:normal;font-size:160px;line-height:normal;font-family:Arial;fill:#000000"
       id="path1136"
       inkscape:connector-curvature="0" />
  </g>
  <g
     aria-label="3"
     transform="matrix(0.0666667,0,0,0.0666667,121.795,88.6833)"
     style="font-style:normal;font-variant:normal;font-weight:normal;font-stretch:normal;font-size:120px;line-height:normal;font-family:Arial;fill:#000000"
     id="text102">
    <path
       d="m 5.0390625,-22.675781 10.5468755,-1.40625 q 1.816406,8.964843 6.152343,12.949218 4.394531,3.9257818 10.664063,3.9257818 7.441406,0 12.539062,-5.1562498 5.15625,-5.15625 5.15625,-12.773438 0,-7.265625 -4.746094,-11.953125 -4.746093,-4.746093 -12.070312,-4.746093 -2.988281,0 -7.441406,1.171875 l 1.171875,-9.257813 q 1.054687,0.117188 1.699218,0.117188 6.738282,0 12.128907,-3.515625 5.390625,-3.515625 5.390625,-10.839844 0,-5.800781 -3.925782,-9.609375 -3.925781,-3.808594 -10.136718,-3.808594 -6.152344,0 -10.253907,3.867188 -4.101562,3.867187 -5.273437,11.601562 l -10.546875,-1.875 Q 8.0273438,-74.589844 14.882813,-80.390625 21.738281,-86.25 31.933594,-86.25 q 7.03125,0 12.949218,3.046875 5.917969,2.988281 9.023438,8.203125 3.164062,5.214844 3.164062,11.074219 0,5.566406 -2.988281,10.136719 -2.988281,4.570312 -8.847656,7.265625 7.617187,1.757812 11.835937,7.324218 4.21875,5.507813 4.21875,13.828125 0,11.25 -8.203125,19.1015628 -8.203125,7.7929687 -20.742187,7.7929687 -11.308594,0 -18.808594,-6.7382812 Q 6.09375,-11.953125 5.0390625,-22.675781 Z"
       style="font-style:normal;font-variant:normal;font-weight:normal;font-stretch:normal;font-size:120px;line-height:normal;font-family:Arial;fill:#000000"
       id="path1139"
       inkscape:connector-curvature="0" />
  </g>
  <g
     aria-label="N,"
     transform="matrix(0.0666667,0,0,0.0666667,126.245,86.4167)"
     style="font-style:normal;font-variant:normal;font-weight:normal;font-stretch:normal;font-size:160px;line-height:normal;font-family:Arial;fill:#000000"
     id="text104">
    <path
       d="m 12.1875,0 v -114.53125 h 15.546875 l 60.15625,89.921875 V -114.53125 H 102.42188 V 0 H 86.875 L 26.71875,-90 V 0 Z"
       style="font-style:normal;font-variant:normal;font-weight:normal;font-stretch:normal;font-size:160px;line-height:normal;font-family:Arial;fill:#000000"
       id="path1142"
       inkscape:connector-curvature="0" />
    <path
       d="m 129.84375,0 v -16.015625 h 16.01562 V 0 q 0,8.828125 -3.125,14.21875 -3.125,5.46875 -9.92187,8.4375 l -3.90625,-6.015625 q 4.45312,-1.953125 6.5625,-5.78125 Q 137.57812,7.109375 137.8125,0 Z"
       style="font-style:normal;font-variant:normal;font-weight:normal;font-stretch:normal;font-size:160px;line-height:normal;font-family:Arial;fill:#000000"
       id="path1144"
       inkscape:connector-curvature="0" />
  </g>
  <g
     aria-label="R"
     transform="matrix(0.0666667,0,0,0.0666667,77.6044,195.15)"
     style="font-style:normal;font-variant:normal;font-weight:normal;font-stretch:normal;font-size:160px;line-height:normal;font-family:Arial;fill:#000000"
     id="text106">
    <path
       d="m 12.578125,0 v -114.53125 h 50.78125 q 15.3125,0 23.28125,3.125 7.96875,3.04687 12.734375,10.85937 4.76563,7.812505 4.76563,17.26563 0,12.1875 -7.89063,20.546875 -7.890625,8.359375 -24.375,10.625 6.015625,2.890625 9.140625,5.703125 6.640625,6.09375 12.578125,15.234375 L 113.51563,0 H 94.453125 l -15.15625,-23.828125 q -6.640625,-10.3125 -10.9375,-15.78125 -4.296875,-5.46875 -7.734375,-7.65625 -3.359375,-2.1875 -6.875,-3.046875 -2.578125,-0.546875 -8.4375,-0.546875 H 27.734375 V 0 Z m 15.15625,-63.984375 H 60.3125 q 10.390625,0 16.25,-2.109375 5.859375,-2.1875 8.90625,-6.875 3.046875,-4.765625 3.046875,-10.3125 0,-8.125 -5.9375,-13.359375 Q 76.71875,-101.875 63.984375,-101.875 h -36.25 z"
       style="font-style:normal;font-variant:normal;font-weight:normal;font-stretch:normal;font-size:160px;line-height:normal;font-family:Arial;fill:#000000"
       id="path1147"
       inkscape:connector-curvature="0" />
  </g>
  <g
     aria-label="1"
     transform="matrix(0.0666667,0,0,0.0666667,85.3377,190.95)"
     style="font-style:normal;font-variant:normal;font-weight:normal;font-stretch:normal;font-size:120px;line-height:normal;font-family:Arial;fill:#000000"
     id="text108">
    <path
       d="M 44.707031,0 H 34.160156 v -67.207031 q -3.808594,3.632812 -10.019531,7.265625 -6.152344,3.632812 -11.074219,5.449219 V -64.6875 q 8.847656,-4.160156 15.46875,-10.078125 6.621094,-5.917969 9.375,-11.484375 h 6.796875 z"
       style="font-style:normal;font-variant:normal;font-weight:normal;font-stretch:normal;font-size:120px;line-height:normal;font-family:Arial;fill:#000000"
       id="path1150"
       inkscape:connector-curvature="0" />
  </g>
  <path
     stroke="transparent"
     d="m 73.602592,178.00079 0.196,-0.34 h 0.392667 l 4.504669,7.80201 -0.589334,0.34 z"
     id="path110"
     inkscape:connector-curvature="0"
     style="fill:#000000;stroke-width:0.0666667" />
  <path
     stroke="transparent"
     d="m 77.12526,157.52478 0.589334,-0.34 0.991334,1.71667 -0.589334,0.34 z"
     id="path112"
     inkscape:connector-curvature="0"
     style="fill:#000000;stroke-width:0.0666667" />
  <path
     stroke="transparent"
     d="m 77.74126,170.15145 0.589334,0.34001 -4.139335,7.16933 h -0.392667 v -0.68067 z"
     id="path114"
     inkscape:connector-curvature="0"
     style="fill:#000000;stroke-width:0.0666667" />
  <path
     stroke="transparent"
     d="m 58.627118,178.00079 -0.173334,-0.34 0.173334,-0.34 h 14.58214 l 0.589334,0.34 -0.196,0.34 z"
     id="path116"
     inkscape:connector-curvature="0"
     style="fill:#000000;stroke-width:0.0666667" />
  <g
     aria-label="R"
     transform="matrix(0.0666667,0,0,0.0666667,69.932,155.282)"
     style="font-style:normal;font-variant:normal;font-weight:normal;font-stretch:normal;font-size:160px;line-height:normal;font-family:Arial;fill:#000000"
     id="text118">
    <path
       d="m 12.578125,0 v -114.53125 h 50.78125 q 15.3125,0 23.28125,3.125 7.96875,3.04687 12.734375,10.85937 4.76563,7.812505 4.76563,17.26563 0,12.1875 -7.89063,20.546875 -7.890625,8.359375 -24.375,10.625 6.015625,2.890625 9.140625,5.703125 6.640625,6.09375 12.578125,15.234375 L 113.51563,0 H 94.453125 l -15.15625,-23.828125 q -6.640625,-10.3125 -10.9375,-15.78125 -4.296875,-5.46875 -7.734375,-7.65625 -3.359375,-2.1875 -6.875,-3.046875 -2.578125,-0.546875 -8.4375,-0.546875 H 27.734375 V 0 Z m 15.15625,-63.984375 H 60.3125 q 10.390625,0 16.25,-2.109375 5.859375,-2.1875 8.90625,-6.875 3.046875,-4.765625 3.046875,-10.3125 0,-8.125 -5.9375,-13.359375 Q 76.71875,-101.875 63.984375,-101.875 h -36.25 z"
       style="font-style:normal;font-variant:normal;font-weight:normal;font-stretch:normal;font-size:160px;line-height:normal;font-family:Arial;fill:#000000"
       id="path1153"
       inkscape:connector-curvature="0" />
  </g>
  <g
     aria-label="3"
     transform="matrix(0.0666667,0,0,0.0666667,77.6653,147.082)"
     style="font-style:normal;font-variant:normal;font-weight:normal;font-stretch:normal;font-size:120px;line-height:normal;font-family:Arial;fill:#000000"
     id="text120">
    <path
       d="m 5.0390625,-22.675781 10.5468755,-1.40625 q 1.816406,8.964843 6.152343,12.949218 4.394531,3.9257818 10.664063,3.9257818 7.441406,0 12.539062,-5.1562498 5.15625,-5.15625 5.15625,-12.773438 0,-7.265625 -4.746094,-11.953125 -4.746093,-4.746093 -12.070312,-4.746093 -2.988281,0 -7.441406,1.171875 l 1.171875,-9.257813 q 1.054687,0.117188 1.699218,0.117188 6.738282,0 12.128907,-3.515625 5.390625,-3.515625 5.390625,-10.839844 0,-5.800781 -3.925782,-9.609375 -3.925781,-3.808594 -10.136718,-3.808594 -6.152344,0 -10.253907,3.867188 -4.101562,3.867187 -5.273437,11.601562 l -10.546875,-1.875 Q 8.0273438,-74.589844 14.882813,-80.390625 21.738281,-86.25 31.933594,-86.25 q 7.03125,0 12.949218,3.046875 5.917969,2.988281 9.023438,8.203125 3.164062,5.214844 3.164062,11.074219 0,5.566406 -2.988281,10.136719 -2.988281,4.570312 -8.847656,7.265625 7.617187,1.757812 11.835937,7.324218 4.21875,5.507813 4.21875,13.828125 0,11.25 -8.203125,19.1015628 -8.203125,7.7929687 -20.742187,7.7929687 -11.308594,0 -18.808594,-6.7382812 Q 6.09375,-11.953125 5.0390625,-22.675781 Z"
       style="font-style:normal;font-variant:normal;font-weight:normal;font-stretch:normal;font-size:120px;line-height:normal;font-family:Arial;fill:#000000"
       id="path1156"
       inkscape:connector-curvature="0" />
  </g>
  <g
     aria-label="(H)"
     transform="matrix(0.0666667,0,0,0.0666667,54.015517,155.282)"
     style="font-style:normal;font-variant:normal;font-weight:normal;font-stretch:normal;font-size:160px;line-height:normal;font-family:Arial;fill:#000000"
     id="text122">
    <path
       d="m 37.421875,33.671875 q -11.640625,-14.6875 -19.6875,-34.375 -8.046875,-19.6875 -8.046875,-40.78125 0,-18.59375 6.015625,-35.625 7.03125,-19.765625 21.71875,-39.375005 H 47.5 q -9.453125,16.25 -12.5,23.20313 -4.765625,10.78125 -7.5,22.5 -3.359375,14.609375 -3.359375,29.375 0,37.578125 23.359375,75.078125 z"
       style="font-style:normal;font-variant:normal;font-weight:normal;font-stretch:normal;font-size:160px;line-height:normal;font-family:Arial;fill:#000000"
       id="path1159"
       inkscape:connector-curvature="0" />
    <path
       d="M 66.25,0 V -114.53125 H 81.40625 V -67.5 h 59.53125 v -47.03125 h 15.15625 V 0 H 140.9375 V -53.984375 H 81.40625 V 0 Z"
       style="font-style:normal;font-variant:normal;font-weight:normal;font-stretch:normal;font-size:160px;line-height:normal;font-family:Arial;fill:#000000"
       id="path1161"
       inkscape:connector-curvature="0" />
    <path
       d="M 188.82812,33.671875 H 178.75 q 23.35937,-37.5 23.35937,-75.078125 0,-14.6875 -3.35937,-29.140625 -2.65625,-11.71875 -7.42188,-22.5 -3.04687,-7.031255 -12.57812,-23.437505 h 10.07812 q 14.6875,19.60938 21.71875,39.375005 6.01563,17.03125 6.01563,35.625 0,21.09375 -8.125,40.78125 -8.04688,19.6875 -19.60938,34.375 z"
       style="font-style:normal;font-variant:normal;font-weight:normal;font-stretch:normal;font-size:160px;line-height:normal;font-family:Arial;fill:#000000"
       id="path1163"
       inkscape:connector-curvature="0" />
  </g>
  <path
     stroke="transparent"
     d="m 92.082601,164.03145 v 0.68 h -5.94467 v -0.68 z"
     id="path124"
     inkscape:connector-curvature="0"
     style="fill:#000000;stroke-width:0.0666667" />
  <g
     aria-label="R"
     transform="matrix(0.0666667,0,0,0.0666667,92.9493,168.571)"
     style="font-style:normal;font-variant:normal;font-weight:normal;font-stretch:normal;font-size:160px;line-height:normal;font-family:Arial;fill:#000000"
     id="text126">
    <path
       d="m 12.578125,0 v -114.53125 h 50.78125 q 15.3125,0 23.28125,3.125 7.96875,3.04687 12.734375,10.85937 4.76563,7.812505 4.76563,17.26563 0,12.1875 -7.89063,20.546875 -7.890625,8.359375 -24.375,10.625 6.015625,2.890625 9.140625,5.703125 6.640625,6.09375 12.578125,15.234375 L 113.51563,0 H 94.453125 l -15.15625,-23.828125 q -6.640625,-10.3125 -10.9375,-15.78125 -4.296875,-5.46875 -7.734375,-7.65625 -3.359375,-2.1875 -6.875,-3.046875 -2.578125,-0.546875 -8.4375,-0.546875 H 27.734375 V 0 Z m 15.15625,-63.984375 H 60.3125 q 10.390625,0 16.25,-2.109375 5.859375,-2.1875 8.90625,-6.875 3.046875,-4.765625 3.046875,-10.3125 0,-8.125 -5.9375,-13.359375 Q 76.71875,-101.875 63.984375,-101.875 h -36.25 z"
       style="font-style:normal;font-variant:normal;font-weight:normal;font-stretch:normal;font-size:160px;line-height:normal;font-family:Arial;fill:#000000"
       id="path1166"
       inkscape:connector-curvature="0" />
  </g>
  <g
     aria-label="2"
     transform="matrix(0.0666667,0,0,0.0666667,100.683,164.371)"
     style="font-style:normal;font-variant:normal;font-weight:normal;font-stretch:normal;font-size:120px;line-height:normal;font-family:Arial;fill:#000000"
     id="text128">
    <path
       d="M 60.410156,-10.136719 V 0 H 3.6328125 Q 3.515625,-3.8085938 4.8632812,-7.3242187 7.03125,-13.125 11.777344,-18.75 q 4.804687,-5.625 13.828125,-13.007812 14.003906,-11.484375 18.925781,-18.164063 4.921875,-6.738281 4.921875,-12.714844 0,-6.269531 -4.511719,-10.546875 -4.453125,-4.335937 -11.660156,-4.335937 -7.617188,0 -12.1875,4.570312 -4.570313,4.570313 -4.628906,12.65625 L 5.625,-61.40625 Q 6.7382812,-73.535156 14.003906,-79.863281 21.269531,-86.25 33.515625,-86.25 q 12.363281,0 19.570312,6.855469 7.207032,6.855469 7.207032,16.992187 0,5.15625 -2.109375,10.136719 -2.109375,4.980469 -7.03125,10.488281 -4.863282,5.507813 -16.230469,15.117188 -9.492188,7.96875 -12.1875,10.839843 -2.695313,2.8125 -4.453125,5.683594 z"
       style="font-style:normal;font-variant:normal;font-weight:normal;font-stretch:normal;font-size:120px;line-height:normal;font-family:Arial;fill:#000000"
       id="path1169"
       inkscape:connector-curvature="0" />
  </g>
  <g
     aria-label="N"
     transform="matrix(0.0666667,0,0,0.0666667,77.6044,168.571)"
     style="font-style:normal;font-variant:normal;font-weight:normal;font-stretch:normal;font-size:160px;line-height:normal;font-family:Arial;fill:#000000"
     id="text130">
    <path
       d="m 12.1875,0 v -114.53125 h 15.546875 l 60.15625,89.921875 V -114.53125 H 102.42188 V 0 H 86.875 L 26.71875,-90 V 0 Z"
       style="font-style:normal;font-variant:normal;font-weight:normal;font-stretch:normal;font-size:160px;line-height:normal;font-family:Arial;fill:#000000"
       id="path1172"
       inkscape:connector-curvature="0" />
  </g>
  <g
     aria-label="N"
     transform="matrix(0.0666667,0,0,0.0666667,139.008,196.13)"
     style="font-style:normal;font-variant:normal;font-weight:normal;font-stretch:normal;font-size:160px;line-height:normal;font-family:Arial;fill:#000000"
     id="text132">
    <path
       d="m 12.1875,0 v -114.53125 h 15.546875 l 60.15625,89.921875 V -114.53125 H 102.42188 V 0 H 86.875 L 26.71875,-90 V 0 Z"
       style="font-style:normal;font-variant:normal;font-weight:normal;font-stretch:normal;font-size:160px;line-height:normal;font-family:Arial;fill:#000000"
       id="path1175"
       inkscape:connector-curvature="0" />
  </g>
  <path
     stroke="transparent"
     d="m 146.76729,187.1508 -0.55066,-0.39934 5.21133,-7.17267 h 0.42 l 0.13,0.4 z"
     id="path134"
     inkscape:connector-curvature="0"
     style="fill:#000000;stroke-width:0.0666667" />
  <path
     stroke="transparent"
     d="m 166.70797,184.04946 -0.68067,0.494 -14.04934,-4.56467 -0.13,-0.4 0.832,-0.0873 z"
     id="path136"
     inkscape:connector-curvature="0"
     style="fill:#000000;stroke-width:0.0666667" />
  <path
     stroke="transparent"
     d="m 166.70797,199.81014 -0.68067,-0.494 v -14.77268 l 0.68067,-0.494 z"
     id="path138"
     inkscape:connector-curvature="0"
     style="fill:#000000;stroke-width:0.0666667" />
  <path
     stroke="transparent"
     d="m 151.71863,204.68081 0.25933,-0.8 14.04934,-4.56467 0.68067,0.494 z"
     id="path140"
     inkscape:connector-curvature="0"
     style="fill:#000000;stroke-width:0.0666667" />
  <path
     stroke="transparent"
     d="m 146.62929,197.67614 0.55001,-0.4 4.79866,6.60467 -0.25933,0.8 z"
     id="path142"
     inkscape:connector-curvature="0"
     style="fill:#000000;stroke-width:0.0666667" />
  <g
     aria-label="R"
     transform="matrix(0.0666667,0,0,0.0666667,173.707,196.249)"
     style="font-style:normal;font-variant:normal;font-weight:normal;font-stretch:normal;font-size:160px;line-height:normal;font-family:Arial;fill:#000000"
     id="text144">
    <path
       d="m 12.578125,0 v -114.53125 h 50.78125 q 15.3125,0 23.28125,3.125 7.96875,3.04687 12.734375,10.85937 4.76563,7.812505 4.76563,17.26563 0,12.1875 -7.89063,20.546875 -7.890625,8.359375 -24.375,10.625 6.015625,2.890625 9.140625,5.703125 6.640625,6.09375 12.578125,15.234375 L 113.51563,0 H 94.453125 l -15.15625,-23.828125 q -6.640625,-10.3125 -10.9375,-15.78125 -4.296875,-5.46875 -7.734375,-7.65625 -3.359375,-2.1875 -6.875,-3.046875 -2.578125,-0.546875 -8.4375,-0.546875 H 27.734375 V 0 Z m 15.15625,-63.984375 H 60.3125 q 10.390625,0 16.25,-2.109375 5.859375,-2.1875 8.90625,-6.875 3.046875,-4.765625 3.046875,-10.3125 0,-8.125 -5.9375,-13.359375 Q 76.71875,-101.875 63.984375,-101.875 h -36.25 z"
       style="font-style:normal;font-variant:normal;font-weight:normal;font-stretch:normal;font-size:160px;line-height:normal;font-family:Arial;fill:#000000"
       id="path1178"
       inkscape:connector-curvature="0" />
  </g>
  <path
     stroke="transparent"
     d="m 162.2293,192.38947 v -0.68 h 10.61134 v 0.68 z"
     id="path146"
     inkscape:connector-curvature="0"
     style="fill:#000000;stroke-width:0.0666667" />
  <g
     aria-label="N"
     transform="matrix(0.0666667,0,0,0.0666667,124.489,176.146)"
     style="font-style:normal;font-variant:normal;font-weight:normal;font-stretch:normal;font-size:160px;line-height:normal;font-family:Arial;fill:#cc79a7"
     id="text148">
    <path
       d="m 12.1875,0 v -114.53125 h 15.546875 l 60.15625,89.921875 V -114.53125 H 102.42188 V 0 H 86.875 L 26.71875,-90 V 0 Z"
       style="font-style:normal;font-variant:normal;font-weight:normal;font-stretch:normal;font-size:160px;line-height:normal;font-family:Arial;fill:#cc79a7"
       id="path1181"
       inkscape:connector-curvature="0" />
  </g>
  <path
     stroke="transparent"
     d="m 142.74463,167.62812 0.13,-0.4 0.49733,0.10533 8.57134,11.79801 -0.0953,0.44733 h -0.42 z"
     id="path150"
     inkscape:connector-curvature="0"
     style="fill:#000000;stroke-width:0.0666667" />
  <path
     stroke="transparent"
     d="m 133.66329,170.57879 -0.21,-0.64734 9.00934,-2.92733 0.412,0.224 -0.13,0.4 z"
     id="path152"
     inkscape:connector-curvature="0"
     style="fill:#cc79a7;stroke-width:0.0666667" />
  <path
     stroke="transparent"
     d="m 128.69529,186.96546 -0.68,0.494 v -9.58067 h 0.68 z"
     id="path154"
     inkscape:connector-curvature="0"
     style="fill:#cc79a7;stroke-width:0.0666667" />
  <path
     stroke="transparent"
     d="m 131.44329,185.21546 h -0.68 v -7.33667 h 0.68 z"
     id="path156"
     inkscape:connector-curvature="0"
     style="fill:#cc79a7;stroke-width:0.0666667" />
  <path
     stroke="transparent"
     d="m 137.69662,189.89013 -0.21,0.64667 -9.47133,-3.07734 0.68,-0.494 z"
     id="path158"
     inkscape:connector-curvature="0"
     style="fill:#000000;stroke-width:0.0666667" />
  <g
     aria-label="N"
     transform="matrix(0.0666667,0,0,0.0666667,45.5676,169.446)"
     style="font-style:normal;font-variant:normal;font-weight:normal;font-stretch:normal;font-size:160px;line-height:normal;font-family:Arial;fill:#cc79a7"
     id="text160">
    <path
       d="m 12.1875,0 v -114.53125 h 15.546875 l 60.15625,89.921875 V -114.53125 H 102.42188 V 0 H 86.875 L 26.71875,-90 V 0 Z"
       style="font-style:normal;font-variant:normal;font-weight:normal;font-stretch:normal;font-size:160px;line-height:normal;font-family:Arial;fill:#cc79a7"
       id="path1184"
       inkscape:connector-curvature="0" />
  </g>
  <g
     aria-label="O"
     transform="matrix(0.0666667,0,0,0.0666667,45.3009,194.275)"
     style="font-style:normal;font-variant:normal;font-weight:normal;font-stretch:normal;font-size:160px;line-height:normal;font-family:Arial;fill:#cc79a7"
     id="text162">
    <path
       d="m 7.734375,-55.78125 q 0,-28.515625 15.3125,-44.60938 15.3125,-16.17187 39.53125,-16.17187 15.859375,0 28.59375,7.57812 12.734375,7.57813 19.375005,21.17188 6.71875,13.515625 6.71875,30.703125 0,17.421875 -7.03125,31.171875 -7.03125,13.75 -19.92188,20.859375 -12.890625,7.03125 -27.8125,7.03125 -16.171875,0 -28.90625,-7.8125 -12.734375,-7.8125 -19.296875,-21.328125 -6.5625,-13.515625 -6.5625,-28.59375 z m 15.625,0.234375 q 0,20.703125 11.09375,32.65625 11.171875,11.875 27.96875,11.875 17.109375,0 28.125,-12.03125 11.093755,-12.03125 11.093755,-34.140625 0,-13.984375 -4.76563,-24.375 -4.6875,-10.46875 -13.828125,-16.171875 -9.0625,-5.781255 -20.390625,-5.781255 -16.09375,0 -27.734375,11.093755 -11.5625,11.015625 -11.5625,36.875 z"
       style="font-style:normal;font-variant:normal;font-weight:normal;font-stretch:normal;font-size:160px;line-height:normal;font-family:Arial;fill:#cc79a7"
       id="path1187"
       inkscape:connector-curvature="0" />
  </g>
  <path
     stroke="transparent"
     d="m 53.188582,170.99212 0.5504,-0.39933 4.888136,6.728 -0.173334,0.34 h -0.420467 z"
     id="path164"
     inkscape:connector-curvature="0"
     style="fill:#cc79a7;stroke-width:0.0666667" />
  <path
     stroke="transparent"
     d="m 50.954047,172.61612 0.550334,-0.4 3.810468,5.24467 -0.550333,0.4 z"
     id="path166"
     inkscape:connector-curvature="0"
     style="fill:#cc79a7;stroke-width:0.0666667" />
  <path
     stroke="transparent"
     d="m 35.180639,170.23545 -0.3402,-0.24733 0.05973,-0.37733 9.146138,-2.97134 0.2102,0.64667 z"
     id="path168"
     inkscape:connector-curvature="0"
     style="fill:#cc79a7;stroke-width:0.0666667" />
  <path
     stroke="transparent"
     d="m 35.180639,185.08613 -0.3402,0.24667 -0.340133,-0.17334 v -14.99801 l 0.340133,-0.17333 0.3402,0.24733 z"
     id="path170"
     inkscape:connector-curvature="0"
     style="fill:#cc79a7;stroke-width:0.0666667" />
  <path
     stroke="transparent"
     d="m 37.942707,183.32613 h -0.680333 v -11.33134 h 0.680333 z"
     id="path172"
     inkscape:connector-curvature="0"
     style="fill:#cc79a7;stroke-width:0.0666667" />
  <path
     stroke="transparent"
     d="m 44.516711,188.11946 -0.210267,0.64667 -9.406272,-3.056 -0.05973,-0.37733 0.3402,-0.24667 z"
     id="path174"
     inkscape:connector-curvature="0"
     style="fill:#cc79a7;stroke-width:0.0666667" />
  <path
     stroke="transparent"
     d="m 58.033317,177.66079 h 0.420467 l 0.173334,0.34 -5.79667,7.97867 -0.5504,-0.4 z"
     id="path176"
     inkscape:connector-curvature="0"
     style="fill:#cc79a7;stroke-width:0.0666667" />
  <g
     aria-label="PNP"
     transform="matrix(0.0666667,0,0,0.0666667,120.47,156.606)"
     style="font-style:normal;font-variant:normal;font-weight:normal;font-stretch:normal;font-size:160px;line-height:normal;font-family:Arial;fill:#cc79a7"
     id="text178">
    <path
       d="m 12.34375,0 v -114.53125 h 43.203125 q 11.40625,0 17.421875,1.09375 8.4375,1.40625 14.140625,5.39062 5.703125,3.90625 9.140625,11.01563 3.515625,7.109375 3.515625,15.625 0,14.609375 -9.296875,24.765625 Q 81.171875,-46.5625 56.875,-46.5625 H 27.5 V 0 Z M 27.5,-60.078125 h 29.609375 q 14.6875,0 20.859375,-5.46875 6.171875,-5.46875 6.171875,-15.390625 0,-7.1875 -3.671875,-12.265625 Q 76.875,-98.359375 70.9375,-100 q -3.828125,-1.01563 -14.140625,-1.01563 H 27.5 Z"
       style="font-style:normal;font-variant:normal;font-weight:normal;font-stretch:normal;font-size:160px;line-height:normal;font-family:Arial;fill:#cc79a7"
       id="path1190"
       inkscape:connector-curvature="0" />
    <path
       d="m 119.0625,0 v -114.53125 h 15.54687 l 60.15625,89.921875 v -89.921875 h 14.53125 V 0 H 193.75 L 133.59375,-90 V 0 Z"
       style="font-style:normal;font-variant:normal;font-weight:normal;font-stretch:normal;font-size:160px;line-height:normal;font-family:Arial;fill:#cc79a7"
       id="path1192"
       inkscape:connector-curvature="0" />
    <path
       d="m 234.84375,0 v -114.53125 h 43.20312 q 11.40625,0 17.42188,1.09375 8.4375,1.40625 14.14062,5.39062 5.70313,3.90625 9.14063,11.01563 3.51562,7.109375 3.51562,15.625 0,14.609375 -9.29687,24.765625 Q 303.67187,-46.5625 279.375,-46.5625 H 250 V 0 Z M 250,-60.078125 h 29.60937 q 14.6875,0 20.85938,-5.46875 6.17187,-5.46875 6.17187,-15.390625 0,-7.1875 -3.67187,-12.265625 -3.59375,-5.15625 -9.53125,-6.796875 -3.82813,-1.01563 -14.14063,-1.01563 H 250 Z"
       style="font-style:normal;font-variant:normal;font-weight:normal;font-stretch:normal;font-size:160px;line-height:normal;font-family:Arial;fill:#cc79a7"
       id="path1194"
       inkscape:connector-curvature="0" />
  </g>
  <path
     stroke="transparent"
     d="m 139.36929,155.45945 0.65733,-0.176 3.06201,11.428 -0.214,0.51667 -0.412,-0.224 z"
     id="path180"
     inkscape:connector-curvature="0"
     style="fill:#cc79a7;stroke-width:0.0666667" />
  <g
     aria-label="CO"
     transform="matrix(0.0666667,0,0,0.0666667,152.297,163.755)"
     style="font-style:normal;font-variant:normal;font-weight:normal;font-stretch:normal;font-size:160px;line-height:normal;font-family:Arial;fill:#cc79a7"
     id="text182">
    <path
       d="m 94.0625,-40.15625 15.15625,3.828125 Q 104.45313,-17.65625 92.03125,-7.8125 79.6875,1.953125 61.796875,1.953125 q -18.515625,0 -30.15625,-7.5 -11.5625,-7.578125 -17.65625,-21.875 Q 7.96875,-41.71875 7.96875,-58.125 q 0,-17.890625 6.796875,-31.171875 6.875,-13.359375 19.453125,-20.234375 12.65625,-6.95313 27.8125,-6.95313 17.1875,0 28.90625,8.75 11.71875,8.750005 16.32813,24.60938 l -14.92188,3.515625 q -3.984375,-12.5 -11.5625,-18.203125 -7.578125,-5.70313 -19.0625,-5.70313 -13.203125,0 -22.109375,6.32813 -8.828125,6.328125 -12.421875,17.03125 -3.59375,10.625 -3.59375,21.953125 0,14.609375 4.21875,25.546875 4.296875,10.859375 13.28125,16.25 8.984375,5.390625 19.453125,5.390625 12.734375,0 21.5625,-7.34375 8.828125,-7.34375 11.953125,-21.796875 z"
       style="font-style:normal;font-variant:normal;font-weight:normal;font-stretch:normal;font-size:160px;line-height:normal;font-family:Arial;fill:#cc79a7"
       id="path1197"
       inkscape:connector-curvature="0" />
    <path
       d="m 123.35938,-55.78125 q 0,-28.515625 15.31249,-44.60938 15.3125,-16.17187 39.53125,-16.17187 15.85938,0 28.59375,7.57812 12.73438,7.57813 19.375,21.17188 6.71875,13.515625 6.71875,30.703125 0,17.421875 -7.03125,31.171875 -7.03125,13.75 -19.92187,20.859375 -12.89063,7.03125 -27.8125,7.03125 -16.17188,0 -28.90625,-7.8125 -12.73438,-7.8125 -19.29688,-21.328125 -6.56249,-13.515625 -6.56249,-28.59375 z m 15.62499,0.234375 q 0,20.703125 11.09375,32.65625 11.17188,11.875 27.96875,11.875 17.10938,0 28.125,-12.03125 11.09375,-12.03125 11.09375,-34.140625 0,-13.984375 -4.76562,-24.375 -4.6875,-10.46875 -13.82813,-16.171875 -9.0625,-5.781255 -20.39062,-5.781255 -16.09375,0 -27.73438,11.093755 -11.5625,11.015625 -11.5625,36.875 z"
       style="font-style:normal;font-variant:normal;font-weight:normal;font-stretch:normal;font-size:160px;line-height:normal;font-family:Arial;fill:#cc79a7"
       id="path1199"
       inkscape:connector-curvature="0" />
  </g>
  <g
     aria-label="2"
     transform="matrix(0.0666667,0,0,0.0666667,168.327,166.022)"
     style="font-style:normal;font-variant:normal;font-weight:normal;font-stretch:normal;font-size:120px;line-height:normal;font-family:Arial;fill:#cc79a7"
     id="text184">
    <path
       d="M 60.410156,-10.136719 V 0 H 3.6328125 Q 3.515625,-3.8085938 4.8632812,-7.3242187 7.03125,-13.125 11.777344,-18.75 q 4.804687,-5.625 13.828125,-13.007812 14.003906,-11.484375 18.925781,-18.164063 4.921875,-6.738281 4.921875,-12.714844 0,-6.269531 -4.511719,-10.546875 -4.453125,-4.335937 -11.660156,-4.335937 -7.617188,0 -12.1875,4.570312 -4.570313,4.570313 -4.628906,12.65625 L 5.625,-61.40625 Q 6.7382812,-73.535156 14.003906,-79.863281 21.269531,-86.25 33.515625,-86.25 q 12.363281,0 19.570312,6.855469 7.207032,6.855469 7.207032,16.992187 0,5.15625 -2.109375,10.136719 -2.109375,4.980469 -7.03125,10.488281 -4.863282,5.507813 -16.230469,15.117188 -9.492188,7.96875 -12.1875,10.839843 -2.695313,2.8125 -4.453125,5.683594 z"
       style="font-style:normal;font-variant:normal;font-weight:normal;font-stretch:normal;font-size:120px;line-height:normal;font-family:Arial;fill:#cc79a7"
       id="path1202"
       inkscape:connector-curvature="0" />
  </g>
  <g
     aria-label="Me"
     transform="matrix(0.0666667,0,0,0.0666667,172.777,163.755)"
     style="font-style:normal;font-variant:normal;font-weight:normal;font-stretch:normal;font-size:160px;line-height:normal;font-family:Arial;fill:#cc79a7"
     id="text186">
    <path
       d="m 11.875,0 v -114.53125 h 22.8125 l 27.109375,81.09375 q 3.75,11.328125 5.46875,16.953125 1.953125,-6.25 6.09375,-18.359375 l 27.421875,-79.6875 h 20.39063 V 0 H 106.5625 V -95.859375 L 73.28125,0 H 59.609375 l -33.125,-97.5 V 0 Z"
       style="font-style:normal;font-variant:normal;font-weight:normal;font-stretch:normal;font-size:160px;line-height:normal;font-family:Arial;fill:#cc79a7"
       id="path1205"
       inkscape:connector-curvature="0" />
    <path
       d="m 200.78125,-26.71875 14.53125,1.796875 q -3.4375,12.734375 -12.73438,19.765625 -9.29687,7.03125 -23.75,7.03125 -18.20312,0 -28.90625,-11.171875 -10.625,-11.25 -10.625,-31.484375 0,-20.9375 10.78125,-32.5 10.78125,-11.5625 27.96875,-11.5625 16.64063,0 27.1875,11.328125 10.54688,11.328125 10.54688,31.875 0,1.25 -0.0781,3.75 h -61.875 q 0.78125,13.671875 7.73438,20.9375 6.95312,7.265625 17.34375,7.265625 7.73437,0 13.20312,-4.0625 5.46875,-4.0625 8.67188,-12.96875 z M 154.60937,-49.453125 H 200.9375 Q 200,-59.921875 195.625,-65.15625 q -6.71875,-8.125 -17.42188,-8.125 -9.6875,0 -16.32812,6.484375 -6.5625,6.484375 -7.26563,17.34375 z"
       style="font-style:normal;font-variant:normal;font-weight:normal;font-stretch:normal;font-size:160px;line-height:normal;font-family:Arial;fill:#cc79a7"
       id="path1207"
       inkscape:connector-curvature="0" />
  </g>
  <path
     stroke="transparent"
     d="m 151.23196,162.01012 0.34,0.58933 -8.2,4.734 -0.49733,-0.10533 0.214,-0.51667 z"
     id="path188"
     inkscape:connector-curvature="0"
     style="fill:#cc79a7;stroke-width:0.0666667" />
  <g
     aria-label="H"
     transform="matrix(0.0666667,0,0,0.0666667,161.271,176.106)"
     style="font-style:normal;font-variant:normal;font-weight:normal;font-stretch:normal;font-size:160px;line-height:normal;font-family:Arial;fill:#009e73"
     id="text190">
    <path
       d="M 12.8125,0 V -114.53125 H 27.96875 V -67.5 H 87.5 v -47.03125 h 15.15625 V 0 H 87.5 V -53.984375 H 27.96875 V 0 Z"
       style="font-style:normal;font-variant:normal;font-weight:normal;font-stretch:normal;font-size:160px;line-height:normal;font-family:Arial;fill:#009e73"
       id="path1210"
       inkscape:connector-curvature="0" />
  </g>
  <path
     stroke="transparent"
     d="m 159.4553,174.79412 0.34,0.58934 -7.11534,4.108 -0.832,0.0873 0.0953,-0.44733 z"
     id="path192"
     inkscape:connector-curvature="0"
     style="fill:#009e73;stroke-width:0.0666667" />
  <g
     aria-label="H"
     transform="matrix(0.0666667,0,0,0.0666667,62.2595,168.571)"
     style="font-style:normal;font-variant:normal;font-weight:normal;font-stretch:normal;font-size:160px;line-height:normal;font-family:Arial;fill:#009e73"
     id="text194">
    <path
       d="M 12.8125,0 V -114.53125 H 27.96875 V -67.5 H 87.5 v -47.03125 h 15.15625 V 0 H 87.5 V -53.984375 H 27.96875 V 0 Z"
       style="font-style:normal;font-variant:normal;font-weight:normal;font-stretch:normal;font-size:160px;line-height:normal;font-family:Arial;fill:#009e73"
       id="path1213"
       inkscape:connector-curvature="0" />
  </g>
  <path
     stroke="transparent"
     d="m 69.250323,170.46279 0.589134,-0.34 3.959135,6.85733 v 0.68067 l -0.589334,-0.34 z"
     id="path196"
     inkscape:connector-curvature="0"
     style="fill:#009e73;stroke-width:0.0666667" />
  <g
     aria-label="MeO"
     transform="matrix(0.0666667,0,0,0.0666667,3.44389,198.552)"
     style="font-style:normal;font-variant:normal;font-weight:normal;font-stretch:normal;font-size:160px;line-height:normal;font-family:Arial;fill:#cc79a7"
     id="text198">
    <path
       d="m 11.875,0 v -114.53125 h 22.8125 l 27.109375,81.09375 q 3.75,11.328125 5.46875,16.953125 1.953125,-6.25 6.09375,-18.359375 l 27.421875,-79.6875 h 20.39063 V 0 H 106.5625 V -95.859375 L 73.28125,0 H 59.609375 l -33.125,-97.5 V 0 Z"
       style="font-style:normal;font-variant:normal;font-weight:normal;font-stretch:normal;font-size:160px;line-height:normal;font-family:Arial;fill:#cc79a7"
       id="path1216"
       inkscape:connector-curvature="0" />
    <path
       d="m 200.78125,-26.71875 14.53125,1.796875 q -3.4375,12.734375 -12.73438,19.765625 -9.29687,7.03125 -23.75,7.03125 -18.20312,0 -28.90625,-11.171875 -10.625,-11.25 -10.625,-31.484375 0,-20.9375 10.78125,-32.5 10.78125,-11.5625 27.96875,-11.5625 16.64063,0 27.1875,11.328125 10.54688,11.328125 10.54688,31.875 0,1.25 -0.0781,3.75 h -61.875 q 0.78125,13.671875 7.73438,20.9375 6.95312,7.265625 17.34375,7.265625 7.73437,0 13.20312,-4.0625 5.46875,-4.0625 8.67188,-12.96875 z M 154.60937,-49.453125 H 200.9375 Q 200,-59.921875 195.625,-65.15625 q -6.71875,-8.125 -17.42188,-8.125 -9.6875,0 -16.32812,6.484375 -6.5625,6.484375 -7.26563,17.34375 z"
       style="font-style:normal;font-variant:normal;font-weight:normal;font-stretch:normal;font-size:160px;line-height:normal;font-family:Arial;fill:#cc79a7"
       id="path1218"
       inkscape:connector-curvature="0" />
    <path
       d="m 230.23437,-55.78125 q 0,-28.515625 15.3125,-44.60938 15.3125,-16.17187 39.53125,-16.17187 15.85938,0 28.59375,7.57812 12.73438,7.57813 19.375,21.17188 6.71875,13.515625 6.71875,30.703125 0,17.421875 -7.03125,31.171875 -7.03125,13.75 -19.92187,20.859375 -12.89063,7.03125 -27.8125,7.03125 -16.17188,0 -28.90625,-7.8125 -12.73438,-7.8125 -19.29688,-21.328125 -6.5625,-13.515625 -6.5625,-28.59375 z m 15.625,0.234375 q 0,20.703125 11.09375,32.65625 11.17188,11.875 27.96875,11.875 17.10938,0 28.125,-12.03125 11.09375,-12.03125 11.09375,-34.140625 0,-13.984375 -4.76562,-24.375 -4.6875,-10.46875 -13.82813,-16.171875 -9.0625,-5.781255 -20.39062,-5.781255 -16.09375,0 -27.73438,11.093755 -11.5625,11.015625 -11.5625,36.875 z"
       style="font-style:normal;font-variant:normal;font-weight:normal;font-stretch:normal;font-size:160px;line-height:normal;font-family:Arial;fill:#cc79a7"
       id="path1220"
       inkscape:connector-curvature="0" />
  </g>
  <path
     stroke="transparent"
     d="m 26.921502,191.5068 -0.399867,-0.55 7.978671,-5.79734 0.340133,0.17334 0.05973,0.37733 z"
     id="path200"
     inkscape:connector-curvature="0"
     style="fill:#cc79a7;stroke-width:0.0666667" />
  <g
     aria-label="PNP"
     transform="matrix(0.0666667,0,0,0.0666667,3.99284,165.169)"
     style="font-style:normal;font-variant:normal;font-weight:normal;font-stretch:normal;font-size:160px;line-height:normal;font-family:Arial;fill:#cc79a7"
     id="text202">
    <path
       d="m 12.34375,0 v -114.53125 h 43.203125 q 11.40625,0 17.421875,1.09375 8.4375,1.40625 14.140625,5.39062 5.703125,3.90625 9.140625,11.01563 3.515625,7.109375 3.515625,15.625 0,14.609375 -9.296875,24.765625 Q 81.171875,-46.5625 56.875,-46.5625 H 27.5 V 0 Z M 27.5,-60.078125 h 29.609375 q 14.6875,0 20.859375,-5.46875 6.171875,-5.46875 6.171875,-15.390625 0,-7.1875 -3.671875,-12.265625 Q 76.875,-98.359375 70.9375,-100 q -3.828125,-1.01563 -14.140625,-1.01563 H 27.5 Z"
       style="font-style:normal;font-variant:normal;font-weight:normal;font-stretch:normal;font-size:160px;line-height:normal;font-family:Arial;fill:#cc79a7"
       id="path1223"
       inkscape:connector-curvature="0" />
    <path
       d="m 119.0625,0 v -114.53125 h 15.54687 l 60.15625,89.921875 v -89.921875 h 14.53125 V 0 H 193.75 L 133.59375,-90 V 0 Z"
       style="font-style:normal;font-variant:normal;font-weight:normal;font-stretch:normal;font-size:160px;line-height:normal;font-family:Arial;fill:#cc79a7"
       id="path1225"
       inkscape:connector-curvature="0" />
    <path
       d="m 234.84375,0 v -114.53125 h 43.20312 q 11.40625,0 17.42188,1.09375 8.4375,1.40625 14.14062,5.39062 5.70313,3.90625 9.14063,11.01563 3.51562,7.109375 3.51562,15.625 0,14.609375 -9.29687,24.765625 Q 303.67187,-46.5625 279.375,-46.5625 H 250 V 0 Z M 250,-60.078125 h 29.60937 q 14.6875,0 20.85938,-5.46875 6.17187,-5.46875 6.17187,-15.390625 0,-7.1875 -3.67187,-12.265625 -3.59375,-5.15625 -9.53125,-6.796875 -3.82813,-1.01563 -14.14063,-1.01563 H 250 Z"
       style="font-style:normal;font-variant:normal;font-weight:normal;font-stretch:normal;font-size:160px;line-height:normal;font-family:Arial;fill:#cc79a7"
       id="path1227"
       inkscape:connector-curvature="0" />
  </g>
  <path
     stroke="transparent"
     d="m 25.435234,163.57545 0.399867,-0.55067 9.065071,6.58601 -0.05973,0.37733 -0.340133,0.17333 z"
     id="path204"
     inkscape:connector-curvature="0"
     style="fill:#cc79a7;stroke-width:0.0666667" />
  <text
     xml:space="preserve"
     style="font-style:normal;font-weight:normal;font-size:10.66666698px;line-height:1.25;font-family:sans-serif;letter-spacing:0px;word-spacing:0px;fill:#000000;fill-opacity:1;stroke:none"
     x="42.581909"
     y="53.642872"
     id="text1214"><tspan
       sodipodi:role="line"
       id="tspan1212"
       x="42.581909"
       y="53.642872">\cmpd{w:amide-sec} lub \cmpd{w:amide-tert}</tspan></text>
  <text
     xml:space="preserve"
     style="font-style:normal;font-weight:normal;font-size:10.66666698px;line-height:1.25;font-family:sans-serif;letter-spacing:0px;word-spacing:0px;fill:#000000;fill-opacity:1;stroke:none"
     x="171.04436"
     y="66.784256"
     id="text1214-3"><tspan
       sodipodi:role="line"
       id="tspan1212-3"
       x="171.04436"
       y="66.784256">\cmpd{5-lactam}</tspan></text>
  <text
     xml:space="preserve"
     style="font-style:normal;font-weight:normal;font-size:10.66666698px;line-height:1.25;font-family:sans-serif;letter-spacing:0px;word-spacing:0px;fill:#000000;fill-opacity:1;stroke:none"
     x="6.2138486"
     y="217.19102"
     id="text1214-7"><tspan
       sodipodi:role="line"
       id="tspan1212-35"
       x="6.2138486"
       y="217.19102">\cmpd{ncac-amide}</tspan></text>
  <text
     xml:space="preserve"
     style="font-style:normal;font-weight:normal;font-size:10.66666698px;line-height:1.25;font-family:sans-serif;letter-spacing:0px;word-spacing:0px;fill:#000000;fill-opacity:1;stroke:none"
     x="171.04436"
     y="217.19102"
     id="text1214-3-4"><tspan
       sodipodi:role="line"
       id="tspan1212-3-3"
       x="171.04436"
       y="217.19102">\cmpd{ncac-lactam}</tspan></text>
  <text
     xml:space="preserve"
     style="font-style:normal;font-weight:normal;font-size:10.66666698px;line-height:1.25;font-family:sans-serif;letter-spacing:0px;word-spacing:0px;fill:#000000;fill-opacity:1;stroke:none"
     x="89.46611"
     y="134.57628"
     id="text1252"><tspan
       sodipodi:role="line"
       id="tspan1250"
       x="89.46611"
       y="134.57628">\cmpd{isocyanoacetate}</tspan></text>
</svg>
