<?xml version="1.0" encoding="UTF-8" standalone="no"?>
<svg
   xmlns:dc="http://purl.org/dc/elements/1.1/"
   xmlns:cc="http://creativecommons.org/ns#"
   xmlns:rdf="http://www.w3.org/1999/02/22-rdf-syntax-ns#"
   xmlns:svg="http://www.w3.org/2000/svg"
   xmlns="http://www.w3.org/2000/svg"
   xmlns:sodipodi="http://sodipodi.sourceforge.net/DTD/sodipodi-0.dtd"
   xmlns:inkscape="http://www.inkscape.org/namespaces/inkscape"
   width="188px"
   height="125px"
   viewBox="0 0 188 125"
   version="1.1"
   id="svg154"
   sodipodi:docname="pyridinium-nu.svg"
   inkscape:version="0.92.4 (5da689c313, 2019-01-14)">
  <metadata
     id="metadata160">
    <rdf:RDF>
      <cc:Work
         rdf:about="">
        <dc:format>image/svg+xml</dc:format>
        <dc:type
           rdf:resource="http://purl.org/dc/dcmitype/StillImage" />
      </cc:Work>
    </rdf:RDF>
  </metadata>
  <defs
     id="defs158" />
  <sodipodi:namedview
     pagecolor="#ffffff"
     bordercolor="#666666"
     borderopacity="1"
     objecttolerance="10"
     gridtolerance="10"
     guidetolerance="10"
     inkscape:pageopacity="0"
     inkscape:pageshadow="2"
     inkscape:window-width="1920"
     inkscape:window-height="1017"
     id="namedview156"
     showgrid="false"
     inkscape:zoom="3.6489362"
     inkscape:cx="153.32688"
     inkscape:cy="38.07924"
     inkscape:window-x="-8"
     inkscape:window-y="-8"
     inkscape:window-maximized="1"
     inkscape:current-layer="svg154" />
  <g
     aria-label="R"
     transform="matrix(0.0666667 0 0 0.0666667 2.67123 69.352)"
     style="font-style:normal;font-variant:normal;font-weight:normal;font-stretch:normal;font-size:160px;line-height:normal;font-family:Arial;fill:#000000"
     id="text2">
    <path
       d="m 12.578125,0 v -114.53125 h 50.78125 q 15.3125,0 23.28125,3.125 7.96875,3.04687 12.734375,10.85937 4.76563,7.812505 4.76563,17.26563 0,12.1875 -7.89063,20.546875 -7.890625,8.359375 -24.375,10.625 6.015625,2.890625 9.140625,5.703125 6.640625,6.09375 12.578125,15.234375 L 113.51563,0 H 94.453125 l -15.15625,-23.828125 q -6.640625,-10.3125 -10.9375,-15.78125 -4.296875,-5.46875 -7.734375,-7.65625 -3.359375,-2.1875 -6.875,-3.046875 -2.578125,-0.546875 -8.4375,-0.546875 H 27.734375 V 0 Z m 15.15625,-63.984375 H 60.3125 q 10.390625,0 16.25,-2.109375 5.859375,-2.1875 8.90625,-6.875 3.046875,-4.765625 3.046875,-10.3125 0,-8.125 -5.9375,-13.359375 Q 76.71875,-101.875 63.984375,-101.875 h -36.25 z"
       style="font-style:normal;font-variant:normal;font-weight:normal;font-stretch:normal;font-size:160px;line-height:normal;font-family:Arial;fill:#000000"
       id="path967" />
  </g>
  <g
     aria-label="1"
     transform="matrix(0.0666667 0 0 0.0666667 10.4046 65.152)"
     style="font-style:normal;font-variant:normal;font-weight:normal;font-stretch:normal;font-size:120px;line-height:normal;font-family:Arial;fill:#000000"
     id="text4">
    <path
       d="M 44.707031,0 H 34.160156 v -67.207031 q -3.808594,3.632812 -10.019531,7.265625 -6.152344,3.632812 -11.074219,5.449219 V -64.6875 q 8.847656,-4.160156 15.46875,-10.078125 6.621094,-5.917969 9.375,-11.484375 h 6.796875 z"
       style="font-style:normal;font-variant:normal;font-weight:normal;font-stretch:normal;font-size:120px;line-height:normal;font-family:Arial;fill:#000000"
       id="path970" />
  </g>
  <path
     stroke="transparent"
     d="M 299.644,1045.25 L 304.746,1048.19 L 304.746,1054.08 L 243.495,1089.45 L 238.393,1080.61 L 299.644,1045.25 Z "
     id="path6"
     transform="matrix(0.0666667 0 0 0.0666667 -0.489448 -12.4)"
     fill="#000000" />
  <g
     aria-label="N"
     transform="matrix(0.0666667 0 0 0.0666667 29.2493 69.352)"
     style="font-style:normal;font-variant:normal;font-weight:normal;font-stretch:normal;font-size:160px;line-height:normal;font-family:Arial;fill:#000000"
     id="text8">
    <path
       d="m 12.1875,0 v -114.53125 h 15.546875 l 60.15625,89.921875 V -114.53125 H 102.42188 V 0 H 86.875 L 26.71875,-90 V 0 Z"
       style="font-style:normal;font-variant:normal;font-weight:normal;font-stretch:normal;font-size:160px;line-height:normal;font-family:Arial;fill:#000000"
       id="path973" />
  </g>
  <path
     stroke="transparent"
     d="M 428.715,1113.88 L 423.613,1122.71 L 304.746,1054.08 L 304.746,1048.19 L 309.848,1045.25 L 428.715,1113.88 Z "
     id="path10"
     transform="matrix(0.0666667 0 0 0.0666667 -0.489448 -12.4)"
     fill="#000000" />
  <path
     stroke="transparent"
     d="M 449.431,1078 L 444.329,1086.83 L 343.626,1028.69 L 348.728,1019.85 L 449.431,1078 Z "
     id="path12"
     transform="matrix(0.0666667 0 0 0.0666667 -0.489448 -12.4)"
     fill="#000000" />
  <g
     aria-label="N"
     transform="matrix(0.0666667 0 0 0.0666667 15.9603 46.3347)"
     style="font-style:normal;font-variant:normal;font-weight:normal;font-stretch:normal;font-size:160px;line-height:normal;font-family:Arial;fill:#000000"
     id="text14">
    <path
       d="m 12.1875,0 v -114.53125 h 15.546875 l 60.15625,89.921875 V -114.53125 H 102.42188 V 0 H 86.875 L 26.71875,-90 V 0 Z"
       style="font-style:normal;font-variant:normal;font-weight:normal;font-stretch:normal;font-size:160px;line-height:normal;font-family:Arial;fill:#000000"
       id="path976" />
  </g>
  <path
     stroke="transparent"
     d="M 299.644,907.02 L 309.848,907.02 L 309.848,1045.25 L 304.746,1048.19 L 299.644,1045.25 L 299.644,907.02 Z "
     id="path16"
     transform="matrix(0.0666667 0 0 0.0666667 -0.489448 -12.4)"
     fill="#000000" />
  <g
     aria-label="R"
     transform="matrix(0.0666667 0 0 0.0666667 42.5384 61.6796)"
     style="font-style:normal;font-variant:normal;font-weight:normal;font-stretch:normal;font-size:160px;line-height:normal;font-family:Arial;fill:#000000"
     id="text18">
    <path
       d="m 12.578125,0 v -114.53125 h 50.78125 q 15.3125,0 23.28125,3.125 7.96875,3.04687 12.734375,10.85937 4.76563,7.812505 4.76563,17.26563 0,12.1875 -7.89063,20.546875 -7.890625,8.359375 -24.375,10.625 6.015625,2.890625 9.140625,5.703125 6.640625,6.09375 12.578125,15.234375 L 113.51563,0 H 94.453125 l -15.15625,-23.828125 q -6.640625,-10.3125 -10.9375,-15.78125 -4.296875,-5.46875 -7.734375,-7.65625 -3.359375,-2.1875 -6.875,-3.046875 -2.578125,-0.546875 -8.4375,-0.546875 H 27.734375 V 0 Z m 15.15625,-63.984375 H 60.3125 q 10.390625,0 16.25,-2.109375 5.859375,-2.1875 8.90625,-6.875 3.046875,-4.765625 3.046875,-10.3125 0,-8.125 -5.9375,-13.359375 Q 76.71875,-101.875 63.984375,-101.875 h -36.25 z"
       style="font-style:normal;font-variant:normal;font-weight:normal;font-stretch:normal;font-size:160px;line-height:normal;font-family:Arial;fill:#000000"
       id="path979" />
  </g>
  <g
     aria-label="2"
     transform="matrix(0.0666667 0 0 0.0666667 50.2717 57.4796)"
     style="font-style:normal;font-variant:normal;font-weight:normal;font-stretch:normal;font-size:120px;line-height:normal;font-family:Arial;fill:#000000"
     id="text20">
    <path
       d="M 60.410156,-10.136719 V 0 H 3.6328125 Q 3.515625,-3.8085938 4.8632812,-7.3242187 7.03125,-13.125 11.777344,-18.75 q 4.804687,-5.625 13.828125,-13.007812 14.003906,-11.484375 18.925781,-18.164063 4.921875,-6.738281 4.921875,-12.714844 0,-6.269531 -4.511719,-10.546875 -4.453125,-4.335937 -11.660156,-4.335937 -7.617188,0 -12.1875,4.570312 -4.570313,4.570313 -4.628906,12.65625 L 5.625,-61.40625 Q 6.7382812,-73.535156 14.003906,-79.863281 21.269531,-86.25 33.515625,-86.25 q 12.363281,0 19.570312,6.855469 7.207032,6.855469 7.207032,16.992187 0,5.15625 -2.109375,10.136719 -2.109375,4.980469 -7.03125,10.488281 -4.863282,5.507813 -16.230469,15.117188 -9.492188,7.96875 -12.1875,10.839843 -2.695313,2.8125 -4.453125,5.683594 z"
       style="font-style:normal;font-variant:normal;font-weight:normal;font-stretch:normal;font-size:120px;line-height:normal;font-family:Arial;fill:#000000"
       id="path982" />
  </g>
  <path
     stroke="transparent"
     d="M 617.897,1091.68 L 622.999,1100.51 L 583.8,1123.15 L 578.697,1114.31 L 617.897,1091.68 Z "
     id="path22"
     transform="matrix(0.0666667 0 0 0.0666667 -0.489448 -12.4)"
     fill="#000000" />
  <path
     fill="transparent"
     d="M 412.916,863.908 A 57.0818,57.0818 0 1 0 527.08,863.908A 57.0818,57.0818 0 1 0 412.916,863.908Z "
     id="path24"
     transform="matrix(0.0666667 0 0 0.0666667 -0.489448 -12.4)"
     stroke-width="8"
     stroke="#000000"
     style="fill:none" />
  <path
     stroke="transparent"
     d="M 438.563,860.242 L 502.1,860.242 L 502.1,868.242 L 438.563,868.242 Z "
     id="path26"
     transform="matrix(0.0666667 0 0 0.0666667 -0.489448 -12.4)"
     fill="#000000" />
  <path
     stroke="transparent"
     d="M 474.331,832.473 L 474.331,896.011 L 466.331,896.011 L 466.331,832.473 Z "
     id="path28"
     transform="matrix(0.0666667 0 0 0.0666667 -0.489448 -12.4)"
     fill="#000000" />
  <g
     aria-label="OTf"
     transform="matrix(0.0666667 0 0 0.0666667 48.0899 41.5556)"
     style="font-style:normal;font-variant:normal;font-weight:normal;font-stretch:normal;font-size:160px;line-height:normal;font-family:Arial;fill:#000000"
     id="text30">
    <path
       d="m 7.734375,-55.78125 q 0,-28.515625 15.3125,-44.60938 15.3125,-16.17187 39.53125,-16.17187 15.859375,0 28.59375,7.57812 12.734375,7.57813 19.375005,21.17188 6.71875,13.515625 6.71875,30.703125 0,17.421875 -7.03125,31.171875 -7.03125,13.75 -19.92188,20.859375 -12.890625,7.03125 -27.8125,7.03125 -16.171875,0 -28.90625,-7.8125 -12.734375,-7.8125 -19.296875,-21.328125 -6.5625,-13.515625 -6.5625,-28.59375 z m 15.625,0.234375 q 0,20.703125 11.09375,32.65625 11.171875,11.875 27.96875,11.875 17.109375,0 28.125,-12.03125 11.093755,-12.03125 11.093755,-34.140625 0,-13.984375 -4.76563,-24.375 -4.6875,-10.46875 -13.828125,-16.171875 -9.0625,-5.781255 -20.390625,-5.781255 -16.09375,0 -27.734375,11.093755 -11.5625,11.015625 -11.5625,36.875 z"
       style="font-style:normal;font-variant:normal;font-weight:normal;font-stretch:normal;font-size:160px;line-height:normal;font-family:Arial;fill:#000000"
       id="path985" />
    <path
       d="M 165.85937,0 V -101.01563 H 128.125 v -13.51562 h 90.78125 v 13.51562 H 181.01562 V 0 Z"
       style="font-style:normal;font-variant:normal;font-weight:normal;font-stretch:normal;font-size:160px;line-height:normal;font-family:Arial;fill:#000000"
       id="path987" />
    <path
       d="m 236.09375,0 v -72.03125 h -12.42188 v -10.9375 h 12.42188 v -8.828125 q 0,-8.359375 1.48437,-12.421875 2.03125,-5.46875 7.10938,-8.82813 5.15625,-3.4375 14.375,-3.4375 5.9375,0 13.125,1.40625 l -2.10938,12.26563 q -4.375,-0.78125 -8.28125,-0.78125 -6.40625,0 -9.0625,2.73437 -2.65625,2.73438 -2.65625,10.23438 v 7.65625 H 266.25 v 10.9375 H 250.07812 V 0 Z"
       style="font-style:normal;font-variant:normal;font-weight:normal;font-stretch:normal;font-size:160px;line-height:normal;font-family:Arial;fill:#000000"
       id="path989" />
  </g>
  <path
     fill="transparent"
     d="M 618.214,633.501 A 57.0818,57.0818 0 1 0 732.377,633.501A 57.0818,57.0818 0 1 0 618.214,633.501Z "
     id="path32"
     transform="matrix(0.0666667 0 0 0.0666667 -0.489448 -12.4)"
     stroke-width="8"
     stroke="#000000"
     style="fill:none" />
  <path
     stroke="transparent"
     d="M 643.86,629.835 L 707.398,629.835 L 707.398,637.835 L 643.86,637.835 Z "
     id="path34"
     transform="matrix(0.0666667 0 0 0.0666667 -0.489448 -12.4)"
     fill="#000000" />
  <path
     stroke="transparent"
     d="M 498.979,699.988 L 509.184,705.879 L 384.464,777.886 L 379.362,769.049 L 498.979,699.988 Z "
     id="path36"
     transform="matrix(0.0666667 0 0 0.0666667 -0.489448 -12.4)"
     fill="#000000" />
  <path
     stroke="transparent"
     d="M 460.099,674.595 L 465.201,683.432 L 363.748,742.006 L 358.646,733.169 L 460.099,674.595 Z "
     id="path38"
     transform="matrix(0.0666667 0 0 0.0666667 -0.489448 -12.4)"
     fill="#000000" />
  <path
     stroke="transparent"
     d="M 498.979,475.706 L 509.184,469.815 L 509.184,705.879 L 498.979,699.988 L 498.979,475.706 Z "
     id="path40"
     transform="matrix(0.0666667 0 0 0.0666667 -0.489448 -12.4)"
     fill="#000000" />
  <path
     stroke="transparent"
     d="M 304.746,363.566 L 304.746,351.783 L 509.184,469.815 L 498.979,475.706 L 304.746,363.566 Z "
     id="path42"
     transform="matrix(0.0666667 0 0 0.0666667 -0.489448 -12.4)"
     fill="#000000" />
  <path
     stroke="transparent"
     d="M 302.195,409.933 L 307.297,401.096 L 465.201,492.262 L 460.099,501.1 L 302.195,409.933 Z "
     id="path44"
     transform="matrix(0.0666667 0 0 0.0666667 -0.489448 -12.4)"
     fill="#000000" />
  <path
     stroke="transparent"
     d="M 110.512,475.706 L 100.308,469.815 L 304.746,351.783 L 304.746,363.566 L 110.512,475.706 Z "
     id="path46"
     transform="matrix(0.0666667 0 0 0.0666667 -0.489448 -12.4)"
     fill="#000000" />
  <path
     stroke="transparent"
     d="M 110.512,699.988 L 100.308,705.879 L 100.308,469.815 L 110.512,475.706 L 110.512,699.988 Z "
     id="path48"
     transform="matrix(0.0666667 0 0 0.0666667 -0.489448 -12.4)"
     fill="#000000" />
  <path
     stroke="transparent"
     d="M 151.943,679.013 L 141.739,679.013 L 141.739,496.681 L 151.943,496.681 L 151.943,679.013 Z "
     id="path50"
     transform="matrix(0.0666667 0 0 0.0666667 -0.489448 -12.4)"
     fill="#000000" />
  <path
     stroke="transparent"
     d="M 229.38,768.616 L 224.278,777.454 L 100.308,705.879 L 110.512,699.988 L 229.38,768.616 Z "
     id="path52"
     transform="matrix(0.0666667 0 0 0.0666667 -0.489448 -12.4)"
     fill="#000000" />
  <g
     aria-label="R"
     transform="matrix(0.0666667 0 0 0.0666667 132.671 55.9131)"
     style="font-style:normal;font-variant:normal;font-weight:normal;font-stretch:normal;font-size:160px;line-height:normal;font-family:Arial;fill:#000000"
     id="text54">
    <path
       d="m 12.578125,0 v -114.53125 h 50.78125 q 15.3125,0 23.28125,3.125 7.96875,3.04687 12.734375,10.85937 4.76563,7.812505 4.76563,17.26563 0,12.1875 -7.89063,20.546875 -7.890625,8.359375 -24.375,10.625 6.015625,2.890625 9.140625,5.703125 6.640625,6.09375 12.578125,15.234375 L 113.51563,0 H 94.453125 l -15.15625,-23.828125 q -6.640625,-10.3125 -10.9375,-15.78125 -4.296875,-5.46875 -7.734375,-7.65625 -3.359375,-2.1875 -6.875,-3.046875 -2.578125,-0.546875 -8.4375,-0.546875 H 27.734375 V 0 Z m 15.15625,-63.984375 H 60.3125 q 10.390625,0 16.25,-2.109375 5.859375,-2.1875 8.90625,-6.875 3.046875,-4.765625 3.046875,-10.3125 0,-8.125 -5.9375,-13.359375 Q 76.71875,-101.875 63.984375,-101.875 h -36.25 z"
       style="font-style:normal;font-variant:normal;font-weight:normal;font-stretch:normal;font-size:160px;line-height:normal;font-family:Arial;fill:#000000"
       id="path992" />
  </g>
  <g
     aria-label="1"
     transform="matrix(0.0666667 0 0 0.0666667 140.405 51.7131)"
     style="font-style:normal;font-variant:normal;font-weight:normal;font-stretch:normal;font-size:120px;line-height:normal;font-family:Arial;fill:#000000"
     id="text56">
    <path
       d="M 44.707031,0 H 34.160156 v -67.207031 q -3.808594,3.632812 -10.019531,7.265625 -6.152344,3.632812 -11.074219,5.449219 V -64.6875 q 8.847656,-4.160156 15.46875,-10.078125 6.621094,-5.917969 9.375,-11.484375 h 6.796875 z"
       style="font-style:normal;font-variant:normal;font-weight:normal;font-stretch:normal;font-size:120px;line-height:normal;font-family:Arial;fill:#000000"
       id="path995" />
  </g>
  <path
     stroke="transparent"
     d="M 2254.75,840.718 L 2254.75,852.502 L 2193.5,887.865 L 2188.39,879.027 L 2254.75,840.718 Z "
     id="path58"
     transform="matrix(0.0666667 0 0 0.0666667 -0.489448 -12.4)"
     fill="#000000" />
  <g
     aria-label="N"
     transform="matrix(0.0666667 0 0 0.0666667 159.249 55.9131)"
     style="font-style:normal;font-variant:normal;font-weight:normal;font-stretch:normal;font-size:160px;line-height:normal;font-family:Arial;fill:#000000"
     id="text60">
    <path
       d="m 12.1875,0 v -114.53125 h 15.546875 l 60.15625,89.921875 V -114.53125 H 102.42188 V 0 H 86.875 L 26.71875,-90 V 0 Z"
       style="font-style:normal;font-variant:normal;font-weight:normal;font-stretch:normal;font-size:160px;line-height:normal;font-family:Arial;fill:#000000"
       id="path998" />
  </g>
  <g
     aria-label="H"
     transform="matrix(0.0666667 0 0 0.0666667 159.249 66.5798)"
     style="font-style:normal;font-variant:normal;font-weight:normal;font-stretch:normal;font-size:160px;line-height:normal;font-family:Arial;fill:#000000"
     id="text62">
    <path
       d="M 12.8125,0 V -114.53125 H 27.96875 V -67.5 H 87.5 v -47.03125 h 15.15625 V 0 H 87.5 V -53.984375 H 27.96875 V 0 Z"
       style="font-style:normal;font-variant:normal;font-weight:normal;font-stretch:normal;font-size:160px;line-height:normal;font-family:Arial;fill:#000000"
       id="path1001" />
  </g>
  <path
     stroke="transparent"
     d="M 2378.72,912.292 L 2373.61,921.13 L 2254.75,852.502 L 2254.75,840.718 L 2378.72,912.292 Z "
     id="path64"
     transform="matrix(0.0666667 0 0 0.0666667 -0.489448 -12.4)"
     fill="#000000" />
  <g
     aria-label="NR"
     transform="matrix(0.0666667 0 0 0.0666667 145.96 32.8958)"
     style="font-style:normal;font-variant:normal;font-weight:normal;font-stretch:normal;font-size:160px;line-height:normal;font-family:Arial;fill:#009e73"
     id="text66">
    <path
       d="m 12.1875,0 v -114.53125 h 15.546875 l 60.15625,89.921875 V -114.53125 H 102.42188 V 0 H 86.875 L 26.71875,-90 V 0 Z"
       style="font-style:normal;font-variant:normal;font-weight:normal;font-stretch:normal;font-size:160px;line-height:normal;font-family:Arial;fill:#009e73"
       id="path1004" />
    <path
       d="m 128.20312,0 v -114.53125 h 50.78125 q 15.3125,0 23.28125,3.125 7.96875,3.04687 12.73438,10.85937 4.76562,7.812505 4.76562,17.26563 0,12.1875 -7.89062,20.546875 -7.89063,8.359375 -24.375,10.625 6.01562,2.890625 9.14062,5.703125 6.64063,6.09375 12.57813,15.234375 L 229.14062,0 h -19.0625 l -15.15625,-23.828125 q -6.64062,-10.3125 -10.9375,-15.78125 -4.29687,-5.46875 -7.73437,-7.65625 -3.35938,-2.1875 -6.875,-3.046875 -2.57813,-0.546875 -8.4375,-0.546875 H 143.35937 V 0 Z m 15.15625,-63.984375 h 32.57813 q 10.39062,0 16.25,-2.109375 5.85937,-2.1875 8.90625,-6.875 3.04687,-4.765625 3.04687,-10.3125 0,-8.125 -5.9375,-13.359375 -5.85937,-5.234375 -18.59375,-5.234375 h -36.25 z"
       style="font-style:normal;font-variant:normal;font-weight:normal;font-stretch:normal;font-size:160px;line-height:normal;font-family:Arial;fill:#009e73"
       id="path1006" />
  </g>
  <g
     aria-label="3"
     transform="matrix(0.0666667 0 0 0.0666667 161.427 28.6958)"
     style="font-style:normal;font-variant:normal;font-weight:normal;font-stretch:normal;font-size:120px;line-height:normal;font-family:Arial;fill:#009e73"
     id="text68">
    <path
       d="m 5.0390625,-22.675781 10.5468755,-1.40625 q 1.816406,8.964843 6.152343,12.949218 4.394531,3.9257818 10.664063,3.9257818 7.441406,0 12.539062,-5.1562498 5.15625,-5.15625 5.15625,-12.773438 0,-7.265625 -4.746094,-11.953125 -4.746093,-4.746093 -12.070312,-4.746093 -2.988281,0 -7.441406,1.171875 l 1.171875,-9.257813 q 1.054687,0.117188 1.699218,0.117188 6.738282,0 12.128907,-3.515625 5.390625,-3.515625 5.390625,-10.839844 0,-5.800781 -3.925782,-9.609375 -3.925781,-3.808594 -10.136718,-3.808594 -6.152344,0 -10.253907,3.867188 -4.101562,3.867187 -5.273437,11.601562 l -10.546875,-1.875 Q 8.0273438,-74.589844 14.882813,-80.390625 21.738281,-86.25 31.933594,-86.25 q 7.03125,0 12.949218,3.046875 5.917969,2.988281 9.023438,8.203125 3.164062,5.214844 3.164062,11.074219 0,5.566406 -2.988281,10.136719 -2.988281,4.570312 -8.847656,7.265625 7.617187,1.757812 11.835937,7.324218 4.21875,5.507813 4.21875,13.828125 0,11.25 -8.203125,19.1015628 -8.203125,7.7929687 -20.742187,7.7929687 -11.308594,0 -18.808594,-6.7382812 Q 6.09375,-11.953125 5.0390625,-22.675781 Z"
       style="font-style:normal;font-variant:normal;font-weight:normal;font-stretch:normal;font-size:120px;line-height:normal;font-family:Arial;fill:#009e73"
       id="path1009" />
  </g>
  <path
     stroke="transparent"
     d="M 2228.93,705.103 L 2239.13,705.103 L 2239.13,858.57 L 2228.93,858.57 L 2228.93,705.103 Z "
     id="path70"
     transform="matrix(0.0666667 0 0 0.0666667 -0.489448 -12.4)"
     fill="#009e73" />
  <path
     stroke="transparent"
     d="M 2270.36,705.103 L 2280.56,705.103 L 2280.56,858.57 L 2270.36,858.57 L 2270.36,705.103 Z "
     id="path72"
     transform="matrix(0.0666667 0 0 0.0666667 -0.489448 -12.4)"
     fill="#009e73" />
  <g
     aria-label="R"
     transform="matrix(0.0666667 0 0 0.0666667 172.538 48.2407)"
     style="font-style:normal;font-variant:normal;font-weight:normal;font-stretch:normal;font-size:160px;line-height:normal;font-family:Arial;fill:#000000"
     id="text74">
    <path
       d="m 12.578125,0 v -114.53125 h 50.78125 q 15.3125,0 23.28125,3.125 7.96875,3.04687 12.734375,10.85937 4.76563,7.812505 4.76563,17.26563 0,12.1875 -7.89063,20.546875 -7.890625,8.359375 -24.375,10.625 6.015625,2.890625 9.140625,5.703125 6.640625,6.09375 12.578125,15.234375 L 113.51563,0 H 94.453125 l -15.15625,-23.828125 q -6.640625,-10.3125 -10.9375,-15.78125 -4.296875,-5.46875 -7.734375,-7.65625 -3.359375,-2.1875 -6.875,-3.046875 -2.578125,-0.546875 -8.4375,-0.546875 H 27.734375 V 0 Z m 15.15625,-63.984375 H 60.3125 q 10.390625,0 16.25,-2.109375 5.859375,-2.1875 8.90625,-6.875 3.046875,-4.765625 3.046875,-10.3125 0,-8.125 -5.9375,-13.359375 Q 76.71875,-101.875 63.984375,-101.875 h -36.25 z"
       style="font-style:normal;font-variant:normal;font-weight:normal;font-stretch:normal;font-size:160px;line-height:normal;font-family:Arial;fill:#000000"
       id="path1012" />
  </g>
  <g
     aria-label="2"
     transform="matrix(0.0666667 0 0 0.0666667 180.272 44.0407)"
     style="font-style:normal;font-variant:normal;font-weight:normal;font-stretch:normal;font-size:120px;line-height:normal;font-family:Arial;fill:#000000"
     id="text76">
    <path
       d="M 60.410156,-10.136719 V 0 H 3.6328125 Q 3.515625,-3.8085938 4.8632812,-7.3242187 7.03125,-13.125 11.777344,-18.75 q 4.804687,-5.625 13.828125,-13.007812 14.003906,-11.484375 18.925781,-18.164063 4.921875,-6.738281 4.921875,-12.714844 0,-6.269531 -4.511719,-10.546875 -4.453125,-4.335937 -11.660156,-4.335937 -7.617188,0 -12.1875,4.570312 -4.570313,4.570313 -4.628906,12.65625 L 5.625,-61.40625 Q 6.7382812,-73.535156 14.003906,-79.863281 21.269531,-86.25 33.515625,-86.25 q 12.363281,0 19.570312,6.855469 7.207032,6.855469 7.207032,16.992187 0,5.15625 -2.109375,10.136719 -2.109375,4.980469 -7.03125,10.488281 -4.863282,5.507813 -16.230469,15.117188 -9.492188,7.96875 -12.1875,10.839843 -2.695313,2.8125 -4.453125,5.683594 z"
       style="font-style:normal;font-variant:normal;font-weight:normal;font-stretch:normal;font-size:120px;line-height:normal;font-family:Arial;fill:#000000"
       id="path1015" />
  </g>
  <path
     stroke="transparent"
     d="M 2567.9,890.093 L 2573,898.931 L 2533.8,921.563 L 2528.7,912.725 L 2567.9,890.093 Z "
     id="path78"
     transform="matrix(0.0666667 0 0 0.0666667 -0.489448 -12.4)"
     fill="#000000" />
  <g
     aria-label="R"
     transform="matrix(0.0666667 0 0 0.0666667 132.671 105.51)"
     style="font-style:normal;font-variant:normal;font-weight:normal;font-stretch:normal;font-size:160px;line-height:normal;font-family:Arial;fill:#000000"
     id="text80">
    <path
       d="m 12.578125,0 v -114.53125 h 50.78125 q 15.3125,0 23.28125,3.125 7.96875,3.04687 12.734375,10.85937 4.76563,7.812505 4.76563,17.26563 0,12.1875 -7.89063,20.546875 -7.890625,8.359375 -24.375,10.625 6.015625,2.890625 9.140625,5.703125 6.640625,6.09375 12.578125,15.234375 L 113.51563,0 H 94.453125 l -15.15625,-23.828125 q -6.640625,-10.3125 -10.9375,-15.78125 -4.296875,-5.46875 -7.734375,-7.65625 -3.359375,-2.1875 -6.875,-3.046875 -2.578125,-0.546875 -8.4375,-0.546875 H 27.734375 V 0 Z m 15.15625,-63.984375 H 60.3125 q 10.390625,0 16.25,-2.109375 5.859375,-2.1875 8.90625,-6.875 3.046875,-4.765625 3.046875,-10.3125 0,-8.125 -5.9375,-13.359375 Q 76.71875,-101.875 63.984375,-101.875 h -36.25 z"
       style="font-style:normal;font-variant:normal;font-weight:normal;font-stretch:normal;font-size:160px;line-height:normal;font-family:Arial;fill:#000000"
       id="path1018" />
  </g>
  <g
     aria-label="1"
     transform="matrix(0.0666667 0 0 0.0666667 140.405 101.31)"
     style="font-style:normal;font-variant:normal;font-weight:normal;font-stretch:normal;font-size:120px;line-height:normal;font-family:Arial;fill:#000000"
     id="text82">
    <path
       d="M 44.707031,0 H 34.160156 v -67.207031 q -3.808594,3.632812 -10.019531,7.265625 -6.152344,3.632812 -11.074219,5.449219 V -64.6875 q 8.847656,-4.160156 15.46875,-10.078125 6.621094,-5.917969 9.375,-11.484375 h 6.796875 z"
       style="font-style:normal;font-variant:normal;font-weight:normal;font-stretch:normal;font-size:120px;line-height:normal;font-family:Arial;fill:#000000"
       id="path1021" />
  </g>
  <path
     stroke="transparent"
     d="M 2254.75,1584.68 L 2254.75,1596.46 L 2193.5,1631.82 L 2188.39,1622.99 L 2254.75,1584.68 Z "
     id="path84"
     transform="matrix(0.0666667 0 0 0.0666667 -0.489448 -12.4)"
     fill="#000000" />
  <g
     aria-label="OEt"
     transform="matrix(0.0666667 0 0 0.0666667 158.983 105.51)"
     style="font-style:normal;font-variant:normal;font-weight:normal;font-stretch:normal;font-size:160px;line-height:normal;font-family:Arial;fill:#009e73"
     id="text86">
    <path
       d="m 7.734375,-55.78125 q 0,-28.515625 15.3125,-44.60938 15.3125,-16.17187 39.53125,-16.17187 15.859375,0 28.59375,7.57812 12.734375,7.57813 19.375005,21.17188 6.71875,13.515625 6.71875,30.703125 0,17.421875 -7.03125,31.171875 -7.03125,13.75 -19.92188,20.859375 -12.890625,7.03125 -27.8125,7.03125 -16.171875,0 -28.90625,-7.8125 -12.734375,-7.8125 -19.296875,-21.328125 -6.5625,-13.515625 -6.5625,-28.59375 z m 15.625,0.234375 q 0,20.703125 11.09375,32.65625 11.171875,11.875 27.96875,11.875 17.109375,0 28.125,-12.03125 11.093755,-12.03125 11.093755,-34.140625 0,-13.984375 -4.76563,-24.375 -4.6875,-10.46875 -13.828125,-16.171875 -9.0625,-5.781255 -20.390625,-5.781255 -16.09375,0 -27.734375,11.093755 -11.5625,11.015625 -11.5625,36.875 z"
       style="font-style:normal;font-variant:normal;font-weight:normal;font-stretch:normal;font-size:160px;line-height:normal;font-family:Arial;fill:#009e73"
       id="path1024" />
    <path
       d="m 137.03125,0 v -114.53125 h 82.8125 v 13.51562 H 152.1875 v 35.07813 h 63.35937 V -52.5 H 152.1875 v 38.984375 H 222.5 V 0 Z"
       style="font-style:normal;font-variant:normal;font-weight:normal;font-stretch:normal;font-size:160px;line-height:normal;font-family:Arial;fill:#009e73"
       id="path1026" />
    <path
       d="m 272.5,-12.578125 2.03125,12.421875 q -5.9375,1.25 -10.625,1.25 -7.65625,0 -11.875,-2.421875 Q 247.8125,-3.75 246.09375,-7.65625 244.375,-11.640625 244.375,-24.296875 V -72.03125 h -10.3125 v -10.9375 h 10.3125 v -20.54688 l 13.98437,-8.4375 v 28.98438 H 272.5 v 10.9375 h -14.14063 v 48.515625 q 0,6.015625 0.70313,7.734375 0.78125,1.71875 2.42187,2.734375 1.71875,1.015625 4.84375,1.015625 2.34375,0 6.17188,-0.546875 z"
       style="font-style:normal;font-variant:normal;font-weight:normal;font-stretch:normal;font-size:160px;line-height:normal;font-family:Arial;fill:#009e73"
       id="path1028" />
  </g>
  <path
     stroke="transparent"
     d="M 2388.1,1661.67 L 2383,1670.5 L 2254.75,1596.46 L 2254.75,1584.68 L 2388.1,1661.67 Z "
     id="path88"
     transform="matrix(0.0666667 0 0 0.0666667 -0.489448 -12.4)"
     fill="#009e73" />
  <g
     aria-label="O"
     transform="matrix(0.0666667 0 0 0.0666667 145.694 82.493)"
     style="font-style:normal;font-variant:normal;font-weight:normal;font-stretch:normal;font-size:160px;line-height:normal;font-family:Arial;fill:#000000"
     id="text90">
    <path
       d="m 7.734375,-55.78125 q 0,-28.515625 15.3125,-44.60938 15.3125,-16.17187 39.53125,-16.17187 15.859375,0 28.59375,7.57812 12.734375,7.57813 19.375005,21.17188 6.71875,13.515625 6.71875,30.703125 0,17.421875 -7.03125,31.171875 -7.03125,13.75 -19.92188,20.859375 -12.890625,7.03125 -27.8125,7.03125 -16.171875,0 -28.90625,-7.8125 -12.734375,-7.8125 -19.296875,-21.328125 -6.5625,-13.515625 -6.5625,-28.59375 z m 15.625,0.234375 q 0,20.703125 11.09375,32.65625 11.171875,11.875 27.96875,11.875 17.109375,0 28.125,-12.03125 11.093755,-12.03125 11.093755,-34.140625 0,-13.984375 -4.76563,-24.375 -4.6875,-10.46875 -13.828125,-16.171875 -9.0625,-5.781255 -20.390625,-5.781255 -16.09375,0 -27.734375,11.093755 -11.5625,11.015625 -11.5625,36.875 z"
       style="font-style:normal;font-variant:normal;font-weight:normal;font-stretch:normal;font-size:160px;line-height:normal;font-family:Arial;fill:#000000"
       id="path1031" />
  </g>
  <path
     stroke="transparent"
     d="M 2228.93,1452.06 L 2239.13,1452.06 L 2239.13,1602.53 L 2228.93,1602.53 L 2228.93,1452.06 Z "
     id="path92"
     transform="matrix(0.0666667 0 0 0.0666667 -0.489448 -12.4)"
     fill="#000000" />
  <path
     stroke="transparent"
     d="M 2270.36,1452.06 L 2280.56,1452.06 L 2280.56,1602.53 L 2270.36,1602.53 L 2270.36,1452.06 Z "
     id="path94"
     transform="matrix(0.0666667 0 0 0.0666667 -0.489448 -12.4)"
     fill="#000000" />
  <path
     stroke="transparent"
     d="M 1802.99,946.25 L 1118.78,946.25 L 1118.78,936.25 L 1802.99,936.25 Z "
     id="path96"
     transform="matrix(0.0666667 0 0 0.0666667 -0.489448 -12.4)"
     fill="#000000" />
  <path
     stroke="transparent"
     d="M 1891.28,941.25 C 1891.28,941.25 1789.24,967.761 1789.24,967.761 C 1789.24,967.761 1801.99,952.849 1801.99,941.25 C 1801.99,929.214 1789.24,913.739 1789.24,913.739 C 1789.24,913.739 1891.28,941.25 1891.28,941.25 C 1891.28,941.25 1891.28,941.25 1891.28,941.25 "
     id="path98"
     transform="matrix(0.0666667 0 0 0.0666667 -0.489448 -12.4)"
     fill="#000000" />
  <path
     fill="transparent"
     d="M 1891.28,941.25 C 1891.28,941.25 1789.24,967.761 1789.24,967.761 C 1789.24,967.761 1801.99,952.849 1801.99,941.25 C 1801.99,929.214 1789.24,913.739 1789.24,913.739 C 1789.24,913.739 1891.28,941.25 1891.28,941.25 C 1891.28,941.25 1891.28,941.25 1891.28,941.25 "
     id="path100"
     transform="matrix(0.0666667 0 0 0.0666667 -0.489448 -12.4)"
     stroke-width="1"
     stroke="#000000" />
  <g
     aria-label="R"
     transform="matrix(0.0666667 0 0 0.0666667 75.296 44.85)"
     style="font-style:normal;font-variant:normal;font-weight:normal;font-stretch:normal;font-size:160px;line-height:normal;font-family:Arial;fill:#009e73"
     id="text102">
    <path
       d="m 12.578125,0 v -114.53125 h 50.78125 q 15.3125,0 23.28125,3.125 7.96875,3.04687 12.734375,10.85937 4.76563,7.812505 4.76563,17.26563 0,12.1875 -7.89063,20.546875 -7.890625,8.359375 -24.375,10.625 6.015625,2.890625 9.140625,5.703125 6.640625,6.09375 12.578125,15.234375 L 113.51563,0 H 94.453125 l -15.15625,-23.828125 q -6.640625,-10.3125 -10.9375,-15.78125 -4.296875,-5.46875 -7.734375,-7.65625 -3.359375,-2.1875 -6.875,-3.046875 -2.578125,-0.546875 -8.4375,-0.546875 H 27.734375 V 0 Z m 15.15625,-63.984375 H 60.3125 q 10.390625,0 16.25,-2.109375 5.859375,-2.1875 8.90625,-6.875 3.046875,-4.765625 3.046875,-10.3125 0,-8.125 -5.9375,-13.359375 Q 76.71875,-101.875 63.984375,-101.875 h -36.25 z"
       style="font-style:normal;font-variant:normal;font-weight:normal;font-stretch:normal;font-size:160px;line-height:normal;font-family:Arial;fill:#009e73"
       id="path1034" />
  </g>
  <g
     aria-label="3"
     transform="matrix(0.0666667 0 0 0.0666667 83.0293 40.65)"
     style="font-style:normal;font-variant:normal;font-weight:normal;font-stretch:normal;font-size:120px;line-height:normal;font-family:Arial;fill:#009e73"
     id="text104">
    <path
       d="m 5.0390625,-22.675781 10.5468755,-1.40625 q 1.816406,8.964843 6.152343,12.949218 4.394531,3.9257818 10.664063,3.9257818 7.441406,0 12.539062,-5.1562498 5.15625,-5.15625 5.15625,-12.773438 0,-7.265625 -4.746094,-11.953125 -4.746093,-4.746093 -12.070312,-4.746093 -2.988281,0 -7.441406,1.171875 l 1.171875,-9.257813 q 1.054687,0.117188 1.699218,0.117188 6.738282,0 12.128907,-3.515625 5.390625,-3.515625 5.390625,-10.839844 0,-5.800781 -3.925782,-9.609375 -3.925781,-3.808594 -10.136718,-3.808594 -6.152344,0 -10.253907,3.867188 -4.101562,3.867187 -5.273437,11.601562 l -10.546875,-1.875 Q 8.0273438,-74.589844 14.882813,-80.390625 21.738281,-86.25 31.933594,-86.25 q 7.03125,0 12.949218,3.046875 5.917969,2.988281 9.023438,8.203125 3.164062,5.214844 3.164062,11.074219 0,5.566406 -2.988281,10.136719 -2.988281,4.570312 -8.847656,7.265625 7.617187,1.757812 11.835937,7.324218 4.21875,5.507813 4.21875,13.828125 0,11.25 -8.203125,19.1015628 -8.203125,7.7929687 -20.742187,7.7929687 -11.308594,0 -18.808594,-6.7382812 Q 6.09375,-11.953125 5.0390625,-22.675781 Z"
       style="font-style:normal;font-variant:normal;font-weight:normal;font-stretch:normal;font-size:120px;line-height:normal;font-family:Arial;fill:#009e73"
       id="path1037" />
  </g>
  <g
     aria-label="NH"
     transform="matrix(0.0666667 0 0 0.0666667 87.496 44.85)"
     style="font-style:normal;font-variant:normal;font-weight:normal;font-stretch:normal;font-size:160px;line-height:normal;font-family:Arial;fill:#009e73"
     id="text106">
    <path
       d="m 12.1875,0 v -114.53125 h 15.546875 l 60.15625,89.921875 V -114.53125 H 102.42188 V 0 H 86.875 L 26.71875,-90 V 0 Z"
       style="font-style:normal;font-variant:normal;font-weight:normal;font-stretch:normal;font-size:160px;line-height:normal;font-family:Arial;fill:#009e73"
       id="path1040" />
    <path
       d="m 128.4375,0 v -114.53125 h 15.15625 V -67.5 H 203.125 v -47.03125 h 15.15625 V 0 H 203.125 V -53.984375 H 143.59375 V 0 Z"
       style="font-style:normal;font-variant:normal;font-weight:normal;font-stretch:normal;font-size:160px;line-height:normal;font-family:Arial;fill:#009e73"
       id="path1042" />
  </g>
  <g
     aria-label="3"
     transform="matrix(0.0666667 0 0 0.0666667 102.963 47.1167)"
     style="font-style:normal;font-variant:normal;font-weight:normal;font-stretch:normal;font-size:120px;line-height:normal;font-family:Arial;fill:#009e73"
     id="text108">
    <path
       d="m 5.0390625,-22.675781 10.5468755,-1.40625 q 1.816406,8.964843 6.152343,12.949218 4.394531,3.9257818 10.664063,3.9257818 7.441406,0 12.539062,-5.1562498 5.15625,-5.15625 5.15625,-12.773438 0,-7.265625 -4.746094,-11.953125 -4.746093,-4.746093 -12.070312,-4.746093 -2.988281,0 -7.441406,1.171875 l 1.171875,-9.257813 q 1.054687,0.117188 1.699218,0.117188 6.738282,0 12.128907,-3.515625 5.390625,-3.515625 5.390625,-10.839844 0,-5.800781 -3.925782,-9.609375 -3.925781,-3.808594 -10.136718,-3.808594 -6.152344,0 -10.253907,3.867188 -4.101562,3.867187 -5.273437,11.601562 l -10.546875,-1.875 Q 8.0273438,-74.589844 14.882813,-80.390625 21.738281,-86.25 31.933594,-86.25 q 7.03125,0 12.949218,3.046875 5.917969,2.988281 9.023438,8.203125 3.164062,5.214844 3.164062,11.074219 0,5.566406 -2.988281,10.136719 -2.988281,4.570312 -8.847656,7.265625 7.617187,1.757812 11.835937,7.324218 4.21875,5.507813 4.21875,13.828125 0,11.25 -8.203125,19.1015628 -8.203125,7.7929687 -20.742187,7.7929687 -11.308594,0 -18.808594,-6.7382812 Q 6.09375,-11.953125 5.0390625,-22.675781 Z"
       style="font-style:normal;font-variant:normal;font-weight:normal;font-stretch:normal;font-size:120px;line-height:normal;font-family:Arial;fill:#009e73"
       id="path1045" />
  </g>
  <g
     aria-label="Cl"
     transform="matrix(0.0666667 0 0 0.0666667 107.413 44.85)"
     style="font-style:normal;font-variant:normal;font-weight:normal;font-stretch:normal;font-size:160px;line-height:normal;font-family:Arial;fill:#009e73"
     id="text110">
    <path
       d="m 94.0625,-40.15625 15.15625,3.828125 Q 104.45313,-17.65625 92.03125,-7.8125 79.6875,1.953125 61.796875,1.953125 q -18.515625,0 -30.15625,-7.5 -11.5625,-7.578125 -17.65625,-21.875 Q 7.96875,-41.71875 7.96875,-58.125 q 0,-17.890625 6.796875,-31.171875 6.875,-13.359375 19.453125,-20.234375 12.65625,-6.95313 27.8125,-6.95313 17.1875,0 28.90625,8.75 11.71875,8.750005 16.32813,24.60938 l -14.92188,3.515625 q -3.984375,-12.5 -11.5625,-18.203125 -7.578125,-5.70313 -19.0625,-5.70313 -13.203125,0 -22.109375,6.32813 -8.828125,6.328125 -12.421875,17.03125 -3.59375,10.625 -3.59375,21.953125 0,14.609375 4.21875,25.546875 4.296875,10.859375 13.28125,16.25 8.984375,5.390625 19.453125,5.390625 12.734375,0 21.5625,-7.34375 8.828125,-7.34375 11.953125,-21.796875 z"
       style="font-style:normal;font-variant:normal;font-weight:normal;font-stretch:normal;font-size:160px;line-height:normal;font-family:Arial;fill:#009e73"
       id="path1048" />
    <path
       d="m 125.85938,0 v -114.53125 h 14.06249 V 0 Z"
       style="font-style:normal;font-variant:normal;font-weight:normal;font-stretch:normal;font-size:160px;line-height:normal;font-family:Arial;fill:#009e73"
       id="path1050" />
  </g>
  <path
     stroke="transparent"
     d="M 1806.74,1617.5 L 432.531,1617.5 L 432.531,1607.5 L 1806.74,1607.5 Z "
     id="path112"
     transform="matrix(0.0666667 0 0 0.0666667 -0.489448 -12.4)"
     fill="#000000" />
  <path
     stroke="transparent"
     d="M 1895.03,1612.5 C 1895.03,1612.5 1792.99,1639.01 1792.99,1639.01 C 1792.99,1639.01 1805.74,1624.1 1805.74,1612.5 C 1805.74,1600.46 1792.99,1584.99 1792.99,1584.99 C 1792.99,1584.99 1895.03,1612.5 1895.03,1612.5 C 1895.03,1612.5 1895.03,1612.5 1895.03,1612.5 "
     id="path114"
     transform="matrix(0.0666667 0 0 0.0666667 -0.489448 -12.4)"
     fill="#000000" />
  <path
     fill="transparent"
     d="M 1895.03,1612.5 C 1895.03,1612.5 1792.99,1639.01 1792.99,1639.01 C 1792.99,1639.01 1805.74,1624.1 1805.74,1612.5 C 1805.74,1600.46 1792.99,1584.99 1792.99,1584.99 C 1792.99,1584.99 1895.03,1612.5 1895.03,1612.5 C 1895.03,1612.5 1895.03,1612.5 1895.03,1612.5 "
     id="path116"
     transform="matrix(0.0666667 0 0 0.0666667 -0.489448 -12.4)"
     stroke-width="1"
     stroke="#000000" />
  <g
     aria-label="1)"
     transform="matrix(0.0666667 0 0 0.0666667 36.446 91.1)"
     style="font-style:normal;font-variant:normal;font-weight:normal;font-stretch:normal;font-size:160px;line-height:normal;font-family:Arial;fill:#000000"
     id="text118">
    <path
       d="m 59.609375,0 h -14.0625 v -89.609375 q -5.078125,4.84375 -13.359375,9.6875 -8.203125,4.84375 -14.765625,7.265625 V -86.25 q 11.796875,-5.546875 20.625,-13.4375 8.828125,-7.89063 12.5,-15.3125 h 9.0625 z"
       style="font-style:normal;font-variant:normal;font-weight:normal;font-stretch:normal;font-size:160px;line-height:normal;font-family:Arial;fill:#000000"
       id="path1053" />
    <path
       d="M 108.82813,33.671875 H 98.75 q 23.35938,-37.5 23.35938,-75.078125 0,-14.6875 -3.35938,-29.140625 -2.65625,-11.71875 -7.42187,-22.5 -3.04688,-7.031255 -12.57813,-23.437505 h 10.07813 q 14.6875,19.60938 21.71874,39.375005 6.01563,17.03125 6.01563,35.625 0,21.09375 -8.125,40.78125 -8.04687,19.6875 -19.60937,34.375 z"
       style="font-style:normal;font-variant:normal;font-weight:normal;font-stretch:normal;font-size:160px;line-height:normal;font-family:Arial;fill:#000000"
       id="path1055" />
  </g>
  <g
     aria-label="EtOH"
     transform="matrix(0.0666667 0 0 0.0666667 48.8949 91.1)"
     style="font-style:normal;font-variant:normal;font-weight:normal;font-stretch:normal;font-size:160px;line-height:normal;font-family:Arial;fill:#009e73"
     id="text120">
    <path
       d="m 12.65625,0 v -114.53125 h 82.8125 v 13.51562 H 27.8125 V -65.9375 H 91.171875 V -52.5 H 27.8125 v 38.984375 H 98.125 V 0 Z"
       style="font-style:normal;font-variant:normal;font-weight:normal;font-stretch:normal;font-size:160px;line-height:normal;font-family:Arial;fill:#009e73"
       id="path1058" />
    <path
       d="m 148.125,-12.578125 2.03125,12.421875 q -5.9375,1.25 -10.625,1.25 -7.65625,0 -11.875,-2.421875 Q 123.4375,-3.75 121.71875,-7.65625 120,-11.640625 120,-24.296875 V -72.03125 h -10.3125 v -10.9375 H 120 v -20.54688 l 13.98437,-8.4375 v 28.98438 H 148.125 v 10.9375 h -14.14063 v 48.515625 q 0,6.015625 0.70313,7.734375 0.78125,1.71875 2.42187,2.734375 1.71875,1.015625 4.84375,1.015625 2.34375,0 6.17188,-0.546875 z"
       style="font-style:normal;font-variant:normal;font-weight:normal;font-stretch:normal;font-size:160px;line-height:normal;font-family:Arial;fill:#009e73"
       id="path1060" />
    <path
       d="m 158.98437,-55.78125 q 0,-28.515625 15.3125,-44.60938 15.3125,-16.17187 39.53125,-16.17187 15.85938,0 28.59375,7.57812 12.73438,7.57813 19.375,21.17188 6.71875,13.515625 6.71875,30.703125 0,17.421875 -7.03125,31.171875 -7.03125,13.75 -19.92187,20.859375 -12.89063,7.03125 -27.8125,7.03125 -16.17188,0 -28.90625,-7.8125 -12.73438,-7.8125 -19.29688,-21.328125 -6.5625,-13.515625 -6.5625,-28.59375 z m 15.625,0.234375 q 0,20.703125 11.09375,32.65625 11.17188,11.875 27.96875,11.875 17.10938,0 28.125,-12.03125 11.09375,-12.03125 11.09375,-34.140625 0,-13.984375 -4.76562,-24.375 -4.6875,-10.46875 -13.82813,-16.171875 -9.0625,-5.781255 -20.39062,-5.781255 -16.09375,0 -27.73438,11.093755 -11.5625,11.015625 -11.5625,36.875 z"
       style="font-style:normal;font-variant:normal;font-weight:normal;font-stretch:normal;font-size:160px;line-height:normal;font-family:Arial;fill:#009e73"
       id="path1062" />
    <path
       d="m 288.4375,0 v -114.53125 h 15.15625 V -67.5 H 363.125 v -47.03125 h 15.15625 V 0 H 363.125 V -53.984375 H 303.59375 V 0 Z"
       style="font-style:normal;font-variant:normal;font-weight:normal;font-stretch:normal;font-size:160px;line-height:normal;font-family:Arial;fill:#009e73"
       id="path1064" />
  </g>
  <g
     aria-label=","
     transform="matrix(0.0666667 0 0 0.0666667 75.022 91.1)"
     style="font-style:normal;font-variant:normal;font-weight:normal;font-stretch:normal;font-size:160px;line-height:normal;font-family:Arial;fill:#000000"
     id="text122">
    <path
       d="M 14.21875,0 V -16.015625 H 30.234375 V 0 q 0,8.828125 -3.125,14.21875 -3.125,5.46875 -9.921875,8.4375 L 13.28125,16.640625 Q 17.734375,14.6875 19.84375,10.859375 21.953125,7.109375 22.1875,0 Z"
       style="font-style:normal;font-variant:normal;font-weight:normal;font-stretch:normal;font-size:160px;line-height:normal;font-family:Arial;fill:#000000"
       id="path1067" />
  </g>
  <g
     aria-label="2)"
     transform="matrix(0.0666667 0 0 0.0666667 80.9491 91.1)"
     style="font-style:normal;font-variant:normal;font-weight:normal;font-stretch:normal;font-size:160px;line-height:normal;font-family:Arial;fill:#000000"
     id="text124">
    <path
       d="M 80.546875,-13.515625 V 0 H 4.84375 Q 4.6875,-5.078125 6.484375,-9.765625 9.375,-17.5 15.703125,-25 q 6.40625,-7.5 18.4375,-17.34375 Q 52.8125,-57.65625 59.375,-66.5625 q 6.5625,-8.984375 6.5625,-16.953125 0,-8.359375 -6.015625,-14.0625 -5.9375,-5.781255 -15.546875,-5.781255 -10.15625,0 -16.25,6.093755 -6.09375,6.09375 -6.171875,16.875 L 7.5,-81.875 Q 8.984375,-98.046875 18.671875,-106.48438 28.359375,-115 44.6875,-115 q 16.484375,0 26.09375,9.14062 9.609375,9.14063 9.609375,22.656255 0,6.875 -2.8125,13.515625 -2.8125,6.640625 -9.375,13.984375 -6.484375,7.34375 -21.640625,20.15625 -12.65625,10.625 -16.25,14.453125 -3.59375,3.75 -5.9375,7.578125 z"
       style="font-style:normal;font-variant:normal;font-weight:normal;font-stretch:normal;font-size:160px;line-height:normal;font-family:Arial;fill:#000000"
       id="path1070" />
    <path
       d="M 108.82813,33.671875 H 98.75 q 23.35938,-37.5 23.35938,-75.078125 0,-14.6875 -3.35938,-29.140625 -2.65625,-11.71875 -7.42187,-22.5 -3.04688,-7.031255 -12.57813,-23.437505 h 10.07813 q 14.6875,19.60938 21.71874,39.375005 6.01563,17.03125 6.01563,35.625 0,21.09375 -8.125,40.78125 -8.04687,19.6875 -19.60937,34.375 z"
       style="font-style:normal;font-variant:normal;font-weight:normal;font-stretch:normal;font-size:160px;line-height:normal;font-family:Arial;fill:#000000"
       id="path1072" />
  </g>
  <g
     aria-label="H"
     transform="matrix(0.0666667 0 0 0.0666667 93.3981 91.1)"
     style="font-style:normal;font-variant:normal;font-weight:normal;font-stretch:normal;font-size:160px;line-height:normal;font-family:Arial;fill:#000000"
     id="text126">
    <path
       d="M 12.8125,0 V -114.53125 H 27.96875 V -67.5 H 87.5 v -47.03125 h 15.15625 V 0 H 87.5 V -53.984375 H 27.96875 V 0 Z"
       style="font-style:normal;font-variant:normal;font-weight:normal;font-stretch:normal;font-size:160px;line-height:normal;font-family:Arial;fill:#000000"
       id="path1075" />
  </g>
  <g
     aria-label="2"
     transform="matrix(0.0666667 0 0 0.0666667 101.131 93.3667)"
     style="font-style:normal;font-variant:normal;font-weight:normal;font-stretch:normal;font-size:120px;line-height:normal;font-family:Arial;fill:#000000"
     id="text128">
    <path
       d="M 60.410156,-10.136719 V 0 H 3.6328125 Q 3.515625,-3.8085938 4.8632812,-7.3242187 7.03125,-13.125 11.777344,-18.75 q 4.804687,-5.625 13.828125,-13.007812 14.003906,-11.484375 18.925781,-18.164063 4.921875,-6.738281 4.921875,-12.714844 0,-6.269531 -4.511719,-10.546875 -4.453125,-4.335937 -11.660156,-4.335937 -7.617188,0 -12.1875,4.570312 -4.570313,4.570313 -4.628906,12.65625 L 5.625,-61.40625 Q 6.7382812,-73.535156 14.003906,-79.863281 21.269531,-86.25 33.515625,-86.25 q 12.363281,0 19.570312,6.855469 7.207032,6.855469 7.207032,16.992187 0,5.15625 -2.109375,10.136719 -2.109375,4.980469 -7.03125,10.488281 -4.863282,5.507813 -16.230469,15.117188 -9.492188,7.96875 -12.1875,10.839843 -2.695313,2.8125 -4.453125,5.683594 z"
       style="font-style:normal;font-variant:normal;font-weight:normal;font-stretch:normal;font-size:120px;line-height:normal;font-family:Arial;fill:#000000"
       id="path1078" />
  </g>
  <g
     aria-label="O"
     transform="matrix(0.0666667 0 0 0.0666667 105.581 91.1)"
     style="font-style:normal;font-variant:normal;font-weight:normal;font-stretch:normal;font-size:160px;line-height:normal;font-family:Arial;fill:#000000"
     id="text130">
    <path
       d="m 7.734375,-55.78125 q 0,-28.515625 15.3125,-44.60938 15.3125,-16.17187 39.53125,-16.17187 15.859375,0 28.59375,7.57812 12.734375,7.57813 19.375005,21.17188 6.71875,13.515625 6.71875,30.703125 0,17.421875 -7.03125,31.171875 -7.03125,13.75 -19.92188,20.859375 -12.890625,7.03125 -27.8125,7.03125 -16.171875,0 -28.90625,-7.8125 -12.734375,-7.8125 -19.296875,-21.328125 -6.5625,-13.515625 -6.5625,-28.59375 z m 15.625,0.234375 q 0,20.703125 11.09375,32.65625 11.171875,11.875 27.96875,11.875 17.109375,0 28.125,-12.03125 11.093755,-12.03125 11.093755,-34.140625 0,-13.984375 -4.76563,-24.375 -4.6875,-10.46875 -13.828125,-16.171875 -9.0625,-5.781255 -20.390625,-5.781255 -16.09375,0 -27.734375,11.093755 -11.5625,11.015625 -11.5625,36.875 z"
       style="font-style:normal;font-variant:normal;font-weight:normal;font-stretch:normal;font-size:160px;line-height:normal;font-family:Arial;fill:#000000"
       id="path1081" />
  </g>
  <path
     stroke="transparent"
     d="M 437.531,1406.25 L 437.531,1612.5 L 427.531,1612.5 L 427.531,1406.25 Z "
     id="path132"
     transform="matrix(0.0666667 0 0 0.0666667 -0.489448 -12.4)"
     fill="#000000" />
  <path
     stroke="transparent"
     d="M 2047.75,529.171 L 1400.03,529.171 L 1400.03,519.171 L 2047.75,519.171 Z "
     id="path134"
     transform="matrix(0.0666667 0 0 0.0666667 -0.489448 -12.4)"
     fill="#e69f00" />
  <path
     stroke="transparent"
     d="M 2052.75,524.171 L 2052.75,756.81 L 2042.75,756.81 L 2042.75,524.171 Z "
     id="path136"
     transform="matrix(0.0666667 0 0 0.0666667 -0.489448 -12.4)"
     fill="#e69f00" />
  <path
     stroke="transparent"
     d="M 2021.09,747.455 A 26.6541,26.6541 0 1 0 2074.4,747.455A 26.6541,26.6541 0 1 0 2021.09,747.455Z "
     id="path138"
     transform="matrix(0.0666667 0 0 0.0666667 -0.489448 -12.4)"
     fill="#e69f00" />
  <path
     stroke="transparent"
     d="M 2264.84,1741.08 A 26.6541,26.6541 0 1 0 2318.15,1741.08A 26.6541,26.6541 0 1 0 2264.84,1741.08Z "
     id="path148"
     transform="matrix(0.0666667 0 0 0.0666667 -0.489448 -12.4)"
     fill="#e69f00" />
  <path
     stroke="transparent"
     d="M 2287.53,2001.87 L 2286.5,1731.73 L 2296.5,1731.73 L 2297.53,2001.87 Z "
     id="path150"
     transform="matrix(0.0666667 0 0 0.0666667 -0.489448 -12.4)"
     fill="#e69f00" />
  <path
     stroke="transparent"
     d="M 2292.53,2006.87 L 226.281,2006.87 L 226.281,1996.87 L 2292.53,1996.87 Z "
     id="path152"
     transform="matrix(0.0666667 0 0 0.0666667 -0.489448 -12.4)"
     fill="#e69f00" />
  <text
     xml:space="preserve"
     style="font-style:normal;font-weight:normal;font-size:10.66666698px;line-height:1.25;font-family:sans-serif;letter-spacing:0px;word-spacing:0px;fill:#e69f00;fill-opacity:1;stroke:none;"
     x="93.031067"
     y="19.489796"
     id="text1148"><tspan
       sodipodi:role="line"
       id="tspan1146"
       x="93.031067"
       y="19.489796">imidyna</tspan></text>
  <text
     xml:space="preserve"
     style="font-style:normal;font-weight:normal;font-size:10.66666698px;line-height:1.25;font-family:sans-serif;letter-spacing:0px;word-spacing:0px;fill:#e69f00;fill-opacity:1;stroke:none"
     x="14.723792"
     y="117.83922"
     id="text1148-3"><tspan
       sodipodi:role="line"
       id="tspan1146-8"
       x="14.723792"
       y="117.83922">formalna aktywacja \ch{C-N}</tspan></text>
  <text
     xml:space="preserve"
     style="font-style:normal;font-weight:normal;font-size:10.66666698px;line-height:1.25;font-family:sans-serif;letter-spacing:0px;word-spacing:0px;fill:#000000;fill-opacity:1;stroke:none"
     x="2.19242"
     y="84.714287"
     id="text1170"><tspan
       sodipodi:role="line"
       id="tspan1168"
       x="2.19242"
       y="84.714287">\cmpd{w:piridinium-sec}</tspan></text>
  <text
     xml:space="preserve"
     style="font-style:normal;font-weight:normal;font-size:10.66666698px;line-height:1.25;font-family:sans-serif;letter-spacing:0px;word-spacing:0px;fill:#000000;fill-opacity:1;stroke:none"
     x="174.18347"
     y="66.043312"
     id="text1170-8"><tspan
       sodipodi:role="line"
       id="tspan1168-3"
       x="174.18347"
       y="66.043312">\cmpd{imidine-sec}</tspan></text>
  <text
     xml:space="preserve"
     style="font-style:normal;font-weight:normal;font-size:10.66666698px;line-height:1.25;font-family:sans-serif;letter-spacing:0px;word-spacing:0px;fill:#000000;fill-opacity:1;stroke:none"
     x="174.18347"
     y="120.57976"
     id="text1170-8-3"><tspan
       sodipodi:role="line"
       id="tspan1168-3-5"
       x="174.18347"
       y="120.57976">\cmpd{ester}</tspan></text>
</svg>
