<?xml version="1.0" encoding="UTF-8" standalone="no"?>
<svg
   xmlns:dc="http://purl.org/dc/elements/1.1/"
   xmlns:cc="http://creativecommons.org/ns#"
   xmlns:rdf="http://www.w3.org/1999/02/22-rdf-syntax-ns#"
   xmlns:svg="http://www.w3.org/2000/svg"
   xmlns="http://www.w3.org/2000/svg"
   xmlns:sodipodi="http://sodipodi.sourceforge.net/DTD/sodipodi-0.dtd"
   xmlns:inkscape="http://www.inkscape.org/namespaces/inkscape"
   viewBox="2.99 80.44 291.3 112.59"
   preserveAspectRatio="xMidYMid"
   width="100%"
   height="100%"
   version="1.1"
   id="svg366"
   sodipodi:docname="sec-mono.svg"
   inkscape:version="0.92.3 (2405546, 2018-03-11)">
  <metadata
     id="metadata372">
    <rdf:RDF>
      <cc:Work
         rdf:about="">
        <dc:format>image/svg+xml</dc:format>
        <dc:type
           rdf:resource="http://purl.org/dc/dcmitype/StillImage" />
      </cc:Work>
    </rdf:RDF>
  </metadata>
  <defs
     id="defs370" />
  <sodipodi:namedview
     pagecolor="#ffffff"
     bordercolor="#666666"
     borderopacity="1"
     objecttolerance="10"
     gridtolerance="10"
     guidetolerance="10"
     inkscape:pageopacity="0"
     inkscape:pageshadow="2"
     inkscape:window-width="1920"
     inkscape:window-height="1017"
     id="namedview368"
     showgrid="false"
     inkscape:zoom="1.7477408"
     inkscape:cx="167.91393"
     inkscape:cy="-188.3533"
     inkscape:window-x="-8"
     inkscape:window-y="-8"
     inkscape:window-maximized="1"
     inkscape:current-layer="svg366" />
  <clipPath
     id="10122">
    <rect
       x="0.255"
       y="0.255"
       width="302.74"
       height="769.29"
       id="rect2" />
  </clipPath>
  <path
     style="stroke:#000000;stroke-width:0.67999828;shape-rendering:auto"
     d="M 71.171097,308.79123 H 21.611221"
     id="line7" />
  <path
     style="fill:#000000;fill-rule:evenodd;stroke:#000000;stroke-width:0;stroke-linejoin:miter;stroke-miterlimit:5.89496231;shape-rendering:geometricPrecision"
     inkscape:connector-curvature="0"
     id="path9"
     stroke-miterlimit="5.89496254687647"
     d="m 75.784421,308.79124 -6.799983,-1.70666 c 1.426663,0.96 1.426663,2.45333 0,3.41332 z" />
  <g
     aria-label="Tf2O"
     style="font-size:15.99995995px;text-anchor:start;stroke-width:1.33333004;text-rendering:geometricPrecision"
     id="text18">
    <path
       d="m 33.483485,288.76462 v -6.73436 h -2.515619 v -0.90104 h 6.052069 v 0.90104 h -2.526036 v 6.73436 z"
       style="font-size:10.66664028px;font-family:Arial;fill:#000000;stroke-width:1.33333004"
       id="path5567"
       inkscape:connector-curvature="0" />
    <path
       d="m 38.165765,288.76462 v -4.80207 h -0.828123 v -0.72917 h 0.828123 v -0.58854 q 0,-0.55729 0.09896,-0.82812 0.135417,-0.36458 0.473957,-0.58854 0.34375,-0.22917 0.958331,-0.22917 0.395833,0 0.874998,0.0937 l -0.140624,0.81771 q -0.291666,-0.0521 -0.552082,-0.0521 -0.427083,0 -0.604166,0.18229 -0.177082,0.18229 -0.177082,0.68229 v 0.51041 h 1.078122 v 0.72917 h -1.078122 v 4.80207 z"
       style="font-size:10.66664028px;font-family:Arial;fill:#000000;stroke-width:1.33333004"
       id="path5569"
       inkscape:connector-curvature="0" />
    <path
       d="m 44.224344,290.50217 v 0.67578 h -3.785147 q -0.0078,-0.25391 0.08203,-0.48828 0.144531,-0.38672 0.460936,-0.76172 0.320312,-0.375 0.921873,-0.86719 0.933591,-0.76562 1.261716,-1.21093 0.328124,-0.44922 0.328124,-0.84766 0,-0.41796 -0.300781,-0.70312 -0.296874,-0.28906 -0.777342,-0.28906 -0.507811,0 -0.812497,0.30469 -0.304687,0.30468 -0.308593,0.84374 l -0.722655,-0.0742 q 0.07422,-0.8086 0.558592,-1.23047 0.484374,-0.42578 1.300778,-0.42578 0.824217,0 1.304685,0.45703 0.480467,0.45703 0.480467,1.13281 0,0.34375 -0.140624,0.67578 -0.140625,0.33203 -0.468749,0.69922 -0.324218,0.36718 -1.082029,1.00781 -0.632811,0.53124 -0.812498,0.72265 -0.179687,0.1875 -0.296874,0.37891 z"
       style="font-size:7.99997997px;font-family:Arial;fill:#000000;stroke-width:1.33333004"
       id="path5571"
       inkscape:connector-curvature="0" />
    <path
       d="m 45.165748,285.04588 q 0,-1.90104 1.020831,-2.97395 1.020831,-1.07813 2.63541,-1.07813 1.057289,0 1.906246,0.50521 0.848956,0.50521 1.291663,1.41146 0.447916,0.90104 0.447916,2.04687 0,1.16145 -0.468749,2.07812 -0.468749,0.91666 -1.328122,1.39062 -0.859373,0.46875 -1.854162,0.46875 -1.078122,0 -1.927079,-0.52084 -0.848956,-0.52083 -1.286455,-1.42187 -0.437499,-0.90104 -0.437499,-1.90624 z m 1.041664,0.0156 q 0,1.38021 0.739582,2.17708 0.74479,0.79166 1.864579,0.79166 1.140622,0 1.874995,-0.80208 0.739581,-0.80208 0.739581,-2.27603 0,-0.93229 -0.317707,-1.625 -0.312499,-0.69791 -0.921873,-1.07812 -0.604165,-0.38542 -1.359371,-0.38542 -1.072914,0 -1.848954,0.73958 -0.770832,0.73438 -0.770832,2.45833 z"
       style="font-size:10.66664028px;font-family:Arial;fill:#000000;stroke-width:1.33333004"
       id="path5573"
       inkscape:connector-curvature="0" />
  </g>
  <g
     aria-label="2-F-Py"
     style="font-size:15.99995995px;text-anchor:start;stroke-width:1.33333004;text-rendering:geometricPrecision"
     id="text24">
    <path
       d="m 35.420981,303.3702 v 0.90104 h -5.046862 q -0.01042,-0.33854 0.109374,-0.65104 0.192708,-0.51562 0.614582,-1.01562 0.427082,-0.5 1.229164,-1.15625 1.244788,-1.02083 1.682287,-1.61458 0.437499,-0.59896 0.437499,-1.1302 0,-0.55729 -0.40104,-0.9375 -0.395833,-0.38542 -1.036456,-0.38542 -0.677082,0 -1.083331,0.40625 -0.406249,0.40625 -0.411457,1.125 l -0.963539,-0.099 q 0.09896,-1.07812 0.744789,-1.64062 0.645832,-0.56771 1.734371,-0.56771 1.098956,0 1.739579,0.60938 0.640624,0.60937 0.640624,1.51041 0,0.45833 -0.1875,0.90104 -0.1875,0.44271 -0.624998,0.93229 -0.432291,0.48958 -1.442705,1.34374 -0.843748,0.70834 -1.083331,0.96354 -0.239583,0.25 -0.395832,0.50521 z"
       style="font-size:10.66664028px;font-family:Arial;fill:#000000;stroke-width:1.33333004"
       id="path5554"
       inkscape:connector-curvature="0" />
    <path
       d="m 36.327229,301.97958 v -0.94271 h 2.880201 v 0.94271 z"
       style="font-size:10.66664028px;font-family:Arial;fill:#000000;stroke-width:1.33333004"
       id="path5556"
       inkscape:connector-curvature="0" />
    <path
       d="m 40.426177,304.27124 v -7.6354 h 5.151029 v 0.90104 h -4.140615 v 2.36458 h 3.583324 v 0.90104 h -3.583324 v 3.46874 z"
       style="font-size:10.66664028px;font-family:Arial;fill:#000000;stroke-width:1.33333004"
       id="path5558"
       inkscape:connector-curvature="0" />
    <path
       d="m 46.410538,301.97958 v -0.94271 h 2.880201 v 0.94271 z"
       style="font-size:10.66664028px;font-family:Arial;fill:#000000;stroke-width:1.33333004"
       id="path5560"
       inkscape:connector-curvature="0" />
    <path
       d="m 50.457402,304.27124 v -7.6354 h 2.880201 q 0.760415,0 1.161455,0.0729 0.562499,0.0937 0.942706,0.35937 0.380208,0.26042 0.609374,0.73438 0.234374,0.47395 0.234374,1.04166 0,0.97396 -0.61979,1.65104 -0.61979,0.67187 -2.239578,0.67187 h -1.958328 v 3.10416 z m 1.010414,-4.0052 h 1.973953 q 0.979165,0 1.390622,-0.36458 0.411457,-0.36458 0.411457,-1.02604 0,-0.47917 -0.244791,-0.81771 -0.239583,-0.34375 -0.635415,-0.45312 -0.255208,-0.0677 -0.942706,-0.0677 h -1.95312 z"
       style="font-size:10.66664028px;font-family:Arial;fill:#000000;stroke-width:1.33333004"
       id="path5562"
       inkscape:connector-curvature="0" />
    <path
       d="m 57.420927,306.40144 -0.104167,-0.8802 q 0.307291,0.0833 0.536457,0.0833 0.3125,0 0.499999,-0.10417 0.1875,-0.10416 0.307291,-0.29166 0.08854,-0.14063 0.286458,-0.69792 0.02604,-0.0781 0.08333,-0.22916 L 56.931345,298.74 h 1.010414 l 1.151039,3.20312 q 0.223957,0.60937 0.40104,1.28125 0.161458,-0.64583 0.385416,-1.26042 L 61.061543,298.74 h 0.937497 l -2.104161,5.62499 q -0.338541,0.91146 -0.52604,1.25521 -0.25,0.46354 -0.572916,0.67708 -0.322916,0.21875 -0.770831,0.21875 -0.270833,0 -0.604165,-0.11459 z"
       style="font-size:10.66664028px;font-family:Arial;fill:#000000;stroke-width:1.33333004"
       id="path5564"
       inkscape:connector-curvature="0" />
  </g>
  <path
     style="fill:#009d73;fill-rule:evenodd;stroke:#009d73;stroke-width:0;stroke-linejoin:miter;shape-rendering:geometricPrecision"
     inkscape:connector-curvature="0"
     id="path28"
     d="m 208.62409,366.1511 v 0 0.38666 0.38667 l -4.67999,2.70666 -0.16,-0.29333 -0.17333,-0.29334 z" />
  <g
     aria-label="R1"
     style="font-size:15.99995995px;text-anchor:end;stroke-width:1.33333004;text-rendering:geometricPrecision"
     id="text35"
     transform="translate(-2)">
    <path
       d="m 194.35456,378.40442 v -7.6354 h 3.3854 q 1.02084,0 1.55208,0.20833 0.53125,0.20313 0.84896,0.72396 0.31771,0.52083 0.31771,1.15104 0,0.8125 -0.52604,1.36979 -0.52604,0.55729 -1.625,0.70833 0.40104,0.19271 0.60937,0.38021 0.44271,0.40625 0.83854,1.01562 l 1.32813,2.07812 h -1.27083 l -1.01042,-1.58854 q -0.44271,-0.6875 -0.72916,-1.05208 -0.28646,-0.36458 -0.51563,-0.51041 -0.22395,-0.14584 -0.45833,-0.20313 -0.17187,-0.0365 -0.5625,-0.0365 h -1.17187 v 3.39062 z m 1.01041,-4.26562 h 2.17187 q 0.69271,0 1.08333,-0.14062 0.39062,-0.14583 0.59375,-0.45833 0.20312,-0.31771 0.20312,-0.6875 0,-0.54167 -0.39583,-0.89062 -0.39062,-0.34896 -1.23958,-0.34896 h -2.41666 z"
       style="font-size:10.66664028px;font-family:Arial;fill:#009d73;stroke-width:1.33333004"
       id="path5549"
       inkscape:connector-curvature="0" />
    <path
       d="m 204.20479,374.05776 h -0.70312 v -4.48045 q -0.25391,0.24218 -0.66797,0.48437 -0.41015,0.24219 -0.73828,0.36328 v -0.67969 q 0.58984,-0.27734 1.03125,-0.67187 0.4414,-0.39453 0.625,-0.76562 h 0.45312 z"
       style="font-size:7.99997997px;font-family:Arial;fill:#009d73;stroke-width:1.33333004"
       id="path5551"
       inkscape:connector-curvature="0" />
  </g>
  <path
     style="fill:#009d73;fill-rule:evenodd;stroke:#009d73;stroke-width:0;stroke-linejoin:miter;shape-rendering:geometricPrecision"
     inkscape:connector-curvature="0"
     id="path39"
     d="m 226.61071,371.88442 v 0 l -0.16,-0.29334 -0.17333,-0.29333 4.33332,-2.49333 0.16,0.29334 0.17333,0.29333 z" />
  <g
     aria-label="R2"
     style="font-size:15.99995995px;text-anchor:start;stroke-width:1.33333004;text-rendering:geometricPrecision"
     id="text47"
     transform="translate(-2)">
    <path
       d="m 234.18258,370.73776 v -7.6354 h 3.38541 q 1.02083,0 1.55208,0.20834 0.53125,0.20312 0.84895,0.72395 0.31771,0.52084 0.31771,1.15104 0,0.8125 -0.52604,1.36979 -0.52604,0.55729 -1.625,0.70833 0.40105,0.19271 0.60938,0.38021 0.44271,0.40625 0.83854,1.01562 l 1.32812,2.07812 h -1.27083 l -1.01041,-1.58854 q -0.44271,-0.68749 -0.72917,-1.05208 -0.28646,-0.36458 -0.51562,-0.51041 -0.22396,-0.14583 -0.45834,-0.20313 -0.17187,-0.0365 -0.56249,-0.0365 h -1.17188 v 3.39061 z m 1.01041,-4.26561 h 2.17187 q 0.69271,0 1.08333,-0.14063 0.39063,-0.14583 0.59375,-0.45833 0.20313,-0.31771 0.20313,-0.6875 0,-0.54166 -0.39584,-0.89062 -0.39062,-0.34896 -1.23958,-0.34896 h -2.41666 z"
       style="font-size:10.66664028px;font-family:Arial;fill:#009d73;stroke-width:1.33333004"
       id="path5544"
       inkscape:connector-curvature="0" />
    <path
       d="m 245.07969,365.71533 v 0.67578 h -3.78515 q -0.008,-0.25391 0.082,-0.48828 0.14453,-0.38672 0.46094,-0.76172 0.32031,-0.375 0.92187,-0.86719 0.93359,-0.76562 1.26172,-1.21093 0.32812,-0.44922 0.32812,-0.84765 0,-0.41797 -0.30078,-0.70313 -0.29687,-0.28906 -0.77734,-0.28906 -0.50781,0 -0.8125,0.30469 -0.30469,0.30468 -0.30859,0.84375 l -0.72266,-0.0742 q 0.0742,-0.80859 0.5586,-1.23047 0.48437,-0.42578 1.30077,-0.42578 0.82422,0 1.30469,0.45703 0.48047,0.45703 0.48047,1.13281 0,0.34375 -0.14063,0.67578 -0.14062,0.33203 -0.46875,0.69922 -0.32422,0.36718 -1.08203,1.00781 -0.63281,0.53125 -0.81249,0.72265 -0.17969,0.1875 -0.29688,0.37891 z"
       style="font-size:7.99997997px;font-family:Arial;fill:#009d73;stroke-width:1.33333004"
       id="path5546"
       inkscape:connector-curvature="0" />
  </g>
  <path
     style="fill:#009d73;fill-rule:evenodd;stroke:#009d73;stroke-width:0;stroke-linejoin:miter;shape-rendering:geometricPrecision"
     inkscape:connector-curvature="0"
     id="path51"
     d="m 217.61073,371.32442 v 0 l -0.17333,0.29333 -0.16,0.30667 -8.65331,-4.99999 v -0.38667 -0.38666 z" />
  <path
     style="stroke:#009d73;stroke-width:0.67999828;shape-rendering:auto"
     d="m 218.49074,369.80444 -8.81331,-5.09335"
     id="line53"
     inkscape:connector-curvature="0" />
  <g
     aria-label="N"
     style="font-size:15.99995995px;text-anchor:start;stroke-width:1.33333004;text-rendering:geometricPrecision"
     id="text59"
     transform="translate(-2)">
    <path
       d="m 220.86323,378.40442 v -7.6354 h 1.03646 l 4.01041,5.99478 v -5.99478 h 0.96874 v 7.6354 h -1.03645 l -4.01041,-5.99999 v 5.99999 z"
       style="font-size:10.66664028px;font-family:Arial;fill:#009d73;stroke-width:1.33333004"
       id="path5540"
       inkscape:connector-curvature="0" />
  </g>
  <g
     aria-label="Et3SiH"
     style="font-size:15.99995995px;text-anchor:start;stroke-width:1.33333004;text-rendering:geometricPrecision"
     id="text69">
    <path
       d="m 133.6147,360.2178 v -7.63539 h 5.52082 v 0.90104 h -4.51041 v 2.33853 h 4.22395 v 0.89583 h -4.22395 v 2.59895 h 4.68749 v 0.90104 z"
       style="font-size:10.66664028px;font-family:Arial;fill:#000000;stroke-width:1.33333004"
       id="path5527"
       inkscape:connector-curvature="0" />
    <path
       d="m 142.64593,359.37926 0.13541,0.82813 q -0.39583,0.0833 -0.70833,0.0833 -0.51041,0 -0.79166,-0.16146 -0.28125,-0.16146 -0.39584,-0.42187 -0.11458,-0.26563 -0.11458,-1.10937 v -3.18229 h -0.6875 v -0.72916 h 0.6875 v -1.36979 l 0.93229,-0.5625 v 1.93229 h 0.94271 v 0.72916 h -0.94271 v 3.23437 q 0,0.40104 0.0469,0.51562 0.0521,0.11459 0.16146,0.18229 0.11459,0.0677 0.32292,0.0677 0.15625,0 0.41146,-0.0365 z"
       style="font-size:10.66664028px;font-family:Arial;fill:#000000;stroke-width:1.33333004"
       id="path5529"
       inkscape:connector-curvature="0" />
    <path
       d="m 143.1902,361.11942 0.70312,-0.0937 q 0.12109,0.59765 0.41015,0.86328 0.29297,0.26171 0.71094,0.26171 0.49609,0 0.83593,-0.34375 0.34375,-0.34374 0.34375,-0.85156 0,-0.48437 -0.3164,-0.79687 -0.31641,-0.3164 -0.80469,-0.3164 -0.19922,0 -0.49609,0.0781 l 0.0781,-0.61719 q 0.0703,0.008 0.11328,0.008 0.44921,0 0.80859,-0.23438 0.35937,-0.23437 0.35937,-0.72265 0,-0.38672 -0.26172,-0.64063 -0.26171,-0.2539 -0.67578,-0.2539 -0.41015,0 -0.68359,0.25781 -0.27343,0.25781 -0.35156,0.77344 l -0.70312,-0.125 q 0.1289,-0.70703 0.58593,-1.09375 0.45703,-0.39062 1.13672,-0.39062 0.46875,0 0.86328,0.20312 0.39453,0.19922 0.60156,0.54687 0.21094,0.34766 0.21094,0.73828 0,0.3711 -0.19922,0.67578 -0.19922,0.30469 -0.58984,0.48438 0.50781,0.11718 0.78906,0.48828 0.28125,0.36718 0.28125,0.92187 0,0.75 -0.54688,1.27343 -0.54687,0.51953 -1.38281,0.51953 -0.7539,0 -1.2539,-0.44921 -0.49609,-0.44922 -0.5664,-1.16406 z"
       style="font-size:7.99997997px;font-family:Arial;fill:#000000;stroke-width:1.33333004"
       id="path5531"
       inkscape:connector-curvature="0" />
    <path
       d="m 147.78654,357.76469 0.95312,-0.0833 q 0.0677,0.57292 0.3125,0.94271 0.25,0.36458 0.77083,0.59375 0.52083,0.22395 1.17187,0.22395 0.57813,0 1.02083,-0.17187 0.44271,-0.17187 0.65625,-0.46875 0.21875,-0.30208 0.21875,-0.65625 0,-0.35937 -0.20833,-0.625 -0.20833,-0.27083 -0.6875,-0.45312 -0.30729,-0.11979 -1.35937,-0.36979 -1.05208,-0.25521 -1.47395,-0.47917 -0.54688,-0.28645 -0.81771,-0.70833 -0.26563,-0.42708 -0.26563,-0.95312 0,-0.57812 0.32813,-1.07812 0.32812,-0.50521 0.95833,-0.76563 0.63021,-0.26041 1.40104,-0.26041 0.84895,0 1.49479,0.27604 0.65104,0.27083 0.99999,0.80208 0.34896,0.53125 0.375,1.20312 l -0.96875,0.0729 q -0.0781,-0.72396 -0.53124,-1.09375 -0.44792,-0.36979 -1.32813,-0.36979 -0.91666,0 -1.33853,0.33854 -0.41667,0.33333 -0.41667,0.80729 0,0.41146 0.29687,0.67708 0.29167,0.26563 1.52083,0.54688 1.23438,0.27604 1.69271,0.48437 0.66666,0.30729 0.98437,0.78125 0.31771,0.46875 0.31771,1.08333 0,0.60937 -0.34896,1.15104 -0.34896,0.53646 -1.0052,0.83854 -0.65104,0.29687 -1.46875,0.29687 -1.03646,0 -1.73958,-0.30208 -0.69792,-0.30208 -1.09896,-0.90625 -0.39583,-0.60937 -0.41666,-1.37499 z"
       style="font-size:10.66664028px;font-family:Arial;fill:#000000;stroke-width:1.33333004"
       id="path5533"
       inkscape:connector-curvature="0" />
    <path
       d="m 155.14069,353.66053 v -1.07812 h 0.9375 v 1.07812 z m 0,6.55727 v -5.53123 h 0.9375 v 5.53123 z"
       style="font-size:10.66664028px;font-family:Arial;fill:#000000;stroke-width:1.33333004"
       id="path5535"
       inkscape:connector-curvature="0" />
    <path
       d="m 157.66151,360.2178 v -7.63539 h 1.01042 v 3.13541 h 3.96874 v -3.13541 h 1.01041 v 7.63539 h -1.01041 v -3.59895 h -3.96874 v 3.59895 z"
       style="font-size:10.66664028px;font-family:Arial;fill:#000000;stroke-width:1.33333004"
       id="path5537"
       inkscape:connector-curvature="0" />
  </g>
  <g
     aria-label="R1"
     style="font-size:15.99995995px;text-anchor:end;stroke-width:1.33333004;text-rendering:geometricPrecision"
     id="text77">
    <path
       d="m 99.32812,300.01791 v -7.63539 h 3.38541 q 1.02083,0 1.55208,0.20833 0.53125,0.20312 0.84895,0.72396 0.31771,0.52083 0.31771,1.15103 0,0.8125 -0.52604,1.36979 -0.52604,0.55729 -1.62499,0.70833 0.40104,0.19271 0.60937,0.38021 0.44271,0.40625 0.83854,1.01562 l 1.32812,2.07812 h -1.27083 l -1.01041,-1.58853 q -0.44271,-0.6875 -0.72917,-1.05208 -0.28646,-0.36459 -0.51562,-0.51042 -0.22396,-0.14583 -0.45834,-0.20312 -0.17187,-0.0365 -0.56249,-0.0365 h -1.17188 v 3.39061 z m 1.01041,-4.26561 h 2.17187 q 0.69271,0 1.08333,-0.14063 0.39063,-0.14583 0.59375,-0.45833 0.20313,-0.31771 0.20313,-0.6875 0,-0.54166 -0.39583,-0.89062 -0.39063,-0.34896 -1.23959,-0.34896 h -2.41666 z"
       style="font-size:10.66664028px;font-family:Arial;fill:#009d73;stroke-width:1.33333004"
       id="path5522"
       inkscape:connector-curvature="0" />
    <path
       d="m 109.17836,295.67126 h -0.70313 v -4.48046 q -0.2539,0.24219 -0.66796,0.48437 -0.41016,0.24219 -0.73828,0.36328 v -0.67968 q 0.58984,-0.27734 1.03124,-0.67187 0.44141,-0.39453 0.625,-0.76563 h 0.45313 z"
       style="font-size:7.99997997px;font-family:Arial;fill:#009d73;stroke-width:1.33333004"
       id="path5524"
       inkscape:connector-curvature="0" />
  </g>
  <path
     style="fill:#009d73;fill-rule:evenodd;stroke:#009d73;stroke-width:0;stroke-linejoin:miter;shape-rendering:geometricPrecision"
     inkscape:connector-curvature="0"
     id="path81"
     d="m 105.47768,298.03127 v 0 l 0.17334,-0.29334 0.16,-0.29333 9.95997,5.74665 -0.17333,0.29334 -0.17334,0.29333 z" />
  <g
     aria-label="N"
     style="font-size:15.99995995px;text-anchor:start;stroke-width:1.33333004;text-rendering:geometricPrecision"
     id="text87">
    <path
       d="m 125.82348,315.35123 v -7.6354 h 1.03645 l 4.01041,5.99478 v -5.99478 h 0.96875 v 7.6354 h -1.03646 l -4.01041,-5.99999 v 5.99999 z"
       style="font-size:10.66664028px;font-family:Arial;fill:#009d73;stroke-width:1.33333004"
       id="path5519"
       inkscape:connector-curvature="0" />
  </g>
  <path
     style="fill:#009d73;fill-rule:evenodd;stroke:#009d73;stroke-width:0;stroke-linejoin:miter;shape-rendering:geometricPrecision"
     inkscape:connector-curvature="0"
     id="path91"
     d="m 115.42432,303.77792 v 0 l 0.17334,-0.29333 0.17333,-0.29334 8.77331,5.06666 -0.17333,0.29333 -0.16,0.29333 z" />
  <path
     style="stroke:#009d73;stroke-width:0.67999828;shape-rendering:auto"
     d="m 114.22433,305.87125 8.7733,5.06665"
     id="line93" />
  <path
     style="stroke:#009d73;stroke-width:0.67999828;shape-rendering:auto"
     d="m 116.97099,301.09793 8.78664,5.06665"
     id="line95" />
  <g
     aria-label="R2"
     style="font-size:15.99995995px;text-anchor:start;stroke-width:1.33333004;text-rendering:geometricPrecision"
     id="text103">
    <path
       d="m 139.12948,323.01788 v -7.63539 h 3.38541 q 1.02083,0 1.55208,0.20833 0.53125,0.20312 0.84895,0.72395 0.31771,0.52084 0.31771,1.15104 0,0.8125 -0.52604,1.36979 -0.52604,0.55729 -1.625,0.70833 0.40104,0.19271 0.60938,0.38021 0.4427,0.40625 0.83854,1.01562 l 1.32812,2.07812 h -1.27083 l -1.01042,-1.58853 q -0.4427,-0.6875 -0.72916,-1.05209 -0.28646,-0.36458 -0.51562,-0.51041 -0.22396,-0.14583 -0.45834,-0.20313 -0.17187,-0.0365 -0.56249,-0.0365 h -1.17188 v 3.39061 z m 1.01041,-4.26561 h 2.17187 q 0.69271,0 1.08333,-0.14063 0.39063,-0.14583 0.59375,-0.45833 0.20313,-0.31771 0.20313,-0.6875 0,-0.54166 -0.39584,-0.89062 -0.39062,-0.34896 -1.23958,-0.34896 h -2.41666 z"
       style="font-size:10.66664028px;font-family:Arial;fill:#009d73;stroke-width:1.33333004"
       id="path5512"
       inkscape:connector-curvature="0" />
    <path
       d="m 150.02659,317.99545 v 0.67578 h -3.78515 q -0.008,-0.25391 0.082,-0.48828 0.14453,-0.38672 0.46094,-0.76172 0.32031,-0.375 0.92187,-0.86718 0.93359,-0.76563 1.26172,-1.21094 0.32812,-0.44922 0.32812,-0.84765 0,-0.41797 -0.30078,-0.70313 -0.29687,-0.28906 -0.77734,-0.28906 -0.50781,0 -0.8125,0.30469 -0.30469,0.30469 -0.30859,0.84375 l -0.72266,-0.0742 q 0.0742,-0.80859 0.5586,-1.23047 0.48437,-0.42578 1.30077,-0.42578 0.82422,0 1.30469,0.45703 0.48046,0.45703 0.48046,1.13281 0,0.34375 -0.14062,0.67578 -0.14062,0.33203 -0.46875,0.69922 -0.32422,0.36718 -1.08203,1.00781 -0.63281,0.53125 -0.8125,0.72265 -0.17968,0.1875 -0.29687,0.37891 z"
       style="font-size:7.99997997px;font-family:Arial;fill:#009d73;stroke-width:1.33333004"
       id="path5514"
       inkscape:connector-curvature="0" />
  </g>
  <path
     style="fill:#009d73;fill-rule:evenodd;stroke:#009d73;stroke-width:0;stroke-linejoin:miter;shape-rendering:geometricPrecision"
     inkscape:connector-curvature="0"
     id="path107"
     d="m 133.21095,314.04456 v 0 l 0.17333,-0.29333 0.16,-0.29333 4.33332,2.49332 -0.17333,0.29334 -0.16,0.30666 z" />
  <path
     style="fill:none;stroke:#009d73;stroke-width:0.54399866"
     d="m 140.16649,303.41791 a 3.5555468,3.5555468 0 0 1 -3.55554,3.55554 3.5555468,3.5555468 0 0 1 -3.55555,-3.55554 3.5555468,3.5555468 0 0 1 3.55555,-3.55555 3.5555468,3.5555468 0 0 1 3.55554,3.55555 z"
     id="circle111" />
  <path
     style="stroke:#009d73;stroke-width:0.54399866;shape-rendering:auto"
     d="m 134.49095,303.41791 h 4.23999"
     id="line113" />
  <path
     style="stroke:#009d73;stroke-width:0.54399866;shape-rendering:auto"
     d="m 136.61095,301.29794 v 4.23996"
     id="line115" />
  <g
     aria-label="OTf"
     style="font-size:15.99995995px;text-anchor:start;stroke-width:1.33333004;text-rendering:geometricPrecision"
     id="text120">
    <path
       d="m 112.37995,326.1258 q 0,-1.90103 1.02083,-2.97395 1.02083,-1.07812 2.63541,-1.07812 1.05729,0 1.90625,0.50521 0.84895,0.5052 1.29166,1.41145 0.44792,0.90104 0.44792,2.04687 0,1.16146 -0.46875,2.07812 -0.46875,0.91667 -1.32813,1.39062 -0.85937,0.46875 -1.85416,0.46875 -1.07812,0 -1.92708,-0.52083 -0.84895,-0.52083 -1.28645,-1.42187 -0.4375,-0.90104 -0.4375,-1.90625 z m 1.04166,0.0156 q 0,1.3802 0.73959,2.17708 0.74479,0.79166 1.86457,0.79166 1.14063,0 1.875,-0.80208 0.73958,-0.80208 0.73958,-2.27604 0,-0.93229 -0.31771,-1.62499 -0.3125,-0.69792 -0.92187,-1.07813 -0.60416,-0.38541 -1.35937,-0.38541 -1.07291,0 -1.84895,0.73958 -0.77084,0.73437 -0.77084,2.45833 z"
       style="font-size:10.66664028px;font-family:Arial;fill:#000000;stroke-width:1.33333004"
       id="path5502"
       inkscape:connector-curvature="0" />
    <path
       d="m 122.92159,329.84454 v -6.73435 h -2.51562 v -0.90104 h 6.05207 v 0.90104 H 123.932 v 6.73435 z"
       style="font-size:10.66664028px;font-family:Arial;fill:#000000;stroke-width:1.33333004"
       id="path5504"
       inkscape:connector-curvature="0" />
    <path
       d="m 127.60387,329.84454 v -4.80207 h -0.82812 v -0.72916 h 0.82812 v -0.58854 q 0,-0.55729 0.099,-0.82813 0.13542,-0.36458 0.47396,-0.58854 0.34375,-0.22916 0.95833,-0.22916 0.39583,0 0.875,0.0937 l -0.14063,0.8177 q -0.29167,-0.0521 -0.55208,-0.0521 -0.42708,0 -0.60417,0.18229 -0.17708,0.18229 -0.17708,0.68229 v 0.51042 h 1.07812 v 0.72916 h -1.07812 v 4.80207 z"
       style="font-size:10.66664028px;font-family:Arial;fill:#000000;stroke-width:1.33333004"
       id="path5506"
       inkscape:connector-curvature="0" />
  </g>
  <path
     style="fill:none;stroke:#000000;stroke-width:0.54399866"
     d="m 111.87322,318.15121 a 3.5555468,3.5555468 0 0 1 -3.55555,3.55555 3.5555468,3.5555468 0 0 1 -3.55554,-3.55555 3.5555468,3.5555468 0 0 1 3.55554,-3.55554 3.5555468,3.5555468 0 0 1 3.55555,3.55554 z"
     id="circle124" />
  <path
     style="stroke:#000000;stroke-width:0.54399866;shape-rendering:auto"
     d="m 106.19768,318.15121 h 4.23997"
     id="line126" />
  <path
     style="fill:none;fill-rule:evenodd;stroke:#000000;stroke-width:0.67999828;stroke-linejoin:miter;shape-rendering:geometricPrecision"
     inkscape:connector-curvature="0"
     id="path129"
     d="m 149.70424,283.20464 h 4.15999 v 50.4932 h -4.15999" />
  <path
     style="fill:none;fill-rule:evenodd;stroke:#000000;stroke-width:0.67999828;stroke-linejoin:miter;shape-rendering:geometricPrecision"
     inkscape:connector-curvature="0"
     id="path132"
     d="m 97.157701,333.69784 h -4.15999 v -50.4932 h 4.15999" />
  <g
     aria-label="R1"
     style="font-size:15.99995995px;text-anchor:end;stroke-width:1.33333004;text-rendering:geometricPrecision"
     id="text140">
    <path
       d="m -43.924863,317.68454 v -7.6354 h 3.385408 q 1.020831,0 1.55208,0.20833 0.531248,0.20313 0.848956,0.72396 0.317708,0.52083 0.317708,1.15104 0,0.8125 -0.526041,1.36979 -0.52604,0.55729 -1.624996,0.70833 0.401041,0.19271 0.609374,0.38021 0.442707,0.40625 0.838539,1.01562 l 1.328122,2.07812 h -1.27083 l -1.010414,-1.58854 q -0.442708,-0.6875 -0.729165,-1.05208 -0.286458,-0.36458 -0.515624,-0.51041 -0.223958,-0.14584 -0.458332,-0.20313 -0.171875,-0.0365 -0.562499,-0.0365 h -1.171872 v 3.39062 z m 1.010414,-4.26561 h 2.17187 q 0.692706,0 1.08333,-0.14063 0.390624,-0.14583 0.593749,-0.45833 0.203124,-0.31771 0.203124,-0.6875 0,-0.54167 -0.395832,-0.89062 -0.390624,-0.34896 -1.23958,-0.34896 h -2.416661 z"
       style="font-size:10.66664028px;font-family:Arial;fill:#009d73;stroke-width:1.33333004"
       id="path5495"
       inkscape:connector-curvature="0" />
    <path
       d="m -34.074627,313.33788 h -0.703123 v -4.48045 q -0.253906,0.24218 -0.667967,0.48437 -0.410155,0.24219 -0.73828,0.36328 v -0.67969 q 0.589843,-0.27734 1.031248,-0.67187 0.441405,-0.39453 0.624998,-0.76562 h 0.453124 z"
       style="font-size:7.99997997px;font-family:Arial;fill:#009d73;stroke-width:1.33333004"
       id="path5497"
       inkscape:connector-curvature="0" />
  </g>
  <path
     style="fill:#009d73;fill-rule:evenodd;stroke:#009d73;stroke-width:0;stroke-linejoin:miter;shape-rendering:geometricPrecision"
     inkscape:connector-curvature="0"
     id="path144"
     d="m -32.321976,308.91124 v 0 l -0.159999,-0.29333 -0.173333,-0.30667 5.013321,-2.87999 v 0.38666 0.38667 z" />
  <g
     aria-label="NH"
     style="font-size:15.99995995px;text-anchor:start;stroke-width:1.33333004;text-rendering:geometricPrecision"
     id="text152">
    <path
       d="m -17.402847,317.68454 v -7.6354 h 1.036455 l 4.010407,5.99478 v -5.99478 h 0.968748 v 7.6354 h -1.036456 l -4.010407,-5.99999 v 5.99999 z"
       style="font-size:10.66664028px;font-family:Arial;fill:#009d73;stroke-width:1.33333004"
       id="path5490"
       inkscape:connector-curvature="0" />
    <path
       d="m -17.361181,328.3512 v -7.6354 h 1.010414 v 3.13541 h 3.968741 v -3.13541 h 1.010414 v 7.6354 h -1.010414 v -3.59895 h -3.968741 v 3.59895 z"
       style="font-size:10.66664028px;font-family:Arial;fill:#000000;stroke-width:1.33333004"
       id="path5492"
       inkscape:connector-curvature="0" />
  </g>
  <path
     style="fill:#009d73;fill-rule:evenodd;stroke:#009d73;stroke-width:0;stroke-linejoin:miter;shape-rendering:geometricPrecision"
     inkscape:connector-curvature="0"
     id="path156"
     d="m -27.641987,306.20458 v 0 -0.38667 -0.38666 l 8.986644,5.17332 -0.173333,0.29333 -0.16,0.30667 z" />
  <g
     aria-label="O"
     style="font-size:15.99995995px;text-anchor:start;stroke-width:1.33333004;text-rendering:geometricPrecision"
     id="text162">
    <path
       d="m -31.259687,290.95252 q 0,-1.90103 1.020831,-2.97395 1.020831,-1.07812 2.63541,-1.07812 1.057289,0 1.906245,0.50521 0.848957,0.5052 1.291664,1.41145 0.447915,0.90104 0.447915,2.04687 0,1.16146 -0.468748,2.07812 -0.468749,0.91667 -1.328122,1.39062 -0.859373,0.46875 -1.854162,0.46875 -1.078122,0 -1.927079,-0.52083 -0.848956,-0.52083 -1.286455,-1.42187 -0.437499,-0.90104 -0.437499,-1.90625 z m 1.041664,0.0156 q 0,1.3802 0.739582,2.17708 0.74479,0.79166 1.864579,0.79166 1.140622,0 1.874995,-0.80208 0.739581,-0.80208 0.739581,-2.27604 0,-0.93229 -0.317707,-1.62499 -0.312499,-0.69792 -0.921873,-1.07812 -0.604165,-0.38542 -1.359372,-0.38542 -1.072914,0 -1.848953,0.73958 -0.770832,0.73437 -0.770832,2.45833 z"
       style="font-size:10.66664028px;font-family:Arial;fill:#000000;stroke-width:1.33333004"
       id="path5487"
       inkscape:connector-curvature="0" />
  </g>
  <path
     style="fill:#000000;fill-rule:evenodd;stroke:#000000;stroke-width:0;stroke-linejoin:miter;shape-rendering:geometricPrecision"
     inkscape:connector-curvature="0"
     id="path168"
     d="m -26.60199,306.03125 v 0 l 0.679998,0.38666 v -9.78664 h -0.679998 z" />
  <path
     style="fill:#000000;fill-rule:evenodd;stroke:#000000;stroke-width:0;stroke-linejoin:miter;shape-rendering:geometricPrecision"
     inkscape:connector-curvature="0"
     id="path170"
     d="m -29.361983,306.41791 v 0 l 0.679998,-0.38666 v -9.39998 h -0.679998 z" />
  <g
     aria-label="R2"
     style="font-size:15.99995995px;text-anchor:start;stroke-width:1.33333004;text-rendering:geometricPrecision"
     id="text178">
    <path
       d="m -4.0968394,310.01791 v -7.63539 h 3.38540826 q 1.0208308,0 1.55207949,0.20833 0.53124865,0.20312 0.84895625,0.72396 0.3177075,0.52083 0.3177075,1.15103 0,0.8125 -0.5260403,1.36979 -0.5260404,0.55729 -1.62499601,0.70833 0.40104067,0.19271 0.60937349,0.38021 0.44270724,0.40625 0.83853962,1.01562 l 1.3281217,2.07812 H 1.3614804 l -1.01041417,-1.58853 q -0.44270724,-0.6875 -0.72916486,-1.05208 -0.28645763,-0.36459 -0.51562373,-0.51042 -0.22395774,-0.14583 -0.45833224,-0.20312 -0.1718745,-0.0365 -0.5624986,-0.0365 h -1.1718721 v 3.39061 z m 1.0104141,-4.26561 h 2.17186966 q 0.69270662,0 1.08333065,-0.14063 0.39062404,-0.14583 0.59374853,-0.45833 0.2031245,-0.31771 0.2031245,-0.6875 0,-0.54166 -0.39583235,-0.89062 -0.39062404,-0.34896 -1.23958027,-0.34896 H -3.0864253 Z"
       style="font-size:10.66664028px;font-family:Arial;fill:#009d73;stroke-width:1.33333004"
       id="path5481"
       inkscape:connector-curvature="0" />
    <path
       d="m 6.8002691,304.99548 v 0.67578 H 3.0151223 q -0.00781,-0.25391 0.082031,-0.48828 0.1445309,-0.38672 0.4609364,-0.76172 0.3203117,-0.375 0.9218727,-0.86718 0.9335914,-0.76563 1.2617156,-1.21094 0.3281241,-0.44922 0.3281241,-0.84765 0,-0.41797 -0.3007805,-0.70313 -0.2968742,-0.28906 -0.7773418,-0.28906 -0.5078112,0 -0.8124979,0.30469 -0.3046868,0.30469 -0.308593,0.84375 l -0.7226544,-0.0742 q 0.074219,-0.80859 0.5585923,-1.23047 0.4843738,-0.42578 1.300778,-0.42578 0.8242167,0 1.3046842,0.45703 0.4804676,0.45703 0.4804676,1.13281 0,0.34375 -0.1406247,0.67578 -0.1406246,0.33203 -0.4687488,0.69922 -0.3242179,0.36719 -1.0820285,1.00781 -0.632811,0.53125 -0.812498,0.72265 -0.1796871,0.1875 -0.2968743,0.37891 z"
       style="font-size:7.99997997px;font-family:Arial;fill:#009d73;stroke-width:1.33333004"
       id="path5483"
       inkscape:connector-curvature="0" />
  </g>
  <path
     style="fill:#009d73;fill-rule:evenodd;stroke:#009d73;stroke-width:0;stroke-linejoin:miter;shape-rendering:geometricPrecision"
     inkscape:connector-curvature="0"
     id="path182"
     d="m -9.6553663,311.16457 v 0 l -0.159999,-0.29333 -0.173333,-0.29334 4.3333223,-2.50666 0.1599996,0.29333 0.1733329,0.30667 z" />
  <path
     style="fill:#009d73;fill-rule:evenodd;stroke:#009d73;stroke-width:0;stroke-linejoin:miter;shape-rendering:geometricPrecision"
     inkscape:connector-curvature="0"
     id="path186"
     d="m 207.66409,255.77804 v 0 l 0.33333,0.2 v 0.38667 l -4.71999,2.71999 -0.16,-0.29333 -0.17333,-0.29333 z" />
  <g
     aria-label="R1"
     style="font-size:15.99995995px;text-anchor:end;stroke-width:1.33333004;text-rendering:geometricPrecision"
     id="text194"
     transform="translate(-2)">
    <path
       d="m 193.71454,267.8447 v -7.6354 h 3.38541 q 1.02083,0 1.55208,0.20833 0.53125,0.20313 0.84896,0.72396 0.3177,0.52083 0.3177,1.15104 0,0.81249 -0.52604,1.36978 -0.52604,0.5573 -1.62499,0.70834 0.40104,0.1927 0.60937,0.3802 0.44271,0.40625 0.83854,1.01563 l 1.32812,2.07812 h -1.27083 l -1.01041,-1.58854 q -0.44271,-0.6875 -0.72917,-1.05208 -0.28646,-0.36458 -0.51562,-0.51042 -0.22396,-0.14583 -0.45833,-0.20312 -0.17188,-0.0365 -0.5625,-0.0365 h -1.17187 v 3.39062 z m 1.01042,-4.26562 h 2.17187 q 0.6927,0 1.08333,-0.14062 0.39062,-0.14584 0.59374,-0.45834 0.20313,-0.3177 0.20313,-0.68749 0,-0.54167 -0.39583,-0.89063 -0.39063,-0.34895 -1.23958,-0.34895 h -2.41666 z"
       style="font-size:10.66664028px;font-family:Arial;fill:#009d73;stroke-width:1.33333004"
       id="path5476"
       inkscape:connector-curvature="0" />
    <path
       d="m 203.56478,263.49804 h -0.70313 v -4.48046 q -0.2539,0.24219 -0.66796,0.48438 -0.41016,0.24218 -0.73828,0.36328 v -0.67969 q 0.58984,-0.27734 1.03125,-0.67187 0.4414,-0.39453 0.62499,-0.76563 h 0.45313 z"
       style="font-size:7.99997997px;font-family:Arial;fill:#009d73;stroke-width:1.33333004"
       id="path5478"
       inkscape:connector-curvature="0" />
  </g>
  <path
     style="fill:#cc78a6;fill-rule:evenodd;stroke:#cc78a6;stroke-width:0;stroke-linejoin:miter;shape-rendering:geometricPrecision"
     inkscape:connector-curvature="0"
     id="path198"
     d="m 208.34409,255.77804 v 0 l -0.34667,0.2 -0.33333,-0.2 v -9.14664 h 0.33333 0.34667 z" />
  <g
     aria-label="R3"
     style="font-size:15.99995995px;text-anchor:start;stroke-width:1.33333004;text-rendering:geometricPrecision"
     id="text206"
     transform="translate(-2)">
    <path
       d="m 206.96931,244.83141 v -7.6354 h 3.38541 q 1.02083,0 1.55208,0.20833 0.53124,0.20313 0.84895,0.72396 0.31771,0.52083 0.31771,1.15104 0,0.81249 -0.52604,1.36978 -0.52604,0.55729 -1.625,0.70834 0.40104,0.1927 0.60938,0.3802 0.4427,0.40625 0.83854,1.01563 l 1.32812,2.07812 h -1.27083 l -1.01042,-1.58854 q -0.4427,-0.6875 -0.72916,-1.05208 -0.28646,-0.36459 -0.51563,-0.51042 -0.22395,-0.14583 -0.45833,-0.20312 -0.17187,-0.0365 -0.5625,-0.0365 h -1.17187 v 3.39062 z m 1.01041,-4.26562 h 2.17187 q 0.69271,0 1.08333,-0.14062 0.39063,-0.14584 0.59375,-0.45834 0.20312,-0.3177 0.20312,-0.68749 0,-0.54167 -0.39583,-0.89063 -0.39062,-0.34895 -1.23958,-0.34895 h -2.41666 z"
       style="font-size:10.66664028px;font-family:Arial;fill:#cc78a6;stroke-width:1.33333004"
       id="path5471"
       inkscape:connector-curvature="0" />
    <path
       d="m 214.17502,238.97303 0.70312,-0.0937 q 0.1211,0.59765 0.41016,0.86327 0.29297,0.26172 0.71093,0.26172 0.4961,0 0.83594,-0.34375 0.34375,-0.34375 0.34375,-0.85156 0,-0.48437 -0.31641,-0.79687 -0.3164,-0.31641 -0.80468,-0.31641 -0.19922,0 -0.4961,0.0781 l 0.0781,-0.61719 q 0.0703,0.008 0.11328,0.008 0.44922,0 0.80859,-0.23438 0.35938,-0.23437 0.35938,-0.72265 0,-0.38672 -0.26172,-0.64063 -0.26172,-0.2539 -0.67578,-0.2539 -0.41016,0 -0.68359,0.25781 -0.27344,0.25781 -0.35157,0.77344 l -0.70312,-0.125 q 0.12891,-0.70703 0.58594,-1.09375 0.45703,-0.39063 1.13671,-0.39063 0.46875,0 0.86328,0.20313 0.39453,0.19922 0.60156,0.54687 0.21094,0.34766 0.21094,0.73828 0,0.37109 -0.19922,0.67578 -0.19922,0.30469 -0.58984,0.48438 0.50781,0.11718 0.78906,0.48828 0.28125,0.36718 0.28125,0.92187 0,0.75 -0.54687,1.27343 -0.54688,0.51953 -1.38281,0.51953 -0.75391,0 -1.25391,-0.44922 -0.49609,-0.44921 -0.5664,-1.16406 z"
       style="font-size:7.99997997px;font-family:Arial;fill:#cc78a6;stroke-width:1.33333004"
       id="path5473"
       inkscape:connector-curvature="0" />
  </g>
  <path
     style="fill:#009d73;fill-rule:evenodd;stroke:#009d73;stroke-width:0;stroke-linejoin:miter;shape-rendering:geometricPrecision"
     inkscape:connector-curvature="0"
     id="path210"
     d="m 225.94404,261.35136 v 0 l -0.16,-0.29333 -0.17333,-0.29333 4.33332,-2.50666 0.16,0.29333 0.17334,0.29333 z" />
  <g
     aria-label="R2"
     style="font-size:15.99995995px;text-anchor:start;stroke-width:1.33333004;text-rendering:geometricPrecision"
     id="text218"
     transform="translate(-2)">
    <path
       d="m 233.54256,260.17804 v -7.6354 h 3.38541 q 1.02083,0 1.55208,0.20833 0.53125,0.20313 0.84896,0.72396 0.31771,0.52083 0.31771,1.15104 0,0.8125 -0.52604,1.36979 -0.52604,0.55729 -1.625,0.70833 0.40104,0.19271 0.60937,0.38021 0.44271,0.40625 0.83854,1.01562 l 1.32812,2.07812 h -1.27083 l -1.01041,-1.58854 q -0.44271,-0.6875 -0.72916,-1.05208 -0.28646,-0.36458 -0.51563,-0.51041 -0.22396,-0.14584 -0.45833,-0.20313 -0.17187,-0.0365 -0.5625,-0.0365 h -1.17187 v 3.39062 z m 1.01042,-4.26561 h 2.17187 q 0.69271,0 1.08333,-0.14063 0.39062,-0.14583 0.59375,-0.45833 0.20312,-0.31771 0.20312,-0.6875 0,-0.54167 -0.39583,-0.89062 -0.39062,-0.34896 -1.23958,-0.34896 h -2.41666 z"
       style="font-size:10.66664028px;font-family:Arial;fill:#009d73;stroke-width:1.33333004"
       id="path5466"
       inkscape:connector-curvature="0" />
    <path
       d="m 244.43967,255.1556 v 0.67578 h -3.78514 q -0.008,-0.2539 0.082,-0.48828 0.14453,-0.38671 0.46093,-0.76171 0.32032,-0.375 0.92188,-0.86719 0.93359,-0.76562 1.26171,-1.21093 0.32813,-0.44922 0.32813,-0.84766 0,-0.41796 -0.30078,-0.70312 -0.29688,-0.28906 -0.77735,-0.28906 -0.50781,0 -0.81249,0.30468 -0.30469,0.30469 -0.3086,0.84375 l -0.72265,-0.0742 q 0.0742,-0.80859 0.55859,-1.23046 0.48437,-0.42578 1.30078,-0.42578 0.82422,0 1.30468,0.45703 0.48047,0.45703 0.48047,1.13281 0,0.34375 -0.14062,0.67578 -0.14063,0.33203 -0.46875,0.69921 -0.32422,0.36719 -1.08203,1.00781 -0.63281,0.53125 -0.8125,0.72266 -0.17969,0.1875 -0.29687,0.3789 z"
       style="font-size:7.99997997px;font-family:Arial;fill:#009d73;stroke-width:1.33333004"
       id="path5468"
       inkscape:connector-curvature="0" />
  </g>
  <path
     style="fill:#009d73;fill-rule:evenodd;stroke:#009d73;stroke-width:0;stroke-linejoin:miter;shape-rendering:geometricPrecision"
     inkscape:connector-curvature="0"
     id="path222"
     d="m 216.94407,260.75136 v 0 l -0.17334,0.29334 -0.16,0.29333 -8.61331,-4.97332 v -0.38667 l 0.34667,-0.2 z" />
  <path
     style="stroke:#009d73;stroke-width:0.67999828;shape-rendering:auto"
     d="m 217.82408,259.21805 -7.73332,-4.45334"
     id="line224"
     inkscape:connector-curvature="0" />
  <g
     aria-label="N"
     style="font-size:15.99995995px;text-anchor:start;stroke-width:1.33333004;text-rendering:geometricPrecision"
     id="text230"
     transform="translate(-2)">
    <path
       d="m 220.23657,267.8447 v -7.6354 h 1.03646 l 4.0104,5.99478 v -5.99478 h 0.96875 v 7.6354 h -1.03646 l -4.0104,-5.99999 v 5.99999 z"
       style="font-size:10.66664028px;font-family:Arial;fill:#009d73;stroke-width:1.33333004"
       id="path5462"
       inkscape:connector-curvature="0" />
  </g>
  <g
     aria-label="R3MgBr + CeCl3"
     style="font-size:15.99995995px;text-anchor:start;stroke-width:1.33333004;text-rendering:geometricPrecision"
     id="text244">
    <path
       d="m 3.4764757,246.29807 v -7.6354 H 6.861884 q 1.0208308,0 1.5520795,0.20833 0.5312487,0.20312 0.8489562,0.72396 0.3177076,0.52083 0.3177076,1.15104 0,0.81249 -0.5260404,1.36978 -0.5260404,0.55729 -1.624996,0.70834 0.4010407,0.1927 0.6093735,0.3802 0.4427073,0.40625 0.8385396,1.01563 l 1.328122,2.07812 H 8.9347955 L 7.9243814,244.70953 Q 7.4816741,244.02203 7.1952165,243.65745 6.9087589,243.29286 6.6795928,243.14703 6.455635,243.0012 6.2212606,242.94391 6.049386,242.90745 5.658762,242.90745 H 4.4868899 v 3.39062 z m 1.0104142,-4.26562 h 2.1718696 q 0.6927066,0 1.0833307,-0.14062 0.390624,-0.14584 0.5937485,-0.45834 0.2031245,-0.3177 0.2031245,-0.68749 0,-0.54167 -0.3958324,-0.89063 -0.390624,-0.34895 -1.2395802,-0.34895 H 4.4868899 Z"
       style="font-size:10.66664028px;font-family:Arial;fill:#cc78a6;stroke-width:1.33333004"
       id="path5437"
       inkscape:connector-curvature="0" />
    <path
       d="m 10.682187,240.43969 0.703123,-0.0937 q 0.121094,0.59766 0.410156,0.86328 0.292968,0.26172 0.710935,0.26172 0.496093,0 0.835936,-0.34375 0.343749,-0.34375 0.343749,-0.85156 0,-0.48437 -0.316406,-0.79687 -0.316405,-0.31641 -0.804685,-0.31641 -0.199218,0 -0.496093,0.0781 l 0.07813,-0.61719 q 0.07031,0.008 0.113281,0.008 0.449218,0 0.808592,-0.23438 0.359374,-0.23437 0.359374,-0.72265 0,-0.38672 -0.261718,-0.64063 -0.261718,-0.2539 -0.67578,-0.2539 -0.410155,0 -0.683592,0.25781 -0.273436,0.25781 -0.351561,0.77343 L 10.7525,237.6858 q 0.128905,-0.70703 0.585936,-1.09375 0.45703,-0.39063 1.136715,-0.39063 0.468749,0 0.86328,0.20313 0.39453,0.19922 0.601561,0.54687 0.210937,0.34766 0.210937,0.73828 0,0.37109 -0.199219,0.67578 -0.199218,0.30469 -0.589842,0.48437 0.507811,0.11719 0.789061,0.48828 0.281249,0.36719 0.281249,0.92188 0,0.75 -0.546874,1.27343 -0.546873,0.51953 -1.382809,0.51953 -0.753904,0 -1.253903,-0.44922 -0.496092,-0.44921 -0.566405,-1.16406 z"
       style="font-size:7.99997997px;font-family:Arial;fill:#cc78a6;stroke-width:1.33333004"
       id="path5439"
       inkscape:connector-curvature="0" />
    <path
       d="m 15.591029,246.29807 v -7.6354 h 1.52083 l 1.807287,5.40623 q 0.249999,0.75521 0.364582,1.13021 0.130208,-0.41667 0.406249,-1.22396 l 1.828121,-5.31248 h 1.359372 v 7.6354 h -0.973956 v -6.39061 l -2.218745,6.39061 h -0.911456 l -2.208328,-6.49999 v 6.49999 z"
       style="font-size:10.66664028px;font-family:Arial;fill:#cc78a6;stroke-width:1.33333004"
       id="path5441"
       inkscape:connector-curvature="0" />
    <path
       d="m 24.226424,246.7564 0.911456,0.13541 q 0.05729,0.42188 0.317708,0.61459 0.348957,0.26041 0.953123,0.26041 0.65104,0 1.005205,-0.26041 0.354166,-0.26042 0.479166,-0.72917 0.07292,-0.28646 0.06771,-1.20312 -0.614582,0.72396 -1.531246,0.72396 -1.140622,0 -1.765621,-0.82292 -0.624998,-0.82291 -0.624998,-1.97395 0,-0.79167 0.286457,-1.45833 0.286458,-0.67188 0.828123,-1.03646 0.546874,-0.36458 1.281247,-0.36458 0.979164,0 1.61458,0.79166 v -0.66666 h 0.864581 v 4.78124 q 0,1.29166 -0.265625,1.82812 -0.260416,0.54166 -0.833331,0.85416 -0.567707,0.3125 -1.401038,0.3125 -0.989581,0 -1.598954,-0.44791 -0.609374,-0.44271 -0.588541,-1.33854 z m 0.77604,-3.32291 q 0,1.08854 0.432291,1.58854 0.43229,0.5 1.08333,0.5 0.645832,0 1.083331,-0.4948 0.437499,-0.49999 0.437499,-1.56249 0,-1.01562 -0.453124,-1.53125 -0.447916,-0.51562 -1.083331,-0.51562 -0.624998,0 -1.062497,0.51041 -0.437499,0.50521 -0.437499,1.50521 z"
       style="font-size:10.66664028px;font-family:Arial;fill:#cc78a6;stroke-width:1.33333004"
       id="path5443"
       inkscape:connector-curvature="0" />
    <path
       d="m 30.413908,246.29807 v -7.6354 h 2.864577 q 0.874998,0 1.401038,0.23437 0.531249,0.22917 0.828123,0.71354 0.302082,0.47917 0.302082,1.00521 0,0.48958 -0.265624,0.92187 -0.265624,0.43229 -0.802081,0.69792 0.692706,0.20312 1.062497,0.6927 0.374999,0.48958 0.374999,1.15625 0,0.53646 -0.229166,1 -0.223958,0.45833 -0.55729,0.70833 -0.333333,0.25 -0.83854,0.38021 -0.499999,0.125 -1.229163,0.125 z m 1.010415,-4.42708 h 1.651037 q 0.671874,0 0.963539,-0.0885 0.385416,-0.11458 0.578124,-0.38021 0.197916,-0.26562 0.197916,-0.66666 0,-0.38021 -0.182291,-0.66667 -0.182291,-0.29166 -0.520832,-0.39583 -0.338541,-0.10937 -1.161455,-0.10937 h -1.526038 z m 0,3.52604 h 1.901037 q 0.489582,0 0.687498,-0.0365 0.348957,-0.0625 0.583332,-0.20834 0.234374,-0.14583 0.385415,-0.42187 0.151042,-0.28125 0.151042,-0.64583 0,-0.42708 -0.21875,-0.73958 -0.218749,-0.31771 -0.609373,-0.44271 -0.385416,-0.13021 -1.114581,-0.13021 h -1.76562 z"
       style="font-size:10.66664028px;font-family:Arial;fill:#cc78a6;stroke-width:1.33333004"
       id="path5445"
       inkscape:connector-curvature="0" />
    <path
       d="m 37.450348,246.29807 v -5.53124 h 0.843748 v 0.83854 q 0.322916,-0.58854 0.593748,-0.77604 0.276041,-0.1875 0.604166,-0.1875 0.473957,0 0.963539,0.30208 l -0.322916,0.86979 q -0.343749,-0.20312 -0.687498,-0.20312 -0.307291,0 -0.552082,0.1875 -0.244791,0.18229 -0.348958,0.51041 -0.156249,0.5 -0.156249,1.09375 v 2.89583 z"
       style="font-size:10.66664028px;font-family:Arial;fill:#cc78a6;stroke-width:1.33333004"
       id="path5447"
       inkscape:connector-curvature="0" />
    <path
       d="m 45.95033,245.06369 v -2.09374 h -2.07812 v -0.875 h 2.07812 v -2.07812 h 0.885415 v 2.07812 h 2.07812 v 0.875 h -2.07812 v 2.09374 z"
       style="font-size:10.66664028px;font-family:Arial;fill:#000000;stroke-width:1.33333004"
       id="path5449"
       inkscape:connector-curvature="0" />
    <path
       d="m 58.736757,243.62099 1.010414,0.25521 q -0.317708,1.24478 -1.14583,1.90103 -0.822915,0.65104 -2.01562,0.65104 -1.234372,0 -2.010412,-0.5 -0.770832,-0.5052 -1.177081,-1.45833 -0.40104,-0.95312 -0.40104,-2.04687 0,-1.1927 0.453124,-2.07812 0.458332,-0.89062 1.296871,-1.34895 0.843748,-0.46354 1.854162,-0.46354 1.145831,0 1.927079,0.58333 0.781248,0.58333 1.088539,1.64062 l -0.994789,0.23438 q -0.265625,-0.83333 -0.770832,-1.21354 -0.505207,-0.38021 -1.27083,-0.38021 -0.880206,0 -1.473954,0.42187 -0.588541,0.42188 -0.828123,1.13542 -0.239583,0.70833 -0.239583,1.46354 0,0.97395 0.281249,1.70312 0.286458,0.72395 0.885415,1.08333 0.598956,0.35937 1.296871,0.35937 0.848957,0 1.437497,-0.48958 0.58854,-0.48958 0.796873,-1.45312 z"
       style="font-size:10.66664028px;font-family:Arial;fill:#000000;stroke-width:1.33333004"
       id="path5451"
       inkscape:connector-curvature="0" />
    <path
       d="m 64.663824,244.51682 0.968748,0.11979 q -0.229166,0.84896 -0.848956,1.31771 -0.619791,0.46874 -1.58333,0.46874 -1.213538,0 -1.927078,-0.74478 -0.708332,-0.75 -0.708332,-2.09896 0,-1.39583 0.718748,-2.16666 0.718749,-0.77083 1.864579,-0.77083 1.109372,0 1.812496,0.75521 0.703123,0.7552 0.703123,2.12499 0,0.0833 -0.0052,0.25 h -4.124989 q 0.05208,0.91146 0.515623,1.39583 0.463541,0.48437 1.156248,0.48437 0.515623,0 0.880206,-0.27083 0.364582,-0.27083 0.578123,-0.86458 z m -3.078117,-1.51562 h 3.088534 q -0.0625,-0.69792 -0.354166,-1.04687 -0.447915,-0.54167 -1.161455,-0.54167 -0.645832,0 -1.088539,0.43229 -0.437499,0.43229 -0.484374,1.15625 z"
       style="font-size:10.66664028px;font-family:Arial;fill:#000000;stroke-width:1.33333004"
       id="path5453"
       inkscape:connector-curvature="0" />
    <path
       d="m 72.382555,243.62099 1.010414,0.25521 q -0.317708,1.24478 -1.145831,1.90103 -0.822914,0.65104 -2.01562,0.65104 -1.234372,0 -2.010411,-0.5 -0.770832,-0.5052 -1.177081,-1.45833 -0.401041,-0.95312 -0.401041,-2.04687 0,-1.1927 0.453124,-2.07812 0.458333,-0.89062 1.296872,-1.34895 0.843748,-0.46354 1.854162,-0.46354 1.145831,0 1.927079,0.58333 0.781248,0.58333 1.088539,1.64062 l -0.994789,0.23438 q -0.265625,-0.83333 -0.770832,-1.21354 -0.505207,-0.38021 -1.27083,-0.38021 -0.880206,0 -1.473955,0.42187 -0.58854,0.42188 -0.828123,1.13542 -0.239582,0.70833 -0.239582,1.46354 0,0.97395 0.281249,1.70312 0.286457,0.72395 0.885414,1.08333 0.598957,0.35937 1.296872,0.35937 0.848956,0 1.437497,-0.48958 0.58854,-0.48958 0.796873,-1.45312 z"
       style="font-size:10.66664028px;font-family:Arial;fill:#000000;stroke-width:1.33333004"
       id="path5455"
       inkscape:connector-curvature="0" />
    <path
       d="m 74.50234,246.29807 v -7.6354 h 0.937497 v 7.6354 z"
       style="font-size:10.66664028px;font-family:Arial;fill:#000000;stroke-width:1.33333004"
       id="path5457"
       inkscape:connector-curvature="0" />
    <path
       d="m 76.530986,247.19968 0.703124,-0.0937 q 0.121093,0.59765 0.410155,0.86328 0.292968,0.26171 0.710936,0.26171 0.496092,0 0.835935,-0.34374 0.343749,-0.34375 0.343749,-0.85156 0,-0.48438 -0.316405,-0.79688 -0.316406,-0.3164 -0.804686,-0.3164 -0.199218,0 -0.496092,0.0781 l 0.07813,-0.61718 q 0.07031,0.008 0.11328,0.008 0.449218,0 0.808592,-0.23438 0.359374,-0.23437 0.359374,-0.72265 0,-0.38672 -0.261718,-0.64062 -0.261718,-0.25391 -0.675779,-0.25391 -0.410156,0 -0.683592,0.25781 -0.273437,0.25781 -0.351562,0.77344 l -0.703123,-0.125 q 0.128906,-0.70703 0.585936,-1.09375 0.45703,-0.39062 1.136716,-0.39062 0.468749,0 0.863279,0.20312 0.39453,0.19922 0.601561,0.54687 0.210937,0.34766 0.210937,0.73828 0,0.3711 -0.199219,0.67578 -0.199218,0.30469 -0.589842,0.48438 0.507811,0.11718 0.789061,0.48828 0.281249,0.36718 0.281249,0.92187 0,0.75 -0.546874,1.27343 -0.546873,0.51953 -1.382809,0.51953 -0.753904,0 -1.253903,-0.44921 -0.496092,-0.44922 -0.566405,-1.16406 z"
       style="font-size:7.99997997px;font-family:Arial;fill:#000000;stroke-width:1.33333004"
       id="path5459"
       inkscape:connector-curvature="0" />
  </g>
  <path
     style="stroke:#000000;stroke-width:0.67999828;shape-rendering:auto"
     d="M 113.79765,240.88475 H 88.197716"
     id="line248" />
  <path
     style="fill:#000000;fill-rule:evenodd;stroke:#000000;stroke-width:0;stroke-linejoin:miter;stroke-miterlimit:5.89496231;shape-rendering:geometricPrecision"
     inkscape:connector-curvature="0"
     id="path250"
     stroke-miterlimit="5.89496254687647"
     d="m 118.41098,240.88475 -6.79998,-1.69333 c 1.44,0.94666 1.44,2.43999 0,3.38666 z" />
  <path
     style="stroke:#000000;stroke-width:0.67999828;shape-rendering:auto"
     d="m 121.07764,252.49805 v 23.97326"
     id="line254" />
  <path
     style="stroke:#000000;stroke-width:0.67999828;shape-rendering:auto"
     d="M 173.07751,252.49805 H 121.07764"
     id="line256" />
  <path
     style="fill:#000000;fill-rule:evenodd;stroke:#000000;stroke-width:0;stroke-linejoin:miter;stroke-miterlimit:5.89496231;shape-rendering:geometricPrecision"
     inkscape:connector-curvature="0"
     id="path258"
     stroke-miterlimit="5.89496254687632"
     d="m 177.69084,252.49805 -6.79999,-1.70666 c 1.44,0.96 1.44,2.45333 0,3.41332 z" />
  <path
     style="stroke:#000000;stroke-width:0.67999828;shape-rendering:auto"
     d="M 121.07764,365.68442 V 341.69785"
     id="line262" />
  <path
     style="stroke:#000000;stroke-width:0.67999828;shape-rendering:auto"
     d="M 171.74419,365.68442 H 121.07764"
     id="line264" />
  <path
     style="fill:#000000;fill-rule:evenodd;stroke:#000000;stroke-width:0;stroke-linejoin:miter;stroke-miterlimit:5.89496231;shape-rendering:geometricPrecision"
     inkscape:connector-curvature="0"
     id="path266"
     stroke-miterlimit="5.89496254687632"
     d="m 176.35751,365.68443 -6.79999,-1.69333 c 1.44,0.94667 1.44,2.44 0,3.38666 z" />
  <g
     aria-label="R3CeCl2"
     style="font-size:15.99995995px;text-anchor:start;stroke-width:1.33333004;text-rendering:geometricPrecision"
     id="text278">
    <path
       d="m 128.5695,246.29807 v -7.6354 h 3.3854 q 1.02084,0 1.55208,0.20833 0.53125,0.20312 0.84896,0.72396 0.31771,0.52083 0.31771,1.15104 0,0.81249 -0.52604,1.36978 -0.52604,0.55729 -1.625,0.70834 0.40104,0.1927 0.60938,0.3802 0.4427,0.40625 0.83853,1.01563 l 1.32813,2.07812 h -1.27083 l -1.01042,-1.58854 q -0.4427,-0.6875 -0.72916,-1.05208 -0.28646,-0.36459 -0.51563,-0.51042 -0.22395,-0.14583 -0.45833,-0.20312 -0.17187,-0.0365 -0.5625,-0.0365 h -1.17187 v 3.39062 z m 1.01041,-4.26562 h 2.17187 q 0.69271,0 1.08333,-0.14062 0.39063,-0.14584 0.59375,-0.45834 0.20312,-0.3177 0.20312,-0.68749 0,-0.54167 -0.39583,-0.89063 -0.39062,-0.34895 -1.23958,-0.34895 h -2.41666 z"
       style="font-size:10.66664028px;font-family:Arial;fill:#cc78a6;stroke-width:1.33333004"
       id="path5417"
       inkscape:connector-curvature="0" />
    <path
       d="m 135.77521,240.43969 0.70312,-0.0937 q 0.12109,0.59766 0.41016,0.86328 0.29296,0.26172 0.71093,0.26172 0.49609,0 0.83594,-0.34375 0.34375,-0.34375 0.34375,-0.85156 0,-0.48437 -0.31641,-0.79687 -0.3164,-0.31641 -0.80468,-0.31641 -0.19922,0 -0.4961,0.0781 l 0.0781,-0.61719 q 0.0703,0.008 0.11328,0.008 0.44922,0 0.80859,-0.23438 0.35937,-0.23437 0.35937,-0.72265 0,-0.38672 -0.26171,-0.64063 -0.26172,-0.2539 -0.67578,-0.2539 -0.41016,0 -0.68359,0.25781 -0.27344,0.25781 -0.35157,0.77343 l -0.70312,-0.12499 q 0.12891,-0.70703 0.58594,-1.09375 0.45703,-0.39063 1.13671,-0.39063 0.46875,0 0.86328,0.20313 0.39453,0.19922 0.60156,0.54687 0.21094,0.34766 0.21094,0.73828 0,0.37109 -0.19922,0.67578 -0.19922,0.30469 -0.58984,0.48437 0.50781,0.11719 0.78906,0.48828 0.28125,0.36719 0.28125,0.92188 0,0.75 -0.54687,1.27343 -0.54688,0.51953 -1.38281,0.51953 -0.75391,0 -1.25391,-0.44922 -0.49609,-0.44921 -0.5664,-1.16406 z"
       style="font-size:7.99997997px;font-family:Arial;fill:#cc78a6;stroke-width:1.33333004"
       id="path5419"
       inkscape:connector-curvature="0" />
    <path
       d="m 146.1632,243.62099 1.01042,0.25521 q -0.31771,1.24478 -1.14583,1.90103 -0.82292,0.65104 -2.01562,0.65104 -1.23437,0 -2.01041,-0.5 -0.77084,-0.5052 -1.17709,-1.45833 -0.40104,-0.95312 -0.40104,-2.04687 0,-1.1927 0.45313,-2.07812 0.45833,-0.89062 1.29687,-1.34895 0.84375,-0.46354 1.85416,-0.46354 1.14583,0 1.92708,0.58333 0.78125,0.58333 1.08854,1.64062 l -0.99479,0.23438 q -0.26562,-0.83333 -0.77083,-1.21354 -0.50521,-0.38021 -1.27083,-0.38021 -0.88021,0 -1.47396,0.42187 -0.58854,0.42188 -0.82812,1.13542 -0.23958,0.70833 -0.23958,1.46354 0,0.97395 0.28125,1.70312 0.28646,0.72395 0.88541,1.08333 0.59896,0.35937 1.29687,0.35937 0.84896,0 1.4375,-0.48958 0.58854,-0.48958 0.79687,-1.45312 z"
       style="font-size:10.66664028px;font-family:Arial;fill:#000000;stroke-width:1.33333004"
       id="path5421"
       inkscape:connector-curvature="0" />
    <path
       d="m 152.09027,244.51682 0.96875,0.11979 q -0.22917,0.84896 -0.84896,1.31771 -0.61979,0.46874 -1.58333,0.46874 -1.21353,0 -1.92707,-0.74478 -0.70834,-0.75 -0.70834,-2.09896 0,-1.39583 0.71875,-2.16666 0.71875,-0.77083 1.86458,-0.77083 1.10937,0 1.8125,0.75521 0.70312,0.7552 0.70312,2.12499 0,0.0833 -0.005,0.25 h -4.12499 q 0.0521,0.91146 0.51563,1.39583 0.46354,0.48437 1.15624,0.48437 0.51563,0 0.88021,-0.27083 0.36458,-0.27083 0.57812,-0.86458 z m -3.07811,-1.51562 h 3.08853 q -0.0625,-0.69792 -0.35417,-1.04687 -0.44791,-0.54167 -1.16145,-0.54167 -0.64583,0 -1.08854,0.43229 -0.4375,0.43229 -0.48437,1.15625 z"
       style="font-size:10.66664028px;font-family:Arial;fill:#000000;stroke-width:1.33333004"
       id="path5423"
       inkscape:connector-curvature="0" />
    <path
       d="m 159.809,243.62099 1.01042,0.25521 q -0.31771,1.24478 -1.14583,1.90103 -0.82292,0.65104 -2.01562,0.65104 -1.23438,0 -2.01042,-0.5 -0.77083,-0.5052 -1.17708,-1.45833 -0.40104,-0.95312 -0.40104,-2.04687 0,-1.1927 0.45313,-2.07812 0.45833,-0.89062 1.29687,-1.34895 0.84375,-0.46354 1.85416,-0.46354 1.14583,0 1.92708,0.58333 0.78125,0.58333 1.08854,1.64062 l -0.99479,0.23438 q -0.26562,-0.83333 -0.77083,-1.21354 -0.50521,-0.38021 -1.27083,-0.38021 -0.88021,0 -1.47396,0.42187 -0.58854,0.42188 -0.82812,1.13542 -0.23958,0.70833 -0.23958,1.46354 0,0.97395 0.28125,1.70312 0.28645,0.72395 0.88541,1.08333 0.59896,0.35937 1.29687,0.35937 0.84896,0 1.4375,-0.48958 0.58854,-0.48958 0.79687,-1.45312 z"
       style="font-size:10.66664028px;font-family:Arial;fill:#000000;stroke-width:1.33333004"
       id="path5425"
       inkscape:connector-curvature="0" />
    <path
       d="m 161.92879,246.29807 v -7.6354 h 0.9375 v 7.6354 z"
       style="font-size:10.66664028px;font-family:Arial;fill:#000000;stroke-width:1.33333004"
       id="path5427"
       inkscape:connector-curvature="0" />
    <path
       d="m 167.64883,248.03561 v 0.67578 h -3.78515 q -0.008,-0.2539 0.082,-0.48828 0.14453,-0.38672 0.46094,-0.76171 0.32031,-0.375 0.92187,-0.86719 0.93359,-0.76562 1.26172,-1.21093 0.32812,-0.44922 0.32812,-0.84766 0,-0.41797 -0.30078,-0.70312 -0.29687,-0.28906 -0.77734,-0.28906 -0.50781,0 -0.8125,0.30468 -0.30469,0.30469 -0.30859,0.84375 l -0.72266,-0.0742 q 0.0742,-0.80859 0.5586,-1.23046 0.48437,-0.42578 1.30077,-0.42578 0.82422,0 1.30469,0.45703 0.48047,0.45703 0.48047,1.13281 0,0.34375 -0.14063,0.67578 -0.14062,0.33203 -0.46875,0.69921 -0.32422,0.36719 -1.08203,1.00781 -0.63281,0.53125 -0.81249,0.72266 -0.17969,0.1875 -0.29688,0.3789 z"
       style="font-size:7.99997997px;font-family:Arial;fill:#000000;stroke-width:1.33333004"
       id="path5429"
       inkscape:connector-curvature="0" />
  </g>
  <g
     aria-label="R3MgBr"
     style="font-size:15.99995995px;text-anchor:start;stroke-width:1.33333004;text-rendering:geometricPrecision"
     id="text288">
    <path
       d="m 268.51582,360.2178 v -7.63539 h 3.3854 q 1.02084,0 1.55208,0.20833 0.53125,0.20312 0.84896,0.72396 0.31771,0.52083 0.31771,1.15103 0,0.8125 -0.52604,1.36979 -0.52604,0.55729 -1.625,0.70833 0.40104,0.19271 0.60937,0.38021 0.44271,0.40625 0.83854,1.01562 l 1.32813,2.07812 h -1.27083 l -1.01042,-1.58853 q -0.44271,-0.6875 -0.72916,-1.05208 -0.28646,-0.36459 -0.51563,-0.51042 -0.22395,-0.14583 -0.45833,-0.20312 -0.17187,-0.0365 -0.5625,-0.0365 h -1.17187 v 3.39061 z m 1.01041,-4.26561 h 2.17187 q 0.69271,0 1.08333,-0.14063 0.39062,-0.14583 0.59375,-0.45833 0.20312,-0.3177 0.20312,-0.6875 0,-0.54166 -0.39583,-0.89062 -0.39062,-0.34896 -1.23958,-0.34896 h -2.41666 z"
       style="font-size:10.66664028px;font-family:Arial;fill:#cc78a6;stroke-width:1.33333004"
       id="path5404"
       inkscape:connector-curvature="0" />
    <path
       d="m 275.72153,354.35943 0.70312,-0.0937 q 0.12109,0.59766 0.41016,0.86328 0.29296,0.26172 0.71093,0.26172 0.49609,0 0.83594,-0.34375 0.34375,-0.34375 0.34375,-0.85156 0,-0.48437 -0.31641,-0.79687 -0.3164,-0.31641 -0.80468,-0.31641 -0.19922,0 -0.4961,0.0781 l 0.0781,-0.61719 q 0.0703,0.008 0.11328,0.008 0.44922,0 0.80859,-0.23437 0.35937,-0.23437 0.35937,-0.72265 0,-0.38672 -0.26171,-0.64063 -0.26172,-0.2539 -0.67578,-0.2539 -0.41016,0 -0.6836,0.25781 -0.27343,0.25781 -0.35156,0.77343 l -0.70312,-0.125 q 0.12891,-0.70703 0.58594,-1.09374 0.45703,-0.39063 1.13671,-0.39063 0.46875,0 0.86328,0.20313 0.39453,0.19922 0.60156,0.54687 0.21094,0.34766 0.21094,0.73828 0,0.37109 -0.19922,0.67578 -0.19922,0.30469 -0.58984,0.48437 0.50781,0.11719 0.78906,0.48828 0.28125,0.36719 0.28125,0.92188 0,0.74999 -0.54688,1.27343 -0.54687,0.51953 -1.3828,0.51953 -0.75391,0 -1.25391,-0.44922 -0.49609,-0.44921 -0.5664,-1.16406 z"
       style="font-size:7.99997997px;font-family:Arial;fill:#cc78a6;stroke-width:1.33333004"
       id="path5406"
       inkscape:connector-curvature="0" />
    <path
       d="m 280.63037,360.2178 v -7.63539 h 1.52083 l 1.80729,5.40623 q 0.25,0.75521 0.36458,1.13021 0.13021,-0.41667 0.40625,-1.22396 l 1.82812,-5.31248 h 1.35937 v 7.63539 h -0.97396 v -6.39061 l -2.21874,6.39061 h -0.91146 l -2.20832,-6.49998 v 6.49998 z"
       style="font-size:10.66664028px;font-family:Arial;fill:#cc78a6;stroke-width:1.33333004"
       id="path5408"
       inkscape:connector-curvature="0" />
    <path
       d="m 289.26576,360.67614 0.91146,0.13541 q 0.0573,0.42188 0.31771,0.61458 0.34896,0.26042 0.95312,0.26042 0.65104,0 1.00521,-0.26042 0.35416,-0.26041 0.47916,-0.72916 0.0729,-0.28646 0.0677,-1.20312 -0.61458,0.72395 -1.53125,0.72395 -1.14062,0 -1.76562,-0.82291 -0.62499,-0.82292 -0.62499,-1.97395 0,-0.79167 0.28645,-1.45833 0.28646,-0.67188 0.82813,-1.03646 0.54687,-0.36458 1.28124,-0.36458 0.97917,0 1.61458,0.79166 v -0.66666 h 0.86458 v 4.78124 q 0,1.29166 -0.26562,1.82812 -0.26042,0.54166 -0.83333,0.85416 -0.56771,0.3125 -1.40104,0.3125 -0.98958,0 -1.59895,-0.44792 -0.60938,-0.4427 -0.58855,-1.33853 z m 0.77604,-3.32291 q 0,1.08854 0.4323,1.58854 0.43229,0.49999 1.08333,0.49999 0.64583,0 1.08333,-0.49479 0.4375,-0.49999 0.4375,-1.56249 0,-1.01562 -0.45313,-1.53125 -0.44791,-0.51562 -1.08333,-0.51562 -0.625,0 -1.0625,0.51041 -0.4375,0.50521 -0.4375,1.50521 z"
       style="font-size:10.66664028px;font-family:Arial;fill:#cc78a6;stroke-width:1.33333004"
       id="path5410"
       inkscape:connector-curvature="0" />
    <path
       d="m 295.45325,360.2178 v -7.63539 h 2.86458 q 0.87499,0 1.40103,0.23437 0.53125,0.22917 0.82813,0.71354 0.30208,0.47917 0.30208,1.00521 0,0.48958 -0.26563,0.92187 -0.26562,0.43229 -0.80208,0.69791 0.69271,0.20313 1.0625,0.69271 0.375,0.48958 0.375,1.15625 0,0.53645 -0.22917,1 -0.22395,0.45833 -0.55729,0.70833 -0.33333,0.25 -0.83854,0.3802 -0.5,0.125 -1.22916,0.125 z m 1.01041,-4.42707 h 1.65104 q 0.67187,0 0.96354,-0.0885 0.38542,-0.11458 0.57812,-0.38021 0.19792,-0.26562 0.19792,-0.66666 0,-0.38021 -0.18229,-0.66667 -0.18229,-0.29166 -0.52083,-0.39583 -0.33854,-0.10937 -1.16146,-0.10937 h -1.52604 z m 0,3.52603 h 1.90104 q 0.48958,0 0.6875,-0.0365 0.34896,-0.0625 0.58333,-0.20834 0.23437,-0.14583 0.38542,-0.42187 0.15104,-0.28125 0.15104,-0.64583 0,-0.42708 -0.21875,-0.73958 -0.21875,-0.31771 -0.60938,-0.44271 -0.38541,-0.13021 -1.11458,-0.13021 h -1.76562 z"
       style="font-size:10.66664028px;font-family:Arial;fill:#cc78a6;stroke-width:1.33333004"
       id="path5412"
       inkscape:connector-curvature="0" />
    <path
       d="m 302.48969,360.2178 v -5.53123 h 0.84375 v 0.83854 q 0.32291,-0.58854 0.59374,-0.77604 0.27605,-0.1875 0.60417,-0.1875 0.47396,0 0.96354,0.30208 l -0.32292,0.86979 q -0.34375,-0.20312 -0.68749,-0.20312 -0.3073,0 -0.55209,0.1875 -0.24479,0.18229 -0.34895,0.51041 -0.15625,0.5 -0.15625,1.09375 v 2.89582 z"
       style="font-size:10.66664028px;font-family:Arial;fill:#cc78a6;stroke-width:1.33333004"
       id="path5414"
       inkscape:connector-curvature="0" />
  </g>
  <path
     style="stroke:#000000;stroke-width:0.67999828;shape-rendering:auto"
     d="M 315.54382,252.49805 H 258.62396"
     id="line292" />
  <path
     style="stroke:#000000;stroke-width:0.67999828;shape-rendering:auto"
     d="M 315.54382,365.68442 H 258.94397"
     id="line294" />
  <g
     aria-label="NaBH4"
     style="font-size:15.99995995px;text-anchor:start;stroke-width:1.33333004;text-rendering:geometricPrecision"
     id="text300">
    <path
       d="m 268.40976,246.29807 v -7.6354 h 1.03645 l 4.01041,5.99477 v -5.99477 h 0.96875 v 7.6354 h -1.03646 l -4.0104,-5.99999 v 5.99999 z"
       style="font-size:10.66664028px;font-family:Arial;fill:#000000;stroke-width:1.33333004"
       id="path5391"
       inkscape:connector-curvature="0" />
    <path
       d="m 279.61806,245.61578 q -0.52083,0.4427 -1.0052,0.62499 -0.47917,0.18229 -1.03125,0.18229 -0.91146,0 -1.40104,-0.4427 -0.48958,-0.44792 -0.48958,-1.14062 0,-0.40625 0.18229,-0.73959 0.1875,-0.33854 0.48437,-0.54166 0.30209,-0.20313 0.67709,-0.30729 0.27604,-0.0729 0.83333,-0.14063 1.13541,-0.13541 1.67187,-0.32291 0.005,-0.19271 0.005,-0.24479 0,-0.57292 -0.26563,-0.80729 -0.35937,-0.31771 -1.0677,-0.31771 -0.66146,0 -0.97917,0.23437 -0.3125,0.22917 -0.46354,0.81771 l -0.91666,-0.125 q 0.125,-0.58854 0.41145,-0.94791 0.28646,-0.36459 0.82813,-0.55729 0.54166,-0.19792 1.2552,-0.19792 0.70833,0 1.15104,0.16667 0.44271,0.16666 0.65104,0.42187 0.20833,0.25 0.29167,0.63541 0.0469,0.23959 0.0469,0.86459 v 1.24999 q 0,1.30729 0.0573,1.65625 0.0625,0.34375 0.23959,0.66146 h -0.97917 q -0.14583,-0.29167 -0.1875,-0.68229 z m -0.0781,-2.09375 q -0.51042,0.20833 -1.53125,0.35417 -0.57812,0.0833 -0.8177,0.1875 -0.23959,0.10416 -0.36979,0.30729 -0.13021,0.19791 -0.13021,0.4427 0,0.375 0.28125,0.625 0.28645,0.25 0.83333,0.25 0.54166,0 0.96354,-0.23437 0.42187,-0.23959 0.61979,-0.65104 0.15104,-0.31771 0.15104,-0.9375 z"
       style="font-size:10.66664028px;font-family:Arial;fill:#000000;stroke-width:1.33333004"
       id="path5393"
       inkscape:connector-curvature="0" />
    <path
       d="m 282.02431,246.29807 v -7.6354 h 2.86457 q 0.875,0 1.40104,0.23437 0.53125,0.22917 0.82812,0.71354 0.30209,0.47917 0.30209,1.00521 0,0.48958 -0.26563,0.92187 -0.26562,0.43229 -0.80208,0.69792 0.69271,0.20312 1.0625,0.6927 0.375,0.48958 0.375,1.15625 0,0.53646 -0.22917,1 -0.22396,0.45833 -0.55729,0.70833 -0.33333,0.25 -0.83854,0.38021 -0.5,0.125 -1.22916,0.125 z m 1.01041,-4.42708 h 1.65104 q 0.67187,0 0.96354,-0.0885 0.38541,-0.11458 0.57812,-0.38021 0.19792,-0.26562 0.19792,-0.66666 0,-0.38021 -0.18229,-0.66667 -0.18229,-0.29166 -0.52084,-0.39583 -0.33854,-0.10937 -1.16145,-0.10937 h -1.52604 z m 0,3.52604 h 1.90104 q 0.48958,0 0.6875,-0.0365 0.34895,-0.0625 0.58333,-0.20834 0.23437,-0.14583 0.38541,-0.42187 0.15105,-0.28125 0.15105,-0.64583 0,-0.42708 -0.21875,-0.73958 -0.21875,-0.31771 -0.60938,-0.44271 -0.38541,-0.13021 -1.11458,-0.13021 h -1.76562 z"
       style="font-size:10.66664028px;font-family:Arial;fill:#000000;stroke-width:1.33333004"
       id="path5395"
       inkscape:connector-curvature="0" />
    <path
       d="m 289.22221,246.29807 v -7.6354 h 1.01041 v 3.13541 h 3.96874 v -3.13541 h 1.01042 v 7.6354 h -1.01042 v -3.59895 h -3.96874 v 3.59895 z"
       style="font-size:10.66664028px;font-family:Arial;fill:#000000;stroke-width:1.33333004"
       id="path5397"
       inkscape:connector-curvature="0" />
    <path
       d="m 298.66229,248.71139 v -1.37109 h -2.48437 v -0.64453 l 2.61327,-3.71093 h 0.57422 v 3.71093 h 0.77343 v 0.64453 h -0.77343 v 1.37109 z m 0,-2.01562 v -2.58202 l -1.79297,2.58202 z"
       style="font-size:7.99997997px;font-family:Arial;fill:#000000;stroke-width:1.33333004"
       id="path5399"
       inkscape:connector-curvature="0" />
  </g>
  <g
     aria-label="R1"
     style="font-size:15.99995995px;text-anchor:end;stroke-width:1.33333004;text-rendering:geometricPrecision"
     id="text308">
    <path
       d="m 292.40764,319.01788 v -7.63539 h 3.38541 q 1.02083,0 1.55208,0.20833 0.53125,0.20312 0.84896,0.72395 0.3177,0.52084 0.3177,1.15104 0,0.8125 -0.52604,1.36979 -0.52604,0.55729 -1.62499,0.70833 0.40104,0.19271 0.60937,0.38021 0.44271,0.40625 0.83854,1.01562 l 1.32812,2.07812 h -1.27083 l -1.01041,-1.58853 q -0.44271,-0.6875 -0.72917,-1.05209 -0.28646,-0.36458 -0.51562,-0.51041 -0.22396,-0.14583 -0.45833,-0.20313 -0.17188,-0.0365 -0.5625,-0.0365 h -1.17187 v 3.39061 z m 1.01042,-4.26561 h 2.17187 q 0.6927,0 1.08333,-0.14063 0.39062,-0.14583 0.59374,-0.45833 0.20313,-0.31771 0.20313,-0.6875 0,-0.54166 -0.39583,-0.89062 -0.39063,-0.34896 -1.23958,-0.34896 h -2.41666 z"
       style="font-size:10.66664028px;font-family:Arial;fill:#009d73;stroke-width:1.33333004"
       id="path5386"
       inkscape:connector-curvature="0" />
    <path
       d="m 302.25788,314.67123 h -0.70313 v -4.48046 q -0.2539,0.24219 -0.66796,0.48437 -0.41016,0.24219 -0.73828,0.36328 v -0.67968 q 0.58984,-0.27734 1.03125,-0.67188 0.4414,-0.39453 0.62499,-0.76562 h 0.45313 z"
       style="font-size:7.99997997px;font-family:Arial;fill:#009d73;stroke-width:1.33333004"
       id="path5388"
       inkscape:connector-curvature="0" />
  </g>
  <path
     style="fill:#009d73;fill-rule:evenodd;stroke:#009d73;stroke-width:0;stroke-linejoin:miter;shape-rendering:geometricPrecision"
     inkscape:connector-curvature="0"
     id="path312"
     d="m 303.94385,310.28457 v 0 l -0.16,-0.30667 -0.17333,-0.29333 4.74666,-2.73332 0.33333,0.19999 v 0.38667 z" />
  <path
     style="fill:#009d73;fill-rule:evenodd;stroke:#009d73;stroke-width:0;stroke-linejoin:miter;shape-rendering:geometricPrecision"
     inkscape:connector-curvature="0"
     id="path316"
     d="m 308.69051,307.53791 v 0 -0.38667 l 0.34666,-0.19999 8.57332,4.95998 -0.17334,0.29334 -0.16,0.29333 z" />
  <g
     aria-label="NH"
     style="font-size:15.99995995px;text-anchor:start;stroke-width:1.33333004;text-rendering:geometricPrecision"
     id="text324">
    <path
       d="m 318.91635,319.01788 v -7.63539 h 1.03646 l 4.0104,5.99477 v -5.99477 h 0.96875 v 7.63539 h -1.03646 l -4.0104,-5.99998 v 5.99998 z"
       style="font-size:10.66664028px;font-family:Arial;fill:#009d73;stroke-width:1.33333004"
       id="path5381"
       inkscape:connector-curvature="0" />
    <path
       d="m 318.95802,329.68451 v -7.6354 h 1.01041 v 3.13541 h 3.96874 v -3.13541 h 1.01041 v 7.6354 h -1.01041 v -3.59895 h -3.96874 v 3.59895 z"
       style="font-size:10.66664028px;font-family:Arial;fill:#000000;stroke-width:1.33333004"
       id="path5383"
       inkscape:connector-curvature="0" />
  </g>
  <path
     style="fill:#cc78a6;fill-rule:evenodd;stroke:#cc78a6;stroke-width:0;stroke-linejoin:miter;shape-rendering:geometricPrecision"
     inkscape:connector-curvature="0"
     id="path328"
     d="m 309.03717,306.95125 v 0 l -0.34666,0.19999 -0.33333,-0.19999 v -7.11999 h 0.33333 0.34666 z" />
  <g
     aria-label="R3"
     style="font-size:15.99995995px;text-anchor:start;stroke-width:1.33333004;text-rendering:geometricPrecision"
     id="text336">
    <path
       d="m 305.66239,296.00461 v -7.6354 h 3.38541 q 1.02083,0 1.55208,0.20833 0.53125,0.20313 0.84896,0.72396 0.3177,0.52083 0.3177,1.15104 0,0.8125 -0.52604,1.36979 -0.52604,0.55729 -1.62499,0.70833 0.40104,0.19271 0.60937,0.38021 0.44271,0.40624 0.83854,1.01562 l 1.32812,2.07812 h -1.27083 l -1.01041,-1.58854 q -0.44271,-0.6875 -0.72917,-1.05208 -0.28645,-0.36458 -0.51562,-0.51042 -0.22396,-0.14583 -0.45833,-0.20312 -0.17188,-0.0365 -0.5625,-0.0365 h -1.17187 v 3.39062 z m 1.01042,-4.26562 h 2.17187 q 0.6927,0 1.08333,-0.14062 0.39062,-0.14583 0.59375,-0.45833 0.20312,-0.31771 0.20312,-0.6875 0,-0.54167 -0.39583,-0.89062 -0.39063,-0.34896 -1.23958,-0.34896 h -2.41666 z"
       style="font-size:10.66664028px;font-family:Arial;fill:#cc78a6;stroke-width:1.33333004"
       id="path5376"
       inkscape:connector-curvature="0" />
    <path
       d="m 312.8681,296.90622 0.70313,-0.0937 q 0.12109,0.59766 0.41015,0.86328 0.29297,0.26172 0.71094,0.26172 0.49609,0 0.83593,-0.34375 0.34375,-0.34375 0.34375,-0.85156 0,-0.48438 -0.3164,-0.79687 -0.31641,-0.31641 -0.80469,-0.31641 -0.19922,0 -0.49609,0.0781 l 0.0781,-0.61718 q 0.0703,0.008 0.11328,0.008 0.44922,0 0.8086,-0.23437 0.35937,-0.23438 0.35937,-0.72266 0,-0.38672 -0.26172,-0.64062 -0.26172,-0.25391 -0.67578,-0.25391 -0.41015,0 -0.68359,0.25782 -0.27344,0.25781 -0.35156,0.77343 l -0.70312,-0.125 q 0.1289,-0.70703 0.58593,-1.09375 0.45703,-0.39062 1.13672,-0.39062 0.46875,0 0.86328,0.20312 0.39453,0.19922 0.60156,0.54688 0.21093,0.34765 0.21093,0.73828 0,0.37109 -0.19921,0.67578 -0.19922,0.30468 -0.58985,0.48437 0.50782,0.11719 0.78906,0.48828 0.28125,0.36719 0.28125,0.92187 0,0.75 -0.54687,1.27344 -0.54687,0.51953 -1.38281,0.51953 -0.7539,0 -1.2539,-0.44922 -0.49609,-0.44922 -0.56641,-1.16406 z"
       style="font-size:7.99997997px;font-family:Arial;fill:#cc78a6;stroke-width:1.33333004"
       id="path5378"
       inkscape:connector-curvature="0" />
  </g>
  <path
     style="fill:#009d73;fill-rule:evenodd;stroke:#009d73;stroke-width:0;stroke-linejoin:miter;shape-rendering:geometricPrecision"
     inkscape:connector-curvature="0"
     id="path340"
     d="m 326.61046,312.5379 v 0 l -0.16,-0.30667 -0.17333,-0.29333 4.33332,-2.49333 0.16,0.29333 0.17334,0.29334 z" />
  <g
     aria-label="R2"
     style="font-size:15.99995995px;text-anchor:start;stroke-width:1.33333004;text-rendering:geometricPrecision"
     id="text348">
    <path
       d="m 332.2357,311.35123 v -7.6354 h 3.3854 q 1.02083,0 1.55208,0.20833 0.53125,0.20313 0.84896,0.72396 0.31771,0.52083 0.31771,1.15104 0,0.8125 -0.52604,1.36979 -0.52604,0.55729 -1.625,0.70833 0.40104,0.1927 0.60937,0.3802 0.44271,0.40625 0.83854,1.01563 l 1.32813,2.07812 h -1.27083 l -1.01042,-1.58854 q -0.44271,-0.6875 -0.72916,-1.05208 -0.28646,-0.36458 -0.51563,-0.51042 -0.22396,-0.14583 -0.45833,-0.20312 -0.17187,-0.0365 -0.5625,-0.0365 h -1.17187 v 3.39062 z m 1.01041,-4.26562 h 2.17187 q 0.69271,0 1.08333,-0.14062 0.39062,-0.14584 0.59375,-0.45833 0.20312,-0.31771 0.20312,-0.6875 0,-0.54167 -0.39583,-0.89063 -0.39062,-0.34895 -1.23958,-0.34895 h -2.41666 z"
       style="font-size:10.66664028px;font-family:Arial;fill:#009d73;stroke-width:1.33333004"
       id="path5371"
       inkscape:connector-curvature="0" />
    <path
       d="m 343.1328,306.32879 v 0.67578 h -3.78514 q -0.008,-0.2539 0.082,-0.48828 0.14453,-0.38672 0.46093,-0.76172 0.32032,-0.37499 0.92188,-0.86718 0.93359,-0.76562 1.26171,-1.21094 0.32813,-0.44921 0.32813,-0.84765 0,-0.41797 -0.30078,-0.70312 -0.29688,-0.28906 -0.77735,-0.28906 -0.50781,0 -0.81249,0.30468 -0.30469,0.30469 -0.3086,0.84375 l -0.72265,-0.0742 q 0.0742,-0.80859 0.55859,-1.23046 0.48438,-0.42578 1.30078,-0.42578 0.82422,0 1.30468,0.45703 0.48047,0.45703 0.48047,1.13281 0,0.34374 -0.14062,0.67577 -0.14063,0.33204 -0.46875,0.69922 -0.32422,0.36719 -1.08203,1.00781 -0.63281,0.53125 -0.8125,0.72266 -0.17969,0.1875 -0.29687,0.3789 z"
       style="font-size:7.99997997px;font-family:Arial;fill:#009d73;stroke-width:1.33333004"
       id="path5373"
       inkscape:connector-curvature="0" />
  </g>
  <path
     style="stroke:#000000;stroke-width:0.67999828;shape-rendering:auto"
     d="M 315.54382,252.49805 V 271.858"
     id="line352" />
  <path
     style="fill:#000000;fill-rule:evenodd;stroke:#000000;stroke-width:0;stroke-linejoin:miter;stroke-miterlimit:5.89496231;shape-rendering:geometricPrecision"
     inkscape:connector-curvature="0"
     id="path354"
     stroke-miterlimit="5.89496254687619"
     d="m 315.54382,276.47132 1.70667,-6.79998 c -0.96,1.43999 -2.45333,1.42666 -3.39999,0 z" />
  <path
     style="stroke:#000000;stroke-width:0.67999828;shape-rendering:auto"
     d="M 315.54382,365.68442 V 346.31116"
     id="line358" />
  <path
     style="fill:#000000;fill-rule:evenodd;stroke:#000000;stroke-width:0;stroke-linejoin:miter;stroke-miterlimit:5.89496231;shape-rendering:geometricPrecision"
     inkscape:connector-curvature="0"
     id="path360"
     stroke-miterlimit="5.89496254687625"
     d="m 315.54382,341.69782 -1.69332,6.79999 c 0.94666,-1.42667 2.43999,-1.44 3.39999,0 z" />
  <text
     xml:space="preserve"
     style="font-style:normal;font-variant:normal;font-weight:normal;font-stretch:normal;font-size:10.66666698px;line-height:1.25;font-family:Arial;-inkscape-font-specification:Arial;text-align:start;letter-spacing:0px;word-spacing:0px;text-anchor:start;fill:#000000;fill-opacity:1;stroke:none"
     x="-45.644215"
     y="333.78314"
     id="text5612"><tspan
       sodipodi:role="line"
       x="-45.644215"
       y="333.78314"
       id="tspan5614">\cmpd{w:amide-sec}</tspan></text>
  <text
     xml:space="preserve"
     style="font-style:normal;font-variant:normal;font-weight:normal;font-stretch:normal;font-size:10.66666698px;line-height:1.25;font-family:Arial;-inkscape-font-specification:Arial;text-align:start;letter-spacing:0px;word-spacing:0px;text-anchor:start;fill:#000000;fill-opacity:1;stroke:none"
     x="98.541924"
     y="344.08215"
     id="text5612-8"><tspan
       sodipodi:role="line"
       x="98.541924"
       y="344.08215"
       id="tspan5614-8">\cmpd{w:nitrilinium}</tspan></text>
  <text
     xml:space="preserve"
     style="font-style:normal;font-variant:normal;font-weight:normal;font-stretch:normal;font-size:10.66666698px;line-height:1.25;font-family:Arial;-inkscape-font-specification:Arial;text-align:start;letter-spacing:0px;word-spacing:0px;text-anchor:start;fill:#000000;fill-opacity:1;stroke:none"
     x="239.74474"
     y="384.60559"
     id="text5612-4"><tspan
       sodipodi:role="line"
       x="239.74474"
       y="384.60559"
       id="tspan5614-2">\cmpd{w:imine}</tspan></text>
  <text
     xml:space="preserve"
     style="font-style:normal;font-variant:normal;font-weight:normal;font-stretch:normal;font-size:10.66666698px;line-height:1.25;font-family:Arial;-inkscape-font-specification:Arial;text-align:start;letter-spacing:0px;word-spacing:0px;text-anchor:start;fill:#000000;fill-opacity:1;stroke:none"
     x="239.74474"
     y="274.17731"
     id="text5612-4-5"><tspan
       sodipodi:role="line"
       x="239.74474"
       y="274.17731"
       id="tspan5614-2-1">\cmpd{w:imine-keto}</tspan></text>
  <text
     xml:space="preserve"
     style="font-style:normal;font-variant:normal;font-weight:normal;font-stretch:normal;font-size:10.66666698px;line-height:1.25;font-family:Arial;-inkscape-font-specification:Arial;text-align:start;letter-spacing:0px;word-spacing:0px;text-anchor:start;fill:#000000;fill-opacity:1;stroke:none"
     x="334.56866"
     y="330.35013"
     id="text5664"><tspan
       sodipodi:role="line"
       id="tspan5662"
       x="334.56866"
       y="330.35013">\cmpd{w:amine-sec-a}</tspan></text>
  <path
     inkscape:connector-curvature="0"
     style="stroke:#e69e00;stroke-width:0.67999828;shape-rendering:auto"
     d="M 100.60578,268.43803 H 12.299323"
     id="line212" />
  <path
     inkscape:connector-curvature="0"
     style="stroke:#e69e00;stroke-width:0.67999828;shape-rendering:auto"
     d="m 100.60578,268.43803 0,-20.42117"
     id="line214"
     sodipodi:nodetypes="cc" />
  <path
     inkscape:connector-curvature="0"
     style="fill:#e69e00;stroke:#e69e00;stroke-width:0.133333"
     d="m 98.885783,247.81144 a 1.7199956,1.7199956 0 0 0 1.719997,1.71999 1.7199956,1.7199956 0 0 0 1.72,-1.71999 1.7199956,1.7199956 0 0 0 -1.72,-1.72 1.7199956,1.7199956 0 0 0 -1.719997,1.72 z"
     id="circle216" />
  <text
     xml:space="preserve"
     style="font-style:normal;font-variant:normal;font-weight:normal;font-stretch:normal;font-size:10.66666698px;line-height:1.25;font-family:Arial;-inkscape-font-specification:Arial;text-align:start;letter-spacing:0px;word-spacing:0px;text-anchor:start;fill:#e69f00;fill-opacity:1;stroke:none"
     x="14.147261"
     y="264.54831"
     id="text5678"><tspan
       sodipodi:role="line"
       id="tspan5676"
       x="14.147261"
       y="264.54831">transmetalacja</tspan></text>
</svg>
