<?xml version="1.0" encoding="UTF-8" standalone="no"?>
<svg
   xmlns:dc="http://purl.org/dc/elements/1.1/"
   xmlns:cc="http://creativecommons.org/ns#"
   xmlns:rdf="http://www.w3.org/1999/02/22-rdf-syntax-ns#"
   xmlns:svg="http://www.w3.org/2000/svg"
   xmlns="http://www.w3.org/2000/svg"
   xmlns:sodipodi="http://sodipodi.sourceforge.net/DTD/sodipodi-0.dtd"
   xmlns:inkscape="http://www.inkscape.org/namespaces/inkscape"
   viewBox="10.53 170.99 438.48 156.12"
   preserveAspectRatio="xMidYMid"
   width="100%"
   height="100%"
   version="1.1"
   id="svg750"
   sodipodi:docname="tricyclo-alkaloid.svg"
   inkscape:version="0.92.3 (2405546, 2018-03-11)">
  <metadata
     id="metadata756">
    <rdf:RDF>
      <cc:Work
         rdf:about="">
        <dc:format>image/svg+xml</dc:format>
        <dc:type
           rdf:resource="http://purl.org/dc/dcmitype/StillImage" />
      </cc:Work>
    </rdf:RDF>
  </metadata>
  <defs
     id="defs754" />
  <sodipodi:namedview
     pagecolor="#ffffff"
     bordercolor="#666666"
     borderopacity="1"
     objecttolerance="10"
     gridtolerance="10"
     guidetolerance="10"
     inkscape:pageopacity="0"
     inkscape:pageshadow="2"
     inkscape:window-width="1920"
     inkscape:window-height="1017"
     id="namedview752"
     showgrid="false"
     inkscape:zoom="1.5644955"
     inkscape:cx="282.78959"
     inkscape:cy="33.673762"
     inkscape:window-x="-8"
     inkscape:window-y="-8"
     inkscape:window-maximized="1"
     inkscape:current-layer="svg750" />
  <clipPath
     id="9852">
    <rect
       x="0.255"
       y="0.255"
       width="465.99"
       height="769.29"
       id="rect2" />
  </clipPath>
  <g
     id="text9"
     style="text-anchor:start;text-rendering:geometricPrecision"
     aria-label="TfO"
     transform="matrix(1.33333,0,0,1.33333,-64.611187,-82.791282)">
    <path
       inkscape:connector-curvature="0"
       id="path2594"
       style="font-size:8px;font-family:Arial;fill:#000000"
       d="m 267.70422,231.16 v -5.05078 h -1.88672 v -0.67578 h 4.53907 v 0.67578 h -1.89453 V 231.16 Z" />
    <path
       inkscape:connector-curvature="0"
       id="path2596"
       style="font-size:8px;font-family:Arial;fill:#000000"
       d="m 271.21594,231.16 v -3.60156 h -0.62109 v -0.54687 h 0.62109 v -0.44141 q 0,-0.41797 0.0742,-0.62109 0.10156,-0.27344 0.35547,-0.44141 0.25781,-0.17188 0.71875,-0.17188 0.29687,0 0.65625,0.0703 l -0.10547,0.61328 q -0.21875,-0.0391 -0.41406,-0.0391 -0.32031,0 -0.45313,0.13671 -0.13281,0.13672 -0.13281,0.51172 v 0.38282 h 0.80859 v 0.54687 h -0.80859 V 231.16 Z" />
    <path
       inkscape:connector-curvature="0"
       id="path2598"
       style="font-size:8px;font-family:Arial;fill:#000000"
       d="m 273.1261,228.37094 q 0,-1.42578 0.76562,-2.23047 0.76563,-0.80859 1.97657,-0.80859 0.79296,0 1.42968,0.3789 0.63672,0.37891 0.96875,1.0586 0.33594,0.67578 0.33594,1.53515 0,0.8711 -0.35156,1.5586 -0.35156,0.6875 -0.9961,1.04297 -0.64453,0.35156 -1.39062,0.35156 -0.80859,0 -1.44531,-0.39063 -0.63672,-0.39062 -0.96485,-1.0664 -0.32812,-0.67578 -0.32812,-1.42969 z m 0.78125,0.0117 q 0,1.03516 0.55469,1.63281 0.55859,0.59375 1.39843,0.59375 0.85547,0 1.40625,-0.60156 0.55469,-0.60156 0.55469,-1.70703 0,-0.69922 -0.23828,-1.21875 -0.23438,-0.52344 -0.69141,-0.8086 -0.45312,-0.28906 -1.01953,-0.28906 -0.80469,0 -1.38672,0.55469 -0.57812,0.55078 -0.57812,1.84375 z" />
  </g>
  <path
     inkscape:connector-curvature="0"
     id="circle13"
     d="m 319.3034,213.02131 a 3.5555467,3.5555467 0 0 1 -3.55555,3.55555 3.5555467,3.5555467 0 0 1 -3.55555,-3.55555 3.5555467,3.5555467 0 0 1 3.55555,-3.55555 3.5555467,3.5555467 0 0 1 3.55555,3.55555 z"
     style="fill:none;stroke:#000000;stroke-width:0.54399866" />
  <path
     inkscape:connector-curvature="0"
     id="line15"
     d="m 313.62785,213.02131 h 4.23999"
     style="stroke:#000000;stroke-width:0.54399866;shape-rendering:auto" />
  <path
     inkscape:connector-curvature="0"
     id="line17"
     d="m 315.74785,210.90132 v 4.23999"
     style="stroke:#000000;stroke-width:0.54399866;shape-rendering:auto" />
  <path
     inkscape:connector-curvature="0"
     id="line20"
     d="M 314.61454,196.94135 V 186.68804"
     style="stroke:#000000;stroke-width:0.67999828;shape-rendering:auto" />
  <path
     style="fill:#000000;fill-rule:evenodd;stroke:#000000;stroke-width:0;stroke-linejoin:miter;shape-rendering:geometricPrecision"
     inkscape:connector-curvature="0"
     id="path22"
     d="m 317.02786,196.94135 v 0 h 0.68 v -10.25331 h -0.68 z" />
  <path
     style="fill:#000000;fill-rule:evenodd;stroke:#000000;stroke-width:0;stroke-linejoin:miter;shape-rendering:geometricPrecision"
     inkscape:connector-curvature="0"
     id="path24"
     d="m 314.26787,196.94135 v 0 h 0.67999 v -10.25331 h -0.67999 z" />
  <path
     style="fill:#000000;fill-rule:evenodd;stroke:#000000;stroke-width:0;stroke-linejoin:miter;shape-rendering:geometricPrecision"
     inkscape:connector-curvature="0"
     id="path27"
     d="m 73.508468,174.60807 v 0 l -0.346666,-0.2 -0.346666,-0.19999 9.17331,-5.29332 0.16,0.29333 0.173333,0.29333 z" />
  <path
     inkscape:connector-curvature="0"
     id="line29"
     d="m 75.921795,176.00808 7.613314,-4.4"
     style="stroke:#000000;stroke-width:0.67999828;shape-rendering:auto" />
  <g
     id="text35"
     style="text-anchor:start;text-rendering:geometricPrecision"
     aria-label="O"
     transform="matrix(1.33333,0,0,1.33333,-64.611187,-82.791282)">
    <path
       inkscape:connector-curvature="0"
       id="path2586"
       style="font-size:8px;font-family:Arial;fill:#000000"
       d="m 111.10672,188.40094 q 0,-1.42578 0.76562,-2.23047 0.76563,-0.80859 1.97657,-0.80859 0.79297,0 1.42968,0.3789 0.63672,0.37891 0.96875,1.0586 0.33594,0.67578 0.33594,1.53515 0,0.8711 -0.35156,1.5586 -0.35156,0.6875 -0.99609,1.04297 -0.64454,0.35156 -1.39063,0.35156 -0.80859,0 -1.44531,-0.39063 -0.63672,-0.39062 -0.96485,-1.0664 -0.32812,-0.67578 -0.32812,-1.42969 z m 0.78125,0.0117 q 0,1.03515 0.55469,1.63281 0.55859,0.59375 1.39843,0.59375 0.85547,0 1.40625,-0.60156 0.55469,-0.60156 0.55469,-1.70703 0,-0.69922 -0.23828,-1.21875 -0.23437,-0.52344 -0.69141,-0.8086 -0.45312,-0.28906 -1.01953,-0.28906 -0.80468,0 -1.38672,0.55469 -0.57812,0.55078 -0.57812,1.84375 z" />
  </g>
  <path
     style="fill:#000000;fill-rule:evenodd;stroke:#000000;stroke-width:0;stroke-linejoin:miter;shape-rendering:geometricPrecision"
     inkscape:connector-curvature="0"
     id="path39"
     d="m 73.508468,184.67472 v 0 h -0.346666 -0.333333 l -0.01333,-10.46664 0.346666,0.19999 0.346666,0.2 z" />
  <path
     style="fill:#000000;fill-rule:evenodd;stroke:#000000;stroke-width:0;stroke-linejoin:miter;shape-rendering:geometricPrecision"
     inkscape:connector-curvature="0"
     id="path45"
     d="m 47.628532,189.9547 v 0 l 0.679999,0.38667 v -9.79998 h -0.679999 z" />
  <path
     style="fill:#000000;fill-rule:evenodd;stroke:#000000;stroke-width:0;stroke-linejoin:miter;shape-rendering:geometricPrecision"
     inkscape:connector-curvature="0"
     id="path47"
     d="m 44.868539,190.34137 v 0 l 0.679999,-0.38667 v -9.41331 h -0.679999 z" />
  <g
     id="text53"
     style="text-anchor:start;text-rendering:geometricPrecision"
     aria-label="O"
     transform="matrix(1.33333,0,0,1.33333,-64.611187,-82.791282)">
    <path
       inkscape:connector-curvature="0"
       id="path2582"
       style="font-size:8px;font-family:Arial;fill:#000000"
       d="m 80.686722,193.26094 q 0,-1.42578 0.765625,-2.23047 0.765625,-0.80859 1.976562,-0.80859 0.792969,0 1.429688,0.3789 0.636719,0.37891 0.96875,1.0586 0.335937,0.67578 0.335937,1.53515 0,0.8711 -0.351562,1.5586 -0.351563,0.6875 -0.996094,1.04297 -0.644531,0.35156 -1.390625,0.35156 -0.808594,0 -1.445312,-0.39063 -0.636719,-0.39062 -0.964844,-1.0664 -0.328125,-0.67578 -0.328125,-1.42969 z m 0.78125,0.0117 q 0,1.03516 0.554687,1.63281 0.558594,0.59375 1.398438,0.59375 0.855469,0 1.40625,-0.60156 0.554687,-0.60156 0.554687,-1.70703 0,-0.69922 -0.238281,-1.21875 -0.234375,-0.52344 -0.691406,-0.8086 -0.453125,-0.28906 -1.019531,-0.28906 -0.804688,0 -1.386719,0.55469 -0.578125,0.55078 -0.578125,1.84375 z" />
  </g>
  <path
     style="fill:#cc79a7;fill-opacity:1;fill-rule:evenodd;stroke:#000000;stroke-width:0;stroke-linejoin:miter;shape-rendering:geometricPrecision"
     inkscape:connector-curvature="0"
     id="path57"
     d="m -32.797933,189.54137 v 0 l -0.346666,0.2 -0.346666,0.2 0.01333,-9.39998 h 0.333333 0.346666 z" />
  <path
     d="m 139.61497,197.42135 a 0.95889383,0.95889383 0 0 0 -1.05333,0.96 0.95889383,0.95889383 0 0 0 1.05333,0.96 0.95889383,0.95889383 0 0 1 1.05333,0.95999 0.95889383,0.95889383 0 0 1 -1.05333,0.96 0.95889383,0.95889383 0 0 0 -1.05333,0.96 0.95889383,0.95889383 0 0 0 1.05333,0.96 0.95889383,0.95889383 0 0 1 1.05333,0.94666 0.95889383,0.95889383 0 0 1 -1.05333,0.96 0.95889383,0.95889383 0 0 0 -1.05333,0.96 0.95889383,0.95889383 0 0 0 1.05333,0.95999"
     id="path61"
     inkscape:connector-curvature="0"
     style="fill:none;fill-rule:evenodd;stroke:#009e73;stroke-width:0.67999828;stroke-linejoin:bevel;shape-rendering:geometricPrecision;stroke-opacity:1" />
  <g
     id="text65"
     style="text-anchor:start;fill:#cc79a7;fill-opacity:1;text-rendering:geometricPrecision"
     aria-label="OEt"
     transform="matrix(1.33333,0,0,1.33333,-64.611187,-82.791282)">
    <path
       inkscape:connector-curvature="0"
       id="path2575"
       style="font-size:8px;font-family:Arial;fill:#cc79a7;fill-opacity:1"
       d="m 20.886719,193.26094 q 0,-1.42578 0.765625,-2.23047 0.765625,-0.80859 1.976562,-0.80859 0.792969,0 1.429688,0.3789 0.636718,0.37891 0.96875,1.0586 0.335937,0.67578 0.335937,1.53515 0,0.8711 -0.351562,1.5586 -0.351563,0.6875 -0.996094,1.04297 -0.644531,0.35156 -1.390625,0.35156 -0.808594,0 -1.445313,-0.39063 -0.636718,-0.39062 -0.964843,-1.0664 -0.328125,-0.67578 -0.328125,-1.42969 z m 0.78125,0.0117 q 0,1.03516 0.554687,1.63281 0.558594,0.59375 1.398438,0.59375 0.855468,0 1.40625,-0.60156 0.554687,-0.60156 0.554687,-1.70703 0,-0.69922 -0.238281,-1.21875 -0.234375,-0.52344 -0.691406,-0.8086 -0.453125,-0.28906 -1.019532,-0.28906 -0.804687,0 -1.386718,0.55469 -0.578125,0.55078 -0.578125,1.84375 z" />
    <path
       inkscape:connector-curvature="0"
       id="path2577"
       style="font-size:8px;font-family:Arial;fill:#cc79a7;fill-opacity:1"
       d="m 27.351562,196.05 v -5.72656 h 4.140625 v 0.67578 h -3.382812 v 1.75391 h 3.167969 v 0.67187 h -3.167969 v 1.94922 H 31.625 V 196.05 Z" />
    <path
       inkscape:connector-curvature="0"
       id="path2579"
       style="font-size:8px;font-family:Arial;fill:#cc79a7;fill-opacity:1"
       d="m 34.125,195.4211 0.101562,0.62109 q -0.296875,0.0625 -0.53125,0.0625 -0.382812,0 -0.59375,-0.12109 -0.210937,-0.1211 -0.296875,-0.31641 -0.08594,-0.19922 -0.08594,-0.83203 v -2.38672 h -0.515625 v -0.54687 h 0.515625 v -1.02735 l 0.699219,-0.42187 v 1.44922 H 34.125 v 0.54687 h -0.707031 v 2.42578 q 0,0.30078 0.03516,0.38672 0.03906,0.0859 0.121094,0.13672 0.08594,0.0508 0.242187,0.0508 0.117188,0 0.308594,-0.0273 z" />
  </g>
  <g
     id="text71"
     style="text-anchor:start;fill:#009e73;text-rendering:geometricPrecision"
     aria-label="OMe"
     transform="matrix(1.33333,0,0,1.33333,-64.611187,-82.791282)">
    <path
       inkscape:connector-curvature="0"
       id="path2568"
       style="font-size:8px;font-family:Arial;fill:#009e73"
       d="m 150.45673,222.03094 q 0,-1.42578 0.76562,-2.23046 0.76563,-0.8086 1.97656,-0.8086 0.79297,0 1.42969,0.37891 0.63672,0.3789 0.96875,1.05859 0.33594,0.67578 0.33594,1.53516 0,0.87109 -0.35156,1.55859 -0.35157,0.6875 -0.9961,1.04297 -0.64453,0.35156 -1.39062,0.35156 -0.8086,0 -1.44532,-0.39062 -0.63671,-0.39063 -0.96484,-1.06641 -0.32812,-0.67578 -0.32812,-1.42969 z m 0.78125,0.0117 q 0,1.03516 0.55468,1.63282 0.5586,0.59375 1.39844,0.59375 0.85547,0 1.40625,-0.60157 0.55469,-0.60156 0.55469,-1.70703 0,-0.69922 -0.23828,-1.21875 -0.23438,-0.52344 -0.69141,-0.80859 -0.45312,-0.28906 -1.01953,-0.28906 -0.80469,0 -1.38672,0.55468 -0.57812,0.55078 -0.57812,1.84375 z" />
    <path
       inkscape:connector-curvature="0"
       id="path2570"
       style="font-size:8px;font-family:Arial;fill:#009e73"
       d="m 156.88251,224.82001 v -5.72657 h 1.14062 l 1.35547,4.05469 q 0.1875,0.56641 0.27344,0.84766 0.0976,-0.3125 0.30469,-0.91797 l 1.37109,-3.98438 h 1.01953 v 5.72657 h -0.73047 v -4.79297 l -1.66406,4.79297 h -0.68359 l -1.65625,-4.875 v 4.875 z" />
    <path
       inkscape:connector-curvature="0"
       id="path2572"
       style="font-size:8px;font-family:Arial;fill:#009e73"
       d="m 166.32782,223.48407 0.72656,0.0898 q -0.17187,0.63672 -0.63672,0.98828 -0.46484,0.35157 -1.1875,0.35157 -0.91015,0 -1.44531,-0.5586 -0.53125,-0.5625 -0.53125,-1.57422 0,-1.04687 0.53906,-1.625 0.53907,-0.57812 1.39844,-0.57812 0.83203,0 1.35938,0.56641 0.52734,0.5664 0.52734,1.59375 0,0.0625 -0.004,0.1875 h -3.09375 q 0.0391,0.68359 0.38672,1.04687 0.34766,0.36328 0.86719,0.36328 0.38672,0 0.66016,-0.20312 0.27343,-0.20313 0.43359,-0.64844 z m -2.30859,-1.13672 h 2.3164 q -0.0469,-0.52344 -0.26562,-0.78516 -0.33594,-0.40625 -0.8711,-0.40625 -0.48437,0 -0.8164,0.32422 -0.32813,0.32422 -0.36328,0.86719 z" />
  </g>
  <path
     style="fill:#009e73;fill-rule:evenodd;stroke:#000000;stroke-width:0;stroke-linejoin:miter;shape-rendering:geometricPrecision"
     inkscape:connector-curvature="0"
     id="path75"
     d="m 139.7883,197.12802 v 0 l -0.17333,0.29333 -0.17333,0.29333 -13.11997,-7.58664 v -0.38667 -0.38667 z" />
  <path
     inkscape:connector-curvature="0"
     id="line77"
     d="m 136.85499,199.02135 -10.53332,-6.09333"
     style="fill:#009e73;stroke:#009e73;stroke-width:0.67999828;stroke-opacity:1;shape-rendering:auto" />
  <path
     style="fill:#009e73;fill-rule:evenodd;stroke:#000000;stroke-width:0;stroke-linejoin:miter;shape-rendering:geometricPrecision"
     inkscape:connector-curvature="0"
     id="path81"
     d="m 126.32167,189.3547 v 0 0.38667 0.38667 l -13.2933,7.67998 v -0.38667 -0.38666 z" />
  <path
     style="fill:#009e73;fill-rule:evenodd;stroke:#000000;stroke-width:0;stroke-linejoin:miter;shape-rendering:geometricPrecision"
     inkscape:connector-curvature="0"
     id="path85"
     d="m 113.02837,197.03469 v 0 0.38666 0.38667 l -13.279968,-7.67998 v -0.38667 -0.38667 z" />
  <path
     style="fill:#009e73;fill-rule:evenodd;stroke:#000000;stroke-width:0;stroke-linejoin:miter;shape-rendering:geometricPrecision"
     inkscape:connector-curvature="0"
     id="path89"
     d="m 99.748402,189.3547 v 0 0.38667 0.38667 l -13.2933,7.67998 v -0.38667 -0.38666 z" />
  <g
     id="text95"
     style="text-anchor:start;text-rendering:geometricPrecision"
     aria-label="N"
     transform="matrix(1.33333,0,0,1.33333,-64.611187,-82.791282)">
    <path
       inkscape:connector-curvature="0"
       id="path2564"
       style="font-size:8px;font-family:Arial;fill:#000000"
       d="m 101.03938,207.55 v -5.72656 h 0.77734 l 3.00781,4.49609 v -4.49609 h 0.72656 V 207.55 h -0.77734 l -3.00781,-4.5 v 4.5 z" />
  </g>
  <path
     style="fill:#009e73;fill-rule:evenodd;stroke:#000000;stroke-width:0;stroke-linejoin:miter;shape-rendering:geometricPrecision"
     inkscape:connector-curvature="0"
     id="path99"
     d="m 86.455102,197.03469 v 0 0.38666 0.38667 l -8.933311,-5.15999 0.173333,-0.29333 0.159999,-0.29334 z" />
  <path
     style="fill:#000000;fill-rule:evenodd;stroke:#000000;stroke-width:0;stroke-linejoin:miter;shape-rendering:geometricPrecision"
     inkscape:connector-curvature="0"
     id="path103"
     d="m 68.521813,192.0347 v 0 l 0.16,0.29333 0.173333,0.29333 -8.973311,5.18666 v -0.38667 -0.38666 z" />
  <path
     style="fill:#000000;fill-rule:evenodd;stroke:#000000;stroke-width:0;stroke-linejoin:miter;shape-rendering:geometricPrecision"
     inkscape:connector-curvature="0"
     id="path107"
     d="m 59.881835,197.03469 v 0 0.38666 0.38667 l -13.2933,-7.67998 v -0.38667 -0.38667 z" />
  <path
     style="fill:#000000;fill-rule:evenodd;stroke:#000000;stroke-width:0;stroke-linejoin:miter;shape-rendering:geometricPrecision"
     inkscape:connector-curvature="0"
     id="path111"
     d="m 46.588535,189.3547 v 0 0.38667 0.38667 l -8.333312,4.81332 -0.16,-0.29334 -0.173333,-0.29333 z" />
  <g
     id="text117"
     style="text-anchor:start;text-rendering:geometricPrecision"
     aria-label="O"
     transform="matrix(1.33333,0,0,1.33333,-64.611187,-82.791282)">
    <path
       inkscape:connector-curvature="0"
       id="path2561"
       style="font-size:8px;font-family:Arial;fill:#000000"
       d="m 70.716721,210.52094 q 0,-1.42579 0.765625,-2.23047 0.765625,-0.8086 1.976562,-0.8086 0.792969,0 1.429688,0.37891 0.636718,0.37891 0.96875,1.05859 0.335937,0.67578 0.335937,1.53516 0,0.87109 -0.351562,1.55859 -0.351563,0.6875 -0.996094,1.04297 -0.644531,0.35156 -1.390625,0.35156 -0.808594,0 -1.445313,-0.39062 -0.636718,-0.39063 -0.964843,-1.06641 -0.328125,-0.67578 -0.328125,-1.42968 z m 0.78125,0.0117 q 0,1.03516 0.554687,1.63282 0.558594,0.59375 1.398438,0.59375 0.855468,0 1.40625,-0.60157 0.554687,-0.60156 0.554687,-1.70703 0,-0.69922 -0.238281,-1.21875 -0.234375,-0.52343 -0.691406,-0.80859 -0.453125,-0.28906 -1.019532,-0.28906 -0.804687,0 -1.386718,0.55468 -0.578125,0.55079 -0.578125,1.84375 z" />
  </g>
  <path
     style="fill:#000000;fill-rule:evenodd;stroke:#000000;stroke-width:0;stroke-linejoin:miter;shape-rendering:geometricPrecision"
     inkscape:connector-curvature="0"
     id="path121"
     d="m 28.855246,194.46136 v 0 l -0.173333,0.29333 -0.16,0.29333 -8.506645,-4.91998 v -0.38667 -0.38667 z" />
  <path
     style="fill:#000000;fill-rule:evenodd;stroke:#000000;stroke-width:0;stroke-linejoin:miter;shape-rendering:geometricPrecision"
     inkscape:connector-curvature="0"
     id="path125"
     d="m 20.015268,189.3547 v 0 0.38667 0.38667 l -13.2933,7.67998 v -0.38667 -0.38666 z" />
  <path
     style="fill:#000000;fill-rule:evenodd;stroke:#000000;stroke-width:0;stroke-linejoin:miter;shape-rendering:geometricPrecision"
     inkscape:connector-curvature="0"
     id="path129"
     d="m 6.721968,197.03469 v 0 0.38666 0.38667 l -13.2933001,-7.67998 v -0.38667 -0.38667 z" />
  <path
     style="fill:#cc79a7;fill-opacity:1;fill-rule:evenodd;stroke:#cc79a7;stroke-width:0;stroke-linejoin:miter;stroke-opacity:1;shape-rendering:geometricPrecision"
     inkscape:connector-curvature="0"
     id="path133"
     d="m -6.5713321,189.3547 v 0 0.38667 0.38667 l -13.2799669,7.67998 v -0.38667 -0.38666 z" />
  <path
     inkscape:connector-curvature="0"
     id="line135"
     d="m -6.5713334,192.92802 -11.8933006,6.87999"
     style="fill:#cc79a7;fill-opacity:1;stroke:#cc79a7;stroke-width:0.67999828;stroke-opacity:1;shape-rendering:auto" />
  <path
     style="fill:#cc79a7;fill-opacity:1;fill-rule:evenodd;stroke:#000000;stroke-width:0;stroke-linejoin:miter;shape-rendering:geometricPrecision"
     inkscape:connector-curvature="0"
     id="path139"
     d="m -19.851299,197.03469 v 0 0.38666 0.38667 l -13.639966,-7.86665 0.346666,-0.2 0.346666,-0.2 z" />
  <g
     id="text145"
     style="text-anchor:start;fill:#cc79a7;fill-opacity:1;text-rendering:geometricPrecision"
     aria-label="O"
     transform="matrix(1.33333,0,0,1.33333,-64.611187,-82.791282)">
    <path
       inkscape:connector-curvature="0"
       id="path2557"
       style="font-size:8px;font-family:Arial;fill:#cc79a7;fill-opacity:1"
       d="m 10.916718,210.52094 q 0,-1.42579 0.765625,-2.23047 0.765625,-0.8086 1.976563,-0.8086 0.792969,0 1.429687,0.37891 0.636719,0.37891 0.96875,1.05859 0.335938,0.67578 0.335938,1.53516 0,0.87109 -0.351563,1.55859 -0.351562,0.6875 -0.996093,1.04297 -0.644532,0.35156 -1.390625,0.35156 -0.808594,0 -1.445313,-0.39062 -0.636719,-0.39063 -0.964844,-1.06641 -0.328125,-0.67578 -0.328125,-1.42968 z m 0.78125,0.0117 q 0,1.03516 0.554688,1.63282 0.558594,0.59375 1.398437,0.59375 0.855469,0 1.40625,-0.60157 0.554688,-0.60156 0.554688,-1.70703 0,-0.69922 -0.238281,-1.21875 -0.234375,-0.52343 -0.691407,-0.80859 -0.453125,-0.28906 -1.019531,-0.28906 -0.804687,0 -1.386719,0.55468 -0.578125,0.55079 -0.578125,1.84375 z" />
  </g>
  <path
     style="fill:#cc79a7;fill-opacity:1;fill-rule:evenodd;stroke:none;stroke-width:0;stroke-linejoin:miter;shape-rendering:geometricPrecision"
     inkscape:connector-curvature="0"
     id="path151"
     d="m -33.477931,188.74137 v 0 -0.78666 l -8.626646,4.97332 0.333333,0.58666 z" />
  <path
     style="fill:#cc79a7;fill-opacity:1;fill-rule:evenodd;stroke:none;stroke-width:0;stroke-linejoin:miter;shape-rendering:geometricPrecision"
     inkscape:connector-curvature="0"
     id="path153"
     d="m -31.757936,190.92803 v 0 l -0.679998,-0.38666 -8.279979,4.78665 0.333332,0.58667 z" />
  <g
     id="text159"
     style="text-anchor:start;text-rendering:geometricPrecision"
     aria-label="O"
     transform="matrix(1.33333,0,0,1.33333,-76.611187,-88.791282)">
    <path
       inkscape:connector-curvature="0"
       id="path2553"
       style="font-size:8px;font-family:Arial;fill:#000000"
       d="m 95.586716,308.52094 q 0,-1.42579 0.765625,-2.23047 0.765625,-0.8086 1.976562,-0.8086 0.792969,0 1.429688,0.37891 0.636719,0.37891 0.968749,1.05859 0.33594,0.67578 0.33594,1.53516 0,0.87109 -0.35156,1.55859 -0.35157,0.6875 -0.996098,1.04297 -0.644531,0.35156 -1.390625,0.35156 -0.808594,0 -1.445313,-0.39062 -0.636718,-0.39063 -0.964843,-1.06641 -0.328125,-0.67578 -0.328125,-1.42968 z m 0.78125,0.0117 q 0,1.03516 0.554687,1.63282 0.558594,0.59375 1.398438,0.59375 0.855468,0 1.40625,-0.60157 0.554689,-0.60156 0.554689,-1.70703 0,-0.69922 -0.23828,-1.21875 -0.234378,-0.52343 -0.691409,-0.80859 -0.453125,-0.28906 -1.019532,-0.28906 -0.804687,0 -1.386718,0.55468 -0.578125,0.55079 -0.578125,1.84375 z" />
  </g>
  <path
     style="fill:#000000;fill-rule:evenodd;stroke:#000000;stroke-width:0;stroke-linejoin:miter;shape-rendering:geometricPrecision"
     inkscape:connector-curvature="0"
     id="path163"
     d="m 61.228468,296.04776 v 0 l 0.106667,0.37333 0.106666,0.37333 -10.58664,10.57331 -0.373332,-0.10667 -0.373333,-0.10667 z" />
  <path
     style="fill:#000000;fill-rule:evenodd;stroke:#000000;stroke-width:0;stroke-linejoin:miter;shape-rendering:geometricPrecision"
     inkscape:connector-curvature="0"
     id="path167"
     d="m 50.108496,307.15439 v 0 l 0.373333,0.10667 0.373332,0.10667 2.559994,9.54664 -0.32,0.08 -0.333332,0.0933 z" />
  <path
     style="fill:#000000;fill-rule:evenodd;stroke:#000000;stroke-width:0;stroke-linejoin:miter;shape-rendering:geometricPrecision"
     inkscape:connector-curvature="0"
     id="path171"
     d="m 59.775139,323.86102 v 0 l 0.09333,-0.32 0.08,-0.33333 9.226643,2.47999 0.106667,0.37333 0.106666,0.37334 z" />
  <path
     style="fill:#000000;fill-rule:evenodd;stroke:#000000;stroke-width:0;stroke-linejoin:miter;shape-rendering:geometricPrecision"
     inkscape:connector-curvature="0"
     id="path175"
     d="m 69.388448,326.43435 v 0 l -0.106666,-0.37334 -0.106667,-0.37333 10.58664,-10.58664 0.373333,0.10667 -0.16,0.64 z" />
  <path
     style="fill:#000000;fill-rule:evenodd;stroke:#000000;stroke-width:0;stroke-linejoin:miter;shape-rendering:geometricPrecision"
     inkscape:connector-curvature="0"
     id="path179"
     d="m 80.401754,314.88771 v 0 l -0.266666,0.32 -0.373333,-0.10667 -3.87999,-14.43996 0.279999,-0.28 0.386666,0.14666 z" />
  <path
     style="fill:#000000;fill-rule:evenodd;stroke:#000000;stroke-width:0;stroke-linejoin:miter;shape-rendering:geometricPrecision"
     inkscape:connector-curvature="0"
     id="path183"
     d="m 75.695099,299.90108 v 0 l 0.466665,0.48 -0.279999,0.28 -14.439964,-3.86666 -0.106666,-0.37333 -0.106667,-0.37333 z" />
  <g
     id="text189"
     style="text-anchor:start;text-rendering:geometricPrecision"
     aria-label="N"
     transform="matrix(1.33333,0,0,1.33333,-76.611187,-88.791282)">
    <path
       inkscape:connector-curvature="0"
       id="path2550"
       style="font-size:8px;font-family:Arial;fill:#000000"
       d="m 126.75938,306.75 v -5.72656 h 0.77734 l 3.00781,4.49609 v -4.49609 h 0.72657 V 306.75 h -0.77735 l -3.00781,-4.5 v 4.5 z" />
  </g>
  <path
     style="fill:#000000;fill-rule:evenodd;stroke:#000000;stroke-width:0;stroke-linejoin:miter;shape-rendering:geometricPrecision"
     inkscape:connector-curvature="0"
     id="path193"
     d="m 80.681753,315.58104 v 0 l -0.546665,-0.37333 0.266666,-0.32 10.346641,0.53333 -0.02667,0.33333 -0.01333,0.34667 z" />
  <path
     style="fill:#000000;fill-rule:evenodd;stroke:#000000;stroke-width:0;stroke-linejoin:miter;shape-rendering:geometricPrecision"
     inkscape:connector-curvature="0"
     id="path197"
     d="m 97.668377,311.18105 v 0 l -0.319999,-0.12 -0.306666,-0.13333 3.506658,-9.13331 0.4,-0.10667 0.25333,0.30667 z" />
  <path
     style="fill:#000000;fill-rule:evenodd;stroke:#000000;stroke-width:0;stroke-linejoin:miter;shape-rendering:geometricPrecision"
     inkscape:connector-curvature="0"
     id="path201"
     d="m 101.0417,301.32774 v 0 l -0.0933,0.36 -0.4,0.10667 -11.546638,-9.34665 0.02667,-0.41333 0.359999,-0.14666 z" />
  <path
     style="fill:#cc79a7;fill-rule:evenodd;stroke:#000000;stroke-width:0;stroke-linejoin:miter;shape-rendering:geometricPrecision"
     inkscape:connector-curvature="0"
     id="path205"
     d="m 88.681733,291.84777 v 0 l 0.346666,0.18666 -0.02667,0.41333 -12.453302,8.07998 -0.386666,-0.14666 0.293333,-0.6 z" />
  <path
     style="fill:#009e73;fill-rule:evenodd;stroke:#000000;stroke-width:0;stroke-linejoin:miter;shape-rendering:geometricPrecision"
     inkscape:connector-curvature="0"
     id="path209"
     d="m 99.281707,321.27436 v 0 l 0.266666,-0.21333 0.266666,-0.21334 5.439981,6.73332 -0.14666,0.36 -0.14667,0.36 z" />
  <path
     style="fill:#009e73;fill-rule:evenodd;stroke:#000000;stroke-width:0;stroke-linejoin:miter;shape-rendering:geometricPrecision"
     inkscape:connector-curvature="0"
     id="path213"
     d="m 104.96169,328.30101 v 0 l 0.14667,-0.36 0.14667,-0.36 14.75996,-2.34666 0.25333,0.30667 0.25333,0.30666 z" />
  <path
     style="fill:#009e73;fill-rule:evenodd;stroke:#000000;stroke-width:0;stroke-linejoin:miter;shape-rendering:geometricPrecision"
     inkscape:connector-curvature="0"
     id="path217"
     d="m 120.52165,325.84768 v 0 l -0.25333,-0.30666 -0.25333,-0.30667 5.35998,-13.95997 0.38667,-0.0667 0.38667,-0.0667 z" />
  <path
     style="fill:#009e73;fill-rule:evenodd;stroke:#000000;stroke-width:0;stroke-linejoin:miter;shape-rendering:geometricPrecision"
     inkscape:connector-curvature="0"
     id="path221"
     d="m 126.14831,311.14105 v 0 l -0.38667,0.0667 -0.38667,0.0667 -9.41331,-11.62663 0.14667,-0.36 0.38667,-0.0667 z" />
  <path
     style="fill:#000000;fill-rule:evenodd;stroke:#000000;stroke-width:0;stroke-linejoin:miter;shape-rendering:geometricPrecision"
     inkscape:connector-curvature="0"
     id="path225"
     d="m 115.855,298.98108 v 0 l 0.25333,0.30667 -0.14667,0.36 -14.75996,2.34666 -0.25333,-0.30667 0.0933,-0.36 z" />
  <path
     style="fill:#009e73;fill-rule:evenodd;stroke:#009e73;stroke-width:0;stroke-linejoin:miter;stroke-opacity:1;shape-rendering:geometricPrecision"
     inkscape:connector-curvature="0"
     id="path229"
     d="m 116.495,299.22108 v 0 l -0.38667,0.0667 -0.25333,-0.30667 5.49332,-14.3333 0.25333,0.30667 0.25333,0.30667 z" />
  <path
     inkscape:connector-curvature="0"
     id="line231"
     d="m 119.25498,298.79442 4.36,-11.35996"
     style="fill:#009e73;stroke:#009e73;stroke-width:0.67999828;stroke-opacity:1;shape-rendering:auto" />
  <g
     id="text237"
     style="text-anchor:start;fill:#009e73;text-rendering:geometricPrecision"
     aria-label="OMe"
     transform="matrix(1.33333,0,0,1.33333,-76.611187,-88.791282)">
    <path
       inkscape:connector-curvature="0"
       id="path2542"
       style="font-size:8px;font-family:Arial;fill:#009e73"
       d="m 157.31671,278.87094 q 0,-1.42578 0.76563,-2.23047 0.76562,-0.80859 1.97656,-0.80859 0.79297,0 1.42969,0.3789 0.63672,0.37891 0.96875,1.0586 0.33593,0.67578 0.33593,1.53515 0,0.8711 -0.35156,1.5586 -0.35156,0.6875 -0.99609,1.04297 -0.64453,0.35156 -1.39063,0.35156 -0.80859,0 -1.44531,-0.39063 -0.63672,-0.39062 -0.96484,-1.0664 -0.32813,-0.67578 -0.32813,-1.42969 z m 0.78125,0.0117 q 0,1.03516 0.55469,1.63281 0.55859,0.59375 1.39844,0.59375 0.85547,0 1.40625,-0.60156 0.55468,-0.60156 0.55468,-1.70703 0,-0.69922 -0.23828,-1.21875 -0.23437,-0.52344 -0.6914,-0.8086 -0.45313,-0.28906 -1.01953,-0.28906 -0.80469,0 -1.38672,0.55469 -0.57813,0.55078 -0.57813,1.84375 z" />
    <path
       inkscape:connector-curvature="0"
       id="path2544"
       style="font-size:8px;font-family:Arial;fill:#009e73"
       d="m 163.74249,281.66 v -5.72656 h 1.14063 l 1.35547,4.05469 q 0.1875,0.5664 0.27343,0.84765 0.0977,-0.3125 0.30469,-0.91796 l 1.3711,-3.98438 h 1.01953 V 281.66 h -0.73047 v -4.79297 l -1.66406,4.79297 h -0.6836 l -1.65625,-4.875 v 4.875 z" />
    <path
       inkscape:connector-curvature="0"
       id="path2546"
       style="font-size:8px;font-family:Arial;fill:#009e73"
       d="m 173.18781,280.32407 0.72656,0.0898 q -0.17188,0.63672 -0.63672,0.98828 -0.46484,0.35156 -1.1875,0.35156 -0.91016,0 -1.44531,-0.55859 -0.53125,-0.5625 -0.53125,-1.57422 0,-1.04687 0.53906,-1.625 0.53906,-0.57812 1.39844,-0.57812 0.83203,0 1.35937,0.5664 0.52735,0.56641 0.52735,1.59375 0,0.0625 -0.004,0.1875 h -3.09375 q 0.0391,0.6836 0.38672,1.04688 0.34765,0.36328 0.86719,0.36328 0.38671,0 0.66015,-0.20313 0.27344,-0.20312 0.4336,-0.64843 z m -2.3086,-1.13672 h 2.31641 q -0.0469,-0.52344 -0.26563,-0.78516 -0.33593,-0.40625 -0.87109,-0.40625 -0.48438,0 -0.81641,0.32422 -0.32812,0.32422 -0.36328,0.86719 z" />
  </g>
  <path
     style="fill:#009e73;fill-rule:evenodd;stroke:#000000;stroke-width:0;stroke-linejoin:miter;shape-rendering:geometricPrecision"
     inkscape:connector-curvature="0"
     id="path241"
     d="m 121.85498,285.26112 v 0 l -0.25333,-0.30667 -0.25333,-0.30667 10.14664,-1.59999 0.0533,0.33333 0.0533,0.33333 z" />
  <path
     style="fill:#cc79a7;fill-rule:evenodd;stroke:#000000;stroke-width:0;stroke-linejoin:miter;shape-rendering:geometricPrecision"
     inkscape:connector-curvature="0"
     id="path245"
     d="m 89.388398,291.88777 v 0 l -0.359999,0.14666 -0.346666,-0.18666 -0.426666,-14.7333 1.57333,-0.41333 1.666662,-0.46667 z" />
  <g
     id="text250"
     style="text-anchor:start;fill:#cc79a7;text-rendering:geometricPrecision"
     aria-label="OEt"
     transform="matrix(1.33333,0,0,1.33333,-76.611187,-88.791282)">
    <path
       inkscape:connector-curvature="0"
       id="path2535"
       style="font-size:8px;font-family:Arial;fill:#cc79a7"
       d="m 132.37672,269.26093 q 0,-1.42579 0.76563,-2.23047 0.76562,-0.8086 1.97656,-0.8086 0.79297,0 1.42969,0.37891 0.63672,0.37891 0.96875,1.05859 0.33594,0.67578 0.33594,1.53516 0,0.87109 -0.35157,1.55859 -0.35156,0.6875 -0.99609,1.04297 -0.64453,0.35156 -1.39062,0.35156 -0.8086,0 -1.44532,-0.39062 -0.63672,-0.39063 -0.96484,-1.06641 -0.32813,-0.67578 -0.32813,-1.42968 z m 0.78125,0.0117 q 0,1.03516 0.55469,1.63282 0.5586,0.59375 1.39844,0.59375 0.85547,0 1.40625,-0.60157 0.55469,-0.60156 0.55469,-1.70703 0,-0.69922 -0.23828,-1.21875 -0.23438,-0.52343 -0.69141,-0.80859 -0.45313,-0.28906 -1.01953,-0.28906 -0.80469,0 -1.38672,0.55468 -0.57813,0.55079 -0.57813,1.84375 z" />
    <path
       inkscape:connector-curvature="0"
       id="path2537"
       style="font-size:8px;font-family:Arial;fill:#cc79a7"
       d="m 138.84157,272.04999 v -5.72656 h 4.14062 v 0.67578 h -3.38281 v 1.7539 h 3.16797 v 0.67188 h -3.16797 v 1.94922 h 3.51563 v 0.67578 z" />
    <path
       inkscape:connector-curvature="0"
       id="path2539"
       style="font-size:8px;font-family:Arial;fill:#cc79a7"
       d="m 145.61501,271.42108 0.10156,0.6211 q -0.29688,0.0625 -0.53125,0.0625 -0.38281,0 -0.59375,-0.1211 -0.21094,-0.12109 -0.29688,-0.3164 -0.0859,-0.19922 -0.0859,-0.83204 v -2.38671 h -0.51563 v -0.54688 h 0.51563 v -1.02734 l 0.69921,-0.42188 v 1.44922 h 0.70704 v 0.54688 H 144.908 v 2.42578 q 0,0.30078 0.0352,0.38672 0.0391,0.0859 0.12109,0.13671 0.0859,0.0508 0.24219,0.0508 0.11719,0 0.3086,-0.0273 z" />
  </g>
  <path
     style="fill:#cc79a7;fill-rule:evenodd;stroke:#000000;stroke-width:0;stroke-linejoin:miter;shape-rendering:geometricPrecision"
     inkscape:connector-curvature="0"
     id="path254"
     d="m 91.495059,276.23447 v 0 l -1.666662,0.46667 -1.57333,0.41333 10.106642,-5.13332 0.146666,0.30667 0.16,0.29333 z" />
  <path
     style="fill:#cc79a7;fill-rule:evenodd;stroke:#000000;stroke-width:0;stroke-linejoin:miter;shape-rendering:geometricPrecision"
     inkscape:connector-curvature="0"
     id="path260"
     d="m 90.575062,275.94114 v 0 l 0.693331,-0.36 -8.159979,-5.29332 -0.359999,0.57333 z" />
  <path
     style="fill:#cc79a7;fill-rule:evenodd;stroke:#000000;stroke-width:0;stroke-linejoin:miter;shape-rendering:geometricPrecision"
     inkscape:connector-curvature="0"
     id="path262"
     d="m 89.255065,278.38113 v 0 l 0.106666,-0.74666 -7.746647,-5.02666 -0.373332,0.57334 z" />
  <g
     id="text268"
     style="text-anchor:start;fill:#cc79a7;text-rendering:geometricPrecision"
     aria-label="O"
     transform="matrix(1.33333,0,0,1.33333,-76.611187,-88.791282)">
    <path
       inkscape:connector-curvature="0"
       id="path2531"
       style="font-size:8px;font-family:Arial;fill:#cc79a7"
       d="m 112.46672,268.22095 q 0,-1.42578 0.76563,-2.23047 0.76562,-0.8086 1.97656,-0.8086 0.79297,0 1.42969,0.37891 0.63671,0.37891 0.96875,1.05859 0.33593,0.67579 0.33593,1.53516 0,0.87109 -0.35156,1.55859 -0.35156,0.6875 -0.99609,1.04297 -0.64453,0.35157 -1.39063,0.35157 -0.80859,0 -1.44531,-0.39063 -0.63672,-0.39062 -0.96484,-1.06641 -0.32813,-0.67578 -0.32813,-1.42968 z m 0.78125,0.0117 q 0,1.03515 0.55469,1.63281 0.55859,0.59375 1.39844,0.59375 0.85546,0 1.40625,-0.60156 0.55468,-0.60157 0.55468,-1.70704 0,-0.69921 -0.23828,-1.21875 -0.23437,-0.52343 -0.6914,-0.80859 -0.45313,-0.28906 -1.01954,-0.28906 -0.80468,0 -1.38671,0.55469 -0.57813,0.55078 -0.57813,1.84375 z" />
  </g>
  <g
     id="text274"
     style="text-anchor:start;text-rendering:geometricPrecision"
     aria-label="O"
     transform="matrix(1.33333,0,0,1.33333,-76.611187,-88.791282)">
    <path
       inkscape:connector-curvature="0"
       id="path2528"
       style="font-size:8px;font-family:Arial;fill:#000000"
       d="m 109.68672,322.62094 q 0,-1.42578 0.76563,-2.23047 0.76562,-0.80859 1.97656,-0.80859 0.79297,0 1.42969,0.3789 0.63672,0.37891 0.96875,1.0586 0.33593,0.67578 0.33593,1.53515 0,0.8711 -0.35156,1.5586 -0.35156,0.6875 -0.99609,1.04297 -0.64453,0.35156 -1.39063,0.35156 -0.80859,0 -1.44531,-0.39063 -0.63672,-0.39062 -0.96484,-1.0664 -0.32813,-0.67578 -0.32813,-1.42969 z m 0.78125,0.0117 q 0,1.03516 0.55469,1.63281 0.55859,0.59375 1.39844,0.59375 0.85547,0 1.40625,-0.60156 0.55468,-0.60156 0.55468,-1.70703 0,-0.69922 -0.23828,-1.21875 -0.23437,-0.52344 -0.6914,-0.8086 -0.45313,-0.28906 -1.01953,-0.28906 -0.80469,0 -1.38672,0.55469 -0.57813,0.55078 -0.57813,1.84375 z" />
  </g>
  <path
     style="fill:#000000;fill-rule:evenodd;stroke:#000000;stroke-width:0;stroke-linejoin:miter;shape-rendering:geometricPrecision"
     inkscape:connector-curvature="0"
     id="path280"
     d="m 68.215118,326.12768 v 0 l -0.746665,-0.2 2.719993,10.18664 0.666665,-0.17333 z" />
  <path
     style="fill:#000000;fill-rule:evenodd;stroke:#000000;stroke-width:0;stroke-linejoin:miter;shape-rendering:geometricPrecision"
     inkscape:connector-curvature="0"
     id="path282"
     d="m 70.788444,325.03435 v 0 l -0.559998,0.56 2.639993,9.79997 0.653332,-0.17333 z" />
  <path
     style="fill:#000000;fill-rule:evenodd;stroke:#000000;stroke-width:0;stroke-linejoin:miter;shape-rendering:geometricPrecision"
     inkscape:connector-curvature="0"
     id="path288"
     d="m 290.45459,202.23467 v 0 l 0.68,0.38667 v -9.81331 h -0.68 z" />
  <path
     style="fill:#000000;fill-rule:evenodd;stroke:#000000;stroke-width:0;stroke-linejoin:miter;shape-rendering:geometricPrecision"
     inkscape:connector-curvature="0"
     id="path290"
     d="m 287.6946,202.62134 v 0 l 0.68,-0.38667 v -9.42664 h -0.68 z" />
  <g
     id="text296"
     style="text-anchor:start;text-rendering:geometricPrecision"
     aria-label="O"
     transform="matrix(1.33333,0,0,1.33333,-64.611187,-82.791282)">
    <path
       inkscape:connector-curvature="0"
       id="path2523"
       style="font-size:8px;font-family:Arial;fill:#000000"
       d="m 262.80673,202.47093 q 0,-1.42578 0.76563,-2.23047 0.76562,-0.80859 1.97656,-0.80859 0.79297,0 1.42969,0.37891 0.63672,0.3789 0.96875,1.05859 0.33593,0.67578 0.33593,1.53516 0,0.87109 -0.35156,1.55859 -0.35156,0.6875 -0.99609,1.04297 -0.64453,0.35156 -1.39063,0.35156 -0.80859,0 -1.44531,-0.39062 -0.63672,-0.39063 -0.96484,-1.06641 -0.32813,-0.67578 -0.32813,-1.42969 z m 0.78125,0.0117 q 0,1.03516 0.55469,1.63281 0.55859,0.59375 1.39844,0.59375 0.85547,0 1.40625,-0.60156 0.55468,-0.60156 0.55468,-1.70703 0,-0.69922 -0.23828,-1.21875 -0.23437,-0.52344 -0.6914,-0.80859 -0.45313,-0.28907 -1.01953,-0.28907 -0.80469,0 -1.38672,0.55469 -0.57813,0.55078 -0.57813,1.84375 z" />
  </g>
  <path
     style="fill:#009e73;fill-rule:evenodd;stroke:#000000;stroke-width:0;stroke-linejoin:miter;shape-rendering:geometricPrecision"
     inkscape:connector-curvature="0"
     id="path300"
     d="m 342.2278,186.88804 v 0 l 0.33333,-0.2 0.33333,-0.2 v 15.7333 l -0.33333,-0.2 -0.33333,-0.2 z" />
  <path
     style="fill:#009e73;fill-rule:evenodd;stroke:#000000;stroke-width:0;stroke-linejoin:miter;shape-rendering:geometricPrecision"
     inkscape:connector-curvature="0"
     id="path304"
     d="m 329.62783,163.86143 v 0 l -0.34667,-0.19999 -0.34666,-0.2 8.51997,-4.90666 0.16,0.29333 0.17334,0.29334 z" />
  <g
     id="text310"
     style="text-anchor:start;fill:#009e73;text-rendering:geometricPrecision"
     aria-label="OMe"
     transform="matrix(1.33333,0,0,1.33333,-64.611187,-82.791282)">
    <path
       inkscape:connector-curvature="0"
       id="path2516"
       style="font-size:8px;font-family:Arial;fill:#009e73"
       d="m 302.66672,179.45094 q 0,-1.42578 0.76562,-2.23047 0.76563,-0.80859 1.97657,-0.80859 0.79296,0 1.42968,0.37891 0.63672,0.3789 0.96875,1.05859 0.33594,0.67578 0.33594,1.53516 0,0.87109 -0.35156,1.55859 -0.35156,0.6875 -0.9961,1.04297 -0.64453,0.35156 -1.39062,0.35156 -0.80859,0 -1.44531,-0.39062 -0.63672,-0.39063 -0.96485,-1.06641 -0.32812,-0.67578 -0.32812,-1.42969 z m 0.78125,0.0117 q 0,1.03516 0.55469,1.63281 0.55859,0.59375 1.39843,0.59375 0.85547,0 1.40625,-0.60156 0.55469,-0.60156 0.55469,-1.70703 0,-0.69922 -0.23828,-1.21875 -0.23438,-0.52344 -0.69141,-0.80859 -0.45312,-0.28907 -1.01953,-0.28907 -0.80469,0 -1.38672,0.55469 -0.57812,0.55078 -0.57812,1.84375 z" />
    <path
       inkscape:connector-curvature="0"
       id="path2518"
       style="font-size:8px;font-family:Arial;fill:#009e73"
       d="m 309.0925,182.24001 v -5.72657 h 1.14062 l 1.35547,4.05469 q 0.1875,0.56641 0.27344,0.84766 0.0977,-0.3125 0.30469,-0.91797 l 1.37109,-3.98438 h 1.01953 v 5.72657 h -0.73047 v -4.79297 l -1.66406,4.79297 h -0.68359 l -1.65625,-4.875 v 4.875 z" />
    <path
       inkscape:connector-curvature="0"
       id="path2520"
       style="font-size:8px;font-family:Arial;fill:#009e73"
       d="m 318.53781,180.90407 0.72656,0.0898 q -0.17187,0.63672 -0.63671,0.98828 -0.46485,0.35157 -1.1875,0.35157 -0.91016,0 -1.44532,-0.5586 -0.53125,-0.5625 -0.53125,-1.57422 0,-1.04687 0.53907,-1.625 0.53906,-0.57812 1.39843,-0.57812 0.83203,0 1.35938,0.5664 0.52734,0.56641 0.52734,1.59375 0,0.0625 -0.004,0.1875 h -3.09375 q 0.0391,0.6836 0.38671,1.04688 0.34766,0.36328 0.86719,0.36328 0.38672,0 0.66016,-0.20312 0.27344,-0.20313 0.43359,-0.64844 z m -2.30859,-1.13672 h 2.3164 q -0.0469,-0.52344 -0.26562,-0.78516 -0.33594,-0.40625 -0.87109,-0.40625 -0.48438,0 -0.81641,0.32422 -0.32813,0.32422 -0.36328,0.86719 z" />
  </g>
  <path
     style="fill:#009e73;fill-rule:evenodd;stroke:#009e73;stroke-width:0;stroke-linejoin:miter;stroke-opacity:1;shape-rendering:geometricPrecision"
     inkscape:connector-curvature="0"
     id="path314"
     d="m 328.9345,163.46144 v 0 l 0.34666,0.2 0.34667,0.19999 v 14.94663 l -0.34667,0.2 -0.34666,0.2 z" />
  <path
     inkscape:connector-curvature="0"
     id="line316"
     d="m 332.04114,165.26142 v 12.14663"
     style="fill:#009e73;stroke:#009e73;stroke-width:0.67999828;stroke-opacity:1;shape-rendering:auto" />
  <path
     style="fill:#009e73;fill-rule:evenodd;stroke:#000000;stroke-width:0;stroke-linejoin:miter;shape-rendering:geometricPrecision"
     inkscape:connector-curvature="0"
     id="path320"
     d="m 328.9345,179.20806 v 0 l 0.34666,-0.2 0.34667,-0.2 13.26663,7.67998 -0.33333,0.2 -0.33333,0.2 z" />
  <path
     style="fill:#009e73;fill-rule:evenodd;stroke:#000000;stroke-width:0;stroke-linejoin:miter;shape-rendering:geometricPrecision"
     inkscape:connector-curvature="0"
     id="path324"
     d="m 342.2278,201.82134 v 0 l 0.33333,0.2 0.33333,0.2 -13.6133,7.86665 v -0.38667 -0.38667 z" />
  <g
     id="text330"
     style="text-anchor:start;text-rendering:geometricPrecision"
     aria-label="N"
     transform="matrix(1.33333,0,0,1.33333,-64.611187,-82.791282)">
    <path
       inkscape:connector-curvature="0"
       id="path2512"
       style="font-size:8px;font-family:Arial;fill:#000000"
       d="m 283.15936,216.75999 v -5.72656 h 0.77735 l 3.00781,4.4961 v -4.4961 h 0.72656 v 5.72656 h -0.77734 l -3.00781,-4.5 v 4.5 z" />
  </g>
  <path
     style="fill:#009e73;fill-rule:evenodd;stroke:#000000;stroke-width:0;stroke-linejoin:miter;shape-rendering:geometricPrecision"
     inkscape:connector-curvature="0"
     id="path334"
     d="m 329.28116,209.31465 v 0 0.38667 0.38667 l -8.95998,-5.17332 0.17334,-0.29334 0.16,-0.29333 z" />
  <path
     style="fill:#000000;fill-rule:evenodd;stroke:#000000;stroke-width:0;stroke-linejoin:miter;shape-rendering:geometricPrecision"
     inkscape:connector-curvature="0"
     id="path338"
     d="m 311.32121,204.328 v 0 l 0.16,0.29333 0.17333,0.29334 -8.95998,5.17332 v -0.38667 -0.38667 z" />
  <path
     style="fill:#000000;fill-rule:evenodd;stroke:#000000;stroke-width:0;stroke-linejoin:miter;shape-rendering:geometricPrecision"
     inkscape:connector-curvature="0"
     id="path342"
     d="m 302.69456,209.31465 v 0 0.38667 0.38667 L 289.41459,202.408 v -0.38666 -0.38667 z" />
  <g
     id="text348"
     style="text-anchor:start;text-rendering:geometricPrecision"
     aria-label="O"
     transform="matrix(1.33333,0,0,1.33333,-64.611187,-82.791282)">
    <path
       inkscape:connector-curvature="0"
       id="path2509"
       style="font-size:8px;font-family:Arial;fill:#000000"
       d="m 252.83672,219.73094 q 0,-1.42578 0.76562,-2.23047 0.76563,-0.80859 1.97656,-0.80859 0.79297,0 1.42969,0.37891 0.63672,0.3789 0.96875,1.05859 0.33594,0.67578 0.33594,1.53516 0,0.87109 -0.35156,1.55859 -0.35157,0.6875 -0.9961,1.04297 -0.64453,0.35156 -1.39062,0.35156 -0.8086,0 -1.44532,-0.39062 -0.63671,-0.39063 -0.96484,-1.06641 -0.32812,-0.67578 -0.32812,-1.42969 z m 0.78125,0.0117 q 0,1.03516 0.55468,1.63281 0.5586,0.59375 1.39844,0.59375 0.85547,0 1.40625,-0.60156 0.55469,-0.60156 0.55469,-1.70703 0,-0.69922 -0.23828,-1.21875 -0.23438,-0.52344 -0.69141,-0.80859 -0.45312,-0.28907 -1.01953,-0.28907 -0.80469,0 -1.38672,0.55469 -0.57812,0.55078 -0.57812,1.84375 z" />
  </g>
  <path
     style="fill:#000000;fill-rule:evenodd;stroke:#000000;stroke-width:0;stroke-linejoin:miter;shape-rendering:geometricPrecision"
     inkscape:connector-curvature="0"
     id="path352"
     d="m 289.41459,201.63467 v 0 0.38667 0.38666 l -8.22664,4.75999 -0.17333,-0.29333 -0.17334,-0.29333 z" />
  <path
     style="fill:#000000;fill-rule:evenodd;stroke:#000000;stroke-width:0;stroke-linejoin:miter;shape-rendering:geometricPrecision"
     inkscape:connector-curvature="0"
     id="path356"
     d="m 271.65464,206.72799 v 0 l -0.17333,0.29334 -0.16,0.29333 -5.39999,-3.11999 0.17333,-0.29334 0.16,-0.29333 z" />
  <path
     inkscape:connector-curvature="0"
     id="circle366"
     d="m 314.29011,230.28794 a 3.5555467,3.5555467 0 0 1 -3.55556,3.55553 3.5555467,3.5555467 0 0 1 -3.55555,-3.55553 3.5555467,3.5555467 0 0 1 3.55555,-3.55556 3.5555467,3.5555467 0 0 1 3.55556,3.55556 z"
     style="fill:none;stroke:#000000;stroke-width:0.54399866" />
  <path
     inkscape:connector-curvature="0"
     id="line368"
     d="m 308.61456,230.28794 h 4.23999"
     style="stroke:#000000;stroke-width:0.54399866;shape-rendering:auto" />
  <path
     inkscape:connector-curvature="0"
     id="circle371"
     d="m 476.30298,212.51465 a 3.5555467,3.5555467 0 0 1 -3.55555,3.55553 3.5555467,3.5555467 0 0 1 -3.55555,-3.55553 3.5555467,3.5555467 0 0 1 3.55555,-3.55555 3.5555467,3.5555467 0 0 1 3.55555,3.55555 z"
     style="fill:none;stroke:#000000;stroke-width:0.54399866" />
  <path
     inkscape:connector-curvature="0"
     id="line373"
     d="m 470.62743,212.51465 h 4.23999"
     style="stroke:#000000;stroke-width:0.54399866;shape-rendering:auto" />
  <path
     inkscape:connector-curvature="0"
     id="line375"
     d="m 472.74743,210.39465 v 4.24"
     style="stroke:#000000;stroke-width:0.54399866;shape-rendering:auto" />
  <path
     style="fill:#000000;fill-rule:evenodd;stroke:#000000;stroke-width:0;stroke-linejoin:miter;shape-rendering:geometricPrecision"
     inkscape:connector-curvature="0"
     id="path378"
     d="m 473.3341,196.94135 v 0 h -0.34666 -0.33333 l -0.0133,-10.45331 0.34667,0.2 0.34666,0.2 z" />
  <path
     inkscape:connector-curvature="0"
     id="line380"
     d="m 475.74742,196.94135 v -8.66664"
     style="stroke:#000000;stroke-width:0.67999828;shape-rendering:auto" />
  <path
     style="fill:#000000;fill-rule:evenodd;stroke:#000000;stroke-width:0;stroke-linejoin:miter;shape-rendering:geometricPrecision"
     inkscape:connector-curvature="0"
     id="path386"
     d="m 447.45417,202.23467 v 0 l 0.68,0.38667 v -9.81331 h -0.68 z" />
  <path
     style="fill:#000000;fill-rule:evenodd;stroke:#000000;stroke-width:0;stroke-linejoin:miter;shape-rendering:geometricPrecision"
     inkscape:connector-curvature="0"
     id="path388"
     d="m 444.69418,202.62134 v 0 l 0.67999,-0.38667 v -9.42664 h -0.67999 z" />
  <path
     style="fill:#009e73;fill-rule:evenodd;stroke:#000000;stroke-width:0;stroke-linejoin:miter;shape-rendering:geometricPrecision"
     inkscape:connector-curvature="0"
     id="path392"
     d="m 499.22737,186.88804 v 0 l 0.33334,-0.2 0.33333,-0.2 v 15.7333 l -0.33333,-0.2 -0.33334,-0.2 z" />
  <g
     id="text398"
     style="text-anchor:start;text-rendering:geometricPrecision"
     aria-label="O"
     transform="matrix(1.33333,0,0,1.33333,-76.611187,-82.791282)">
    <path
       inkscape:connector-curvature="0"
       id="path2496"
       style="font-size:8px;font-family:Arial;fill:#000000"
       d="m 389.55673,202.47093 q 0,-1.42578 0.76563,-2.23047 0.76562,-0.80859 1.97656,-0.80859 0.79297,0 1.42969,0.37891 0.63672,0.3789 0.96875,1.05859 0.33593,0.67578 0.33593,1.53516 0,0.87109 -0.35156,1.55859 -0.35156,0.6875 -0.99609,1.04297 -0.64453,0.35156 -1.39063,0.35156 -0.80859,0 -1.44531,-0.39062 -0.63672,-0.39063 -0.96484,-1.06641 -0.32813,-0.67578 -0.32813,-1.42969 z m 0.78125,0.0117 q 0,1.03516 0.55469,1.63281 0.55859,0.59375 1.39844,0.59375 0.85547,0 1.40625,-0.60156 0.55468,-0.60156 0.55468,-1.70703 0,-0.69922 -0.23828,-1.21875 -0.23437,-0.52344 -0.6914,-0.80859 -0.45313,-0.28907 -1.01953,-0.28907 -0.80469,0 -1.38672,0.55469 -0.57813,0.55078 -0.57813,1.84375 z" />
  </g>
  <path
     style="fill:#009e73;fill-rule:evenodd;stroke:#000000;stroke-width:0;stroke-linejoin:miter;shape-rendering:geometricPrecision"
     inkscape:connector-curvature="0"
     id="path402"
     d="m 486.6274,163.86143 v 0 l -0.34666,-0.19999 -0.34667,-0.2 8.58665,-4.94666 0.16,0.29333 0.17333,0.29334 z" />
  <g
     id="text408"
     style="text-anchor:start;fill:#009e73;text-rendering:geometricPrecision"
     aria-label="OMe"
     transform="matrix(1.33333,0,0,1.33333,-76.611187,-82.791282)">
    <path
       inkscape:connector-curvature="0"
       id="path2489"
       style="font-size:8px;font-family:Arial;fill:#009e73"
       d="m 429.41672,179.45094 q 0,-1.42578 0.76562,-2.23047 0.76563,-0.80859 1.97657,-0.80859 0.79296,0 1.42968,0.37891 0.63672,0.3789 0.96875,1.05859 0.33594,0.67578 0.33594,1.53516 0,0.87109 -0.35156,1.55859 -0.35156,0.6875 -0.9961,1.04297 -0.64453,0.35156 -1.39062,0.35156 -0.80859,0 -1.44531,-0.39062 -0.63672,-0.39063 -0.96485,-1.06641 -0.32812,-0.67578 -0.32812,-1.42969 z m 0.78125,0.0117 q 0,1.03516 0.55469,1.63281 0.55859,0.59375 1.39843,0.59375 0.85547,0 1.40625,-0.60156 0.55469,-0.60156 0.55469,-1.70703 0,-0.69922 -0.23828,-1.21875 -0.23438,-0.52344 -0.69141,-0.80859 -0.45312,-0.28907 -1.01953,-0.28907 -0.80469,0 -1.38672,0.55469 -0.57812,0.55078 -0.57812,1.84375 z" />
    <path
       inkscape:connector-curvature="0"
       id="path2491"
       style="font-size:8px;font-family:Arial;fill:#009e73"
       d="m 435.8425,182.24001 v -5.72657 h 1.14062 l 1.35547,4.05469 q 0.1875,0.56641 0.27344,0.84766 0.0977,-0.3125 0.30469,-0.91797 l 1.37109,-3.98438 h 1.01953 v 5.72657 h -0.73047 v -4.79297 l -1.66406,4.79297 h -0.68359 l -1.65625,-4.875 v 4.875 z" />
    <path
       inkscape:connector-curvature="0"
       id="path2493"
       style="font-size:8px;font-family:Arial;fill:#009e73"
       d="m 445.28781,180.90407 0.72656,0.0898 q -0.17187,0.63672 -0.63671,0.98828 -0.46485,0.35157 -1.1875,0.35157 -0.91016,0 -1.44532,-0.5586 -0.53125,-0.5625 -0.53125,-1.57422 0,-1.04687 0.53907,-1.625 0.53906,-0.57812 1.39843,-0.57812 0.83203,0 1.35938,0.5664 0.52734,0.56641 0.52734,1.59375 0,0.0625 -0.004,0.1875 h -3.09375 q 0.0391,0.6836 0.38671,1.04688 0.34766,0.36328 0.86719,0.36328 0.38672,0 0.66016,-0.20312 0.27344,-0.20313 0.43359,-0.64844 z m -2.30859,-1.13672 h 2.3164 q -0.0469,-0.52344 -0.26562,-0.78516 -0.33594,-0.40625 -0.87109,-0.40625 -0.48438,0 -0.81641,0.32422 -0.32813,0.32422 -0.36328,0.86719 z" />
  </g>
  <path
     style="fill:#009e73;fill-rule:evenodd;stroke:#009e73;stroke-width:0;stroke-linejoin:miter;stroke-opacity:1;shape-rendering:geometricPrecision"
     inkscape:connector-curvature="0"
     id="path412"
     d="m 485.93407,163.46144 v 0 l 0.34667,0.2 0.34666,0.19999 v 14.94663 l -0.34666,0.2 -0.33333,-0.2 z" />
  <path
     inkscape:connector-curvature="0"
     id="line414"
     d="m 489.04072,165.26142 v 12.14663"
     style="fill:#009e73;stroke:#009e73;stroke-width:0.67999828;stroke-opacity:1;shape-rendering:auto" />
  <path
     style="fill:#009e73;fill-rule:evenodd;stroke:#000000;stroke-width:0;stroke-linejoin:miter;shape-rendering:geometricPrecision"
     inkscape:connector-curvature="0"
     id="path418"
     d="m 486.28074,179.39473 v 0 -0.38667 l 0.34666,-0.2 13.26664,7.67998 -0.33333,0.2 -0.33334,0.2 z" />
  <path
     style="fill:#009e73;fill-rule:evenodd;stroke:#000000;stroke-width:0;stroke-linejoin:miter;shape-rendering:geometricPrecision"
     inkscape:connector-curvature="0"
     id="path422"
     d="m 499.22737,201.82134 v 0 l 0.33334,0.2 0.33333,0.2 -13.6133,7.86665 v -0.38667 -0.38667 z" />
  <g
     id="text428"
     style="text-anchor:start;text-rendering:geometricPrecision"
     aria-label="N"
     transform="matrix(1.33333,0,0,1.33333,-76.611187,-82.791282)">
    <path
       inkscape:connector-curvature="0"
       id="path2485"
       style="font-size:8px;font-family:Arial;fill:#000000"
       d="m 409.90936,216.75999 v -5.72656 h 0.77735 l 3.00781,4.4961 v -4.4961 h 0.72656 v 5.72656 h -0.77734 l -3.00781,-4.5 v 4.5 z" />
  </g>
  <path
     style="fill:#009e73;fill-rule:evenodd;stroke:#000000;stroke-width:0;stroke-linejoin:miter;shape-rendering:geometricPrecision"
     inkscape:connector-curvature="0"
     id="path432"
     d="m 486.28074,209.31465 v 0 0.38667 0.38667 l -8.89331,-5.13332 0.17333,-0.29334 0.16,-0.29333 z" />
  <path
     style="fill:#000000;fill-rule:evenodd;stroke:#000000;stroke-width:0;stroke-linejoin:miter;shape-rendering:geometricPrecision"
     inkscape:connector-curvature="0"
     id="path436"
     d="m 468.38745,204.288 v 0 l 0.16,0.29333 0.17333,0.29334 -9.02664,5.21332 v -0.38667 -0.38667 z" />
  <path
     style="fill:#000000;fill-rule:evenodd;stroke:#000000;stroke-width:0;stroke-linejoin:miter;shape-rendering:geometricPrecision"
     inkscape:connector-curvature="0"
     id="path440"
     d="m 459.69414,209.31465 v 0 0.38667 0.38667 L 446.41417,202.408 v -0.38666 -0.38667 z" />
  <path
     style="fill:#000000;fill-rule:evenodd;stroke:#000000;stroke-width:0;stroke-linejoin:miter;shape-rendering:geometricPrecision"
     inkscape:connector-curvature="0"
     id="path444"
     d="m 446.41417,201.63467 v 0 0.38667 0.38666 l -8.29331,4.79999 -0.16,-0.29333 -0.17333,-0.30667 z" />
  <g
     id="text450"
     style="text-anchor:start;text-rendering:geometricPrecision"
     aria-label="O"
     transform="matrix(1.33333,0,0,1.33333,-76.611187,-82.791282)">
    <path
       inkscape:connector-curvature="0"
       id="path2482"
       style="font-size:8px;font-family:Arial;fill:#000000"
       d="m 379.58673,219.73094 q 0,-1.42578 0.76563,-2.23047 0.76562,-0.80859 1.97656,-0.80859 0.79297,0 1.42969,0.37891 0.63671,0.3789 0.96875,1.05859 0.33593,0.67578 0.33593,1.53516 0,0.87109 -0.35156,1.55859 -0.35156,0.6875 -0.99609,1.04297 -0.64453,0.35156 -1.39063,0.35156 -0.80859,0 -1.44531,-0.39062 -0.63672,-0.39063 -0.96484,-1.06641 -0.32813,-0.67578 -0.32813,-1.42969 z m 0.78125,0.0117 q 0,1.03516 0.55469,1.63281 0.55859,0.59375 1.39844,0.59375 0.85546,0 1.40625,-0.60156 0.55468,-0.60156 0.55468,-1.70703 0,-0.69922 -0.23828,-1.21875 -0.23437,-0.52344 -0.6914,-0.80859 -0.45313,-0.28907 -1.01954,-0.28907 -0.80468,0 -1.38671,0.55469 -0.57813,0.55078 -0.57813,1.84375 z" />
  </g>
  <path
     style="fill:#000000;fill-rule:evenodd;stroke:#000000;stroke-width:0;stroke-linejoin:miter;shape-rendering:geometricPrecision"
     inkscape:connector-curvature="0"
     id="path460"
     d="m 428.72088,206.76799 v 0 l -0.17333,0.29334 -0.16,0.29333 -5.39999,-3.11999 0.17334,-0.29334 0.16,-0.29333 z" />
  <path
     style="fill:#000000;fill-rule:evenodd;stroke:#000000;stroke-width:0;stroke-linejoin:miter;shape-rendering:geometricPrecision"
     inkscape:connector-curvature="0"
     id="path464"
     d="m 485.94741,178.80806 v 0 l 0.33333,0.2 v 0.38667 l -12.94664,7.49331 -0.34666,-0.2 -0.34667,-0.2 z" />
  <path
     inkscape:connector-curvature="0"
     id="circle468"
     d="m 462.36969,216.3813 a 3.5555467,3.5555467 0 0 1 -3.55554,3.55555 3.5555467,3.5555467 0 0 1 -3.55555,-3.55555 3.5555467,3.5555467 0 0 1 3.55555,-3.55553 3.5555467,3.5555467 0 0 1 3.55554,3.55553 z"
     style="fill:none;stroke:#000000;stroke-width:0.54399866" />
  <path
     inkscape:connector-curvature="0"
     id="line470"
     d="m 456.69416,216.3813 h 4.23998"
     style="stroke:#000000;stroke-width:0.54399866;shape-rendering:auto" />
  <path
     style="fill:#000000;fill-rule:evenodd;stroke:#000000;stroke-width:0;stroke-linejoin:miter;shape-rendering:geometricPrecision"
     inkscape:connector-curvature="0"
     id="path473"
     d="m 302.84117,305.3944 v 0 l -0.12,-0.34667 0.2,-0.34666 h 13.99997 l 0.14666,0.34666 -0.12,0.34667 z" />
  <path
     style="fill:#009e73;fill-opacity:1;fill-rule:evenodd;stroke:#000000;stroke-width:0;stroke-linejoin:miter;shape-rendering:geometricPrecision"
     inkscape:connector-curvature="0"
     id="path477"
     d="m 316.9478,305.3944 v 0 l 0.12,-0.34667 0.52,-0.04 10.86664,8.35998 -0.53333,0.0267 -0.6,-0.0267 z" />
  <path
     style="fill:#000000;fill-rule:evenodd;stroke:#000000;stroke-width:0;stroke-linejoin:miter;shape-rendering:geometricPrecision"
     inkscape:connector-curvature="0"
     id="path481"
     d="m 302.28117,304.96773 v 0 l 0.44,0.08 0.12,0.34667 -6.39998,4.91999 -0.21333,-0.28 -0.2,-0.26667 z" />
  <path
     inkscape:connector-curvature="0"
     id="line483"
     d="m 299.4945,304.42107 -4.77331,3.66666"
     style="stroke:#000000;stroke-width:0.67999828;shape-rendering:auto" />
  <path
     style="fill:#009e73;fill-opacity:1;fill-rule:evenodd;stroke:#000000;stroke-width:0;stroke-linejoin:miter;shape-rendering:geometricPrecision"
     inkscape:connector-curvature="0"
     id="path487"
     d="m 315.77447,320.51436 v 0 l 1.29333,1.06667 1.18667,1.06666 h -16.71996 l 1.18666,-1.06666 1.29333,-1.06667 z" />
  <g
     id="text492"
     style="text-anchor:start;text-rendering:geometricPrecision"
     aria-label="N"
     transform="matrix(1.33333,0,0,1.33333,-86.611187,-88.791282)">
    <path
       inkscape:connector-curvature="0"
       id="path2473"
       style="font-size:8px;font-family:Arial;fill:#000000"
       d="m 281.56937,304.79001 v -5.72656 h 0.77734 l 3.00781,4.49609 v -4.49609 h 0.72657 v 5.72656 h -0.77735 l -3.00781,-4.5 v 4.5 z" />
  </g>
  <path
     style="fill:#009e73;fill-opacity:1;fill-rule:evenodd;stroke:#000000;stroke-width:0;stroke-linejoin:miter;shape-rendering:geometricPrecision"
     inkscape:connector-curvature="0"
     id="path496"
     d="m 304.0145,320.51436 v 0 l -1.29333,1.06667 -1.18666,1.06666 -5.50665,-5.67999 0.21333,-0.28 0.2,-0.26666 z" />
  <path
     style="fill:#009e73;fill-opacity:1;fill-rule:evenodd;stroke:#000000;stroke-width:0;stroke-linejoin:miter;shape-rendering:geometricPrecision"
     inkscape:connector-curvature="0"
     id="path499"
     d="m 318.25447,322.64769 v 0 l -1.18667,-1.06666 -1.29333,-1.06667 11.54664,-7.14665 0.6,0.0267 0.53333,-0.0267 z" />
  <path
     style="fill:#009e73;fill-opacity:1;fill-rule:evenodd;stroke:#009e73;stroke-width:0;stroke-linejoin:miter;stroke-opacity:1;shape-rendering:geometricPrecision"
     inkscape:connector-curvature="0"
     id="path503"
     d="m 317.5878,305.00773 v 0 l -0.52,0.04 -0.14666,-0.34666 10.8533,-10.85331 0.14667,0.34667 0.14667,0.34666 z" />
  <path
     inkscape:connector-curvature="0"
     id="line505"
     d="m 321.24114,304.78105 7.82665,-7.82663"
     style="fill:#009e73;fill-opacity:1;stroke:#009e73;stroke-width:0.67999828;stroke-opacity:1;shape-rendering:auto" />
  <g
     id="text511"
     style="text-anchor:start;fill:#009e73;fill-opacity:1;text-rendering:geometricPrecision"
     aria-label="OMe"
     transform="matrix(1.33333,0,0,1.33333,-86.611187,-88.791282)">
    <path
       inkscape:connector-curvature="0"
       id="path2465"
       style="font-size:8px;font-family:Arial;fill:#009e73;fill-opacity:1"
       d="m 319.69672,287.60095 q 0,-1.42578 0.76562,-2.23047 0.76563,-0.80859 1.97656,-0.80859 0.79297,0 1.42969,0.37891 0.63672,0.3789 0.96875,1.05859 0.33594,0.67578 0.33594,1.53516 0,0.87109 -0.35156,1.55859 -0.35157,0.6875 -0.9961,1.04297 -0.64453,0.35156 -1.39062,0.35156 -0.8086,0 -1.44531,-0.39062 -0.63672,-0.39063 -0.96485,-1.06641 -0.32812,-0.67578 -0.32812,-1.42969 z m 0.78125,0.0117 q 0,1.03516 0.55468,1.63281 0.5586,0.59375 1.39844,0.59375 0.85547,0 1.40625,-0.60156 0.55469,-0.60156 0.55469,-1.70703 0,-0.69922 -0.23828,-1.21875 -0.23438,-0.52344 -0.69141,-0.80859 -0.45312,-0.28907 -1.01953,-0.28907 -0.80469,0 -1.38672,0.55469 -0.57812,0.55078 -0.57812,1.84375 z" />
    <path
       inkscape:connector-curvature="0"
       id="path2467"
       style="font-size:8px;font-family:Arial;fill:#009e73;fill-opacity:1"
       d="m 326.1225,290.39001 v -5.72656 h 1.14062 l 1.35547,4.05469 q 0.1875,0.56641 0.27344,0.84766 0.0977,-0.3125 0.30469,-0.91797 l 1.37109,-3.98438 h 1.01953 v 5.72656 h -0.73047 v -4.79296 l -1.66406,4.79296 h -0.68359 l -1.65625,-4.875 v 4.875 z" />
    <path
       inkscape:connector-curvature="0"
       id="path2469"
       style="font-size:8px;font-family:Arial;fill:#009e73;fill-opacity:1"
       d="m 335.56781,289.05408 0.72656,0.0898 q -0.17187,0.63672 -0.63672,0.98828 -0.46484,0.35156 -1.1875,0.35156 -0.91015,0 -1.44531,-0.55859 -0.53125,-0.5625 -0.53125,-1.57422 0,-1.04687 0.53906,-1.625 0.53907,-0.57812 1.39844,-0.57812 0.83203,0 1.35938,0.5664 0.52734,0.56641 0.52734,1.59375 0,0.0625 -0.004,0.1875 h -3.09375 q 0.0391,0.6836 0.38672,1.04688 0.34766,0.36328 0.86719,0.36328 0.38672,0 0.66016,-0.20313 0.27343,-0.20312 0.43359,-0.64843 z m -2.30859,-1.13672 h 2.3164 q -0.0469,-0.52344 -0.26562,-0.78516 -0.33594,-0.40625 -0.8711,-0.40625 -0.48437,0 -0.8164,0.32422 -0.32813,0.32422 -0.36328,0.86719 z" />
  </g>
  <path
     style="fill:#009e73;fill-opacity:1;fill-rule:evenodd;stroke:#000000;stroke-width:0;stroke-linejoin:miter;shape-rendering:geometricPrecision"
     inkscape:connector-curvature="0"
     id="path515"
     d="m 328.06778,294.54109 v 0 l -0.14667,-0.34666 -0.14667,-0.34667 10.27998,0.0133 v 0.33334 0.34666 z" />
  <path
     style="fill:#000000;fill-rule:evenodd;stroke:#000000;stroke-width:0;stroke-linejoin:miter;shape-rendering:geometricPrecision"
     inkscape:connector-curvature="0"
     id="path519"
     d="m 287.12121,313.06105 v 0 0.33333 0.34666 h -10.43997 l -0.16,-0.34666 0.38666,-0.34667 z" />
  <path
     style="fill:#ababab;fill-rule:evenodd;stroke:#ababab;stroke-width:0;stroke-linejoin:miter;shape-rendering:geometricPrecision"
     inkscape:connector-curvature="0"
     id="path523"
     d="m 276.30791,312.30105 v 0 l 0.21333,1.09333 -0.42667,-0.08 -3.94665,-7.19998 0.2,-0.34667 0.2,-0.34666 z" />
  <g
     id="text529"
     style="text-anchor:start;text-rendering:geometricPrecision"
     aria-label="H"
     transform="matrix(1.33333,0,0,1.33333,-86.611187,-88.791282)">
    <path
       inkscape:connector-curvature="0"
       id="path2462"
       style="font-size:8px;font-family:Arial;fill:#000000"
       d="m 261.96063,312.92999 v -5.72656 h 0.75781 v 2.35156 h 2.97657 v -2.35156 h 0.75781 v 5.72656 h -0.75781 v -2.69922 h -2.97657 v 2.69922 z" />
  </g>
  <path
     style="fill:#000000;fill-rule:evenodd;stroke:#000000;stroke-width:0;stroke-linejoin:miter;shape-rendering:geometricPrecision"
     inkscape:connector-curvature="0"
     id="path533"
     d="m 276.09457,313.31438 v 0 l 0.42667,0.08 0.16,0.34666 -5.61332,7.35999 -1.12,-1.12 -1.13333,-1.13333 z" />
  <g
     id="text539"
     style="text-anchor:start;text-rendering:geometricPrecision"
     aria-label="O"
     transform="matrix(1.33333,0,0,1.33333,-86.611187,-88.791282)">
    <path
       inkscape:connector-curvature="0"
       id="path2459"
       style="font-size:8px;font-family:Arial;fill:#ababab"
       d="m 255.00671,296.28094 q 0,-1.42578 0.76563,-2.23046 0.76562,-0.8086 1.97656,-0.8086 0.79297,0 1.42969,0.37891 0.63672,0.3789 0.96875,1.05859 0.33594,0.67578 0.33594,1.53516 0,0.87109 -0.35157,1.55859 -0.35156,0.6875 -0.99609,1.04297 -0.64453,0.35156 -1.39062,0.35156 -0.8086,0 -1.44532,-0.39062 -0.63672,-0.39063 -0.96484,-1.06641 -0.32813,-0.67578 -0.32813,-1.42969 z m 0.78125,0.0117 q 0,1.03516 0.55469,1.63282 0.5586,0.59375 1.39844,0.59375 0.85547,0 1.40625,-0.60157 0.55469,-0.60156 0.55469,-1.70703 0,-0.69922 -0.23828,-1.21875 -0.23438,-0.52344 -0.69141,-0.80859 -0.45313,-0.28906 -1.01953,-0.28906 -0.80469,0 -1.38672,0.55468 -0.57813,0.55078 -0.57813,1.84375 z" />
  </g>
  <path
     style="fill:#ababab;fill-rule:evenodd;stroke:#ababab;stroke-width:0;stroke-linejoin:miter;shape-rendering:geometricPrecision"
     inkscape:connector-curvature="0"
     id="path543"
     d="m 272.54792,305.42107 v 0 l -0.2,0.34666 -0.2,0.34667 -9.69331,-0.0133 v -0.33333 -0.34666 z" />
  <g
     id="text549"
     style="text-anchor:start;text-rendering:geometricPrecision"
     aria-label="O"
     transform="matrix(1.33333,0,0,1.33333,-86.611187,-88.791282)">
    <path
       inkscape:connector-curvature="0"
       id="path2456"
       style="font-size:8px;font-family:Arial;fill:#ababab"
       d="m 271.50671,290.80093 q 0,-1.42578 0.76563,-2.23046 0.76562,-0.8086 1.97656,-0.8086 0.79297,0 1.42969,0.37891 0.63672,0.3789 0.96875,1.05859 0.33594,0.67578 0.33594,1.53516 0,0.87109 -0.35157,1.55859 -0.35156,0.6875 -0.99609,1.04297 -0.64453,0.35156 -1.39062,0.35156 -0.8086,0 -1.44532,-0.39062 -0.63672,-0.39063 -0.96484,-1.06641 -0.32813,-0.67578 -0.32813,-1.42969 z m 0.78125,0.0117 q 0,1.03516 0.55469,1.63282 0.5586,0.59375 1.39844,0.59375 0.85547,0 1.40625,-0.60157 0.55469,-0.60156 0.55469,-1.70703 0,-0.69922 -0.23828,-1.21875 -0.23438,-0.52344 -0.69141,-0.80859 -0.45313,-0.28906 -1.01953,-0.28906 -0.80469,0 -1.38672,0.55468 -0.57813,0.55078 -0.57813,1.84375 z" />
  </g>
  <g
     id="Bond's parts"
     transform="matrix(1.33333,0,0,1.33333,-86.611187,-88.791282)">
    <path
       style="fill:#ababab;fill-rule:evenodd;stroke:#ababab;stroke-width:0;stroke-linejoin:miter;shape-rendering:geometricPrecision"
       inkscape:connector-curvature="0"
       id="path553"
       d="m 270.25,293.4 v 0 h 0.1 l 0.07,0.1 0.23,0.05 -0.05,0.2 -0.1,0.2 -0.05,0.05 -0.1,0.1 -0.1,0.1 -0.1,0.1 -0.1,0.1 -0.1,0.1 -0.1,0.1 -0.1,0.1 -0.1,0.1 -0.05,0.05 -0.1,0.2 -0.05,0.05 -0.1,0.1 -0.1,0.1 -0.1,0.1 -0.1,0.1 -0.07,0.1 h -0.71 l 0.08,-0.1 0.1,-0.1 0.1,-0.1 0.1,-0.1 0.1,-0.1 0.1,-0.1 0.05,-0.05 0.1,-0.2 0.05,-0.05 0.1,-0.1 0.1,-0.1 0.1,-0.1 0.1,-0.1 0.1,-0.1 0.1,-0.1 0.1,-0.1 0.1,-0.1 0.05,-0.05 0.1,-0.2 0.05,-0.05 0.1,-0.1 z" />
    <path
       style="fill:#ababab;fill-rule:evenodd;stroke:#ababab;stroke-width:0;stroke-linejoin:miter;shape-rendering:geometricPrecision"
       inkscape:connector-curvature="0"
       id="path555"
       d="m 271.25,294.3 v 0 h 0.1 l 0.1,0.1 0.05,0.1 v 0.05 l -0.1,0.4 -0.05,0.05 -0.1,0.1 -0.1,0.1 -0.1,0.1 -0.1,0.1 -0.1,0.1 -0.1,0.1 -0.1,0.1 -0.1,0.1 -0.1,0.1 -0.05,0.05 -0.1,0.2 -0.05,0.05 -0.1,0.1 -0.1,0.1 -0.1,0.1 h -0.1 l -0.05,-0.05 -0.1,-0.2 v -0.2 l 0.05,-0.05 0.05,-0.05 0.1,-0.2 0.05,-0.05 0.1,-0.1 0.1,-0.1 0.1,-0.1 0.1,-0.1 0.1,-0.1 0.1,-0.1 0.1,-0.1 0.1,-0.1 0.05,-0.05 0.1,-0.2 0.05,-0.05 0.1,-0.1 0.1,-0.1 z" />
  </g>
  <path
     inkscape:connector-curvature="0"
     id="circle560"
     d="m 283.38342,319.31435 a 3.5555467,3.5555467 0 0 1 -3.55554,3.55554 3.5555467,3.5555467 0 0 1 -3.55555,-3.55554 3.5555467,3.5555467 0 0 1 3.55555,-3.55555 3.5555467,3.5555467 0 0 1 3.55554,3.55555 z"
     style="fill:none;stroke:#000000;stroke-width:0.54399866" />
  <path
     inkscape:connector-curvature="0"
     id="line562"
     d="m 277.70789,319.31435 h 4.24001"
     style="stroke:#000000;stroke-width:0.54399866;shape-rendering:auto" />
  <path
     inkscape:connector-curvature="0"
     id="circle565"
     d="m 295.31675,324.32769 a 3.5555467,3.5555467 0 0 1 -3.55555,3.55553 3.5555467,3.5555467 0 0 1 -3.55555,-3.55553 3.5555467,3.5555467 0 0 1 3.55555,-3.55556 3.5555467,3.5555467 0 0 1 3.55555,3.55556 z"
     style="fill:none;stroke:#000000;stroke-width:0.54399866" />
  <path
     inkscape:connector-curvature="0"
     id="line567"
     d="m 289.64121,324.32769 h 4.23999"
     style="stroke:#000000;stroke-width:0.54399866;shape-rendering:auto" />
  <path
     inkscape:connector-curvature="0"
     id="line569"
     d="m 291.7612,322.20769 v 4.23998"
     style="stroke:#000000;stroke-width:0.54399866;shape-rendering:auto" />
  <path
     style="fill:#ababab;fill-rule:evenodd;stroke:#ababab;stroke-width:0;stroke-linejoin:miter;shape-rendering:geometricPrecision"
     inkscape:connector-curvature="0"
     id="path572"
     d="m 256.42796,300.51441 v 0 l -0.33334,0.0533 -0.33333,0.0533 -2.30666,-13.0133 0.46666,0.66666 0.46667,0.66667 z" />
  <path
     style="fill:#ababab;fill-rule:evenodd;stroke:#ababab;stroke-width:0;stroke-linejoin:miter;shape-rendering:geometricPrecision"
     inkscape:connector-curvature="0"
     id="path576"
     d="m 254.38796,288.94111 v 0 l -0.46667,-0.66667 -0.46666,-0.66666 10.18664,5.99998 -0.0933,0.33333 -0.0933,0.33334 z" />
  <path
     style="fill:#ababab;fill-rule:evenodd;stroke:#ababab;stroke-width:0;stroke-linejoin:miter;shape-rendering:geometricPrecision"
     inkscape:connector-curvature="0"
     id="path580"
     d="m 263.4546,294.27443 v 0 l 0.0933,-0.33334 0.0933,-0.33333 h 15.0933 l 0.14666,0.33333 -0.38666,0.33334 z" />
  <path
     style="fill:#cc79a7;fill-rule:evenodd;stroke:#cc79a7;stroke-width:0;stroke-linejoin:miter;stroke-opacity:1;shape-rendering:geometricPrecision"
     inkscape:connector-curvature="0"
     id="path584"
     d="m 279.20123,294.10109 v 0 l -0.32,-0.16 -0.14666,-0.33333 10.8533,-10.8533 0.14667,0.33333 -0.0667,0.54666 z" />
  <path
     inkscape:connector-curvature="0"
     id="line586"
     d="m 281.50789,295.2211 7.66665,-7.66664"
     style="fill:#cc79a7;stroke:#cc79a7;stroke-width:0.67999828;stroke-opacity:1;shape-rendering:auto" />
  <g
     id="text592"
     style="text-anchor:start;text-rendering:geometricPrecision"
     aria-label="H"
     transform="matrix(1.33333,0,0,1.33333,-86.611187,-88.791282)">
    <path
       inkscape:connector-curvature="0"
       id="path2447"
       style="font-size:8px;font-family:Arial;fill:#ababab"
       d="m 270.04062,276.31 v -5.72656 h 0.75781 v 2.35156 h 2.97656 v -2.35156 h 0.75782 V 276.31 h -0.75782 v -2.69922 h -2.97656 V 276.31 Z" />
  </g>
  <path
     style="fill:#ababab;fill-rule:evenodd;stroke:#ababab;stroke-width:0;stroke-linejoin:miter;shape-rendering:geometricPrecision"
     inkscape:connector-curvature="0"
     id="path596"
     d="m 289.90787,282.79446 v 0 l -0.34666,0.58666 -0.62667,-0.26667 0.42667,-0.73333 z" />
  <path
     style="fill:#ababab;fill-rule:evenodd;stroke:#ababab;stroke-width:0;stroke-linejoin:miter;shape-rendering:geometricPrecision"
     inkscape:connector-curvature="0"
     id="path598"
     d="m 287.38788,280.88779 v 0 l -0.72,1.26667 -0.64,-0.26667 0.81333,-1.41333 z" />
  <path
     style="fill:#ababab;fill-rule:evenodd;stroke:#ababab;stroke-width:0;stroke-linejoin:miter;shape-rendering:geometricPrecision"
     inkscape:connector-curvature="0"
     id="path600"
     d="m 284.88122,278.99447 v 0 l -1.12,1.93332 -0.62666,-0.26666 1.19999,-2.08 z" />
  <path
     style="fill:#ababab;fill-rule:evenodd;stroke:#ababab;stroke-width:0;stroke-linejoin:miter;shape-rendering:geometricPrecision"
     inkscape:connector-curvature="0"
     id="path602"
     d="m 282.36122,277.0878 v 0 l -1.50666,2.61333 -0.62666,-0.26667 1.58666,-2.74666 z" />
  <path
     style="fill:#cc79a7;fill-rule:evenodd;stroke:#000000;stroke-width:0;stroke-linejoin:miter;shape-rendering:geometricPrecision"
     inkscape:connector-curvature="0"
     id="path605"
     d="m 290.33454,283.42112 v 0 l -0.6,-0.33333 -0.14667,-0.33333 h 15.35996 l 0.13334,0.33333 0.13333,0.33333 z" />
  <g
     id="text611"
     style="text-anchor:start;fill:#cc79a7;text-rendering:geometricPrecision"
     aria-label="O"
     transform="matrix(1.33333,0,0,1.33333,-86.611187,-88.791282)">
    <path
       inkscape:connector-curvature="0"
       id="path2444"
       style="font-size:8px;font-family:Arial;fill:#cc79a7"
       d="m 297.69672,283.54092 q 0,-1.42578 0.76562,-2.23046 0.76563,-0.8086 1.97656,-0.8086 0.79297,0 1.42969,0.37891 0.63672,0.3789 0.96875,1.05859 0.33594,0.67578 0.33594,1.53516 0,0.87109 -0.35156,1.55859 -0.35157,0.6875 -0.9961,1.04297 -0.64453,0.35156 -1.39062,0.35156 -0.8086,0 -1.44531,-0.39062 -0.63672,-0.39063 -0.96485,-1.06641 -0.32812,-0.67578 -0.32812,-1.42969 z m 0.78125,0.0117 q 0,1.03516 0.55468,1.63282 0.5586,0.59375 1.39844,0.59375 0.85547,0 1.40625,-0.60157 0.55469,-0.60156 0.55469,-1.70703 0,-0.69922 -0.23828,-1.21875 -0.23438,-0.52344 -0.69141,-0.80859 -0.45312,-0.28906 -1.01953,-0.28906 -0.80469,0 -1.38672,0.55468 -0.57812,0.55078 -0.57812,1.84375 z" />
  </g>
  <path
     style="fill:#cc79a7;fill-rule:evenodd;stroke:#000000;stroke-width:0;stroke-linejoin:miter;shape-rendering:geometricPrecision"
     inkscape:connector-curvature="0"
     id="path617"
     d="m 304.48117,283.42112 v 0 h -1.25333 l 5.18665,3.34666 0.37333,-0.57333 z" />
  <path
     style="fill:#cc79a7;fill-rule:evenodd;stroke:#000000;stroke-width:0;stroke-linejoin:miter;shape-rendering:geometricPrecision"
     inkscape:connector-curvature="0"
     id="path619"
     d="m 306.3745,282.38112 v 0 l -0.53333,0.48 3.59999,2.30666 0.36,-0.57333 z" />
  <g
     id="text625"
     style="text-anchor:start;fill:#cc79a7;text-rendering:geometricPrecision"
     aria-label="OEt"
     transform="matrix(1.33333,0,0,1.33333,-86.611187,-88.791282)">
    <path
       inkscape:connector-curvature="0"
       id="path2436"
       style="font-size:8px;font-family:Arial;fill:#cc79a7"
       d="m 298.14673,272.90094 q 0,-1.42578 0.76562,-2.23047 0.76563,-0.80859 1.97657,-0.80859 0.79296,0 1.42968,0.3789 0.63672,0.37891 0.96875,1.0586 0.33594,0.67578 0.33594,1.53515 0,0.8711 -0.35156,1.5586 -0.35156,0.6875 -0.9961,1.04297 -0.64453,0.35156 -1.39062,0.35156 -0.80859,0 -1.44531,-0.39063 -0.63672,-0.39062 -0.96485,-1.0664 -0.32812,-0.67578 -0.32812,-1.42969 z m 0.78125,0.0117 q 0,1.03515 0.55469,1.63281 0.55859,0.59375 1.39843,0.59375 0.85547,0 1.40625,-0.60156 0.55469,-0.60156 0.55469,-1.70703 0,-0.69922 -0.23828,-1.21875 -0.23438,-0.52344 -0.69141,-0.8086 -0.45312,-0.28906 -1.01953,-0.28906 -0.80469,0 -1.38672,0.55469 -0.57812,0.55078 -0.57812,1.84375 z" />
    <path
       inkscape:connector-curvature="0"
       id="path2438"
       style="font-size:8px;font-family:Arial;fill:#cc79a7"
       d="m 304.61157,275.69 v -5.72656 h 4.14063 v 0.67578 h -3.38282 v 1.75391 h 3.16797 v 0.67187 h -3.16797 v 1.94922 h 3.51563 V 275.69 Z" />
    <path
       inkscape:connector-curvature="0"
       id="path2440"
       style="font-size:8px;font-family:Arial;fill:#cc79a7"
       d="m 311.38501,275.0611 0.10156,0.62109 q -0.29687,0.0625 -0.53125,0.0625 -0.38281,0 -0.59375,-0.12109 -0.21094,-0.1211 -0.29687,-0.31641 -0.0859,-0.19922 -0.0859,-0.83203 v -2.38672 h -0.51563 v -0.54688 h 0.51563 v -1.02734 l 0.69922,-0.42187 v 1.44921 h 0.70703 v 0.54688 h -0.70703 v 2.42578 q 0,0.30078 0.0351,0.38672 0.0391,0.0859 0.1211,0.13672 0.0859,0.0508 0.24219,0.0508 0.11718,0 0.30859,-0.0273 z" />
  </g>
  <path
     style="fill:#cc79a7;fill-rule:evenodd;stroke:#000000;stroke-width:0;stroke-linejoin:miter;shape-rendering:geometricPrecision"
     inkscape:connector-curvature="0"
     id="path629"
     d="m 305.2145,283.42112 v 0 l -0.13333,-0.33333 -0.13334,-0.33333 5.05332,-4.54666 0.22667,0.25333 0.22667,0.25334 z" />
  <path
     style="fill:#000000;fill-rule:evenodd;stroke:#000000;stroke-width:0;stroke-linejoin:miter;shape-rendering:geometricPrecision"
     inkscape:connector-curvature="0"
     id="path633"
     d="m 278.17457,296.94109 v 0 l 0.68,0.08 0.34666,-2.92 -0.32,-0.16 -0.38666,0.33334 z" />
  <path
     style="fill:#000000;fill-rule:evenodd;stroke:#000000;stroke-width:0;stroke-linejoin:miter;shape-rendering:geometricPrecision"
     inkscape:connector-curvature="0"
     id="path635"
     d="m 276.6279,309.64772 v 0 l 0.68,0.08 -0.4,3.31999 -0.38666,0.34667 -0.21333,-1.09333 z" />
  <path
     style="fill:#000000;fill-rule:evenodd;stroke:#000000;stroke-width:0;stroke-linejoin:miter;shape-rendering:geometricPrecision"
     inkscape:connector-curvature="0"
     id="path637"
     d="m 277.88124,299.40775 v 0 l -0.33334,2.65332 0.68,0.08 0.32,-2.65332 z" />
  <path
     style="fill:#000000;fill-rule:evenodd;stroke:#000000;stroke-width:0;stroke-linejoin:miter;shape-rendering:geometricPrecision"
     inkscape:connector-curvature="0"
     id="path639"
     d="m 277.25457,304.52773 v 0 l -0.32,2.65333 0.66667,0.08 0.33333,-2.65333 z" />
  <path
     style="fill:#000000;fill-rule:evenodd;stroke:#000000;stroke-width:0;stroke-linejoin:miter;shape-rendering:geometricPrecision"
     inkscape:connector-curvature="0"
     id="path642"
     d="m 291.10787,286.07445 v 0 l 0.58666,-0.33334 -1.35999,-2.31999 -0.6,-0.33333 -0.0667,0.54666 z" />
  <path
     style="fill:#000000;fill-rule:evenodd;stroke:#000000;stroke-width:0;stroke-linejoin:miter;shape-rendering:geometricPrecision"
     inkscape:connector-curvature="0"
     id="path644"
     d="m 300.90784,302.66107 v 0 l 0.58667,-0.34666 1.42666,2.38666 -0.2,0.34666 -0.44,-0.08 z" />
  <path
     style="fill:#000000;fill-rule:evenodd;stroke:#000000;stroke-width:0;stroke-linejoin:miter;shape-rendering:geometricPrecision"
     inkscape:connector-curvature="0"
     id="path646"
     d="m 292.53453,288.48777 v 0 l 1.36,2.30667 0.58666,-0.33334 -1.35999,-2.30666 z" />
  <path
     style="fill:#000000;fill-rule:evenodd;stroke:#000000;stroke-width:0;stroke-linejoin:miter;shape-rendering:geometricPrecision"
     inkscape:connector-curvature="0"
     id="path648"
     d="m 295.33452,293.20776 v 0 l 1.36,2.32 0.58667,-0.34667 -1.37333,-2.30666 z" />
  <path
     style="fill:#000000;fill-rule:evenodd;stroke:#000000;stroke-width:0;stroke-linejoin:miter;shape-rendering:geometricPrecision"
     inkscape:connector-curvature="0"
     id="path650"
     d="m 298.12118,297.94108 v 0 l 1.36,2.30667 0.58667,-0.34667 -1.36,-2.30666 z" />
  <path
     style="fill:none;fill-rule:evenodd;stroke:#000000;stroke-width:0.67999828;stroke-linejoin:miter;shape-rendering:geometricPrecision"
     inkscape:connector-curvature="0"
     id="path654"
     d="m 363.14769,269.20782 h 4.90665 v 62.50651 h -4.90665" />
  <path
     style="fill:none;fill-rule:evenodd;stroke:#000000;stroke-width:0.67999828;stroke-linejoin:miter;shape-rendering:geometricPrecision"
     inkscape:connector-curvature="0"
     id="path657"
     d="m 252.4813,331.71433 h -4.91999 v -62.50651 h 4.91999" />
  <g
     id="text663"
     style="text-anchor:start;text-rendering:geometricPrecision"
     aria-label="H"
     transform="matrix(1.33333,0,0,1.33333,-76.611187,-88.791282)">
    <path
       inkscape:connector-curvature="0"
       id="path2433"
       style="font-size:8px;font-family:Arial;fill:#000000"
       d="m 110.52062,283.67001 v -5.72656 h 0.75781 v 2.35156 h 2.97657 v -2.35156 h 0.75781 v 5.72656 H 114.255 v -2.69922 h -2.97657 v 2.69922 z" />
  </g>
  <path
     style="fill:#000000;fill-rule:evenodd;stroke:#000000;stroke-width:0;stroke-linejoin:miter;shape-rendering:geometricPrecision"
     inkscape:connector-curvature="0"
     id="path667"
     d="m 76.455097,299.78108 v 0 l -0.293333,0.6 -0.466665,-0.48 -2.559994,-8.46665 1.57333,-0.25333 1.573329,-0.24 z" />
  <g
     id="text673"
     style="text-anchor:start;text-rendering:geometricPrecision"
     aria-label="H"
     transform="matrix(1.33333,0,0,1.33333,-76.611187,-88.791282)">
    <path
       inkscape:connector-curvature="0"
       id="path2430"
       style="font-size:8px;font-family:Arial;fill:#000000"
       d="m 119.42062,316.89999 v -5.72656 h 0.75782 v 2.35156 h 2.97656 v -2.35156 h 0.75781 v 5.72656 H 123.155 v -2.69921 h -2.97656 v 2.69921 z" />
  </g>
  <path
     style="fill:#000000;fill-rule:evenodd;stroke:#000000;stroke-width:0;stroke-linejoin:miter;shape-rendering:geometricPrecision"
     inkscape:connector-curvature="0"
     id="path677"
     d="m 79.975088,315.84771 v 0 l 0.16,-0.64 0.546665,0.37333 4.506655,8.37331 -1.479996,0.57333 -1.493329,0.56 z" />
  <g
     id="text683"
     style="text-anchor:start;text-rendering:geometricPrecision"
     aria-label="H"
     transform="matrix(1.33333,0,0,1.33333,-76.611187,-88.791282)">
    <path
       inkscape:connector-curvature="0"
       id="path2427"
       style="font-size:8px;font-family:Arial;fill:#000000"
       d="m 133.89062,284.89001 v -5.72656 h 0.75782 v 2.35156 h 2.97656 v -2.35156 h 0.75781 v 5.72656 H 137.625 v -2.69921 h -2.97656 v 2.69921 z" />
  </g>
  <path
     style="fill:#000000;fill-rule:evenodd;stroke:#000000;stroke-width:0;stroke-linejoin:miter;shape-rendering:geometricPrecision"
     inkscape:connector-curvature="0"
     id="path687"
     d="m 101.2817,301.78107 v 0 l -0.66666,-0.18666 0.0933,-0.68 0.82666,0.22667 z" />
  <path
     style="fill:#000000;fill-rule:evenodd;stroke:#000000;stroke-width:0;stroke-linejoin:miter;shape-rendering:geometricPrecision"
     inkscape:connector-curvature="0"
     id="path689"
     d="m 102.38837,299.11441 v 0 l -1.4,-0.37333 0.08,-0.68 1.58666,0.42667 z" />
  <path
     style="fill:#000000;fill-rule:evenodd;stroke:#000000;stroke-width:0;stroke-linejoin:miter;shape-rendering:geometricPrecision"
     inkscape:connector-curvature="0"
     id="path691"
     d="m 103.50836,296.44775 v 0 l -2.15999,-0.57333 0.0933,-0.68 2.32,0.62667 z" />
  <path
     style="fill:#000000;fill-rule:evenodd;stroke:#000000;stroke-width:0;stroke-linejoin:miter;shape-rendering:geometricPrecision"
     inkscape:connector-curvature="0"
     id="path693"
     d="m 104.61503,293.79443 v 0 l -2.89333,-0.77333 0.08,-0.68 3.07999,0.81333 z" />
  <path
     inkscape:connector-curvature="0"
     id="line697"
     d="M 234.77472,189.20804 H 160.64158"
     style="stroke:#000000;stroke-width:0.67999828;shape-rendering:auto" />
  <path
     style="fill:#000000;fill-rule:evenodd;stroke:#000000;stroke-width:0;stroke-linejoin:miter;stroke-miterlimit:5.89496231;shape-rendering:geometricPrecision"
     inkscape:connector-curvature="0"
     id="path699"
     stroke-miterlimit="5.89496254687632"
     d="m 239.38805,189.20804 -6.79998,-1.70666 c 1.44,0.95999 1.44,2.45332 0,3.41332 z" />
  <path
     sodipodi:nodetypes="cc"
     inkscape:connector-curvature="0"
     id="line702"
     d="M 397.52098,189.20804 H 378.19927"
     style="stroke:#000000;stroke-width:0.67999828;shape-rendering:auto" />
  <path
     style="fill:#000000;fill-rule:evenodd;stroke:#000000;stroke-width:0;stroke-linejoin:miter;stroke-miterlimit:5.89496231;shape-rendering:geometricPrecision"
     inkscape:connector-curvature="0"
     id="path704"
     stroke-miterlimit="5.89496254687654"
     d="m 402.13429,189.20804 -6.79998,-1.70666 c 1.44,0.95999 1.44,2.45332 0,3.41332 z" />
  <g
     id="text714"
     style="text-anchor:start;text-rendering:geometricPrecision"
     aria-label="Tf2O, DTBMP"
     transform="matrix(1.33333,0,0,1.33333,-64.611187,-82.791282)">
    <path
       inkscape:connector-curvature="0"
       id="path2404"
       style="font-size:8px;font-family:Arial;fill:#000000"
       d="m 173.88422,198.88 v -5.05078 h -1.88672 v -0.67578 h 4.53906 v 0.67578 h -1.89453 V 198.88 Z" />
    <path
       inkscape:connector-curvature="0"
       id="path2406"
       style="font-size:8px;font-family:Arial;fill:#000000"
       d="m 177.39594,198.88 v -3.60156 h -0.6211 v -0.54687 h 0.6211 v -0.44141 q 0,-0.41797 0.0742,-0.62109 0.10157,-0.27344 0.35547,-0.44141 0.25782,-0.17187 0.71875,-0.17187 0.29688,0 0.65625,0.0703 l -0.10547,0.61328 q -0.21875,-0.0391 -0.41406,-0.0391 -0.32031,0 -0.45312,0.13672 -0.13282,0.13671 -0.13282,0.51171 v 0.38282 h 0.8086 v 0.54687 h -0.8086 V 198.88 Z" />
    <path
       inkscape:connector-curvature="0"
       id="path2408"
       style="font-size:6px;font-family:Arial;fill:#000000"
       d="M 181.93988,200.18317 V 200.69 h -2.83887 q -0.006,-0.19042 0.0615,-0.36621 0.1084,-0.29004 0.3457,-0.57129 0.24023,-0.28125 0.69141,-0.65039 0.70019,-0.57421 0.94629,-0.9082 0.24609,-0.33691 0.24609,-0.63574 0,-0.31348 -0.22559,-0.52734 -0.22265,-0.2168 -0.583,-0.2168 -0.38086,0 -0.60938,0.22851 -0.22852,0.22852 -0.23145,0.63282 l -0.54199,-0.0557 q 0.0557,-0.60644 0.41895,-0.92285 0.36328,-0.31934 0.97558,-0.31934 0.61817,0 0.97852,0.34278 0.36035,0.34277 0.36035,0.84961 0,0.25781 -0.10547,0.50683 -0.10547,0.24903 -0.35156,0.52442 -0.24316,0.27539 -0.81152,0.75586 -0.47461,0.39843 -0.60938,0.54199 -0.13476,0.14062 -0.22265,0.28418 z" />
    <path
       inkscape:connector-curvature="0"
       id="path2410"
       style="font-size:8px;font-family:Arial;fill:#000000"
       d="m 182.64594,196.09094 q 0,-1.42578 0.76562,-2.23047 0.76563,-0.80859 1.97656,-0.80859 0.79297,0 1.42969,0.37891 0.63672,0.3789 0.96875,1.05859 0.33594,0.67578 0.33594,1.53516 0,0.87109 -0.35156,1.55859 -0.35157,0.6875 -0.9961,1.04297 -0.64453,0.35156 -1.39062,0.35156 -0.8086,0 -1.44532,-0.39062 -0.63671,-0.39063 -0.96484,-1.06641 -0.32812,-0.67578 -0.32812,-1.42969 z m 0.78125,0.0117 q 0,1.03516 0.55468,1.63281 0.5586,0.59375 1.39844,0.59375 0.85547,0 1.40625,-0.60156 0.55469,-0.60156 0.55469,-1.70703 0,-0.69922 -0.23828,-1.21875 -0.23438,-0.52344 -0.69141,-0.80859 -0.45312,-0.28907 -1.01953,-0.28907 -0.80469,0 -1.38672,0.55469 -0.57812,0.55078 -0.57812,1.84375 z" />
    <path
       inkscape:connector-curvature="0"
       id="path2412"
       style="font-size:8px;font-family:Arial;fill:#000000"
       d="m 189.1889,198.88 v -0.80078 h 0.80079 V 198.88 q 0,0.44141 -0.15625,0.71094 -0.15625,0.27344 -0.4961,0.42188 l -0.19531,-0.30078 q 0.22266,-0.0977 0.32812,-0.28907 0.10547,-0.1875 0.11719,-0.54297 z" />
    <path
       inkscape:connector-curvature="0"
       id="path2414"
       style="font-size:8px;font-family:Arial;fill:#000000"
       d="m 193.53265,198.88 v -5.72656 h 1.97266 q 0.66797,0 1.01953,0.082 0.49219,0.11328 0.83985,0.41016 0.45312,0.38281 0.67578,0.98047 0.22656,0.59375 0.22656,1.35937 0,0.65235 -0.15234,1.15625 -0.15235,0.50391 -0.39063,0.83594 -0.23828,0.32813 -0.52344,0.51953 -0.28125,0.1875 -0.68359,0.28516 -0.39844,0.0976 -0.91797,0.0976 z m 0.75782,-0.67578 h 1.22265 q 0.56641,0 0.88672,-0.10547 0.32422,-0.10546 0.51563,-0.29687 0.26953,-0.26953 0.41797,-0.72266 0.15234,-0.45703 0.15234,-1.10547 0,-0.89843 -0.29688,-1.3789 -0.29296,-0.48438 -0.71484,-0.64844 -0.30469,-0.11719 -0.98047,-0.11719 h -1.20312 z" />
    <path
       inkscape:connector-curvature="0"
       id="path2416"
       style="font-size:8px;font-family:Arial;fill:#000000"
       d="m 200.77094,198.88 v -5.05078 h -1.88672 v -0.67578 h 4.53906 v 0.67578 h -1.89453 V 198.88 Z" />
    <path
       inkscape:connector-curvature="0"
       id="path2418"
       style="font-size:8px;font-family:Arial;fill:#000000"
       d="m 204.17328,198.88 v -5.72656 h 2.14844 q 0.65625,0 1.05078,0.17578 0.39844,0.17188 0.62109,0.53516 0.22656,0.35937 0.22656,0.75391 0,0.36718 -0.19921,0.6914 -0.19922,0.32422 -0.60157,0.52344 0.51953,0.15234 0.79688,0.51953 0.28125,0.36719 0.28125,0.86719 0,0.40234 -0.17188,0.75 -0.16797,0.34375 -0.41797,0.53125 -0.25,0.1875 -0.6289,0.28515 -0.375,0.0937 -0.92188,0.0937 z m 0.75781,-3.32031 h 1.23828 q 0.50391,0 0.72266,-0.0664 0.28906,-0.0859 0.43359,-0.28516 0.14844,-0.19922 0.14844,-0.5 0,-0.28516 -0.13672,-0.5 -0.13672,-0.21875 -0.39062,-0.29688 -0.25391,-0.082 -0.8711,-0.082 h -1.14453 z m 0,2.64453 h 1.42578 q 0.36719,0 0.51563,-0.0273 0.26172,-0.0469 0.4375,-0.15625 0.17578,-0.10938 0.28906,-0.31641 0.11328,-0.21093 0.11328,-0.48437 0,-0.32031 -0.16406,-0.55469 -0.16406,-0.23828 -0.45703,-0.33203 -0.28906,-0.0977 -0.83594,-0.0977 h -1.32422 z" />
    <path
       inkscape:connector-curvature="0"
       id="path2420"
       style="font-size:8px;font-family:Arial;fill:#000000"
       d="m 209.52484,198.88 v -5.72656 h 1.14063 l 1.35547,4.05469 q 0.1875,0.56641 0.27343,0.84766 0.0977,-0.3125 0.30469,-0.91797 l 1.37109,-3.98438 h 1.01954 V 198.88 h -0.73047 v -4.79296 l -1.66407,4.79296 h -0.68359 l -1.65625,-4.875 v 4.875 z" />
    <path
       inkscape:connector-curvature="0"
       id="path2422"
       style="font-size:8px;font-family:Arial;fill:#000000"
       d="m 216.22015,198.88 v -5.72656 h 2.16016 q 0.57031,0 0.87109,0.0547 0.42188,0.0703 0.70704,0.26953 0.28515,0.19531 0.45703,0.55078 0.17578,0.35547 0.17578,0.78125 0,0.73047 -0.46485,1.23828 -0.46484,0.50391 -1.67968,0.50391 h -1.46875 V 198.88 Z m 0.75782,-3.0039 h 1.48047 q 0.73437,0 1.04296,-0.27344 0.3086,-0.27344 0.3086,-0.76953 0,-0.35938 -0.1836,-0.61328 -0.17968,-0.25781 -0.47656,-0.33985 -0.1914,-0.0508 -0.70703,-0.0508 h -1.46484 z" />
  </g>
  <path
     style="fill:none;fill-rule:evenodd;stroke:#000000;stroke-width:0.67999828;stroke-linejoin:miter;shape-rendering:geometricPrecision"
     inkscape:connector-curvature="0"
     id="path718"
     d="m 361.13442,145.87481 h 6.25331 v 83.99979 h -6.25331" />
  <path
     style="fill:none;fill-rule:evenodd;stroke:#000000;stroke-width:0.67999828;stroke-linejoin:miter;shape-rendering:geometricPrecision"
     inkscape:connector-curvature="0"
     id="path722"
     d="m 260.308,229.8746 h -6.25332 v -83.99979 h 6.25332" />
  <path
     style="fill:none;fill-rule:evenodd;stroke:#000000;stroke-width:0.67999828;stroke-linejoin:miter;shape-rendering:geometricPrecision"
     inkscape:connector-curvature="0"
     id="path726"
     d="m 517.254,146.54148 h 6.13332 v 81.99979 H 517.254" />
  <path
     style="fill:none;fill-rule:evenodd;stroke:#000000;stroke-width:0.67999828;stroke-linejoin:miter;shape-rendering:geometricPrecision"
     inkscape:connector-curvature="0"
     id="path730"
     d="m 416.85425,228.54127 h -6.13332 v -81.99979 h 6.13332" />
  <path
     style="stroke:#000000;stroke-width:0.67999828;shape-rendering:auto"
     d="m 428.89423,298.11441 v -57.1465"
     id="line734" />
  <path
     sodipodi:nodetypes="cc"
     inkscape:connector-curvature="0"
     id="line736"
     d="M 428.89423,298.1144 H 386.58761"
     style="stroke:#000000;stroke-width:0.67999828;shape-rendering:auto" />
  <path
     style="fill:#000000;fill-rule:evenodd;stroke:#000000;stroke-width:0;stroke-linejoin:miter;stroke-miterlimit:5.89496231;shape-rendering:geometricPrecision"
     inkscape:connector-curvature="0"
     id="path738"
     stroke-miterlimit="5.89496254687654"
     d="m 381.9743,298.11442 6.79998,1.70666 c -1.44,-0.96 -1.44,-2.45333 0,-3.41333 z" />
  <path
     inkscape:connector-curvature="0"
     id="line742"
     d="m 171.33487,298.78107 h 54.79985"
     style="stroke:#000000;stroke-width:0.67999828;shape-rendering:auto" />
  <path
     style="fill:#000000;fill-rule:evenodd;stroke:#000000;stroke-width:0;stroke-linejoin:miter;stroke-miterlimit:5.89496231;shape-rendering:geometricPrecision"
     inkscape:connector-curvature="0"
     id="path744"
     stroke-miterlimit="5.89496254687643"
     d="m 166.72153,298.78108 6.79999,1.70666 c -1.44,-0.95999 -1.44,-2.45332 0,-3.41332 z" />
  <path
     inkscape:connector-curvature="0"
     id="circle425"
     d="m 43.063088,296.51523 a 1.7199957,1.7199957 0 0 0 1.719996,1.71999 1.7199957,1.7199957 0 0 0 1.719995,-1.71999 1.7199957,1.7199957 0 0 0 -1.719995,-1.72 1.7199957,1.7199957 0 0 0 -1.719996,1.72 z"
     style="fill:#e69e00;stroke:#e69e00;stroke-width:0.133333" />
  <path
     inkscape:connector-curvature="0"
     id="circle425-3"
     d="m 305.50671,177.86326 a 1.7199957,1.7199957 0 0 0 1.72,1.72 1.7199957,1.7199957 0 0 0 1.71999,-1.72 1.7199957,1.7199957 0 0 0 -1.71999,-1.72 1.7199957,1.7199957 0 0 0 -1.72,1.72 z"
     style="fill:#e69e00;stroke:#e69e00;stroke-width:0.133333" />
  <path
     sodipodi:nodetypes="cc"
     id="line429-1"
     d="m 307.22671,156.74198 v 21.10876"
     style="stroke:#e69e00;stroke-width:0.67999828;shape-rendering:auto"
     inkscape:connector-curvature="0" />
  <path
     sodipodi:nodetypes="cc"
     id="line431-0"
     d="M 307.22671,156.74198 H 136.42529"
     style="stroke:#e69e00;stroke-width:0.67999828;shape-rendering:auto"
     inkscape:connector-curvature="0" />
  <text
     id="text5713-8"
     y="151.92403"
     x="136.85019"
     style="font-style:normal;font-variant:normal;font-weight:normal;font-stretch:normal;font-size:10.66666698px;line-height:1.25;font-family:Arial;-inkscape-font-specification:Arial;text-align:start;letter-spacing:0px;word-spacing:0px;text-anchor:start;fill:#e69e00;fill-opacity:1;stroke:none;stroke-width:0.99999994"
     xml:space="preserve"><tspan
       style="stroke-width:0.99999994"
       y="151.92403"
       x="136.85019"
       id="tspan5711-1"
       sodipodi:role="line">chemoselektywno</tspan></text>
  <path
     inkscape:connector-curvature="0"
     style="stroke:#e69e00;stroke-width:0.67999828;shape-rendering:auto"
     d="m 44.783083,279.39395 v 17.10876"
     id="line429"
     sodipodi:nodetypes="cc" />
  <path
     inkscape:connector-curvature="0"
     style="stroke:#e69e00;stroke-width:0.67999828;shape-rendering:auto"
     d="M 44.783083,279.39395 H -46.539152"
     id="line431"
     sodipodi:nodetypes="cc" />
  <text
     xml:space="preserve"
     style="font-style:normal;font-variant:normal;font-weight:normal;font-stretch:normal;font-size:10.66666698px;line-height:1.25;font-family:Arial;-inkscape-font-specification:Arial;text-align:start;letter-spacing:0px;word-spacing:0px;text-anchor:start;fill:#e69e00;fill-opacity:1;stroke:none"
     x="-46.114281"
     y="274.57599"
     id="text5713"><tspan
       sodipodi:role="line"
       id="tspan5711"
       x="-46.114281"
       y="274.57599">gwny produkt</tspan></text>
  <text
     xml:space="preserve"
     style="font-style:normal;font-variant:normal;font-weight:normal;font-stretch:normal;font-size:10.66666698px;line-height:1.25;font-family:Arial;-inkscape-font-specification:Arial;text-align:start;letter-spacing:0px;word-spacing:0px;text-anchor:start;fill:#000000;fill-opacity:1;stroke:none"
     x="-33.864304"
     y="219.44453"
     id="text5717"><tspan
       sodipodi:role="line"
       id="tspan5715"
       x="-33.864304"
       y="219.44453">\cmpd{w:tricyclo-alkaloid-sub}</tspan></text>
  <path
     inkscape:connector-curvature="0"
     id="circle425-0"
     d="m 260.52392,276.72055 a 1.7199957,1.7199957 0 0 0 1.72,1.72 1.7199957,1.7199957 0 0 0 1.71999,-1.72 1.7199957,1.7199957 0 0 0 -1.71999,-1.72 1.7199957,1.7199957 0 0 0 -1.72,1.72 z"
     style="fill:#e69e00;stroke:#e69e00;stroke-width:0.133333" />
  <path
     inkscape:connector-curvature="0"
     style="stroke:#e69e00;stroke-width:0.67999828;shape-rendering:auto"
     d="m 262.24392,259.59928 v 17.10875"
     id="line429-0"
     sodipodi:nodetypes="cc" />
  <path
     inkscape:connector-curvature="0"
     style="stroke:#e69e00;stroke-width:0.67999828;shape-rendering:auto"
     d="M 262.24392,259.59928 H 144.70736"
     id="line431-1"
     sodipodi:nodetypes="cc" />
  <text
     xml:space="preserve"
     style="font-style:normal;font-variant:normal;font-weight:normal;font-stretch:normal;font-size:10.66666698px;line-height:1.25;font-family:Arial;-inkscape-font-specification:Arial;text-align:start;letter-spacing:0px;word-spacing:0px;text-anchor:start;fill:#e69e00;fill-opacity:1;stroke:none"
     x="145.13223"
     y="254.78131"
     id="text5713-2"><tspan
       sodipodi:role="line"
       id="tspan5711-4"
       x="145.13223"
       y="254.78131">diastereoselektywno</tspan></text>
  <path
     inkscape:connector-curvature="0"
     id="circle425-8"
     d="m 446.23078,221.69717 a 1.7199957,1.7199957 0 0 0 -1.72,-1.72 1.7199957,1.7199957 0 0 0 -1.71999,1.72 1.7199957,1.7199957 0 0 0 1.71999,1.72 1.7199957,1.7199957 0 0 0 1.72,-1.72 z"
     style="fill:#e69e00;stroke:#e69e00;stroke-width:0.133333" />
  <path
     inkscape:connector-curvature="0"
     style="stroke:#e69e00;stroke-width:0.67999828;shape-rendering:auto"
     d="M 444.51078,257.12327 V 221.70969"
     id="line429-05"
     sodipodi:nodetypes="cc" />
  <path
     inkscape:connector-curvature="0"
     style="stroke:#e69e00;stroke-width:0.67999828;shape-rendering:auto"
     d="m 444.51078,257.12327 h 91.32224"
     id="line431-5"
     sodipodi:nodetypes="cc" />
  <text
     xml:space="preserve"
     style="font-style:normal;font-variant:normal;font-weight:normal;font-stretch:normal;font-size:10.66666698px;line-height:1.25;font-family:Arial;-inkscape-font-specification:Arial;text-align:end;letter-spacing:0px;word-spacing:0px;text-anchor:end;fill:#e69e00;fill-opacity:1;stroke:none"
     x="534.60077"
     y="252.03325"
     id="text5713-3"><tspan
       sodipodi:role="line"
       id="tspan5711-13"
       x="534.60077"
       y="252.03325"
       style="text-align:end;text-anchor:end">ylid azometinowy</tspan></text>
  <path
     d="m 261.25008,206.62032 a 0.95889383,0.95889383 0 0 0 1.39221,-0.30472 0.95889383,0.95889383 0 0 0 -0.43221,-1.35805 0.95889383,0.95889383 0 0 1 -0.43222,-1.35804 0.95889383,0.95889383 0 0 1 1.39222,-0.30472 0.95889383,0.95889383 0 0 0 1.39221,-0.30472 0.95889383,0.95889383 0 0 0 -0.43221,-1.35805 0.95889383,0.95889383 0 0 1 -0.43889,-1.3465 0.95889383,0.95889383 0 0 1 1.39222,-0.30472 0.95889383,0.95889383 0 0 0 1.39221,-0.30472 0.95889383,0.95889383 0 0 0 -0.43222,-1.35804"
     id="path61-7"
     inkscape:connector-curvature="0"
     style="fill:none;fill-rule:evenodd;stroke:#000000;stroke-width:0.67999828;stroke-linejoin:bevel;shape-rendering:geometricPrecision" />
  <path
     d="m 418.51835,206.72353 a 0.95889383,0.95889383 0 0 0 1.39221,-0.30472 0.95889383,0.95889383 0 0 0 -0.43221,-1.35805 0.95889383,0.95889383 0 0 1 -0.43222,-1.35804 0.95889383,0.95889383 0 0 1 1.39222,-0.30472 0.95889383,0.95889383 0 0 0 1.39221,-0.30472 0.95889383,0.95889383 0 0 0 -0.43221,-1.35805 0.95889383,0.95889383 0 0 1 -0.43889,-1.3465 0.95889383,0.95889383 0 0 1 1.39222,-0.30472 0.95889383,0.95889383 0 0 0 1.39221,-0.30472 0.95889383,0.95889383 0 0 0 -0.43222,-1.35804"
     id="path61-7-1"
     inkscape:connector-curvature="0"
     style="fill:none;fill-rule:evenodd;stroke:#000000;stroke-width:0.67999828;stroke-linejoin:bevel;shape-rendering:geometricPrecision" />
  <text
     xml:space="preserve"
     style="font-style:normal;font-variant:normal;font-weight:normal;font-stretch:normal;font-size:10.66666698px;line-height:1.25;font-family:Arial;-inkscape-font-specification:Arial;text-align:start;letter-spacing:0px;word-spacing:0px;text-anchor:start;fill:#000000;fill-opacity:1;stroke:none"
     x="329.00262"
     y="233.99287"
     id="text5717-5"><tspan
       sodipodi:role="line"
       id="tspan5715-4"
       x="329.00262"
       y="233.99287">\cmpd{w:tricyclo-alkaloid-iminium}</tspan></text>
  <text
     xml:space="preserve"
     style="font-style:normal;font-variant:normal;font-weight:normal;font-stretch:normal;font-size:10.66666698px;line-height:1.25;font-family:Arial;-inkscape-font-specification:Arial;text-align:start;letter-spacing:0px;word-spacing:0px;text-anchor:start;fill:#000000;fill-opacity:1;stroke:none"
     x="489.43771"
     y="233.99287"
     id="text5717-5-8"><tspan
       sodipodi:role="line"
       id="tspan5715-4-7"
       x="489.43771"
       y="233.99287">\cmpd{w:tricyclo-alkaloid-ylid}</tspan></text>
  <text
     xml:space="preserve"
     style="font-style:normal;font-variant:normal;font-weight:normal;font-stretch:normal;font-size:10.66666698px;line-height:1.25;font-family:Arial;-inkscape-font-specification:Arial;text-align:start;letter-spacing:0px;word-spacing:0px;text-anchor:start;fill:#000000;fill-opacity:1;stroke:none"
     x="333.67899"
     y="340.26578"
     id="text5717-5-8-2"><tspan
       sodipodi:role="line"
       id="tspan5715-4-7-4"
       x="333.67899"
       y="340.26578">\cmpd{w:tricyclo-alkaloid-diastereo}</tspan></text>
  <text
     xml:space="preserve"
     style="font-style:normal;font-variant:normal;font-weight:normal;font-stretch:normal;font-size:10.66666698px;line-height:1.25;font-family:Arial;-inkscape-font-specification:Arial;text-align:start;letter-spacing:0px;word-spacing:0px;text-anchor:start;fill:#000000;fill-opacity:1;stroke:none"
     x="130.8006"
     y="340.26578"
     id="text5717-5-8-2-6"><tspan
       sodipodi:role="line"
       id="tspan5715-4-7-4-7"
       x="130.8006"
       y="340.26578">\cmpd{w:tricyclo-alkaloid}, \SI{77}{\percent}</tspan></text>
</svg>
