<?xml version="1.0" encoding="UTF-8" standalone="no"?>
<svg
   xmlns:dc="http://purl.org/dc/elements/1.1/"
   xmlns:cc="http://creativecommons.org/ns#"
   xmlns:rdf="http://www.w3.org/1999/02/22-rdf-syntax-ns#"
   xmlns:svg="http://www.w3.org/2000/svg"
   xmlns="http://www.w3.org/2000/svg"
   xmlns:sodipodi="http://sodipodi.sourceforge.net/DTD/sodipodi-0.dtd"
   xmlns:inkscape="http://www.inkscape.org/namespaces/inkscape"
   viewBox="1.86 102.46 300.66 111.86"
   preserveAspectRatio="xMidYMid"
   width="100%"
   height="100%"
   version="1.1"
   id="svg488"
   sodipodi:docname="triflic-tashiromine.svg"
   inkscape:version="0.92.4 (5da689c313, 2019-01-14)">
  <metadata
     id="metadata494">
    <rdf:RDF>
      <cc:Work
         rdf:about="">
        <dc:format>image/svg+xml</dc:format>
        <dc:type
           rdf:resource="http://purl.org/dc/dcmitype/StillImage" />
      </cc:Work>
    </rdf:RDF>
  </metadata>
  <defs
     id="defs492" />
  <sodipodi:namedview
     pagecolor="#ffffff"
     bordercolor="#666666"
     borderopacity="1"
     objecttolerance="10"
     gridtolerance="10"
     guidetolerance="10"
     inkscape:pageopacity="0"
     inkscape:pageshadow="2"
     inkscape:window-width="1920"
     inkscape:window-height="1017"
     id="namedview490"
     showgrid="false"
     inkscape:zoom="4.5632941"
     inkscape:cx="131.39069"
     inkscape:cy="6.0225022"
     inkscape:window-x="-8"
     inkscape:window-y="-8"
     inkscape:window-maximized="1"
     inkscape:current-layer="svg488" />
  <clipPath
     id="9587">
    <rect
       x="0.255"
       y="0.255"
       width="302.74"
       height="769.29"
       id="rect2" />
  </clipPath>
  <g
     id="g11"
     transform="matrix(1.333333,0,0,1.333333,-50.80047,-52.609115)">
    <g
       aria-label="HN"
       style="text-anchor:end;text-rendering:geometricPrecision"
       id="text9">
      <path
         d="m 2.538125,131.41 v -5.72656 H 3.2959375 V 128.035 H 6.2725 v -2.35156 H 7.0303125 V 131.41 H 6.2725 v -2.69922 H 3.2959375 V 131.41 Z"
         style="font-size:8px;font-family:Arial;fill:#000000"
         id="path5682"
         inkscape:connector-curvature="0" />
      <path
         d="m 8.288125,131.41 v -5.72656 h 0.7773438 l 3.0078122,4.49609 v -4.49609 h 0.726563 V 131.41 H 12.0225 l -3.0078125,-4.5 v 4.5 z"
         style="font-size:8px;font-family:Arial;fill:#000000"
         id="path5684"
         inkscape:connector-curvature="0" />
    </g>
  </g>
  <g
     id="Solid"
     transform="matrix(1.333333,0,0,1.333333,-50.80047,-52.609115)">
    <path
       d="m 12.74,139.74 v 0 l 0.21,-0.23 0.21,-0.23 11.07,1.17 0.16,0.27 0.16,0.27 z"
       id="path13"
       inkscape:connector-curvature="0"
       style="fill:#000000;fill-rule:evenodd;stroke:#000000;stroke-width:0;stroke-linejoin:miter;shape-rendering:geometricPrecision" />
  </g>
  <g
     id="g18"
     transform="matrix(1.333333,0,0,1.333333,-50.80047,-52.609115)">
    <path
       d="m 24.55,140.99 v 0 l -0.16,-0.27 -0.16,-0.27 4.52,-10.17 0.31,-0.07 0.31,-0.07 z"
       id="path16"
       inkscape:connector-curvature="0"
       style="fill:#000000;fill-rule:evenodd;stroke:#000000;stroke-width:0;stroke-linejoin:miter;shape-rendering:geometricPrecision" />
  </g>
  <g
     id="g22"
     transform="matrix(1.333333,0,0,1.333333,-50.80047,-52.609115)">
    <path
       d="m 29.37,130.14 v 0 l -0.31,0.07 -0.31,0.07 -8.26,-7.46 0.03,-0.31 0.03,-0.31 z"
       id="path20"
       inkscape:connector-curvature="0"
       style="fill:#000000;fill-rule:evenodd;stroke:#000000;stroke-width:0;stroke-linejoin:miter;shape-rendering:geometricPrecision" />
  </g>
  <g
     id="g26"
     transform="matrix(1.333333,0,0,1.333333,-50.80047,-52.609115)">
    <path
       d="m 20.55,122.2 v 0 l -0.03,0.31 -0.03,0.31 -6.34,3.66 -0.12,-0.22 -0.13,-0.22 z"
       id="path24"
       inkscape:connector-curvature="0"
       style="fill:#000000;fill-rule:evenodd;stroke:#000000;stroke-width:0;stroke-linejoin:miter;shape-rendering:geometricPrecision" />
  </g>
  <g
     id="g30"
     transform="matrix(1.333333,0,0,1.333333,-50.80047,-52.609115)">
    <path
       d="m 10.99,131.52 v 0 l 0.25,-0.05 0.25,-0.05 1.67,7.86 -0.21,0.23 -0.21,0.23 z"
       id="path28"
       inkscape:connector-curvature="0"
       style="fill:#000000;fill-rule:evenodd;stroke:#000000;stroke-width:0;stroke-linejoin:miter;shape-rendering:geometricPrecision" />
  </g>
  <g
     id="g36"
     transform="matrix(1.333333,0,0,1.333333,-50.80047,-52.609115)">
    <g
       aria-label="O"
       style="text-anchor:start;text-rendering:geometricPrecision"
       id="text34">
      <path
         d="m 19.00672,111.44094 q 0,-1.42578 0.765625,-2.23047 0.765625,-0.80859 1.976562,-0.80859 0.792969,0 1.429688,0.3789 0.636718,0.37891 0.96875,1.0586 0.335937,0.67578 0.335937,1.53515 0,0.8711 -0.351562,1.5586 -0.351563,0.6875 -0.996094,1.04297 -0.644531,0.35156 -1.390625,0.35156 -0.808594,0 -1.445313,-0.39063 -0.636718,-0.39062 -0.964843,-1.0664 -0.328125,-0.67578 -0.328125,-1.42969 z m 0.78125,0.0117 q 0,1.03516 0.554687,1.63281 0.558594,0.59375 1.398438,0.59375 0.855468,0 1.40625,-0.60156 0.554687,-0.60156 0.554687,-1.70703 0,-0.69922 -0.238281,-1.21875 -0.234375,-0.52344 -0.691406,-0.8086 -0.453125,-0.28906 -1.019532,-0.28906 -0.804687,0 -1.386718,0.55469 -0.578125,0.55078 -0.578125,1.84375 z"
         style="font-size:8px;font-family:Arial;fill:#000000"
         id="path5679"
         inkscape:connector-curvature="0" />
    </g>
  </g>
  <g
     id="g44"
     transform="matrix(1.333333,0,0,1.333333,-50.80047,-52.609115)">
    <path
       style="stroke:#000000;stroke-width:0.50999999;shape-rendering:auto"
       d="m 19.49,122.4 0.719999,-6.82"
       id="line38"
       inkscape:connector-curvature="0" />
    <path
       d="m 21.27,122.84 v 0 l 0.47,0.42 0.78,-7.43 -0.51,-0.06 z"
       id="path40"
       inkscape:connector-curvature="0"
       style="fill:#000000;fill-rule:evenodd;stroke:#000000;stroke-width:0;stroke-linejoin:miter;shape-rendering:geometricPrecision" />
    <path
       d="m 19.17,122.99 v 0 l 0.55,-0.31 0.74,-7.07 -0.51,-0.05 z"
       id="path42"
       inkscape:connector-curvature="0"
       style="fill:#000000;fill-rule:evenodd;stroke:#000000;stroke-width:0;stroke-linejoin:miter;shape-rendering:geometricPrecision" />
  </g>
  <g
     id="g50"
     transform="matrix(1.333333,0,0,1.333333,-50.80047,-52.609115)">
    <g
       aria-label="N"
       style="text-anchor:start;text-rendering:geometricPrecision"
       id="text48">
      <path
         d="m 137.83937,131.23 v -5.72657 h 0.77734 l 3.00782,4.4961 v -4.4961 h 0.72656 V 131.23 h -0.77734 l -3.00782,-4.5 v 4.5 z"
         style="font-size:8px;font-family:Arial;fill:#000000"
         id="path5675"
         inkscape:connector-curvature="0" />
    </g>
  </g>
  <g
     id="g54"
     transform="matrix(1.333333,0,0,1.333333,-50.80047,-52.609115)">
    <path
       d="m 141.11,139.72 v 0 l 0.23,-0.21 0.23,-0.21 10.89,2.31 0.13,0.29 0.13,0.29 z"
       id="path52"
       inkscape:connector-curvature="0"
       style="fill:#000000;fill-rule:evenodd;stroke:#000000;stroke-width:0;stroke-linejoin:miter;shape-rendering:geometricPrecision" />
  </g>
  <g
     id="g58"
     transform="matrix(1.333333,0,0,1.333333,-50.80047,-52.609115)">
    <path
       d="m 152.72,142.19 v 0 l -0.13,-0.29 -0.13,-0.29 5.57,-9.64 0.31,-0.03 0.31,-0.03 z"
       id="path56"
       inkscape:connector-curvature="0"
       style="fill:#000000;fill-rule:evenodd;stroke:#000000;stroke-width:0;stroke-linejoin:miter;shape-rendering:geometricPrecision" />
  </g>
  <g
     id="g62"
     transform="matrix(1.333333,0,0,1.333333,-50.80047,-52.609115)">
    <path
       d="m 158.65,131.91 v 0 l -0.31,0.03 -0.31,0.03 -7.46,-8.26 0.07,-0.31 0.07,-0.31 z"
       id="path60"
       inkscape:connector-curvature="0"
       style="fill:#000000;fill-rule:evenodd;stroke:#000000;stroke-width:0;stroke-linejoin:miter;shape-rendering:geometricPrecision" />
  </g>
  <g
     id="g66"
     transform="matrix(1.333333,0,0,1.333333,-50.80047,-52.609115)">
    <path
       d="m 150.71,123.09 v 0 l -0.07,0.31 -0.07,0.31 -6.88,3.06 -0.1,-0.23 -0.11,-0.23 z"
       id="path64"
       inkscape:connector-curvature="0"
       style="fill:#000000;fill-rule:evenodd;stroke:#000000;stroke-width:0;stroke-linejoin:miter;shape-rendering:geometricPrecision" />
  </g>
  <g
     id="g70"
     transform="matrix(1.333333,0,0,1.333333,-50.80047,-52.609115)">
    <path
       d="m 140.18,131.02 v 0 l 0.26,-0.03 0.25,-0.02 0.88,8.33 -0.23,0.21 -0.23,0.21 z"
       id="path68"
       inkscape:connector-curvature="0"
       style="fill:#000000;fill-rule:evenodd;stroke:#000000;stroke-width:0;stroke-linejoin:miter;shape-rendering:geometricPrecision" />
  </g>
  <g
     id="g76"
     transform="matrix(1.333333,0,0,1.333333,-50.80047,-52.609115)">
    <g
       aria-label="O"
       style="text-anchor:start;text-rendering:geometricPrecision"
       id="text74">
      <path
         d="m 150.31671,112.51094 q 0,-1.42578 0.76563,-2.23047 0.76562,-0.80859 1.97656,-0.80859 0.79297,0 1.42969,0.3789 0.63672,0.37891 0.96875,1.0586 0.33593,0.67578 0.33593,1.53515 0,0.8711 -0.35156,1.5586 -0.35156,0.6875 -0.99609,1.04297 -0.64453,0.35156 -1.39063,0.35156 -0.80859,0 -1.44531,-0.39063 -0.63672,-0.39062 -0.96484,-1.0664 -0.32813,-0.67578 -0.32813,-1.42969 z m 0.78125,0.0117 q 0,1.03516 0.55469,1.63281 0.55859,0.59375 1.39844,0.59375 0.85547,0 1.40625,-0.60156 0.55468,-0.60156 0.55468,-1.70703 0,-0.69922 -0.23828,-1.21875 -0.23437,-0.52344 -0.6914,-0.8086 -0.45313,-0.28906 -1.01953,-0.28906 -0.80469,0 -1.38672,0.55469 -0.57813,0.55078 -0.57813,1.84375 z"
         style="font-size:8px;font-family:Arial;fill:#000000"
         id="path5672"
         inkscape:connector-curvature="0" />
    </g>
  </g>
  <g
     id="g84"
     transform="matrix(1.333333,0,0,1.333333,-50.80047,-52.609115)">
    <path
       style="stroke:#000000;stroke-width:0.50999999;shape-rendering:auto"
       d="m 149.63,123.18 1.43,-6.72"
       id="line78"
       inkscape:connector-curvature="0" />
    <path
       d="m 151.35,123.81 v 0 l 0.42,0.47 1.56,-7.34 -0.5,-0.11 z"
       id="path80"
       inkscape:connector-curvature="0"
       style="fill:#000000;fill-rule:evenodd;stroke:#000000;stroke-width:0;stroke-linejoin:miter;shape-rendering:geometricPrecision" />
    <path
       d="m 149.25,123.74 v 0 l 0.57,-0.26 1.49,-6.97 -0.5,-0.11 z"
       id="path82"
       inkscape:connector-curvature="0"
       style="fill:#000000;fill-rule:evenodd;stroke:#000000;stroke-width:0;stroke-linejoin:miter;shape-rendering:geometricPrecision" />
  </g>
  <g
     id="g88"
     transform="matrix(1.333333,0,0,1.333333,-50.80047,-52.609115)">
    <path
       d="m 136.9,125.92 v 0 l -0.13,0.22 -0.12,0.22 -6.48,-3.74 v -0.29 -0.29 z"
       id="path86"
       inkscape:connector-curvature="0"
       style="fill:#000000;fill-rule:evenodd;stroke:#000000;stroke-width:0;stroke-linejoin:miter;shape-rendering:geometricPrecision" />
  </g>
  <g
     id="g92"
     transform="matrix(1.333333,0,0,1.333333,-50.80047,-52.609115)">
    <path
       d="m 130.17,122.04 v 0 0.29 0.29 l -9.95,5.75 v -0.29 -0.29 z"
       id="path90"
       inkscape:connector-curvature="0"
       style="fill:#000000;fill-rule:evenodd;stroke:#000000;stroke-width:0;stroke-linejoin:miter;shape-rendering:geometricPrecision" />
  </g>
  <g
     id="g96"
     transform="matrix(1.333333,0,0,1.333333,-50.80047,-52.609115)">
    <path
       d="m 120.22,127.79 v 0 0.29 0.29 l -9.96,-5.75 v -0.29 -0.29 z"
       id="path94"
       inkscape:connector-curvature="0"
       style="fill:#000000;fill-rule:evenodd;stroke:#000000;stroke-width:0;stroke-linejoin:miter;shape-rendering:geometricPrecision" />
  </g>
  <g
     id="g100"
     transform="matrix(1.333333,0,0,1.333333,-50.80047,-52.609115)">
    <path
       d="m 110.26,122.04 v 0 0.29 0.29 l -9.96,5.75 v -0.29 -0.29 z"
       id="path98"
       inkscape:connector-curvature="0"
       style="fill:#000000;fill-rule:evenodd;stroke:#000000;stroke-width:0;stroke-linejoin:miter;shape-rendering:geometricPrecision" />
  </g>
  <g
     id="g106"
     transform="matrix(1.333333,0,0,1.333333,-50.80047,-52.609115)">
    <path
       d="m 100.3,127.79 v 0 0.29 0.29 l -10.22,-5.89 0.26,-0.15 0.26,-0.15 z"
       id="path102"
       inkscape:connector-curvature="0"
       style="fill:#000000;fill-rule:evenodd;stroke:#000000;stroke-width:0;stroke-linejoin:miter;shape-rendering:geometricPrecision" />
    <path
       style="stroke:#000000;stroke-width:0.50999999;shape-rendering:auto"
       d="m 100.3,125.69 -7.889996,-4.56"
       id="line104"
       inkscape:connector-curvature="0" />
  </g>
  <g
     id="g112"
     transform="matrix(1.333333,0,0,1.333333,-50.80047,-52.609115)">
    <g
       aria-label="OTBMS"
       style="text-anchor:start;text-rendering:geometricPrecision"
       id="text110">
      <path
         d="m 87.626717,111.19094 q 0,-1.42578 0.765625,-2.23047 0.765625,-0.80859 1.976562,-0.80859 0.792969,0 1.429688,0.3789 0.636718,0.37891 0.96875,1.0586 0.335937,0.67578 0.335937,1.53515 0,0.8711 -0.351562,1.5586 -0.351563,0.6875 -0.996094,1.04297 -0.644531,0.35156 -1.390625,0.35156 -0.808594,0 -1.445313,-0.39063 -0.636718,-0.39062 -0.964843,-1.0664 -0.328125,-0.67578 -0.328125,-1.42969 z m 0.78125,0.0117 q 0,1.03516 0.554687,1.63281 0.558594,0.59375 1.398438,0.59375 0.855468,0 1.40625,-0.60156 0.554687,-0.60156 0.554687,-1.70703 0,-0.69922 -0.238281,-1.21875 -0.234375,-0.52344 -0.691406,-0.8086 -0.453125,-0.28906 -1.019532,-0.28906 -0.804687,0 -1.386718,0.55469 -0.578125,0.55078 -0.578125,1.84375 z"
         style="font-size:8px;font-family:Arial;fill:#000000"
         id="path5659"
         inkscape:connector-curvature="0" />
      <path
         d="m 95.532967,113.98 v -5.05078 h -1.886719 v -0.67578 h 4.539062 v 0.67578 H 96.290779 V 113.98 Z"
         style="font-size:8px;font-family:Arial;fill:#000000"
         id="path5661"
         inkscape:connector-curvature="0" />
      <path
         d="m 98.93531,113.98 v -5.72656 h 2.14844 q 0.65625,0 1.05078,0.17578 0.39844,0.17188 0.62109,0.53516 0.22657,0.35937 0.22657,0.7539 0,0.36719 -0.19922,0.69141 -0.19922,0.32422 -0.60157,0.52344 0.51954,0.15234 0.79688,0.51953 0.28125,0.36719 0.28125,0.86719 0,0.40234 -0.17188,0.75 -0.16796,0.34375 -0.41796,0.53125 -0.25,0.1875 -0.62891,0.28515 -0.375,0.0937 -0.92188,0.0937 z m 0.757813,-3.32031 h 1.238277 q 0.50391,0 0.72266,-0.0664 0.28906,-0.0859 0.43359,-0.28515 0.14844,-0.19922 0.14844,-0.5 0,-0.28516 -0.13672,-0.5 -0.13672,-0.21875 -0.39062,-0.29688 -0.25391,-0.082 -0.8711,-0.082 h -1.144527 z m 0,2.64453 h 1.425777 q 0.36719,0 0.51563,-0.0273 0.26172,-0.0469 0.4375,-0.15625 0.17578,-0.10938 0.28906,-0.31641 0.11328,-0.21094 0.11328,-0.48437 0,-0.32032 -0.16406,-0.55469 -0.16406,-0.23828 -0.45703,-0.33203 -0.28906,-0.0977 -0.83594,-0.0977 h -1.324217 z"
         style="font-size:8px;font-family:Arial;fill:#000000"
         id="path5663"
         inkscape:connector-curvature="0" />
      <path
         d="m 104.28687,113.98 v -5.72656 h 1.14063 l 1.35547,4.05469 q 0.1875,0.5664 0.27343,0.84765 0.0977,-0.3125 0.30469,-0.91796 l 1.3711,-3.98438 h 1.01953 V 113.98 h -0.73047 v -4.79297 l -1.66406,4.79297 h -0.6836 l -1.65625,-4.875 v 4.875 z"
         style="font-size:8px;font-family:Arial;fill:#000000"
         id="path5665"
         inkscape:connector-curvature="0" />
      <path
         d="m 110.72437,112.14016 0.71485,-0.0625 q 0.0508,0.42969 0.23437,0.70703 0.1875,0.27344 0.57813,0.44531 0.39062,0.16797 0.8789,0.16797 0.4336,0 0.76563,-0.1289 0.33203,-0.12891 0.49219,-0.35157 0.16406,-0.22656 0.16406,-0.49218 0,-0.26954 -0.15625,-0.46875 -0.15625,-0.20313 -0.51563,-0.33985 -0.23047,-0.0898 -1.01953,-0.27734 -0.78906,-0.19141 -1.10547,-0.35938 -0.41015,-0.21484 -0.61328,-0.53125 -0.19922,-0.32031 -0.19922,-0.71484 0,-0.43359 0.2461,-0.80859 0.24609,-0.37891 0.71875,-0.57422 0.47265,-0.19532 1.05078,-0.19532 0.63672,0 1.12109,0.20704 0.48828,0.20312 0.75,0.60156 0.26172,0.39844 0.28125,0.90234 l -0.72656,0.0547 q -0.0586,-0.54297 -0.39844,-0.82031 -0.33594,-0.27735 -0.99609,-0.27735 -0.6875,0 -1.00391,0.25391 -0.3125,0.25 -0.3125,0.60547 0,0.30859 0.22266,0.50781 0.21875,0.19922 1.14062,0.41016 0.92578,0.20703 1.26953,0.36328 0.5,0.23047 0.73829,0.58594 0.23828,0.35156 0.23828,0.8125 0,0.45703 -0.26172,0.86328 -0.26172,0.40234 -0.75391,0.6289 -0.48828,0.22266 -1.10156,0.22266 -0.77734,0 -1.30469,-0.22656 -0.52344,-0.22657 -0.82422,-0.67969 -0.29687,-0.45703 -0.3125,-1.03125 z"
         style="font-size:8px;font-family:Arial;fill:#000000"
         id="path5667"
         inkscape:connector-curvature="0" />
    </g>
  </g>
  <g
     id="g116"
     transform="matrix(1.333333,0,0,1.333333,-50.80047,-52.609115)">
    <path
       d="m 90.6,122.18 v 0 l -0.26,0.15 -0.26,0.15 0.01,-7.08 h 0.25 0.26 z"
       id="path114"
       inkscape:connector-curvature="0"
       style="fill:#000000;fill-rule:evenodd;stroke:#000000;stroke-width:0;stroke-linejoin:miter;shape-rendering:geometricPrecision" />
  </g>
  <g
     id="g122"
     transform="matrix(1.333333,0,0,1.333333,-50.80047,-52.609115)">
    <g
       aria-label="N"
       style="text-anchor:start;text-rendering:geometricPrecision"
       id="text120">
      <path
         d="m 230.19937,206.24001 v -5.72657 h 0.77735 l 3.00781,4.4961 v -4.4961 h 0.72656 v 5.72657 h -0.77734 l -3.00782,-4.5 v 4.5 z"
         style="font-size:8px;font-family:Arial;fill:#000000"
         id="path5656"
         inkscape:connector-curvature="0" />
    </g>
  </g>
  <g
     id="g126"
     transform="matrix(1.333333,0,0,1.333333,-50.80047,-52.609115)">
    <path
       d="m 212.3,191.44 v 0 l 0.26,0.15 0.26,0.15 v 11.2 l -0.26,0.15 -0.26,0.15 z"
       id="path124"
       inkscape:connector-curvature="0"
       style="fill:#000000;fill-rule:evenodd;stroke:#000000;stroke-width:0;stroke-linejoin:miter;shape-rendering:geometricPrecision" />
  </g>
  <g
     id="g130"
     transform="matrix(1.333333,0,0,1.333333,-50.80047,-52.609115)">
    <path
       d="m 212.3,203.24 v 0 l 0.26,-0.15 0.26,-0.15 9.71,5.62 v 0.29 0.29 z"
       id="path128"
       inkscape:connector-curvature="0"
       style="fill:#000000;fill-rule:evenodd;stroke:#000000;stroke-width:0;stroke-linejoin:miter;shape-rendering:geometricPrecision" />
  </g>
  <g
     id="g134"
     transform="matrix(1.333333,0,0,1.333333,-50.80047,-52.609115)">
    <path
       d="m 222.53,209.14 v 0 -0.29 -0.29 l 6.42,-3.72 0.12,0.23 0.13,0.22 z"
       id="path132"
       inkscape:connector-curvature="0"
       style="fill:#000000;fill-rule:evenodd;stroke:#000000;stroke-width:0;stroke-linejoin:miter;shape-rendering:geometricPrecision" />
  </g>
  <g
     id="g138"
     transform="matrix(1.333333,0,0,1.333333,-50.80047,-52.609115)">
    <path
       d="m 232.75,199.3 v 0 h -0.26 -0.25 v -7.56 l 0.25,-0.15 0.26,0.19 z"
       id="path136"
       inkscape:connector-curvature="0"
       style="fill:#000000;fill-rule:evenodd;stroke:#000000;stroke-width:0;stroke-linejoin:miter;shape-rendering:geometricPrecision" />
  </g>
  <g
     id="g144"
     transform="matrix(1.333333,0,0,1.333333,-50.80047,-52.609115)">
    <path
       d="m 232.52,191.31 v 0 l -0.03,0.28 -0.25,0.15 -9.71,-5.62 v -0.29 l 0.26,-0.15 z"
       id="path140"
       inkscape:connector-curvature="0"
       style="fill:#000000;fill-rule:evenodd;stroke:#000000;stroke-width:0;stroke-linejoin:miter;shape-rendering:geometricPrecision" />
    <path
       style="stroke:#000000;stroke-width:0.50999999;shape-rendering:auto"
       d="m 230.42,192.78 -7.89,-4.56"
       id="line142"
       inkscape:connector-curvature="0" />
  </g>
  <g
     id="g148"
     transform="matrix(1.333333,0,0,1.333333,-50.80047,-52.609115)">
    <path
       d="m 222.28,185.68 v 0 l 0.25,0.15 v 0.29 l -9.71,5.62 -0.26,-0.15 -0.26,-0.15 z"
       id="path146"
       inkscape:connector-curvature="0"
       style="fill:#000000;fill-rule:evenodd;stroke:#000000;stroke-width:0;stroke-linejoin:miter;shape-rendering:geometricPrecision" />
  </g>
  <g
     id="g152"
     transform="matrix(1.333333,0,0,1.333333,-50.80047,-52.609115)">
    <path
       d="m 235.96,204.49 v 0 l 0.08,-0.25 0.08,-0.24 7.22,2.35 0.1,0.3 0.1,0.3 z"
       id="path150"
       inkscape:connector-curvature="0"
       style="fill:#000000;fill-rule:evenodd;stroke:#000000;stroke-width:0;stroke-linejoin:miter;shape-rendering:geometricPrecision" />
  </g>
  <g
     id="g156"
     transform="matrix(1.333333,0,0,1.333333,-50.80047,-52.609115)">
    <path
       d="m 243.54,206.95 v 0 l -0.1,-0.3 -0.1,-0.3 6.54,-9.01 h 0.32 0.32 z"
       id="path154"
       inkscape:connector-curvature="0"
       style="fill:#000000;fill-rule:evenodd;stroke:#000000;stroke-width:0;stroke-linejoin:miter;shape-rendering:geometricPrecision" />
  </g>
  <g
     id="g160"
     transform="matrix(1.333333,0,0,1.333333,-50.80047,-52.609115)">
    <path
       d="m 250.52,197.34 v 0 h -0.32 -0.32 l -6.54,-9.01 0.1,-0.3 0.1,-0.3 z"
       id="path158"
       inkscape:connector-curvature="0"
       style="fill:#000000;fill-rule:evenodd;stroke:#000000;stroke-width:0;stroke-linejoin:miter;shape-rendering:geometricPrecision" />
  </g>
  <g
     id="g164"
     transform="matrix(1.333333,0,0,1.333333,-50.80047,-52.609115)">
    <path
       d="m 243.54,187.73 v 0 l -0.1,0.3 -0.1,0.3 -10.59,3.45 -0.26,-0.19 0.03,-0.28 z"
       id="path162"
       inkscape:connector-curvature="0"
       style="fill:#000000;fill-rule:evenodd;stroke:#000000;stroke-width:0;stroke-linejoin:miter;shape-rendering:geometricPrecision" />
  </g>
  <g
     id="g170"
     transform="matrix(1.333333,0,0,1.333333,-50.80047,-52.609115)">
    <g
       aria-label="CHO"
       style="text-anchor:start;text-rendering:geometricPrecision"
       id="text168">
      <path
         d="m 224.33313,175.46219 0.75781,0.1914 q -0.23828,0.9336 -0.85937,1.42579 -0.61719,0.48828 -1.51172,0.48828 -0.92578,0 -1.50781,-0.375 -0.57813,-0.37891 -0.88282,-1.09375 -0.30078,-0.71485 -0.30078,-1.53516 0,-0.89453 0.33985,-1.55859 0.34375,-0.66797 0.97265,-1.01172 0.63281,-0.34766 1.39063,-0.34766 0.85937,0 1.44531,0.4375 0.58594,0.4375 0.81641,1.23047 l -0.7461,0.17578 q -0.19922,-0.625 -0.57812,-0.91015 -0.37891,-0.28516 -0.95313,-0.28516 -0.66015,0 -1.10547,0.31641 -0.4414,0.3164 -0.62109,0.85156 -0.17969,0.53125 -0.17969,1.09765 0,0.73047 0.21094,1.27735 0.21484,0.54297 0.66406,0.8125 0.44922,0.26953 0.97266,0.26953 0.63672,0 1.07812,-0.36719 0.44141,-0.36719 0.59766,-1.08984 z"
         style="font-size:8px;font-family:Arial;fill:#000000"
         id="path5648"
         inkscape:connector-curvature="0" />
      <path
         d="m 226.05188,177.47 v -5.72656 h 0.75781 v 2.35156 h 2.97656 v -2.35156 h 0.75782 V 177.47 h -0.75782 v -2.69922 h -2.97656 V 177.47 Z"
         style="font-size:8px;font-family:Arial;fill:#000000"
         id="path5650"
         inkscape:connector-curvature="0" />
      <path
         d="m 231.57922,174.68094 q 0,-1.42578 0.76563,-2.23047 0.76562,-0.80859 1.97656,-0.80859 0.79297,0 1.42969,0.3789 0.63672,0.37891 0.96875,1.0586 0.33594,0.67578 0.33594,1.53515 0,0.8711 -0.35157,1.5586 -0.35156,0.6875 -0.99609,1.04296 -0.64453,0.35157 -1.39063,0.35157 -0.80859,0 -1.44531,-0.39063 -0.63672,-0.39062 -0.96484,-1.0664 -0.32813,-0.67579 -0.32813,-1.42969 z m 0.78125,0.0117 q 0,1.03515 0.55469,1.63281 0.55859,0.59375 1.39844,0.59375 0.85547,0 1.40625,-0.60156 0.55469,-0.60157 0.55469,-1.70703 0,-0.69922 -0.23829,-1.21875 -0.23437,-0.52344 -0.6914,-0.8086 -0.45313,-0.28906 -1.01953,-0.28906 -0.80469,0 -1.38672,0.55469 -0.57813,0.55078 -0.57813,1.84375 z"
         style="font-size:8px;font-family:Arial;fill:#000000"
         id="path5652"
         inkscape:connector-curvature="0" />
    </g>
  </g>
  <g
     id="g174"
     transform="matrix(1.333333,0,0,1.333333,-50.80047,-52.609115)">
    <path
       d="m 222.79,185.68 v 0 l -0.26,0.15 -0.25,-0.15 v -6.78 h 0.25 0.26 z"
       id="path172"
       inkscape:connector-curvature="0"
       style="fill:#000000;fill-rule:evenodd;stroke:#000000;stroke-width:0;stroke-linejoin:miter;shape-rendering:geometricPrecision" />
  </g>
  <g
     id="g180"
     transform="matrix(1.333333,0,0,1.333333,-50.80047,-52.609115)">
    <g
       aria-label="N"
       style="text-anchor:start;text-rendering:geometricPrecision"
       id="text178">
      <path
         d="m 114.83938,206.24001 v -5.72657 h 0.77734 l 3.00781,4.4961 v -4.4961 h 0.72657 v 5.72657 h -0.77735 l -3.00781,-4.5 v 4.5 z"
         style="font-size:8px;font-family:Arial;fill:#000000"
         id="path5645"
         inkscape:connector-curvature="0" />
    </g>
  </g>
  <g
     id="g184"
     transform="matrix(1.333333,0,0,1.333333,-50.80047,-52.609115)">
    <path
       d="m 96.94,191.44 v 0 l 0.26,0.15 0.26,0.15 v 11.2 l -0.26,0.15 -0.26,0.15 z"
       id="path182"
       inkscape:connector-curvature="0"
       style="fill:#000000;fill-rule:evenodd;stroke:#000000;stroke-width:0;stroke-linejoin:miter;shape-rendering:geometricPrecision" />
  </g>
  <g
     id="g188"
     transform="matrix(1.333333,0,0,1.333333,-50.80047,-52.609115)">
    <path
       d="m 96.94,203.24 v 0 l 0.26,-0.15 0.26,-0.15 9.7,5.62 v 0.29 0.29 z"
       id="path186"
       inkscape:connector-curvature="0"
       style="fill:#000000;fill-rule:evenodd;stroke:#000000;stroke-width:0;stroke-linejoin:miter;shape-rendering:geometricPrecision" />
  </g>
  <g
     id="g192"
     transform="matrix(1.333333,0,0,1.333333,-50.80047,-52.609115)">
    <path
       d="m 107.16,209.14 v 0 -0.29 -0.29 l 6.49,-3.75 0.12,0.22 0.13,0.22 z"
       id="path190"
       inkscape:connector-curvature="0"
       style="fill:#000000;fill-rule:evenodd;stroke:#000000;stroke-width:0;stroke-linejoin:miter;shape-rendering:geometricPrecision" />
  </g>
  <g
     id="g196"
     transform="matrix(1.333333,0,0,1.333333,-50.80047,-52.609115)">
    <path
       d="m 117.39,199.3 v 0 h -0.26 -0.25 v -7.56 l 0.25,-0.15 0.26,0.19 z"
       id="path194"
       inkscape:connector-curvature="0"
       style="fill:#000000;fill-rule:evenodd;stroke:#000000;stroke-width:0;stroke-linejoin:miter;shape-rendering:geometricPrecision" />
  </g>
  <g
     id="g200"
     transform="matrix(1.333333,0,0,1.333333,-50.80047,-52.609115)">
    <path
       d="m 116.41,190.88 v 0 l 0.72,0.71 -0.25,0.15 -9.72,-5.62 v -0.29 l 0.79,0.16 z"
       id="path198"
       inkscape:connector-curvature="0"
       style="fill:#000000;fill-rule:evenodd;stroke:#000000;stroke-width:0;stroke-linejoin:miter;shape-rendering:geometricPrecision" />
  </g>
  <g
     id="g204"
     transform="matrix(1.333333,0,0,1.333333,-50.80047,-52.609115)">
    <path
       d="m 106.36,186 v 0 l 0.8,-0.17 v 0.29 l -9.7,5.62 -0.26,-0.15 -0.26,-0.15 z"
       id="path202"
       inkscape:connector-curvature="0"
       style="fill:#000000;fill-rule:evenodd;stroke:#000000;stroke-width:0;stroke-linejoin:miter;shape-rendering:geometricPrecision" />
  </g>
  <g
     id="g208"
     transform="matrix(1.333333,0,0,1.333333,-50.80047,-52.609115)">
    <path
       d="m 120.56,204.47 v 0 l 0.08,-0.24 0.08,-0.24 7.26,2.36 0.1,0.3 0.1,0.3 z"
       id="path206"
       inkscape:connector-curvature="0"
       style="fill:#000000;fill-rule:evenodd;stroke:#000000;stroke-width:0;stroke-linejoin:miter;shape-rendering:geometricPrecision" />
  </g>
  <g
     id="g212"
     transform="matrix(1.333333,0,0,1.333333,-50.80047,-52.609115)">
    <path
       d="m 128.18,206.95 v 0 l -0.1,-0.3 -0.1,-0.3 6.54,-9.01 h 0.32 0.32 z"
       id="path210"
       inkscape:connector-curvature="0"
       style="fill:#000000;fill-rule:evenodd;stroke:#000000;stroke-width:0;stroke-linejoin:miter;shape-rendering:geometricPrecision" />
  </g>
  <g
     id="g216"
     transform="matrix(1.333333,0,0,1.333333,-50.80047,-52.609115)">
    <path
       d="m 135.16,197.34 v 0 h -0.32 -0.32 l -6.54,-9.01 0.1,-0.3 0.1,-0.3 z"
       id="path214"
       inkscape:connector-curvature="0"
       style="fill:#000000;fill-rule:evenodd;stroke:#000000;stroke-width:0;stroke-linejoin:miter;shape-rendering:geometricPrecision" />
  </g>
  <g
     id="g220"
     transform="matrix(1.333333,0,0,1.333333,-50.80047,-52.609115)">
    <path
       d="m 128.18,187.73 v 0 l -0.1,0.3 -0.1,0.3 -10.59,3.45 -0.26,-0.19 0.86,-0.55 z"
       id="path218"
       inkscape:connector-curvature="0"
       style="fill:#000000;fill-rule:evenodd;stroke:#000000;stroke-width:0;stroke-linejoin:miter;shape-rendering:geometricPrecision" />
  </g>
  <g
     id="Bold"
     transform="matrix(1.333333,0,0,1.333333,-50.80047,-52.609115)">
    <path
       d="m 107.95,185.99 v 0 l -0.79,-0.16 -0.8,0.17 0.01,-11.52 0.79,-0.16 0.79,-0.16 z"
       id="path222"
       inkscape:connector-curvature="0"
       style="fill:#000000;fill-rule:evenodd;stroke:#000000;stroke-width:0;stroke-linejoin:miter;shape-rendering:geometricPrecision" />
  </g>
  <g
     id="g229"
     transform="matrix(1.333333,0,0,1.333333,-50.80047,-52.609115)">
    <g
       aria-label="OH"
       style="text-anchor:start;text-rendering:geometricPrecision"
       id="text227">
      <path
         d="m 114.41672,168.93094 q 0,-1.42578 0.76562,-2.23047 0.76563,-0.80859 1.97657,-0.80859 0.79296,0 1.42968,0.3789 0.63672,0.37891 0.96875,1.0586 0.33594,0.67578 0.33594,1.53515 0,0.8711 -0.35156,1.5586 -0.35156,0.6875 -0.9961,1.04296 -0.64453,0.35157 -1.39062,0.35157 -0.80859,0 -1.44531,-0.39063 -0.63672,-0.39062 -0.96485,-1.0664 -0.32812,-0.67579 -0.32812,-1.42969 z m 0.78125,0.0117 q 0,1.03515 0.55469,1.63281 0.55859,0.59375 1.39843,0.59375 0.85547,0 1.40625,-0.60156 0.55469,-0.60157 0.55469,-1.70703 0,-0.69922 -0.23828,-1.21875 -0.23438,-0.52344 -0.69141,-0.8086 -0.45312,-0.28906 -1.01953,-0.28906 -0.80469,0 -1.38672,0.55469 -0.57812,0.55078 -0.57812,1.84375 z"
         style="font-size:8px;font-family:Arial;fill:#000000"
         id="path5640"
         inkscape:connector-curvature="0" />
      <path
         d="m 120.88937,171.72 v -5.72656 h 0.75782 v 2.35156 h 2.97656 v -2.35156 h 0.75781 V 171.72 h -0.75781 v -2.69922 h -2.97656 V 171.72 Z"
         style="font-size:8px;font-family:Arial;fill:#000000"
         id="path5642"
         inkscape:connector-curvature="0" />
    </g>
  </g>
  <g
     id="g233"
     transform="matrix(1.333333,0,0,1.333333,-50.80047,-52.609115)">
    <path
       d="m 107.95,174.16 v 0 l -0.79,0.16 -0.79,0.16 6.98,-4.02 0.12,0.22 0.13,0.22 z"
       id="path231"
       inkscape:connector-curvature="0"
       style="fill:#000000;fill-rule:evenodd;stroke:#000000;stroke-width:0;stroke-linejoin:miter;shape-rendering:geometricPrecision" />
  </g>
  <g
     id="g239"
     transform="matrix(1.333333,0,0,1.333333,-50.80047,-52.609115)">
    <g
       aria-label="H"
       style="text-anchor:start;text-rendering:geometricPrecision"
       id="text237">
      <path
         d="m 116.07063,183.28999 v -5.72656 h 0.75781 v 2.35156 h 2.97656 v -2.35156 h 0.75781 v 5.72656 H 119.805 v -2.69922 h -2.97656 v 2.69922 z"
         style="font-size:8px;font-family:Arial;fill:#000000"
         id="path5637"
         inkscape:connector-curvature="0" />
    </g>
  </g>
  <g
     id="g243"
     transform="matrix(1.333333,0,0,1.333333,-50.80047,-52.609115)">
    <path
       d="m 117.99,191.04 v 0 l -0.86,0.55 -0.72,-0.71 0.66,-6.37 0.79,0.08 0.79,0.09 z"
       id="path241"
       inkscape:connector-curvature="0"
       style="fill:#000000;fill-rule:evenodd;stroke:#000000;stroke-width:0;stroke-linejoin:miter;shape-rendering:geometricPrecision" />
  </g>
  <g
     id="g249"
     transform="matrix(1.333333,0,0,1.333333,-50.80047,-52.609115)">
    <g
       aria-label="N"
       style="text-anchor:start;text-rendering:geometricPrecision"
       id="text247">
      <path
         d="m 257.18936,143.37 v -5.72657 h 0.77735 l 3.00781,4.4961 v -4.4961 h 0.72656 V 143.37 h -0.77734 l -3.00782,-4.5 v 4.5 z"
         style="font-size:8px;font-family:Arial;fill:#000000"
         id="path5634"
         inkscape:connector-curvature="0" />
    </g>
  </g>
  <g
     id="g253"
     transform="matrix(1.333333,0,0,1.333333,-50.80047,-52.609115)">
    <path
       d="m 239.29,128.57 v 0 l 0.26,0.15 0.26,0.15 v 11.2 l -0.26,0.15 -0.26,0.15 z"
       id="path251"
       inkscape:connector-curvature="0"
       style="fill:#000000;fill-rule:evenodd;stroke:#000000;stroke-width:0;stroke-linejoin:miter;shape-rendering:geometricPrecision" />
  </g>
  <g
     id="g257"
     transform="matrix(1.333333,0,0,1.333333,-50.80047,-52.609115)">
    <path
       d="m 239.29,140.37 v 0 l 0.26,-0.15 0.26,-0.15 9.7,5.62 v 0.29 0.29 z"
       id="path255"
       inkscape:connector-curvature="0"
       style="fill:#000000;fill-rule:evenodd;stroke:#000000;stroke-width:0;stroke-linejoin:miter;shape-rendering:geometricPrecision" />
  </g>
  <g
     id="g261"
     transform="matrix(1.333333,0,0,1.333333,-50.80047,-52.609115)">
    <path
       d="m 249.51,146.27 v 0 -0.29 -0.29 l 6.44,-3.72 0.12,0.22 0.13,0.22 z"
       id="path259"
       inkscape:connector-curvature="0"
       style="fill:#000000;fill-rule:evenodd;stroke:#000000;stroke-width:0;stroke-linejoin:miter;shape-rendering:geometricPrecision" />
  </g>
  <g
     id="g269"
     transform="matrix(1.333333,0,0,1.333333,-50.80047,-52.609115)">
    <path
       style="stroke:#000000;stroke-width:0.50999999;shape-rendering:auto"
       d="M 258.45001,136.39999 258.44,128.72"
       id="line263"
       inkscape:connector-curvature="0" />
    <path
       d="m 260.26,136.4 v 0 h 0.51 v -8.37 l -0.51,0.17 z"
       id="path265"
       inkscape:connector-curvature="0"
       style="fill:#000000;fill-rule:evenodd;stroke:#000000;stroke-width:0;stroke-linejoin:miter;shape-rendering:geometricPrecision" />
    <path
       d="m 258.19,136.4 v 0 h 0.51 v -7.84 l -0.51,-0.29 z"
       id="path267"
       inkscape:connector-curvature="0"
       style="fill:#000000;fill-rule:evenodd;stroke:#000000;stroke-width:0;stroke-linejoin:miter;shape-rendering:geometricPrecision" />
  </g>
  <g
     id="g273"
     transform="matrix(1.333333,0,0,1.333333,-50.80047,-52.609115)">
    <path
       d="m 259.51,128.44 v 0 l -0.03,0.28 -0.03,0.28 -9.94,-5.75 v -0.29 l 0.26,-0.15 z"
       id="path271"
       inkscape:connector-curvature="0"
       style="fill:#000000;fill-rule:evenodd;stroke:#000000;stroke-width:0;stroke-linejoin:miter;shape-rendering:geometricPrecision" />
  </g>
  <g
     id="g277"
     transform="matrix(1.333333,0,0,1.333333,-50.80047,-52.609115)">
    <path
       d="m 249.26,122.81 v 0 l 0.25,0.15 v 0.29 l -9.7,5.62 -0.26,-0.15 -0.26,-0.15 z"
       id="path275"
       inkscape:connector-curvature="0"
       style="fill:#000000;fill-rule:evenodd;stroke:#000000;stroke-width:0;stroke-linejoin:miter;shape-rendering:geometricPrecision" />
  </g>
  <g
     id="g281"
     transform="matrix(1.333333,0,0,1.333333,-50.80047,-52.609115)">
    <path
       d="m 262.86,141.59 v 0 l 0.08,-0.25 0.08,-0.24 7.3,2.38 0.1,0.3 0.1,0.3 z"
       id="path279"
       inkscape:connector-curvature="0"
       style="fill:#000000;fill-rule:evenodd;stroke:#000000;stroke-width:0;stroke-linejoin:miter;shape-rendering:geometricPrecision" />
  </g>
  <g
     id="g285"
     transform="matrix(1.333333,0,0,1.333333,-50.80047,-52.609115)">
    <path
       d="m 270.52,144.08 v 0 l -0.1,-0.3 -0.1,-0.3 6.55,-9.01 h 0.32 0.32 z"
       id="path283"
       inkscape:connector-curvature="0"
       style="fill:#000000;fill-rule:evenodd;stroke:#000000;stroke-width:0;stroke-linejoin:miter;shape-rendering:geometricPrecision" />
  </g>
  <g
     id="g289"
     transform="matrix(1.333333,0,0,1.333333,-50.80047,-52.609115)">
    <path
       d="m 277.51,134.47 v 0 h -0.32 -0.32 l -6.55,-9.01 0.1,-0.3 0.1,-0.3 z"
       id="path287"
       inkscape:connector-curvature="0"
       style="fill:#000000;fill-rule:evenodd;stroke:#000000;stroke-width:0;stroke-linejoin:miter;shape-rendering:geometricPrecision" />
  </g>
  <g
     id="g293"
     transform="matrix(1.333333,0,0,1.333333,-50.80047,-52.609115)">
    <path
       d="m 270.52,124.86 v 0 l -0.1,0.3 -0.1,0.3 -10.87,3.54 0.03,-0.28 0.03,-0.28 z"
       id="path291"
       inkscape:connector-curvature="0"
       style="fill:#000000;fill-rule:evenodd;stroke:#000000;stroke-width:0;stroke-linejoin:miter;shape-rendering:geometricPrecision" />
  </g>
  <g
     id="g299"
     transform="matrix(1.333333,0,0,1.333333,-50.80047,-52.609115)">
    <path
       d="m 249.77,122.81 v 0 l -0.26,0.15 -0.25,-0.15 -0.01,-11.51 0.26,0.15 0.26,0.15 z"
       id="path295"
       inkscape:connector-curvature="0"
       style="fill:#000000;fill-rule:evenodd;stroke:#000000;stroke-width:0;stroke-linejoin:miter;shape-rendering:geometricPrecision" />
    <path
       style="stroke:#000000;stroke-width:0.50999999;shape-rendering:auto"
       d="m 251.58,121.76 v -9.11"
       id="line297"
       inkscape:connector-curvature="0" />
  </g>
  <g
     id="g305"
     transform="matrix(1.333333,0,0,1.333333,-50.80047,-52.609115)">
    <g
       aria-label="OTBMS"
       style="text-anchor:start;text-rendering:geometricPrecision"
       id="text303">
      <path
         d="m 256.76672,106.06094 q 0,-1.42579 0.76563,-2.23047 0.76562,-0.8086 1.97656,-0.8086 0.79297,0 1.42969,0.37891 0.63672,0.37891 0.96875,1.05859 0.33594,0.67578 0.33594,1.53516 0,0.87109 -0.35157,1.55859 -0.35156,0.6875 -0.99609,1.04297 -0.64453,0.35156 -1.39063,0.35156 -0.80859,0 -1.44531,-0.39062 -0.63672,-0.39063 -0.96484,-1.06641 -0.32813,-0.67578 -0.32813,-1.42968 z m 0.78125,0.0117 q 0,1.03516 0.55469,1.63282 0.55859,0.59375 1.39844,0.59375 0.85547,0 1.40625,-0.60157 0.55469,-0.60156 0.55469,-1.70703 0,-0.69922 -0.23829,-1.21875 -0.23437,-0.52343 -0.6914,-0.80859 -0.45313,-0.28906 -1.01953,-0.28906 -0.80469,0 -1.38672,0.55468 -0.57813,0.55079 -0.57813,1.84375 z"
         style="font-size:8px;font-family:Arial;fill:#000000"
         id="path5621"
         inkscape:connector-curvature="0" />
      <path
         d="m 264.67297,108.85 v -5.05078 h -1.88672 v -0.67578 h 4.53907 v 0.67578 h -1.89453 V 108.85 Z"
         style="font-size:8px;font-family:Arial;fill:#000000"
         id="path5623"
         inkscape:connector-curvature="0" />
      <path
         d="m 268.07532,108.85 v -5.72656 h 2.14843 q 0.65625,0 1.05079,0.17578 0.39843,0.17187 0.62109,0.53515 0.22656,0.35938 0.22656,0.75391 0,0.36719 -0.19922,0.69141 -0.19922,0.32421 -0.60156,0.52343 0.51953,0.15235 0.79688,0.51953 0.28125,0.36719 0.28125,0.86719 0,0.40235 -0.17188,0.75 -0.16797,0.34375 -0.41797,0.53125 -0.25,0.1875 -0.6289,0.28516 -0.375,0.0937 -0.92188,0.0937 z m 0.75781,-3.32031 h 1.23828 q 0.50391,0 0.72266,-0.0664 0.28906,-0.0859 0.43359,-0.28516 0.14844,-0.19922 0.14844,-0.5 0,-0.28515 -0.13672,-0.5 -0.13672,-0.21875 -0.39063,-0.29687 -0.2539,-0.082 -0.87109,-0.082 h -1.14453 z m 0,2.64453 h 1.42578 q 0.36719,0 0.51563,-0.0273 0.26171,-0.0469 0.4375,-0.15625 0.17578,-0.10937 0.28906,-0.3164 0.11328,-0.21094 0.11328,-0.48438 0,-0.32031 -0.16406,-0.55469 -0.16407,-0.23828 -0.45703,-0.33203 -0.28907,-0.0977 -0.83594,-0.0977 h -1.32422 z"
         style="font-size:8px;font-family:Arial;fill:#000000"
         id="path5625"
         inkscape:connector-curvature="0" />
      <path
         d="m 273.42688,108.85 v -5.72656 h 1.14062 l 1.35547,4.05468 q 0.1875,0.56641 0.27344,0.84766 0.0977,-0.3125 0.30469,-0.91797 l 1.37109,-3.98437 h 1.01953 V 108.85 h -0.73047 v -4.79297 l -1.66406,4.79297 h -0.68359 l -1.65625,-4.875 v 4.875 z"
         style="font-size:8px;font-family:Arial;fill:#000000"
         id="path5627"
         inkscape:connector-curvature="0" />
      <path
         d="m 279.86438,107.01015 0.71484,-0.0625 q 0.0508,0.42969 0.23438,0.70704 0.1875,0.27343 0.57812,0.44531 0.39063,0.16797 0.87891,0.16797 0.43359,0 0.76562,-0.12891 0.33204,-0.12891 0.49219,-0.35156 0.16406,-0.22656 0.16406,-0.49219 0,-0.26953 -0.15625,-0.46875 -0.15625,-0.20312 -0.51562,-0.33984 -0.23047,-0.0898 -1.01953,-0.27735 -0.78906,-0.1914 -1.10547,-0.35937 -0.41016,-0.21485 -0.61328,-0.53125 -0.19922,-0.32031 -0.19922,-0.71485 0,-0.43359 0.24609,-0.80859 0.2461,-0.37891 0.71875,-0.57422 0.47266,-0.19531 1.05078,-0.19531 0.63672,0 1.1211,0.20703 0.48828,0.20313 0.75,0.60156 0.26172,0.39844 0.28125,0.90235 l -0.72656,0.0547 q -0.0586,-0.54296 -0.39844,-0.82031 -0.33594,-0.27734 -0.9961,-0.27734 -0.6875,0 -1.0039,0.2539 -0.3125,0.25 -0.3125,0.60547 0,0.3086 0.22265,0.50782 0.21875,0.19921 1.14063,0.41015 0.92578,0.20703 1.26953,0.36328 0.5,0.23047 0.73828,0.58594 0.23828,0.35156 0.23828,0.8125 0,0.45703 -0.26172,0.86328 -0.26171,0.40235 -0.7539,0.62891 -0.48828,0.22265 -1.10156,0.22265 -0.77735,0 -1.30469,-0.22656 -0.52344,-0.22656 -0.82422,-0.67969 -0.29688,-0.45703 -0.3125,-1.03125 z"
         style="font-size:8px;font-family:Arial;fill:#000000"
         id="path5629"
         inkscape:connector-curvature="0" />
    </g>
  </g>
  <g
     id="g309"
     transform="matrix(1.333333,0,0,1.333333,-50.80047,-52.609115)">
    <path
       d="m 249.77,111.6 v 0 l -0.26,-0.15 -0.26,-0.15 6.4,-3.68 0.12,0.22 0.13,0.22 z"
       id="path307"
       inkscape:connector-curvature="0"
       style="fill:#000000;fill-rule:evenodd;stroke:#000000;stroke-width:0;stroke-linejoin:miter;shape-rendering:geometricPrecision" />
  </g>
  <g
     id="Charge9475"
     transform="matrix(1.333333,0,0,1.333333,-50.80047,-52.609115)">
    <path
       style="fill:none;stroke:#000000;stroke-width:0.40799999"
       d="m 264.08668,148.19 a 2.6666667,2.6666667 0 0 1 -2.66667,2.66667 2.6666667,2.6666667 0 0 1 -2.66666,-2.66667 2.6666667,2.6666667 0 0 1 2.66666,-2.66666 2.6666667,2.6666667 0 0 1 2.66667,2.66666 z"
       id="circle311"
       inkscape:connector-curvature="0" />
    <path
       style="stroke:#000000;stroke-width:0.40799999;shape-rendering:auto"
       d="m 259.82999,148.19 h 3.18002"
       id="line313"
       inkscape:connector-curvature="0" />
    <path
       style="stroke:#000000;stroke-width:0.40799999;shape-rendering:auto"
       d="M 261.42001,146.60001 V 149.78"
       id="line315"
       inkscape:connector-curvature="0" />
  </g>
  <g
     id="g322"
     transform="matrix(1.333333,0,0,1.333333,-50.80047,-52.609115)">
    <g
       aria-label="TfO"
       style="text-anchor:start;text-rendering:geometricPrecision"
       id="text320">
      <path
         d="m 279.58423,152.47 v -5.05078 h -1.88672 v -0.67578 h 4.53906 v 0.67578 h -1.89453 V 152.47 Z"
         style="font-size:8px;font-family:Arial;fill:#000000"
         id="path5611"
         inkscape:connector-curvature="0" />
      <path
         d="m 283.09595,152.47 v -3.60156 h -0.6211 v -0.54688 h 0.6211 v -0.4414 q 0,-0.41797 0.0742,-0.6211 0.10156,-0.27343 0.35546,-0.4414 0.25782,-0.17188 0.71875,-0.17188 0.29688,0 0.65625,0.0703 l -0.10546,0.61329 q -0.21875,-0.0391 -0.41407,-0.0391 -0.32031,0 -0.45312,0.13672 -0.13281,0.13672 -0.13281,0.51172 v 0.38281 h 0.80859 v 0.54688 h -0.80859 v 3.6016 z"
         style="font-size:8px;font-family:Arial;fill:#000000"
         id="path5613"
         inkscape:connector-curvature="0" />
      <path
         d="m 285.0061,149.68094 q 0,-1.42578 0.76563,-2.23047 0.76562,-0.80859 1.97656,-0.80859 0.79297,0 1.42969,0.3789 0.63672,0.37891 0.96875,1.0586 0.33594,0.67578 0.33594,1.53515 0,0.8711 -0.35157,1.5586 -0.35156,0.6875 -0.99609,1.04296 -0.64453,0.35157 -1.39063,0.35157 -0.80859,0 -1.44531,-0.39063 -0.63672,-0.39062 -0.96484,-1.0664 -0.32813,-0.67579 -0.32813,-1.42969 z m 0.78125,0.0117 q 0,1.03515 0.55469,1.63281 0.55859,0.59375 1.39844,0.59375 0.85547,0 1.40625,-0.60156 0.55469,-0.60157 0.55469,-1.70703 0,-0.69922 -0.23829,-1.21875 -0.23437,-0.52344 -0.6914,-0.8086 -0.45313,-0.28906 -1.01953,-0.28906 -0.80469,0 -1.38672,0.55469 -0.57813,0.55078 -0.57813,1.84375 z"
         style="font-size:8px;font-family:Arial;fill:#000000"
         id="path5615"
         inkscape:connector-curvature="0" />
    </g>
  </g>
  <g
     id="Charge9479"
     transform="matrix(1.333333,0,0,1.333333,-50.80047,-52.609115)">
    <path
       style="fill:none;stroke:#000000;stroke-width:0.40799999"
       d="m 296.06666,143.38 a 2.6666667,2.6666667 0 0 1 -2.66667,2.66667 2.6666667,2.6666667 0 0 1 -2.66666,-2.66667 2.6666667,2.6666667 0 0 1 2.66666,-2.66666 2.6666667,2.6666667 0 0 1 2.66667,2.66666 z"
       id="circle324"
       inkscape:connector-curvature="0" />
    <path
       style="stroke:#000000;stroke-width:0.40799999;shape-rendering:auto"
       d="m 291.81,143.38 h 3.17999"
       id="line326"
       inkscape:connector-curvature="0" />
  </g>
  <g
     id="Bracket"
     transform="matrix(1.333333,0,0,1.333333,-50.80047,-52.609115)">
    <path
       d="m 297.82,102.97 h 4.19 v 55 h -4.19"
       id="path329"
       inkscape:connector-curvature="0"
       style="fill:none;fill-rule:evenodd;stroke:#000000;stroke-width:0.50999999;stroke-linejoin:miter;shape-rendering:geometricPrecision" />
  </g>
  <g
     id="g334"
     transform="matrix(1.333333,0,0,1.333333,-50.80047,-52.609115)">
    <path
       d="m 236.7,157.97 h -4.19 v -55 h 4.19"
       id="path332"
       inkscape:connector-curvature="0"
       style="fill:none;fill-rule:evenodd;stroke:#000000;stroke-width:0.50999999;stroke-linejoin:miter;shape-rendering:geometricPrecision" />
  </g>
  <g
     id="Arrow"
     transform="matrix(1.333333,0,0,1.333333,-50.80047,-52.609115)">
    <path
       style="stroke:#000000;stroke-width:0.50999999;shape-rendering:auto"
       d="M 72.489998,128.48 H 39.560001"
       id="line336"
       inkscape:connector-curvature="0" />
    <path
       d="m 75.95,128.48 -5.1,-1.28 c 1.07,0.72 1.07,1.84 0,2.56 z"
       stroke-miterlimit="5.89496254687647"
       id="path338"
       inkscape:connector-curvature="0"
       style="fill:#000000;fill-rule:evenodd;stroke:#000000;stroke-width:0;stroke-linejoin:miter;stroke-miterlimit:5.89496231;shape-rendering:geometricPrecision" />
  </g>
  <g
     id="g345"
     transform="matrix(1.333333,0,0,1.333333,-50.80047,-52.609115)">
    <g
       aria-label="N"
       style="text-anchor:start;text-rendering:geometricPrecision"
       id="text343">
      <path
         d="m 34.969376,206.24001 v -5.72657 h 0.777343 l 3.007813,4.4961 v -4.4961 h 0.726562 v 5.72657 h -0.777343 l -3.007813,-4.5 v 4.5 z"
         style="font-size:8px;font-family:Arial;fill:#000000"
         id="path5605"
         inkscape:connector-curvature="0" />
    </g>
  </g>
  <g
     id="g349"
     transform="matrix(1.333333,0,0,1.333333,-50.80047,-52.609115)">
    <path
       d="m 17.07,191.44 v 0 l 0.26,0.15 0.26,0.15 v 11.2 l -0.26,0.15 -0.26,0.15 z"
       id="path347"
       inkscape:connector-curvature="0"
       style="fill:#000000;fill-rule:evenodd;stroke:#000000;stroke-width:0;stroke-linejoin:miter;shape-rendering:geometricPrecision" />
  </g>
  <g
     id="g353"
     transform="matrix(1.333333,0,0,1.333333,-50.80047,-52.609115)">
    <path
       d="m 17.07,203.24 v 0 l 0.26,-0.15 0.26,-0.15 9.71,5.62 v 0.29 0.29 z"
       id="path351"
       inkscape:connector-curvature="0"
       style="fill:#000000;fill-rule:evenodd;stroke:#000000;stroke-width:0;stroke-linejoin:miter;shape-rendering:geometricPrecision" />
  </g>
  <g
     id="g357"
     transform="matrix(1.333333,0,0,1.333333,-50.80047,-52.609115)">
    <path
       d="m 27.3,209.14 v 0 -0.29 -0.29 l 6.45,-3.73 0.12,0.22 0.13,0.22 z"
       id="path355"
       inkscape:connector-curvature="0"
       style="fill:#000000;fill-rule:evenodd;stroke:#000000;stroke-width:0;stroke-linejoin:miter;shape-rendering:geometricPrecision" />
  </g>
  <g
     id="g361"
     transform="matrix(1.333333,0,0,1.333333,-50.80047,-52.609115)">
    <path
       d="m 37.52,199.3 v 0 h -0.26 -0.25 v -7.56 l 0.25,-0.15 0.26,0.19 z"
       id="path359"
       inkscape:connector-curvature="0"
       style="fill:#000000;fill-rule:evenodd;stroke:#000000;stroke-width:0;stroke-linejoin:miter;shape-rendering:geometricPrecision" />
  </g>
  <g
     id="g365"
     transform="matrix(1.333333,0,0,1.333333,-50.80047,-52.609115)">
    <path
       d="m 37.29,191.31 v 0 l -0.03,0.28 -0.25,0.15 -9.71,-5.62 v -0.29 l 0.79,0.17 z"
       id="path363"
       inkscape:connector-curvature="0"
       style="fill:#000000;fill-rule:evenodd;stroke:#000000;stroke-width:0;stroke-linejoin:miter;shape-rendering:geometricPrecision" />
  </g>
  <g
     id="g369"
     transform="matrix(1.333333,0,0,1.333333,-50.80047,-52.609115)">
    <path
       d="m 26.5,185.99 v 0 l 0.8,-0.16 v 0.29 l -9.71,5.62 -0.26,-0.15 -0.26,-0.15 z"
       id="path367"
       inkscape:connector-curvature="0"
       style="fill:#000000;fill-rule:evenodd;stroke:#000000;stroke-width:0;stroke-linejoin:miter;shape-rendering:geometricPrecision" />
  </g>
  <g
     id="g373"
     transform="matrix(1.333333,0,0,1.333333,-50.80047,-52.609115)">
    <path
       d="m 40.66,204.46 v 0 l 0.08,-0.24 0.08,-0.24 7.29,2.37 0.1,0.3 0.1,0.3 z"
       id="path371"
       inkscape:connector-curvature="0"
       style="fill:#000000;fill-rule:evenodd;stroke:#000000;stroke-width:0;stroke-linejoin:miter;shape-rendering:geometricPrecision" />
  </g>
  <g
     id="g377"
     transform="matrix(1.333333,0,0,1.333333,-50.80047,-52.609115)">
    <path
       d="m 48.31,206.95 v 0 l -0.1,-0.3 -0.1,-0.3 6.54,-9.01 h 0.32 0.32 z"
       id="path375"
       inkscape:connector-curvature="0"
       style="fill:#000000;fill-rule:evenodd;stroke:#000000;stroke-width:0;stroke-linejoin:miter;shape-rendering:geometricPrecision" />
  </g>
  <g
     id="g381"
     transform="matrix(1.333333,0,0,1.333333,-50.80047,-52.609115)">
    <path
       d="m 55.29,197.34 v 0 h -0.32 -0.32 l -6.54,-9.01 0.1,-0.3 0.1,-0.3 z"
       id="path379"
       inkscape:connector-curvature="0"
       style="fill:#000000;fill-rule:evenodd;stroke:#000000;stroke-width:0;stroke-linejoin:miter;shape-rendering:geometricPrecision" />
  </g>
  <g
     id="g385"
     transform="matrix(1.333333,0,0,1.333333,-50.80047,-52.609115)">
    <path
       d="m 48.31,187.73 v 0 l -0.1,0.3 -0.1,0.3 -10.59,3.45 -0.26,-0.19 0.03,-0.28 z"
       id="path383"
       inkscape:connector-curvature="0"
       style="fill:#000000;fill-rule:evenodd;stroke:#000000;stroke-width:0;stroke-linejoin:miter;shape-rendering:geometricPrecision" />
  </g>
  <g
     id="g389"
     transform="matrix(1.333333,0,0,1.333333,-50.80047,-52.609115)">
    <path
       d="m 28.09,186 v 0 l -0.79,-0.17 -0.8,0.16 0.01,-11.51 0.79,-0.16 0.79,-0.16 z"
       id="path387"
       inkscape:connector-curvature="0"
       style="fill:#000000;fill-rule:evenodd;stroke:#000000;stroke-width:0;stroke-linejoin:miter;shape-rendering:geometricPrecision" />
  </g>
  <g
     id="g393"
     transform="matrix(1.333333,0,0,1.333333,-50.80047,-52.609115)">
    <path
       d="m 28.09,174.16 v 0 l -0.79,0.16 -0.79,0.16 6.94,-4 0.12,0.22 0.13,0.22 z"
       id="path391"
       inkscape:connector-curvature="0"
       style="fill:#000000;fill-rule:evenodd;stroke:#000000;stroke-width:0;stroke-linejoin:miter;shape-rendering:geometricPrecision" />
  </g>
  <g
     id="g399"
     transform="matrix(1.333333,0,0,1.333333,-50.80047,-52.609115)">
    <g
       aria-label="OH"
       style="text-anchor:start;text-rendering:geometricPrecision"
       id="text397">
      <path
         d="m 34.546719,168.93094 q 0,-1.42578 0.765625,-2.23047 0.765625,-0.80859 1.976562,-0.80859 0.792969,0 1.429688,0.3789 0.636718,0.37891 0.96875,1.0586 0.335937,0.67578 0.335937,1.53515 0,0.8711 -0.351562,1.5586 -0.351563,0.6875 -0.996094,1.04296 -0.644531,0.35157 -1.390625,0.35157 -0.808594,0 -1.445313,-0.39063 -0.636718,-0.39062 -0.964843,-1.0664 -0.328125,-0.67579 -0.328125,-1.42969 z m 0.78125,0.0117 q 0,1.03515 0.554687,1.63281 0.558594,0.59375 1.398438,0.59375 0.855468,0 1.40625,-0.60156 0.554687,-0.60157 0.554687,-1.70703 0,-0.69922 -0.238281,-1.21875 -0.234375,-0.52344 -0.691406,-0.8086 -0.453125,-0.28906 -1.019532,-0.28906 -0.804687,0 -1.386718,0.55469 -0.578125,0.55078 -0.578125,1.84375 z"
         style="font-size:8px;font-family:Arial;fill:#000000"
         id="path5600"
         inkscape:connector-curvature="0" />
      <path
         d="m 41.019375,171.72 v -5.72656 h 0.757812 v 2.35156 h 2.976563 v -2.35156 h 0.757812 V 171.72 H 44.75375 v -2.69922 H 41.777187 V 171.72 Z"
         style="font-size:8px;font-family:Arial;fill:#000000"
         id="path5602"
         inkscape:connector-curvature="0" />
    </g>
  </g>
  <g
     id="Hash Bond"
     transform="matrix(1.333333,0,0,1.333333,-50.80047,-52.609115)">
    <path
       style="stroke:#000000;stroke-width:0.50999999;shape-rendering:auto"
       d="m 38.310001,189.25999 -1.59,-0.16999"
       id="line401"
       inkscape:connector-curvature="0" />
    <path
       style="stroke:#000000;stroke-width:0.50999999;shape-rendering:auto"
       d="m 38.529999,187.09 -1.579998,-0.16001"
       id="line403"
       inkscape:connector-curvature="0" />
    <path
       style="stroke:#000000;stroke-width:0.50999999;shape-rendering:auto"
       d="M 38.759998,184.92999 37.18,184.75999"
       id="line405"
       inkscape:connector-curvature="0" />
  </g>
  <g
     id="g412"
     transform="matrix(1.333333,0,0,1.333333,-50.80047,-52.609115)">
    <g
       aria-label="H"
       style="text-anchor:start;text-rendering:geometricPrecision"
       id="text410">
      <path
         d="m 36.210625,183.28999 v -5.72656 h 0.757812 v 2.35156 H 39.945 v -2.35156 h 0.757812 v 5.72656 H 39.945 v -2.69922 h -2.976563 v 2.69922 z"
         style="font-size:8px;font-family:Arial;fill:#000000"
         id="path5594"
         inkscape:connector-curvature="0" />
    </g>
  </g>
  <g
     id="g418"
     transform="matrix(1.333333,0,0,1.333333,-50.80047,-52.609115)">
    <path
       style="stroke:#000000;stroke-width:0.50999999;shape-rendering:auto"
       d="M 222.38,128.48 H 170.94"
       id="line414"
       inkscape:connector-curvature="0" />
    <path
       d="m 225.84,128.48 -5.1,-1.28 c 1.08,0.72 1.08,1.84 0,2.56 z"
       stroke-miterlimit="5.89496254687632"
       id="path416"
       inkscape:connector-curvature="0"
       style="fill:#000000;fill-rule:evenodd;stroke:#000000;stroke-width:0;stroke-linejoin:miter;stroke-miterlimit:5.89496231;shape-rendering:geometricPrecision" />
  </g>
  <path
     style="stroke:#000000;stroke-width:0.67999983;shape-rendering:auto"
     d="m 326.03943,211.63081 v -41.2933"
     id="line420" />
  <g
     id="g426"
     transform="matrix(1.333333,0,0,1.333333,-50.80047,-52.609115)">
    <path
       style="stroke:#000000;stroke-width:0.50999999;shape-rendering:auto"
       d="M 282.63,198.17999 H 261.39999"
       id="line422"
       inkscape:connector-curvature="0" />
    <path
       d="m 257.94,198.18 5.1,1.28 c -1.08,-0.72 -1.08,-1.84 0,-2.56 z"
       stroke-miterlimit="5.89496254687654"
       id="path424"
       inkscape:connector-curvature="0"
       style="fill:#000000;fill-rule:evenodd;stroke:#000000;stroke-width:0;stroke-linejoin:miter;stroke-miterlimit:5.89496231;shape-rendering:geometricPrecision" />
  </g>
  <g
     id="g432"
     transform="matrix(1.333333,0,0,1.333333,-50.80047,-52.609115)">
    <path
       style="stroke:#000000;stroke-width:0.50999999;shape-rendering:auto"
       d="M 145.89999,197.48 H 200.56"
       id="line428"
       inkscape:connector-curvature="0" />
    <path
       d="m 142.44,197.48 5.1,1.28 c -1.08,-0.72 -1.08,-1.84 0,-2.56 z"
       stroke-miterlimit="5.89496254687632"
       id="path430"
       inkscape:connector-curvature="0"
       style="fill:#000000;fill-rule:evenodd;stroke:#000000;stroke-width:0;stroke-linejoin:miter;stroke-miterlimit:5.89496231;shape-rendering:geometricPrecision" />
  </g>
  <g
     id="g438"
     transform="matrix(1.333333,0,0,1.333333,-50.80047,-50.609115)">
    <g
       aria-label="EtOH, Pd/C"
       style="text-anchor:start;text-rendering:geometricPrecision"
       id="text436">
      <path
         d="m 153.25281,179.63 v -5.72656 h 4.14062 v 0.67578 h -3.38281 v 1.75391 h 3.16797 v 0.67187 h -3.16797 v 1.94922 h 3.51563 V 179.63 Z"
         style="font-size:8px;font-family:Arial;fill:#000000"
         id="path5571"
         inkscape:connector-curvature="0" />
      <path
         d="m 160.02625,179.0011 0.10156,0.62109 q -0.29688,0.0625 -0.53125,0.0625 -0.38281,0 -0.59375,-0.12109 -0.21094,-0.1211 -0.29688,-0.31641 -0.0859,-0.19922 -0.0859,-0.83203 v -2.38672 h -0.51563 v -0.54687 h 0.5156 v -1.02735 l 0.69921,-0.42187 v 1.44922 h 0.70704 v 0.54687 h -0.70704 v 2.42578 q 0,0.30078 0.0352,0.38672 0.0391,0.0859 0.12109,0.13672 0.0859,0.0508 0.24219,0.0508 0.11719,0 0.3086,-0.0273 z"
         style="font-size:8px;font-family:Arial;fill:#000000"
         id="path5573"
         inkscape:connector-curvature="0" />
      <path
         d="m 160.56921,176.84094 q 0,-1.42578 0.76563,-2.23047 0.76562,-0.80859 1.97656,-0.80859 0.79297,0 1.42969,0.37891 0.63672,0.3789 0.96875,1.05859 0.33594,0.67578 0.33594,1.53516 0,0.87109 -0.35157,1.55859 -0.35156,0.6875 -0.99609,1.04297 -0.64453,0.35156 -1.39062,0.35156 -0.8086,0 -1.44532,-0.39062 -0.63672,-0.39063 -0.96484,-1.06641 -0.32813,-0.67578 -0.32813,-1.42969 z m 0.78125,0.0117 q 0,1.03516 0.55469,1.63281 0.5586,0.59375 1.39844,0.59375 0.85547,0 1.40625,-0.60156 0.55469,-0.60156 0.55469,-1.70703 0,-0.69922 -0.23828,-1.21875 -0.23438,-0.52344 -0.69141,-0.80859 -0.45313,-0.28907 -1.01953,-0.28907 -0.80469,0 -1.38672,0.55469 -0.57813,0.55078 -0.57813,1.84375 z"
         style="font-size:8px;font-family:Arial;fill:#000000"
         id="path5575"
         inkscape:connector-curvature="0" />
      <path
         d="m 167.04187,179.63 v -5.72656 h 0.75781 v 2.35156 h 2.97657 v -2.35156 h 0.75781 V 179.63 h -0.75781 v -2.69921 h -2.97657 V 179.63 Z"
         style="font-size:8px;font-family:Arial;fill:#000000"
         id="path5577"
         inkscape:connector-curvature="0" />
      <path
         d="m 172.89343,179.63 v -0.80078 h 0.80078 V 179.63 q 0,0.44141 -0.15625,0.71094 -0.15625,0.27344 -0.49609,0.42188 l -0.19531,-0.30078 q 0.22265,-0.0977 0.32812,-0.28907 0.10547,-0.1875 0.11719,-0.54297 z"
         style="font-size:8px;font-family:Arial;fill:#000000"
         id="path5579"
         inkscape:connector-curvature="0" />
      <path
         d="m 177.23718,179.63 v -5.72656 h 2.16016 q 0.57031,0 0.87109,0.0547 0.42188,0.0703 0.70703,0.26953 0.28516,0.19531 0.45704,0.55078 0.17578,0.35547 0.17578,0.78125 0,0.73047 -0.46485,1.23828 -0.46484,0.50391 -1.67968,0.50391 H 177.995 V 179.63 Z m 0.75782,-3.0039 h 1.48046 q 0.73438,0 1.04297,-0.27344 0.3086,-0.27344 0.3086,-0.76953 0,-0.35938 -0.1836,-0.61328 -0.17968,-0.25781 -0.47656,-0.33985 -0.19141,-0.0508 -0.70703,-0.0508 H 177.995 Z"
         style="font-size:8px;font-family:Arial;fill:#000000"
         id="path5581"
         inkscape:connector-curvature="0" />
      <path
         d="m 185.1825,179.63 v -0.52343 q -0.39454,0.61718 -1.16016,0.61718 -0.49609,0 -0.91406,-0.27343 -0.41407,-0.27344 -0.64453,-0.76172 -0.22657,-0.49219 -0.22657,-1.12891 0,-0.62109 0.20703,-1.125 0.20704,-0.50781 0.6211,-0.77734 0.41406,-0.26953 0.92578,-0.26953 0.375,0 0.66797,0.16015 0.29297,0.15625 0.47656,0.41016 v -2.05469 h 0.69922 V 179.63 Z m -2.22266,-2.07031 q 0,0.79688 0.33594,1.19141 0.33593,0.39453 0.79297,0.39453 0.46093,0 0.78125,-0.375 0.32421,-0.37891 0.32421,-1.15234 0,-0.85157 -0.32812,-1.25 -0.32813,-0.39844 -0.80859,-0.39844 -0.46875,0 -0.78516,0.38281 -0.3125,0.38281 -0.3125,1.20703 z"
         style="font-size:8px;font-family:Arial;fill:#000000"
         id="path5583"
         inkscape:connector-curvature="0" />
      <path
         d="m 186.41687,179.72766 1.66016,-5.92187 h 0.5625 l -1.65625,5.92187 z"
         style="font-size:8px;font-family:Arial;fill:#000000"
         id="path5585"
         inkscape:connector-curvature="0" />
      <path
         d="m 193.33875,177.62219 0.75781,0.19141 q -0.23828,0.93359 -0.85938,1.42578 -0.61718,0.48828 -1.51172,0.48828 -0.92578,0 -1.50781,-0.375 -0.57812,-0.37891 -0.88281,-1.09375 -0.30078,-0.71484 -0.30078,-1.53516 0,-0.89453 0.33984,-1.55859 0.34375,-0.66797 0.97266,-1.01172 0.63281,-0.34765 1.39062,-0.34765 0.85938,0 1.44532,0.4375 0.58593,0.4375 0.8164,1.23046 l -0.74609,0.17579 q -0.19922,-0.625 -0.57813,-0.91016 -0.3789,-0.28516 -0.95312,-0.28516 -0.66016,0 -1.10547,0.31641 -0.44141,0.31641 -0.62109,0.85156 -0.17969,0.53125 -0.17969,1.09766 0,0.73047 0.21094,1.27734 0.21484,0.54297 0.66406,0.8125 0.44922,0.26953 0.97265,0.26953 0.63672,0 1.07813,-0.36718 0.44141,-0.36719 0.59766,-1.08985 z"
         style="font-size:8px;font-family:Arial;fill:#000000"
         id="path5587"
         inkscape:connector-curvature="0" />
    </g>
  </g>
  <g
     id="g456"
     transform="matrix(1.333333,0,0,1.333333,-50.80047,-54.609115)">
    <g
       aria-label="H2 (1000 psi)"
       style="text-anchor:start;text-rendering:geometricPrecision"
       id="text454">
      <path
         d="m 150.72063,211.13 v -5.72656 h 0.75781 v 2.35156 h 2.97656 v -2.35156 h 0.75781 V 211.13 H 154.455 v -2.69921 h -2.97656 V 211.13 Z"
         style="font-size:8px;font-family:Arial;fill:#000000"
         id="path5539"
         inkscape:connector-curvature="0" />
      <path
         d="M 158.88176,212.43317 V 212.94 h -2.83887 q -0.006,-0.19042 0.0615,-0.36621 0.10839,-0.29004 0.3457,-0.57129 0.24023,-0.28125 0.69141,-0.65039 0.70019,-0.57421 0.94628,-0.9082 0.2461,-0.33691 0.2461,-0.63574 0,-0.31348 -0.22559,-0.52734 -0.22265,-0.2168 -0.58301,-0.2168 -0.38086,0 -0.60937,0.22851 -0.22852,0.22852 -0.23145,0.63282 l -0.54199,-0.0557 q 0.0557,-0.60644 0.41895,-0.92285 0.36328,-0.31934 0.97558,-0.31934 0.61817,0 0.97852,0.34278 0.36035,0.34277 0.36035,0.84961 0,0.25781 -0.10547,0.50683 -0.10547,0.24903 -0.35156,0.52442 -0.24317,0.27539 -0.81152,0.75586 -0.47461,0.39843 -0.60938,0.54199 -0.13477,0.14062 -0.22266,0.28418 z"
         style="font-size:6px;font-family:Arial;fill:#000000"
         id="path5541"
         inkscape:connector-curvature="0" />
      <path
         d="m 163.29094,212.8136 q -0.58203,-0.73438 -0.98438,-1.71875 -0.40234,-0.98438 -0.40234,-2.03906 0,-0.92969 0.30078,-1.78125 0.35156,-0.98829 1.08594,-1.96875 h 0.50391 q -0.47266,0.8125 -0.625,1.16015 -0.23829,0.53906 -0.375,1.125 -0.16797,0.73047 -0.16797,1.46875 0,1.87891 1.16797,3.75391 z"
         style="font-size:8px;font-family:Arial;fill:#000000"
         id="path5543"
         inkscape:connector-curvature="0" />
      <path
         d="m 167.07219,211.13 h -0.70313 v -4.48046 q -0.2539,0.24218 -0.66796,0.48437 -0.41016,0.24219 -0.73829,0.36328 v -0.67969 q 0.58985,-0.27734 1.03125,-0.67187 0.44141,-0.39453 0.625,-0.76563 h 0.45313 z"
         style="font-size:8px;font-family:Arial;fill:#000000"
         id="path5545"
         inkscape:connector-curvature="0" />
      <path
         d="m 168.87688,208.30579 q 0,-1.01563 0.20703,-1.63282 0.21094,-0.62109 0.62109,-0.95703 0.41406,-0.33594 1.03906,-0.33594 0.46094,0 0.8086,0.1875 0.34765,0.1836 0.57422,0.53516 0.22656,0.34766 0.35547,0.85156 0.1289,0.5 0.1289,1.35157 0,1.00781 -0.20703,1.6289 -0.20703,0.61719 -0.62109,0.95703 -0.41016,0.33594 -1.03907,0.33594 -0.82812,0 -1.30078,-0.59375 -0.5664,-0.71484 -0.5664,-2.32812 z m 0.72265,0 q 0,1.41015 0.32813,1.8789 0.33203,0.46485 0.8164,0.46485 0.48438,0 0.8125,-0.46875 0.33204,-0.46875 0.33204,-1.875 0,-1.41407 -0.33204,-1.87891 -0.32812,-0.46484 -0.82031,-0.46484 -0.48437,0 -0.77344,0.41015 -0.36328,0.52344 -0.36328,1.9336 z"
         style="font-size:8px;font-family:Arial;fill:#000000"
         id="path5547"
         inkscape:connector-curvature="0" />
      <path
         d="m 173.33,208.30579 q 0,-1.01563 0.20703,-1.63282 0.21094,-0.62109 0.6211,-0.95703 0.41406,-0.33594 1.03906,-0.33594 0.46094,0 0.80859,0.1875 0.34766,0.1836 0.57422,0.53516 0.22656,0.34766 0.35547,0.85156 0.12891,0.5 0.12891,1.35157 0,1.00781 -0.20703,1.6289 -0.20704,0.61719 -0.6211,0.95703 -0.41015,0.33594 -1.03906,0.33594 -0.82813,0 -1.30078,-0.59375 -0.56641,-0.71484 -0.56641,-2.32812 z m 0.72266,0 q 0,1.41015 0.32812,1.8789 0.33203,0.46485 0.81641,0.46485 0.48437,0 0.8125,-0.46875 0.33203,-0.46875 0.33203,-1.875 0,-1.41407 -0.33203,-1.87891 -0.32813,-0.46484 -0.82031,-0.46484 -0.48438,0 -0.77344,0.41015 -0.36328,0.52344 -0.36328,1.9336 z"
         style="font-size:8px;font-family:Arial;fill:#000000"
         id="path5549"
         inkscape:connector-curvature="0" />
      <path
         d="m 177.78313,208.30579 q 0,-1.01563 0.20703,-1.63282 0.21094,-0.62109 0.62109,-0.95703 0.41406,-0.33594 1.03906,-0.33594 0.46094,0 0.8086,0.1875 0.34765,0.1836 0.57422,0.53516 0.22656,0.34766 0.35547,0.85156 0.1289,0.5 0.1289,1.35157 0,1.00781 -0.20703,1.6289 -0.20703,0.61719 -0.62109,0.95703 -0.41016,0.33594 -1.03907,0.33594 -0.82812,0 -1.30078,-0.59375 -0.5664,-0.71484 -0.5664,-2.32812 z m 0.72265,0 q 0,1.41015 0.32813,1.8789 0.33203,0.46485 0.8164,0.46485 0.48438,0 0.8125,-0.46875 0.33204,-0.46875 0.33204,-1.875 0,-1.41407 -0.33204,-1.87891 -0.32812,-0.46484 -0.82031,-0.46484 -0.48437,0 -0.77344,0.41015 -0.36328,0.52344 -0.36328,1.9336 z"
         style="font-size:8px;font-family:Arial;fill:#000000"
         id="path5551"
         inkscape:connector-curvature="0" />
      <path
         d="m 184.65031,212.71985 v -5.73828 h 0.64063 v 0.53906 q 0.22656,-0.31641 0.51172,-0.47266 0.28515,-0.16015 0.6914,-0.16015 0.53125,0 0.9375,0.27343 0.40625,0.27344 0.61329,0.77344 0.20703,0.4961 0.20703,1.08985 0,0.63671 -0.23047,1.14843 -0.22656,0.50782 -0.66406,0.78125 -0.4336,0.26953 -0.91407,0.26953 -0.35156,0 -0.63281,-0.14843 -0.27734,-0.14844 -0.45703,-0.375 v 2.01953 z m 0.63672,-3.64063 q 0,0.80078 0.32422,1.1836 0.32422,0.38281 0.78516,0.38281 0.46875,0 0.80078,-0.39453 0.33594,-0.39844 0.33594,-1.23047 0,-0.79297 -0.32813,-1.1875 -0.32422,-0.39453 -0.77734,-0.39453 -0.44922,0 -0.79688,0.42187 -0.34375,0.41797 -0.34375,1.21875 z"
         style="font-size:8px;font-family:Arial;fill:#000000"
         id="path5553"
         inkscape:connector-curvature="0" />
      <path
         d="m 188.82219,209.89172 0.69531,-0.10937 q 0.0586,0.41797 0.32422,0.64062 0.26953,0.22266 0.75,0.22266 0.48438,0 0.71875,-0.19531 0.23438,-0.19922 0.23438,-0.46485 0,-0.23828 -0.20704,-0.375 -0.14453,-0.0937 -0.71875,-0.23828 -0.77343,-0.19531 -1.07421,-0.33594 -0.29688,-0.14453 -0.45313,-0.39453 -0.15234,-0.2539 -0.15234,-0.55859 0,-0.27734 0.125,-0.51172 0.1289,-0.23828 0.34765,-0.39453 0.16407,-0.12109 0.44532,-0.20313 0.28515,-0.0859 0.60937,-0.0859 0.48828,0 0.85547,0.14062 0.37109,0.14063 0.54687,0.38281 0.17579,0.23829 0.24219,0.64063 l -0.6875,0.0937 q -0.0469,-0.32031 -0.27344,-0.5 -0.22265,-0.17969 -0.63281,-0.17969 -0.48437,0 -0.6914,0.16016 -0.20704,0.16015 -0.20704,0.375 0,0.13672 0.0859,0.24609 0.0859,0.11328 0.26953,0.1875 0.10547,0.0391 0.6211,0.17969 0.74609,0.19922 1.03906,0.32812 0.29687,0.125 0.46484,0.36719 0.16797,0.24219 0.16797,0.60156 0,0.35157 -0.20703,0.66407 -0.20312,0.30859 -0.58984,0.48047 -0.38672,0.16796 -0.875,0.16796 -0.8086,0 -1.23438,-0.33593 -0.42187,-0.33594 -0.53906,-0.9961 z"
         style="font-size:8px;font-family:Arial;fill:#000000"
         id="path5555"
         inkscape:connector-curvature="0" />
      <path
         d="m 193.10735,206.21204 v -0.8086 h 0.70312 v 0.8086 z m 0,4.91796 v -4.14843 h 0.70312 V 211.13 Z"
         style="font-size:8px;font-family:Arial;fill:#000000"
         id="path5557"
         inkscape:connector-curvature="0" />
      <path
         d="m 195.34563,212.8136 h -0.50391 q 1.16797,-1.875 1.16797,-3.75391 0,-0.73437 -0.16797,-1.45703 -0.13281,-0.58594 -0.37109,-1.125 -0.15235,-0.35156 -0.62891,-1.17187 h 0.50391 q 0.73437,0.98046 1.08593,1.96875 0.30079,0.85156 0.30079,1.78125 0,1.05468 -0.40625,2.03906 -0.40235,0.98437 -0.98047,1.71875 z"
         style="font-size:8px;font-family:Arial;fill:#000000"
         id="path5559"
         inkscape:connector-curvature="0" />
    </g>
  </g>
  <g
     id="g468"
     transform="matrix(1.333333,0,0,1.333333,-50.80047,-52.609115)">
    <g
       aria-label="Na2CO3"
       style="text-anchor:start;text-rendering:geometricPrecision"
       id="text466">
      <path
         d="m 159.68938,191.63 v -5.72656 h 0.77734 l 3.00781,4.4961 v -4.4961 h 0.72657 V 191.63 h -0.77735 l -3.00781,-4.5 v 4.5 z"
         style="font-size:8px;font-family:Arial;fill:#000000"
         id="path5526"
         inkscape:connector-curvature="0" />
      <path
         d="m 168.09563,191.11829 q -0.39063,0.33203 -0.75391,0.46875 -0.35937,0.13671 -0.77344,0.13671 -0.68359,0 -1.05078,-0.33203 -0.36719,-0.33593 -0.36719,-0.85547 0,-0.30468 0.13672,-0.55468 0.14063,-0.25391 0.36328,-0.40625 0.22657,-0.15235 0.50782,-0.23047 0.20703,-0.0547 0.625,-0.10547 0.85156,-0.10156 1.2539,-0.24219 0.004,-0.14453 0.004,-0.18359 0,-0.42969 -0.19922,-0.60547 -0.26953,-0.23828 -0.80078,-0.23828 -0.49609,0 -0.73438,0.17578 -0.23437,0.17187 -0.34765,0.61328 l -0.6875,-0.0937 q 0.0937,-0.44141 0.30859,-0.71094 0.21485,-0.27343 0.6211,-0.41797 0.40625,-0.14843 0.9414,-0.14843 0.53125,0 0.86328,0.125 0.33203,0.125 0.48828,0.3164 0.15625,0.1875 0.21875,0.47657 0.0352,0.17968 0.0352,0.64843 v 0.9375 q 0,0.98047 0.043,1.24219 0.0469,0.25781 0.17969,0.49609 h -0.73438 q -0.10937,-0.21875 -0.14062,-0.51171 z m -0.0586,-1.57032 q -0.38281,0.15625 -1.14843,0.26563 -0.4336,0.0625 -0.61329,0.14062 -0.17968,0.0781 -0.27734,0.23047 -0.0977,0.14844 -0.0977,0.33203 0,0.28125 0.21094,0.46875 0.21485,0.1875 0.625,0.1875 0.40625,0 0.72266,-0.17578 0.3164,-0.17969 0.46484,-0.48828 0.11328,-0.23828 0.11328,-0.70312 z"
         style="font-size:8px;font-family:Arial;fill:#000000"
         id="path5528"
         inkscape:connector-curvature="0" />
      <path
         d="M 172.33488,192.93317 V 193.44 h -2.83886 q -0.006,-0.19042 0.0615,-0.36621 0.1084,-0.29004 0.3457,-0.57129 0.24024,-0.28125 0.69141,-0.65039 0.7002,-0.57421 0.94629,-0.9082 0.24609,-0.33691 0.24609,-0.63574 0,-0.31348 -0.22558,-0.52734 -0.22266,-0.2168 -0.58301,-0.2168 -0.38086,0 -0.60938,0.22851 -0.22851,0.22852 -0.23144,0.63282 l -0.54199,-0.0557 q 0.0557,-0.60644 0.41894,-0.92285 0.36328,-0.31934 0.97559,-0.31934 0.61816,0 0.97851,0.34278 0.36036,0.34277 0.36036,0.84961 0,0.25781 -0.10547,0.50683 -0.10547,0.24903 -0.35157,0.52442 -0.24316,0.27539 -0.81152,0.75586 -0.47461,0.39843 -0.60937,0.54199 -0.13477,0.14062 -0.22266,0.28418 z"
         style="font-size:6px;font-family:Arial;fill:#000000"
         id="path5530"
         inkscape:connector-curvature="0" />
      <path
         d="m 177.35735,189.62219 0.75781,0.19141 q -0.23828,0.93359 -0.85938,1.42578 -0.61718,0.48828 -1.51172,0.48828 -0.92578,0 -1.50781,-0.375 -0.57812,-0.37891 -0.88281,-1.09375 -0.30078,-0.71484 -0.30078,-1.53516 0,-0.89453 0.33984,-1.55859 0.34375,-0.66797 0.97266,-1.01172 0.63281,-0.34765 1.39062,-0.34765 0.85938,0 1.44532,0.4375 0.58593,0.4375 0.8164,1.23046 l -0.74609,0.17579 q -0.19922,-0.625 -0.57813,-0.91016 -0.3789,-0.28516 -0.95312,-0.28516 -0.66016,0 -1.10547,0.31641 -0.44141,0.31641 -0.62109,0.85156 -0.17969,0.53125 -0.17969,1.09766 0,0.73047 0.21094,1.27734 0.21484,0.54297 0.66406,0.8125 0.44922,0.26953 0.97265,0.26953 0.63672,0 1.07813,-0.36718 0.44141,-0.36719 0.59766,-1.08985 z"
         style="font-size:8px;font-family:Arial;fill:#000000"
         id="path5532"
         inkscape:connector-curvature="0" />
      <path
         d="m 178.82219,188.84094 q 0,-1.42578 0.76562,-2.23047 0.76563,-0.80859 1.97657,-0.80859 0.79297,0 1.42968,0.37891 0.63672,0.3789 0.96875,1.05859 0.33594,0.67578 0.33594,1.53516 0,0.87109 -0.35156,1.55859 -0.35156,0.6875 -0.99609,1.04297 -0.64454,0.35156 -1.39063,0.35156 -0.80859,0 -1.44531,-0.39062 -0.63672,-0.39063 -0.96485,-1.06641 -0.32812,-0.67578 -0.32812,-1.42969 z m 0.78125,0.0117 q 0,1.03516 0.55469,1.63281 0.55859,0.59375 1.39843,0.59375 0.85547,0 1.40625,-0.60156 0.55469,-0.60156 0.55469,-1.70703 0,-0.69922 -0.23828,-1.21875 -0.23437,-0.52344 -0.69141,-0.80859 -0.45312,-0.28907 -1.01953,-0.28907 -0.80468,0 -1.38672,0.55469 -0.57812,0.55078 -0.57812,1.84375 z"
         style="font-size:8px;font-family:Arial;fill:#000000"
         id="path5534"
         inkscape:connector-curvature="0" />
      <path
         d="m 184.90617,192.30622 0.52735,-0.0703 q 0.0908,0.44825 0.30761,0.64746 0.21973,0.19629 0.53321,0.19629 0.37207,0 0.62695,-0.25781 0.25781,-0.25781 0.25781,-0.63867 0,-0.36328 -0.2373,-0.59766 -0.23731,-0.2373 -0.60352,-0.2373 -0.14941,0 -0.37207,0.0586 l 0.0586,-0.46289 q 0.0527,0.006 0.085,0.006 0.33691,0 0.60644,-0.17578 0.26953,-0.17578 0.26953,-0.54199 0,-0.29004 -0.19629,-0.48047 -0.19628,-0.19043 -0.50683,-0.19043 -0.30762,0 -0.5127,0.19336 -0.20507,0.19336 -0.26367,0.58008 l -0.52734,-0.0937 q 0.0967,-0.53028 0.43945,-0.82032 0.34277,-0.29297 0.85254,-0.29297 0.35156,0 0.64746,0.15235 0.2959,0.14941 0.45117,0.41015 0.15821,0.26075 0.15821,0.55372 0,0.27832 -0.14942,0.50683 -0.14941,0.22852 -0.44238,0.36328 0.38086,0.0879 0.5918,0.36621 0.21093,0.27539 0.21093,0.69141 0,0.5625 -0.41015,0.95508 -0.41016,0.38965 -1.03711,0.38965 -0.56543,0 -0.94043,-0.33692 -0.37207,-0.33691 -0.42481,-0.87304 z"
         style="font-size:6px;font-family:Arial;fill:#000000"
         id="path5536"
         inkscape:connector-curvature="0" />
    </g>
  </g>
  <g
     id="g484"
     transform="matrix(1.333333,0,0,1.333333,-50.80047,-50.474384)">
    <g
       aria-label="Tf2O, DTBMP"
       style="text-anchor:start;text-rendering:geometricPrecision"
       id="text482">
      <path
         d="m 173.38422,121.88 v -5.05078 h -1.88672 v -0.67579 h 4.53906 v 0.67579 h -1.89453 V 121.88 Z"
         style="font-size:8px;font-family:Arial;fill:#000000"
         id="path5492"
         inkscape:connector-curvature="0" />
      <path
         d="m 176.89594,121.88 v -3.60157 h -0.6211 v -0.54687 h 0.6211 v -0.44141 q 0,-0.41797 0.0742,-0.62109 0.10157,-0.27344 0.35547,-0.44141 0.25782,-0.17187 0.71875,-0.17187 0.29688,0 0.65625,0.0703 l -0.10547,0.61328 q -0.21875,-0.0391 -0.41406,-0.0391 -0.32031,0 -0.45312,0.13672 -0.13282,0.13672 -0.13282,0.51172 v 0.38281 h 0.8086 v 0.54687 h -0.8086 V 121.88 Z"
         style="font-size:8px;font-family:Arial;fill:#000000"
         id="path5494"
         inkscape:connector-curvature="0" />
      <path
         d="M 181.43988,123.18316 V 123.69 h -2.83887 q -0.006,-0.19043 0.0615,-0.36621 0.1084,-0.29004 0.3457,-0.57129 0.24023,-0.28125 0.69141,-0.65039 0.70019,-0.57422 0.94629,-0.90821 0.24609,-0.33691 0.24609,-0.63574 0,-0.31348 -0.22559,-0.52734 -0.22265,-0.2168 -0.583,-0.2168 -0.38086,0 -0.60938,0.22852 -0.22852,0.22851 -0.23145,0.63281 l -0.54199,-0.0557 q 0.0557,-0.60644 0.41895,-0.92285 0.36328,-0.31933 0.97558,-0.31933 0.61817,0 0.97852,0.34277 0.36035,0.34277 0.36035,0.84961 0,0.25781 -0.10547,0.50684 -0.10547,0.24902 -0.35156,0.52441 -0.24316,0.27539 -0.81152,0.75586 -0.47461,0.39844 -0.60938,0.54199 -0.13476,0.14063 -0.22265,0.28418 z"
         style="font-size:6px;font-family:Arial;fill:#000000"
         id="path5496"
         inkscape:connector-curvature="0" />
      <path
         d="m 182.14594,119.09093 q 0,-1.42578 0.76562,-2.23046 0.76563,-0.8086 1.97656,-0.8086 0.79297,0 1.42969,0.37891 0.63672,0.3789 0.96875,1.05859 0.33594,0.67578 0.33594,1.53516 0,0.87109 -0.35156,1.55859 -0.35157,0.6875 -0.9961,1.04297 -0.64453,0.35156 -1.39062,0.35156 -0.8086,0 -1.44532,-0.39062 -0.63671,-0.39063 -0.96484,-1.06641 -0.32812,-0.67578 -0.32812,-1.42969 z m 0.78125,0.0117 q 0,1.03516 0.55468,1.63282 0.5586,0.59375 1.39844,0.59375 0.85547,0 1.40625,-0.60157 0.55469,-0.60156 0.55469,-1.70703 0,-0.69922 -0.23828,-1.21875 -0.23438,-0.52344 -0.69141,-0.80859 -0.45312,-0.28906 -1.01953,-0.28906 -0.80469,0 -1.38672,0.55468 -0.57812,0.55078 -0.57812,1.84375 z"
         style="font-size:8px;font-family:Arial;fill:#000000"
         id="path5498"
         inkscape:connector-curvature="0" />
      <path
         d="m 188.6889,121.88 v -0.80078 h 0.80079 V 121.88 q 0,0.4414 -0.15625,0.71093 -0.15625,0.27344 -0.4961,0.42188 l -0.19531,-0.30078 q 0.22266,-0.0977 0.32812,-0.28906 0.10547,-0.1875 0.11719,-0.54297 z"
         style="font-size:8px;font-family:Arial;fill:#000000"
         id="path5500"
         inkscape:connector-curvature="0" />
      <path
         d="m 193.03265,121.88 v -5.72657 h 1.97266 q 0.66797,0 1.01953,0.082 0.49219,0.11328 0.83985,0.41015 0.45312,0.38281 0.67578,0.98047 0.22656,0.59375 0.22656,1.35938 0,0.65234 -0.15234,1.15625 -0.15235,0.5039 -0.39063,0.83593 -0.23828,0.32813 -0.52344,0.51953 -0.28125,0.1875 -0.68359,0.28516 -0.39844,0.0977 -0.91797,0.0977 z m 0.75782,-0.67578 h 1.22265 q 0.56641,0 0.88672,-0.10547 0.32422,-0.10547 0.51563,-0.29688 0.26953,-0.26953 0.41797,-0.72265 0.15234,-0.45704 0.15234,-1.10547 0,-0.89844 -0.29688,-1.37891 -0.29296,-0.48437 -0.71484,-0.64844 -0.30469,-0.11718 -0.98047,-0.11718 h -1.20312 z"
         style="font-size:8px;font-family:Arial;fill:#000000"
         id="path5502"
         inkscape:connector-curvature="0" />
      <path
         d="m 200.27094,121.88 v -5.05078 h -1.88672 v -0.67579 h 4.53906 v 0.67579 h -1.89453 V 121.88 Z"
         style="font-size:8px;font-family:Arial;fill:#000000"
         id="path5504"
         inkscape:connector-curvature="0" />
      <path
         d="m 203.67328,121.88 v -5.72657 h 2.14844 q 0.65625,0 1.05078,0.17579 0.39844,0.17187 0.62109,0.53515 0.22656,0.35938 0.22656,0.75391 0,0.36719 -0.19921,0.6914 -0.19922,0.32422 -0.60157,0.52344 0.51953,0.15235 0.79688,0.51953 0.28125,0.36719 0.28125,0.86719 0,0.40234 -0.17188,0.75 -0.16797,0.34375 -0.41797,0.53125 -0.25,0.1875 -0.6289,0.28516 -0.375,0.0937 -0.92188,0.0937 z m 0.75781,-3.32032 h 1.23828 q 0.50391,0 0.72266,-0.0664 0.28906,-0.0859 0.43359,-0.28516 0.14844,-0.19922 0.14844,-0.5 0,-0.28515 -0.13672,-0.5 -0.13672,-0.21875 -0.39062,-0.29687 -0.25391,-0.082 -0.8711,-0.082 h -1.14453 z m 0,2.64454 h 1.42578 q 0.36719,0 0.51563,-0.0274 0.26172,-0.0469 0.4375,-0.15625 0.17578,-0.10937 0.28906,-0.3164 0.11328,-0.21094 0.11328,-0.48438 0,-0.32031 -0.16406,-0.55469 -0.16406,-0.23828 -0.45703,-0.33203 -0.28906,-0.0976 -0.83594,-0.0976 h -1.32422 z"
         style="font-size:8px;font-family:Arial;fill:#000000"
         id="path5506"
         inkscape:connector-curvature="0" />
      <path
         d="m 209.02484,121.88 v -5.72657 h 1.14063 l 1.35547,4.05469 q 0.1875,0.56641 0.27343,0.84766 0.0977,-0.3125 0.30469,-0.91797 l 1.37109,-3.98438 h 1.01954 V 121.88 h -0.73047 v -4.79297 l -1.66407,4.79297 h -0.68359 l -1.65625,-4.875 v 4.875 z"
         style="font-size:8px;font-family:Arial;fill:#000000"
         id="path5508"
         inkscape:connector-curvature="0" />
      <path
         d="m 215.72015,121.88 v -5.72657 h 2.16016 q 0.57031,0 0.87109,0.0547 0.42188,0.0703 0.70704,0.26953 0.28515,0.19532 0.45703,0.55078 0.17578,0.35547 0.17578,0.78125 0,0.73047 -0.46485,1.23829 -0.46484,0.5039 -1.67968,0.5039 h -1.46875 V 121.88 Z m 0.75782,-3.00391 h 1.48047 q 0.73437,0 1.04296,-0.27344 0.3086,-0.27343 0.3086,-0.76953 0,-0.35937 -0.1836,-0.61328 -0.17968,-0.25781 -0.47656,-0.33984 -0.1914,-0.0508 -0.70703,-0.0508 h -1.46484 z"
         style="font-size:8px;font-family:Arial;fill:#000000"
         id="path5510"
         inkscape:connector-curvature="0" />
    </g>
  </g>
  <g
     id="g427"
     transform="matrix(-1.33333,0,0,1.33333,285.41033,99.470558)">
    <path
       style="fill:#e69e00;stroke:#e69e00;stroke-width:0.1"
       d="m 119.4,67.029999 a 1.29,1.29 0 0 1 -1.29,1.29 1.29,1.29 0 0 1 -1.29,-1.29 1.29,1.29 0 0 1 1.29,-1.29 1.29,1.29 0 0 1 1.29,1.29 z"
       id="circle425"
       inkscape:connector-curvature="0" />
  </g>
  <path
     inkscape:connector-curvature="0"
     style="stroke:#e69e00;stroke-width:0.67999828;shape-rendering:auto"
     d="m 127.93072,160.21708 v 29.25325"
     id="line429" />
  <path
     inkscape:connector-curvature="0"
     style="stroke:#e69e00;stroke-width:0.67999828;shape-rendering:auto"
     d="M 127.93072,160.21708 H 36.608485"
     id="line431"
     sodipodi:nodetypes="cc" />
  <text
     xml:space="preserve"
     style="font-style:normal;font-variant:normal;font-weight:normal;font-stretch:normal;font-size:10.66666698px;line-height:1.25;font-family:Arial;-inkscape-font-specification:Arial;text-align:end;letter-spacing:0px;word-spacing:0px;text-anchor:end;fill:#000000;fill-opacity:1;stroke:none"
     x="39.552071"
     y="112.20078"
     id="text5705"><tspan
       sodipodi:role="line"
       id="tspan5703"
       x="39.552071"
       y="112.20078">4 etapy</tspan></text>
  <text
     xml:space="preserve"
     style="font-style:normal;font-variant:normal;font-weight:normal;font-stretch:normal;font-size:10.66666698px;line-height:1.25;font-family:Arial;-inkscape-font-specification:Arial;text-align:start;letter-spacing:0px;word-spacing:0px;text-anchor:start;fill:#000000;fill-opacity:1;stroke:none;"
     x="36.250103"
     y="214.81146"
     id="text5709"><tspan
       sodipodi:role="line"
       id="tspan5707"
       x="61.260521"
       y="214.81146"
       style="text-align:start;text-anchor:start;">1 : 20</tspan></text>
  <text
     xml:space="preserve"
     style="font-style:normal;font-variant:normal;font-weight:normal;font-stretch:normal;font-size:10.66666698px;line-height:1.25;font-family:Arial;-inkscape-font-specification:Arial;text-align:start;letter-spacing:0px;word-spacing:0px;text-anchor:start;fill:#e69e00;fill-opacity:1;stroke:none"
     x="37.033356"
     y="155.39909"
     id="text5713"><tspan
       sodipodi:role="line"
       id="tspan5711"
       x="37.033356"
       y="155.39909">($\pm$)-tasziromina</tspan></text>
  <text
     xml:space="preserve"
     style="font-style:normal;font-variant:normal;font-weight:normal;font-stretch:normal;font-size:10.66666698px;line-height:1.25;font-family:Arial;-inkscape-font-specification:Arial;text-align:start;letter-spacing:0px;word-spacing:0px;text-anchor:start;fill:#000000;fill-opacity:1;stroke:none"
     x="-12.603236"
     y="147.26318"
     id="text5717"><tspan
       sodipodi:role="line"
       id="tspan5715"
       x="-12.603236"
       y="147.26318">\cmpd{w:gamma-lactam}</tspan></text>
  <text
     xml:space="preserve"
     style="font-style:normal;font-variant:normal;font-weight:normal;font-stretch:normal;font-size:10.66666698px;line-height:1.25;font-family:Arial;-inkscape-font-specification:Arial;text-align:start;letter-spacing:0px;word-spacing:0px;text-anchor:start;fill:#000000;fill-opacity:1;stroke:none"
     x="160.9556"
     y="147.26318"
     id="text5717-2"><tspan
       sodipodi:role="line"
       id="tspan5715-7"
       x="160.9556"
       y="147.26318">\cmpd{w:tashiromine-sub}</tspan></text>
  <text
     xml:space="preserve"
     style="font-style:normal;font-variant:normal;font-weight:normal;font-stretch:normal;font-size:10.66666698px;line-height:1.25;font-family:Arial;-inkscape-font-specification:Arial;text-align:start;letter-spacing:0px;word-spacing:0px;text-anchor:start;fill:#000000;fill-opacity:1;stroke:none"
     x="284.26361"
     y="166.67822"
     id="text5717-6"><tspan
       sodipodi:role="line"
       id="tspan5715-9"
       x="284.26361"
       y="166.67822">\cmpd{w:tashiromine-iminium}</tspan></text>
  <text
     xml:space="preserve"
     style="font-style:normal;font-variant:normal;font-weight:normal;font-stretch:normal;font-size:10.66666698px;line-height:1.25;font-family:Arial;-inkscape-font-specification:Arial;text-align:start;letter-spacing:0px;word-spacing:0px;text-anchor:start;fill:#000000;fill-opacity:1;stroke:none"
     x="263.2262"
     y="238.55614"
     id="text5717-7"><tspan
       sodipodi:role="line"
       id="tspan5715-1"
       x="263.2262"
       y="238.55614">\cmpd{w:tashiromine-prod}, \SI{93}{\percent}</tspan></text>
  <text
     xml:space="preserve"
     style="font-style:normal;font-variant:normal;font-weight:normal;font-stretch:normal;font-size:10.66666698px;line-height:1.25;font-family:Arial;-inkscape-font-specification:Arial;text-align:start;letter-spacing:0px;word-spacing:0px;text-anchor:start;fill:#000000;fill-opacity:1;stroke:none"
     x="71.697876"
     y="238.55614"
     id="text5717-8"><tspan
       sodipodi:role="line"
       id="tspan5715-6"
       x="71.697876"
       y="238.55614">\cmpd{w:tashiromine}</tspan></text>
  <text
     xml:space="preserve"
     style="font-style:normal;font-variant:normal;font-weight:normal;font-stretch:normal;font-size:10.66666698px;line-height:1.25;font-family:Arial;-inkscape-font-specification:Arial;text-align:start;letter-spacing:0px;word-spacing:0px;text-anchor:start;fill:#000000;fill-opacity:1;stroke:none"
     x="-35.680695"
     y="238.55614"
     id="text5717-9"><tspan
       sodipodi:role="line"
       id="tspan5715-2"
       x="-35.680695"
       y="238.55614">\cmpd{w:epitashiromine}</tspan></text>
</svg>
