<?xml version="1.0" encoding="UTF-8" standalone="no"?>
<svg
   xmlns:dc="http://purl.org/dc/elements/1.1/"
   xmlns:cc="http://creativecommons.org/ns#"
   xmlns:rdf="http://www.w3.org/1999/02/22-rdf-syntax-ns#"
   xmlns:svg="http://www.w3.org/2000/svg"
   xmlns="http://www.w3.org/2000/svg"
   xmlns:sodipodi="http://sodipodi.sourceforge.net/DTD/sodipodi-0.dtd"
   xmlns:inkscape="http://www.inkscape.org/namespaces/inkscape"
   viewBox="2.49 31.07 295.18 71.09"
   preserveAspectRatio="xMidYMid"
   width="100%"
   height="100%"
   version="1.1"
   id="svg441"
   sodipodi:docname="triflic-secondary.svg"
   inkscape:version="0.92.3 (2405546, 2018-03-11)">
  <metadata
     id="metadata447">
    <rdf:RDF>
      <cc:Work
         rdf:about="">
        <dc:format>image/svg+xml</dc:format>
        <dc:type
           rdf:resource="http://purl.org/dc/dcmitype/StillImage" />
      </cc:Work>
    </rdf:RDF>
  </metadata>
  <defs
     id="defs445" />
  <sodipodi:namedview
     pagecolor="#ffffff"
     bordercolor="#666666"
     borderopacity="1"
     objecttolerance="10"
     gridtolerance="10"
     guidetolerance="10"
     inkscape:pageopacity="0"
     inkscape:pageshadow="2"
     inkscape:window-width="1920"
     inkscape:window-height="1017"
     id="namedview443"
     showgrid="false"
     inkscape:zoom="2.3240057"
     inkscape:cx="192.89071"
     inkscape:cy="34.123157"
     inkscape:window-x="-8"
     inkscape:window-y="-8"
     inkscape:window-maximized="1"
     inkscape:current-layer="svg441" />
  <clipPath
     id="9719">
    <rect
       x="0.255"
       y="0.255"
       width="302.74"
       height="769.29"
       id="rect2" />
  </clipPath>
  <g
     id="g13"
     transform="matrix(1.33333,0,0,1.33333,-50.026165,-22.204777)">
    <g
       aria-label="R1"
       style="text-anchor:end;text-rendering:geometricPrecision"
       id="text11">
      <path
         d="m 3.1478128,89.059998 v -5.726563 h 2.5390625 q 0.765625,0 1.1640625,0.15625 0.3984375,0.152344 0.6367188,0.542969 0.2382812,0.390625 0.2382812,0.863281 0,0.609375 -0.3945312,1.027344 -0.3945313,0.417969 -1.21875,0.53125 0.3007812,0.144531 0.4570312,0.285156 0.3320313,0.304688 0.6289063,0.761719 l 0.9960937,1.558594 H 7.2415628 L 6.4837503,87.868591 Q 6.1517191,87.352966 5.9368753,87.079529 5.7220316,86.806091 5.5501566,86.696716 5.3821878,86.587341 5.2064066,86.544373 5.0775003,86.517029 4.7845316,86.517029 H 3.9056253 v 2.542969 z m 0.7578125,-3.199219 h 1.6289063 q 0.5195312,0 0.8125,-0.105469 0.2929687,-0.109375 0.4453125,-0.34375 0.1523437,-0.238281 0.1523437,-0.515625 0,-0.40625 -0.296875,-0.667969 -0.2929687,-0.261718 -0.9296875,-0.261718 h -1.8125 z"
         style="font-size:8px;font-family:Arial;fill:#000000"
         id="path1238"
         inkscape:connector-curvature="0" />
      <path
         d="m 10.535508,85.799998 h -0.527344 v -3.360352 q -0.1904293,0.181641 -0.5009762,0.363281 -0.3076171,0.181641 -0.5537109,0.272461 v -0.509765 q 0.4423828,-0.208008 0.7734375,-0.503907 0.3310546,-0.295898 0.4687496,-0.574218 h 0.339844 z"
         style="font-size:6px;font-family:Arial;fill:#000000"
         id="path1240"
         inkscape:connector-curvature="0" />
    </g>
  </g>
  <g
     id="Solid"
     transform="matrix(1.33333,0,0,1.33333,-50.026165,-22.204777)">
    <path
       d="m 11.85,82.48 v 0 l -0.12,-0.22 -0.13,-0.23 3.76,-2.16 v 0.29 0.29 z"
       id="path15"
       inkscape:connector-curvature="0"
       style="fill:#000000;fill-rule:evenodd;stroke:#000000;stroke-width:0;stroke-linejoin:miter;shape-rendering:geometricPrecision" />
  </g>
  <g
     id="g24"
     transform="matrix(1.33333,0,0,1.33333,-50.026165,-22.204777)">
    <g
       aria-label="NH"
       style="text-anchor:start;text-rendering:geometricPrecision"
       id="text22">
      <path
         d="m 23.039375,89.059998 v -5.726563 h 0.777344 l 3.007813,4.496094 v -4.496094 h 0.726562 v 5.726563 H 26.77375 l -3.007812,-4.5 v 4.5 z"
         style="font-size:8px;font-family:Arial;fill:#009d73"
         id="path1233"
         inkscape:connector-curvature="0" />
      <path
         d="m 23.070625,97.059998 v -5.726563 h 0.757813 v 2.351563 H 26.805 v -2.351563 h 0.757813 v 5.726563 H 26.805 v -2.699219 h -2.976562 v 2.699219 z"
         style="font-size:8px;font-family:Arial;fill:#009d73"
         id="path1235"
         inkscape:connector-curvature="0" />
    </g>
  </g>
  <g
     id="g28"
     transform="matrix(1.33333,0,0,1.33333,-50.026165,-22.204777)">
    <path
       d="m 15.36,80.45 v 0 -0.29 -0.29 l 6.74,3.88 -0.13,0.22 -0.12,0.23 z"
       id="path26"
       inkscape:connector-curvature="0"
       style="fill:#009d73;fill-rule:evenodd;stroke:#009d73;stroke-width:0;stroke-linejoin:miter;shape-rendering:geometricPrecision" />
  </g>
  <g
     id="g34"
     transform="matrix(1.33333,0,0,1.33333,-50.026165,-22.204777)">
    <g
       aria-label="O"
       style="text-anchor:start;text-rendering:geometricPrecision"
       id="text32">
      <path
         d="m 12.646719,69.010941 q 0,-1.425782 0.765625,-2.230469 0.765625,-0.808594 1.976562,-0.808594 0.792969,0 1.429688,0.378906 0.636719,0.378907 0.96875,1.058594 0.335937,0.675781 0.335937,1.535156 0,0.871094 -0.351562,1.558594 -0.351563,0.6875 -0.996094,1.042969 -0.644531,0.351562 -1.390625,0.351562 -0.808594,0 -1.445312,-0.390625 -0.636719,-0.390625 -0.964844,-1.066406 -0.328125,-0.675781 -0.328125,-1.429687 z m 0.78125,0.01172 q 0,1.035157 0.554687,1.632813 0.558594,0.59375 1.398438,0.59375 0.855469,0 1.40625,-0.601563 0.554687,-0.601562 0.554687,-1.707031 0,-0.699219 -0.238281,-1.21875 -0.234375,-0.523437 -0.691406,-0.808594 -0.453125,-0.289062 -1.019531,-0.289062 -0.804688,0 -1.386719,0.554687 -0.578125,0.550782 -0.578125,1.84375 z"
         style="font-size:8px;font-family:Arial;fill:#009d73"
         id="path1230"
         inkscape:connector-curvature="0" />
    </g>
  </g>
  <g
     id="g42"
     transform="matrix(1.33333,0,0,1.33333,-50.026165,-22.204777)">
    <path
       style="stroke:#009d73;stroke-width:0.50999999;shape-rendering:auto"
       d="M 14.32,80.160004 V 73.199997"
       id="line36"
       inkscape:connector-curvature="0" />
    <path
       d="m 16.14,80.32 v 0 l 0.51,0.29 V 73.2 h -0.51 z"
       id="path38"
       inkscape:connector-curvature="0"
       style="fill:#009d73;fill-rule:evenodd;stroke:#009d73;stroke-width:0;stroke-linejoin:miter;shape-rendering:geometricPrecision" />
    <path
       d="m 14.07,80.61 v 0 l 0.51,-0.29 V 73.2 h -0.51 z"
       id="path40"
       inkscape:connector-curvature="0"
       style="fill:#009d73;fill-rule:evenodd;stroke:#009d73;stroke-width:0;stroke-linejoin:miter;shape-rendering:geometricPrecision" />
  </g>
  <g
     id="g50"
     transform="matrix(1.33333,0,0,1.33333,-50.026165,-22.204777)">
    <g
       aria-label="R2"
       style="text-anchor:start;text-rendering:geometricPrecision"
       id="text48">
      <path
         d="m 33.018906,83.309998 v -5.726563 h 2.539062 q 0.765625,0 1.164063,0.15625 0.398437,0.152344 0.636718,0.542969 0.238282,0.390625 0.238282,0.863281 0,0.609375 -0.394532,1.027344 -0.394531,0.417969 -1.21875,0.53125 0.300782,0.144531 0.457032,0.285156 0.332031,0.304688 0.628906,0.761719 l 0.996094,1.558594 h -0.953125 l -0.757813,-1.191407 q -0.332031,-0.515625 -0.546875,-0.789062 -0.214844,-0.273438 -0.386719,-0.382813 -0.167968,-0.109375 -0.34375,-0.152343 -0.128906,-0.02734 -0.421875,-0.02734 h -0.878906 v 2.542969 z m 0.757812,-3.199219 h 1.628906 q 0.519532,0 0.8125,-0.105469 0.292969,-0.109375 0.445313,-0.34375 0.152344,-0.238281 0.152344,-0.515625 0,-0.40625 -0.296875,-0.667969 -0.292969,-0.261718 -0.929688,-0.261718 h -1.8125 z"
         style="font-size:8px;font-family:Arial;fill:#000000"
         id="path1224"
         inkscape:connector-curvature="0" />
      <path
         d="m 41.191757,79.543162 v 0.506836 H 38.35289 q -0.0059,-0.19043 0.06152,-0.366211 0.108399,-0.290039 0.345704,-0.571289 0.240234,-0.28125 0.691406,-0.650391 0.700195,-0.574219 0.946289,-0.908203 0.246094,-0.336914 0.246094,-0.635742 0,-0.313477 -0.225586,-0.527344 -0.222657,-0.216797 -0.583008,-0.216797 -0.380859,0 -0.609375,0.228516 -0.228516,0.228515 -0.231445,0.632812 l -0.541993,-0.05566 q 0.05566,-0.606445 0.418946,-0.922851 0.363281,-0.319336 0.975586,-0.319336 0.618164,0 0.978515,0.342773 0.360352,0.342773 0.360352,0.849609 0,0.257813 -0.105469,0.506836 -0.105469,0.249024 -0.351562,0.524414 -0.243164,0.275391 -0.811524,0.75586 -0.474609,0.398437 -0.609375,0.541992 -0.134765,0.140625 -0.222656,0.28418 z"
         style="font-size:6px;font-family:Arial;fill:#000000"
         id="path1226"
         inkscape:connector-curvature="0" />
    </g>
  </g>
  <g
     id="g54"
     transform="matrix(1.33333,0,0,1.33333,-50.026165,-22.204777)">
    <path
       d="m 28.85,84.17 v 0 l -0.12,-0.22 -0.13,-0.22 3.25,-1.88 0.12,0.22 0.13,0.23 z"
       id="path52"
       inkscape:connector-curvature="0"
       style="fill:#000000;fill-rule:evenodd;stroke:#000000;stroke-width:0;stroke-linejoin:miter;shape-rendering:geometricPrecision" />
  </g>
  <g
     id="Arrow"
     transform="matrix(1.33333,0,0,1.33333,-50.026165,-22.204777)">
    <path
       style="stroke:#000000;stroke-width:0.50999999;shape-rendering:auto"
       d="M 78.860001,84.419998 H 47.939999"
       id="line56"
       inkscape:connector-curvature="0" />
    <path
       d="m 82.32,84.42 -5.1,-1.28 c 1.08,0.72 1.08,1.84 0,2.56 z"
       stroke-miterlimit="5.89496254687647"
       id="path58"
       inkscape:connector-curvature="0"
       style="fill:#000000;fill-rule:evenodd;stroke:#000000;stroke-width:0;stroke-linejoin:miter;stroke-miterlimit:5.89496231;shape-rendering:geometricPrecision" />
  </g>
  <g
     id="g65"
     transform="matrix(1.33333,0,0,1.33333,-50.026165,-22.204777)">
    <g
       aria-label="N"
       style="text-anchor:start;text-rendering:geometricPrecision"
       id="text63">
      <path
         d="m 53.789375,65.650002 v -5.726563 h 0.777344 l 3.007813,4.496094 v -4.496094 h 0.726562 v 5.726563 H 57.52375 l -3.007812,-4.5 v 4.5 z"
         style="font-size:8px;font-family:Arial;fill:#cc78a6"
         id="path1220"
         inkscape:connector-curvature="0" />
    </g>
  </g>
  <g
     id="g71"
     transform="matrix(1.33333,0,0,1.33333,-50.026165,-22.204777)">
    <path
       d="m 45.86,45.09 v 0 l 0.26,0.15 0.26,0.15 V 56.6 l -0.26,0.15 -0.26,0.15 z"
       id="path67"
       inkscape:connector-curvature="0"
       style="fill:#cc78a6;fill-rule:evenodd;stroke:#cc78a6;stroke-width:0;stroke-linejoin:miter;shape-rendering:geometricPrecision" />
    <path
       style="stroke:#cc78a6;stroke-width:0.50999999;shape-rendering:auto"
       d="m 48.189999,46.439999 v 9.11"
       id="line69"
       inkscape:connector-curvature="0" />
  </g>
  <g
     id="g75"
     transform="matrix(1.33333,0,0,1.33333,-50.026165,-22.204777)">
    <path
       d="m 45.86,56.9 v 0 l 0.26,-0.15 0.26,-0.15 6.42,3.71 -0.13,0.22 -0.12,0.22 z"
       id="path73"
       inkscape:connector-curvature="0"
       style="fill:#cc78a6;fill-rule:evenodd;stroke:#cc78a6;stroke-width:0;stroke-linejoin:miter;shape-rendering:geometricPrecision" />
  </g>
  <g
     id="g81"
     transform="matrix(1.33333,0,0,1.33333,-50.026165,-22.204777)">
    <path
       d="m 59.55,60.79 v 0 l -0.12,-0.22 -0.13,-0.22 6.5,-3.75 0.25,0.15 0.25,0.15 z"
       id="path77"
       inkscape:connector-curvature="0"
       style="fill:#cc78a6;fill-rule:evenodd;stroke:#cc78a6;stroke-width:0;stroke-linejoin:miter;shape-rendering:geometricPrecision" />
    <path
       style="stroke:#cc78a6;stroke-width:0.50999999;shape-rendering:auto"
       d="M 58.639999,59.200001 64.470001,55.84"
       id="line79"
       inkscape:connector-curvature="0" />
  </g>
  <g
     id="g85"
     transform="matrix(1.33333,0,0,1.33333,-50.026165,-22.204777)">
    <path
       d="m 66.3,56.9 v 0 L 66.05,56.75 65.8,56.6 V 45.39 l 0.25,-0.15 0.25,-0.15 z"
       id="path83"
       inkscape:connector-curvature="0"
       style="fill:#cc78a6;fill-rule:evenodd;stroke:#cc78a6;stroke-width:0;stroke-linejoin:miter;shape-rendering:geometricPrecision" />
  </g>
  <g
     id="g91"
     transform="matrix(1.33333,0,0,1.33333,-50.026165,-22.204777)">
    <path
       d="m 66.3,45.09 v 0 l -0.25,0.15 -0.25,0.15 -9.72,-5.62 v -0.29 -0.29 z"
       id="path87"
       inkscape:connector-curvature="0"
       style="fill:#cc78a6;fill-rule:evenodd;stroke:#cc78a6;stroke-width:0;stroke-linejoin:miter;shape-rendering:geometricPrecision" />
    <path
       style="stroke:#cc78a6;stroke-width:0.50999999;shape-rendering:auto"
       d="m 63.98,46.439999 -7.899998,-4.57"
       id="line89"
       inkscape:connector-curvature="0" />
  </g>
  <g
     id="g95"
     transform="matrix(1.33333,0,0,1.33333,-50.026165,-22.204777)">
    <path
       d="m 56.08,39.19 v 0 0.29 0.29 l -9.7,5.62 -0.26,-0.15 -0.26,-0.15 z"
       id="path93"
       inkscape:connector-curvature="0"
       style="fill:#cc78a6;fill-rule:evenodd;stroke:#cc78a6;stroke-width:0;stroke-linejoin:miter;shape-rendering:geometricPrecision" />
  </g>
  <g
     id="g101"
     transform="matrix(1.33333,0,0,1.33333,-50.026165,-22.204777)">
    <g
       aria-label="Tf"
       style="text-anchor:start;text-rendering:geometricPrecision"
       id="text99">
      <path
         d="m 55.70422,77.160004 v -5.050782 h -1.886719 v -0.675781 h 4.539063 v 0.675781 h -1.894532 v 5.050782 z"
         style="font-size:8px;font-family:Arial;fill:#cc78a6"
         id="path1212"
         inkscape:connector-curvature="0" />
      <path
         d="m 59.215939,77.160004 v -3.601563 h -0.621094 v -0.546875 h 0.621094 V 72.57016 q 0,-0.417969 0.07422,-0.621094 0.101563,-0.273437 0.355469,-0.441406 0.257813,-0.171875 0.71875,-0.171875 0.296875,0 0.65625,0.07031 l -0.105469,0.613282 q -0.21875,-0.03906 -0.414062,-0.03906 -0.320313,0 -0.453125,0.136719 -0.132813,0.136719 -0.132813,0.511719 v 0.382812 h 0.808594 v 0.546875 h -0.808594 v 3.601563 z"
         style="font-size:8px;font-family:Arial;fill:#cc78a6"
         id="path1214"
         inkscape:connector-curvature="0" />
    </g>
  </g>
  <g
     id="g105"
     transform="matrix(1.33333,0,0,1.33333,-50.026165,-22.204777)">
    <path
       d="m 55.83,65.2 v 0 h 0.25 0.26 v 5 h -0.26 -0.25 z"
       id="path103"
       inkscape:connector-curvature="0"
       style="fill:#cc78a6;fill-rule:evenodd;stroke:#cc78a6;stroke-width:0;stroke-linejoin:miter;shape-rendering:geometricPrecision" />
  </g>
  <g
     id="Charge9338"
     transform="matrix(1.33333,0,0,1.33333,-50.026165,-22.204777)">
    <path
       style="fill:none;stroke:#cc78a6;stroke-width:0.40799999"
       d="M 51.236666,65.300003 A 2.6666667,2.6666667 0 0 1 48.57,67.96667 2.6666667,2.6666667 0 0 1 45.903333,65.300003 2.6666667,2.6666667 0 0 1 48.57,62.633336 a 2.6666667,2.6666667 0 0 1 2.666666,2.666667 z"
       id="circle107"
       inkscape:connector-curvature="0" />
    <path
       style="stroke:#cc78a6;stroke-width:0.40799999;shape-rendering:auto"
       d="m 46.98,65.300003 h 3.18"
       id="line109"
       inkscape:connector-curvature="0" />
    <path
       style="stroke:#cc78a6;stroke-width:0.40799999;shape-rendering:auto"
       d="m 48.57,63.709999 v 3.18"
       id="line111"
       inkscape:connector-curvature="0" />
  </g>
  <g
     id="g118"
     transform="matrix(1.33333,0,0,1.33333,-50.026165,-22.204777)">
    <g
       aria-label="OTf"
       style="text-anchor:start;text-rendering:geometricPrecision"
       id="text116">
      <path
         d="m 69.566719,73.300934 q 0,-1.425781 0.765625,-2.230469 0.765625,-0.808594 1.976563,-0.808594 0.792968,0 1.429687,0.378907 0.636719,0.378906 0.96875,1.058593 0.335938,0.675782 0.335938,1.535157 0,0.871093 -0.351563,1.558593 -0.351562,0.6875 -0.996094,1.042969 -0.644531,0.351563 -1.390625,0.351563 -0.808593,0 -1.445312,-0.390625 -0.636719,-0.390625 -0.964844,-1.066407 -0.328125,-0.675781 -0.328125,-1.429687 z m 0.78125,0.01172 q 0,1.035156 0.554688,1.632812 0.558593,0.59375 1.398437,0.59375 0.855469,0 1.40625,-0.601562 0.554688,-0.601563 0.554688,-1.707032 0,-0.699218 -0.238282,-1.21875 -0.234375,-0.523437 -0.691406,-0.808593 -0.453125,-0.289063 -1.019531,-0.289063 -0.804688,0 -1.386719,0.554688 -0.578125,0.550781 -0.578125,1.84375 z"
         style="font-size:8px;font-family:Arial;fill:#cc78a6"
         id="path1202"
         inkscape:connector-curvature="0" />
      <path
         d="M 77.472969,76.089996 V 71.039215 H 75.58625 v -0.675781 h 4.539063 v 0.675781 h -1.894531 v 5.050781 z"
         style="font-size:8px;font-family:Arial;fill:#cc78a6"
         id="path1204"
         inkscape:connector-curvature="0" />
      <path
         d="m 80.984688,76.089996 v -3.601562 h -0.621094 v -0.546875 h 0.621094 v -0.441406 q 0,-0.417969 0.07422,-0.621094 0.101562,-0.273438 0.355468,-0.441406 0.257813,-0.171875 0.71875,-0.171875 0.296875,0 0.65625,0.07031 l -0.105468,0.613281 q -0.21875,-0.03906 -0.414063,-0.03906 -0.320312,0 -0.453125,0.136719 -0.132812,0.136718 -0.132812,0.511718 v 0.382813 H 82.4925 v 0.546875 h -0.808593 v 3.601562 z"
         style="font-size:8px;font-family:Arial;fill:#cc78a6"
         id="path1206"
         inkscape:connector-curvature="0" />
    </g>
  </g>
  <g
     id="Charge9342"
     transform="matrix(1.33333,0,0,1.33333,-50.026165,-22.204777)">
    <path
       style="fill:none;stroke:#cc78a6;stroke-width:0.40799999"
       d="M 69.196666,67.32 A 2.6666667,2.6666667 0 0 1 66.529999,69.986666 2.6666667,2.6666667 0 0 1 63.863332,67.32 2.6666667,2.6666667 0 0 1 66.529999,64.653333 2.6666667,2.6666667 0 0 1 69.196666,67.32 Z"
       id="circle120"
       inkscape:connector-curvature="0" />
    <path
       style="stroke:#cc78a6;stroke-width:0.40799999;shape-rendering:auto"
       d="m 64.940002,67.32 h 3.180001"
       id="line122"
       inkscape:connector-curvature="0" />
  </g>
  <g
     id="g131"
     transform="matrix(1.33333,0,0,1.33333,-50.026165,-22.204777)">
    <g
       aria-label="R1"
       style="text-anchor:end;text-rendering:geometricPrecision"
       id="text129">
      <path
         d="m 88.277809,89.059998 v -5.726563 h 2.539063 q 0.765625,0 1.164062,0.15625 0.398438,0.152344 0.636719,0.542969 0.238281,0.390625 0.238281,0.863281 0,0.609375 -0.394531,1.027344 -0.394531,0.417969 -1.21875,0.53125 0.300781,0.144531 0.457031,0.285156 0.332031,0.304688 0.628906,0.761719 l 0.996094,1.558594 h -0.953125 l -0.757812,-1.191407 q -0.332032,-0.515625 -0.546875,-0.789062 -0.214844,-0.273438 -0.386719,-0.382813 -0.167969,-0.109375 -0.34375,-0.152343 -0.128906,-0.02734 -0.421875,-0.02734 h -0.878906 v 2.542969 z m 0.757813,-3.199219 h 1.628906 q 0.519531,0 0.8125,-0.105469 0.292969,-0.109375 0.445312,-0.34375 0.152344,-0.238281 0.152344,-0.515625 0,-0.40625 -0.296875,-0.667969 -0.292969,-0.261718 -0.929687,-0.261718 h -1.8125 z"
         style="font-size:8px;font-family:Arial;fill:#000000"
         id="path1195"
         inkscape:connector-curvature="0" />
      <path
         d="m 95.665504,85.799998 h -0.527343 v -3.360352 q -0.19043,0.181641 -0.500977,0.363281 -0.307617,0.181641 -0.553711,0.272461 v -0.509765 q 0.442383,-0.208008 0.773438,-0.503907 0.331054,-0.295898 0.46875,-0.574218 h 0.339843 z"
         style="font-size:6px;font-family:Arial;fill:#000000"
         id="path1197"
         inkscape:connector-curvature="0" />
    </g>
  </g>
  <g
     id="g135"
     transform="matrix(1.33333,0,0,1.33333,-50.026165,-22.204777)">
    <path
       d="m 96.95,82.49 v 0 l -0.12,-0.22 -0.13,-0.22 3.54,-2.04 0.25,0.15 v 0.29 z"
       id="path133"
       inkscape:connector-curvature="0"
       style="fill:#000000;fill-rule:evenodd;stroke:#000000;stroke-width:0;stroke-linejoin:miter;shape-rendering:geometricPrecision" />
  </g>
  <g
     id="g143"
     transform="matrix(1.33333,0,0,1.33333,-50.026165,-22.204777)">
    <g
       aria-label="NH"
       style="text-anchor:start;text-rendering:geometricPrecision"
       id="text141">
      <path
         d="m 108.15938,89.059998 v -5.726563 h 0.77734 l 3.00781,4.496094 v -4.496094 h 0.72657 v 5.726563 h -0.77735 l -3.00781,-4.5 v 4.5 z"
         style="font-size:8px;font-family:Arial;fill:#009d73"
         id="path1190"
         inkscape:connector-curvature="0" />
      <path
         d="m 108.19063,97.059998 v -5.726563 h 0.75781 v 2.351563 h 2.97656 v -2.351563 h 0.75782 v 5.726563 H 111.925 v -2.699219 h -2.97656 v 2.699219 z"
         style="font-size:8px;font-family:Arial;fill:#009d73"
         id="path1192"
         inkscape:connector-curvature="0" />
    </g>
  </g>
  <g
     id="g149"
     transform="matrix(1.33333,0,0,1.33333,-50.026165,-22.204777)">
    <path
       d="m 100.49,80.45 v 0 -0.29 l 0.26,-0.15 6.45,3.73 -0.13,0.22 -0.12,0.22 z"
       id="path145"
       inkscape:connector-curvature="0"
       style="fill:#009d73;fill-rule:evenodd;stroke:#009d73;stroke-width:0;stroke-linejoin:miter;shape-rendering:geometricPrecision" />
    <path
       style="stroke:#009d73;stroke-width:0.50999999;shape-rendering:auto"
       d="m 102.56,78.959999 5.55,3.209999"
       id="line147"
       inkscape:connector-curvature="0" />
  </g>
  <g
     id="g153"
     transform="matrix(1.33333,0,0,1.33333,-50.026165,-22.204777)">
    <path
       d="m 100.75,80.01 v 0 l -0.26,0.15 -0.25,-0.15 V 73.2 h 0.25 0.26 z"
       id="path151"
       inkscape:connector-curvature="0"
       style="fill:#009d73;fill-rule:evenodd;stroke:#009d73;stroke-width:0;stroke-linejoin:miter;shape-rendering:geometricPrecision" />
  </g>
  <g
     id="g161"
     transform="matrix(1.33333,0,0,1.33333,-50.026165,-22.204777)">
    <g
       aria-label="OTf"
       style="text-anchor:start;text-rendering:geometricPrecision"
       id="text159">
      <path
         d="m 97.776718,69.010941 q 0,-1.425782 0.765625,-2.230469 0.765625,-0.808594 1.976567,-0.808594 0.79296,0 1.42968,0.378906 0.63672,0.378907 0.96875,1.058594 0.33594,0.675781 0.33594,1.535156 0,0.871094 -0.35156,1.558594 -0.35156,0.6875 -0.9961,1.042969 -0.64453,0.351562 -1.39062,0.351562 -0.808594,0 -1.445313,-0.390625 -0.636719,-0.390625 -0.964844,-1.066406 -0.328125,-0.675781 -0.328125,-1.429687 z m 0.78125,0.01172 q 0,1.035157 0.554688,1.632813 0.558593,0.59375 1.398434,0.59375 0.85547,0 1.40625,-0.601563 0.55469,-0.601562 0.55469,-1.707031 0,-0.699219 -0.23828,-1.21875 -0.23438,-0.523437 -0.69141,-0.808594 -0.45312,-0.289062 -1.01953,-0.289062 -0.804686,0 -1.386717,0.554687 -0.578125,0.550782 -0.578125,1.84375 z"
         style="font-size:8px;font-family:Arial;fill:#009d73"
         id="path1182"
         inkscape:connector-curvature="0" />
      <path
         d="m 105.68297,71.800003 v -5.050781 h -1.88672 v -0.675781 h 4.53906 v 0.675781 h -1.89453 v 5.050781 z"
         style="font-size:8px;font-family:Arial;fill:#cc78a6"
         id="path1184"
         inkscape:connector-curvature="0" />
      <path
         d="m 109.19469,71.800003 v -3.601562 h -0.6211 v -0.546875 h 0.6211 v -0.441407 q 0,-0.417968 0.0742,-0.621093 0.10156,-0.273438 0.35546,-0.441407 0.25782,-0.171875 0.71875,-0.171875 0.29688,0 0.65625,0.07031 l -0.10546,0.613281 q -0.21875,-0.03906 -0.41407,-0.03906 -0.32031,0 -0.45312,0.136718 -0.13281,0.136719 -0.13281,0.511719 v 0.382813 h 0.80859 v 0.546875 h -0.80859 v 3.601562 z"
         style="font-size:8px;font-family:Arial;fill:#cc78a6"
         id="path1186"
         inkscape:connector-curvature="0" />
    </g>
  </g>
  <g
     id="g169"
     transform="matrix(1.33333,0,0,1.33333,-50.026165,-22.204777)">
    <g
       aria-label="R2"
       style="text-anchor:start;text-rendering:geometricPrecision"
       id="text167">
      <path
         d="m 118.1489,83.309998 v -5.726563 h 2.53907 q 0.76562,0 1.16406,0.15625 0.39844,0.152344 0.63672,0.542969 0.23828,0.390625 0.23828,0.863281 0,0.609375 -0.39453,1.027344 -0.39453,0.417969 -1.21875,0.53125 0.30078,0.144531 0.45703,0.285156 0.33203,0.304688 0.6289,0.761719 l 0.9961,1.558594 h -0.95313 l -0.75781,-1.191407 q -0.33203,-0.515625 -0.54687,-0.789062 -0.21485,-0.273438 -0.38672,-0.382813 -0.16797,-0.109375 -0.34375,-0.152343 -0.12891,-0.02734 -0.42188,-0.02734 h -0.8789 v 2.542969 z m 0.75782,-3.199219 h 1.6289 q 0.51953,0 0.8125,-0.105469 0.29297,-0.109375 0.44531,-0.34375 0.15235,-0.238281 0.15235,-0.515625 0,-0.40625 -0.29688,-0.667969 -0.29297,-0.261718 -0.92968,-0.261718 h -1.8125 z"
         style="font-size:8px;font-family:Arial;fill:#000000"
         id="path1177"
         inkscape:connector-curvature="0" />
      <path
         d="m 126.32175,79.543162 v 0.506836 h -2.83886 q -0.006,-0.19043 0.0615,-0.366211 0.1084,-0.290039 0.3457,-0.571289 0.24024,-0.28125 0.69141,-0.650391 0.7002,-0.574219 0.94629,-0.908203 0.24609,-0.336914 0.24609,-0.635742 0,-0.313477 -0.22558,-0.527344 -0.22266,-0.216797 -0.58301,-0.216797 -0.38086,0 -0.60938,0.228516 -0.22851,0.228515 -0.23144,0.632812 l -0.54199,-0.05566 q 0.0557,-0.606445 0.41894,-0.922851 0.36328,-0.319336 0.97559,-0.319336 0.61816,0 0.97851,0.342773 0.36036,0.342773 0.36036,0.849609 0,0.257813 -0.10547,0.506836 -0.10547,0.249024 -0.35157,0.524414 -0.24316,0.275391 -0.81152,0.75586 -0.47461,0.398437 -0.60937,0.541992 -0.13477,0.140625 -0.22266,0.28418 z"
         style="font-size:6px;font-family:Arial;fill:#000000"
         id="path1179"
         inkscape:connector-curvature="0" />
    </g>
  </g>
  <g
     id="g173"
     transform="matrix(1.33333,0,0,1.33333,-50.026165,-22.204777)">
    <path
       d="m 113.95,84.18 v 0 l -0.12,-0.22 -0.13,-0.22 3.25,-1.87 0.12,0.22 0.13,0.22 z"
       id="path171"
       inkscape:connector-curvature="0"
       style="fill:#000000;fill-rule:evenodd;stroke:#000000;stroke-width:0;stroke-linejoin:miter;shape-rendering:geometricPrecision" />
  </g>
  <g
     id="Charge9353"
     transform="matrix(1.33333,0,0,1.33333,-50.026165,-22.204777)">
    <path
       style="fill:none;stroke:#009d73;stroke-width:0.40799999"
       d="m 114.42667,78.459999 a 2.6666667,2.6666667 0 0 1 -2.66667,2.666667 2.6666667,2.6666667 0 0 1 -2.66666,-2.666667 2.6666667,2.6666667 0 0 1 2.66666,-2.666667 2.6666667,2.6666667 0 0 1 2.66667,2.666667 z"
       id="circle175"
       inkscape:connector-curvature="0" />
    <path
       style="stroke:#009d73;stroke-width:0.40799999;shape-rendering:auto"
       d="m 110.17,78.459999 h 3.18"
       id="line177"
       inkscape:connector-curvature="0" />
    <path
       style="stroke:#009d73;stroke-width:0.40799999;shape-rendering:auto"
       d="m 111.76,76.870003 v 3.18"
       id="line179"
       inkscape:connector-curvature="0" />
  </g>
  <g
     id="g186"
     transform="matrix(1.33333,0,0,1.33333,-50.026165,-22.204777)">
    <g
       aria-label="OTf"
       style="text-anchor:start;text-rendering:geometricPrecision"
       id="text184">
      <path
         d="m 123.56672,96.180939 q 0,-1.425782 0.76562,-2.230469 0.76563,-0.808594 1.97657,-0.808594 0.79297,0 1.42968,0.378906 0.63672,0.378907 0.96875,1.058594 0.33594,0.675781 0.33594,1.535156 0,0.871094 -0.35156,1.558594 -0.35156,0.6875 -0.99609,1.042969 -0.64454,0.351562 -1.39063,0.351562 -0.80859,0 -1.44531,-0.390625 -0.63672,-0.390625 -0.96485,-1.066406 -0.32812,-0.675781 -0.32812,-1.429687 z m 0.78125,0.01172 q 0,1.035157 0.55469,1.632813 0.55859,0.59375 1.39843,0.59375 0.85547,0 1.40625,-0.601563 0.55469,-0.601562 0.55469,-1.707031 0,-0.699219 -0.23828,-1.21875 -0.23437,-0.523437 -0.69141,-0.808594 -0.45312,-0.289062 -1.01953,-0.289062 -0.80468,0 -1.38672,0.554687 -0.57812,0.550782 -0.57812,1.84375 z"
         style="font-size:8px;font-family:Arial;fill:#cc78a6"
         id="path1167"
         inkscape:connector-curvature="0" />
      <path
         d="M 131.47297,98.970001 V 93.91922 h -1.88672 v -0.675781 h 4.53906 v 0.675781 h -1.89453 v 5.050781 z"
         style="font-size:8px;font-family:Arial;fill:#cc78a6"
         id="path1169"
         inkscape:connector-curvature="0" />
      <path
         d="m 134.98469,98.970001 v -3.601562 h -0.6211 v -0.546875 h 0.6211 v -0.441407 q 0,-0.417968 0.0742,-0.621093 0.10156,-0.273438 0.35547,-0.441407 0.25781,-0.171875 0.71875,-0.171875 0.29687,0 0.65625,0.07031 l -0.10547,0.613281 q -0.21875,-0.03906 -0.41407,-0.03906 -0.32031,0 -0.45312,0.136718 -0.13281,0.136719 -0.13281,0.511719 v 0.382813 h 0.80859 v 0.546875 h -0.80859 V 98.97 Z"
         style="font-size:8px;font-family:Arial;fill:#cc78a6"
         id="path1171"
         inkscape:connector-curvature="0" />
    </g>
  </g>
  <g
     id="Charge9372"
     transform="matrix(1.33333,0,0,1.33333,-50.026165,-22.204777)">
    <path
       style="fill:none;stroke:#cc78a6;stroke-width:0.40799999"
       d="m 123.19667,90.190002 a 2.6666667,2.6666667 0 0 1 -2.66667,2.666667 2.6666667,2.6666667 0 0 1 -2.66667,-2.666667 2.6666667,2.6666667 0 0 1 2.66667,-2.666666 2.6666667,2.6666667 0 0 1 2.66667,2.666666 z"
       id="circle188"
       inkscape:connector-curvature="0" />
    <path
       style="stroke:#cc78a6;stroke-width:0.40799999;shape-rendering:auto"
       d="m 118.94,90.190002 h 3.18"
       id="line190"
       inkscape:connector-curvature="0" />
  </g>
  <g
     id="g197"
     transform="matrix(1.33333,0,0,1.33333,-50.026165,-22.204777)">
    <path
       style="stroke:#000000;stroke-width:0.50999999;shape-rendering:auto"
       d="M 166.61,84.419998 H 143.60001"
       id="line193"
       inkscape:connector-curvature="0" />
    <path
       d="m 170.07,84.42 -5.1,-1.28 c 1.07,0.72 1.07,1.84 0,2.56 z"
       stroke-miterlimit="5.89496254687639"
       id="path195"
       inkscape:connector-curvature="0"
       style="fill:#000000;fill-rule:evenodd;stroke:#000000;stroke-width:0;stroke-linejoin:miter;stroke-miterlimit:5.89496231;shape-rendering:geometricPrecision" />
  </g>
  <g
     id="g205"
     transform="matrix(1.33333,0,0,1.33333,-50.026165,-22.204777)">
    <g
       aria-label="R1"
       style="text-anchor:end;text-rendering:geometricPrecision"
       id="text203">
      <path
         d="m 172.66782,75.309998 v -5.726563 h 2.53906 q 0.76562,0 1.16406,0.15625 0.39844,0.152344 0.63672,0.542969 0.23828,0.390625 0.23828,0.863281 0,0.609375 -0.39453,1.027344 -0.39453,0.417969 -1.21875,0.53125 0.30078,0.144531 0.45703,0.285156 0.33203,0.304688 0.62891,0.761719 l 0.99609,1.558594 h -0.95312 l -0.75782,-1.191407 q -0.33203,-0.515625 -0.54687,-0.789062 -0.21485,-0.273438 -0.38672,-0.382813 -0.16797,-0.109375 -0.34375,-0.152343 -0.12891,-0.02734 -0.42188,-0.02734 h -0.8789 v 2.542969 z m 0.75781,-3.199219 h 1.6289 q 0.51954,0 0.8125,-0.105469 0.29297,-0.109375 0.44532,-0.34375 0.15234,-0.238281 0.15234,-0.515625 0,-0.40625 -0.29687,-0.667969 -0.29297,-0.261718 -0.92969,-0.261718 h -1.8125 z"
         style="font-size:8px;font-family:Arial;fill:#000000"
         id="path1159"
         inkscape:connector-curvature="0" />
      <path
         d="m 180.05551,72.049998 h -0.52734 v -3.360352 q -0.19043,0.181641 -0.50098,0.363281 -0.30762,0.181641 -0.55371,0.272461 v -0.509765 q 0.44238,-0.208008 0.77344,-0.503907 0.33105,-0.295898 0.46875,-0.574218 h 0.33984 z"
         style="font-size:6px;font-family:Arial;fill:#000000"
         id="path1161"
         inkscape:connector-curvature="0" />
    </g>
  </g>
  <g
     id="g209"
     transform="matrix(1.33333,0,0,1.33333,-50.026165,-22.204777)">
    <path
       d="m 177.3,73.83 v 0 l 0.13,-0.22 0.12,-0.22 7.44,4.3 -0.13,0.22 -0.13,0.22 z"
       id="path207"
       inkscape:connector-curvature="0"
       style="fill:#000000;fill-rule:evenodd;stroke:#000000;stroke-width:0;stroke-linejoin:miter;shape-rendering:geometricPrecision" />
  </g>
  <g
     id="g215"
     transform="matrix(1.33333,0,0,1.33333,-50.026165,-22.204777)">
    <g
       aria-label="N"
       style="text-anchor:start;text-rendering:geometricPrecision"
       id="text213">
      <path
         d="m 192.52937,86.809998 v -5.726563 h 0.77735 l 3.00781,4.496094 v -4.496094 h 0.72656 v 5.726563 h -0.77734 l -3.00781,-4.5 v 4.5 z"
         style="font-size:8px;font-family:Arial;fill:#009d73"
         id="path1156"
         inkscape:connector-curvature="0" />
    </g>
  </g>
  <g
     id="g223"
     transform="matrix(1.33333,0,0,1.33333,-50.026165,-22.204777)">
    <path
       d="m 184.73,78.13 v 0 l 0.13,-0.22 0.13,-0.22 6.61,3.82 -0.13,0.22 -0.12,0.22 z"
       id="path217"
       inkscape:connector-curvature="0"
       style="fill:#009d73;fill-rule:evenodd;stroke:#009d73;stroke-width:0;stroke-linejoin:miter;shape-rendering:geometricPrecision" />
    <path
       style="stroke:#009d73;stroke-width:0.50999999;shape-rendering:auto"
       d="m 183.83,79.699997 6.61,3.82"
       id="line219"
       inkscape:connector-curvature="0" />
    <path
       style="stroke:#009d73;stroke-width:0.50999999;shape-rendering:auto"
       d="m 185.89,76.120003 6.61999,3.819999"
       id="line221"
       inkscape:connector-curvature="0" />
  </g>
  <g
     id="g231"
     transform="matrix(1.33333,0,0,1.33333,-50.026165,-22.204777)">
    <g
       aria-label="R2"
       style="text-anchor:start;text-rendering:geometricPrecision"
       id="text229">
      <path
         d="m 202.50891,92.559998 v -5.726563 h 2.53906 q 0.76563,0 1.16407,0.15625 0.39843,0.152344 0.63671,0.542969 0.23829,0.390625 0.23829,0.863281 0,0.609375 -0.39454,1.027344 -0.39453,0.417969 -1.21875,0.53125 0.30079,0.144531 0.45704,0.285156 0.33203,0.304688 0.6289,0.761719 l 0.9961,1.558594 h -0.95313 l -0.75781,-1.191407 q -0.33203,-0.515625 -0.54688,-0.789062 -0.21484,-0.273438 -0.38672,-0.382813 -0.16796,-0.109375 -0.34375,-0.152343 -0.1289,-0.02734 -0.42187,-0.02734 h -0.87891 v 2.542969 z m 0.75781,-3.199219 h 1.62891 q 0.51953,0 0.8125,-0.105469 0.29297,-0.109375 0.44531,-0.34375 0.15235,-0.238281 0.15235,-0.515625 0,-0.40625 -0.29688,-0.667969 -0.29297,-0.261718 -0.92969,-0.261718 h -1.8125 z"
         style="font-size:8px;font-family:Arial;fill:#000000"
         id="path1149"
         inkscape:connector-curvature="0" />
      <path
         d="m 210.68176,88.793162 v 0.506836 h -2.83886 q -0.006,-0.19043 0.0615,-0.366211 0.1084,-0.290039 0.3457,-0.571289 0.24024,-0.28125 0.69141,-0.650391 0.70019,-0.574219 0.94629,-0.908203 0.24609,-0.336914 0.24609,-0.635742 0,-0.313477 -0.22558,-0.527344 -0.22266,-0.216797 -0.58301,-0.216797 -0.38086,0 -0.60938,0.228516 -0.22851,0.228515 -0.23144,0.632812 l -0.542,-0.05566 q 0.0557,-0.606445 0.41895,-0.922851 0.36328,-0.319336 0.97559,-0.319336 0.61816,0 0.97851,0.342773 0.36035,0.342773 0.36035,0.849609 0,0.257813 -0.10547,0.506836 -0.10546,0.249024 -0.35156,0.524414 -0.24316,0.275391 -0.81152,0.75586 -0.47461,0.398437 -0.60938,0.541992 -0.13476,0.140625 -0.22265,0.28418 z"
         style="font-size:6px;font-family:Arial;fill:#000000"
         id="path1151"
         inkscape:connector-curvature="0" />
    </g>
  </g>
  <g
     id="g235"
     transform="matrix(1.33333,0,0,1.33333,-50.026165,-22.204777)">
    <path
       d="m 198.1,85.85 v 0 l 0.13,-0.22 0.12,-0.22 3.25,1.87 -0.13,0.22 -0.12,0.22 z"
       id="path233"
       inkscape:connector-curvature="0"
       style="fill:#000000;fill-rule:evenodd;stroke:#000000;stroke-width:0;stroke-linejoin:miter;shape-rendering:geometricPrecision" />
  </g>
  <g
     id="Charge9404"
     transform="matrix(1.33333,0,0,1.33333,-50.026165,-22.204777)">
    <path
       style="fill:none;stroke:#009d73;stroke-width:0.40799999"
       d="m 203.28666,77.860001 a 2.6666667,2.6666667 0 0 1 -2.66666,2.666666 2.6666667,2.6666667 0 0 1 -2.66667,-2.666666 2.6666667,2.6666667 0 0 1 2.66667,-2.666667 2.6666667,2.6666667 0 0 1 2.66666,2.666667 z"
       id="circle237"
       inkscape:connector-curvature="0" />
    <path
       style="stroke:#009d73;stroke-width:0.40799999;shape-rendering:auto"
       d="m 199.03,77.860001 h 3.18001"
       id="line239"
       inkscape:connector-curvature="0" />
    <path
       style="stroke:#009d73;stroke-width:0.40799999;shape-rendering:auto"
       d="m 200.62,76.269997 v 3.18"
       id="line241"
       inkscape:connector-curvature="0" />
  </g>
  <g
     id="g248"
     transform="matrix(1.33333,0,0,1.33333,-50.026165,-22.204777)">
    <g
       aria-label="OTf"
       style="text-anchor:start;text-rendering:geometricPrecision"
       id="text246">
      <path
         d="m 182.44672,96.180939 q 0,-1.425782 0.76562,-2.230469 0.76563,-0.808594 1.97656,-0.808594 0.79297,0 1.42969,0.378906 0.63672,0.378907 0.96875,1.058594 0.33594,0.675781 0.33594,1.535156 0,0.871094 -0.35156,1.558594 -0.35157,0.6875 -0.9961,1.042969 -0.64453,0.351562 -1.39062,0.351562 -0.8086,0 -1.44531,-0.390625 -0.63672,-0.390625 -0.96485,-1.066406 -0.32812,-0.675781 -0.32812,-1.429687 z m 0.78125,0.01172 q 0,1.035157 0.55468,1.632813 0.5586,0.59375 1.39844,0.59375 0.85547,0 1.40625,-0.601563 0.55469,-0.601562 0.55469,-1.707031 0,-0.699219 -0.23828,-1.21875 -0.23438,-0.523437 -0.69141,-0.808594 -0.45312,-0.289062 -1.01953,-0.289062 -0.80469,0 -1.38672,0.554687 -0.57812,0.550782 -0.57812,1.84375 z"
         style="font-size:8px;font-family:Arial;fill:#cc78a6"
         id="path1139"
         inkscape:connector-curvature="0" />
      <path
         d="M 190.35297,98.970001 V 93.91922 h -1.88672 v -0.675781 h 4.53906 v 0.675781 h -1.89453 v 5.050781 z"
         style="font-size:8px;font-family:Arial;fill:#cc78a6"
         id="path1141"
         inkscape:connector-curvature="0" />
      <path
         d="m 193.86469,98.970001 v -3.601562 h -0.6211 v -0.546875 h 0.6211 v -0.441407 q 0,-0.417968 0.0742,-0.621093 0.10157,-0.273438 0.35547,-0.441407 0.25782,-0.171875 0.71875,-0.171875 0.29688,0 0.65625,0.07031 l -0.10547,0.613281 q -0.21875,-0.03906 -0.41406,-0.03906 -0.32031,0 -0.45312,0.136718 -0.13282,0.136719 -0.13282,0.511719 v 0.382813 h 0.8086 v 0.546875 h -0.8086 V 98.97 Z"
         style="font-size:8px;font-family:Arial;fill:#cc78a6"
         id="path1143"
         inkscape:connector-curvature="0" />
    </g>
  </g>
  <g
     id="Charge9423"
     transform="matrix(1.33333,0,0,1.33333,-50.026165,-22.204777)">
    <path
       style="fill:none;stroke:#cc78a6;stroke-width:0.40799999"
       d="m 182.06666,90.190002 a 2.6666667,2.6666667 0 0 1 -2.66667,2.666667 2.6666667,2.6666667 0 0 1 -2.66666,-2.666667 2.6666667,2.6666667 0 0 1 2.66666,-2.666666 2.6666667,2.6666667 0 0 1 2.66667,2.666666 z"
       id="circle250"
       inkscape:connector-curvature="0" />
    <path
       style="stroke:#cc78a6;stroke-width:0.40799999;shape-rendering:auto"
       d="m 177.81,90.190002 h 3.18001"
       id="line252"
       inkscape:connector-curvature="0" />
  </g>
  <g
     id="g263"
     transform="matrix(1.33333,0,0,1.33333,-50.026165,-22.204777)">
    <g
       aria-label="-TfOH"
       style="text-anchor:start;text-rendering:geometricPrecision"
       id="text261">
      <path
         d="m 145.3139,77.03125 v -0.707031 h 2.16016 v 0.707031 z"
         style="font-size:8px;font-family:Arial;fill:#000000"
         id="path1126"
         inkscape:connector-curvature="0" />
      <path
         d="m 149.80609,78.75 v -5.050781 h -1.88672 v -0.675782 h 4.53907 v 0.675782 H 150.5639 V 78.75 Z"
         style="font-size:8px;font-family:Arial;fill:#cc78a6"
         id="path1128"
         inkscape:connector-curvature="0" />
      <path
         d="m 153.31781,78.75 v -3.601563 h -0.62109 v -0.546875 h 0.62109 v -0.441406 q 0,-0.417969 0.0742,-0.621094 0.10156,-0.273437 0.35547,-0.441406 0.25781,-0.171875 0.71875,-0.171875 0.29687,0 0.65625,0.07031 l -0.10547,0.613281 q -0.21875,-0.03906 -0.41406,-0.03906 -0.32032,0 -0.45313,0.136719 -0.13281,0.136719 -0.13281,0.511719 v 0.382812 h 0.80859 v 0.546875 h -0.80859 V 78.75 Z"
         style="font-size:8px;font-family:Arial;fill:#cc78a6"
         id="path1130"
         inkscape:connector-curvature="0" />
      <path
         d="m 155.22797,75.960937 q 0,-1.425781 0.76562,-2.230468 0.76563,-0.808594 1.97656,-0.808594 0.79297,0 1.42969,0.378906 0.63672,0.378906 0.96875,1.058594 0.33594,0.675781 0.33594,1.535156 0,0.871094 -0.35156,1.558594 -0.35157,0.6875 -0.9961,1.042969 -0.64453,0.351562 -1.39062,0.351562 -0.8086,0 -1.44531,-0.390625 -0.63672,-0.390625 -0.96485,-1.066406 -0.32812,-0.675781 -0.32812,-1.429688 z m 0.78125,0.01172 q 0,1.035156 0.55468,1.632813 0.5586,0.59375 1.39844,0.59375 0.85547,0 1.40625,-0.601563 0.55469,-0.601562 0.55469,-1.707031 0,-0.699219 -0.23828,-1.21875 -0.23438,-0.523438 -0.69141,-0.808594 -0.45312,-0.289062 -1.01953,-0.289062 -0.80469,0 -1.38672,0.554687 -0.57812,0.550781 -0.57812,1.84375 z"
         style="font-size:8px;font-family:Arial;fill:#009d73"
         id="path1132"
         inkscape:connector-curvature="0" />
      <path
         d="m 161.70062,78.75 v -5.726563 h 0.75782 V 75.375 h 2.97656 v -2.351563 h 0.75781 V 78.75 H 165.435 v -2.699219 h -2.97656 V 78.75 Z"
         style="font-size:8px;font-family:Arial;fill:#009d73"
         id="path1134"
         inkscape:connector-curvature="0" />
    </g>
  </g>
  <g
     id="g269"
     transform="matrix(1.33333,0,0,1.33333,-50.026165,-22.204777)">
    <path
       style="stroke:#000000;stroke-width:0.50999999;shape-rendering:auto"
       d="M 240.11,84.419998 H 217.10001"
       id="line265"
       inkscape:connector-curvature="0" />
    <path
       d="m 243.57,84.42 -5.1,-1.28 c 1.07,0.72 1.07,1.84 0,2.56 z"
       stroke-miterlimit="5.89496254687639"
       id="path267"
       inkscape:connector-curvature="0"
       style="fill:#000000;fill-rule:evenodd;stroke:#000000;stroke-width:0;stroke-linejoin:miter;stroke-miterlimit:5.89496231;shape-rendering:geometricPrecision" />
  </g>
  <g
     id="g277"
     transform="matrix(1.33333,0,0,1.33333,-50.026165,-22.204777)">
    <g
       aria-label="R1"
       style="text-anchor:end;text-rendering:geometricPrecision"
       id="text275">
      <path
         d="m 250.64783,98.059998 v -5.726563 h 2.53906 q 0.76562,0 1.16406,0.15625 0.39844,0.152344 0.63672,0.542969 0.23828,0.390625 0.23828,0.863281 0,0.609375 -0.39453,1.027344 -0.39453,0.417969 -1.21875,0.53125 0.30078,0.144531 0.45703,0.285156 0.33203,0.304688 0.62891,0.761719 l 0.99609,1.558594 h -0.95312 l -0.75782,-1.191407 q -0.33203,-0.515625 -0.54687,-0.789062 -0.21484,-0.273438 -0.38672,-0.382813 -0.16797,-0.109375 -0.34375,-0.152343 -0.12891,-0.02734 -0.42187,-0.02734 h -0.87891 v 2.542969 z m 0.75781,-3.199219 h 1.62891 q 0.51953,0 0.8125,-0.105469 0.29296,-0.109375 0.44531,-0.34375 0.15234,-0.238281 0.15234,-0.515625 0,-0.40625 -0.29687,-0.667969 -0.29297,-0.261718 -0.92969,-0.261718 h -1.8125 z"
         style="font-size:8px;font-family:Arial;fill:#000000"
         id="path1120"
         inkscape:connector-curvature="0" />
      <path
         d="m 258.03552,94.799998 h -0.52734 v -3.360352 q -0.19043,0.181641 -0.50098,0.363281 -0.30762,0.181641 -0.55371,0.272461 v -0.509765 q 0.44238,-0.208008 0.77344,-0.503907 0.33105,-0.295898 0.46875,-0.574218 h 0.33984 z"
         style="font-size:6px;font-family:Arial;fill:#000000"
         id="path1122"
         inkscape:connector-curvature="0" />
    </g>
  </g>
  <g
     id="g281"
     transform="matrix(1.33333,0,0,1.33333,-50.026165,-22.204777)">
    <path
       d="m 259.35,91.48 v 0 l -0.12,-0.22 -0.13,-0.23 3.51,-2.02 0.25,0.15 v 0.29 z"
       id="path279"
       inkscape:connector-curvature="0"
       style="fill:#000000;fill-rule:evenodd;stroke:#000000;stroke-width:0;stroke-linejoin:miter;shape-rendering:geometricPrecision" />
  </g>
  <g
     id="g287"
     transform="matrix(1.33333,0,0,1.33333,-50.026165,-22.204777)">
    <path
       d="m 262.86,89.45 v 0 -0.29 l 0.26,-0.15 6.48,3.74 -0.13,0.22 -0.12,0.23 z"
       id="path283"
       inkscape:connector-curvature="0"
       style="fill:#009d73;fill-rule:evenodd;stroke:#009d73;stroke-width:0;stroke-linejoin:miter;shape-rendering:geometricPrecision" />
    <path
       style="stroke:#009d73;stroke-width:0.50999999;shape-rendering:auto"
       d="M 264.92999,87.959999 270.51001,91.18"
       id="line285"
       inkscape:connector-curvature="0" />
  </g>
  <g
     id="g293"
     transform="matrix(1.33333,0,0,1.33333,-50.026165,-22.204777)">
    <g
       aria-label="N"
       style="text-anchor:start;text-rendering:geometricPrecision"
       id="text291">
      <path
         d="m 270.53937,98.059998 v -5.726563 h 0.77734 l 3.00781,4.496094 v -4.496094 h 0.72657 v 5.726563 h -0.77735 l -3.00781,-4.5 v 4.5 z"
         style="font-size:8px;font-family:Arial;fill:#009d73"
         id="path1116"
         inkscape:connector-curvature="0" />
    </g>
  </g>
  <g
     id="g297"
     transform="matrix(1.33333,0,0,1.33333,-50.026165,-22.204777)">
    <path
       d="m 263.12,89.01 v 0 l -0.26,0.15 -0.25,-0.15 V 80.3 h 0.25 0.26 z"
       id="path295"
       inkscape:connector-curvature="0"
       style="fill:#cc78a6;fill-rule:evenodd;stroke:#cc78a6;stroke-width:0;stroke-linejoin:miter;shape-rendering:geometricPrecision" />
  </g>
  <g
     id="g303"
     transform="matrix(1.33333,0,0,1.33333,-50.026165,-22.204777)">
    <g
       aria-label="N"
       style="text-anchor:start;text-rendering:geometricPrecision"
       id="text301">
      <path
         d="m 260.56937,80.800003 v -5.726562 h 0.77734 l 3.00781,4.496093 v -4.496093 h 0.72657 v 5.726562 h -0.77735 l -3.00781,-4.5 v 4.5 z"
         style="font-size:8px;font-family:Arial;fill:#cc78a6"
         id="path1113"
         inkscape:connector-curvature="0" />
    </g>
  </g>
  <g
     id="g307"
     transform="matrix(1.33333,0,0,1.33333,-50.026165,-22.204777)">
    <path
       d="m 276.35,93.17 v 0 l -0.12,-0.22 -0.13,-0.22 3.25,-1.88 0.12,0.22 0.13,0.23 z"
       id="path305"
       inkscape:connector-curvature="0"
       style="fill:#000000;fill-rule:evenodd;stroke:#000000;stroke-width:0;stroke-linejoin:miter;shape-rendering:geometricPrecision" />
  </g>
  <g
     id="g315"
     transform="matrix(1.33333,0,0,1.33333,-50.026165,-22.204777)">
    <g
       aria-label="R2"
       style="text-anchor:start;text-rendering:geometricPrecision"
       id="text313">
      <path
         d="m 280.51892,92.309998 v -5.726563 h 2.53906 q 0.76563,0 1.16407,0.15625 0.39843,0.152344 0.63671,0.542969 0.23829,0.390625 0.23829,0.863281 0,0.609375 -0.39454,1.027344 -0.39453,0.417969 -1.21875,0.53125 0.30079,0.144531 0.45704,0.285156 0.33203,0.304688 0.6289,0.761719 l 0.9961,1.558594 h -0.95313 l -0.75781,-1.191407 q -0.33203,-0.515625 -0.54688,-0.789062 -0.21484,-0.273438 -0.38672,-0.382813 -0.16796,-0.109375 -0.34375,-0.152343 -0.1289,-0.02734 -0.42187,-0.02734 h -0.87891 v 2.542969 z m 0.75781,-3.199219 h 1.62891 q 0.51953,0 0.8125,-0.105469 0.29297,-0.109375 0.44531,-0.34375 0.15235,-0.238281 0.15235,-0.515625 0,-0.40625 -0.29688,-0.667969 -0.29297,-0.261718 -0.92969,-0.261718 h -1.8125 z"
         style="font-size:8px;font-family:Arial;fill:#000000"
         id="path1108"
         inkscape:connector-curvature="0" />
      <path
         d="m 288.69177,88.543162 v 0.506836 h -2.83886 q -0.006,-0.19043 0.0615,-0.366211 0.1084,-0.290039 0.3457,-0.571289 0.24024,-0.28125 0.69141,-0.650391 0.70019,-0.574219 0.94629,-0.908203 0.24609,-0.336914 0.24609,-0.635742 0,-0.313477 -0.22559,-0.527344 -0.22265,-0.216797 -0.583,-0.216797 -0.38086,0 -0.60938,0.228516 -0.22851,0.228515 -0.23144,0.632812 l -0.542,-0.05566 q 0.0557,-0.606445 0.41895,-0.922851 0.36328,-0.319336 0.97559,-0.319336 0.61816,0 0.97851,0.342773 0.36035,0.342773 0.36035,0.849609 0,0.257813 -0.10547,0.506836 -0.10546,0.249024 -0.35156,0.524414 -0.24316,0.275391 -0.81152,0.75586 -0.47461,0.398437 -0.60938,0.541992 -0.13476,0.140625 -0.22265,0.28418 z"
         style="font-size:6px;font-family:Arial;fill:#000000"
         id="path1110"
         inkscape:connector-curvature="0" />
    </g>
  </g>
  <g
     id="Charge9458"
     transform="matrix(1.33333,0,0,1.33333,-50.026165,-22.204777)">
    <path
       style="fill:none;stroke:#cc78a6;stroke-width:0.40799999"
       d="m 273.80668,79.959999 a 2.6666667,2.6666667 0 0 1 -2.66667,2.666667 2.6666667,2.6666667 0 0 1 -2.66666,-2.666667 2.6666667,2.6666667 0 0 1 2.66666,-2.666667 2.6666667,2.6666667 0 0 1 2.66667,2.666667 z"
       id="circle317"
       inkscape:connector-curvature="0" />
    <path
       style="stroke:#cc78a6;stroke-width:0.40799999;shape-rendering:auto"
       d="m 269.54999,79.959999 h 3.18002"
       id="line319"
       inkscape:connector-curvature="0" />
    <path
       style="stroke:#cc78a6;stroke-width:0.40799999;shape-rendering:auto"
       d="m 271.14001,78.370003 v 3.18"
       id="line321"
       inkscape:connector-curvature="0" />
  </g>
  <g
     id="g328"
     transform="matrix(1.33333,0,0,1.33333,-50.026165,-22.204777)">
    <g
       aria-label="OTf"
       style="text-anchor:start;text-rendering:geometricPrecision"
       id="text326">
      <path
         d="m 284.44672,74.430939 q 0,-1.425782 0.76562,-2.230469 0.76563,-0.808594 1.97656,-0.808594 0.79297,0 1.42969,0.378906 0.63672,0.378907 0.96875,1.058594 0.33594,0.675781 0.33594,1.535156 0,0.871094 -0.35156,1.558594 -0.35157,0.6875 -0.9961,1.042969 -0.64453,0.351562 -1.39062,0.351562 -0.8086,0 -1.44531,-0.390625 -0.63672,-0.390625 -0.96485,-1.066406 -0.32812,-0.675781 -0.32812,-1.429687 z m 0.78125,0.01172 q 0,1.035157 0.55468,1.632813 0.5586,0.59375 1.39844,0.59375 0.85547,0 1.40625,-0.601563 0.55469,-0.601562 0.55469,-1.707031 0,-0.699219 -0.23828,-1.21875 -0.23438,-0.523437 -0.69141,-0.808594 -0.45312,-0.289062 -1.01953,-0.289062 -0.80469,0 -1.38672,0.554687 -0.57812,0.550782 -0.57812,1.84375 z"
         style="font-size:8px;font-family:Arial;fill:#cc78a6"
         id="path1098"
         inkscape:connector-curvature="0" />
      <path
         d="M 292.35297,77.220001 V 72.16922 h -1.88672 v -0.675781 h 4.53906 v 0.675781 h -1.89453 v 5.050781 z"
         style="font-size:8px;font-family:Arial;fill:#cc78a6"
         id="path1100"
         inkscape:connector-curvature="0" />
      <path
         d="m 295.86469,77.220001 v -3.601562 h -0.6211 v -0.546875 h 0.6211 v -0.441407 q 0,-0.417968 0.0742,-0.621093 0.10157,-0.273438 0.35547,-0.441407 0.25782,-0.171875 0.71875,-0.171875 0.29688,0 0.65625,0.07031 l -0.10547,0.613281 q -0.21875,-0.03906 -0.41406,-0.03906 -0.32031,0 -0.45312,0.136718 -0.13282,0.136719 -0.13282,0.511719 v 0.382813 h 0.8086 v 0.546875 h -0.8086 V 77.22 Z"
         style="font-size:8px;font-family:Arial;fill:#cc78a6"
         id="path1102"
         inkscape:connector-curvature="0" />
    </g>
  </g>
  <g
     id="Charge9477"
     transform="matrix(1.33333,0,0,1.33333,-50.026165,-22.204777)">
    <path
       style="fill:none;stroke:#cc78a6;stroke-width:0.40799999"
       d="m 284.06666,68.440002 a 2.6666667,2.6666667 0 0 1 -2.66667,2.666667 2.6666667,2.6666667 0 0 1 -2.66666,-2.666667 2.6666667,2.6666667 0 0 1 2.66666,-2.666666 2.6666667,2.6666667 0 0 1 2.66667,2.666666 z"
       id="circle330"
       inkscape:connector-curvature="0" />
    <path
       style="stroke:#cc78a6;stroke-width:0.40799999;shape-rendering:auto"
       d="m 279.81,68.440002 h 3.17999"
       id="line332"
       inkscape:connector-curvature="0" />
  </g>
  <g
     id="g339"
     transform="matrix(1.33333,0,0,1.33333,-50.026165,-22.204777)">
    <path
       d="m 266.35,75.93 v 0 l -0.12,-0.22 -0.13,-0.22 6.48,-3.74 0.25,0.15 0.25,0.15 z"
       id="path335"
       inkscape:connector-curvature="0"
       style="fill:#cc78a6;fill-rule:evenodd;stroke:#cc78a6;stroke-width:0;stroke-linejoin:miter;shape-rendering:geometricPrecision" />
    <path
       style="stroke:#cc78a6;stroke-width:0.50999999;shape-rendering:auto"
       d="m 265.44,74.339996 5.81,-3.349998"
       id="line337"
       inkscape:connector-curvature="0" />
  </g>
  <g
     id="g343"
     transform="matrix(1.33333,0,0,1.33333,-50.026165,-22.204777)">
    <path
       d="m 273.08,72.05 v 0 l -0.25,-0.15 -0.25,-0.15 V 60.54 l 0.25,-0.15 0.25,-0.15 z"
       id="path341"
       inkscape:connector-curvature="0"
       style="fill:#cc78a6;fill-rule:evenodd;stroke:#cc78a6;stroke-width:0;stroke-linejoin:miter;shape-rendering:geometricPrecision" />
  </g>
  <g
     id="g349"
     transform="matrix(1.33333,0,0,1.33333,-50.026165,-22.204777)">
    <path
       d="m 273.08,60.24 v 0 l -0.25,0.15 -0.25,0.15 -9.72,-5.62 v -0.29 -0.29 z"
       id="path345"
       inkscape:connector-curvature="0"
       style="fill:#cc78a6;fill-rule:evenodd;stroke:#cc78a6;stroke-width:0;stroke-linejoin:miter;shape-rendering:geometricPrecision" />
    <path
       style="stroke:#cc78a6;stroke-width:0.50999999;shape-rendering:auto"
       d="m 270.76001,61.59 -7.90002,-4.57"
       id="line347"
       inkscape:connector-curvature="0" />
  </g>
  <g
     id="g353"
     transform="matrix(1.33333,0,0,1.33333,-50.026165,-22.204777)">
    <path
       d="m 262.86,54.34 v 0 0.29 0.29 l -9.71,5.62 -0.26,-0.15 -0.26,-0.15 z"
       id="path351"
       inkscape:connector-curvature="0"
       style="fill:#cc78a6;fill-rule:evenodd;stroke:#cc78a6;stroke-width:0;stroke-linejoin:miter;shape-rendering:geometricPrecision" />
  </g>
  <g
     id="g359"
     transform="matrix(1.33333,0,0,1.33333,-50.026165,-22.204777)">
    <path
       d="m 252.63,60.24 v 0 l 0.26,0.15 0.26,0.15 v 11.21 l -0.26,0.15 -0.26,0.15 z"
       id="path355"
       inkscape:connector-curvature="0"
       style="fill:#cc78a6;fill-rule:evenodd;stroke:#cc78a6;stroke-width:0;stroke-linejoin:miter;shape-rendering:geometricPrecision" />
    <path
       style="stroke:#cc78a6;stroke-width:0.50999999;shape-rendering:auto"
       d="m 254.96001,61.59 v 9.109997"
       id="line357"
       inkscape:connector-curvature="0" />
  </g>
  <g
     id="g363"
     transform="matrix(1.33333,0,0,1.33333,-50.026165,-22.204777)">
    <path
       d="m 252.63,72.05 v 0 l 0.26,-0.15 0.26,-0.15 6.45,3.73 -0.13,0.22 -0.12,0.22 z"
       id="path361"
       inkscape:connector-curvature="0"
       style="fill:#cc78a6;fill-rule:evenodd;stroke:#cc78a6;stroke-width:0;stroke-linejoin:miter;shape-rendering:geometricPrecision" />
  </g>
  <g
     id="g369"
     transform="matrix(1.33333,0,0,1.33333,-50.026165,-22.204777)">
    <g
       aria-label="N"
       style="text-anchor:start;text-rendering:geometricPrecision"
       id="text367">
      <path
         d="m 225.64937,80.660004 v -5.726563 h 0.77734 l 3.00781,4.496094 v -4.496094 h 0.72657 v 5.726563 h -0.77735 l -3.00781,-4.5 v 4.5 z"
         style="font-size:8px;font-family:Arial;fill:#cc78a6"
         id="path1090"
         inkscape:connector-curvature="0" />
    </g>
  </g>
  <g
     id="g375"
     transform="matrix(1.33333,0,0,1.33333,-50.026165,-22.204777)">
    <path
       d="m 217.71,60.1 v 0 l 0.26,0.15 0.26,0.15 v 11.2 l -0.26,0.15 -0.26,0.15 z"
       id="path371"
       inkscape:connector-curvature="0"
       style="fill:#cc78a6;fill-rule:evenodd;stroke:#cc78a6;stroke-width:0;stroke-linejoin:miter;shape-rendering:geometricPrecision" />
    <path
       style="stroke:#cc78a6;stroke-width:0.50999999;shape-rendering:auto"
       d="m 220.03999,61.439999 v 9.119999"
       id="line373"
       inkscape:connector-curvature="0" />
  </g>
  <g
     id="g379"
     transform="matrix(1.33333,0,0,1.33333,-50.026165,-22.204777)">
    <path
       d="m 217.71,71.9 v 0 l 0.26,-0.15 0.26,-0.15 6.47,3.74 -0.13,0.23 -0.12,0.22 z"
       id="path377"
       inkscape:connector-curvature="0"
       style="fill:#cc78a6;fill-rule:evenodd;stroke:#cc78a6;stroke-width:0;stroke-linejoin:miter;shape-rendering:geometricPrecision" />
  </g>
  <g
     id="g385"
     transform="matrix(1.33333,0,0,1.33333,-50.026165,-22.204777)">
    <path
       d="m 231.45,75.77 v 0 l -0.12,-0.22 -0.13,-0.22 6.45,-3.73 0.25,0.15 0.25,0.15 z"
       id="path381"
       inkscape:connector-curvature="0"
       style="fill:#cc78a6;fill-rule:evenodd;stroke:#cc78a6;stroke-width:0;stroke-linejoin:miter;shape-rendering:geometricPrecision" />
    <path
       style="stroke:#cc78a6;stroke-width:0.50999999;shape-rendering:auto"
       d="M 230.53999,74.190002 236.33,70.839996"
       id="line383"
       inkscape:connector-curvature="0" />
  </g>
  <g
     id="g389"
     transform="matrix(1.33333,0,0,1.33333,-50.026165,-22.204777)">
    <path
       d="m 238.15,71.9 v 0 L 237.9,71.75 237.65,71.6 V 60.4 l 0.25,-0.15 0.25,-0.15 z"
       id="path387"
       inkscape:connector-curvature="0"
       style="fill:#cc78a6;fill-rule:evenodd;stroke:#cc78a6;stroke-width:0;stroke-linejoin:miter;shape-rendering:geometricPrecision" />
  </g>
  <g
     id="g395"
     transform="matrix(1.33333,0,0,1.33333,-50.026165,-22.204777)">
    <path
       d="m 238.15,60.1 v 0 l -0.25,0.15 -0.25,0.15 -9.71,-5.62 V 54.49 54.2 Z"
       id="path391"
       inkscape:connector-curvature="0"
       style="fill:#cc78a6;fill-rule:evenodd;stroke:#cc78a6;stroke-width:0;stroke-linejoin:miter;shape-rendering:geometricPrecision" />
    <path
       style="stroke:#cc78a6;stroke-width:0.50999999;shape-rendering:auto"
       d="m 235.83,61.439999 -7.89,-4.559998"
       id="line393"
       inkscape:connector-curvature="0" />
  </g>
  <g
     id="g399"
     transform="matrix(1.33333,0,0,1.33333,-50.026165,-22.204777)">
    <path
       d="m 227.94,54.2 v 0 0.29 0.29 l -9.71,5.62 -0.26,-0.15 -0.26,-0.15 z"
       id="path397"
       inkscape:connector-curvature="0"
       style="fill:#cc78a6;fill-rule:evenodd;stroke:#cc78a6;stroke-width:0;stroke-linejoin:miter;shape-rendering:geometricPrecision" />
  </g>
  <g
     id="Bracket"
     transform="matrix(1.33333,0,0,1.33333,-50.026165,-22.204777)">
    <path
       d="m 209.44,62.63 h 3.12 v 37.87 h -3.12"
       id="path401"
       inkscape:connector-curvature="0"
       style="fill:none;fill-rule:evenodd;stroke:#000000;stroke-width:0.50999999;stroke-linejoin:miter;shape-rendering:geometricPrecision" />
  </g>
  <g
     id="g406"
     transform="matrix(1.33333,0,0,1.33333,-50.026165,-22.204777)">
    <path
       d="m 144.06,100.5 h -3.12 V 62.63 h 3.12"
       id="path404"
       inkscape:connector-curvature="0"
       style="fill:none;fill-rule:evenodd;stroke:#000000;stroke-width:0.50999999;stroke-linejoin:miter;shape-rendering:geometricPrecision" />
  </g>
  <g
     id="Oval"
     transform="matrix(1.33333,0,0,1.33333,-50.026165,-22.204777)">
    <path
       style="fill:#e69e00;stroke:#e69e00;stroke-width:0.1"
       d="m 205.65,67.029999 a 1.29,1.29 0 0 1 -1.29,1.29 1.29,1.29 0 0 1 -1.29,-1.29 1.29,1.29 0 0 1 1.29,-1.29 1.29,1.29 0 0 1 1.29,1.29 z"
       id="circle408"
       inkscape:connector-curvature="0" />
  </g>
  <path
     style="stroke:#e69e00;stroke-width:0.67999828;shape-rendering:auto"
     d="M 222.45316,38.54174 V 67.794998"
     id="line411" />
  <path
     style="stroke:#e69e00;stroke-width:0.67999828;shape-rendering:auto"
     d="m 222.45316,38.54174 104.94398,0"
     id="line413"
     inkscape:connector-curvature="0"
     sodipodi:nodetypes="cc" />
  <g
     id="g427"
     transform="matrix(1.33333,0,0,1.33333,-50.026165,-22.204777)">
    <path
       style="fill:#e69e00;stroke:#e69e00;stroke-width:0.1"
       d="m 119.4,67.029999 a 1.29,1.29 0 0 1 -1.29,1.29 1.29,1.29 0 0 1 -1.29,-1.29 1.29,1.29 0 0 1 1.29,-1.29 1.29,1.29 0 0 1 1.29,1.29 z"
       id="circle425"
       inkscape:connector-curvature="0" />
  </g>
  <path
     style="stroke:#e69e00;stroke-width:0.67999828;shape-rendering:auto"
     d="M 107.45345,38.54174 V 67.794998"
     id="line429" />
  <path
     style="stroke:#e69e00;stroke-width:0.67999828;shape-rendering:auto"
     d="m 107.45345,38.54174 h 99.99974"
     id="line431" />
  <text
     xml:space="preserve"
     style="font-style:normal;font-variant:normal;font-weight:normal;font-stretch:normal;font-size:10.66666698px;line-height:1.25;font-family:Arial;-inkscape-font-specification:Arial;text-align:end;letter-spacing:0px;word-spacing:0px;text-anchor:end;fill:#000000;fill-opacity:1;stroke:none"
     x="213.76315"
     y="-29.939503"
     id="text1706"><tspan
       sodipodi:role="line"
       id="tspan1704"
       x="213.76315"
       y="-20.331455" /></text>
  <text
     xml:space="preserve"
     style="font-style:normal;font-variant:normal;font-weight:normal;font-stretch:normal;font-size:10.66666698px;line-height:1.25;font-family:Arial;-inkscape-font-specification:Arial;text-align:end;letter-spacing:0px;word-spacing:0px;text-anchor:end;fill:#e69e00;fill-opacity:1;stroke:none"
     x="207.90111"
     y="35.956951"
     id="text1039"><tspan
       sodipodi:role="line"
       id="tspan1037"
       x="207.90111"
       y="35.956951">natychmiast reaguje</tspan></text>
  <text
     xml:space="preserve"
     style="font-style:normal;font-variant:normal;font-weight:normal;font-stretch:normal;font-size:10.66666698px;line-height:1.25;font-family:Arial;-inkscape-font-specification:Arial;text-align:end;letter-spacing:0px;word-spacing:0px;text-anchor:end;fill:#000000;fill-opacity:1;stroke:none"
     x="-44.25885"
     y="121.52312"
     id="text1245"><tspan
       sodipodi:role="line"
       id="tspan1243"
       x="-44.25885"
       y="121.52312"
       style="text-align:start;text-anchor:start">\cmpd{w:amide-sec}</tspan></text>
  <text
     id="text1249"
     y="121.52312"
     x="72.780449"
     style="font-style:normal;font-variant:normal;font-weight:normal;font-stretch:normal;font-size:10.66666698px;line-height:1.25;font-family:Arial;-inkscape-font-specification:Arial;text-align:end;letter-spacing:0px;word-spacing:0px;text-anchor:end;fill:#000000;fill-opacity:1;stroke:none"
     xml:space="preserve"><tspan
       style="text-align:start;text-anchor:start"
       y="121.52312"
       x="72.780449"
       id="tspan1247"
       sodipodi:role="line">\cmpd{w:tf-iminium-sec}</tspan></text>
  <text
     xml:space="preserve"
     style="font-style:normal;font-variant:normal;font-weight:normal;font-stretch:normal;font-size:10.66666698px;line-height:1.25;font-family:Arial;-inkscape-font-specification:Arial;text-align:end;letter-spacing:0px;word-spacing:0px;text-anchor:end;fill:#000000;fill-opacity:1;stroke:none"
     x="183.36537"
     y="121.52312"
     id="text1253"><tspan
       sodipodi:role="line"
       id="tspan1251"
       x="183.36537"
       y="121.52312"
       style="text-align:start;text-anchor:start">\cmpd{w:nitrilinium}</tspan></text>
  <text
     id="text1257"
     y="121.52312"
     x="329.97382"
     style="font-style:normal;font-variant:normal;font-weight:normal;font-stretch:normal;font-size:10.66666698px;line-height:1.25;font-family:Arial;-inkscape-font-specification:Arial;text-align:start;letter-spacing:0px;word-spacing:0px;text-anchor:start;fill:#000000;fill-opacity:1;stroke:none"
     xml:space="preserve"><tspan
       style="text-align:start;text-anchor:start"
       y="121.52312"
       x="329.97382"
       id="tspan1255"
       sodipodi:role="line">\cmpd{w:piridinium-sec}</tspan></text>
  <text
     xml:space="preserve"
     style="font-style:normal;font-variant:normal;font-weight:normal;font-stretch:normal;font-size:10.66666698px;line-height:1.25;font-family:Arial;-inkscape-font-specification:Arial;text-align:end;letter-spacing:0px;word-spacing:0px;text-anchor:end;fill:#e69e00;fill-opacity:1;stroke:none"
     x="327.47006"
     y="35.956951"
     id="text1072"><tspan
       sodipodi:role="line"
       id="tspan1070"
       x="327.47006"
       y="35.956951"
       style="text-align:end;text-anchor:end">moliwy intermediat</tspan></text>
</svg>
