<?xml version="1.0" encoding="UTF-8" standalone="no"?>
<svg
   xmlns:dc="http://purl.org/dc/elements/1.1/"
   xmlns:cc="http://creativecommons.org/ns#"
   xmlns:rdf="http://www.w3.org/1999/02/22-rdf-syntax-ns#"
   xmlns:svg="http://www.w3.org/2000/svg"
   xmlns="http://www.w3.org/2000/svg"
   xmlns:sodipodi="http://sodipodi.sourceforge.net/DTD/sodipodi-0.dtd"
   xmlns:inkscape="http://www.inkscape.org/namespaces/inkscape"
   width="399px"
   height="106px"
   viewBox="0 0 399 106"
   style="background-color: #ffffff00"
   version="1.1"
   id="svg206"
   sodipodi:docname="non-planar.svg"
   inkscape:version="0.92.4 (5da689c313, 2019-01-14)">
  <metadata
     id="metadata212">
    <rdf:RDF>
      <cc:Work
         rdf:about="">
        <dc:format>image/svg+xml</dc:format>
        <dc:type
           rdf:resource="http://purl.org/dc/dcmitype/StillImage" />
      </cc:Work>
    </rdf:RDF>
  </metadata>
  <defs
     id="defs210" />
  <sodipodi:namedview
     pagecolor="#ffffff"
     bordercolor="#666666"
     borderopacity="1"
     objecttolerance="10"
     gridtolerance="10"
     guidetolerance="10"
     inkscape:pageopacity="0"
     inkscape:pageshadow="2"
     inkscape:window-width="1920"
     inkscape:window-height="1017"
     id="namedview208"
     showgrid="false"
     inkscape:zoom="3.4385965"
     inkscape:cx="188.97857"
     inkscape:cy="61.778496"
     inkscape:window-x="-8"
     inkscape:window-y="-8"
     inkscape:window-maximized="1"
     inkscape:current-layer="svg206" />
  <path
     d="m 159.41164,30.835687 a 9.207005,9.207005 0 1 0 18.41401,0 9.207005,9.207005 0 1 0 -18.41401,0 z"
     id="path2"
     style="fill:none;fill-opacity:1;stroke:#cc79a7;stroke-width:0.667;stroke-opacity:1;stroke-miterlimit:4;stroke-dasharray:none"
     inkscape:connector-curvature="0" />
  <path
     d="m 140.28904,12.461156 a 9.207005,9.207005 0 1 0 18.41401,0 9.207005,9.207005 0 1 0 -18.41401,0 z"
     id="path6"
     style="fill:none;fill-opacity:1;stroke:#cc79a7;stroke-width:0.667;stroke-opacity:1;stroke-miterlimit:4;stroke-dasharray:none"
     inkscape:connector-curvature="0" />
  <path
     d="m 117.50599,13.517263 a 9.207005,9.207005 0 1 0 18.41401,0 9.207005,9.207005 0 1 0 -18.41401,0 z"
     id="path12"
     style="fill:none;fill-opacity:1;stroke:#cc79a7;stroke-width:0.66666698;stroke-opacity:1"
     inkscape:connector-curvature="0" />
  <g
     aria-label="N"
     transform="matrix(0.0666667,0,0,0.0666667,29.848,36.3766)"
     style="font-style:normal;font-weight:normal;font-size:160px;font-family:Arial;fill:#009e73;stroke:none"
     id="text14">
    <path
       d="m 12.1875,0 v -114.53125 h 15.546875 l 60.15625,89.921875 V -114.53125 H 102.42188 V 0 H 86.875 L 26.71875,-90 V 0 Z"
       style="font-style:normal;font-weight:normal;font-size:160px;font-family:Arial;fill:#009e73;stroke:none"
       id="path1152"
       inkscape:connector-curvature="0" />
  </g>
  <path
     stroke="none"
     fill="#000000"
     transform="matrix(0.0666667 0 0 0.0666667 0.488821 -91.4)"
     d="M 429.123,1839.12 L 427.749,1849.23 L 257.191,1826.06 L 282.976,1819.26 L 429.123,1839.12 Z "
     id="path16" />
  <path
     stroke="none"
     fill="#000000"
     transform="matrix(0.0666667 0 0 0.0666667 0.488821 -91.4)"
     d="M 680.214,1988.09 L 680.161,2000.96 L 573.752,1918.6 L 579.998,1910.53 L 680.214,1988.09 Z "
     id="path18" />
  <path
     stroke="none"
     fill="#000000"
     transform="matrix(0.0666667 0 0 0.0666667 0.488821 -91.4)"
     d="M 451.864,1677.96 L 454.678,1688.64 L 282.976,1819.26 L 257.191,1826.06 L 451.864,1677.96 Z "
     id="path20" />
  <path
     stroke="none"
     fill="#000000"
     transform="matrix(0.0666667 0 0 0.0666667 0.488821 -91.4)"
     d="M 854.994,1855.13 L 871.756,1855.2 L 680.161,2000.96 L 680.214,1988.09 L 854.994,1855.13 Z "
     id="path22" />
  <path
     stroke="none"
     fill="#000000"
     transform="matrix(0.0666667 0 0 0.0666667 0.488821 -91.4)"
     d="M 678.156,1708.7 L 681.348,1714.29 L 679.307,1719.16 L 593.151,1707.45 L 597.235,1697.71 L 678.156,1708.7 L 678.156,1708.7 Z "
     id="path24" />
  <path
     stroke="none"
     fill="#000000"
     transform="matrix(0.0666667 0 0 0.0666667 0.488821 -91.4)"
     d="M 454.678,1688.64 L 451.864,1677.96 L 533.423,1689.04 L 529.339,1698.78 L 454.678,1688.64 L 454.678,1688.64 Z "
     id="path26" />
  <path
     stroke="none"
     fill="#000000"
     transform="matrix(0.0666667 0 0 0.0666667 0.488821 -91.4)"
     d="M 871.756,1855.2 L 854.994,1855.13 L 679.307,1719.16 L 681.348,1714.29 L 687.567,1712.65 L 871.756,1855.2 Z "
     id="path28" />
  <path
     stroke="none"
     fill="#000000"
     transform="matrix(0.0666667 0 0 0.0666667 0.488821 -91.4)"
     d="M 582.947,1638.13 L 591.302,1644.6 L 537.703,1772.49 L 528.291,1768.55 L 582.947,1638.13 Z "
     id="path30"
     style="fill:#cc79a7" />
  <path
     stroke="none"
     fill="#000000"
     transform="matrix(0.0666667 0 0 0.0666667 0.488821 -91.4)"
     d="M 758.247,1517.59 L 782.378,1486.41 L 687.567,1712.65 L 681.348,1714.29 L 678.156,1708.7 L 758.247,1517.59 Z "
     id="path32"
     style="fill:#cc79a7" />
  <path
     stroke="none"
     fill="#000000"
     transform="matrix(0.0666667 0 0 0.0666667 0.488821 -91.4)"
     d="M 591.302,1644.6 L 582.947,1638.13 L 782.378,1486.41 L 758.247,1517.59 L 591.302,1644.6 Z "
     id="path34"
     style="fill:#cc79a7" />
  <g
     aria-label="O"
     transform="matrix(0.0666667,0,0,0.0666667,41.6226,61.113)"
     style="font-style:normal;font-weight:normal;font-size:160px;font-family:Arial;fill:#000000;stroke:none"
     id="text36">
    <path
       d="m 7.734375,-55.78125 q 0,-28.515625 15.3125,-44.60938 15.3125,-16.17187 39.53125,-16.17187 15.859375,0 28.59375,7.57812 12.734375,7.57813 19.375005,21.17188 6.71875,13.515625 6.71875,30.703125 0,17.421875 -7.03125,31.171875 -7.03125,13.75 -19.92188,20.859375 -12.890625,7.03125 -27.8125,7.03125 -16.171875,0 -28.90625,-7.8125 -12.734375,-7.8125 -19.296875,-21.328125 -6.5625,-13.515625 -6.5625,-28.59375 z m 15.625,0.234375 q 0,20.703125 11.09375,32.65625 11.171875,11.875 27.96875,11.875 17.109375,0 28.125,-12.03125 11.093755,-12.03125 11.093755,-34.140625 0,-13.984375 -4.76563,-24.375 -4.6875,-10.46875 -13.828125,-16.171875 -9.0625,-5.781255 -20.390625,-5.781255 -16.09375,0 -27.734375,11.093755 -11.5625,11.015625 -11.5625,36.875 z"
       style="font-style:normal;font-weight:normal;font-size:160px;font-family:Arial;fill:#000000;stroke:none"
       id="path1149"
       inkscape:connector-curvature="0" />
  </g>
  <path
     stroke="none"
     fill="#000000"
     transform="matrix(0.0666667 0 0 0.0666667 0.488821 -91.4)"
     d="M 705.38,2145.47 L 695.175,2145.43 L 695.866,1978.69 L 706.071,1978.74 L 705.38,2145.47 Z "
     id="path38" />
  <path
     stroke="none"
     fill="#000000"
     transform="matrix(0.0666667 0 0 0.0666667 0.488821 -91.4)"
     d="M 663.949,2145.3 L 653.745,2145.26 L 654.436,1978.52 L 664.64,1978.56 L 663.949,2145.3 Z "
     id="path40" />
  <path
     transform="matrix(0.0666667,0,0,0.0666667,0.488821,-91.4)"
     d="m 2384.9797,1911.116 5.1,8.84 -112.1497,57.954 v -11.78 z"
     id="path42"
     inkscape:connector-curvature="0"
     style="fill:#000000;stroke:none"
     sodipodi:nodetypes="ccccc" />
  <g
     aria-label="R"
     style="font-style:normal;font-weight:normal;font-size:10.66667175px;font-family:Arial;fill:#cc79a7;stroke:none;stroke-width:0.0666667"
     id="text44">
    <path
       d="m 163.5717,36.014069 v -7.635421 h 3.38541 q 1.02084,0 1.55209,0.208334 0.53125,0.203125 0.84896,0.723958 0.31771,0.520834 0.31771,1.151043 0,0.8125 -0.52605,1.369792 -0.52604,0.557292 -1.625,0.708334 0.40105,0.192708 0.60938,0.380208 0.44271,0.40625 0.83854,1.015626 l 1.32813,2.078126 h -1.27084 l -1.01041,-1.588543 q -0.44271,-0.6875 -0.72917,-1.052084 -0.28646,-0.364583 -0.51563,-0.510417 -0.22396,-0.145833 -0.45833,-0.203125 -0.17188,-0.03646 -0.5625,-0.03646 h -1.17188 v 3.390627 z m 1.01041,-4.265627 h 2.17188 q 0.69271,0 1.08333,-0.140625 0.39063,-0.145834 0.59375,-0.458334 0.20313,-0.317709 0.20313,-0.6875 0,-0.541667 -0.39583,-0.890626 -0.39063,-0.348958 -1.23959,-0.348958 h -2.41667 z"
       style="font-style:normal;font-weight:normal;font-size:10.66667175px;font-family:Arial;fill:#cc79a7;stroke:none;stroke-width:0.0666667"
       id="path1146"
       inkscape:connector-curvature="0" />
  </g>
  <g
     aria-label="3"
     style="font-style:normal;font-weight:normal;font-size:8.00000381px;font-family:Arial;fill:#cc79a7;stroke:none;stroke-width:0.0666667"
     id="text46">
    <path
       d="m 170.77309,30.302348 0.70312,-0.09375 q 0.1211,0.597657 0.41016,0.863282 0.29297,0.261719 0.71094,0.261719 0.49609,0 0.83593,-0.34375 0.34375,-0.34375 0.34375,-0.851563 0,-0.484375 -0.3164,-0.796876 -0.31641,-0.316406 -0.80469,-0.316406 -0.19922,0 -0.49609,0.07813 l 0.0781,-0.617188 q 0.0703,0.0078 0.11328,0.0078 0.44922,0 0.8086,-0.234375 0.35937,-0.234375 0.35937,-0.722657 0,-0.386719 -0.26172,-0.640625 -0.26172,-0.253907 -0.67578,-0.253907 -0.41016,0 -0.68359,0.257813 -0.27344,0.257813 -0.35157,0.773438 l -0.70312,-0.125 q 0.12891,-0.707032 0.58594,-1.093751 0.45703,-0.390625 1.13672,-0.390625 0.46875,0 0.86328,0.203125 0.39453,0.199219 0.60156,0.546875 0.21094,0.347657 0.21094,0.738282 0,0.371094 -0.19922,0.675782 -0.19922,0.304687 -0.58984,0.484375 0.50781,0.117187 0.78906,0.488281 0.28125,0.367188 0.28125,0.921876 0,0.75 -0.54688,1.273438 -0.54687,0.519531 -1.38281,0.519531 -0.75391,0 -1.25391,-0.449219 -0.49609,-0.449219 -0.5664,-1.164063 z"
       style="font-style:normal;font-weight:normal;font-size:8.00000381px;font-family:Arial;fill:#cc79a7;stroke:none;stroke-width:0.0666667"
       id="path1143"
       inkscape:connector-curvature="0" />
  </g>
  <path
     stroke="none"
     fill="#000000"
     transform="matrix(0.0666667 0 0 0.0666667 0.488821 -91.4)"
     d="M 2303.75,2122.86 L 2293.55,2122.86 L 2293.55,1960.06 L 2303.75,1960.06 L 2303.75,2122.86 Z "
     id="path48" />
  <path
     stroke="none"
     fill="#000000"
     transform="matrix(0.0666667 0 0 0.0666667 0.488821 -91.4)"
     d="M 2262.32,2122.86 L 2252.11,2122.86 L 2252.11,1960.06 L 2262.32,1960.06 L 2262.32,2122.86 Z "
     id="path50" />
  <g
     aria-label="N"
     transform="matrix(0.0666667,0,0,0.0666667,135.21,36.5957)"
     style="font-style:normal;font-weight:normal;font-size:160px;font-family:Arial;fill:#009e73;stroke:none"
     id="text52">
    <path
       d="m 12.1875,0 v -114.53125 h 15.546875 l 60.15625,89.921875 V -114.53125 H 102.42188 V 0 H 86.875 L 26.71875,-90 V 0 Z"
       style="font-style:normal;font-weight:normal;font-size:160px;font-family:Arial;fill:#009e73;stroke:none"
       id="path1140"
       inkscape:connector-curvature="0" />
  </g>
  <path
     stroke="none"
     fill="#000000"
     transform="matrix(0.0666667 0 0 0.0666667 0.488821 -91.4)"
     d="M 2158.15,1908.76 L 2163.25,1899.92 L 2277.93,1966.13 L 2277.93,1977.91 L 2158.15,1908.76 Z "
     id="path54" />
  <g
     aria-label="O"
     transform="matrix(0.0666667,0,0,0.0666667,148.203,59.613)"
     style="font-style:normal;font-weight:normal;font-size:160px;font-family:Arial;fill:#000000;stroke:none"
     id="text56">
    <path
       d="m 7.734375,-55.78125 q 0,-28.515625 15.3125,-44.60938 15.3125,-16.17187 39.53125,-16.17187 15.859375,0 28.59375,7.57812 12.734375,7.57813 19.375005,21.17188 6.71875,13.515625 6.71875,30.703125 0,17.421875 -7.03125,31.171875 -7.03125,13.75 -19.92188,20.859375 -12.890625,7.03125 -27.8125,7.03125 -16.171875,0 -28.90625,-7.8125 -12.734375,-7.8125 -19.296875,-21.328125 -6.5625,-13.515625 -6.5625,-28.59375 z m 15.625,0.234375 q 0,20.703125 11.09375,32.65625 11.171875,11.875 27.96875,11.875 17.109375,0 28.125,-12.03125 11.093755,-12.03125 11.093755,-34.140625 0,-13.984375 -4.76563,-24.375 -4.6875,-10.46875 -13.828125,-16.171875 -9.0625,-5.781255 -20.390625,-5.781255 -16.09375,0 -27.734375,11.093755 -11.5625,11.015625 -11.5625,36.875 z"
       style="font-style:normal;font-weight:normal;font-size:160px;font-family:Arial;fill:#000000;stroke:none"
       id="path1137"
       inkscape:connector-curvature="0" />
  </g>
  <g
     aria-label="R"
     style="font-style:normal;font-weight:normal;font-size:10.66667175px;font-family:Arial;fill:#cc79a7;stroke:none;stroke-width:0.0666667"
     id="text58"
     transform="translate(-0.3084573,-0.3084573)">
    <path
       d="M 144.7747,17.869471 V 10.23405 h 3.38542 q 1.02083,0 1.55208,0.208334 0.53125,0.203125 0.84896,0.723958 0.31771,0.520834 0.31771,1.151043 0,0.8125 -0.52604,1.369792 -0.52604,0.557292 -1.625,0.708334 0.40104,0.192708 0.60937,0.380208 0.44271,0.40625 0.83854,1.015626 l 1.32813,2.078126 h -1.27083 l -1.01042,-1.588543 q -0.44271,-0.6875 -0.72917,-1.052084 -0.28646,-0.364583 -0.51562,-0.510417 -0.22396,-0.145833 -0.45834,-0.203125 -0.17187,-0.03646 -0.5625,-0.03646 h -1.17187 v 3.390627 z m 1.01042,-4.265627 h 2.17187 q 0.69271,0 1.08334,-0.140626 0.39062,-0.145833 0.59375,-0.458333 0.20312,-0.317709 0.20312,-0.6875 0,-0.541667 -0.39583,-0.890626 -0.39063,-0.348958 -1.23959,-0.348958 h -2.41666 z"
       style="font-style:normal;font-weight:normal;font-size:10.66667175px;font-family:Arial;fill:#cc79a7;stroke:none;stroke-width:0.0666667"
       id="path1134"
       inkscape:connector-curvature="0" />
  </g>
  <g
     aria-label="2"
     style="font-style:normal;font-weight:normal;font-size:8.00000381px;font-family:Arial;fill:#cc79a7;stroke:none;stroke-width:0.0666667"
     id="text60"
     transform="translate(-0.3084573,-0.3084573)">
    <path
       d="m 155.66649,12.993689 v 0.675782 h -3.78516 q -0.008,-0.253907 0.082,-0.488282 0.14454,-0.386719 0.46094,-0.761719 0.32031,-0.375 0.92188,-0.867188 0.93359,-0.765625 1.26172,-1.210938 0.32812,-0.4492188 0.32812,-0.8476565 0,-0.4179689 -0.30078,-0.7031253 -0.29688,-0.2890626 -0.77734,-0.2890626 -0.50782,0 -0.8125,0.3046876 -0.30469,0.3046877 -0.3086,0.8437504 l -0.72265,-0.074219 q 0.0742,-0.8085941 0.55859,-1.2304693 0.48437,-0.4257815 1.30078,-0.4257815 0.82422,0 1.30469,0.4570315 0.48047,0.4570315 0.48047,1.1328131 0,0.3437501 -0.14063,0.6757816 -0.14062,0.332032 -0.46875,0.699219 -0.32422,0.367188 -1.08203,1.007813 -0.63281,0.53125 -0.8125,0.722657 -0.17969,0.1875 -0.29687,0.378906 z"
       style="font-style:normal;font-weight:normal;font-size:8.00000381px;font-family:Arial;fill:#cc79a7;stroke:none;stroke-width:0.0666667"
       id="path1131"
       inkscape:connector-curvature="0" />
  </g>
  <g
     aria-label="R"
     style="font-style:normal;font-weight:normal;font-size:10.66667175px;font-family:Arial;fill:#cc79a7;stroke:none;stroke-width:0.0666667"
     id="text70"
     transform="translate(-0.6169146,-0.6169146)">
    <path
       d="m 122.46678,19.471376 v -7.63542 h 3.38542 q 1.02084,0 1.55209,0.208334 0.53125,0.203125 0.84896,0.723958 0.3177,0.520834 0.3177,1.151042 0,0.812501 -0.52604,1.369793 -0.52604,0.557292 -1.625,0.708333 0.40104,0.192709 0.60938,0.380209 0.44271,0.40625 0.83854,1.015625 l 1.32812,2.078126 h -1.27083 l -1.01042,-1.588542 q -0.44271,-0.6875 -0.72916,-1.052084 -0.28646,-0.364583 -0.51563,-0.510417 -0.22396,-0.145833 -0.45833,-0.203125 -0.17188,-0.03646 -0.5625,-0.03646 h -1.17188 v 3.390626 z m 1.01042,-4.265627 h 2.17188 q 0.69271,0 1.08333,-0.140625 0.39063,-0.145833 0.59375,-0.458333 0.20313,-0.317709 0.20313,-0.687501 0,-0.541666 -0.39584,-0.890625 -0.39062,-0.348958 -1.23958,-0.348958 h -2.41667 z"
       style="font-style:normal;font-weight:normal;font-size:10.66667175px;font-family:Arial;fill:#cc79a7;stroke:none;stroke-width:0.0666667"
       id="path1128"
       inkscape:connector-curvature="0" />
  </g>
  <g
     aria-label="1"
     style="font-style:normal;font-weight:normal;font-size:8.00000381px;font-family:Arial;fill:#cc79a7;stroke:none;stroke-width:0.0666667"
     id="text72"
     transform="translate(-0.6169146,-0.6169146)">
    <path
       d="m 132.31169,15.271374 h -0.70312 v -4.480471 q -0.25391,0.242187 -0.66797,0.484375 -0.41016,0.242188 -0.73828,0.363282 v -0.679688 q 0.58984,-0.277344 1.03125,-0.671876 0.4414,-0.3945311 0.625,-0.765625 h 0.45312 z"
       style="font-style:normal;font-weight:normal;font-size:8.00000381px;font-family:Arial;fill:#cc79a7;stroke:none;stroke-width:0.0666667"
       id="path1125"
       inkscape:connector-curvature="0" />
  </g>
  <path
     stroke="none"
     fill="#000000"
     transform="matrix(0.0666667 0 0 0.0666667 0.488821 -91.4)"
     d="M 4204.2,1852.52 L 4209.3,1861.35 L 4007.41,1977.91 L 4007.41,1966.13 L 4204.2,1852.52 Z "
     id="path76" />
  <path
     stroke="none"
     fill="#000000"
     transform="matrix(0.0666667 0 0 0.0666667 0.488821 -91.4)"
     d="M 4033.23,2122.86 L 4023.03,2122.86 L 4023.03,1960.06 L 4033.23,1960.06 L 4033.23,2122.86 Z "
     id="path78" />
  <path
     stroke="none"
     fill="#000000"
     transform="matrix(0.0666667 0 0 0.0666667 0.488821 -91.4)"
     d="M 3991.8,2122.86 L 3981.59,2122.86 L 3981.59,1960.06 L 3991.8,1960.06 L 3991.8,2122.86 Z "
     id="path80" />
  <path
     stroke="none"
     fill="#000000"
     transform="matrix(0.0666667 0 0 0.0666667 0.488821 -91.4)"
     d="M 3887.63,1908.75 L 3892.73,1899.92 L 4007.41,1966.13 L 4007.41,1977.91 L 3887.63,1908.75 Z "
     id="path82" />
  <g
     aria-label="O"
     transform="matrix(0.0666667,0,0,0.0666667,263.501,59.613)"
     style="font-style:normal;font-weight:normal;font-size:160px;font-family:Arial;fill:#000000;stroke:none"
     id="text84">
    <path
       d="m 7.734375,-55.78125 q 0,-28.515625 15.3125,-44.60938 15.3125,-16.17187 39.53125,-16.17187 15.859375,0 28.59375,7.57812 12.734375,7.57813 19.375005,21.17188 6.71875,13.515625 6.71875,30.703125 0,17.421875 -7.03125,31.171875 -7.03125,13.75 -19.92188,20.859375 -12.890625,7.03125 -27.8125,7.03125 -16.171875,0 -28.90625,-7.8125 -12.734375,-7.8125 -19.296875,-21.328125 -6.5625,-13.515625 -6.5625,-28.59375 z m 15.625,0.234375 q 0,20.703125 11.09375,32.65625 11.171875,11.875 27.96875,11.875 17.109375,0 28.125,-12.03125 11.093755,-12.03125 11.093755,-34.140625 0,-13.984375 -4.76563,-24.375 -4.6875,-10.46875 -13.828125,-16.171875 -9.0625,-5.781255 -20.390625,-5.781255 -16.09375,0 -27.734375,11.093755 -11.5625,11.015625 -11.5625,36.875 z"
       style="font-style:normal;font-weight:normal;font-size:160px;font-family:Arial;fill:#000000;stroke:none"
       id="path1122"
       inkscape:connector-curvature="0" />
  </g>
  <g
     aria-label="N"
     transform="matrix(0.0666667,0,0,0.0666667,250.509,36.5957)"
     style="font-style:normal;font-weight:normal;font-size:160px;font-family:Arial;fill:#009e73;stroke:none"
     id="text86">
    <path
       d="m 12.1875,0 v -114.53125 h 15.546875 l 60.15625,89.921875 V -114.53125 H 102.42188 V 0 H 86.875 L 26.71875,-90 V 0 Z"
       style="font-style:normal;font-weight:normal;font-size:160px;font-family:Arial;fill:#009e73;stroke:none"
       id="path1119"
       inkscape:connector-curvature="0" />
  </g>
  <path
     stroke="none"
     fill="#000000"
     transform="matrix(0.0666667 0 0 0.0666667 0.488821 -91.4)"
     d="M 3823.46,1649.86 L 3870.23,1658.81 L 3866.78,1668.54 L 3823.07,1660.18 L 3823.46,1649.86 Z "
     id="path88"
     style="fill:#cc79a7" />
  <path
     stroke="none"
     fill="#000000"
     transform="matrix(0.0666667 0 0 0.0666667 0.488821 -91.4)"
     d="M 3821.33,1706.59 L 3851.26,1712.31 L 3847.81,1722.04 L 3820.95,1716.9 L 3821.33,1706.59 Z "
     id="path90"
     style="fill:#cc79a7" />
  <path
     stroke="none"
     fill="#000000"
     transform="matrix(0.0666667 0 0 0.0666667 0.488821 -91.4)"
     d="M 3819.21,1763.32 L 3832.29,1765.82 L 3828.85,1775.55 L 3818.82,1773.63 L 3819.21,1763.32 Z "
     id="path92"
     style="fill:#cc79a7" />
  <path
     stroke="none"
     fill="#000000"
     transform="matrix(0.0666667 0 0 0.0666667 0.488821 -91.4)"
     d="M 3643.48,1498.66 L 3645.89,1488.27 L 3857,1610.16 L 3851.9,1618.99 L 3643.48,1498.66 Z "
     id="path94"
     style="fill:#cc79a7" />
  <path
     stroke="none"
     fill="#000000"
     transform="matrix(0.0666667 0 0 0.0666667 0.488821 -91.4)"
     d="M 3462.51,1510.96 L 3428.4,1503.05 L 3645.89,1488.27 L 3643.48,1498.66 L 3462.51,1510.96 Z "
     id="path96"
     style="fill:#cc79a7" />
  <path
     stroke="none"
     fill="#000000"
     transform="matrix(0.0666667 0 0 0.0666667 0.488821 -91.4)"
     d="M 3631.93,1620.57 L 3709.45,1653.54 L 3764.5,1774.85 L 3755.76,1780.12 L 3631.93,1620.57 Z "
     id="path98"
     style="fill:#cc79a7" />
  <path
     stroke="none"
     fill="#000000"
     transform="matrix(0.0666667 0 0 0.0666667 0.488821 -91.4)"
     d="M 3709.45,1653.54 L 3631.93,1620.57 L 3428.4,1503.05 L 3462.51,1510.96 L 3709.45,1653.54 Z "
     id="path100"
     style="fill:#cc79a7" />
  <path
     stroke="none"
     fill="#000000"
     transform="matrix(0.0666667 0 0 0.0666667 0.488821 -91.4)"
     d="M 5764.29,1852.52 L 5769.39,1861.35 L 5567.5,1977.91 L 5567.5,1966.13 L 5764.29,1852.52 Z "
     id="path102" />
  <path
     stroke="none"
     fill="#000000"
     transform="matrix(0.0666667 0 0 0.0666667 0.488821 -91.4)"
     d="M 5593.32,2122.86 L 5583.12,2122.86 L 5583.12,1960.06 L 5593.32,1960.06 L 5593.32,2122.86 Z "
     id="path104" />
  <path
     stroke="none"
     fill="#000000"
     transform="matrix(0.0666667 0 0 0.0666667 0.488821 -91.4)"
     d="M 5551.89,2122.86 L 5541.69,2122.86 L 5541.69,1960.06 L 5551.89,1960.06 L 5551.89,2122.86 Z "
     id="path106" />
  <g
     aria-label="N"
     transform="matrix(0.0666667,0,0,0.0666667,354.515,36.5957)"
     style="font-style:normal;font-weight:normal;font-size:160px;font-family:Arial;fill:#009e73;stroke:none"
     id="text108">
    <path
       d="m 12.1875,0 v -114.53125 h 15.546875 l 60.15625,89.921875 V -114.53125 H 102.42188 V 0 H 86.875 L 26.71875,-90 V 0 Z"
       style="font-style:normal;font-weight:normal;font-size:160px;font-family:Arial;fill:#009e73;stroke:none"
       id="path1116"
       inkscape:connector-curvature="0" />
  </g>
  <path
     stroke="none"
     fill="#000000"
     transform="matrix(0.0666667 0 0 0.0666667 0.488821 -91.4)"
     d="M 5447.72,1908.75 L 5452.82,1899.92 L 5567.5,1966.13 L 5567.5,1977.91 L 5447.72,1908.75 Z "
     id="path110" />
  <g
     aria-label="O"
     transform="matrix(0.0666667,0,0,0.0666667,367.507,59.613)"
     style="font-style:normal;font-weight:normal;font-size:160px;font-family:Arial;fill:#000000;stroke:none"
     id="text112">
    <path
       d="m 7.734375,-55.78125 q 0,-28.515625 15.3125,-44.60938 15.3125,-16.17187 39.53125,-16.17187 15.859375,0 28.59375,7.57812 12.734375,7.57813 19.375005,21.17188 6.71875,13.515625 6.71875,30.703125 0,17.421875 -7.03125,31.171875 -7.03125,13.75 -19.92188,20.859375 -12.890625,7.03125 -27.8125,7.03125 -16.171875,0 -28.90625,-7.8125 -12.734375,-7.8125 -19.296875,-21.328125 -6.5625,-13.515625 -6.5625,-28.59375 z m 15.625,0.234375 q 0,20.703125 11.09375,32.65625 11.171875,11.875 27.96875,11.875 17.109375,0 28.125,-12.03125 11.093755,-12.03125 11.093755,-34.140625 0,-13.984375 -4.76563,-24.375 -4.6875,-10.46875 -13.828125,-16.171875 -9.0625,-5.781255 -20.390625,-5.781255 -16.09375,0 -27.734375,11.093755 -11.5625,11.015625 -11.5625,36.875 z"
       style="font-style:normal;font-weight:normal;font-size:160px;font-family:Arial;fill:#000000;stroke:none"
       id="path1113"
       inkscape:connector-curvature="0" />
  </g>
  <g
     aria-label="Z"
     transform="matrix(0.0666667,0,0,0.0666667,361.83,18.2737)"
     style="font-style:normal;font-weight:normal;font-size:160px;font-family:Arial;fill:#cc79a7;stroke:none"
     id="text114">
    <path
       d="M 3.203125,0 V -14.0625 L 61.875,-87.421875 q 6.25,-7.8125 11.875,-13.593755 H 9.84375 v -13.51562 H 91.875 v 13.51562 L 27.578125,-21.5625 20.625,-13.515625 H 93.75 V 0 Z"
       style="font-style:normal;font-weight:normal;font-size:160px;font-family:Arial;fill:#cc79a7;stroke:none"
       id="path1110"
       inkscape:connector-curvature="0" />
  </g>
  <path
     stroke="none"
     fill="#000000"
     transform="matrix(0.0666667 0 0 0.0666667 0.488821 -91.4)"
     d="M 5411.87,1668.67 L 5456.58,1685.07 L 5451.32,1694.01 L 5410.1,1678.89 L 5411.87,1668.67 Z "
     id="path116" />
  <path
     stroke="none"
     fill="#000000"
     transform="matrix(0.0666667 0 0 0.0666667 0.488821 -91.4)"
     d="M 5403.85,1714.99 L 5432.74,1725.58 L 5427.48,1734.52 L 5402.09,1725.21 L 5403.85,1714.99 Z "
     id="path118" />
  <path
     stroke="none"
     fill="#000000"
     transform="matrix(0.0666667 0 0 0.0666667 0.488821 -91.4)"
     d="M 5395.84,1761.3 L 5408.91,1766.09 L 5403.65,1775.03 L 5394.07,1771.52 L 5395.84,1761.3 Z "
     id="path120" />
  <g
     aria-label="X"
     transform="matrix(0.0666667,0,0,0.0666667,344.387,19.8067)"
     style="font-style:normal;font-weight:normal;font-size:160px;font-family:Arial;fill:#cc79a7;stroke:none"
     id="text122">
    <path
       d="M 0.703125,0 45,-59.6875 5.9375,-114.53125 h 18.046875 l 20.78125,29.375 q 6.484375,9.140625 9.21875,14.0625 3.828125,-6.25 9.0625,-13.046875 L 86.09375,-114.53125 h 16.48438 L 62.34375,-60.546875 105.70313,0 H 86.953125 L 58.125,-40.859375 q -2.421875,-3.515625 -5,-7.65625 -3.828125,6.25 -5.46875,8.59375 L 18.90625,0 Z"
       style="font-style:normal;font-weight:normal;font-size:160px;font-family:Arial;fill:#cc79a7;stroke:none"
       id="path1107"
       inkscape:connector-curvature="0" />
  </g>
  <path
     stroke="none"
     fill="#000000"
     transform="matrix(0.0666667 0 0 0.0666667 0.488821 -91.4)"
     d="M 5247.63,1707.91 L 5288.09,1682.8 L 5323.48,1775.28 L 5314.81,1780.66 L 5247.63,1707.91 Z "
     id="path124" />
  <path
     stroke="none"
     fill="#ffffff"
     transform="matrix(0.0666667 0 0 0.0666667 0.488821 -91.4)"
     d="M 5304.42,1950.69 C 5319.68,1965.94 5283.06,2028.93 5267.67,2044.31 C 5248.88,2063.11 5231.18,2072.75 5206.76,2048.34 C 5182.35,2023.93 5191.99,2006.23 5210.79,1987.43 C 5226.17,1972.05 5289.16,1935.43 5304.42,1950.69 "
     id="path126" />
  <path
     stroke="#ffffff"
     stroke-width="1"
     fill="none"
     transform="matrix(0.0666667 0 0 0.0666667 0.488821 -91.4)"
     d="M 5304.42,1950.69 C 5319.68,1965.94 5283.06,2028.93 5267.67,2044.31 C 5248.88,2063.11 5231.18,2072.75 5206.76,2048.34 C 5182.35,2023.93 5191.99,2006.23 5210.79,1987.43 C 5226.17,1972.05 5289.16,1935.43 5304.42,1950.69 "
     id="path128" />
  <path
     stroke="#009e73"
     stroke-width="10"
     fill="none"
     transform="matrix(0.0666667 0 0 0.0666667 0.488821 -91.4)"
     d="M 5304.42,1950.69 C 5319.68,1965.94 5283.06,2028.93 5267.67,2044.31 C 5248.88,2063.11 5231.18,2072.75 5206.76,2048.34 C 5182.35,2023.93 5191.99,2006.23 5210.79,1987.43 C 5226.17,1972.05 5289.16,1935.43 5304.42,1950.69 "
     id="path130" />
  <path
     stroke="none"
     fill="#ffffff"
     transform="matrix(0.0666667 0 0 0.0666667 0.488821 -91.4)"
     d="M 3744.33,1950.69 C 3759.59,1965.94 3722.96,2028.93 3707.58,2044.31 C 3688.78,2063.11 3671.09,2072.75 3646.67,2048.34 C 3622.26,2023.93 3631.9,2006.23 3650.7,1987.43 C 3666.08,1972.05 3729.07,1935.43 3744.33,1950.69 "
     id="path132" />
  <path
     stroke="#ffffff"
     stroke-width="1"
     fill="none"
     transform="matrix(0.0666667 0 0 0.0666667 0.488821 -91.4)"
     d="M 3744.33,1950.69 C 3759.59,1965.94 3722.96,2028.93 3707.58,2044.31 C 3688.78,2063.11 3671.09,2072.75 3646.67,2048.34 C 3622.26,2023.93 3631.9,2006.23 3650.7,1987.43 C 3666.08,1972.05 3729.07,1935.43 3744.33,1950.69 "
     id="path134" />
  <path
     stroke="#009e73"
     stroke-width="10"
     fill="none"
     transform="matrix(0.0666667 0 0 0.0666667 0.488821 -91.4)"
     d="M 3744.33,1950.69 C 3759.59,1965.94 3722.96,2028.93 3707.58,2044.31 C 3688.78,2063.11 3671.09,2072.75 3646.67,2048.34 C 3622.26,2023.93 3631.9,2006.23 3650.7,1987.43 C 3666.08,1972.05 3729.07,1935.43 3744.33,1950.69 "
     id="path136" />
  <path
     stroke="none"
     fill="#ffffff"
     transform="matrix(0.0666667 0 0 0.0666667 0.488821 -91.4)"
     d="M 2014.85,1950.69 C 2030.1,1965.94 1993.48,2028.93 1978.1,2044.31 C 1959.3,2063.11 1941.61,2072.75 1917.19,2048.34 C 1892.78,2023.93 1902.42,2006.23 1921.22,1987.43 C 1936.6,1972.05 1999.59,1935.43 2014.85,1950.69 "
     id="path138" />
  <path
     stroke="#ffffff"
     stroke-width="1"
     fill="none"
     transform="matrix(0.0666667 0 0 0.0666667 0.488821 -91.4)"
     d="M 2014.85,1950.69 C 2030.1,1965.94 1993.48,2028.93 1978.1,2044.31 C 1959.3,2063.11 1941.61,2072.75 1917.19,2048.34 C 1892.78,2023.93 1902.42,2006.23 1921.22,1987.43 C 1936.6,1972.05 1999.59,1935.43 2014.85,1950.69 "
     id="path140" />
  <path
     stroke="#009e73"
     stroke-width="10"
     fill="none"
     transform="matrix(0.0666667 0 0 0.0666667 0.488821 -91.4)"
     d="M 2014.85,1950.69 C 2030.1,1965.94 1993.48,2028.93 1978.1,2044.31 C 1959.3,2063.11 1941.61,2072.75 1917.19,2048.34 C 1892.78,2023.93 1902.42,2006.23 1921.22,1987.43 C 1936.6,1972.05 1999.59,1935.43 2014.85,1950.69 "
     id="path142" />
  <path
     stroke="none"
     fill="#ffffff"
     transform="matrix(0.0666667 0 0 0.0666667 0.488821 -91.4)"
     d="M 434.411,1947.4 C 449.669,1962.66 413.048,2025.64 397.668,2041.02 C 378.869,2059.82 361.17,2069.47 336.757,2045.05 C 312.343,2020.64 321.988,2002.94 340.786,1984.14 C 356.166,1968.76 419.152,1932.14 434.411,1947.4 "
     id="path144" />
  <path
     stroke="#ffffff"
     stroke-width="1"
     fill="none"
     transform="matrix(0.0666667 0 0 0.0666667 0.488821 -91.4)"
     d="M 434.411,1947.4 C 449.669,1962.66 413.048,2025.64 397.668,2041.02 C 378.869,2059.82 361.17,2069.47 336.757,2045.05 C 312.343,2020.64 321.988,2002.94 340.786,1984.14 C 356.166,1968.76 419.152,1932.14 434.411,1947.4 "
     id="path146" />
  <path
     stroke="#009e73"
     stroke-width="10"
     fill="none"
     transform="matrix(0.0666667 0 0 0.0666667 0.488821 -91.4)"
     d="M 434.411,1947.4 C 449.669,1962.66 413.048,2025.64 397.668,2041.02 C 378.869,2059.82 361.17,2069.47 336.757,2045.05 C 312.343,2020.64 321.988,2002.94 340.786,1984.14 C 356.166,1968.76 419.152,1932.14 434.411,1947.4 "
     id="path148" />
  <path
     stroke="none"
     fill="#009e73"
     transform="matrix(0.0666667 0 0 0.0666667 0.488821 -91.4)"
     d="M 342.962,2005.89 A 11.3333,11.3333 0 1 0 365.628,2005.89A 11.3333,11.3333 0 1 0 342.962,2005.89Z "
     id="path150" />
  <path
     stroke="none"
     fill="#009e73"
     transform="matrix(0.0666667 0 0 0.0666667 0.488821 -91.4)"
     d="M 365.837,2027.17 A 11.3333,11.3333 0 1 0 388.503,2027.17A 11.3333,11.3333 0 1 0 365.837,2027.17Z "
     id="path152" />
  <path
     stroke="none"
     fill="#009e73"
     transform="matrix(0.0666667 0 0 0.0666667 0.488821 -91.4)"
     d="M 1924.64,2007.29 A 11.3333,11.3333 0 1 0 1947.31,2007.29A 11.3333,11.3333 0 1 0 1924.64,2007.29Z "
     id="path154" />
  <path
     stroke="none"
     fill="#009e73"
     transform="matrix(0.0666667 0 0 0.0666667 0.488821 -91.4)"
     d="M 1947.51,2028.57 A 11.3333,11.3333 0 1 0 1970.18,2028.57A 11.3333,11.3333 0 1 0 1947.51,2028.57Z "
     id="path156" />
  <path
     stroke="none"
     fill="#009e73"
     transform="matrix(0.0666667 0 0 0.0666667 0.488821 -91.4)"
     d="M 3654.12,2007.29 A 11.3334,11.3334 0 1 0 3676.79,2007.29A 11.3334,11.3334 0 1 0 3654.12,2007.29Z "
     id="path158" />
  <path
     stroke="none"
     fill="#009e73"
     transform="matrix(0.0666667 0 0 0.0666667 0.488821 -91.4)"
     d="M 3677,2028.57 A 11.3334,11.3334 0 1 0 3699.66,2028.57A 11.3334,11.3334 0 1 0 3677,2028.57Z "
     id="path160" />
  <path
     stroke="none"
     fill="#009e73"
     transform="matrix(0.0666667 0 0 0.0666667 0.488821 -91.4)"
     d="M 5214.21,2007.29 A 11.3334,11.3334 0 1 0 5236.88,2007.29A 11.3334,11.3334 0 1 0 5214.21,2007.29Z "
     id="path162" />
  <path
     stroke="none"
     fill="#009e73"
     transform="matrix(0.0666667 0 0 0.0666667 0.488821 -91.4)"
     d="M 5237.09,2028.57 A 11.3334,11.3334 0 1 0 5259.75,2028.57A 11.3334,11.3334 0 1 0 5237.09,2028.57Z "
     id="path164" />
  <text
     x="15.530496"
     y="80.138153"
     font-style="normal"
     font-weight="normal"
     font-size="160px"
     id="text166"
     style="font-style:normal;font-weight:normal;font-size:10.66667175px;font-family:Arial;fill:#e69f00;stroke:none;stroke-width:0.0666667">naprężenia</text>
  <text
     x="20.311749"
     y="95.261276"
     font-style="normal"
     font-weight="normal"
     font-size="160px"
     id="text168"
     style="font-style:normal;font-weight:normal;font-size:10.66667175px;font-family:Arial;fill:#e69f00;stroke:none;stroke-width:0.0666667">mostkowe</text>
  <text
     x="136.32222"
     y="80.138153"
     font-style="normal"
     font-weight="normal"
     font-size="160px"
     id="text170"
     style="font-style:normal;font-weight:normal;font-size:10.66667175px;font-family:Arial;fill:#e69f00;stroke:none;stroke-width:0.0666667">zawada</text>
  <text
     x="111.40554"
     y="95.089401"
     font-style="normal"
     font-weight="normal"
     font-size="160px"
     id="text172"
     style="font-style:normal;font-weight:normal;font-size:10.66667175px;font-family:Arial;fill:#e69f00;stroke:none;stroke-width:0.0666667">przestrzenna</text>
  <text
     x="235.21811"
     y="80.268364"
     font-style="normal"
     font-weight="normal"
     font-size="160px"
     id="text174"
     style="font-style:normal;font-weight:normal;font-size:10.66667175px;font-family:Arial;fill:#e69f00;stroke:none;stroke-width:0.0666667">konformacja</text>
  <text
     x="242.32228"
     y="95.30294"
     font-style="normal"
     font-weight="normal"
     font-size="160px"
     id="text176"
     style="font-style:normal;font-weight:normal;font-size:10.66667175px;font-family:Arial;fill:#e69f00;stroke:none;stroke-width:0.0666667">pierścienia</text>
  <text
     x="367.29108"
     y="80.268364"
     font-style="normal"
     font-weight="normal"
     font-size="160px"
     id="text178"
     style="font-style:normal;font-weight:normal;font-size:10.66667175px;font-family:Arial;fill:#e69f00;stroke:none;stroke-width:0.0666667">efekty</text>
  <text
     x="338.54108"
     y="95.261276"
     font-style="normal"
     font-weight="normal"
     font-size="160px"
     id="text180"
     style="font-style:normal;font-weight:normal;font-size:10.66667175px;font-family:Arial;fill:#e69f00;stroke:none;stroke-width:0.0666667">elektronowe</text>
  <g
     id="g1022"
     transform="translate(0,0.35489442)">
    <path
       id="path182"
       d="m 40.4496,2122.5 a 29.5542,29.5542 0 1 0 59.1084,0 29.5542,29.5542 0 1 0 -59.1084,0 z"
       transform="matrix(0.0666667,0,0,0.0666667,0.488821,-91.4)"
       inkscape:connector-curvature="0"
       style="fill:#e69f00;stroke:none" />
    <path
       id="path184"
       d="m 75.0038,2116.4 v 519.85 h -10 V 2116.4 Z"
       transform="matrix(0.0666667,0,0,0.0666667,0.488821,-91.4)"
       inkscape:connector-curvature="0"
       style="fill:#e69f00;stroke:none" />
    <path
       id="path186"
       d="M 70.0038,2631.25 H 1011.25 v 10 H 70.0038 Z"
       transform="matrix(0.0666667,0,0,0.0666667,0.488821,-91.4)"
       inkscape:connector-curvature="0"
       style="fill:#e69f00;stroke:none" />
  </g>
  <g
     id="g1027"
     transform="translate(0,0.35489442)">
    <path
       id="path188"
       d="m 1611.7,2122.5 a 29.555,29.555 0 1 0 59.11,0 29.555,29.555 0 1 0 -59.11,0 z"
       transform="matrix(0.0666667,0,0,0.0666667,0.488821,-91.4)"
       inkscape:connector-curvature="0"
       style="fill:#e69f00;stroke:none" />
    <path
       transform="matrix(0.0666667,0,0,0.0666667,0.488821,-91.4)"
       id="path190"
       d="m 1646.25,2116.4 v 519.85 h -10 V 2116.4 Z"
       inkscape:connector-curvature="0"
       style="fill:#e69f00;stroke:none" />
    <path
       id="path192"
       d="m 1641.25,2631.25 h 941.25 v 10 h -941.25 z"
       transform="matrix(0.0666667,0,0,0.0666667,0.488821,-91.4)"
       inkscape:connector-curvature="0"
       style="fill:#e69f00;stroke:none" />
  </g>
  <g
     id="g1032"
     transform="translate(0,-0.89510616)">
    <path
       id="path194"
       d="m 3415.45,2141.25 a 29.555,29.555 0 1 0 59.11,0 29.555,29.555 0 1 0 -59.11,0 z"
       transform="matrix(0.0666667,0,0,0.0666667,0.488821,-91.4)"
       inkscape:connector-curvature="0"
       style="fill:#e69f00;stroke:none" />
    <path
       id="path196"
       d="M 3450,2135.15 V 2655 h -10 v -519.85 z"
       transform="matrix(0.0666667,0,0,0.0666667,0.488821,-91.4)"
       inkscape:connector-curvature="0"
       style="fill:#e69f00;stroke:none" />
    <path
       transform="matrix(0.0666667,0,0,0.0666667,0.488821,-91.4)"
       id="path198"
       d="m 3445,2650 h 941.25 v 10 H 3445 Z"
       inkscape:connector-curvature="0"
       style="fill:#e69f00;stroke:none" />
  </g>
  <g
     id="g1037"
     transform="translate(0,-0.89510616)">
    <path
       id="path200"
       d="m 4956.7,2141.25 a 29.555,29.555 0 1 0 59.11,0 29.555,29.555 0 1 0 -59.11,0 z"
       transform="matrix(0.0666667,0,0,0.0666667,0.488821,-91.4)"
       inkscape:connector-curvature="0"
       style="fill:#e69f00;stroke:none" />
    <path
       id="path202"
       d="M 4991.25,2135.15 V 2655 h -10 v -519.85 z"
       transform="matrix(0.0666667,0,0,0.0666667,0.488821,-91.4)"
       inkscape:connector-curvature="0"
       style="fill:#e69f00;stroke:none" />
    <path
       transform="matrix(0.0666667,0,0,0.0666667,0.488821,-91.4)"
       id="path204"
       d="m 4986.25,2650 h 941.25 v 10 h -941.25 z"
       inkscape:connector-curvature="0"
       style="fill:#e69f00;stroke:none" />
  </g>
  <path
     inkscape:connector-curvature="0"
     style="fill:#000000;stroke:none;stroke-width:0.0666667"
     d="m 142.08473,20.580429 2.70827,1.656793 -0.46076,0.515633 -2.49687,-1.527478 z"
     id="path116-3"
     inkscape:transform-center-x="-0.40991131"
     inkscape:transform-center-y="-2.9534046" />
  <path
     inkscape:connector-curvature="0"
     style="fill:#000000;stroke:none;stroke-width:0.0666667"
     d="m 140.95469,23.50355 1.75009,1.070097 -0.46078,0.515631 -1.53802,-0.940649 z"
     id="path118-8"
     inkscape:transform-center-x="1.1988937"
     inkscape:transform-center-y="-0.32363259" />
  <path
     inkscape:connector-curvature="0"
     style="fill:#000000;stroke:none;stroke-width:0.0666667"
     d="m 139.82544,26.426147 0.79176,0.484055 -0.46077,0.515633 -0.58035,-0.354739 z"
     id="path120-3"
     inkscape:transform-center-x="2.8076337"
     inkscape:transform-center-y="2.3059444" />
  <path
     inkscape:connector-curvature="0"
     style="fill:#000000;stroke:none;stroke-width:0.0666667"
     d="m 130.9176,23.164472 2.61745,-1.796335 2.64052,6.05025 -0.56089,0.384882 z"
     id="path124-3" />
</svg>
