<?xml version="1.0" encoding="UTF-8" standalone="no"?>
<svg
   xmlns:dc="http://purl.org/dc/elements/1.1/"
   xmlns:cc="http://creativecommons.org/ns#"
   xmlns:rdf="http://www.w3.org/1999/02/22-rdf-syntax-ns#"
   xmlns:svg="http://www.w3.org/2000/svg"
   xmlns="http://www.w3.org/2000/svg"
   xmlns:sodipodi="http://sodipodi.sourceforge.net/DTD/sodipodi-0.dtd"
   xmlns:inkscape="http://www.inkscape.org/namespaces/inkscape"
   viewBox="103.93 294.38 81.81 33.16"
   preserveAspectRatio="xMidYMid"
   width="100%"
   height="100%"
   version="1.1"
   id="svg132"
   sodipodi:docname="pyramidization-full.svg"
   inkscape:version="0.92.3 (2405546, 2018-03-11)">
  <metadata
     id="metadata138">
    <rdf:RDF>
      <cc:Work
         rdf:about="">
        <dc:format>image/svg+xml</dc:format>
        <dc:type
           rdf:resource="http://purl.org/dc/dcmitype/StillImage" />
      </cc:Work>
    </rdf:RDF>
  </metadata>
  <defs
     id="defs136">
    <marker
       inkscape:stockid="Arrow2Send"
       orient="auto"
       refY="0.0"
       refX="0.0"
       id="Arrow2Send"
       style="overflow:visible;"
       inkscape:isstock="true">
      <path
         id="path1153"
         style="fill-rule:evenodd;stroke-width:0.625;stroke-linejoin:round;stroke:#cc79a7;stroke-opacity:1;fill:#cc79a7;fill-opacity:1"
         d="M 8.7185878,4.0337352 L -2.2072895,0.016013256 L 8.7185884,-4.0017078 C 6.9730900,-1.6296469 6.9831476,1.6157441 8.7185878,4.0337352 z "
         transform="scale(0.3) rotate(180) translate(-2.3,0)" />
    </marker>
  </defs>
  <sodipodi:namedview
     pagecolor="#ffffff"
     bordercolor="#666666"
     borderopacity="1"
     objecttolerance="10"
     gridtolerance="10"
     guidetolerance="10"
     inkscape:pageopacity="0"
     inkscape:pageshadow="2"
     inkscape:window-width="1920"
     inkscape:window-height="1017"
     id="namedview134"
     showgrid="false"
     inkscape:zoom="2.20022"
     inkscape:cx="35.042121"
     inkscape:cy="27.787739"
     inkscape:window-x="-8"
     inkscape:window-y="-8"
     inkscape:window-maximized="1"
     inkscape:current-layer="svg132"
     showguides="true"
     inkscape:guide-bbox="true" />
  <clipPath
     id="55">
    <rect
       x="0.255"
       y="0.255"
       width="302.72"
       height="769.29"
       id="rect2" />
  </clipPath>
  <path
     style="fill:#009e73;fill-opacity:0.39215686;stroke:none;stroke-width:1.37362838;stroke-linecap:butt;stroke-linejoin:round;stroke-miterlimit:4;stroke-dasharray:none;stroke-opacity:1"
     d="m 134.13122,307.55754 11.98379,13.23409 39.60493,-13.06734 -51.58872,-0.16675"
     id="path1116"
     inkscape:connector-curvature="0" />
  <g
     aria-label="HO"
     style="font-size:27.4725647px;text-anchor:end;stroke-width:2.28938031;text-rendering:geometricPrecision"
     id="text9"
     transform="translate(3.5897704,16.544591)"
     inkscape:transform-center-x="3.718879"
     inkscape:transform-center-y="-0.028139526">
    <path
       d="m 63.168672,325.47076 v -8.19392 h 1.084325 v 3.36476 h 4.259053 v -3.36476 h 1.084326 v 8.19392 H 68.51205 v -3.86221 h -4.259053 v 3.86221 z"
       style="font-size:11.44690228px;font-family:Arial;fill:#000000;stroke-width:2.28938031"
       id="path1788"
       inkscape:connector-curvature="0" />
    <path
       d="m 71.077542,321.48 q 0,-2.0401 1.095505,-3.1915 1.095504,-1.15698 2.828189,-1.15698 1.13463,0 2.045687,0.54216 0.911057,0.54216 1.386148,1.5147 0.480681,0.96695 0.480681,2.1966 0,1.24642 -0.503038,2.23013 -0.503038,0.98372 -1.425273,1.49235 -0.922236,0.50304 -1.989794,0.50304 -1.156987,0 -2.068044,-0.55893 -0.911057,-0.55893 -1.380559,-1.52588 -0.469502,-0.96696 -0.469502,-2.04569 z m 1.117862,0.0168 q 0,1.48116 0.793682,2.33633 0.799271,0.84957 2.000972,0.84957 1.224058,0 2.012151,-0.86075 0.793681,-0.86076 0.793681,-2.44253 0,-1.00049 -0.340947,-1.74386 -0.335359,-0.74897 -0.989308,-1.15699 -0.64836,-0.41361 -1.458809,-0.41361 -1.151398,0 -1.984205,0.79368 -0.827217,0.7881 -0.827217,2.63816 z"
       style="font-size:11.44690228px;font-family:Arial;fill:#000000;stroke-width:2.28938031"
       id="path1790"
       inkscape:connector-curvature="0" />
  </g>
  <g
     aria-label="O"
     style="font-size:27.4725647px;text-anchor:start;stroke-width:2.28938031;text-rendering:geometricPrecision"
     id="text15"
     transform="translate(-5.9280953,5.0873996)">
    <path
       d="m 125.8778,285.46807 q 0,-2.0401 1.09551,-3.1915 1.0955,-1.15699 2.82819,-1.15699 1.13463,0 2.04569,0.54217 0.91105,0.54216 1.38614,1.5147 0.48068,0.96695 0.48068,2.1966 0,1.24641 -0.50303,2.23013 -0.50304,0.98372 -1.42528,1.49235 -0.92223,0.50303 -1.98979,0.50303 -1.15699,0 -2.06804,-0.55893 -0.91106,-0.55893 -1.38056,-1.52588 -0.46951,-0.96695 -0.46951,-2.04568 z m 1.11787,0.0168 q 0,1.48117 0.79368,2.33633 0.79927,0.84958 2.00097,0.84958 1.22406,0 2.01215,-0.86075 0.79368,-0.86076 0.79368,-2.44253 0,-1.00049 -0.34095,-1.74387 -0.33535,-0.74896 -0.9893,-1.15698 -0.64836,-0.41361 -1.45881,-0.41361 -1.1514,0 -1.98421,0.79368 -0.82721,0.78809 -0.82721,2.63815 z"
       style="font-size:11.44690228px;font-family:Arial;fill:#000000;stroke-width:2.28938031"
       id="path1793"
       inkscape:connector-curvature="0" />
  </g>
  <g
     aria-label="OH"
     style="font-size:27.4725647px;text-anchor:start;stroke-width:2.28938031;text-rendering:geometricPrecision"
     id="text21"
     transform="translate(-0.03756602,-18.455553)"
     inkscape:transform-center-x="-3.8730956"
     inkscape:transform-center-y="0.061440042">
    <path
       d="m 226.19842,323.15129 q 0,-2.04009 1.09551,-3.19149 1.0955,-1.15699 2.82819,-1.15699 1.13463,0 2.04568,0.54217 0.91106,0.54216 1.38615,1.5147 0.48068,0.96695 0.48068,2.1966 0,1.24641 -0.50304,2.23013 -0.50303,0.98372 -1.42527,1.49234 -0.92224,0.50304 -1.98979,0.50304 -1.15699,0 -2.06805,-0.55893 -0.91105,-0.55893 -1.38056,-1.52588 -0.4695,-0.96695 -0.4695,-2.04569 z m 1.11786,0.0168 q 0,1.48117 0.79369,2.33633 0.79927,0.84958 2.00097,0.84958 1.22406,0 2.01215,-0.86076 0.79368,-0.86075 0.79368,-2.44252 0,-1.00049 -0.34095,-1.74387 -0.33536,-0.74897 -0.98931,-1.15698 -0.64835,-0.41361 -1.4588,-0.41361 -1.1514,0 -1.98421,0.79368 -0.82722,0.78809 -0.82722,2.63815 z"
       style="font-size:11.44690228px;font-family:Arial;fill:#000000;stroke-width:2.28938031"
       id="path1796"
       inkscape:connector-curvature="0" />
    <path
       d="m 235.45991,327.14206 v -8.19393 h 1.08432 v 3.36477 h 4.25905 v -3.36477 h 1.08433 v 8.19393 h -1.08433 v -3.86221 h -4.25905 v 3.86221 z"
       style="font-size:11.44690228px;font-family:Arial;fill:#000000;stroke-width:2.28938031"
       id="path1798"
       inkscape:connector-curvature="0" />
  </g>
  <g
     aria-label="O"
     style="font-size:27.4725647px;text-anchor:start;stroke-width:2.28938031;text-rendering:geometricPrecision"
     id="text27"
     transform="translate(-8.2453747,-10.992936)">
    <path
       d="m 206.84377,283.33898 q 0,-2.0401 1.09551,-3.1915 1.0955,-1.15698 2.82819,-1.15698 1.13463,0 2.04568,0.54216 0.91106,0.54216 1.38615,1.5147 0.48068,0.96695 0.48068,2.1966 0,1.24641 -0.50304,2.23013 -0.50303,0.98372 -1.42527,1.49235 -0.92224,0.50304 -1.98979,0.50304 -1.15699,0 -2.06805,-0.55894 -0.91105,-0.55893 -1.38056,-1.52588 -0.4695,-0.96695 -0.4695,-2.04568 z m 1.11786,0.0168 q 0,1.48117 0.79369,2.33634 0.79927,0.84957 2.00097,0.84957 1.22406,0 2.01215,-0.86075 0.79368,-0.86076 0.79368,-2.44253 0,-1.00049 -0.34095,-1.74386 -0.33536,-0.74897 -0.98931,-1.15699 -0.64835,-0.41361 -1.4588,-0.41361 -1.1514,0 -1.98421,0.79368 -0.82722,0.78809 -0.82722,2.63815 z"
       style="font-size:11.44690228px;font-family:Arial;fill:#000000;stroke-width:2.28938031"
       id="path1801"
       inkscape:connector-curvature="0" />
  </g>
  <g
     aria-label="N"
     style="font-size:27.4725647px;text-anchor:start;stroke-width:2.28938031;text-rendering:geometricPrecision"
     id="text33"
     transform="translate(-5.5772397,-2.1865645)">
    <path
       d="m 158.31639,294.63278 v -8.19392 h 1.11227 l 4.30377,6.43329 v -6.43329 h 1.03961 v 8.19392 h -1.11227 L 159.356,288.1939 v 6.43888 z"
       style="font-size:11.44690228px;font-family:Arial;fill:#000000;stroke-width:2.28938031"
       id="path1804"
       inkscape:connector-curvature="0" />
  </g>
  <g
     aria-label="Me"
     style="font-size:27.4725647px;text-anchor:end;stroke-width:2.28938031;text-rendering:geometricPrecision"
     id="text39"
     transform="translate(-1.3240542,18.586125)"
     inkscape:transform-center-x="4.5314513"
     inkscape:transform-center-y="-0.77092491">
    <path
       d="m 56.432348,302.0733 v -8.19392 h 1.632078 l 1.939489,5.8017 q 0.268287,0.81045 0.391252,1.21288 0.139733,-0.44715 0.435966,-1.31349 l 1.961847,-5.70109 h 1.458809 v 8.19392 h -1.0452 v -6.85808 l -2.381045,6.85808 h -0.978129 l -2.369867,-6.97545 v 6.97545 z"
       style="font-size:11.44690228px;font-family:Arial;fill:#000000;stroke-width:2.28938031"
       id="path1807"
       inkscape:connector-curvature="0" />
    <path
       d="m 69.947294,300.16176 1.039611,0.12855 q -0.24593,0.91106 -0.911057,1.4141 -0.665128,0.50304 -1.69915,0.50304 -1.302308,0 -2.068044,-0.79927 -0.760145,-0.80486 -0.760145,-2.2525 0,-1.49793 0.771324,-2.32515 0.771324,-0.82721 2.000972,-0.82721 1.190523,0 1.945079,0.81044 0.754557,0.81045 0.754557,2.28044 0,0.0894 -0.0056,0.26829 H 66.58812 q 0.05589,0.97813 0.553341,1.49793 0.497449,0.51981 1.240827,0.51981 0.553341,0 0.944593,-0.29064 0.391251,-0.29065 0.620413,-0.92783 z m -3.303281,-1.62649 h 3.314459 q -0.06707,-0.74897 -0.380073,-1.12345 -0.48068,-0.58129 -1.246415,-0.58129 -0.693074,0 -1.168166,0.46392 -0.469501,0.46391 -0.519805,1.24082 z"
       style="font-size:11.44690228px;font-family:Arial;fill:#000000;stroke-width:2.28938031"
       id="path1809"
       inkscape:connector-curvature="0" />
  </g>
  <g
     aria-label="H"
     style="font-size:27.4725647px;text-anchor:start;stroke-width:2.28938031;text-rendering:geometricPrecision"
     id="text45"
     transform="translate(-5.5511063,12.786215)">
    <path
       d="m 92.610097,287.26108 v -8.19393 h 1.084326 v 3.36477 h 4.259053 v -3.36477 h 1.084325 v 8.19393 h -1.084325 v -3.86221 h -4.259053 v 3.86221 z"
       style="font-size:11.44690228px;font-family:Arial;fill:#000000;stroke-width:2.28938031"
       id="path1812"
       inkscape:connector-curvature="0" />
  </g>
  <path
     style="fill:#000000;fill-rule:evenodd;stroke:#000000;stroke-width:0;stroke-linejoin:miter;shape-rendering:geometricPrecision"
     inkscape:connector-curvature="0"
     id="path49"
     d="m 82.295923,331.46062 v 0 l -0.53369,-0.27622 -0.506236,-0.25906 6.68934,-12.75195 0.936865,-0.52174 0.281467,0.71039 z" />
  <path
     style="stroke:#000000;stroke-width:1.16758394;shape-rendering:auto"
     d="m 129.21903,296.05075 5.92793,10.30896"
     id="line52"
     inkscape:connector-curvature="0" />
  <path
     style="fill:#000000;fill-rule:evenodd;stroke:#000000;stroke-width:0;stroke-linejoin:miter;shape-rendering:geometricPrecision"
     inkscape:connector-curvature="0"
     id="path54"
     d="m 126.73274,297.49411 v 0 l -1.01578,0.58695 6.77915,11.75714 0.74634,-1.04165 z" />
  <path
     style="fill:#000000;fill-rule:evenodd;stroke:#000000;stroke-width:0;stroke-linejoin:miter;shape-rendering:geometricPrecision"
     inkscape:connector-curvature="0"
     id="path60"
     d="m 223.63522,300.87403 v 0 l -0.22647,0.54569 -0.2316,0.5234 -20.54948,-8.81298 -0.10988,-0.67951 -0.10987,-0.6795 z" />
  <path
     style="fill:#000000;fill-rule:evenodd;stroke:#000000;stroke-width:0;stroke-linejoin:miter;shape-rendering:geometricPrecision"
     inkscape:connector-curvature="0"
     id="path66"
     d="m 201.15148,278.1362 v 0 l -1.16737,-3.3e-4 0.005,16.18142 1.17194,-0.37237 z" />
  <path
     style="fill:#000000;fill-rule:evenodd;stroke:#000000;stroke-width:0;stroke-linejoin:miter;shape-rendering:geometricPrecision"
     inkscape:connector-curvature="0"
     id="path68"
     d="m 205.16987,278.12376 v 0 l -1.16734,-3.2e-4 0.0135,14.68738 1.17154,1.26194 z"
     sodipodi:nodetypes="cccccc" />
  <path
     style="fill:#000000;fill-rule:evenodd;stroke:#000000;stroke-width:0;stroke-linejoin:miter;shape-rendering:geometricPrecision"
     inkscape:connector-curvature="0"
     id="path72"
     d="m 152.98337,295.68645 v 0 l 0.58001,0.17153 0.55772,0.1767 -5.21249,24.7464 -2.7936,0.0106 -2.12113,-2.16535 z" />
  <path
     style="fill:#000000;fill-rule:evenodd;stroke:#000000;stroke-width:0;stroke-linejoin:miter;shape-rendering:geometricPrecision"
     inkscape:connector-curvature="0"
     id="path75"
     d="m 150.64415,291.76227 v 0 l 0.76711,0.88021 -0.81499,0.84604 -0.89755,-1.03807 z" />
  <path
     style="fill:#000000;fill-rule:evenodd;stroke:#000000;stroke-width:0;stroke-linejoin:miter;shape-rendering:geometricPrecision"
     inkscape:connector-curvature="0"
     id="path77"
     d="m 147.67917,293.88004 v 0 l 1.21331,1.3881 -0.81501,0.84605 -1.34373,-1.54597 z" />
  <path
     style="fill:#000000;fill-rule:evenodd;stroke:#000000;stroke-width:0;stroke-linejoin:miter;shape-rendering:geometricPrecision"
     inkscape:connector-curvature="0"
     id="path79"
     d="m 144.71417,295.99782 v 0 l 1.63722,1.90112 -0.80985,0.86836 -1.7951,-2.07615 z" />
  <path
     style="fill:#000000;fill-rule:evenodd;stroke:#000000;stroke-width:0;stroke-linejoin:miter;shape-rendering:geometricPrecision"
     inkscape:connector-curvature="0"
     id="path81"
     d="m 141.72688,298.12074 v 0 l 2.11088,2.42617 -0.81501,0.84605 -2.2413,-2.58403 z" />
  <path
     style="fill:#000000;fill-rule:evenodd;stroke:#000000;stroke-width:0;stroke-linejoin:miter;shape-rendering:geometricPrecision"
     inkscape:connector-curvature="0"
     id="path83"
     d="m 138.76191,300.23852 v 0 l 2.53474,2.9392 -0.81499,0.84605 -2.66519,-3.09707 z" />
  <path
     style="fill:#000000;fill-rule:evenodd;stroke:#000000;stroke-width:0;stroke-linejoin:miter;shape-rendering:geometricPrecision"
     inkscape:connector-curvature="0"
     id="path85"
     d="m 135.79691,302.3563 v 0 l 2.98096,3.44709 -0.81501,0.84605 -3.11138,-3.60495 z" />
  <path
     style="fill:#000000;fill-rule:evenodd;stroke:#000000;stroke-width:0;stroke-linejoin:miter;shape-rendering:geometricPrecision"
     inkscape:connector-curvature="0"
     id="path90"
     d="m 162.11546,292.80277 v 0 l 0.30883,-0.49423 0.33629,-0.47706 22.90609,15.15323 0.0533,0.73957 -0.47357,0.39129 z" />
  <path
     style="fill:#000000;fill-rule:evenodd;stroke:#000000;stroke-width:0;stroke-linejoin:miter;shape-rendering:geometricPrecision"
     inkscape:connector-curvature="0"
     id="path94"
     d="m 143.99388,318.62628 v 0 l 2.12113,2.16535 0.38979,2.70604 -27.56134,4.88278 0.0497,-0.59887 1.52539,-1.12753 z" />
  <path
     style="fill:#000000;fill-rule:evenodd;stroke:#000000;stroke-width:0;stroke-linejoin:miter;shape-rendering:geometricPrecision"
     inkscape:connector-curvature="0"
     id="path97"
     d="m 146.5048,323.49767 v 0 l -0.38979,-2.70604 2.7936,-0.0106 23.12786,19.47229 -0.25033,2.17243 -0.25032,2.17244 z" />
  <path
     style="fill:#000000;fill-rule:evenodd;stroke:#000000;stroke-width:0;stroke-linejoin:miter;shape-rendering:geometricPrecision"
     inkscape:connector-curvature="0"
     id="path100"
     d="m 120.51856,326.65405 v 0 l -1.52539,1.12753 -0.23174,-0.69837 14.41562,-20.19824 0.47706,0.33629 0.47709,0.33628 z" />
  <path
     style="fill:#000000;fill-rule:evenodd;stroke:#000000;stroke-width:0;stroke-linejoin:miter;shape-rendering:geometricPrecision"
     inkscape:connector-curvature="0"
     id="path104"
     d="m 118.76144,327.08321 v 0 l 0.23184,0.69835 -0.0497,0.59887 -29.779769,-10.01843 -0.281468,-0.71038 0.607418,-0.42219 z" />
  <path
     style="fill:#000000;fill-rule:evenodd;stroke:#000000;stroke-width:0;stroke-linejoin:miter;shape-rendering:geometricPrecision"
     inkscape:connector-curvature="0"
     id="path108"
     d="m 171.53582,344.59824 v 0 l 0.25032,-2.17244 0.25033,-2.17243 22.67195,-11.50766 1.28538,1.39495 1.28538,1.39496 z" />
  <path
     style="fill:#000000;fill-rule:evenodd;stroke:#000000;stroke-width:0;stroke-linejoin:miter;shape-rendering:geometricPrecision"
     inkscape:connector-curvature="0"
     id="path112"
     d="m 88.338184,317.02537 v 0 l 0.544018,0.62628 -0.936865,0.52174 -15.454051,-0.99037 0.04971,-0.59887 0.03254,-0.57142 z" />
  <path
     style="fill:#000000;fill-rule:evenodd;stroke:#000000;stroke-width:0;stroke-linejoin:miter;shape-rendering:geometricPrecision"
     inkscape:connector-curvature="0"
     id="path116"
     d="m 89.489619,317.22946 v 0 l -0.607417,0.42219 -0.544018,-0.62628 0.808649,-13.69689 0.57142,0.0326 0.593721,0.0274 z" />
  <path
     style="fill:#000000;fill-rule:evenodd;stroke:#000000;stroke-width:0;stroke-linejoin:miter;shape-rendering:geometricPrecision"
     inkscape:connector-curvature="0"
     id="path120"
     d="m 185.24636,308.11558 v 0 l 0.47358,-0.39129 0.71385,0.14064 10.84539,23.67069 -1.28538,-1.39496 -1.28538,-1.39495 z" />
  <path
     style="stroke:#000000;stroke-width:1.16758394;shape-rendering:auto"
     d="m 182.20592,310.72073 7.98771,17.39903"
     id="line122"
     inkscape:connector-curvature="0" />
  <path
     style="fill:#000000;fill-rule:evenodd;stroke:#000000;stroke-width:0;stroke-linejoin:miter;shape-rendering:geometricPrecision"
     inkscape:connector-curvature="0"
     id="path126"
     d="m 186.43379,307.86493 v 0 l -0.71385,-0.14064 -0.0533,-0.73957 16.74122,-15.21358 0.10987,0.6795 0.10988,0.67951 z" />
  <path
     style="fill:#cc79a7;stroke:#cc79a7;stroke-width:1.60256624;stroke-linecap:butt;stroke-linejoin:miter;stroke-miterlimit:4;stroke-dasharray:none;stroke-opacity:1;marker-end:url(#Arrow2Send)"
     d="m 156.78866,311.75737 0.16771,-16.65452"
     id="path1118"
     inkscape:connector-curvature="0"
     sodipodi:nodetypes="cc" />
  <path
     style="fill:#e69f00;stroke:none;stroke-width:0.0666667"
     inkscape:connector-curvature="0"
     d="m 172.04541,286.42937 a 1.970335,1.970335 0 1 1 3.94067,0 1.970335,1.970335 0 1 1 -3.94067,0 z"
     id="path188" />
  <path
     style="fill:#e69f00;stroke:none;stroke-width:0.05022467"
     inkscape:connector-curvature="0"
     d="m 174.34874,286.83604 v -19.66995 h -0.66666 v 19.66995 z"
     id="path190" />
  <path
     style="fill:#e69f00;stroke:none;stroke-width:0.0749066"
     inkscape:connector-curvature="0"
     d="m 94.65928,267.18676 h 79.22025 v -0.66667 H 94.65928 Z"
     id="path192" />
  <text
     xml:space="preserve"
     style="font-style:normal;font-variant:normal;font-weight:normal;font-stretch:normal;font-size:10.66666698px;line-height:1.25;font-family:Arial;-inkscape-font-specification:Arial;text-align:start;letter-spacing:0px;word-spacing:0px;text-anchor:start;fill:#e69f00;fill-opacity:1;stroke:none"
     x="95.59465"
     y="263.05536"
     id="text1866"><tspan
       sodipodi:role="line"
       id="tspan1864"
       x="95.59465"
       y="263.05536"
       style="text-align:start;text-anchor:start">piramidyzacja</tspan></text>
  <text
     xml:space="preserve"
     style="font-style:normal;font-variant:normal;font-weight:normal;font-stretch:normal;font-size:15.84018898px;line-height:1.25;font-family:Arial;-inkscape-font-specification:Arial;text-align:start;letter-spacing:0px;word-spacing:0px;text-anchor:start;fill:#cc79a7;fill-opacity:1;stroke:none;stroke-width:1.48501766"
     x="158.79195"
     y="306.56171"
     id="text1847"><tspan
       sodipodi:role="line"
       id="tspan1845"
       x="158.79195"
       y="306.56171"
       style="font-size:10.66666698px;text-align:start;text-anchor:start;fill:#cc79a7;stroke-width:1.48501766">$h$</tspan></text>
</svg>
