<?xml version="1.0" encoding="UTF-8" standalone="no"?>
<svg
   xmlns:dc="http://purl.org/dc/elements/1.1/"
   xmlns:cc="http://creativecommons.org/ns#"
   xmlns:rdf="http://www.w3.org/1999/02/22-rdf-syntax-ns#"
   xmlns:svg="http://www.w3.org/2000/svg"
   xmlns="http://www.w3.org/2000/svg"
   xmlns:sodipodi="http://sodipodi.sourceforge.net/DTD/sodipodi-0.dtd"
   xmlns:inkscape="http://www.inkscape.org/namespaces/inkscape"
   viewBox="3.04 60.95 299.27 64.18"
   preserveAspectRatio="xMidYMid"
   width="100%"
   height="100%"
   version="1.1"
   id="svg322"
   sodipodi:docname="weinreb.svg"
   inkscape:version="0.92.3 (2405546, 2018-03-11)">
  <metadata
     id="metadata328">
    <rdf:RDF>
      <cc:Work
         rdf:about="">
        <dc:format>image/svg+xml</dc:format>
        <dc:type
           rdf:resource="http://purl.org/dc/dcmitype/StillImage" />
      </cc:Work>
    </rdf:RDF>
  </metadata>
  <defs
     id="defs326" />
  <sodipodi:namedview
     pagecolor="#ffffff"
     bordercolor="#666666"
     borderopacity="1"
     objecttolerance="10"
     gridtolerance="10"
     guidetolerance="10"
     inkscape:pageopacity="0"
     inkscape:pageshadow="2"
     inkscape:window-width="1920"
     inkscape:window-height="1017"
     id="namedview324"
     showgrid="false"
     inkscape:measure-start="0,0"
     inkscape:measure-end="0,0"
     inkscape:zoom="2.4058542"
     inkscape:cx="39.376351"
     inkscape:cy="-18.702732"
     inkscape:window-x="-8"
     inkscape:window-y="-8"
     inkscape:window-maximized="1"
     inkscape:current-layer="svg322" />
  <clipPath
     id="9463">
    <rect
       x="0.255"
       y="0.255"
       width="302.74"
       height="769.29"
       id="rect2" />
  </clipPath>
  <g
     id="g13"
     transform="matrix(1.33333,0,0,1.33333,-50.942753,-32.172205)">
    <g
       aria-label="R1"
       style="text-anchor:end;text-rendering:geometricPrecision"
       id="text11">
      <path
         d="m 3.6978121,116.77 v -5.72657 h 2.5390625 q 0.765625,0 1.1640625,0.15625 0.3984375,0.15235 0.6367187,0.54297 0.2382813,0.39063 0.2382813,0.86328 0,0.60938 -0.3945313,1.02735 -0.3945312,0.41797 -1.21875,0.53125 0.3007813,0.14453 0.4570313,0.28515 0.3320312,0.30469 0.6289062,0.76172 l 0.9960938,1.5586 h -0.953125 l -0.7578125,-1.19141 q -0.3320313,-0.51562 -0.546875,-0.78906 -0.2148438,-0.27344 -0.3867188,-0.38281 -0.1679687,-0.10938 -0.34375,-0.15235 -0.1289062,-0.0273 -0.421875,-0.0273 H 4.4556246 V 116.77 Z m 0.7578125,-3.19922 h 1.6289062 q 0.5195313,0 0.8125,-0.10547 0.2929688,-0.10938 0.4453125,-0.34375 0.1523438,-0.23828 0.1523438,-0.51563 0,-0.40625 -0.296875,-0.66796 -0.2929688,-0.26172 -0.9296875,-0.26172 h -1.8125 z"
         style="font-size:8px;font-family:Arial;fill:#000000"
         id="path1637"
         inkscape:connector-curvature="0" />
      <path
         d="m 11.085507,113.51 h -0.527343 v -3.36035 q -0.19043,0.18164 -0.500977,0.36328 -0.3076171,0.18164 -0.5537109,0.27246 v -0.50977 q 0.4423829,-0.20801 0.7734379,-0.5039 0.331054,-0.2959 0.46875,-0.57422 h 0.339843 z"
         style="font-size:6px;font-family:Arial;fill:#000000"
         id="path1639"
         inkscape:connector-curvature="0" />
    </g>
  </g>
  <g
     id="Solid"
     transform="matrix(1.33333,0,0,1.33333,-50.942753,-32.172205)">
    <path
       d="m 12.35,110.22 v 0 l -0.12,-0.22 -0.13,-0.23 3.8,-2.19 v 0.29 0.29 z"
       id="path15"
       inkscape:connector-curvature="0"
       style="fill:#000000;fill-rule:evenodd;stroke:#000000;stroke-width:0;stroke-linejoin:miter;shape-rendering:geometricPrecision" />
  </g>
  <g
     id="g22"
     transform="matrix(1.33333,0,0,1.33333,-50.942753,-32.172205)">
    <g
       aria-label="Cl"
       style="text-anchor:start;text-rendering:geometricPrecision"
       id="text20">
      <path
         d="m 27.673124,114.76218 0.757813,0.19141 q -0.238281,0.93359 -0.859375,1.42578 -0.617188,0.48828 -1.511719,0.48828 -0.925781,0 -1.507812,-0.375 -0.578125,-0.3789 -0.882813,-1.09375 -0.300781,-0.71484 -0.300781,-1.53515 0,-0.89453 0.339844,-1.5586 0.34375,-0.66797 0.972656,-1.01172 0.632812,-0.34765 1.390625,-0.34765 0.859375,0 1.445312,0.4375 0.585938,0.4375 0.816407,1.23047 l -0.746094,0.17578 q -0.199219,-0.625 -0.578125,-0.91016 -0.378906,-0.28515 -0.953125,-0.28515 -0.660156,0 -1.105469,0.3164 -0.441406,0.31641 -0.621094,0.85156 -0.179687,0.53125 -0.179687,1.09766 0,0.73047 0.210937,1.27734 0.214844,0.54297 0.664063,0.8125 0.449219,0.26954 0.972656,0.26954 0.636719,0 1.078125,-0.36719 0.441406,-0.36719 0.597656,-1.08985 z"
         style="font-size:8px;font-family:Arial;fill:#000000"
         id="path1632"
         inkscape:connector-curvature="0" />
      <path
         d="m 29.262968,116.77 v -5.72657 h 0.703125 V 116.77 Z"
         style="font-size:8px;font-family:Arial;fill:#000000"
         id="path1634"
         inkscape:connector-curvature="0" />
    </g>
  </g>
  <g
     id="g26"
     transform="matrix(1.33333,0,0,1.33333,-50.942753,-32.172205)">
    <path
       d="m 15.9,108.16 v 0 -0.29 -0.29 l 6.7,3.87 -0.13,0.22 -0.12,0.22 z"
       id="path24"
       inkscape:connector-curvature="0"
       style="fill:#000000;fill-rule:evenodd;stroke:#000000;stroke-width:0;stroke-linejoin:miter;shape-rendering:geometricPrecision" />
  </g>
  <g
     id="g32"
     transform="matrix(1.33333,0,0,1.33333,-50.942753,-32.172205)">
    <g
       aria-label="O"
       style="text-anchor:start;text-rendering:geometricPrecision"
       id="text30">
      <path
         d="m 13.186719,96.72094 q 0,-1.425782 0.765625,-2.230469 0.765625,-0.808594 1.976562,-0.808594 0.792969,0 1.429688,0.378906 0.636719,0.378907 0.96875,1.058594 0.335937,0.675781 0.335937,1.535156 0,0.871094 -0.351562,1.558594 -0.351563,0.6875 -0.996094,1.042969 -0.644531,0.351562 -1.390625,0.351562 -0.808594,0 -1.445312,-0.390625 -0.636719,-0.390625 -0.964844,-1.066406 -0.328125,-0.675781 -0.328125,-1.429687 z m 0.78125,0.01172 q 0,1.035157 0.554687,1.632813 0.558594,0.59375 1.398438,0.59375 0.855469,0 1.40625,-0.601563 0.554687,-0.601562 0.554687,-1.707031 0,-0.699219 -0.238281,-1.21875 -0.234375,-0.523437 -0.691406,-0.808594 -0.453125,-0.289062 -1.019531,-0.289062 -0.804688,0 -1.386719,0.554687 -0.578125,0.550782 -0.578125,1.84375 z"
         style="font-size:8px;font-family:Arial;fill:#000000"
         id="path1629"
         inkscape:connector-curvature="0" />
    </g>
  </g>
  <g
     id="g40"
     transform="matrix(1.33333,0,0,1.33333,-50.942753,-32.172205)">
    <path
       style="stroke:#000000;stroke-width:0.50999999;shape-rendering:auto"
       d="M 14.86,107.87 V 101"
       id="line34"
       inkscape:connector-curvature="0" />
    <path
       d="m 16.68,108.03 v 0 l 0.51,0.29 V 101 h -0.51 z"
       id="path36"
       inkscape:connector-curvature="0"
       style="fill:#000000;fill-rule:evenodd;stroke:#000000;stroke-width:0;stroke-linejoin:miter;shape-rendering:geometricPrecision" />
    <path
       d="m 14.61,108.32 v 0 l 0.51,-0.29 V 101 h -0.51 z"
       id="path38"
       inkscape:connector-curvature="0"
       style="fill:#000000;fill-rule:evenodd;stroke:#000000;stroke-width:0;stroke-linejoin:miter;shape-rendering:geometricPrecision" />
  </g>
  <g
     id="g48"
     transform="matrix(1.33333,0,0,1.33333,-50.942753,-32.172205)">
    <g
       aria-label="R1"
       style="text-anchor:end;text-rendering:geometricPrecision"
       id="text46">
      <path
         d="m 80.38781,116.77 v -5.72657 h 2.539062 q 0.765625,0 1.164063,0.15625 0.398437,0.15235 0.636719,0.54297 0.238281,0.39063 0.238281,0.86328 0,0.60938 -0.394531,1.02735 -0.394532,0.41797 -1.21875,0.53125 0.300781,0.14453 0.457031,0.28515 0.332031,0.30469 0.628906,0.76172 l 0.996094,1.5586 H 84.48156 l -0.757813,-1.19141 q -0.332031,-0.51562 -0.546875,-0.78906 -0.214843,-0.27344 -0.386718,-0.38281 -0.167969,-0.10938 -0.34375,-0.15235 -0.128907,-0.0273 -0.421875,-0.0273 H 81.145622 V 116.77 Z m 0.757812,-3.19922 h 1.628907 q 0.519531,0 0.8125,-0.10547 0.292968,-0.10938 0.445312,-0.34375 0.152344,-0.23828 0.152344,-0.51563 0,-0.40625 -0.296875,-0.66796 -0.292969,-0.26172 -0.929688,-0.26172 h -1.8125 z"
         style="font-size:8px;font-family:Arial;fill:#000000"
         id="path1623"
         inkscape:connector-curvature="0" />
      <path
         d="m 87.775505,113.51 h -0.527344 v -3.36035 q -0.190429,0.18164 -0.500976,0.36328 -0.307617,0.18164 -0.553711,0.27246 v -0.50977 q 0.442383,-0.20801 0.773437,-0.5039 0.331055,-0.2959 0.46875,-0.57422 h 0.339844 z"
         style="font-size:6px;font-family:Arial;fill:#000000"
         id="path1625"
         inkscape:connector-curvature="0" />
    </g>
  </g>
  <g
     id="g52"
     transform="matrix(1.33333,0,0,1.33333,-50.942753,-32.172205)">
    <path
       d="m 89.05,110.21 v 0 l -0.12,-0.22 -0.13,-0.22 3.79,-2.19 v 0.29 0.29 z"
       id="path50"
       inkscape:connector-curvature="0"
       style="fill:#000000;fill-rule:evenodd;stroke:#000000;stroke-width:0;stroke-linejoin:miter;shape-rendering:geometricPrecision" />
  </g>
  <g
     id="g58"
     transform="matrix(1.33333,0,0,1.33333,-50.942753,-32.172205)">
    <g
       aria-label="N"
       style="text-anchor:start;text-rendering:geometricPrecision"
       id="text56">
      <path
         d="m 100.26938,116.77 v -5.72657 h 0.77734 l 3.00781,4.4961 v -4.4961 h 0.72657 V 116.77 h -0.77735 l -3.00781,-4.5 v 4.5 z"
         style="font-size:8px;font-family:Arial;fill:#009d73"
         id="path1620"
         inkscape:connector-curvature="0" />
    </g>
  </g>
  <g
     id="g62"
     transform="matrix(1.33333,0,0,1.33333,-50.942753,-32.172205)">
    <path
       d="m 92.59,108.16 v 0 -0.29 -0.29 l 6.71,3.87 -0.13,0.22 -0.12,0.22 z"
       id="path60"
       inkscape:connector-curvature="0"
       style="fill:#000000;fill-rule:evenodd;stroke:#000000;stroke-width:0;stroke-linejoin:miter;shape-rendering:geometricPrecision" />
  </g>
  <g
     id="g68"
     transform="matrix(1.33333,0,0,1.33333,-50.942753,-32.172205)">
    <g
       aria-label="O"
       style="text-anchor:start;text-rendering:geometricPrecision"
       id="text66">
      <path
         d="m 89.876717,96.72094 q 0,-1.425782 0.765625,-2.230469 0.765625,-0.808594 1.976562,-0.808594 0.792969,0 1.429688,0.378906 0.636718,0.378907 0.96875,1.058594 0.335937,0.675781 0.335937,1.535156 0,0.871094 -0.351562,1.558594 -0.351563,0.6875 -0.996094,1.042969 -0.644531,0.351562 -1.390625,0.351562 -0.808594,0 -1.445313,-0.390625 -0.636718,-0.390625 -0.964843,-1.066406 -0.328125,-0.675781 -0.328125,-1.429687 z m 0.78125,0.01172 q 0,1.035157 0.554687,1.632813 0.558594,0.59375 1.398438,0.59375 0.855468,0 1.40625,-0.601563 0.554687,-0.601562 0.554687,-1.707031 0,-0.699219 -0.238281,-1.21875 -0.234375,-0.523437 -0.691406,-0.808594 -0.453125,-0.289062 -1.019532,-0.289062 -0.804687,0 -1.386718,0.554687 -0.578125,0.550782 -0.578125,1.84375 z"
         style="font-size:8px;font-family:Arial;fill:#000000"
         id="path1617"
         inkscape:connector-curvature="0" />
    </g>
  </g>
  <g
     id="g76"
     transform="matrix(1.33333,0,0,1.33333,-50.942753,-32.172205)">
    <path
       style="stroke:#000000;stroke-width:0.50999999;shape-rendering:auto"
       d="M 91.550003,107.87 V 101"
       id="line70"
       inkscape:connector-curvature="0" />
    <path
       d="m 93.37,108.03 v 0 l 0.51,0.29 V 101 h -0.51 z"
       id="path72"
       inkscape:connector-curvature="0"
       style="fill:#000000;fill-rule:evenodd;stroke:#000000;stroke-width:0;stroke-linejoin:miter;shape-rendering:geometricPrecision" />
    <path
       d="m 91.3,108.32 v 0 l 0.51,-0.29 V 101 H 91.3 Z"
       id="path74"
       inkscape:connector-curvature="0"
       style="fill:#000000;fill-rule:evenodd;stroke:#000000;stroke-width:0;stroke-linejoin:miter;shape-rendering:geometricPrecision" />
  </g>
  <g
     id="g82"
     transform="matrix(1.33333,0,0,1.33333,-50.942753,-32.172205)">
    <g
       aria-label="O"
       style="text-anchor:start;text-rendering:geometricPrecision"
       id="text80">
      <path
         d="m 109.81672,108.23093 q 0,-1.42578 0.76562,-2.23046 0.76563,-0.8086 1.97657,-0.8086 0.79297,0 1.42968,0.37891 0.63672,0.3789 0.96875,1.05859 0.33594,0.67578 0.33594,1.53516 0,0.87109 -0.35156,1.55859 -0.35156,0.6875 -0.99609,1.04297 -0.64454,0.35156 -1.39063,0.35156 -0.80859,0 -1.44531,-0.39062 -0.63672,-0.39063 -0.96485,-1.06641 -0.32812,-0.67578 -0.32812,-1.42969 z m 0.78125,0.0117 q 0,1.03516 0.55469,1.63282 0.55859,0.59375 1.39843,0.59375 0.85547,0 1.40625,-0.60157 0.55469,-0.60156 0.55469,-1.70703 0,-0.69922 -0.23828,-1.21875 -0.23437,-0.52344 -0.69141,-0.80859 -0.45312,-0.28906 -1.01953,-0.28906 -0.80468,0 -1.38672,0.55468 -0.57812,0.55078 -0.57812,1.84375 z"
         style="font-size:8px;font-family:Arial;fill:#009d73"
         id="path1613"
         inkscape:connector-curvature="0" />
    </g>
  </g>
  <g
     id="g86"
     transform="matrix(1.33333,0,0,1.33333,-50.942753,-32.172205)">
    <path
       d="m 106.05,111.91 v 0 l -0.12,-0.22 -0.13,-0.23 2.95,-1.7 0.12,0.22 0.13,0.22 z"
       id="path84"
       inkscape:connector-curvature="0"
       style="fill:#009d73;fill-rule:evenodd;stroke:#009d73;stroke-width:0;stroke-linejoin:miter;shape-rendering:geometricPrecision" />
  </g>
  <g
     id="g90"
     transform="matrix(1.33333,0,0,1.33333,-50.942753,-32.172205)">
    <path
       d="m 102.31,116.3 v 0 h 0.25 0.26 v 8.83 h -0.26 -0.26 z"
       id="path88"
       inkscape:connector-curvature="0"
       style="fill:#009d73;fill-rule:evenodd;stroke:#009d73;stroke-width:0;stroke-linejoin:miter;shape-rendering:geometricPrecision" />
  </g>
  <g
     id="g94"
     transform="matrix(1.33333,0,0,1.33333,-50.942753,-32.172205)">
    <path
       d="m 116.2,110.29 v 0 l 0.13,-0.23 0.12,-0.22 6.17,3.57 -0.13,0.22 -0.13,0.22 z"
       id="path92"
       inkscape:connector-curvature="0"
       style="fill:#009d73;fill-rule:evenodd;stroke:#009d73;stroke-width:0;stroke-linejoin:miter;shape-rendering:geometricPrecision" />
  </g>
  <g
     id="g102"
     transform="matrix(1.33333,0,0,1.33333,-50.942753,-32.172205)">
    <g
       aria-label="R1"
       style="text-anchor:end;text-rendering:geometricPrecision"
       id="text100">
      <path
         d="m 273.88782,116.77 v -5.72657 h 2.53906 q 0.76562,0 1.16406,0.15625 0.39844,0.15235 0.63672,0.54297 0.23828,0.39063 0.23828,0.86328 0,0.60938 -0.39453,1.02735 -0.39453,0.41797 -1.21875,0.53125 0.30078,0.14453 0.45703,0.28515 0.33203,0.30469 0.62891,0.76172 l 0.99609,1.5586 h -0.95312 l -0.75782,-1.19141 q -0.33203,-0.51562 -0.54687,-0.78906 -0.21484,-0.27344 -0.38672,-0.38281 -0.16797,-0.10938 -0.34375,-0.15235 -0.12891,-0.0273 -0.42187,-0.0273 h -0.87891 V 116.77 Z m 0.75781,-3.19922 h 1.62891 q 0.51953,0 0.8125,-0.10547 0.29296,-0.10938 0.44531,-0.34375 0.15234,-0.23828 0.15234,-0.51563 0,-0.40625 -0.29687,-0.66796 -0.29297,-0.26172 -0.92969,-0.26172 h -1.8125 z"
         style="font-size:8px;font-family:Arial;fill:#000000"
         id="path1608"
         inkscape:connector-curvature="0" />
      <path
         d="m 281.27551,113.51 h -0.52734 v -3.36035 q -0.19043,0.18164 -0.50098,0.36328 -0.30761,0.18164 -0.55371,0.27246 v -0.50977 q 0.44238,-0.20801 0.77344,-0.5039 0.33105,-0.2959 0.46875,-0.57422 h 0.33984 z"
         style="font-size:6px;font-family:Arial;fill:#000000"
         id="path1610"
         inkscape:connector-curvature="0" />
    </g>
  </g>
  <g
     id="g106"
     transform="matrix(1.33333,0,0,1.33333,-50.942753,-32.172205)">
    <path
       d="m 282.55,110.21 v 0 l -0.12,-0.22 -0.13,-0.22 3.79,-2.19 v 0.29 0.29 z"
       id="path104"
       inkscape:connector-curvature="0"
       style="fill:#000000;fill-rule:evenodd;stroke:#000000;stroke-width:0;stroke-linejoin:miter;shape-rendering:geometricPrecision" />
  </g>
  <g
     id="g114"
     transform="matrix(1.33333,0,0,1.33333,-50.942753,-32.172205)">
    <g
       aria-label="R2"
       style="text-anchor:start;text-rendering:geometricPrecision"
       id="text112">
      <path
         d="m 293.78891,116.77 v -5.72657 h 2.53906 q 0.76563,0 1.16406,0.15625 0.39844,0.15235 0.63672,0.54297 0.23828,0.39063 0.23828,0.86328 0,0.60938 -0.39453,1.02735 -0.39453,0.41797 -1.21875,0.53125 0.30078,0.14453 0.45703,0.28515 0.33204,0.30469 0.62891,0.76172 l 0.99609,1.5586 h -0.95312 l -0.75781,-1.19141 q -0.33203,-0.51562 -0.54688,-0.78906 -0.21484,-0.27344 -0.38672,-0.38281 -0.16797,-0.10938 -0.34375,-0.15235 -0.1289,-0.0273 -0.42187,-0.0273 h -0.87891 V 116.77 Z m 0.75781,-3.19922 h 1.62891 q 0.51953,0 0.8125,-0.10547 0.29297,-0.10938 0.44531,-0.34375 0.15234,-0.23828 0.15234,-0.51563 0,-0.40625 -0.29687,-0.66796 -0.29297,-0.26172 -0.92969,-0.26172 h -1.8125 z"
         style="font-size:8px;font-family:Arial;fill:#cc78a6"
         id="path1603"
         inkscape:connector-curvature="0" />
      <path
         d="M 301.96176,113.00316 V 113.51 h -2.83887 q -0.006,-0.19043 0.0615,-0.36621 0.1084,-0.29004 0.3457,-0.57129 0.24024,-0.28125 0.69141,-0.65039 0.70019,-0.57422 0.94629,-0.90821 0.24609,-0.33691 0.24609,-0.63574 0,-0.31348 -0.22559,-0.52734 -0.22265,-0.2168 -0.583,-0.2168 -0.38086,0 -0.60938,0.22852 -0.22851,0.22851 -0.23144,0.63281 l -0.542,-0.0557 q 0.0557,-0.60644 0.41895,-0.92285 0.36328,-0.31933 0.97558,-0.31933 0.61817,0 0.97852,0.34277 0.36035,0.34277 0.36035,0.84961 0,0.25781 -0.10547,0.50684 -0.10547,0.24902 -0.35156,0.52441 -0.24316,0.27539 -0.81152,0.75586 -0.47461,0.39844 -0.60938,0.54199 -0.13476,0.14063 -0.22265,0.28418 z"
         style="font-size:6px;font-family:Arial;fill:#cc78a6"
         id="path1605"
         inkscape:connector-curvature="0" />
    </g>
  </g>
  <g
     id="g118"
     transform="matrix(1.33333,0,0,1.33333,-50.942753,-32.172205)">
    <path
       d="m 286.09,108.16 v 0 -0.29 -0.29 l 6.71,3.87 -0.13,0.22 -0.12,0.22 z"
       id="path116"
       inkscape:connector-curvature="0"
       style="fill:#cc78a6;fill-rule:evenodd;stroke:#cc78a6;stroke-width:0;stroke-linejoin:miter;shape-rendering:geometricPrecision" />
  </g>
  <g
     id="g124"
     transform="matrix(1.33333,0,0,1.33333,-50.942753,-32.172205)">
    <g
       aria-label="O"
       style="text-anchor:start;text-rendering:geometricPrecision"
       id="text122">
      <path
         d="m 283.37671,96.72094 q 0,-1.425782 0.76562,-2.230469 0.76563,-0.808594 1.97657,-0.808594 0.79297,0 1.42968,0.378906 0.63672,0.378907 0.96875,1.058594 0.33594,0.675781 0.33594,1.535156 0,0.871094 -0.35156,1.558594 -0.35156,0.6875 -0.99609,1.042969 -0.64454,0.351562 -1.39063,0.351562 -0.80859,0 -1.44531,-0.390625 -0.63672,-0.390625 -0.96485,-1.066406 -0.32812,-0.675781 -0.32812,-1.429687 z m 0.78125,0.01172 q 0,1.035157 0.55469,1.632813 0.55859,0.59375 1.39843,0.59375 0.85547,0 1.40625,-0.601563 0.55469,-0.601562 0.55469,-1.707031 0,-0.699219 -0.23828,-1.21875 -0.23437,-0.523437 -0.69141,-0.808594 -0.45312,-0.289062 -1.01953,-0.289062 -0.80468,0 -1.38672,0.554687 -0.57812,0.550782 -0.57812,1.84375 z"
         style="font-size:8px;font-family:Arial;fill:#000000"
         id="path1600"
         inkscape:connector-curvature="0" />
    </g>
  </g>
  <g
     id="g132"
     transform="matrix(1.33333,0,0,1.33333,-50.942753,-32.172205)">
    <path
       style="stroke:#000000;stroke-width:0.50999999;shape-rendering:auto"
       d="M 285.04999,107.87 V 101"
       id="line126"
       inkscape:connector-curvature="0" />
    <path
       d="m 286.87,108.03 v 0 l 0.51,0.29 V 101 h -0.51 z"
       id="path128"
       inkscape:connector-curvature="0"
       style="fill:#000000;fill-rule:evenodd;stroke:#000000;stroke-width:0;stroke-linejoin:miter;shape-rendering:geometricPrecision" />
    <path
       d="m 284.8,108.32 v 0 l 0.51,-0.29 V 101 h -0.51 z"
       id="path130"
       inkscape:connector-curvature="0"
       style="fill:#000000;fill-rule:evenodd;stroke:#000000;stroke-width:0;stroke-linejoin:miter;shape-rendering:geometricPrecision" />
  </g>
  <g
     id="g140"
     transform="matrix(1.33333,0,0,1.33333,-50.942753,-32.172205)">
    <g
       aria-label="R1"
       style="text-anchor:end;text-rendering:geometricPrecision"
       id="text138">
      <path
         d="m 178.60782,114 v -5.72656 h 2.53906 q 0.76563,0 1.16406,0.15625 0.39844,0.15234 0.63672,0.54297 0.23828,0.39062 0.23828,0.86328 0,0.60937 -0.39453,1.02734 -0.39453,0.41797 -1.21875,0.53125 0.30078,0.14453 0.45703,0.28516 0.33203,0.30469 0.62891,0.76172 L 183.65469,114 h -0.95312 l -0.75781,-1.19141 q -0.33204,-0.51562 -0.54688,-0.78906 -0.21484,-0.27344 -0.38672,-0.38281 -0.16797,-0.10938 -0.34375,-0.15234 -0.1289,-0.0273 -0.42187,-0.0273 h -0.87891 V 114 Z m 0.75781,-3.19922 h 1.62891 q 0.51953,0 0.8125,-0.10547 0.29297,-0.10937 0.44531,-0.34375 0.15234,-0.23828 0.15234,-0.51562 0,-0.40625 -0.29687,-0.66797 -0.29297,-0.26172 -0.92969,-0.26172 h -1.8125 z"
         style="font-size:8px;font-family:Arial;fill:#000000"
         id="path1594"
         inkscape:connector-curvature="0" />
      <path
         d="m 185.99551,110.74 h -0.52734 v -3.36035 q -0.19043,0.18164 -0.50098,0.36328 -0.30761,0.18164 -0.55371,0.27246 v -0.50976 q 0.44239,-0.20801 0.77344,-0.50391 0.33105,-0.2959 0.46875,-0.57422 h 0.33984 z"
         style="font-size:6px;font-family:Arial;fill:#000000"
         id="path1596"
         inkscape:connector-curvature="0" />
    </g>
  </g>
  <g
     id="g144"
     transform="matrix(1.33333,0,0,1.33333,-50.942753,-32.172205)">
    <path
       d="m 187.32,109.38 v 0 l -0.06,-0.25 -0.07,-0.24 4.53,-1.22 0.25,0.2 -0.36,0.36 z"
       id="path142"
       inkscape:connector-curvature="0"
       style="fill:#000000;fill-rule:evenodd;stroke:#000000;stroke-width:0;stroke-linejoin:miter;shape-rendering:geometricPrecision" />
  </g>
  <g
     id="g150"
     transform="matrix(1.33333,0,0,1.33333,-50.942753,-32.172205)">
    <g
       aria-label="N"
       style="text-anchor:start;text-rendering:geometricPrecision"
       id="text148">
      <path
         d="m 200.78937,114 v -5.72656 h 0.77734 l 3.00781,4.49609 v -4.49609 h 0.72657 V 114 h -0.77735 l -3.00781,-4.5 v 4.5 z"
         style="font-size:8px;font-family:Arial;fill:#009d73"
         id="path1591"
         inkscape:connector-curvature="0" />
    </g>
  </g>
  <g
     id="g154"
     transform="matrix(1.33333,0,0,1.33333,-50.942753,-32.172205)">
    <path
       d="m 192.15,108.18 v 0 l -0.18,-0.31 0.26,-0.2 7.38,1.99 -0.07,0.24 -0.06,0.25 z"
       id="path152"
       inkscape:connector-curvature="0"
       style="fill:#000000;fill-rule:evenodd;stroke:#000000;stroke-width:0;stroke-linejoin:miter;shape-rendering:geometricPrecision" />
  </g>
  <g
     id="g160"
     transform="matrix(1.33333,0,0,1.33333,-50.942753,-32.172205)">
    <g
       aria-label="O"
       style="text-anchor:start;text-rendering:geometricPrecision"
       id="text158">
      <path
         d="m 189.25671,96.72094 q 0,-1.425782 0.76563,-2.230469 0.76562,-0.808594 1.97656,-0.808594 0.79297,0 1.42969,0.378906 0.63672,0.378907 0.96875,1.058594 0.33594,0.675781 0.33594,1.535156 0,0.871094 -0.35157,1.558594 -0.35156,0.6875 -0.99609,1.042969 -0.64453,0.351562 -1.39062,0.351562 -0.8086,0 -1.44532,-0.390625 -0.63672,-0.390625 -0.96484,-1.066406 -0.32813,-0.675781 -0.32813,-1.429687 z m 0.78125,0.01172 q 0,1.035157 0.55469,1.632813 0.5586,0.59375 1.39844,0.59375 0.85547,0 1.40625,-0.601563 0.55469,-0.601562 0.55469,-1.707031 0,-0.699219 -0.23828,-1.21875 -0.23438,-0.523437 -0.69141,-0.808594 -0.45313,-0.289062 -1.01953,-0.289062 -0.80469,0 -1.38672,0.554687 -0.57813,0.550782 -0.57813,1.84375 z"
         style="font-size:8px;font-family:Arial;fill:#000000"
         id="path1588"
         inkscape:connector-curvature="0" />
    </g>
  </g>
  <g
     id="g164"
     transform="matrix(1.33333,0,0,1.33333,-50.942753,-32.172205)">
    <path
       d="m 192.23,107.67 v 0 l -0.26,0.2 -0.25,-0.2 V 101 h 0.25 0.26 z"
       id="path162"
       inkscape:connector-curvature="0"
       style="fill:#000000;fill-rule:evenodd;stroke:#000000;stroke-width:0;stroke-linejoin:miter;shape-rendering:geometricPrecision" />
  </g>
  <g
     id="g172"
     transform="matrix(1.33333,0,0,1.33333,-50.942753,-32.172205)">
    <g
       aria-label="R2"
       style="text-anchor:end;text-rendering:geometricPrecision"
       id="text170">
      <path
         d="m 186.74782,122.14 v -5.72656 h 2.53906 q 0.76563,0 1.16406,0.15625 0.39844,0.15234 0.63672,0.54297 0.23828,0.39062 0.23828,0.86328 0,0.60937 -0.39453,1.02734 -0.39453,0.41797 -1.21875,0.53125 0.30078,0.14453 0.45703,0.28516 0.33203,0.30468 0.62891,0.76172 l 0.99609,1.55859 h -0.95312 l -0.75781,-1.19141 q -0.33204,-0.51562 -0.54688,-0.78906 -0.21484,-0.27344 -0.38672,-0.38281 -0.16797,-0.10938 -0.34375,-0.15235 -0.1289,-0.0273 -0.42187,-0.0273 h -0.87891 V 122.14 Z m 0.75781,-3.19922 h 1.62891 q 0.51953,0 0.8125,-0.10547 0.29297,-0.10937 0.44531,-0.34375 0.15234,-0.23828 0.15234,-0.51562 0,-0.40625 -0.29687,-0.66797 -0.29297,-0.26172 -0.92969,-0.26172 h -1.8125 z"
         style="font-size:8px;font-family:Arial;fill:#cc78a6"
         id="path1583"
         inkscape:connector-curvature="0" />
      <path
         d="M 194.92067,118.37316 V 118.88 h -2.83887 q -0.006,-0.19043 0.0615,-0.36621 0.10839,-0.29004 0.3457,-0.57129 0.24023,-0.28125 0.69141,-0.65039 0.70019,-0.57422 0.94628,-0.9082 0.2461,-0.33692 0.2461,-0.63575 0,-0.31347 -0.22559,-0.52734 -0.22265,-0.2168 -0.58301,-0.2168 -0.38086,0 -0.60937,0.22852 -0.22852,0.22851 -0.23145,0.63281 l -0.54199,-0.0557 q 0.0557,-0.60645 0.41895,-0.92285 0.36328,-0.31934 0.97558,-0.31934 0.61817,0 0.97852,0.34277 0.36035,0.34278 0.36035,0.84961 0,0.25781 -0.10547,0.50684 -0.10547,0.24902 -0.35156,0.52441 -0.24317,0.27539 -0.81152,0.75586 -0.47461,0.39844 -0.60938,0.54199 -0.13477,0.14063 -0.22266,0.28418 z"
         style="font-size:6px;font-family:Arial;fill:#cc78a6"
         id="path1585"
         inkscape:connector-curvature="0" />
    </g>
  </g>
  <g
     id="g176"
     transform="matrix(1.33333,0,0,1.33333,-50.942753,-32.172205)">
    <path
       d="m 191.61,108.23 v 0 l 0.36,-0.36 0.18,0.31 -1.91,7.13 -0.25,-0.07 -0.24,-0.06 z"
       id="path174"
       inkscape:connector-curvature="0"
       style="fill:#cc78a6;fill-rule:evenodd;stroke:#cc78a6;stroke-width:0;stroke-linejoin:miter;shape-rendering:geometricPrecision" />
  </g>
  <g
     id="g182"
     transform="matrix(1.33333,0,0,1.33333,-50.942753,-32.172205)">
    <g
       aria-label="MgBr"
       style="text-anchor:start;text-rendering:geometricPrecision"
       id="text180">
      <path
         d="m 200.17375,91.269997 v -5.726563 h 1.14063 l 1.35547,4.054688 q 0.1875,0.566406 0.27343,0.847656 0.0977,-0.3125 0.30469,-0.917969 l 1.37109,-3.984375 h 1.01954 v 5.726563 h -0.73047 v -4.792969 l -1.66407,4.792969 h -0.68359 l -1.65625,-4.875 v 4.875 z"
         style="font-size:8px;font-family:Arial;fill:#cc78a6"
         id="path1574"
         inkscape:connector-curvature="0" />
      <path
         d="m 206.65031,91.613747 0.6836,0.101562 q 0.043,0.316406 0.23828,0.460938 0.26172,0.195312 0.71484,0.195312 0.48828,0 0.75391,-0.195312 0.26562,-0.195313 0.35937,-0.546875 0.0547,-0.214844 0.0508,-0.902344 -0.46094,0.542969 -1.14844,0.542969 -0.85547,0 -1.32422,-0.617188 -0.46875,-0.617187 -0.46875,-1.480469 0,-0.59375 0.21484,-1.09375 0.21485,-0.503906 0.6211,-0.777343 0.41015,-0.273438 0.96093,-0.273438 0.73438,0 1.21094,0.59375 v -0.5 h 0.64844 v 3.585938 q 0,0.96875 -0.19922,1.371093 -0.19531,0.40625 -0.625,0.640625 -0.42578,0.234375 -1.05078,0.234375 -0.74219,0 -1.19922,-0.335937 -0.45703,-0.332031 -0.44141,-1.003906 z m 0.58204,-2.492188 q 0,0.816406 0.32421,1.191406 0.32422,0.375 0.8125,0.375 0.48438,0 0.8125,-0.371093 0.32813,-0.375 0.32813,-1.171875 0,-0.761719 -0.33984,-1.148438 -0.33594,-0.386719 -0.8125,-0.386719 -0.46875,0 -0.79688,0.382813 -0.32812,0.378906 -0.32812,1.128906 z"
         style="font-size:8px;font-family:Arial;fill:#cc78a6"
         id="path1576"
         inkscape:connector-curvature="0" />
      <path
         d="m 211.29094,91.269997 v -5.726563 h 2.14844 q 0.65625,0 1.05078,0.175781 0.39844,0.171875 0.62109,0.535157 0.22656,0.359375 0.22656,0.753906 0,0.367187 -0.19921,0.691406 -0.19922,0.324219 -0.60157,0.523438 0.51953,0.152343 0.79688,0.519531 0.28125,0.367187 0.28125,0.867187 0,0.402344 -0.17188,0.75 -0.16797,0.34375 -0.41797,0.53125 -0.25,0.1875 -0.6289,0.285157 -0.375,0.09375 -0.92188,0.09375 z m 0.75781,-3.320313 h 1.23828 q 0.50391,0 0.72266,-0.06641 0.28906,-0.08594 0.43359,-0.285156 0.14844,-0.199219 0.14844,-0.5 0,-0.285157 -0.13672,-0.5 -0.13672,-0.21875 -0.39062,-0.296875 -0.25391,-0.08203 -0.8711,-0.08203 h -1.14453 z m 0,2.644531 h 1.42578 q 0.36719,0 0.51563,-0.02734 0.26172,-0.04687 0.4375,-0.15625 0.17578,-0.109375 0.28906,-0.316407 0.11328,-0.210937 0.11328,-0.484375 0,-0.320312 -0.16406,-0.554687 -0.16406,-0.238281 -0.45703,-0.332031 -0.28906,-0.09766 -0.83594,-0.09766 h -1.32422 z"
         style="font-size:8px;font-family:Arial;fill:#cc78a6"
         id="path1578"
         inkscape:connector-curvature="0" />
      <path
         d="m 216.56828,91.269997 v -4.148438 h 0.63282 v 0.628906 q 0.24218,-0.441406 0.44531,-0.582031 0.20703,-0.140625 0.45312,-0.140625 0.35547,0 0.72266,0.226563 L 218.58,87.906715 q -0.25781,-0.152343 -0.51562,-0.152343 -0.23047,0 -0.41407,0.140625 -0.18359,0.136718 -0.26171,0.382812 -0.11719,0.375 -0.11719,0.820313 v 2.171875 z"
         style="font-size:8px;font-family:Arial;fill:#cc78a6"
         id="path1580"
         inkscape:connector-curvature="0" />
    </g>
  </g>
  <g
     id="g186"
     transform="matrix(1.33333,0,0,1.33333,-50.942753,-32.172205)">
    <path
       d="m 195.49,94.03 v 0 l -0.15,-0.2 -0.15,-0.21 3.82,-2.87 0.15,0.2 0.15,0.2 z"
       id="path184"
       inkscape:connector-curvature="0"
       style="fill:#cc78a6;fill-rule:evenodd;stroke:#cc78a6;stroke-width:0;stroke-linejoin:miter;shape-rendering:geometricPrecision" />
  </g>
  <g
     id="g192"
     transform="matrix(1.33333,0,0,1.33333,-50.942753,-32.172205)">
    <g
       aria-label="O"
       style="text-anchor:start;text-rendering:geometricPrecision"
       id="text190">
      <path
         d="m 208.50671,103.07094 q 0,-1.42578 0.76563,-2.23047 0.76562,-0.80859 1.97656,-0.80859 0.79297,0 1.42969,0.3789 0.63672,0.37891 0.96875,1.0586 0.33594,0.67578 0.33594,1.53515 0,0.8711 -0.35157,1.5586 -0.35156,0.6875 -0.99609,1.04296 -0.64453,0.35157 -1.39062,0.35157 -0.8086,0 -1.44532,-0.39063 -0.63672,-0.39062 -0.96484,-1.0664 -0.32813,-0.67579 -0.32813,-1.42969 z m 0.78125,0.0117 q 0,1.03515 0.55469,1.63281 0.5586,0.59375 1.39844,0.59375 0.85547,0 1.40625,-0.60156 0.55469,-0.60157 0.55469,-1.70703 0,-0.69922 -0.23828,-1.21875 -0.23438,-0.52344 -0.69141,-0.8086 -0.45313,-0.28906 -1.01953,-0.28906 -0.80469,0 -1.38672,0.55469 -0.57813,0.55078 -0.57813,1.84375 z"
         style="font-size:8px;font-family:Arial;fill:#009d73"
         id="path1571"
         inkscape:connector-curvature="0" />
    </g>
  </g>
  <g
     id="g196"
     transform="matrix(1.33333,0,0,1.33333,-50.942753,-32.172205)">
    <path
       d="m 206.4,107.89 v 0 l -0.18,-0.18 -0.18,-0.18 1.86,-1.86 0.18,0.18 0.18,0.18 z"
       id="path194"
       inkscape:connector-curvature="0"
       style="fill:#009d73;fill-rule:evenodd;stroke:#009d73;stroke-width:0;stroke-linejoin:miter;shape-rendering:geometricPrecision" />
  </g>
  <g
     id="g200"
     transform="matrix(1.33333,0,0,1.33333,-50.942753,-32.172205)">
    <path
       d="m 203.77,114.42 v 0 l 0.25,-0.06 0.25,-0.07 2.04,7.61 -0.25,0.07 -0.25,0.07 z"
       id="path198"
       inkscape:connector-curvature="0"
       style="fill:#009d73;fill-rule:evenodd;stroke:#009d73;stroke-width:0;stroke-linejoin:miter;shape-rendering:geometricPrecision" />
  </g>
  <g
     id="Dash"
     transform="matrix(1.33333,0,0,1.33333,-50.942753,-32.172205)">
    <path
       d="m 208.43,97.3 v 0 l -0.44,0.25 0.99,1.75 0.22,-0.13 0.22,-0.13 z"
       id="path202"
       inkscape:connector-curvature="0"
       style="fill:#cc78a6;fill-rule:evenodd;stroke:#cc78a6;stroke-width:0;stroke-linejoin:miter;shape-rendering:geometricPrecision" />
    <path
       d="m 205.84,92.75 v 0 l -0.45,0.25 -0.99,-1.74 0.22,-0.13 0.22,-0.13 z"
       id="path204"
       inkscape:connector-curvature="0"
       style="fill:#cc78a6;fill-rule:evenodd;stroke:#cc78a6;stroke-width:0;stroke-linejoin:miter;shape-rendering:geometricPrecision" />
    <path
       d="m 207.63,95.9 v 0 l -0.99,-1.75 -0.45,0.25 1,1.75 z"
       id="path206"
       inkscape:connector-curvature="0"
       style="fill:#cc78a6;fill-rule:evenodd;stroke:#cc78a6;stroke-width:0;stroke-linejoin:miter;shape-rendering:geometricPrecision" />
  </g>
  <g
     id="g211"
     transform="matrix(1.33333,0,0,1.33333,-50.942753,-32.172205)">
    <path
       d="m 215.25,103.56 v 0 l 0.04,-0.25 0.03,-0.26 7.33,1.08 -0.04,0.25 -0.04,0.25 z"
       id="path209"
       inkscape:connector-curvature="0"
       style="fill:#009d73;fill-rule:evenodd;stroke:#009d73;stroke-width:0;stroke-linejoin:miter;shape-rendering:geometricPrecision" />
  </g>
  <g
     id="Arrow"
     transform="matrix(1.33333,0,0,1.33333,-50.942753,-32.172205)">
    <path
       style="stroke:#000000;stroke-width:0.50999999;shape-rendering:auto"
       d="M 68.199997,108.19 H 37.91"
       id="line213"
       inkscape:connector-curvature="0" />
    <path
       d="m 71.66,108.19 -5.1,-1.27 c 1.08,0.71 1.08,1.83 0,2.54 z"
       stroke-miterlimit="5.89496254687647"
       id="path215"
       inkscape:connector-curvature="0"
       style="fill:#000000;fill-rule:evenodd;stroke:#000000;stroke-width:0;stroke-linejoin:miter;stroke-miterlimit:5.89496231;shape-rendering:geometricPrecision" />
  </g>
  <g
     id="g222"
     transform="matrix(1.33333,0,0,1.33333,-50.942753,-32.172205)">
    <path
       style="stroke:#000000;stroke-width:0.50999999;shape-rendering:auto"
       d="M 164.57001,108.19 H 129.59"
       id="line218"
       inkscape:connector-curvature="0" />
    <path
       d="m 168.03,108.19 -5.1,-1.27 c 1.07,0.71 1.07,1.83 0,2.54 z"
       stroke-miterlimit="5.89496254687632"
       id="path220"
       inkscape:connector-curvature="0"
       style="fill:#000000;fill-rule:evenodd;stroke:#000000;stroke-width:0;stroke-linejoin:miter;stroke-miterlimit:5.89496231;shape-rendering:geometricPrecision" />
  </g>
  <g
     id="g228"
     transform="matrix(1.33333,0,0,1.33333,-50.942753,-32.172205)">
    <path
       style="stroke:#000000;stroke-width:0.50999999;shape-rendering:auto"
       d="M 264.13,108.19 H 233.84"
       id="line224"
       inkscape:connector-curvature="0" />
    <path
       d="m 267.59,108.19 -5.1,-1.27 c 1.07,0.71 1.07,1.83 0,2.54 z"
       stroke-miterlimit="5.89496254687647"
       id="path226"
       inkscape:connector-curvature="0"
       style="fill:#000000;fill-rule:evenodd;stroke:#000000;stroke-width:0;stroke-linejoin:miter;stroke-miterlimit:5.89496231;shape-rendering:geometricPrecision" />
  </g>
  <g
     aria-label="[H2O]"
     style="text-anchor:start;text-rendering:geometricPrecision"
     id="text240"
     transform="matrix(1.33333,0,0,1.33333,-50.942753,-32.172205)">
    <path
       d="m 238.04297,104.71984 v -7.316405 h 1.55078 v 0.582031 h -0.84766 v 6.152344 h 0.84766 v 0.58203 z"
       style="font-size:8px;font-family:Arial;fill:#000000"
       id="path1557"
       inkscape:connector-curvature="0" />
    <path
       d="m 240.35937,103.13 v -5.726565 h 0.75782 v 2.351562 h 2.97656 v -2.351562 h 0.75781 V 103.13 h -0.75781 v -2.69922 h -2.97656 V 103.13 Z"
       style="font-size:8px;font-family:Arial;fill:#000000"
       id="path1559"
       inkscape:connector-curvature="0" />
    <path
       d="M 248.52051,104.43316 V 104.94 h -2.83887 q -0.006,-0.19043 0.0615,-0.36621 0.1084,-0.29004 0.34571,-0.57129 0.24023,-0.28125 0.6914,-0.65039 0.7002,-0.57422 0.94629,-0.90821 0.2461,-0.33691 0.2461,-0.63574 0,-0.31348 -0.22559,-0.52734 -0.22266,-0.2168 -0.58301,-0.2168 -0.38086,0 -0.60937,0.22852 -0.22852,0.22851 -0.23145,0.63281 l -0.54199,-0.0557 q 0.0557,-0.60644 0.41895,-0.92285 0.36328,-0.31933 0.97558,-0.31933 0.61817,0 0.97852,0.34277 0.36035,0.34277 0.36035,0.84961 0,0.25781 -0.10547,0.50684 -0.10547,0.24902 -0.35156,0.52441 -0.24317,0.27539 -0.81153,0.75586 -0.47461,0.39844 -0.60937,0.54199 -0.13477,0.14063 -0.22266,0.28418 z"
       style="font-size:6px;font-family:Arial;fill:#000000"
       id="path1561"
       inkscape:connector-curvature="0" />
    <path
       d="m 249.22656,100.34093 q 0,-1.425776 0.76563,-2.230464 0.76562,-0.808594 1.97656,-0.808594 0.79297,0 1.42969,0.378907 0.63672,0.378906 0.96875,1.058593 0.33593,0.675782 0.33593,1.535158 0,0.87109 -0.35156,1.55859 -0.35156,0.6875 -0.99609,1.04297 -0.64453,0.35156 -1.39063,0.35156 -0.80859,0 -1.44531,-0.39062 -0.63672,-0.39063 -0.96484,-1.06641 -0.32813,-0.67578 -0.32813,-1.42969 z m 0.78125,0.0117 q 0,1.03516 0.55469,1.63282 0.55859,0.59375 1.39844,0.59375 0.85547,0 1.40625,-0.60157 0.55468,-0.60156 0.55468,-1.70703 0,-0.699216 -0.23828,-1.218748 -0.23437,-0.523437 -0.6914,-0.808593 -0.45313,-0.289063 -1.01953,-0.289063 -0.80469,0 -1.38672,0.554688 -0.57813,0.550781 -0.57813,1.843746 z"
       style="font-size:8px;font-family:Arial;fill:#000000"
       id="path1563"
       inkscape:connector-curvature="0" />
    <path
       d="m 256.76172,104.71984 h -1.55078 v -0.58203 h 0.84765 v -6.152344 h -0.84765 v -0.582031 h 1.55078 z"
       style="font-size:8px;font-family:Arial;fill:#000000"
       id="path1565"
       inkscape:connector-curvature="0" />
  </g>
  <g
     id="g252"
     transform="matrix(1.33333,0,0,1.33333,-50.942753,-32.172205)">
    <g
       aria-label="R2MgBr"
       style="text-anchor:start;text-rendering:geometricPrecision"
       id="text250">
      <path
         d="m 133.31891,103.5 v -5.726563 h 2.53906 q 0.76563,0 1.16406,0.15625 0.39844,0.152344 0.63672,0.542969 0.23828,0.390625 0.23828,0.863281 0,0.609375 -0.39453,1.027343 -0.39453,0.41797 -1.21875,0.53125 0.30078,0.14453 0.45703,0.28516 0.33203,0.30469 0.62891,0.76172 l 0.99609,1.55859 h -0.95312 l -0.75781,-1.19141 q -0.33204,-0.51562 -0.54688,-0.78906 -0.21484,-0.27344 -0.38672,-0.38281 -0.16797,-0.10938 -0.34375,-0.15234 -0.1289,-0.0273 -0.42187,-0.0273 h -0.87891 V 103.5 Z m 0.75781,-3.19922 h 1.62891 q 0.51953,0 0.8125,-0.10547 0.29297,-0.10937 0.44531,-0.343748 0.15234,-0.238281 0.15234,-0.515625 0,-0.40625 -0.29687,-0.667968 -0.29297,-0.261719 -0.92969,-0.261719 h -1.8125 z"
         style="font-size:8px;font-family:Arial;fill:#cc78a6"
         id="path1544"
         inkscape:connector-curvature="0" />
      <path
         d="M 141.49176,99.733164 V 100.24 h -2.83887 q -0.006,-0.19043 0.0615,-0.366211 0.10839,-0.290039 0.3457,-0.571289 0.24023,-0.28125 0.69141,-0.650391 0.70019,-0.574218 0.94628,-0.908203 0.2461,-0.336914 0.2461,-0.635742 0,-0.313476 -0.22559,-0.527344 -0.22265,-0.216797 -0.58301,-0.216797 -0.38085,0 -0.60937,0.228516 -0.22852,0.228516 -0.23145,0.632813 l -0.54199,-0.05566 q 0.0557,-0.606446 0.41895,-0.922852 0.36328,-0.319336 0.97558,-0.319336 0.61817,0 0.97852,0.342773 0.36035,0.342774 0.36035,0.84961 0,0.257812 -0.10547,0.506836 -0.10547,0.249023 -0.35156,0.524414 -0.24316,0.27539 -0.81152,0.755859 -0.47461,0.398438 -0.60938,0.541992 -0.13476,0.140625 -0.22266,0.28418 z"
         style="font-size:6px;font-family:Arial;fill:#cc78a6"
         id="path1546"
         inkscape:connector-curvature="0" />
      <path
         d="m 142.40485,103.5 v -5.726563 h 1.14062 l 1.35547,4.054693 q 0.1875,0.5664 0.27344,0.84765 0.0976,-0.3125 0.30468,-0.91797 l 1.3711,-3.984373 h 1.01953 V 103.5 h -0.73047 V 98.707031 L 145.47516,103.5 h -0.6836 l -1.65625,-4.875 v 4.875 z"
         style="font-size:8px;font-family:Arial;fill:#cc78a6"
         id="path1548"
         inkscape:connector-curvature="0" />
      <path
         d="m 148.88141,103.84375 0.68359,0.10156 q 0.043,0.31641 0.23828,0.46094 0.26172,0.19531 0.71485,0.19531 0.48828,0 0.7539,-0.19531 0.26563,-0.19531 0.35938,-0.54687 0.0547,-0.21485 0.0508,-0.90235 -0.46094,0.54297 -1.14844,0.54297 -0.85547,0 -1.32422,-0.61719 -0.46875,-0.61718 -0.46875,-1.48047 0,-0.59375 0.21485,-1.09375 0.21484,-0.503903 0.62109,-0.77734 0.41016,-0.273438 0.96094,-0.273438 0.73437,0 1.21094,0.59375 v -0.5 h 0.64843 v 3.585938 q 0,0.96875 -0.19922,1.37109 -0.19531,0.40625 -0.625,0.64063 -0.42578,0.23437 -1.05078,0.23437 -0.74218,0 -1.19922,-0.33593 -0.45703,-0.33203 -0.4414,-1.00391 z m 0.58203,-2.49219 q 0,0.81641 0.32422,1.19141 0.32422,0.375 0.8125,0.375 0.48437,0 0.8125,-0.37109 0.32812,-0.375 0.32812,-1.17188 0,-0.76172 -0.33984,-1.14844 -0.33594,-0.386716 -0.8125,-0.386716 -0.46875,0 -0.79688,0.382816 -0.32812,0.3789 -0.32812,1.1289 z"
         style="font-size:8px;font-family:Arial;fill:#cc78a6"
         id="path1550"
         inkscape:connector-curvature="0" />
      <path
         d="m 153.52203,103.5 v -5.726563 h 2.14844 q 0.65625,0 1.05078,0.175782 0.39844,0.171875 0.6211,0.535156 0.22656,0.359375 0.22656,0.753906 0,0.367188 -0.19922,0.691406 -0.19922,0.324223 -0.60156,0.523443 0.51953,0.15234 0.79687,0.51953 0.28125,0.36718 0.28125,0.86718 0,0.40235 -0.17187,0.75 -0.16797,0.34375 -0.41797,0.53125 -0.25,0.1875 -0.62891,0.28516 -0.375,0.0937 -0.92187,0.0937 z m 0.75782,-3.32031 h 1.23828 q 0.5039,0 0.72265,-0.0664 0.28907,-0.0859 0.4336,-0.285155 0.14843,-0.199219 0.14843,-0.5 0,-0.285156 -0.13671,-0.5 -0.13672,-0.21875 -0.39063,-0.296875 -0.25391,-0.08203 -0.87109,-0.08203 h -1.14453 z m 0,2.64453 h 1.42578 q 0.36718,0 0.51562,-0.0273 0.26172,-0.0469 0.4375,-0.15625 0.17578,-0.10938 0.28906,-0.31641 0.11329,-0.21094 0.11329,-0.48438 0,-0.32031 -0.16407,-0.55468 -0.16406,-0.23828 -0.45703,-0.33203 -0.28906,-0.0977 -0.83594,-0.0977 h -1.32421 z"
         style="font-size:8px;font-family:Arial;fill:#cc78a6"
         id="path1552"
         inkscape:connector-curvature="0" />
      <path
         d="m 158.79938,103.5 v -4.148438 h 0.63281 v 0.628907 q 0.24219,-0.441407 0.44531,-0.582032 0.20703,-0.140625 0.45313,-0.140625 0.35547,0 0.72265,0.226563 l -0.24218,0.652345 q -0.25782,-0.152345 -0.51563,-0.152345 -0.23047,0 -0.41406,0.140625 -0.1836,0.13672 -0.26172,0.38281 -0.11719,0.375 -0.11719,0.82032 V 103.5 Z"
         style="font-size:8px;font-family:Arial;fill:#cc78a6"
         id="path1554"
         inkscape:connector-curvature="0" />
    </g>
  </g>
  <g
     id="g258"
     transform="matrix(1.33333,0,0,1.33333,-50.942753,-32.172205)">
    <g
       aria-label="O"
       style="text-anchor:start;text-rendering:geometricPrecision"
       id="text256">
      <path
         d="m 45.526718,100.86094 q 0,-1.425782 0.765625,-2.23047 0.765625,-0.808593 1.976563,-0.808593 0.792968,0 1.429687,0.378906 0.636719,0.378906 0.96875,1.058594 0.335938,0.675781 0.335938,1.535153 0,0.8711 -0.351563,1.5586 -0.351562,0.6875 -0.996094,1.04297 -0.644531,0.35156 -1.390625,0.35156 -0.808593,0 -1.445312,-0.39063 -0.636719,-0.39062 -0.964844,-1.0664 -0.328125,-0.67578 -0.328125,-1.42969 z m 0.78125,0.0117 q 0,1.03515 0.554688,1.63281 0.558593,0.59375 1.398437,0.59375 0.855469,0 1.40625,-0.60156 0.554688,-0.60156 0.554688,-1.70703 0,-0.69922 -0.238282,-1.218753 -0.234375,-0.523438 -0.691406,-0.808594 -0.453125,-0.289063 -1.019531,-0.289063 -0.804688,0 -1.386719,0.554688 -0.578125,0.550781 -0.578125,1.843752 z"
         style="font-size:8px;font-family:Arial;fill:#009d73"
         id="path1541"
         inkscape:connector-curvature="0" />
    </g>
  </g>
  <g
     id="g262"
     transform="matrix(1.33333,0,0,1.33333,-50.942753,-32.172205)">
    <path
       d="m 51.95,98.65 v 0 l -0.12,-0.22 -0.13,-0.22 3.05,-1.77 0.12,0.22 0.13,0.22 z"
       id="path260"
       inkscape:connector-curvature="0"
       style="fill:#009d73;fill-rule:evenodd;stroke:#009d73;stroke-width:0;stroke-linejoin:miter;shape-rendering:geometricPrecision" />
  </g>
  <g
     id="g272"
     transform="matrix(1.33333,0,0,1.33333,-50.942753,-32.172205)">
    <g
       aria-label="H2N"
       style="text-anchor:start;text-rendering:geometricPrecision"
       id="text270">
      <path
         d="m 55.940624,89.889999 v -5.726562 h 0.757813 v 2.351562 h 2.976562 v -2.351562 h 0.757813 v 5.726562 h -0.757813 v -2.699218 h -2.976562 v 2.699218 z"
         style="font-size:8px;font-family:Arial;fill:#009d73"
         id="path1534"
         inkscape:connector-curvature="0" />
      <path
         d="m 64.101757,91.193163 v 0.506836 H 61.26289 q -0.0059,-0.190429 0.06152,-0.366211 0.108399,-0.290039 0.345703,-0.571289 0.240235,-0.28125 0.691407,-0.65039 0.700195,-0.574219 0.946289,-0.908203 0.246093,-0.336914 0.246093,-0.635743 0,-0.313476 -0.225585,-0.527343 -0.222657,-0.216797 -0.583008,-0.216797 -0.38086,0 -0.609375,0.228515 -0.228516,0.228516 -0.231446,0.632813 l -0.541992,-0.05566 q 0.05566,-0.606445 0.418946,-0.922852 0.363281,-0.319336 0.975585,-0.319336 0.618165,0 0.978516,0.342774 0.360352,0.342773 0.360352,0.849609 0,0.257813 -0.105469,0.506836 -0.105469,0.249024 -0.351563,0.524414 -0.243164,0.275391 -0.811523,0.75586 -0.474609,0.398437 -0.609375,0.541992 -0.134766,0.140625 -0.222656,0.284179 z"
         style="font-size:6px;font-family:Arial;fill:#009d73"
         id="path1536"
         inkscape:connector-curvature="0" />
      <path
         d="m 55.909374,96.079999 v -5.726562 h 0.777344 l 3.007812,4.496094 v -4.496094 h 0.726563 v 5.726562 h -0.777344 l -3.007812,-4.5 v 4.5 z"
         style="font-size:8px;font-family:Arial;fill:#009d73"
         id="path1538"
         inkscape:connector-curvature="0" />
    </g>
  </g>
  <g
     id="g276"
     transform="matrix(1.33333,0,0,1.33333,-50.942753,-32.172205)">
    <path
       d="m 61.5,96.94 v 0 l 0.13,-0.22 0.12,-0.22 6.55,3.78 -0.13,0.22 -0.13,0.22 z"
       id="path274"
       inkscape:connector-curvature="0"
       style="fill:#009d73;fill-rule:evenodd;stroke:#009d73;stroke-width:0;stroke-linejoin:miter;shape-rendering:geometricPrecision" />
  </g>
  <g
     id="Charge9438"
     transform="matrix(1.33333,0,0,1.33333,-50.942753,-32.172205)">
    <path
       style="fill:none;stroke:#009d73;stroke-width:0.40799999"
       d="M 53.738147,91.330002 A 2.6681478,2.6681478 0 0 1 51.07,93.99815 2.6681478,2.6681478 0 0 1 48.401852,91.330002 2.6681478,2.6681478 0 0 1 51.07,88.661854 a 2.6681478,2.6681478 0 0 1 2.668147,2.668148 z"
       id="circle278"
       inkscape:connector-curvature="0" />
    <path
       style="stroke:#009d73;stroke-width:0.40799999;shape-rendering:auto"
       d="m 49.48,91.330002 h 3.18"
       id="line280"
       inkscape:connector-curvature="0" />
    <path
       style="stroke:#009d73;stroke-width:0.40799999;shape-rendering:auto"
       d="m 51.07,89.739998 v 3.18"
       id="line282"
       inkscape:connector-curvature="0" />
  </g>
  <g
     id="g289"
     transform="matrix(1.33333,0,0,1.33333,-50.942753,-32.172205)">
    <g
       aria-label="Cl"
       style="text-anchor:start;text-rendering:geometricPrecision"
       id="text287">
      <path
         d="m 42.323124,85.242187 0.757812,0.191407 q -0.238281,0.933593 -0.859375,1.425781 -0.617187,0.488281 -1.511718,0.488281 -0.925782,0 -1.507813,-0.375 -0.578125,-0.378906 -0.882812,-1.09375 -0.300782,-0.714844 -0.300782,-1.535156 0,-0.894531 0.339844,-1.558594 0.34375,-0.667969 0.972656,-1.011719 0.632813,-0.347656 1.390625,-0.347656 0.859375,0 1.445313,0.4375 0.585937,0.4375 0.816406,1.230469 l -0.746094,0.175781 q -0.199218,-0.625 -0.578125,-0.910156 -0.378906,-0.285156 -0.953125,-0.285156 -0.660156,0 -1.105468,0.316406 -0.441407,0.316406 -0.621094,0.851562 -0.179688,0.53125 -0.179688,1.097657 0,0.730468 0.210938,1.277343 0.214844,0.542969 0.664062,0.8125 0.449219,0.269532 0.972657,0.269532 0.636718,0 1.078125,-0.367188 0.441406,-0.367187 0.597656,-1.089844 z"
         style="font-size:8px;font-family:Arial;fill:#009d73"
         id="path1526"
         inkscape:connector-curvature="0" />
      <path
         d="m 43.912968,87.25 v -5.726563 h 0.703125 V 87.25 Z"
         style="font-size:8px;font-family:Arial;fill:#009d73"
         id="path1528"
         inkscape:connector-curvature="0" />
    </g>
  </g>
  <g
     id="Charge9442"
     transform="matrix(1.33333,0,0,1.33333,-50.942753,-32.172205)">
    <path
       style="fill:none;stroke:#009d73;stroke-width:0.40799999"
       d="m 51.366668,78.849998 a 2.6666667,2.6666667 0 0 1 -2.666667,2.666667 2.6666667,2.6666667 0 0 1 -2.666667,-2.666667 2.6666667,2.6666667 0 0 1 2.666667,-2.666666 2.6666667,2.6666667 0 0 1 2.666667,2.666666 z"
       id="circle291"
       inkscape:connector-curvature="0" />
    <path
       style="stroke:#009d73;stroke-width:0.40799999;shape-rendering:auto"
       d="m 47.110001,78.849998 h 3.18"
       id="line293"
       inkscape:connector-curvature="0" />
  </g>
  <g
     id="g298"
     transform="matrix(1.33333,0,0,1.33333,-50.942753,-32.172205)">
    <path
       d="m 44.9,98.28 v 0 l -0.13,0.22 -0.12,0.22 -6.51,-3.76 0.13,-0.22 0.13,-0.22 z"
       id="path296"
       inkscape:connector-curvature="0"
       style="fill:#009d73;fill-rule:evenodd;stroke:#009d73;stroke-width:0;stroke-linejoin:miter;shape-rendering:geometricPrecision" />
  </g>
  <g
     id="Bracket"
     transform="matrix(1.33333,0,0,1.33333,-50.942753,-32.172205)">
    <path
       d="m 223.2,85.69 h 3.14 v 38.11 h -3.14"
       id="path300"
       inkscape:connector-curvature="0"
       style="fill:none;fill-rule:evenodd;stroke:#000000;stroke-width:0.50999999;stroke-linejoin:miter;shape-rendering:geometricPrecision" />
  </g>
  <g
     id="g305"
     transform="matrix(1.33333,0,0,1.33333,-50.942753,-32.172205)">
    <path
       d="m 178.3,123.8 h -3.14 V 85.69 h 3.14"
       id="path303"
       inkscape:connector-curvature="0"
       style="fill:none;fill-rule:evenodd;stroke:#000000;stroke-width:0.50999999;stroke-linejoin:miter;shape-rendering:geometricPrecision" />
  </g>
  <g
     id="Oval"
     transform="matrix(1.33333,0,0,1.33333,-50.942753,-32.172205)">
    <path
       style="fill:#e69e00;stroke:#e69e00;stroke-width:0.50999999"
       d="m 108.075,95.629997 a 0.98500001,0.98500001 0 0 1 -0.985,0.985 0.98500001,0.98500001 0 0 1 -0.985,-0.985 0.98500001,0.98500001 0 0 1 0.985,-0.985 0.98500001,0.98500001 0 0 1 0.985,0.985 z"
       id="circle307"
       inkscape:connector-curvature="0" />
  </g>
  <path
     style="stroke:#e69e00;stroke-width:0.67999828;shape-rendering:auto"
     d="M 91.843557,69.574205 V 95.334139"
     id="line310"
     inkscape:connector-curvature="0" />
  <path
     style="stroke:#e69e00;stroke-width:0.67999828;shape-rendering:auto"
     d="M 179.35001,69.574205 H 91.843557"
     id="line312"
     inkscape:connector-curvature="0" />
  <text
     xml:space="preserve"
     style="font-style:normal;font-variant:normal;font-weight:normal;font-stretch:normal;font-size:10.66666698px;line-height:1.25;font-family:Arial;-inkscape-font-specification:Arial;text-align:start;letter-spacing:0px;word-spacing:0px;text-anchor:start;fill:#000000;fill-opacity:1;stroke:none"
     x="-46.980961"
     y="143.7108"
     id="text1465"><tspan
       sodipodi:role="line"
       id="tspan1463"
       x="-46.980961"
       y="143.7108">\cmpd{acid-chloride}</tspan></text>
  <text
     xml:space="preserve"
     style="font-style:normal;font-variant:normal;font-weight:normal;font-stretch:normal;font-size:10.66666698px;line-height:1.25;font-family:Arial;-inkscape-font-specification:Arial;text-align:start;letter-spacing:0px;word-spacing:0px;text-anchor:start;fill:#000000;fill-opacity:1;stroke:none"
     x="55.399387"
     y="143.7108"
     id="text1465-2"><tspan
       sodipodi:role="line"
       id="tspan1463-0"
       x="55.399387"
       y="143.7108">\cmpd{weinreb-amide}</tspan></text>
  <text
     xml:space="preserve"
     style="font-style:normal;font-variant:normal;font-weight:normal;font-stretch:normal;font-size:10.66666698px;line-height:1.25;font-family:Arial;-inkscape-font-specification:Arial;text-align:start;letter-spacing:0px;word-spacing:0px;text-anchor:start;fill:#000000;fill-opacity:1;stroke:none"
     x="189.16913"
     y="143.7108"
     id="text1465-2-0"><tspan
       sodipodi:role="line"
       id="tspan1463-0-5"
       x="189.16913"
       y="143.7108">\cmpd{weinreb-complex}</tspan></text>
  <text
     xml:space="preserve"
     style="font-style:normal;font-variant:normal;font-weight:normal;font-stretch:normal;font-size:10.66666698px;line-height:1.25;font-family:Arial;-inkscape-font-specification:Arial;text-align:start;letter-spacing:0px;word-spacing:0px;text-anchor:start;fill:#000000;fill-opacity:1;stroke:none"
     x="313.92853"
     y="143.7108"
     id="text1465-2-0-4"><tspan
       sodipodi:role="line"
       id="tspan1463-0-5-0"
       x="313.92853"
       y="143.7108">\cmpd{ketone}</tspan></text>
  <text
     xml:space="preserve"
     style="font-style:normal;font-variant:normal;font-weight:normal;font-stretch:normal;font-size:10.66666698px;line-height:1.25;font-family:Arial;-inkscape-font-specification:Arial;text-align:end;letter-spacing:0px;word-spacing:0px;text-anchor:end;fill:#e69f00;fill-opacity:1;stroke:none"
     x="178.21594"
     y="65.759995"
     id="text1644"><tspan
       sodipodi:role="line"
       id="tspan1642"
       x="178.21594"
       y="65.759995"
       style="text-align:end;text-anchor:end;fill:#e69f00">amid Weinreba</tspan></text>
</svg>
