<?xml version="1.0" encoding="UTF-8" standalone="no"?>
<svg
   xmlns:dc="http://purl.org/dc/elements/1.1/"
   xmlns:cc="http://creativecommons.org/ns#"
   xmlns:rdf="http://www.w3.org/1999/02/22-rdf-syntax-ns#"
   xmlns:svg="http://www.w3.org/2000/svg"
   xmlns="http://www.w3.org/2000/svg"
   xmlns:sodipodi="http://sodipodi.sourceforge.net/DTD/sodipodi-0.dtd"
   xmlns:inkscape="http://www.inkscape.org/namespaces/inkscape"
   width="192px"
   height="218px"
   viewBox="0 0 192 218"
   style="background-color: #ffffff00"
   version="1.1"
   id="svg204"
   sodipodi:docname="summary-pl.svg"
   inkscape:version="0.92.3 (2405546, 2018-03-11)">
  <metadata
     id="metadata210">
    <rdf:RDF>
      <cc:Work
         rdf:about="">
        <dc:format>image/svg+xml</dc:format>
        <dc:type
           rdf:resource="http://purl.org/dc/dcmitype/StillImage" />
      </cc:Work>
    </rdf:RDF>
  </metadata>
  <defs
     id="defs208" />
  <sodipodi:namedview
     pagecolor="#ffffff"
     bordercolor="#666666"
     borderopacity="1"
     objecttolerance="10"
     gridtolerance="10"
     guidetolerance="10"
     inkscape:pageopacity="0"
     inkscape:pageshadow="2"
     inkscape:window-width="1920"
     inkscape:window-height="1017"
     id="namedview206"
     showgrid="false"
     inkscape:zoom="3.061967"
     inkscape:cx="-76.69772"
     inkscape:cy="89.39206"
     inkscape:window-x="-8"
     inkscape:window-y="-8"
     inkscape:window-maximized="1"
     inkscape:current-layer="svg204" />
  <path
     stroke="none"
     fill="#000000"
     transform="matrix(0.0666667 0 0 0.0666667 3.48861 -77.2667)"
     d="M 272.247,3099.21 L 272.247,2528.12 L 282.247,2528.12 L 282.247,3099.21 Z "
     id="path2" />
  <path
     stroke="none"
     fill="#000000"
     transform="matrix(0.0666667 0 0 0.0666667 3.48861 -77.2667)"
     d="M 277.247,3187.5 C 277.247,3187.5 249.736,3085.46 249.736,3085.46 C 249.736,3085.46 265.211,3098.21 277.247,3098.21 C 288.846,3098.21 303.758,3085.46 303.758,3085.46 C 303.758,3085.46 277.247,3187.5 277.247,3187.5 C 277.247,3187.5 277.247,3187.5 277.247,3187.5 "
     id="path4" />
  <path
     stroke="#000000"
     stroke-width="1"
     fill="none"
     transform="matrix(0.0666667 0 0 0.0666667 3.48861 -77.2667)"
     d="M 277.247,3187.5 C 277.247,3187.5 249.736,3085.46 249.736,3085.46 C 249.736,3085.46 265.211,3098.21 277.247,3098.21 C 288.846,3098.21 303.758,3085.46 303.758,3085.46 C 303.758,3085.46 277.247,3187.5 277.247,3187.5 C 277.247,3187.5 277.247,3187.5 277.247,3187.5 "
     id="path6" />
  <g
     aria-label="H"
     transform="matrix(0.0666667,0,0,0.0666667,43.6082,156.694)"
     style="font-style:normal;font-weight:normal;font-size:160px;font-family:Arial;fill:#000000;stroke:none"
     id="text8">
    <path
       d="M 12.8125,0 V -114.53125 H 27.96875 V -67.5 H 87.5 v -47.03125 h 15.15625 V 0 H 87.5 V -53.984375 H 27.96875 V 0 Z"
       style="font-style:normal;font-weight:normal;font-size:160px;font-family:Arial;fill:#000000;stroke:none"
       id="path1158"
       inkscape:connector-curvature="0" />
  </g>
  <g
     aria-label="N"
     transform="matrix(0.0666667,0,0,0.0666667,43.6082,167.361)"
     style="font-style:normal;font-weight:normal;font-size:160px;font-family:Arial;fill:#000000;stroke:none"
     id="text10">
    <path
       d="m 12.1875,0 v -114.53125 h 15.546875 l 60.15625,89.921875 V -114.53125 H 102.42188 V 0 H 86.875 L 26.71875,-90 V 0 Z"
       style="font-style:normal;font-weight:normal;font-size:160px;font-family:Arial;fill:#000000;stroke:none"
       id="path1155"
       inkscape:connector-curvature="0" />
  </g>
  <path
     stroke="none"
     fill="#000000"
     transform="matrix(0.0666667 0 0 0.0666667 3.48861 -77.2667)"
     d="M 464.865,3949.93 L 454.661,3955.82 L 454.661,3725.11 L 459.763,3721.9 L 464.865,3724.85 L 464.865,3949.93 Z "
     id="path12" />
  <path
     stroke="none"
     fill="#000000"
     transform="matrix(0.0666667 0 0 0.0666667 3.48861 -77.2667)"
     d="M 659.793,4062.47 L 659.793,4068.36 L 654.354,4071.11 L 454.661,3955.82 L 464.865,3949.93 L 659.793,4062.47 Z "
     id="path14" />
  <path
     stroke="none"
     fill="#000000"
     transform="matrix(0.0666667 0 0 0.0666667 3.48861 -77.2667)"
     d="M 854.721,3949.93 L 864.926,3955.82 L 665.233,4071.11 L 659.793,4068.36 L 659.793,4062.47 L 854.721,3949.93 Z "
     id="path16" />
  <path
     stroke="none"
     fill="#000000"
     transform="matrix(0.0666667 0 0 0.0666667 3.48861 -77.2667)"
     d="M 854.721,3724.85 L 859.824,3721.9 L 864.926,3721.9 L 864.926,3955.82 L 854.721,3949.93 L 854.721,3724.85 Z "
     id="path18" />
  <path
     stroke="none"
     fill="#000000"
     transform="matrix(0.0666667 0 0 0.0666667 3.48861 -77.2667)"
     d="M 739.173,3658.13 L 744.275,3649.3 L 853.453,3712.33 L 859.824,3721.9 L 854.721,3724.85 L 739.173,3658.13 Z "
     id="path20" />
  <path
     stroke="none"
     fill="#000000"
     transform="matrix(0.0666667 0 0 0.0666667 3.48861 -77.2667)"
     d="M 464.865,3724.85 L 459.763,3721.9 L 459.991,3715.88 L 574.562,3649.73 L 579.664,3658.57 L 464.865,3724.85 Z "
     id="path22" />
  <g
     aria-label="OBn"
     transform="matrix(0.0666667,0,0,0.0666667,70.0122,198.158)"
     style="font-style:normal;font-weight:normal;font-size:160px;font-family:Arial;fill:#000000;stroke:none"
     id="text24">
    <path
       d="m 7.734375,-55.78125 q 0,-28.515625 15.3125,-44.60938 15.3125,-16.17187 39.53125,-16.17187 15.859375,0 28.59375,7.57812 12.734375,7.57813 19.375005,21.17188 6.71875,13.515625 6.71875,30.703125 0,17.421875 -7.03125,31.171875 -7.03125,13.75 -19.92188,20.859375 -12.890625,7.03125 -27.8125,7.03125 -16.171875,0 -28.90625,-7.8125 -12.734375,-7.8125 -19.296875,-21.328125 -6.5625,-13.515625 -6.5625,-28.59375 z m 15.625,0.234375 q 0,20.703125 11.09375,32.65625 11.171875,11.875 27.96875,11.875 17.109375,0 28.125,-12.03125 11.093755,-12.03125 11.093755,-34.140625 0,-13.984375 -4.76563,-24.375 -4.6875,-10.46875 -13.828125,-16.171875 -9.0625,-5.781255 -20.390625,-5.781255 -16.09375,0 -27.734375,11.093755 -11.5625,11.015625 -11.5625,36.875 z"
       style="font-style:normal;font-weight:normal;font-size:160px;font-family:Arial;fill:#000000;stroke:none"
       id="path1148"
       inkscape:connector-curvature="0" />
    <path
       d="m 136.09375,0 v -114.53125 h 42.96875 q 13.125,0 21.01562,3.51562 7.96875,3.4375 12.42188,10.70313 4.53125,7.1875 4.53125,15.078125 0,7.34375 -3.98438,13.828125 -3.98437,6.484375 -12.03125,10.46875 10.39063,3.046875 15.9375,10.390625 5.625,7.34375 5.625,17.34375 0,8.046875 -3.4375,15 -3.35937,6.875 -8.35937,10.625 -5,3.75 -12.57813,5.703125 Q 190.70312,0 179.76562,0 Z M 151.25,-66.40625 h 24.76562 q 10.07813,0 14.45313,-1.328125 5.78125,-1.71875 8.67187,-5.703125 2.96875,-3.984375 2.96875,-10 0,-5.703125 -2.73437,-10 -2.73438,-4.375 -7.8125,-5.9375 -5.07813,-1.64063 -17.42188,-1.64063 H 151.25 Z m 0,52.890625 h 28.51562 q 7.34375,0 10.3125,-0.546875 5.23438,-0.9375 8.75,-3.125 3.51563,-2.1875 5.78125,-6.328125 2.26563,-4.21875 2.26563,-9.6875 0,-6.40625 -3.28125,-11.09375 -3.28125,-4.765625 -9.14063,-6.640625 -5.78125,-1.953125 -16.71875,-1.953125 H 151.25 Z"
       style="font-style:normal;font-weight:normal;font-size:160px;font-family:Arial;fill:#000000;stroke:none"
       id="path1150"
       inkscape:connector-curvature="0" />
    <path
       d="m 241.79687,0 v -82.96875 h 12.65625 v 11.796875 q 9.14063,-13.671875 26.40625,-13.671875 7.5,0 13.75,2.734375 6.32813,2.65625 9.45313,7.03125 3.125,4.375 4.375,10.390625 0.78125,3.90625 0.78125,13.671875 V 0 h -14.0625 v -50.46875 q 0,-8.59375 -1.64063,-12.8125 -1.64062,-4.296875 -5.85937,-6.796875 -4.14063,-2.578125 -9.76563,-2.578125 -8.98437,0 -15.54687,5.703125 -6.48438,5.703125 -6.48438,21.640625 V 0 Z"
       style="font-style:normal;font-weight:normal;font-size:160px;font-family:Arial;fill:#000000;stroke:none"
       id="path1152"
       inkscape:connector-curvature="0" />
  </g>
  <path
     stroke="none"
     fill="#000000"
     transform="matrix(0.0666667 0 0 0.0666667 3.48861 -77.2667)"
     d="M 1003.22,4008.17 L 979.413,4049.42 L 971.433,4042.83 L 993.53,4004.56 L 1003.22,4008.17 Z "
     id="path26" />
  <path
     stroke="none"
     fill="#000000"
     transform="matrix(0.0666667 0 0 0.0666667 3.48861 -77.2667)"
     d="M 955.173,3990.24 L 939.859,4016.77 L 931.879,4010.18 L 945.478,3986.63 L 955.173,3990.24 Z "
     id="path28" />
  <path
     stroke="none"
     fill="#000000"
     transform="matrix(0.0666667 0 0 0.0666667 3.48861 -77.2667)"
     d="M 907.122,3972.31 L 900.305,3984.12 L 892.325,3977.53 L 897.427,3968.69 L 907.122,3972.31 Z "
     id="path30" />
  <g
     aria-label="BnO"
     transform="matrix(0.0666667,0,0,0.0666667,3.63023,198.125)"
     style="font-style:normal;font-weight:normal;font-size:160px;font-family:Arial;fill:#000000;stroke:none"
     id="text32">
    <path
       d="M 11.71875,0 V -114.53125 H 54.6875 q 13.125,0 21.015625,3.51562 7.96875,3.4375 12.421875,10.70313 4.53125,7.1875 4.53125,15.078125 0,7.34375 -3.984375,13.828125 -3.984375,6.484375 -12.03125,10.46875 10.390625,3.046875 15.9375,10.390625 5.625,7.34375 5.625,17.34375 0,8.046875 -3.4375,15 -3.359375,6.875 -8.359375,10.625 -5,3.75 -12.578125,5.703125 Q 66.328125,0 55.390625,0 Z M 26.875,-66.40625 h 24.765625 q 10.078125,0 14.453125,-1.328125 5.78125,-1.71875 8.671875,-5.703125 2.96875,-3.984375 2.96875,-10 0,-5.703125 -2.734375,-10 -2.734375,-4.375 -7.8125,-5.9375 -5.078125,-1.64063 -17.421875,-1.64063 H 26.875 Z m 0,52.890625 h 28.515625 q 7.34375,0 10.3125,-0.546875 5.234375,-0.9375 8.75,-3.125 3.515625,-2.1875 5.78125,-6.328125 2.265625,-4.21875 2.265625,-9.6875 0,-6.40625 -3.28125,-11.09375 -3.28125,-4.765625 -9.140625,-6.640625 -5.78125,-1.953125 -16.71875,-1.953125 H 26.875 Z"
       style="font-style:normal;font-weight:normal;font-size:160px;font-family:Arial;fill:#000000;stroke:none"
       id="path1141"
       inkscape:connector-curvature="0" />
    <path
       d="m 117.42188,0 v -82.96875 h 12.65624 v 11.796875 q 9.14063,-13.671875 26.40625,-13.671875 7.5,0 13.75,2.734375 6.32813,2.65625 9.45313,7.03125 3.125,4.375 4.375,10.390625 0.78125,3.90625 0.78125,13.671875 V 0 h -14.0625 v -50.46875 q 0,-8.59375 -1.64063,-12.8125 -1.64062,-4.296875 -5.85937,-6.796875 -4.14063,-2.578125 -9.76563,-2.578125 -8.98437,0 -15.54687,5.703125 -6.48438,5.703125 -6.48438,21.640625 V 0 Z"
       style="font-style:normal;font-weight:normal;font-size:160px;font-family:Arial;fill:#000000;stroke:none"
       id="path1143"
       inkscape:connector-curvature="0" />
    <path
       d="m 203.67187,-55.78125 q 0,-28.515625 15.3125,-44.60938 15.3125,-16.17187 39.53125,-16.17187 15.85938,0 28.59375,7.57812 12.73438,7.57813 19.375,21.17188 6.71875,13.515625 6.71875,30.703125 0,17.421875 -7.03125,31.171875 -7.03125,13.75 -19.92187,20.859375 -12.89063,7.03125 -27.8125,7.03125 -16.17188,0 -28.90625,-7.8125 -12.73438,-7.8125 -19.29688,-21.328125 -6.5625,-13.515625 -6.5625,-28.59375 z m 15.625,0.234375 q 0,20.703125 11.09375,32.65625 11.17188,11.875 27.96875,11.875 17.10938,0 28.125,-12.03125 11.09375,-12.03125 11.09375,-34.140625 0,-13.984375 -4.76562,-24.375 -4.6875,-10.46875 -13.82813,-16.171875 -9.0625,-5.781255 -20.39062,-5.781255 -16.09375,0 -27.73438,11.093755 -11.5625,11.015625 -11.5625,36.875 z"
       style="font-style:normal;font-weight:normal;font-size:160px;font-family:Arial;fill:#000000;stroke:none"
       id="path1145"
       inkscape:connector-curvature="0" />
  </g>
  <path
     stroke="none"
     fill="#000000"
     transform="matrix(0.0666667 0 0 0.0666667 3.48861 -77.2667)"
     d="M 341.196,4048.82 L 317.385,4007.58 L 327.089,4003.98 L 349.167,4042.22 L 341.196,4048.82 Z "
     id="path34" />
  <path
     stroke="none"
     fill="#000000"
     transform="matrix(0.0666667 0 0 0.0666667 3.48861 -77.2667)"
     d="M 380.264,4016.47 L 364.941,3989.93 L 374.645,3986.33 L 388.235,4009.87 L 380.264,4016.47 Z "
     id="path36" />
  <path
     stroke="none"
     fill="#000000"
     transform="matrix(0.0666667 0 0 0.0666667 3.48861 -77.2667)"
     d="M 419.331,3984.11 L 412.497,3972.27 L 422.2,3968.67 L 427.303,3977.51 L 419.331,3984.11 Z "
     id="path38" />
  <path
     stroke="none"
     fill="#000000"
     transform="matrix(0.0666667 0 0 0.0666667 3.48861 -77.2667)"
     d="M 254.631,3467.11 L 264.836,3467.11 L 264.836,3581.09 L 254.631,3630.26 L 254.631,3467.11 Z "
     id="path40" />
  <path
     stroke="none"
     fill="#000000"
     transform="matrix(0.0666667 0 0 0.0666667 3.48861 -77.2667)"
     d="M 254.631,3630.26 L 264.836,3581.09 L 459.991,3715.88 L 459.763,3721.9 L 454.661,3725.11 L 254.631,3630.26 Z "
     id="path42" />
  <g
     aria-label="OBn"
     transform="matrix(0.0666667,0,0,0.0666667,43.3415,213.556)"
     style="font-style:normal;font-weight:normal;font-size:160px;font-family:Arial;fill:#000000;stroke:none"
     id="text44">
    <path
       d="m 7.734375,-55.78125 q 0,-28.515625 15.3125,-44.60938 15.3125,-16.17187 39.53125,-16.17187 15.859375,0 28.59375,7.57812 12.734375,7.57813 19.375005,21.17188 6.71875,13.515625 6.71875,30.703125 0,17.421875 -7.03125,31.171875 -7.03125,13.75 -19.92188,20.859375 -12.890625,7.03125 -27.8125,7.03125 -16.171875,0 -28.90625,-7.8125 -12.734375,-7.8125 -19.296875,-21.328125 -6.5625,-13.515625 -6.5625,-28.59375 z m 15.625,0.234375 q 0,20.703125 11.09375,32.65625 11.171875,11.875 27.96875,11.875 17.109375,0 28.125,-12.03125 11.093755,-12.03125 11.093755,-34.140625 0,-13.984375 -4.76563,-24.375 -4.6875,-10.46875 -13.828125,-16.171875 -9.0625,-5.781255 -20.390625,-5.781255 -16.09375,0 -27.734375,11.093755 -11.5625,11.015625 -11.5625,36.875 z"
       style="font-style:normal;font-weight:normal;font-size:160px;font-family:Arial;fill:#000000;stroke:none"
       id="path1134"
       inkscape:connector-curvature="0" />
    <path
       d="m 136.09375,0 v -114.53125 h 42.96875 q 13.125,0 21.01562,3.51562 7.96875,3.4375 12.42188,10.70313 4.53125,7.1875 4.53125,15.078125 0,7.34375 -3.98438,13.828125 -3.98437,6.484375 -12.03125,10.46875 10.39063,3.046875 15.9375,10.390625 5.625,7.34375 5.625,17.34375 0,8.046875 -3.4375,15 -3.35937,6.875 -8.35937,10.625 -5,3.75 -12.57813,5.703125 Q 190.70312,0 179.76562,0 Z M 151.25,-66.40625 h 24.76562 q 10.07813,0 14.45313,-1.328125 5.78125,-1.71875 8.67187,-5.703125 2.96875,-3.984375 2.96875,-10 0,-5.703125 -2.73437,-10 -2.73438,-4.375 -7.8125,-5.9375 -5.07813,-1.64063 -17.42188,-1.64063 H 151.25 Z m 0,52.890625 h 28.51562 q 7.34375,0 10.3125,-0.546875 5.23438,-0.9375 8.75,-3.125 3.51563,-2.1875 5.78125,-6.328125 2.26563,-4.21875 2.26563,-9.6875 0,-6.40625 -3.28125,-11.09375 -3.28125,-4.765625 -9.14063,-6.640625 -5.78125,-1.953125 -16.71875,-1.953125 H 151.25 Z"
       style="font-style:normal;font-weight:normal;font-size:160px;font-family:Arial;fill:#000000;stroke:none"
       id="path1136"
       inkscape:connector-curvature="0" />
    <path
       d="m 241.79687,0 v -82.96875 h 12.65625 v 11.796875 q 9.14063,-13.671875 26.40625,-13.671875 7.5,0 13.75,2.734375 6.32813,2.65625 9.45313,7.03125 3.125,4.375 4.375,10.390625 0.78125,3.90625 0.78125,13.671875 V 0 h -14.0625 v -50.46875 q 0,-8.59375 -1.64063,-12.8125 -1.64062,-4.296875 -5.85937,-6.796875 -4.14063,-2.578125 -9.76563,-2.578125 -8.98437,0 -15.54687,5.703125 -6.48438,5.703125 -6.48438,21.640625 V 0 Z"
       style="font-style:normal;font-weight:normal;font-size:160px;font-family:Arial;fill:#000000;stroke:none"
       id="path1138"
       inkscape:connector-curvature="0" />
  </g>
  <path
     stroke="none"
     fill="#000000"
     transform="matrix(0.0666667 0 0 0.0666667 3.48861 -77.2667)"
     d="M 683.604,4221 L 635.983,4221 L 654.354,4071.11 L 659.793,4068.36 L 665.233,4071.11 L 683.604,4221 Z "
     id="path46" />
  <g
     aria-label="BnO"
     transform="matrix(0.0666667,0,0,0.0666667,3.57395,151.963)"
     style="font-style:normal;font-weight:normal;font-size:160px;font-family:Arial;fill:#000000;stroke:none"
     id="text48">
    <path
       d="M 11.71875,0 V -114.53125 H 54.6875 q 13.125,0 21.015625,3.51562 7.96875,3.4375 12.421875,10.70313 4.53125,7.1875 4.53125,15.078125 0,7.34375 -3.984375,13.828125 -3.984375,6.484375 -12.03125,10.46875 10.390625,3.046875 15.9375,10.390625 5.625,7.34375 5.625,17.34375 0,8.046875 -3.4375,15 -3.359375,6.875 -8.359375,10.625 -5,3.75 -12.578125,5.703125 Q 66.328125,0 55.390625,0 Z M 26.875,-66.40625 h 24.765625 q 10.078125,0 14.453125,-1.328125 5.78125,-1.71875 8.671875,-5.703125 2.96875,-3.984375 2.96875,-10 0,-5.703125 -2.734375,-10 -2.734375,-4.375 -7.8125,-5.9375 -5.078125,-1.64063 -17.421875,-1.64063 H 26.875 Z m 0,52.890625 h 28.515625 q 7.34375,0 10.3125,-0.546875 5.234375,-0.9375 8.75,-3.125 3.515625,-2.1875 5.78125,-6.328125 2.265625,-4.21875 2.265625,-9.6875 0,-6.40625 -3.28125,-11.09375 -3.28125,-4.765625 -9.140625,-6.640625 -5.78125,-1.953125 -16.71875,-1.953125 H 26.875 Z"
       style="font-style:normal;font-weight:normal;font-size:160px;font-family:Arial;fill:#000000;stroke:none"
       id="path1127"
       inkscape:connector-curvature="0" />
    <path
       d="m 117.42188,0 v -82.96875 h 12.65624 v 11.796875 q 9.14063,-13.671875 26.40625,-13.671875 7.5,0 13.75,2.734375 6.32813,2.65625 9.45313,7.03125 3.125,4.375 4.375,10.390625 0.78125,3.90625 0.78125,13.671875 V 0 h -14.0625 v -50.46875 q 0,-8.59375 -1.64063,-12.8125 -1.64062,-4.296875 -5.85937,-6.796875 -4.14063,-2.578125 -9.76563,-2.578125 -8.98437,0 -15.54687,5.703125 -6.48438,5.703125 -6.48438,21.640625 V 0 Z"
       style="font-style:normal;font-weight:normal;font-size:160px;font-family:Arial;fill:#000000;stroke:none"
       id="path1129"
       inkscape:connector-curvature="0" />
    <path
       d="m 203.67187,-55.78125 q 0,-28.515625 15.3125,-44.60938 15.3125,-16.17187 39.53125,-16.17187 15.85938,0 28.59375,7.57812 12.73438,7.57813 19.375,21.17188 6.71875,13.515625 6.71875,30.703125 0,17.421875 -7.03125,31.171875 -7.03125,13.75 -19.92187,20.859375 -12.89063,7.03125 -27.8125,7.03125 -16.17188,0 -28.90625,-7.8125 -12.73438,-7.8125 -19.29688,-21.328125 -6.5625,-13.515625 -6.5625,-28.59375 z m 15.625,0.234375 q 0,20.703125 11.09375,32.65625 11.17188,11.875 27.96875,11.875 17.10938,0 28.125,-12.03125 11.09375,-12.03125 11.09375,-34.140625 0,-13.984375 -4.76562,-24.375 -4.6875,-10.46875 -13.82813,-16.171875 -9.0625,-5.781255 -20.39062,-5.781255 -16.09375,0 -27.73438,11.093755 -11.5625,11.015625 -11.5625,36.875 z"
       style="font-style:normal;font-weight:normal;font-size:160px;font-family:Arial;fill:#000000;stroke:none"
       id="path1131"
       inkscape:connector-curvature="0" />
  </g>
  <path
     stroke="none"
     fill="#cc79a7"
     transform="matrix(0.0666667 0 0 0.0666667 3.48861 -77.2667)"
     d="M 1371.34,3793.62 L 1364.12,3800.84 L 1339.14,3775.85 L 1346.35,3768.64 L 1371.34,3793.62 Z "
     id="path50" />
  <path
     stroke="none"
     fill="#000000"
     transform="matrix(0.0666667 0 0 0.0666667 3.48861 -77.2667)"
     d="M 1012.94,3606 L 1036.75,3647.25 L 1027.28,3651.25 L 1004.74,3612.21 L 1012.94,3606 Z "
     id="path52" />
  <path
     stroke="none"
     fill="#000000"
     transform="matrix(0.0666667 0 0 0.0666667 3.48861 -77.2667)"
     d="M 975.455,3634.36 L 993.453,3665.53 L 983.98,3669.53 L 967.253,3640.56 L 975.455,3634.36 Z "
     id="path54" />
  <path
     stroke="none"
     fill="#000000"
     transform="matrix(0.0666667 0 0 0.0666667 3.48861 -77.2667)"
     d="M 937.968,3662.71 L 950.154,3683.82 L 940.681,3687.82 L 929.766,3668.92 L 937.968,3662.71 Z "
     id="path56" />
  <path
     stroke="none"
     fill="#000000"
     transform="matrix(0.0666667 0 0 0.0666667 3.48861 -77.2667)"
     d="M 900.481,3691.07 L 906.855,3702.11 L 897.382,3706.11 L 892.279,3697.27 L 900.481,3691.07 Z "
     id="path58" />
  <g
     aria-label="R"
     transform="matrix(0.0666667,0,0,0.0666667,95.1964,184.474)"
     style="font-style:normal;font-weight:normal;font-size:160px;font-family:Arial;fill:#cc79a7;stroke:none"
     id="text60">
    <path
       d="m 12.578125,0 v -114.53125 h 50.78125 q 15.3125,0 23.28125,3.125 7.96875,3.04687 12.734375,10.85937 4.76563,7.812505 4.76563,17.26563 0,12.1875 -7.89063,20.546875 -7.890625,8.359375 -24.375,10.625 6.015625,2.890625 9.140625,5.703125 6.640625,6.09375 12.578125,15.234375 L 113.51563,0 H 94.453125 l -15.15625,-23.828125 q -6.640625,-10.3125 -10.9375,-15.78125 -4.296875,-5.46875 -7.734375,-7.65625 -3.359375,-2.1875 -6.875,-3.046875 -2.578125,-0.546875 -8.4375,-0.546875 H 27.734375 V 0 Z m 15.15625,-63.984375 H 60.3125 q 10.390625,0 16.25,-2.109375 5.859375,-2.1875 8.90625,-6.875 3.046875,-4.765625 3.046875,-10.3125 0,-8.125 -5.9375,-13.359375 Q 76.71875,-101.875 63.984375,-101.875 h -36.25 z"
       style="font-style:normal;font-weight:normal;font-size:160px;font-family:Arial;fill:#cc79a7;stroke:none"
       id="path1124"
       inkscape:connector-curvature="0" />
  </g>
  <path
     stroke="none"
     fill="#cc79a7"
     transform="matrix(0.0666667 0 0 0.0666667 3.48861 -77.2667)"
     d="M 1054.39,3609.57 L 1065.32,3603.26 L 1193.05,3660.13 L 1188.9,3669.45 L 1054.39,3609.57 Z "
     id="path62" />
  <path
     stroke="none"
     fill="#000000"
     transform="matrix(0.0666667 0 0 0.0666667 3.48861 -77.2667)"
     d="M 1336.61,3634.96 L 1329.03,3628.13 L 1352.75,3601.79 L 1360.33,3608.62 L 1336.61,3634.96 Z "
     id="path64" />
  <path
     stroke="none"
     fill="#56b4e9"
     transform="matrix(0.0666667 0 0 0.0666667 3.48861 -77.2667)"
     d="M 1383.93,3446.66 L 1375.09,3451.76 L 1356.79,3420.05 L 1365.62,3414.95 L 1383.93,3446.66 Z "
     id="path66" />
  <path
     stroke="none"
     fill="#56b4e9"
     transform="matrix(0.0666667 0 0 0.0666667 3.48861 -77.2667)"
     d="M 1347.92,3467.45 L 1339.09,3472.55 L 1320.78,3440.84 L 1329.62,3435.74 L 1347.92,3467.45 Z "
     id="path68" />
  <path
     stroke="none"
     fill="#56b4e9"
     transform="matrix(0.0666667 0 0 0.0666667 3.48861 -77.2667)"
     d="M 1232.04,3340.02 L 1234.16,3350 L 1160.93,3365.57 L 1158.8,3355.59 L 1232.04,3340.02 Z "
     id="path70" />
  <path
     stroke="none"
     fill="#000000"
     transform="matrix(0.0666667 0 0 0.0666667 3.48861 -77.2667)"
     d="M 1069.66,3464.34 L 1079.8,3465.41 L 1065.32,3603.26 L 1054.39,3609.57 L 1069.66,3464.34 Z "
     id="path72" />
  <path
     stroke="none"
     fill="#000000"
     transform="matrix(0.0666667 0 0 0.0666667 3.48861 -77.2667)"
     d="M 1111,3468.69 L 1121.15,3469.75 L 1109.43,3581.25 L 1099.28,3580.19 L 1111,3468.69 Z "
     id="path74" />
  <g
     aria-label="N"
     transform="matrix(0.0666667,0,0,0.0666667,84.3459,173.624)"
     style="font-style:normal;font-weight:normal;font-size:160px;font-family:Arial;fill:#cc79a7;stroke:none"
     id="text76">
    <path
       d="m 12.1875,0 v -114.53125 h 15.546875 l 60.15625,89.921875 V -114.53125 H 102.42188 V 0 H 86.875 L 26.71875,-90 V 0 Z"
       style="font-style:normal;font-weight:normal;font-size:160px;font-family:Arial;fill:#cc79a7;stroke:none"
       id="path1121"
       inkscape:connector-curvature="0" />
  </g>
  <g
     aria-label="N"
     transform="matrix(0.0666667,0,0,0.0666667,94.6494,162.181)"
     style="font-style:normal;font-weight:normal;font-size:160px;font-family:Arial;fill:#56b4e9;stroke:none"
     id="text78">
    <path
       d="m 12.1875,0 v -114.53125 h 15.546875 l 60.15625,89.921875 V -114.53125 H 102.42188 V 0 H 86.875 L 26.71875,-90 V 0 Z"
       style="font-style:normal;font-weight:normal;font-size:160px;font-family:Arial;fill:#56b4e9;stroke:none"
       id="path1118"
       inkscape:connector-curvature="0" />
  </g>
  <g
     aria-label="N"
     transform="matrix(0.0666667,0,0,0.0666667,86.9503,148.845)"
     style="font-style:normal;font-weight:normal;font-size:160px;font-family:Arial;fill:#56b4e9;stroke:none"
     id="text80">
    <path
       d="m 12.1875,0 v -114.53125 h 15.546875 l 60.15625,89.921875 V -114.53125 H 102.42188 V 0 H 86.875 L 26.71875,-90 V 0 Z"
       style="font-style:normal;font-weight:normal;font-size:160px;font-family:Arial;fill:#56b4e9;stroke:none"
       id="path1115"
       inkscape:connector-curvature="0" />
  </g>
  <g
     aria-label="N"
     transform="matrix(0.0666667,0,0,0.0666667,71.8884,152.047)"
     style="font-style:normal;font-weight:normal;font-size:160px;font-family:Arial;fill:#56b4e9;stroke:none"
     id="text82">
    <path
       d="m 12.1875,0 v -114.53125 h 15.546875 l 60.15625,89.921875 V -114.53125 H 102.42188 V 0 H 86.875 L 26.71875,-90 V 0 Z"
       style="font-style:normal;font-weight:normal;font-size:160px;font-family:Arial;fill:#56b4e9;stroke:none"
       id="path1112"
       inkscape:connector-curvature="0" />
  </g>
  <g
     aria-label="H"
     transform="matrix(0.0666667,0,0,0.0666667,43.4436,23.6942)"
     style="font-style:normal;font-weight:normal;font-size:160px;font-family:Arial;fill:#000000;stroke:none"
     id="text84">
    <path
       d="M 12.8125,0 V -114.53125 H 27.96875 V -67.5 H 87.5 v -47.03125 h 15.15625 V 0 H 87.5 V -53.984375 H 27.96875 V 0 Z"
       style="font-style:normal;font-weight:normal;font-size:160px;font-family:Arial;fill:#000000;stroke:none"
       id="path1109"
       inkscape:connector-curvature="0" />
  </g>
  <g
     aria-label="N"
     transform="matrix(0.0666667,0,0,0.0666667,43.4436,34.3609)"
     style="font-style:normal;font-weight:normal;font-size:160px;font-family:Arial;fill:#000000;stroke:none"
     id="text86">
    <path
       d="m 12.1875,0 v -114.53125 h 15.546875 l 60.15625,89.921875 V -114.53125 H 102.42188 V 0 H 86.875 L 26.71875,-90 V 0 Z"
       style="font-style:normal;font-weight:normal;font-size:160px;font-family:Arial;fill:#000000;stroke:none"
       id="path1106"
       inkscape:connector-curvature="0" />
  </g>
  <path
     stroke="none"
     fill="#000000"
     transform="matrix(0.0666667 0 0 0.0666667 3.48861 -77.2667)"
     d="M 462.397,1954.93 L 452.192,1960.82 L 452.192,1730.11 L 457.295,1726.9 L 462.397,1729.85 L 462.397,1954.93 Z "
     id="path88" />
  <path
     stroke="none"
     fill="#000000"
     transform="matrix(0.0666667 0 0 0.0666667 3.48861 -77.2667)"
     d="M 657.325,2067.47 L 657.325,2073.36 L 651.885,2076.11 L 452.192,1960.82 L 462.397,1954.93 L 657.325,2067.47 Z "
     id="path90" />
  <path
     stroke="none"
     fill="#000000"
     transform="matrix(0.0666667 0 0 0.0666667 3.48861 -77.2667)"
     d="M 852.253,1954.93 L 862.457,1960.82 L 662.764,2076.11 L 657.325,2073.36 L 657.325,2067.47 L 852.253,1954.93 Z "
     id="path92" />
  <path
     stroke="none"
     fill="#000000"
     transform="matrix(0.0666667 0 0 0.0666667 3.48861 -77.2667)"
     d="M 852.253,1729.85 L 862.457,1723.96 L 862.457,1960.82 L 852.253,1954.93 L 852.253,1729.85 Z "
     id="path94" />
  <path
     stroke="none"
     fill="#000000"
     transform="matrix(0.0666667 0 0 0.0666667 3.48861 -77.2667)"
     d="M 736.704,1663.13 L 741.806,1654.3 L 862.457,1723.96 L 852.253,1729.85 L 736.704,1663.13 Z "
     id="path96" />
  <path
     stroke="none"
     fill="#000000"
     transform="matrix(0.0666667 0 0 0.0666667 3.48861 -77.2667)"
     d="M 462.397,1729.85 L 457.295,1726.9 L 457.523,1720.88 L 572.094,1654.73 L 577.196,1663.57 L 462.397,1729.85 Z "
     id="path98" />
  <g
     aria-label="OBn"
     transform="matrix(0.0666667,0,0,0.0666667,69.8476,65.1576)"
     style="font-style:normal;font-weight:normal;font-size:160px;font-family:Arial;fill:#000000;stroke:none"
     id="text100">
    <path
       d="m 7.734375,-55.78125 q 0,-28.515625 15.3125,-44.60938 15.3125,-16.17187 39.53125,-16.17187 15.859375,0 28.59375,7.57812 12.734375,7.57813 19.375005,21.17188 6.71875,13.515625 6.71875,30.703125 0,17.421875 -7.03125,31.171875 -7.03125,13.75 -19.92188,20.859375 -12.890625,7.03125 -27.8125,7.03125 -16.171875,0 -28.90625,-7.8125 -12.734375,-7.8125 -19.296875,-21.328125 -6.5625,-13.515625 -6.5625,-28.59375 z m 15.625,0.234375 q 0,20.703125 11.09375,32.65625 11.171875,11.875 27.96875,11.875 17.109375,0 28.125,-12.03125 11.093755,-12.03125 11.093755,-34.140625 0,-13.984375 -4.76563,-24.375 -4.6875,-10.46875 -13.828125,-16.171875 -9.0625,-5.781255 -20.390625,-5.781255 -16.09375,0 -27.734375,11.093755 -11.5625,11.015625 -11.5625,36.875 z"
       style="font-style:normal;font-weight:normal;font-size:160px;font-family:Arial;fill:#000000;stroke:none"
       id="path1099"
       inkscape:connector-curvature="0" />
    <path
       d="m 136.09375,0 v -114.53125 h 42.96875 q 13.125,0 21.01562,3.51562 7.96875,3.4375 12.42188,10.70313 4.53125,7.1875 4.53125,15.078125 0,7.34375 -3.98438,13.828125 -3.98437,6.484375 -12.03125,10.46875 10.39063,3.046875 15.9375,10.390625 5.625,7.34375 5.625,17.34375 0,8.046875 -3.4375,15 -3.35937,6.875 -8.35937,10.625 -5,3.75 -12.57813,5.703125 Q 190.70312,0 179.76562,0 Z M 151.25,-66.40625 h 24.76562 q 10.07813,0 14.45313,-1.328125 5.78125,-1.71875 8.67187,-5.703125 2.96875,-3.984375 2.96875,-10 0,-5.703125 -2.73437,-10 -2.73438,-4.375 -7.8125,-5.9375 -5.07813,-1.64063 -17.42188,-1.64063 H 151.25 Z m 0,52.890625 h 28.51562 q 7.34375,0 10.3125,-0.546875 5.23438,-0.9375 8.75,-3.125 3.51563,-2.1875 5.78125,-6.328125 2.26563,-4.21875 2.26563,-9.6875 0,-6.40625 -3.28125,-11.09375 -3.28125,-4.765625 -9.14063,-6.640625 -5.78125,-1.953125 -16.71875,-1.953125 H 151.25 Z"
       style="font-style:normal;font-weight:normal;font-size:160px;font-family:Arial;fill:#000000;stroke:none"
       id="path1101"
       inkscape:connector-curvature="0" />
    <path
       d="m 241.79687,0 v -82.96875 h 12.65625 v 11.796875 q 9.14063,-13.671875 26.40625,-13.671875 7.5,0 13.75,2.734375 6.32813,2.65625 9.45313,7.03125 3.125,4.375 4.375,10.390625 0.78125,3.90625 0.78125,13.671875 V 0 h -14.0625 v -50.46875 q 0,-8.59375 -1.64063,-12.8125 -1.64062,-4.296875 -5.85937,-6.796875 -4.14063,-2.578125 -9.76563,-2.578125 -8.98437,0 -15.54687,5.703125 -6.48438,5.703125 -6.48438,21.640625 V 0 Z"
       style="font-style:normal;font-weight:normal;font-size:160px;font-family:Arial;fill:#000000;stroke:none"
       id="path1103"
       inkscape:connector-curvature="0" />
  </g>
  <path
     stroke="none"
     fill="#000000"
     transform="matrix(0.0666667 0 0 0.0666667 3.48861 -77.2667)"
     d="M 1000.76,2013.17 L 976.945,2054.42 L 968.965,2047.83 L 991.061,2009.56 L 1000.76,2013.17 Z "
     id="path102" />
  <path
     stroke="none"
     fill="#000000"
     transform="matrix(0.0666667 0 0 0.0666667 3.48861 -77.2667)"
     d="M 952.704,1995.24 L 937.391,2021.77 L 929.41,2015.18 L 943.01,1991.63 L 952.704,1995.24 Z "
     id="path104" />
  <path
     stroke="none"
     fill="#000000"
     transform="matrix(0.0666667 0 0 0.0666667 3.48861 -77.2667)"
     d="M 904.653,1977.31 L 897.837,1989.12 L 889.856,1982.53 L 894.959,1973.69 L 904.653,1977.31 Z "
     id="path106" />
  <g
     aria-label="BnO"
     transform="matrix(0.0666667,0,0,0.0666667,3.46564,65.125)"
     style="font-style:normal;font-weight:normal;font-size:160px;font-family:Arial;fill:#000000;stroke:none"
     id="text108">
    <path
       d="M 11.71875,0 V -114.53125 H 54.6875 q 13.125,0 21.015625,3.51562 7.96875,3.4375 12.421875,10.70313 4.53125,7.1875 4.53125,15.078125 0,7.34375 -3.984375,13.828125 -3.984375,6.484375 -12.03125,10.46875 10.390625,3.046875 15.9375,10.390625 5.625,7.34375 5.625,17.34375 0,8.046875 -3.4375,15 -3.359375,6.875 -8.359375,10.625 -5,3.75 -12.578125,5.703125 Q 66.328125,0 55.390625,0 Z M 26.875,-66.40625 h 24.765625 q 10.078125,0 14.453125,-1.328125 5.78125,-1.71875 8.671875,-5.703125 2.96875,-3.984375 2.96875,-10 0,-5.703125 -2.734375,-10 -2.734375,-4.375 -7.8125,-5.9375 -5.078125,-1.64063 -17.421875,-1.64063 H 26.875 Z m 0,52.890625 h 28.515625 q 7.34375,0 10.3125,-0.546875 5.234375,-0.9375 8.75,-3.125 3.515625,-2.1875 5.78125,-6.328125 2.265625,-4.21875 2.265625,-9.6875 0,-6.40625 -3.28125,-11.09375 -3.28125,-4.765625 -9.140625,-6.640625 -5.78125,-1.953125 -16.71875,-1.953125 H 26.875 Z"
       style="font-style:normal;font-weight:normal;font-size:160px;font-family:Arial;fill:#000000;stroke:none"
       id="path1092"
       inkscape:connector-curvature="0" />
    <path
       d="m 117.42188,0 v -82.96875 h 12.65624 v 11.796875 q 9.14063,-13.671875 26.40625,-13.671875 7.5,0 13.75,2.734375 6.32813,2.65625 9.45313,7.03125 3.125,4.375 4.375,10.390625 0.78125,3.90625 0.78125,13.671875 V 0 h -14.0625 v -50.46875 q 0,-8.59375 -1.64063,-12.8125 -1.64062,-4.296875 -5.85937,-6.796875 -4.14063,-2.578125 -9.76563,-2.578125 -8.98437,0 -15.54687,5.703125 -6.48438,5.703125 -6.48438,21.640625 V 0 Z"
       style="font-style:normal;font-weight:normal;font-size:160px;font-family:Arial;fill:#000000;stroke:none"
       id="path1094"
       inkscape:connector-curvature="0" />
    <path
       d="m 203.67187,-55.78125 q 0,-28.515625 15.3125,-44.60938 15.3125,-16.17187 39.53125,-16.17187 15.85938,0 28.59375,7.57812 12.73438,7.57813 19.375,21.17188 6.71875,13.515625 6.71875,30.703125 0,17.421875 -7.03125,31.171875 -7.03125,13.75 -19.92187,20.859375 -12.89063,7.03125 -27.8125,7.03125 -16.17188,0 -28.90625,-7.8125 -12.73438,-7.8125 -19.29688,-21.328125 -6.5625,-13.515625 -6.5625,-28.59375 z m 15.625,0.234375 q 0,20.703125 11.09375,32.65625 11.17188,11.875 27.96875,11.875 17.10938,0 28.125,-12.03125 11.09375,-12.03125 11.09375,-34.140625 0,-13.984375 -4.76562,-24.375 -4.6875,-10.46875 -13.82813,-16.171875 -9.0625,-5.781255 -20.39062,-5.781255 -16.09375,0 -27.73438,11.093755 -11.5625,11.015625 -11.5625,36.875 z"
       style="font-style:normal;font-weight:normal;font-size:160px;font-family:Arial;fill:#000000;stroke:none"
       id="path1096"
       inkscape:connector-curvature="0" />
  </g>
  <path
     stroke="none"
     fill="#000000"
     transform="matrix(0.0666667 0 0 0.0666667 3.48861 -77.2667)"
     d="M 338.727,2053.82 L 314.917,2012.58 L 324.62,2008.98 L 346.699,2047.22 L 338.727,2053.82 Z "
     id="path110" />
  <path
     stroke="none"
     fill="#000000"
     transform="matrix(0.0666667 0 0 0.0666667 3.48861 -77.2667)"
     d="M 377.795,2021.47 L 362.473,1994.93 L 372.176,1991.33 L 385.766,2014.87 L 377.795,2021.47 Z "
     id="path112" />
  <path
     stroke="none"
     fill="#000000"
     transform="matrix(0.0666667 0 0 0.0666667 3.48861 -77.2667)"
     d="M 416.863,1989.11 L 410.029,1977.27 L 419.732,1973.67 L 424.834,1982.51 L 416.863,1989.11 Z "
     id="path114" />
  <path
     stroke="none"
     fill="#000000"
     transform="matrix(0.0666667 0 0 0.0666667 3.48861 -77.2667)"
     d="M 252.163,1472.11 L 262.367,1472.11 L 262.367,1586.09 L 252.163,1635.26 L 252.163,1472.11 Z "
     id="path116" />
  <path
     stroke="none"
     fill="#000000"
     transform="matrix(0.0666667 0 0 0.0666667 3.48861 -77.2667)"
     d="M 252.163,1635.26 L 262.367,1586.09 L 457.523,1720.88 L 457.295,1726.9 L 452.192,1730.11 L 252.163,1635.26 Z "
     id="path118" />
  <g
     aria-label="OBn"
     transform="matrix(0.0666667,0,0,0.0666667,43.1769,80.5559)"
     style="font-style:normal;font-weight:normal;font-size:160px;font-family:Arial;fill:#000000;stroke:none"
     id="text120">
    <path
       d="m 7.734375,-55.78125 q 0,-28.515625 15.3125,-44.60938 15.3125,-16.17187 39.53125,-16.17187 15.859375,0 28.59375,7.57812 12.734375,7.57813 19.375005,21.17188 6.71875,13.515625 6.71875,30.703125 0,17.421875 -7.03125,31.171875 -7.03125,13.75 -19.92188,20.859375 -12.890625,7.03125 -27.8125,7.03125 -16.171875,0 -28.90625,-7.8125 -12.734375,-7.8125 -19.296875,-21.328125 -6.5625,-13.515625 -6.5625,-28.59375 z m 15.625,0.234375 q 0,20.703125 11.09375,32.65625 11.171875,11.875 27.96875,11.875 17.109375,0 28.125,-12.03125 11.093755,-12.03125 11.093755,-34.140625 0,-13.984375 -4.76563,-24.375 -4.6875,-10.46875 -13.828125,-16.171875 -9.0625,-5.781255 -20.390625,-5.781255 -16.09375,0 -27.734375,11.093755 -11.5625,11.015625 -11.5625,36.875 z"
       style="font-style:normal;font-weight:normal;font-size:160px;font-family:Arial;fill:#000000;stroke:none"
       id="path1085"
       inkscape:connector-curvature="0" />
    <path
       d="m 136.09375,0 v -114.53125 h 42.96875 q 13.125,0 21.01562,3.51562 7.96875,3.4375 12.42188,10.70313 4.53125,7.1875 4.53125,15.078125 0,7.34375 -3.98438,13.828125 -3.98437,6.484375 -12.03125,10.46875 10.39063,3.046875 15.9375,10.390625 5.625,7.34375 5.625,17.34375 0,8.046875 -3.4375,15 -3.35937,6.875 -8.35937,10.625 -5,3.75 -12.57813,5.703125 Q 190.70312,0 179.76562,0 Z M 151.25,-66.40625 h 24.76562 q 10.07813,0 14.45313,-1.328125 5.78125,-1.71875 8.67187,-5.703125 2.96875,-3.984375 2.96875,-10 0,-5.703125 -2.73437,-10 -2.73438,-4.375 -7.8125,-5.9375 -5.07813,-1.64063 -17.42188,-1.64063 H 151.25 Z m 0,52.890625 h 28.51562 q 7.34375,0 10.3125,-0.546875 5.23438,-0.9375 8.75,-3.125 3.51563,-2.1875 5.78125,-6.328125 2.26563,-4.21875 2.26563,-9.6875 0,-6.40625 -3.28125,-11.09375 -3.28125,-4.765625 -9.14063,-6.640625 -5.78125,-1.953125 -16.71875,-1.953125 H 151.25 Z"
       style="font-style:normal;font-weight:normal;font-size:160px;font-family:Arial;fill:#000000;stroke:none"
       id="path1087"
       inkscape:connector-curvature="0" />
    <path
       d="m 241.79687,0 v -82.96875 h 12.65625 v 11.796875 q 9.14063,-13.671875 26.40625,-13.671875 7.5,0 13.75,2.734375 6.32813,2.65625 9.45313,7.03125 3.125,4.375 4.375,10.390625 0.78125,3.90625 0.78125,13.671875 V 0 h -14.0625 v -50.46875 q 0,-8.59375 -1.64063,-12.8125 -1.64062,-4.296875 -5.85937,-6.796875 -4.14063,-2.578125 -9.76563,-2.578125 -8.98437,0 -15.54687,5.703125 -6.48438,5.703125 -6.48438,21.640625 V 0 Z"
       style="font-style:normal;font-weight:normal;font-size:160px;font-family:Arial;fill:#000000;stroke:none"
       id="path1089"
       inkscape:connector-curvature="0" />
  </g>
  <path
     stroke="none"
     fill="#000000"
     transform="matrix(0.0666667 0 0 0.0666667 3.48861 -77.2667)"
     d="M 681.136,2226 L 633.514,2226 L 651.885,2076.11 L 657.325,2073.36 L 662.764,2076.11 L 681.136,2226 Z "
     id="path122" />
  <g
     aria-label="BnO"
     transform="matrix(0.0666667,0,0,0.0666667,3.40938,18.9626)"
     style="font-style:normal;font-weight:normal;font-size:160px;font-family:Arial;fill:#000000;stroke:none"
     id="text124">
    <path
       d="M 11.71875,0 V -114.53125 H 54.6875 q 13.125,0 21.015625,3.51562 7.96875,3.4375 12.421875,10.70313 4.53125,7.1875 4.53125,15.078125 0,7.34375 -3.984375,13.828125 -3.984375,6.484375 -12.03125,10.46875 10.390625,3.046875 15.9375,10.390625 5.625,7.34375 5.625,17.34375 0,8.046875 -3.4375,15 -3.359375,6.875 -8.359375,10.625 -5,3.75 -12.578125,5.703125 Q 66.328125,0 55.390625,0 Z M 26.875,-66.40625 h 24.765625 q 10.078125,0 14.453125,-1.328125 5.78125,-1.71875 8.671875,-5.703125 2.96875,-3.984375 2.96875,-10 0,-5.703125 -2.734375,-10 -2.734375,-4.375 -7.8125,-5.9375 -5.078125,-1.64063 -17.421875,-1.64063 H 26.875 Z m 0,52.890625 h 28.515625 q 7.34375,0 10.3125,-0.546875 5.234375,-0.9375 8.75,-3.125 3.515625,-2.1875 5.78125,-6.328125 2.265625,-4.21875 2.265625,-9.6875 0,-6.40625 -3.28125,-11.09375 -3.28125,-4.765625 -9.140625,-6.640625 -5.78125,-1.953125 -16.71875,-1.953125 H 26.875 Z"
       style="font-style:normal;font-weight:normal;font-size:160px;font-family:Arial;fill:#000000;stroke:none"
       id="path1078"
       inkscape:connector-curvature="0" />
    <path
       d="m 117.42188,0 v -82.96875 h 12.65624 v 11.796875 q 9.14063,-13.671875 26.40625,-13.671875 7.5,0 13.75,2.734375 6.32813,2.65625 9.45313,7.03125 3.125,4.375 4.375,10.390625 0.78125,3.90625 0.78125,13.671875 V 0 h -14.0625 v -50.46875 q 0,-8.59375 -1.64063,-12.8125 -1.64062,-4.296875 -5.85937,-6.796875 -4.14063,-2.578125 -9.76563,-2.578125 -8.98437,0 -15.54687,5.703125 -6.48438,5.703125 -6.48438,21.640625 V 0 Z"
       style="font-style:normal;font-weight:normal;font-size:160px;font-family:Arial;fill:#000000;stroke:none"
       id="path1080"
       inkscape:connector-curvature="0" />
    <path
       d="m 203.67187,-55.78125 q 0,-28.515625 15.3125,-44.60938 15.3125,-16.17187 39.53125,-16.17187 15.85938,0 28.59375,7.57812 12.73438,7.57813 19.375,21.17188 6.71875,13.515625 6.71875,30.703125 0,17.421875 -7.03125,31.171875 -7.03125,13.75 -19.92187,20.859375 -12.89063,7.03125 -27.8125,7.03125 -16.17188,0 -28.90625,-7.8125 -12.73438,-7.8125 -19.29688,-21.328125 -6.5625,-13.515625 -6.5625,-28.59375 z m 15.625,0.234375 q 0,20.703125 11.09375,32.65625 11.17188,11.875 27.96875,11.875 17.10938,0 28.125,-12.03125 11.09375,-12.03125 11.09375,-34.140625 0,-13.984375 -4.76562,-24.375 -4.6875,-10.46875 -13.82813,-16.171875 -9.0625,-5.781255 -20.39062,-5.781255 -16.09375,0 -27.73438,11.093755 -11.5625,11.015625 -11.5625,36.875 z"
       style="font-style:normal;font-weight:normal;font-size:160px;font-family:Arial;fill:#000000;stroke:none"
       id="path1082"
       inkscape:connector-curvature="0" />
  </g>
  <g
     aria-label="O"
     transform="matrix(0.0666667,0,0,0.0666667,69.8013,34.3876)"
     style="font-style:normal;font-weight:normal;font-size:160px;font-family:Arial;fill:#000000;stroke:none"
     id="text126">
    <path
       d="m 7.734375,-55.78125 q 0,-28.515625 15.3125,-44.60938 15.3125,-16.17187 39.53125,-16.17187 15.859375,0 28.59375,7.57812 12.734375,7.57813 19.375005,21.17188 6.71875,13.515625 6.71875,30.703125 0,17.421875 -7.03125,31.171875 -7.03125,13.75 -19.92188,20.859375 -12.890625,7.03125 -27.8125,7.03125 -16.171875,0 -28.90625,-7.8125 -12.734375,-7.8125 -19.296875,-21.328125 -6.5625,-13.515625 -6.5625,-28.59375 z m 15.625,0.234375 q 0,20.703125 11.09375,32.65625 11.171875,11.875 27.96875,11.875 17.109375,0 28.125,-12.03125 11.093755,-12.03125 11.093755,-34.140625 0,-13.984375 -4.76563,-24.375 -4.6875,-10.46875 -13.828125,-16.171875 -9.0625,-5.781255 -20.390625,-5.781255 -16.09375,0 -27.734375,11.093755 -11.5625,11.015625 -11.5625,36.875 z"
       style="font-style:normal;font-weight:normal;font-size:160px;font-family:Arial;fill:#000000;stroke:none"
       id="path1075"
       inkscape:connector-curvature="0" />
  </g>
  <path
     stroke="none"
     fill="#000000"
     transform="matrix(0.0666667 0 0 0.0666667 3.48861 -77.2667)"
     d="M 969.705,1632.22 L 974.807,1641.06 L 839.191,1719.36 L 834.088,1710.52 L 969.705,1632.22 Z "
     id="path128" />
  <path
     stroke="none"
     fill="#000000"
     transform="matrix(0.0666667 0 0 0.0666667 3.48861 -77.2667)"
     d="M 990.421,1668.1 L 995.523,1676.94 L 859.906,1755.24 L 854.804,1746.4 L 990.421,1668.1 Z "
     id="path130" />
  <g
     aria-label="1)"
     transform="matrix(0.0666667,0,0,0.0666667,28.4055,104.733)"
     style="font-style:normal;font-weight:normal;font-size:160px;font-family:Arial;fill:#000000;stroke:none"
     id="text132">
    <path
       d="m 59.609375,0 h -14.0625 v -89.609375 q -5.078125,4.84375 -13.359375,9.6875 -8.203125,4.84375 -14.765625,7.265625 V -86.25 q 11.796875,-5.546875 20.625,-13.4375 8.828125,-7.89063 12.5,-15.3125 h 9.0625 z"
       style="font-style:normal;font-weight:normal;font-size:160px;font-family:Arial;fill:#000000;stroke:none"
       id="path1070"
       inkscape:connector-curvature="0" />
    <path
       d="M 108.82813,33.671875 H 98.75 q 23.35938,-37.5 23.35938,-75.078125 0,-14.6875 -3.35938,-29.140625 -2.65625,-11.71875 -7.42187,-22.5 -3.04688,-7.031255 -12.57813,-23.437505 h 10.07813 q 14.6875,19.60938 21.71874,39.375005 6.01563,17.03125 6.01563,35.625 0,21.09375 -8.125,40.78125 -8.04687,19.6875 -19.60937,34.375 z"
       style="font-style:normal;font-weight:normal;font-size:160px;font-family:Arial;fill:#000000;stroke:none"
       id="path1072"
       inkscape:connector-curvature="0" />
  </g>
  <g
     aria-label="Cp"
     transform="matrix(0.0666667,0,0,0.0666667,40.8545,104.733)"
     style="font-style:normal;font-weight:normal;font-size:160px;font-family:Arial;fill:#009e73;stroke:none"
     id="text134">
    <path
       d="m 94.0625,-40.15625 15.15625,3.828125 Q 104.45313,-17.65625 92.03125,-7.8125 79.6875,1.953125 61.796875,1.953125 q -18.515625,0 -30.15625,-7.5 -11.5625,-7.578125 -17.65625,-21.875 Q 7.96875,-41.71875 7.96875,-58.125 q 0,-17.890625 6.796875,-31.171875 6.875,-13.359375 19.453125,-20.234375 12.65625,-6.95313 27.8125,-6.95313 17.1875,0 28.90625,8.75 11.71875,8.750005 16.32813,24.60938 l -14.92188,3.515625 q -3.984375,-12.5 -11.5625,-18.203125 -7.578125,-5.70313 -19.0625,-5.70313 -13.203125,0 -22.109375,6.32813 -8.828125,6.328125 -12.421875,17.03125 -3.59375,10.625 -3.59375,21.953125 0,14.609375 4.21875,25.546875 4.296875,10.859375 13.28125,16.25 8.984375,5.390625 19.453125,5.390625 12.734375,0 21.5625,-7.34375 8.828125,-7.34375 11.953125,-21.796875 z"
       style="font-style:normal;font-weight:normal;font-size:160px;font-family:Arial;fill:#009e73;stroke:none"
       id="path1065"
       inkscape:connector-curvature="0" />
    <path
       d="M 126.17188,31.796875 V -82.96875 h 12.81249 v 10.78125 q 4.53125,-6.328125 10.23438,-9.453125 5.70312,-3.203125 13.82812,-3.203125 10.625,0 18.75,5.46875 8.125,5.46875 12.26563,15.46875 4.14062,9.921875 4.14062,21.796875 0,12.734375 -4.60937,22.96875 -4.53125,10.15625 -13.28125,15.625 Q 171.64062,1.875 162.03125,1.875 155,1.875 149.375,-1.09375 q -5.54688,-2.96875 -9.14063,-7.5 v 40.390625 z m 12.73437,-72.8125 q 0,16.015625 6.48437,23.671875 6.48438,7.65625 15.70313,7.65625 9.375,0 16.01562,-7.890625 6.71875,-7.96875 6.71875,-24.609375 0,-15.859375 -6.5625,-23.75 -6.48437,-7.890625 -15.54687,-7.890625 -8.98438,0 -15.9375,8.4375 -6.875,8.359375 -6.875,24.375 z"
       style="font-style:normal;font-weight:normal;font-size:160px;font-family:Arial;fill:#009e73;stroke:none"
       id="path1067"
       inkscape:connector-curvature="0" />
  </g>
  <g
     aria-label="2"
     transform="matrix(0.0666667,0,0,0.0666667,54.5211,107)"
     style="font-style:normal;font-weight:normal;font-size:120px;font-family:Arial;fill:#009e73;stroke:none"
     id="text136">
    <path
       d="M 60.410156,-10.136719 V 0 H 3.6328125 Q 3.515625,-3.8085938 4.8632812,-7.3242187 7.03125,-13.125 11.777344,-18.75 q 4.804687,-5.625 13.828125,-13.007812 14.003906,-11.484375 18.925781,-18.164063 4.921875,-6.738281 4.921875,-12.714844 0,-6.269531 -4.511719,-10.546875 -4.453125,-4.335937 -11.660156,-4.335937 -7.617188,0 -12.1875,4.570312 -4.570313,4.570313 -4.628906,12.65625 L 5.625,-61.40625 Q 6.7382812,-73.535156 14.003906,-79.863281 21.269531,-86.25 33.515625,-86.25 q 12.363281,0 19.570312,6.855469 7.207032,6.855469 7.207032,16.992187 0,5.15625 -2.109375,10.136719 -2.109375,4.980469 -7.03125,10.488281 -4.863282,5.507813 -16.230469,15.117188 -9.492188,7.96875 -12.1875,10.839843 -2.695313,2.8125 -4.453125,5.683594 z"
       style="font-style:normal;font-weight:normal;font-size:120px;font-family:Arial;fill:#009e73;stroke:none"
       id="path1062"
       inkscape:connector-curvature="0" />
  </g>
  <g
     aria-label="Zr(H)Cl"
     transform="matrix(0.0666667,0,0,0.0666667,58.9711,104.733)"
     style="font-style:normal;font-weight:normal;font-size:160px;font-family:Arial;fill:#009e73;stroke:none"
     id="text138">
    <path
       d="M 3.203125,0 V -14.0625 L 61.875,-87.421875 q 6.25,-7.8125 11.875,-13.593755 H 9.84375 v -13.51562 H 91.875 v 13.51562 L 27.578125,-21.5625 20.625,-13.515625 H 93.75 V 0 Z"
       style="font-style:normal;font-weight:normal;font-size:160px;font-family:Arial;fill:#009e73;stroke:none"
       id="path1047"
       inkscape:connector-curvature="0" />
    <path
       d="m 108.20313,0 v -82.96875 h 12.65625 v 12.578125 q 4.84375,-8.828125 8.90624,-11.640625 4.14063,-2.8125 9.0625,-2.8125 7.10938,0 14.45313,4.53125 l -4.84375,13.046875 q -5.15625,-3.046875 -10.3125,-3.046875 -4.60938,0 -8.28125,2.8125 -3.67187,2.734375 -5.23437,7.65625 -2.34375,7.5 -2.34375,16.40625 V 0 Z"
       style="font-style:normal;font-weight:normal;font-size:160px;font-family:Arial;fill:#009e73;stroke:none"
       id="path1049"
       inkscape:connector-curvature="0" />
    <path
       d="m 188.67187,33.671875 q -11.64062,-14.6875 -19.6875,-34.375 -8.04687,-19.6875 -8.04687,-40.78125 0,-18.59375 6.01562,-35.625 7.03125,-19.765625 21.71875,-39.375005 H 198.75 q -9.45313,16.25 -12.5,23.20313 -4.76563,10.78125 -7.5,22.5 -3.35938,14.609375 -3.35938,29.375 0,37.578125 23.35938,75.078125 z"
       style="font-style:normal;font-weight:normal;font-size:160px;font-family:Arial;fill:#009e73;stroke:none"
       id="path1051"
       inkscape:connector-curvature="0" />
    <path
       d="m 217.5,0 v -114.53125 h 15.15625 V -67.5 h 59.53125 v -47.03125 h 15.15625 V 0 H 292.1875 V -53.984375 H 232.65625 V 0 Z"
       style="font-style:normal;font-weight:normal;font-size:160px;font-family:Arial;fill:#009e73;stroke:none"
       id="path1053"
       inkscape:connector-curvature="0" />
    <path
       d="M 340.07812,33.671875 H 330 q 23.35937,-37.5 23.35937,-75.078125 0,-14.6875 -3.35937,-29.140625 -2.65625,-11.71875 -7.42188,-22.5 Q 339.53125,-100.07813 330,-116.48438 h 10.07812 q 14.6875,19.60938 21.71875,39.375005 6.01563,17.03125 6.01563,35.625 0,21.09375 -8.125,40.78125 -8.04688,19.6875 -19.60938,34.375 z"
       style="font-style:normal;font-weight:normal;font-size:160px;font-family:Arial;fill:#009e73;stroke:none"
       id="path1055"
       inkscape:connector-curvature="0" />
    <path
       d="m 467.8125,-40.15625 15.15625,3.828125 q -4.76563,18.671875 -17.1875,28.515625 -12.34375,9.765625 -30.23438,9.765625 -18.51562,0 -30.15625,-7.5 -11.5625,-7.578125 -17.65625,-21.875 -6.01562,-14.296875 -6.01562,-30.703125 0,-17.890625 6.79687,-31.171875 6.875,-13.359375 19.45313,-20.234375 12.65625,-6.95313 27.8125,-6.95313 17.1875,0 28.90625,8.75 11.71875,8.750005 16.32812,24.60938 l -14.92187,3.515625 q -3.98438,-12.5 -11.5625,-18.203125 -7.57813,-5.70313 -19.0625,-5.70313 -13.20313,0 -22.10938,6.32813 -8.82812,6.328125 -12.42187,17.03125 -3.59375,10.625 -3.59375,21.953125 0,14.609375 4.21875,25.546875 4.29687,10.859375 13.28125,16.25 8.98437,5.390625 19.45312,5.390625 12.73438,0 21.5625,-7.34375 8.82813,-7.34375 11.95313,-21.796875 z"
       style="font-style:normal;font-weight:normal;font-size:160px;font-family:Arial;fill:#009e73;stroke:none"
       id="path1057"
       inkscape:connector-curvature="0" />
    <path
       d="m 499.60937,0 v -114.53125 h 14.0625 V 0 Z"
       style="font-style:normal;font-weight:normal;font-size:160px;font-family:Arial;fill:#009e73;stroke:none"
       id="path1059"
       inkscape:connector-curvature="0" />
  </g>
  <g
     aria-label="2)"
     transform="matrix(0.0666667,0,0,0.0666667,28.4055,122.733)"
     style="font-style:normal;font-weight:normal;font-size:160px;font-family:Arial;fill:#000000;stroke:none"
     id="text140">
    <path
       d="M 80.546875,-13.515625 V 0 H 4.84375 Q 4.6875,-5.078125 6.484375,-9.765625 9.375,-17.5 15.703125,-25 q 6.40625,-7.5 18.4375,-17.34375 Q 52.8125,-57.65625 59.375,-66.5625 q 6.5625,-8.984375 6.5625,-16.953125 0,-8.359375 -6.015625,-14.0625 -5.9375,-5.781255 -15.546875,-5.781255 -10.15625,0 -16.25,6.093755 -6.09375,6.09375 -6.171875,16.875 L 7.5,-81.875 Q 8.984375,-98.046875 18.671875,-106.48438 28.359375,-115 44.6875,-115 q 16.484375,0 26.09375,9.14062 9.609375,9.14063 9.609375,22.656255 0,6.875 -2.8125,13.515625 -2.8125,6.640625 -9.375,13.984375 -6.484375,7.34375 -21.640625,20.15625 -12.65625,10.625 -16.25,14.453125 -3.59375,3.75 -5.9375,7.578125 z"
       style="font-style:normal;font-weight:normal;font-size:160px;font-family:Arial;fill:#000000;stroke:none"
       id="path1042"
       inkscape:connector-curvature="0" />
    <path
       d="M 108.82813,33.671875 H 98.75 q 23.35938,-37.5 23.35938,-75.078125 0,-14.6875 -3.35938,-29.140625 -2.65625,-11.71875 -7.42187,-22.5 -3.04688,-7.031255 -12.57813,-23.437505 h 10.07813 q 14.6875,19.60938 21.71874,39.375005 6.01563,17.03125 6.01563,35.625 0,21.09375 -8.125,40.78125 -8.04687,19.6875 -19.60937,34.375 z"
       style="font-style:normal;font-weight:normal;font-size:160px;font-family:Arial;fill:#000000;stroke:none"
       id="path1044"
       inkscape:connector-curvature="0" />
  </g>
  <g
     aria-label="TMSN"
     transform="matrix(0.0666667,0,0,0.0666667,40.8545,122.733)"
     style="font-style:normal;font-weight:normal;font-size:160px;font-family:Arial;fill:#56b4e9;stroke:none"
     id="text142">
    <path
       d="M 41.484375,0 V -101.01563 H 3.75 v -13.51562 h 90.78125 v 13.51562 H 56.640625 V 0 Z"
       style="font-style:normal;font-weight:normal;font-size:160px;font-family:Arial;fill:#56b4e9;stroke:none"
       id="path1033"
       inkscape:connector-curvature="0" />
    <path
       d="M 109.6875,0 V -114.53125 H 132.5 l 27.10937,81.09375 q 3.75,11.328125 5.46875,16.953125 1.95313,-6.25 6.09375,-18.359375 l 27.42188,-79.6875 h 20.39062 V 0 H 204.375 V -95.859375 L 171.09375,0 H 157.42187 L 124.29688,-97.5 V 0 Z"
       style="font-style:normal;font-weight:normal;font-size:160px;font-family:Arial;fill:#56b4e9;stroke:none"
       id="path1035"
       inkscape:connector-curvature="0" />
    <path
       d="m 238.4375,-36.796875 14.29687,-1.25 q 1.01563,8.59375 4.6875,14.140625 3.75,5.46875 11.5625,8.90625 7.8125,3.359375 17.57813,3.359375 8.67187,0 15.3125,-2.578125 6.64062,-2.578125 9.84375,-7.03125 Q 315,-25.78125 315,-31.09375 q 0,-5.390625 -3.125,-9.375 -3.125,-4.0625 -10.3125,-6.796875 Q 296.95312,-49.0625 281.17187,-52.8125 265.39062,-56.640625 259.0625,-60 q -8.20313,-4.296875 -12.26563,-10.625 -3.98437,-6.40625 -3.98437,-14.296875 0,-8.671875 4.92187,-16.171875 4.92188,-7.57813 14.375,-11.48438 9.45313,-3.90625 21.01563,-3.90625 12.73437,0 22.42187,4.14063 9.76563,4.0625 15,12.03125 5.23438,7.96875 5.625,18.046875 l -14.53125,1.09375 q -1.17187,-10.859375 -7.96875,-16.40625 -6.71875,-5.546875 -19.92187,-5.546875 -13.75,0 -20.07813,5.078125 -6.25,5 -6.25,12.109375 0,6.171875 4.45313,10.15625 4.375,3.984375 22.8125,8.203125 18.51562,4.140625 25.39062,7.265625 10,4.609375 14.76563,11.71875 4.76562,7.03125 4.76562,16.25 0,9.140625 -5.23437,17.265625 -5.23438,8.046875 -15.07813,12.578125 -9.76562,4.453125 -22.03125,4.453125 -15.54687,0 -26.09375,-4.53125 -10.46875,-4.53125 -16.48437,-13.59375 -5.9375,-9.140625 -6.25,-20.625 z"
       style="font-style:normal;font-weight:normal;font-size:160px;font-family:Arial;fill:#56b4e9;stroke:none"
       id="path1037"
       inkscape:connector-curvature="0" />
    <path
       d="m 350.3125,0 v -114.53125 h 15.54687 l 60.15625,89.921875 v -89.921875 h 14.53125 V 0 H 425 L 364.84375,-90 V 0 Z"
       style="font-style:normal;font-weight:normal;font-size:160px;font-family:Arial;fill:#56b4e9;stroke:none"
       id="path1039"
       inkscape:connector-curvature="0" />
  </g>
  <g
     aria-label="3"
     transform="matrix(0.0666667,0,0,0.0666667,71.1399,125)"
     style="font-style:normal;font-weight:normal;font-size:120px;font-family:Arial;fill:#56b4e9;stroke:none"
     id="text144">
    <path
       d="m 5.0390625,-22.675781 10.5468755,-1.40625 q 1.816406,8.964843 6.152343,12.949218 4.394531,3.9257818 10.664063,3.9257818 7.441406,0 12.539062,-5.1562498 5.15625,-5.15625 5.15625,-12.773438 0,-7.265625 -4.746094,-11.953125 -4.746093,-4.746093 -12.070312,-4.746093 -2.988281,0 -7.441406,1.171875 l 1.171875,-9.257813 q 1.054687,0.117188 1.699218,0.117188 6.738282,0 12.128907,-3.515625 5.390625,-3.515625 5.390625,-10.839844 0,-5.800781 -3.925782,-9.609375 -3.925781,-3.808594 -10.136718,-3.808594 -6.152344,0 -10.253907,3.867188 -4.101562,3.867187 -5.273437,11.601562 l -10.546875,-1.875 Q 8.0273438,-74.589844 14.882813,-80.390625 21.738281,-86.25 31.933594,-86.25 q 7.03125,0 12.949218,3.046875 5.917969,2.988281 9.023438,8.203125 3.164062,5.214844 3.164062,11.074219 0,5.566406 -2.988281,10.136719 -2.988281,4.570312 -8.847656,7.265625 7.617187,1.757812 11.835937,7.324218 4.21875,5.507813 4.21875,13.828125 0,11.25 -8.203125,19.1015628 -8.203125,7.7929687 -20.742187,7.7929687 -11.308594,0 -18.808594,-6.7382812 Q 6.09375,-11.953125 5.0390625,-22.675781 Z"
       style="font-style:normal;font-weight:normal;font-size:120px;font-family:Arial;fill:#56b4e9;stroke:none"
       id="path1030"
       inkscape:connector-curvature="0" />
  </g>
  <g
     aria-label=","
     transform="matrix(0.0666667,0,0,0.0666667,75.5899,125)"
     style="font-style:normal;font-weight:normal;font-size:120px;font-family:Arial;fill:#000000;stroke:none"
     id="text146">
    <path
       d="M 10.664063,0 V -12.011719 H 22.675781 V 0 q 0,6.6210937 -2.34375,10.664063 -2.34375,4.101562 -7.441406,6.328124 L 9.9609375,12.480469 Q 13.300781,11.015625 14.882813,8.1445313 16.464844,5.3320312 16.640625,0 Z"
       style="font-style:normal;font-weight:normal;font-size:120px;font-family:Arial;fill:#000000;stroke:none"
       id="path1027"
       inkscape:connector-curvature="0" />
  </g>
  <text
     x="0"
     y="0"
     stroke="none"
     fill="#000000"
     transform="matrix(0.0666667 0 0 0.0666667 77.8126 122.733)"
     font-style="normal"
     font-weight="normal"
     font-size="160px"
     font-family="Arial"
     id="text148" />
  <g
     aria-label="RNC"
     transform="matrix(0.0666667,0,0,0.0666667,80.7761,122.733)"
     style="font-style:normal;font-weight:normal;font-size:160px;font-family:Arial;fill:#cc79a7;stroke:none"
     id="text150">
    <path
       d="m 12.578125,0 v -114.53125 h 50.78125 q 15.3125,0 23.28125,3.125 7.96875,3.04687 12.734375,10.85937 4.76563,7.812505 4.76563,17.26563 0,12.1875 -7.89063,20.546875 -7.890625,8.359375 -24.375,10.625 6.015625,2.890625 9.140625,5.703125 6.640625,6.09375 12.578125,15.234375 L 113.51563,0 H 94.453125 l -15.15625,-23.828125 q -6.640625,-10.3125 -10.9375,-15.78125 -4.296875,-5.46875 -7.734375,-7.65625 -3.359375,-2.1875 -6.875,-3.046875 -2.578125,-0.546875 -8.4375,-0.546875 H 27.734375 V 0 Z m 15.15625,-63.984375 H 60.3125 q 10.390625,0 16.25,-2.109375 5.859375,-2.1875 8.90625,-6.875 3.046875,-4.765625 3.046875,-10.3125 0,-8.125 -5.9375,-13.359375 Q 76.71875,-101.875 63.984375,-101.875 h -36.25 z"
       style="font-style:normal;font-weight:normal;font-size:160px;font-family:Arial;fill:#cc79a7;stroke:none"
       id="path1020"
       inkscape:connector-curvature="0" />
    <path
       d="m 127.8125,0 v -114.53125 h 15.54687 l 60.15625,89.921875 v -89.921875 h 14.53125 V 0 H 202.5 L 142.34375,-90 V 0 Z"
       style="font-style:normal;font-weight:normal;font-size:160px;font-family:Arial;fill:#cc79a7;stroke:none"
       id="path1022"
       inkscape:connector-curvature="0" />
    <path
       d="m 325.3125,-40.15625 15.15625,3.828125 q -4.76563,18.671875 -17.1875,28.515625 -12.34375,9.765625 -30.23438,9.765625 -18.51562,0 -30.15625,-7.5 -11.5625,-7.578125 -17.65625,-21.875 -6.01562,-14.296875 -6.01562,-30.703125 0,-17.890625 6.79687,-31.171875 6.875,-13.359375 19.45313,-20.234375 12.65625,-6.95313 27.8125,-6.95313 17.1875,0 28.90625,8.75 11.71875,8.750005 16.32812,24.60938 l -14.92187,3.515625 q -3.98438,-12.5 -11.5625,-18.203125 -7.57813,-5.70313 -19.0625,-5.70313 -13.20313,0 -22.10938,6.32813 -8.82812,6.328125 -12.42187,17.03125 -3.59375,10.625 -3.59375,21.953125 0,14.609375 4.21875,25.546875 4.29687,10.859375 13.28125,16.25 8.98437,5.390625 19.45312,5.390625 12.73438,0 21.5625,-7.34375 8.82813,-7.34375 11.95313,-21.796875 z"
       style="font-style:normal;font-weight:normal;font-size:160px;font-family:Arial;fill:#cc79a7;stroke:none"
       id="path1024"
       inkscape:connector-curvature="0" />
  </g>
  <text
     x="900.625"
     y="0"
     transform="matrix(0.0666667,0,0,0.0666667,125.455,18.7333)"
     font-style="normal"
     font-weight="normal"
     font-size="160px"
     id="text152"
     style="font-style:normal;font-weight:normal;font-size:160px;font-family:Arial;fill:#e69f00;stroke:none;text-anchor:end;text-align:end;">wywiedzione</text>
  <path
     stroke="none"
     fill="#e69f00"
     transform="matrix(0.0666667 0 0 0.0666667 3.48861 -77.2667)"
     d="M 1302.53,1697.5 L 2780.96,1697.5 L 2780.96,1707.5 L 1302.53,1707.5 Z "
     id="path154" />
  <path
     stroke="none"
     fill="#e69f00"
     transform="matrix(0.0666667 0 0 0.0666667 3.48861 -77.2667)"
     d="M 1272.78,1701.58 A 26.9302,26.9302 0 1 0 1326.64,1701.58A 26.9302,26.9302 0 1 0 1272.78,1701.58Z "
     id="path156" />
  <g
     aria-label="H"
     transform="matrix(0.0666667,0,0,0.0666667,56.9435,159.715)"
     style="font-style:normal;font-weight:normal;font-size:160px;font-family:Arial;fill:#009e73;stroke:none"
     id="text158">
    <path
       d="M 12.8125,0 V -114.53125 H 27.96875 V -67.5 H 87.5 v -47.03125 h 15.15625 V 0 H 87.5 V -53.984375 H 27.96875 V 0 Z"
       style="font-style:normal;font-weight:normal;font-size:160px;font-family:Arial;fill:#009e73;stroke:none"
       id="path1017"
       inkscape:connector-curvature="0" />
  </g>
  <path
     transform="matrix(0.0666667,0,0,0.0666667,3.48861,-77.2667)"
     d="m 853.453,3580.73 h 11.473 v 141.17 h -5.102 l -6.371,-9.57 z"
     id="path160"
     inkscape:connector-curvature="0"
     style="fill:#009e73;stroke:none"
     sodipodi:nodetypes="cccccc" />
  <text
     x="536.25"
     y="0"
     transform="matrix(0.0666667,0,0,0.0666667,149.795,30.7333)"
     font-style="normal"
     font-weight="normal"
     font-size="160px"
     id="text164"
     style="font-style:normal;font-weight:normal;font-size:160px;font-family:Arial;text-align:end;text-anchor:end;fill:#e69f00;stroke:none">z glukozy</text>
  <text
     x="801.48438"
     y="0"
     transform="matrix(0.0666667,0,0,0.0666667,131.443,65.4833)"
     font-style="normal"
     font-weight="normal"
     font-size="160px"
     id="text166"
     style="font-style:normal;font-weight:normal;font-size:160px;font-family:Arial;fill:#e69f00;stroke:none;text-anchor:end;text-align:end;">reduktywna</text>
  <text
     x="690.15625"
     y="0"
     transform="matrix(0.0666667,0,0,0.0666667,139.158,77.4833)"
     font-style="normal"
     font-weight="normal"
     font-size="160px"
     id="text168"
     style="font-style:normal;font-weight:normal;font-size:160px;font-family:Arial;fill:#e69f00;stroke:none;text-anchor:end;text-align:end;">aktywacja</text>
  <text
     x="298.4375"
     y="0"
     transform="matrix(0.0666667,0,0,0.0666667,165.231,166.15)"
     font-style="normal"
     font-weight="normal"
     font-size="160px"
     id="text174"
     style="font-style:normal;font-weight:normal;font-size:160px;font-family:Arial;text-align:end;text-anchor:end;fill:#e69f00;stroke:none">$d.r. &gt; 95:5$</text>
  <text
     x="498.98438"
     y="0"
     transform="matrix(0.0666667,0,0,0.0666667,151.606,120.483)"
     font-style="normal"
     font-weight="normal"
     font-size="160px"
     id="text176"
     style="font-style:normal;font-weight:normal;font-size:160px;font-family:Arial;fill:#e69f00;stroke:none;text-anchor:end;text-align:end;">reakcja</text>
  <text
     x="976.32812"
     y="0"
     transform="matrix(0.0666667,0,0,0.0666667,120.109,133.483)"
     font-style="normal"
     font-weight="normal"
     font-size="160px"
     id="text178"
     style="font-style:normal;font-weight:normal;font-size:160px;font-family:Arial;text-align:end;text-anchor:end;fill:#e69f00;stroke:none;">azydo-Ugiego</text>
  <path
     stroke="none"
     fill="#e69f00"
     transform="matrix(0.0666667 0 0 0.0666667 3.48861 -77.2667)"
     d="M 1493.41,2383.75 L 2772.53,2383.75 L 2772.53,2393.75 L 1493.41,2393.75 Z "
     id="path180" />
  <path
     stroke="none"
     fill="#e69f00"
     transform="matrix(0.0666667 0 0 0.0666667 3.48861 -77.2667)"
     d="M 1488.41,2681.25 L 1488.41,2388.75 L 1498.41,2388.75 L 1498.41,2681.25 Z "
     id="path182" />
  <path
     stroke="none"
     fill="#e69f00"
     transform="matrix(0.0666667 0 0 0.0666667 3.48861 -77.2667)"
     d="M 1462.78,2680.33 A 26.9302,26.9302 0 1 0 1516.64,2680.33A 26.9302,26.9302 0 1 0 1462.78,2680.33Z "
     id="path184" />
  <path
     stroke="none"
     fill="#e69f00"
     transform="matrix(0.0666667 0 0 0.0666667 3.48861 -77.2667)"
     d="M 1643.41,3235 L 2768.78,3235 L 2768.78,3245 L 1643.41,3245 Z "
     id="path186" />
  <path
     stroke="none"
     fill="#e69f00"
     transform="matrix(0.0666667 0 0 0.0666667 3.48861 -77.2667)"
     d="M 1648.41,2947.5 L 1648.41,3240 L 1638.41,3240 L 1638.41,2947.5 Z "
     id="path188" />
  <path
     stroke="none"
     fill="#e69f00"
     transform="matrix(0.0666667 0 0 0.0666667 3.48861 -77.2667)"
     d="M 1612.78,2946.58 A 26.9302,26.9302 0 1 0 1666.64,2946.58A 26.9302,26.9302 0 1 0 1612.78,2946.58Z "
     id="path190" />
  <path
     stroke="none"
     fill="#e69f00"
     transform="matrix(0.0666667 0 0 0.0666667 3.48861 -77.2667)"
     d="M 1617.16,3701.25 L 2780.96,3701.25 L 2780.96,3711.25 L 1617.16,3711.25 Z "
     id="path192" />
  <path
     stroke="none"
     fill="#e69f00"
     transform="matrix(0.0666667 0 0 0.0666667 3.48861 -77.2667)"
     d="M 1586.53,3705.33 A 26.9302,26.9302 0 1 0 1640.39,3705.33A 26.9302,26.9302 0 1 0 1586.53,3705.33Z "
     id="path194" />
  <path
     stroke="none"
     fill="#e69f00"
     transform="matrix(0.0666667 0 0 0.0666667 3.48861 -77.2667)"
     d="M 1136.53,4335.16 A 26.9302,26.9302 0 1 0 1190.39,4335.16A 26.9302,26.9302 0 1 0 1136.53,4335.16Z "
     id="path196" />
  <text
     x="756.95312"
     y="0"
     transform="matrix(0.0666667,0,0,0.0666667,134.406,194.233)"
     font-style="normal"
     font-weight="normal"
     font-size="160px"
     id="text198"
     style="font-style:normal;font-weight:normal;font-size:160px;font-family:Arial;fill:#e69f00;stroke:none;text-anchor:end;text-align:end;">propozycja</text>
  <text
     x="885.70312"
     y="0"
     transform="matrix(0.0666667,0,0,0.0666667,125.491,207.233)"
     font-style="normal"
     font-weight="normal"
     font-size="160px"
     id="text200"
     style="font-style:normal;font-weight:normal;font-size:160px;font-family:Arial;fill:#e69f00;stroke:none;text-anchor:end;text-align:end;">mechanizmu</text>
  <path
     stroke="none"
     fill="#e69f00"
     transform="matrix(0.0666667 0 0 0.0666667 3.48861 -77.2667)"
     d="M 1164.66,4330.16 L 2780.96,4330.16 L 2780.96,4340.16 L 1164.66,4340.16 Z "
     id="path202" />
</svg>
