<?xml version="1.0" encoding="UTF-8" standalone="no"?>
<svg
   xmlns:dc="http://purl.org/dc/elements/1.1/"
   xmlns:cc="http://creativecommons.org/ns#"
   xmlns:rdf="http://www.w3.org/1999/02/22-rdf-syntax-ns#"
   xmlns:svg="http://www.w3.org/2000/svg"
   xmlns="http://www.w3.org/2000/svg"
   xmlns:sodipodi="http://sodipodi.sourceforge.net/DTD/sodipodi-0.dtd"
   xmlns:inkscape="http://www.inkscape.org/namespaces/inkscape"
   width="612px"
   height="167px"
   viewBox="0 0 612 167"
   style="background-color: #ffffff00"
   version="1.1"
   id="svg316"
   sodipodi:docname="ir-mannich.svg"
   inkscape:version="0.92.4 (5da689c313, 2019-01-14)">
  <metadata
     id="metadata322">
    <rdf:RDF>
      <cc:Work
         rdf:about="">
        <dc:format>image/svg+xml</dc:format>
        <dc:type
           rdf:resource="http://purl.org/dc/dcmitype/StillImage" />
      </cc:Work>
    </rdf:RDF>
  </metadata>
  <defs
     id="defs320" />
  <sodipodi:namedview
     pagecolor="#ffffff"
     bordercolor="#666666"
     borderopacity="1"
     objecttolerance="10"
     gridtolerance="10"
     guidetolerance="10"
     inkscape:pageopacity="0"
     inkscape:pageshadow="2"
     inkscape:window-width="1920"
     inkscape:window-height="1017"
     id="namedview318"
     showgrid="false"
     inkscape:zoom="3.1704265"
     inkscape:cx="207.82673"
     inkscape:cy="125.77468"
     inkscape:window-x="-8"
     inkscape:window-y="-8"
     inkscape:window-maximized="1"
     inkscape:current-layer="svg316" />
  <g
     aria-label="N"
     transform="matrix(0.0666667,0,0,0.0666667,32.9321,45.8667)"
     style="font-style:normal;font-weight:normal;font-size:160px;font-family:Arial;fill:#000000;stroke:none"
     id="text2">
    <path
       d="m 12.1875,0 v -114.53125 h 15.546875 l 60.15625,89.921875 V -114.53125 H 102.42188 V 0 H 86.875 L 26.71875,-90 V 0 Z"
       style="font-style:normal;font-weight:normal;font-size:160px;font-family:Arial;fill:#000000;stroke:none"
       id="path1135"
       inkscape:connector-curvature="0" />
  </g>
  <path
     stroke="none"
     fill="#000000"
     transform="matrix(0.0666667 0 0 0.0666667 -1.06646 -87.3333)"
     d="M 68.6264,2047.63 L 58.4219,2052.54 L 58.4219,1817.46 L 68.6264,1822.37 L 68.6264,2047.63 Z "
     id="path4" />
  <path
     stroke="none"
     fill="#000000"
     transform="matrix(0.0666667 0 0 0.0666667 -1.06646 -87.3333)"
     d="M 244.741,2188.08 L 242.22,2199.12 L 58.4219,2052.54 L 68.6264,2047.63 L 244.741,2188.08 Z "
     id="path6" />
  <path
     stroke="none"
     fill="#000000"
     transform="matrix(0.0666667 0 0 0.0666667 -1.06646 -87.3333)"
     d="M 464.352,2137.95 L 471.414,2146.81 L 242.22,2199.12 L 244.741,2188.08 L 464.352,2137.95 Z "
     id="path8" />
  <path
     stroke="none"
     fill="#000000"
     transform="matrix(0.0666667 0 0 0.0666667 -1.06646 -87.3333)"
     d="M 518.817,2024.85 L 528.011,2029.28 L 471.414,2146.81 L 464.352,2137.95 L 518.817,2024.85 Z "
     id="path10" />
  <path
     stroke="none"
     fill="#000000"
     transform="matrix(0.0666667 0 0 0.0666667 -1.06646 -87.3333)"
     d="M 464.352,1732.05 L 471.414,1723.19 L 533.093,1851.27 L 523.899,1855.7 L 464.352,1732.05 Z "
     id="path12" />
  <path
     stroke="none"
     fill="#000000"
     transform="matrix(0.0666667 0 0 0.0666667 -1.06646 -87.3333)"
     d="M 244.741,1681.92 L 242.22,1670.88 L 471.414,1723.19 L 464.352,1732.05 L 244.741,1681.92 Z "
     id="path14" />
  <path
     stroke="none"
     fill="#000000"
     transform="matrix(0.0666667 0 0 0.0666667 -1.06646 -87.3333)"
     d="M 68.6264,1822.37 L 58.4219,1817.46 L 242.22,1670.88 L 244.741,1681.92 L 68.6264,1822.37 Z "
     id="path16" />
  <g
     aria-label="O"
     transform="matrix(0.0666667,0,0,0.0666667,35.5446,20.0443)"
     style="font-style:normal;font-weight:normal;font-size:160px;font-family:Arial;fill:#000000;stroke:none"
     id="text18">
    <path
       d="m 7.734375,-55.78125 q 0,-28.515625 15.3125,-44.60938 15.3125,-16.17187 39.53125,-16.17187 15.859375,0 28.59375,7.57812 12.734375,7.57813 19.375005,21.17188 6.71875,13.515625 6.71875,30.703125 0,17.421875 -7.03125,31.171875 -7.03125,13.75 -19.92188,20.859375 -12.890625,7.03125 -27.8125,7.03125 -16.171875,0 -28.90625,-7.8125 -12.734375,-7.8125 -19.296875,-21.328125 -6.5625,-13.515625 -6.5625,-28.59375 z m 15.625,0.234375 q 0,20.703125 11.09375,32.65625 11.171875,11.875 27.96875,11.875 17.109375,0 28.125,-12.03125 11.093755,-12.03125 11.093755,-34.140625 0,-13.984375 -4.76563,-24.375 -4.6875,-10.46875 -13.828125,-16.171875 -9.0625,-5.781255 -20.390625,-5.781255 -16.09375,0 -27.734375,11.093755 -11.5625,11.015625 -11.5625,36.875 z"
       style="font-style:normal;font-weight:normal;font-size:160px;font-family:Arial;fill:#000000;stroke:none"
       id="path1138"
       inkscape:connector-curvature="0" />
  </g>
  <path
     stroke="none"
     fill="#000000"
     transform="matrix(0.0666667 0 0 0.0666667 -1.06646 -87.3333)"
     d="M 535.433,1601.51 L 543.411,1607.87 L 449.456,1725.69 L 441.478,1719.32 L 535.433,1601.51 Z "
     id="path20" />
  <path
     stroke="none"
     fill="#000000"
     transform="matrix(0.0666667 0 0 0.0666667 -1.06646 -87.3333)"
     d="M 567.825,1627.34 L 575.803,1633.7 L 481.848,1751.52 L 473.87,1745.16 L 567.825,1627.34 Z "
     id="path22" />
  <path
     stroke="none"
     fill="#000000"
     transform="matrix(0.0666667 0 0 0.0666667 -1.06646 -87.3333)"
     d="M 794.978,1929.9 L 800.87,1940.1 L 637.977,1940.1 L 637.977,1929.9 L 794.978,1929.9 Z "
     id="path24" />
  <path
     stroke="none"
     fill="#000000"
     transform="matrix(0.0666667 0 0 0.0666667 -1.06646 -87.3333)"
     d="M 910.065,1730.56 L 915.956,1740.77 L 800.87,1940.1 L 794.978,1929.9 L 910.065,1730.56 Z "
     id="path26" />
  <path
     stroke="none"
     fill="#000000"
     transform="matrix(0.0666667 0 0 0.0666667 -1.06646 -87.3333)"
     d="M 1140.24,1730.56 L 1146.13,1740.77 L 915.956,1740.77 L 910.065,1730.56 L 1140.24,1730.56 Z "
     id="path28" />
  <path
     stroke="none"
     fill="#000000"
     transform="matrix(0.0666667 0 0 0.0666667 -1.06646 -87.3333)"
     d="M 1255.32,1531.23 L 1261.22,1541.43 L 1146.13,1740.77 L 1140.24,1730.56 L 1255.32,1531.23 Z "
     id="path30" />
  <g
     aria-label="NO"
     transform="matrix(0.0666667,0,0,0.0666667,94.3115,19.2886)"
     style="font-style:normal;font-weight:normal;font-size:160px;font-family:Arial;fill:#000000;stroke:none"
     id="text32">
    <path
       d="m 12.1875,0 v -114.53125 h 15.546875 l 60.15625,89.921875 V -114.53125 H 102.42188 V 0 H 86.875 L 26.71875,-90 V 0 Z"
       style="font-style:normal;font-weight:normal;font-size:160px;font-family:Arial;fill:#000000;stroke:none"
       id="path1141"
       inkscape:connector-curvature="0" />
    <path
       d="m 123.35938,-55.78125 q 0,-28.515625 15.31249,-44.60938 15.3125,-16.17187 39.53125,-16.17187 15.85938,0 28.59375,7.57812 12.73438,7.57813 19.375,21.17188 6.71875,13.515625 6.71875,30.703125 0,17.421875 -7.03125,31.171875 -7.03125,13.75 -19.92187,20.859375 -12.89063,7.03125 -27.8125,7.03125 -16.17188,0 -28.90625,-7.8125 -12.73438,-7.8125 -19.29688,-21.328125 -6.56249,-13.515625 -6.56249,-28.59375 z m 15.62499,0.234375 q 0,20.703125 11.09375,32.65625 11.17188,11.875 27.96875,11.875 17.10938,0 28.125,-12.03125 11.09375,-12.03125 11.09375,-34.140625 0,-13.984375 -4.76562,-24.375 -4.6875,-10.46875 -13.82813,-16.171875 -9.0625,-5.781255 -20.39062,-5.781255 -16.09375,0 -27.73438,11.093755 -11.5625,11.015625 -11.5625,36.875 z"
       style="font-style:normal;font-weight:normal;font-size:160px;font-family:Arial;fill:#000000;stroke:none"
       id="path1143"
       inkscape:connector-curvature="0" />
  </g>
  <g
     aria-label="2"
     transform="matrix(0.0666667,0,0,0.0666667,110.312,21.5552)"
     style="font-style:normal;font-weight:normal;font-size:120px;font-family:Arial;fill:#000000;stroke:none"
     id="text34">
    <path
       d="M 60.410156,-10.136719 V 0 H 3.6328125 Q 3.515625,-3.8085938 4.8632812,-7.3242187 7.03125,-13.125 11.777344,-18.75 q 4.804687,-5.625 13.828125,-13.007812 14.003906,-11.484375 18.925781,-18.164063 4.921875,-6.738281 4.921875,-12.714844 0,-6.269531 -4.511719,-10.546875 -4.453125,-4.335937 -11.660156,-4.335937 -7.617188,0 -12.1875,4.570312 -4.570313,4.570313 -4.628906,12.65625 L 5.625,-61.40625 Q 6.7382812,-73.535156 14.003906,-79.863281 21.269531,-86.25 33.515625,-86.25 q 12.363281,0 19.570312,6.855469 7.207032,6.855469 7.207032,16.992187 0,5.15625 -2.109375,10.136719 -2.109375,4.980469 -7.03125,10.488281 -4.863282,5.507813 -16.230469,15.117188 -9.492188,7.96875 -12.1875,10.839843 -2.695313,2.8125 -4.453125,5.683594 z"
       style="font-style:normal;font-weight:normal;font-size:120px;font-family:Arial;fill:#000000;stroke:none"
       id="path1146"
       inkscape:connector-curvature="0" />
  </g>
  <path
     stroke="none"
     fill="#000000"
     transform="matrix(0.0666667 0 0 0.0666667 -1.06646 -87.3333)"
     d="M 1417.67,1531.23 L 1417.67,1541.43 L 1261.22,1541.43 L 1255.32,1531.23 L 1417.67,1531.23 Z "
     id="path36" />
  <g
     aria-label="N"
     transform="matrix(0.0666667,0,0,0.0666667,286.5,45.8667)"
     style="font-style:normal;font-weight:normal;font-size:160px;font-family:Arial;fill:#000000;stroke:none"
     id="text38">
    <path
       d="m 12.1875,0 v -114.53125 h 15.546875 l 60.15625,89.921875 V -114.53125 H 102.42188 V 0 H 86.875 L 26.71875,-90 V 0 Z"
       style="font-style:normal;font-weight:normal;font-size:160px;font-family:Arial;fill:#000000;stroke:none"
       id="path1149"
       inkscape:connector-curvature="0" />
  </g>
  <path
     stroke="none"
     fill="#000000"
     transform="matrix(0.0666667 0 0 0.0666667 -1.06646 -87.3333)"
     d="M 3872.15,2047.63 L 3861.94,2052.54 L 3861.94,1817.46 L 3872.15,1822.37 L 3872.15,2047.63 Z "
     id="path40" />
  <path
     stroke="none"
     fill="#000000"
     transform="matrix(0.0666667 0 0 0.0666667 -1.06646 -87.3333)"
     d="M 4048.26,2188.08 L 4045.74,2199.12 L 3861.94,2052.54 L 3872.15,2047.63 L 4048.26,2188.08 Z "
     id="path42" />
  <path
     stroke="none"
     fill="#000000"
     transform="matrix(0.0666667 0 0 0.0666667 -1.06646 -87.3333)"
     d="M 4267.87,2137.95 L 4274.93,2146.81 L 4045.74,2199.12 L 4048.26,2188.08 L 4267.87,2137.95 Z "
     id="path44" />
  <path
     stroke="none"
     fill="#000000"
     transform="matrix(0.0666667 0 0 0.0666667 -1.06646 -87.3333)"
     d="M 4322.34,2024.85 L 4331.53,2029.28 L 4274.93,2146.81 L 4267.87,2137.95 L 4322.34,2024.85 Z "
     id="path46" />
  <path
     stroke="none"
     fill="#000000"
     transform="matrix(0.0666667 0 0 0.0666667 -1.06646 -87.3333)"
     d="M 4267.87,1732.05 L 4271.4,1727.62 L 4277.39,1728.3 L 4336.61,1851.27 L 4327.42,1855.7 L 4267.87,1732.05 Z "
     id="path48" />
  <path
     stroke="none"
     fill="#000000"
     transform="matrix(0.0666667 0 0 0.0666667 -1.06646 -87.3333)"
     d="M 4048.26,1681.92 L 4045.74,1670.88 L 4269.41,1721.93 L 4271.4,1727.62 L 4267.87,1732.05 L 4048.26,1681.92 Z "
     id="path50" />
  <path
     stroke="none"
     fill="#000000"
     transform="matrix(0.0666667 0 0 0.0666667 -1.06646 -87.3333)"
     d="M 3872.15,1822.37 L 3861.94,1817.46 L 4045.74,1670.88 L 4048.26,1681.92 L 3872.15,1822.37 Z "
     id="path52" />
  <path
     inkscape:connector-curvature="0"
     id="path1152"
     style="font-style:normal;font-weight:normal;font-size:160px;font-family:Arial;fill:#000000;stroke:none;stroke-width:0.0666667"
     d="m 289.62863,16.325548 q 0,-1.901042 1.02083,-2.97396 1.02083,-1.078125 2.63542,-1.078125 1.05729,0 1.90625,0.505208 0.84896,0.505209 1.29167,1.411459 0.44791,0.901043 0.44791,2.046876 0,1.161459 -0.46875,2.078126 -0.46875,0.916668 -1.32812,1.390626 -0.85938,0.46875 -1.85417,0.46875 -1.07813,0 -1.92709,-0.520833 -0.84895,-0.520834 -1.28645,-1.421876 -0.4375,-0.901042 -0.4375,-1.906251 z m 1.04166,0.01563 q 0,1.380209 0.73959,2.177085 0.74479,0.791667 1.86458,0.791667 1.14063,0 1.875,-0.802084 0.73959,-0.802084 0.73959,-2.276043 0,-0.932292 -0.31771,-1.625001 -0.3125,-0.697917 -0.92188,-1.078125 -0.60417,-0.385417 -1.35937,-0.385417 -1.07292,0 -1.84896,0.739584 -0.77084,0.734375 -0.77084,2.458334 z" />
  <path
     inkscape:connector-curvature="0"
     id="path1154"
     style="font-style:normal;font-weight:normal;font-size:160px;font-family:Arial;fill:#009e73;stroke:none;stroke-width:0.0666667"
     d="M 298.12863,22.164093 V 12.40888 h 2.06771 v 0.776041 h -1.13021 v 8.20313 h 1.13021 v 0.776042 z" />
  <path
     inkscape:connector-curvature="0"
     id="path1156"
     style="font-style:normal;font-weight:normal;font-size:160px;font-family:Arial;fill:#009e73;stroke:none;stroke-width:0.0666667"
     d="m 300.84217,17.591174 0.95313,-0.08333 q 0.0677,0.572917 0.3125,0.942709 0.25,0.364584 0.77083,0.59375 0.52084,0.223959 1.17188,0.223959 0.57812,0 1.02083,-0.171875 0.44271,-0.171875 0.65625,-0.46875 0.21875,-0.302084 0.21875,-0.656251 0,-0.359375 -0.20833,-0.625 -0.20834,-0.270833 -0.6875,-0.453125 -0.30729,-0.119792 -1.35938,-0.369792 -1.05208,-0.255209 -1.47396,-0.479167 -0.54687,-0.286458 -0.81771,-0.708334 -0.26562,-0.427083 -0.26562,-0.953125 0,-0.578125 0.32812,-1.078126 0.32813,-0.505209 0.95834,-0.765625 0.63021,-0.260417 1.40104,-0.260417 0.84896,0 1.49479,0.276042 0.65105,0.270833 1,0.802084 0.34896,0.53125 0.375,1.203125 l -0.96875,0.07292 q -0.0781,-0.723959 -0.53125,-1.093751 -0.44791,-0.369791 -1.32812,-0.369791 -0.91667,0 -1.33855,0.338541 -0.41666,0.333334 -0.41666,0.807292 0,0.411459 0.29687,0.677084 0.29167,0.265625 1.52084,0.546875 1.23437,0.276042 1.69271,0.484376 0.66666,0.307291 0.98437,0.78125 0.31771,0.46875 0.31771,1.083334 0,0.609375 -0.34896,1.151042 -0.34896,0.536459 -1.00521,0.838542 -0.65104,0.296875 -1.46875,0.296875 -1.03646,0 -1.73958,-0.302083 -0.69792,-0.302084 -1.09896,-0.906251 -0.39583,-0.609375 -0.41667,-1.375 z" />
  <path
     inkscape:connector-curvature="0"
     id="path1158"
     style="font-style:normal;font-weight:normal;font-size:160px;font-family:Arial;fill:#009e73;stroke:none;stroke-width:0.0666667"
     d="M 308.19634,13.487005 V 12.40888 h 0.9375 v 1.078125 z m 0,6.557295 v -5.531253 h 0.9375 V 20.0443 Z" />
  <path
     inkscape:connector-curvature="0"
     id="path1160"
     style="font-style:normal;font-weight:normal;font-size:160px;font-family:Arial;fill:#009e73;stroke:none;stroke-width:0.0666667"
     d="m 312.13384,22.164093 h -2.0677 v -0.776042 h 1.1302 v -8.20313 h -1.1302 V 12.40888 h 2.0677 z" />
  <path
     stroke="none"
     fill="#000000"
     transform="matrix(0.0666667 0 0 0.0666667 -1.06646 -87.3333)"
     d="M 4355.15,1614.42 L 4363.13,1620.79 L 4277.39,1728.3 L 4271.4,1727.62 L 4269.41,1721.93 L 4355.15,1614.42 Z "
     id="path56" />
  <path
     stroke="none"
     fill="#000000"
     transform="matrix(0.0666667 0 0 0.0666667 -1.06646 -87.3333)"
     d="M 4598.5,1929.9 L 4604.39,1940.1 L 4441.5,1940.1 L 4441.5,1929.9 L 4598.5,1929.9 Z "
     id="path58" />
  <path
     stroke="none"
     fill="#000000"
     transform="matrix(0.0666667 0 0 0.0666667 -1.06646 -87.3333)"
     d="M 4713.58,1730.56 L 4719.48,1740.77 L 4604.39,1940.1 L 4598.5,1929.9 L 4713.58,1730.56 Z "
     id="path60" />
  <path
     stroke="none"
     fill="#000000"
     transform="matrix(0.0666667 0 0 0.0666667 -1.06646 -87.3333)"
     d="M 4943.76,1730.56 L 4949.65,1740.77 L 4719.48,1740.77 L 4713.58,1730.56 L 4943.76,1730.56 Z "
     id="path62" />
  <path
     stroke="none"
     fill="#000000"
     transform="matrix(0.0666667 0 0 0.0666667 -1.06646 -87.3333)"
     d="M 5058.84,1531.23 L 5064.74,1541.43 L 4949.65,1740.77 L 4943.76,1730.56 L 5058.84,1531.23 Z "
     id="path64" />
  <g
     aria-label="NO"
     transform="matrix(0.0666667,0,0,0.0666667,347.88,19.2886)"
     style="font-style:normal;font-weight:normal;font-size:160px;font-family:Arial;fill:#000000;stroke:none"
     id="text66">
    <path
       d="m 12.1875,0 v -114.53125 h 15.546875 l 60.15625,89.921875 V -114.53125 H 102.42188 V 0 H 86.875 L 26.71875,-90 V 0 Z"
       style="font-style:normal;font-weight:normal;font-size:160px;font-family:Arial;fill:#000000;stroke:none"
       id="path1163"
       inkscape:connector-curvature="0" />
    <path
       d="m 123.35938,-55.78125 q 0,-28.515625 15.31249,-44.60938 15.3125,-16.17187 39.53125,-16.17187 15.85938,0 28.59375,7.57812 12.73438,7.57813 19.375,21.17188 6.71875,13.515625 6.71875,30.703125 0,17.421875 -7.03125,31.171875 -7.03125,13.75 -19.92187,20.859375 -12.89063,7.03125 -27.8125,7.03125 -16.17188,0 -28.90625,-7.8125 -12.73438,-7.8125 -19.29688,-21.328125 -6.56249,-13.515625 -6.56249,-28.59375 z m 15.62499,0.234375 q 0,20.703125 11.09375,32.65625 11.17188,11.875 27.96875,11.875 17.10938,0 28.125,-12.03125 11.09375,-12.03125 11.09375,-34.140625 0,-13.984375 -4.76562,-24.375 -4.6875,-10.46875 -13.82813,-16.171875 -9.0625,-5.781255 -20.39062,-5.781255 -16.09375,0 -27.73438,11.093755 -11.5625,11.015625 -11.5625,36.875 z"
       style="font-style:normal;font-weight:normal;font-size:160px;font-family:Arial;fill:#000000;stroke:none"
       id="path1165"
       inkscape:connector-curvature="0" />
  </g>
  <g
     aria-label="2"
     transform="matrix(0.0666667,0,0,0.0666667,363.88,21.5552)"
     style="font-style:normal;font-weight:normal;font-size:120px;font-family:Arial;fill:#000000;stroke:none"
     id="text68">
    <path
       d="M 60.410156,-10.136719 V 0 H 3.6328125 Q 3.515625,-3.8085938 4.8632812,-7.3242187 7.03125,-13.125 11.777344,-18.75 q 4.804687,-5.625 13.828125,-13.007812 14.003906,-11.484375 18.925781,-18.164063 4.921875,-6.738281 4.921875,-12.714844 0,-6.269531 -4.511719,-10.546875 -4.453125,-4.335937 -11.660156,-4.335937 -7.617188,0 -12.1875,4.570312 -4.570313,4.570313 -4.628906,12.65625 L 5.625,-61.40625 Q 6.7382812,-73.535156 14.003906,-79.863281 21.269531,-86.25 33.515625,-86.25 q 12.363281,0 19.570312,6.855469 7.207032,6.855469 7.207032,16.992187 0,5.15625 -2.109375,10.136719 -2.109375,4.980469 -7.03125,10.488281 -4.863282,5.507813 -16.230469,15.117188 -9.492188,7.96875 -12.1875,10.839843 -2.695313,2.8125 -4.453125,5.683594 z"
       style="font-style:normal;font-weight:normal;font-size:120px;font-family:Arial;fill:#000000;stroke:none"
       id="path1168"
       inkscape:connector-curvature="0" />
  </g>
  <path
     stroke="none"
     fill="#000000"
     transform="matrix(0.0666667 0 0 0.0666667 -1.06646 -87.3333)"
     d="M 5221.19,1531.23 L 5221.19,1541.43 L 5064.74,1541.43 L 5058.84,1531.23 L 5221.19,1531.23 Z "
     id="path70" />
  <g
     aria-label="N"
     transform="matrix(0.0666667,0,0,0.0666667,526.56,45.8667)"
     style="font-style:normal;font-weight:normal;font-size:160px;font-family:Arial;fill:#000000;stroke:none"
     id="text72">
    <path
       d="m 12.1875,0 v -114.53125 h 15.546875 l 60.15625,89.921875 V -114.53125 H 102.42188 V 0 H 86.875 L 26.71875,-90 V 0 Z"
       style="font-style:normal;font-weight:normal;font-size:160px;font-family:Arial;fill:#000000;stroke:none"
       id="path1171"
       inkscape:connector-curvature="0" />
  </g>
  <path
     stroke="none"
     fill="#000000"
     transform="matrix(0.0666667 0 0 0.0666667 -1.06646 -87.3333)"
     d="M 7473.05,2047.63 L 7462.84,2052.54 L 7462.84,1817.46 L 7473.05,1822.37 L 7473.05,2047.63 Z "
     id="path74" />
  <path
     stroke="none"
     fill="#000000"
     transform="matrix(0.0666667 0 0 0.0666667 -1.06646 -87.3333)"
     d="M 7649.16,2188.08 L 7646.64,2199.12 L 7462.84,2052.54 L 7473.05,2047.63 L 7649.16,2188.08 Z "
     id="path76" />
  <path
     stroke="none"
     fill="#000000"
     transform="matrix(0.0666667 0 0 0.0666667 -1.06646 -87.3333)"
     d="M 7868.77,2137.95 L 7875.83,2146.81 L 7646.64,2199.12 L 7649.16,2188.08 L 7868.77,2137.95 Z "
     id="path78" />
  <path
     stroke="none"
     fill="#000000"
     transform="matrix(0.0666667 0 0 0.0666667 -1.06646 -87.3333)"
     d="M 7923.24,2024.85 L 7932.43,2029.28 L 7875.83,2146.81 L 7868.77,2137.95 L 7923.24,2024.85 Z "
     id="path80" />
  <path
     stroke="none"
     fill="#000000"
     transform="matrix(0.0666667 0 0 0.0666667 -1.06646 -87.3333)"
     d="M 7868.77,1732.05 L 7875.83,1723.19 L 7937.51,1851.27 L 7928.32,1855.7 L 7868.77,1732.05 Z "
     id="path82" />
  <path
     stroke="none"
     fill="#000000"
     transform="matrix(0.0666667 0 0 0.0666667 -1.06646 -87.3333)"
     d="M 7649.16,1681.92 L 7646.64,1670.88 L 7875.83,1723.19 L 7868.77,1732.05 L 7649.16,1681.92 Z "
     id="path84" />
  <path
     stroke="none"
     fill="#000000"
     transform="matrix(0.0666667 0 0 0.0666667 -1.06646 -87.3333)"
     d="M 7657,1726.21 L 7659.27,1716.26 L 7844.77,1758.6 L 7842.5,1768.55 L 7657,1726.21 Z "
     id="path86" />
  <path
     stroke="none"
     fill="#000000"
     transform="matrix(0.0666667 0 0 0.0666667 -1.06646 -87.3333)"
     d="M 7473.05,1822.37 L 7462.84,1817.46 L 7646.64,1670.88 L 7649.16,1681.92 L 7473.05,1822.37 Z "
     id="path88" />
  <path
     stroke="none"
     fill="#000000"
     transform="matrix(0.0666667 0 0 0.0666667 -1.06646 -87.3333)"
     d="M 8199.4,1929.9 L 8205.29,1940.1 L 8042.4,1940.1 L 8042.4,1929.9 L 8199.4,1929.9 Z "
     id="path90" />
  <path
     stroke="none"
     fill="#000000"
     transform="matrix(0.0666667 0 0 0.0666667 -1.06646 -87.3333)"
     d="M 8314.48,1730.56 L 8320.38,1740.77 L 8205.29,1940.1 L 8199.4,1929.9 L 8314.48,1730.56 Z "
     id="path92" />
  <path
     stroke="none"
     fill="#000000"
     transform="matrix(0.0666667 0 0 0.0666667 -1.06646 -87.3333)"
     d="M 8544.66,1730.56 L 8550.55,1740.77 L 8320.38,1740.77 L 8314.48,1730.56 L 8544.66,1730.56 Z "
     id="path94" />
  <path
     stroke="none"
     fill="#000000"
     transform="matrix(0.0666667 0 0 0.0666667 -1.06646 -87.3333)"
     d="M 8659.74,1531.23 L 8665.64,1541.43 L 8550.55,1740.77 L 8544.66,1730.56 L 8659.74,1531.23 Z "
     id="path96" />
  <g
     aria-label="NO"
     transform="matrix(0.0666667,0,0,0.0666667,587.94,19.2886)"
     style="font-style:normal;font-weight:normal;font-size:160px;font-family:Arial;fill:#000000;stroke:none"
     id="text98">
    <path
       d="m 12.1875,0 v -114.53125 h 15.546875 l 60.15625,89.921875 V -114.53125 H 102.42188 V 0 H 86.875 L 26.71875,-90 V 0 Z"
       style="font-style:normal;font-weight:normal;font-size:160px;font-family:Arial;fill:#000000;stroke:none"
       id="path1174"
       inkscape:connector-curvature="0" />
    <path
       d="m 123.35938,-55.78125 q 0,-28.515625 15.31249,-44.60938 15.3125,-16.17187 39.53125,-16.17187 15.85938,0 28.59375,7.57812 12.73438,7.57813 19.375,21.17188 6.71875,13.515625 6.71875,30.703125 0,17.421875 -7.03125,31.171875 -7.03125,13.75 -19.92187,20.859375 -12.89063,7.03125 -27.8125,7.03125 -16.17188,0 -28.90625,-7.8125 -12.73438,-7.8125 -19.29688,-21.328125 -6.56249,-13.515625 -6.56249,-28.59375 z m 15.62499,0.234375 q 0,20.703125 11.09375,32.65625 11.17188,11.875 27.96875,11.875 17.10938,0 28.125,-12.03125 11.09375,-12.03125 11.09375,-34.140625 0,-13.984375 -4.76562,-24.375 -4.6875,-10.46875 -13.82813,-16.171875 -9.0625,-5.781255 -20.39062,-5.781255 -16.09375,0 -27.73438,11.093755 -11.5625,11.015625 -11.5625,36.875 z"
       style="font-style:normal;font-weight:normal;font-size:160px;font-family:Arial;fill:#000000;stroke:none"
       id="path1176"
       inkscape:connector-curvature="0" />
  </g>
  <g
     aria-label="2"
     transform="matrix(0.0666667,0,0,0.0666667,603.94,21.5552)"
     style="font-style:normal;font-weight:normal;font-size:120px;font-family:Arial;fill:#000000;stroke:none"
     id="text100">
    <path
       d="M 60.410156,-10.136719 V 0 H 3.6328125 Q 3.515625,-3.8085938 4.8632812,-7.3242187 7.03125,-13.125 11.777344,-18.75 q 4.804687,-5.625 13.828125,-13.007812 14.003906,-11.484375 18.925781,-18.164063 4.921875,-6.738281 4.921875,-12.714844 0,-6.269531 -4.511719,-10.546875 -4.453125,-4.335937 -11.660156,-4.335937 -7.617188,0 -12.1875,4.570312 -4.570313,4.570313 -4.628906,12.65625 L 5.625,-61.40625 Q 6.7382812,-73.535156 14.003906,-79.863281 21.269531,-86.25 33.515625,-86.25 q 12.363281,0 19.570312,6.855469 7.207032,6.855469 7.207032,16.992187 0,5.15625 -2.109375,10.136719 -2.109375,4.980469 -7.03125,10.488281 -4.863282,5.507813 -16.230469,15.117188 -9.492188,7.96875 -12.1875,10.839843 -2.695313,2.8125 -4.453125,5.683594 z"
       style="font-style:normal;font-weight:normal;font-size:120px;font-family:Arial;fill:#000000;stroke:none"
       id="path1179"
       inkscape:connector-curvature="0" />
  </g>
  <path
     stroke="none"
     fill="#000000"
     transform="matrix(0.0666667 0 0 0.0666667 -1.06646 -87.3333)"
     d="M 8822.09,1531.23 L 8822.09,1541.43 L 8665.64,1541.43 L 8659.74,1531.23 L 8822.09,1531.23 Z "
     id="path102" />
  <g
     aria-label="N"
     transform="matrix(0.0666667,0,0,0.0666667,58.1821,140.925)"
     style="font-style:normal;font-weight:normal;font-size:160px;font-family:Arial;fill:#000000;stroke:none"
     id="text104">
    <path
       d="m 12.1875,0 v -114.53125 h 15.546875 l 60.15625,89.921875 V -114.53125 H 102.42188 V 0 H 86.875 L 26.71875,-90 V 0 Z"
       style="font-style:normal;font-weight:normal;font-size:160px;font-family:Arial;fill:#000000;stroke:none"
       id="path1182"
       inkscape:connector-curvature="0" />
  </g>
  <path
     stroke="none"
     fill="#000000"
     transform="matrix(0.0666667 0 0 0.0666667 -1.06646 -87.3333)"
     d="M 447.376,3473.5 L 437.172,3478.41 L 437.172,3243.33 L 447.376,3248.24 L 447.376,3473.5 Z "
     id="path106" />
  <path
     stroke="none"
     fill="#000000"
     transform="matrix(0.0666667 0 0 0.0666667 -1.06646 -87.3333)"
     d="M 623.491,3613.95 L 620.97,3624.99 L 437.172,3478.41 L 447.376,3473.5 L 623.491,3613.95 Z "
     id="path108" />
  <path
     stroke="none"
     fill="#000000"
     transform="matrix(0.0666667 0 0 0.0666667 -1.06646 -87.3333)"
     d="M 843.102,3563.82 L 850.164,3572.68 L 620.97,3624.99 L 623.491,3613.95 L 843.102,3563.82 Z "
     id="path110" />
  <path
     stroke="none"
     fill="#000000"
     transform="matrix(0.0666667 0 0 0.0666667 -1.06646 -87.3333)"
     d="M 897.567,3450.72 L 906.761,3455.15 L 850.164,3572.68 L 843.102,3563.82 L 897.567,3450.72 Z "
     id="path112" />
  <path
     stroke="none"
     fill="#000000"
     transform="matrix(0.0666667 0 0 0.0666667 -1.06646 -87.3333)"
     d="M 843.102,3157.92 L 846.633,3153.49 L 852.508,3153.93 L 911.843,3277.14 L 902.649,3281.57 L 843.102,3157.92 Z "
     id="path114" />
  <path
     stroke="none"
     fill="#000000"
     transform="matrix(0.0666667 0 0 0.0666667 -1.06646 -87.3333)"
     d="M 623.491,3107.79 L 620.97,3096.75 L 844.377,3147.74 L 846.633,3153.49 L 843.102,3157.92 L 623.491,3107.79 Z "
     id="path116" />
  <path
     stroke="none"
     fill="#000000"
     transform="matrix(0.0666667 0 0 0.0666667 -1.06646 -87.3333)"
     d="M 447.376,3248.24 L 437.172,3243.33 L 620.97,3096.75 L 623.491,3107.79 L 447.376,3248.24 Z "
     id="path118" />
  <path
     stroke="none"
     fill="#000000"
     transform="matrix(0.0666667 0 0 0.0666667 -1.06646 -87.3333)"
     d="M 1173.47,3372.76 L 1178.59,3383.38 L 1016.03,3371.2 L 1016.79,3361.02 L 1173.47,3372.76 Z "
     id="path120" />
  <path
     stroke="none"
     fill="#000000"
     transform="matrix(0.0666667 0 0 0.0666667 -1.06646 -87.3333)"
     d="M 1299.82,3187.45 L 1311.57,3188.33 L 1178.59,3383.38 L 1173.47,3372.76 L 1299.82,3187.45 Z "
     id="path122" />
  <path
     stroke="none"
     fill="#000000"
     transform="matrix(0.0666667 0 0 0.0666667 -1.06646 -87.3333)"
     d="M 1202.5,2985.38 L 1209.14,2975.65 L 1311.57,3188.33 L 1299.82,3187.45 L 1202.5,2985.38 Z "
     id="path124" />
  <path
     stroke="none"
     fill="#000000"
     transform="matrix(0.0666667 0 0 0.0666667 -1.06646 -87.3333)"
     d="M 978.85,2968.62 L 976.294,2963.31 L 979.612,2958.45 L 1209.14,2975.65 L 1202.5,2985.38 L 978.85,2968.62 Z "
     id="path126" />
  <path
     stroke="none"
     fill="#000000"
     transform="matrix(0.0666667 0 0 0.0666667 -1.06646 -87.3333)"
     d="M 852.508,3153.93 L 846.633,3153.49 L 844.377,3147.74 L 970.419,2962.87 L 976.294,2963.31 L 978.85,2968.62 L 852.508,3153.93 Z "
     id="path128" />
  <g
     aria-label="O"
     transform="matrix(0.0666667,0,0,0.0666667,40.7642,100.596)"
     style="font-style:normal;font-weight:normal;font-size:160px;font-family:Arial;fill:#000000;stroke:none"
     id="text130">
    <path
       d="m 7.734375,-55.78125 q 0,-28.515625 15.3125,-44.60938 15.3125,-16.17187 39.53125,-16.17187 15.859375,0 28.59375,7.57812 12.734375,7.57813 19.375005,21.17188 6.71875,13.515625 6.71875,30.703125 0,17.421875 -7.03125,31.171875 -7.03125,13.75 -19.92188,20.859375 -12.890625,7.03125 -27.8125,7.03125 -16.171875,0 -28.90625,-7.8125 -12.734375,-7.8125 -19.296875,-21.328125 -6.5625,-13.515625 -6.5625,-28.59375 z m 15.625,0.234375 q 0,20.703125 11.09375,32.65625 11.171875,11.875 27.96875,11.875 17.109375,0 28.125,-12.03125 11.093755,-12.03125 11.093755,-34.140625 0,-13.984375 -4.76563,-24.375 -4.6875,-10.46875 -13.828125,-16.171875 -9.0625,-5.781255 -20.390625,-5.781255 -16.09375,0 -27.734375,11.093755 -11.5625,11.015625 -11.5625,36.875 z"
       style="font-style:normal;font-weight:normal;font-size:160px;font-family:Arial;fill:#000000;stroke:none"
       id="path1185"
       inkscape:connector-curvature="0" />
  </g>
  <g
     aria-label="2"
     transform="matrix(0.0666667,0,0,0.0666667,49.0611,102.862)"
     style="font-style:normal;font-weight:normal;font-size:120px;font-family:Arial;fill:#000000;stroke:none"
     id="text132">
    <path
       d="M 60.410156,-10.136719 V 0 H 3.6328125 Q 3.515625,-3.8085938 4.8632812,-7.3242187 7.03125,-13.125 11.777344,-18.75 q 4.804687,-5.625 13.828125,-13.007812 14.003906,-11.484375 18.925781,-18.164063 4.921875,-6.738281 4.921875,-12.714844 0,-6.269531 -4.511719,-10.546875 -4.453125,-4.335937 -11.660156,-4.335937 -7.617188,0 -12.1875,4.570312 -4.570313,4.570313 -4.628906,12.65625 L 5.625,-61.40625 Q 6.7382812,-73.535156 14.003906,-79.863281 21.269531,-86.25 33.515625,-86.25 q 12.363281,0 19.570312,6.855469 7.207032,6.855469 7.207032,16.992187 0,5.15625 -2.109375,10.136719 -2.109375,4.980469 -7.03125,10.488281 -4.863282,5.507813 -16.230469,15.117188 -9.492188,7.96875 -12.1875,10.839843 -2.695313,2.8125 -4.453125,5.683594 z"
       style="font-style:normal;font-weight:normal;font-size:120px;font-family:Arial;fill:#000000;stroke:none"
       id="path1188"
       inkscape:connector-curvature="0" />
  </g>
  <g
     aria-label="N"
     transform="matrix(0.0666667,0,0,0.0666667,53.5103,100.596)"
     style="font-style:normal;font-weight:normal;font-size:160px;font-family:Arial;fill:#000000;stroke:none"
     id="text134">
    <path
       d="m 12.1875,0 v -114.53125 h 15.546875 l 60.15625,89.921875 V -114.53125 H 102.42188 V 0 H 86.875 L 26.71875,-90 V 0 Z"
       style="font-style:normal;font-weight:normal;font-size:160px;font-family:Arial;fill:#000000;stroke:none"
       id="path1191"
       inkscape:connector-curvature="0" />
  </g>
  <path
     stroke="none"
     fill="#000000"
     transform="matrix(0.0666667 0 0 0.0666667 -1.06646 -87.3333)"
     d="M 916.287,2850.47 L 925.481,2846.04 L 979.612,2958.45 L 976.294,2963.31 L 970.419,2962.87 L 916.287,2850.47 Z "
     id="path136" />
  <g
     aria-label="N"
     transform="matrix(0.0666667,0,0,0.0666667,526.56,140.925)"
     style="font-style:normal;font-weight:normal;font-size:160px;font-family:Arial;fill:#000000;stroke:none"
     id="text138">
    <path
       d="m 12.1875,0 v -114.53125 h 15.546875 l 60.15625,89.921875 V -114.53125 H 102.42188 V 0 H 86.875 L 26.71875,-90 V 0 Z"
       style="font-style:normal;font-weight:normal;font-size:160px;font-family:Arial;fill:#000000;stroke:none"
       id="path1194"
       inkscape:connector-curvature="0" />
  </g>
  <path
     stroke="none"
     fill="#000000"
     transform="matrix(0.0666667 0 0 0.0666667 -1.06646 -87.3333)"
     d="M 7473.05,3473.5 L 7462.84,3478.41 L 7462.84,3243.33 L 7473.05,3248.24 L 7473.05,3473.5 Z "
     id="path140" />
  <path
     stroke="none"
     fill="#000000"
     transform="matrix(0.0666667 0 0 0.0666667 -1.06646 -87.3333)"
     d="M 7649.16,3613.95 L 7646.64,3624.99 L 7462.84,3478.41 L 7473.05,3473.5 L 7649.16,3613.95 Z "
     id="path142" />
  <path
     stroke="none"
     fill="#000000"
     transform="matrix(0.0666667 0 0 0.0666667 -1.06646 -87.3333)"
     d="M 7868.77,3563.82 L 7875.83,3572.68 L 7646.64,3624.99 L 7649.16,3613.95 L 7868.77,3563.82 Z "
     id="path144" />
  <path
     stroke="none"
     fill="#000000"
     transform="matrix(0.0666667 0 0 0.0666667 -1.06646 -87.3333)"
     d="M 7923.24,3450.72 L 7932.43,3455.15 L 7875.83,3572.68 L 7868.77,3563.82 L 7923.24,3450.72 Z "
     id="path146" />
  <path
     stroke="none"
     fill="#000000"
     transform="matrix(0.0666667 0 0 0.0666667 -1.06646 -87.3333)"
     d="M 7868.77,3157.92 L 7875.83,3149.06 L 7937.51,3277.14 L 7928.32,3281.57 L 7868.77,3157.92 Z "
     id="path148" />
  <path
     stroke="none"
     fill="#000000"
     transform="matrix(0.0666667 0 0 0.0666667 -1.06646 -87.3333)"
     d="M 7839.03,3191.66 L 7848.23,3187.23 L 7900.18,3295.12 L 7890.99,3299.54 L 7839.03,3191.66 Z "
     id="path150" />
  <path
     stroke="none"
     fill="#000000"
     transform="matrix(0.0666667 0 0 0.0666667 -1.06646 -87.3333)"
     d="M 7649.16,3107.79 L 7646.64,3096.75 L 7875.83,3149.06 L 7868.77,3157.92 L 7649.16,3107.79 Z "
     id="path152" />
  <path
     stroke="none"
     fill="#000000"
     transform="matrix(0.0666667 0 0 0.0666667 -1.06646 -87.3333)"
     d="M 7473.05,3248.24 L 7462.84,3243.33 L 7646.64,3096.75 L 7649.16,3107.79 L 7473.05,3248.24 Z "
     id="path154" />
  <path
     stroke="none"
     fill="#000000"
     transform="matrix(0.0666667 0 0 0.0666667 -1.06646 -87.3333)"
     d="M 8199.4,3355.77 L 8205.29,3365.97 L 8042.4,3365.97 L 8042.4,3355.77 L 8199.4,3355.77 Z "
     id="path156" />
  <path
     stroke="none"
     fill="#000000"
     transform="matrix(0.0666667 0 0 0.0666667 -1.06646 -87.3333)"
     d="M 8314.48,3156.43 L 8320.38,3166.64 L 8205.29,3365.97 L 8199.4,3355.77 L 8314.48,3156.43 Z "
     id="path158" />
  <path
     stroke="none"
     fill="#000000"
     transform="matrix(0.0666667 0 0 0.0666667 -1.06646 -87.3333)"
     d="M 8544.66,3156.43 L 8550.55,3166.64 L 8320.38,3166.64 L 8314.48,3156.43 L 8544.66,3156.43 Z "
     id="path160" />
  <path
     stroke="none"
     fill="#000000"
     transform="matrix(0.0666667 0 0 0.0666667 -1.06646 -87.3333)"
     d="M 8659.74,2957.1 L 8665.64,2967.3 L 8550.55,3166.64 L 8544.66,3156.43 L 8659.74,2957.1 Z "
     id="path162" />
  <g
     aria-label="NO"
     transform="matrix(0.0666667,0,0,0.0666667,587.94,114.347)"
     style="font-style:normal;font-weight:normal;font-size:160px;font-family:Arial;fill:#000000;stroke:none"
     id="text164">
    <path
       d="m 12.1875,0 v -114.53125 h 15.546875 l 60.15625,89.921875 V -114.53125 H 102.42188 V 0 H 86.875 L 26.71875,-90 V 0 Z"
       style="font-style:normal;font-weight:normal;font-size:160px;font-family:Arial;fill:#000000;stroke:none"
       id="path1197"
       inkscape:connector-curvature="0" />
    <path
       d="m 123.35938,-55.78125 q 0,-28.515625 15.31249,-44.60938 15.3125,-16.17187 39.53125,-16.17187 15.85938,0 28.59375,7.57812 12.73438,7.57813 19.375,21.17188 6.71875,13.515625 6.71875,30.703125 0,17.421875 -7.03125,31.171875 -7.03125,13.75 -19.92187,20.859375 -12.89063,7.03125 -27.8125,7.03125 -16.17188,0 -28.90625,-7.8125 -12.73438,-7.8125 -19.29688,-21.328125 -6.56249,-13.515625 -6.56249,-28.59375 z m 15.62499,0.234375 q 0,20.703125 11.09375,32.65625 11.17188,11.875 27.96875,11.875 17.10938,0 28.125,-12.03125 11.09375,-12.03125 11.09375,-34.140625 0,-13.984375 -4.76562,-24.375 -4.6875,-10.46875 -13.82813,-16.171875 -9.0625,-5.781255 -20.39062,-5.781255 -16.09375,0 -27.73438,11.093755 -11.5625,11.015625 -11.5625,36.875 z"
       style="font-style:normal;font-weight:normal;font-size:160px;font-family:Arial;fill:#000000;stroke:none"
       id="path1199"
       inkscape:connector-curvature="0" />
  </g>
  <g
     aria-label="2"
     transform="matrix(0.0666667,0,0,0.0666667,603.94,116.613)"
     style="font-style:normal;font-weight:normal;font-size:120px;font-family:Arial;fill:#000000;stroke:none"
     id="text166">
    <path
       d="M 60.410156,-10.136719 V 0 H 3.6328125 Q 3.515625,-3.8085938 4.8632812,-7.3242187 7.03125,-13.125 11.777344,-18.75 q 4.804687,-5.625 13.828125,-13.007812 14.003906,-11.484375 18.925781,-18.164063 4.921875,-6.738281 4.921875,-12.714844 0,-6.269531 -4.511719,-10.546875 -4.453125,-4.335937 -11.660156,-4.335937 -7.617188,0 -12.1875,4.570312 -4.570313,4.570313 -4.628906,12.65625 L 5.625,-61.40625 Q 6.7382812,-73.535156 14.003906,-79.863281 21.269531,-86.25 33.515625,-86.25 q 12.363281,0 19.570312,6.855469 7.207032,6.855469 7.207032,16.992187 0,5.15625 -2.109375,10.136719 -2.109375,4.980469 -7.03125,10.488281 -4.863282,5.507813 -16.230469,15.117188 -9.492188,7.96875 -12.1875,10.839843 -2.695313,2.8125 -4.453125,5.683594 z"
       style="font-style:normal;font-weight:normal;font-size:120px;font-family:Arial;fill:#000000;stroke:none"
       id="path1202"
       inkscape:connector-curvature="0" />
  </g>
  <path
     stroke="none"
     fill="#000000"
     transform="matrix(0.0666667 0 0 0.0666667 -1.06646 -87.3333)"
     d="M 8822.09,2957.1 L 8822.09,2967.3 L 8665.64,2967.3 L 8659.74,2957.1 L 8822.09,2957.1 Z "
     id="path168" />
  <path
     stroke="#000000"
     stroke-width="8"
     fill="none"
     transform="matrix(0.0666667 0 0 0.0666667 -1.06646 -87.3333)"
     d="M 8011.42,3228 A 57.0818,57.0818 0 1 0 8125.58,3228A 57.0818,57.0818 0 1 0 8011.42,3228Z "
     id="path170" />
  <path
     stroke="none"
     fill="#000000"
     transform="matrix(0.0666667 0 0 0.0666667 -1.06646 -87.3333)"
     d="M 8037.06,3224.34 L 8100.6,3224.34 L 8100.6,3232.34 L 8037.06,3232.34 Z "
     id="path172" />
  <path
     stroke="none"
     fill="#000000"
     transform="matrix(0.0666667 0 0 0.0666667 -1.06646 -87.3333)"
     d="M 8072.83,3196.57 L 8072.83,3260.1 L 8064.83,3260.1 L 8064.83,3196.57 Z "
     id="path174" />
  <g
     aria-label="N"
     transform="matrix(0.0666667,0,0,0.0666667,286.132,140.925)"
     style="font-style:normal;font-weight:normal;font-size:160px;font-family:Arial;fill:#000000;stroke:none"
     id="text176">
    <path
       d="m 12.1875,0 v -114.53125 h 15.546875 l 60.15625,89.921875 V -114.53125 H 102.42188 V 0 H 86.875 L 26.71875,-90 V 0 Z"
       style="font-style:normal;font-weight:normal;font-size:160px;font-family:Arial;fill:#000000;stroke:none"
       id="path1205"
       inkscape:connector-curvature="0" />
  </g>
  <path
     stroke="none"
     fill="#000000"
     transform="matrix(0.0666667 0 0 0.0666667 -1.06646 -87.3333)"
     d="M 3866.63,3473.5 L 3856.42,3478.41 L 3856.42,3243.33 L 3866.63,3248.24 L 3866.63,3473.5 Z "
     id="path178" />
  <path
     stroke="none"
     fill="#000000"
     transform="matrix(0.0666667 0 0 0.0666667 -1.06646 -87.3333)"
     d="M 4042.74,3613.95 L 4040.22,3624.99 L 3856.42,3478.41 L 3866.63,3473.5 L 4042.74,3613.95 Z "
     id="path180" />
  <path
     stroke="none"
     fill="#000000"
     transform="matrix(0.0666667 0 0 0.0666667 -1.06646 -87.3333)"
     d="M 4262.35,3563.82 L 4269.41,3572.68 L 4040.22,3624.99 L 4042.74,3613.95 L 4262.35,3563.82 Z "
     id="path182" />
  <path
     stroke="none"
     fill="#000000"
     transform="matrix(0.0666667 0 0 0.0666667 -1.06646 -87.3333)"
     d="M 4316.82,3450.72 L 4326.01,3455.15 L 4269.41,3572.68 L 4262.35,3563.82 L 4316.82,3450.72 Z "
     id="path184" />
  <path
     stroke="none"
     fill="#000000"
     transform="matrix(0.0666667 0 0 0.0666667 -1.06646 -87.3333)"
     d="M 4262.35,3157.92 L 4269.41,3149.06 L 4331.09,3277.14 L 4321.9,3281.57 L 4262.35,3157.92 Z "
     id="path186" />
  <path
     stroke="none"
     fill="#000000"
     transform="matrix(0.0666667 0 0 0.0666667 -1.06646 -87.3333)"
     d="M 4232.61,3191.66 L 4241.81,3187.23 L 4293.76,3295.12 L 4284.57,3299.54 L 4232.61,3191.66 Z "
     id="path188" />
  <path
     stroke="none"
     fill="#000000"
     transform="matrix(0.0666667 0 0 0.0666667 -1.06646 -87.3333)"
     d="M 4042.74,3107.79 L 4040.22,3096.75 L 4269.41,3149.06 L 4262.35,3157.92 L 4042.74,3107.79 Z "
     id="path190" />
  <path
     stroke="none"
     fill="#000000"
     transform="matrix(0.0666667 0 0 0.0666667 -1.06646 -87.3333)"
     d="M 3866.63,3248.24 L 3856.42,3243.33 L 4040.22,3096.75 L 4042.74,3107.79 L 3866.63,3248.24 Z "
     id="path192" />
  <path
     stroke="none"
     fill="#000000"
     transform="matrix(0.0666667 0 0 0.0666667 -1.06646 -87.3333)"
     d="M 4592.98,3355.77 L 4598.87,3365.97 L 4435.98,3365.97 L 4435.98,3355.77 L 4592.98,3355.77 Z "
     id="path194" />
  <path
     stroke="none"
     fill="#000000"
     transform="matrix(0.0666667 0 0 0.0666667 -1.06646 -87.3333)"
     d="M 4708.06,3156.43 L 4713.96,3166.64 L 4598.87,3365.97 L 4592.98,3355.77 L 4708.06,3156.43 Z "
     id="path196" />
  <path
     stroke="none"
     fill="#000000"
     transform="matrix(0.0666667 0 0 0.0666667 -1.06646 -87.3333)"
     d="M 4938.24,3156.43 L 4944.13,3166.64 L 4713.96,3166.64 L 4708.06,3156.43 L 4938.24,3156.43 Z "
     id="path198" />
  <path
     stroke="none"
     fill="#000000"
     transform="matrix(0.0666667 0 0 0.0666667 -1.06646 -87.3333)"
     d="M 5053.32,2957.1 L 5059.22,2967.3 L 4944.13,3166.64 L 4938.24,3156.43 L 5053.32,2957.1 Z "
     id="path200" />
  <g
     aria-label="N"
     transform="matrix(0.0666667,0,0,0.0666667,347.512,114.347)"
     style="font-style:normal;font-weight:normal;font-size:160px;font-family:Arial;fill:#000000;stroke:none"
     id="text202">
    <path
       d="m 12.1875,0 v -114.53125 h 15.546875 l 60.15625,89.921875 V -114.53125 H 102.42188 V 0 H 86.875 L 26.71875,-90 V 0 Z"
       style="font-style:normal;font-weight:normal;font-size:160px;font-family:Arial;fill:#000000;stroke:none"
       id="path1208"
       inkscape:connector-curvature="0" />
  </g>
  <path
     stroke="none"
     fill="#000000"
     transform="matrix(0.0666667 0 0 0.0666667 -1.06646 -87.3333)"
     d="M 5215.67,2957.1 L 5215.67,2967.3 L 5059.22,2967.3 L 5053.32,2957.1 L 5215.67,2957.1 Z "
     id="path204" />
  <path
     stroke="none"
     fill="#000000"
     transform="matrix(0.0666667 0 0 0.0666667 -1.06646 -87.3333)"
     d="M 5215.67,2998.53 L 5215.67,3008.73 L 5080.19,3008.73 L 5080.19,2998.53 L 5215.67,2998.53 Z "
     id="path206" />
  <path
     stroke="#000000"
     stroke-width="8"
     fill="none"
     transform="matrix(0.0666667 0 0 0.0666667 -1.06646 -87.3333)"
     d="M 4405,3228 A 57.0818,57.0818 0 1 0 4519.16,3228A 57.0818,57.0818 0 1 0 4405,3228Z "
     id="path208" />
  <path
     stroke="none"
     fill="#000000"
     transform="matrix(0.0666667 0 0 0.0666667 -1.06646 -87.3333)"
     d="M 4430.64,3224.34 L 4494.18,3224.34 L 4494.18,3232.34 L 4430.64,3232.34 Z "
     id="path210" />
  <path
     stroke="none"
     fill="#000000"
     transform="matrix(0.0666667 0 0 0.0666667 -1.06646 -87.3333)"
     d="M 4466.41,3196.57 L 4466.41,3260.1 L 4458.41,3260.1 L 4458.41,3196.57 Z "
     id="path212" />
  <path
     stroke="#000000"
     stroke-width="10"
     fill="none"
     transform="matrix(0.0666667 0 0 0.0666667 -1.06646 -87.3333)"
     d="M 5565.91,1365 L 5632.48,1365 "
     id="path214" />
  <path
     stroke="#000000"
     stroke-width="10"
     fill="none"
     transform="matrix(0.0666667 0 0 0.0666667 -1.06646 -87.3333)"
     d="M 5632.48,1365 L 5632.48,2280 "
     id="path216" />
  <path
     stroke="#000000"
     stroke-width="10"
     fill="none"
     transform="matrix(0.0666667 0 0 0.0666667 -1.06646 -87.3333)"
     d="M 5632.48,2280 L 5565.91,2280 "
     id="path218" />
  <path
     stroke="#000000"
     stroke-width="10"
     fill="none"
     transform="matrix(0.0666667 0 0 0.0666667 -1.06646 -87.3333)"
     d="M 3824.04,2280 L 3757.48,2280 "
     id="path220" />
  <path
     stroke="#000000"
     stroke-width="10"
     fill="none"
     transform="matrix(0.0666667 0 0 0.0666667 -1.06646 -87.3333)"
     d="M 3757.48,2280 L 3757.48,1365 "
     id="path222" />
  <path
     stroke="#000000"
     stroke-width="10"
     fill="none"
     transform="matrix(0.0666667 0 0 0.0666667 -1.06646 -87.3333)"
     d="M 3757.48,1365 L 3824.04,1365 "
     id="path224" />
  <path
     stroke="none"
     fill="#000000"
     transform="matrix(0.0666667 0 0 0.0666667 -1.06646 -87.3333)"
     d="M 3354.19,1895 L 1927.48,1895 L 1927.48,1885 L 3354.19,1885 Z "
     id="path226" />
  <path
     stroke="none"
     fill="#000000"
     transform="matrix(0.0666667 0 0 0.0666667 -1.06646 -87.3333)"
     d="M 3442.48,1890 C 3442.48,1890 3340.43,1916.51 3340.43,1916.51 C 3340.43,1916.51 3353.19,1901.6 3353.19,1890 C 3353.19,1877.96 3340.43,1862.49 3340.43,1862.49 C 3340.43,1862.49 3442.48,1890 3442.48,1890 C 3442.48,1890 3442.48,1890 3442.48,1890 "
     id="path228" />
  <path
     stroke="#000000"
     stroke-width="1"
     fill="none"
     transform="matrix(0.0666667 0 0 0.0666667 -1.06646 -87.3333)"
     d="M 3442.48,1890 C 3442.48,1890 3340.43,1916.51 3340.43,1916.51 C 3340.43,1916.51 3353.19,1901.6 3353.19,1890 C 3353.19,1877.96 3340.43,1862.49 3340.43,1862.49 C 3340.43,1862.49 3442.48,1890 3442.48,1890 C 3442.48,1890 3442.48,1890 3442.48,1890 "
     id="path230" />
  <g
     id="g1133"
     transform="translate(0,22.079048)"
     style="fill:#e69f00">
    <g
       aria-label="IrCl(CO)(PPh"
       transform="matrix(0.0666667,0,0,0.0666667,137.829,30.9167)"
       style="font-style:normal;font-weight:normal;font-size:160px;font-family:Arial;fill:#e69f00;stroke:none"
       id="text232">
      <path
         d="m 14.921875,0 v -114.53125 h 15.15625 V 0 Z"
         style="font-style:normal;font-weight:normal;font-size:160px;font-family:Arial;fill:#e69f00;stroke:none"
         id="path1211"
         inkscape:connector-curvature="0" />
      <path
         d="m 54.765625,0 v -82.96875 h 12.65625 v 12.578125 q 4.84375,-8.828125 8.90625,-11.640625 4.140625,-2.8125 9.0625,-2.8125 7.109375,0 14.453125,4.53125 L 95,-67.265625 Q 89.84375,-70.3125 84.6875,-70.3125 q -4.609375,0 -8.28125,2.8125 -3.671875,2.734375 -5.234375,7.65625 -2.34375,7.5 -2.34375,16.40625 V 0 Z"
         style="font-style:normal;font-weight:normal;font-size:160px;font-family:Arial;fill:#e69f00;stroke:none"
         id="path1213"
         inkscape:connector-curvature="0" />
      <path
         d="m 191.875,-40.15625 15.15625,3.828125 Q 202.26562,-17.65625 189.84375,-7.8125 177.5,1.953125 159.60937,1.953125 q -18.51562,0 -30.15625,-7.5 -11.56249,-7.578125 -17.65624,-21.875 -6.01563,-14.296875 -6.01563,-30.703125 0,-17.890625 6.79688,-31.171875 6.875,-13.359375 19.45312,-20.234375 12.65625,-6.95313 27.8125,-6.95313 17.1875,0 28.90625,8.75 11.71875,8.750005 16.32812,24.60938 l -14.92187,3.515625 q -3.98438,-12.5 -11.5625,-18.203125 -7.57813,-5.70313 -19.0625,-5.70313 -13.20313,0 -22.10938,6.32813 -8.82812,6.328125 -12.42187,17.03125 -3.59375,10.625 -3.59375,21.953125 0,14.609375 4.21875,25.546875 4.29687,10.859375 13.28125,16.25 8.98437,5.390625 19.45312,5.390625 12.73438,0 21.5625,-7.34375 8.82813,-7.34375 11.95313,-21.796875 z"
         style="font-style:normal;font-weight:normal;font-size:160px;font-family:Arial;fill:#e69f00;stroke:none"
         id="path1215"
         inkscape:connector-curvature="0" />
      <path
         d="m 223.67187,0 v -114.53125 h 14.0625 V 0 Z"
         style="font-style:normal;font-weight:normal;font-size:160px;font-family:Arial;fill:#e69f00;stroke:none"
         id="path1217"
         inkscape:connector-curvature="0" />
      <path
         d="m 286.48437,33.671875 q -11.64062,-14.6875 -19.6875,-34.375 -8.04687,-19.6875 -8.04687,-40.78125 0,-18.59375 6.01562,-35.625 7.03125,-19.765625 21.71875,-39.375005 h 10.07813 q -9.45313,16.25 -12.5,23.20313 -4.76563,10.78125 -7.5,22.5 -3.35938,14.609375 -3.35938,29.375 0,37.578125 23.35938,75.078125 z"
         style="font-style:normal;font-weight:normal;font-size:160px;font-family:Arial;fill:#e69f00;stroke:none"
         id="path1219"
         inkscape:connector-curvature="0" />
      <path
         d="m 396.5625,-40.15625 15.15625,3.828125 q -4.76563,18.671875 -17.1875,28.515625 -12.34375,9.765625 -30.23438,9.765625 -18.51562,0 -30.15625,-7.5 -11.5625,-7.578125 -17.65625,-21.875 -6.01562,-14.296875 -6.01562,-30.703125 0,-17.890625 6.79687,-31.171875 6.875,-13.359375 19.45313,-20.234375 12.65625,-6.95313 27.8125,-6.95313 17.1875,0 28.90625,8.75 11.71875,8.750005 16.32812,24.60938 l -14.92187,3.515625 q -3.98438,-12.5 -11.5625,-18.203125 -7.57813,-5.70313 -19.0625,-5.70313 -13.20313,0 -22.10938,6.32813 -8.82812,6.328125 -12.42187,17.03125 -3.59375,10.625 -3.59375,21.953125 0,14.609375 4.21875,25.546875 4.29687,10.859375 13.28125,16.25 8.98437,5.390625 19.45312,5.390625 12.73438,0 21.5625,-7.34375 8.82813,-7.34375 11.95313,-21.796875 z"
         style="font-style:normal;font-weight:normal;font-size:160px;font-family:Arial;fill:#e69f00;stroke:none"
         id="path1221"
         inkscape:connector-curvature="0" />
      <path
         d="m 425.85937,-55.78125 q 0,-28.515625 15.3125,-44.60938 15.3125,-16.17187 39.53125,-16.17187 15.85938,0 28.59375,7.57812 12.73438,7.57813 19.375,21.17188 6.71875,13.515625 6.71875,30.703125 0,17.421875 -7.03125,31.171875 -7.03125,13.75 -19.92187,20.859375 -12.89063,7.03125 -27.8125,7.03125 -16.17188,0 -28.90625,-7.8125 -12.73438,-7.8125 -19.29688,-21.328125 -6.5625,-13.515625 -6.5625,-28.59375 z m 15.625,0.234375 q 0,20.703125 11.09375,32.65625 11.17188,11.875 27.96875,11.875 17.10938,0 28.125,-12.03125 11.09375,-12.03125 11.09375,-34.140625 0,-13.984375 -4.76562,-24.375 -4.6875,-10.46875 -13.82813,-16.171875 -9.0625,-5.781255 -20.39062,-5.781255 -16.09375,0 -27.73438,11.093755 -11.5625,11.015625 -11.5625,36.875 z"
         style="font-style:normal;font-weight:normal;font-size:160px;font-family:Arial;fill:#e69f00;stroke:none"
         id="path1223"
         inkscape:connector-curvature="0" />
      <path
         d="M 562.26562,33.671875 H 552.1875 q 23.35937,-37.5 23.35937,-75.078125 0,-14.6875 -3.35937,-29.140625 -2.65625,-11.71875 -7.42188,-22.5 -3.04687,-7.031255 -12.57812,-23.437505 h 10.07812 q 14.6875,19.60938 21.71875,39.375005 6.01563,17.03125 6.01563,35.625 0,21.09375 -8.125,40.78125 -8.04688,19.6875 -19.60938,34.375 z"
         style="font-style:normal;font-weight:normal;font-size:160px;font-family:Arial;fill:#e69f00;stroke:none"
         id="path1225"
         inkscape:connector-curvature="0" />
      <path
         d="m 633.35937,33.671875 q -11.64062,-14.6875 -19.6875,-34.375 -8.04687,-19.6875 -8.04687,-40.78125 0,-18.59375 6.01562,-35.625 7.03125,-19.765625 21.71875,-39.375005 h 10.07813 q -9.45313,16.25 -12.5,23.20313 -4.76563,10.78125 -7.5,22.5 -3.35938,14.609375 -3.35938,29.375 0,37.578125 23.35938,75.078125 z"
         style="font-style:normal;font-weight:normal;font-size:160px;font-family:Arial;fill:#e69f00;stroke:none"
         id="path1227"
         inkscape:connector-curvature="0" />
      <path
         d="m 661.71875,0 v -114.53125 h 43.20312 q 11.40625,0 17.42188,1.09375 8.4375,1.40625 14.14062,5.39062 5.70313,3.90625 9.14063,11.01563 3.51562,7.109375 3.51562,15.625 0,14.609375 -9.29687,24.765625 Q 730.54687,-46.5625 706.25,-46.5625 H 676.875 V 0 Z M 676.875,-60.078125 h 29.60937 q 14.6875,0 20.85938,-5.46875 6.17187,-5.46875 6.17187,-15.390625 0,-7.1875 -3.67187,-12.265625 Q 726.25,-98.359375 720.3125,-100 q -3.82813,-1.01563 -14.14063,-1.01563 H 676.875 Z"
         style="font-style:normal;font-weight:normal;font-size:160px;font-family:Arial;fill:#e69f00;stroke:none"
         id="path1229"
         inkscape:connector-curvature="0" />
      <path
         d="m 768.59375,0 v -114.53125 h 43.20312 q 11.40625,0 17.42188,1.09375 8.4375,1.40625 14.14062,5.39062 5.70313,3.90625 9.14063,11.01563 3.51562,7.109375 3.51562,15.625 0,14.609375 -9.29687,24.765625 Q 837.42187,-46.5625 813.125,-46.5625 H 783.75 V 0 Z M 783.75,-60.078125 h 29.60937 q 14.6875,0 20.85938,-5.46875 6.17187,-5.46875 6.17187,-15.390625 0,-7.1875 -3.67187,-12.265625 -3.59375,-5.15625 -9.53125,-6.796875 -3.82813,-1.01563 -14.14063,-1.01563 H 783.75 Z"
         style="font-style:normal;font-weight:normal;font-size:160px;font-family:Arial;fill:#e69f00;stroke:none"
         id="path1231"
         inkscape:connector-curvature="0" />
      <path
         d="m 873.67187,0 v -114.53125 h 14.0625 v 41.09375 q 9.84375,-11.40625 24.84375,-11.40625 9.21875,0 16.01563,3.671875 6.79687,3.59375 9.6875,10 2.96875,6.40625 2.96875,18.59375 V 0 h -14.0625 v -52.578125 q 0,-10.546875 -4.60938,-15.3125 -4.53125,-4.84375 -12.89062,-4.84375 -6.25,0 -11.79688,3.28125 -5.46875,3.203125 -7.8125,8.75 -2.34375,5.546875 -2.34375,15.3125 V 0 Z"
         style="font-style:normal;font-weight:normal;font-size:160px;font-family:Arial;fill:#e69f00;stroke:none"
         id="path1233"
         inkscape:connector-curvature="0" />
    </g>
    <g
       aria-label="3"
       transform="matrix(0.0666667,0,0,0.0666667,201.235,33.1833)"
       style="font-style:normal;font-weight:normal;font-size:120px;font-family:Arial;fill:#e69f00;stroke:none"
       id="text234">
      <path
         d="m 5.0390625,-22.675781 10.5468755,-1.40625 q 1.816406,8.964843 6.152343,12.949218 4.394531,3.9257818 10.664063,3.9257818 7.441406,0 12.539062,-5.1562498 5.15625,-5.15625 5.15625,-12.773438 0,-7.265625 -4.746094,-11.953125 -4.746093,-4.746093 -12.070312,-4.746093 -2.988281,0 -7.441406,1.171875 l 1.171875,-9.257813 q 1.054687,0.117188 1.699218,0.117188 6.738282,0 12.128907,-3.515625 5.390625,-3.515625 5.390625,-10.839844 0,-5.800781 -3.925782,-9.609375 -3.925781,-3.808594 -10.136718,-3.808594 -6.152344,0 -10.253907,3.867188 -4.101562,3.867187 -5.273437,11.601562 l -10.546875,-1.875 Q 8.0273438,-74.589844 14.882813,-80.390625 21.738281,-86.25 31.933594,-86.25 q 7.03125,0 12.949218,3.046875 5.917969,2.988281 9.023438,8.203125 3.164062,5.214844 3.164062,11.074219 0,5.566406 -2.988281,10.136719 -2.988281,4.570312 -8.847656,7.265625 7.617187,1.757812 11.835937,7.324218 4.21875,5.507813 4.21875,13.828125 0,11.25 -8.203125,19.1015628 -8.203125,7.7929687 -20.742187,7.7929687 -11.308594,0 -18.808594,-6.7382812 Q 6.09375,-11.953125 5.0390625,-22.675781 Z"
         style="font-style:normal;font-weight:normal;font-size:120px;font-family:Arial;fill:#e69f00;stroke:none"
         id="path1236"
         inkscape:connector-curvature="0" />
    </g>
    <g
       aria-label=")"
       transform="matrix(0.0666667,0,0,0.0666667,205.684,30.9167)"
       style="font-style:normal;font-weight:normal;font-size:160px;font-family:Arial;fill:#e69f00;stroke:none"
       id="text236">
      <path
         d="M 19.765625,33.671875 H 9.6875 q 23.359375,-37.5 23.359375,-75.078125 0,-14.6875 -3.359375,-29.140625 -2.65625,-11.71875 -7.421875,-22.5 Q 19.21875,-100.07813 9.6875,-116.48438 h 10.078125 q 14.6875,19.60938 21.71875,39.375005 6.015625,17.03125 6.015625,35.625 0,21.09375 -8.125,40.78125 -8.046875,19.6875 -19.609375,34.375 z"
         style="font-style:normal;font-weight:normal;font-size:160px;font-family:Arial;fill:#e69f00;stroke:none"
         id="path1239"
         inkscape:connector-curvature="0" />
    </g>
    <g
       aria-label="2"
       transform="matrix(0.0666667,0,0,0.0666667,209.236,33.1833)"
       style="font-style:normal;font-weight:normal;font-size:120px;font-family:Arial;fill:#e69f00;stroke:none"
       id="text238">
      <path
         d="M 60.410156,-10.136719 V 0 H 3.6328125 Q 3.515625,-3.8085938 4.8632812,-7.3242187 7.03125,-13.125 11.777344,-18.75 q 4.804687,-5.625 13.828125,-13.007812 14.003906,-11.484375 18.925781,-18.164063 4.921875,-6.738281 4.921875,-12.714844 0,-6.269531 -4.511719,-10.546875 -4.453125,-4.335937 -11.660156,-4.335937 -7.617188,0 -12.1875,4.570312 -4.570313,4.570313 -4.628906,12.65625 L 5.625,-61.40625 Q 6.7382812,-73.535156 14.003906,-79.863281 21.269531,-86.25 33.515625,-86.25 q 12.363281,0 19.570312,6.855469 7.207032,6.855469 7.207032,16.992187 0,5.15625 -2.109375,10.136719 -2.109375,4.980469 -7.03125,10.488281 -4.863282,5.507813 -16.230469,15.117188 -9.492188,7.96875 -12.1875,10.839843 -2.695313,2.8125 -4.453125,5.683594 z"
         style="font-style:normal;font-weight:normal;font-size:120px;font-family:Arial;fill:#e69f00;stroke:none"
         id="path1242"
         inkscape:connector-curvature="0" />
    </g>
  </g>
  <path
     stroke="none"
     fill="#000000"
     transform="matrix(0.0666667 0 0 0.0666667 -1.06646 -87.3333)"
     d="M 7089.19,1895 L 5909.98,1895 L 5909.98,1885 L 7089.19,1885 Z "
     id="path242" />
  <path
     stroke="none"
     fill="#000000"
     transform="matrix(0.0666667 0 0 0.0666667 -1.06646 -87.3333)"
     d="M 7177.48,1890 C 7177.48,1890 7075.43,1916.51 7075.43,1916.51 C 7075.43,1916.51 7088.19,1901.6 7088.19,1890 C 7088.19,1877.96 7075.43,1862.49 7075.43,1862.49 C 7075.43,1862.49 7177.48,1890 7177.48,1890 C 7177.48,1890 7177.48,1890 7177.48,1890 "
     id="path244" />
  <path
     stroke="#000000"
     stroke-width="1"
     fill="none"
     transform="matrix(0.0666667 0 0 0.0666667 -1.06646 -87.3333)"
     d="M 7177.48,1890 C 7177.48,1890 7075.43,1916.51 7075.43,1916.51 C 7075.43,1916.51 7088.19,1901.6 7088.19,1890 C 7088.19,1877.96 7075.43,1862.49 7075.43,1862.49 C 7075.43,1862.49 7177.48,1890 7177.48,1890 C 7177.48,1890 7177.48,1890 7177.48,1890 "
     id="path246" />
  <path
     stroke="none"
     fill="#000000"
     transform="matrix(0.0666667 0 0 0.0666667 -1.06646 -87.3333)"
     d="M 8094.98,2754.21 L 8094.98,2310 L 8104.98,2310 L 8104.98,2754.21 Z "
     id="path248" />
  <path
     stroke="none"
     fill="#000000"
     transform="matrix(0.0666667 0 0 0.0666667 -1.06646 -87.3333)"
     d="M 8099.98,2842.5 C 8099.98,2842.5 8072.47,2740.46 8072.47,2740.46 C 8072.47,2740.46 8087.94,2753.21 8099.98,2753.21 C 8111.57,2753.21 8126.49,2740.46 8126.49,2740.46 C 8126.49,2740.46 8099.98,2842.5 8099.98,2842.5 C 8099.98,2842.5 8099.98,2842.5 8099.98,2842.5 "
     id="path250" />
  <path
     stroke="#000000"
     stroke-width="1"
     fill="none"
     transform="matrix(0.0666667 0 0 0.0666667 -1.06646 -87.3333)"
     d="M 8099.98,2842.5 C 8099.98,2842.5 8072.47,2740.46 8072.47,2740.46 C 8072.47,2740.46 8087.94,2753.21 8099.98,2753.21 C 8111.57,2753.21 8126.49,2740.46 8126.49,2740.46 C 8126.49,2740.46 8099.98,2842.5 8099.98,2842.5 C 8099.98,2842.5 8099.98,2842.5 8099.98,2842.5 "
     id="path252" />
  <g
     aria-label="HCl"
     transform="matrix(0.0666667,0,0,0.0666667,548.932,83.6667)"
     style="font-style:normal;font-weight:normal;font-size:160px;font-family:Arial;fill:#000000;stroke:none"
     id="text254">
    <path
       d="M 12.8125,0 V -114.53125 H 27.96875 V -67.5 H 87.5 v -47.03125 h 15.15625 V 0 H 87.5 V -53.984375 H 27.96875 V 0 Z"
       style="font-style:normal;font-weight:normal;font-size:160px;font-family:Arial;fill:#000000;stroke:none"
       id="path1254"
       inkscape:connector-curvature="0" />
    <path
       d="m 209.6875,-40.15625 15.15625,3.828125 q -4.76563,18.671875 -17.1875,28.515625 -12.34375,9.765625 -30.23438,9.765625 -18.51562,0 -30.15625,-7.5 -11.5625,-7.578125 -17.65625,-21.875 -6.01562,-14.296875 -6.01562,-30.703125 0,-17.890625 6.79687,-31.171875 6.875,-13.359375 19.45313,-20.234375 12.65625,-6.95313 27.8125,-6.95313 17.1875,0 28.90625,8.75 11.71875,8.750005 16.32812,24.60938 l -14.92187,3.515625 q -3.98438,-12.5 -11.5625,-18.203125 -7.57813,-5.70313 -19.0625,-5.70313 -13.20313,0 -22.10938,6.32813 -8.82812,6.328125 -12.42187,17.03125 -3.59375,10.625 -3.59375,21.953125 0,14.609375 4.21875,25.546875 4.29687,10.859375 13.28125,16.25 8.98437,5.390625 19.45312,5.390625 12.73438,0 21.5625,-7.34375 8.82813,-7.34375 11.95313,-21.796875 z"
       style="font-style:normal;font-weight:normal;font-size:160px;font-family:Arial;fill:#000000;stroke:none"
       id="path1256"
       inkscape:connector-curvature="0" />
    <path
       d="m 241.48437,0 v -114.53125 h 14.0625 V 0 Z"
       style="font-style:normal;font-weight:normal;font-size:160px;font-family:Arial;fill:#000000;stroke:none"
       id="path1258"
       inkscape:connector-curvature="0" />
  </g>
  <path
     stroke="none"
     fill="#000000"
     transform="matrix(0.0666667 0 0 0.0666667 -1.06646 -87.3333)"
     d="M 2015.77,3272.5 L 3442.48,3272.5 L 3442.48,3282.5 L 2015.77,3282.5 Z "
     id="path256" />
  <path
     stroke="none"
     fill="#000000"
     transform="matrix(0.0666667 0 0 0.0666667 -1.06646 -87.3333)"
     d="M 1927.48,3277.5 C 1927.48,3277.5 2029.52,3249.99 2029.52,3249.99 C 2029.52,3249.99 2016.77,3265.46 2016.77,3277.5 C 2016.77,3289.1 2029.52,3304.01 2029.52,3304.01 C 2029.52,3304.01 1927.48,3277.5 1927.48,3277.5 C 1927.48,3277.5 1927.48,3277.5 1927.48,3277.5 "
     id="path258" />
  <path
     stroke="#000000"
     stroke-width="1"
     fill="none"
     transform="matrix(0.0666667 0 0 0.0666667 -1.06646 -87.3333)"
     d="M 1927.48,3277.5 C 1927.48,3277.5 2029.52,3249.99 2029.52,3249.99 C 2029.52,3249.99 2016.77,3265.46 2016.77,3277.5 C 2016.77,3289.1 2029.52,3304.01 2029.52,3304.01 C 2029.52,3304.01 1927.48,3277.5 1927.48,3277.5 C 1927.48,3277.5 1927.48,3277.5 1927.48,3277.5 "
     id="path260" />
  <path
     stroke="none"
     fill="#000000"
     transform="matrix(0.0666667 0 0 0.0666667 -1.06646 -87.3333)"
     d="M 5998.27,3272.5 L 7177.48,3272.5 L 7177.48,3282.5 L 5998.27,3282.5 Z "
     id="path262" />
  <path
     stroke="none"
     fill="#000000"
     transform="matrix(0.0666667 0 0 0.0666667 -1.06646 -87.3333)"
     d="M 5909.98,3277.5 C 5909.98,3277.5 6013.02,3250.99 6013.02,3250.99 C 6013.02,3250.99 5999.7,3265.9 5999.27,3277.5 C 5998.83,3289.1 6011.02,3304.01 6011.02,3304.01 C 6011.02,3304.01 5909.98,3277.5 5909.98,3277.5 C 5909.98,3277.5 5909.98,3277.5 5909.98,3277.5 "
     id="path264" />
  <path
     stroke="#000000"
     stroke-width="1"
     fill="none"
     transform="matrix(0.0666667 0 0 0.0666667 -1.06646 -87.3333)"
     d="M 5909.98,3277.5 C 5909.98,3277.5 6013.02,3250.99 6013.02,3250.99 C 6013.02,3250.99 5999.7,3265.9 5999.27,3277.5 C 5998.83,3289.1 6011.02,3304.01 6011.02,3304.01 C 6011.02,3304.01 5909.98,3277.5 5909.98,3277.5 C 5909.98,3277.5 5909.98,3277.5 5909.98,3277.5 "
     id="path266" />
  <g
     aria-label="K"
     transform="matrix(0.0666667,0,0,0.0666667,421.932,124.167)"
     style="font-style:normal;font-weight:normal;font-size:160px;font-family:Arial;fill:#000000;stroke:none"
     id="text268">
    <path
       d="M 11.71875,0 V -114.53125 H 26.875 v 56.796875 L 83.75,-114.53125 h 20.54688 L 56.25,-68.125 106.40625,0 h -20 L 45.625,-57.96875 26.875,-39.6875 V 0 Z"
       style="font-style:normal;font-weight:normal;font-size:160px;font-family:Arial;fill:#000000;stroke:none"
       id="path1261"
       inkscape:connector-curvature="0" />
  </g>
  <g
     aria-label="2"
     transform="matrix(0.0666667,0,0,0.0666667,429.047,126.433)"
     style="font-style:normal;font-weight:normal;font-size:120px;font-family:Arial;fill:#000000;stroke:none"
     id="text270">
    <path
       d="M 60.410156,-10.136719 V 0 H 3.6328125 Q 3.515625,-3.8085938 4.8632812,-7.3242187 7.03125,-13.125 11.777344,-18.75 q 4.804687,-5.625 13.828125,-13.007812 14.003906,-11.484375 18.925781,-18.164063 4.921875,-6.738281 4.921875,-12.714844 0,-6.269531 -4.511719,-10.546875 -4.453125,-4.335937 -11.660156,-4.335937 -7.617188,0 -12.1875,4.570312 -4.570313,4.570313 -4.628906,12.65625 L 5.625,-61.40625 Q 6.7382812,-73.535156 14.003906,-79.863281 21.269531,-86.25 33.515625,-86.25 q 12.363281,0 19.570312,6.855469 7.207032,6.855469 7.207032,16.992187 0,5.15625 -2.109375,10.136719 -2.109375,4.980469 -7.03125,10.488281 -4.863282,5.507813 -16.230469,15.117188 -9.492188,7.96875 -12.1875,10.839843 -2.695313,2.8125 -4.453125,5.683594 z"
       style="font-style:normal;font-weight:normal;font-size:120px;font-family:Arial;fill:#000000;stroke:none"
       id="path1264"
       inkscape:connector-curvature="0" />
  </g>
  <g
     aria-label="CO"
     transform="matrix(0.0666667,0,0,0.0666667,433.496,124.167)"
     style="font-style:normal;font-weight:normal;font-size:160px;font-family:Arial;fill:#000000;stroke:none"
     id="text272">
    <path
       d="m 94.0625,-40.15625 15.15625,3.828125 Q 104.45313,-17.65625 92.03125,-7.8125 79.6875,1.953125 61.796875,1.953125 q -18.515625,0 -30.15625,-7.5 -11.5625,-7.578125 -17.65625,-21.875 Q 7.96875,-41.71875 7.96875,-58.125 q 0,-17.890625 6.796875,-31.171875 6.875,-13.359375 19.453125,-20.234375 12.65625,-6.95313 27.8125,-6.95313 17.1875,0 28.90625,8.75 11.71875,8.750005 16.32813,24.60938 l -14.92188,3.515625 q -3.984375,-12.5 -11.5625,-18.203125 -7.578125,-5.70313 -19.0625,-5.70313 -13.203125,0 -22.109375,6.32813 -8.828125,6.328125 -12.421875,17.03125 -3.59375,10.625 -3.59375,21.953125 0,14.609375 4.21875,25.546875 4.296875,10.859375 13.28125,16.25 8.984375,5.390625 19.453125,5.390625 12.734375,0 21.5625,-7.34375 8.828125,-7.34375 11.953125,-21.796875 z"
       style="font-style:normal;font-weight:normal;font-size:160px;font-family:Arial;fill:#000000;stroke:none"
       id="path1267"
       inkscape:connector-curvature="0" />
    <path
       d="m 123.35938,-55.78125 q 0,-28.515625 15.31249,-44.60938 15.3125,-16.17187 39.53125,-16.17187 15.85938,0 28.59375,7.57812 12.73438,7.57813 19.375,21.17188 6.71875,13.515625 6.71875,30.703125 0,17.421875 -7.03125,31.171875 -7.03125,13.75 -19.92187,20.859375 -12.89063,7.03125 -27.8125,7.03125 -16.17188,0 -28.90625,-7.8125 -12.73438,-7.8125 -19.29688,-21.328125 -6.56249,-13.515625 -6.56249,-28.59375 z m 15.62499,0.234375 q 0,20.703125 11.09375,32.65625 11.17188,11.875 27.96875,11.875 17.10938,0 28.125,-12.03125 11.09375,-12.03125 11.09375,-34.140625 0,-13.984375 -4.76562,-24.375 -4.6875,-10.46875 -13.82813,-16.171875 -9.0625,-5.781255 -20.39062,-5.781255 -16.09375,0 -27.73438,11.093755 -11.5625,11.015625 -11.5625,36.875 z"
       style="font-style:normal;font-weight:normal;font-size:160px;font-family:Arial;fill:#000000;stroke:none"
       id="path1269"
       inkscape:connector-curvature="0" />
  </g>
  <g
     aria-label="3"
     transform="matrix(0.0666667,0,0,0.0666667,449.496,126.433)"
     style="font-style:normal;font-weight:normal;font-size:120px;font-family:Arial;fill:#000000;stroke:none"
     id="text274">
    <path
       d="m 5.0390625,-22.675781 10.5468755,-1.40625 q 1.816406,8.964843 6.152343,12.949218 4.394531,3.9257818 10.664063,3.9257818 7.441406,0 12.539062,-5.1562498 5.15625,-5.15625 5.15625,-12.773438 0,-7.265625 -4.746094,-11.953125 -4.746093,-4.746093 -12.070312,-4.746093 -2.988281,0 -7.441406,1.171875 l 1.171875,-9.257813 q 1.054687,0.117188 1.699218,0.117188 6.738282,0 12.128907,-3.515625 5.390625,-3.515625 5.390625,-10.839844 0,-5.800781 -3.925782,-9.609375 -3.925781,-3.808594 -10.136718,-3.808594 -6.152344,0 -10.253907,3.867188 -4.101562,3.867187 -5.273437,11.601562 l -10.546875,-1.875 Q 8.0273438,-74.589844 14.882813,-80.390625 21.738281,-86.25 31.933594,-86.25 q 7.03125,0 12.949218,3.046875 5.917969,2.988281 9.023438,8.203125 3.164062,5.214844 3.164062,11.074219 0,5.566406 -2.988281,10.136719 -2.988281,4.570312 -8.847656,7.265625 7.617187,1.757812 11.835937,7.324218 4.21875,5.507813 4.21875,13.828125 0,11.25 -8.203125,19.1015628 -8.203125,7.7929687 -20.742187,7.7929687 -11.308594,0 -18.808594,-6.7382812 Q 6.09375,-11.953125 5.0390625,-22.675781 Z"
       style="font-style:normal;font-weight:normal;font-size:120px;font-family:Arial;fill:#000000;stroke:none"
       id="path1272"
       inkscape:connector-curvature="0" />
  </g>
  <g
     aria-label="O"
     transform="matrix(0.0666667,0,0,0.0666667,354.887,127.636)"
     style="font-style:normal;font-weight:normal;font-size:160px;font-family:Arial;fill:#000000;stroke:none"
     id="text276">
    <path
       d="m 7.734375,-55.78125 q 0,-28.515625 15.3125,-44.60938 15.3125,-16.17187 39.53125,-16.17187 15.859375,0 28.59375,7.57812 12.734375,7.57813 19.375005,21.17188 6.71875,13.515625 6.71875,30.703125 0,17.421875 -7.03125,31.171875 -7.03125,13.75 -19.92188,20.859375 -12.890625,7.03125 -27.8125,7.03125 -16.171875,0 -28.90625,-7.8125 -12.734375,-7.8125 -19.296875,-21.328125 -6.5625,-13.515625 -6.5625,-28.59375 z m 15.625,0.234375 q 0,20.703125 11.09375,32.65625 11.171875,11.875 27.96875,11.875 17.109375,0 28.125,-12.03125 11.093755,-12.03125 11.093755,-34.140625 0,-13.984375 -4.76563,-24.375 -4.6875,-10.46875 -13.828125,-16.171875 -9.0625,-5.781255 -20.390625,-5.781255 -16.09375,0 -27.734375,11.093755 -11.5625,11.015625 -11.5625,36.875 z"
       style="font-style:normal;font-weight:normal;font-size:160px;font-family:Arial;fill:#000000;stroke:none"
       id="path1275"
       inkscape:connector-curvature="0" />
  </g>
  <path
     stroke="none"
     fill="#000000"
     transform="matrix(0.0666667 0 0 0.0666667 -1.06646 -87.3333)"
     d="M 5366.33,3090.36 L 5357.49,3095.46 L 5333.36,3053.67 L 5342.2,3048.56 L 5366.33,3090.36 Z "
     id="path278" />
  <g
     aria-label="O"
     transform="matrix(0.0666667,0,0,0.0666667,354.887,101.057)"
     style="font-style:normal;font-weight:normal;font-size:160px;font-family:Arial;fill:#000000;stroke:none"
     id="text280">
    <path
       d="m 7.734375,-55.78125 q 0,-28.515625 15.3125,-44.60938 15.3125,-16.17187 39.53125,-16.17187 15.859375,0 28.59375,7.57812 12.734375,7.57813 19.375005,21.17188 6.71875,13.515625 6.71875,30.703125 0,17.421875 -7.03125,31.171875 -7.03125,13.75 -19.92188,20.859375 -12.890625,7.03125 -27.8125,7.03125 -16.171875,0 -28.90625,-7.8125 -12.734375,-7.8125 -19.296875,-21.328125 -6.5625,-13.515625 -6.5625,-28.59375 z m 15.625,0.234375 q 0,20.703125 11.09375,32.65625 11.171875,11.875 27.96875,11.875 17.109375,0 28.125,-12.03125 11.093755,-12.03125 11.093755,-34.140625 0,-13.984375 -4.76563,-24.375 -4.6875,-10.46875 -13.828125,-16.171875 -9.0625,-5.781255 -20.390625,-5.781255 -16.09375,0 -27.734375,11.093755 -11.5625,11.015625 -11.5625,36.875 z"
       style="font-style:normal;font-weight:normal;font-size:160px;font-family:Arial;fill:#000000;stroke:none"
       id="path1278"
       inkscape:connector-curvature="0" />
  </g>
  <path
     stroke="none"
     fill="#000000"
     transform="matrix(0.0666667 0 0 0.0666667 -1.06646 -87.3333)"
     d="M 5351.9,2838.62 L 5360.74,2843.72 L 5336.57,2885.58 L 5327.73,2880.48 L 5351.9,2838.62 Z "
     id="path282" />
  <path
     stroke="#000000"
     stroke-width="8"
     fill="none"
     transform="matrix(0.0666667 0 0 0.0666667 -1.06646 -87.3333)"
     d="M 5460.11,2646.54 A 57.0818,57.0818 0 1 0 5574.27,2646.54A 57.0818,57.0818 0 1 0 5460.11,2646.54Z "
     id="path284" />
  <path
     stroke="none"
     fill="#000000"
     transform="matrix(0.0666667 0 0 0.0666667 -1.06646 -87.3333)"
     d="M 5485.75,2642.87 L 5549.29,2642.87 L 5549.29,2650.87 L 5485.75,2650.87 Z "
     id="path286" />
  <path
     stroke="#000000"
     stroke-width="8"
     fill="none"
     transform="matrix(0.0666667 0 0 0.0666667 -1.06646 -87.3333)"
     d="M 5460.11,3045.21 A 57.0818,57.0818 0 1 0 5574.27,3045.21A 57.0818,57.0818 0 1 0 5460.11,3045.21Z "
     id="path288" />
  <path
     stroke="none"
     fill="#000000"
     transform="matrix(0.0666667 0 0 0.0666667 -1.06646 -87.3333)"
     d="M 5485.75,3041.54 L 5549.29,3041.54 L 5549.29,3049.54 L 5485.75,3049.54 Z "
     id="path290" />
  <path
     stroke="#000000"
     stroke-width="8"
     fill="none"
     transform="matrix(0.0666667 0 0 0.0666667 -1.06646 -87.3333)"
     d="M 5138.4,2825.14 A 57.0818,57.0818 0 1 0 5252.56,2825.14A 57.0818,57.0818 0 1 0 5138.4,2825.14Z "
     id="path292" />
  <path
     stroke="none"
     fill="#000000"
     transform="matrix(0.0666667 0 0 0.0666667 -1.06646 -87.3333)"
     d="M 5164.04,2821.47 L 5227.58,2821.47 L 5227.58,2829.47 L 5164.04,2829.47 Z "
     id="path294" />
  <path
     stroke="none"
     fill="#000000"
     transform="matrix(0.0666667 0 0 0.0666667 -1.06646 -87.3333)"
     d="M 5199.81,2793.7 L 5199.81,2857.24 L 5191.81,2857.24 L 5191.81,2793.7 Z "
     id="path296" />
  <path
     stroke="#000000"
     stroke-width="10"
     fill="none"
     transform="matrix(0.0666667 0 0 0.0666667 -1.06646 -87.3333)"
     d="M 5550.23,2520 L 5632.48,2520 "
     id="path298" />
  <path
     stroke="#000000"
     stroke-width="10"
     fill="none"
     transform="matrix(0.0666667 0 0 0.0666667 -1.06646 -87.3333)"
     d="M 5632.48,2520 L 5632.48,3652.5 "
     id="path300" />
  <path
     stroke="#000000"
     stroke-width="10"
     fill="none"
     transform="matrix(0.0666667 0 0 0.0666667 -1.06646 -87.3333)"
     d="M 5632.48,3652.5 L 5550.23,3652.5 "
     id="path302" />
  <path
     stroke="#000000"
     stroke-width="10"
     fill="none"
     transform="matrix(0.0666667 0 0 0.0666667 -1.06646 -87.3333)"
     d="M 3839.72,3652.5 L 3757.48,3652.5 "
     id="path304" />
  <path
     stroke="#000000"
     stroke-width="10"
     fill="none"
     transform="matrix(0.0666667 0 0 0.0666667 -1.06646 -87.3333)"
     d="M 3757.48,3652.5 L 3757.48,2520 "
     id="path306" />
  <path
     stroke="#000000"
     stroke-width="10"
     fill="none"
     transform="matrix(0.0666667 0 0 0.0666667 -1.06646 -87.3333)"
     d="M 3757.48,2520 L 3839.72,2520 "
     id="path308" />
  <g
     aria-label="Cl"
     transform="matrix(0.0666667,0,0,0.0666667,538.432,159.167)"
     style="font-style:normal;font-weight:normal;font-size:160px;font-family:Arial;fill:#000000;stroke:none"
     id="text310">
    <path
       d="m 94.0625,-40.15625 15.15625,3.828125 Q 104.45313,-17.65625 92.03125,-7.8125 79.6875,1.953125 61.796875,1.953125 q -18.515625,0 -30.15625,-7.5 -11.5625,-7.578125 -17.65625,-21.875 Q 7.96875,-41.71875 7.96875,-58.125 q 0,-17.890625 6.796875,-31.171875 6.875,-13.359375 19.453125,-20.234375 12.65625,-6.95313 27.8125,-6.95313 17.1875,0 28.90625,8.75 11.71875,8.750005 16.32813,24.60938 l -14.92188,3.515625 q -3.984375,-12.5 -11.5625,-18.203125 -7.578125,-5.70313 -19.0625,-5.70313 -13.203125,0 -22.109375,6.32813 -8.828125,6.328125 -12.421875,17.03125 -3.59375,10.625 -3.59375,21.953125 0,14.609375 4.21875,25.546875 4.296875,10.859375 13.28125,16.25 8.984375,5.390625 19.453125,5.390625 12.734375,0 21.5625,-7.34375 8.828125,-7.34375 11.953125,-21.796875 z"
       style="font-style:normal;font-weight:normal;font-size:160px;font-family:Arial;fill:#000000;stroke:none"
       id="path1281"
       inkscape:connector-curvature="0" />
    <path
       d="m 125.85938,0 v -114.53125 h 14.06249 V 0 Z"
       style="font-style:normal;font-weight:normal;font-size:160px;font-family:Arial;fill:#000000;stroke:none"
       id="path1283"
       inkscape:connector-curvature="0" />
  </g>
  <path
     stroke="#000000"
     stroke-width="8"
     fill="none"
     transform="matrix(0.0666667 0 0 0.0666667 -1.06646 -87.3333)"
     d="M 8264.08,3546.83 A 57.0818,57.0818 0 1 0 8378.25,3546.83A 57.0818,57.0818 0 1 0 8264.08,3546.83Z "
     id="path312" />
  <path
     stroke="none"
     fill="#000000"
     transform="matrix(0.0666667 0 0 0.0666667 -1.06646 -87.3333)"
     d="M 8289.73,3543.16 L 8353.27,3543.16 L 8353.27,3551.16 L 8289.73,3551.16 Z "
     id="path314" />
  <text
     xml:space="preserve"
     style="font-style:normal;font-weight:normal;font-size:10.66666698px;line-height:1.25;font-family:sans-serif;text-align:center;letter-spacing:0px;word-spacing:0px;text-anchor:middle;fill:#e69f00;fill-opacity:1;stroke:none"
     x="175.32355"
     y="66.83847"
     id="text1035"><tspan
       sodipodi:role="line"
       id="tspan1033"
       x="175.32355"
       y="66.83847"
       style="text-align:center;text-anchor:middle;fill:#e69f00">\SI{0.5}{\mole\percent}</tspan></text>
  <text
     xml:space="preserve"
     style="font-style:normal;font-weight:normal;font-size:10.66666698px;line-height:1.25;font-family:sans-serif;text-align:start;letter-spacing:0px;word-spacing:0px;text-anchor:start;fill:#000000;fill-opacity:1;stroke:none"
     x="89.457993"
     y="61.651398"
     id="text1301"><tspan
       sodipodi:role="line"
       id="tspan1299"
       x="89.457993"
       y="61.651398">\cmpd{lactam-nitro}</tspan></text>
  <text
     xml:space="preserve"
     style="font-style:normal;font-weight:normal;font-size:10.66666698px;line-height:1.25;font-family:sans-serif;text-align:start;letter-spacing:0px;word-spacing:0px;text-anchor:start;fill:#000000;fill-opacity:1;stroke:none"
     x="338.12485"
     y="61.651398"
     id="text1301-0"><tspan
       sodipodi:role="line"
       id="tspan1299-9"
       x="338.12485"
       y="61.651398">\cmpd{silyl-nitro}</tspan></text>
  <text
     xml:space="preserve"
     style="font-style:normal;font-weight:normal;font-size:10.66666698px;line-height:1.25;font-family:sans-serif;text-align:start;letter-spacing:0px;word-spacing:0px;text-anchor:start;fill:#000000;fill-opacity:1;stroke:none"
     x="577.20941"
     y="61.651398"
     id="text1301-00"><tspan
       sodipodi:role="line"
       id="tspan1299-92"
       x="577.20941"
       y="61.651398">\cmpd{enamine-nitro}</tspan></text>
  <text
     xml:space="preserve"
     style="font-style:normal;font-weight:normal;font-size:10.66666698px;line-height:1.25;font-family:sans-serif;text-align:start;letter-spacing:0px;word-spacing:0px;text-anchor:start;fill:#000000;fill-opacity:1;stroke:none"
     x="577.20941"
     y="156.27589"
     id="text1301-00-3"><tspan
       sodipodi:role="line"
       id="tspan1299-92-9"
       x="577.20941"
       y="156.27589">\cmpd{iminium-nitro}</tspan></text>
  <text
     xml:space="preserve"
     style="font-style:normal;font-weight:normal;font-size:10.66666698px;line-height:1.25;font-family:sans-serif;text-align:start;letter-spacing:0px;word-spacing:0px;text-anchor:start;fill:#000000;fill-opacity:1;stroke:none"
     x="338.12485"
     y="156.27589"
     id="text1301-00-3-5"><tspan
       sodipodi:role="line"
       id="tspan1299-92-9-7"
       x="338.12485"
       y="156.27589">\cmpd{zwiter-nitro}</tspan></text>
  <text
     xml:space="preserve"
     style="font-style:normal;font-weight:normal;font-size:10.66666698px;line-height:1.25;font-family:sans-serif;text-align:start;letter-spacing:0px;word-spacing:0px;text-anchor:start;fill:#000000;fill-opacity:1;stroke:none"
     x="89.457993"
     y="156.27589"
     id="text1301-00-3-0"><tspan
       sodipodi:role="line"
       id="tspan1299-92-9-2"
       x="89.457993"
       y="156.27589">\cmpd{bicyclo-nitro}</tspan></text>
  <text
     xml:space="preserve"
     style="font-style:normal;font-weight:normal;font-size:10.66666698px;line-height:1.25;font-family:sans-serif;text-align:center;letter-spacing:0px;word-spacing:0px;text-anchor:middle;fill:#009e73;fill-opacity:1;stroke:none"
     x="174.37729"
     y="32.429592"
     id="text906"><tspan
       sodipodi:role="line"
       id="tspan904"
       x="174.37729"
       y="32.429592"
       style="text-align:center;text-anchor:middle;fill:#009e73">\gls{tmds}</tspan></text>
</svg>
