<?xml version="1.0" encoding="UTF-8" standalone="no"?>
<svg
   xmlns:dc="http://purl.org/dc/elements/1.1/"
   xmlns:cc="http://creativecommons.org/ns#"
   xmlns:rdf="http://www.w3.org/1999/02/22-rdf-syntax-ns#"
   xmlns:svg="http://www.w3.org/2000/svg"
   xmlns="http://www.w3.org/2000/svg"
   xmlns:sodipodi="http://sodipodi.sourceforge.net/DTD/sodipodi-0.dtd"
   xmlns:inkscape="http://www.inkscape.org/namespaces/inkscape"
   width="615px"
   height="140px"
   viewBox="0 0 615 140"
   style="background-color: #ffffff00"
   version="1.1"
   id="svg196"
   sodipodi:docname="sec-methods.svg"
   inkscape:version="0.92.4 (5da689c313, 2019-01-14)">
  <metadata
     id="metadata202">
    <rdf:RDF>
      <cc:Work
         rdf:about="">
        <dc:format>image/svg+xml</dc:format>
        <dc:type
           rdf:resource="http://purl.org/dc/dcmitype/StillImage" />
      </cc:Work>
    </rdf:RDF>
  </metadata>
  <defs
     id="defs200" />
  <sodipodi:namedview
     pagecolor="#ffffff"
     bordercolor="#666666"
     borderopacity="1"
     objecttolerance="10"
     gridtolerance="10"
     guidetolerance="10"
     inkscape:pageopacity="0"
     inkscape:pageshadow="2"
     inkscape:window-width="1920"
     inkscape:window-height="1017"
     id="namedview198"
     showgrid="false"
     inkscape:zoom="2.2308943"
     inkscape:cx="318.84268"
     inkscape:cy="78.694745"
     inkscape:window-x="-8"
     inkscape:window-y="-8"
     inkscape:window-maximized="1"
     inkscape:current-layer="svg196" />
  <path
     stroke="none"
     fill="#56b4e9"
     transform="matrix(0.0666667 0 0 0.0666667 -1.06646 -28.3333)"
     d="M 8580.35,910.246 C 8580.35,910.246 8580.35,609 8580.35,609 C 8580.35,609 6839.64,609 6839.64,609 C 6839.64,609 6839.64,910.246 6839.64,910.246 C 6839.64,910.246 8580.35,910.246 8580.35,910.246 "
     id="path2" />
  <path
     stroke="#56b4e9"
     stroke-width="1"
     fill="none"
     transform="matrix(0.0666667 0 0 0.0666667 -1.06646 -28.3333)"
     d="M 8580.35,910.246 C 8580.35,910.246 8580.35,609 8580.35,609 C 8580.35,609 6839.64,609 6839.64,609 C 6839.64,609 6839.64,910.246 6839.64,910.246 C 6839.64,910.246 8580.35,910.246 8580.35,910.246 "
     id="path4" />
  <path
     stroke="none"
     fill="#009e73"
     transform="matrix(0.0666667 0 0 0.0666667 -1.06646 -28.3333)"
     d="M 8768.66,1317.68 C 8768.66,1317.68 8768.66,1017.75 8768.66,1017.75 C 8768.66,1017.75 6839.64,1017.75 6839.64,1017.75 C 6839.64,1017.75 6839.64,1317.68 6839.64,1317.68 C 6839.64,1317.68 8768.66,1317.68 8768.66,1317.68 "
     id="path6" />
  <path
     stroke="#009e73"
     stroke-width="1"
     fill="none"
     transform="matrix(0.0666667 0 0 0.0666667 -1.06646 -28.3333)"
     d="M 8768.66,1317.68 C 8768.66,1317.68 8768.66,1017.75 8768.66,1017.75 C 8768.66,1017.75 6839.64,1017.75 6839.64,1017.75 C 6839.64,1017.75 6839.64,1317.68 6839.64,1317.68 C 6839.64,1317.68 8768.66,1317.68 8768.66,1317.68 "
     id="path8" />
  <path
     stroke="none"
     fill="#cc79a7"
     transform="matrix(0.0666667 0 0 0.0666667 -1.06646 -28.3333)"
     d="M 7351.75,1719.73 C 7351.75,1719.73 7351.75,1415.25 7351.75,1415.25 C 7351.75,1415.25 6839.64,1415.25 6839.64,1415.25 C 6839.64,1415.25 6839.64,1719.73 6839.64,1719.73 C 6839.64,1719.73 7351.75,1719.73 7351.75,1719.73 "
     id="path10" />
  <path
     stroke="#cc79a7"
     stroke-width="1"
     fill="none"
     transform="matrix(0.0666667 0 0 0.0666667 -1.06646 -28.3333)"
     d="M 7351.75,1719.73 C 7351.75,1719.73 7351.75,1415.25 7351.75,1415.25 C 7351.75,1415.25 6839.64,1415.25 6839.64,1415.25 C 6839.64,1415.25 6839.64,1719.73 6839.64,1719.73 C 6839.64,1719.73 7351.75,1719.73 7351.75,1719.73 "
     id="path12" />
  <g
     aria-label="Ph"
     transform="matrix(0.0666667,0,0,0.0666667,2.76973,66.3667)"
     style="font-style:normal;font-weight:normal;font-size:160px;font-family:Arial;fill:#000000;stroke:none"
     id="text14">
    <path
       d="m 12.34375,0 v -114.53125 h 43.203125 q 11.40625,0 17.421875,1.09375 8.4375,1.40625 14.140625,5.39062 5.703125,3.90625 9.140625,11.01563 3.515625,7.109375 3.515625,15.625 0,14.609375 -9.296875,24.765625 Q 81.171875,-46.5625 56.875,-46.5625 H 27.5 V 0 Z M 27.5,-60.078125 h 29.609375 q 14.6875,0 20.859375,-5.46875 6.171875,-5.46875 6.171875,-15.390625 0,-7.1875 -3.671875,-12.265625 Q 76.875,-98.359375 70.9375,-100 q -3.828125,-1.01563 -14.140625,-1.01563 H 27.5 Z"
       style="font-style:normal;font-weight:normal;font-size:160px;font-family:Arial;fill:#000000;stroke:none"
       id="path1009"
       inkscape:connector-curvature="0" />
    <path
       d="m 117.42188,0 v -114.53125 h 14.06249 v 41.09375 q 9.84375,-11.40625 24.84375,-11.40625 9.21875,0 16.01563,3.671875 6.79687,3.59375 9.6875,10 Q 185,-64.765625 185,-52.578125 V 0 h -14.0625 v -52.578125 q 0,-10.546875 -4.60938,-15.3125 -4.53125,-4.84375 -12.89062,-4.84375 -6.25,0 -11.79688,3.28125 -5.46875,3.203125 -7.8125,8.75 -2.34375,5.546875 -2.34375,15.3125 V 0 Z"
       style="font-style:normal;font-weight:normal;font-size:160px;font-family:Arial;fill:#000000;stroke:none"
       id="path1011"
       inkscape:connector-curvature="0" />
  </g>
  <path
     stroke="none"
     fill="#000000"
     transform="matrix(0.0666667 0 0 0.0666667 -1.06646 -28.3333)"
     d="M 408.089,1236.52 L 408.089,1248.3 L 259.944,1333.84 L 254.842,1325 L 408.089,1236.52 Z "
     id="path16" />
  <g
     aria-label="N"
     transform="matrix(0.0666667,0,0,0.0666667,35.577,66.3667)"
     style="font-style:normal;font-weight:normal;font-size:160px;font-family:Arial;fill:#000000;stroke:none"
     id="text18">
    <path
       d="m 12.1875,0 v -114.53125 h 15.546875 l 60.15625,89.921875 V -114.53125 H 102.42188 V 0 H 86.875 L 26.71875,-90 V 0 Z"
       style="font-style:normal;font-weight:normal;font-size:160px;font-family:Arial;fill:#000000;stroke:none"
       id="path1014"
       inkscape:connector-curvature="0" />
  </g>
  <g
     aria-label="H"
     transform="matrix(0.0666667,0,0,0.0666667,35.577,77.0333)"
     style="font-style:normal;font-weight:normal;font-size:160px;font-family:Arial;fill:#000000;stroke:none"
     id="text20">
    <path
       d="M 12.8125,0 V -114.53125 H 27.96875 V -67.5 H 87.5 v -47.03125 h 15.15625 V 0 H 87.5 V -53.984375 H 27.96875 V 0 Z"
       style="font-style:normal;font-weight:normal;font-size:160px;font-family:Arial;fill:#000000;stroke:none"
       id="path1017"
       inkscape:connector-curvature="0" />
  </g>
  <path
     stroke="none"
     fill="#000000"
     transform="matrix(0.0666667 0 0 0.0666667 -1.06646 -28.3333)"
     d="M 532.229,1308.19 L 527.127,1317.03 L 408.089,1248.3 L 408.089,1236.52 L 532.229,1308.19 Z "
     id="path22" />
  <g
     aria-label="O"
     transform="matrix(0.0666667,0,0,0.0666667,21.9911,43.3494)"
     style="font-style:normal;font-weight:normal;font-size:160px;font-family:Arial;fill:#000000;stroke:none"
     id="text24">
    <path
       d="m 7.734375,-55.78125 q 0,-28.515625 15.3125,-44.60938 15.3125,-16.17187 39.53125,-16.17187 15.859375,0 28.59375,7.57812 12.734375,7.57813 19.375005,21.17188 6.71875,13.515625 6.71875,30.703125 0,17.421875 -7.03125,31.171875 -7.03125,13.75 -19.92188,20.859375 -12.890625,7.03125 -27.8125,7.03125 -16.171875,0 -28.90625,-7.8125 -12.734375,-7.8125 -19.296875,-21.328125 -6.5625,-13.515625 -6.5625,-28.59375 z m 15.625,0.234375 q 0,20.703125 11.09375,32.65625 11.171875,11.875 27.96875,11.875 17.109375,0 28.125,-12.03125 11.093755,-12.03125 11.093755,-34.140625 0,-13.984375 -4.76563,-24.375 -4.6875,-10.46875 -13.828125,-16.171875 -9.0625,-5.781255 -20.390625,-5.781255 -16.09375,0 -27.734375,11.093755 -11.5625,11.015625 -11.5625,36.875 z"
       style="font-style:normal;font-weight:normal;font-size:160px;font-family:Arial;fill:#000000;stroke:none"
       id="path1020"
       inkscape:connector-curvature="0" />
  </g>
  <path
     stroke="none"
     fill="#000000"
     transform="matrix(0.0666667 0 0 0.0666667 -1.06646 -28.3333)"
     d="M 382.271,1103.91 L 392.476,1103.91 L 392.476,1254.37 L 382.271,1254.37 L 382.271,1103.91 Z "
     id="path26" />
  <path
     stroke="none"
     fill="#000000"
     transform="matrix(0.0666667 0 0 0.0666667 -1.06646 -28.3333)"
     d="M 423.703,1103.91 L 433.907,1103.91 L 433.907,1254.37 L 423.703,1254.37 L 423.703,1103.91 Z "
     id="path28" />
  <path
     stroke="none"
     fill="#000000"
     transform="matrix(0.0666667 0 0 0.0666667 -1.06646 -28.3333)"
     d="M 806.761,1236.52 L 806.761,1248.3 L 687.313,1317.27 L 682.211,1308.43 L 806.761,1236.52 Z "
     id="path30" />
  <g
     aria-label="Ph"
     transform="matrix(0.0666667,0,0,0.0666667,62.4494,66.3667)"
     style="font-style:normal;font-weight:normal;font-size:160px;font-family:Arial;fill:#000000;stroke:none"
     id="text32">
    <path
       d="m 12.34375,0 v -114.53125 h 43.203125 q 11.40625,0 17.421875,1.09375 8.4375,1.40625 14.140625,5.39062 5.703125,3.90625 9.140625,11.01563 3.515625,7.109375 3.515625,15.625 0,14.609375 -9.296875,24.765625 Q 81.171875,-46.5625 56.875,-46.5625 H 27.5 V 0 Z M 27.5,-60.078125 h 29.609375 q 14.6875,0 20.859375,-5.46875 6.171875,-5.46875 6.171875,-15.390625 0,-7.1875 -3.671875,-12.265625 Q 76.875,-98.359375 70.9375,-100 q -3.828125,-1.01563 -14.140625,-1.01563 H 27.5 Z"
       style="font-style:normal;font-weight:normal;font-size:160px;font-family:Arial;fill:#000000;stroke:none"
       id="path1023"
       inkscape:connector-curvature="0" />
    <path
       d="m 117.42188,0 v -114.53125 h 14.06249 v 41.09375 q 9.84375,-11.40625 24.84375,-11.40625 9.21875,0 16.01563,3.671875 6.79687,3.59375 9.6875,10 Q 185,-64.765625 185,-52.578125 V 0 h -14.0625 v -52.578125 q 0,-10.546875 -4.60938,-15.3125 -4.53125,-4.84375 -12.89062,-4.84375 -6.25,0 -11.79688,3.28125 -5.46875,3.203125 -7.8125,8.75 -2.34375,5.546875 -2.34375,15.3125 V 0 Z"
       style="font-style:normal;font-weight:normal;font-size:160px;font-family:Arial;fill:#000000;stroke:none"
       id="path1025"
       inkscape:connector-curvature="0" />
  </g>
  <path
     stroke="none"
     fill="#000000"
     transform="matrix(0.0666667 0 0 0.0666667 -1.06646 -28.3333)"
     d="M 934.211,1310.11 L 929.109,1318.94 L 806.761,1248.3 L 806.761,1236.52 L 934.211,1310.11 Z "
     id="path34" />
  <g
     aria-label="Ph"
     transform="matrix(0.0666667,0,0,0.0666667,368.77,66.8666)"
     style="font-style:normal;font-weight:normal;font-size:160px;font-family:Arial;fill:#000000;stroke:none"
     id="text36">
    <path
       d="m 12.34375,0 v -114.53125 h 43.203125 q 11.40625,0 17.421875,1.09375 8.4375,1.40625 14.140625,5.39062 5.703125,3.90625 9.140625,11.01563 3.515625,7.109375 3.515625,15.625 0,14.609375 -9.296875,24.765625 Q 81.171875,-46.5625 56.875,-46.5625 H 27.5 V 0 Z M 27.5,-60.078125 h 29.609375 q 14.6875,0 20.859375,-5.46875 6.171875,-5.46875 6.171875,-15.390625 0,-7.1875 -3.671875,-12.265625 Q 76.875,-98.359375 70.9375,-100 q -3.828125,-1.01563 -14.140625,-1.01563 H 27.5 Z"
       style="font-style:normal;font-weight:normal;font-size:160px;font-family:Arial;fill:#000000;stroke:none"
       id="path1028"
       inkscape:connector-curvature="0" />
    <path
       d="m 117.42188,0 v -114.53125 h 14.06249 v 41.09375 q 9.84375,-11.40625 24.84375,-11.40625 9.21875,0 16.01563,3.671875 6.79687,3.59375 9.6875,10 Q 185,-64.765625 185,-52.578125 V 0 h -14.0625 v -52.578125 q 0,-10.546875 -4.60938,-15.3125 -4.53125,-4.84375 -12.89062,-4.84375 -6.25,0 -11.79688,3.28125 -5.46875,3.203125 -7.8125,8.75 -2.34375,5.546875 -2.34375,15.3125 V 0 Z"
       style="font-style:normal;font-weight:normal;font-size:160px;font-family:Arial;fill:#000000;stroke:none"
       id="path1030"
       inkscape:connector-curvature="0" />
  </g>
  <path
     d="m 391.67507,54.870075 0.46467,0.124 0.0113,0.386667 -9.888,5.708669 -0.34,-0.589333 z"
     id="path38"
     inkscape:connector-curvature="0"
     style="fill:#000000;stroke:none;stroke-width:0.0666667" />
  <g
     aria-label="N"
     transform="matrix(0.0666667,0,0,0.0666667,402.577,66.3667)"
     style="font-style:normal;font-weight:normal;font-size:160px;font-family:Arial;fill:#000000;stroke:none"
     id="text40">
    <path
       d="m 12.1875,0 v -114.53125 h 15.546875 l 60.15625,89.921875 V -114.53125 H 102.42188 V 0 H 86.875 L 26.71875,-90 V 0 Z"
       style="font-style:normal;font-weight:normal;font-size:160px;font-family:Arial;fill:#000000;stroke:none"
       id="path1033"
       inkscape:connector-curvature="0" />
  </g>
  <g
     aria-label="H"
     transform="matrix(0.0666667,0,0,0.0666667,402.577,77.0333)"
     style="font-style:normal;font-weight:normal;font-size:160px;font-family:Arial;fill:#000000;stroke:none"
     id="text42">
    <path
       d="M 12.8125,0 V -114.53125 H 27.96875 V -67.5 H 87.5 v -47.03125 h 15.15625 V 0 H 87.5 V -53.984375 H 27.96875 V 0 Z"
       style="font-style:normal;font-weight:normal;font-size:160px;font-family:Arial;fill:#000000;stroke:none"
       id="path1036"
       inkscape:connector-curvature="0" />
  </g>
  <path
     d="m 401.31174,59.21741 -0.30533,0.608001 -8.85534,-4.444669 -0.0113,-0.386667 0.47467,-0.142 z"
     id="path44"
     inkscape:connector-curvature="0"
     style="fill:#000000;stroke:none;stroke-width:0.0666667" />
  <g
     aria-label="H"
     transform="matrix(0.0666667,0,0,0.0666667,395.96,45.9052)"
     style="font-style:normal;font-weight:normal;font-size:160px;font-family:Arial;fill:#000000;stroke:none"
     id="text46">
    <path
       d="M 12.8125,0 V -114.53125 H 27.96875 V -67.5 H 87.5 v -47.03125 h 15.15625 V 0 H 87.5 V -53.984375 H 27.96875 V 0 Z"
       style="font-style:normal;font-weight:normal;font-size:160px;font-family:Arial;fill:#000000;stroke:none"
       id="path1039"
       inkscape:connector-curvature="0" />
  </g>
  <path
     d="m 396.08574,47.478738 0.58933,0.34 -4.06066,7.033337 -0.47467,0.142 v -0.68 z"
     id="path48"
     inkscape:connector-curvature="0"
     style="fill:#000000;stroke:none;stroke-width:0.0666667" />
  <g
     aria-label="NC"
     transform="matrix(0.0666667,0,0,0.0666667,372.912,45.9052)"
     style="font-style:normal;font-weight:normal;font-size:160px;font-family:Arial;fill:#000000;stroke:none"
     id="text50">
    <path
       d="m 12.1875,0 v -114.53125 h 15.546875 l 60.15625,89.921875 V -114.53125 H 102.42188 V 0 H 86.875 L 26.71875,-90 V 0 Z"
       style="font-style:normal;font-weight:normal;font-size:160px;font-family:Arial;fill:#000000;stroke:none"
       id="path1042"
       inkscape:connector-curvature="0" />
    <path
       d="m 209.6875,-40.15625 15.15625,3.828125 q -4.76563,18.671875 -17.1875,28.515625 -12.34375,9.765625 -30.23438,9.765625 -18.51562,0 -30.15625,-7.5 -11.5625,-7.578125 -17.65625,-21.875 -6.01562,-14.296875 -6.01562,-30.703125 0,-17.890625 6.79687,-31.171875 6.875,-13.359375 19.45313,-20.234375 12.65625,-6.95313 27.8125,-6.95313 17.1875,0 28.90625,8.75 11.71875,8.750005 16.32812,24.60938 l -14.92187,3.515625 q -3.98438,-12.5 -11.5625,-18.203125 -7.57813,-5.70313 -19.0625,-5.70313 -13.20313,0 -22.10938,6.32813 -8.82812,6.328125 -12.42187,17.03125 -3.59375,10.625 -3.59375,21.953125 0,14.609375 4.21875,25.546875 4.29687,10.859375 13.28125,16.25 8.98437,5.390625 19.45312,5.390625 12.73438,0 21.5625,-7.34375 8.82813,-7.34375 11.95313,-21.796875 z"
       style="font-style:normal;font-weight:normal;font-size:160px;font-family:Arial;fill:#000000;stroke:none"
       id="path1044"
       inkscape:connector-curvature="0" />
  </g>
  <path
     d="m 387.23974,47.187404 0.58933,-0.34 4.31067,7.466671 v 0.68 l -0.46467,-0.124 z"
     id="path52"
     inkscape:connector-curvature="0"
     style="fill:#000000;stroke:none;stroke-width:0.0666667" />
  <path
     d="m 418.71575,54.601408 0.004,0.785334 -6.972,4.069335 -0.34334,-0.587333 z"
     id="path54"
     inkscape:connector-curvature="0"
     style="fill:#000000;stroke:none;stroke-width:0.0666667" />
  <g
     aria-label="Ph"
     transform="matrix(0.0666667,0,0,0.0666667,428.485,66.804)"
     style="font-style:normal;font-weight:normal;font-size:160px;font-family:Arial;fill:#000000;stroke:none"
     id="text56">
    <path
       d="m 12.34375,0 v -114.53125 h 43.203125 q 11.40625,0 17.421875,1.09375 8.4375,1.40625 14.140625,5.39062 5.703125,3.90625 9.140625,11.01563 3.515625,7.109375 3.515625,15.625 0,14.609375 -9.296875,24.765625 Q 81.171875,-46.5625 56.875,-46.5625 H 27.5 V 0 Z M 27.5,-60.078125 h 29.609375 q 14.6875,0 20.859375,-5.46875 6.171875,-5.46875 6.171875,-15.390625 0,-7.1875 -3.671875,-12.265625 Q 76.875,-98.359375 70.9375,-100 q -3.828125,-1.01563 -14.140625,-1.01563 H 27.5 Z"
       style="font-style:normal;font-weight:normal;font-size:160px;font-family:Arial;fill:#000000;stroke:none"
       id="path1047"
       inkscape:connector-curvature="0" />
    <path
       d="m 117.42188,0 v -114.53125 h 14.06249 v 41.09375 q 9.84375,-11.40625 24.84375,-11.40625 9.21875,0 16.01563,3.671875 6.79687,3.59375 9.6875,10 Q 185,-64.765625 185,-52.578125 V 0 h -14.0625 v -52.578125 q 0,-10.546875 -4.60938,-15.3125 -4.53125,-4.84375 -12.89062,-4.84375 -6.25,0 -11.79688,3.28125 -5.46875,3.203125 -7.8125,8.75 -2.34375,5.546875 -2.34375,15.3125 V 0 Z"
       style="font-style:normal;font-weight:normal;font-size:160px;font-family:Arial;fill:#000000;stroke:none"
       id="path1049"
       inkscape:connector-curvature="0" />
  </g>
  <path
     d="m 427.24176,59.470744 -0.33734,0.590667 -8.18467,-4.674669 -0.004,-0.785334 z"
     id="path58"
     inkscape:connector-curvature="0"
     style="fill:#000000;stroke:none;stroke-width:0.0666667" />
  <g
     aria-label="Ph"
     transform="matrix(0.0666667,0,0,0.0666667,215.77,65.3667)"
     style="font-style:normal;font-weight:normal;font-size:160px;font-family:Arial;fill:#000000;stroke:none"
     id="text60">
    <path
       d="m 12.34375,0 v -114.53125 h 43.203125 q 11.40625,0 17.421875,1.09375 8.4375,1.40625 14.140625,5.39062 5.703125,3.90625 9.140625,11.01563 3.515625,7.109375 3.515625,15.625 0,14.609375 -9.296875,24.765625 Q 81.171875,-46.5625 56.875,-46.5625 H 27.5 V 0 Z M 27.5,-60.078125 h 29.609375 q 14.6875,0 20.859375,-5.46875 6.171875,-5.46875 6.171875,-15.390625 0,-7.1875 -3.671875,-12.265625 Q 76.875,-98.359375 70.9375,-100 q -3.828125,-1.01563 -14.140625,-1.01563 H 27.5 Z"
       style="font-style:normal;font-weight:normal;font-size:160px;font-family:Arial;fill:#000000;stroke:none"
       id="path1052"
       inkscape:connector-curvature="0" />
    <path
       d="m 117.42188,0 v -114.53125 h 14.06249 v 41.09375 q 9.84375,-11.40625 24.84375,-11.40625 9.21875,0 16.01563,3.671875 6.79687,3.59375 9.6875,10 Q 185,-64.765625 185,-52.578125 V 0 h -14.0625 v -52.578125 q 0,-10.546875 -4.60938,-15.3125 -4.53125,-4.84375 -12.89062,-4.84375 -6.25,0 -11.79688,3.28125 -5.46875,3.203125 -7.8125,8.75 -2.34375,5.546875 -2.34375,15.3125 V 0 Z"
       style="font-style:normal;font-weight:normal;font-size:160px;font-family:Arial;fill:#000000;stroke:none"
       id="path1054"
       inkscape:connector-curvature="0" />
  </g>
  <path
     stroke="none"
     fill="#000000"
     transform="matrix(0.0666667 0 0 0.0666667 -1.06646 -28.3333)"
     d="M 3602.92,1221.62 L 3603.26,1233.21 L 3454.94,1318.84 L 3449.84,1310 L 3602.92,1221.62 Z "
     id="path62" />
  <g
     aria-label="N"
     transform="matrix(0.0666667,0,0,0.0666667,249.577,64.8667)"
     style="font-style:normal;font-weight:normal;font-size:160px;font-family:Arial;fill:#000000;stroke:none"
     id="text64">
    <path
       d="m 12.1875,0 v -114.53125 h 15.546875 l 60.15625,89.921875 V -114.53125 H 102.42188 V 0 H 86.875 L 26.71875,-90 V 0 Z"
       style="font-style:normal;font-weight:normal;font-size:160px;font-family:Arial;fill:#000000;stroke:none"
       id="path1057"
       inkscape:connector-curvature="0" />
  </g>
  <path
     stroke="none"
     fill="#000000"
     transform="matrix(0.0666667 0 0 0.0666667 -1.06646 -28.3333)"
     d="M 3740.67,1290.76 L 3736.09,1299.88 L 3603.26,1233.21 L 3602.92,1221.62 L 3740.67,1290.76 Z "
     id="path66" />
  <path
     stroke="none"
     fill="#000000"
     transform="matrix(0.0666667 0 0 0.0666667 -1.06646 -28.3333)"
     d="M 3760.03,1252.18 L 3755.46,1261.3 L 3620.17,1193.39 L 3624.74,1184.27 L 3760.03,1252.18 Z "
     id="path68" />
  <path
     stroke="none"
     fill="#000000"
     transform="matrix(0.0666667 0 0 0.0666667 -1.06646 -28.3333)"
     d="M 4001.73,1221.52 L 4001.79,1233.3 L 3897.21,1294.34 L 3892.06,1285.53 L 4001.73,1221.52 Z "
     id="path70" />
  <g
     aria-label="Ph"
     transform="matrix(0.0666667,0,0,0.0666667,275.485,65.304)"
     style="font-style:normal;font-weight:normal;font-size:160px;font-family:Arial;fill:#000000;stroke:none"
     id="text72">
    <path
       d="m 12.34375,0 v -114.53125 h 43.203125 q 11.40625,0 17.421875,1.09375 8.4375,1.40625 14.140625,5.39062 5.703125,3.90625 9.140625,11.01563 3.515625,7.109375 3.515625,15.625 0,14.609375 -9.296875,24.765625 Q 81.171875,-46.5625 56.875,-46.5625 H 27.5 V 0 Z M 27.5,-60.078125 h 29.609375 q 14.6875,0 20.859375,-5.46875 6.171875,-5.46875 6.171875,-15.390625 0,-7.1875 -3.671875,-12.265625 Q 76.875,-98.359375 70.9375,-100 q -3.828125,-1.01563 -14.140625,-1.01563 H 27.5 Z"
       style="font-style:normal;font-weight:normal;font-size:160px;font-family:Arial;fill:#000000;stroke:none"
       id="path1060"
       inkscape:connector-curvature="0" />
    <path
       d="m 117.42188,0 v -114.53125 h 14.06249 v 41.09375 q 9.84375,-11.40625 24.84375,-11.40625 9.21875,0 16.01563,3.671875 6.79687,3.59375 9.6875,10 Q 185,-64.765625 185,-52.578125 V 0 h -14.0625 v -52.578125 q 0,-10.546875 -4.60938,-15.3125 -4.53125,-4.84375 -12.89062,-4.84375 -6.25,0 -11.79688,3.28125 -5.46875,3.203125 -7.8125,8.75 -2.34375,5.546875 -2.34375,15.3125 V 0 Z"
       style="font-style:normal;font-weight:normal;font-size:160px;font-family:Arial;fill:#000000;stroke:none"
       id="path1062"
       inkscape:connector-curvature="0" />
  </g>
  <path
     stroke="none"
     fill="#000000"
     transform="matrix(0.0666667 0 0 0.0666667 -1.06646 -28.3333)"
     d="M 4129.62,1294.56 L 4124.56,1303.42 L 4001.79,1233.3 L 4001.73,1221.52 L 4129.62,1294.56 Z "
     id="path74" />
  <path
     stroke="#000000"
     stroke-width="10"
     fill="none"
     transform="matrix(0.0666667 0 0 0.0666667 -1.06646 -28.3333)"
     d="M 4382.76,1147.5 L 4408.75,1147.5 "
     id="path76" />
  <path
     stroke="#000000"
     stroke-width="10"
     fill="none"
     transform="matrix(0.0666667 0 0 0.0666667 -1.06646 -28.3333)"
     d="M 4408.75,1147.5 L 4408.75,1500 "
     id="path78" />
  <path
     stroke="#000000"
     stroke-width="10"
     fill="none"
     transform="matrix(0.0666667 0 0 0.0666667 -1.06646 -28.3333)"
     d="M 4408.75,1500 L 4382.76,1500 "
     id="path80" />
  <path
     stroke="#000000"
     stroke-width="10"
     fill="none"
     transform="matrix(0.0666667 0 0 0.0666667 -1.06646 -28.3333)"
     d="M 3204.75,1500 L 3178.75,1500 "
     id="path82" />
  <path
     stroke="#000000"
     stroke-width="10"
     fill="none"
     transform="matrix(0.0666667 0 0 0.0666667 -1.06646 -28.3333)"
     d="M 3178.75,1500 L 3178.75,1147.5 "
     id="path84" />
  <path
     stroke="#000000"
     stroke-width="10"
     fill="none"
     transform="matrix(0.0666667 0 0 0.0666667 -1.06646 -28.3333)"
     d="M 3178.75,1147.5 L 3204.75,1147.5 "
     id="path86" />
  <path
     d="m 350.23572,62.000078 h -47.61403 v -0.666667 h 47.61403 z"
     id="path88"
     inkscape:connector-curvature="0"
     style="fill:#000000;stroke:none;stroke-width:0.0666667" />
  <path
     d="m 356.12172,61.666745 c 0,0 -6.80267,1.767334 -6.80267,1.767334 0,0 0.85,-0.994 0.85,-1.767334 0,-0.802667 -0.85,-1.834001 -0.85,-1.834001 0,0 6.80267,1.834001 6.80267,1.834001 0,0 0,0 0,0"
     id="path90"
     inkscape:connector-curvature="0"
     style="fill:#000000;stroke:none;stroke-width:0.0666667" />
  <path
     d="m 356.12172,61.666745 c 0,0 -6.80267,1.767334 -6.80267,1.767334 0,0 0.85,-0.994 0.85,-1.767334 0,-0.802667 -0.85,-1.834001 -0.85,-1.834001 0,0 6.80267,1.834001 6.80267,1.834001 0,0 0,0 0,0"
     id="path92"
     inkscape:connector-curvature="0"
     style="fill:none;stroke:#000000;stroke-width:0.0666667" />
  <path
     stroke="none"
     fill="#000000"
     transform="matrix(0.0666667 0 0 0.0666667 -1.06646 -28.3333)"
     d="M 2887.46,1326.25 L 1283.3,1326.25 L 1283.3,1316.25 L 2887.46,1316.25 Z "
     id="path94" />
  <path
     stroke="none"
     fill="#000000"
     transform="matrix(0.0666667 0 0 0.0666667 -1.06646 -28.3333)"
     d="M 2975.75,1321.25 C 2975.75,1321.25 2873.7,1347.76 2873.7,1347.76 C 2873.7,1347.76 2886.46,1332.85 2886.46,1321.25 C 2886.46,1309.21 2873.7,1293.74 2873.7,1293.74 C 2873.7,1293.74 2975.75,1321.25 2975.75,1321.25 C 2975.75,1321.25 2975.75,1321.25 2975.75,1321.25 "
     id="path96" />
  <path
     stroke="#000000"
     stroke-width="1"
     fill="none"
     transform="matrix(0.0666667 0 0 0.0666667 -1.06646 -28.3333)"
     d="M 2975.75,1321.25 C 2975.75,1321.25 2873.7,1347.76 2873.7,1347.76 C 2873.7,1347.76 2886.46,1332.85 2886.46,1321.25 C 2886.46,1309.21 2873.7,1293.74 2873.7,1293.74 C 2873.7,1293.74 2975.75,1321.25 2975.75,1321.25 C 2975.75,1321.25 2975.75,1321.25 2975.75,1321.25 "
     id="path98" />
  <g
     aria-label="IrCl(CO)(PPh"
     transform="matrix(0.0666667,0,0,0.0666667,85.2477,88.1667)"
     style="font-style:normal;font-weight:normal;font-size:160px;font-family:Arial;fill:#cc79a7;stroke:none"
     id="text100">
    <path
       d="m 14.921875,0 v -114.53125 h 15.15625 V 0 Z"
       style="font-style:normal;font-weight:normal;font-size:160px;font-family:Arial;fill:#cc79a7;stroke:none"
       id="path1065"
       inkscape:connector-curvature="0" />
    <path
       d="m 54.765625,0 v -82.96875 h 12.65625 v 12.578125 q 4.84375,-8.828125 8.90625,-11.640625 4.140625,-2.8125 9.0625,-2.8125 7.109375,0 14.453125,4.53125 L 95,-67.265625 Q 89.84375,-70.3125 84.6875,-70.3125 q -4.609375,0 -8.28125,2.8125 -3.671875,2.734375 -5.234375,7.65625 -2.34375,7.5 -2.34375,16.40625 V 0 Z"
       style="font-style:normal;font-weight:normal;font-size:160px;font-family:Arial;fill:#cc79a7;stroke:none"
       id="path1067"
       inkscape:connector-curvature="0" />
    <path
       d="m 191.875,-40.15625 15.15625,3.828125 Q 202.26562,-17.65625 189.84375,-7.8125 177.5,1.953125 159.60937,1.953125 q -18.51562,0 -30.15625,-7.5 -11.56249,-7.578125 -17.65624,-21.875 -6.01563,-14.296875 -6.01563,-30.703125 0,-17.890625 6.79688,-31.171875 6.875,-13.359375 19.45312,-20.234375 12.65625,-6.95313 27.8125,-6.95313 17.1875,0 28.90625,8.75 11.71875,8.750005 16.32812,24.60938 l -14.92187,3.515625 q -3.98438,-12.5 -11.5625,-18.203125 -7.57813,-5.70313 -19.0625,-5.70313 -13.20313,0 -22.10938,6.32813 -8.82812,6.328125 -12.42187,17.03125 -3.59375,10.625 -3.59375,21.953125 0,14.609375 4.21875,25.546875 4.29687,10.859375 13.28125,16.25 8.98437,5.390625 19.45312,5.390625 12.73438,0 21.5625,-7.34375 8.82813,-7.34375 11.95313,-21.796875 z"
       style="font-style:normal;font-weight:normal;font-size:160px;font-family:Arial;fill:#cc79a7;stroke:none"
       id="path1069"
       inkscape:connector-curvature="0" />
    <path
       d="m 223.67187,0 v -114.53125 h 14.0625 V 0 Z"
       style="font-style:normal;font-weight:normal;font-size:160px;font-family:Arial;fill:#cc79a7;stroke:none"
       id="path1071"
       inkscape:connector-curvature="0" />
    <path
       d="m 286.48437,33.671875 q -11.64062,-14.6875 -19.6875,-34.375 -8.04687,-19.6875 -8.04687,-40.78125 0,-18.59375 6.01562,-35.625 7.03125,-19.765625 21.71875,-39.375005 h 10.07813 q -9.45313,16.25 -12.5,23.20313 -4.76563,10.78125 -7.5,22.5 -3.35938,14.609375 -3.35938,29.375 0,37.578125 23.35938,75.078125 z"
       style="font-style:normal;font-weight:normal;font-size:160px;font-family:Arial;fill:#cc79a7;stroke:none"
       id="path1073"
       inkscape:connector-curvature="0" />
    <path
       d="m 396.5625,-40.15625 15.15625,3.828125 q -4.76563,18.671875 -17.1875,28.515625 -12.34375,9.765625 -30.23438,9.765625 -18.51562,0 -30.15625,-7.5 -11.5625,-7.578125 -17.65625,-21.875 -6.01562,-14.296875 -6.01562,-30.703125 0,-17.890625 6.79687,-31.171875 6.875,-13.359375 19.45313,-20.234375 12.65625,-6.95313 27.8125,-6.95313 17.1875,0 28.90625,8.75 11.71875,8.750005 16.32812,24.60938 l -14.92187,3.515625 q -3.98438,-12.5 -11.5625,-18.203125 -7.57813,-5.70313 -19.0625,-5.70313 -13.20313,0 -22.10938,6.32813 -8.82812,6.328125 -12.42187,17.03125 -3.59375,10.625 -3.59375,21.953125 0,14.609375 4.21875,25.546875 4.29687,10.859375 13.28125,16.25 8.98437,5.390625 19.45312,5.390625 12.73438,0 21.5625,-7.34375 8.82813,-7.34375 11.95313,-21.796875 z"
       style="font-style:normal;font-weight:normal;font-size:160px;font-family:Arial;fill:#cc79a7;stroke:none"
       id="path1075"
       inkscape:connector-curvature="0" />
    <path
       d="m 425.85937,-55.78125 q 0,-28.515625 15.3125,-44.60938 15.3125,-16.17187 39.53125,-16.17187 15.85938,0 28.59375,7.57812 12.73438,7.57813 19.375,21.17188 6.71875,13.515625 6.71875,30.703125 0,17.421875 -7.03125,31.171875 -7.03125,13.75 -19.92187,20.859375 -12.89063,7.03125 -27.8125,7.03125 -16.17188,0 -28.90625,-7.8125 -12.73438,-7.8125 -19.29688,-21.328125 -6.5625,-13.515625 -6.5625,-28.59375 z m 15.625,0.234375 q 0,20.703125 11.09375,32.65625 11.17188,11.875 27.96875,11.875 17.10938,0 28.125,-12.03125 11.09375,-12.03125 11.09375,-34.140625 0,-13.984375 -4.76562,-24.375 -4.6875,-10.46875 -13.82813,-16.171875 -9.0625,-5.781255 -20.39062,-5.781255 -16.09375,0 -27.73438,11.093755 -11.5625,11.015625 -11.5625,36.875 z"
       style="font-style:normal;font-weight:normal;font-size:160px;font-family:Arial;fill:#cc79a7;stroke:none"
       id="path1077"
       inkscape:connector-curvature="0" />
    <path
       d="M 562.26562,33.671875 H 552.1875 q 23.35937,-37.5 23.35937,-75.078125 0,-14.6875 -3.35937,-29.140625 -2.65625,-11.71875 -7.42188,-22.5 -3.04687,-7.031255 -12.57812,-23.437505 h 10.07812 q 14.6875,19.60938 21.71875,39.375005 6.01563,17.03125 6.01563,35.625 0,21.09375 -8.125,40.78125 -8.04688,19.6875 -19.60938,34.375 z"
       style="font-style:normal;font-weight:normal;font-size:160px;font-family:Arial;fill:#cc79a7;stroke:none"
       id="path1079"
       inkscape:connector-curvature="0" />
    <path
       d="m 633.35937,33.671875 q -11.64062,-14.6875 -19.6875,-34.375 -8.04687,-19.6875 -8.04687,-40.78125 0,-18.59375 6.01562,-35.625 7.03125,-19.765625 21.71875,-39.375005 h 10.07813 q -9.45313,16.25 -12.5,23.20313 -4.76563,10.78125 -7.5,22.5 -3.35938,14.609375 -3.35938,29.375 0,37.578125 23.35938,75.078125 z"
       style="font-style:normal;font-weight:normal;font-size:160px;font-family:Arial;fill:#cc79a7;stroke:none"
       id="path1081"
       inkscape:connector-curvature="0" />
    <path
       d="m 661.71875,0 v -114.53125 h 43.20312 q 11.40625,0 17.42188,1.09375 8.4375,1.40625 14.14062,5.39062 5.70313,3.90625 9.14063,11.01563 3.51562,7.109375 3.51562,15.625 0,14.609375 -9.29687,24.765625 Q 730.54687,-46.5625 706.25,-46.5625 H 676.875 V 0 Z M 676.875,-60.078125 h 29.60937 q 14.6875,0 20.85938,-5.46875 6.17187,-5.46875 6.17187,-15.390625 0,-7.1875 -3.67187,-12.265625 Q 726.25,-98.359375 720.3125,-100 q -3.82813,-1.01563 -14.14063,-1.01563 H 676.875 Z"
       style="font-style:normal;font-weight:normal;font-size:160px;font-family:Arial;fill:#cc79a7;stroke:none"
       id="path1083"
       inkscape:connector-curvature="0" />
    <path
       d="m 768.59375,0 v -114.53125 h 43.20312 q 11.40625,0 17.42188,1.09375 8.4375,1.40625 14.14062,5.39062 5.70313,3.90625 9.14063,11.01563 3.51562,7.109375 3.51562,15.625 0,14.609375 -9.29687,24.765625 Q 837.42187,-46.5625 813.125,-46.5625 H 783.75 V 0 Z M 783.75,-60.078125 h 29.60937 q 14.6875,0 20.85938,-5.46875 6.17187,-5.46875 6.17187,-15.390625 0,-7.1875 -3.67187,-12.265625 -3.59375,-5.15625 -9.53125,-6.796875 -3.82813,-1.01563 -14.14063,-1.01563 H 783.75 Z"
       style="font-style:normal;font-weight:normal;font-size:160px;font-family:Arial;fill:#cc79a7;stroke:none"
       id="path1085"
       inkscape:connector-curvature="0" />
    <path
       d="m 873.67187,0 v -114.53125 h 14.0625 v 41.09375 q 9.84375,-11.40625 24.84375,-11.40625 9.21875,0 16.01563,3.671875 6.79687,3.59375 9.6875,10 2.96875,6.40625 2.96875,18.59375 V 0 h -14.0625 v -52.578125 q 0,-10.546875 -4.60938,-15.3125 -4.53125,-4.84375 -12.89062,-4.84375 -6.25,0 -11.79688,3.28125 -5.46875,3.203125 -7.8125,8.75 -2.34375,5.546875 -2.34375,15.3125 V 0 Z"
       style="font-style:normal;font-weight:normal;font-size:160px;font-family:Arial;fill:#cc79a7;stroke:none"
       id="path1087"
       inkscape:connector-curvature="0" />
  </g>
  <g
     aria-label="3"
     transform="matrix(0.0666667,0,0,0.0666667,148.654,90.4333)"
     style="font-style:normal;font-weight:normal;font-size:120px;font-family:Arial;fill:#cc79a7;stroke:none"
     id="text102">
    <path
       d="m 5.0390625,-22.675781 10.5468755,-1.40625 q 1.816406,8.964843 6.152343,12.949218 4.394531,3.9257818 10.664063,3.9257818 7.441406,0 12.539062,-5.1562498 5.15625,-5.15625 5.15625,-12.773438 0,-7.265625 -4.746094,-11.953125 -4.746093,-4.746093 -12.070312,-4.746093 -2.988281,0 -7.441406,1.171875 l 1.171875,-9.257813 q 1.054687,0.117188 1.699218,0.117188 6.738282,0 12.128907,-3.515625 5.390625,-3.515625 5.390625,-10.839844 0,-5.800781 -3.925782,-9.609375 -3.925781,-3.808594 -10.136718,-3.808594 -6.152344,0 -10.253907,3.867188 -4.101562,3.867187 -5.273437,11.601562 l -10.546875,-1.875 Q 8.0273438,-74.589844 14.882813,-80.390625 21.738281,-86.25 31.933594,-86.25 q 7.03125,0 12.949218,3.046875 5.917969,2.988281 9.023438,8.203125 3.164062,5.214844 3.164062,11.074219 0,5.566406 -2.988281,10.136719 -2.988281,4.570312 -8.847656,7.265625 7.617187,1.757812 11.835937,7.324218 4.21875,5.507813 4.21875,13.828125 0,11.25 -8.203125,19.1015628 -8.203125,7.7929687 -20.742187,7.7929687 -11.308594,0 -18.808594,-6.7382812 Q 6.09375,-11.953125 5.0390625,-22.675781 Z"
       style="font-style:normal;font-weight:normal;font-size:120px;font-family:Arial;fill:#cc79a7;stroke:none"
       id="path1090"
       inkscape:connector-curvature="0" />
  </g>
  <g
     aria-label=")"
     transform="matrix(0.0666667,0,0,0.0666667,153.103,88.1667)"
     style="font-style:normal;font-weight:normal;font-size:160px;font-family:Arial;fill:#cc79a7;stroke:none"
     id="text104">
    <path
       d="M 19.765625,33.671875 H 9.6875 q 23.359375,-37.5 23.359375,-75.078125 0,-14.6875 -3.359375,-29.140625 -2.65625,-11.71875 -7.421875,-22.5 Q 19.21875,-100.07813 9.6875,-116.48438 h 10.078125 q 14.6875,19.60938 21.71875,39.375005 6.015625,17.03125 6.015625,35.625 0,21.09375 -8.125,40.78125 -8.046875,19.6875 -19.609375,34.375 z"
       style="font-style:normal;font-weight:normal;font-size:160px;font-family:Arial;fill:#cc79a7;stroke:none"
       id="path1093"
       inkscape:connector-curvature="0" />
  </g>
  <g
     aria-label="2,"
     transform="matrix(0.0666667,0,0,0.0666667,156.655,90.4333)"
     style="font-style:normal;font-weight:normal;font-size:120px;font-family:Arial;fill:#cc79a7;stroke:none"
     id="text106">
    <path
       d="M 60.410156,-10.136719 V 0 H 3.6328125 Q 3.515625,-3.8085938 4.8632812,-7.3242187 7.03125,-13.125 11.777344,-18.75 q 4.804687,-5.625 13.828125,-13.007812 14.003906,-11.484375 18.925781,-18.164063 4.921875,-6.738281 4.921875,-12.714844 0,-6.269531 -4.511719,-10.546875 -4.453125,-4.335937 -11.660156,-4.335937 -7.617188,0 -12.1875,4.570312 -4.570313,4.570313 -4.628906,12.65625 L 5.625,-61.40625 Q 6.7382812,-73.535156 14.003906,-79.863281 21.269531,-86.25 33.515625,-86.25 q 12.363281,0 19.570312,6.855469 7.207032,6.855469 7.207032,16.992187 0,5.15625 -2.109375,10.136719 -2.109375,4.980469 -7.03125,10.488281 -4.863282,5.507813 -16.230469,15.117188 -9.492188,7.96875 -12.1875,10.839843 -2.695313,2.8125 -4.453125,5.683594 z"
       style="font-style:normal;font-weight:normal;font-size:120px;font-family:Arial;fill:#cc79a7;stroke:none"
       id="path1096"
       inkscape:connector-curvature="0" />
    <path
       d="M 77.460937,0 V -12.011719 H 89.472656 V 0 q 0,6.6210937 -2.34375,10.664063 -2.34375,4.101562 -7.441406,6.328124 L 76.757812,12.480469 Q 80.097656,11.015625 81.679687,8.1445313 83.261719,5.3320312 83.4375,0 Z"
       style="font-style:normal;font-weight:normal;font-size:120px;font-family:Arial;fill:#cc79a7;stroke:none"
       id="path1098"
       inkscape:connector-curvature="0" />
  </g>
  <g
     transform="matrix(0.0666667 0 0 0.0666667 163.327 88.1667)"
     style="font-style:normal;font-weight:normal;font-size:160px;font-family:Arial;fill:#cc79a7;stroke:none"
     id="text108" />
  <g
     aria-label="TMDS"
     transform="matrix(0.0666667,0,0,0.0666667,166.291,88.1667)"
     style="font-style:normal;font-weight:normal;font-size:160px;font-family:Arial;fill:#cc79a7;stroke:none"
     id="text110">
    <path
       d="M 41.484375,0 V -101.01563 H 3.75 v -13.51562 h 90.78125 v 13.51562 H 56.640625 V 0 Z"
       style="font-style:normal;font-weight:normal;font-size:160px;font-family:Arial;fill:#cc79a7;stroke:none"
       id="path1102"
       inkscape:connector-curvature="0" />
    <path
       d="M 109.6875,0 V -114.53125 H 132.5 l 27.10937,81.09375 q 3.75,11.328125 5.46875,16.953125 1.95313,-6.25 6.09375,-18.359375 l 27.42188,-79.6875 h 20.39062 V 0 H 204.375 V -95.859375 L 171.09375,0 H 157.42187 L 124.29688,-97.5 V 0 Z"
       style="font-style:normal;font-weight:normal;font-size:160px;font-family:Arial;fill:#cc79a7;stroke:none"
       id="path1104"
       inkscape:connector-curvature="0" />
    <path
       d="m 243.59375,0 v -114.53125 h 39.45312 q 13.35938,0 20.39063,1.64062 9.84375,2.26563 16.79687,8.20313 9.0625,7.65625 13.51563,19.609375 4.53125,11.875 4.53125,27.1875 0,13.046875 -3.04688,23.125 -3.04687,10.078125 -7.8125,16.71875 -4.76562,6.5625 -10.46875,10.390625 -5.625,3.75 -13.67187,5.703125 Q 295.3125,0 284.92187,0 Z M 258.75,-13.515625 h 24.45312 q 11.32813,0 17.73438,-2.109375 6.48437,-2.109375 10.3125,-5.9375 5.39062,-5.390625 8.35937,-14.453125 3.04688,-9.140625 3.04688,-22.109375 0,-17.96875 -5.9375,-27.578125 -5.85938,-9.6875 -14.29688,-12.96875 -6.09375,-2.343755 -19.60937,-2.343755 H 258.75 Z"
       style="font-style:normal;font-weight:normal;font-size:160px;font-family:Arial;fill:#cc79a7;stroke:none"
       id="path1106"
       inkscape:connector-curvature="0" />
    <path
       d="m 354.0625,-36.796875 14.29687,-1.25 q 1.01563,8.59375 4.6875,14.140625 3.75,5.46875 11.5625,8.90625 7.8125,3.359375 17.57813,3.359375 8.67187,0 15.3125,-2.578125 6.64062,-2.578125 9.84375,-7.03125 3.28125,-4.53125 3.28125,-9.84375 0,-5.390625 -3.125,-9.375 -3.125,-4.0625 -10.3125,-6.796875 Q 412.57812,-49.0625 396.79687,-52.8125 381.01562,-56.640625 374.6875,-60 q -8.20313,-4.296875 -12.26563,-10.625 -3.98437,-6.40625 -3.98437,-14.296875 0,-8.671875 4.92187,-16.171875 4.92188,-7.57813 14.375,-11.48438 9.45313,-3.90625 21.01563,-3.90625 12.73437,0 22.42187,4.14063 9.76563,4.0625 15,12.03125 5.23438,7.96875 5.625,18.046875 l -14.53125,1.09375 q -1.17187,-10.859375 -7.96875,-16.40625 -6.71875,-5.546875 -19.92187,-5.546875 -13.75,0 -20.07813,5.078125 -6.25,5 -6.25,12.109375 0,6.171875 4.45313,10.15625 4.375,3.984375 22.8125,8.203125 18.51562,4.140625 25.39062,7.265625 10,4.609375 14.76563,11.71875 4.76562,7.03125 4.76562,16.25 0,9.140625 -5.23437,17.265625 -5.23438,8.046875 -15.07813,12.578125 -9.76562,4.453125 -22.03125,4.453125 -15.54687,0 -26.09375,-4.53125 -10.46875,-4.53125 -16.48437,-13.59375 -5.9375,-9.140625 -6.25,-20.625 z"
       style="font-style:normal;font-weight:normal;font-size:160px;font-family:Arial;fill:#cc79a7;stroke:none"
       id="path1108"
       inkscape:connector-curvature="0" />
  </g>
  <g
     aria-label="[Ir(coe)"
     transform="matrix(0.0666667,0,0,0.0666667,90.8454,53.1667)"
     style="font-style:normal;font-weight:normal;font-size:160px;font-family:Arial;fill:#009e73;stroke:none"
     id="text112">
    <path
       d="M 10.859375,31.796875 V -114.53125 H 41.875 v 11.64062 H 24.921875 V 20.15625 H 41.875 v 11.640625 z"
       style="font-style:normal;font-weight:normal;font-size:160px;font-family:Arial;fill:#009e73;stroke:none"
       id="path1111"
       inkscape:connector-curvature="0" />
    <path
       d="m 59.296875,0 v -114.53125 h 15.15625 V 0 Z"
       style="font-style:normal;font-weight:normal;font-size:160px;font-family:Arial;fill:#009e73;stroke:none"
       id="path1113"
       inkscape:connector-curvature="0" />
    <path
       d="m 99.140625,0 v -82.96875 h 12.656255 v 12.578125 q 4.84375,-8.828125 8.90625,-11.640625 4.14062,-2.8125 9.06249,-2.8125 7.10938,0 14.45313,4.53125 l -4.84375,13.046875 q -5.15625,-3.046875 -10.3125,-3.046875 -4.60937,0 -8.28125,2.8125 -3.67187,2.734375 -5.23437,7.65625 -2.34375,7.5 -2.34375,16.40625 V 0 Z"
       style="font-style:normal;font-weight:normal;font-size:160px;font-family:Arial;fill:#009e73;stroke:none"
       id="path1115"
       inkscape:connector-curvature="0" />
    <path
       d="m 179.60937,33.671875 q -11.64062,-14.6875 -19.6875,-34.375 -8.04687,-19.6875 -8.04687,-40.78125 0,-18.59375 6.01562,-35.625 7.03125,-19.765625 21.71875,-39.375005 h 10.07813 q -9.45313,16.25 -12.5,23.20313 -4.76563,10.78125 -7.5,22.5 -3.35938,14.609375 -3.35938,29.375 0,37.578125 23.35938,75.078125 z"
       style="font-style:normal;font-weight:normal;font-size:160px;font-family:Arial;fill:#009e73;stroke:none"
       id="path1117"
       inkscape:connector-curvature="0" />
    <path
       d="m 260.3125,-30.390625 13.82812,1.796875 Q 271.875,-14.296875 262.5,-6.171875 253.20312,1.875 239.60937,1.875 q -17.03125,0 -27.42187,-11.09375 -10.3125,-11.171875 -10.3125,-31.953125 0,-13.4375 4.45312,-23.515625 4.45313,-10.078125 13.51563,-15.078125 9.14062,-5.078125 19.84375,-5.078125 13.51562,0 22.10937,6.875 8.59375,6.796875 11.01563,19.375 l -13.67188,2.109375 q -1.95312,-8.359375 -6.95312,-12.578125 -4.92188,-4.21875 -11.95313,-4.21875 -10.625,0 -17.26562,7.65625 -6.64063,7.578125 -6.64063,24.0625 0,16.71875 6.40625,24.296875 6.40625,7.578125 16.71875,7.578125 8.28125,0 13.82813,-5.078125 5.54687,-5.078125 7.03125,-15.625 z"
       style="font-style:normal;font-weight:normal;font-size:160px;font-family:Arial;fill:#009e73;stroke:none"
       id="path1119"
       inkscape:connector-curvature="0" />
    <path
       d="m 280.9375,-41.484375 q 0,-23.046875 12.8125,-34.140625 10.70312,-9.21875 26.09375,-9.21875 17.10937,0 27.96875,11.25 10.85937,11.171875 10.85937,30.9375 0,16.015625 -4.84375,25.234375 -4.76562,9.140625 -13.98437,14.21875 -9.14063,5.078125 -20,5.078125 -17.42188,0 -28.20313,-11.171875 -10.70312,-11.171875 -10.70312,-32.1875 z m 14.45312,0 q 0,15.9375 6.95313,23.90625 6.95312,7.890625 17.5,7.890625 10.46875,0 17.42187,-7.96875 6.95313,-7.96875 6.95313,-24.296875 0,-15.390625 -7.03125,-23.28125 -6.95313,-7.96875 -17.34375,-7.96875 -10.54688,0 -17.5,7.890625 -6.95313,7.890625 -6.95313,23.828125 z"
       style="font-style:normal;font-weight:normal;font-size:160px;font-family:Arial;fill:#009e73;stroke:none"
       id="path1121"
       inkscape:connector-curvature="0" />
    <path
       d="m 432.03125,-26.71875 14.53125,1.796875 q -3.4375,12.734375 -12.73438,19.765625 -9.29687,7.03125 -23.75,7.03125 -18.20312,0 -28.90625,-11.171875 -10.625,-11.25 -10.625,-31.484375 0,-20.9375 10.78125,-32.5 10.78125,-11.5625 27.96875,-11.5625 16.64063,0 27.1875,11.328125 10.54688,11.328125 10.54688,31.875 0,1.25 -0.0781,3.75 h -61.875 q 0.78125,13.671875 7.73438,20.9375 6.95312,7.265625 17.34375,7.265625 7.73437,0 13.20312,-4.0625 5.46875,-4.0625 8.67188,-12.96875 z m -46.17188,-22.734375 h 46.32813 q -0.9375,-10.46875 -5.3125,-15.703125 -6.71875,-8.125 -17.42188,-8.125 -9.6875,0 -16.32812,6.484375 -6.5625,6.484375 -7.26563,17.34375 z"
       style="font-style:normal;font-weight:normal;font-size:160px;font-family:Arial;fill:#009e73;stroke:none"
       id="path1123"
       inkscape:connector-curvature="0" />
    <path
       d="M 473.51562,33.671875 H 463.4375 q 23.35937,-37.5 23.35937,-75.078125 0,-14.6875 -3.35937,-29.140625 -2.65625,-11.71875 -7.42188,-22.5 -3.04687,-7.031255 -12.57812,-23.437505 h 10.07812 q 14.6875,19.60938 21.71875,39.375005 6.01563,17.03125 6.01563,35.625 0,21.09375 -8.125,40.78125 -8.04688,19.6875 -19.60938,34.375 z"
       style="font-style:normal;font-weight:normal;font-size:160px;font-family:Arial;fill:#009e73;stroke:none"
       id="path1125"
       inkscape:connector-curvature="0" />
  </g>
  <g
     aria-label="2"
     transform="matrix(0.0666667,0,0,0.0666667,124.627,55.4333)"
     style="font-style:normal;font-weight:normal;font-size:120px;font-family:Arial;fill:#009e73;stroke:none"
     id="text114">
    <path
       d="M 60.410156,-10.136719 V 0 H 3.6328125 Q 3.515625,-3.8085938 4.8632812,-7.3242187 7.03125,-13.125 11.777344,-18.75 q 4.804687,-5.625 13.828125,-13.007812 14.003906,-11.484375 18.925781,-18.164063 4.921875,-6.738281 4.921875,-12.714844 0,-6.269531 -4.511719,-10.546875 -4.453125,-4.335937 -11.660156,-4.335937 -7.617188,0 -12.1875,4.570312 -4.570313,4.570313 -4.628906,12.65625 L 5.625,-61.40625 Q 6.7382812,-73.535156 14.003906,-79.863281 21.269531,-86.25 33.515625,-86.25 q 12.363281,0 19.570312,6.855469 7.207032,6.855469 7.207032,16.992187 0,5.15625 -2.109375,10.136719 -2.109375,4.980469 -7.03125,10.488281 -4.863282,5.507813 -16.230469,15.117188 -9.492188,7.96875 -12.1875,10.839843 -2.695313,2.8125 -4.453125,5.683594 z"
       style="font-style:normal;font-weight:normal;font-size:120px;font-family:Arial;fill:#009e73;stroke:none"
       id="path1128"
       inkscape:connector-curvature="0" />
  </g>
  <g
     aria-label="Cl]"
     transform="matrix(0.0666667,0,0,0.0666667,129.076,53.1667)"
     style="font-style:normal;font-weight:normal;font-size:160px;font-family:Arial;fill:#009e73;stroke:none"
     id="text116">
    <path
       d="m 94.0625,-40.15625 15.15625,3.828125 Q 104.45313,-17.65625 92.03125,-7.8125 79.6875,1.953125 61.796875,1.953125 q -18.515625,0 -30.15625,-7.5 -11.5625,-7.578125 -17.65625,-21.875 Q 7.96875,-41.71875 7.96875,-58.125 q 0,-17.890625 6.796875,-31.171875 6.875,-13.359375 19.453125,-20.234375 12.65625,-6.95313 27.8125,-6.95313 17.1875,0 28.90625,8.75 11.71875,8.750005 16.32813,24.60938 l -14.92188,3.515625 q -3.984375,-12.5 -11.5625,-18.203125 -7.578125,-5.70313 -19.0625,-5.70313 -13.203125,0 -22.109375,6.32813 -8.828125,6.328125 -12.421875,17.03125 -3.59375,10.625 -3.59375,21.953125 0,14.609375 4.21875,25.546875 4.296875,10.859375 13.28125,16.25 8.984375,5.390625 19.453125,5.390625 12.734375,0 21.5625,-7.34375 8.828125,-7.34375 11.953125,-21.796875 z"
       style="font-style:normal;font-weight:normal;font-size:160px;font-family:Arial;fill:#009e73;stroke:none"
       id="path1131"
       inkscape:connector-curvature="0" />
    <path
       d="m 125.85938,0 v -114.53125 h 14.06249 V 0 Z"
       style="font-style:normal;font-weight:normal;font-size:160px;font-family:Arial;fill:#009e73;stroke:none"
       id="path1133"
       inkscape:connector-curvature="0" />
    <path
       d="M 185.3125,31.796875 H 154.29687 V 20.15625 H 171.25 v -123.04688 h -16.95313 v -11.64062 h 31.01563 z"
       style="font-style:normal;font-weight:normal;font-size:160px;font-family:Arial;fill:#009e73;stroke:none"
       id="path1135"
       inkscape:connector-curvature="0" />
  </g>
  <g
     aria-label="2,"
     transform="matrix(0.0666667,0,0,0.0666667,142.112,55.4333)"
     style="font-style:normal;font-weight:normal;font-size:120px;font-family:Arial;fill:#009e73;stroke:none"
     id="text118">
    <path
       d="M 60.410156,-10.136719 V 0 H 3.6328125 Q 3.515625,-3.8085938 4.8632812,-7.3242187 7.03125,-13.125 11.777344,-18.75 q 4.804687,-5.625 13.828125,-13.007812 14.003906,-11.484375 18.925781,-18.164063 4.921875,-6.738281 4.921875,-12.714844 0,-6.269531 -4.511719,-10.546875 -4.453125,-4.335937 -11.660156,-4.335937 -7.617188,0 -12.1875,4.570312 -4.570313,4.570313 -4.628906,12.65625 L 5.625,-61.40625 Q 6.7382812,-73.535156 14.003906,-79.863281 21.269531,-86.25 33.515625,-86.25 q 12.363281,0 19.570312,6.855469 7.207032,6.855469 7.207032,16.992187 0,5.15625 -2.109375,10.136719 -2.109375,4.980469 -7.03125,10.488281 -4.863282,5.507813 -16.230469,15.117188 -9.492188,7.96875 -12.1875,10.839843 -2.695313,2.8125 -4.453125,5.683594 z"
       style="font-style:normal;font-weight:normal;font-size:120px;font-family:Arial;fill:#009e73;stroke:none"
       id="path1138"
       inkscape:connector-curvature="0" />
    <path
       d="M 77.460937,0 V -12.011719 H 89.472656 V 0 q 0,6.6210937 -2.34375,10.664063 -2.34375,4.101562 -7.441406,6.328124 L 76.757812,12.480469 Q 80.097656,11.015625 81.679687,8.1445313 83.261719,5.3320312 83.4375,0 Z"
       style="font-style:normal;font-weight:normal;font-size:120px;font-family:Arial;fill:#009e73;stroke:none"
       id="path1140"
       inkscape:connector-curvature="0" />
  </g>
  <g
     transform="matrix(0.0666667 0 0 0.0666667 148.784 53.1667)"
     style="font-style:normal;font-weight:normal;font-size:160px;font-family:Arial;fill:#009e73;stroke:none"
     id="text120" />
  <g
     aria-label="Et"
     transform="matrix(0.0666667,0,0,0.0666667,151.748,53.1667)"
     style="font-style:normal;font-weight:normal;font-size:160px;font-family:Arial;fill:#009e73;stroke:none"
     id="text122">
    <path
       d="m 12.65625,0 v -114.53125 h 82.8125 v 13.51562 H 27.8125 V -65.9375 H 91.171875 V -52.5 H 27.8125 v 38.984375 H 98.125 V 0 Z"
       style="font-style:normal;font-weight:normal;font-size:160px;font-family:Arial;fill:#009e73;stroke:none"
       id="path1144"
       inkscape:connector-curvature="0" />
    <path
       d="m 148.125,-12.578125 2.03125,12.421875 q -5.9375,1.25 -10.625,1.25 -7.65625,0 -11.875,-2.421875 Q 123.4375,-3.75 121.71875,-7.65625 120,-11.640625 120,-24.296875 V -72.03125 h -10.3125 v -10.9375 H 120 v -20.54688 l 13.98437,-8.4375 v 28.98438 H 148.125 v 10.9375 h -14.14063 v 48.515625 q 0,6.015625 0.70313,7.734375 0.78125,1.71875 2.42187,2.734375 1.71875,1.015625 4.84375,1.015625 2.34375,0 6.17188,-0.546875 z"
       style="font-style:normal;font-weight:normal;font-size:160px;font-family:Arial;fill:#009e73;stroke:none"
       id="path1146"
       inkscape:connector-curvature="0" />
  </g>
  <g
     aria-label="2"
     transform="matrix(0.0666667,0,0,0.0666667,161.826,55.4333)"
     style="font-style:normal;font-weight:normal;font-size:120px;font-family:Arial;fill:#009e73;stroke:none"
     id="text124">
    <path
       d="M 60.410156,-10.136719 V 0 H 3.6328125 Q 3.515625,-3.8085938 4.8632812,-7.3242187 7.03125,-13.125 11.777344,-18.75 q 4.804687,-5.625 13.828125,-13.007812 14.003906,-11.484375 18.925781,-18.164063 4.921875,-6.738281 4.921875,-12.714844 0,-6.269531 -4.511719,-10.546875 -4.453125,-4.335937 -11.660156,-4.335937 -7.617188,0 -12.1875,4.570312 -4.570313,4.570313 -4.628906,12.65625 L 5.625,-61.40625 Q 6.7382812,-73.535156 14.003906,-79.863281 21.269531,-86.25 33.515625,-86.25 q 12.363281,0 19.570312,6.855469 7.207032,6.855469 7.207032,16.992187 0,5.15625 -2.109375,10.136719 -2.109375,4.980469 -7.03125,10.488281 -4.863282,5.507813 -16.230469,15.117188 -9.492188,7.96875 -12.1875,10.839843 -2.695313,2.8125 -4.453125,5.683594 z"
       style="font-style:normal;font-weight:normal;font-size:120px;font-family:Arial;fill:#009e73;stroke:none"
       id="path1149"
       inkscape:connector-curvature="0" />
  </g>
  <g
     aria-label="SiH"
     transform="matrix(0.0666667,0,0,0.0666667,166.275,53.1667)"
     style="font-style:normal;font-weight:normal;font-size:160px;font-family:Arial;fill:#009e73;stroke:none"
     id="text126">
    <path
       d="m 7.1875,-36.796875 14.296875,-1.25 q 1.015625,8.59375 4.6875,14.140625 3.75,5.46875 11.5625,8.90625 7.8125,3.359375 17.578125,3.359375 8.671875,0 15.3125,-2.578125 6.640625,-2.578125 9.84375,-7.03125 3.28125,-4.53125 3.28125,-9.84375 0,-5.390625 -3.125,-9.375 Q 77.5,-44.53125 70.3125,-47.265625 65.703125,-49.0625 49.921875,-52.8125 34.140625,-56.640625 27.8125,-60 19.609375,-64.296875 15.546875,-70.625 11.5625,-77.03125 11.5625,-84.921875 q 0,-8.671875 4.921875,-16.171875 4.921875,-7.57813 14.375,-11.48438 9.453125,-3.90625 21.015625,-3.90625 12.734375,0 22.421875,4.14063 9.765625,4.0625 15,12.03125 5.234375,7.96875 5.625,18.046875 l -14.53125,1.09375 Q 79.21875,-92.03125 72.421875,-97.578125 65.703125,-103.125 52.5,-103.125 q -13.75,0 -20.078125,5.078125 -6.25,5 -6.25,12.109375 0,6.171875 4.453125,10.15625 4.375,3.984375 22.8125,8.203125 18.515625,4.140625 25.390625,7.265625 10,4.609375 14.765625,11.71875 4.765625,7.03125 4.765625,16.25 0,9.140625 -5.234375,17.265625 Q 87.890625,-7.03125 78.046875,-2.5 68.28125,1.953125 56.015625,1.953125 q -15.546875,0 -26.09375,-4.53125 -10.46875,-4.53125 -16.484375,-13.59375 -5.9375,-9.140625 -6.25,-20.625 z"
       style="font-style:normal;font-weight:normal;font-size:160px;font-family:Arial;fill:#009e73;stroke:none"
       id="path1152"
       inkscape:connector-curvature="0" />
    <path
       d="m 117.5,-98.359375 v -16.171875 h 14.0625 v 16.171875 z M 117.5,0 v -82.96875 h 14.0625 V 0 Z"
       style="font-style:normal;font-weight:normal;font-size:160px;font-family:Arial;fill:#009e73;stroke:none"
       id="path1154"
       inkscape:connector-curvature="0" />
    <path
       d="m 155.3125,0 v -114.53125 h 15.15625 V -67.5 H 230 v -47.03125 h 15.15625 V 0 H 230 V -53.984375 H 170.46875 V 0 Z"
       style="font-style:normal;font-weight:normal;font-size:160px;font-family:Arial;fill:#009e73;stroke:none"
       id="path1156"
       inkscape:connector-curvature="0" />
  </g>
  <g
     aria-label="2"
     transform="matrix(0.0666667,0,0,0.0666667,183.463,55.4333)"
     style="font-style:normal;font-weight:normal;font-size:120px;font-family:Arial;fill:#009e73;stroke:none"
     id="text128">
    <path
       d="M 60.410156,-10.136719 V 0 H 3.6328125 Q 3.515625,-3.8085938 4.8632812,-7.3242187 7.03125,-13.125 11.777344,-18.75 q 4.804687,-5.625 13.828125,-13.007812 14.003906,-11.484375 18.925781,-18.164063 4.921875,-6.738281 4.921875,-12.714844 0,-6.269531 -4.511719,-10.546875 -4.453125,-4.335937 -11.660156,-4.335937 -7.617188,0 -12.1875,4.570312 -4.570313,4.570313 -4.628906,12.65625 L 5.625,-61.40625 Q 6.7382812,-73.535156 14.003906,-79.863281 21.269531,-86.25 33.515625,-86.25 q 12.363281,0 19.570312,6.855469 7.207032,6.855469 7.207032,16.992187 0,5.15625 -2.109375,10.136719 -2.109375,4.980469 -7.03125,10.488281 -4.863282,5.507813 -16.230469,15.117188 -9.492188,7.96875 -12.1875,10.839843 -2.695313,2.8125 -4.453125,5.683594 z"
       style="font-style:normal;font-weight:normal;font-size:120px;font-family:Arial;fill:#009e73;stroke:none"
       id="path1159"
       inkscape:connector-curvature="0" />
  </g>
  <g
     aria-label="Cp"
     transform="matrix(0.0666667,0,0,0.0666667,114.362,19.1667)"
     style="font-style:normal;font-weight:normal;font-size:160px;font-family:Arial;fill:#56b4e9;stroke:none"
     id="text130">
    <path
       d="m 94.0625,-40.15625 15.15625,3.828125 Q 104.45313,-17.65625 92.03125,-7.8125 79.6875,1.953125 61.796875,1.953125 q -18.515625,0 -30.15625,-7.5 -11.5625,-7.578125 -17.65625,-21.875 Q 7.96875,-41.71875 7.96875,-58.125 q 0,-17.890625 6.796875,-31.171875 6.875,-13.359375 19.453125,-20.234375 12.65625,-6.95313 27.8125,-6.95313 17.1875,0 28.90625,8.75 11.71875,8.750005 16.32813,24.60938 l -14.92188,3.515625 q -3.984375,-12.5 -11.5625,-18.203125 -7.578125,-5.70313 -19.0625,-5.70313 -13.203125,0 -22.109375,6.32813 -8.828125,6.328125 -12.421875,17.03125 -3.59375,10.625 -3.59375,21.953125 0,14.609375 4.21875,25.546875 4.296875,10.859375 13.28125,16.25 8.984375,5.390625 19.453125,5.390625 12.734375,0 21.5625,-7.34375 8.828125,-7.34375 11.953125,-21.796875 z"
       style="font-style:normal;font-weight:normal;font-size:160px;font-family:Arial;fill:#56b4e9;stroke:none"
       id="path1162"
       inkscape:connector-curvature="0" />
    <path
       d="M 126.17188,31.796875 V -82.96875 h 12.81249 v 10.78125 q 4.53125,-6.328125 10.23438,-9.453125 5.70312,-3.203125 13.82812,-3.203125 10.625,0 18.75,5.46875 8.125,5.46875 12.26563,15.46875 4.14062,9.921875 4.14062,21.796875 0,12.734375 -4.60937,22.96875 -4.53125,10.15625 -13.28125,15.625 Q 171.64062,1.875 162.03125,1.875 155,1.875 149.375,-1.09375 q -5.54688,-2.96875 -9.14063,-7.5 v 40.390625 z m 12.73437,-72.8125 q 0,16.015625 6.48437,23.671875 6.48438,7.65625 15.70313,7.65625 9.375,0 16.01562,-7.890625 6.71875,-7.96875 6.71875,-24.609375 0,-15.859375 -6.5625,-23.75 -6.48437,-7.890625 -15.54687,-7.890625 -8.98438,0 -15.9375,8.4375 -6.875,8.359375 -6.875,24.375 z"
       style="font-style:normal;font-weight:normal;font-size:160px;font-family:Arial;fill:#56b4e9;stroke:none"
       id="path1164"
       inkscape:connector-curvature="0" />
  </g>
  <g
     aria-label="2"
     transform="matrix(0.0666667,0,0,0.0666667,127.998,21.4333)"
     style="font-style:normal;font-weight:normal;font-size:120px;font-family:Arial;fill:#56b4e9;stroke:none"
     id="text132">
    <path
       d="M 60.410156,-10.136719 V 0 H 3.6328125 Q 3.515625,-3.8085938 4.8632812,-7.3242187 7.03125,-13.125 11.777344,-18.75 q 4.804687,-5.625 13.828125,-13.007812 14.003906,-11.484375 18.925781,-18.164063 4.921875,-6.738281 4.921875,-12.714844 0,-6.269531 -4.511719,-10.546875 -4.453125,-4.335937 -11.660156,-4.335937 -7.617188,0 -12.1875,4.570312 -4.570313,4.570313 -4.628906,12.65625 L 5.625,-61.40625 Q 6.7382812,-73.535156 14.003906,-79.863281 21.269531,-86.25 33.515625,-86.25 q 12.363281,0 19.570312,6.855469 7.207032,6.855469 7.207032,16.992187 0,5.15625 -2.109375,10.136719 -2.109375,4.980469 -7.03125,10.488281 -4.863282,5.507813 -16.230469,15.117188 -9.492188,7.96875 -12.1875,10.839843 -2.695313,2.8125 -4.453125,5.683594 z"
       style="font-style:normal;font-weight:normal;font-size:120px;font-family:Arial;fill:#56b4e9;stroke:none"
       id="path1167"
       inkscape:connector-curvature="0" />
  </g>
  <g
     aria-label="Zr(H)Cl"
     transform="matrix(0.0666667,0,0,0.0666667,132.447,19.1667)"
     style="font-style:normal;font-weight:normal;font-size:160px;font-family:Arial;fill:#56b4e9;stroke:none"
     id="text134">
    <path
       d="M 3.203125,0 V -14.0625 L 61.875,-87.421875 q 6.25,-7.8125 11.875,-13.593755 H 9.84375 v -13.51562 H 91.875 v 13.51562 L 27.578125,-21.5625 20.625,-13.515625 H 93.75 V 0 Z"
       style="font-style:normal;font-weight:normal;font-size:160px;font-family:Arial;fill:#56b4e9;stroke:none"
       id="path1170"
       inkscape:connector-curvature="0" />
    <path
       d="m 108.20313,0 v -82.96875 h 12.65625 v 12.578125 q 4.84375,-8.828125 8.90624,-11.640625 4.14063,-2.8125 9.0625,-2.8125 7.10938,0 14.45313,4.53125 l -4.84375,13.046875 q -5.15625,-3.046875 -10.3125,-3.046875 -4.60938,0 -8.28125,2.8125 -3.67187,2.734375 -5.23437,7.65625 -2.34375,7.5 -2.34375,16.40625 V 0 Z"
       style="font-style:normal;font-weight:normal;font-size:160px;font-family:Arial;fill:#56b4e9;stroke:none"
       id="path1172"
       inkscape:connector-curvature="0" />
    <path
       d="m 188.67187,33.671875 q -11.64062,-14.6875 -19.6875,-34.375 -8.04687,-19.6875 -8.04687,-40.78125 0,-18.59375 6.01562,-35.625 7.03125,-19.765625 21.71875,-39.375005 H 198.75 q -9.45313,16.25 -12.5,23.20313 -4.76563,10.78125 -7.5,22.5 -3.35938,14.609375 -3.35938,29.375 0,37.578125 23.35938,75.078125 z"
       style="font-style:normal;font-weight:normal;font-size:160px;font-family:Arial;fill:#56b4e9;stroke:none"
       id="path1174"
       inkscape:connector-curvature="0" />
    <path
       d="m 217.5,0 v -114.53125 h 15.15625 V -67.5 h 59.53125 v -47.03125 h 15.15625 V 0 H 292.1875 V -53.984375 H 232.65625 V 0 Z"
       style="font-style:normal;font-weight:normal;font-size:160px;font-family:Arial;fill:#56b4e9;stroke:none"
       id="path1176"
       inkscape:connector-curvature="0" />
    <path
       d="M 340.07812,33.671875 H 330 q 23.35937,-37.5 23.35937,-75.078125 0,-14.6875 -3.35937,-29.140625 -2.65625,-11.71875 -7.42188,-22.5 Q 339.53125,-100.07813 330,-116.48438 h 10.07812 q 14.6875,19.60938 21.71875,39.375005 6.01563,17.03125 6.01563,35.625 0,21.09375 -8.125,40.78125 -8.04688,19.6875 -19.60938,34.375 z"
       style="font-style:normal;font-weight:normal;font-size:160px;font-family:Arial;fill:#56b4e9;stroke:none"
       id="path1178"
       inkscape:connector-curvature="0" />
    <path
       d="m 467.8125,-40.15625 15.15625,3.828125 q -4.76563,18.671875 -17.1875,28.515625 -12.34375,9.765625 -30.23438,9.765625 -18.51562,0 -30.15625,-7.5 -11.5625,-7.578125 -17.65625,-21.875 -6.01562,-14.296875 -6.01562,-30.703125 0,-17.890625 6.79687,-31.171875 6.875,-13.359375 19.45313,-20.234375 12.65625,-6.95313 27.8125,-6.95313 17.1875,0 28.90625,8.75 11.71875,8.750005 16.32812,24.60938 l -14.92187,3.515625 q -3.98438,-12.5 -11.5625,-18.203125 -7.57813,-5.70313 -19.0625,-5.70313 -13.20313,0 -22.10938,6.32813 -8.82812,6.328125 -12.42187,17.03125 -3.59375,10.625 -3.59375,21.953125 0,14.609375 4.21875,25.546875 4.29687,10.859375 13.28125,16.25 8.98437,5.390625 19.45312,5.390625 12.73438,0 21.5625,-7.34375 8.82813,-7.34375 11.95313,-21.796875 z"
       style="font-style:normal;font-weight:normal;font-size:160px;font-family:Arial;fill:#56b4e9;stroke:none"
       id="path1180"
       inkscape:connector-curvature="0" />
    <path
       d="m 499.60937,0 v -114.53125 h 14.0625 V 0 Z"
       style="font-style:normal;font-weight:normal;font-size:160px;font-family:Arial;fill:#56b4e9;stroke:none"
       id="path1182"
       inkscape:connector-curvature="0" />
  </g>
  <path
     stroke="none"
     fill="#000000"
     transform="matrix(0.0666667 0 0 0.0666667 -1.06646 -28.3333)"
     d="M 2975.75,1850 L 1283.3,1850 L 1283.3,1840 L 2975.75,1840 Z "
     id="path142" />
  <path
     stroke="none"
     fill="#000000"
     transform="matrix(0.0666667 0 0 0.0666667 -1.06646 -28.3333)"
     d="M 2975.75,800 L 1283.3,800 L 1283.3,790 L 2975.75,790 Z "
     id="path144" />
  <path
     stroke="none"
     fill="#000000"
     transform="matrix(0.0666667 0 0 0.0666667 -1.06646 -28.3333)"
     d="M 1280.63,1849.5 L 955.601,1669.5 L 960.601,1660.5 L 1285.63,1840.5 Z "
     id="path146" />
  <path
     stroke="none"
     fill="#000000"
     transform="matrix(0.0666667 0 0 0.0666667 -1.06646 -28.3333)"
     d="M 955.601,970.5 L 1280.63,790.5 L 1285.63,799.5 L 960.601,979.5 Z "
     id="path148" />
  <path
     stroke="none"
     fill="#000000"
     transform="matrix(0.0666667 0 0 0.0666667 -1.06646 -28.3333)"
     d="M 2979.98,790.5 L 3227.77,927.727 L 3222.77,936.727 L 2974.98,799.5 Z "
     id="path150" />
  <path
     stroke="none"
     fill="#000000"
     transform="matrix(0.0666667 0 0 0.0666667 -1.06646 -28.3333)"
     d="M 3302.5,975 C 3302.5,975 3226.59,902.245 3226.59,902.245 C 3226.59,902.245 3230.24,921.541 3224.39,931.742 C 3218.55,941.944 3199.87,948.88 3199.87,948.88 C 3199.87,948.88 3302.5,975 3302.5,975 C 3302.5,975 3302.5,975 3302.5,975 "
     id="path152" />
  <path
     stroke="#000000"
     stroke-width="1"
     fill="none"
     transform="matrix(0.0666667 0 0 0.0666667 -1.06646 -28.3333)"
     d="M 3302.5,975 C 3302.5,975 3226.59,902.245 3226.59,902.245 C 3226.59,902.245 3230.24,921.541 3224.39,931.742 C 3218.55,941.944 3199.87,948.88 3199.87,948.88 C 3199.87,948.88 3302.5,975 3302.5,975 C 3302.5,975 3302.5,975 3302.5,975 "
     id="path154" />
  <path
     stroke="none"
     fill="#000000"
     transform="matrix(0.0666667 0 0 0.0666667 -1.06646 -28.3333)"
     d="M 3227.77,1712.27 L 2979.98,1849.5 L 2974.98,1840.5 L 3222.77,1703.27 Z "
     id="path156" />
  <path
     stroke="none"
     fill="#000000"
     transform="matrix(0.0666667 0 0 0.0666667 -1.06646 -28.3333)"
     d="M 3302.5,1665 C 3302.5,1665 3226.59,1737.75 3226.59,1737.75 C 3226.59,1737.75 3230.24,1718.46 3224.39,1708.26 C 3218.55,1698.06 3199.87,1691.12 3199.87,1691.12 C 3199.87,1691.12 3302.5,1665 3302.5,1665 C 3302.5,1665 3302.5,1665 3302.5,1665 "
     id="path158" />
  <path
     stroke="#000000"
     stroke-width="1"
     fill="none"
     transform="matrix(0.0666667 0 0 0.0666667 -1.06646 -28.3333)"
     d="M 3302.5,1665 C 3302.5,1665 3226.59,1737.75 3226.59,1737.75 C 3226.59,1737.75 3230.24,1718.46 3224.39,1708.26 C 3218.55,1698.06 3199.87,1691.12 3199.87,1691.12 C 3199.87,1691.12 3302.5,1665 3302.5,1665 C 3302.5,1665 3302.5,1665 3302.5,1665 "
     id="path160" />
  <g
     aria-label="TMSCN"
     transform="matrix(0.0666667,0,0,0.0666667,310.411,56.6667)"
     style="font-style:normal;font-weight:normal;font-size:160px;font-family:Arial;fill:#000000;stroke:none"
     id="text162">
    <path
       d="M 41.484375,0 V -101.01563 H 3.75 v -13.51562 h 90.78125 v 13.51562 H 56.640625 V 0 Z"
       style="font-style:normal;font-weight:normal;font-size:160px;font-family:Arial;fill:#000000;stroke:none"
       id="path1206"
       inkscape:connector-curvature="0" />
    <path
       d="M 109.6875,0 V -114.53125 H 132.5 l 27.10937,81.09375 q 3.75,11.328125 5.46875,16.953125 1.95313,-6.25 6.09375,-18.359375 l 27.42188,-79.6875 h 20.39062 V 0 H 204.375 V -95.859375 L 171.09375,0 H 157.42187 L 124.29688,-97.5 V 0 Z"
       style="font-style:normal;font-weight:normal;font-size:160px;font-family:Arial;fill:#000000;stroke:none"
       id="path1208"
       inkscape:connector-curvature="0" />
    <path
       d="m 238.4375,-36.796875 14.29687,-1.25 q 1.01563,8.59375 4.6875,14.140625 3.75,5.46875 11.5625,8.90625 7.8125,3.359375 17.57813,3.359375 8.67187,0 15.3125,-2.578125 6.64062,-2.578125 9.84375,-7.03125 Q 315,-25.78125 315,-31.09375 q 0,-5.390625 -3.125,-9.375 -3.125,-4.0625 -10.3125,-6.796875 Q 296.95312,-49.0625 281.17187,-52.8125 265.39062,-56.640625 259.0625,-60 q -8.20313,-4.296875 -12.26563,-10.625 -3.98437,-6.40625 -3.98437,-14.296875 0,-8.671875 4.92187,-16.171875 4.92188,-7.57813 14.375,-11.48438 9.45313,-3.90625 21.01563,-3.90625 12.73437,0 22.42187,4.14063 9.76563,4.0625 15,12.03125 5.23438,7.96875 5.625,18.046875 l -14.53125,1.09375 q -1.17187,-10.859375 -7.96875,-16.40625 -6.71875,-5.546875 -19.92187,-5.546875 -13.75,0 -20.07813,5.078125 -6.25,5 -6.25,12.109375 0,6.171875 4.45313,10.15625 4.375,3.984375 22.8125,8.203125 18.51562,4.140625 25.39062,7.265625 10,4.609375 14.76563,11.71875 4.76562,7.03125 4.76562,16.25 0,9.140625 -5.23437,17.265625 -5.23438,8.046875 -15.07813,12.578125 -9.76562,4.453125 -22.03125,4.453125 -15.54687,0 -26.09375,-4.53125 -10.46875,-4.53125 -16.48437,-13.59375 -5.9375,-9.140625 -6.25,-20.625 z"
       style="font-style:normal;font-weight:normal;font-size:160px;font-family:Arial;fill:#000000;stroke:none"
       id="path1210"
       inkscape:connector-curvature="0" />
    <path
       d="m 432.1875,-40.15625 15.15625,3.828125 q -4.76563,18.671875 -17.1875,28.515625 -12.34375,9.765625 -30.23438,9.765625 -18.51562,0 -30.15625,-7.5 -11.5625,-7.578125 -17.65625,-21.875 -6.01562,-14.296875 -6.01562,-30.703125 0,-17.890625 6.79687,-31.171875 6.875,-13.359375 19.45313,-20.234375 12.65625,-6.95313 27.8125,-6.95313 17.1875,0 28.90625,8.75 11.71875,8.750005 16.32812,24.60938 l -14.92187,3.515625 q -3.98438,-12.5 -11.5625,-18.203125 -7.57813,-5.70313 -19.0625,-5.70313 -13.20313,0 -22.10938,6.32813 -8.82812,6.328125 -12.42187,17.03125 -3.59375,10.625 -3.59375,21.953125 0,14.609375 4.21875,25.546875 4.29687,10.859375 13.28125,16.25 8.98437,5.390625 19.45312,5.390625 12.73438,0 21.5625,-7.34375 8.82813,-7.34375 11.95313,-21.796875 z"
       style="font-style:normal;font-weight:normal;font-size:160px;font-family:Arial;fill:#000000;stroke:none"
       id="path1212"
       inkscape:connector-curvature="0" />
    <path
       d="m 465.9375,0 v -114.53125 h 15.54687 l 60.15625,89.921875 v -89.921875 h 14.53125 V 0 H 540.625 L 480.46875,-90 V 0 Z"
       style="font-style:normal;font-weight:normal;font-size:160px;font-family:Arial;fill:#000000;stroke:none"
       id="path1214"
       inkscape:connector-curvature="0" />
  </g>
  <g
     aria-label="Yb(OTf)"
     transform="matrix(0.0666667,0,0,0.0666667,308.184,77.6667)"
     style="font-style:normal;font-weight:normal;font-size:160px;font-family:Arial;fill:#000000;stroke:none"
     id="text164">
    <path
       d="M 44.609375,0 V -48.515625 L 0.46875,-114.53125 h 18.4375 L 41.484375,-80 q 6.25,9.6875 11.640625,19.375 5.15625,-8.984375 12.5,-20.234375 l 22.1875,-33.671875 h 17.65625 L 59.765625,-48.515625 V 0 Z"
       style="font-style:normal;font-weight:normal;font-size:160px;font-family:Arial;fill:#000000;stroke:none"
       id="path1217"
       inkscape:connector-curvature="0" />
    <path
       d="m 130.39062,0 h -13.04687 v -114.53125 h 14.0625 v 40.859375 q 8.90625,-11.171875 22.73437,-11.171875 7.65625,0 14.45313,3.125 6.875,3.046875 11.25,8.671875 4.45312,5.546875 6.95312,13.4375 2.5,7.890625 2.5,16.875 0,21.328125 -10.54687,32.96875 Q 168.20312,1.875 153.4375,1.875 q -14.6875,0 -23.04688,-12.265625 z m -0.15625,-42.109375 q 0,14.921875 4.0625,21.5625 6.64063,10.859375 17.96875,10.859375 9.21875,0 15.9375,-7.96875 6.71875,-8.046875 6.71875,-23.90625 0,-16.25 -6.48437,-23.984375 -6.40625,-7.734375 -15.54688,-7.734375 -9.21875,0 -15.9375,8.046875 -6.71875,7.96875 -6.71875,23.125 z"
       style="font-style:normal;font-weight:normal;font-size:160px;font-family:Arial;fill:#000000;stroke:none"
       id="path1219"
       inkscape:connector-curvature="0" />
    <path
       d="m 233.35937,33.671875 q -11.64062,-14.6875 -19.6875,-34.375 -8.04687,-19.6875 -8.04687,-40.78125 0,-18.59375 6.01562,-35.625 7.03125,-19.765625 21.71875,-39.375005 h 10.07813 q -9.45313,16.25 -12.5,23.20313 -4.76563,10.78125 -7.5,22.5 -3.35938,14.609375 -3.35938,29.375 0,37.578125 23.35938,75.078125 z"
       style="font-style:normal;font-weight:normal;font-size:160px;font-family:Arial;fill:#000000;stroke:none"
       id="path1221"
       inkscape:connector-curvature="0" />
    <path
       d="m 257.10937,-55.78125 q 0,-28.515625 15.3125,-44.60938 15.3125,-16.17187 39.53125,-16.17187 15.85938,0 28.59375,7.57812 12.73438,7.57813 19.375,21.17188 6.71875,13.515625 6.71875,30.703125 0,17.421875 -7.03125,31.171875 -7.03125,13.75 -19.92187,20.859375 -12.89063,7.03125 -27.8125,7.03125 -16.17188,0 -28.90625,-7.8125 -12.73438,-7.8125 -19.29688,-21.328125 -6.5625,-13.515625 -6.5625,-28.59375 z m 15.625,0.234375 q 0,20.703125 11.09375,32.65625 11.17188,11.875 27.96875,11.875 17.10938,0 28.125,-12.03125 11.09375,-12.03125 11.09375,-34.140625 0,-13.984375 -4.76562,-24.375 -4.6875,-10.46875 -13.82813,-16.171875 -9.0625,-5.781255 -20.39062,-5.781255 -16.09375,0 -27.73438,11.093755 -11.5625,11.015625 -11.5625,36.875 z"
       style="font-style:normal;font-weight:normal;font-size:160px;font-family:Arial;fill:#000000;stroke:none"
       id="path1223"
       inkscape:connector-curvature="0" />
    <path
       d="M 415.23437,0 V -101.01563 H 377.5 v -13.51562 h 90.78125 v 13.51562 H 430.39062 V 0 Z"
       style="font-style:normal;font-weight:normal;font-size:160px;font-family:Arial;fill:#000000;stroke:none"
       id="path1225"
       inkscape:connector-curvature="0" />
    <path
       d="m 485.46875,0 v -72.03125 h -12.42188 v -10.9375 h 12.42188 v -8.828125 q 0,-8.359375 1.48437,-12.421875 2.03125,-5.46875 7.10938,-8.82813 5.15625,-3.4375 14.375,-3.4375 5.9375,0 13.125,1.40625 l -2.10938,12.26563 q -4.375,-0.78125 -8.28125,-0.78125 -6.40625,0 -9.0625,2.73437 -2.65625,2.73438 -2.65625,10.23438 v 7.65625 H 515.625 v 10.9375 H 499.45312 V 0 Z"
       style="font-style:normal;font-weight:normal;font-size:160px;font-family:Arial;fill:#000000;stroke:none"
       id="path1227"
       inkscape:connector-curvature="0" />
    <path
       d="M 535.70312,33.671875 H 525.625 q 23.35937,-37.5 23.35937,-75.078125 0,-14.6875 -3.35937,-29.140625 -2.65625,-11.71875 -7.42188,-22.5 -3.04687,-7.031255 -12.57812,-23.437505 h 10.07812 q 14.6875,19.60938 21.71875,39.375005 6.01563,17.03125 6.01563,35.625 0,21.09375 -8.125,40.78125 -8.04688,19.6875 -19.60938,34.375 z"
       style="font-style:normal;font-weight:normal;font-size:160px;font-family:Arial;fill:#000000;stroke:none"
       id="path1229"
       inkscape:connector-curvature="0" />
  </g>
  <g
     aria-label="3"
     transform="matrix(0.0666667,0,0,0.0666667,346.111,79.9333)"
     style="font-style:normal;font-weight:normal;font-size:120px;font-family:Arial;fill:#000000;stroke:none"
     id="text166">
    <path
       d="m 5.0390625,-22.675781 10.5468755,-1.40625 q 1.816406,8.964843 6.152343,12.949218 4.394531,3.9257818 10.664063,3.9257818 7.441406,0 12.539062,-5.1562498 5.15625,-5.15625 5.15625,-12.773438 0,-7.265625 -4.746094,-11.953125 -4.746093,-4.746093 -12.070312,-4.746093 -2.988281,0 -7.441406,1.171875 l 1.171875,-9.257813 q 1.054687,0.117188 1.699218,0.117188 6.738282,0 12.128907,-3.515625 5.390625,-3.515625 5.390625,-10.839844 0,-5.800781 -3.925782,-9.609375 -3.925781,-3.808594 -10.136718,-3.808594 -6.152344,0 -10.253907,3.867188 -4.101562,3.867187 -5.273437,11.601562 l -10.546875,-1.875 Q 8.0273438,-74.589844 14.882813,-80.390625 21.738281,-86.25 31.933594,-86.25 q 7.03125,0 12.949218,3.046875 5.917969,2.988281 9.023438,8.203125 3.164062,5.214844 3.164062,11.074219 0,5.566406 -2.988281,10.136719 -2.988281,4.570312 -8.847656,7.265625 7.617187,1.757812 11.835937,7.324218 4.21875,5.507813 4.21875,13.828125 0,11.25 -8.203125,19.1015628 -8.203125,7.7929687 -20.742187,7.7929687 -11.308594,0 -18.808594,-6.7382812 Q 6.09375,-11.953125 5.0390625,-22.675781 Z"
       style="font-style:normal;font-weight:normal;font-size:120px;font-family:Arial;fill:#000000;stroke:none"
       id="path1232"
       inkscape:connector-curvature="0" />
  </g>
  <text
     x="0"
     y="0"
     stroke="none"
     fill="#000000"
     transform="matrix(0.0666667 0 0 0.0666667 457.034 80.1982)"
     font-style="normal"
     font-weight="normal"
     font-size="160px"
     font-family="Arial"
     id="text168">
Vaska</text>
  <text
     x="0"
     y="0"
     stroke="none"
     fill="#000000"
     transform="matrix(0.0666667 0 0 0.0666667 457.034 53.4482)"
     font-style="normal"
     font-weight="normal"
     font-size="160px"
     font-family="Arial"
     id="text170">
van </text>
  <text
     x="0"
     y="0"
     stroke="none"
     fill="#000000"
     transform="matrix(0.0666667 0 0 0.0666667 477.195 53.4482)"
     font-style="normal"
     font-weight="normal"
     font-size="160px"
     font-family="Arial"
     id="text172">
der </text>
  <text
     x="0"
     y="0"
     stroke="none"
     fill="#000000"
     transform="matrix(0.0666667 0 0 0.0666667 495.575 53.4482)"
     font-style="normal"
     font-weight="normal"
     font-size="160px"
     font-family="Arial"
     id="text174">
Ent</text>
  <text
     x="0"
     y="0"
     stroke="none"
     fill="#000000"
     transform="matrix(0.0666667 0 0 0.0666667 457.034 26.4167)"
     font-style="normal"
     font-weight="normal"
     font-size="160px"
     font-family="Arial"
     id="text176">
Schwartz</text>
  <path
     stroke="none"
     fill="#000000"
     transform="matrix(0.0666667 0 0 0.0666667 -1.06646 -28.3333)"
     d="M 9134.91,1861.25 L 6842.13,1861.25 L 6842.13,1851.25 L 9134.91,1851.25 Z "
     id="path178" />
  <path
     stroke="none"
     fill="#000000"
     transform="matrix(0.0666667 0 0 0.0666667 -1.06646 -28.3333)"
     d="M 6837.15,1852.5 L 6837.15,497.174 L 6847.15,497.174 L 6847.15,1852.5 Z "
     id="path180" />
  <path
     stroke="none"
     fill="#000000"
     transform="matrix(0.0666667 0 0 0.0666667 -1.06646 -28.3333)"
     d="M 9139.91,1856.25 L 9139.91,1903.58 L 9129.91,1903.58 L 9129.91,1856.25 Z "
     id="path182" />
  <path
     stroke="none"
     fill="#000000"
     transform="matrix(0.0666667 0 0 0.0666667 -1.06646 -28.3333)"
     d="M 6847.13,1856.25 L 6847.13,1902.48 L 6837.13,1902.48 L 6837.13,1856.25 Z "
     id="path184" />
  <path
     stroke="none"
     fill="#000000"
     transform="matrix(0.0666667 0 0 0.0666667 -1.06646 -28.3333)"
     d="M 7993.52,1856.25 L 7993.52,1902.48 L 7983.52,1902.48 L 7983.52,1856.25 Z "
     id="path186" />
  <text
     x="532.64423"
     y="112.917"
     font-style="italic"
     font-weight="normal"
     font-size="160px"
     id="text194"
     style="font-style:italic;font-weight:normal;font-size:10.66667175px;font-family:Arial;text-align:center;text-anchor:middle;fill:#000000;stroke:none;stroke-width:0.0666667">
    <tspan
       style="font-style:normal;text-align:center;text-anchor:middle;stroke-width:0.0666667"
       id="tspan1326">\textit{wydajno}</tspan>
  </text>
  <text
     xml:space="preserve"
     style="font-style:normal;font-weight:normal;font-size:10.66666698px;line-height:1.25;font-family:sans-serif;text-align:start;letter-spacing:0px;word-spacing:0px;text-anchor:start;fill:#000000;fill-opacity:1;stroke:none"
     x="3.1377554"
     y="91.140671"
     id="text1252"><tspan
       sodipodi:role="line"
       id="tspan1250"
       x="3.1377554"
       y="91.140671">\cmpd{ph-bn-amide}</tspan></text>
  <text
     xml:space="preserve"
     style="font-style:normal;font-weight:normal;font-size:10.66666698px;line-height:1.25;font-family:sans-serif;text-align:start;letter-spacing:0px;word-spacing:0px;text-anchor:start;fill:#000000;fill-opacity:1;stroke:none"
     x="263.74417"
     y="91.140671"
     id="text1252-3"><tspan
       sodipodi:role="line"
       id="tspan1250-9"
       x="263.74417"
       y="91.140671">\cmpd{ph-bn-imine}</tspan></text>
  <text
     xml:space="preserve"
     style="font-style:normal;font-weight:normal;font-size:10.66666698px;line-height:1.25;font-family:sans-serif;text-align:start;letter-spacing:0px;word-spacing:0px;text-anchor:start;fill:#000000;fill-opacity:1;stroke:none"
     x="416.66617"
     y="91.140671"
     id="text1252-2"><tspan
       sodipodi:role="line"
       id="tspan1250-6"
       x="416.66617"
       y="91.140671">\cmpd{ph-bn-cyanoamine}</tspan></text>
  <text
     xml:space="preserve"
     style="font-style:normal;font-weight:normal;font-size:10.66666698px;line-height:1.25;font-family:sans-serif;text-align:start;letter-spacing:0px;word-spacing:0px;text-anchor:start;fill:#000000;fill-opacity:1;stroke:none"
     x="576.41986"
     y="25.247812"
     id="text1282"><tspan
       sodipodi:role="line"
       id="tspan1280"
       x="576.41986"
       y="25.247812">\SI{76}{\percent}</tspan></text>
  <text
     xml:space="preserve"
     style="font-style:normal;font-weight:normal;font-size:10.66666698px;line-height:1.25;font-family:sans-serif;text-align:start;letter-spacing:0px;word-spacing:0px;text-anchor:start;fill:#000000;fill-opacity:1;stroke:none"
     x="588.97388"
     y="51.536018"
     id="text1282-6"><tspan
       sodipodi:role="line"
       id="tspan1280-5"
       x="588.97388"
       y="51.536018">\SI{84}{\percent}</tspan></text>
  <text
     xml:space="preserve"
     style="font-style:normal;font-weight:normal;font-size:10.66666698px;line-height:1.25;font-family:sans-serif;text-align:start;letter-spacing:0px;word-spacing:0px;text-anchor:start;fill:#000000;fill-opacity:1;stroke:none"
     x="494.54648"
     y="80.224068"
     id="text1282-9"><tspan
       sodipodi:role="line"
       id="tspan1280-7"
       x="494.54648"
       y="80.224068">\SI{23}{\percent}</tspan></text>
  <text
     xml:space="preserve"
     style="font-style:normal;font-weight:normal;font-size:10.66666698px;line-height:1.25;font-family:sans-serif;text-align:start;letter-spacing:0px;word-spacing:0px;text-anchor:start;fill:#000000;fill-opacity:1;stroke:none"
     x="597.9989"
     y="113.20085"
     id="text1282-5"><tspan
       sodipodi:role="line"
       id="tspan1280-0"
       x="597.9989"
       y="113.20085">\SI{100}{\percent}</tspan></text>
  <text
     xml:space="preserve"
     style="font-style:normal;font-weight:normal;font-size:10.66666698px;line-height:1.25;font-family:sans-serif;text-align:start;letter-spacing:0px;word-spacing:0px;text-anchor:start;fill:#000000;fill-opacity:1;stroke:none"
     x="447.62799"
     y="113.20085"
     id="text1282-3"><tspan
       sodipodi:role="line"
       id="tspan1280-07"
       x="447.62799"
       y="113.20085">\SI{0}{\percent}</tspan></text>
</svg>
