<?xml version="1.0" encoding="UTF-8" standalone="no"?>
<svg
   xmlns:dc="http://purl.org/dc/elements/1.1/"
   xmlns:cc="http://creativecommons.org/ns#"
   xmlns:rdf="http://www.w3.org/1999/02/22-rdf-syntax-ns#"
   xmlns:svg="http://www.w3.org/2000/svg"
   xmlns="http://www.w3.org/2000/svg"
   xmlns:sodipodi="http://sodipodi.sourceforge.net/DTD/sodipodi-0.dtd"
   xmlns:inkscape="http://www.inkscape.org/namespaces/inkscape"
   width="158px"
   height="90px"
   viewBox="0 0 158 90"
   style="background-color: #ffffff00"
   version="1.1"
   id="svg74"
   sodipodi:docname="amidoester-si.svg"
   inkscape:version="0.92.4 (5da689c313, 2019-01-14)">
  <metadata
     id="metadata80">
    <rdf:RDF>
      <cc:Work
         rdf:about="">
        <dc:format>image/svg+xml</dc:format>
        <dc:type
           rdf:resource="http://purl.org/dc/dcmitype/StillImage" />
      </cc:Work>
    </rdf:RDF>
  </metadata>
  <defs
     id="defs78" />
  <sodipodi:namedview
     pagecolor="#ffffff"
     bordercolor="#666666"
     borderopacity="1"
     objecttolerance="10"
     gridtolerance="10"
     guidetolerance="10"
     inkscape:pageopacity="0"
     inkscape:pageshadow="2"
     inkscape:window-width="1920"
     inkscape:window-height="1017"
     id="namedview76"
     showgrid="false"
     inkscape:zoom="3.0700965"
     inkscape:cx="138.09675"
     inkscape:cy="3.5867248"
     inkscape:window-x="-8"
     inkscape:window-y="-8"
     inkscape:window-maximized="1"
     inkscape:current-layer="svg74" />
  <path
     stroke="none"
     fill="#000000"
     transform="matrix(0.0666667 0 0 0.0666667 -12.5561 -24.3333)"
     d="M 1235.32,1105.1 L 1235.32,1116.88 L 1041.23,1228.94 L 1036.13,1225.99 L 1036.13,1220.1 L 1235.32,1105.1 Z "
     id="path2" />
  <path
     stroke="none"
     fill="#000000"
     transform="matrix(0.0666667 0 0 0.0666667 -12.5561 -24.3333)"
     d="M 836.946,1116.88 L 836.946,1110.99 L 842.048,1108.04 L 1036.13,1220.1 L 1036.13,1225.99 L 1031.03,1228.94 L 836.946,1116.88 Z "
     id="path4" />
  <path
     stroke="none"
     fill="#000000"
     transform="matrix(0.0666667 0 0 0.0666667 -12.5561 -24.3333)"
     d="M 875.795,1091.51 L 880.897,1082.67 L 1038.68,1173.77 L 1033.58,1182.6 L 875.795,1091.51 Z "
     id="path6" />
  <g
     aria-label="EtO"
     transform="matrix(0.0666667,0,0,0.0666667,15.7346,61.5994)"
     style="font-style:normal;font-weight:normal;font-size:160px;font-family:Arial;fill:#000000;stroke:none"
     id="text8">
    <path
       d="m 12.65625,0 v -114.53125 h 82.8125 v 13.51562 H 27.8125 V -65.9375 H 91.171875 V -52.5 H 27.8125 v 38.984375 H 98.125 V 0 Z"
       style="font-style:normal;font-weight:normal;font-size:160px;font-family:Arial;fill:#000000;stroke:none"
       id="path887"
       inkscape:connector-curvature="0" />
    <path
       d="m 148.125,-12.578125 2.03125,12.421875 q -5.9375,1.25 -10.625,1.25 -7.65625,0 -11.875,-2.421875 Q 123.4375,-3.75 121.71875,-7.65625 120,-11.640625 120,-24.296875 V -72.03125 h -10.3125 v -10.9375 H 120 v -20.54688 l 13.98437,-8.4375 v 28.98438 H 148.125 v 10.9375 h -14.14063 v 48.515625 q 0,6.015625 0.70313,7.734375 0.78125,1.71875 2.42187,2.734375 1.71875,1.015625 4.84375,1.015625 2.34375,0 6.17188,-0.546875 z"
       style="font-style:normal;font-weight:normal;font-size:160px;font-family:Arial;fill:#000000;stroke:none"
       id="path889"
       inkscape:connector-curvature="0" />
    <path
       d="m 158.98437,-55.78125 q 0,-28.515625 15.3125,-44.60938 15.3125,-16.17187 39.53125,-16.17187 15.85938,0 28.59375,7.57812 12.73438,7.57813 19.375,21.17188 6.71875,13.515625 6.71875,30.703125 0,17.421875 -7.03125,31.171875 -7.03125,13.75 -19.92187,20.859375 -12.89063,7.03125 -27.8125,7.03125 -16.17188,0 -28.90625,-7.8125 -12.73438,-7.8125 -19.29688,-21.328125 -6.5625,-13.515625 -6.5625,-28.59375 z m 15.625,0.234375 q 0,20.703125 11.09375,32.65625 11.17188,11.875 27.96875,11.875 17.10938,0 28.125,-12.03125 11.09375,-12.03125 11.09375,-34.140625 0,-13.984375 -4.76562,-24.375 -4.6875,-10.46875 -13.82813,-16.171875 -9.0625,-5.781255 -20.39062,-5.781255 -16.09375,0 -27.73438,11.093755 -11.5625,11.015625 -11.5625,36.875 z"
       style="font-style:normal;font-weight:normal;font-size:160px;font-family:Arial;fill:#000000;stroke:none"
       id="path891"
       inkscape:connector-curvature="0" />
  </g>
  <path
     stroke="none"
     fill="#000000"
     transform="matrix(0.0666667 0 0 0.0666667 -12.5561 -24.3333)"
     d="M 709.498,1190.46 L 704.396,1181.63 L 831.844,1108.04 L 836.946,1110.99 L 836.946,1116.88 L 709.498,1190.46 Z "
     id="path10" />
  <g
     aria-label="O"
     transform="matrix(0.0666667,0,0,0.0666667,39.0918,38.5994)"
     style="font-style:normal;font-weight:normal;font-size:160px;font-family:Arial;fill:#000000;stroke:none"
     id="text12">
    <path
       d="m 7.734375,-55.78125 q 0,-28.515625 15.3125,-44.60938 15.3125,-16.17187 39.53125,-16.17187 15.859375,0 28.59375,7.57812 12.734375,7.57813 19.375005,21.17188 6.71875,13.515625 6.71875,30.703125 0,17.421875 -7.03125,31.171875 -7.03125,13.75 -19.92188,20.859375 -12.890625,7.03125 -27.8125,7.03125 -16.171875,0 -28.90625,-7.8125 -12.734375,-7.8125 -19.296875,-21.328125 -6.5625,-13.515625 -6.5625,-28.59375 z m 15.625,0.234375 q 0,20.703125 11.09375,32.65625 11.171875,11.875 27.96875,11.875 17.109375,0 28.125,-12.03125 11.093755,-12.03125 11.093755,-34.140625 0,-13.984375 -4.76563,-24.375 -4.6875,-10.46875 -13.828125,-16.171875 -9.0625,-5.781255 -20.390625,-5.781255 -16.09375,0 -27.734375,11.093755 -11.5625,11.015625 -11.5625,36.875 z"
       style="font-style:normal;font-weight:normal;font-size:160px;font-family:Arial;fill:#000000;stroke:none"
       id="path894"
       inkscape:connector-curvature="0" />
  </g>
  <path
     stroke="none"
     fill="#000000"
     transform="matrix(0.0666667 0 0 0.0666667 -12.5561 -24.3333)"
     d="M 831.844,972.657 L 842.048,972.657 L 842.048,1108.04 L 836.946,1110.99 L 831.844,1108.04 L 831.844,972.657 Z "
     id="path14" />
  <g
     aria-label="Si"
     transform="matrix(0.0666667,0,0,0.0666667,21.6517,30.9269)"
     style="font-style:normal;font-weight:normal;font-size:160px;font-family:Arial;fill:#000000;stroke:none"
     id="text16">
    <path
       d="m 7.1875,-36.796875 14.296875,-1.25 q 1.015625,8.59375 4.6875,14.140625 3.75,5.46875 11.5625,8.90625 7.8125,3.359375 17.578125,3.359375 8.671875,0 15.3125,-2.578125 6.640625,-2.578125 9.84375,-7.03125 3.28125,-4.53125 3.28125,-9.84375 0,-5.390625 -3.125,-9.375 Q 77.5,-44.53125 70.3125,-47.265625 65.703125,-49.0625 49.921875,-52.8125 34.140625,-56.640625 27.8125,-60 19.609375,-64.296875 15.546875,-70.625 11.5625,-77.03125 11.5625,-84.921875 q 0,-8.671875 4.921875,-16.171875 4.921875,-7.57813 14.375,-11.48438 9.453125,-3.90625 21.015625,-3.90625 12.734375,0 22.421875,4.14063 9.765625,4.0625 15,12.03125 5.234375,7.96875 5.625,18.046875 l -14.53125,1.09375 Q 79.21875,-92.03125 72.421875,-97.578125 65.703125,-103.125 52.5,-103.125 q -13.75,0 -20.078125,5.078125 -6.25,5 -6.25,12.109375 0,6.171875 4.453125,10.15625 4.375,3.984375 22.8125,8.203125 18.515625,4.140625 25.390625,7.265625 10,4.609375 14.765625,11.71875 4.765625,7.03125 4.765625,16.25 0,9.140625 -5.234375,17.265625 Q 87.890625,-7.03125 78.046875,-2.5 68.28125,1.953125 56.015625,1.953125 q -15.546875,0 -26.09375,-4.53125 -10.46875,-4.53125 -16.484375,-13.59375 -5.9375,-9.140625 -6.25,-20.625 z"
       style="font-style:normal;font-weight:normal;font-size:160px;font-family:Arial;fill:#000000;stroke:none"
       id="path897"
       inkscape:connector-curvature="0" />
    <path
       d="m 117.5,-98.359375 v -16.171875 h 14.0625 v 16.171875 z M 117.5,0 v -82.96875 h 14.0625 V 0 Z"
       style="font-style:normal;font-weight:normal;font-size:160px;font-family:Arial;fill:#000000;stroke:none"
       id="path899"
       inkscape:connector-curvature="0" />
  </g>
  <path
     stroke="none"
     fill="#000000"
     transform="matrix(0.0666667 0 0 0.0666667 -12.5561 -24.3333)"
     d="M 679.632,796.057 L 684.735,787.22 L 770.792,836.905 L 765.69,845.742 L 679.632,796.057 Z "
     id="path18" />
  <path
     stroke="none"
     fill="#000000"
     transform="matrix(0.0666667 0 0 0.0666667 -12.5561 -24.3333)"
     d="M 632.508,538.677 L 642.712,532.785 L 642.712,689.571 L 632.508,689.571 L 632.508,538.677 Z "
     id="path20" />
  <path
     stroke="none"
     fill="#000000"
     transform="matrix(0.0666667 0 0 0.0666667 -12.5561 -24.3333)"
     d="M 435.873,425.15 L 440.975,416.312 L 642.712,532.785 L 632.508,538.677 L 435.873,425.15 Z "
     id="path22" />
  <g
     aria-label="H"
     transform="matrix(0.0666667,0,0,0.0666667,39.3887,23.2545)"
     style="font-style:normal;font-weight:normal;font-size:160px;font-family:Arial;fill:#000000;stroke:none"
     id="text24">
    <path
       d="M 12.8125,0 V -114.53125 H 27.96875 V -67.5 H 87.5 v -47.03125 h 15.15625 V 0 H 87.5 V -53.984375 H 27.96875 V 0 Z"
       style="font-style:normal;font-weight:normal;font-size:160px;font-family:Arial;fill:#000000;stroke:none"
       id="path902"
       inkscape:connector-curvature="0" />
  </g>
  <path
     stroke="none"
     fill="#000000"
     transform="matrix(0.0666667 0 0 0.0666667 -12.5561 -24.3333)"
     d="M 751.884,694.036 L 756.987,702.873 L 684.59,744.671 L 679.488,735.834 L 751.884,694.036 Z "
     id="path26" />
  <g
     aria-label="N"
     transform="matrix(0.0666667,0,0,0.0666667,79.2259,61.5994)"
     style="font-style:normal;font-weight:normal;font-size:160px;font-family:Arial;fill:#000000;stroke:none"
     id="text28">
    <path
       d="m 12.1875,0 v -114.53125 h 15.546875 l 60.15625,89.921875 V -114.53125 H 102.42188 V 0 H 86.875 L 26.71875,-90 V 0 Z"
       style="font-style:normal;font-weight:normal;font-size:160px;font-family:Arial;fill:#000000;stroke:none"
       id="path905"
       inkscape:connector-curvature="0" />
  </g>
  <g
     aria-label="H"
     transform="matrix(0.0666667,0,0,0.0666667,79.2259,72.266)"
     style="font-style:normal;font-weight:normal;font-size:160px;font-family:Arial;fill:#000000;stroke:none"
     id="text30">
    <path
       d="M 12.8125,0 V -114.53125 H 27.96875 V -67.5 H 87.5 v -47.03125 h 15.15625 V 0 H 87.5 V -53.984375 H 27.96875 V 0 Z"
       style="font-style:normal;font-weight:normal;font-size:160px;font-family:Arial;fill:#000000;stroke:none"
       id="path908"
       inkscape:connector-curvature="0" />
  </g>
  <path
     stroke="none"
     fill="#000000"
     transform="matrix(0.0666667 0 0 0.0666667 -12.5561 -24.3333)"
     d="M 1359.31,1176.68 L 1354.2,1185.52 L 1235.32,1116.88 L 1235.32,1105.1 L 1359.31,1176.68 Z "
     id="path32" />
  <g
     aria-label="O"
     transform="matrix(0.0666667,0,0,0.0666667,65.6499,38.5994)"
     style="font-style:normal;font-weight:normal;font-size:160px;font-family:Arial;fill:#000000;stroke:none"
     id="text34">
    <path
       d="m 7.734375,-55.78125 q 0,-28.515625 15.3125,-44.60938 15.3125,-16.17187 39.53125,-16.17187 15.859375,0 28.59375,7.57812 12.734375,7.57813 19.375005,21.17188 6.71875,13.515625 6.71875,30.703125 0,17.421875 -7.03125,31.171875 -7.03125,13.75 -19.92188,20.859375 -12.890625,7.03125 -27.8125,7.03125 -16.171875,0 -28.90625,-7.8125 -12.734375,-7.8125 -19.296875,-21.328125 -6.5625,-13.515625 -6.5625,-28.59375 z m 15.625,0.234375 q 0,20.703125 11.09375,32.65625 11.171875,11.875 27.96875,11.875 17.109375,0 28.125,-12.03125 11.093755,-12.03125 11.093755,-34.140625 0,-13.984375 -4.76563,-24.375 -4.6875,-10.46875 -13.828125,-16.171875 -9.0625,-5.781255 -20.390625,-5.781255 -16.09375,0 -27.734375,11.093755 -11.5625,11.015625 -11.5625,36.875 z"
       style="font-style:normal;font-weight:normal;font-size:160px;font-family:Arial;fill:#000000;stroke:none"
       id="path911"
       inkscape:connector-curvature="0" />
  </g>
  <path
     stroke="none"
     fill="#000000"
     transform="matrix(0.0666667 0 0 0.0666667 -12.5561 -24.3333)"
     d="M 1209.52,972.657 L 1219.72,972.657 L 1219.72,1122.94 L 1209.52,1122.94 L 1209.52,972.657 Z "
     id="path36" />
  <path
     stroke="none"
     fill="#000000"
     transform="matrix(0.0666667 0 0 0.0666667 -12.5561 -24.3333)"
     d="M 1250.92,972.657 L 1261.12,972.657 L 1261.12,1122.94 L 1250.92,1122.94 L 1250.92,972.657 Z "
     id="path38" />
  <path
     stroke="none"
     fill="#000000"
     transform="matrix(0.0666667 0 0 0.0666667 -12.5561 -24.3333)"
     d="M 888.136,1547.33 L 883.034,1538.49 L 1031.03,1453.04 L 1041.23,1458.94 L 888.136,1547.33 Z "
     id="path40" />
  <path
     stroke="none"
     fill="#000000"
     transform="matrix(0.0666667 0 0 0.0666667 -12.5561 -24.3333)"
     d="M 1041.23,1458.94 L 1031.03,1453.04 L 1031.03,1228.94 L 1036.13,1225.99 L 1041.23,1228.94 L 1041.23,1458.94 Z "
     id="path42" />
  <g
     aria-label="Ph"
     transform="matrix(0.0666667,0,0,0.0666667,33.1595,84.5994)"
     style="font-style:normal;font-weight:normal;font-size:160px;font-family:Arial;fill:#000000;stroke:none"
     id="text44">
    <path
       d="m 12.34375,0 v -114.53125 h 43.203125 q 11.40625,0 17.421875,1.09375 8.4375,1.40625 14.140625,5.39062 5.703125,3.90625 9.140625,11.01563 3.515625,7.109375 3.515625,15.625 0,14.609375 -9.296875,24.765625 Q 81.171875,-46.5625 56.875,-46.5625 H 27.5 V 0 Z M 27.5,-60.078125 h 29.609375 q 14.6875,0 20.859375,-5.46875 6.171875,-5.46875 6.171875,-15.390625 0,-7.1875 -3.671875,-12.265625 Q 76.875,-98.359375 70.9375,-100 q -3.828125,-1.01563 -14.140625,-1.01563 H 27.5 Z"
       style="font-style:normal;font-weight:normal;font-size:160px;font-family:Arial;fill:#000000;stroke:none"
       id="path914"
       inkscape:connector-curvature="0" />
    <path
       d="m 117.42188,0 v -114.53125 h 14.06249 v 41.09375 q 9.84375,-11.40625 24.84375,-11.40625 9.21875,0 16.01563,3.671875 6.79687,3.59375 9.6875,10 Q 185,-64.765625 185,-52.578125 V 0 h -14.0625 v -52.578125 q 0,-10.546875 -4.60938,-15.3125 -4.53125,-4.84375 -12.89062,-4.84375 -6.25,0 -11.79688,3.28125 -5.46875,3.203125 -7.8125,8.75 -2.34375,5.546875 -2.34375,15.3125 V 0 Z"
       style="font-style:normal;font-weight:normal;font-size:160px;font-family:Arial;fill:#000000;stroke:none"
       id="path916"
       inkscape:connector-curvature="0" />
  </g>
  <path
     stroke="none"
     fill="#000000"
     transform="matrix(0.0666667 0 0 0.0666667 -12.5561 -24.3333)"
     d="M 1628.59,1108.04 L 1633.69,1110.99 L 1633.69,1116.88 L 1514.39,1185.76 L 1509.29,1176.92 L 1628.59,1108.04 Z "
     id="path46" />
  <path
     stroke="none"
     fill="#000000"
     transform="matrix(0.0666667 0 0 0.0666667 -12.5561 -24.3333)"
     d="M 1832.87,1220.1 L 1832.87,1231.88 L 1633.69,1116.88 L 1633.69,1110.99 L 1638.79,1108.04 L 1832.87,1220.1 Z "
     id="path48" />
  <path
     stroke="none"
     fill="#000000"
     transform="matrix(0.0666667 0 0 0.0666667 -12.5561 -24.3333)"
     d="M 1835.43,1173.77 L 1830.32,1182.6 L 1672.54,1091.51 L 1677.64,1082.67 L 1835.43,1173.77 Z "
     id="path50" />
  <path
     stroke="none"
     fill="#000000"
     transform="matrix(0.0666667 0 0 0.0666667 -12.5561 -24.3333)"
     d="M 2026.96,1108.04 L 2037.16,1113.94 L 1832.87,1231.88 L 1832.87,1220.1 L 2026.96,1108.04 Z "
     id="path52" />
  <path
     stroke="none"
     fill="#000000"
     transform="matrix(0.0666667 0 0 0.0666667 -12.5561 -24.3333)"
     d="M 2026.96,883.936 L 2032.06,880.99 L 2037.16,883.936 L 2037.16,1113.94 L 2026.96,1108.04 L 2026.96,883.936 Z "
     id="path54" />
  <path
     stroke="none"
     fill="#000000"
     transform="matrix(0.0666667 0 0 0.0666667 -12.5561 -24.3333)"
     d="M 1985.56,904.893 L 1995.76,904.893 L 1995.76,1087.09 L 1985.56,1087.09 L 1985.56,904.893 Z "
     id="path56" />
  <path
     stroke="none"
     fill="#000000"
     transform="matrix(0.0666667 0 0 0.0666667 -12.5561 -24.3333)"
     d="M 1832.87,771.882 L 1832.87,760.099 L 2032.06,875.099 L 2032.06,880.99 L 2026.96,883.936 L 1832.87,771.882 Z "
     id="path58" />
  <path
     stroke="none"
     fill="#000000"
     transform="matrix(0.0666667 0 0 0.0666667 -12.5561 -24.3333)"
     d="M 1638.79,883.936 L 1628.59,878.045 L 1832.87,760.099 L 1832.87,771.882 L 1638.79,883.936 Z "
     id="path60" />
  <path
     stroke="none"
     fill="#000000"
     transform="matrix(0.0666667 0 0 0.0666667 -12.5561 -24.3333)"
     d="M 1677.64,909.311 L 1672.54,900.474 L 1830.32,809.376 L 1835.43,818.214 L 1677.64,909.311 Z "
     id="path62" />
  <path
     stroke="none"
     fill="#000000"
     transform="matrix(0.0666667 0 0 0.0666667 -12.5561 -24.3333)"
     d="M 1638.79,1108.04 L 1633.69,1110.99 L 1628.59,1108.04 L 1628.59,878.045 L 1638.79,883.936 L 1638.79,1108.04 Z "
     id="path64" />
  <g
     aria-label="OMe"
     transform="matrix(0.0666667,0,0,0.0666667,132.045,30.9327)"
     style="font-style:normal;font-weight:normal;font-size:160px;font-family:Arial;fill:#000000;stroke:none"
     id="text66">
    <path
       d="m 7.734375,-55.78125 q 0,-28.515625 15.3125,-44.60938 15.3125,-16.17187 39.53125,-16.17187 15.859375,0 28.59375,7.57812 12.734375,7.57813 19.375005,21.17188 6.71875,13.515625 6.71875,30.703125 0,17.421875 -7.03125,31.171875 -7.03125,13.75 -19.92188,20.859375 -12.890625,7.03125 -27.8125,7.03125 -16.171875,0 -28.90625,-7.8125 -12.734375,-7.8125 -19.296875,-21.328125 -6.5625,-13.515625 -6.5625,-28.59375 z m 15.625,0.234375 q 0,20.703125 11.09375,32.65625 11.171875,11.875 27.96875,11.875 17.109375,0 28.125,-12.03125 11.093755,-12.03125 11.093755,-34.140625 0,-13.984375 -4.76563,-24.375 -4.6875,-10.46875 -13.828125,-16.171875 -9.0625,-5.781255 -20.390625,-5.781255 -16.09375,0 -27.734375,11.093755 -11.5625,11.015625 -11.5625,36.875 z"
       style="font-style:normal;font-weight:normal;font-size:160px;font-family:Arial;fill:#000000;stroke:none"
       id="path919"
       inkscape:connector-curvature="0" />
    <path
       d="m 136.25,0 v -114.53125 h 22.8125 l 27.10937,81.09375 q 3.75,11.328125 5.46875,16.953125 1.95313,-6.25 6.09375,-18.359375 l 27.42188,-79.6875 h 20.39062 V 0 H 230.9375 V -95.859375 L 197.65625,0 h -13.67188 l -33.125,-97.5 V 0 Z"
       style="font-style:normal;font-weight:normal;font-size:160px;font-family:Arial;fill:#000000;stroke:none"
       id="path921"
       inkscape:connector-curvature="0" />
    <path
       d="m 325.15625,-26.71875 14.53125,1.796875 Q 336.25,-12.1875 326.95312,-5.15625 317.65625,1.875 303.20312,1.875 285,1.875 274.29687,-9.296875 q -10.625,-11.25 -10.625,-31.484375 0,-20.9375 10.78125,-32.5 10.78125,-11.5625 27.96875,-11.5625 16.64063,0 27.1875,11.328125 10.54688,11.328125 10.54688,31.875 0,1.25 -0.0781,3.75 h -61.875 q 0.78125,13.671875 7.73438,20.9375 6.95312,7.265625 17.34375,7.265625 7.73437,0 13.20312,-4.0625 5.46875,-4.0625 8.67188,-12.96875 z M 278.98437,-49.453125 H 325.3125 Q 324.375,-59.921875 320,-65.15625 q -6.71875,-8.125 -17.42188,-8.125 -9.6875,0 -16.32812,6.484375 -6.5625,6.484375 -7.26563,17.34375 z"
       style="font-style:normal;font-weight:normal;font-size:160px;font-family:Arial;fill:#000000;stroke:none"
       id="path923"
       inkscape:connector-curvature="0" />
  </g>
  <path
     stroke="none"
     fill="#000000"
     transform="matrix(0.0666667 0 0 0.0666667 -12.5561 -24.3333)"
     d="M 2154.45,804.438 L 2159.55,813.275 L 2037.16,883.936 L 2032.06,880.99 L 2032.06,875.099 L 2154.45,804.438 Z "
     id="path68" />
  <path
     stroke="none"
     fill="#000000"
     transform="matrix(0.0666667 0 0 0.0666667 -12.5561 -24.3333)"
     d="M 438.274,886.882 L 438.274,875.099 L 508.716,834.429 L 513.818,843.267 L 438.274,886.882 Z "
     id="path70" />
  <path
     stroke="none"
     fill="#000000"
     transform="matrix(0.0666667 0 0 0.0666667 -12.5561 -24.3333)"
     d="M 236.537,770.409 L 241.64,761.572 L 438.274,875.099 L 438.274,886.882 L 236.537,770.409 Z "
     id="path72" />
  <text
     xml:space="preserve"
     style="font-style:normal;font-weight:normal;font-size:10.66666698px;line-height:1.25;font-family:sans-serif;text-align:start;letter-spacing:0px;word-spacing:0px;text-anchor:start;fill:#000000;fill-opacity:1;stroke:none"
     x="118.81647"
     y="80.977974"
     id="text928"><tspan
       sodipodi:role="line"
       id="tspan926"
       x="118.81647"
       y="80.977974"
       style="text-align:start;text-anchor:start">\cmpd{amidoester-si}, \SI{37}{\percent}</tspan></text>
</svg>
