<?xml version="1.0" encoding="UTF-8" standalone="no"?>
<svg
   xmlns:dc="http://purl.org/dc/elements/1.1/"
   xmlns:cc="http://creativecommons.org/ns#"
   xmlns:rdf="http://www.w3.org/1999/02/22-rdf-syntax-ns#"
   xmlns:svg="http://www.w3.org/2000/svg"
   xmlns="http://www.w3.org/2000/svg"
   xmlns:sodipodi="http://sodipodi.sourceforge.net/DTD/sodipodi-0.dtd"
   xmlns:inkscape="http://www.inkscape.org/namespaces/inkscape"
   width="94px"
   height="57px"
   viewBox="0 0 94 57"
   style="background-color: #ffffff00"
   version="1.1"
   id="svg40"
   sodipodi:docname="amidoester-opened.svg"
   inkscape:version="0.92.4 (5da689c313, 2019-01-14)">
  <metadata
     id="metadata46">
    <rdf:RDF>
      <cc:Work
         rdf:about="">
        <dc:format>image/svg+xml</dc:format>
        <dc:type
           rdf:resource="http://purl.org/dc/dcmitype/StillImage" />
      </cc:Work>
    </rdf:RDF>
  </metadata>
  <defs
     id="defs44" />
  <sodipodi:namedview
     pagecolor="#ffffff"
     bordercolor="#666666"
     borderopacity="1"
     objecttolerance="10"
     gridtolerance="10"
     guidetolerance="10"
     inkscape:pageopacity="0"
     inkscape:pageshadow="2"
     inkscape:window-width="1920"
     inkscape:window-height="1017"
     id="namedview42"
     showgrid="false"
     inkscape:zoom="3.6489362"
     inkscape:cx="130.86071"
     inkscape:cy="28.5"
     inkscape:window-x="-8"
     inkscape:window-y="-8"
     inkscape:window-maximized="1"
     inkscape:current-layer="svg40" />
  <path
     stroke="none"
     fill="#000000"
     transform="matrix(0.0666667 0 0 0.0666667 -27.3561 -51)"
     d="M 1235.32,1105.1 L 1235.32,1116.88 L 1041.23,1228.94 L 1036.13,1225.99 L 1036.13,1220.1 L 1235.32,1105.1 Z "
     id="path2" />
  <path
     stroke="none"
     fill="#000000"
     transform="matrix(0.0666667 0 0 0.0666667 -27.3561 -51)"
     d="M 836.945,1116.88 L 836.945,1105.1 L 1036.13,1220.1 L 1036.13,1225.99 L 1031.03,1228.94 L 836.945,1116.88 Z "
     id="path4" />
  <g
     aria-label="HO"
     transform="matrix(0.0666667,0,0,0.0666667,3.30964,34.9327)"
     style="font-style:normal;font-weight:normal;font-size:160px;font-family:Arial;fill:#000000;stroke:none"
     id="text6">
    <path
       d="M 12.8125,0 V -114.53125 H 27.96875 V -67.5 H 87.5 v -47.03125 h 15.15625 V 0 H 87.5 V -53.984375 H 27.96875 V 0 Z"
       style="font-style:normal;font-weight:normal;font-size:160px;font-family:Arial;fill:#000000;stroke:none"
       id="path875"
       inkscape:connector-curvature="0" />
    <path
       d="m 123.35938,-55.78125 q 0,-28.515625 15.31249,-44.60938 15.3125,-16.17187 39.53125,-16.17187 15.85938,0 28.59375,7.57812 12.73438,7.57813 19.375,21.17188 6.71875,13.515625 6.71875,30.703125 0,17.421875 -7.03125,31.171875 -7.03125,13.75 -19.92187,20.859375 -12.89063,7.03125 -27.8125,7.03125 -16.17188,0 -28.90625,-7.8125 -12.73438,-7.8125 -19.29688,-21.328125 -6.56249,-13.515625 -6.56249,-28.59375 z m 15.62499,0.234375 q 0,20.703125 11.09375,32.65625 11.17188,11.875 27.96875,11.875 17.10938,0 28.125,-12.03125 11.09375,-12.03125 11.09375,-34.140625 0,-13.984375 -4.76562,-24.375 -4.6875,-10.46875 -13.82813,-16.171875 -9.0625,-5.781255 -20.39062,-5.781255 -16.09375,0 -27.73438,11.093755 -11.5625,11.015625 -11.5625,36.875 z"
       style="font-style:normal;font-weight:normal;font-size:160px;font-family:Arial;fill:#000000;stroke:none"
       id="path877"
       inkscape:connector-curvature="0" />
  </g>
  <path
     stroke="none"
     fill="#000000"
     transform="matrix(0.0666667 0 0 0.0666667 -27.3561 -51)"
     d="M 709.449,1190.49 L 704.347,1181.65 L 836.945,1105.1 L 836.945,1116.88 L 709.449,1190.49 Z "
     id="path8" />
  <g
     aria-label="O"
     transform="matrix(0.0666667,0,0,0.0666667,24.2918,11.9327)"
     style="font-style:normal;font-weight:normal;font-size:160px;font-family:Arial;fill:#000000;stroke:none"
     id="text10">
    <path
       d="m 7.734375,-55.78125 q 0,-28.515625 15.3125,-44.60938 15.3125,-16.17187 39.53125,-16.17187 15.859375,0 28.59375,7.57812 12.734375,7.57813 19.375005,21.17188 6.71875,13.515625 6.71875,30.703125 0,17.421875 -7.03125,31.171875 -7.03125,13.75 -19.92188,20.859375 -12.890625,7.03125 -27.8125,7.03125 -16.171875,0 -28.90625,-7.8125 -12.734375,-7.8125 -19.296875,-21.328125 -6.5625,-13.515625 -6.5625,-28.59375 z m 15.625,0.234375 q 0,20.703125 11.09375,32.65625 11.171875,11.875 27.96875,11.875 17.109375,0 28.125,-12.03125 11.093755,-12.03125 11.093755,-34.140625 0,-13.984375 -4.76563,-24.375 -4.6875,-10.46875 -13.828125,-16.171875 -9.0625,-5.781255 -20.390625,-5.781255 -16.09375,0 -27.734375,11.093755 -11.5625,11.015625 -11.5625,36.875 z"
       style="font-style:normal;font-weight:normal;font-size:160px;font-family:Arial;fill:#000000;stroke:none"
       id="path872"
       inkscape:connector-curvature="0" />
  </g>
  <path
     stroke="none"
     fill="#000000"
     transform="matrix(0.0666667 0 0 0.0666667 -27.3561 -51)"
     d="M 811.143,972.657 L 821.348,972.657 L 821.348,1122.94 L 811.143,1122.94 L 811.143,972.657 Z "
     id="path12" />
  <path
     stroke="none"
     fill="#000000"
     transform="matrix(0.0666667 0 0 0.0666667 -27.3561 -51)"
     d="M 852.543,972.657 L 862.748,972.657 L 862.748,1122.94 L 852.543,1122.94 L 852.543,972.657 Z "
     id="path14" />
  <g
     aria-label="N"
     transform="matrix(0.0666667,0,0,0.0666667,64.4259,34.9327)"
     style="font-style:normal;font-weight:normal;font-size:160px;font-family:Arial;fill:#000000;stroke:none"
     id="text16">
    <path
       d="m 12.1875,0 v -114.53125 h 15.546875 l 60.15625,89.921875 V -114.53125 H 102.42188 V 0 H 86.875 L 26.71875,-90 V 0 Z"
       style="font-style:normal;font-weight:normal;font-size:160px;font-family:Arial;fill:#000000;stroke:none"
       id="path869"
       inkscape:connector-curvature="0" />
  </g>
  <g
     aria-label="H"
     transform="matrix(0.0666667,0,0,0.0666667,64.4259,45.5994)"
     style="font-style:normal;font-weight:normal;font-size:160px;font-family:Arial;fill:#000000;stroke:none"
     id="text18">
    <path
       d="M 12.8125,0 V -114.53125 H 27.96875 V -67.5 H 87.5 v -47.03125 h 15.15625 V 0 H 87.5 V -53.984375 H 27.96875 V 0 Z"
       style="font-style:normal;font-weight:normal;font-size:160px;font-family:Arial;fill:#000000;stroke:none"
       id="path866"
       inkscape:connector-curvature="0" />
  </g>
  <path
     stroke="none"
     fill="#000000"
     transform="matrix(0.0666667 0 0 0.0666667 -27.3561 -51)"
     d="M 1359.31,1176.68 L 1354.2,1185.52 L 1235.32,1116.88 L 1235.32,1105.1 L 1359.31,1176.68 Z "
     id="path20" />
  <g
     aria-label="O"
     transform="matrix(0.0666667,0,0,0.0666667,50.8499,11.9327)"
     style="font-style:normal;font-weight:normal;font-size:160px;font-family:Arial;fill:#000000;stroke:none"
     id="text22">
    <path
       d="m 7.734375,-55.78125 q 0,-28.515625 15.3125,-44.60938 15.3125,-16.17187 39.53125,-16.17187 15.859375,0 28.59375,7.57812 12.734375,7.57813 19.375005,21.17188 6.71875,13.515625 6.71875,30.703125 0,17.421875 -7.03125,31.171875 -7.03125,13.75 -19.92188,20.859375 -12.890625,7.03125 -27.8125,7.03125 -16.171875,0 -28.90625,-7.8125 -12.734375,-7.8125 -19.296875,-21.328125 -6.5625,-13.515625 -6.5625,-28.59375 z m 15.625,0.234375 q 0,20.703125 11.09375,32.65625 11.171875,11.875 27.96875,11.875 17.109375,0 28.125,-12.03125 11.093755,-12.03125 11.093755,-34.140625 0,-13.984375 -4.76563,-24.375 -4.6875,-10.46875 -13.828125,-16.171875 -9.0625,-5.781255 -20.390625,-5.781255 -16.09375,0 -27.734375,11.093755 -11.5625,11.015625 -11.5625,36.875 z"
       style="font-style:normal;font-weight:normal;font-size:160px;font-family:Arial;fill:#000000;stroke:none"
       id="path863"
       inkscape:connector-curvature="0" />
  </g>
  <path
     stroke="none"
     fill="#000000"
     transform="matrix(0.0666667 0 0 0.0666667 -27.3561 -51)"
     d="M 1209.52,972.657 L 1219.72,972.657 L 1219.72,1122.94 L 1209.52,1122.94 L 1209.52,972.657 Z "
     id="path24" />
  <path
     stroke="none"
     fill="#000000"
     transform="matrix(0.0666667 0 0 0.0666667 -27.3561 -51)"
     d="M 1250.92,972.657 L 1261.12,972.657 L 1261.12,1122.94 L 1250.92,1122.94 L 1250.92,972.657 Z "
     id="path26" />
  <path
     stroke="none"
     fill="#000000"
     transform="matrix(0.0666667 0 0 0.0666667 -27.3561 -51)"
     d="M 836.945,1576.88 L 836.945,1565.1 L 1031.03,1453.04 L 1041.23,1458.94 L 836.945,1576.88 Z "
     id="path28" />
  <path
     stroke="none"
     fill="#000000"
     transform="matrix(0.0666667 0 0 0.0666667 -27.3561 -51)"
     d="M 1041.23,1458.94 L 1031.03,1453.04 L 1031.03,1228.94 L 1036.13,1225.99 L 1041.23,1228.94 L 1041.23,1458.94 Z "
     id="path30" />
  <path
     stroke="none"
     fill="#000000"
     transform="matrix(0.0666667 0 0 0.0666667 -27.3561 -51)"
     d="M 710.004,1503.59 L 715.106,1494.75 L 836.945,1565.1 L 836.945,1576.88 L 710.004,1503.59 Z "
     id="path32" />
  <g
     aria-label="Ph"
     transform="matrix(0.0666667,0,0,0.0666667,77.9992,27.266)"
     style="font-style:normal;font-weight:normal;font-size:160px;font-family:Arial;fill:#000000;stroke:none"
     id="text34">
    <path
       d="m 12.34375,0 v -114.53125 h 43.203125 q 11.40625,0 17.421875,1.09375 8.4375,1.40625 14.140625,5.39062 5.703125,3.90625 9.140625,11.01563 3.515625,7.109375 3.515625,15.625 0,14.609375 -9.296875,24.765625 Q 81.171875,-46.5625 56.875,-46.5625 H 27.5 V 0 Z M 27.5,-60.078125 h 29.609375 q 14.6875,0 20.859375,-5.46875 6.171875,-5.46875 6.171875,-15.390625 0,-7.1875 -3.671875,-12.265625 Q 76.875,-98.359375 70.9375,-100 q -3.828125,-1.01563 -14.140625,-1.01563 H 27.5 Z"
       style="font-style:normal;font-weight:normal;font-size:160px;font-family:Arial;fill:#000000;stroke:none"
       id="path858"
       inkscape:connector-curvature="0" />
    <path
       d="m 117.42188,0 v -114.53125 h 14.06249 v 41.09375 q 9.84375,-11.40625 24.84375,-11.40625 9.21875,0 16.01563,3.671875 6.79687,3.59375 9.6875,10 Q 185,-64.765625 185,-52.578125 V 0 h -14.0625 v -52.578125 q 0,-10.546875 -4.60938,-15.3125 -4.53125,-4.84375 -12.89062,-4.84375 -6.25,0 -11.79688,3.28125 -5.46875,3.203125 -7.8125,8.75 -2.34375,5.546875 -2.34375,15.3125 V 0 Z"
       style="font-style:normal;font-weight:normal;font-size:160px;font-family:Arial;fill:#000000;stroke:none"
       id="path860"
       inkscape:connector-curvature="0" />
  </g>
  <path
     stroke="none"
     fill="#000000"
     transform="matrix(0.0666667 0 0 0.0666667 -27.3561 -51)"
     d="M 1552.8,1151.8 L 1557.91,1160.63 L 1514.39,1185.76 L 1509.29,1176.92 L 1552.8,1151.8 Z "
     id="path36" />
  <g
     aria-label="HO"
     transform="matrix(0.0666667,0,0,0.0666667,3.30963,50.266)"
     style="font-style:normal;font-weight:normal;font-size:160px;font-family:Arial;fill:#000000;stroke:none"
     id="text38">
    <path
       d="M 12.8125,0 V -114.53125 H 27.96875 V -67.5 H 87.5 v -47.03125 h 15.15625 V 0 H 87.5 V -53.984375 H 27.96875 V 0 Z"
       style="font-style:normal;font-weight:normal;font-size:160px;font-family:Arial;fill:#000000;stroke:none"
       id="path853"
       inkscape:connector-curvature="0" />
    <path
       d="m 123.35938,-55.78125 q 0,-28.515625 15.31249,-44.60938 15.3125,-16.17187 39.53125,-16.17187 15.85938,0 28.59375,7.57812 12.73438,7.57813 19.375,21.17188 6.71875,13.515625 6.71875,30.703125 0,17.421875 -7.03125,31.171875 -7.03125,13.75 -19.92187,20.859375 -12.89063,7.03125 -27.8125,7.03125 -16.17188,0 -28.90625,-7.8125 -12.73438,-7.8125 -19.29688,-21.328125 -6.56249,-13.515625 -6.56249,-28.59375 z m 15.62499,0.234375 q 0,20.703125 11.09375,32.65625 11.17188,11.875 27.96875,11.875 17.10938,0 28.125,-12.03125 11.09375,-12.03125 11.09375,-34.140625 0,-13.984375 -4.76562,-24.375 -4.6875,-10.46875 -13.82813,-16.171875 -9.0625,-5.781255 -20.39062,-5.781255 -16.09375,0 -27.73438,11.093755 -11.5625,11.015625 -11.5625,36.875 z"
       style="font-style:normal;font-weight:normal;font-size:160px;font-family:Arial;fill:#000000;stroke:none"
       id="path855"
       inkscape:connector-curvature="0" />
  </g>
  <text
     xml:space="preserve"
     style="font-style:normal;font-weight:normal;font-size:10.66666698px;line-height:1.25;font-family:sans-serif;text-align:start;letter-spacing:0px;word-spacing:0px;text-anchor:start;fill:#000000;fill-opacity:1;stroke:none"
     x="54.784603"
     y="63.075378"
     id="text882"><tspan
       sodipodi:role="line"
       id="tspan880"
       x="54.784603"
       y="63.075378"
       style="text-align:start;text-anchor:start">\cmpd{amidoester-open}, \SI{75}{\percent}</tspan></text>
</svg>
