<?xml version="1.0" encoding="UTF-8" standalone="no"?>
<svg
   xmlns:dc="http://purl.org/dc/elements/1.1/"
   xmlns:cc="http://creativecommons.org/ns#"
   xmlns:rdf="http://www.w3.org/1999/02/22-rdf-syntax-ns#"
   xmlns:svg="http://www.w3.org/2000/svg"
   xmlns="http://www.w3.org/2000/svg"
   xmlns:sodipodi="http://sodipodi.sourceforge.net/DTD/sodipodi-0.dtd"
   xmlns:inkscape="http://www.inkscape.org/namespaces/inkscape"
   width="399px"
   height="82px"
   viewBox="0 0 399 82"
   style="background-color: #ffffff00"
   version="1.1"
   id="svg152"
   sodipodi:docname="amidoester-opt.svg"
   inkscape:version="0.92.4 (5da689c313, 2019-01-14)">
  <metadata
     id="metadata158">
    <rdf:RDF>
      <cc:Work
         rdf:about="">
        <dc:format>image/svg+xml</dc:format>
        <dc:type
           rdf:resource="http://purl.org/dc/dcmitype/StillImage" />
      </cc:Work>
    </rdf:RDF>
  </metadata>
  <defs
     id="defs156" />
  <sodipodi:namedview
     pagecolor="#ffffff"
     bordercolor="#666666"
     borderopacity="1"
     objecttolerance="10"
     gridtolerance="10"
     guidetolerance="10"
     inkscape:pageopacity="0"
     inkscape:pageshadow="2"
     inkscape:window-width="1920"
     inkscape:window-height="1017"
     id="namedview154"
     showgrid="false"
     inkscape:zoom="4.8629098"
     inkscape:cx="119.85245"
     inkscape:cy="9.3037964"
     inkscape:window-x="-8"
     inkscape:window-y="-8"
     inkscape:window-maximized="1"
     inkscape:current-layer="svg152" />
  <g
     aria-label="MeO"
     transform="matrix(0.0666667,0,0,0.0666667,3.07852,53.2)"
     style="font-style:normal;font-weight:normal;font-size:160px;font-family:Arial;fill:#000000;stroke:none"
     id="text2">
    <path
       d="m 11.875,0 v -114.53125 h 22.8125 l 27.109375,81.09375 q 3.75,11.328125 5.46875,16.953125 1.953125,-6.25 6.09375,-18.359375 l 27.421875,-79.6875 h 20.39063 V 0 H 106.5625 V -95.859375 L 73.28125,0 H 59.609375 l -33.125,-97.5 V 0 Z"
       style="font-style:normal;font-weight:normal;font-size:160px;font-family:Arial;fill:#000000;stroke:none"
       id="path1030"
       inkscape:connector-curvature="0" />
    <path
       d="m 200.78125,-26.71875 14.53125,1.796875 q -3.4375,12.734375 -12.73438,19.765625 -9.29687,7.03125 -23.75,7.03125 -18.20312,0 -28.90625,-11.171875 -10.625,-11.25 -10.625,-31.484375 0,-20.9375 10.78125,-32.5 10.78125,-11.5625 27.96875,-11.5625 16.64063,0 27.1875,11.328125 10.54688,11.328125 10.54688,31.875 0,1.25 -0.0781,3.75 h -61.875 q 0.78125,13.671875 7.73438,20.9375 6.95312,7.265625 17.34375,7.265625 7.73437,0 13.20312,-4.0625 5.46875,-4.0625 8.67188,-12.96875 z M 154.60937,-49.453125 H 200.9375 Q 200,-59.921875 195.625,-65.15625 q -6.71875,-8.125 -17.42188,-8.125 -9.6875,0 -16.32812,6.484375 -6.5625,6.484375 -7.26563,17.34375 z"
       style="font-style:normal;font-weight:normal;font-size:160px;font-family:Arial;fill:#000000;stroke:none"
       id="path1032"
       inkscape:connector-curvature="0" />
    <path
       d="m 230.23437,-55.78125 q 0,-28.515625 15.3125,-44.60938 15.3125,-16.17187 39.53125,-16.17187 15.85938,0 28.59375,7.57812 12.73438,7.57813 19.375,21.17188 6.71875,13.515625 6.71875,30.703125 0,17.421875 -7.03125,31.171875 -7.03125,13.75 -19.92187,20.859375 -12.89063,7.03125 -27.8125,7.03125 -16.17188,0 -28.90625,-7.8125 -12.73438,-7.8125 -19.29688,-21.328125 -6.5625,-13.515625 -6.5625,-28.59375 z m 15.625,0.234375 q 0,20.703125 11.09375,32.65625 11.17188,11.875 27.96875,11.875 17.10938,0 28.125,-12.03125 11.09375,-12.03125 11.09375,-34.140625 0,-13.984375 -4.76562,-24.375 -4.6875,-10.46875 -13.82813,-16.171875 -9.0625,-5.781255 -20.39062,-5.781255 -16.09375,0 -27.73438,11.093755 -11.5625,11.015625 -11.5625,36.875 z"
       style="font-style:normal;font-weight:normal;font-size:160px;font-family:Arial;fill:#000000;stroke:none"
       id="path1034"
       inkscape:connector-curvature="0" />
  </g>
  <path
     stroke="none"
     fill="#000000"
     transform="matrix(0.0666667 0 0 0.0666667 -1.62226 -45)"
     d="M 554.34,1289.02 L 554.34,1300.81 L 426.672,1374.51 L 421.57,1365.68 L 554.34,1289.02 Z "
     id="path4" />
  <path
     stroke="none"
     fill="#000000"
     transform="matrix(0.0666667 0 0 0.0666667 -1.62226 -45)"
     d="M 753.675,1404.11 L 753.675,1410 L 746.705,1411.87 L 554.34,1300.81 L 554.34,1289.02 L 753.675,1404.11 Z "
     id="path6" />
  <g
     aria-label="O"
     transform="matrix(0.0666667,0,0,0.0666667,31.1853,30.1827)"
     style="font-style:normal;font-weight:normal;font-size:160px;font-family:Arial;fill:#000000;stroke:none"
     id="text8">
    <path
       d="m 7.734375,-55.78125 q 0,-28.515625 15.3125,-44.60938 15.3125,-16.17187 39.53125,-16.17187 15.859375,0 28.59375,7.57812 12.734375,7.57813 19.375005,21.17188 6.71875,13.515625 6.71875,30.703125 0,17.421875 -7.03125,31.171875 -7.03125,13.75 -19.92188,20.859375 -12.890625,7.03125 -27.8125,7.03125 -16.171875,0 -28.90625,-7.8125 -12.734375,-7.8125 -19.296875,-21.328125 -6.5625,-13.515625 -6.5625,-28.59375 z m 15.625,0.234375 q 0,20.703125 11.09375,32.65625 11.171875,11.875 27.96875,11.875 17.109375,0 28.125,-12.03125 11.093755,-12.03125 11.093755,-34.140625 0,-13.984375 -4.76563,-24.375 -4.6875,-10.46875 -13.828125,-16.171875 -9.0625,-5.781255 -20.390625,-5.781255 -16.09375,0 -27.734375,11.093755 -11.5625,11.015625 -11.5625,36.875 z"
       style="font-style:normal;font-weight:normal;font-size:160px;font-family:Arial;fill:#000000;stroke:none"
       id="path1027"
       inkscape:connector-curvature="0" />
  </g>
  <path
     stroke="none"
     fill="#000000"
     transform="matrix(0.0666667 0 0 0.0666667 -1.62226 -45)"
     d="M 528.522,1156.41 L 538.726,1156.41 L 538.726,1306.87 L 528.522,1306.87 L 528.522,1156.41 Z "
     id="path10" />
  <path
     stroke="none"
     fill="#000000"
     transform="matrix(0.0666667 0 0 0.0666667 -1.62226 -45)"
     d="M 569.953,1156.41 L 580.157,1156.41 L 580.157,1306.87 L 569.953,1306.87 L 569.953,1156.41 Z "
     id="path12" />
  <path
     stroke="none"
     fill="#000000"
     transform="matrix(0.0666667 0 0 0.0666667 -1.62226 -45)"
     d="M 953.011,1289.02 L 953.011,1300.81 L 760.645,1411.87 L 753.675,1410 L 753.675,1404.11 L 953.011,1289.02 Z "
     id="path14" />
  <g
     aria-label="N"
     transform="matrix(0.0666667,0,0,0.0666667,71.3493,53.2)"
     style="font-style:normal;font-weight:normal;font-size:160px;font-family:Arial;fill:#000000;stroke:none"
     id="text16">
    <path
       d="m 12.1875,0 v -114.53125 h 15.546875 l 60.15625,89.921875 V -114.53125 H 102.42188 V 0 H 86.875 L 26.71875,-90 V 0 Z"
       style="font-style:normal;font-weight:normal;font-size:160px;font-family:Arial;fill:#000000;stroke:none"
       id="path1024"
       inkscape:connector-curvature="0" />
  </g>
  <g
     aria-label="H"
     transform="matrix(0.0666667,0,0,0.0666667,71.3493,63.8667)"
     style="font-style:normal;font-weight:normal;font-size:160px;font-family:Arial;fill:#000000;stroke:none"
     id="text18">
    <path
       d="M 12.8125,0 V -114.53125 H 27.96875 V -67.5 H 87.5 v -47.03125 h 15.15625 V 0 H 87.5 V -53.984375 H 27.96875 V 0 Z"
       style="font-style:normal;font-weight:normal;font-size:160px;font-family:Arial;fill:#000000;stroke:none"
       id="path1021"
       inkscape:connector-curvature="0" />
  </g>
  <path
     stroke="none"
     fill="#000000"
     transform="matrix(0.0666667 0 0 0.0666667 -1.62226 -45)"
     d="M 1077.15,1360.69 L 1072.05,1369.53 L 953.011,1300.81 L 953.011,1289.02 L 1077.15,1360.69 Z "
     id="path20" />
  <g
     aria-label="O"
     transform="matrix(0.0666667,0,0,0.0666667,57.7634,30.1827)"
     style="font-style:normal;font-weight:normal;font-size:160px;font-family:Arial;fill:#000000;stroke:none"
     id="text22">
    <path
       d="m 7.734375,-55.78125 q 0,-28.515625 15.3125,-44.60938 15.3125,-16.17187 39.53125,-16.17187 15.859375,0 28.59375,7.57812 12.734375,7.57813 19.375005,21.17188 6.71875,13.515625 6.71875,30.703125 0,17.421875 -7.03125,31.171875 -7.03125,13.75 -19.92188,20.859375 -12.890625,7.03125 -27.8125,7.03125 -16.171875,0 -28.90625,-7.8125 -12.734375,-7.8125 -19.296875,-21.328125 -6.5625,-13.515625 -6.5625,-28.59375 z m 15.625,0.234375 q 0,20.703125 11.09375,32.65625 11.171875,11.875 27.96875,11.875 17.109375,0 28.125,-12.03125 11.093755,-12.03125 11.093755,-34.140625 0,-13.984375 -4.76563,-24.375 -4.6875,-10.46875 -13.828125,-16.171875 -9.0625,-5.781255 -20.390625,-5.781255 -16.09375,0 -27.734375,11.093755 -11.5625,11.015625 -11.5625,36.875 z"
       style="font-style:normal;font-weight:normal;font-size:160px;font-family:Arial;fill:#000000;stroke:none"
       id="path1018"
       inkscape:connector-curvature="0" />
  </g>
  <path
     stroke="none"
     fill="#000000"
     transform="matrix(0.0666667 0 0 0.0666667 -1.62226 -45)"
     d="M 927.193,1156.41 L 937.398,1156.41 L 937.398,1306.87 L 927.193,1306.87 L 927.193,1156.41 Z "
     id="path24" />
  <path
     stroke="none"
     fill="#000000"
     transform="matrix(0.0666667 0 0 0.0666667 -1.62226 -45)"
     d="M 968.624,1156.41 L 978.829,1156.41 L 978.829,1306.87 L 968.624,1306.87 L 968.624,1156.41 Z "
     id="path26" />
  <path
     stroke="none"
     fill="#000000"
     transform="matrix(0.0666667 0 0 0.0666667 -1.62226 -45)"
     d="M 1346.58,1291.97 L 1351.68,1294.91 L 1351.68,1300.81 L 1232.23,1369.77 L 1227.13,1360.93 L 1346.58,1291.97 Z "
     id="path28" />
  <path
     stroke="none"
     fill="#000000"
     transform="matrix(0.0666667 0 0 0.0666667 -1.62226 -45)"
     d="M 647.426,1604.23 L 629.751,1614.44 L 746.705,1411.87 L 753.675,1410 L 753.675,1420.2 L 647.426,1604.23 Z "
     id="path30" />
  <path
     stroke="none"
     fill="#000000"
     transform="matrix(0.0666667 0 0 0.0666667 -1.62226 -45)"
     d="M 859.924,1604.23 L 877.599,1614.44 L 629.751,1614.44 L 647.426,1604.23 L 859.924,1604.23 Z "
     id="path32" />
  <path
     stroke="none"
     fill="#000000"
     transform="matrix(0.0666667 0 0 0.0666667 -1.62226 -45)"
     d="M 753.675,1420.2 L 753.675,1410 L 760.645,1411.87 L 877.599,1614.44 L 859.924,1604.23 L 753.675,1420.2 Z "
     id="path34" />
  <path
     stroke="none"
     fill="#000000"
     transform="matrix(0.0666667 0 0 0.0666667 -1.62226 -45)"
     d="M 1551.02,1404.11 L 1551.02,1415.89 L 1351.68,1300.81 L 1351.68,1294.91 L 1356.78,1291.97 L 1551.02,1404.11 Z "
     id="path36" />
  <path
     stroke="none"
     fill="#000000"
     transform="matrix(0.0666667 0 0 0.0666667 -1.62226 -45)"
     d="M 1553.57,1357.74 L 1548.47,1366.58 L 1390.56,1275.41 L 1395.66,1266.57 L 1553.57,1357.74 Z "
     id="path38" />
  <path
     stroke="none"
     fill="#000000"
     transform="matrix(0.0666667 0 0 0.0666667 -1.62226 -45)"
     d="M 1745.25,1291.97 L 1755.46,1297.86 L 1551.02,1415.89 L 1551.02,1404.11 L 1745.25,1291.97 Z "
     id="path40" />
  <path
     stroke="none"
     fill="#000000"
     transform="matrix(0.0666667 0 0 0.0666667 -1.62226 -45)"
     d="M 1745.25,1067.69 L 1750.35,1064.74 L 1755.46,1067.69 L 1755.46,1297.86 L 1745.25,1291.97 L 1745.25,1067.69 Z "
     id="path42" />
  <path
     stroke="none"
     fill="#000000"
     transform="matrix(0.0666667 0 0 0.0666667 -1.62226 -45)"
     d="M 1703.82,1088.66 L 1714.02,1088.66 L 1714.02,1270.99 L 1703.82,1270.99 L 1703.82,1088.66 Z "
     id="path44" />
  <path
     stroke="none"
     fill="#000000"
     transform="matrix(0.0666667 0 0 0.0666667 -1.62226 -45)"
     d="M 1551.02,955.545 L 1551.02,943.762 L 1750.35,1058.85 L 1750.35,1064.74 L 1745.25,1067.69 L 1551.02,955.545 Z "
     id="path46" />
  <path
     stroke="none"
     fill="#000000"
     transform="matrix(0.0666667 0 0 0.0666667 -1.62226 -45)"
     d="M 1356.78,1067.69 L 1346.58,1061.79 L 1551.02,943.762 L 1551.02,955.545 L 1356.78,1067.69 Z "
     id="path48" />
  <path
     stroke="none"
     fill="#000000"
     transform="matrix(0.0666667 0 0 0.0666667 -1.62226 -45)"
     d="M 1395.66,1093.08 L 1390.56,1084.24 L 1548.47,993.076 L 1553.57,1001.91 L 1395.66,1093.08 Z "
     id="path50" />
  <path
     stroke="none"
     fill="#000000"
     transform="matrix(0.0666667 0 0 0.0666667 -1.62226 -45)"
     d="M 1356.78,1291.97 L 1351.68,1294.91 L 1346.58,1291.97 L 1346.58,1061.79 L 1356.78,1067.69 L 1356.78,1291.97 Z "
     id="path52" />
  <g
     aria-label="O"
     transform="matrix(0.0666667,0,0,0.0666667,124.209,22.5103)"
     style="font-style:normal;font-weight:normal;font-size:160px;font-family:Arial;fill:#000000;stroke:none"
     id="text54">
    <path
       d="m 7.734375,-55.78125 q 0,-28.515625 15.3125,-44.60938 15.3125,-16.17187 39.53125,-16.17187 15.859375,0 28.59375,7.57812 12.734375,7.57813 19.375005,21.17188 6.71875,13.515625 6.71875,30.703125 0,17.421875 -7.03125,31.171875 -7.03125,13.75 -19.92188,20.859375 -12.890625,7.03125 -27.8125,7.03125 -16.171875,0 -28.90625,-7.8125 -12.734375,-7.8125 -19.296875,-21.328125 -6.5625,-13.515625 -6.5625,-28.59375 z m 15.625,0.234375 q 0,20.703125 11.09375,32.65625 11.171875,11.875 27.96875,11.875 17.109375,0 28.125,-12.03125 11.093755,-12.03125 11.093755,-34.140625 0,-13.984375 -4.76563,-24.375 -4.6875,-10.46875 -13.828125,-16.171875 -9.0625,-5.781255 -20.390625,-5.781255 -16.09375,0 -27.734375,11.093755 -11.5625,11.015625 -11.5625,36.875 z"
       style="font-style:normal;font-weight:normal;font-size:160px;font-family:Arial;fill:#000000;stroke:none"
       id="path1015"
       inkscape:connector-curvature="0" />
  </g>
  <path
     stroke="none"
     fill="#000000"
     transform="matrix(0.0666667 0 0 0.0666667 -1.62226 -45)"
     d="M 1872.89,988.102 L 1877.99,996.939 L 1755.46,1067.69 L 1750.35,1064.74 L 1750.35,1058.85 L 1872.89,988.102 Z "
     id="path56" />
  <path
     stroke="none"
     fill="#000000"
     transform="matrix(0.0666667 0 0 0.0666667 -1.62226 -45)"
     d="M 2151.58,1060.32 L 2146.47,1069.16 L 2022.03,997.31 L 2027.13,988.472 L 2151.58,1060.32 Z "
     id="path58" />
  <g
     aria-label="MeO"
     transform="matrix(0.0666667,0,0,0.0666667,257.579,53.2)"
     style="font-style:normal;font-weight:normal;font-size:160px;font-family:Arial;fill:#000000;stroke:none"
     id="text60">
    <path
       d="m 11.875,0 v -114.53125 h 22.8125 l 27.109375,81.09375 q 3.75,11.328125 5.46875,16.953125 1.953125,-6.25 6.09375,-18.359375 l 27.421875,-79.6875 h 20.39063 V 0 H 106.5625 V -95.859375 L 73.28125,0 H 59.609375 l -33.125,-97.5 V 0 Z"
       style="font-style:normal;font-weight:normal;font-size:160px;font-family:Arial;fill:#000000;stroke:none"
       id="path1008"
       inkscape:connector-curvature="0" />
    <path
       d="m 200.78125,-26.71875 14.53125,1.796875 q -3.4375,12.734375 -12.73438,19.765625 -9.29687,7.03125 -23.75,7.03125 -18.20312,0 -28.90625,-11.171875 -10.625,-11.25 -10.625,-31.484375 0,-20.9375 10.78125,-32.5 10.78125,-11.5625 27.96875,-11.5625 16.64063,0 27.1875,11.328125 10.54688,11.328125 10.54688,31.875 0,1.25 -0.0781,3.75 h -61.875 q 0.78125,13.671875 7.73438,20.9375 6.95312,7.265625 17.34375,7.265625 7.73437,0 13.20312,-4.0625 5.46875,-4.0625 8.67188,-12.96875 z M 154.60937,-49.453125 H 200.9375 Q 200,-59.921875 195.625,-65.15625 q -6.71875,-8.125 -17.42188,-8.125 -9.6875,0 -16.32812,6.484375 -6.5625,6.484375 -7.26563,17.34375 z"
       style="font-style:normal;font-weight:normal;font-size:160px;font-family:Arial;fill:#000000;stroke:none"
       id="path1010"
       inkscape:connector-curvature="0" />
    <path
       d="m 230.23437,-55.78125 q 0,-28.515625 15.3125,-44.60938 15.3125,-16.17187 39.53125,-16.17187 15.85938,0 28.59375,7.57812 12.73438,7.57813 19.375,21.17188 6.71875,13.515625 6.71875,30.703125 0,17.421875 -7.03125,31.171875 -7.03125,13.75 -19.92187,20.859375 -12.89063,7.03125 -27.8125,7.03125 -16.17188,0 -28.90625,-7.8125 -12.73438,-7.8125 -19.29688,-21.328125 -6.5625,-13.515625 -6.5625,-28.59375 z m 15.625,0.234375 q 0,20.703125 11.09375,32.65625 11.17188,11.875 27.96875,11.875 17.10938,0 28.125,-12.03125 11.09375,-12.03125 11.09375,-34.140625 0,-13.984375 -4.76562,-24.375 -4.6875,-10.46875 -13.82813,-16.171875 -9.0625,-5.781255 -20.39062,-5.781255 -16.09375,0 -27.73438,11.093755 -11.5625,11.015625 -11.5625,36.875 z"
       style="font-style:normal;font-weight:normal;font-size:160px;font-family:Arial;fill:#000000;stroke:none"
       id="path1012"
       inkscape:connector-curvature="0" />
  </g>
  <path
     stroke="none"
     fill="#000000"
     transform="matrix(0.0666667 0 0 0.0666667 -1.62226 -45)"
     d="M 4371.84,1289.02 L 4371.84,1300.8 L 4244.17,1374.51 L 4239.07,1365.68 L 4371.84,1289.02 Z "
     id="path62" />
  <path
     stroke="none"
     fill="#000000"
     transform="matrix(0.0666667 0 0 0.0666667 -1.62226 -45)"
     d="M 4571.17,1404.11 L 4571.17,1410 L 4564.21,1411.87 L 4371.84,1300.8 L 4371.84,1289.02 L 4571.17,1404.11 Z "
     id="path64" />
  <g
     aria-label="O"
     transform="matrix(0.0666667,0,0,0.0666667,285.685,30.1827)"
     style="font-style:normal;font-weight:normal;font-size:160px;font-family:Arial;fill:#000000;stroke:none"
     id="text66">
    <path
       d="m 7.734375,-55.78125 q 0,-28.515625 15.3125,-44.60938 15.3125,-16.17187 39.53125,-16.17187 15.859375,0 28.59375,7.57812 12.734375,7.57813 19.375005,21.17188 6.71875,13.515625 6.71875,30.703125 0,17.421875 -7.03125,31.171875 -7.03125,13.75 -19.92188,20.859375 -12.890625,7.03125 -27.8125,7.03125 -16.171875,0 -28.90625,-7.8125 -12.734375,-7.8125 -19.296875,-21.328125 -6.5625,-13.515625 -6.5625,-28.59375 z m 15.625,0.234375 q 0,20.703125 11.09375,32.65625 11.171875,11.875 27.96875,11.875 17.109375,0 28.125,-12.03125 11.093755,-12.03125 11.093755,-34.140625 0,-13.984375 -4.76563,-24.375 -4.6875,-10.46875 -13.828125,-16.171875 -9.0625,-5.781255 -20.390625,-5.781255 -16.09375,0 -27.734375,11.093755 -11.5625,11.015625 -11.5625,36.875 z"
       style="font-style:normal;font-weight:normal;font-size:160px;font-family:Arial;fill:#000000;stroke:none"
       id="path1005"
       inkscape:connector-curvature="0" />
  </g>
  <path
     stroke="none"
     fill="#000000"
     transform="matrix(0.0666667 0 0 0.0666667 -1.62226 -45)"
     d="M 4346.02,1156.41 L 4356.23,1156.41 L 4356.23,1306.87 L 4346.02,1306.87 L 4346.02,1156.41 Z "
     id="path68" />
  <path
     stroke="none"
     fill="#000000"
     transform="matrix(0.0666667 0 0 0.0666667 -1.62226 -45)"
     d="M 4387.45,1156.41 L 4397.66,1156.41 L 4397.66,1306.87 L 4387.45,1306.87 L 4387.45,1156.41 Z "
     id="path70" />
  <path
     stroke="none"
     fill="#000000"
     transform="matrix(0.0666667 0 0 0.0666667 -1.62226 -45)"
     d="M 4765.41,1291.97 L 4770.51,1294.91 L 4770.51,1300.8 L 4578.14,1411.87 L 4571.17,1410 L 4571.17,1404.11 L 4765.41,1291.97 Z "
     id="path72" />
  <g
     aria-label="N"
     transform="matrix(0.0666667,0,0,0.0666667,325.849,53.2)"
     style="font-style:normal;font-weight:normal;font-size:160px;font-family:Arial;fill:#000000;stroke:none"
     id="text74">
    <path
       d="m 12.1875,0 v -114.53125 h 15.546875 l 60.15625,89.921875 V -114.53125 H 102.42188 V 0 H 86.875 L 26.71875,-90 V 0 Z"
       style="font-style:normal;font-weight:normal;font-size:160px;font-family:Arial;fill:#000000;stroke:none"
       id="path1002"
       inkscape:connector-curvature="0" />
  </g>
  <g
     aria-label="H"
     transform="matrix(0.0666667,0,0,0.0666667,325.849,63.8667)"
     style="font-style:normal;font-weight:normal;font-size:160px;font-family:Arial;fill:#000000;stroke:none"
     id="text76">
    <path
       d="M 12.8125,0 V -114.53125 H 27.96875 V -67.5 H 87.5 v -47.03125 h 15.15625 V 0 H 87.5 V -53.984375 H 27.96875 V 0 Z"
       style="font-style:normal;font-weight:normal;font-size:160px;font-family:Arial;fill:#000000;stroke:none"
       id="path999"
       inkscape:connector-curvature="0" />
  </g>
  <path
     stroke="none"
     fill="#000000"
     transform="matrix(0.0666667 0 0 0.0666667 -1.62226 -45)"
     d="M 4894.65,1360.69 L 4889.55,1369.53 L 4770.51,1300.8 L 4770.51,1294.91 L 4775.61,1291.97 L 4894.65,1360.69 Z "
     id="path78" />
  <path
     stroke="none"
     fill="#cc79a7"
     transform="matrix(0.0666667 0 0 0.0666667 -1.62226 -45)"
     d="M 4964.74,719.481 L 4974.95,719.481 L 4974.95,952.6 L 4964.74,946.708 L 4964.74,719.481 Z "
     id="path80" />
  <path
     stroke="none"
     fill="#cc79a7"
     transform="matrix(0.0666667 0 0 0.0666667 -1.62226 -45)"
     d="M 4923.31,719.481 L 4933.52,719.481 L 4933.52,925.733 L 4923.31,925.733 L 4923.31,719.481 Z "
     id="path82" />
  <path
     stroke="none"
     fill="#cc79a7"
     transform="matrix(0.0666667 0 0 0.0666667 -1.62226 -45)"
     d="M 4765.41,1061.79 L 4775.61,1067.69 L 4775.61,1291.97 L 4770.51,1294.91 L 4765.41,1291.97 L 4765.41,1061.79 Z "
     id="path84" />
  <path
     stroke="none"
     fill="#000000"
     transform="matrix(0.0666667 0 0 0.0666667 -1.62226 -45)"
     d="M 5164.08,1291.97 L 5169.18,1294.91 L 5169.18,1300.8 L 5049.73,1369.77 L 5044.63,1360.93 L 5164.08,1291.97 Z "
     id="path86" />
  <path
     stroke="none"
     fill="#000000"
     transform="matrix(0.0666667 0 0 0.0666667 -1.62226 -45)"
     d="M 4464.93,1604.23 L 4447.25,1614.44 L 4564.21,1411.87 L 4571.17,1410 L 4571.17,1420.2 L 4464.93,1604.23 Z "
     id="path88" />
  <path
     stroke="none"
     fill="#000000"
     transform="matrix(0.0666667 0 0 0.0666667 -1.62226 -45)"
     d="M 4677.42,1604.23 L 4695.1,1614.44 L 4447.25,1614.44 L 4464.93,1604.23 L 4677.42,1604.23 Z "
     id="path90" />
  <path
     stroke="none"
     fill="#000000"
     transform="matrix(0.0666667 0 0 0.0666667 -1.62226 -45)"
     d="M 4571.17,1420.2 L 4571.17,1410 L 4578.14,1411.87 L 4695.1,1614.44 L 4677.42,1604.23 L 4571.17,1420.2 Z "
     id="path92" />
  <path
     stroke="none"
     fill="#000000"
     transform="matrix(0.0666667 0 0 0.0666667 -1.62226 -45)"
     d="M 5368.52,1404.11 L 5368.52,1415.89 L 5169.18,1300.8 L 5169.18,1294.91 L 5174.28,1291.97 L 5368.52,1404.11 Z "
     id="path94" />
  <path
     stroke="none"
     fill="#000000"
     transform="matrix(0.0666667 0 0 0.0666667 -1.62226 -45)"
     d="M 5371.07,1357.74 L 5365.97,1366.58 L 5208.06,1275.41 L 5213.16,1266.57 L 5371.07,1357.74 Z "
     id="path96" />
  <path
     stroke="none"
     fill="#000000"
     transform="matrix(0.0666667 0 0 0.0666667 -1.62226 -45)"
     d="M 5562.75,1291.97 L 5572.96,1297.86 L 5368.52,1415.89 L 5368.52,1404.11 L 5562.75,1291.97 Z "
     id="path98" />
  <path
     stroke="none"
     fill="#000000"
     transform="matrix(0.0666667 0 0 0.0666667 -1.62226 -45)"
     d="M 5562.75,1067.69 L 5567.85,1064.74 L 5572.96,1067.69 L 5572.96,1297.86 L 5562.75,1291.97 L 5562.75,1067.69 Z "
     id="path100" />
  <path
     stroke="none"
     fill="#000000"
     transform="matrix(0.0666667 0 0 0.0666667 -1.62226 -45)"
     d="M 5521.32,1088.66 L 5531.52,1088.66 L 5531.52,1270.99 L 5521.32,1270.99 L 5521.32,1088.66 Z "
     id="path102" />
  <path
     stroke="none"
     fill="#000000"
     transform="matrix(0.0666667 0 0 0.0666667 -1.62226 -45)"
     d="M 5368.52,955.545 L 5368.52,943.762 L 5567.85,1058.85 L 5567.85,1064.74 L 5562.75,1067.69 L 5368.52,955.545 Z "
     id="path104" />
  <path
     stroke="none"
     fill="#000000"
     transform="matrix(0.0666667 0 0 0.0666667 -1.62226 -45)"
     d="M 5174.28,1067.69 L 5164.08,1061.79 L 5368.52,943.762 L 5368.52,955.545 L 5174.28,1067.69 Z "
     id="path106" />
  <path
     stroke="none"
     fill="#000000"
     transform="matrix(0.0666667 0 0 0.0666667 -1.62226 -45)"
     d="M 5213.16,1093.08 L 5208.06,1084.24 L 5365.97,993.076 L 5371.07,1001.91 L 5213.16,1093.08 Z "
     id="path108" />
  <path
     stroke="none"
     fill="#000000"
     transform="matrix(0.0666667 0 0 0.0666667 -1.62226 -45)"
     d="M 5174.28,1291.97 L 5169.18,1294.91 L 5164.08,1291.97 L 5164.08,1061.79 L 5174.28,1067.69 L 5174.28,1291.97 Z "
     id="path110" />
  <g
     aria-label="O"
     transform="matrix(0.0666667,0,0,0.0666667,378.709,22.5102)"
     style="font-style:normal;font-weight:normal;font-size:160px;font-family:Arial;fill:#000000;stroke:none"
     id="text112">
    <path
       d="m 7.734375,-55.78125 q 0,-28.515625 15.3125,-44.60938 15.3125,-16.17187 39.53125,-16.17187 15.859375,0 28.59375,7.57812 12.734375,7.57813 19.375005,21.17188 6.71875,13.515625 6.71875,30.703125 0,17.421875 -7.03125,31.171875 -7.03125,13.75 -19.92188,20.859375 -12.890625,7.03125 -27.8125,7.03125 -16.171875,0 -28.90625,-7.8125 -12.734375,-7.8125 -19.296875,-21.328125 -6.5625,-13.515625 -6.5625,-28.59375 z m 15.625,0.234375 q 0,20.703125 11.09375,32.65625 11.171875,11.875 27.96875,11.875 17.109375,0 28.125,-12.03125 11.093755,-12.03125 11.093755,-34.140625 0,-13.984375 -4.76563,-24.375 -4.6875,-10.46875 -13.828125,-16.171875 -9.0625,-5.781255 -20.390625,-5.781255 -16.09375,0 -27.734375,11.093755 -11.5625,11.015625 -11.5625,36.875 z"
       style="font-style:normal;font-weight:normal;font-size:160px;font-family:Arial;fill:#000000;stroke:none"
       id="path996"
       inkscape:connector-curvature="0" />
  </g>
  <path
     stroke="none"
     fill="#000000"
     transform="matrix(0.0666667 0 0 0.0666667 -1.62226 -45)"
     d="M 5690.39,988.101 L 5695.49,996.939 L 5572.96,1067.69 L 5567.85,1064.74 L 5567.85,1058.85 L 5690.39,988.101 Z "
     id="path114" />
  <path
     stroke="none"
     fill="#000000"
     transform="matrix(0.0666667 0 0 0.0666667 -1.62226 -45)"
     d="M 5969.08,1060.32 L 5963.97,1069.16 L 5839.53,997.309 L 5844.63,988.472 L 5969.08,1060.32 Z "
     id="path116" />
  <path
     stroke="none"
     fill="#cc79a7"
     transform="matrix(0.0666667 0 0 0.0666667 -1.62226 -45)"
     d="M 4964.74,946.708 L 4974.95,952.6 L 4775.61,1067.69 L 4765.41,1061.79 L 4964.74,946.708 Z "
     id="path118" />
  <path
     stroke="none"
     fill="#000000"
     transform="matrix(0.0666667 0 0 0.0666667 -1.62226 -45)"
     d="M 3634.21,1302.5 L 2320,1302.5 L 2320,1292.5 L 3634.21,1292.5 Z "
     id="path120" />
  <path
     stroke="none"
     fill="#000000"
     transform="matrix(0.0666667 0 0 0.0666667 -1.62226 -45)"
     d="M 3722.5,1297.5 C 3722.5,1297.5 3620.46,1324.01 3620.46,1324.01 C 3620.46,1324.01 3633.21,1309.1 3633.21,1297.5 C 3633.21,1285.46 3620.46,1269.99 3620.46,1269.99 C 3620.46,1269.99 3722.5,1297.5 3722.5,1297.5 C 3722.5,1297.5 3722.5,1297.5 3722.5,1297.5 "
     id="path122" />
  <path
     stroke="#000000"
     stroke-width="1"
     fill="none"
     transform="matrix(0.0666667 0 0 0.0666667 -1.62226 -45)"
     d="M 3722.5,1297.5 C 3722.5,1297.5 3620.46,1324.01 3620.46,1324.01 C 3620.46,1324.01 3633.21,1309.1 3633.21,1297.5 C 3633.21,1285.46 3620.46,1269.99 3620.46,1269.99 C 3620.46,1269.99 3722.5,1297.5 3722.5,1297.5 C 3722.5,1297.5 3722.5,1297.5 3722.5,1297.5 "
     id="path124" />
  <g
     aria-label="1)"
     transform="matrix(0.0666667,0,0,0.0666667,157.545,33.5)"
     style="font-style:normal;font-weight:normal;font-size:160px;font-family:Arial;fill:#000000;stroke:none"
     id="text126">
    <path
       d="m 59.609375,0 h -14.0625 v -89.609375 q -5.078125,4.84375 -13.359375,9.6875 -8.203125,4.84375 -14.765625,7.265625 V -86.25 q 11.796875,-5.546875 20.625,-13.4375 8.828125,-7.89063 12.5,-15.3125 h 9.0625 z"
       style="font-style:normal;font-weight:normal;font-size:160px;font-family:Arial;fill:#000000;stroke:none"
       id="path922"
       inkscape:connector-curvature="0" />
    <path
       d="M 108.82813,33.671875 H 98.75 q 23.35938,-37.5 23.35938,-75.078125 0,-14.6875 -3.35938,-29.140625 -2.65625,-11.71875 -7.42187,-22.5 -3.04688,-7.031255 -12.57813,-23.437505 h 10.07813 q 14.6875,19.60938 21.71874,39.375005 6.01563,17.03125 6.01563,35.625 0,21.09375 -8.125,40.78125 -8.04687,19.6875 -19.60937,34.375 z"
       style="font-style:normal;font-weight:normal;font-size:160px;font-family:Arial;fill:#000000;stroke:none"
       id="path924"
       inkscape:connector-curvature="0" />
  </g>
  <g
     aria-label="Cp"
     transform="matrix(0.0666667,0,0,0.0666667,169.404,33.5)"
     style="font-style:normal;font-weight:normal;font-size:160px;font-family:Arial;fill:#000000;stroke:none"
     id="text128">
    <path
       d="m 94.0625,-40.15625 15.15625,3.828125 Q 104.45313,-17.65625 92.03125,-7.8125 79.6875,1.953125 61.796875,1.953125 q -18.515625,0 -30.15625,-7.5 -11.5625,-7.578125 -17.65625,-21.875 Q 7.96875,-41.71875 7.96875,-58.125 q 0,-17.890625 6.796875,-31.171875 6.875,-13.359375 19.453125,-20.234375 12.65625,-6.95313 27.8125,-6.95313 17.1875,0 28.90625,8.75 11.71875,8.750005 16.32813,24.60938 l -14.92188,3.515625 q -3.984375,-12.5 -11.5625,-18.203125 -7.578125,-5.70313 -19.0625,-5.70313 -13.203125,0 -22.109375,6.32813 -8.828125,6.328125 -12.421875,17.03125 -3.59375,10.625 -3.59375,21.953125 0,14.609375 4.21875,25.546875 4.296875,10.859375 13.28125,16.25 8.984375,5.390625 19.453125,5.390625 12.734375,0 21.5625,-7.34375 8.828125,-7.34375 11.953125,-21.796875 z"
       style="font-style:normal;font-weight:normal;font-size:160px;font-family:Arial;fill:#000000;stroke:none"
       id="path991"
       inkscape:connector-curvature="0" />
    <path
       d="M 126.17188,31.796875 V -82.96875 h 12.81249 v 10.78125 q 4.53125,-6.328125 10.23438,-9.453125 5.70312,-3.203125 13.82812,-3.203125 10.625,0 18.75,5.46875 8.125,5.46875 12.26563,15.46875 4.14062,9.921875 4.14062,21.796875 0,12.734375 -4.60937,22.96875 -4.53125,10.15625 -13.28125,15.625 Q 171.64062,1.875 162.03125,1.875 155,1.875 149.375,-1.09375 q -5.54688,-2.96875 -9.14063,-7.5 v 40.390625 z m 12.73437,-72.8125 q 0,16.015625 6.48437,23.671875 6.48438,7.65625 15.70313,7.65625 9.375,0 16.01562,-7.890625 6.71875,-7.96875 6.71875,-24.609375 0,-15.859375 -6.5625,-23.75 -6.48437,-7.890625 -15.54687,-7.890625 -8.98438,0 -15.9375,8.4375 -6.875,8.359375 -6.875,24.375 z"
       style="font-style:normal;font-weight:normal;font-size:160px;font-family:Arial;fill:#000000;stroke:none"
       id="path993"
       inkscape:connector-curvature="0" />
  </g>
  <g
     aria-label="2"
     transform="matrix(0.0666667,0,0,0.0666667,183.039,35.7667)"
     style="font-style:normal;font-weight:normal;font-size:120px;font-family:Arial;fill:#000000;stroke:none"
     id="text130">
    <path
       d="M 60.410156,-10.136719 V 0 H 3.6328125 Q 3.515625,-3.8085938 4.8632812,-7.3242187 7.03125,-13.125 11.777344,-18.75 q 4.804687,-5.625 13.828125,-13.007812 14.003906,-11.484375 18.925781,-18.164063 4.921875,-6.738281 4.921875,-12.714844 0,-6.269531 -4.511719,-10.546875 -4.453125,-4.335937 -11.660156,-4.335937 -7.617188,0 -12.1875,4.570312 -4.570313,4.570313 -4.628906,12.65625 L 5.625,-61.40625 Q 6.7382812,-73.535156 14.003906,-79.863281 21.269531,-86.25 33.515625,-86.25 q 12.363281,0 19.570312,6.855469 7.207032,6.855469 7.207032,16.992187 0,5.15625 -2.109375,10.136719 -2.109375,4.980469 -7.03125,10.488281 -4.863282,5.507813 -16.230469,15.117188 -9.492188,7.96875 -12.1875,10.839843 -2.695313,2.8125 -4.453125,5.683594 z"
       style="font-style:normal;font-weight:normal;font-size:120px;font-family:Arial;fill:#000000;stroke:none"
       id="path988"
       inkscape:connector-curvature="0" />
  </g>
  <g
     aria-label="ZrHCl"
     transform="matrix(0.0666667,0,0,0.0666667,187.489,33.5)"
     style="font-style:normal;font-weight:normal;font-size:160px;font-family:Arial;fill:#000000;stroke:none"
     id="text132">
    <path
       d="M 3.203125,0 V -14.0625 L 61.875,-87.421875 q 6.25,-7.8125 11.875,-13.593755 H 9.84375 v -13.51562 H 91.875 v 13.51562 L 27.578125,-21.5625 20.625,-13.515625 H 93.75 V 0 Z"
       style="font-style:normal;font-weight:normal;font-size:160px;font-family:Arial;fill:#000000;stroke:none"
       id="path977"
       inkscape:connector-curvature="0" />
    <path
       d="m 108.20313,0 v -82.96875 h 12.65625 v 12.578125 q 4.84375,-8.828125 8.90624,-11.640625 4.14063,-2.8125 9.0625,-2.8125 7.10938,0 14.45313,4.53125 l -4.84375,13.046875 q -5.15625,-3.046875 -10.3125,-3.046875 -4.60938,0 -8.28125,2.8125 -3.67187,2.734375 -5.23437,7.65625 -2.34375,7.5 -2.34375,16.40625 V 0 Z"
       style="font-style:normal;font-weight:normal;font-size:160px;font-family:Arial;fill:#000000;stroke:none"
       id="path979"
       inkscape:connector-curvature="0" />
    <path
       d="m 164.0625,0 v -114.53125 h 15.15625 V -67.5 H 238.75 v -47.03125 h 15.15625 V 0 H 238.75 V -53.984375 H 179.21875 V 0 Z"
       style="font-style:normal;font-weight:normal;font-size:160px;font-family:Arial;fill:#000000;stroke:none"
       id="path981"
       inkscape:connector-curvature="0" />
    <path
       d="m 360.9375,-40.15625 15.15625,3.828125 q -4.76563,18.671875 -17.1875,28.515625 -12.34375,9.765625 -30.23438,9.765625 -18.51562,0 -30.15625,-7.5 -11.5625,-7.578125 -17.65625,-21.875 -6.01562,-14.296875 -6.01562,-30.703125 0,-17.890625 6.79687,-31.171875 6.875,-13.359375 19.45313,-20.234375 12.65625,-6.95313 27.8125,-6.95313 17.1875,0 28.90625,8.75 11.71875,8.750005 16.32812,24.60938 l -14.92187,3.515625 q -3.98438,-12.5 -11.5625,-18.203125 -7.57813,-5.70313 -19.0625,-5.70313 -13.20313,0 -22.10938,6.32813 -8.82812,6.328125 -12.42187,17.03125 -3.59375,10.625 -3.59375,21.953125 0,14.609375 4.21875,25.546875 4.29687,10.859375 13.28125,16.25 8.98437,5.390625 19.45312,5.390625 12.73438,0 21.5625,-7.34375 8.82813,-7.34375 11.95313,-21.796875 z"
       style="font-style:normal;font-weight:normal;font-size:160px;font-family:Arial;fill:#000000;stroke:none"
       id="path983"
       inkscape:connector-curvature="0" />
    <path
       d="m 392.73437,0 v -114.53125 h 14.0625 V 0 Z"
       style="font-style:normal;font-weight:normal;font-size:160px;font-family:Arial;fill:#000000;stroke:none"
       id="path985"
       inkscape:connector-curvature="0" />
  </g>
  <g
     aria-label="2)"
     transform="matrix(0.0666667,0,0,0.0666667,158.545,55.5)"
     style="font-style:normal;font-weight:normal;font-size:160px;font-family:Arial;fill:#000000;stroke:none"
     id="text134">
    <path
       d="M 80.546875,-13.515625 V 0 H 4.84375 Q 4.6875,-5.078125 6.484375,-9.765625 9.375,-17.5 15.703125,-25 q 6.40625,-7.5 18.4375,-17.34375 Q 52.8125,-57.65625 59.375,-66.5625 q 6.5625,-8.984375 6.5625,-16.953125 0,-8.359375 -6.015625,-14.0625 -5.9375,-5.781255 -15.546875,-5.781255 -10.15625,0 -16.25,6.093755 -6.09375,6.09375 -6.171875,16.875 L 7.5,-81.875 Q 8.984375,-98.046875 18.671875,-106.48438 28.359375,-115 44.6875,-115 q 16.484375,0 26.09375,9.14062 9.609375,9.14063 9.609375,22.656255 0,6.875 -2.8125,13.515625 -2.8125,6.640625 -9.375,13.984375 -6.484375,7.34375 -21.640625,20.15625 -12.65625,10.625 -16.25,14.453125 -3.59375,3.75 -5.9375,7.578125 z"
       style="font-style:normal;font-weight:normal;font-size:160px;font-family:Arial;fill:#000000;stroke:none"
       id="path917"
       inkscape:connector-curvature="0" />
    <path
       d="M 108.82813,33.671875 H 98.75 q 23.35938,-37.5 23.35938,-75.078125 0,-14.6875 -3.35938,-29.140625 -2.65625,-11.71875 -7.42187,-22.5 -3.04688,-7.031255 -12.57813,-23.437505 h 10.07813 q 14.6875,19.60938 21.71874,39.375005 6.01563,17.03125 6.01563,35.625 0,21.09375 -8.125,40.78125 -8.04687,19.6875 -19.60937,34.375 z"
       style="font-style:normal;font-weight:normal;font-size:160px;font-family:Arial;fill:#000000;stroke:none"
       id="path919"
       inkscape:connector-curvature="0" />
  </g>
  <text
     x="0"
     y="0"
     transform="matrix(0.0666667,0,0,0.0666667,170.404,55.5)"
     font-style="normal"
     font-weight="normal"
     font-size="160px"
     id="text136"
     style="font-style:normal;font-weight:normal;font-size:160px;font-family:Arial;fill:#000000;stroke:none">Kwas Lewisa</text>
  <path
     d="m 180.33383,65.934723 v 0.786001 l -13.11934,7.574003 -0.34,-0.589333 z"
     id="path140"
     inkscape:connector-curvature="0"
     style="fill:#cc79a7;stroke:none;stroke-width:0.0666667" />
  <path
     d="m 180.16383,69.222725 0.34,0.588667 -11.908,6.875337 -0.34001,-0.589334 z"
     id="path142"
     inkscape:connector-curvature="0"
     style="fill:#cc79a7;stroke:none;stroke-width:0.0666667" />
  <path
     d="m 193.62317,73.607394 v 0.785333 l -13.28934,-7.672003 v -0.786001 z"
     id="path144"
     inkscape:connector-curvature="0"
     style="fill:#cc79a7;stroke:none;stroke-width:0.0666667" />
  <g
     aria-label="SnBu"
     transform="matrix(0.0666667,0,0,0.0666667,203.355,70.5276)"
     style="font-style:normal;font-weight:normal;font-size:160px;font-family:Arial;fill:#cc79a7;stroke:none"
     id="text146">
    <path
       d="m 7.1875,-36.796875 14.296875,-1.25 q 1.015625,8.59375 4.6875,14.140625 3.75,5.46875 11.5625,8.90625 7.8125,3.359375 17.578125,3.359375 8.671875,0 15.3125,-2.578125 6.640625,-2.578125 9.84375,-7.03125 3.28125,-4.53125 3.28125,-9.84375 0,-5.390625 -3.125,-9.375 Q 77.5,-44.53125 70.3125,-47.265625 65.703125,-49.0625 49.921875,-52.8125 34.140625,-56.640625 27.8125,-60 19.609375,-64.296875 15.546875,-70.625 11.5625,-77.03125 11.5625,-84.921875 q 0,-8.671875 4.921875,-16.171875 4.921875,-7.57813 14.375,-11.48438 9.453125,-3.90625 21.015625,-3.90625 12.734375,0 22.421875,4.14063 9.765625,4.0625 15,12.03125 5.234375,7.96875 5.625,18.046875 l -14.53125,1.09375 Q 79.21875,-92.03125 72.421875,-97.578125 65.703125,-103.125 52.5,-103.125 q -13.75,0 -20.078125,5.078125 -6.25,5 -6.25,12.109375 0,6.171875 4.453125,10.15625 4.375,3.984375 22.8125,8.203125 18.515625,4.140625 25.390625,7.265625 10,4.609375 14.765625,11.71875 4.765625,7.03125 4.765625,16.25 0,9.140625 -5.234375,17.265625 Q 87.890625,-7.03125 78.046875,-2.5 68.28125,1.953125 56.015625,1.953125 q -15.546875,0 -26.09375,-4.53125 -10.46875,-4.53125 -16.484375,-13.59375 -5.9375,-9.140625 -6.25,-20.625 z"
       style="font-style:normal;font-weight:normal;font-size:160px;font-family:Arial;fill:#cc79a7;stroke:none"
       id="path968"
       inkscape:connector-curvature="0" />
    <path
       d="m 117.42188,0 v -82.96875 h 12.65624 v 11.796875 q 9.14063,-13.671875 26.40625,-13.671875 7.5,0 13.75,2.734375 6.32813,2.65625 9.45313,7.03125 3.125,4.375 4.375,10.390625 0.78125,3.90625 0.78125,13.671875 V 0 h -14.0625 v -50.46875 q 0,-8.59375 -1.64063,-12.8125 -1.64062,-4.296875 -5.85937,-6.796875 -4.14063,-2.578125 -9.76563,-2.578125 -8.98437,0 -15.54687,5.703125 -6.48438,5.703125 -6.48438,21.640625 V 0 Z"
       style="font-style:normal;font-weight:normal;font-size:160px;font-family:Arial;fill:#cc79a7;stroke:none"
       id="path970"
       inkscape:connector-curvature="0" />
    <path
       d="M 207.65625,0 V -114.53125 H 250.625 q 13.125,0 21.01562,3.51562 7.96875,3.4375 12.42188,10.70313 4.53125,7.1875 4.53125,15.078125 0,7.34375 -3.98438,13.828125 -3.98437,6.484375 -12.03125,10.46875 10.39063,3.046875 15.9375,10.390625 5.625,7.34375 5.625,17.34375 0,8.046875 -3.4375,15 -3.35937,6.875 -8.35937,10.625 -5,3.75 -12.57813,5.703125 -7.5,1.875 -18.4375,1.875 z m 15.15625,-66.40625 h 24.76562 q 10.07813,0 14.45313,-1.328125 5.78125,-1.71875 8.67187,-5.703125 2.96875,-3.984375 2.96875,-10 0,-5.703125 -2.73437,-10 -2.73438,-4.375 -7.8125,-5.9375 -5.07813,-1.64063 -17.42188,-1.64063 H 222.8125 Z m 0,52.890625 h 28.51562 q 7.34375,0 10.3125,-0.546875 5.23438,-0.9375 8.75,-3.125 3.51563,-2.1875 5.78125,-6.328125 2.26563,-4.21875 2.26563,-9.6875 0,-6.40625 -3.28125,-11.09375 -3.28125,-4.765625 -9.14063,-6.640625 -5.78125,-1.953125 -16.71875,-1.953125 H 222.8125 Z"
       style="font-style:normal;font-weight:normal;font-size:160px;font-family:Arial;fill:#cc79a7;stroke:none"
       id="path972"
       inkscape:connector-curvature="0" />
    <path
       d="m 367.73437,0 v -12.1875 q -9.6875,14.0625 -26.32812,14.0625 -7.34375,0 -13.75,-2.8125 -6.32813,-2.8125 -9.45313,-7.03125 -3.04687,-4.296875 -4.29687,-10.46875 -0.85938,-4.140625 -0.85938,-13.125 v -51.40625 h 14.0625 v 46.015625 q 0,11.015625 0.85938,14.84375 1.32812,5.546875 5.625,8.75 4.29687,3.125 10.625,3.125 6.32812,0 11.875,-3.203125 5.54687,-3.28125 7.8125,-8.828125 2.34375,-5.625 2.34375,-16.25 V -82.96875 h 14.0625 V 0 Z"
       style="font-style:normal;font-weight:normal;font-size:160px;font-family:Arial;fill:#cc79a7;stroke:none"
       id="path974"
       inkscape:connector-curvature="0" />
  </g>
  <g
     aria-label="3"
     transform="matrix(0.0666667,0,0,0.0666667,229.448,72.7942)"
     style="font-style:normal;font-weight:normal;font-size:120px;font-family:Arial;fill:#cc79a7;stroke:none"
     id="text148">
    <path
       d="m 5.0390625,-22.675781 10.5468755,-1.40625 q 1.816406,8.964843 6.152343,12.949218 4.394531,3.9257818 10.664063,3.9257818 7.441406,0 12.539062,-5.1562498 5.15625,-5.15625 5.15625,-12.773438 0,-7.265625 -4.746094,-11.953125 -4.746093,-4.746093 -12.070312,-4.746093 -2.988281,0 -7.441406,1.171875 l 1.171875,-9.257813 q 1.054687,0.117188 1.699218,0.117188 6.738282,0 12.128907,-3.515625 5.390625,-3.515625 5.390625,-10.839844 0,-5.800781 -3.925782,-9.609375 -3.925781,-3.808594 -10.136718,-3.808594 -6.152344,0 -10.253907,3.867188 -4.101562,3.867187 -5.273437,11.601562 l -10.546875,-1.875 Q 8.0273438,-74.589844 14.882813,-80.390625 21.738281,-86.25 31.933594,-86.25 q 7.03125,0 12.949218,3.046875 5.917969,2.988281 9.023438,8.203125 3.164062,5.214844 3.164062,11.074219 0,5.566406 -2.988281,10.136719 -2.988281,4.570312 -8.847656,7.265625 7.617187,1.757812 11.835937,7.324218 4.21875,5.507813 4.21875,13.828125 0,11.25 -8.203125,19.1015628 -8.203125,7.7929687 -20.742187,7.7929687 -11.308594,0 -18.808594,-6.7382812 Q 6.09375,-11.953125 5.0390625,-22.675781 Z"
       style="font-style:normal;font-weight:normal;font-size:120px;font-family:Arial;fill:#cc79a7;stroke:none"
       id="path965"
       inkscape:connector-curvature="0" />
  </g>
  <path
     d="m 201.87584,68.842725 0.34,0.588667 -8.59267,4.961335 v -0.785333 z"
     id="path150"
     inkscape:connector-curvature="0"
     style="fill:#cc79a7;stroke:none;stroke-width:0.0666667" />
  <text
     xml:space="preserve"
     style="font-style:normal;font-weight:normal;font-size:10.66666698px;line-height:1.25;font-family:sans-serif;text-align:start;letter-spacing:0px;word-spacing:0px;text-anchor:start;fill:#000000;fill-opacity:1;stroke:none"
     x="114.33483"
     y="62.670013"
     id="text1039"><tspan
       sodipodi:role="line"
       id="tspan1037"
       x="114.33483"
       y="62.670013">\cmpd{amidoester-cycloprop}</tspan></text>
  <text
     xml:space="preserve"
     style="font-style:normal;font-weight:normal;font-size:10.66666698px;line-height:1.25;font-family:sans-serif;text-align:start;letter-spacing:0px;word-spacing:0px;text-anchor:start;fill:#000000;fill-opacity:1;stroke:none"
     x="368.09238"
     y="62.670013"
     id="text1039-3"><tspan
       sodipodi:role="line"
       id="tspan1037-9"
       x="368.09238"
       y="62.670013">\cmpd{b-aminoacid-cycloprop.vinyl}</tspan></text>
</svg>
