<?xml version="1.0" standalone="no" ?>
<!DOCTYPE svg PUBLIC "-//W3C//DTD SVG 1.1//EN" "http://www.w3.org/Graphics/SVG/1.1/DTD/svg11.dtd">
<svg width="182px" height="82px" viewBox="0 0 182 82" style="background-color: #ffffff00" xmlns="http://www.w3.org/2000/svg" xmlns:xlink="http://www.w3.org/1999/xlink" version="1.1" >
<text x="0" y="0" stroke="none" fill="#000000" transform="matrix(0.0666667 0 0 0.0666667 56.183 19.7175)" font-style="normal" font-weight="normal" font-size="160px" font-family="Arial" >
H</text>
<text x="0" y="0" stroke="none" fill="#000000" transform="matrix(0.0666667 0 0 0.0666667 56.183 30.3841)" font-style="normal" font-weight="normal" font-size="160px" font-family="Arial" >
N</text>
<path stroke="none" fill="#000000" transform="matrix(0.0666667 0 0 0.0666667 -1.08945 -44)" d="M 721.932,1396.28 L 711.727,1402.17 L 711.727,1171.46 L 716.83,1168.25 L 721.932,1171.19 L 721.932,1396.28 Z " />
<path stroke="none" fill="#000000" transform="matrix(0.0666667 0 0 0.0666667 -1.08945 -44)" d="M 916.859,1508.82 L 916.859,1514.71 L 911.422,1517.46 L 711.727,1402.17 L 721.932,1396.28 L 916.859,1508.82 Z " />
<path stroke="none" fill="#000000" transform="matrix(0.0666667 0 0 0.0666667 -1.08945 -44)" d="M 1111.79,1396.28 L 1121.99,1402.17 L 922.297,1517.46 L 916.859,1514.71 L 916.859,1508.82 L 1111.79,1396.28 Z " />
<path stroke="none" fill="#000000" transform="matrix(0.0666667 0 0 0.0666667 -1.08945 -44)" d="M 1111.79,1171.19 L 1121.99,1165.3 L 1121.99,1402.17 L 1111.79,1396.28 L 1111.79,1171.19 Z " />
<path stroke="none" fill="#000000" transform="matrix(0.0666667 0 0 0.0666667 -1.08945 -44)" d="M 996.409,1104.58 L 1001.51,1095.74 L 1121.99,1165.3 L 1111.79,1171.19 L 996.409,1104.58 Z " />
<path stroke="none" fill="#000000" transform="matrix(0.0666667 0 0 0.0666667 -1.08945 -44)" d="M 721.932,1171.19 L 716.83,1168.25 L 717.057,1162.23 L 831.798,1095.98 L 836.9,1104.82 L 721.932,1171.19 Z " />
<path stroke="none" fill="#000000" transform="matrix(0.0666667 0 0 0.0666667 -1.08945 -44)" d="M 1270.01,1052.35 L 1293.82,1093.59 L 1284.34,1097.59 L 1261.81,1058.56 L 1270.01,1052.35 Z " />
<path stroke="none" fill="#000000" transform="matrix(0.0666667 0 0 0.0666667 -1.08945 -44)" d="M 1232.52,1080.71 L 1250.52,1111.88 L 1241.05,1115.88 L 1224.32,1086.91 L 1232.52,1080.71 Z " />
<path stroke="none" fill="#000000" transform="matrix(0.0666667 0 0 0.0666667 -1.08945 -44)" d="M 1195.03,1109.06 L 1207.22,1130.17 L 1197.75,1134.17 L 1186.83,1115.26 L 1195.03,1109.06 Z " />
<path stroke="none" fill="#000000" transform="matrix(0.0666667 0 0 0.0666667 -1.08945 -44)" d="M 1157.55,1137.42 L 1163.92,1148.46 L 1154.45,1152.46 L 1149.35,1143.62 L 1157.55,1137.42 Z " />
<path stroke="none" fill="#000000" transform="matrix(0.0666667 0 0 0.0666667 -1.08945 -44)" d="M 387.033,1132.77 L 381.93,1123.93 L 534.206,1036.02 L 496.729,1069.44 L 387.033,1132.77 Z " />
<path stroke="none" fill="#000000" transform="matrix(0.0666667 0 0 0.0666667 -1.08945 -44)" d="M 496.729,1069.44 L 534.206,1036.02 L 717.057,1162.23 L 716.83,1168.25 L 711.727,1171.46 L 496.729,1069.44 Z " />
<text x="0" y="0" stroke="none" fill="#000000" transform="matrix(0.0666667 0 0 0.0666667 16.1221 61.2076)" font-style="normal" font-weight="normal" font-size="160px" font-family="Arial" >
BnO</text>
<path stroke="none" fill="#000000" transform="matrix(0.0666667 0 0 0.0666667 -1.08945 -44)" d="M 597.114,1495.84 L 573.303,1454.59 L 582.997,1450.98 L 605.095,1489.25 L 597.114,1495.84 Z " />
<path stroke="none" fill="#000000" transform="matrix(0.0666667 0 0 0.0666667 -1.08945 -44)" d="M 636.714,1463.16 L 621.401,1436.64 L 631.095,1433.02 L 644.695,1456.58 L 636.714,1463.16 Z " />
<path stroke="none" fill="#000000" transform="matrix(0.0666667 0 0 0.0666667 -1.08945 -44)" d="M 676.314,1430.48 L 669.499,1418.68 L 679.193,1415.06 L 684.295,1423.9 L 676.314,1430.48 Z " />
<text x="0" y="0" stroke="none" fill="#000000" transform="matrix(0.0666667 0 0 0.0666667 55.8861 76.6327)" font-style="normal" font-weight="normal" font-size="160px" font-family="Arial" >
OBn</text>
<path stroke="none" fill="#000000" transform="matrix(0.0666667 0 0 0.0666667 -1.08945 -44)" d="M 940.67,1668.16 L 893.049,1668.16 L 911.422,1517.46 L 916.859,1514.71 L 922.297,1517.46 L 940.67,1668.16 Z " />
<text x="0" y="0" stroke="none" fill="#000000" transform="matrix(0.0666667 0 0 0.0666667 82.6032 61.2076)" font-style="normal" font-weight="normal" font-size="160px" font-family="Arial" >
OBn</text>
<path stroke="none" fill="#000000" transform="matrix(0.0666667 0 0 0.0666667 -1.08945 -44)" d="M 1260.82,1454.83 L 1237.01,1496.07 L 1229.02,1489.49 L 1251.13,1451.2 L 1260.82,1454.83 Z " />
<path stroke="none" fill="#000000" transform="matrix(0.0666667 0 0 0.0666667 -1.08945 -44)" d="M 1212.45,1436.72 L 1197.15,1463.24 L 1189.16,1456.66 L 1202.76,1433.09 L 1212.45,1436.72 Z " />
<path stroke="none" fill="#000000" transform="matrix(0.0666667 0 0 0.0666667 -1.08945 -44)" d="M 1164.09,1418.62 L 1157.29,1430.4 L 1149.3,1423.83 L 1154.4,1414.99 L 1164.09,1418.62 Z " />
<text x="0" y="0" stroke="none" fill="#000000" transform="matrix(0.0666667 0 0 0.0666667 2.74028 38.0833)" font-style="normal" font-weight="normal" font-size="160px" font-family="Arial" >
BnO</text>
<path stroke="none" fill="#000000" transform="matrix(0.0666667 0 0 0.0666667 -1.08945 -44)" d="M 1322.38,1049.61 L 1311.46,1055.91 L 1326.72,910.688 L 1336.87,911.754 L 1322.38,1049.61 Z " />
<path stroke="none" fill="#000000" transform="matrix(0.0666667 0 0 0.0666667 -1.08945 -44)" d="M 1366.5,1027.6 L 1356.35,1026.53 L 1368.07,915.033 L 1378.22,916.1 L 1366.5,1027.6 Z " />
<path stroke="none" fill="#000000" transform="matrix(0.0666667 0 0 0.0666667 -1.08945 -44)" d="M 1418.21,811.871 L 1416.09,801.889 L 1489.32,786.323 L 1491.44,796.304 L 1418.21,811.871 Z " />
<path stroke="none" fill="#000000" transform="matrix(0.0666667 0 0 0.0666667 -1.08945 -44)" d="M 1613.91,866.498 L 1622.75,861.396 L 1641.05,893.105 L 1632.21,898.207 L 1613.91,866.498 Z " />
<path stroke="none" fill="#000000" transform="matrix(0.0666667 0 0 0.0666667 -1.08945 -44)" d="M 1577.9,887.286 L 1586.74,882.184 L 1605.05,913.892 L 1596.21,918.995 L 1577.9,887.286 Z " />
<path stroke="none" fill="#000000" transform="matrix(0.0666667 0 0 0.0666667 -1.08945 -44)" d="M 1609.91,1048.02 L 1617.5,1054.85 L 1593.78,1081.19 L 1586.2,1074.37 L 1609.91,1048.02 Z " />
<path stroke="none" fill="#000000" transform="matrix(0.0666667 0 0 0.0666667 -1.08945 -44)" d="M 1450.3,1106.56 L 1446.15,1115.89 L 1311.46,1055.91 L 1322.38,1049.61 L 1450.3,1106.56 Z " />
<text x="0" y="0" stroke="none" fill="#000000" transform="matrix(0.0666667 0 0 0.0666667 84.4631 15.0701)" font-style="normal" font-weight="normal" font-size="160px" font-family="Arial" >
N</text>
<text x="0" y="0" stroke="none" fill="#000000" transform="matrix(0.0666667 0 0 0.0666667 99.525 11.8687)" font-style="normal" font-weight="normal" font-size="160px" font-family="Arial" >
N</text>
<text x="0" y="0" stroke="none" fill="#000000" transform="matrix(0.0666667 0 0 0.0666667 107.224 25.204)" font-style="normal" font-weight="normal" font-size="160px" font-family="Arial" >
N</text>
<text x="0" y="0" stroke="none" fill="#000000" transform="matrix(0.0666667 0 0 0.0666667 96.9207 36.6472)" font-style="normal" font-weight="normal" font-size="160px" font-family="Arial" >
N</text>
<path stroke="none" fill="#000000" transform="matrix(0.0666667 0 0 0.0666667 -1.08945 -44)" d="M 1580.24,1368.27 L 1571.33,1375.43 L 1543.06,1242.47 L 1553.05,1240.35 L 1580.24,1368.27 Z " />
<path stroke="none" fill="#000000" transform="matrix(0.0666667 0 0 0.0666667 -1.08945 -44)" d="M 1784.69,1461.39 L 1785.25,1467.25 L 1780.46,1470.67 L 1571.33,1375.43 L 1580.24,1368.27 L 1784.69,1461.39 Z " />
<path stroke="none" fill="#000000" transform="matrix(0.0666667 0 0 0.0666667 -1.08945 -44)" d="M 1812.16,1692.94 L 1802.57,1699.78 L 1780.46,1470.67 L 1785.25,1467.25 L 1790.61,1469.69 L 1812.16,1692.94 Z " />
<path stroke="none" fill="#000000" transform="matrix(0.0666667 0 0 0.0666667 -1.08945 -44)" d="M 1851.39,1668.08 L 1841.23,1669.06 L 1823.71,1487.57 L 1833.87,1486.59 L 1851.39,1668.08 Z " />
<path stroke="none" fill="#000000" transform="matrix(0.0666667 0 0 0.0666667 -1.08945 -44)" d="M 2016.27,1785.9 L 2017.41,1797.63 L 1802.57,1699.78 L 1812.16,1692.94 L 2016.27,1785.9 Z " />
<path stroke="none" fill="#000000" transform="matrix(0.0666667 0 0 0.0666667 -1.08945 -44)" d="M 2198.83,1655.61 L 2204.19,1658.06 L 2204.76,1663.92 L 2017.41,1797.63 L 2016.27,1785.9 L 2198.83,1655.61 Z " />
<path stroke="none" fill="#000000" transform="matrix(0.0666667 0 0 0.0666667 -1.08945 -44)" d="M 2157.69,1634.07 L 2163.62,1642.38 L 2015.21,1748.3 L 2009.28,1739.99 L 2157.69,1634.07 Z " />
<path stroke="none" fill="#000000" transform="matrix(0.0666667 0 0 0.0666667 -1.08945 -44)" d="M 2177.28,1432.37 L 2186.87,1425.52 L 2208.99,1654.63 L 2204.19,1658.06 L 2198.83,1655.61 L 2177.28,1432.37 Z " />
<path stroke="none" fill="#000000" transform="matrix(0.0666667 0 0 0.0666667 -1.08945 -44)" d="M 1973.17,1339.41 L 1972.04,1327.68 L 2186.87,1425.52 L 2177.28,1432.37 L 1973.17,1339.41 Z " />
<path stroke="none" fill="#000000" transform="matrix(0.0666667 0 0 0.0666667 -1.08945 -44)" d="M 1975.09,1385.81 L 1979.32,1376.52 L 2145.25,1452.09 L 2141.02,1461.38 L 1975.09,1385.81 Z " />
<path stroke="none" fill="#000000" transform="matrix(0.0666667 0 0 0.0666667 -1.08945 -44)" d="M 1790.61,1469.69 L 1785.25,1467.25 L 1784.69,1461.39 L 1972.04,1327.68 L 1973.17,1339.41 L 1790.61,1469.69 Z " />
<text x="0" y="0" stroke="none" fill="#000000" transform="matrix(0.0666667 0 0 0.0666667 155.673 77.0971)" font-style="normal" font-weight="normal" font-size="160px" font-family="Arial" >
OMe</text>
<path stroke="none" fill="#000000" transform="matrix(0.0666667 0 0 0.0666667 -1.08945 -44)" d="M 2343.61,1715.94 L 2339.38,1725.23 L 2204.76,1663.92 L 2204.19,1658.06 L 2208.99,1654.63 L 2343.61,1715.94 Z " />
</svg>
