<?xml version="1.0" standalone="no" ?>
<!DOCTYPE svg PUBLIC "-//W3C//DTD SVG 1.1//EN" "http://www.w3.org/Graphics/SVG/1.1/DTD/svg11.dtd">
<svg width="173px" height="88px" viewBox="0 0 173 88" style="background-color: #ffffff00" xmlns="http://www.w3.org/2000/svg" xmlns:xlink="http://www.w3.org/1999/xlink" version="1.1" >
<text x="0" y="0" stroke="none" fill="#000000" transform="matrix(0.0666667 0 0 0.0666667 56.2798 20.0424)" font-style="normal" font-weight="normal" font-size="160px" font-family="Arial" >
H</text>
<text x="0" y="0" stroke="none" fill="#000000" transform="matrix(0.0666667 0 0 0.0666667 56.2798 30.7091)" font-style="normal" font-weight="normal" font-size="160px" font-family="Arial" >
N</text>
<path stroke="none" fill="#000000" transform="matrix(0.0666667 0 0 0.0666667 1.91055 -33)" d="M 679.929,1234.46 L 668.024,1241.33 L 668.024,1011.45 L 673.977,1007.72 L 679.929,1011.16 L 679.929,1234.46 Z " />
<path stroke="none" fill="#000000" transform="matrix(0.0666667 0 0 0.0666667 1.91055 -33)" d="M 873.312,1346.11 L 873.312,1352.98 L 866.983,1356.2 L 668.024,1241.33 L 679.929,1234.46 L 873.312,1346.11 Z " />
<path stroke="none" fill="#000000" transform="matrix(0.0666667 0 0 0.0666667 1.91055 -33)" d="M 1066.7,1234.46 L 1078.6,1241.33 L 879.642,1356.2 L 873.312,1352.98 L 873.312,1346.11 L 1066.7,1234.46 Z " />
<path stroke="none" fill="#000000" transform="matrix(0.0666667 0 0 0.0666667 1.91055 -33)" d="M 1066.7,1011.16 L 1078.6,1004.29 L 1078.6,1241.33 L 1066.7,1234.46 L 1066.7,1011.16 Z " />
<path stroke="none" fill="#000000" transform="matrix(0.0666667 0 0 0.0666667 1.91055 -33)" d="M 952.869,945.442 L 958.822,935.132 L 1078.6,1004.29 L 1066.7,1011.16 L 952.869,945.442 Z " />
<path stroke="none" fill="#000000" transform="matrix(0.0666667 0 0 0.0666667 1.91055 -33)" d="M 679.929,1011.16 L 673.977,1007.72 L 674.231,1000.7 L 787.393,935.368 L 793.345,945.679 L 679.929,1011.16 Z " />
<text x="0" y="0" stroke="none" fill="#000000" transform="matrix(0.0666667 0 0 0.0666667 84.4618 15.4482)" font-style="normal" font-weight="normal" font-size="160px" font-family="Arial" >
N</text>
<text x="0" y="0" stroke="none" fill="#000000" transform="matrix(0.0666667 0 0 0.0666667 99.4713 12.2578)" font-style="normal" font-weight="normal" font-size="160px" font-family="Arial" >
N</text>
<text x="0" y="0" stroke="none" fill="#000000" transform="matrix(0.0666667 0 0 0.0666667 107.144 25.5468)" font-style="normal" font-weight="normal" font-size="160px" font-family="Arial" >
N</text>
<text x="0" y="0" stroke="none" fill="#000000" transform="matrix(0.0666667 0 0 0.0666667 96.8761 36.9503)" font-style="normal" font-weight="normal" font-size="160px" font-family="Arial" >
N</text>
<path stroke="none" fill="#000000" transform="matrix(0.0666667 0 0 0.0666667 1.91055 -33)" d="M 1280.86,751.27 L 1292.7,752.515 L 1278.36,888.957 L 1265.61,896.315 L 1280.86,751.27 Z " />
<path stroke="none" fill="#000000" transform="matrix(0.0666667 0 0 0.0666667 1.91055 -33)" d="M 1443.14,626.372 L 1445.61,638.017 L 1373.57,653.33 L 1371.09,641.685 L 1443.14,626.372 Z " />
<path stroke="none" fill="#000000" transform="matrix(0.0666667 0 0 0.0666667 1.91055 -33)" d="M 1451.75,666.897 L 1454.23,678.542 L 1382.18,693.856 L 1379.71,682.211 L 1451.75,666.897 Z " />
<path stroke="none" fill="#000000" transform="matrix(0.0666667 0 0 0.0666667 1.91055 -33)" d="M 1595.58,732.822 L 1585.27,738.775 L 1567.37,707.761 L 1577.68,701.808 L 1595.58,732.822 Z " />
<path stroke="none" fill="#000000" transform="matrix(0.0666667 0 0 0.0666667 1.91055 -33)" d="M 1548.74,921.311 L 1539.9,913.345 L 1563.08,887.598 L 1571.93,895.564 L 1548.74,921.311 Z " />
<path stroke="none" fill="#000000" transform="matrix(0.0666667 0 0 0.0666667 1.91055 -33)" d="M 1265.61,896.315 L 1278.36,888.957 L 1404.98,945.334 L 1400.14,956.21 L 1265.61,896.315 Z " />
<path stroke="none" fill="#000000" transform="matrix(0.0666667 0 0 0.0666667 1.91055 -33)" d="M 1313.91,872.468 L 1318.76,861.592 L 1421.83,907.485 L 1416.99,918.361 L 1313.91,872.468 Z " />
<path stroke="none" fill="#000000" transform="matrix(0.0666667 0 0 0.0666667 1.91055 -33)" d="M 1225.19,892.156 L 1249,933.398 L 1237.98,938.12 L 1215.59,899.339 L 1225.19,892.156 Z " />
<path stroke="none" fill="#000000" transform="matrix(0.0666667 0 0 0.0666667 1.91055 -33)" d="M 1188.18,919.852 L 1206.51,951.603 L 1195.49,956.325 L 1178.58,927.035 L 1188.18,919.852 Z " />
<path stroke="none" fill="#000000" transform="matrix(0.0666667 0 0 0.0666667 1.91055 -33)" d="M 1151.17,947.547 L 1164.02,969.809 L 1153,974.531 L 1141.57,954.731 L 1151.17,947.547 Z " />
<path stroke="none" fill="#000000" transform="matrix(0.0666667 0 0 0.0666667 1.91055 -33)" d="M 1114.16,975.243 L 1121.53,988.015 L 1110.51,992.737 L 1104.56,982.426 L 1114.16,975.243 Z " />
<path stroke="none" fill="#000000" transform="matrix(0.0666667 0 0 0.0666667 1.91055 -33)" d="M 345.998,972.979 L 340.046,962.669 L 491.296,875.345 L 455.532,909.74 L 345.998,972.979 Z " />
<path stroke="none" fill="#000000" transform="matrix(0.0666667 0 0 0.0666667 1.91055 -33)" d="M 455.532,909.74 L 491.296,875.345 L 674.231,1000.7 L 673.977,1007.72 L 668.024,1011.45 L 455.532,909.74 Z " />
<text x="0" y="0" stroke="none" fill="#000000" transform="matrix(0.0666667 0 0 0.0666667 16.3117 61.4255)" font-style="normal" font-weight="normal" font-size="160px" font-family="Arial" >
BnO</text>
<path stroke="none" fill="#000000" transform="matrix(0.0666667 0 0 0.0666667 1.91055 -33)" d="M 554.958,1334.11 L 531.147,1292.86 L 542.416,1288.57 L 564.31,1326.49 L 554.958,1334.11 Z " />
<path stroke="none" fill="#000000" transform="matrix(0.0666667 0 0 0.0666667 1.91055 -33)" d="M 593.83,1302.46 L 577.989,1275.02 L 589.258,1270.73 L 603.181,1294.85 L 593.83,1302.46 Z " />
<path stroke="none" fill="#000000" transform="matrix(0.0666667 0 0 0.0666667 1.91055 -33)" d="M 632.701,1270.81 L 624.831,1257.18 L 636.1,1252.89 L 642.053,1263.2 L 632.701,1270.81 Z " />
<text x="0" y="0" stroke="none" fill="#000000" transform="matrix(0.0666667 0 0 0.0666667 55.9829 76.7971)" font-style="normal" font-weight="normal" font-size="160px" font-family="Arial" >
OBn</text>
<path stroke="none" fill="#000000" transform="matrix(0.0666667 0 0 0.0666667 1.91055 -33)" d="M 897.123,1505.62 L 849.502,1505.62 L 866.983,1356.2 L 873.312,1352.98 L 879.642,1356.2 L 897.123,1505.62 Z " />
<text x="0" y="0" stroke="none" fill="#000000" transform="matrix(0.0666667 0 0 0.0666667 82.6073 61.4255)" font-style="normal" font-weight="normal" font-size="160px" font-family="Arial" >
OBn</text>
<path stroke="none" fill="#000000" transform="matrix(0.0666667 0 0 0.0666667 1.91055 -33)" d="M 1215.88,1293.1 L 1192.07,1334.34 L 1182.71,1326.73 L 1204.61,1288.8 L 1215.88,1293.1 Z " />
<path stroke="none" fill="#000000" transform="matrix(0.0666667 0 0 0.0666667 1.91055 -33)" d="M 1168.89,1275.17 L 1153.05,1302.6 L 1143.7,1295 L 1157.62,1270.87 L 1168.89,1275.17 Z " />
<path stroke="none" fill="#000000" transform="matrix(0.0666667 0 0 0.0666667 1.91055 -33)" d="M 1121.9,1257.25 L 1114.03,1270.87 L 1104.68,1263.26 L 1110.63,1252.95 L 1121.9,1257.25 Z " />
<text x="0" y="0" stroke="none" fill="#000000" transform="matrix(0.0666667 0 0 0.0666667 2.97633 38.3815)" font-style="normal" font-weight="normal" font-size="160px" font-family="Arial" >
BnO</text>
<path stroke="none" fill="#000000" transform="matrix(0.0666667 0 0 0.0666667 1.91055 -33)" d="M 1868.65,834.494 L 1861.72,844.027 L 1705.34,827.592 L 1706.41,817.443 L 1868.65,834.494 Z " />
<path stroke="none" fill="#000000" transform="matrix(0.0666667 0 0 0.0666667 1.91055 -33)" d="M 1962.27,1044.77 L 1958.81,1049.53 L 1952.95,1048.92 L 1861.72,844.027 L 1868.65,834.494 L 1962.27,1044.77 Z " />
<path stroke="none" fill="#000000" transform="matrix(0.0666667 0 0 0.0666667 1.91055 -33)" d="M 1829.37,1236.36 L 1817.65,1235.13 L 1952.95,1048.92 L 1958.81,1049.53 L 1961.2,1054.92 L 1829.37,1236.36 Z " />
<path stroke="none" fill="#000000" transform="matrix(0.0666667 0 0 0.0666667 1.91055 -33)" d="M 1875.22,1243.75 L 1866.96,1237.75 L 1974.14,1090.24 L 1982.39,1096.24 L 1875.22,1243.75 Z " />
<path stroke="none" fill="#000000" transform="matrix(0.0666667 0 0 0.0666667 1.91055 -33)" d="M 1920.6,1441.26 L 1913.67,1450.79 L 1817.65,1235.13 L 1829.37,1236.36 L 1920.6,1441.26 Z " />
<path stroke="none" fill="#000000" transform="matrix(0.0666667 0 0 0.0666667 1.91055 -33)" d="M 2143.65,1464.7 L 2146.05,1470.08 L 2142.58,1474.85 L 1913.67,1450.79 L 1920.6,1441.26 L 2143.65,1464.7 Z " />
<path stroke="none" fill="#000000" transform="matrix(0.0666667 0 0 0.0666667 1.91055 -33)" d="M 2127.12,1421.3 L 2126.05,1431.45 L 1944.72,1412.39 L 1945.79,1402.24 L 2127.12,1421.3 Z " />
<path stroke="none" fill="#000000" transform="matrix(0.0666667 0 0 0.0666667 1.91055 -33)" d="M 2275.48,1283.25 L 2287.2,1284.48 L 2151.91,1470.7 L 2146.05,1470.08 L 2143.65,1464.7 L 2275.48,1283.25 Z " />
<path stroke="none" fill="#000000" transform="matrix(0.0666667 0 0 0.0666667 1.91055 -33)" d="M 2184.25,1078.36 L 2191.18,1068.83 L 2287.2,1284.48 L 2275.48,1283.25 L 2184.25,1078.36 Z " />
<path stroke="none" fill="#000000" transform="matrix(0.0666667 0 0 0.0666667 1.91055 -33)" d="M 2154.94,1114.37 L 2164.26,1110.22 L 2238.42,1276.79 L 2229.1,1280.94 L 2154.94,1114.37 Z " />
<path stroke="none" fill="#000000" transform="matrix(0.0666667 0 0 0.0666667 1.91055 -33)" d="M 1961.2,1054.92 L 1958.81,1049.53 L 1962.27,1044.77 L 2191.18,1068.83 L 2184.25,1078.36 L 1961.2,1054.92 Z " />
<text x="0" y="0" stroke="none" fill="#000000" transform="matrix(0.0666667 0 0 0.0666667 147.073 83.2235)" font-style="normal" font-weight="normal" font-size="160px" font-family="Arial" >
OMe</text>
<path stroke="none" fill="#000000" transform="matrix(0.0666667 0 0 0.0666667 1.91055 -33)" d="M 2212.12,1605.93 L 2202.79,1610.08 L 2142.58,1474.85 L 2146.05,1470.08 L 2151.91,1470.7 L 2212.12,1605.93 Z " />
</svg>
