<?xml version="1.0" encoding="UTF-8" standalone="no"?>
<svg
   xmlns:dc="http://purl.org/dc/elements/1.1/"
   xmlns:cc="http://creativecommons.org/ns#"
   xmlns:rdf="http://www.w3.org/1999/02/22-rdf-syntax-ns#"
   xmlns:svg="http://www.w3.org/2000/svg"
   xmlns="http://www.w3.org/2000/svg"
   xmlns:sodipodi="http://sodipodi.sourceforge.net/DTD/sodipodi-0.dtd"
   xmlns:inkscape="http://www.inkscape.org/namespaces/inkscape"
   width="118px"
   height="86px"
   viewBox="0 0 118 86"
   style="background-color: #ffffff00"
   version="1.1"
   id="svg84"
   sodipodi:docname="glu-tet-cyclo-lactam.svg"
   inkscape:version="0.92.4 (5da689c313, 2019-01-14)">
  <metadata
     id="metadata90">
    <rdf:RDF>
      <cc:Work
         rdf:about="">
        <dc:format>image/svg+xml</dc:format>
        <dc:type
           rdf:resource="http://purl.org/dc/dcmitype/StillImage" />
      </cc:Work>
    </rdf:RDF>
  </metadata>
  <defs
     id="defs88" />
  <sodipodi:namedview
     pagecolor="#ffffff"
     bordercolor="#666666"
     borderopacity="1"
     objecttolerance="10"
     gridtolerance="10"
     guidetolerance="10"
     inkscape:pageopacity="0"
     inkscape:pageshadow="2"
     inkscape:window-width="741"
     inkscape:window-height="480"
     id="namedview86"
     showgrid="false"
     inkscape:zoom="1.372093"
     inkscape:cx="42.20523"
     inkscape:cy="24.52221"
     inkscape:window-x="0"
     inkscape:window-y="0"
     inkscape:window-maximized="0"
     inkscape:current-layer="svg84" />
  <g
     aria-label="N"
     transform="matrix(0.0666667,0,0,0.0666667,56.6843,35.6024)"
     style="font-style:normal;font-weight:normal;font-size:160px;font-family:Arial;fill:#000000;stroke:none"
     id="text2">
    <path
       d="m 12.1875,0 v -114.53125 h 15.546875 l 60.15625,89.921875 V -114.53125 H 102.42188 V 0 H 86.875 L 26.71875,-90 V 0 Z"
       style="font-style:normal;font-weight:normal;font-size:160px;font-family:Arial;fill:#000000;stroke:none"
       id="path897"
       inkscape:connector-curvature="0" />
  </g>
  <path
     stroke="none"
     fill="#000000"
     transform="matrix(0.0666667 0 0 0.0666667 -27.6447 -23)"
     d="M 1128.63,1158.09 L 1118.42,1163.98 L 1118.42,934.246 L 1123.52,931.036 L 1128.63,933.982 L 1128.63,1158.09 Z "
     id="path4" />
  <path
     stroke="none"
     fill="#000000"
     transform="matrix(0.0666667 0 0 0.0666667 -27.6447 -23)"
     d="M 1322.71,1270.14 L 1322.71,1276.04 L 1317.27,1278.79 L 1118.42,1163.98 L 1128.63,1158.09 L 1322.71,1270.14 Z "
     id="path6" />
  <path
     stroke="none"
     fill="#000000"
     transform="matrix(0.0666667 0 0 0.0666667 -27.6447 -23)"
     d="M 1516.79,1158.09 L 1527,1163.98 L 1328.15,1278.79 L 1322.71,1276.04 L 1322.71,1270.14 L 1516.79,1158.09 Z "
     id="path8" />
  <path
     stroke="none"
     fill="#000000"
     transform="matrix(0.0666667 0 0 0.0666667 -27.6447 -23)"
     d="M 1516.79,933.982 L 1527,928.09 L 1527,1163.98 L 1516.79,1158.09 L 1516.79,933.982 Z "
     id="path10" />
  <path
     stroke="none"
     fill="#000000"
     transform="matrix(0.0666667 0 0 0.0666667 -27.6447 -23)"
     d="M 1402.26,867.855 L 1407.36,859.018 L 1527,928.09 L 1516.79,933.982 L 1402.26,867.855 Z "
     id="path12" />
  <path
     stroke="none"
     fill="#000000"
     transform="matrix(0.0666667 0 0 0.0666667 -27.6447 -23)"
     d="M 1128.63,933.982 L 1123.52,931.036 L 1123.75,925.012 L 1237.65,859.254 L 1242.75,868.092 L 1128.63,933.982 Z "
     id="path14" />
  <path
     stroke="none"
     fill="#000000"
     transform="matrix(0.0666667 0 0 0.0666667 -27.6447 -23)"
     d="M 796.809,895.556 L 791.706,886.719 L 942.436,799.695 L 904.958,833.116 L 796.809,895.556 Z "
     id="path16" />
  <path
     stroke="none"
     fill="#000000"
     transform="matrix(0.0666667 0 0 0.0666667 -27.6447 -23)"
     d="M 904.958,833.116 L 942.436,799.695 L 1123.75,925.012 L 1123.52,931.036 L 1118.42,934.246 L 904.958,833.116 Z "
     id="path18" />
  <g
     aria-label="BnO"
     transform="matrix(0.0666667,0,0,0.0666667,16.7825,66.2691)"
     style="font-style:normal;font-weight:normal;font-size:160px;font-family:Arial;fill:#000000;stroke:none"
     id="text20">
    <path
       d="M 11.71875,0 V -114.53125 H 54.6875 q 13.125,0 21.015625,3.51562 7.96875,3.4375 12.421875,10.70313 4.53125,7.1875 4.53125,15.078125 0,7.34375 -3.984375,13.828125 -3.984375,6.484375 -12.03125,10.46875 10.390625,3.046875 15.9375,10.390625 5.625,7.34375 5.625,17.34375 0,8.046875 -3.4375,15 -3.359375,6.875 -8.359375,10.625 -5,3.75 -12.578125,5.703125 Q 66.328125,0 55.390625,0 Z M 26.875,-66.40625 h 24.765625 q 10.078125,0 14.453125,-1.328125 5.78125,-1.71875 8.671875,-5.703125 2.96875,-3.984375 2.96875,-10 0,-5.703125 -2.734375,-10 -2.734375,-4.375 -7.8125,-5.9375 -5.078125,-1.64063 -17.421875,-1.64063 H 26.875 Z m 0,52.890625 h 28.515625 q 7.34375,0 10.3125,-0.546875 5.234375,-0.9375 8.75,-3.125 3.515625,-2.1875 5.78125,-6.328125 2.265625,-4.21875 2.265625,-9.6875 0,-6.40625 -3.28125,-11.09375 -3.28125,-4.765625 -9.140625,-6.640625 -5.78125,-1.953125 -16.71875,-1.953125 H 26.875 Z"
       style="font-style:normal;font-weight:normal;font-size:160px;font-family:Arial;fill:#000000;stroke:none"
       id="path900"
       inkscape:connector-curvature="0" />
    <path
       d="m 117.42188,0 v -82.96875 h 12.65624 v 11.796875 q 9.14063,-13.671875 26.40625,-13.671875 7.5,0 13.75,2.734375 6.32813,2.65625 9.45313,7.03125 3.125,4.375 4.375,10.390625 0.78125,3.90625 0.78125,13.671875 V 0 h -14.0625 v -50.46875 q 0,-8.59375 -1.64063,-12.8125 -1.64062,-4.296875 -5.85937,-6.796875 -4.14063,-2.578125 -9.76563,-2.578125 -8.98437,0 -15.54687,5.703125 -6.48438,5.703125 -6.48438,21.640625 V 0 Z"
       style="font-style:normal;font-weight:normal;font-size:160px;font-family:Arial;fill:#000000;stroke:none"
       id="path902"
       inkscape:connector-curvature="0" />
    <path
       d="m 203.67187,-55.78125 q 0,-28.515625 15.3125,-44.60938 15.3125,-16.17187 39.53125,-16.17187 15.85938,0 28.59375,7.57812 12.73438,7.57813 19.375,21.17188 6.71875,13.515625 6.71875,30.703125 0,17.421875 -7.03125,31.171875 -7.03125,13.75 -19.92187,20.859375 -12.89063,7.03125 -27.8125,7.03125 -16.17188,0 -28.90625,-7.8125 -12.73438,-7.8125 -19.29688,-21.328125 -6.5625,-13.515625 -6.5625,-28.59375 z m 15.625,0.234375 q 0,20.703125 11.09375,32.65625 11.17188,11.875 27.96875,11.875 17.10938,0 28.125,-12.03125 11.09375,-12.03125 11.09375,-34.140625 0,-13.984375 -4.76562,-24.375 -4.6875,-10.46875 -13.82813,-16.171875 -9.0625,-5.781255 -20.39062,-5.781255 -16.09375,0 -27.73438,11.093755 -11.5625,11.015625 -11.5625,36.875 z"
       style="font-style:normal;font-weight:normal;font-size:160px;font-family:Arial;fill:#000000;stroke:none"
       id="path904"
       inkscape:connector-curvature="0" />
  </g>
  <path
     stroke="none"
     fill="#000000"
     transform="matrix(0.0666667 0 0 0.0666667 -27.6447 -23)"
     d="M 1005.35,1256.76 L 981.538,1215.52 L 991.244,1211.92 L 1013.32,1250.15 L 1005.35,1256.76 Z "
     id="path22" />
  <path
     stroke="none"
     fill="#000000"
     transform="matrix(0.0666667 0 0 0.0666667 -27.6447 -23)"
     d="M 1044.27,1224.49 L 1028.95,1197.94 L 1038.65,1194.34 L 1052.24,1217.88 L 1044.27,1224.49 Z "
     id="path24" />
  <path
     stroke="none"
     fill="#000000"
     transform="matrix(0.0666667 0 0 0.0666667 -27.6447 -23)"
     d="M 1083.2,1192.21 L 1076.36,1180.37 L 1086.07,1176.77 L 1091.17,1185.61 L 1083.2,1192.21 Z "
     id="path26" />
  <g
     aria-label="OBn"
     transform="matrix(0.0666667,0,0,0.0666667,56.3874,81.6024)"
     style="font-style:normal;font-weight:normal;font-size:160px;font-family:Arial;fill:#000000;stroke:none"
     id="text28">
    <path
       d="m 7.734375,-55.78125 q 0,-28.515625 15.3125,-44.60938 15.3125,-16.17187 39.53125,-16.17187 15.859375,0 28.59375,7.57812 12.734375,7.57813 19.375005,21.17188 6.71875,13.515625 6.71875,30.703125 0,17.421875 -7.03125,31.171875 -7.03125,13.75 -19.92188,20.859375 -12.890625,7.03125 -27.8125,7.03125 -16.171875,0 -28.90625,-7.8125 -12.734375,-7.8125 -19.296875,-21.328125 -6.5625,-13.515625 -6.5625,-28.59375 z m 15.625,0.234375 q 0,20.703125 11.09375,32.65625 11.171875,11.875 27.96875,11.875 17.109375,0 28.125,-12.03125 11.093755,-12.03125 11.093755,-34.140625 0,-13.984375 -4.76563,-24.375 -4.6875,-10.46875 -13.828125,-16.171875 -9.0625,-5.781255 -20.390625,-5.781255 -16.09375,0 -27.734375,11.093755 -11.5625,11.015625 -11.5625,36.875 z"
       style="font-style:normal;font-weight:normal;font-size:160px;font-family:Arial;fill:#000000;stroke:none"
       id="path907"
       inkscape:connector-curvature="0" />
    <path
       d="m 136.09375,0 v -114.53125 h 42.96875 q 13.125,0 21.01562,3.51562 7.96875,3.4375 12.42188,10.70313 4.53125,7.1875 4.53125,15.078125 0,7.34375 -3.98438,13.828125 -3.98437,6.484375 -12.03125,10.46875 10.39063,3.046875 15.9375,10.390625 5.625,7.34375 5.625,17.34375 0,8.046875 -3.4375,15 -3.35937,6.875 -8.35937,10.625 -5,3.75 -12.57813,5.703125 Q 190.70312,0 179.76562,0 Z M 151.25,-66.40625 h 24.76562 q 10.07813,0 14.45313,-1.328125 5.78125,-1.71875 8.67187,-5.703125 2.96875,-3.984375 2.96875,-10 0,-5.703125 -2.73437,-10 -2.73438,-4.375 -7.8125,-5.9375 -5.07813,-1.64063 -17.42188,-1.64063 H 151.25 Z m 0,52.890625 h 28.51562 q 7.34375,0 10.3125,-0.546875 5.23438,-0.9375 8.75,-3.125 3.51563,-2.1875 5.78125,-6.328125 2.26563,-4.21875 2.26563,-9.6875 0,-6.40625 -3.28125,-11.09375 -3.28125,-4.765625 -9.14063,-6.640625 -5.78125,-1.953125 -16.71875,-1.953125 H 151.25 Z"
       style="font-style:normal;font-weight:normal;font-size:160px;font-family:Arial;fill:#000000;stroke:none"
       id="path909"
       inkscape:connector-curvature="0" />
    <path
       d="m 241.79687,0 v -82.96875 h 12.65625 v 11.796875 q 9.14063,-13.671875 26.40625,-13.671875 7.5,0 13.75,2.734375 6.32813,2.65625 9.45313,7.03125 3.125,4.375 4.375,10.390625 0.78125,3.90625 0.78125,13.671875 V 0 h -14.0625 v -50.46875 q 0,-8.59375 -1.64063,-12.8125 -1.64062,-4.296875 -5.85937,-6.796875 -4.14063,-2.578125 -9.76563,-2.578125 -8.98437,0 -15.54687,5.703125 -6.48438,5.703125 -6.48438,21.640625 V 0 Z"
       style="font-style:normal;font-weight:normal;font-size:160px;font-family:Arial;fill:#000000;stroke:none"
       id="path911"
       inkscape:connector-curvature="0" />
  </g>
  <path
     stroke="none"
     fill="#000000"
     transform="matrix(0.0666667 0 0 0.0666667 -27.6447 -23)"
     d="M 1346.52,1427.7 L 1298.9,1427.7 L 1317.27,1278.79 L 1322.71,1276.04 L 1328.15,1278.79 L 1346.52,1427.7 Z "
     id="path30" />
  <g
     aria-label="OBn"
     transform="matrix(0.0666667,0,0,0.0666667,82.9456,66.2691)"
     style="font-style:normal;font-weight:normal;font-size:160px;font-family:Arial;fill:#000000;stroke:none"
     id="text32">
    <path
       d="m 7.734375,-55.78125 q 0,-28.515625 15.3125,-44.60938 15.3125,-16.17187 39.53125,-16.17187 15.859375,0 28.59375,7.57812 12.734375,7.57813 19.375005,21.17188 6.71875,13.515625 6.71875,30.703125 0,17.421875 -7.03125,31.171875 -7.03125,13.75 -19.92188,20.859375 -12.890625,7.03125 -27.8125,7.03125 -16.171875,0 -28.90625,-7.8125 -12.734375,-7.8125 -19.296875,-21.328125 -6.5625,-13.515625 -6.5625,-28.59375 z m 15.625,0.234375 q 0,20.703125 11.09375,32.65625 11.171875,11.875 27.96875,11.875 17.109375,0 28.125,-12.03125 11.093755,-12.03125 11.093755,-34.140625 0,-13.984375 -4.76563,-24.375 -4.6875,-10.46875 -13.828125,-16.171875 -9.0625,-5.781255 -20.390625,-5.781255 -16.09375,0 -27.734375,11.093755 -11.5625,11.015625 -11.5625,36.875 z"
       style="font-style:normal;font-weight:normal;font-size:160px;font-family:Arial;fill:#000000;stroke:none"
       id="path914"
       inkscape:connector-curvature="0" />
    <path
       d="m 136.09375,0 v -114.53125 h 42.96875 q 13.125,0 21.01562,3.51562 7.96875,3.4375 12.42188,10.70313 4.53125,7.1875 4.53125,15.078125 0,7.34375 -3.98438,13.828125 -3.98437,6.484375 -12.03125,10.46875 10.39063,3.046875 15.9375,10.390625 5.625,7.34375 5.625,17.34375 0,8.046875 -3.4375,15 -3.35937,6.875 -8.35937,10.625 -5,3.75 -12.57813,5.703125 Q 190.70312,0 179.76562,0 Z M 151.25,-66.40625 h 24.76562 q 10.07813,0 14.45313,-1.328125 5.78125,-1.71875 8.67187,-5.703125 2.96875,-3.984375 2.96875,-10 0,-5.703125 -2.73437,-10 -2.73438,-4.375 -7.8125,-5.9375 -5.07813,-1.64063 -17.42188,-1.64063 H 151.25 Z m 0,52.890625 h 28.51562 q 7.34375,0 10.3125,-0.546875 5.23438,-0.9375 8.75,-3.125 3.51563,-2.1875 5.78125,-6.328125 2.26563,-4.21875 2.26563,-9.6875 0,-6.40625 -3.28125,-11.09375 -3.28125,-4.765625 -9.14063,-6.640625 -5.78125,-1.953125 -16.71875,-1.953125 H 151.25 Z"
       style="font-style:normal;font-weight:normal;font-size:160px;font-family:Arial;fill:#000000;stroke:none"
       id="path916"
       inkscape:connector-curvature="0" />
    <path
       d="m 241.79687,0 v -82.96875 h 12.65625 v 11.796875 q 9.14063,-13.671875 26.40625,-13.671875 7.5,0 13.75,2.734375 6.32813,2.65625 9.45313,7.03125 3.125,4.375 4.375,10.390625 0.78125,3.90625 0.78125,13.671875 V 0 h -14.0625 v -50.46875 q 0,-8.59375 -1.64063,-12.8125 -1.64062,-4.296875 -5.85937,-6.796875 -4.14063,-2.578125 -9.76563,-2.578125 -8.98437,0 -15.54687,5.703125 -6.48438,5.703125 -6.48438,21.640625 V 0 Z"
       style="font-style:normal;font-weight:normal;font-size:160px;font-family:Arial;fill:#000000;stroke:none"
       id="path918"
       inkscape:connector-curvature="0" />
  </g>
  <path
     stroke="none"
     fill="#000000"
     transform="matrix(0.0666667 0 0 0.0666667 -27.6447 -23)"
     d="M 1664.28,1215.75 L 1640.47,1256.99 L 1632.5,1250.39 L 1654.58,1212.15 L 1664.28,1215.75 Z "
     id="path34" />
  <path
     stroke="none"
     fill="#000000"
     transform="matrix(0.0666667 0 0 0.0666667 -27.6447 -23)"
     d="M 1616.72,1198.09 L 1601.4,1224.63 L 1593.43,1218.03 L 1607.02,1194.49 L 1616.72,1198.09 Z "
     id="path36" />
  <path
     stroke="none"
     fill="#000000"
     transform="matrix(0.0666667 0 0 0.0666667 -27.6447 -23)"
     d="M 1569.16,1180.43 L 1562.33,1192.27 L 1554.36,1185.67 L 1559.46,1176.83 L 1569.16,1180.43 Z "
     id="path38" />
  <path
     stroke="none"
     fill="#000000"
     transform="matrix(0.0666667 0 0 0.0666667 -27.6447 -23)"
     d="M 1674.16,815.629 L 1697.98,856.87 L 1688.5,860.864 L 1665.97,821.84 L 1674.16,815.629 Z "
     id="path40" />
  <path
     stroke="none"
     fill="#000000"
     transform="matrix(0.0666667 0 0 0.0666667 -27.6447 -23)"
     d="M 1636.96,843.817 L 1654.96,874.996 L 1645.48,878.99 L 1628.76,850.027 L 1636.96,843.817 Z "
     id="path42" />
  <path
     stroke="none"
     fill="#000000"
     transform="matrix(0.0666667 0 0 0.0666667 -27.6447 -23)"
     d="M 1599.76,872.005 L 1611.95,893.121 L 1602.47,897.115 L 1591.56,878.215 L 1599.76,872.005 Z "
     id="path44" />
  <path
     stroke="none"
     fill="#000000"
     transform="matrix(0.0666667 0 0 0.0666667 -27.6447 -23)"
     d="M 1562.55,900.193 L 1568.93,911.247 L 1559.46,915.241 L 1554.36,906.403 L 1562.55,900.193 Z "
     id="path46" />
  <g
     aria-label="N"
     transform="matrix(0.0666667,0,0,0.0666667,97.8253,40.3406)"
     style="font-style:normal;font-weight:normal;font-size:160px;font-family:Arial;fill:#000000;stroke:none"
     id="text48">
    <path
       d="m 12.1875,0 v -114.53125 h 15.546875 l 60.15625,89.921875 V -114.53125 H 102.42188 V 0 H 86.875 L 26.71875,-90 V 0 Z"
       style="font-style:normal;font-weight:normal;font-size:160px;font-family:Arial;fill:#000000;stroke:none"
       id="path921"
       inkscape:connector-curvature="0" />
  </g>
  <g
     aria-label="N"
     transform="matrix(0.0666667,0,0,0.0666667,106.838,27.9357)"
     style="font-style:normal;font-weight:normal;font-size:160px;font-family:Arial;fill:#000000;stroke:none"
     id="text50">
    <path
       d="m 12.1875,0 v -114.53125 h 15.546875 l 60.15625,89.921875 V -114.53125 H 102.42188 V 0 H 86.875 L 26.71875,-90 V 0 Z"
       style="font-style:normal;font-weight:normal;font-size:160px;font-family:Arial;fill:#000000;stroke:none"
       id="path924"
       inkscape:connector-curvature="0" />
  </g>
  <g
     aria-label="N"
     transform="matrix(0.0666667,0,0,0.0666667,97.8253,15.5308)"
     style="font-style:normal;font-weight:normal;font-size:160px;font-family:Arial;fill:#000000;stroke:none"
     id="text52">
    <path
       d="m 12.1875,0 v -114.53125 h 15.546875 l 60.15625,89.921875 V -114.53125 H 102.42188 V 0 H 86.875 L 26.71875,-90 V 0 Z"
       style="font-style:normal;font-weight:normal;font-size:160px;font-family:Arial;fill:#000000;stroke:none"
       id="path927"
       inkscape:connector-curvature="0" />
  </g>
  <g
     aria-label="N"
     transform="matrix(0.0666667,0,0,0.0666667,83.2424,20.2691)"
     style="font-style:normal;font-weight:normal;font-size:160px;font-family:Arial;fill:#000000;stroke:none"
     id="text54">
    <path
       d="m 12.1875,0 v -114.53125 h 15.546875 l 60.15625,89.921875 V -114.53125 H 102.42188 V 0 H 86.875 L 26.71875,-90 V 0 Z"
       style="font-style:normal;font-weight:normal;font-size:160px;font-family:Arial;fill:#000000;stroke:none"
       id="path930"
       inkscape:connector-curvature="0" />
  </g>
  <path
     stroke="none"
     fill="#000000"
     transform="matrix(0.0666667 0 0 0.0666667 -27.6447 -23)"
     d="M 1862.36,856.576 L 1859.21,866.281 L 1715.98,819.743 L 1726.18,812.329 L 1862.36,856.576 Z "
     id="path56" />
  <path
     stroke="none"
     fill="#000000"
     transform="matrix(0.0666667 0 0 0.0666667 -27.6447 -23)"
     d="M 1875.16,817.202 L 1872,826.907 L 1760.9,790.809 L 1764.06,781.104 L 1875.16,817.202 Z "
     id="path58" />
  <path
     stroke="none"
     fill="#000000"
     transform="matrix(0.0666667 0 0 0.0666667 -27.6447 -23)"
     d="M 2010.18,781.596 L 2018.43,787.594 L 1998.29,815.318 L 1990.03,809.32 L 2010.18,781.596 Z "
     id="path60" />
  <path
     stroke="none"
     fill="#000000"
     transform="matrix(0.0666667 0 0 0.0666667 -27.6447 -23)"
     d="M 1996.22,601.26 L 2004.47,595.262 L 2024.61,622.986 L 2016.36,628.984 L 1996.22,601.26 Z "
     id="path62" />
  <path
     stroke="none"
     fill="#000000"
     transform="matrix(0.0666667 0 0 0.0666667 -27.6447 -23)"
     d="M 1962.72,625.594 L 1970.98,619.596 L 1991.12,647.32 L 1982.87,653.318 L 1962.72,625.594 Z "
     id="path64" />
  <path
     stroke="none"
     fill="#000000"
     transform="matrix(0.0666667 0 0 0.0666667 -27.6447 -23)"
     d="M 1801.2,565.368 L 1798.05,555.663 L 1859.21,535.79 L 1862.36,545.495 L 1801.2,565.368 Z "
     id="path66" />
  <path
     stroke="none"
     fill="#000000"
     transform="matrix(0.0666667 0 0 0.0666667 -27.6447 -23)"
     d="M 1726.18,812.329 L 1715.98,819.743 L 1715.98,675.036 L 1726.18,675.036 L 1726.18,812.329 Z "
     id="path68" />
  <path
     stroke="none"
     fill="#000000"
     transform="matrix(0.0666667 0 0 0.0666667 -27.6447 -23)"
     d="M 1521.9,476.927 L 1521.9,465.144 L 1645.88,536.73 L 1640.78,545.567 L 1521.9,476.927 Z "
     id="path70" />
  <g
     aria-label="BnO"
     transform="matrix(0.0666667,0,0,0.0666667,3.5034,43.269)"
     style="font-style:normal;font-weight:normal;font-size:160px;font-family:Arial;fill:#000000;stroke:none"
     id="text72">
    <path
       d="M 11.71875,0 V -114.53125 H 54.6875 q 13.125,0 21.015625,3.51562 7.96875,3.4375 12.421875,10.70313 4.53125,7.1875 4.53125,15.078125 0,7.34375 -3.984375,13.828125 -3.984375,6.484375 -12.03125,10.46875 10.390625,3.046875 15.9375,10.390625 5.625,7.34375 5.625,17.34375 0,8.046875 -3.4375,15 -3.359375,6.875 -8.359375,10.625 -5,3.75 -12.578125,5.703125 Q 66.328125,0 55.390625,0 Z M 26.875,-66.40625 h 24.765625 q 10.078125,0 14.453125,-1.328125 5.78125,-1.71875 8.671875,-5.703125 2.96875,-3.984375 2.96875,-10 0,-5.703125 -2.734375,-10 -2.734375,-4.375 -7.8125,-5.9375 -5.078125,-1.64063 -17.421875,-1.64063 H 26.875 Z m 0,52.890625 h 28.515625 q 7.34375,0 10.3125,-0.546875 5.234375,-0.9375 8.75,-3.125 3.515625,-2.1875 5.78125,-6.328125 2.265625,-4.21875 2.265625,-9.6875 0,-6.40625 -3.28125,-11.09375 -3.28125,-4.765625 -9.140625,-6.640625 -5.78125,-1.953125 -16.71875,-1.953125 H 26.875 Z"
       style="font-style:normal;font-weight:normal;font-size:160px;font-family:Arial;fill:#000000;stroke:none"
       id="path933"
       inkscape:connector-curvature="0" />
    <path
       d="m 117.42188,0 v -82.96875 h 12.65624 v 11.796875 q 9.14063,-13.671875 26.40625,-13.671875 7.5,0 13.75,2.734375 6.32813,2.65625 9.45313,7.03125 3.125,4.375 4.375,10.390625 0.78125,3.90625 0.78125,13.671875 V 0 h -14.0625 v -50.46875 q 0,-8.59375 -1.64063,-12.8125 -1.64062,-4.296875 -5.85937,-6.796875 -4.14063,-2.578125 -9.76563,-2.578125 -8.98437,0 -15.54687,5.703125 -6.48438,5.703125 -6.48438,21.640625 V 0 Z"
       style="font-style:normal;font-weight:normal;font-size:160px;font-family:Arial;fill:#000000;stroke:none"
       id="path935"
       inkscape:connector-curvature="0" />
    <path
       d="m 203.67187,-55.78125 q 0,-28.515625 15.3125,-44.60938 15.3125,-16.17187 39.53125,-16.17187 15.85938,0 28.59375,7.57812 12.73438,7.57813 19.375,21.17188 6.71875,13.515625 6.71875,30.703125 0,17.421875 -7.03125,31.171875 -7.03125,13.75 -19.92187,20.859375 -12.89063,7.03125 -27.8125,7.03125 -16.17188,0 -28.90625,-7.8125 -12.73438,-7.8125 -19.29688,-21.328125 -6.5625,-13.515625 -6.5625,-28.59375 z m 15.625,0.234375 q 0,20.703125 11.09375,32.65625 11.17188,11.875 27.96875,11.875 17.10938,0 28.125,-12.03125 11.09375,-12.03125 11.09375,-34.140625 0,-13.984375 -4.76562,-24.375 -4.6875,-10.46875 -13.82813,-16.171875 -9.0625,-5.781255 -20.39062,-5.781255 -16.09375,0 -27.73438,11.093755 -11.5625,11.015625 -11.5625,36.875 z"
       style="font-style:normal;font-weight:normal;font-size:160px;font-family:Arial;fill:#000000;stroke:none"
       id="path937"
       inkscape:connector-curvature="0" />
  </g>
  <path
     stroke="none"
     fill="#000000"
     transform="matrix(0.0666667 0 0 0.0666667 -27.6447 -23)"
     d="M 1317.61,583.09 L 1327.81,588.982 L 1327.81,740.036 L 1317.61,740.036 L 1317.61,583.09 Z "
     id="path74" />
  <path
     stroke="none"
     fill="#000000"
     transform="matrix(0.0666667 0 0 0.0666667 -27.6447 -23)"
     d="M 1521.9,465.144 L 1521.9,476.927 L 1327.81,588.982 L 1317.61,583.09 L 1521.9,465.144 Z "
     id="path76" />
  <g
     aria-label="O"
     transform="matrix(0.0666667,0,0,0.0666667,43.0984,12.5966)"
     style="font-style:normal;font-weight:normal;font-size:160px;font-family:Arial;fill:#000000;stroke:none"
     id="text78">
    <path
       d="m 7.734375,-55.78125 q 0,-28.515625 15.3125,-44.60938 15.3125,-16.17187 39.53125,-16.17187 15.859375,0 28.59375,7.57812 12.734375,7.57813 19.375005,21.17188 6.71875,13.515625 6.71875,30.703125 0,17.421875 -7.03125,31.171875 -7.03125,13.75 -19.92188,20.859375 -12.890625,7.03125 -27.8125,7.03125 -16.171875,0 -28.90625,-7.8125 -12.734375,-7.8125 -19.296875,-21.328125 -6.5625,-13.515625 -6.5625,-28.59375 z m 15.625,0.234375 q 0,20.703125 11.09375,32.65625 11.171875,11.875 27.96875,11.875 17.109375,0 28.125,-12.03125 11.093755,-12.03125 11.093755,-34.140625 0,-13.984375 -4.76563,-24.375 -4.6875,-10.46875 -13.828125,-16.171875 -9.0625,-5.781255 -20.390625,-5.781255 -16.09375,0 -27.734375,11.093755 -11.5625,11.015625 -11.5625,36.875 z"
       style="font-style:normal;font-weight:normal;font-size:160px;font-family:Arial;fill:#000000;stroke:none"
       id="path940"
       inkscape:connector-curvature="0" />
  </g>
  <path
     stroke="none"
     fill="#000000"
     transform="matrix(0.0666667 0 0 0.0666667 -27.6447 -23)"
     d="M 1185.35,536.545 L 1190.46,527.708 L 1325.26,605.537 L 1320.16,614.375 L 1185.35,536.545 Z "
     id="path80" />
  <path
     stroke="none"
     fill="#000000"
     transform="matrix(0.0666667 0 0 0.0666667 -27.6447 -23)"
     d="M 1206.07,500.665 L 1211.17,491.828 L 1345.98,569.657 L 1340.87,578.494 L 1206.07,500.665 Z "
     id="path82" />
</svg>
