<?xml version="1.0" standalone="no" ?>
<!DOCTYPE svg PUBLIC "-//W3C//DTD SVG 1.1//EN" "http://www.w3.org/Graphics/SVG/1.1/DTD/svg11.dtd">
<svg width="167px" height="85px" viewBox="0 0 167 85" style="background-color: #ffffff00" xmlns="http://www.w3.org/2000/svg" xmlns:xlink="http://www.w3.org/1999/xlink" version="1.1" >
<text x="0" y="0" stroke="none" fill="#000000" transform="matrix(0.0666667 0 0 0.0666667 56.683 19.7175)" font-style="normal" font-weight="normal" font-size="160px" font-family="Arial" >
H</text>
<text x="0" y="0" stroke="none" fill="#000000" transform="matrix(0.0666667 0 0 0.0666667 56.683 30.3841)" font-style="normal" font-weight="normal" font-size="160px" font-family="Arial" >
N</text>
<path stroke="none" fill="#000000" transform="matrix(0.0666667 0 0 0.0666667 -14.0894 -44)" d="M 924.432,1396.28 L 914.227,1402.17 L 914.227,1171.46 L 919.33,1168.25 L 924.432,1171.19 L 924.432,1396.28 Z " />
<path stroke="none" fill="#000000" transform="matrix(0.0666667 0 0 0.0666667 -14.0894 -44)" d="M 1119.36,1508.82 L 1119.36,1514.71 L 1113.92,1517.46 L 914.227,1402.17 L 924.432,1396.28 L 1119.36,1508.82 Z " />
<path stroke="none" fill="#000000" transform="matrix(0.0666667 0 0 0.0666667 -14.0894 -44)" d="M 1314.29,1396.28 L 1324.49,1402.17 L 1124.8,1517.46 L 1119.36,1514.71 L 1119.36,1508.82 L 1314.29,1396.28 Z " />
<path stroke="none" fill="#000000" transform="matrix(0.0666667 0 0 0.0666667 -14.0894 -44)" d="M 1314.29,1171.19 L 1319.39,1168.25 L 1324.49,1171.46 L 1324.49,1402.17 L 1314.29,1396.28 L 1314.29,1171.19 Z " />
<path stroke="none" fill="#000000" transform="matrix(0.0666667 0 0 0.0666667 -14.0894 -44)" d="M 1198.91,1104.58 L 1204.01,1095.74 L 1319.16,1162.23 L 1319.39,1168.25 L 1314.29,1171.19 L 1198.91,1104.58 Z " />
<path stroke="none" fill="#000000" transform="matrix(0.0666667 0 0 0.0666667 -14.0894 -44)" d="M 924.432,1171.19 L 919.33,1168.25 L 919.557,1162.23 L 1034.3,1095.98 L 1039.4,1104.82 L 924.432,1171.19 Z " />
<path stroke="none" fill="#000000" transform="matrix(0.0666667 0 0 0.0666667 -14.0894 -44)" d="M 1517.16,1025.48 L 1519.42,1052.76 L 1541.91,1068.36 L 1324.49,1171.46 L 1319.39,1168.25 L 1319.16,1162.23 L 1517.16,1025.48 Z " />
<path stroke="none" fill="#000000" transform="matrix(0.0666667 0 0 0.0666667 -14.0894 -44)" d="M 589.533,1132.77 L 584.43,1123.93 L 736.706,1036.02 L 699.229,1069.44 L 589.533,1132.77 Z " />
<path stroke="none" fill="#000000" transform="matrix(0.0666667 0 0 0.0666667 -14.0894 -44)" d="M 699.229,1069.44 L 736.706,1036.02 L 919.557,1162.23 L 919.33,1168.25 L 914.227,1171.46 L 699.229,1069.44 Z " />
<text x="0" y="0" stroke="none" fill="#000000" transform="matrix(0.0666667 0 0 0.0666667 16.6221 61.2076)" font-style="normal" font-weight="normal" font-size="160px" font-family="Arial" >
BnO</text>
<path stroke="none" fill="#000000" transform="matrix(0.0666667 0 0 0.0666667 -14.0894 -44)" d="M 799.614,1495.84 L 775.803,1454.59 L 785.497,1450.98 L 807.595,1489.25 L 799.614,1495.84 Z " />
<path stroke="none" fill="#000000" transform="matrix(0.0666667 0 0 0.0666667 -14.0894 -44)" d="M 839.214,1463.16 L 823.901,1436.64 L 833.595,1433.02 L 847.195,1456.58 L 839.214,1463.16 Z " />
<path stroke="none" fill="#000000" transform="matrix(0.0666667 0 0 0.0666667 -14.0894 -44)" d="M 878.814,1430.48 L 871.999,1418.68 L 881.693,1415.06 L 886.795,1423.9 L 878.814,1430.48 Z " />
<text x="0" y="0" stroke="none" fill="#000000" transform="matrix(0.0666667 0 0 0.0666667 56.3861 76.6327)" font-style="normal" font-weight="normal" font-size="160px" font-family="Arial" >
OBn</text>
<path stroke="none" fill="#000000" transform="matrix(0.0666667 0 0 0.0666667 -14.0894 -44)" d="M 1143.17,1668.16 L 1095.55,1668.16 L 1113.92,1517.46 L 1119.36,1514.71 L 1124.8,1517.46 L 1143.17,1668.16 Z " />
<text x="0" y="0" stroke="none" fill="#000000" transform="matrix(0.0666667 0 0 0.0666667 83.1032 61.2076)" font-style="normal" font-weight="normal" font-size="160px" font-family="Arial" >
OBn</text>
<path stroke="none" fill="#000000" transform="matrix(0.0666667 0 0 0.0666667 -14.0894 -44)" d="M 1463.32,1454.83 L 1439.51,1496.07 L 1431.52,1489.49 L 1453.63,1451.2 L 1463.32,1454.83 Z " />
<path stroke="none" fill="#000000" transform="matrix(0.0666667 0 0 0.0666667 -14.0894 -44)" d="M 1414.95,1436.72 L 1399.65,1463.24 L 1391.66,1456.66 L 1405.26,1433.09 L 1414.95,1436.72 Z " />
<path stroke="none" fill="#000000" transform="matrix(0.0666667 0 0 0.0666667 -14.0894 -44)" d="M 1366.59,1418.62 L 1359.79,1430.4 L 1351.8,1423.83 L 1356.9,1414.99 L 1366.59,1418.62 Z " />
<text x="0" y="0" stroke="none" fill="#000000" transform="matrix(0.0666667 0 0 0.0666667 3.24028 38.0833)" font-style="normal" font-weight="normal" font-size="160px" font-family="Arial" >
BnO</text>
<path stroke="none" fill="#000000" transform="matrix(0.0666667 0 0 0.0666667 -14.0894 -44)" d="M 1894.71,1303.77 L 1893.18,1309.46 L 1887.49,1310.99 L 1798.82,1222.31 L 1806.03,1215.1 L 1894.71,1303.77 Z " />
<path stroke="none" fill="#000000" transform="matrix(0.0666667 0 0 0.0666667 -14.0894 -44)" d="M 1524.88,1049.61 L 1519.42,1052.76 L 1517.16,1025.48 L 1529.22,910.688 L 1539.37,911.754 L 1524.88,1049.61 Z " />
<path stroke="none" fill="#000000" transform="matrix(0.0666667 0 0 0.0666667 -14.0894 -44)" d="M 1569,1027.6 L 1558.85,1026.53 L 1570.57,915.033 L 1580.72,916.1 L 1569,1027.6 Z " />
<path stroke="none" fill="#000000" transform="matrix(0.0666667 0 0 0.0666667 -14.0894 -44)" d="M 1620.71,811.871 L 1618.59,801.889 L 1691.82,786.323 L 1693.94,796.304 L 1620.71,811.871 Z " />
<path stroke="none" fill="#000000" transform="matrix(0.0666667 0 0 0.0666667 -14.0894 -44)" d="M 1816.41,866.498 L 1825.25,861.396 L 1843.55,893.105 L 1834.71,898.207 L 1816.41,866.498 Z " />
<path stroke="none" fill="#000000" transform="matrix(0.0666667 0 0 0.0666667 -14.0894 -44)" d="M 1780.4,887.286 L 1789.24,882.184 L 1807.55,913.892 L 1798.71,918.995 L 1780.4,887.286 Z " />
<path stroke="none" fill="#000000" transform="matrix(0.0666667 0 0 0.0666667 -14.0894 -44)" d="M 1812.41,1048.02 L 1820,1054.85 L 1796.28,1081.19 L 1788.7,1074.37 L 1812.41,1048.02 Z " />
<path stroke="none" fill="#000000" transform="matrix(0.0666667 0 0 0.0666667 -14.0894 -44)" d="M 1652.8,1106.56 L 1648.65,1115.89 L 1541.91,1068.36 L 1519.42,1052.76 L 1524.88,1049.61 L 1652.8,1106.56 Z " />
<text x="0" y="0" stroke="none" fill="#000000" transform="matrix(0.0666667 0 0 0.0666667 84.9631 15.0701)" font-style="normal" font-weight="normal" font-size="160px" font-family="Arial" >
N</text>
<text x="0" y="0" stroke="none" fill="#000000" transform="matrix(0.0666667 0 0 0.0666667 100.025 11.8687)" font-style="normal" font-weight="normal" font-size="160px" font-family="Arial" >
N</text>
<text x="0" y="0" stroke="none" fill="#000000" transform="matrix(0.0666667 0 0 0.0666667 107.724 25.204)" font-style="normal" font-weight="normal" font-size="160px" font-family="Arial" >
N</text>
<text x="0" y="0" stroke="none" fill="#000000" transform="matrix(0.0666667 0 0 0.0666667 97.4207 36.6472)" font-style="normal" font-weight="normal" font-size="160px" font-family="Arial" >
N</text>
<path stroke="none" fill="#000000" transform="matrix(0.0666667 0 0 0.0666667 -14.0894 -44)" d="M 1839.3,1530.27 L 1827.92,1533.32 L 1887.49,1310.99 L 1893.18,1309.46 L 1897.35,1313.63 L 1839.3,1530.27 Z " />
<path stroke="none" fill="#000000" transform="matrix(0.0666667 0 0 0.0666667 -14.0894 -44)" d="M 1884.75,1520.73 L 1874.89,1518.09 L 1922.08,1341.97 L 1931.94,1344.61 L 1884.75,1520.73 Z " />
<path stroke="none" fill="#000000" transform="matrix(0.0666667 0 0 0.0666667 -14.0894 -44)" d="M 1997.89,1688.86 L 1994.84,1700.24 L 1827.92,1533.32 L 1839.3,1530.27 L 1997.89,1688.86 Z " />
<path stroke="none" fill="#000000" transform="matrix(0.0666667 0 0 0.0666667 -14.0894 -44)" d="M 2214.53,1630.81 L 2218.7,1634.98 L 2217.17,1640.67 L 1994.84,1700.24 L 1997.89,1688.86 L 2214.53,1630.81 Z " />
<path stroke="none" fill="#000000" transform="matrix(0.0666667 0 0 0.0666667 -14.0894 -44)" d="M 2183.55,1596.22 L 2186.19,1606.08 L 2010.07,1653.27 L 2007.43,1643.41 L 2183.55,1596.22 Z " />
<path stroke="none" fill="#000000" transform="matrix(0.0666667 0 0 0.0666667 -14.0894 -44)" d="M 2272.58,1414.17 L 2283.96,1411.12 L 2224.39,1633.45 L 2218.7,1634.98 L 2214.53,1630.81 L 2272.58,1414.17 Z " />
<path stroke="none" fill="#000000" transform="matrix(0.0666667 0 0 0.0666667 -14.0894 -44)" d="M 2113.99,1255.58 L 2117.04,1244.2 L 2283.96,1411.12 L 2272.58,1414.17 L 2113.99,1255.58 Z " />
<path stroke="none" fill="#000000" transform="matrix(0.0666667 0 0 0.0666667 -14.0894 -44)" d="M 2099.52,1299.71 L 2106.74,1292.49 L 2235.67,1421.42 L 2228.45,1428.64 L 2099.52,1299.71 Z " />
<path stroke="none" fill="#000000" transform="matrix(0.0666667 0 0 0.0666667 -14.0894 -44)" d="M 1897.35,1313.63 L 1893.18,1309.46 L 1894.71,1303.77 L 2117.04,1244.2 L 2113.99,1255.58 L 1897.35,1313.63 Z " />
<text x="0" y="0" stroke="none" fill="#000000" transform="matrix(0.0666667 0 0 0.0666667 140.526 80.049)" font-style="normal" font-weight="normal" font-size="160px" font-family="Arial" >
OMe</text>
<path stroke="none" fill="#000000" transform="matrix(0.0666667 0 0 0.0666667 -14.0894 -44)" d="M 2328.9,1737.96 L 2321.68,1745.18 L 2217.17,1640.67 L 2218.7,1634.98 L 2224.39,1633.45 L 2328.9,1737.96 Z " />
</svg>
