<?xml version="1.0" encoding="UTF-8" standalone="no"?>
<svg
   xmlns:dc="http://purl.org/dc/elements/1.1/"
   xmlns:cc="http://creativecommons.org/ns#"
   xmlns:rdf="http://www.w3.org/1999/02/22-rdf-syntax-ns#"
   xmlns:svg="http://www.w3.org/2000/svg"
   xmlns="http://www.w3.org/2000/svg"
   xmlns:sodipodi="http://sodipodi.sourceforge.net/DTD/sodipodi-0.dtd"
   xmlns:inkscape="http://www.inkscape.org/namespaces/inkscape"
   width="188px"
   height="78px"
   viewBox="0 0 188 78"
   style="background-color: #ffffff00"
   version="1.1"
   id="svg96"
   sodipodi:docname="lactams.svg"
   inkscape:version="0.92.4 (5da689c313, 2019-01-14)">
  <metadata
     id="metadata102">
    <rdf:RDF>
      <cc:Work
         rdf:about="">
        <dc:format>image/svg+xml</dc:format>
        <dc:type
           rdf:resource="http://purl.org/dc/dcmitype/StillImage" />
      </cc:Work>
    </rdf:RDF>
  </metadata>
  <defs
     id="defs100" />
  <sodipodi:namedview
     pagecolor="#ffffff"
     bordercolor="#666666"
     borderopacity="1"
     objecttolerance="10"
     gridtolerance="10"
     guidetolerance="10"
     inkscape:pageopacity="0"
     inkscape:pageshadow="2"
     inkscape:window-width="1503"
     inkscape:window-height="677"
     id="namedview98"
     showgrid="false"
     inkscape:zoom="2.5801875"
     inkscape:cx="84.401007"
     inkscape:cy="55.370792"
     inkscape:window-x="0"
     inkscape:window-y="0"
     inkscape:window-maximized="0"
     inkscape:current-layer="svg96" />
  <g
     aria-label="H"
     transform="matrix(0.0666667,0,0,0.0666667,43.1792,16.6885)"
     style="font-style:normal;font-weight:normal;font-size:160px;font-family:Arial;fill:#000000;stroke:none"
     id="text2">
    <path
       d="M 12.8125,0 V -114.53125 H 27.96875 V -67.5 H 87.5 v -47.03125 h 15.15625 V 0 H 87.5 V -53.984375 H 27.96875 V 0 Z"
       style="font-style:normal;font-weight:normal;font-size:160px;font-family:Arial;fill:#000000;stroke:none"
       id="path4627"
       inkscape:connector-curvature="0" />
  </g>
  <g
     aria-label="N"
     transform="matrix(0.0666667,0,0,0.0666667,43.1792,27.3551)"
     style="font-style:normal;font-weight:normal;font-size:160px;font-family:Arial;fill:#000000;stroke:none"
     id="text4">
    <path
       d="m 12.1875,0 v -114.53125 h 15.546875 l 60.15625,89.921875 V -114.53125 H 102.42188 V 0 H 86.875 L 26.71875,-90 V 0 Z"
       style="font-style:normal;font-weight:normal;font-size:160px;font-family:Arial;fill:#000000;stroke:none"
       id="path4630"
       inkscape:connector-curvature="0" />
  </g>
  <path
     stroke="none"
     fill="#000000"
     transform="matrix(0.0666667 0 0 0.0666667 3.42194 -23)"
     d="M 459.899,1034.64 L 449.695,1040.53 L 449.695,810.623 L 454.797,807.413 L 459.899,810.359 L 459.899,1034.64 Z "
     id="path6" />
  <path
     stroke="none"
     fill="#000000"
     transform="matrix(0.0666667 0 0 0.0666667 3.42194 -23)"
     d="M 654.133,1146.78 L 654.133,1152.67 L 648.692,1155.42 L 449.695,1040.53 L 459.899,1034.64 L 654.133,1146.78 Z "
     id="path8" />
  <path
     stroke="none"
     fill="#000000"
     transform="matrix(0.0666667 0 0 0.0666667 3.42194 -23)"
     d="M 848.366,1034.64 L 858.571,1040.53 L 659.574,1155.42 L 654.133,1152.67 L 654.133,1146.78 L 848.366,1034.64 Z "
     id="path10" />
  <path
     stroke="none"
     fill="#000000"
     transform="matrix(0.0666667 0 0 0.0666667 3.42194 -23)"
     d="M 848.366,810.359 L 858.571,804.468 L 858.571,1040.53 L 848.366,1034.64 L 848.366,810.359 Z "
     id="path12" />
  <path
     stroke="none"
     fill="#000000"
     transform="matrix(0.0666667 0 0 0.0666667 3.42194 -23)"
     d="M 733.682,744.146 L 738.784,735.309 L 858.571,804.468 L 848.366,810.359 L 733.682,744.146 Z "
     id="path14" />
  <path
     stroke="none"
     fill="#000000"
     transform="matrix(0.0666667 0 0 0.0666667 3.42194 -23)"
     d="M 459.899,810.359 L 454.797,807.413 L 455.025,801.39 L 569.071,735.546 L 574.174,744.383 L 459.899,810.359 Z "
     id="path16" />
  <path
     stroke="none"
     fill="#000000"
     transform="matrix(0.0666667 0 0 0.0666667 3.42194 -23)"
     d="M 250.359,716.171 L 260.563,667.005 L 455.025,801.39 L 454.797,807.413 L 449.695,810.623 L 250.359,716.171 Z "
     id="path18" />
  <g
     aria-label="BnO"
     transform="matrix(0.0666667,0,0,0.0666667,3.25737,58.0449)"
     style="font-style:normal;font-weight:normal;font-size:160px;font-family:Arial;fill:#000000;stroke:none"
     id="text20">
    <path
       d="M 11.71875,0 V -114.53125 H 54.6875 q 13.125,0 21.015625,3.51562 7.96875,3.4375 12.421875,10.70313 4.53125,7.1875 4.53125,15.078125 0,7.34375 -3.984375,13.828125 -3.984375,6.484375 -12.03125,10.46875 10.390625,3.046875 15.9375,10.390625 5.625,7.34375 5.625,17.34375 0,8.046875 -3.4375,15 -3.359375,6.875 -8.359375,10.625 -5,3.75 -12.578125,5.703125 Q 66.328125,0 55.390625,0 Z M 26.875,-66.40625 h 24.765625 q 10.078125,0 14.453125,-1.328125 5.78125,-1.71875 8.671875,-5.703125 2.96875,-3.984375 2.96875,-10 0,-5.703125 -2.734375,-10 -2.734375,-4.375 -7.8125,-5.9375 -5.078125,-1.64063 -17.421875,-1.64063 H 26.875 Z m 0,52.890625 h 28.515625 q 7.34375,0 10.3125,-0.546875 5.234375,-0.9375 8.75,-3.125 3.515625,-2.1875 5.78125,-6.328125 2.265625,-4.21875 2.265625,-9.6875 0,-6.40625 -3.28125,-11.09375 -3.28125,-4.765625 -9.140625,-6.640625 -5.78125,-1.953125 -16.71875,-1.953125 H 26.875 Z"
       style="font-style:normal;font-weight:normal;font-size:160px;font-family:Arial;fill:#000000;stroke:none"
       id="path4633"
       inkscape:connector-curvature="0" />
    <path
       d="m 117.42188,0 v -82.96875 h 12.65624 v 11.796875 q 9.14063,-13.671875 26.40625,-13.671875 7.5,0 13.75,2.734375 6.32813,2.65625 9.45313,7.03125 3.125,4.375 4.375,10.390625 0.78125,3.90625 0.78125,13.671875 V 0 h -14.0625 v -50.46875 q 0,-8.59375 -1.64063,-12.8125 -1.64062,-4.296875 -5.85937,-6.796875 -4.14063,-2.578125 -9.76563,-2.578125 -8.98437,0 -15.54687,5.703125 -6.48438,5.703125 -6.48438,21.640625 V 0 Z"
       style="font-style:normal;font-weight:normal;font-size:160px;font-family:Arial;fill:#000000;stroke:none"
       id="path4635"
       inkscape:connector-curvature="0" />
    <path
       d="m 203.67187,-55.78125 q 0,-28.515625 15.3125,-44.60938 15.3125,-16.17187 39.53125,-16.17187 15.85938,0 28.59375,7.57812 12.73438,7.57813 19.375,21.17188 6.71875,13.515625 6.71875,30.703125 0,17.421875 -7.03125,31.171875 -7.03125,13.75 -19.92187,20.859375 -12.89063,7.03125 -27.8125,7.03125 -16.17188,0 -28.90625,-7.8125 -12.73438,-7.8125 -19.29688,-21.328125 -6.5625,-13.515625 -6.5625,-28.59375 z m 15.625,0.234375 q 0,20.703125 11.09375,32.65625 11.17188,11.875 27.96875,11.875 17.10938,0 28.125,-12.03125 11.09375,-12.03125 11.09375,-34.140625 0,-13.984375 -4.76562,-24.375 -4.6875,-10.46875 -13.82813,-16.171875 -9.0625,-5.781255 -20.39062,-5.781255 -16.09375,0 -27.73438,11.093755 -11.5625,11.015625 -11.5625,36.875 z"
       style="font-style:normal;font-weight:normal;font-size:160px;font-family:Arial;fill:#000000;stroke:none"
       id="path4637"
       inkscape:connector-curvature="0" />
  </g>
  <path
     stroke="none"
     fill="#000000"
     transform="matrix(0.0666667 0 0 0.0666667 3.42194 -23)"
     d="M 336.472,1133.4 L 312.662,1092.15 L 322.366,1088.55 L 344.442,1126.79 L 336.472,1133.4 Z "
     id="path22" />
  <path
     stroke="none"
     fill="#000000"
     transform="matrix(0.0666667 0 0 0.0666667 3.42194 -23)"
     d="M 375.452,1101.09 L 360.128,1074.55 L 369.833,1070.95 L 383.422,1094.49 L 375.452,1101.09 Z "
     id="path24" />
  <path
     stroke="none"
     fill="#000000"
     transform="matrix(0.0666667 0 0 0.0666667 3.42194 -23)"
     d="M 414.432,1068.79 L 407.594,1056.94 L 417.299,1053.34 L 422.401,1062.18 L 414.432,1068.79 Z "
     id="path26" />
  <g
     aria-label="OBn"
     transform="matrix(0.0666667,0,0,0.0666667,42.8824,73.3897)"
     style="font-style:normal;font-weight:normal;font-size:160px;font-family:Arial;fill:#000000;stroke:none"
     id="text28">
    <path
       d="m 7.734375,-55.78125 q 0,-28.515625 15.3125,-44.60938 15.3125,-16.17187 39.53125,-16.17187 15.859375,0 28.59375,7.57812 12.734375,7.57813 19.375005,21.17188 6.71875,13.515625 6.71875,30.703125 0,17.421875 -7.03125,31.171875 -7.03125,13.75 -19.92188,20.859375 -12.890625,7.03125 -27.8125,7.03125 -16.171875,0 -28.90625,-7.8125 -12.734375,-7.8125 -19.296875,-21.328125 -6.5625,-13.515625 -6.5625,-28.59375 z m 15.625,0.234375 q 0,20.703125 11.09375,32.65625 11.171875,11.875 27.96875,11.875 17.109375,0 28.125,-12.03125 11.093755,-12.03125 11.093755,-34.140625 0,-13.984375 -4.76563,-24.375 -4.6875,-10.46875 -13.828125,-16.171875 -9.0625,-5.781255 -20.390625,-5.781255 -16.09375,0 -27.734375,11.093755 -11.5625,11.015625 -11.5625,36.875 z"
       style="font-style:normal;font-weight:normal;font-size:160px;font-family:Arial;fill:#000000;stroke:none"
       id="path4640"
       inkscape:connector-curvature="0" />
    <path
       d="m 136.09375,0 v -114.53125 h 42.96875 q 13.125,0 21.01562,3.51562 7.96875,3.4375 12.42188,10.70313 4.53125,7.1875 4.53125,15.078125 0,7.34375 -3.98438,13.828125 -3.98437,6.484375 -12.03125,10.46875 10.39063,3.046875 15.9375,10.390625 5.625,7.34375 5.625,17.34375 0,8.046875 -3.4375,15 -3.35937,6.875 -8.35937,10.625 -5,3.75 -12.57813,5.703125 Q 190.70312,0 179.76562,0 Z M 151.25,-66.40625 h 24.76562 q 10.07813,0 14.45313,-1.328125 5.78125,-1.71875 8.67187,-5.703125 2.96875,-3.984375 2.96875,-10 0,-5.703125 -2.73437,-10 -2.73438,-4.375 -7.8125,-5.9375 -5.07813,-1.64063 -17.42188,-1.64063 H 151.25 Z m 0,52.890625 h 28.51562 q 7.34375,0 10.3125,-0.546875 5.23438,-0.9375 8.75,-3.125 3.51563,-2.1875 5.78125,-6.328125 2.26563,-4.21875 2.26563,-9.6875 0,-6.40625 -3.28125,-11.09375 -3.28125,-4.765625 -9.14063,-6.640625 -5.78125,-1.953125 -16.71875,-1.953125 H 151.25 Z"
       style="font-style:normal;font-weight:normal;font-size:160px;font-family:Arial;fill:#000000;stroke:none"
       id="path4642"
       inkscape:connector-curvature="0" />
    <path
       d="m 241.79687,0 v -82.96875 h 12.65625 v 11.796875 q 9.14063,-13.671875 26.40625,-13.671875 7.5,0 13.75,2.734375 6.32813,2.65625 9.45313,7.03125 3.125,4.375 4.375,10.390625 0.78125,3.90625 0.78125,13.671875 V 0 h -14.0625 v -50.46875 q 0,-8.59375 -1.64063,-12.8125 -1.64062,-4.296875 -5.85937,-6.796875 -4.14063,-2.578125 -9.76563,-2.578125 -8.98437,0 -15.54687,5.703125 -6.48438,5.703125 -6.48438,21.640625 V 0 Z"
       style="font-style:normal;font-weight:normal;font-size:160px;font-family:Arial;fill:#000000;stroke:none"
       id="path4644"
       inkscape:connector-curvature="0" />
  </g>
  <path
     stroke="none"
     fill="#000000"
     transform="matrix(0.0666667 0 0 0.0666667 3.42194 -23)"
     d="M 677.944,1304.51 L 630.322,1304.51 L 648.692,1155.42 L 654.133,1152.67 L 659.574,1155.42 L 677.944,1304.51 Z "
     id="path30" />
  <g
     aria-label="OBn"
     transform="matrix(0.0666667,0,0,0.0666667,69.4604,58.0449)"
     style="font-style:normal;font-weight:normal;font-size:160px;font-family:Arial;fill:#000000;stroke:none"
     id="text32">
    <path
       d="m 7.734375,-55.78125 q 0,-28.515625 15.3125,-44.60938 15.3125,-16.17187 39.53125,-16.17187 15.859375,0 28.59375,7.57812 12.734375,7.57813 19.375005,21.17188 6.71875,13.515625 6.71875,30.703125 0,17.421875 -7.03125,31.171875 -7.03125,13.75 -19.92188,20.859375 -12.890625,7.03125 -27.8125,7.03125 -16.171875,0 -28.90625,-7.8125 -12.734375,-7.8125 -19.296875,-21.328125 -6.5625,-13.515625 -6.5625,-28.59375 z m 15.625,0.234375 q 0,20.703125 11.09375,32.65625 11.171875,11.875 27.96875,11.875 17.109375,0 28.125,-12.03125 11.093755,-12.03125 11.093755,-34.140625 0,-13.984375 -4.76563,-24.375 -4.6875,-10.46875 -13.828125,-16.171875 -9.0625,-5.781255 -20.390625,-5.781255 -16.09375,0 -27.734375,11.093755 -11.5625,11.015625 -11.5625,36.875 z"
       style="font-style:normal;font-weight:normal;font-size:160px;font-family:Arial;fill:#000000;stroke:none"
       id="path4647"
       inkscape:connector-curvature="0" />
    <path
       d="m 136.09375,0 v -114.53125 h 42.96875 q 13.125,0 21.01562,3.51562 7.96875,3.4375 12.42188,10.70313 4.53125,7.1875 4.53125,15.078125 0,7.34375 -3.98438,13.828125 -3.98437,6.484375 -12.03125,10.46875 10.39063,3.046875 15.9375,10.390625 5.625,7.34375 5.625,17.34375 0,8.046875 -3.4375,15 -3.35937,6.875 -8.35937,10.625 -5,3.75 -12.57813,5.703125 Q 190.70312,0 179.76562,0 Z M 151.25,-66.40625 h 24.76562 q 10.07813,0 14.45313,-1.328125 5.78125,-1.71875 8.67187,-5.703125 2.96875,-3.984375 2.96875,-10 0,-5.703125 -2.73437,-10 -2.73438,-4.375 -7.8125,-5.9375 -5.07813,-1.64063 -17.42188,-1.64063 H 151.25 Z m 0,52.890625 h 28.51562 q 7.34375,0 10.3125,-0.546875 5.23438,-0.9375 8.75,-3.125 3.51563,-2.1875 5.78125,-6.328125 2.26563,-4.21875 2.26563,-9.6875 0,-6.40625 -3.28125,-11.09375 -3.28125,-4.765625 -9.14063,-6.640625 -5.78125,-1.953125 -16.71875,-1.953125 H 151.25 Z"
       style="font-style:normal;font-weight:normal;font-size:160px;font-family:Arial;fill:#000000;stroke:none"
       id="path4649"
       inkscape:connector-curvature="0" />
    <path
       d="m 241.79687,0 v -82.96875 h 12.65625 v 11.796875 q 9.14063,-13.671875 26.40625,-13.671875 7.5,0 13.75,2.734375 6.32813,2.65625 9.45313,7.03125 3.125,4.375 4.375,10.390625 0.78125,3.90625 0.78125,13.671875 V 0 h -14.0625 v -50.46875 q 0,-8.59375 -1.64063,-12.8125 -1.64062,-4.296875 -5.85937,-6.796875 -4.14063,-2.578125 -9.76563,-2.578125 -8.98437,0 -15.54687,5.703125 -6.48438,5.703125 -6.48438,21.640625 V 0 Z"
       style="font-style:normal;font-weight:normal;font-size:160px;font-family:Arial;fill:#000000;stroke:none"
       id="path4651"
       inkscape:connector-curvature="0" />
  </g>
  <path
     stroke="none"
     fill="#000000"
     transform="matrix(0.0666667 0 0 0.0666667 3.42194 -23)"
     d="M 996.004,1092.39 L 972.194,1133.63 L 964.221,1127.03 L 986.302,1088.78 L 996.004,1092.39 Z "
     id="path34" />
  <path
     stroke="none"
     fill="#000000"
     transform="matrix(0.0666667 0 0 0.0666667 3.42194 -23)"
     d="M 948.39,1074.7 L 933.069,1101.24 L 925.096,1094.64 L 938.688,1071.09 L 948.39,1074.7 Z "
     id="path36" />
  <path
     stroke="none"
     fill="#000000"
     transform="matrix(0.0666667 0 0 0.0666667 3.42194 -23)"
     d="M 900.776,1057.01 L 893.944,1068.84 L 885.971,1062.24 L 891.074,1053.41 L 900.776,1057.01 Z "
     id="path38" />
  <g
     aria-label="BnO"
     transform="matrix(0.0666667,0,0,0.0666667,3.25737,12.0103)"
     style="font-style:normal;font-weight:normal;font-size:160px;font-family:Arial;fill:#000000;stroke:none"
     id="text40">
    <path
       d="M 11.71875,0 V -114.53125 H 54.6875 q 13.125,0 21.015625,3.51562 7.96875,3.4375 12.421875,10.70313 4.53125,7.1875 4.53125,15.078125 0,7.34375 -3.984375,13.828125 -3.984375,6.484375 -12.03125,10.46875 10.390625,3.046875 15.9375,10.390625 5.625,7.34375 5.625,17.34375 0,8.046875 -3.4375,15 -3.359375,6.875 -8.359375,10.625 -5,3.75 -12.578125,5.703125 Q 66.328125,0 55.390625,0 Z M 26.875,-66.40625 h 24.765625 q 10.078125,0 14.453125,-1.328125 5.78125,-1.71875 8.671875,-5.703125 2.96875,-3.984375 2.96875,-10 0,-5.703125 -2.734375,-10 -2.734375,-4.375 -7.8125,-5.9375 -5.078125,-1.64063 -17.421875,-1.64063 H 26.875 Z m 0,52.890625 h 28.515625 q 7.34375,0 10.3125,-0.546875 5.234375,-0.9375 8.75,-3.125 3.515625,-2.1875 5.78125,-6.328125 2.265625,-4.21875 2.265625,-9.6875 0,-6.40625 -3.28125,-11.09375 -3.28125,-4.765625 -9.140625,-6.640625 -5.78125,-1.953125 -16.71875,-1.953125 H 26.875 Z"
       style="font-style:normal;font-weight:normal;font-size:160px;font-family:Arial;fill:#000000;stroke:none"
       id="path4654"
       inkscape:connector-curvature="0" />
    <path
       d="m 117.42188,0 v -82.96875 h 12.65624 v 11.796875 q 9.14063,-13.671875 26.40625,-13.671875 7.5,0 13.75,2.734375 6.32813,2.65625 9.45313,7.03125 3.125,4.375 4.375,10.390625 0.78125,3.90625 0.78125,13.671875 V 0 h -14.0625 v -50.46875 q 0,-8.59375 -1.64063,-12.8125 -1.64062,-4.296875 -5.85937,-6.796875 -4.14063,-2.578125 -9.76563,-2.578125 -8.98437,0 -15.54687,5.703125 -6.48438,5.703125 -6.48438,21.640625 V 0 Z"
       style="font-style:normal;font-weight:normal;font-size:160px;font-family:Arial;fill:#000000;stroke:none"
       id="path4656"
       inkscape:connector-curvature="0" />
    <path
       d="m 203.67187,-55.78125 q 0,-28.515625 15.3125,-44.60938 15.3125,-16.17187 39.53125,-16.17187 15.85938,0 28.59375,7.57812 12.73438,7.57813 19.375,21.17188 6.71875,13.515625 6.71875,30.703125 0,17.421875 -7.03125,31.171875 -7.03125,13.75 -19.92187,20.859375 -12.89063,7.03125 -27.8125,7.03125 -16.17188,0 -28.90625,-7.8125 -12.73438,-7.8125 -19.29688,-21.328125 -6.5625,-13.515625 -6.5625,-28.59375 z m 15.625,0.234375 q 0,20.703125 11.09375,32.65625 11.17188,11.875 27.96875,11.875 17.10938,0 28.125,-12.03125 11.09375,-12.03125 11.09375,-34.140625 0,-13.984375 -4.76562,-24.375 -4.6875,-10.46875 -13.82813,-16.171875 -9.0625,-5.781255 -20.39062,-5.781255 -16.09375,0 -27.73438,11.093755 -11.5625,11.015625 -11.5625,36.875 z"
       style="font-style:normal;font-weight:normal;font-size:160px;font-family:Arial;fill:#000000;stroke:none"
       id="path4658"
       inkscape:connector-curvature="0" />
  </g>
  <path
     stroke="none"
     fill="#000000"
     transform="matrix(0.0666667 0 0 0.0666667 3.42194 -23)"
     d="M 250.359,553.82 L 260.563,553.82 L 260.563,667.005 L 250.359,716.171 L 250.359,553.82 Z "
     id="path42" />
  <g
     aria-label="O"
     transform="matrix(0.0666667,0,0,0.0666667,69.4604,27.3551)"
     style="font-style:normal;font-weight:normal;font-size:160px;font-family:Arial;fill:#000000;stroke:none"
     id="text44">
    <path
       d="m 7.734375,-55.78125 q 0,-28.515625 15.3125,-44.60938 15.3125,-16.17187 39.53125,-16.17187 15.859375,0 28.59375,7.57812 12.734375,7.57813 19.375005,21.17188 6.71875,13.515625 6.71875,30.703125 0,17.421875 -7.03125,31.171875 -7.03125,13.75 -19.92188,20.859375 -12.890625,7.03125 -27.8125,7.03125 -16.171875,0 -28.90625,-7.8125 -12.734375,-7.8125 -19.296875,-21.328125 -6.5625,-13.515625 -6.5625,-28.59375 z m 15.625,0.234375 q 0,20.703125 11.09375,32.65625 11.171875,11.875 27.96875,11.875 17.109375,0 28.125,-12.03125 11.093755,-12.03125 11.093755,-34.140625 0,-13.984375 -4.76563,-24.375 -4.6875,-10.46875 -13.828125,-16.171875 -9.0625,-5.781255 -20.390625,-5.781255 -16.09375,0 -27.734375,11.093755 -11.5625,11.015625 -11.5625,36.875 z"
       style="font-style:normal;font-weight:normal;font-size:160px;font-family:Arial;fill:#000000;stroke:none"
       id="path4661"
       inkscape:connector-curvature="0" />
  </g>
  <path
     stroke="none"
     fill="#000000"
     transform="matrix(0.0666667 0 0 0.0666667 3.42194 -23)"
     d="M 965.649,712.834 L 970.751,721.671 L 835.304,799.872 L 830.202,791.035 L 965.649,712.834 Z "
     id="path46" />
  <path
     stroke="none"
     fill="#000000"
     transform="matrix(0.0666667 0 0 0.0666667 3.42194 -23)"
     d="M 986.364,748.715 L 991.466,757.552 L 856.019,835.752 L 850.917,826.915 L 986.364,748.715 Z "
     id="path48" />
  <g
     aria-label="H"
     transform="matrix(0.0666667,0,0,0.0666667,142.699,16.6885)"
     style="font-style:normal;font-weight:normal;font-size:160px;font-family:Arial;fill:#000000;stroke:none"
     id="text50">
    <path
       d="M 12.8125,0 V -114.53125 H 27.96875 V -67.5 H 87.5 v -47.03125 h 15.15625 V 0 H 87.5 V -53.984375 H 27.96875 V 0 Z"
       style="font-style:normal;font-weight:normal;font-size:160px;font-family:Arial;fill:#000000;stroke:none"
       id="path4664"
       inkscape:connector-curvature="0" />
  </g>
  <g
     aria-label="N"
     transform="matrix(0.0666667,0,0,0.0666667,142.699,27.3551)"
     style="font-style:normal;font-weight:normal;font-size:160px;font-family:Arial;fill:#000000;stroke:none"
     id="text52">
    <path
       d="m 12.1875,0 v -114.53125 h 15.546875 l 60.15625,89.921875 V -114.53125 H 102.42188 V 0 H 86.875 L 26.71875,-90 V 0 Z"
       style="font-style:normal;font-weight:normal;font-size:160px;font-family:Arial;fill:#000000;stroke:none"
       id="path4667"
       inkscape:connector-curvature="0" />
  </g>
  <path
     stroke="none"
     fill="#000000"
     transform="matrix(0.0666667 0 0 0.0666667 3.42194 -23)"
     d="M 1952.7,1034.64 L 1947.59,1037.59 L 1942.49,1034.25 L 1942.49,810.623 L 1947.59,807.413 L 1952.7,810.359 L 1952.7,1034.64 Z "
     id="path54" />
  <path
     stroke="none"
     fill="#000000"
     transform="matrix(0.0666667 0 0 0.0666667 3.42194 -23)"
     d="M 2146.93,1146.78 L 2146.93,1152.67 L 2141.49,1155.42 L 1947.94,1043.68 L 1947.59,1037.59 L 1952.7,1034.64 L 2146.93,1146.78 Z "
     id="path56" />
  <path
     stroke="none"
     fill="#000000"
     transform="matrix(0.0666667 0 0 0.0666667 3.42194 -23)"
     d="M 2341.16,1034.64 L 2351.37,1040.53 L 2152.37,1155.42 L 2146.93,1152.67 L 2146.93,1146.78 L 2341.16,1034.64 Z "
     id="path58" />
  <path
     stroke="none"
     fill="#000000"
     transform="matrix(0.0666667 0 0 0.0666667 3.42194 -23)"
     d="M 2341.16,810.359 L 2351.37,804.468 L 2351.37,1040.53 L 2341.16,1034.64 L 2341.16,810.359 Z "
     id="path60" />
  <path
     stroke="none"
     fill="#000000"
     transform="matrix(0.0666667 0 0 0.0666667 3.42194 -23)"
     d="M 2226.48,744.146 L 2231.58,735.309 L 2351.37,804.468 L 2341.16,810.359 L 2226.48,744.146 Z "
     id="path62" />
  <path
     stroke="none"
     fill="#000000"
     transform="matrix(0.0666667 0 0 0.0666667 3.42194 -23)"
     d="M 1952.7,810.359 L 1947.59,807.413 L 1947.82,801.39 L 2061.87,735.546 L 2066.97,744.383 L 1952.7,810.359 Z "
     id="path64" />
  <path
     stroke="none"
     fill="#000000"
     transform="matrix(0.0666667 0 0 0.0666667 3.42194 -23)"
     d="M 1743.16,716.171 L 1753.36,667.005 L 1947.82,801.39 L 1947.59,807.413 L 1942.49,810.623 L 1743.16,716.171 Z "
     id="path66" />
  <g
     aria-label="BnO"
     transform="matrix(0.0666667,0,0,0.0666667,102.777,58.0449)"
     style="font-style:normal;font-weight:normal;font-size:160px;font-family:Arial;fill:#000000;stroke:none"
     id="text68">
    <path
       d="M 11.71875,0 V -114.53125 H 54.6875 q 13.125,0 21.015625,3.51562 7.96875,3.4375 12.421875,10.70313 4.53125,7.1875 4.53125,15.078125 0,7.34375 -3.984375,13.828125 -3.984375,6.484375 -12.03125,10.46875 10.390625,3.046875 15.9375,10.390625 5.625,7.34375 5.625,17.34375 0,8.046875 -3.4375,15 -3.359375,6.875 -8.359375,10.625 -5,3.75 -12.578125,5.703125 Q 66.328125,0 55.390625,0 Z M 26.875,-66.40625 h 24.765625 q 10.078125,0 14.453125,-1.328125 5.78125,-1.71875 8.671875,-5.703125 2.96875,-3.984375 2.96875,-10 0,-5.703125 -2.734375,-10 -2.734375,-4.375 -7.8125,-5.9375 -5.078125,-1.64063 -17.421875,-1.64063 H 26.875 Z m 0,52.890625 h 28.515625 q 7.34375,0 10.3125,-0.546875 5.234375,-0.9375 8.75,-3.125 3.515625,-2.1875 5.78125,-6.328125 2.265625,-4.21875 2.265625,-9.6875 0,-6.40625 -3.28125,-11.09375 -3.28125,-4.765625 -9.140625,-6.640625 -5.78125,-1.953125 -16.71875,-1.953125 H 26.875 Z"
       style="font-style:normal;font-weight:normal;font-size:160px;font-family:Arial;fill:#000000;stroke:none"
       id="path4670"
       inkscape:connector-curvature="0" />
    <path
       d="m 117.42188,0 v -82.96875 h 12.65624 v 11.796875 q 9.14063,-13.671875 26.40625,-13.671875 7.5,0 13.75,2.734375 6.32813,2.65625 9.45313,7.03125 3.125,4.375 4.375,10.390625 0.78125,3.90625 0.78125,13.671875 V 0 h -14.0625 v -50.46875 q 0,-8.59375 -1.64063,-12.8125 -1.64062,-4.296875 -5.85937,-6.796875 -4.14063,-2.578125 -9.76563,-2.578125 -8.98437,0 -15.54687,5.703125 -6.48438,5.703125 -6.48438,21.640625 V 0 Z"
       style="font-style:normal;font-weight:normal;font-size:160px;font-family:Arial;fill:#000000;stroke:none"
       id="path4672"
       inkscape:connector-curvature="0" />
    <path
       d="m 203.67187,-55.78125 q 0,-28.515625 15.3125,-44.60938 15.3125,-16.17187 39.53125,-16.17187 15.85938,0 28.59375,7.57812 12.73438,7.57813 19.375,21.17188 6.71875,13.515625 6.71875,30.703125 0,17.421875 -7.03125,31.171875 -7.03125,13.75 -19.92187,20.859375 -12.89063,7.03125 -27.8125,7.03125 -16.17188,0 -28.90625,-7.8125 -12.73438,-7.8125 -19.29688,-21.328125 -6.5625,-13.515625 -6.5625,-28.59375 z m 15.625,0.234375 q 0,20.703125 11.09375,32.65625 11.17188,11.875 27.96875,11.875 17.10938,0 28.125,-12.03125 11.09375,-12.03125 11.09375,-34.140625 0,-13.984375 -4.76562,-24.375 -4.6875,-10.46875 -13.82813,-16.171875 -9.0625,-5.781255 -20.39062,-5.781255 -16.09375,0 -27.73438,11.093755 -11.5625,11.015625 -11.5625,36.875 z"
       style="font-style:normal;font-weight:normal;font-size:160px;font-family:Arial;fill:#000000;stroke:none"
       id="path4674"
       inkscape:connector-curvature="0" />
  </g>
  <path
     stroke="none"
     fill="#000000"
     transform="matrix(0.0666667 0 0 0.0666667 3.42194 -23)"
     d="M 1829.27,1133.4 L 1805.46,1092.15 L 1942.49,1034.25 L 1947.59,1037.59 L 1947.94,1043.68 L 1829.27,1133.4 Z "
     id="path70" />
  <g
     aria-label="OBn"
     transform="matrix(0.0666667,0,0,0.0666667,142.402,73.3897)"
     style="font-style:normal;font-weight:normal;font-size:160px;font-family:Arial;fill:#000000;stroke:none"
     id="text72">
    <path
       d="m 7.734375,-55.78125 q 0,-28.515625 15.3125,-44.60938 15.3125,-16.17187 39.53125,-16.17187 15.859375,0 28.59375,7.57812 12.734375,7.57813 19.375005,21.17188 6.71875,13.515625 6.71875,30.703125 0,17.421875 -7.03125,31.171875 -7.03125,13.75 -19.92188,20.859375 -12.890625,7.03125 -27.8125,7.03125 -16.171875,0 -28.90625,-7.8125 -12.734375,-7.8125 -19.296875,-21.328125 -6.5625,-13.515625 -6.5625,-28.59375 z m 15.625,0.234375 q 0,20.703125 11.09375,32.65625 11.171875,11.875 27.96875,11.875 17.109375,0 28.125,-12.03125 11.093755,-12.03125 11.093755,-34.140625 0,-13.984375 -4.76563,-24.375 -4.6875,-10.46875 -13.828125,-16.171875 -9.0625,-5.781255 -20.390625,-5.781255 -16.09375,0 -27.734375,11.093755 -11.5625,11.015625 -11.5625,36.875 z"
       style="font-style:normal;font-weight:normal;font-size:160px;font-family:Arial;fill:#000000;stroke:none"
       id="path4677"
       inkscape:connector-curvature="0" />
    <path
       d="m 136.09375,0 v -114.53125 h 42.96875 q 13.125,0 21.01562,3.51562 7.96875,3.4375 12.42188,10.70313 4.53125,7.1875 4.53125,15.078125 0,7.34375 -3.98438,13.828125 -3.98437,6.484375 -12.03125,10.46875 10.39063,3.046875 15.9375,10.390625 5.625,7.34375 5.625,17.34375 0,8.046875 -3.4375,15 -3.35937,6.875 -8.35937,10.625 -5,3.75 -12.57813,5.703125 Q 190.70312,0 179.76562,0 Z M 151.25,-66.40625 h 24.76562 q 10.07813,0 14.45313,-1.328125 5.78125,-1.71875 8.67187,-5.703125 2.96875,-3.984375 2.96875,-10 0,-5.703125 -2.73437,-10 -2.73438,-4.375 -7.8125,-5.9375 -5.07813,-1.64063 -17.42188,-1.64063 H 151.25 Z m 0,52.890625 h 28.51562 q 7.34375,0 10.3125,-0.546875 5.23438,-0.9375 8.75,-3.125 3.51563,-2.1875 5.78125,-6.328125 2.26563,-4.21875 2.26563,-9.6875 0,-6.40625 -3.28125,-11.09375 -3.28125,-4.765625 -9.14063,-6.640625 -5.78125,-1.953125 -16.71875,-1.953125 H 151.25 Z"
       style="font-style:normal;font-weight:normal;font-size:160px;font-family:Arial;fill:#000000;stroke:none"
       id="path4679"
       inkscape:connector-curvature="0" />
    <path
       d="m 241.79687,0 v -82.96875 h 12.65625 v 11.796875 q 9.14063,-13.671875 26.40625,-13.671875 7.5,0 13.75,2.734375 6.32813,2.65625 9.45313,7.03125 3.125,4.375 4.375,10.390625 0.78125,3.90625 0.78125,13.671875 V 0 h -14.0625 v -50.46875 q 0,-8.59375 -1.64063,-12.8125 -1.64062,-4.296875 -5.85937,-6.796875 -4.14063,-2.578125 -9.76563,-2.578125 -8.98437,0 -15.54687,5.703125 -6.48438,5.703125 -6.48438,21.640625 V 0 Z"
       style="font-style:normal;font-weight:normal;font-size:160px;font-family:Arial;fill:#000000;stroke:none"
       id="path4681"
       inkscape:connector-curvature="0" />
  </g>
  <path
     stroke="none"
     fill="#000000"
     transform="matrix(0.0666667 0 0 0.0666667 3.42194 -23)"
     d="M 2170.74,1304.51 L 2123.12,1304.51 L 2141.49,1155.42 L 2146.93,1152.67 L 2152.37,1155.42 L 2170.74,1304.51 Z "
     id="path74" />
  <g
     aria-label="OB"
     transform="matrix(0.0666667,0,0,0.0666667,168.98,58.0449)"
     style="font-style:normal;font-weight:normal;font-size:160px;font-family:Arial;fill:#000000;stroke:none"
     id="text76">
    <path
       d="m 7.734375,-55.78125 q 0,-28.515625 15.3125,-44.60938 15.3125,-16.17187 39.53125,-16.17187 15.859375,0 28.59375,7.57812 12.734375,7.57813 19.375005,21.17188 6.71875,13.515625 6.71875,30.703125 0,17.421875 -7.03125,31.171875 -7.03125,13.75 -19.92188,20.859375 -12.890625,7.03125 -27.8125,7.03125 -16.171875,0 -28.90625,-7.8125 -12.734375,-7.8125 -19.296875,-21.328125 -6.5625,-13.515625 -6.5625,-28.59375 z m 15.625,0.234375 q 0,20.703125 11.09375,32.65625 11.171875,11.875 27.96875,11.875 17.109375,0 28.125,-12.03125 11.093755,-12.03125 11.093755,-34.140625 0,-13.984375 -4.76563,-24.375 -4.6875,-10.46875 -13.828125,-16.171875 -9.0625,-5.781255 -20.390625,-5.781255 -16.09375,0 -27.734375,11.093755 -11.5625,11.015625 -11.5625,36.875 z"
       style="font-style:normal;font-weight:normal;font-size:160px;font-family:Arial;fill:#000000;stroke:none"
       id="path4684"
       inkscape:connector-curvature="0" />
    <path
       d="m 136.09375,0 v -114.53125 h 42.96875 q 13.125,0 21.01562,3.51562 7.96875,3.4375 12.42188,10.70313 4.53125,7.1875 4.53125,15.078125 0,7.34375 -3.98438,13.828125 -3.98437,6.484375 -12.03125,10.46875 10.39063,3.046875 15.9375,10.390625 5.625,7.34375 5.625,17.34375 0,8.046875 -3.4375,15 -3.35937,6.875 -8.35937,10.625 -5,3.75 -12.57813,5.703125 Q 190.70312,0 179.76562,0 Z M 151.25,-66.40625 h 24.76562 q 10.07813,0 14.45313,-1.328125 5.78125,-1.71875 8.67187,-5.703125 2.96875,-3.984375 2.96875,-10 0,-5.703125 -2.73437,-10 -2.73438,-4.375 -7.8125,-5.9375 -5.07813,-1.64063 -17.42188,-1.64063 H 151.25 Z m 0,52.890625 h 28.51562 q 7.34375,0 10.3125,-0.546875 5.23438,-0.9375 8.75,-3.125 3.51563,-2.1875 5.78125,-6.328125 2.26563,-4.21875 2.26563,-9.6875 0,-6.40625 -3.28125,-11.09375 -3.28125,-4.765625 -9.14063,-6.640625 -5.78125,-1.953125 -16.71875,-1.953125 H 151.25 Z"
       style="font-style:normal;font-weight:normal;font-size:160px;font-family:Arial;fill:#000000;stroke:none"
       id="path4686"
       inkscape:connector-curvature="0" />
  </g>
  <path
     stroke="none"
     fill="#000000"
     transform="matrix(0.0666667 0 0 0.0666667 3.42194 -23)"
     d="M 2488.8,1092.39 L 2464.99,1133.63 L 2457.02,1127.03 L 2479.1,1088.78 L 2488.8,1092.39 Z "
     id="path80" />
  <path
     stroke="none"
     fill="#000000"
     transform="matrix(0.0666667 0 0 0.0666667 3.42194 -23)"
     d="M 2441.19,1074.7 L 2425.87,1101.24 L 2417.89,1094.64 L 2431.49,1071.09 L 2441.19,1074.7 Z "
     id="path82" />
  <path
     stroke="none"
     fill="#000000"
     transform="matrix(0.0666667 0 0 0.0666667 3.42194 -23)"
     d="M 2393.57,1057.01 L 2386.74,1068.84 L 2378.77,1062.24 L 2383.87,1053.41 L 2393.57,1057.01 Z "
     id="path84" />
  <g
     aria-label="BnO"
     transform="matrix(0.0666667,0,0,0.0666667,102.777,12.0103)"
     style="font-style:normal;font-weight:normal;font-size:160px;font-family:Arial;fill:#000000;stroke:none"
     id="text86">
    <path
       d="M 11.71875,0 V -114.53125 H 54.6875 q 13.125,0 21.015625,3.51562 7.96875,3.4375 12.421875,10.70313 4.53125,7.1875 4.53125,15.078125 0,7.34375 -3.984375,13.828125 -3.984375,6.484375 -12.03125,10.46875 10.390625,3.046875 15.9375,10.390625 5.625,7.34375 5.625,17.34375 0,8.046875 -3.4375,15 -3.359375,6.875 -8.359375,10.625 -5,3.75 -12.578125,5.703125 Q 66.328125,0 55.390625,0 Z M 26.875,-66.40625 h 24.765625 q 10.078125,0 14.453125,-1.328125 5.78125,-1.71875 8.671875,-5.703125 2.96875,-3.984375 2.96875,-10 0,-5.703125 -2.734375,-10 -2.734375,-4.375 -7.8125,-5.9375 -5.078125,-1.64063 -17.421875,-1.64063 H 26.875 Z m 0,52.890625 h 28.515625 q 7.34375,0 10.3125,-0.546875 5.234375,-0.9375 8.75,-3.125 3.515625,-2.1875 5.78125,-6.328125 2.265625,-4.21875 2.265625,-9.6875 0,-6.40625 -3.28125,-11.09375 -3.28125,-4.765625 -9.140625,-6.640625 -5.78125,-1.953125 -16.71875,-1.953125 H 26.875 Z"
       style="font-style:normal;font-weight:normal;font-size:160px;font-family:Arial;fill:#000000;stroke:none"
       id="path4689"
       inkscape:connector-curvature="0" />
    <path
       d="m 117.42188,0 v -82.96875 h 12.65624 v 11.796875 q 9.14063,-13.671875 26.40625,-13.671875 7.5,0 13.75,2.734375 6.32813,2.65625 9.45313,7.03125 3.125,4.375 4.375,10.390625 0.78125,3.90625 0.78125,13.671875 V 0 h -14.0625 v -50.46875 q 0,-8.59375 -1.64063,-12.8125 -1.64062,-4.296875 -5.85937,-6.796875 -4.14063,-2.578125 -9.76563,-2.578125 -8.98437,0 -15.54687,5.703125 -6.48438,5.703125 -6.48438,21.640625 V 0 Z"
       style="font-style:normal;font-weight:normal;font-size:160px;font-family:Arial;fill:#000000;stroke:none"
       id="path4691"
       inkscape:connector-curvature="0" />
    <path
       d="m 203.67187,-55.78125 q 0,-28.515625 15.3125,-44.60938 15.3125,-16.17187 39.53125,-16.17187 15.85938,0 28.59375,7.57812 12.73438,7.57813 19.375,21.17188 6.71875,13.515625 6.71875,30.703125 0,17.421875 -7.03125,31.171875 -7.03125,13.75 -19.92187,20.859375 -12.89063,7.03125 -27.8125,7.03125 -16.17188,0 -28.90625,-7.8125 -12.73438,-7.8125 -19.29688,-21.328125 -6.5625,-13.515625 -6.5625,-28.59375 z m 15.625,0.234375 q 0,20.703125 11.09375,32.65625 11.17188,11.875 27.96875,11.875 17.10938,0 28.125,-12.03125 11.09375,-12.03125 11.09375,-34.140625 0,-13.984375 -4.76562,-24.375 -4.6875,-10.46875 -13.82813,-16.171875 -9.0625,-5.781255 -20.39062,-5.781255 -16.09375,0 -27.73438,11.093755 -11.5625,11.015625 -11.5625,36.875 z"
       style="font-style:normal;font-weight:normal;font-size:160px;font-family:Arial;fill:#000000;stroke:none"
       id="path4693"
       inkscape:connector-curvature="0" />
  </g>
  <path
     stroke="none"
     fill="#000000"
     transform="matrix(0.0666667 0 0 0.0666667 3.42194 -23)"
     d="M 1743.16,553.82 L 1753.36,553.82 L 1753.36,667.005 L 1743.16,716.171 L 1743.16,553.82 Z "
     id="path88" />
  <g
     aria-label="O"
     transform="matrix(0.0666667,0,0,0.0666667,168.98,27.3551)"
     style="font-style:normal;font-weight:normal;font-size:160px;font-family:Arial;fill:#000000;stroke:none"
     id="text90">
    <path
       d="m 7.734375,-55.78125 q 0,-28.515625 15.3125,-44.60938 15.3125,-16.17187 39.53125,-16.17187 15.859375,0 28.59375,7.57812 12.734375,7.57813 19.375005,21.17188 6.71875,13.515625 6.71875,30.703125 0,17.421875 -7.03125,31.171875 -7.03125,13.75 -19.92188,20.859375 -12.890625,7.03125 -27.8125,7.03125 -16.171875,0 -28.90625,-7.8125 -12.734375,-7.8125 -19.296875,-21.328125 -6.5625,-13.515625 -6.5625,-28.59375 z m 15.625,0.234375 q 0,20.703125 11.09375,32.65625 11.171875,11.875 27.96875,11.875 17.109375,0 28.125,-12.03125 11.093755,-12.03125 11.093755,-34.140625 0,-13.984375 -4.76563,-24.375 -4.6875,-10.46875 -13.828125,-16.171875 -9.0625,-5.781255 -20.390625,-5.781255 -16.09375,0 -27.734375,11.093755 -11.5625,11.015625 -11.5625,36.875 z"
       style="font-style:normal;font-weight:normal;font-size:160px;font-family:Arial;fill:#000000;stroke:none"
       id="path4696"
       inkscape:connector-curvature="0" />
  </g>
  <path
     stroke="none"
     fill="#000000"
     transform="matrix(0.0666667 0 0 0.0666667 3.42194 -23)"
     d="M 2458.45,712.834 L 2463.55,721.671 L 2328.1,799.872 L 2323,791.035 L 2458.45,712.834 Z "
     id="path92" />
  <path
     stroke="none"
     fill="#000000"
     transform="matrix(0.0666667 0 0 0.0666667 3.42194 -23)"
     d="M 2479.16,748.715 L 2484.26,757.552 L 2348.82,835.752 L 2343.71,826.915 L 2479.16,748.715 Z "
     id="path94" />
  <g
     aria-label="BnO"
     style="font-style:normal;font-weight:normal;font-size:10.66667175px;font-family:Arial;fill:#000000;stroke:none;stroke-width:0.0666667"
     id="text68-8">
    <path
       d="m 185.21212,58.044899 v -5.531253 h 0.84375 v 0.786459 q 0.60937,-0.911459 1.76041,-0.911459 0.5,0 0.91667,0.182292 0.42188,0.177083 0.63021,0.46875 0.20833,0.291667 0.29167,0.692709 0.0521,0.260417 0.0521,0.911459 v 3.401043 h -0.9375 v -3.364585 q 0,-0.572917 -0.10938,-0.854167 -0.10937,-0.286458 -0.39062,-0.453125 -0.27604,-0.171875 -0.65104,-0.171875 -0.59896,0 -1.03646,0.380208 -0.43229,0.380209 -0.43229,1.442709 v 3.020835 z"
       style="font-style:normal;font-weight:normal;font-size:10.66667175px;font-family:Arial;fill:#000000;stroke:none;stroke-width:0.0666667"
       id="path4701"
       inkscape:connector-curvature="0" />
  </g>
  <text
     xml:space="preserve"
     style="font-style:normal;font-weight:normal;font-size:10.66666698px;line-height:1.25;font-family:sans-serif;text-align:start;letter-spacing:0px;word-spacing:0px;text-anchor:start;fill:#000000;fill-opacity:1;stroke:none"
     x="78.098999"
     y="77.490845"
     id="text4708"><tspan
       sodipodi:role="line"
       id="tspan4706"
       x="78.098999"
       y="77.490845">\cmpd{glu-lactam}</tspan></text>
  <text
     xml:space="preserve"
     style="font-style:normal;font-weight:normal;font-size:10.66666698px;line-height:1.25;font-family:sans-serif;text-align:start;letter-spacing:0px;word-spacing:0px;text-anchor:start;fill:#000000;fill-opacity:1;stroke:none"
     x="177.61859"
     y="77.490845"
     id="text4708-8"><tspan
       sodipodi:role="line"
       id="tspan4706-2"
       x="177.61859"
       y="77.490845">\cmpd{gal-lactam}</tspan></text>
</svg>
