<?xml version="1.0" encoding="UTF-8" standalone="no"?>
<svg
   xmlns:dc="http://purl.org/dc/elements/1.1/"
   xmlns:cc="http://creativecommons.org/ns#"
   xmlns:rdf="http://www.w3.org/1999/02/22-rdf-syntax-ns#"
   xmlns:svg="http://www.w3.org/2000/svg"
   xmlns="http://www.w3.org/2000/svg"
   xmlns:sodipodi="http://sodipodi.sourceforge.net/DTD/sodipodi-0.dtd"
   xmlns:inkscape="http://www.inkscape.org/namespaces/inkscape"
   width="139px"
   height="243px"
   viewBox="0 0 139 243"
   style="background-color: #ffffff00"
   version="1.1"
   id="svg346"
   sodipodi:docname="gal-noe.svg"
   inkscape:version="0.92.4 (5da689c313, 2019-01-14)">
  <metadata
     id="metadata352">
    <rdf:RDF>
      <cc:Work
         rdf:about="">
        <dc:format>image/svg+xml</dc:format>
        <dc:type
           rdf:resource="http://purl.org/dc/dcmitype/StillImage" />
      </cc:Work>
    </rdf:RDF>
  </metadata>
  <defs
     id="defs350" />
  <sodipodi:namedview
     pagecolor="#ffffff"
     bordercolor="#666666"
     borderopacity="1"
     objecttolerance="10"
     gridtolerance="10"
     guidetolerance="10"
     inkscape:pageopacity="0"
     inkscape:pageshadow="2"
     inkscape:window-width="1920"
     inkscape:window-height="1017"
     id="namedview348"
     showgrid="false"
     inkscape:zoom="2.7469498"
     inkscape:cx="97.205362"
     inkscape:cy="89.280174"
     inkscape:window-x="-8"
     inkscape:window-y="-8"
     inkscape:window-maximized="1"
     inkscape:current-layer="svg346" />
  <g
     aria-label="N"
     transform="matrix(0.0666667,0,0,0.0666667,65.3545,218.636)"
     style="font-style:normal;font-weight:normal;font-size:160px;font-family:Arial;fill:#aaaaaa;stroke:none"
     id="text2">
    <path
       d="m 12.1875,0 v -114.53125 h 15.546875 l 60.15625,89.921875 V -114.53125 H 102.42188 V 0 H 86.875 L 26.71875,-90 V 0 Z"
       style="font-style:normal;font-weight:normal;font-size:160px;font-family:Arial;fill:#aaaaaa;stroke:none"
       id="path1159"
       inkscape:connector-curvature="0" />
  </g>
  <g
     aria-label="H"
     transform="matrix(0.0666667,0,0,0.0666667,65.3545,228.036)"
     style="font-style:normal;font-weight:normal;font-size:160px;font-family:Arial;fill:#aaaaaa;stroke:none"
     id="text4">
    <path
       d="M 12.8125,0 V -114.53125 H 27.96875 V -67.5 H 87.5 v -47.03125 h 15.15625 V 0 H 87.5 V -53.984375 H 27.96875 V 0 Z"
       style="font-style:normal;font-weight:normal;font-size:160px;font-family:Arial;fill:#aaaaaa;stroke:none"
       id="path1162"
       inkscape:connector-curvature="0" />
  </g>
  <path
     d="m 46.036225,223.50678 -0.602,0.50866 -0.128667,-0.31066 7.676004,-13.29534 0.552667,-0.424 0.127333,0.31333 z"
     id="path6"
     inkscape:connector-curvature="0"
     style="fill:#aaaaaa;stroke:none;stroke-width:0.0666667" />
  <path
     d="m 60.744233,218.01344 0.266666,1.55 -1.47,1.87333 -13.840007,2.79601 -0.266667,-0.21734 0.602,-0.50866 z"
     id="path8"
     inkscape:connector-curvature="0"
     style="fill:#000000;stroke:none;stroke-width:0.0666667" />
  <path
     d="m 75.731573,222.67078 0.950668,1.34466 -0.266667,0.998 -15.702008,-4.46067 0.297333,-0.98933 0.266667,-0.99867 z"
     id="path10"
     inkscape:connector-curvature="0"
     style="fill:#000000;stroke:none;stroke-width:0.0666667" />
  <path
     d="m 84.144911,210.44544 0.638667,-0.46 0.144667,0.31466 -6.23867,13.09401 -2.007334,0.62133 -0.950668,-1.34466 z"
     id="path12"
     inkscape:connector-curvature="0"
     style="fill:#000000;stroke:none;stroke-width:0.0666667" />
  <path
     d="m 74.347573,213.2441 -0.146667,-0.51266 10.316005,-2.94734 0.266667,0.20134 -0.638667,0.46 z"
     id="path14"
     inkscape:connector-curvature="0"
     style="fill:#aaaaaa;stroke:none;stroke-width:0.0666667" />
  <path
     d="m 53.661562,210.29877 -0.127333,-0.31333 0.268667,-0.20067 5.274669,1.498 v 0.554 z"
     id="path16"
     inkscape:connector-curvature="0"
     style="fill:#aaaaaa;stroke:none;stroke-width:0.0666667" />
  <path
     d="m 64.177568,212.73077 -0.145334,0.51267 -1.088,-0.30867 v -0.554 z"
     id="path18"
     inkscape:connector-curvature="0"
     style="fill:#aaaaaa;stroke:none;stroke-width:0.0666667" />
  <path
     d="m 100.36959,213.88544 0.062,0.29266 -0.2,0.22267 -15.303345,-4.10067 -0.144667,-0.31466 0.266667,-0.20467 z"
     id="path20"
     inkscape:connector-curvature="0"
     style="fill:#000000;stroke:none;stroke-width:0.0666667" />
  <g
     aria-label="H"
     transform="matrix(0.0666667,0,0,0.0666667,80.9323,197.985)"
     style="font-style:normal;font-weight:normal;font-size:160px;font-family:Arial;fill:#000000;stroke:none"
     id="text22">
    <path
       d="M 12.8125,0 V -114.53125 H 27.96875 V -67.5 H 87.5 v -47.03125 h 15.15625 V 0 H 87.5 V -53.984375 H 27.96875 V 0 Z"
       style="font-style:normal;font-weight:normal;font-size:160px;font-family:Arial;fill:#000000;stroke:none"
       id="path1165"
       inkscape:connector-curvature="0" />
  </g>
  <g
     aria-label="2"
     transform="matrix(0.0666667,0,0,0.0666667,88.6354,193.785)"
     style="font-style:normal;font-weight:normal;font-size:120px;font-family:Arial;fill:#000000;stroke:none"
     id="text24">
    <path
       d="M 60.410156,-10.136719 V 0 H 3.6328125 Q 3.515625,-3.8085938 4.8632812,-7.3242187 7.03125,-13.125 11.777344,-18.75 q 4.804687,-5.625 13.828125,-13.007812 14.003906,-11.484375 18.925781,-18.164063 4.921875,-6.738281 4.921875,-12.714844 0,-6.269531 -4.511719,-10.546875 -4.453125,-4.335937 -11.660156,-4.335937 -7.617188,0 -12.1875,4.570312 -4.570313,4.570313 -4.628906,12.65625 L 5.625,-61.40625 Q 6.7382812,-73.535156 14.003906,-79.863281 21.269531,-86.25 33.515625,-86.25 q 12.363281,0 19.570312,6.855469 7.207032,6.855469 7.207032,16.992187 0,5.15625 -2.109375,10.136719 -2.109375,4.980469 -7.03125,10.488281 -4.863282,5.507813 -16.230469,15.117188 -9.492188,7.96875 -12.1875,10.839843 -2.695313,2.8125 -4.453125,5.683594 z"
       style="font-style:normal;font-weight:normal;font-size:120px;font-family:Arial;fill:#000000;stroke:none"
       id="path1168"
       inkscape:connector-curvature="0" />
  </g>
  <path
     d="m 84.516911,199.6301 h 0.533334 v 10.15067 l -0.266667,0.20467 -0.266667,-0.20134 z"
     id="path26"
     inkscape:connector-curvature="0"
     style="fill:#000000;stroke:none;stroke-width:0.0666667" />
  <g
     aria-label="OBn"
     transform="matrix(0.0666667,0,0,0.0666667,72.5335,244.415)"
     style="font-style:normal;font-weight:normal;font-size:160px;font-family:Arial;fill:#000000;stroke:none"
     id="text28">
    <path
       d="m 7.734375,-55.78125 q 0,-28.515625 15.3125,-44.60938 15.3125,-16.17187 39.53125,-16.17187 15.859375,0 28.59375,7.57812 12.734375,7.57813 19.375005,21.17188 6.71875,13.515625 6.71875,30.703125 0,17.421875 -7.03125,31.171875 -7.03125,13.75 -19.92188,20.859375 -12.890625,7.03125 -27.8125,7.03125 -16.171875,0 -28.90625,-7.8125 -12.734375,-7.8125 -19.296875,-21.328125 -6.5625,-13.515625 -6.5625,-28.59375 z m 15.625,0.234375 q 0,20.703125 11.09375,32.65625 11.171875,11.875 27.96875,11.875 17.109375,0 28.125,-12.03125 11.093755,-12.03125 11.093755,-34.140625 0,-13.984375 -4.76563,-24.375 -4.6875,-10.46875 -13.828125,-16.171875 -9.0625,-5.781255 -20.390625,-5.781255 -16.09375,0 -27.734375,11.093755 -11.5625,11.015625 -11.5625,36.875 z"
       style="font-style:normal;font-weight:normal;font-size:160px;font-family:Arial;fill:#000000;stroke:none"
       id="path1171"
       inkscape:connector-curvature="0" />
    <path
       d="m 136.09375,0 v -114.53125 h 42.96875 q 13.125,0 21.01562,3.51562 7.96875,3.4375 12.42188,10.70313 4.53125,7.1875 4.53125,15.078125 0,7.34375 -3.98438,13.828125 -3.98437,6.484375 -12.03125,10.46875 10.39063,3.046875 15.9375,10.390625 5.625,7.34375 5.625,17.34375 0,8.046875 -3.4375,15 -3.35937,6.875 -8.35937,10.625 -5,3.75 -12.57813,5.703125 Q 190.70312,0 179.76562,0 Z M 151.25,-66.40625 h 24.76562 q 10.07813,0 14.45313,-1.328125 5.78125,-1.71875 8.67187,-5.703125 2.96875,-3.984375 2.96875,-10 0,-5.703125 -2.73437,-10 -2.73438,-4.375 -7.8125,-5.9375 -5.07813,-1.64063 -17.42188,-1.64063 H 151.25 Z m 0,52.890625 h 28.51562 q 7.34375,0 10.3125,-0.546875 5.23438,-0.9375 8.75,-3.125 3.51563,-2.1875 5.78125,-6.328125 2.26563,-4.21875 2.26563,-9.6875 0,-6.40625 -3.28125,-11.09375 -3.28125,-4.765625 -9.14063,-6.640625 -5.78125,-1.953125 -16.71875,-1.953125 H 151.25 Z"
       style="font-style:normal;font-weight:normal;font-size:160px;font-family:Arial;fill:#000000;stroke:none"
       id="path1173"
       inkscape:connector-curvature="0" />
    <path
       d="m 241.79687,0 v -82.96875 h 12.65625 v 11.796875 q 9.14063,-13.671875 26.40625,-13.671875 7.5,0 13.75,2.734375 6.32813,2.65625 9.45313,7.03125 3.125,4.375 4.375,10.390625 0.78125,3.90625 0.78125,13.671875 V 0 h -14.0625 v -50.46875 q 0,-8.59375 -1.64063,-12.8125 -1.64062,-4.296875 -5.85937,-6.796875 -4.14063,-2.578125 -9.76563,-2.578125 -8.98437,0 -15.54687,5.703125 -6.48438,5.703125 -6.48438,21.640625 V 0 Z"
       style="font-style:normal;font-weight:normal;font-size:160px;font-family:Arial;fill:#000000;stroke:none"
       id="path1175"
       inkscape:connector-curvature="0" />
  </g>
  <path
     d="m 76.948907,235.05945 h -0.533333 v -10.04601 l 0.266667,-0.998 0.266666,0.224 z"
     id="path30"
     inkscape:connector-curvature="0"
     style="fill:#000000;stroke:none;stroke-width:0.0666667" />
  <g
     aria-label="H"
     transform="matrix(0.0666667,0,0,0.0666667,87.3117,225.689)"
     style="font-style:normal;font-weight:normal;font-size:160px;font-family:Arial;fill:#000000;stroke:none"
     id="text32">
    <path
       d="M 12.8125,0 V -114.53125 H 27.96875 V -67.5 H 87.5 v -47.03125 h 15.15625 V 0 H 87.5 V -53.984375 H 27.96875 V 0 Z"
       style="font-style:normal;font-weight:normal;font-size:160px;font-family:Arial;fill:#000000;stroke:none"
       id="path1178"
       inkscape:connector-curvature="0" />
  </g>
  <g
     aria-label="3"
     transform="matrix(0.0666667,0,0,0.0666667,95.0148,221.489)"
     style="font-style:normal;font-weight:normal;font-size:120px;font-family:Arial;fill:#000000;stroke:none"
     id="text34">
    <path
       d="m 5.0390625,-22.675781 10.5468755,-1.40625 q 1.816406,8.964843 6.152343,12.949218 4.394531,3.9257818 10.664063,3.9257818 7.441406,0 12.539062,-5.1562498 5.15625,-5.15625 5.15625,-12.773438 0,-7.265625 -4.746094,-11.953125 -4.746093,-4.746093 -12.070312,-4.746093 -2.988281,0 -7.441406,1.171875 l 1.171875,-9.257813 q 1.054687,0.117188 1.699218,0.117188 6.738282,0 12.128907,-3.515625 5.390625,-3.515625 5.390625,-10.839844 0,-5.800781 -3.925782,-9.609375 -3.925781,-3.808594 -10.136718,-3.808594 -6.152344,0 -10.253907,3.867188 -4.101562,3.867187 -5.273437,11.601562 l -10.546875,-1.875 Q 8.0273438,-74.589844 14.882813,-80.390625 21.738281,-86.25 31.933594,-86.25 q 7.03125,0 12.949218,3.046875 5.917969,2.988281 9.023438,8.203125 3.164062,5.214844 3.164062,11.074219 0,5.566406 -2.988281,10.136719 -2.988281,4.570312 -8.847656,7.265625 7.617187,1.757812 11.835937,7.324218 4.21875,5.507813 4.21875,13.828125 0,11.25 -8.203125,19.1015628 -8.203125,7.7929687 -20.742187,7.7929687 -11.308594,0 -18.808594,-6.7382812 Q 6.09375,-11.953125 5.0390625,-22.675781 Z"
       style="font-style:normal;font-weight:normal;font-size:120px;font-family:Arial;fill:#000000;stroke:none"
       id="path1181"
       inkscape:connector-curvature="0" />
  </g>
  <path
     d="m 86.578912,222.01811 0.09133,0.52533 -9.721339,1.696 -0.266666,-0.224 2.007334,-0.62133 z"
     id="path36"
     inkscape:connector-curvature="0"
     style="fill:#000000;stroke:none;stroke-width:0.0666667" />
  <g
     aria-label="H"
     transform="matrix(0.0666667,0,0,0.0666667,50.7045,234.218)"
     style="font-style:normal;font-weight:normal;font-size:160px;font-family:Arial;fill:#000000;stroke:none"
     id="text38">
    <path
       d="M 12.8125,0 V -114.53125 H 27.96875 V -67.5 H 87.5 v -47.03125 h 15.15625 V 0 H 87.5 V -53.984375 H 27.96875 V 0 Z"
       style="font-style:normal;font-weight:normal;font-size:160px;font-family:Arial;fill:#000000;stroke:none"
       id="path1184"
       inkscape:connector-curvature="0" />
  </g>
  <g
     aria-label="4"
     transform="matrix(0.0666667,0,0,0.0666667,58.4076,230.018)"
     style="font-style:normal;font-weight:normal;font-size:120px;font-family:Arial;fill:#000000;stroke:none"
     id="text40">
    <path
       d="M 38.789062,0 V -20.566406 H 1.5234375 v -9.667969 L 40.722656,-85.898437 h 8.613281 v 55.664062 H 60.9375 v 9.667969 H 49.335937 V 0 Z m 0,-30.234375 v -38.730469 l -26.894531,38.730469 z"
       style="font-style:normal;font-weight:normal;font-size:120px;font-family:Arial;fill:#000000;stroke:none"
       id="path1187"
       inkscape:connector-curvature="0" />
  </g>
  <path
     d="m 57.962231,225.00878 -0.454,-0.28 2.032668,-3.29201 1.47,-1.87333 -0.297333,0.98933 z"
     id="path42"
     inkscape:connector-curvature="0"
     style="fill:#000000;stroke:none;stroke-width:0.0666667" />
  <g
     aria-label="H"
     transform="matrix(0.0666667,0,0,0.0666667,41.5829,245.665)"
     style="font-style:normal;font-weight:normal;font-size:160px;font-family:Arial;fill:#000000;stroke:none"
     id="text44">
    <path
       d="M 12.8125,0 V -114.53125 H 27.96875 V -67.5 H 87.5 v -47.03125 h 15.15625 V 0 H 87.5 V -53.984375 H 27.96875 V 0 Z"
       style="font-style:normal;font-weight:normal;font-size:160px;font-family:Arial;fill:#000000;stroke:none"
       id="path1190"
       inkscape:connector-curvature="0" />
  </g>
  <g
     aria-label="5"
     transform="matrix(0.0666667,0,0,0.0666667,49.2861,241.465)"
     style="font-style:normal;font-weight:normal;font-size:120px;font-family:Arial;fill:#000000;stroke:none"
     id="text46">
    <path
       d="m 4.9804687,-22.5 11.0742183,-0.9375 q 1.230469,8.085937 5.683594,12.1875 4.511719,4.0429688 10.839844,4.0429688 7.617187,0 12.890625,-5.7421878 5.273437,-5.742187 5.273437,-15.234375 0,-9.023437 -5.097656,-14.238281 -5.039062,-5.214844 -13.242187,-5.214844 -5.097657,0 -9.199219,2.34375 -4.101563,2.285157 -6.445313,5.976563 l -9.9023433,-1.289063 8.3203123,-44.121093 h 42.714844 v 10.078125 H 23.613281 L 18.984375,-51.5625 q 7.734375,-5.390625 16.230469,-5.390625 11.25,0 18.984375,7.792969 7.734375,7.792969 7.734375,20.039062 0,11.660157 -6.796875,20.1562502 Q 46.875,1.4648437 32.578125,1.4648437 q -11.71875,0 -19.160156,-6.5624999 Q 6.0351562,-11.660156 4.9804687,-22.5 Z"
       style="font-style:normal;font-weight:normal;font-size:120px;font-family:Arial;fill:#000000;stroke:none"
       id="path1193"
       inkscape:connector-curvature="0" />
  </g>
  <path
     d="m 45.700892,234.27611 h -0.533334 v -10.056 l 0.266667,-0.20467 0.266667,0.21734 z"
     id="path48"
     inkscape:connector-curvature="0"
     style="fill:#000000;stroke:none;stroke-width:0.0666667" />
  <g
     aria-label="OBn"
     transform="matrix(0.0666667,0,0,0.0666667,56.8627,207.563)"
     style="font-style:normal;font-weight:normal;font-size:160px;font-family:Arial;fill:#000000;stroke:none"
     id="text50">
    <path
       d="m 7.734375,-55.78125 q 0,-28.515625 15.3125,-44.60938 15.3125,-16.17187 39.53125,-16.17187 15.859375,0 28.59375,7.57812 12.734375,7.57813 19.375005,21.17188 6.71875,13.515625 6.71875,30.703125 0,17.421875 -7.03125,31.171875 -7.03125,13.75 -19.92188,20.859375 -12.890625,7.03125 -27.8125,7.03125 -16.171875,0 -28.90625,-7.8125 -12.734375,-7.8125 -19.296875,-21.328125 -6.5625,-13.515625 -6.5625,-28.59375 z m 15.625,0.234375 q 0,20.703125 11.09375,32.65625 11.171875,11.875 27.96875,11.875 17.109375,0 28.125,-12.03125 11.093755,-12.03125 11.093755,-34.140625 0,-13.984375 -4.76563,-24.375 -4.6875,-10.46875 -13.828125,-16.171875 -9.0625,-5.781255 -20.390625,-5.781255 -16.09375,0 -27.734375,11.093755 -11.5625,11.015625 -11.5625,36.875 z"
       style="font-style:normal;font-weight:normal;font-size:160px;font-family:Arial;fill:#000000;stroke:none"
       id="path1196"
       inkscape:connector-curvature="0" />
    <path
       d="m 136.09375,0 v -114.53125 h 42.96875 q 13.125,0 21.01562,3.51562 7.96875,3.4375 12.42188,10.70313 4.53125,7.1875 4.53125,15.078125 0,7.34375 -3.98438,13.828125 -3.98437,6.484375 -12.03125,10.46875 10.39063,3.046875 15.9375,10.390625 5.625,7.34375 5.625,17.34375 0,8.046875 -3.4375,15 -3.35937,6.875 -8.35937,10.625 -5,3.75 -12.57813,5.703125 Q 190.70312,0 179.76562,0 Z M 151.25,-66.40625 h 24.76562 q 10.07813,0 14.45313,-1.328125 5.78125,-1.71875 8.67187,-5.703125 2.96875,-3.984375 2.96875,-10 0,-5.703125 -2.73437,-10 -2.73438,-4.375 -7.8125,-5.9375 -5.07813,-1.64063 -17.42188,-1.64063 H 151.25 Z m 0,52.890625 h 28.51562 q 7.34375,0 10.3125,-0.546875 5.23438,-0.9375 8.75,-3.125 3.51563,-2.1875 5.78125,-6.328125 2.26563,-4.21875 2.26563,-9.6875 0,-6.40625 -3.28125,-11.09375 -3.28125,-4.765625 -9.14063,-6.640625 -5.78125,-1.953125 -16.71875,-1.953125 H 151.25 Z"
       style="font-style:normal;font-weight:normal;font-size:160px;font-family:Arial;fill:#000000;stroke:none"
       id="path1198"
       inkscape:connector-curvature="0" />
    <path
       d="m 241.79687,0 v -82.96875 h 12.65625 v 11.796875 q 9.14063,-13.671875 26.40625,-13.671875 7.5,0 13.75,2.734375 6.32813,2.65625 9.45313,7.03125 3.125,4.375 4.375,10.390625 0.78125,3.90625 0.78125,13.671875 V 0 h -14.0625 v -50.46875 q 0,-8.59375 -1.64063,-12.8125 -1.64062,-4.296875 -5.85937,-6.796875 -4.14063,-2.578125 -9.76563,-2.578125 -8.98437,0 -15.54687,5.703125 -6.48438,5.703125 -6.48438,21.640625 V 0 Z"
       style="font-style:normal;font-weight:normal;font-size:160px;font-family:Arial;fill:#000000;stroke:none"
       id="path1200"
       inkscape:connector-curvature="0" />
  </g>
  <path
     d="m 60.744233,209.40744 h 0.533333 v 9.15733 l -0.266667,0.99867 -0.266666,-1.55 z"
     id="path52"
     inkscape:connector-curvature="0"
     style="fill:#000000;stroke:none;stroke-width:0.0666667" />
  <g
     aria-label="BnO"
     transform="matrix(0.0666667,0,0,0.0666667,12.5912,224.022)"
     style="font-style:normal;font-weight:normal;font-size:160px;font-family:Arial;fill:#000000;stroke:none"
     id="text54">
    <path
       d="M 11.71875,0 V -114.53125 H 54.6875 q 13.125,0 21.015625,3.51562 7.96875,3.4375 12.421875,10.70313 4.53125,7.1875 4.53125,15.078125 0,7.34375 -3.984375,13.828125 -3.984375,6.484375 -12.03125,10.46875 10.390625,3.046875 15.9375,10.390625 5.625,7.34375 5.625,17.34375 0,8.046875 -3.4375,15 -3.359375,6.875 -8.359375,10.625 -5,3.75 -12.578125,5.703125 Q 66.328125,0 55.390625,0 Z M 26.875,-66.40625 h 24.765625 q 10.078125,0 14.453125,-1.328125 5.78125,-1.71875 8.671875,-5.703125 2.96875,-3.984375 2.96875,-10 0,-5.703125 -2.734375,-10 -2.734375,-4.375 -7.8125,-5.9375 -5.078125,-1.64063 -17.421875,-1.64063 H 26.875 Z m 0,52.890625 h 28.515625 q 7.34375,0 10.3125,-0.546875 5.234375,-0.9375 8.75,-3.125 3.515625,-2.1875 5.78125,-6.328125 2.265625,-4.21875 2.265625,-9.6875 0,-6.40625 -3.28125,-11.09375 -3.28125,-4.765625 -9.140625,-6.640625 -5.78125,-1.953125 -16.71875,-1.953125 H 26.875 Z"
       style="font-style:normal;font-weight:normal;font-size:160px;font-family:Arial;fill:#000000;stroke:none"
       id="path1203"
       inkscape:connector-curvature="0" />
    <path
       d="m 117.42188,0 v -82.96875 h 12.65624 v 11.796875 q 9.14063,-13.671875 26.40625,-13.671875 7.5,0 13.75,2.734375 6.32813,2.65625 9.45313,7.03125 3.125,4.375 4.375,10.390625 0.78125,3.90625 0.78125,13.671875 V 0 h -14.0625 v -50.46875 q 0,-8.59375 -1.64063,-12.8125 -1.64062,-4.296875 -5.85937,-6.796875 -4.14063,-2.578125 -9.76563,-2.578125 -8.98437,0 -15.54687,5.703125 -6.48438,5.703125 -6.48438,21.640625 V 0 Z"
       style="font-style:normal;font-weight:normal;font-size:160px;font-family:Arial;fill:#000000;stroke:none"
       id="path1205"
       inkscape:connector-curvature="0" />
    <path
       d="m 203.67187,-55.78125 q 0,-28.515625 15.3125,-44.60938 15.3125,-16.17187 39.53125,-16.17187 15.85938,0 28.59375,7.57812 12.73438,7.57813 19.375,21.17188 6.71875,13.515625 6.71875,30.703125 0,17.421875 -7.03125,31.171875 -7.03125,13.75 -19.92187,20.859375 -12.89063,7.03125 -27.8125,7.03125 -16.17188,0 -28.90625,-7.8125 -12.73438,-7.8125 -19.29688,-21.328125 -6.5625,-13.515625 -6.5625,-28.59375 z m 15.625,0.234375 q 0,20.703125 11.09375,32.65625 11.17188,11.875 27.96875,11.875 17.10938,0 28.125,-12.03125 11.09375,-12.03125 11.09375,-34.140625 0,-13.984375 -4.76562,-24.375 -4.6875,-10.46875 -13.82813,-16.171875 -9.0625,-5.781255 -20.39062,-5.781255 -16.09375,0 -27.73438,11.093755 -11.5625,11.015625 -11.5625,36.875 z"
       style="font-style:normal;font-weight:normal;font-size:160px;font-family:Arial;fill:#000000;stroke:none"
       id="path1207"
       inkscape:connector-curvature="0" />
  </g>
  <path
     d="m 35.022886,221.50144 0.138,-0.51533 10.144672,2.71867 0.128667,0.31066 -0.266667,0.20467 z"
     id="path56"
     inkscape:connector-curvature="0"
     style="fill:#000000;stroke:none;stroke-width:0.0666667" />
  <g
     aria-label="N"
     transform="matrix(0.0666667,0,0,0.0666667,102.386,233.502)"
     style="font-style:normal;font-weight:normal;font-size:160px;font-family:Arial;fill:#000000;stroke:none"
     id="text58">
    <path
       d="m 12.1875,0 v -114.53125 h 15.546875 l 60.15625,89.921875 V -114.53125 H 102.42188 V 0 H 86.875 L 26.71875,-90 V 0 Z"
       style="font-style:normal;font-weight:normal;font-size:160px;font-family:Arial;fill:#000000;stroke:none"
       id="path1210"
       inkscape:connector-curvature="0" />
  </g>
  <g
     aria-label="N"
     transform="matrix(0.0666667,0,0,0.0666667,118.564,232.654)"
     style="font-style:normal;font-weight:normal;font-size:160px;font-family:Arial;fill:#000000;stroke:none"
     id="text60">
    <path
       d="m 12.1875,0 v -114.53125 h 15.546875 l 60.15625,89.921875 V -114.53125 H 102.42188 V 0 H 86.875 L 26.71875,-90 V 0 Z"
       style="font-style:normal;font-weight:normal;font-size:160px;font-family:Arial;fill:#000000;stroke:none"
       id="path1213"
       inkscape:connector-curvature="0" />
  </g>
  <g
     aria-label="N"
     transform="matrix(0.0666667,0,0,0.0666667,122.756,217.006)"
     style="font-style:normal;font-weight:normal;font-size:160px;font-family:Arial;fill:#000000;stroke:none"
     id="text62">
    <path
       d="m 12.1875,0 v -114.53125 h 15.546875 l 60.15625,89.921875 V -114.53125 H 102.42188 V 0 H 86.875 L 26.71875,-90 V 0 Z"
       style="font-style:normal;font-weight:normal;font-size:160px;font-family:Arial;fill:#000000;stroke:none"
       id="path1216"
       inkscape:connector-curvature="0" />
  </g>
  <g
     aria-label="N"
     transform="matrix(0.0666667,0,0,0.0666667,109.17,208.183)"
     style="font-style:normal;font-weight:normal;font-size:160px;font-family:Arial;fill:#000000;stroke:none"
     id="text64">
    <path
       d="m 12.1875,0 v -114.53125 h 15.546875 l 60.15625,89.921875 V -114.53125 H 102.42188 V 0 H 86.875 L 26.71875,-90 V 0 Z"
       style="font-style:normal;font-weight:normal;font-size:160px;font-family:Arial;fill:#000000;stroke:none"
       id="path1219"
       inkscape:connector-curvature="0" />
  </g>
  <path
     d="m 104.39025,223.74678 -0.49733,0.19133 -3.66133,-9.53734 0.2,-0.22267 0.31866,0.0853 z"
     id="path66"
     inkscape:connector-curvature="0"
     style="fill:#000000;stroke:none;stroke-width:0.0666667" />
  <path
     d="m 107.41559,222.58611 -0.498,0.19067 -2.866,-7.46601 0.49733,-0.19133 z"
     id="path68"
     inkscape:connector-curvature="0"
     style="fill:#000000;stroke:none;stroke-width:0.0666667" />
  <path
     d="m 117.76026,228.43144 0.028,0.53267 -6.932,0.36333 -0.028,-0.53266 z"
     id="path70"
     inkscape:connector-curvature="0"
     style="fill:#000000;stroke:none;stroke-width:0.0666667" />
  <path
     d="m 124.66893,219.01211 0.51533,0.138 -1.054,3.93333 -0.51466,-0.138 z"
     id="path72"
     inkscape:connector-curvature="0"
     style="fill:#000000;stroke:none;stroke-width:0.0666667" />
  <path
     d="m 121.5396,218.17344 0.51533,0.13867 -1.054,3.93266 -0.51533,-0.138 z"
     id="path74"
     inkscape:connector-curvature="0"
     style="fill:#000000;stroke:none;stroke-width:0.0666667" />
  <path
     d="m 118.26626,207.70743 0.29067,-0.44733 3.17667,2.06267 -0.29067,0.44733 z"
     id="path76"
     inkscape:connector-curvature="0"
     style="fill:#000000;stroke:none;stroke-width:0.0666667" />
  <path
     d="m 100.75025,214.26344 -0.31866,-0.0853 -0.062,-0.29266 7.332,-5.93734 0.336,0.41467 z"
     id="path78"
     inkscape:connector-curvature="0"
     style="fill:#000000;stroke:none;stroke-width:0.0666667" />
  <path
     d="m 111.91559,187.97342 0.258,-0.168 0.27467,0.14 0.578,11.03534 -0.53267,0.028 z"
     id="path80"
     inkscape:connector-curvature="0"
     style="fill:#000000;stroke:none;stroke-width:0.0666667" />
  <path
     d="m 125.4856,178.84275 0.54933,0.27934 -13.58667,8.82333 -0.27467,-0.14 -0.016,-0.30733 z"
     id="path82"
     inkscape:connector-curvature="0"
     style="fill:#000000;stroke:none;stroke-width:0.0666667" />
  <path
     d="m 124.65426,162.97208 0.51667,-0.33534 0.864,16.48535 -0.54933,-0.27934 z"
     id="path84"
     inkscape:connector-curvature="0"
     style="fill:#000000;stroke:none;stroke-width:0.0666667" />
  <path
     d="m 110.49426,155.75741 -0.032,-0.61467 14.70867,7.494 -0.51667,0.33534 z"
     id="path86"
     inkscape:connector-curvature="0"
     style="fill:#000000;stroke:none;stroke-width:0.0666667" />
  <path
     d="m 97.166251,164.41275 -0.548667,-0.27934 13.844676,-8.99067 0.032,0.61467 z"
     id="path88"
     inkscape:connector-curvature="0"
     style="fill:#000000;stroke:none;stroke-width:0.0666667" />
  <path
     d="m 97.997585,180.28342 -0.516001,0.33533 -0.864,-16.48534 0.548667,0.27934 z"
     id="path90"
     inkscape:connector-curvature="0"
     style="fill:#000000;stroke:none;stroke-width:0.0666667" />
  <path
     d="m 112.15759,187.49809 0.016,0.30733 -0.258,0.168 -14.434006,-7.35467 0.516001,-0.33533 z"
     id="path92"
     inkscape:connector-curvature="0"
     style="fill:#000000;stroke:none;stroke-width:0.0666667" />
  <g
     aria-label="H"
     transform="matrix(0.0666667,0,0,0.0666667,34.0349,218.378)"
     style="font-style:normal;font-weight:normal;font-size:160px;font-family:Arial;fill:#aaaaaa;stroke:none"
     id="text94">
    <path
       d="M 12.8125,0 V -114.53125 H 27.96875 V -67.5 H 87.5 v -47.03125 h 15.15625 V 0 H 87.5 V -53.984375 H 27.96875 V 0 Z"
       style="font-style:normal;font-weight:normal;font-size:160px;font-family:Arial;fill:#aaaaaa;stroke:none"
       id="path1222"
       inkscape:connector-curvature="0" />
  </g>
  <g
     aria-label="6"
     transform="matrix(0.0666667,0,0,0.0666667,41.7381,214.178)"
     style="font-style:normal;font-weight:normal;font-size:120px;font-family:Arial;fill:#aaaaaa;stroke:none"
     id="text96">
    <path
       d="m 59.707031,-64.863281 -10.488281,0.820312 q -1.40625,-6.210937 -3.984375,-9.023437 -4.277344,-4.511719 -10.546875,-4.511719 -5.039063,0 -8.847656,2.8125 -4.980469,3.632813 -7.851563,10.605469 Q 15.117188,-57.1875 15,-44.296875 q 3.808594,-5.800781 9.316406,-8.613281 5.507813,-2.8125 11.542969,-2.8125 10.546875,0 17.929687,7.792969 7.441407,7.734375 7.441407,20.039062 0,8.085938 -3.515625,15.058594 -3.457032,6.9140623 -9.550782,10.6054685 -6.09375,3.6914062 -13.828125,3.6914062 -13.183593,0 -21.503906,-9.6679687 -8.3203123,-9.726562 -8.3203123,-31.992187 0,-24.902344 9.1992193,-36.210938 8.027343,-9.84375 21.621093,-9.84375 10.136719,0 16.582031,5.683594 6.503907,5.683594 7.792969,15.703125 z m -43.066406,37.03125 q 0,5.449219 2.285156,10.429687 2.34375,4.980469 6.503906,7.6171877 4.160157,2.5781251 8.730469,2.5781251 6.679688,0 11.484375,-5.3906248 4.804688,-5.390625 4.804688,-14.648438 0,-8.90625 -4.746094,-14.003906 -4.746094,-5.15625 -11.953125,-5.15625 -7.148438,0 -12.128906,5.15625 -4.980469,5.097656 -4.980469,13.417969 z"
       style="font-style:normal;font-weight:normal;font-size:120px;font-family:Arial;fill:#aaaaaa;stroke:none"
       id="path1225"
       inkscape:connector-curvature="0" />
  </g>
  <path
     d="m 47.474893,211.88544 -0.138,-0.51534 5.932669,-1.58933 0.264667,0.20467 -0.552667,0.424 z"
     id="path98"
     inkscape:connector-curvature="0"
     style="fill:#aaaaaa;stroke:none;stroke-width:0.0666667" />
  <path
     d="m 53.387562,193.93809 0.267334,-0.152 0.266,0.11134 -0.118,15.88734 -0.268667,0.20067 -0.264667,-0.20467 z"
     id="path100"
     inkscape:connector-curvature="0"
     style="fill:#aaaaaa;stroke:none;stroke-width:0.0666667" />
  <g
     aria-label="BnO"
     transform="matrix(0.0666667,0,0,0.0666667,22.4909,189.782)"
     style="font-style:normal;font-weight:normal;font-size:160px;font-family:Arial;fill:#aaaaaa;stroke:none"
     id="text102">
    <path
       d="M 11.71875,0 V -114.53125 H 54.6875 q 13.125,0 21.015625,3.51562 7.96875,3.4375 12.421875,10.70313 4.53125,7.1875 4.53125,15.078125 0,7.34375 -3.984375,13.828125 -3.984375,6.484375 -12.03125,10.46875 10.390625,3.046875 15.9375,10.390625 5.625,7.34375 5.625,17.34375 0,8.046875 -3.4375,15 -3.359375,6.875 -8.359375,10.625 -5,3.75 -12.578125,5.703125 Q 66.328125,0 55.390625,0 Z M 26.875,-66.40625 h 24.765625 q 10.078125,0 14.453125,-1.328125 5.78125,-1.71875 8.671875,-5.703125 2.96875,-3.984375 2.96875,-10 0,-5.703125 -2.734375,-10 -2.734375,-4.375 -7.8125,-5.9375 -5.078125,-1.64063 -17.421875,-1.64063 H 26.875 Z m 0,52.890625 h 28.515625 q 7.34375,0 10.3125,-0.546875 5.234375,-0.9375 8.75,-3.125 3.515625,-2.1875 5.78125,-6.328125 2.265625,-4.21875 2.265625,-9.6875 0,-6.40625 -3.28125,-11.09375 -3.28125,-4.765625 -9.140625,-6.640625 -5.78125,-1.953125 -16.71875,-1.953125 H 26.875 Z"
       style="font-style:normal;font-weight:normal;font-size:160px;font-family:Arial;fill:#aaaaaa;stroke:none"
       id="path1228"
       inkscape:connector-curvature="0" />
    <path
       d="m 117.42188,0 v -82.96875 h 12.65624 v 11.796875 q 9.14063,-13.671875 26.40625,-13.671875 7.5,0 13.75,2.734375 6.32813,2.65625 9.45313,7.03125 3.125,4.375 4.375,10.390625 0.78125,3.90625 0.78125,13.671875 V 0 h -14.0625 v -50.46875 q 0,-8.59375 -1.64063,-12.8125 -1.64062,-4.296875 -5.85937,-6.796875 -4.14063,-2.578125 -9.76563,-2.578125 -8.98437,0 -15.54687,5.703125 -6.48438,5.703125 -6.48438,21.640625 V 0 Z"
       style="font-style:normal;font-weight:normal;font-size:160px;font-family:Arial;fill:#aaaaaa;stroke:none"
       id="path1230"
       inkscape:connector-curvature="0" />
    <path
       d="m 203.67187,-55.78125 q 0,-28.515625 15.3125,-44.60938 15.3125,-16.17187 39.53125,-16.17187 15.85938,0 28.59375,7.57812 12.73438,7.57813 19.375,21.17188 6.71875,13.515625 6.71875,30.703125 0,17.421875 -7.03125,31.171875 -7.03125,13.75 -19.92187,20.859375 -12.89063,7.03125 -27.8125,7.03125 -16.17188,0 -28.90625,-7.8125 -12.73438,-7.8125 -19.29688,-21.328125 -6.5625,-13.515625 -6.5625,-28.59375 z m 15.625,0.234375 q 0,20.703125 11.09375,32.65625 11.17188,11.875 27.96875,11.875 17.10938,0 28.125,-12.03125 11.09375,-12.03125 11.09375,-34.140625 0,-13.984375 -4.76562,-24.375 -4.6875,-10.46875 -13.82813,-16.171875 -9.0625,-5.781255 -20.39062,-5.781255 -16.09375,0 -27.73438,11.093755 -11.5625,11.015625 -11.5625,36.875 z"
       style="font-style:normal;font-weight:normal;font-size:160px;font-family:Arial;fill:#aaaaaa;stroke:none"
       id="path1232"
       inkscape:connector-curvature="0" />
  </g>
  <path
     d="m 44.467558,188.69942 0.27,-0.46 8.650671,5.08067 0.266667,0.466 -0.267334,0.152 z"
     id="path104"
     inkscape:connector-curvature="0"
     style="fill:#aaaaaa;stroke:none;stroke-width:0.0666667" />
  <g
     aria-label="N"
     transform="matrix(0.0666667,0,0,0.0666667,56.183,116.136)"
     style="font-style:normal;font-weight:normal;font-size:160px;font-family:Arial;fill:#aaaaaa;stroke:none"
     id="text106">
    <path
       d="m 12.1875,0 v -114.53125 h 15.546875 l 60.15625,89.921875 V -114.53125 H 102.42188 V 0 H 86.875 L 26.71875,-90 V 0 Z"
       style="font-style:normal;font-weight:normal;font-size:160px;font-family:Arial;fill:#aaaaaa;stroke:none"
       id="path1235"
       inkscape:connector-curvature="0" />
  </g>
  <g
     aria-label="H"
     transform="matrix(0.0666667,0,0,0.0666667,56.183,125.536)"
     style="font-style:normal;font-weight:normal;font-size:160px;font-family:Arial;fill:#aaaaaa;stroke:none"
     id="text108">
    <path
       d="M 12.8125,0 V -114.53125 H 27.96875 V -67.5 H 87.5 v -47.03125 h 15.15625 V 0 H 87.5 V -53.984375 H 27.96875 V 0 Z"
       style="font-style:normal;font-weight:normal;font-size:160px;font-family:Arial;fill:#aaaaaa;stroke:none"
       id="path1238"
       inkscape:connector-curvature="0" />
  </g>
  <path
     stroke="none"
     fill="#aaaaaa"
     transform="matrix(0.0666667 0 0 0.0666667 -71.0665 0.666667)"
     d="M 1618.96,1805.1 L 1609.94,1812.73 L 1608.01,1808.07 L 1723.15,1608.64 L 1731.44,1602.28 L 1733.35,1606.98 L 1618.96,1805.1 Z "
     id="path110" />
  <path
     stroke="none"
     fill="#000000"
     transform="matrix(0.0666667 0 0 0.0666667 -71.0665 0.666667)"
     d="M 1839.59,1722.7 L 1843.59,1745.95 L 1819.83,1774.39 L 1613.94,1815.99 L 1609.94,1812.73 L 1618.96,1805.1 L 1839.59,1722.7 Z "
     id="path112" />
  <path
     stroke="none"
     fill="#000000"
     transform="matrix(0.0666667 0 0 0.0666667 -71.0665 0.666667)"
     d="M 2064.39,1792.56 L 2078.65,1812.73 L 2074.65,1827.7 L 1838.6,1760.64 L 1843.59,1745.95 L 1847.59,1730.97 L 2064.39,1792.56 Z "
     id="path114" />
  <path
     stroke="none"
     fill="#000000"
     transform="matrix(0.0666667 0 0 0.0666667 -71.0665 0.666667)"
     d="M 2190.59,1609.18 L 2200.18,1602.28 L 2202.35,1607 L 2111.25,1798.2 L 2078.65,1812.73 L 2064.39,1792.56 L 2190.59,1609.18 Z "
     id="path116" />
  <path
     stroke="none"
     fill="#aaaaaa"
     transform="matrix(0.0666667 0 0 0.0666667 -71.0665 0.666667)"
     d="M 2043.63,1651.16 L 2041.44,1643.47 L 2196.18,1599.26 L 2200.18,1602.28 L 2190.59,1609.18 L 2043.63,1651.16 Z "
     id="path118" />
  <path
     stroke="none"
     fill="#aaaaaa"
     transform="matrix(0.0666667 0 0 0.0666667 -71.0665 0.666667)"
     d="M 1733.35,1606.98 L 1731.44,1602.28 L 1735.46,1599.27 L 1814.59,1621.74 L 1814.59,1630.05 L 1733.35,1606.98 L 1733.35,1606.98 Z "
     id="path120" />
  <path
     stroke="none"
     fill="#aaaaaa"
     transform="matrix(0.0666667 0 0 0.0666667 -71.0665 0.666667)"
     d="M 1891.09,1643.46 L 1888.9,1651.15 L 1872.59,1646.52 L 1872.59,1638.21 L 1891.09,1643.46 L 1891.09,1643.46 Z "
     id="path122" />
  <g
     aria-label="H"
     transform="matrix(0.0666667,0,0,0.0666667,87.4088,115.878)"
     style="font-style:normal;font-weight:normal;font-size:160px;font-family:Arial;fill:#000000;stroke:none"
     id="text124">
    <path
       d="M 12.8125,0 V -114.53125 H 27.96875 V -67.5 H 87.5 v -47.03125 h 15.15625 V 0 H 87.5 V -53.984375 H 27.96875 V 0 Z"
       style="font-style:normal;font-weight:normal;font-size:160px;font-family:Arial;fill:#000000;stroke:none"
       id="path1241"
       inkscape:connector-curvature="0" />
  </g>
  <g
     aria-label="2"
     transform="matrix(0.0666667,0,0,0.0666667,95.1119,111.678)"
     style="font-style:normal;font-weight:normal;font-size:120px;font-family:Arial;fill:#000000;stroke:none"
     id="text126">
    <path
       d="M 60.410156,-10.136719 V 0 H 3.6328125 Q 3.515625,-3.8085938 4.8632812,-7.3242187 7.03125,-13.125 11.777344,-18.75 q 4.804687,-5.625 13.828125,-13.007812 14.003906,-11.484375 18.925781,-18.164063 4.921875,-6.738281 4.921875,-12.714844 0,-6.269531 -4.511719,-10.546875 -4.453125,-4.335937 -11.660156,-4.335937 -7.617188,0 -12.1875,4.570312 -4.570313,4.570313 -4.628906,12.65625 L 5.625,-61.40625 Q 6.7382812,-73.535156 14.003906,-79.863281 21.269531,-86.25 33.515625,-86.25 q 12.363281,0 19.570312,6.855469 7.207032,6.855469 7.207032,16.992187 0,5.15625 -2.109375,10.136719 -2.109375,4.980469 -7.03125,10.488281 -4.863282,5.507813 -16.230469,15.117188 -9.492188,7.96875 -12.1875,10.839843 -2.695313,2.8125 -4.453125,5.683594 z"
       style="font-style:normal;font-weight:normal;font-size:120px;font-family:Arial;fill:#000000;stroke:none"
       id="path1244"
       inkscape:connector-curvature="0" />
  </g>
  <path
     stroke="none"
     fill="#000000"
     transform="matrix(0.0666667 0 0 0.0666667 -71.0665 0.666667)"
     d="M 2359.68,1640.88 L 2357.61,1648.61 L 2202.35,1607 L 2200.18,1602.28 L 2204.18,1599.21 L 2359.68,1640.88 Z "
     id="path128" />
  <path
     stroke="none"
     fill="#000000"
     transform="matrix(0.0666667 0 0 0.0666667 -71.0665 0.666667)"
     d="M 2196.18,1361.59 L 2200.18,1359.28 L 2204.18,1361.06 L 2204.18,1599.21 L 2200.18,1602.28 L 2196.18,1599.26 L 2196.18,1361.59 Z "
     id="path130" />
  <g
     aria-label="OBn"
     transform="matrix(0.0666667,0,0,0.0666667,63.362,141.915)"
     style="font-style:normal;font-weight:normal;font-size:160px;font-family:Arial;fill:#000000;stroke:none"
     id="text132">
    <path
       d="m 7.734375,-55.78125 q 0,-28.515625 15.3125,-44.60938 15.3125,-16.17187 39.53125,-16.17187 15.859375,0 28.59375,7.57812 12.734375,7.57813 19.375005,21.17188 6.71875,13.515625 6.71875,30.703125 0,17.421875 -7.03125,31.171875 -7.03125,13.75 -19.92188,20.859375 -12.890625,7.03125 -27.8125,7.03125 -16.171875,0 -28.90625,-7.8125 -12.734375,-7.8125 -19.296875,-21.328125 -6.5625,-13.515625 -6.5625,-28.59375 z m 15.625,0.234375 q 0,20.703125 11.09375,32.65625 11.171875,11.875 27.96875,11.875 17.109375,0 28.125,-12.03125 11.093755,-12.03125 11.093755,-34.140625 0,-13.984375 -4.76563,-24.375 -4.6875,-10.46875 -13.828125,-16.171875 -9.0625,-5.781255 -20.390625,-5.781255 -16.09375,0 -27.734375,11.093755 -11.5625,11.015625 -11.5625,36.875 z"
       style="font-style:normal;font-weight:normal;font-size:160px;font-family:Arial;fill:#000000;stroke:none"
       id="path1247"
       inkscape:connector-curvature="0" />
    <path
       d="m 136.09375,0 v -114.53125 h 42.96875 q 13.125,0 21.01562,3.51562 7.96875,3.4375 12.42188,10.70313 4.53125,7.1875 4.53125,15.078125 0,7.34375 -3.98438,13.828125 -3.98437,6.484375 -12.03125,10.46875 10.39063,3.046875 15.9375,10.390625 5.625,7.34375 5.625,17.34375 0,8.046875 -3.4375,15 -3.35937,6.875 -8.35937,10.625 -5,3.75 -12.57813,5.703125 Q 190.70312,0 179.76562,0 Z M 151.25,-66.40625 h 24.76562 q 10.07813,0 14.45313,-1.328125 5.78125,-1.71875 8.67187,-5.703125 2.96875,-3.984375 2.96875,-10 0,-5.703125 -2.73437,-10 -2.73438,-4.375 -7.8125,-5.9375 -5.07813,-1.64063 -17.42188,-1.64063 H 151.25 Z m 0,52.890625 h 28.51562 q 7.34375,0 10.3125,-0.546875 5.23438,-0.9375 8.75,-3.125 3.51563,-2.1875 5.78125,-6.328125 2.26563,-4.21875 2.26563,-9.6875 0,-6.40625 -3.28125,-11.09375 -3.28125,-4.765625 -9.14063,-6.640625 -5.78125,-1.953125 -16.71875,-1.953125 H 151.25 Z"
       style="font-style:normal;font-weight:normal;font-size:160px;font-family:Arial;fill:#000000;stroke:none"
       id="path1249"
       inkscape:connector-curvature="0" />
    <path
       d="m 241.79687,0 v -82.96875 h 12.65625 v 11.796875 q 9.14063,-13.671875 26.40625,-13.671875 7.5,0 13.75,2.734375 6.32813,2.65625 9.45313,7.03125 3.125,4.375 4.375,10.390625 0.78125,3.90625 0.78125,13.671875 V 0 h -14.0625 v -50.46875 q 0,-8.59375 -1.64063,-12.8125 -1.64062,-4.296875 -5.85937,-6.796875 -4.14063,-2.578125 -9.76563,-2.578125 -8.98437,0 -15.54687,5.703125 -6.48438,5.703125 -6.48438,21.640625 V 0 Z"
       style="font-style:normal;font-weight:normal;font-size:160px;font-family:Arial;fill:#000000;stroke:none"
       id="path1251"
       inkscape:connector-curvature="0" />
  </g>
  <path
     stroke="none"
     fill="#000000"
     transform="matrix(0.0666667 0 0 0.0666667 -71.0665 0.666667)"
     d="M 2082.65,1978.39 L 2074.65,1978.39 L 2074.65,1827.7 L 2078.65,1812.73 L 2082.65,1815.65 L 2082.65,1978.39 Z "
     id="path134" />
  <g
     aria-label="H"
     transform="matrix(0.0666667,0,0,0.0666667,75.3069,122.022)"
     style="font-style:normal;font-weight:normal;font-size:160px;font-family:Arial;fill:#000000;stroke:none"
     id="text136">
    <path
       d="M 12.8125,0 V -114.53125 H 27.96875 V -67.5 H 87.5 v -47.03125 h 15.15625 V 0 H 87.5 V -53.984375 H 27.96875 V 0 Z"
       style="font-style:normal;font-weight:normal;font-size:160px;font-family:Arial;fill:#000000;stroke:none"
       id="path1254"
       inkscape:connector-curvature="0" />
  </g>
  <g
     aria-label="3"
     transform="matrix(0.0666667,0,0,0.0666667,83.01,117.822)"
     style="font-style:normal;font-weight:normal;font-size:120px;font-family:Arial;fill:#000000;stroke:none"
     id="text138">
    <path
       d="m 5.0390625,-22.675781 10.5468755,-1.40625 q 1.816406,8.964843 6.152343,12.949218 4.394531,3.9257818 10.664063,3.9257818 7.441406,0 12.539062,-5.1562498 5.15625,-5.15625 5.15625,-12.773438 0,-7.265625 -4.746094,-11.953125 -4.746093,-4.746093 -12.070312,-4.746093 -2.988281,0 -7.441406,1.171875 l 1.171875,-9.257813 q 1.054687,0.117188 1.699218,0.117188 6.738282,0 12.128907,-3.515625 5.390625,-3.515625 5.390625,-10.839844 0,-5.800781 -3.925782,-9.609375 -3.925781,-3.808594 -10.136718,-3.808594 -6.152344,0 -10.253907,3.867188 -4.101562,3.867187 -5.273437,11.601562 l -10.546875,-1.875 Q 8.0273438,-74.589844 14.882813,-80.390625 21.738281,-86.25 31.933594,-86.25 q 7.03125,0 12.949218,3.046875 5.917969,2.988281 9.023438,8.203125 3.164062,5.214844 3.164062,11.074219 0,5.566406 -2.988281,10.136719 -2.988281,4.570312 -8.847656,7.265625 7.617187,1.757812 11.835937,7.324218 4.21875,5.507813 4.21875,13.828125 0,11.25 -8.203125,19.1015628 -8.203125,7.7929687 -20.742187,7.7929687 -11.308594,0 -18.808594,-6.7382812 Q 6.09375,-11.953125 5.0390625,-22.675781 Z"
       style="font-style:normal;font-weight:normal;font-size:120px;font-family:Arial;fill:#000000;stroke:none"
       id="path1257"
       inkscape:connector-curvature="0" />
  </g>
  <path
     stroke="none"
     fill="#000000"
     transform="matrix(0.0666667 0 0 0.0666667 -71.0665 0.666667)"
     d="M 2175.07,1777.96 L 2177.49,1785.59 L 2082.65,1815.65 L 2078.65,1812.73 L 2111.25,1798.2 L 2175.07,1777.96 Z "
     id="path140" />
  <g
     aria-label="H"
     transform="matrix(0.0666667,0,0,0.0666667,41.6381,130.793)"
     style="font-style:normal;font-weight:normal;font-size:160px;font-family:Arial;fill:#000000;stroke:none"
     id="text142">
    <path
       d="M 12.8125,0 V -114.53125 H 27.96875 V -67.5 H 87.5 v -47.03125 h 15.15625 V 0 H 87.5 V -53.984375 H 27.96875 V 0 Z"
       style="font-style:normal;font-weight:normal;font-size:160px;font-family:Arial;fill:#000000;stroke:none"
       id="path1260"
       inkscape:connector-curvature="0" />
  </g>
  <g
     aria-label="4"
     transform="matrix(0.0666667,0,0,0.0666667,49.3412,126.593)"
     style="font-style:normal;font-weight:normal;font-size:120px;font-family:Arial;fill:#000000;stroke:none"
     id="text144">
    <path
       d="M 38.789062,0 V -20.566406 H 1.5234375 v -9.667969 L 40.722656,-85.898437 h 8.613281 v 55.664062 H 60.9375 v 9.667969 H 49.335937 V 0 Z m 0,-30.234375 v -38.730469 l -26.894531,38.730469 z"
       style="font-style:normal;font-weight:normal;font-size:120px;font-family:Arial;fill:#000000;stroke:none"
       id="path1263"
       inkscape:connector-curvature="0" />
  </g>
  <path
     stroke="none"
     fill="#000000"
     transform="matrix(0.0666667 0 0 0.0666667 -71.0665 0.666667)"
     d="M 1802.2,1815.27 L 1795.55,1810.84 L 1819.83,1774.39 L 1843.59,1745.95 L 1838.6,1760.64 L 1802.2,1815.27 Z "
     id="path146" />
  <g
     aria-label="H"
     transform="matrix(0.0666667,0,0,0.0666667,32.4114,141.915)"
     style="font-style:normal;font-weight:normal;font-size:160px;font-family:Arial;fill:#000000;stroke:none"
     id="text148">
    <path
       d="M 12.8125,0 V -114.53125 H 27.96875 V -67.5 H 87.5 v -47.03125 h 15.15625 V 0 H 87.5 V -53.984375 H 27.96875 V 0 Z"
       style="font-style:normal;font-weight:normal;font-size:160px;font-family:Arial;fill:#000000;stroke:none"
       id="path1266"
       inkscape:connector-curvature="0" />
  </g>
  <g
     aria-label="5"
     transform="matrix(0.0666667,0,0,0.0666667,40.1145,137.715)"
     style="font-style:normal;font-weight:normal;font-size:120px;font-family:Arial;fill:#000000;stroke:none"
     id="text150">
    <path
       d="m 4.9804687,-22.5 11.0742183,-0.9375 q 1.230469,8.085937 5.683594,12.1875 4.511719,4.0429688 10.839844,4.0429688 7.617187,0 12.890625,-5.7421878 5.273437,-5.742187 5.273437,-15.234375 0,-9.023437 -5.097656,-14.238281 -5.039062,-5.214844 -13.242187,-5.214844 -5.097657,0 -9.199219,2.34375 -4.101563,2.285157 -6.445313,5.976563 l -9.9023433,-1.289063 8.3203123,-44.121093 h 42.714844 v 10.078125 H 23.613281 L 18.984375,-51.5625 q 7.734375,-5.390625 16.230469,-5.390625 11.25,0 18.984375,7.792969 7.734375,7.792969 7.734375,20.039062 0,11.660157 -6.796875,20.1562502 Q 46.875,1.4648437 32.578125,1.4648437 q -11.71875,0 -19.160156,-6.5624999 Q 6.0351562,-11.660156 4.9804687,-22.5 Z"
       style="font-style:normal;font-weight:normal;font-size:120px;font-family:Arial;fill:#000000;stroke:none"
       id="path1269"
       inkscape:connector-curvature="0" />
  </g>
  <path
     stroke="none"
     fill="#000000"
     transform="matrix(0.0666667 0 0 0.0666667 -71.0665 0.666667)"
     d="M 1613.94,1947.89 L 1605.94,1947.89 L 1605.94,1815.8 L 1609.94,1812.73 L 1613.94,1815.99 L 1613.94,1947.89 Z "
     id="path152" />
  <g
     aria-label="OBn"
     transform="matrix(0.0666667,0,0,0.0666667,47.6912,105.063)"
     style="font-style:normal;font-weight:normal;font-size:160px;font-family:Arial;fill:#000000;stroke:none"
     id="text154">
    <path
       d="m 7.734375,-55.78125 q 0,-28.515625 15.3125,-44.60938 15.3125,-16.17187 39.53125,-16.17187 15.859375,0 28.59375,7.57812 12.734375,7.57813 19.375005,21.17188 6.71875,13.515625 6.71875,30.703125 0,17.421875 -7.03125,31.171875 -7.03125,13.75 -19.92188,20.859375 -12.890625,7.03125 -27.8125,7.03125 -16.171875,0 -28.90625,-7.8125 -12.734375,-7.8125 -19.296875,-21.328125 -6.5625,-13.515625 -6.5625,-28.59375 z m 15.625,0.234375 q 0,20.703125 11.09375,32.65625 11.171875,11.875 27.96875,11.875 17.109375,0 28.125,-12.03125 11.093755,-12.03125 11.093755,-34.140625 0,-13.984375 -4.76563,-24.375 -4.6875,-10.46875 -13.828125,-16.171875 -9.0625,-5.781255 -20.390625,-5.781255 -16.09375,0 -27.734375,11.093755 -11.5625,11.015625 -11.5625,36.875 z"
       style="font-style:normal;font-weight:normal;font-size:160px;font-family:Arial;fill:#000000;stroke:none"
       id="path1272"
       inkscape:connector-curvature="0" />
    <path
       d="m 136.09375,0 v -114.53125 h 42.96875 q 13.125,0 21.01562,3.51562 7.96875,3.4375 12.42188,10.70313 4.53125,7.1875 4.53125,15.078125 0,7.34375 -3.98438,13.828125 -3.98437,6.484375 -12.03125,10.46875 10.39063,3.046875 15.9375,10.390625 5.625,7.34375 5.625,17.34375 0,8.046875 -3.4375,15 -3.35937,6.875 -8.35937,10.625 -5,3.75 -12.57813,5.703125 Q 190.70312,0 179.76562,0 Z M 151.25,-66.40625 h 24.76562 q 10.07813,0 14.45313,-1.328125 5.78125,-1.71875 8.67187,-5.703125 2.96875,-3.984375 2.96875,-10 0,-5.703125 -2.73437,-10 -2.73438,-4.375 -7.8125,-5.9375 -5.07813,-1.64063 -17.42188,-1.64063 H 151.25 Z m 0,52.890625 h 28.51562 q 7.34375,0 10.3125,-0.546875 5.23438,-0.9375 8.75,-3.125 3.51563,-2.1875 5.78125,-6.328125 2.26563,-4.21875 2.26563,-9.6875 0,-6.40625 -3.28125,-11.09375 -3.28125,-4.765625 -9.14063,-6.640625 -5.78125,-1.953125 -16.71875,-1.953125 H 151.25 Z"
       style="font-style:normal;font-weight:normal;font-size:160px;font-family:Arial;fill:#000000;stroke:none"
       id="path1274"
       inkscape:connector-curvature="0" />
    <path
       d="m 241.79687,0 v -82.96875 h 12.65625 v 11.796875 q 9.14063,-13.671875 26.40625,-13.671875 7.5,0 13.75,2.734375 6.32813,2.65625 9.45313,7.03125 3.125,4.375 4.375,10.390625 0.78125,3.90625 0.78125,13.671875 V 0 h -14.0625 v -50.46875 q 0,-8.59375 -1.64063,-12.8125 -1.64062,-4.296875 -5.85937,-6.796875 -4.14063,-2.578125 -9.76563,-2.578125 -8.98437,0 -15.54687,5.703125 -6.48438,5.703125 -6.48438,21.640625 V 0 Z"
       style="font-style:normal;font-weight:normal;font-size:160px;font-family:Arial;fill:#000000;stroke:none"
       id="path1276"
       inkscape:connector-curvature="0" />
  </g>
  <path
     stroke="none"
     fill="#000000"
     transform="matrix(0.0666667 0 0 0.0666667 -71.0665 0.666667)"
     d="M 1839.59,1593.61 L 1847.59,1593.61 L 1847.59,1730.97 L 1843.59,1745.95 L 1839.59,1722.7 L 1839.59,1593.61 Z "
     id="path156" />
  <g
     aria-label="BnO"
     transform="matrix(0.0666667,0,0,0.0666667,3.41967,121.522)"
     style="font-style:normal;font-weight:normal;font-size:160px;font-family:Arial;fill:#000000;stroke:none"
     id="text158">
    <path
       d="M 11.71875,0 V -114.53125 H 54.6875 q 13.125,0 21.015625,3.51562 7.96875,3.4375 12.421875,10.70313 4.53125,7.1875 4.53125,15.078125 0,7.34375 -3.984375,13.828125 -3.984375,6.484375 -12.03125,10.46875 10.390625,3.046875 15.9375,10.390625 5.625,7.34375 5.625,17.34375 0,8.046875 -3.4375,15 -3.359375,6.875 -8.359375,10.625 -5,3.75 -12.578125,5.703125 Q 66.328125,0 55.390625,0 Z M 26.875,-66.40625 h 24.765625 q 10.078125,0 14.453125,-1.328125 5.78125,-1.71875 8.671875,-5.703125 2.96875,-3.984375 2.96875,-10 0,-5.703125 -2.734375,-10 -2.734375,-4.375 -7.8125,-5.9375 -5.078125,-1.64063 -17.421875,-1.64063 H 26.875 Z m 0,52.890625 h 28.515625 q 7.34375,0 10.3125,-0.546875 5.234375,-0.9375 8.75,-3.125 3.515625,-2.1875 5.78125,-6.328125 2.265625,-4.21875 2.265625,-9.6875 0,-6.40625 -3.28125,-11.09375 -3.28125,-4.765625 -9.140625,-6.640625 -5.78125,-1.953125 -16.71875,-1.953125 H 26.875 Z"
       style="font-style:normal;font-weight:normal;font-size:160px;font-family:Arial;fill:#000000;stroke:none"
       id="path1279"
       inkscape:connector-curvature="0" />
    <path
       d="m 117.42188,0 v -82.96875 h 12.65624 v 11.796875 q 9.14063,-13.671875 26.40625,-13.671875 7.5,0 13.75,2.734375 6.32813,2.65625 9.45313,7.03125 3.125,4.375 4.375,10.390625 0.78125,3.90625 0.78125,13.671875 V 0 h -14.0625 v -50.46875 q 0,-8.59375 -1.64063,-12.8125 -1.64062,-4.296875 -5.85937,-6.796875 -4.14063,-2.578125 -9.76563,-2.578125 -8.98437,0 -15.54687,5.703125 -6.48438,5.703125 -6.48438,21.640625 V 0 Z"
       style="font-style:normal;font-weight:normal;font-size:160px;font-family:Arial;fill:#000000;stroke:none"
       id="path1281"
       inkscape:connector-curvature="0" />
    <path
       d="m 203.67187,-55.78125 q 0,-28.515625 15.3125,-44.60938 15.3125,-16.17187 39.53125,-16.17187 15.85938,0 28.59375,7.57812 12.73438,7.57813 19.375,21.17188 6.71875,13.515625 6.71875,30.703125 0,17.421875 -7.03125,31.171875 -7.03125,13.75 -19.92187,20.859375 -12.89063,7.03125 -27.8125,7.03125 -16.17188,0 -28.90625,-7.8125 -12.73438,-7.8125 -19.29688,-21.328125 -6.5625,-13.515625 -6.5625,-28.59375 z m 15.625,0.234375 q 0,20.703125 11.09375,32.65625 11.17188,11.875 27.96875,11.875 17.10938,0 28.125,-12.03125 11.09375,-12.03125 11.09375,-34.140625 0,-13.984375 -4.76562,-24.375 -4.6875,-10.46875 -13.82813,-16.171875 -9.0625,-5.781255 -20.39062,-5.781255 -16.09375,0 -27.73438,11.093755 -11.5625,11.015625 -11.5625,36.875 z"
       style="font-style:normal;font-weight:normal;font-size:160px;font-family:Arial;fill:#000000;stroke:none"
       id="path1283"
       inkscape:connector-curvature="0" />
  </g>
  <path
     stroke="none"
     fill="#000000"
     transform="matrix(0.0666667 0 0 0.0666667 -71.0665 0.666667)"
     d="M 1453.77,1775.02 L 1455.84,1767.29 L 1608.01,1808.07 L 1609.94,1812.73 L 1605.94,1815.8 L 1453.77,1775.02 Z "
     id="path160" />
  <g
     aria-label="H"
     transform="matrix(0.0666667,0,0,0.0666667,24.8634,115.878)"
     style="font-style:normal;font-weight:normal;font-size:160px;font-family:Arial;fill:#aaaaaa;stroke:none"
     id="text162">
    <path
       d="M 12.8125,0 V -114.53125 H 27.96875 V -67.5 H 87.5 v -47.03125 h 15.15625 V 0 H 87.5 V -53.984375 H 27.96875 V 0 Z"
       style="font-style:normal;font-weight:normal;font-size:160px;font-family:Arial;fill:#aaaaaa;stroke:none"
       id="path1286"
       inkscape:connector-curvature="0" />
  </g>
  <g
     aria-label="6"
     transform="matrix(0.0666667,0,0,0.0666667,32.5665,111.678)"
     style="font-style:normal;font-weight:normal;font-size:120px;font-family:Arial;fill:#aaaaaa;stroke:none"
     id="text164">
    <path
       d="m 59.707031,-64.863281 -10.488281,0.820312 q -1.40625,-6.210937 -3.984375,-9.023437 -4.277344,-4.511719 -10.546875,-4.511719 -5.039063,0 -8.847656,2.8125 -4.980469,3.632813 -7.851563,10.605469 Q 15.117188,-57.1875 15,-44.296875 q 3.808594,-5.800781 9.316406,-8.613281 5.507813,-2.8125 11.542969,-2.8125 10.546875,0 17.929687,7.792969 7.441407,7.734375 7.441407,20.039062 0,8.085938 -3.515625,15.058594 -3.457032,6.9140623 -9.550782,10.6054685 -6.09375,3.6914062 -13.828125,3.6914062 -13.183593,0 -21.503906,-9.6679687 -8.3203123,-9.726562 -8.3203123,-31.992187 0,-24.902344 9.1992193,-36.210938 8.027343,-9.84375 21.621093,-9.84375 10.136719,0 16.582031,5.683594 6.503907,5.683594 7.792969,15.703125 z m -43.066406,37.03125 q 0,5.449219 2.285156,10.429687 2.34375,4.980469 6.503906,7.6171877 4.160157,2.5781251 8.730469,2.5781251 6.679688,0 11.484375,-5.3906248 4.804688,-5.390625 4.804688,-14.648438 0,-8.90625 -4.746094,-14.003906 -4.746094,-5.15625 -11.953125,-5.15625 -7.148438,0 -12.128906,5.15625 -4.980469,5.097656 -4.980469,13.417969 z"
       style="font-style:normal;font-weight:normal;font-size:120px;font-family:Arial;fill:#aaaaaa;stroke:none"
       id="path1289"
       inkscape:connector-curvature="0" />
  </g>
  <path
     stroke="none"
     fill="#aaaaaa"
     transform="matrix(0.0666667 0 0 0.0666667 -71.0665 0.666667)"
     d="M 1640.55,1630.78 L 1638.47,1623.05 L 1727.46,1599.21 L 1731.44,1602.28 L 1723.15,1608.64 L 1640.55,1630.78 Z "
     id="path166" />
  <path
     stroke="none"
     fill="#aaaaaa"
     transform="matrix(0.0666667 0 0 0.0666667 -71.0665 0.666667)"
     d="M 1729.23,1361.59 L 1733.25,1359.29 L 1737.24,1360.51 L 1735.46,1599.27 L 1731.44,1602.28 L 1727.46,1599.21 L 1729.23,1361.59 Z "
     id="path168" />
  <g
     aria-label="BnO"
     transform="matrix(0.0666667,0,0,0.0666667,13.2586,87.3859)"
     style="font-style:normal;font-weight:normal;font-size:160px;font-family:Arial;fill:#aaaaaa;stroke:none"
     id="text170">
    <path
       d="M 11.71875,0 V -114.53125 H 54.6875 q 13.125,0 21.015625,3.51562 7.96875,3.4375 12.421875,10.70313 4.53125,7.1875 4.53125,15.078125 0,7.34375 -3.984375,13.828125 -3.984375,6.484375 -12.03125,10.46875 10.390625,3.046875 15.9375,10.390625 5.625,7.34375 5.625,17.34375 0,8.046875 -3.4375,15 -3.359375,6.875 -8.359375,10.625 -5,3.75 -12.578125,5.703125 Q 66.328125,0 55.390625,0 Z M 26.875,-66.40625 h 24.765625 q 10.078125,0 14.453125,-1.328125 5.78125,-1.71875 8.671875,-5.703125 2.96875,-3.984375 2.96875,-10 0,-5.703125 -2.734375,-10 -2.734375,-4.375 -7.8125,-5.9375 -5.078125,-1.64063 -17.421875,-1.64063 H 26.875 Z m 0,52.890625 h 28.515625 q 7.34375,0 10.3125,-0.546875 5.234375,-0.9375 8.75,-3.125 3.515625,-2.1875 5.78125,-6.328125 2.265625,-4.21875 2.265625,-9.6875 0,-6.40625 -3.28125,-11.09375 -3.28125,-4.765625 -9.140625,-6.640625 -5.78125,-1.953125 -16.71875,-1.953125 H 26.875 Z"
       style="font-style:normal;font-weight:normal;font-size:160px;font-family:Arial;fill:#aaaaaa;stroke:none"
       id="path1292"
       inkscape:connector-curvature="0" />
    <path
       d="m 117.42188,0 v -82.96875 h 12.65624 v 11.796875 q 9.14063,-13.671875 26.40625,-13.671875 7.5,0 13.75,2.734375 6.32813,2.65625 9.45313,7.03125 3.125,4.375 4.375,10.390625 0.78125,3.90625 0.78125,13.671875 V 0 h -14.0625 v -50.46875 q 0,-8.59375 -1.64063,-12.8125 -1.64062,-4.296875 -5.85937,-6.796875 -4.14063,-2.578125 -9.76563,-2.578125 -8.98437,0 -15.54687,5.703125 -6.48438,5.703125 -6.48438,21.640625 V 0 Z"
       style="font-style:normal;font-weight:normal;font-size:160px;font-family:Arial;fill:#aaaaaa;stroke:none"
       id="path1294"
       inkscape:connector-curvature="0" />
    <path
       d="m 203.67187,-55.78125 q 0,-28.515625 15.3125,-44.60938 15.3125,-16.17187 39.53125,-16.17187 15.85938,0 28.59375,7.57812 12.73438,7.57813 19.375,21.17188 6.71875,13.515625 6.71875,30.703125 0,17.421875 -7.03125,31.171875 -7.03125,13.75 -19.92187,20.859375 -12.89063,7.03125 -27.8125,7.03125 -16.17188,0 -28.90625,-7.8125 -12.73438,-7.8125 -19.29688,-21.328125 -6.5625,-13.515625 -6.5625,-28.59375 z m 15.625,0.234375 q 0,20.703125 11.09375,32.65625 11.17188,11.875 27.96875,11.875 17.10938,0 28.125,-12.03125 11.09375,-12.03125 11.09375,-34.140625 0,-13.984375 -4.76562,-24.375 -4.6875,-10.46875 -13.82813,-16.171875 -9.0625,-5.781255 -20.39062,-5.781255 -16.09375,0 -27.73438,11.093755 -11.5625,11.015625 -11.5625,36.875 z"
       style="font-style:normal;font-weight:normal;font-size:160px;font-family:Arial;fill:#aaaaaa;stroke:none"
       id="path1296"
       inkscape:connector-curvature="0" />
  </g>
  <path
     stroke="none"
     fill="#aaaaaa"
     transform="matrix(0.0666667 0 0 0.0666667 -71.0665 0.666667)"
     d="M 1594.82,1283.98 L 1598.82,1277.06 L 1729.25,1352.36 L 1733.25,1359.29 L 1729.23,1361.59 L 1594.82,1283.98 Z "
     id="path172" />
  <path
     stroke="none"
     fill="#000000"
     transform="matrix(0.0666667 0 0 0.0666667 -71.0665 0.666667)"
     d="M 2613.64,1251.1 L 2616.73,1247.67 L 2621.25,1248.63 L 2694.61,1474.39 L 2688.43,1481.25 L 2613.64,1251.1 Z "
     id="path174" />
  <path
     stroke="none"
     fill="#000000"
     transform="matrix(0.0666667 0 0 0.0666667 -71.0665 0.666667)"
     d="M 2688.43,1481.25 L 2694.61,1474.39 L 2926.8,1523.74 L 2929.66,1532.53 L 2688.43,1481.25 Z "
     id="path176" />
  <path
     stroke="none"
     fill="#000000"
     transform="matrix(0.0666667 0 0 0.0666667 -71.0665 0.666667)"
     d="M 2929.66,1532.53 L 2926.8,1523.74 L 3085.64,1347.34 L 3094.68,1349.26 L 2929.66,1532.53 Z "
     id="path178" />
  <path
     stroke="none"
     fill="#000000"
     transform="matrix(0.0666667 0 0 0.0666667 -71.0665 0.666667)"
     d="M 3094.68,1349.26 L 3085.64,1347.34 L 3012.29,1121.57 L 3018.47,1114.71 L 3094.68,1349.26 Z "
     id="path180" />
  <path
     stroke="none"
     fill="#000000"
     transform="matrix(0.0666667 0 0 0.0666667 -71.0665 0.666667)"
     d="M 3018.47,1114.71 L 3012.29,1121.57 L 2780.09,1072.22 L 2777.24,1063.43 L 3018.47,1114.71 Z "
     id="path182" />
  <path
     stroke="none"
     fill="#000000"
     transform="matrix(0.0666667 0 0 0.0666667 -71.0665 0.666667)"
     d="M 2777.24,1063.43 L 2780.09,1072.22 L 2621.25,1248.63 L 2616.73,1247.67 L 2615.31,1243.27 L 2777.24,1063.43 Z "
     id="path184" />
  <path
     stroke="none"
     fill="#000000"
     transform="matrix(0.0666667 0 0 0.0666667 -71.0665 0.666667)"
     d="M 2615.31,1243.27 L 2616.73,1247.67 L 2613.64,1251.1 L 2453.89,1217.14 L 2455.55,1209.32 L 2615.31,1243.27 Z "
     id="path186" />
  <path
     stroke="none"
     fill="#000000"
     transform="matrix(0.0666667 0 0 0.0666667 -71.0665 0.666667)"
     d="M 2204.18,1361.06 L 2200.18,1359.28 L 2199.67,1354.36 L 2302.71,1261.58 L 2308.07,1267.52 L 2204.18,1361.06 Z "
     id="path188" />
  <path
     stroke="none"
     fill="#000000"
     transform="matrix(0.0666667 0 0 0.0666667 -71.0665 0.666667)"
     d="M 2347.52,1114.52 L 2340.21,1117.78 L 2318.83,1069.75 L 2326.14,1066.5 L 2347.52,1114.52 Z "
     id="path190" />
  <path
     stroke="none"
     fill="#000000"
     transform="matrix(0.0666667 0 0 0.0666667 -71.0665 0.666667)"
     d="M 2212.03,979.564 L 2212.86,987.52 L 2109.94,998.337 L 2109.11,990.381 L 2212.03,979.564 Z "
     id="path192" />
  <path
     stroke="none"
     fill="#000000"
     transform="matrix(0.0666667 0 0 0.0666667 -71.0665 0.666667)"
     d="M 2217.09,1027.7 L 2217.92,1035.65 L 2115,1046.47 L 2114.17,1038.52 L 2217.09,1027.7 Z "
     id="path194" />
  <path
     stroke="none"
     fill="#000000"
     transform="matrix(0.0666667 0 0 0.0666667 -71.0665 0.666667)"
     d="M 2017.15,1094.17 L 2024.97,1095.83 L 2011.62,1158.64 L 2003.8,1156.98 L 2017.15,1094.17 Z "
     id="path196" />
  <path
     stroke="none"
     fill="#000000"
     transform="matrix(0.0666667 0 0 0.0666667 -71.0665 0.666667)"
     d="M 2068.97,1288.15 L 2072.97,1281.22 L 2199.67,1354.36 L 2200.18,1359.28 L 2196.18,1361.59 L 2068.97,1288.15 Z "
     id="path198" />
  <path
     stroke="none"
     fill="#000000"
     transform="matrix(0.0666667 0 0 0.0666667 -71.0665 0.666667)"
     d="M 2093.17,1246.23 L 2097.17,1239.3 L 2195.93,1296.32 L 2191.93,1303.25 L 2093.17,1246.23 Z "
     id="path200" />
  <g
     aria-label="N"
     transform="matrix(0.0666667,0,0,0.0666667,83.7502,84.6902)"
     style="font-style:normal;font-weight:normal;font-size:160px;font-family:Arial;fill:#000000;stroke:none"
     id="text202">
    <path
       d="m 12.1875,0 v -114.53125 h 15.546875 l 60.15625,89.921875 V -114.53125 H 102.42188 V 0 H 86.875 L 26.71875,-90 V 0 Z"
       style="font-style:normal;font-weight:normal;font-size:160px;font-family:Arial;fill:#000000;stroke:none"
       id="path1299"
       inkscape:connector-curvature="0" />
  </g>
  <g
     aria-label="N"
     transform="matrix(0.0666667,0,0,0.0666667,77.1881,69.9516)"
     style="font-style:normal;font-weight:normal;font-size:160px;font-family:Arial;fill:#000000;stroke:none"
     id="text204">
    <path
       d="m 12.1875,0 v -114.53125 h 15.546875 l 60.15625,89.921875 V -114.53125 H 102.42188 V 0 H 86.875 L 26.71875,-90 V 0 Z"
       style="font-style:normal;font-weight:normal;font-size:160px;font-family:Arial;fill:#000000;stroke:none"
       id="path1302"
       inkscape:connector-curvature="0" />
  </g>
  <g
     aria-label="N"
     transform="matrix(0.0666667,0,0,0.0666667,61.1432,71.638)"
     style="font-style:normal;font-weight:normal;font-size:160px;font-family:Arial;fill:#000000;stroke:none"
     id="text206">
    <path
       d="m 12.1875,0 v -114.53125 h 15.546875 l 60.15625,89.921875 V -114.53125 H 102.42188 V 0 H 86.875 L 26.71875,-90 V 0 Z"
       style="font-style:normal;font-weight:normal;font-size:160px;font-family:Arial;fill:#000000;stroke:none"
       id="path1305"
       inkscape:connector-curvature="0" />
  </g>
  <g
     aria-label="N"
     transform="matrix(0.0666667,0,0,0.0666667,57.7889,87.4188)"
     style="font-style:normal;font-weight:normal;font-size:160px;font-family:Arial;fill:#000000;stroke:none"
     id="text208">
    <path
       d="m 12.1875,0 v -114.53125 h 15.546875 l 60.15625,89.921875 V -114.53125 H 102.42188 V 0 H 86.875 L 26.71875,-90 V 0 Z"
       style="font-style:normal;font-weight:normal;font-size:160px;font-family:Arial;fill:#000000;stroke:none"
       id="path1308"
       inkscape:connector-curvature="0" />
  </g>
  <g
     aria-label="H"
     transform="matrix(0.0666667,0,0,0.0666667,49.8035,181.786)"
     style="font-style:normal;font-weight:normal;font-size:160px;font-family:Arial;fill:#aaaaaa;stroke:none"
     id="text210">
    <path
       d="M 12.8125,0 V -114.53125 H 27.96875 V -67.5 H 87.5 v -47.03125 h 15.15625 V 0 H 87.5 V -53.984375 H 27.96875 V 0 Z"
       style="font-style:normal;font-weight:normal;font-size:160px;font-family:Arial;fill:#aaaaaa;stroke:none"
       id="path1311"
       inkscape:connector-curvature="0" />
  </g>
  <g
     aria-label="7'"
     transform="matrix(0.0666667,0,0,0.0666667,57.5067,177.586)"
     style="font-style:normal;font-weight:normal;font-size:120px;font-family:Arial;fill:#aaaaaa;stroke:none"
     id="text212">
    <path
       d="M 5.6835937,-74.648437 V -84.785156 H 61.289062 v 8.203125 Q 53.085937,-67.851562 45,-53.378906 36.972656,-38.90625 32.578125,-23.613281 29.414062,-12.832031 28.535156,0 H 17.695312 q 0.175782,-10.136719 3.984375,-24.492187 3.808594,-14.355469 10.898438,-27.65625 7.148437,-13.359375 15.175781,-22.5 z"
       style="font-style:normal;font-weight:normal;font-size:120px;font-family:Arial;fill:#aaaaaa;stroke:none"
       id="path1314"
       inkscape:connector-curvature="0" />
    <path
       d="m 74.765625,-55.488281 -2.695313,-16.054688 v -14.355468 h 12.011719 v 14.355468 l -2.8125,16.054688 z"
       style="font-style:normal;font-weight:normal;font-size:120px;font-family:Arial;fill:#aaaaaa;stroke:none"
       id="path1316"
       inkscape:connector-curvature="0" />
  </g>
  <path
     d="m 53.388229,183.38609 h 0.533333 v 9.756 l -0.266666,0.644 -0.266667,-0.466 z"
     id="path214"
     inkscape:connector-curvature="0"
     style="fill:#aaaaaa;stroke:none;stroke-width:0.0666667" />
  <g
     aria-label="H"
     transform="matrix(0.0666667,0,0,0.0666667,61.2587,186.531)"
     style="font-style:normal;font-weight:normal;font-size:160px;font-family:Arial;fill:#aaaaaa;stroke:none"
     id="text216">
    <path
       d="M 12.8125,0 V -114.53125 H 27.96875 V -67.5 H 87.5 v -47.03125 h 15.15625 V 0 H 87.5 V -53.984375 H 27.96875 V 0 Z"
       style="font-style:normal;font-weight:normal;font-size:160px;font-family:Arial;fill:#aaaaaa;stroke:none"
       id="path1319"
       inkscape:connector-curvature="0" />
  </g>
  <g
     aria-label="7''"
     transform="matrix(0.0666667,0,0,0.0666667,68.9618,182.331)"
     style="font-style:normal;font-weight:normal;font-size:120px;font-family:Arial;fill:#aaaaaa;stroke:none"
     id="text218">
    <path
       d="M 5.6835937,-74.648437 V -84.785156 H 61.289062 v 8.203125 Q 53.085937,-67.851562 45,-53.378906 36.972656,-38.90625 32.578125,-23.613281 29.414062,-12.832031 28.535156,0 H 17.695312 q 0.175782,-10.136719 3.984375,-24.492187 3.808594,-14.355469 10.898438,-27.65625 7.148437,-13.359375 15.175781,-22.5 z"
       style="font-style:normal;font-weight:normal;font-size:120px;font-family:Arial;fill:#aaaaaa;stroke:none"
       id="path1322"
       inkscape:connector-curvature="0" />
    <path
       d="m 74.765625,-55.488281 -2.695313,-16.054688 v -14.355468 h 12.011719 v 14.355468 l -2.8125,16.054688 z"
       style="font-style:normal;font-weight:normal;font-size:120px;font-family:Arial;fill:#aaaaaa;stroke:none"
       id="path1324"
       inkscape:connector-curvature="0" />
    <path
       d="m 97.734375,-55.488281 -2.695313,-16.054688 v -14.355468 h 12.011718 v 14.355468 l -2.8125,16.054688 z"
       style="font-style:normal;font-weight:normal;font-size:120px;font-family:Arial;fill:#aaaaaa;stroke:none"
       id="path1326"
       inkscape:connector-curvature="0" />
  </g>
  <path
     d="m 60.184232,186.88009 0.376667,0.37667 -6.640003,6.64067 -0.266,-0.11134 0.266666,-0.644 z"
     id="path220"
     inkscape:connector-curvature="0"
     style="fill:#aaaaaa;stroke:none;stroke-width:0.0666667" />
  <path
     stroke="#009e73"
     stroke-width="8"
     fill="none"
     transform="matrix(0.0666667 0 0 0.0666667 -71.0665 0.666667)"
     d="M 2280.58,1887.79 C 2320.67,1934.76 2386.49,1937.72 2427.49,1894.4 C 2447.93,1872.8 2459.51,1841.25 2458.7,1809.39 "
     id="path222" />
  <path
     stroke="none"
     fill="#009e73"
     transform="matrix(0.0666667 0 0 0.0666667 -71.0665 0.666667)"
     d="M 2256.26,1842.54 C 2256.26,1842.54 2297.98,1886.3 2297.98,1886.3 C 2297.98,1886.3 2286.17,1884.6 2280.58,1887.79 C 2274.99,1890.98 2270.13,1902.2 2270.13,1902.2 C 2270.13,1902.2 2256.26,1842.54 2256.26,1842.54 C 2256.26,1842.54 2256.26,1842.54 2256.26,1842.54 "
     id="path224" />
  <path
     stroke="#009e73"
     stroke-width="1"
     fill="none"
     transform="matrix(0.0666667 0 0 0.0666667 -71.0665 0.666667)"
     d="M 2256.26,1842.54 C 2256.26,1842.54 2297.98,1886.3 2297.98,1886.3 C 2297.98,1886.3 2286.17,1884.6 2280.58,1887.79 C 2274.99,1890.98 2270.13,1902.2 2270.13,1902.2 C 2270.13,1902.2 2256.26,1842.54 2256.26,1842.54 C 2256.26,1842.54 2256.26,1842.54 2256.26,1842.54 "
     id="path226" />
  <path
     stroke="none"
     fill="#009e73"
     transform="matrix(0.0666667 0 0 0.0666667 -71.0665 0.666667)"
     d="M 2446.9,1758.63 C 2446.9,1758.63 2444.89,1821.01 2444.89,1821.01 C 2444.89,1821.01 2452.39,1811.17 2458.7,1809.39 C 2465.02,1807.61 2475.89,1812.27 2475.89,1812.27 C 2475.89,1812.27 2446.9,1758.63 2446.9,1758.63 C 2446.9,1758.63 2446.9,1758.63 2446.9,1758.63 "
     id="path228" />
  <path
     stroke="#009e73"
     stroke-width="1"
     fill="none"
     transform="matrix(0.0666667 0 0 0.0666667 -71.0665 0.666667)"
     d="M 2446.9,1758.63 C 2446.9,1758.63 2444.89,1821.01 2444.89,1821.01 C 2444.89,1821.01 2452.39,1811.17 2458.7,1809.39 C 2465.02,1807.61 2475.89,1812.27 2475.89,1812.27 C 2475.89,1812.27 2446.9,1758.63 2446.9,1758.63 C 2446.9,1758.63 2446.9,1758.63 2446.9,1758.63 "
     id="path230" />
  <path
     d="m 51.648895,135.07852 c 8.638004,12.06472 24.449345,16.04444 35.290017,8.88251 7.341337,-4.85 10.907339,-14.50148 8.856671,-23.96964"
     id="path232"
     inkscape:connector-curvature="0"
     style="fill:none;stroke:#009e73;stroke-width:0.55168682" />
  <path
     stroke="none"
     fill="#009e73"
     transform="matrix(0.0666667 0 0 0.0666667 -71.0665 0.666667)"
     d="M 1810.93,1956.96 C 1810.93,1956.96 1858.68,1998.2 1858.68,1998.2 C 1858.68,1998.2 1846.45,1997.4 1840.73,2001.37 C 1835.01,2005.35 1831.3,2017.23 1831.3,2017.23 C 1831.3,2017.23 1810.93,1956.96 1810.93,1956.96 C 1810.93,1956.96 1810.93,1956.96 1810.93,1956.96 "
     id="path234" />
  <path
     stroke="#009e73"
     stroke-width="1"
     fill="none"
     transform="matrix(0.0666667 0 0 0.0666667 -71.0665 0.666667)"
     d="M 1810.93,1956.96 C 1810.93,1956.96 1858.68,1998.2 1858.68,1998.2 C 1858.68,1998.2 1846.45,1997.4 1840.73,2001.37 C 1835.01,2005.35 1831.3,2017.23 1831.3,2017.23 C 1831.3,2017.23 1810.93,1956.96 1810.93,1956.96 C 1810.93,1956.96 1810.93,1956.96 1810.93,1956.96 "
     id="path236" />
  <path
     stroke="none"
     fill="#009e73"
     transform="matrix(0.0666667 0 0 0.0666667 -71.0665 0.666667)"
     d="M 2487.89,1740.74 C 2487.89,1740.74 2490.04,1802.18 2490.04,1802.18 C 2490.04,1802.18 2496.89,1791.99 2502.93,1789.87 C 2508.96,1787.74 2520.11,1791.59 2520.11,1791.59 C 2520.11,1791.59 2487.89,1740.74 2487.89,1740.74 C 2487.89,1740.74 2487.89,1740.74 2487.89,1740.74 "
     id="path238" />
  <path
     stroke="#009e73"
     stroke-width="1"
     fill="none"
     transform="matrix(0.0666667 0 0 0.0666667 -71.0665 0.666667)"
     d="M 2487.89,1740.74 C 2487.89,1740.74 2490.04,1802.18 2490.04,1802.18 C 2490.04,1802.18 2496.89,1791.99 2502.93,1789.87 C 2508.96,1787.74 2520.11,1791.59 2520.11,1791.59 C 2520.11,1791.59 2487.89,1740.74 2487.89,1740.74 C 2487.89,1740.74 2487.89,1740.74 2487.89,1740.74 "
     id="path240" />
  <g
     aria-label="H"
     transform="matrix(0.0666667,0,0,0.0666667,40.632,79.2859)"
     style="font-style:normal;font-weight:normal;font-size:160px;font-family:Arial;fill:#aaaaaa;stroke:none"
     id="text242">
    <path
       d="M 12.8125,0 V -114.53125 H 27.96875 V -67.5 H 87.5 v -47.03125 h 15.15625 V 0 H 87.5 V -53.984375 H 27.96875 V 0 Z"
       style="font-style:normal;font-weight:normal;font-size:160px;font-family:Arial;fill:#aaaaaa;stroke:none"
       id="path1329"
       inkscape:connector-curvature="0" />
  </g>
  <g
     aria-label="7'"
     transform="matrix(0.0666667,0,0,0.0666667,48.3351,75.0859)"
     style="font-style:normal;font-weight:normal;font-size:120px;font-family:Arial;fill:#aaaaaa;stroke:none"
     id="text244">
    <path
       d="M 5.6835937,-74.648437 V -84.785156 H 61.289062 v 8.203125 Q 53.085937,-67.851562 45,-53.378906 36.972656,-38.90625 32.578125,-23.613281 29.414062,-12.832031 28.535156,0 H 17.695312 q 0.175782,-10.136719 3.984375,-24.492187 3.808594,-14.355469 10.898438,-27.65625 7.148437,-13.359375 15.175781,-22.5 z"
       style="font-style:normal;font-weight:normal;font-size:120px;font-family:Arial;fill:#aaaaaa;stroke:none"
       id="path1332"
       inkscape:connector-curvature="0" />
    <path
       d="m 74.765625,-55.488281 -2.695313,-16.054688 v -14.355468 h 12.011719 v 14.355468 l -2.8125,16.054688 z"
       style="font-style:normal;font-weight:normal;font-size:120px;font-family:Arial;fill:#aaaaaa;stroke:none"
       id="path1334"
       inkscape:connector-curvature="0" />
  </g>
  <path
     stroke="none"
     fill="#aaaaaa"
     transform="matrix(0.0666667 0 0 0.0666667 -71.0665 0.666667)"
     d="M 1729.25,1203.29 L 1737.25,1203.29 L 1737.25,1346.07 L 1733.25,1359.29 L 1729.25,1352.36 L 1729.25,1203.29 Z "
     id="path246" />
  <g
     aria-label="H"
     transform="matrix(0.0666667,0,0,0.0666667,47.482,85.2063)"
     style="font-style:normal;font-weight:normal;font-size:160px;font-family:Arial;fill:#aaaaaa;stroke:none"
     id="text248">
    <path
       d="M 12.8125,0 V -114.53125 H 27.96875 V -67.5 H 87.5 v -47.03125 h 15.15625 V 0 H 87.5 V -53.984375 H 27.96875 V 0 Z"
       style="font-style:normal;font-weight:normal;font-size:160px;font-family:Arial;fill:#aaaaaa;stroke:none"
       id="path1337"
       inkscape:connector-curvature="0" />
  </g>
  <g
     aria-label="7''"
     transform="matrix(0.0666667,0,0,0.0666667,55.1851,81.0063)"
     style="font-style:normal;font-weight:normal;font-size:120px;font-family:Arial;fill:#aaaaaa;stroke:none"
     id="text250">
    <path
       d="M 5.6835937,-74.648437 V -84.785156 H 61.289062 v 8.203125 Q 53.085937,-67.851562 45,-53.378906 36.972656,-38.90625 32.578125,-23.613281 29.414062,-12.832031 28.535156,0 H 17.695312 q 0.175782,-10.136719 3.984375,-24.492187 3.808594,-14.355469 10.898438,-27.65625 7.148437,-13.359375 15.175781,-22.5 z"
       style="font-style:normal;font-weight:normal;font-size:120px;font-family:Arial;fill:#aaaaaa;stroke:none"
       id="path1340"
       inkscape:connector-curvature="0" />
    <path
       d="m 74.765625,-55.488281 -2.695313,-16.054688 v -14.355468 h 12.011719 v 14.355468 l -2.8125,16.054688 z"
       style="font-style:normal;font-weight:normal;font-size:120px;font-family:Arial;fill:#aaaaaa;stroke:none"
       id="path1342"
       inkscape:connector-curvature="0" />
    <path
       d="m 97.734375,-55.488281 -2.695313,-16.054688 v -14.355468 h 12.011718 v 14.355468 l -2.8125,16.054688 z"
       style="font-style:normal;font-weight:normal;font-size:120px;font-family:Arial;fill:#aaaaaa;stroke:none"
       id="path1344"
       inkscape:connector-curvature="0" />
  </g>
  <path
     stroke="none"
     fill="#aaaaaa"
     transform="matrix(0.0666667 0 0 0.0666667 -71.0665 0.666667)"
     d="M 1776.43,1287.28 L 1783.09,1291.71 L 1737.24,1360.51 L 1733.25,1359.29 L 1737.25,1346.07 L 1776.43,1287.28 Z "
     id="path252" />
  <path
     d="m 74.294906,191.63943 c -12.742006,-1.98467 -26.303346,3.028 -34.604017,12.79"
     id="path254"
     inkscape:connector-curvature="0"
     style="fill:none;stroke:#0072b2;stroke-width:0.5333336" />
  <path
     d="m 78.142241,192.44476 c 0,0 -4.694002,0.24533 -4.694002,0.24533 0,0 0.71,-0.51333 0.846667,-1.05066 0.136667,-0.53667 -0.253333,-1.28067 -0.253333,-1.28067 0,0 4.100668,2.086 4.100668,2.086 0,0 0,0 0,0"
     id="path256"
     inkscape:connector-curvature="0"
     style="fill:#e69f00;stroke:none;stroke-width:0.0666667" />
  <path
     d="m 78.142241,192.44476 c 0,0 -4.694002,0.24533 -4.694002,0.24533 0,0 0.71,-0.51333 0.846667,-1.05066 0.136667,-0.53667 -0.253333,-1.28067 -0.253333,-1.28067 0,0 4.100668,2.086 4.100668,2.086 0,0 0,0 0,0"
     id="path258"
     inkscape:connector-curvature="0"
     style="fill:#0072b2;stroke:#0072b2;stroke-width:0.0666667" />
  <path
     d="m 37.321554,207.53277 c 0,0 3.661335,-2.80267 3.661335,-2.80267 0,0 -0.855333,0.04 -1.292,-0.30067 -0.436001,-0.34 -0.614667,-1.18666 -0.614667,-1.18666 0,0 -1.754668,4.29 -1.754668,4.29 0,0 0,0 0,0"
     id="path260"
     inkscape:connector-curvature="0"
     style="fill:#e69f00;stroke:none;stroke-width:0.0666667" />
  <path
     d="m 37.321554,207.53277 c 0,0 3.661335,-2.80267 3.661335,-2.80267 0,0 -0.855333,0.04 -1.292,-0.30067 -0.436001,-0.34 -0.614667,-1.18666 -0.614667,-1.18666 0,0 -1.754668,4.29 -1.754668,4.29 0,0 0,0 0,0"
     id="path262"
     inkscape:connector-curvature="0"
     style="fill:#0072b2;stroke:#0072b2;stroke-width:0.0666667" />
  <path
     d="m 44.326224,175.67675 c -12.302006,-3.19267 -24.209345,3.102 -26.577346,14.05001 -1.804668,8.34334 2.961335,17.96667 11.320672,22.85934"
     id="path264"
     inkscape:connector-curvature="0"
     style="fill:none;stroke:#0072b2;stroke-width:0.5333336" />
  <path
     d="m 47.760226,176.82542 c 0,0 -4.319335,-0.26533 -4.319335,-0.26533 0,0 0.718,-0.43867 0.885333,-0.88334 0.168,-0.44467 -0.09533,-1.212 -0.09533,-1.212 0,0 3.529335,2.36067 3.529335,2.36067 0,0 0,0 0,0"
     id="path266"
     inkscape:connector-curvature="0"
     style="fill:#e69f00;stroke:none;stroke-width:0.0666667" />
  <path
     d="m 47.760226,176.82542 c 0,0 -4.319335,-0.26533 -4.319335,-0.26533 0,0 0.718,-0.43867 0.885333,-0.88334 0.168,-0.44467 -0.09533,-1.212 -0.09533,-1.212 0,0 3.529335,2.36067 3.529335,2.36067 0,0 0,0 0,0"
     id="path268"
     inkscape:connector-curvature="0"
     style="fill:#0072b2;stroke:#0072b2;stroke-width:0.0666667" />
  <path
     d="m 32.313552,214.19544 c 0,0 -3.180669,-2.83267 -3.180669,-2.83267 0,0 0.160001,0.802 -0.06333,1.22333 -0.223333,0.42134 -0.989334,0.76334 -0.989334,0.76334 0,0 4.233336,0.846 4.233336,0.846 0,0 0,0 0,0"
     id="path270"
     inkscape:connector-curvature="0"
     style="fill:#e69f00;stroke:none;stroke-width:0.0666667" />
  <path
     d="m 32.313552,214.19544 c 0,0 -3.180669,-2.83267 -3.180669,-2.83267 0,0 0.160001,0.802 -0.06333,1.22333 -0.223333,0.42134 -0.989334,0.76334 -0.989334,0.76334 0,0 4.233336,0.846 4.233336,0.846 0,0 0,0 0,0"
     id="path272"
     inkscape:connector-curvature="0"
     style="fill:#0072b2;stroke:#0072b2;stroke-width:0.0666667" />
  <text
     x="22.355469"
     y="204.29593"
     font-style="normal"
     font-weight="normal"
     font-size="160px"
     id="text274"
     style="font-style:normal;font-weight:normal;font-size:10.66667175px;font-family:Arial;fill:#0072b2;stroke:none;stroke-width:0.0666667;">lub</text>
  <path
     d="m 74.564906,194.75209 c -17.366009,-2.16733 -32.073349,11.25601 -32.82735,29.96069 -0.07667,1.90733 -0.004,3.83333 0.218001,5.75067"
     id="path276"
     inkscape:connector-curvature="0"
     style="fill:none;stroke:#cc79a7;stroke-width:0.5333336" />
  <path
     d="m 78.388908,195.48343 c 0,0 -4.646002,0.324 -4.646002,0.324 0,0 0.696,-0.526 0.822,-1.05534 0.126,-0.52866 -0.270667,-1.26333 -0.270667,-1.26333 0,0 4.094669,1.99467 4.094669,1.99467 0,0 0,0 0,0"
     id="path278"
     inkscape:connector-curvature="0"
     style="fill:#cc79a7;stroke:none;stroke-width:0.0666667" />
  <path
     d="m 78.388908,195.48343 c 0,0 -4.646002,0.324 -4.646002,0.324 0,0 0.696,-0.526 0.822,-1.05534 0.126,-0.52866 -0.270667,-1.26333 -0.270667,-1.26333 0,0 4.094669,1.99467 4.094669,1.99467 0,0 0,0 0,0"
     id="path280"
     inkscape:connector-curvature="0"
     style="fill:none;stroke:#cc79a7;stroke-width:0.0666667" />
  <path
     d="m 42.538223,234.01411 c 0,0 0.415334,-4.29133 0.415334,-4.29133 0,0 -0.542,0.642 -0.998,0.74067 -0.456001,0.098 -1.164668,-0.27467 -1.164668,-0.27467 0,0 1.747334,3.82533 1.747334,3.82533 0,0 0,0 0,0"
     id="path282"
     inkscape:connector-curvature="0"
     style="fill:#cc79a7;stroke:none;stroke-width:0.0666667" />
  <path
     d="m 42.538223,234.01411 c 0,0 0.415334,-4.29133 0.415334,-4.29133 0,0 -0.542,0.642 -0.998,0.74067 -0.456001,0.098 -1.164668,-0.27467 -1.164668,-0.27467 0,0 1.747334,3.82533 1.747334,3.82533 0,0 0,0 0,0"
     id="path284"
     inkscape:connector-curvature="0"
     style="fill:none;stroke:#cc79a7;stroke-width:0.0666667" />
  <path
     d="m 44.622891,173.61408 c -14.52334,-5.244 -29.991348,5.53734 -34.524684,24.06402 -4.5326687,18.52667 3.576669,37.82135 18.100676,43.06535 1.867334,0.674 3.797335,1.094 5.745336,1.24933"
     id="path286"
     inkscape:connector-curvature="0"
     style="fill:none;stroke:#cc79a7;stroke-width:0.5333336" />
  <path
     d="m 47.768226,175.02208 c 0,0 -4.063335,-0.644 -4.063335,-0.644 0,0 0.728667,-0.374 0.918,-0.764 0.189334,-0.39 0.02,-1.16666 0.02,-1.16666 0,0 3.125335,2.57466 3.125335,2.57466 0,0 0,0 0,0"
     id="path288"
     inkscape:connector-curvature="0"
     style="fill:#cc79a7;stroke:none;stroke-width:0.0666667" />
  <path
     d="m 47.768226,175.02208 c 0,0 -4.063335,-0.644 -4.063335,-0.644 0,0 0.728667,-0.374 0.918,-0.764 0.189334,-0.39 0.02,-1.16666 0.02,-1.16666 0,0 3.125335,2.57466 3.125335,2.57466 0,0 0,0 0,0"
     id="path290"
     inkscape:connector-curvature="0"
     style="fill:none;stroke:#cc79a7;stroke-width:0.0666667" />
  <path
     d="m 37.789554,241.95945 c 0,0 -4.470668,-1.12667 -4.470668,-1.12667 0,0 0.591333,0.63534 0.625333,1.16 0.03467,0.52534 -0.472667,1.17001 -0.472667,1.17001 0,0 4.318002,-1.20334 4.318002,-1.20334 0,0 0,0 0,0"
     id="path292"
     inkscape:connector-curvature="0"
     style="fill:#cc79a7;stroke:none;stroke-width:0.0666667" />
  <path
     d="m 37.789554,241.95945 c 0,0 -4.470668,-1.12667 -4.470668,-1.12667 0,0 0.591333,0.63534 0.625333,1.16 0.03467,0.52534 -0.472667,1.17001 -0.472667,1.17001 0,0 4.318002,-1.20334 4.318002,-1.20334 0,0 0,0 0,0"
     id="path294"
     inkscape:connector-curvature="0"
     style="fill:none;stroke:#cc79a7;stroke-width:0.0666667" />
  <text
     x="23.697409"
     y="235.74959"
     font-style="normal"
     font-weight="normal"
     font-size="160px"
     id="text296"
     style="font-style:normal;font-weight:normal;font-size:10.66667175px;font-family:Arial;fill:#cc79a7;stroke:none;stroke-width:0.0666667">lub</text>
  <path
     stroke="#009e73"
     stroke-width="8"
     fill="none"
     transform="matrix(0.0666667 0 0 0.0666667 -71.0665 0.666667)"
     d="M 2440.28,1539.38 C 2440.28,1539.38 2565.9,1020 2372.78,870 C 2179.65,720 1947.15,836.25 1917.15,999.375 "
     id="path336" />
  <path
     stroke="none"
     fill="#009e73"
     transform="matrix(0.0666667 0 0 0.0666667 -71.0665 0.666667)"
     d="M 2423.19,1524.95 L 2440.28,1539.38 L 2462.07,1534.36 L 2427.58,1591.86 Z "
     id="path338" />
  <path
     stroke="none"
     fill="#009e73"
     transform="matrix(0.0666667 0 0 0.0666667 -71.0665 0.666667)"
     d="M 1899.29,985.923 L 1917.15,999.375 L 1938.63,993.158 L 1907.38,1052.48 Z "
     id="path340" />
  <path
     stroke="#009e73"
     stroke-width="8"
     fill="none"
     transform="matrix(0.0666667 0 0 0.0666667 -71.0665 0.666667)"
     d="M 2438.4,1554.38 C 2438.4,1554.38 2569.65,1023.75 2376.53,873.75 C 2183.4,723.75 1849.65,781.25 1776.53,939.375 "
     id="path342" />
  <path
     stroke="none"
     fill="#009e73"
     transform="matrix(0.0666667 0 0 0.0666667 -71.0665 0.666667)"
     d="M 1762.57,921.904 L 1776.53,939.375 L 1798.88,938.693 L 1753.86,988.387 Z "
     id="path344" />
  <text
     xml:space="preserve"
     style="font-style:normal;font-weight:normal;font-size:10.66666698px;line-height:1.25;font-family:sans-serif;text-align:start;letter-spacing:0px;word-spacing:0px;text-anchor:start;fill:#000000;fill-opacity:1;stroke:none"
     x="108.62924"
     y="129.73729"
     id="text1349"><tspan
       sodipodi:role="line"
       id="tspan1347"
       x="108.62924"
       y="129.73729">\cmpd{gal-tet.cy}</tspan></text>
  <text
     xml:space="preserve"
     style="font-style:normal;font-weight:normal;font-size:10.66666698px;line-height:1.25;font-family:sans-serif;text-align:start;letter-spacing:0px;word-spacing:0px;text-anchor:start;fill:#000000;fill-opacity:1;stroke:none"
     x="108.62925"
     y="252.60382"
     id="text1349-1"><tspan
       sodipodi:role="line"
       id="tspan1347-4"
       x="108.62925"
       y="252.60382">\cmpd{gal-epi-tet.cy}</tspan></text>
  <text
     xml:space="preserve"
     style="font-style:normal;font-weight:normal;font-size:10.66666698px;line-height:1.25;font-family:sans-serif;text-align:start;letter-spacing:0px;word-spacing:0px;text-anchor:start;fill:#e69f00;fill-opacity:1;stroke:none"
     x="146.34415"
     y="175.10733"
     id="text1371"><tspan
       sodipodi:role="line"
       id="tspan1369"
       x="146.34415"
       y="175.10733">\iupac{2-\S}</tspan></text>
  <text
     xml:space="preserve"
     style="font-style:normal;font-weight:normal;font-size:10.66666698px;line-height:1.25;font-family:sans-serif;text-align:start;letter-spacing:0px;word-spacing:0px;text-anchor:start;fill:#e69f00;fill-opacity:1;stroke:none;"
     x="146.34415"
     y="73.885704"
     id="text1371-7"><tspan
       sodipodi:role="line"
       id="tspan1369-5"
       x="146.34415"
       y="73.885704">\iupac{2-\R}</tspan></text>
</svg>
