<?xml version="1.0" encoding="UTF-8" standalone="no"?>
<svg
   xmlns:dc="http://purl.org/dc/elements/1.1/"
   xmlns:cc="http://creativecommons.org/ns#"
   xmlns:rdf="http://www.w3.org/1999/02/22-rdf-syntax-ns#"
   xmlns:svg="http://www.w3.org/2000/svg"
   xmlns="http://www.w3.org/2000/svg"
   xmlns:sodipodi="http://sodipodi.sourceforge.net/DTD/sodipodi-0.dtd"
   xmlns:inkscape="http://www.inkscape.org/namespaces/inkscape"
   width="405px"
   height="105px"
   viewBox="0 0 405 105"
   style="background-color: #ffffff00"
   version="1.1"
   id="svg224"
   sodipodi:docname="galacto-imine-confs.svg"
   inkscape:version="0.92.3 (2405546, 2018-03-11)">
  <metadata
     id="metadata230">
    <rdf:RDF>
      <cc:Work
         rdf:about="">
        <dc:format>image/svg+xml</dc:format>
        <dc:type
           rdf:resource="http://purl.org/dc/dcmitype/StillImage" />
      </cc:Work>
    </rdf:RDF>
  </metadata>
  <defs
     id="defs228" />
  <sodipodi:namedview
     pagecolor="#ffffff"
     bordercolor="#666666"
     borderopacity="1"
     objecttolerance="10"
     gridtolerance="10"
     guidetolerance="10"
     inkscape:pageopacity="0"
     inkscape:pageshadow="2"
     inkscape:window-width="1920"
     inkscape:window-height="1017"
     id="namedview226"
     showgrid="false"
     inkscape:zoom="3.3876543"
     inkscape:cx="53.517048"
     inkscape:cy="-5.3212343"
     inkscape:window-x="-8"
     inkscape:window-y="-8"
     inkscape:window-maximized="1"
     inkscape:current-layer="svg224" />
  <g
     aria-label="O"
     transform="matrix(0.0666667,0,0,0.0666667,146.694,70.8803)"
     style="font-style:normal;font-weight:normal;font-size:160px;font-family:Arial;fill:#000000;stroke:none"
     id="text2">
    <path
       d="m 7.734375,-55.78125 q 0,-28.515625 15.3125,-44.60938 15.3125,-16.17187 39.53125,-16.17187 15.859375,0 28.59375,7.57812 12.734375,7.57813 19.375005,21.17188 6.71875,13.515625 6.71875,30.703125 0,17.421875 -7.03125,31.171875 -7.03125,13.75 -19.92188,20.859375 -12.890625,7.03125 -27.8125,7.03125 -16.171875,0 -28.90625,-7.8125 -12.734375,-7.8125 -19.296875,-21.328125 -6.5625,-13.515625 -6.5625,-28.59375 z m 15.625,0.234375 q 0,20.703125 11.09375,32.65625 11.171875,11.875 27.96875,11.875 17.109375,0 28.125,-12.03125 11.093755,-12.03125 11.093755,-34.140625 0,-13.984375 -4.76563,-24.375 -4.6875,-10.46875 -13.828125,-16.171875 -9.0625,-5.781255 -20.390625,-5.781255 -16.09375,0 -27.734375,11.093755 -11.5625,11.015625 -11.5625,36.875 z"
       style="font-style:normal;font-weight:normal;font-size:160px;font-family:Arial;fill:#000000;stroke:none"
       id="path1037"
       inkscape:connector-curvature="0" />
  </g>
  <path
     stroke="none"
     fill="#000000"
     transform="matrix(0.0666667 0 0 0.0666667 0.0221544 -11.6)"
     d="M 3007.13,949.53 L 3012.17,951.874 L 3011.68,959.149 L 2889.72,1067.92 L 2874.39,1067.92 L 3007.13,949.53 L 3007.13,949.53 Z "
     id="path4" />
  <path
     stroke="none"
     fill="#000000"
     transform="matrix(0.0666667 0 0 0.0666667 0.0221544 -11.6)"
     d="M 2648.51,1283.03 L 2647.17,1277.39 L 2647.66,1270.11 L 2769.62,1161.35 L 2784.95,1161.35 L 2648.51,1283.03 L 2648.51,1283.03 Z "
     id="path6" />
  <g
     aria-label="N"
     transform="matrix(0.0666667,0,0,0.0666667,192.473,66.9088)"
     style="font-style:normal;font-weight:normal;font-size:160px;font-family:Arial;fill:#000000;stroke:none"
     id="text8">
    <path
       d="m 12.1875,0 v -114.53125 h 15.546875 l 60.15625,89.921875 V -114.53125 H 102.42188 V 0 H 86.875 L 26.71875,-90 V 0 Z"
       style="font-style:normal;font-weight:normal;font-size:160px;font-family:Arial;fill:#000000;stroke:none"
       id="path1040"
       inkscape:connector-curvature="0" />
  </g>
  <path
     stroke="none"
     fill="#000000"
     transform="matrix(0.0666667 0 0 0.0666667 0.0221544 -11.6)"
     d="M 2873.76,1088.81 L 2873.76,1099.02 L 2714.58,1099.02 L 2714.58,1088.81 L 2873.76,1088.81 Z "
     id="path10" />
  <path
     stroke="none"
     fill="#000000"
     transform="matrix(0.0666667 0 0 0.0666667 0.0221544 -11.6)"
     d="M 2873.76,1130.24 L 2873.76,1140.45 L 2714.58,1140.45 L 2714.58,1130.24 L 2873.76,1130.24 Z "
     id="path12" />
  <path
     stroke="none"
     fill="#000000"
     transform="matrix(0.0666667 0 0 0.0666667 0.0221544 -11.6)"
     d="M 3130.3,1098.76 L 3174.93,1114.63 L 3174.93,1130.51 L 3014.76,1130.51 L 3014.76,1098.76 L 3130.3,1098.76 Z "
     id="path14" />
  <path
     stroke="none"
     fill="#000000"
     transform="matrix(0.0666667 0 0 0.0666667 0.0221544 -11.6)"
     d="M 2529.04,1130.51 L 2484.41,1114.63 L 2523.94,1098.76 L 2714.58,1098.76 L 2714.58,1130.51 L 2529.04,1130.51 Z "
     id="path16" />
  <path
     stroke="none"
     fill="#000000"
     transform="matrix(0.0666667 0 0 0.0666667 0.0221544 -11.6)"
     d="M 3011.68,959.149 L 3012.17,951.874 L 3017.34,949.593 L 3198.07,1103.15 L 3174.93,1114.63 L 3130.3,1098.76 L 3011.68,959.149 Z "
     id="path18" />
  <path
     stroke="none"
     fill="#000000"
     transform="matrix(0.0666667 0 0 0.0666667 0.0221544 -11.6)"
     d="M 2647.66,1270.11 L 2647.17,1277.39 L 2626.61,1266.6 L 2461.27,1126.11 L 2484.41,1114.63 L 2529.04,1130.51 L 2647.66,1270.11 Z "
     id="path20" />
  <path
     stroke="none"
     fill="#000000"
     transform="matrix(0.0666667 0 0 0.0666667 0.0221544 -11.6)"
     d="M 481.772,956.547 L 480.545,948.993 L 485.578,946.501 L 632.147,1065.03 L 615.919,1065.03 L 481.772,956.547 L 481.772,956.547 Z "
     id="path22" />
  <path
     stroke="none"
     fill="#000000"
     transform="matrix(0.0666667 0 0 0.0666667 0.0221544 -11.6)"
     d="M 882.399,1267.42 L 883.05,1274.51 L 881.861,1280.11 L 731.448,1158.47 L 747.676,1158.47 L 882.399,1267.42 L 882.399,1267.42 Z "
     id="path24" />
  <g
     aria-label="N"
     transform="matrix(0.0666667,0,0,0.0666667,50.5311,66.7167)"
     style="font-style:normal;font-weight:normal;font-size:160px;font-family:Arial;fill:#000000;stroke:none"
     id="text26">
    <path
       d="m 12.1875,0 v -114.53125 h 15.546875 l 60.15625,89.921875 V -114.53125 H 102.42188 V 0 H 86.875 L 26.71875,-90 V 0 Z"
       style="font-style:normal;font-weight:normal;font-size:160px;font-family:Arial;fill:#000000;stroke:none"
       id="path1043"
       inkscape:connector-curvature="0" />
  </g>
  <path
     stroke="none"
     fill="#000000"
     transform="matrix(0.0666667 0 0 0.0666667 0.0221544 -11.6)"
     d="M 585.461,1137.57 L 585.461,1127.36 L 744.634,1127.36 L 744.634,1137.57 L 585.461,1137.57 Z "
     id="path28" />
  <path
     stroke="none"
     fill="#000000"
     transform="matrix(0.0666667 0 0 0.0666667 0.0221544 -11.6)"
     d="M 585.461,1096.14 L 585.461,1085.93 L 744.634,1085.93 L 744.634,1096.14 L 585.461,1096.14 Z "
     id="path30" />
  <path
     stroke="none"
     fill="#000000"
     transform="matrix(0.0666667 0 0 0.0666667 0.0221544 -11.6)"
     d="M 360.39,1127.62 L 355.288,1111.75 L 393.43,1095.88 L 585.461,1095.88 L 585.461,1127.62 L 360.39,1127.62 Z "
     id="path32" />
  <path
     stroke="none"
     fill="#000000"
     transform="matrix(0.0666667 0 0 0.0666667 0.0221544 -11.6)"
     d="M 1040.7,1095.88 L 1045.81,1111.75 L 1001.18,1127.62 L 885.634,1127.62 L 885.634,1095.88 L 1040.7,1095.88 Z "
     id="path34" />
  <path
     stroke="none"
     fill="#000000"
     transform="matrix(0.0666667 0 0 0.0666667 0.0221544 -11.6)"
     d="M 475.386,947.086 L 480.545,948.993 L 481.772,956.547 L 393.43,1095.88 L 355.288,1111.75 L 350.186,1082.35 L 475.386,947.086 Z "
     id="path36" />
  <path
     stroke="none"
     fill="#000000"
     transform="matrix(0.0666667 0 0 0.0666667 0.0221544 -11.6)"
     d="M 903.602,1263.72 L 883.05,1274.51 L 882.399,1267.42 L 1001.18,1127.62 L 1045.81,1111.75 L 1050.91,1138.56 L 903.602,1263.72 Z "
     id="path38" />
  <g
     aria-label="O"
     transform="matrix(0.0666667,0,0,0.0666667,69.5808,73.5956)"
     style="font-style:normal;font-weight:normal;font-size:160px;font-family:Arial;fill:#000000;stroke:none"
     id="text40">
    <path
       d="m 7.734375,-55.78125 q 0,-28.515625 15.3125,-44.60938 15.3125,-16.17187 39.53125,-16.17187 15.859375,0 28.59375,7.57812 12.734375,7.57813 19.375005,21.17188 6.71875,13.515625 6.71875,30.703125 0,17.421875 -7.03125,31.171875 -7.03125,13.75 -19.92188,20.859375 -12.890625,7.03125 -27.8125,7.03125 -16.171875,0 -28.90625,-7.8125 -12.734375,-7.8125 -19.296875,-21.328125 -6.5625,-13.515625 -6.5625,-28.59375 z m 15.625,0.234375 q 0,20.703125 11.09375,32.65625 11.171875,11.875 27.96875,11.875 17.109375,0 28.125,-12.03125 11.093755,-12.03125 11.093755,-34.140625 0,-13.984375 -4.76563,-24.375 -4.6875,-10.46875 -13.828125,-16.171875 -9.0625,-5.781255 -20.390625,-5.781255 -16.09375,0 -27.734375,11.093755 -11.5625,11.015625 -11.5625,36.875 z"
       style="font-style:normal;font-weight:normal;font-size:160px;font-family:Arial;fill:#000000;stroke:none"
       id="path1046"
       inkscape:connector-curvature="0" />
  </g>
  <path
     stroke="none"
     fill="#000000"
     transform="matrix(0.0666667 0 0 0.0666667 0.0221544 -11.6)"
     d="M 1024.26,1231.39 L 1026.9,1241.24 L 881.861,1280.11 L 883.05,1274.51 L 903.602,1263.72 L 1024.26,1231.39 Z "
     id="path42" />
  <path
     stroke="none"
     fill="#000000"
     transform="matrix(0.0666667 0 0 0.0666667 0.0221544 -11.6)"
     d="M 2340.86,1158.38 L 2338.22,1148.52 L 2523.94,1098.76 L 2484.41,1114.63 L 2461.27,1126.11 L 2340.86,1158.38 Z "
     id="path44" />
  <g
     aria-label="O"
     transform="matrix(0.0666667,0,0,0.0666667,157.545,73.7877)"
     style="font-style:normal;font-weight:normal;font-size:160px;font-family:Arial;fill:#000000;stroke:none"
     id="text46">
    <path
       d="m 7.734375,-55.78125 q 0,-28.515625 15.3125,-44.60938 15.3125,-16.17187 39.53125,-16.17187 15.859375,0 28.59375,7.57812 12.734375,7.57813 19.375005,21.17188 6.71875,13.515625 6.71875,30.703125 0,17.421875 -7.03125,31.171875 -7.03125,13.75 -19.92188,20.859375 -12.890625,7.03125 -27.8125,7.03125 -16.171875,0 -28.90625,-7.8125 -12.734375,-7.8125 -19.296875,-21.328125 -6.5625,-13.515625 -6.5625,-28.59375 z m 15.625,0.234375 q 0,20.703125 11.09375,32.65625 11.171875,11.875 27.96875,11.875 17.109375,0 28.125,-12.03125 11.093755,-12.03125 11.093755,-34.140625 0,-13.984375 -4.76563,-24.375 -4.6875,-10.46875 -13.828125,-16.171875 -9.0625,-5.781255 -20.390625,-5.781255 -16.09375,0 -27.734375,11.093755 -11.5625,11.015625 -11.5625,36.875 z"
       style="font-style:normal;font-weight:normal;font-size:160px;font-family:Arial;fill:#000000;stroke:none"
       id="path1049"
       inkscape:connector-curvature="0" />
  </g>
  <path
     stroke="none"
     fill="#000000"
     transform="matrix(0.0666667 0 0 0.0666667 0.0221544 -11.6)"
     d="M 2504.25,1244.37 L 2506.89,1234.52 L 2626.61,1266.6 L 2647.17,1277.39 L 2648.51,1283.03 L 2504.25,1244.37 Z "
     id="path48" />
  <path
     stroke="none"
     fill="#000000"
     transform="matrix(0.0666667 0 0 0.0666667 0.0221544 -11.6)"
     d="M 3398.78,1049.37 L 3395.73,1060.75 L 3135.4,1130.51 L 3174.93,1114.63 L 3198.07,1103.15 L 3398.78,1049.37 Z "
     id="path50" />
  <g
     aria-label="O"
     transform="matrix(0.0666667,0,0,0.0666667,233.223,73.7877)"
     style="font-style:normal;font-weight:normal;font-size:160px;font-family:Arial;fill:#000000;stroke:none"
     id="text52">
    <path
       d="m 7.734375,-55.78125 q 0,-28.515625 15.3125,-44.60938 15.3125,-16.17187 39.53125,-16.17187 15.859375,0 28.59375,7.57812 12.734375,7.57813 19.375005,21.17188 6.71875,13.515625 6.71875,30.703125 0,17.421875 -7.03125,31.171875 -7.03125,13.75 -19.92188,20.859375 -12.890625,7.03125 -27.8125,7.03125 -16.171875,0 -28.90625,-7.8125 -12.734375,-7.8125 -19.296875,-21.328125 -6.5625,-13.515625 -6.5625,-28.59375 z m 15.625,0.234375 q 0,20.703125 11.09375,32.65625 11.171875,11.875 27.96875,11.875 17.109375,0 28.125,-12.03125 11.093755,-12.03125 11.093755,-34.140625 0,-13.984375 -4.76563,-24.375 -4.6875,-10.46875 -13.828125,-16.171875 -9.0625,-5.781255 -20.390625,-5.781255 -16.09375,0 -27.734375,11.093755 -11.5625,11.015625 -11.5625,36.875 z"
       style="font-style:normal;font-weight:normal;font-size:160px;font-family:Arial;fill:#000000;stroke:none"
       id="path1052"
       inkscape:connector-curvature="0" />
  </g>
  <path
     stroke="none"
     fill="#000000"
     transform="matrix(0.0666667 0 0 0.0666667 0.0221544 -11.6)"
     d="M 3507.57,1158.16 L 3500.36,1165.37 L 3395.73,1060.75 L 3398.78,1049.37 L 3507.57,1158.16 Z "
     id="path54" />
  <path
     stroke="none"
     fill="#000000"
     transform="matrix(0.0666667 0 0 0.0666667 0.0221544 -11.6)"
     d="M 1040.7,878.631 L 1050.91,884.523 L 1050.91,1138.56 L 1045.81,1111.75 L 1040.7,1095.88 L 1040.7,878.631 Z "
     id="path56" />
  <path
     stroke="none"
     fill="#000000"
     transform="matrix(0.0666667 0 0 0.0666667 0.0221544 -11.6)"
     d="M 1447.03,877.158 L 1441.93,885.996 L 1317.65,814.244 L 1322.75,805.407 L 1447.03,877.158 Z "
     id="path58" />
  <path
     stroke="none"
     fill="#000000"
     transform="matrix(0.0666667 0 0 0.0666667 0.0221544 -11.6)"
     d="M 1168.51,804.84 L 1173.62,813.677 L 1050.91,884.523 L 1040.7,878.631 L 1168.51,804.84 Z "
     id="path60" />
  <path
     stroke="none"
     fill="#000000"
     transform="matrix(0.0666667 0 0 0.0666667 0.0221544 -11.6)"
     d="M 269.005,614.057 L 273.853,605.077 L 406.827,676.866 L 401.98,685.846 L 269.005,614.057 Z "
     id="path62" />
  <path
     stroke="none"
     fill="#000000"
     transform="matrix(0.0666667 0 0 0.0666667 0.0221544 -11.6)"
     d="M 471.488,810.661 L 481.688,810.37 L 485.578,946.501 L 480.545,948.993 L 475.386,947.086 L 471.488,810.661 Z "
     id="path64" />
  <path
     stroke="none"
     fill="#000000"
     transform="matrix(0.0666667 0 0 0.0666667 0.0221544 -11.6)"
     d="M 158.503,1461.43 L 153.401,1452.59 L 278.66,1380.27 L 283.762,1389.11 L 158.503,1461.43 Z "
     id="path66" />
  <path
     stroke="none"
     fill="#000000"
     transform="matrix(0.0666667 0 0 0.0666667 0.0221544 -11.6)"
     d="M 360.39,1263.59 L 350.186,1263.59 L 350.186,1082.35 L 355.288,1111.75 L 360.39,1127.62 L 360.39,1263.59 Z "
     id="path68" />
  <path
     stroke="none"
     fill="#000000"
     transform="matrix(0.0666667 0 0 0.0666667 0.0221544 -11.6)"
     d="M 1971.25,1104.32 L 1348,1104.32 L 1348,1094.32 L 1971.25,1094.32 Z "
     id="path70" />
  <path
     stroke="none"
     fill="#000000"
     transform="matrix(0.0666667 0 0 0.0666667 0.0221544 -11.6)"
     d="M 1397.99,1124.94 L 1675.55,1124.94 L 1675.55,1134.94 L 1397.99,1134.94 Z "
     id="path72" />
  <path
     stroke="none"
     fill="#000000"
     transform="matrix(0.0666667 0 0 0.0666667 0.0221544 -11.6)"
     d="M 1763.84,1124.94 C 1763.84,1124.94 1661.79,1156.45 1661.79,1156.45 C 1661.79,1156.45 1674.55,1136.54 1674.55,1124.94 C 1674.55,1124.94 1763.84,1124.94 1763.84,1124.94 C 1763.84,1124.94 1763.84,1124.94 1763.84,1124.94 "
     id="path74" />
  <path
     stroke="#000000"
     stroke-width="1"
     fill="none"
     transform="matrix(0.0666667 0 0 0.0666667 0.0221544 -11.6)"
     d="M 1763.84,1124.94 C 1763.84,1124.94 1661.79,1156.45 1661.79,1156.45 C 1661.79,1156.45 1674.55,1136.54 1674.55,1124.94 C 1674.55,1124.94 1763.84,1124.94 1763.84,1124.94 C 1763.84,1124.94 1763.84,1124.94 1763.84,1124.94 "
     id="path76" />
  <path
     stroke="none"
     fill="#000000"
     transform="matrix(0.0666667 0 0 0.0666667 0.0221544 -11.6)"
     d="M 1259.71,1104.32 C 1259.71,1104.32 1349,1104.32 1349,1104.32 C 1349,1087.73 1361.76,1072.81 1361.76,1072.81 C 1361.76,1072.81 1259.71,1104.32 1259.71,1104.32 C 1259.71,1104.32 1259.71,1104.32 1259.71,1104.32 "
     id="path78" />
  <path
     stroke="#000000"
     stroke-width="1"
     fill="none"
     transform="matrix(0.0666667 0 0 0.0666667 0.0221544 -11.6)"
     d="M 1259.71,1104.32 C 1259.71,1104.32 1349,1104.32 1349,1104.32 C 1349,1087.73 1361.76,1072.81 1361.76,1072.81 C 1361.76,1072.81 1259.71,1104.32 1259.71,1104.32 C 1259.71,1104.32 1259.71,1104.32 1259.71,1104.32 "
     id="path80" />
  <path
     stroke="none"
     fill="#e69f00"
     transform="matrix(0.0666667 0 0 0.0666667 0.0221544 -11.6)"
     d="M 1433.5,1264.06 A 26.9302,26.9302 0 1 0 1487.36,1264.06A 26.9302,26.9302 0 1 0 1433.5,1264.06Z "
     id="path82" />
  <g
     aria-label="H"
     transform="matrix(0.0666667,0,0,0.0666667,358.332,40.8885)"
     style="font-style:normal;font-weight:normal;font-size:160px;font-family:Arial;fill:#000000;stroke:none"
     id="text84">
    <path
       d="M 12.8125,0 V -114.53125 H 27.96875 V -67.5 H 87.5 v -47.03125 h 15.15625 V 0 H 87.5 V -53.984375 H 27.96875 V 0 Z"
       style="font-style:normal;font-weight:normal;font-size:160px;font-family:Arial;fill:#000000;stroke:none"
       id="path1055"
       inkscape:connector-curvature="0" />
  </g>
  <g
     aria-label="N"
     transform="matrix(0.0666667,0,0,0.0666667,358.332,51.5551)"
     style="font-style:normal;font-weight:normal;font-size:160px;font-family:Arial;fill:#000000;stroke:none"
     id="text86">
    <path
       d="m 12.1875,0 v -114.53125 h 15.546875 l 60.15625,89.921875 V -114.53125 H 102.42188 V 0 H 86.875 L 26.71875,-90 V 0 Z"
       style="font-style:normal;font-weight:normal;font-size:160px;font-family:Arial;fill:#000000;stroke:none"
       id="path1058"
       inkscape:connector-curvature="0" />
  </g>
  <path
     stroke="none"
     fill="#000000"
     transform="matrix(0.0666667 0 0 0.0666667 0.0221544 -11.6)"
     d="M 5238.41,1226.64 L 5233.3,1229.59 L 5228.2,1226.25 L 5228.2,1002.62 L 5233.3,999.413 L 5238.41,1002.36 L 5238.41,1226.64 Z "
     id="path88" />
  <path
     stroke="none"
     fill="#000000"
     transform="matrix(0.0666667 0 0 0.0666667 0.0221544 -11.6)"
     d="M 5432.64,1338.78 L 5432.64,1344.67 L 5427.2,1347.42 L 5233.65,1235.68 L 5233.3,1229.59 L 5238.41,1226.64 L 5432.64,1338.78 Z "
     id="path90" />
  <path
     stroke="none"
     fill="#000000"
     transform="matrix(0.0666667 0 0 0.0666667 0.0221544 -11.6)"
     d="M 5626.87,1226.64 L 5637.08,1232.53 L 5438.08,1347.42 L 5432.64,1344.67 L 5432.64,1338.78 L 5626.87,1226.64 Z "
     id="path92" />
  <path
     stroke="none"
     fill="#000000"
     transform="matrix(0.0666667 0 0 0.0666667 0.0221544 -11.6)"
     d="M 5626.87,1002.36 L 5631.98,999.413 L 5637.08,1002.8 L 5637.08,1232.53 L 5626.87,1226.64 L 5626.87,1002.36 Z "
     id="path94" />
  <path
     stroke="none"
     fill="#000000"
     transform="matrix(0.0666667 0 0 0.0666667 0.0221544 -11.6)"
     d="M 5512.02,936.048 L 5517.12,927.211 L 5631.59,993.302 L 5631.98,999.413 L 5626.87,1002.36 L 5512.02,936.048 Z "
     id="path96" />
  <path
     stroke="none"
     fill="#000000"
     transform="matrix(0.0666667 0 0 0.0666667 0.0221544 -11.6)"
     d="M 5238.41,1002.36 L 5233.3,999.413 L 5233.53,993.39 L 5347.41,927.644 L 5352.51,936.481 L 5238.41,1002.36 Z "
     id="path98" />
  <g
     aria-label="Nu"
     transform="matrix(0.0666667,0,0,0.0666667,384.91,51.5551)"
     style="font-style:normal;font-weight:normal;font-size:160px;font-family:Arial;fill:#cc79a7;stroke:none"
     id="text100">
    <path
       d="m 12.1875,0 v -114.53125 h 15.546875 l 60.15625,89.921875 V -114.53125 H 102.42188 V 0 H 86.875 L 26.71875,-90 V 0 Z"
       style="font-style:normal;font-weight:normal;font-size:160px;font-family:Arial;fill:#cc79a7;stroke:none"
       id="path1061"
       inkscape:connector-curvature="0" />
    <path
       d="m 180.54687,0 v -12.1875 q -9.6875,14.0625 -26.32812,14.0625 -7.34375,0 -13.75,-2.8125 -6.32813,-2.8125 -9.45313,-7.03125 -3.04687,-4.296875 -4.29687,-10.46875 -0.85937,-4.140625 -0.85937,-13.125 v -51.40625 h 14.06249 v 46.015625 q 0,11.015625 0.85938,14.84375 1.32812,5.546875 5.625,8.75 4.29687,3.125 10.625,3.125 6.32812,0 11.875,-3.203125 5.54687,-3.28125 7.8125,-8.828125 2.34375,-5.625 2.34375,-16.25 V -82.96875 H 193.125 V 0 Z"
       style="font-style:normal;font-weight:normal;font-size:160px;font-family:Arial;fill:#cc79a7;stroke:none"
       id="path1063"
       inkscape:connector-curvature="0" />
  </g>
  <path
     stroke="none"
     fill="#cc79a7"
     transform="matrix(0.0666667 0 0 0.0666667 0.0221544 -11.6)"
     d="M 5735.86,911.942 L 5759.67,953.183 L 5637.08,1002.8 L 5631.98,999.413 L 5631.59,993.302 L 5735.86,911.942 Z "
     id="path102" />
  <g
     aria-label="O"
     transform="matrix(0.0666667,0,0,0.0666667,384.643,82.2449)"
     style="font-style:normal;font-weight:normal;font-size:160px;font-family:Arial;fill:#000000;stroke:none"
     id="text104">
    <path
       d="m 7.734375,-55.78125 q 0,-28.515625 15.3125,-44.60938 15.3125,-16.17187 39.53125,-16.17187 15.859375,0 28.59375,7.57812 12.734375,7.57813 19.375005,21.17188 6.71875,13.515625 6.71875,30.703125 0,17.421875 -7.03125,31.171875 -7.03125,13.75 -19.92188,20.859375 -12.890625,7.03125 -27.8125,7.03125 -16.171875,0 -28.90625,-7.8125 -12.734375,-7.8125 -19.296875,-21.328125 -6.5625,-13.515625 -6.5625,-28.59375 z m 15.625,0.234375 q 0,20.703125 11.09375,32.65625 11.171875,11.875 27.96875,11.875 17.109375,0 28.125,-12.03125 11.093755,-12.03125 11.093755,-34.140625 0,-13.984375 -4.76563,-24.375 -4.6875,-10.46875 -13.828125,-16.171875 -9.0625,-5.781255 -20.390625,-5.781255 -16.09375,0 -27.734375,11.093755 -11.5625,11.015625 -11.5625,36.875 z"
       style="font-style:normal;font-weight:normal;font-size:160px;font-family:Arial;fill:#000000;stroke:none"
       id="path1066"
       inkscape:connector-curvature="0" />
  </g>
  <path
     stroke="none"
     fill="#000000"
     transform="matrix(0.0666667 0 0 0.0666667 0.0221544 -11.6)"
     d="M 5774.68,1284.48 L 5750.87,1325.73 L 5742.9,1319.13 L 5764.98,1280.87 L 5774.68,1284.48 Z "
     id="path106" />
  <path
     stroke="none"
     fill="#000000"
     transform="matrix(0.0666667 0 0 0.0666667 0.0221544 -11.6)"
     d="M 5726.89,1266.7 L 5711.57,1293.23 L 5703.59,1286.63 L 5717.19,1263.09 L 5726.89,1266.7 Z "
     id="path108" />
  <path
     stroke="none"
     fill="#000000"
     transform="matrix(0.0666667 0 0 0.0666667 0.0221544 -11.6)"
     d="M 5679.09,1248.91 L 5672.27,1260.73 L 5664.29,1254.14 L 5669.39,1245.3 L 5679.09,1248.91 Z "
     id="path110" />
  <g
     aria-label="O"
     transform="matrix(0.0666667,0,0,0.0666667,358.065,97.5897)"
     style="font-style:normal;font-weight:normal;font-size:160px;font-family:Arial;fill:#000000;stroke:none"
     id="text112">
    <path
       d="m 7.734375,-55.78125 q 0,-28.515625 15.3125,-44.60938 15.3125,-16.17187 39.53125,-16.17187 15.859375,0 28.59375,7.57812 12.734375,7.57813 19.375005,21.17188 6.71875,13.515625 6.71875,30.703125 0,17.421875 -7.03125,31.171875 -7.03125,13.75 -19.92188,20.859375 -12.890625,7.03125 -27.8125,7.03125 -16.171875,0 -28.90625,-7.8125 -12.734375,-7.8125 -19.296875,-21.328125 -6.5625,-13.515625 -6.5625,-28.59375 z m 15.625,0.234375 q 0,20.703125 11.09375,32.65625 11.171875,11.875 27.96875,11.875 17.109375,0 28.125,-12.03125 11.093755,-12.03125 11.093755,-34.140625 0,-13.984375 -4.76563,-24.375 -4.6875,-10.46875 -13.828125,-16.171875 -9.0625,-5.781255 -20.390625,-5.781255 -16.09375,0 -27.734375,11.093755 -11.5625,11.015625 -11.5625,36.875 z"
       style="font-style:normal;font-weight:normal;font-size:160px;font-family:Arial;fill:#000000;stroke:none"
       id="path1069"
       inkscape:connector-curvature="0" />
  </g>
  <path
     stroke="none"
     fill="#000000"
     transform="matrix(0.0666667 0 0 0.0666667 0.0221544 -11.6)"
     d="M 5456.45,1496.51 L 5408.83,1496.51 L 5427.2,1347.42 L 5432.64,1344.67 L 5438.08,1347.42 L 5456.45,1496.51 Z "
     id="path114" />
  <g
     aria-label="O"
     transform="matrix(0.0666667,0,0,0.0666667,331.487,82.2449)"
     style="font-style:normal;font-weight:normal;font-size:160px;font-family:Arial;fill:#000000;stroke:none"
     id="text116">
    <path
       d="m 7.734375,-55.78125 q 0,-28.515625 15.3125,-44.60938 15.3125,-16.17187 39.53125,-16.17187 15.859375,0 28.59375,7.57812 12.734375,7.57813 19.375005,21.17188 6.71875,13.515625 6.71875,30.703125 0,17.421875 -7.03125,31.171875 -7.03125,13.75 -19.92188,20.859375 -12.890625,7.03125 -27.8125,7.03125 -16.171875,0 -28.90625,-7.8125 -12.734375,-7.8125 -19.296875,-21.328125 -6.5625,-13.515625 -6.5625,-28.59375 z m 15.625,0.234375 q 0,20.703125 11.09375,32.65625 11.171875,11.875 27.96875,11.875 17.109375,0 28.125,-12.03125 11.093755,-12.03125 11.093755,-34.140625 0,-13.984375 -4.76563,-24.375 -4.6875,-10.46875 -13.828125,-16.171875 -9.0625,-5.781255 -20.390625,-5.781255 -16.09375,0 -27.734375,11.093755 -11.5625,11.015625 -11.5625,36.875 z"
       style="font-style:normal;font-weight:normal;font-size:160px;font-family:Arial;fill:#000000;stroke:none"
       id="path1072"
       inkscape:connector-curvature="0" />
  </g>
  <path
     stroke="none"
     fill="#000000"
     transform="matrix(0.0666667 0 0 0.0666667 0.0221544 -11.6)"
     d="M 5115.16,1325.29 L 5091.35,1284.05 L 5228.2,1226.25 L 5233.3,1229.59 L 5233.65,1235.68 L 5115.16,1325.29 Z "
     id="path118" />
  <path
     stroke="none"
     fill="#000000"
     transform="matrix(0.0666667 0 0 0.0666667 0.0221544 -11.6)"
     d="M 4633.18,888.968 L 4637.42,879.686 L 4804.78,956.146 L 4800.54,965.428 L 4633.18,888.968 Z "
     id="path120" />
  <path
     stroke="none"
     fill="#000000"
     transform="matrix(0.0666667 0 0 0.0666667 0.0221544 -11.6)"
     d="M 5016.66,902.388 L 5050.42,866.851 L 5233.53,993.39 L 5233.3,999.413 L 5228.2,1002.62 L 5016.66,902.388 Z "
     id="path122" />
  <path
     stroke="none"
     fill="#000000"
     transform="matrix(0.0666667 0 0 0.0666667 0.0221544 -11.6)"
     d="M 4943.47,952.6 L 4937.7,944.185 L 5050.42,866.851 L 5016.66,902.388 L 4943.47,952.6 Z "
     id="path124" />
  <path
     stroke="#000000"
     stroke-width="10"
     fill="none"
     transform="matrix(0.0666667 0 0 0.0666667 0.0221544 -11.6)"
     d="M 3824.01,455.847 L 3903.38,455.847 "
     id="path126" />
  <path
     stroke="#000000"
     stroke-width="10"
     fill="none"
     transform="matrix(0.0666667 0 0 0.0666667 0.0221544 -11.6)"
     d="M 3903.38,455.847 L 3903.38,1548.42 "
     id="path128" />
  <path
     stroke="#000000"
     stroke-width="10"
     fill="none"
     transform="matrix(0.0666667 0 0 0.0666667 0.0221544 -11.6)"
     d="M 3903.38,1548.42 L 3824.01,1548.42 "
     id="path130" />
  <path
     stroke="#000000"
     stroke-width="10"
     fill="none"
     transform="matrix(0.0666667 0 0 0.0666667 0.0221544 -11.6)"
     d="M 131.79,1548.42 L 52.4222,1548.42 "
     id="path132" />
  <path
     stroke="#000000"
     stroke-width="10"
     fill="none"
     transform="matrix(0.0666667 0 0 0.0666667 0.0221544 -11.6)"
     d="M 52.4222,1548.42 L 52.4222,455.847 "
     id="path134" />
  <path
     stroke="#000000"
     stroke-width="10"
     fill="none"
     transform="matrix(0.0666667 0 0 0.0666667 0.0221544 -11.6)"
     d="M 52.4222,455.847 L 131.79,455.847 "
     id="path136" />
  <path
     stroke="none"
     fill="#000000"
     transform="matrix(0.0666667 0 0 0.0666667 0.0221544 -11.6)"
     d="M 4331.94,1099.57 L 4023.56,1099.57 L 4023.56,1089.57 L 4331.94,1089.57 Z "
     id="path138" />
  <path
     stroke="none"
     fill="#000000"
     transform="matrix(0.0666667 0 0 0.0666667 0.0221544 -11.6)"
     d="M 4420.23,1094.57 C 4420.23,1094.57 4318.18,1121.08 4318.18,1121.08 C 4318.18,1121.08 4330.94,1106.17 4330.94,1094.57 C 4330.94,1082.53 4318.18,1067.06 4318.18,1067.06 C 4318.18,1067.06 4420.23,1094.57 4420.23,1094.57 C 4420.23,1094.57 4420.23,1094.57 4420.23,1094.57 "
     id="path140" />
  <path
     stroke="#000000"
     stroke-width="1"
     fill="none"
     transform="matrix(0.0666667 0 0 0.0666667 0.0221544 -11.6)"
     d="M 4420.23,1094.57 C 4420.23,1094.57 4318.18,1121.08 4318.18,1121.08 C 4318.18,1121.08 4330.94,1106.17 4330.94,1094.57 C 4330.94,1082.53 4318.18,1067.06 4318.18,1067.06 C 4318.18,1067.06 4420.23,1094.57 4420.23,1094.57 C 4420.23,1094.57 4420.23,1094.57 4420.23,1094.57 "
     id="path142" />
  <path
     stroke="none"
     fill="#000000"
     transform="matrix(0.0666667 0 0 0.0666667 0.0221544 -11.6)"
     d="M 4476.83,1147.19 L 4168.45,1147.19 L 4168.45,1137.19 L 4476.83,1137.19 Z "
     id="path144" />
  <path
     stroke="none"
     fill="#000000"
     transform="matrix(0.0666667 0 0 0.0666667 0.0221544 -11.6)"
     d="M 4565.11,1142.19 C 4565.11,1142.19 4463.07,1168.7 4463.07,1168.7 C 4463.07,1168.7 4475.83,1153.79 4475.83,1142.19 C 4475.83,1130.16 4463.07,1114.68 4463.07,1114.68 C 4463.07,1114.68 4565.11,1142.19 4565.11,1142.19 C 4565.11,1142.19 4565.11,1142.19 4565.11,1142.19 "
     id="path146" />
  <path
     stroke="#000000"
     stroke-width="1"
     fill="none"
     transform="matrix(0.0666667 0 0 0.0666667 0.0221544 -11.6)"
     d="M 4565.11,1142.19 C 4565.11,1142.19 4463.07,1168.7 4463.07,1168.7 C 4463.07,1168.7 4475.83,1153.79 4475.83,1142.19 C 4475.83,1130.16 4463.07,1114.68 4463.07,1114.68 C 4463.07,1114.68 4565.11,1142.19 4565.11,1142.19 C 4565.11,1142.19 4565.11,1142.19 4565.11,1142.19 "
     id="path148" />
  <path
     stroke="none"
     fill="#000000"
     transform="matrix(0.0666667 0 0 0.0666667 0.0221544 -11.6)"
     d="M 3781.02,1153.31 L 3783.67,1163.17 L 3638.8,1201.99 L 3636.16,1192.13 L 3781.02,1153.31 Z "
     id="path150" />
  <path
     stroke="none"
     fill="#000000"
     transform="matrix(0.0666667 0 0 0.0666667 0.0221544 -11.6)"
     d="M 2265.69,1384.18 L 2258.47,1376.96 L 2359.01,1276.43 L 2366.23,1283.64 L 2265.69,1384.18 Z "
     id="path152" />
  <path
     stroke="none"
     fill="#000000"
     transform="matrix(0.0666667 0 0 0.0666667 0.0221544 -11.6)"
     d="M 2095.71,1015.05 L 2102.93,1007.84 L 2209.64,1114.54 L 2202.42,1121.76 L 2095.71,1015.05 Z "
     id="path154" />
  <g
     aria-label="O"
     transform="matrix(0.0666667,0,0,0.0666667,78.8983,43.6994)"
     style="font-style:normal;font-weight:normal;font-size:160px;font-family:Arial;fill:#000000;stroke:none"
     id="text156">
    <path
       d="m 7.734375,-55.78125 q 0,-28.515625 15.3125,-44.60938 15.3125,-16.17187 39.53125,-16.17187 15.859375,0 28.59375,7.57812 12.734375,7.57813 19.375005,21.17188 6.71875,13.515625 6.71875,30.703125 0,17.421875 -7.03125,31.171875 -7.03125,13.75 -19.92188,20.859375 -12.890625,7.03125 -27.8125,7.03125 -16.171875,0 -28.90625,-7.8125 -12.734375,-7.8125 -19.296875,-21.328125 -6.5625,-13.515625 -6.5625,-28.59375 z m 15.625,0.234375 q 0,20.703125 11.09375,32.65625 11.171875,11.875 27.96875,11.875 17.109375,0 28.125,-12.03125 11.093755,-12.03125 11.093755,-34.140625 0,-13.984375 -4.76563,-24.375 -4.6875,-10.46875 -13.828125,-16.171875 -9.0625,-5.781255 -20.390625,-5.781255 -16.09375,0 -27.734375,11.093755 -11.5625,11.015625 -11.5625,36.875 z"
       style="font-style:normal;font-weight:normal;font-size:160px;font-family:Arial;fill:#000000;stroke:none"
       id="path1075"
       inkscape:connector-curvature="0" />
  </g>
  <g
     aria-label="O"
     transform="matrix(0.0666667,0,0,0.0666667,27.4869,40.5276)"
     style="font-style:normal;font-weight:normal;font-size:160px;font-family:Arial;fill:#000000;stroke:none"
     id="text158">
    <path
       d="m 7.734375,-55.78125 q 0,-28.515625 15.3125,-44.60938 15.3125,-16.17187 39.53125,-16.17187 15.859375,0 28.59375,7.57812 12.734375,7.57813 19.375005,21.17188 6.71875,13.515625 6.71875,30.703125 0,17.421875 -7.03125,31.171875 -7.03125,13.75 -19.92188,20.859375 -12.890625,7.03125 -27.8125,7.03125 -16.171875,0 -28.90625,-7.8125 -12.734375,-7.8125 -19.296875,-21.328125 -6.5625,-13.515625 -6.5625,-28.59375 z m 15.625,0.234375 q 0,20.703125 11.09375,32.65625 11.171875,11.875 27.96875,11.875 17.109375,0 28.125,-12.03125 11.093755,-12.03125 11.093755,-34.140625 0,-13.984375 -4.76563,-24.375 -4.6875,-10.46875 -13.828125,-16.171875 -9.0625,-5.781255 -20.390625,-5.781255 -16.09375,0 -27.734375,11.093755 -11.5625,11.015625 -11.5625,36.875 z"
       style="font-style:normal;font-weight:normal;font-size:160px;font-family:Arial;fill:#000000;stroke:none"
       id="path1078"
       inkscape:connector-curvature="0" />
  </g>
  <g
     aria-label="O"
     transform="matrix(0.0666667,0,0,0.0666667,19.5747,82.0615)"
     style="font-style:normal;font-weight:normal;font-size:160px;font-family:Arial;fill:#000000;stroke:none"
     id="text160">
    <path
       d="m 7.734375,-55.78125 q 0,-28.515625 15.3125,-44.60938 15.3125,-16.17187 39.53125,-16.17187 15.859375,0 28.59375,7.57812 12.734375,7.57813 19.375005,21.17188 6.71875,13.515625 6.71875,30.703125 0,17.421875 -7.03125,31.171875 -7.03125,13.75 -19.92188,20.859375 -12.890625,7.03125 -27.8125,7.03125 -16.171875,0 -28.90625,-7.8125 -12.734375,-7.8125 -19.296875,-21.328125 -6.5625,-13.515625 -6.5625,-28.59375 z m 15.625,0.234375 q 0,20.703125 11.09375,32.65625 11.171875,11.875 27.96875,11.875 17.109375,0 28.125,-12.03125 11.093755,-12.03125 11.093755,-34.140625 0,-13.984375 -4.76563,-24.375 -4.6875,-10.46875 -13.828125,-16.171875 -9.0625,-5.781255 -20.390625,-5.781255 -16.09375,0 -27.734375,11.093755 -11.5625,11.015625 -11.5625,36.875 z"
       style="font-style:normal;font-weight:normal;font-size:160px;font-family:Arial;fill:#000000;stroke:none"
       id="path1081"
       inkscape:connector-curvature="0" />
  </g>
  <g
     aria-label="O"
     transform="matrix(0.0666667,0,0,0.0666667,320.863,58.8436)"
     style="font-style:normal;font-weight:normal;font-size:160px;font-family:Arial;fill:#000000;stroke:none"
     id="text162">
    <path
       d="m 7.734375,-55.78125 q 0,-28.515625 15.3125,-44.60938 15.3125,-16.17187 39.53125,-16.17187 15.859375,0 28.59375,7.57812 12.734375,7.57813 19.375005,21.17188 6.71875,13.515625 6.71875,30.703125 0,17.421875 -7.03125,31.171875 -7.03125,13.75 -19.92188,20.859375 -12.890625,7.03125 -27.8125,7.03125 -16.171875,0 -28.90625,-7.8125 -12.734375,-7.8125 -19.296875,-21.328125 -6.5625,-13.515625 -6.5625,-28.59375 z m 15.625,0.234375 q 0,20.703125 11.09375,32.65625 11.171875,11.875 27.96875,11.875 17.109375,0 28.125,-12.03125 11.093755,-12.03125 11.093755,-34.140625 0,-13.984375 -4.76563,-24.375 -4.6875,-10.46875 -13.828125,-16.171875 -9.0625,-5.781255 -20.390625,-5.781255 -16.09375,0 -27.734375,11.093755 -11.5625,11.015625 -11.5625,36.875 z"
       style="font-style:normal;font-weight:normal;font-size:160px;font-family:Arial;fill:#000000;stroke:none"
       id="path1084"
       inkscape:connector-curvature="0" />
  </g>
  <path
     stroke="none"
     fill="#000000"
     transform="matrix(0.0666667 0 0 0.0666667 0.0221544 -11.6)"
     d="M 4832.08,1234.01 L 4837.18,1225.17 L 4967.99,1300.69 L 4962.88,1309.52 L 4832.08,1234.01 Z "
     id="path164" />
  <path
     stroke="none"
     fill="#000000"
     transform="matrix(0.0666667 0 0 0.0666667 0.0221544 -11.6)"
     d="M 5634.53,1685.51 L 5629.43,1694.35 L 5505.15,1622.6 L 5510.25,1613.76 L 5634.53,1685.51 Z "
     id="path166" />
  <path
     stroke="none"
     fill="#000000"
     transform="matrix(0.0666667 0 0 0.0666667 0.0221544 -11.6)"
     d="M 6028.1,1225.17 L 6033.2,1234.01 L 5903.15,1309.09 L 5898.05,1300.25 L 6028.1,1225.17 Z "
     id="path168" />
  <g
     aria-label="Nu"
     transform="matrix(0.0666667,0,0,0.0666667,274.189,52.9)"
     style="font-style:normal;font-weight:normal;font-size:160px;font-family:Arial;fill:#cc79a7;stroke:none"
     id="text170">
    <path
       d="m 12.1875,0 v -114.53125 h 15.546875 l 60.15625,89.921875 V -114.53125 H 102.42188 V 0 H 86.875 L 26.71875,-90 V 0 Z"
       style="font-style:normal;font-weight:normal;font-size:160px;font-family:Arial;fill:#cc79a7;stroke:none"
       id="path1087"
       inkscape:connector-curvature="0" />
    <path
       d="m 180.54687,0 v -12.1875 q -9.6875,14.0625 -26.32812,14.0625 -7.34375,0 -13.75,-2.8125 -6.32813,-2.8125 -9.45313,-7.03125 -3.04687,-4.296875 -4.29687,-10.46875 -0.85937,-4.140625 -0.85937,-13.125 v -51.40625 h 14.06249 v 46.015625 q 0,11.015625 0.85938,14.84375 1.32812,5.546875 5.625,8.75 4.29687,3.125 10.625,3.125 6.32812,0 11.875,-3.203125 5.54687,-3.28125 7.8125,-8.828125 2.34375,-5.625 2.34375,-16.25 V -82.96875 H 193.125 V 0 Z"
       style="font-style:normal;font-weight:normal;font-size:160px;font-family:Arial;fill:#cc79a7;stroke:none"
       id="path1089"
       inkscape:connector-curvature="0" />
  </g>
  <path
     stroke="#cc79a7"
     stroke-width="8"
     fill="none"
     transform="matrix(0.0666667 0 0 0.0666667 0.0221544 -11.6)"
     d="M 4302.59,802.167 A 57.0818,57.0818 0 1 0 4416.75,802.167A 57.0818,57.0818 0 1 0 4302.59,802.167Z "
     id="path172" />
  <path
     stroke="none"
     fill="#cc79a7"
     transform="matrix(0.0666667 0 0 0.0666667 0.0221544 -11.6)"
     d="M 4328.23,798.5 L 4391.77,798.5 L 4391.77,806.5 L 4328.23,806.5 Z "
     id="path174" />
  <path
     stroke="none"
     fill="#e69f00"
     transform="matrix(0.0666667 0 0 0.0666667 0.0221544 -11.6)"
     d="M 1465.43,1268.14 L 1465.43,1665.64 L 1455.43,1665.64 L 1455.43,1268.14 Z "
     id="path176" />
  <path
     stroke="none"
     fill="#e69f00"
     transform="matrix(0.0666667 0 0 0.0666667 0.0221544 -11.6)"
     d="M 1460.43,1660.64 L 2991.25,1660.64 L 2991.25,1670.64 L 1460.43,1670.64 Z "
     id="path178" />
  <path
     stroke="#cc79a7"
     stroke-width="8"
     fill="none"
     transform="matrix(0.0666667 0 0 0.0666667 0.0221544 -11.6)"
     d="M 748.665,520.948 A 57.0818,57.0818 0 1 0 862.828,520.948A 57.0818,57.0818 0 1 0 748.665,520.948Z "
     id="path188" />
  <path
     stroke="none"
     fill="#cc79a7"
     transform="matrix(0.0666667 0 0 0.0666667 0.0221544 -11.6)"
     d="M 774.311,517.281 L 837.849,517.281 L 837.849,525.281 L 774.311,525.281 Z "
     id="path190" />
  <g
     aria-label="Nu"
     transform="matrix(0.0666667,0,0,0.0666667,38.6891,34.2074)"
     style="font-style:normal;font-weight:normal;font-size:160px;font-family:Arial;fill:#cc79a7;stroke:none"
     id="text192">
    <path
       d="m 12.1875,0 v -114.53125 h 15.546875 l 60.15625,89.921875 V -114.53125 H 102.42188 V 0 H 86.875 L 26.71875,-90 V 0 Z"
       style="font-style:normal;font-weight:normal;font-size:160px;font-family:Arial;fill:#cc79a7;stroke:none"
       id="path1128"
       inkscape:connector-curvature="0" />
    <path
       d="m 180.54687,0 v -12.1875 q -9.6875,14.0625 -26.32812,14.0625 -7.34375,0 -13.75,-2.8125 -6.32813,-2.8125 -9.45313,-7.03125 -3.04687,-4.296875 -4.29687,-10.46875 -0.85937,-4.140625 -0.85937,-13.125 v -51.40625 h 14.06249 v 46.015625 q 0,11.015625 0.85938,14.84375 1.32812,5.546875 5.625,8.75 4.29687,3.125 10.625,3.125 6.32812,0 11.875,-3.203125 5.54687,-3.28125 7.8125,-8.828125 2.34375,-5.625 2.34375,-16.25 V -82.96875 H 193.125 V 0 Z"
       style="font-style:normal;font-weight:normal;font-size:160px;font-family:Arial;fill:#cc79a7;stroke:none"
       id="path1130"
       inkscape:connector-curvature="0" />
  </g>
  <path
     stroke="#cc79a7"
     stroke-width="10"
     fill="none"
     transform="matrix(0.0666667 0 0 0.0666667 0.0221544 -11.6)"
     d="M 626.08,731.281 C 626.08,731.281 656.693,731.281 656.693,731.281 C 656.693,731.281 656.693,895.054 656.693,895.054 C 656.693,895.054 687.307,895.054 687.307,895.054 C 687.307,895.054 626.08,956.281 626.08,956.281 C 626.08,956.281 564.853,895.054 564.853,895.054 C 564.853,895.054 595.467,895.054 595.467,895.054 C 595.467,895.054 595.467,731.281 595.467,731.281 C 595.467,731.281 626.08,731.281 626.08,731.281 "
     id="path194" />
  <text
     x="0"
     y="0"
     stroke="none"
     fill="#e69f00"
     transform="matrix(0.0666667 0 0 0.0666667 306.036 19.2965)"
     font-style="normal"
     font-weight="normal"
     font-size="160px"
     font-family="Arial"
     id="text196">
preferowane</text>
  <path
     stroke="none"
     fill="#e69f00"
     transform="matrix(0.0666667 0 0 0.0666667 0.0221544 -11.6)"
     d="M 5602.65,800.33 A 26.9302,26.9302 0 1 0 5656.51,800.33A 26.9302,26.9302 0 1 0 5602.65,800.33Z "
     id="path198" />
  <path
     stroke="none"
     fill="#e69f00"
     transform="matrix(0.0666667 0 0 0.0666667 0.0221544 -11.6)"
     d="M 5624.58,796.25 L 5624.58,518.75 L 5634.58,518.75 L 5634.58,796.25 Z "
     id="path200" />
  <path
     stroke="none"
     fill="#e69f00"
     transform="matrix(0.0666667 0 0 0.0666667 0.0221544 -11.6)"
     d="M 5629.58,523.75 L 4574.92,523.75 L 4574.92,513.75 L 5629.58,513.75 Z "
     id="path202" />
  <path
     stroke="none"
     fill="#000000"
     transform="matrix(0.0666667 0 0 0.0666667 0.0221544 -11.6)"
     d="M 1271.74,1374.08 L 1264.53,1381.3 L 1164.99,1281.76 L 1172.21,1274.54 L 1271.74,1374.08 Z "
     id="path216" />
  <g
     aria-label="O"
     transform="matrix(0.0666667,0,0,0.0666667,197.139,40.7197)"
     style="font-style:normal;font-weight:normal;font-size:160px;font-family:Arial;fill:#000000;stroke:none"
     id="text218">
    <path
       d="m 7.734375,-55.78125 q 0,-28.515625 15.3125,-44.60938 15.3125,-16.17187 39.53125,-16.17187 15.859375,0 28.59375,7.57812 12.734375,7.57813 19.375005,21.17188 6.71875,13.515625 6.71875,30.703125 0,17.421875 -7.03125,31.171875 -7.03125,13.75 -19.92188,20.859375 -12.890625,7.03125 -27.8125,7.03125 -16.171875,0 -28.90625,-7.8125 -12.734375,-7.8125 -19.296875,-21.328125 -6.5625,-13.515625 -6.5625,-28.59375 z m 15.625,0.234375 q 0,20.703125 11.09375,32.65625 11.171875,11.875 27.96875,11.875 17.109375,0 28.125,-12.03125 11.093755,-12.03125 11.093755,-34.140625 0,-13.984375 -4.76563,-24.375 -4.6875,-10.46875 -13.828125,-16.171875 -9.0625,-5.781255 -20.390625,-5.781255 -16.09375,0 -27.734375,11.093755 -11.5625,11.015625 -11.5625,36.875 z"
       style="font-style:normal;font-weight:normal;font-size:160px;font-family:Arial;fill:#000000;stroke:none"
       id="path1151"
       inkscape:connector-curvature="0" />
  </g>
  <path
     stroke="none"
     fill="#000000"
     transform="matrix(0.0666667 0 0 0.0666667 0.0221544 -11.6)"
     d="M 3011.03,813.251 L 3021.23,813.543 L 3017.34,949.593 L 3012.17,951.874 L 3007.13,949.53 L 3011.03,813.251 Z "
     id="path220" />
  <path
     stroke="none"
     fill="#000000"
     transform="matrix(0.0666667 0 0 0.0666667 0.0221544 -11.6)"
     d="M 3218.86,607.959 L 3223.71,616.938 L 3091.51,688.309 L 3086.66,679.33 L 3218.86,607.959 Z "
     id="path222" />
  <text
     x="199.94414"
     y="95.19828"
     font-style="normal"
     font-weight="normal"
     font-size="160px"
     id="text86-3"
     style="font-style:normal;font-weight:normal;font-size:10.66667175px;font-family:Arial;text-align:end;text-anchor:end;fill:#e69f00;stroke:none;stroke-width:0.0666667">
    <tspan
       style="text-align:end;text-anchor:end;stroke-width:0.0666667"
       id="tspan1165">$\Delta E=\SI{1.5}{\kcalpm}$</tspan>
  </text>
  <text
     xml:space="preserve"
     style="font-style:normal;font-weight:normal;font-size:10.66666698px;line-height:1.25;font-family:sans-serif;text-align:start;letter-spacing:0px;word-spacing:0px;text-anchor:start;fill:#e69f00;fill-opacity:1;stroke:none"
     x="37.456535"
     y="96.004166"
     id="text1159"><tspan
       sodipodi:role="line"
       id="tspan1157"
       x="37.456535"
       y="96.004166">\cycloconf{3}{H}{4}</tspan></text>
  <text
     xml:space="preserve"
     style="font-style:normal;font-weight:normal;font-size:10.66666698px;line-height:1.25;font-family:sans-serif;text-align:start;letter-spacing:0px;word-spacing:0px;text-anchor:start;fill:#e69f00;fill-opacity:1;stroke:none"
     x="222.95633"
     y="96.004166"
     id="text1163"><tspan
       sodipodi:role="line"
       id="tspan1161"
       x="222.95633"
       y="96.004166">\cycloconf{4}{H}{3}</tspan></text>
</svg>
