<?xml version="1.0" encoding="UTF-8" standalone="no"?>
<svg
   xmlns:dc="http://purl.org/dc/elements/1.1/"
   xmlns:cc="http://creativecommons.org/ns#"
   xmlns:rdf="http://www.w3.org/1999/02/22-rdf-syntax-ns#"
   xmlns:svg="http://www.w3.org/2000/svg"
   xmlns="http://www.w3.org/2000/svg"
   xmlns:sodipodi="http://sodipodi.sourceforge.net/DTD/sodipodi-0.dtd"
   xmlns:inkscape="http://www.inkscape.org/namespaces/inkscape"
   width="406px"
   height="110px"
   viewBox="0 0 406 110"
   style="background-color: #ffffff00"
   version="1.1"
   id="svg232"
   sodipodi:docname="gluco-imine-confs.svg"
   inkscape:version="0.92.4 (5da689c313, 2019-01-14)">
  <metadata
     id="metadata238">
    <rdf:RDF>
      <cc:Work
         rdf:about="">
        <dc:format>image/svg+xml</dc:format>
        <dc:type
           rdf:resource="http://purl.org/dc/dcmitype/StillImage" />
      </cc:Work>
    </rdf:RDF>
  </metadata>
  <defs
     id="defs236" />
  <sodipodi:namedview
     pagecolor="#ffffff"
     bordercolor="#666666"
     borderopacity="1"
     objecttolerance="10"
     gridtolerance="10"
     guidetolerance="10"
     inkscape:pageopacity="0"
     inkscape:pageshadow="2"
     inkscape:window-width="1920"
     inkscape:window-height="1017"
     id="namedview234"
     showgrid="false"
     inkscape:zoom="6.7586207"
     inkscape:cx="193.8528"
     inkscape:cy="49.7877"
     inkscape:window-x="-8"
     inkscape:window-y="-8"
     inkscape:window-maximized="1"
     inkscape:current-layer="svg232" />
  <g
     aria-label="O"
     transform="matrix(0.0666667,0,0,0.0666667,147.101,70.147)"
     style="font-style:normal;font-weight:normal;font-size:160px;font-family:Arial;fill:#000000;stroke:none"
     id="text2">
    <path
       d="m 7.734375,-55.78125 q 0,-28.515625 15.3125,-44.60938 15.3125,-16.17187 39.53125,-16.17187 15.859375,0 28.59375,7.57812 12.734375,7.57813 19.375005,21.17188 6.71875,13.515625 6.71875,30.703125 0,17.421875 -7.03125,31.171875 -7.03125,13.75 -19.92188,20.859375 -12.890625,7.03125 -27.8125,7.03125 -16.171875,0 -28.90625,-7.8125 -12.734375,-7.8125 -19.296875,-21.328125 -6.5625,-13.515625 -6.5625,-28.59375 z m 15.625,0.234375 q 0,20.703125 11.09375,32.65625 11.171875,11.875 27.96875,11.875 17.109375,0 28.125,-12.03125 11.093755,-12.03125 11.093755,-34.140625 0,-13.984375 -4.76563,-24.375 -4.6875,-10.46875 -13.828125,-16.171875 -9.0625,-5.781255 -20.390625,-5.781255 -16.09375,0 -27.734375,11.093755 -11.5625,11.015625 -11.5625,36.875 z"
       style="font-style:normal;font-weight:normal;font-size:160px;font-family:Arial;fill:#000000;stroke:none"
       id="path1045"
       inkscape:connector-curvature="0" />
  </g>
  <path
     stroke="none"
     fill="#000000"
     transform="matrix(0.0666667 0 0 0.0666667 0.444411 -12.3333)"
     d="M 3010.83,946.233 L 3012.17,951.874 L 3011.68,959.149 L 2889.72,1067.92 L 2874.39,1067.92 L 3010.83,946.233 L 3010.83,946.233 Z "
     id="path4" />
  <path
     stroke="none"
     fill="#000000"
     transform="matrix(0.0666667 0 0 0.0666667 0.444411 -12.3333)"
     d="M 2648.51,1283.03 L 2647.17,1277.39 L 2647.66,1270.11 L 2769.62,1161.35 L 2784.95,1161.35 L 2648.51,1283.03 L 2648.51,1283.03 Z "
     id="path6" />
  <g
     aria-label="N"
     transform="matrix(0.0666667,0,0,0.0666667,192.91,66.1754)"
     style="font-style:normal;font-weight:normal;font-size:160px;font-family:Arial;fill:#000000;stroke:none"
     id="text8">
    <path
       d="m 12.1875,0 v -114.53125 h 15.546875 l 60.15625,89.921875 V -114.53125 H 102.42188 V 0 H 86.875 L 26.71875,-90 V 0 Z"
       style="font-style:normal;font-weight:normal;font-size:160px;font-family:Arial;fill:#000000;stroke:none"
       id="path1048"
       inkscape:connector-curvature="0" />
  </g>
  <path
     stroke="none"
     fill="#000000"
     transform="matrix(0.0666667 0 0 0.0666667 0.444411 -12.3333)"
     d="M 2873.98,1088.81 L 2873.98,1099.02 L 2714.58,1099.02 L 2714.58,1088.81 L 2873.98,1088.81 Z "
     id="path10" />
  <path
     stroke="none"
     fill="#000000"
     transform="matrix(0.0666667 0 0 0.0666667 0.444411 -12.3333)"
     d="M 2873.98,1130.24 L 2873.98,1140.45 L 2714.58,1140.45 L 2714.58,1130.24 L 2873.98,1130.24 Z "
     id="path12" />
  <path
     stroke="none"
     fill="#000000"
     transform="matrix(0.0666667 0 0 0.0666667 0.444411 -12.3333)"
     d="M 3130.3,1098.76 L 3174.93,1114.63 L 3174.93,1130.51 L 3014.98,1130.51 L 3014.98,1098.76 L 3130.3,1098.76 Z "
     id="path14" />
  <path
     stroke="none"
     fill="#000000"
     transform="matrix(0.0666667 0 0 0.0666667 0.444411 -12.3333)"
     d="M 2529.04,1130.51 L 2484.41,1114.63 L 2523.94,1098.76 L 2714.58,1098.76 L 2714.58,1130.51 L 2529.04,1130.51 Z "
     id="path16" />
  <path
     stroke="none"
     fill="#000000"
     transform="matrix(0.0666667 0 0 0.0666667 0.444411 -12.3333)"
     d="M 3011.68,959.149 L 3012.17,951.874 L 3032.72,962.663 L 3198.07,1103.15 L 3174.93,1114.63 L 3130.3,1098.76 L 3011.68,959.149 Z "
     id="path18" />
  <path
     stroke="none"
     fill="#000000"
     transform="matrix(0.0666667 0 0 0.0666667 0.444411 -12.3333)"
     d="M 2647.66,1270.11 L 2647.17,1277.39 L 2626.61,1266.6 L 2461.27,1126.11 L 2484.41,1114.63 L 2529.04,1130.51 L 2647.66,1270.11 Z "
     id="path20" />
  <path
     stroke="none"
     fill="#000000"
     transform="matrix(0.0666667 0 0 0.0666667 0.444411 -12.3333)"
     d="M 518.537,956.268 L 518.045,948.993 L 523.082,946.649 L 655.831,1065.03 L 640.499,1065.03 L 518.537,956.268 L 518.537,956.268 Z "
     id="path22" />
  <path
     stroke="none"
     fill="#000000"
     transform="matrix(0.0666667 0 0 0.0666667 0.444411 -12.3333)"
     d="M 882.558,1267.23 L 883.05,1274.51 L 877.948,1276.79 L 745.265,1158.47 L 760.596,1158.47 L 882.558,1267.23 L 882.558,1267.23 Z "
     id="path24" />
  <g
     aria-label="N"
     transform="matrix(0.0666667,0,0,0.0666667,50.9684,65.9833)"
     style="font-style:normal;font-weight:normal;font-size:160px;font-family:Arial;fill:#000000;stroke:none"
     id="text26">
    <path
       d="m 12.1875,0 v -114.53125 h 15.546875 l 60.15625,89.921875 V -114.53125 H 102.42188 V 0 H 86.875 L 26.71875,-90 V 0 Z"
       style="font-style:normal;font-weight:normal;font-size:160px;font-family:Arial;fill:#000000;stroke:none"
       id="path1051"
       inkscape:connector-curvature="0" />
  </g>
  <path
     stroke="none"
     fill="#000000"
     transform="matrix(0.0666667 0 0 0.0666667 0.444411 -12.3333)"
     d="M 585.461,1137.57 L 585.461,1127.36 L 744.861,1127.36 L 744.861,1137.57 L 585.461,1137.57 Z "
     id="path28" />
  <path
     stroke="none"
     fill="#000000"
     transform="matrix(0.0666667 0 0 0.0666667 0.444411 -12.3333)"
     d="M 585.461,1096.14 L 585.461,1085.93 L 744.861,1085.93 L 744.861,1096.14 L 585.461,1096.14 Z "
     id="path30" />
  <path
     stroke="none"
     fill="#000000"
     transform="matrix(0.0666667 0 0 0.0666667 0.444411 -12.3333)"
     d="M 360.39,1127.62 L 355.288,1111.75 L 399.918,1095.88 L 585.461,1095.88 L 585.461,1127.62 L 360.39,1127.62 Z "
     id="path32" />
  <path
     stroke="none"
     fill="#000000"
     transform="matrix(0.0666667 0 0 0.0666667 0.444411 -12.3333)"
     d="M 1040.7,1095.88 L 1045.81,1111.75 L 1001.18,1127.62 L 885.86,1127.62 L 885.86,1095.88 L 1040.7,1095.88 Z "
     id="path34" />
  <path
     stroke="none"
     fill="#000000"
     transform="matrix(0.0666667 0 0 0.0666667 0.444411 -12.3333)"
     d="M 512.875,946.712 L 518.045,948.993 L 518.537,956.268 L 399.918,1095.88 L 355.288,1111.75 L 350.186,1084.94 L 512.875,946.712 Z "
     id="path36" />
  <path
     stroke="none"
     fill="#000000"
     transform="matrix(0.0666667 0 0 0.0666667 0.444411 -12.3333)"
     d="M 888.152,1276.84 L 883.05,1274.51 L 882.558,1267.23 L 1001.18,1127.62 L 1045.81,1111.75 L 1050.91,1138.56 L 888.152,1276.84 Z "
     id="path38" />
  <g
     aria-label="O"
     transform="matrix(0.0666667,0,0,0.0666667,211.929,59.2965)"
     style="font-style:normal;font-weight:normal;font-size:160px;font-family:Arial;fill:#000000;stroke:none"
     id="text40">
    <path
       d="m 7.734375,-55.78125 q 0,-28.515625 15.3125,-44.60938 15.3125,-16.17187 39.53125,-16.17187 15.859375,0 28.59375,7.57812 12.734375,7.57813 19.375005,21.17188 6.71875,13.515625 6.71875,30.703125 0,17.421875 -7.03125,31.171875 -7.03125,13.75 -19.92188,20.859375 -12.890625,7.03125 -27.8125,7.03125 -16.171875,0 -28.90625,-7.8125 -12.734375,-7.8125 -19.296875,-21.328125 -6.5625,-13.515625 -6.5625,-28.59375 z m 15.625,0.234375 q 0,20.703125 11.09375,32.65625 11.171875,11.875 27.96875,11.875 17.109375,0 28.125,-12.03125 11.093755,-12.03125 11.093755,-34.140625 0,-13.984375 -4.76563,-24.375 -4.6875,-10.46875 -13.828125,-16.171875 -9.0625,-5.781255 -20.390625,-5.781255 -16.09375,0 -27.734375,11.093755 -11.5625,11.015625 -11.5625,36.875 z"
       style="font-style:normal;font-weight:normal;font-size:160px;font-family:Arial;fill:#000000;stroke:none"
       id="path1054"
       inkscape:connector-curvature="0" />
  </g>
  <path
     stroke="none"
     fill="#000000"
     transform="matrix(0.0666667 0 0 0.0666667 0.444411 -12.3333)"
     d="M 3159.15,985.974 L 3156.51,995.831 L 3032.72,962.663 L 3012.17,951.874 L 3010.83,946.233 L 3159.15,985.974 Z "
     id="path42" />
  <g
     aria-label="O"
     transform="matrix(0.0666667,0,0,0.0666667,55.166,92.1787)"
     style="font-style:normal;font-weight:normal;font-size:160px;font-family:Arial;fill:#000000;stroke:none"
     id="text44">
    <path
       d="m 7.734375,-55.78125 q 0,-28.515625 15.3125,-44.60938 15.3125,-16.17187 39.53125,-16.17187 15.859375,0 28.59375,7.57812 12.734375,7.57813 19.375005,21.17188 6.71875,13.515625 6.71875,30.703125 0,17.421875 -7.03125,31.171875 -7.03125,13.75 -19.92188,20.859375 -12.890625,7.03125 -27.8125,7.03125 -16.171875,0 -28.90625,-7.8125 -12.734375,-7.8125 -19.296875,-21.328125 -6.5625,-13.515625 -6.5625,-28.59375 z m 15.625,0.234375 q 0,20.703125 11.09375,32.65625 11.171875,11.875 27.96875,11.875 17.109375,0 28.125,-12.03125 11.093755,-12.03125 11.093755,-34.140625 0,-13.984375 -4.76563,-24.375 -4.6875,-10.46875 -13.828125,-16.171875 -9.0625,-5.781255 -20.390625,-5.781255 -16.09375,0 -27.734375,11.093755 -11.5625,11.015625 -11.5625,36.875 z"
       style="font-style:normal;font-weight:normal;font-size:160px;font-family:Arial;fill:#000000;stroke:none"
       id="path1057"
       inkscape:connector-curvature="0" />
  </g>
  <path
     stroke="none"
     fill="#000000"
     transform="matrix(0.0666667 0 0 0.0666667 0.444411 -12.3333)"
     d="M 888.152,1426.35 L 877.948,1426.35 L 877.948,1276.79 L 883.05,1274.51 L 888.152,1276.84 L 888.152,1426.35 Z "
     id="path46" />
  <path
     stroke="none"
     fill="#000000"
     transform="matrix(0.0666667 0 0 0.0666667 0.444411 -12.3333)"
     d="M 2340.65,1158.43 L 2338.01,1148.58 L 2523.94,1098.76 L 2484.41,1114.63 L 2461.27,1126.11 L 2340.65,1158.43 Z "
     id="path48" />
  <g
     aria-label="O"
     transform="matrix(0.0666667,0,0,0.0666667,157.952,73.0543)"
     style="font-style:normal;font-weight:normal;font-size:160px;font-family:Arial;fill:#000000;stroke:none"
     id="text50">
    <path
       d="m 7.734375,-55.78125 q 0,-28.515625 15.3125,-44.60938 15.3125,-16.17187 39.53125,-16.17187 15.859375,0 28.59375,7.57812 12.734375,7.57813 19.375005,21.17188 6.71875,13.515625 6.71875,30.703125 0,17.421875 -7.03125,31.171875 -7.03125,13.75 -19.92188,20.859375 -12.890625,7.03125 -27.8125,7.03125 -16.171875,0 -28.90625,-7.8125 -12.734375,-7.8125 -19.296875,-21.328125 -6.5625,-13.515625 -6.5625,-28.59375 z m 15.625,0.234375 q 0,20.703125 11.09375,32.65625 11.171875,11.875 27.96875,11.875 17.109375,0 28.125,-12.03125 11.093755,-12.03125 11.093755,-34.140625 0,-13.984375 -4.76563,-24.375 -4.6875,-10.46875 -13.828125,-16.171875 -9.0625,-5.781255 -20.390625,-5.781255 -16.09375,0 -27.734375,11.093755 -11.5625,11.015625 -11.5625,36.875 z"
       style="font-style:normal;font-weight:normal;font-size:160px;font-family:Arial;fill:#000000;stroke:none"
       id="path1060"
       inkscape:connector-curvature="0" />
  </g>
  <path
     stroke="none"
     fill="#000000"
     transform="matrix(0.0666667 0 0 0.0666667 0.444411 -12.3333)"
     d="M 2504.03,1244.32 L 2506.68,1234.46 L 2626.61,1266.6 L 2647.17,1277.39 L 2648.51,1283.03 L 2504.03,1244.32 Z "
     id="path52" />
  <path
     stroke="none"
     fill="#000000"
     transform="matrix(0.0666667 0 0 0.0666667 0.444411 -12.3333)"
     d="M 3398.78,1049.37 L 3395.73,1060.75 L 3135.4,1130.51 L 3174.93,1114.63 L 3198.07,1103.15 L 3398.78,1049.37 Z "
     id="path54" />
  <g
     aria-label="O"
     transform="matrix(0.0666667,0,0,0.0666667,233.63,73.0543)"
     style="font-style:normal;font-weight:normal;font-size:160px;font-family:Arial;fill:#000000;stroke:none"
     id="text56">
    <path
       d="m 7.734375,-55.78125 q 0,-28.515625 15.3125,-44.60938 15.3125,-16.17187 39.53125,-16.17187 15.859375,0 28.59375,7.57812 12.734375,7.57813 19.375005,21.17188 6.71875,13.515625 6.71875,30.703125 0,17.421875 -7.03125,31.171875 -7.03125,13.75 -19.92188,20.859375 -12.890625,7.03125 -27.8125,7.03125 -16.171875,0 -28.90625,-7.8125 -12.734375,-7.8125 -19.296875,-21.328125 -6.5625,-13.515625 -6.5625,-28.59375 z m 15.625,0.234375 q 0,20.703125 11.09375,32.65625 11.171875,11.875 27.96875,11.875 17.109375,0 28.125,-12.03125 11.093755,-12.03125 11.093755,-34.140625 0,-13.984375 -4.76563,-24.375 -4.6875,-10.46875 -13.828125,-16.171875 -9.0625,-5.781255 -20.390625,-5.781255 -16.09375,0 -27.734375,11.093755 -11.5625,11.015625 -11.5625,36.875 z"
       style="font-style:normal;font-weight:normal;font-size:160px;font-family:Arial;fill:#000000;stroke:none"
       id="path1063"
       inkscape:connector-curvature="0" />
  </g>
  <path
     stroke="none"
     fill="#000000"
     transform="matrix(0.0666667 0 0 0.0666667 0.444411 -12.3333)"
     d="M 3507.46,1158.04 L 3500.24,1165.26 L 3395.73,1060.75 L 3398.78,1049.37 L 3507.46,1158.04 Z "
     id="path58" />
  <path
     stroke="none"
     fill="#000000"
     transform="matrix(0.0666667 0 0 0.0666667 0.444411 -12.3333)"
     d="M 1040.7,878.631 L 1050.91,884.523 L 1050.91,1138.56 L 1045.81,1111.75 L 1040.7,1095.88 L 1040.7,878.631 Z "
     id="path60" />
  <path
     stroke="none"
     fill="#000000"
     transform="matrix(0.0666667 0 0 0.0666667 0.444411 -12.3333)"
     d="M 1447.03,877.158 L 1441.93,885.996 L 1317.48,814.146 L 1322.58,805.309 L 1447.03,877.158 Z "
     id="path62" />
  <path
     stroke="none"
     fill="#000000"
     transform="matrix(0.0666667 0 0 0.0666667 0.444411 -12.3333)"
     d="M 1168.35,804.938 L 1173.45,813.775 L 1050.91,884.523 L 1040.7,878.631 L 1168.35,804.938 Z "
     id="path64" />
  <path
     stroke="none"
     fill="#000000"
     transform="matrix(0.0666667 0 0 0.0666667 0.444411 -12.3333)"
     d="M 306.506,614.057 L 311.353,605.077 L 444.152,676.772 L 439.304,685.751 L 306.506,614.057 Z "
     id="path66" />
  <path
     stroke="none"
     fill="#000000"
     transform="matrix(0.0666667 0 0 0.0666667 0.444411 -12.3333)"
     d="M 508.988,810.662 L 519.188,810.37 L 523.082,946.649 L 518.045,948.993 L 512.875,946.712 L 508.988,810.662 Z "
     id="path68" />
  <path
     stroke="none"
     fill="#000000"
     transform="matrix(0.0666667 0 0 0.0666667 0.444411 -12.3333)"
     d="M 158.503,1461.43 L 153.401,1452.59 L 278.49,1380.37 L 283.593,1389.21 L 158.503,1461.43 Z "
     id="path70" />
  <path
     stroke="none"
     fill="#000000"
     transform="matrix(0.0666667 0 0 0.0666667 0.444411 -12.3333)"
     d="M 360.39,1263.59 L 350.186,1263.59 L 350.186,1084.94 L 355.288,1111.75 L 360.39,1127.62 L 360.39,1263.59 Z "
     id="path72" />
  <path
     stroke="none"
     fill="#000000"
     transform="matrix(0.0666667 0 0 0.0666667 0.444411 -12.3333)"
     d="M 1843.43,1104.32 L 1240.96,1104.32 L 1240.96,1094.32 L 1843.43,1094.32 Z "
     id="path74" />
  <path
     stroke="none"
     fill="#000000"
     transform="matrix(0.0666667 0 0 0.0666667 0.444411 -12.3333)"
     d="M 1529.74,1124.94 L 1731.23,1124.94 L 1731.23,1134.94 L 1529.74,1134.94 Z "
     id="path76" />
  <path
     stroke="none"
     fill="#000000"
     transform="matrix(0.0666667 0 0 0.0666667 0.444411 -12.3333)"
     d="M 1931.72,1104.32 C 1931.72,1104.32 1842.43,1104.32 1842.43,1104.32 C 1842.43,1087.29 1829.68,1071.81 1829.68,1071.81 C 1829.68,1071.81 1931.72,1104.32 1931.72,1104.32 C 1931.72,1104.32 1931.72,1104.32 1931.72,1104.32 "
     id="path78" />
  <path
     stroke="#000000"
     stroke-width="1"
     fill="none"
     transform="matrix(0.0666667 0 0 0.0666667 0.444411 -12.3333)"
     d="M 1931.72,1104.32 C 1931.72,1104.32 1842.43,1104.32 1842.43,1104.32 C 1842.43,1087.29 1829.68,1071.81 1829.68,1071.81 C 1829.68,1071.81 1931.72,1104.32 1931.72,1104.32 C 1931.72,1104.32 1931.72,1104.32 1931.72,1104.32 "
     id="path80" />
  <path
     stroke="none"
     fill="#000000"
     transform="matrix(0.0666667 0 0 0.0666667 0.444411 -12.3333)"
     d="M 1441.45,1124.94 C 1441.45,1124.94 1543.5,1157.45 1543.5,1157.45 C 1543.5,1157.45 1530.74,1131.97 1530.74,1124.94 C 1530.74,1124.94 1441.45,1124.94 1441.45,1124.94 C 1441.45,1124.94 1441.45,1124.94 1441.45,1124.94 "
     id="path82" />
  <path
     stroke="#000000"
     stroke-width="1"
     fill="none"
     transform="matrix(0.0666667 0 0 0.0666667 0.444411 -12.3333)"
     d="M 1441.45,1124.94 C 1441.45,1124.94 1543.5,1157.45 1543.5,1157.45 C 1543.5,1157.45 1530.74,1131.97 1530.74,1124.94 C 1530.74,1124.94 1441.45,1124.94 1441.45,1124.94 C 1441.45,1124.94 1441.45,1124.94 1441.45,1124.94 "
     id="path84" />
  <text
     x="206.6266"
     y="28.675447"
     font-style="normal"
     font-weight="normal"
     font-size="160px"
     id="text86"
     style="font-style:normal;font-weight:normal;font-size:10.66667175px;font-family:Arial;text-align:end;text-anchor:end;fill:#e69f00;stroke:none;stroke-width:0.0666667">
    <tspan
       style="text-align:end;text-anchor:end;stroke-width:0.0666667"
       id="tspan1165">$\Delta E=\SI{4.5}{\kcalpm}$</tspan>
  </text>
  <g
     aria-label="H"
     transform="matrix(0.0666667,0,0,0.0666667,358.769,40.1551)"
     style="font-style:normal;font-weight:normal;font-size:160px;font-family:Arial;fill:#000000;stroke:none"
     id="text94">
    <path
       d="M 12.8125,0 V -114.53125 H 27.96875 V -67.5 H 87.5 v -47.03125 h 15.15625 V 0 H 87.5 V -53.984375 H 27.96875 V 0 Z"
       style="font-style:normal;font-weight:normal;font-size:160px;font-family:Arial;fill:#000000;stroke:none"
       id="path1097"
       inkscape:connector-curvature="0" />
  </g>
  <g
     aria-label="N"
     transform="matrix(0.0666667,0,0,0.0666667,358.769,50.8218)"
     style="font-style:normal;font-weight:normal;font-size:160px;font-family:Arial;fill:#000000;stroke:none"
     id="text96">
    <path
       d="m 12.1875,0 v -114.53125 h 15.546875 l 60.15625,89.921875 V -114.53125 H 102.42188 V 0 H 86.875 L 26.71875,-90 V 0 Z"
       style="font-style:normal;font-weight:normal;font-size:160px;font-family:Arial;fill:#000000;stroke:none"
       id="path1100"
       inkscape:connector-curvature="0" />
  </g>
  <path
     stroke="none"
     fill="#000000"
     transform="matrix(0.0666667 0 0 0.0666667 0.444411 -12.3333)"
     d="M 5238.41,1226.64 L 5228.2,1232.53 L 5228.2,1002.62 L 5233.31,999.414 L 5238.41,1002.36 L 5238.41,1226.64 Z "
     id="path98" />
  <path
     stroke="none"
     fill="#000000"
     transform="matrix(0.0666667 0 0 0.0666667 0.444411 -12.3333)"
     d="M 5432.64,1338.78 L 5432.64,1344.67 L 5427.2,1347.42 L 5228.2,1232.53 L 5238.41,1226.64 L 5432.64,1338.78 Z "
     id="path100" />
  <path
     stroke="none"
     fill="#000000"
     transform="matrix(0.0666667 0 0 0.0666667 0.444411 -12.3333)"
     d="M 5626.87,1226.64 L 5637.08,1232.53 L 5438.08,1347.42 L 5432.64,1344.67 L 5432.64,1338.78 L 5626.87,1226.64 Z "
     id="path102" />
  <path
     stroke="none"
     fill="#000000"
     transform="matrix(0.0666667 0 0 0.0666667 0.444411 -12.3333)"
     d="M 5626.87,1002.36 L 5637.08,996.468 L 5637.08,1232.53 L 5626.87,1226.64 L 5626.87,1002.36 Z "
     id="path104" />
  <path
     stroke="none"
     fill="#000000"
     transform="matrix(0.0666667 0 0 0.0666667 0.444411 -12.3333)"
     d="M 5512.19,936.146 L 5517.29,927.309 L 5637.08,996.468 L 5626.87,1002.36 L 5512.19,936.146 Z "
     id="path106" />
  <path
     stroke="none"
     fill="#000000"
     transform="matrix(0.0666667 0 0 0.0666667 0.444411 -12.3333)"
     d="M 5238.41,1002.36 L 5233.31,999.414 L 5233.53,993.39 L 5347.58,927.546 L 5352.68,936.383 L 5238.41,1002.36 Z "
     id="path108" />
  <g
     aria-label="Nu"
     transform="matrix(0.0666667,0,0,0.0666667,385.347,50.8218)"
     style="font-style:normal;font-weight:normal;font-size:160px;font-family:Arial;fill:#cc79a7;stroke:none"
     id="text110">
    <path
       d="m 12.1875,0 v -114.53125 h 15.546875 l 60.15625,89.921875 V -114.53125 H 102.42188 V 0 H 86.875 L 26.71875,-90 V 0 Z"
       style="font-style:normal;font-weight:normal;font-size:160px;font-family:Arial;fill:#cc79a7;stroke:none"
       id="path1103"
       inkscape:connector-curvature="0" />
    <path
       d="m 180.54687,0 v -12.1875 q -9.6875,14.0625 -26.32812,14.0625 -7.34375,0 -13.75,-2.8125 -6.32813,-2.8125 -9.45313,-7.03125 -3.04687,-4.296875 -4.29687,-10.46875 -0.85937,-4.140625 -0.85937,-13.125 v -51.40625 h 14.06249 v 46.015625 q 0,11.015625 0.85938,14.84375 1.32812,5.546875 5.625,8.75 4.29687,3.125 10.625,3.125 6.32812,0 11.875,-3.203125 5.54687,-3.28125 7.8125,-8.828125 2.34375,-5.625 2.34375,-16.25 V -82.96875 H 193.125 V 0 Z"
       style="font-style:normal;font-weight:normal;font-size:160px;font-family:Arial;fill:#cc79a7;stroke:none"
       id="path1105"
       inkscape:connector-curvature="0" />
  </g>
  <path
     stroke="none"
     fill="#cc79a7"
     transform="matrix(0.0666667 0 0 0.0666667 0.444411 -12.3333)"
     d="M 5736.03,911.844 L 5759.84,953.085 L 5749.98,956.417 L 5728.22,918.717 L 5736.03,911.844 Z "
     id="path112" />
  <path
     stroke="none"
     fill="#cc79a7"
     transform="matrix(0.0666667 0 0 0.0666667 0.444411 -12.3333)"
     d="M 5704.18,939.852 L 5719.66,966.662 L 5709.8,969.994 L 5696.37,946.725 L 5704.18,939.852 Z "
     id="path114" />
  <path
     stroke="none"
     fill="#cc79a7"
     transform="matrix(0.0666667 0 0 0.0666667 0.444411 -12.3333)"
     d="M 5672.33,967.86 L 5679.48,980.239 L 5669.62,983.571 L 5664.52,974.733 L 5672.33,967.86 Z "
     id="path116" />
  <g
     aria-label="O"
     transform="matrix(0.0666667,0,0,0.0666667,385.05,81.5115)"
     style="font-style:normal;font-weight:normal;font-size:160px;font-family:Arial;fill:#000000;stroke:none"
     id="text118">
    <path
       d="m 7.734375,-55.78125 q 0,-28.515625 15.3125,-44.60938 15.3125,-16.17187 39.53125,-16.17187 15.859375,0 28.59375,7.57812 12.734375,7.57813 19.375005,21.17188 6.71875,13.515625 6.71875,30.703125 0,17.421875 -7.03125,31.171875 -7.03125,13.75 -19.92188,20.859375 -12.890625,7.03125 -27.8125,7.03125 -16.171875,0 -28.90625,-7.8125 -12.734375,-7.8125 -19.296875,-21.328125 -6.5625,-13.515625 -6.5625,-28.59375 z m 15.625,0.234375 q 0,20.703125 11.09375,32.65625 11.171875,11.875 27.96875,11.875 17.109375,0 28.125,-12.03125 11.093755,-12.03125 11.093755,-34.140625 0,-13.984375 -4.76563,-24.375 -4.6875,-10.46875 -13.828125,-16.171875 -9.0625,-5.781255 -20.390625,-5.781255 -16.09375,0 -27.734375,11.093755 -11.5625,11.015625 -11.5625,36.875 z"
       style="font-style:normal;font-weight:normal;font-size:160px;font-family:Arial;fill:#000000;stroke:none"
       id="path1108"
       inkscape:connector-curvature="0" />
  </g>
  <path
     stroke="none"
     fill="#000000"
     transform="matrix(0.0666667 0 0 0.0666667 0.444411 -12.3333)"
     d="M 5774.51,1284.39 L 5750.7,1325.63 L 5742.73,1319.03 L 5764.81,1280.78 L 5774.51,1284.39 Z "
     id="path120" />
  <path
     stroke="none"
     fill="#000000"
     transform="matrix(0.0666667 0 0 0.0666667 0.444411 -12.3333)"
     d="M 5726.9,1266.7 L 5711.58,1293.24 L 5703.6,1286.64 L 5717.2,1263.09 L 5726.9,1266.7 Z "
     id="path122" />
  <path
     stroke="none"
     fill="#000000"
     transform="matrix(0.0666667 0 0 0.0666667 0.444411 -12.3333)"
     d="M 5679.28,1249.01 L 5672.45,1260.84 L 5664.48,1254.24 L 5669.58,1245.41 L 5679.28,1249.01 Z "
     id="path124" />
  <g
     aria-label="O"
     transform="matrix(0.0666667,0,0,0.0666667,358.472,96.8564)"
     style="font-style:normal;font-weight:normal;font-size:160px;font-family:Arial;fill:#000000;stroke:none"
     id="text126">
    <path
       d="m 7.734375,-55.78125 q 0,-28.515625 15.3125,-44.60938 15.3125,-16.17187 39.53125,-16.17187 15.859375,0 28.59375,7.57812 12.734375,7.57813 19.375005,21.17188 6.71875,13.515625 6.71875,30.703125 0,17.421875 -7.03125,31.171875 -7.03125,13.75 -19.92188,20.859375 -12.890625,7.03125 -27.8125,7.03125 -16.171875,0 -28.90625,-7.8125 -12.734375,-7.8125 -19.296875,-21.328125 -6.5625,-13.515625 -6.5625,-28.59375 z m 15.625,0.234375 q 0,20.703125 11.09375,32.65625 11.171875,11.875 27.96875,11.875 17.109375,0 28.125,-12.03125 11.093755,-12.03125 11.093755,-34.140625 0,-13.984375 -4.76563,-24.375 -4.6875,-10.46875 -13.828125,-16.171875 -9.0625,-5.781255 -20.390625,-5.781255 -16.09375,0 -27.734375,11.093755 -11.5625,11.015625 -11.5625,36.875 z"
       style="font-style:normal;font-weight:normal;font-size:160px;font-family:Arial;fill:#000000;stroke:none"
       id="path1111"
       inkscape:connector-curvature="0" />
  </g>
  <path
     stroke="none"
     fill="#000000"
     transform="matrix(0.0666667 0 0 0.0666667 0.444411 -12.3333)"
     d="M 5456.45,1496.51 L 5408.83,1496.51 L 5427.2,1347.42 L 5432.64,1344.67 L 5438.08,1347.42 L 5456.45,1496.51 Z "
     id="path128" />
  <g
     aria-label="O"
     transform="matrix(0.0666667,0,0,0.0666667,331.894,81.5115)"
     style="font-style:normal;font-weight:normal;font-size:160px;font-family:Arial;fill:#000000;stroke:none"
     id="text130">
    <path
       d="m 7.734375,-55.78125 q 0,-28.515625 15.3125,-44.60938 15.3125,-16.17187 39.53125,-16.17187 15.859375,0 28.59375,7.57812 12.734375,7.57813 19.375005,21.17188 6.71875,13.515625 6.71875,30.703125 0,17.421875 -7.03125,31.171875 -7.03125,13.75 -19.92188,20.859375 -12.890625,7.03125 -27.8125,7.03125 -16.171875,0 -28.90625,-7.8125 -12.734375,-7.8125 -19.296875,-21.328125 -6.5625,-13.515625 -6.5625,-28.59375 z m 15.625,0.234375 q 0,20.703125 11.09375,32.65625 11.171875,11.875 27.96875,11.875 17.109375,0 28.125,-12.03125 11.093755,-12.03125 11.093755,-34.140625 0,-13.984375 -4.76563,-24.375 -4.6875,-10.46875 -13.828125,-16.171875 -9.0625,-5.781255 -20.390625,-5.781255 -16.09375,0 -27.734375,11.093755 -11.5625,11.015625 -11.5625,36.875 z"
       style="font-style:normal;font-weight:normal;font-size:160px;font-family:Arial;fill:#000000;stroke:none"
       id="path1114"
       inkscape:connector-curvature="0" />
  </g>
  <path
     stroke="none"
     fill="#000000"
     transform="matrix(0.0666667 0 0 0.0666667 0.444411 -12.3333)"
     d="M 5114.99,1325.39 L 5091.18,1284.15 L 5100.88,1280.55 L 5122.96,1318.79 L 5114.99,1325.39 Z "
     id="path132" />
  <path
     stroke="none"
     fill="#000000"
     transform="matrix(0.0666667 0 0 0.0666667 0.444411 -12.3333)"
     d="M 5153.97,1293.09 L 5138.64,1266.55 L 5148.35,1262.95 L 5161.94,1286.48 L 5153.97,1293.09 Z "
     id="path134" />
  <path
     stroke="none"
     fill="#000000"
     transform="matrix(0.0666667 0 0 0.0666667 0.444411 -12.3333)"
     d="M 5192.94,1260.79 L 5186.1,1248.94 L 5195.81,1245.34 L 5200.91,1254.18 L 5192.94,1260.79 Z "
     id="path136" />
  <path
     stroke="none"
     fill="#000000"
     transform="matrix(0.0666667 0 0 0.0666667 0.444411 -12.3333)"
     d="M 4633.18,888.968 L 4637.42,879.686 L 4804.6,956.06 L 4800.36,965.342 L 4633.18,888.968 Z "
     id="path138" />
  <path
     stroke="none"
     fill="#000000"
     transform="matrix(0.0666667 0 0 0.0666667 0.444411 -12.3333)"
     d="M 5016.66,902.388 L 5050.42,866.851 L 5233.53,993.39 L 5233.31,999.414 L 5228.2,1002.62 L 5016.66,902.388 Z "
     id="path140" />
  <path
     stroke="none"
     fill="#000000"
     transform="matrix(0.0666667 0 0 0.0666667 0.444411 -12.3333)"
     d="M 4943.32,952.706 L 4937.54,944.291 L 5050.42,866.851 L 5016.66,902.388 L 4943.32,952.706 Z "
     id="path142" />
  <path
     stroke="#000000"
     stroke-width="10"
     fill="none"
     transform="matrix(0.0666667 0 0 0.0666667 0.444411 -12.3333)"
     d="M 3824.01,568.347 L 3903.38,568.347 "
     id="path144" />
  <path
     stroke="#000000"
     stroke-width="10"
     fill="none"
     transform="matrix(0.0666667 0 0 0.0666667 0.444411 -12.3333)"
     d="M 3903.38,568.347 L 3903.38,1660.92 "
     id="path146" />
  <path
     stroke="#000000"
     stroke-width="10"
     fill="none"
     transform="matrix(0.0666667 0 0 0.0666667 0.444411 -12.3333)"
     d="M 3903.38,1660.92 L 3824.01,1660.92 "
     id="path148" />
  <path
     stroke="#000000"
     stroke-width="10"
     fill="none"
     transform="matrix(0.0666667 0 0 0.0666667 0.444411 -12.3333)"
     d="M 131.79,1660.92 L 52.4222,1660.92 "
     id="path150" />
  <path
     stroke="#000000"
     stroke-width="10"
     fill="none"
     transform="matrix(0.0666667 0 0 0.0666667 0.444411 -12.3333)"
     d="M 52.4222,1660.92 L 52.4222,568.347 "
     id="path152" />
  <path
     stroke="#000000"
     stroke-width="10"
     fill="none"
     transform="matrix(0.0666667 0 0 0.0666667 0.444411 -12.3333)"
     d="M 52.4222,568.347 L 131.79,568.347 "
     id="path154" />
  <path
     stroke="none"
     fill="#000000"
     transform="matrix(0.0666667 0 0 0.0666667 0.444411 -12.3333)"
     d="M 4331.94,1099.57 L 4023.56,1099.57 L 4023.56,1089.57 L 4331.94,1089.57 Z "
     id="path156" />
  <path
     stroke="none"
     fill="#000000"
     transform="matrix(0.0666667 0 0 0.0666667 0.444411 -12.3333)"
     d="M 4420.23,1094.57 C 4420.23,1094.57 4318.18,1121.08 4318.18,1121.08 C 4318.18,1121.08 4330.94,1106.17 4330.94,1094.57 C 4330.94,1082.53 4318.18,1067.06 4318.18,1067.06 C 4318.18,1067.06 4420.23,1094.57 4420.23,1094.57 C 4420.23,1094.57 4420.23,1094.57 4420.23,1094.57 "
     id="path158" />
  <path
     stroke="#000000"
     stroke-width="1"
     fill="none"
     transform="matrix(0.0666667 0 0 0.0666667 0.444411 -12.3333)"
     d="M 4420.23,1094.57 C 4420.23,1094.57 4318.18,1121.08 4318.18,1121.08 C 4318.18,1121.08 4330.94,1106.17 4330.94,1094.57 C 4330.94,1082.53 4318.18,1067.06 4318.18,1067.06 C 4318.18,1067.06 4420.23,1094.57 4420.23,1094.57 C 4420.23,1094.57 4420.23,1094.57 4420.23,1094.57 "
     id="path160" />
  <path
     stroke="none"
     fill="#000000"
     transform="matrix(0.0666667 0 0 0.0666667 0.444411 -12.3333)"
     d="M 4476.83,1147.19 L 4168.45,1147.19 L 4168.45,1137.19 L 4476.83,1137.19 Z "
     id="path162" />
  <path
     stroke="none"
     fill="#000000"
     transform="matrix(0.0666667 0 0 0.0666667 0.444411 -12.3333)"
     d="M 4565.11,1142.19 C 4565.11,1142.19 4463.07,1168.7 4463.07,1168.7 C 4463.07,1168.7 4475.83,1153.79 4475.83,1142.19 C 4475.83,1130.16 4463.07,1114.68 4463.07,1114.68 C 4463.07,1114.68 4565.11,1142.19 4565.11,1142.19 C 4565.11,1142.19 4565.11,1142.19 4565.11,1142.19 "
     id="path164" />
  <path
     stroke="#000000"
     stroke-width="1"
     fill="none"
     transform="matrix(0.0666667 0 0 0.0666667 0.444411 -12.3333)"
     d="M 4565.11,1142.19 C 4565.11,1142.19 4463.07,1168.7 4463.07,1168.7 C 4463.07,1168.7 4475.83,1153.79 4475.83,1142.19 C 4475.83,1130.16 4463.07,1114.68 4463.07,1114.68 C 4463.07,1114.68 4565.11,1142.19 4565.11,1142.19 C 4565.11,1142.19 4565.11,1142.19 4565.11,1142.19 "
     id="path166" />
  <path
     stroke="none"
     fill="#000000"
     transform="matrix(0.0666667 0 0 0.0666667 0.444411 -12.3333)"
     d="M 3393.65,845.083 L 3400.87,852.298 L 3294.55,958.617 L 3287.33,951.402 L 3393.65,845.083 Z "
     id="path168" />
  <path
     stroke="none"
     fill="#000000"
     transform="matrix(0.0666667 0 0 0.0666667 0.444411 -12.3333)"
     d="M 3781.02,1153.31 L 3783.67,1163.17 L 3638.59,1202.04 L 3635.95,1192.19 L 3781.02,1153.31 Z "
     id="path170" />
  <path
     stroke="none"
     fill="#000000"
     transform="matrix(0.0666667 0 0 0.0666667 0.444411 -12.3333)"
     d="M 2265.69,1384.18 L 2258.47,1376.96 L 2358.9,1276.54 L 2366.11,1283.75 L 2265.69,1384.18 Z "
     id="path172" />
  <path
     stroke="none"
     fill="#000000"
     transform="matrix(0.0666667 0 0 0.0666667 0.444411 -12.3333)"
     d="M 2095.71,1015.06 L 2102.93,1007.84 L 2209.52,1114.43 L 2202.31,1121.65 L 2095.71,1015.06 Z "
     id="path174" />
  <g
     aria-label="O"
     transform="matrix(0.0666667,0,0,0.0666667,79.3055,42.966)"
     style="font-style:normal;font-weight:normal;font-size:160px;font-family:Arial;fill:#000000;stroke:none"
     id="text176">
    <path
       d="m 7.734375,-55.78125 q 0,-28.515625 15.3125,-44.60938 15.3125,-16.17187 39.53125,-16.17187 15.859375,0 28.59375,7.57812 12.734375,7.57813 19.375005,21.17188 6.71875,13.515625 6.71875,30.703125 0,17.421875 -7.03125,31.171875 -7.03125,13.75 -19.92188,20.859375 -12.890625,7.03125 -27.8125,7.03125 -16.171875,0 -28.90625,-7.8125 -12.734375,-7.8125 -19.296875,-21.328125 -6.5625,-13.515625 -6.5625,-28.59375 z m 15.625,0.234375 q 0,20.703125 11.09375,32.65625 11.171875,11.875 27.96875,11.875 17.109375,0 28.125,-12.03125 11.093755,-12.03125 11.093755,-34.140625 0,-13.984375 -4.76563,-24.375 -4.6875,-10.46875 -13.828125,-16.171875 -9.0625,-5.781255 -20.390625,-5.781255 -16.09375,0 -27.734375,11.093755 -11.5625,11.015625 -11.5625,36.875 z"
       style="font-style:normal;font-weight:normal;font-size:160px;font-family:Arial;fill:#000000;stroke:none"
       id="path1117"
       inkscape:connector-curvature="0" />
  </g>
  <g
     aria-label="O"
     transform="matrix(0.0666667,0,0,0.0666667,30.394,39.7942)"
     style="font-style:normal;font-weight:normal;font-size:160px;font-family:Arial;fill:#000000;stroke:none"
     id="text178">
    <path
       d="m 7.734375,-55.78125 q 0,-28.515625 15.3125,-44.60938 15.3125,-16.17187 39.53125,-16.17187 15.859375,0 28.59375,7.57812 12.734375,7.57813 19.375005,21.17188 6.71875,13.515625 6.71875,30.703125 0,17.421875 -7.03125,31.171875 -7.03125,13.75 -19.92188,20.859375 -12.890625,7.03125 -27.8125,7.03125 -16.171875,0 -28.90625,-7.8125 -12.734375,-7.8125 -19.296875,-21.328125 -6.5625,-13.515625 -6.5625,-28.59375 z m 15.625,0.234375 q 0,20.703125 11.09375,32.65625 11.171875,11.875 27.96875,11.875 17.109375,0 28.125,-12.03125 11.093755,-12.03125 11.093755,-34.140625 0,-13.984375 -4.76563,-24.375 -4.6875,-10.46875 -13.828125,-16.171875 -9.0625,-5.781255 -20.390625,-5.781255 -16.09375,0 -27.734375,11.093755 -11.5625,11.015625 -11.5625,36.875 z"
       style="font-style:normal;font-weight:normal;font-size:160px;font-family:Arial;fill:#000000;stroke:none"
       id="path1120"
       inkscape:connector-curvature="0" />
  </g>
  <g
     aria-label="O"
     transform="matrix(0.0666667,0,0,0.0666667,19.9818,81.3282)"
     style="font-style:normal;font-weight:normal;font-size:160px;font-family:Arial;fill:#000000;stroke:none"
     id="text180">
    <path
       d="m 7.734375,-55.78125 q 0,-28.515625 15.3125,-44.60938 15.3125,-16.17187 39.53125,-16.17187 15.859375,0 28.59375,7.57812 12.734375,7.57813 19.375005,21.17188 6.71875,13.515625 6.71875,30.703125 0,17.421875 -7.03125,31.171875 -7.03125,13.75 -19.92188,20.859375 -12.890625,7.03125 -27.8125,7.03125 -16.171875,0 -28.90625,-7.8125 -12.734375,-7.8125 -19.296875,-21.328125 -6.5625,-13.515625 -6.5625,-28.59375 z m 15.625,0.234375 q 0,20.703125 11.09375,32.65625 11.171875,11.875 27.96875,11.875 17.109375,0 28.125,-12.03125 11.093755,-12.03125 11.093755,-34.140625 0,-13.984375 -4.76563,-24.375 -4.6875,-10.46875 -13.828125,-16.171875 -9.0625,-5.781255 -20.390625,-5.781255 -16.09375,0 -27.734375,11.093755 -11.5625,11.015625 -11.5625,36.875 z"
       style="font-style:normal;font-weight:normal;font-size:160px;font-family:Arial;fill:#000000;stroke:none"
       id="path1123"
       inkscape:connector-curvature="0" />
  </g>
  <path
     stroke="none"
     fill="#000000"
     transform="matrix(0.0666667 0 0 0.0666667 0.444411 -12.3333)"
     d="M 1084.94,1615.35 L 1079.83,1624.19 L 955.388,1552.34 L 960.49,1543.5 L 1084.94,1615.35 Z "
     id="path182" />
  <g
     aria-label="O"
     transform="matrix(0.0666667,0,0,0.0666667,321.27,58.1103)"
     style="font-style:normal;font-weight:normal;font-size:160px;font-family:Arial;fill:#000000;stroke:none"
     id="text184">
    <path
       d="m 7.734375,-55.78125 q 0,-28.515625 15.3125,-44.60938 15.3125,-16.17187 39.53125,-16.17187 15.859375,0 28.59375,7.57812 12.734375,7.57813 19.375005,21.17188 6.71875,13.515625 6.71875,30.703125 0,17.421875 -7.03125,31.171875 -7.03125,13.75 -19.92188,20.859375 -12.890625,7.03125 -27.8125,7.03125 -16.171875,0 -28.90625,-7.8125 -12.734375,-7.8125 -19.296875,-21.328125 -6.5625,-13.515625 -6.5625,-28.59375 z m 15.625,0.234375 q 0,20.703125 11.09375,32.65625 11.171875,11.875 27.96875,11.875 17.109375,0 28.125,-12.03125 11.093755,-12.03125 11.093755,-34.140625 0,-13.984375 -4.76563,-24.375 -4.6875,-10.46875 -13.828125,-16.171875 -9.0625,-5.781255 -20.390625,-5.781255 -16.09375,0 -27.734375,11.093755 -11.5625,11.015625 -11.5625,36.875 z"
       style="font-style:normal;font-weight:normal;font-size:160px;font-family:Arial;fill:#000000;stroke:none"
       id="path1126"
       inkscape:connector-curvature="0" />
  </g>
  <path
     stroke="none"
     fill="#000000"
     transform="matrix(0.0666667 0 0 0.0666667 0.444411 -12.3333)"
     d="M 4832.08,1234.01 L 4837.18,1225.17 L 4967.82,1300.59 L 4962.71,1309.43 L 4832.08,1234.01 Z "
     id="path186" />
  <path
     stroke="none"
     fill="#000000"
     transform="matrix(0.0666667 0 0 0.0666667 0.444411 -12.3333)"
     d="M 5634.53,1685.51 L 5629.43,1694.35 L 5504.98,1622.5 L 5510.08,1613.66 L 5634.53,1685.51 Z "
     id="path188" />
  <path
     stroke="none"
     fill="#000000"
     transform="matrix(0.0666667 0 0 0.0666667 0.444411 -12.3333)"
     d="M 6028.1,1225.17 L 6033.2,1234.01 L 5902.98,1309.19 L 5897.88,1300.35 L 6028.1,1225.17 Z "
     id="path190" />
  <g
     aria-label="Nu"
     transform="matrix(0.0666667,0,0,0.0666667,274.611,52.1667)"
     style="font-style:normal;font-weight:normal;font-size:160px;font-family:Arial;fill:#cc79a7;stroke:none"
     id="text192">
    <path
       d="m 12.1875,0 v -114.53125 h 15.546875 l 60.15625,89.921875 V -114.53125 H 102.42188 V 0 H 86.875 L 26.71875,-90 V 0 Z"
       style="font-style:normal;font-weight:normal;font-size:160px;font-family:Arial;fill:#cc79a7;stroke:none"
       id="path1129"
       inkscape:connector-curvature="0" />
    <path
       d="m 180.54687,0 v -12.1875 q -9.6875,14.0625 -26.32812,14.0625 -7.34375,0 -13.75,-2.8125 -6.32813,-2.8125 -9.45313,-7.03125 -3.04687,-4.296875 -4.29687,-10.46875 -0.85937,-4.140625 -0.85937,-13.125 v -51.40625 h 14.06249 v 46.015625 q 0,11.015625 0.85938,14.84375 1.32812,5.546875 5.625,8.75 4.29687,3.125 10.625,3.125 6.32812,0 11.875,-3.203125 5.54687,-3.28125 7.8125,-8.828125 2.34375,-5.625 2.34375,-16.25 V -82.96875 H 193.125 V 0 Z"
       style="font-style:normal;font-weight:normal;font-size:160px;font-family:Arial;fill:#cc79a7;stroke:none"
       id="path1131"
       inkscape:connector-curvature="0" />
  </g>
  <path
     stroke="#cc79a7"
     stroke-width="8"
     fill="none"
     transform="matrix(0.0666667 0 0 0.0666667 0.444411 -12.3333)"
     d="M 4302.59,802.167 A 57.0818,57.0818 0 1 0 4416.75,802.167A 57.0818,57.0818 0 1 0 4302.59,802.167Z "
     id="path194" />
  <path
     stroke="none"
     fill="#cc79a7"
     transform="matrix(0.0666667 0 0 0.0666667 0.444411 -12.3333)"
     d="M 4328.23,798.5 L 4391.77,798.5 L 4391.77,806.5 L 4328.23,806.5 Z "
     id="path196" />
  <path
     transform="matrix(0.0666667,0,0,0.0666667,0.444411,-12.3333)"
     d="m 1674.18,678.75 1410.9731,0 v 10 l -1410.9731,0 z"
     id="path198"
     inkscape:connector-curvature="0"
     style="fill:#e69f00;stroke:none"
     sodipodi:nodetypes="ccccc" />
  <path
     stroke="none"
     fill="#e69f00"
     transform="matrix(0.0666667 0 0 0.0666667 0.444411 -12.3333)"
     d="M 1669.18,961.25 L 1669.18,683.75 L 1679.18,683.75 L 1679.18,961.25 Z "
     id="path200" />
  <path
     stroke="none"
     fill="#e69f00"
     transform="matrix(0.0666667 0 0 0.0666667 0.444411 -12.3333)"
     d="M 1647.25,965.33 A 26.9302,26.9302 0 1 0 1701.11,965.33A 26.9302,26.9302 0 1 0 1647.25,965.33Z "
     id="path202" />
  <path
     stroke="#cc79a7"
     stroke-width="10"
     fill="none"
     transform="matrix(0.0666667 0 0 0.0666667 0.444411 -12.3333)"
     d="M 2732.5,1485 C 2732.5,1485 2701.89,1485 2701.89,1485 C 2701.89,1485 2701.89,1321.23 2701.89,1321.23 C 2701.89,1321.23 2671.28,1321.23 2671.28,1321.23 C 2671.28,1321.23 2732.5,1260 2732.5,1260 C 2732.5,1260 2793.73,1321.23 2793.73,1321.23 C 2793.73,1321.23 2763.12,1321.23 2763.12,1321.23 C 2763.12,1321.23 2763.12,1485 2763.12,1485 C 2763.12,1485 2732.5,1485 2732.5,1485 "
     id="path204" />
  <g
     aria-label="Nu"
     transform="matrix(0.0666667,0,0,0.0666667,179.611,101.167)"
     style="font-style:normal;font-weight:normal;font-size:160px;font-family:Arial;fill:#cc79a7;stroke:none"
     id="text206">
    <path
       d="m 12.1875,0 v -114.53125 h 15.546875 l 60.15625,89.921875 V -114.53125 H 102.42188 V 0 H 86.875 L 26.71875,-90 V 0 Z"
       style="font-style:normal;font-weight:normal;font-size:160px;font-family:Arial;fill:#cc79a7;stroke:none"
       id="path1134"
       inkscape:connector-curvature="0" />
    <path
       d="m 180.54687,0 v -12.1875 q -9.6875,14.0625 -26.32812,14.0625 -7.34375,0 -13.75,-2.8125 -6.32813,-2.8125 -9.45313,-7.03125 -3.04687,-4.296875 -4.29687,-10.46875 -0.85937,-4.140625 -0.85937,-13.125 v -51.40625 h 14.06249 v 46.015625 q 0,11.015625 0.85938,14.84375 1.32812,5.546875 5.625,8.75 4.29687,3.125 10.625,3.125 6.32812,0 11.875,-3.203125 5.54687,-3.28125 7.8125,-8.828125 2.34375,-5.625 2.34375,-16.25 V -82.96875 H 193.125 V 0 Z"
       style="font-style:normal;font-weight:normal;font-size:160px;font-family:Arial;fill:#cc79a7;stroke:none"
       id="path1136"
       inkscape:connector-curvature="0" />
  </g>
  <path
     stroke="#cc79a7"
     stroke-width="8"
     fill="none"
     transform="matrix(0.0666667 0 0 0.0666667 0.444411 -12.3333)"
     d="M 2877.59,1537.17 A 57.0818,57.0818 0 1 0 2991.75,1537.17A 57.0818,57.0818 0 1 0 2877.59,1537.17Z "
     id="path208" />
  <path
     stroke="none"
     fill="#cc79a7"
     transform="matrix(0.0666667 0 0 0.0666667 0.444411 -12.3333)"
     d="M 2903.23,1533.5 L 2966.77,1533.5 L 2966.77,1541.5 L 2903.23,1541.5 Z "
     id="path210" />
  <text
     x="306.45901"
     y="17.675447"
     font-style="normal"
     font-weight="normal"
     font-size="160px"
     id="text212"
     style="font-style:normal;font-weight:normal;font-size:10.66667175px;font-family:Arial;fill:#e69f00;stroke:none;stroke-width:0.0666667">preferowane</text>
  <path
     stroke="none"
     fill="#e69f00"
     transform="matrix(0.0666667 0 0 0.0666667 0.444411 -12.3333)"
     d="M 5602.65,800.33 A 26.9302,26.9302 0 1 0 5656.51,800.33A 26.9302,26.9302 0 1 0 5602.65,800.33Z "
     id="path214" />
  <path
     stroke="none"
     fill="#e69f00"
     transform="matrix(0.0666667 0 0 0.0666667 0.444411 -12.3333)"
     d="M 5624.58,796.25 L 5624.58,518.75 L 5634.58,518.75 L 5634.58,796.25 Z "
     id="path216" />
  <path
     stroke="none"
     fill="#e69f00"
     transform="matrix(0.0666667 0 0 0.0666667 0.444411 -12.3333)"
     d="M 5629.58,523.75 L 4574.92,523.75 L 4574.92,513.75 L 5629.58,513.75 Z "
     id="path218" />
  <text
     xml:space="preserve"
     style="font-style:normal;font-weight:normal;font-size:10.66666698px;line-height:1.25;font-family:sans-serif;text-align:start;letter-spacing:0px;word-spacing:0px;text-anchor:start;fill:#e69f00;fill-opacity:1;stroke:none"
     x="28.582655"
     y="100.52116"
     id="text1159"><tspan
       sodipodi:role="line"
       id="tspan1157"
       x="28.582655"
       y="100.52116">\cycloconf{3}{H}{4}</tspan></text>
  <text
     xml:space="preserve"
     style="font-style:normal;font-weight:normal;font-size:10.66666698px;line-height:1.25;font-family:sans-serif;text-align:start;letter-spacing:0px;word-spacing:0px;text-anchor:start;fill:#e69f00;fill-opacity:1;stroke:none;"
     x="214.84798"
     y="100.52116"
     id="text1163"><tspan
       sodipodi:role="line"
       id="tspan1161"
       x="214.84798"
       y="100.52116">\cycloconf{4}{H}{3}</tspan></text>
</svg>
