<?xml version="1.0" encoding="UTF-8" standalone="no"?>
<svg
   xmlns:dc="http://purl.org/dc/elements/1.1/"
   xmlns:cc="http://creativecommons.org/ns#"
   xmlns:rdf="http://www.w3.org/1999/02/22-rdf-syntax-ns#"
   xmlns:svg="http://www.w3.org/2000/svg"
   xmlns="http://www.w3.org/2000/svg"
   xmlns:sodipodi="http://sodipodi.sourceforge.net/DTD/sodipodi-0.dtd"
   xmlns:inkscape="http://www.inkscape.org/namespaces/inkscape"
   width="400px"
   height="178px"
   viewBox="0 0 400 178"
   style="background-color: #ffffff00"
   version="1.1"
   id="svg272"
   sodipodi:docname="woerpel.svg"
   inkscape:version="0.92.3 (2405546, 2018-03-11)">
  <metadata
     id="metadata278">
    <rdf:RDF>
      <cc:Work
         rdf:about="">
        <dc:format>image/svg+xml</dc:format>
        <dc:type
           rdf:resource="http://purl.org/dc/dcmitype/StillImage" />
      </cc:Work>
    </rdf:RDF>
  </metadata>
  <defs
     id="defs276" />
  <sodipodi:namedview
     pagecolor="#ffffff"
     bordercolor="#666666"
     borderopacity="1"
     objecttolerance="10"
     gridtolerance="10"
     guidetolerance="10"
     inkscape:pageopacity="0"
     inkscape:pageshadow="2"
     inkscape:window-width="1920"
     inkscape:window-height="1017"
     id="namedview274"
     showgrid="false"
     inkscape:zoom="2.5455844"
     inkscape:cx="222.42706"
     inkscape:cy="88.254993"
     inkscape:window-x="-8"
     inkscape:window-y="-8"
     inkscape:window-maximized="1"
     inkscape:current-layer="svg272" />
  <path
     stroke="none"
     fill="#000000"
     transform="matrix(0.0666667 0 0 0.0666667 -0.283359 -129.267)"
     d="M 4125.92,3105.93 L 4127.26,3111.57 L 4126.77,3118.85 L 4004.81,3227.62 L 3989.48,3227.62 L 4125.92,3105.93 L 4125.92,3105.93 Z "
     id="path2" />
  <path
     stroke="none"
     fill="#000000"
     transform="matrix(0.0666667 0 0 0.0666667 -0.283359 -129.267)"
     d="M 3762.35,3443.84 L 3762.75,3429.81 L 3884.71,3321.05 L 3900.04,3321.05 L 3762.35,3443.84 L 3762.35,3443.84 Z "
     id="path4" />
  <g
     aria-label="X"
     transform="matrix(0.0666667,0,0,0.0666667,27.6577,43.1823)"
     style="font-style:normal;font-weight:normal;font-size:160px;font-family:Arial;fill:#000000;stroke:none"
     id="text6">
    <path
       d="M 0.703125,0 45,-59.6875 5.9375,-114.53125 h 18.046875 l 20.78125,29.375 q 6.484375,9.140625 9.21875,14.0625 3.828125,-6.25 9.0625,-13.046875 L 86.09375,-114.53125 h 16.48438 L 62.34375,-60.546875 105.70313,0 H 86.953125 L 58.125,-40.859375 q -2.421875,-3.515625 -5,-7.65625 -3.828125,6.25 -5.46875,8.59375 L 18.90625,0 Z"
       style="font-style:normal;font-weight:normal;font-size:160px;font-family:Arial;fill:#000000;stroke:none"
       id="path1085"
       inkscape:connector-curvature="0" />
  </g>
  <path
     stroke="none"
     fill="#000000"
     transform="matrix(0.0666667 0 0 0.0666667 -0.283359 -129.267)"
     d="M 467.513,2297.5 L 472.616,2293.56 L 477.718,2297.49 L 477.718,2364.8 L 467.513,2362.13 L 467.513,2297.5 L 467.513,2297.5 Z "
     id="path8" />
  <path
     stroke="none"
     fill="#000000"
     transform="matrix(0.0666667 0 0 0.0666667 -0.283359 -129.267)"
     d="M 3139.52,3256.92 L 2760.4,3256.92 L 2760.4,3246.92 L 3139.52,3246.92 Z "
     id="path10" />
  <path
     stroke="none"
     fill="#000000"
     transform="matrix(0.0666667 0 0 0.0666667 -0.283359 -129.267)"
     d="M 2833.39,3277.53 L 3212.5,3277.53 L 3212.5,3287.53 L 2833.39,3287.53 Z "
     id="path12" />
  <path
     stroke="none"
     fill="#000000"
     transform="matrix(0.0666667 0 0 0.0666667 -0.283359 -129.267)"
     d="M 3227.81,3256.92 C 3227.81,3256.92 3138.52,3256.92 3138.52,3256.92 C 3138.52,3239.88 3125.77,3224.41 3125.77,3224.41 C 3125.77,3224.41 3227.81,3256.92 3227.81,3256.92 C 3227.81,3256.92 3227.81,3256.92 3227.81,3256.92 "
     id="path14" />
  <path
     stroke="#000000"
     stroke-width="1"
     fill="none"
     transform="matrix(0.0666667 0 0 0.0666667 -0.283359 -129.267)"
     d="M 3227.81,3256.92 C 3227.81,3256.92 3138.52,3256.92 3138.52,3256.92 C 3138.52,3239.88 3125.77,3224.41 3125.77,3224.41 C 3125.77,3224.41 3227.81,3256.92 3227.81,3256.92 C 3227.81,3256.92 3227.81,3256.92 3227.81,3256.92 "
     id="path16" />
  <path
     stroke="none"
     fill="#000000"
     transform="matrix(0.0666667 0 0 0.0666667 -0.283359 -129.267)"
     d="M 2745.1,3277.53 C 2745.1,3277.53 2847.14,3310.04 2847.14,3310.04 C 2847.14,3310.04 2834.39,3284.57 2834.39,3277.53 C 2834.39,3277.53 2745.1,3277.53 2745.1,3277.53 C 2745.1,3277.53 2745.1,3277.53 2745.1,3277.53 "
     id="path18" />
  <path
     stroke="#000000"
     stroke-width="1"
     fill="none"
     transform="matrix(0.0666667 0 0 0.0666667 -0.283359 -129.267)"
     d="M 2745.1,3277.53 C 2745.1,3277.53 2847.14,3310.04 2847.14,3310.04 C 2847.14,3310.04 2834.39,3284.57 2834.39,3277.53 C 2834.39,3277.53 2745.1,3277.53 2745.1,3277.53 C 2745.1,3277.53 2745.1,3277.53 2745.1,3277.53 "
     id="path20" />
  <g
     aria-label="O"
     transform="matrix(0.0666667,0,0,0.0666667,365.842,145.526)"
     style="font-style:normal;font-weight:normal;font-size:160px;font-family:Arial;fill:#000000;stroke:none"
     id="text22">
    <path
       d="m 7.734375,-55.78125 q 0,-28.515625 15.3125,-44.60938 15.3125,-16.17187 39.53125,-16.17187 15.859375,0 28.59375,7.57812 12.734375,7.57813 19.375005,21.17188 6.71875,13.515625 6.71875,30.703125 0,17.421875 -7.03125,31.171875 -7.03125,13.75 -19.92188,20.859375 -12.890625,7.03125 -27.8125,7.03125 -16.171875,0 -28.90625,-7.8125 -12.734375,-7.8125 -19.296875,-21.328125 -6.5625,-13.515625 -6.5625,-28.59375 z m 15.625,0.234375 q 0,20.703125 11.09375,32.65625 11.171875,11.875 27.96875,11.875 17.109375,0 28.125,-12.03125 11.093755,-12.03125 11.093755,-34.140625 0,-13.984375 -4.76563,-24.375 -4.6875,-10.46875 -13.828125,-16.171875 -9.0625,-5.781255 -20.390625,-5.781255 -16.09375,0 -27.734375,11.093755 -11.5625,11.015625 -11.5625,36.875 z"
       style="font-style:normal;font-weight:normal;font-size:160px;font-family:Arial;fill:#000000;stroke:none"
       id="path1088"
       inkscape:connector-curvature="0" />
  </g>
  <path
     stroke="none"
     fill="#000000"
     transform="matrix(0.0666667 0 0 0.0666667 -0.283359 -129.267)"
     d="M 5338.9,4098.81 L 5331.21,4117.23 L 5326.11,4140.14 L 5190.91,3905.98 L 5241.34,3929.82 L 5338.9,4098.81 Z "
     id="path24" />
  <path
     stroke="none"
     fill="#000000"
     transform="matrix(0.0666667 0 0 0.0666667 -0.283359 -129.267)"
     d="M 5470,4064.46 L 5478.04,4095.17 L 5336.31,4132.31 L 5331.21,4117.23 L 5338.9,4098.81 L 5470,4064.46 Z "
     id="path26" />
  <path
     stroke="none"
     fill="#000000"
     transform="matrix(0.0666667 0 0 0.0666667 -0.283359 -129.267)"
     d="M 5757.06,4096.04 L 5793.31,4138.43 L 5630.61,4095.54 L 5638.7,4064.84 L 5757.06,4096.04 Z "
     id="path28" />
  <path
     stroke="none"
     fill="#000000"
     transform="matrix(0.0666667 0 0 0.0666667 -0.283359 -129.267)"
     d="M 5657.64,3923.82 L 5660.12,3917.9 L 5674.05,3931.84 L 5793.31,4138.43 L 5757.06,4096.04 L 5657.64,3923.82 Z "
     id="path30" />
  <path
     stroke="none"
     fill="#000000"
     transform="matrix(0.0666667 0 0 0.0666667 -0.283359 -129.267)"
     d="M 5437.43,3981.49 L 5437.44,3970.94 L 5660.85,3912.43 L 5660.12,3917.9 L 5657.64,3923.82 L 5437.43,3981.49 Z "
     id="path32" />
  <path
     stroke="none"
     fill="#000000"
     transform="matrix(0.0666667 0 0 0.0666667 -0.283359 -129.267)"
     d="M 5241.34,3929.82 L 5190.91,3905.98 L 5437.44,3970.94 L 5437.43,3981.49 L 5241.34,3929.82 Z "
     id="path34" />
  <path
     stroke="none"
     fill="#000000"
     transform="matrix(0.0666667 0 0 0.0666667 -0.283359 -129.267)"
     d="M 5361.14,2553.89 L 5361.14,2567.9 L 5190.91,2407.61 L 5206.65,2408.41 L 5361.14,2553.89 L 5361.14,2553.89 Z "
     id="path36" />
  <path
     stroke="none"
     fill="#000000"
     transform="matrix(0.0666667 0 0 0.0666667 -0.283359 -129.267)"
     d="M 5206.65,2408.41 L 5190.91,2407.61 L 5356.04,2255.16 L 5361.14,2282.72 L 5366.88,2307.14 L 5206.65,2408.41 L 5206.65,2408.41 Z "
     id="path38" />
  <g
     aria-label="O"
     transform="matrix(0.0666667,0,0,0.0666667,374.693,43.769)"
     style="font-style:normal;font-weight:normal;font-size:160px;font-family:Arial;fill:#000000;stroke:none"
     id="text40">
    <path
       d="m 7.734375,-55.78125 q 0,-28.515625 15.3125,-44.60938 15.3125,-16.17187 39.53125,-16.17187 15.859375,0 28.59375,7.57812 12.734375,7.57813 19.375005,21.17188 6.71875,13.515625 6.71875,30.703125 0,17.421875 -7.03125,31.171875 -7.03125,13.75 -19.92188,20.859375 -12.890625,7.03125 -27.8125,7.03125 -16.171875,0 -28.90625,-7.8125 -12.734375,-7.8125 -19.296875,-21.328125 -6.5625,-13.515625 -6.5625,-28.59375 z m 15.625,0.234375 q 0,20.703125 11.09375,32.65625 11.171875,11.875 27.96875,11.875 17.109375,0 28.125,-12.03125 11.093755,-12.03125 11.093755,-34.140625 0,-13.984375 -4.76563,-24.375 -4.6875,-10.46875 -13.828125,-16.171875 -9.0625,-5.781255 -20.390625,-5.781255 -16.09375,0 -27.734375,11.093755 -11.5625,11.015625 -11.5625,36.875 z"
       style="font-style:normal;font-weight:normal;font-size:160px;font-family:Arial;fill:#000000;stroke:none"
       id="path1091"
       inkscape:connector-curvature="0" />
  </g>
  <path
     stroke="none"
     fill="#000000"
     transform="matrix(0.0666667 0 0 0.0666667 -0.283359 -129.267)"
     d="M 5840.87,2406.59 L 5856.63,2407.42 L 5764.6,2502.73 L 5735.61,2464.95 L 5840.87,2406.59 L 5840.87,2406.59 Z "
     id="path42" />
  <path
     stroke="none"
     fill="#000000"
     transform="matrix(0.0666667 0 0 0.0666667 -0.283359 -129.267)"
     d="M 5686.65,2261.37 L 5686.65,2254.36 L 5704.89,2264.53 L 5856.63,2407.42 L 5840.87,2406.59 L 5686.65,2261.37 L 5686.65,2261.37 Z "
     id="path44" />
  <path
     stroke="none"
     fill="#000000"
     transform="matrix(0.0666667 0 0 0.0666667 -0.283359 -129.267)"
     d="M 5361.14,2567.9 L 5361.14,2553.89 L 5488.91,2433.56 L 5497.11,2439.86 L 5361.14,2567.9 L 5361.14,2567.9 Z "
     id="path46" />
  <path
     stroke="none"
     fill="#000000"
     transform="matrix(0.0666667 0 0 0.0666667 -0.283359 -129.267)"
     d="M 5685.22,2248.7 L 5686.65,2254.36 L 5686.65,2261.37 L 5558.88,2381.69 L 5550.68,2375.4 L 5685.22,2248.7 L 5685.22,2248.7 Z "
     id="path48" />
  <path
     stroke="none"
     fill="#000000"
     transform="matrix(0.0666667 0 0 0.0666667 -0.283359 -129.267)"
     d="M 5366.88,2307.14 L 5361.14,2282.72 L 5366.24,2266.63 L 5633.49,2471.73 L 5614.17,2496.92 L 5366.88,2307.14 L 5366.88,2307.14 Z "
     id="path50" />
  <g
     aria-label="Nu"
     transform="matrix(0.0666667,0,0,0.0666667,318.911,75.761)"
     style="font-style:normal;font-weight:normal;font-size:151.55400085px;font-family:Arial;fill:#cc79a7;stroke:none"
     id="text52">
    <path
       d="m 11.544152,0 v -108.48543 h 14.726195 l 56.980752,85.175122 V -108.48543 H 97.015281 V 0 H 82.289086 L 25.308334,-85.249125 V 0 Z"
       style="font-style:normal;font-weight:normal;font-size:151.55400085px;font-family:Arial;fill:#cc79a7;stroke:none"
       id="path1094"
       inkscape:connector-curvature="0" />
    <path
       d="m 171.01626,0 v -11.544152 q -9.17612,13.3201754 -24.93833,13.3201754 -6.95609,0 -13.02417,-2.66403512 -5.99408,-2.66403518 -8.95412,-6.66008798 -2.88604,-4.0700533 -4.07006,-9.9161313 -0.81401,-3.922051 -0.81401,-12.432164 v -48.692643 h 13.32018 v 43.586576 q 0,10.434138 0.81401,14.060186 1.25802,5.254069 5.32807,8.288109 4.07005,2.960039 10.06413,2.960039 5.99408,0 11.24815,-3.03404 5.25407,-3.108041 7.4001,-8.36211 2.22003,-5.328071 2.22003,-15.392204 v -42.106556 h 13.32018 V 0 Z"
       style="font-style:normal;font-weight:normal;font-size:151.55400085px;font-family:Arial;fill:#cc79a7;stroke:none"
       id="path1096"
       inkscape:connector-curvature="0" />
  </g>
  <path
     stroke="#cc79a7"
     stroke-width="8"
     fill="none"
     transform="matrix(0.0666667 0 0 0.0666667 -0.283359 -129.267)"
     d="M 4957.84,2933 A 57.0818,57.0818 0 1 0 5072,2933A 57.0818,57.0818 0 1 0 4957.84,2933Z "
     id="path54" />
  <path
     stroke="none"
     fill="#cc79a7"
     transform="matrix(0.0666667 0 0 0.0666667 -0.283359 -129.267)"
     d="M 4983.48,2929.33 L 5047.02,2929.33 L 5047.02,2937.33 L 4983.48,2937.33 Z "
     id="path56" />
  <g
     aria-label="Nu"
     transform="matrix(0.0666667,0,0,0.0666667,318.911,108.44)"
     style="font-style:normal;font-weight:normal;font-size:151.55400085px;font-family:Arial;fill:#009e73;stroke:none"
     id="text58">
    <path
       d="m 11.544152,0 v -108.48543 h 14.726195 l 56.980752,85.175122 V -108.48543 H 97.015281 V 0 H 82.289086 L 25.308334,-85.249125 V 0 Z"
       style="font-style:normal;font-weight:normal;font-size:151.55400085px;font-family:Arial;fill:#009e73;stroke:none"
       id="path1099"
       inkscape:connector-curvature="0" />
    <path
       d="m 171.01626,0 v -11.544152 q -9.17612,13.3201754 -24.93833,13.3201754 -6.95609,0 -13.02417,-2.66403512 -5.99408,-2.66403518 -8.95412,-6.66008798 -2.88604,-4.0700533 -4.07006,-9.9161313 -0.81401,-3.922051 -0.81401,-12.432164 v -48.692643 h 13.32018 v 43.586576 q 0,10.434138 0.81401,14.060186 1.25802,5.254069 5.32807,8.288109 4.07005,2.960039 10.06413,2.960039 5.99408,0 11.24815,-3.03404 5.25407,-3.108041 7.4001,-8.36211 2.22003,-5.328071 2.22003,-15.392204 v -42.106556 h 13.32018 V 0 Z"
       style="font-style:normal;font-weight:normal;font-size:151.55400085px;font-family:Arial;fill:#009e73;stroke:none"
       id="path1101"
       inkscape:connector-curvature="0" />
  </g>
  <path
     stroke="#009e73"
     stroke-width="8"
     fill="none"
     transform="matrix(0.0666667 0 0 0.0666667 -0.283359 -129.267)"
     d="M 4957.84,3423.18 A 57.0818,57.0818 0 1 0 5072,3423.18A 57.0818,57.0818 0 1 0 4957.84,3423.18Z "
     id="path60" />
  <path
     stroke="none"
     fill="#009e73"
     transform="matrix(0.0666667 0 0 0.0666667 -0.283359 -129.267)"
     d="M 4983.48,3419.52 L 5047.02,3419.52 L 5047.02,3427.52 L 4983.48,3427.52 Z "
     id="path62" />
  <g
     aria-label="Nu"
     transform="matrix(0.0666667,0,0,0.0666667,353.259,11.77)"
     style="font-style:normal;font-weight:normal;font-size:160px;font-family:Arial;fill:#cc79a7;stroke:none"
     id="text64">
    <path
       d="m 12.1875,0 v -114.53125 h 15.546875 l 60.15625,89.921875 V -114.53125 H 102.42188 V 0 H 86.875 L 26.71875,-90 V 0 Z"
       style="font-style:normal;font-weight:normal;font-size:160px;font-family:Arial;fill:#cc79a7;stroke:none"
       id="path1104"
       inkscape:connector-curvature="0" />
    <path
       d="m 180.54687,0 v -12.1875 q -9.6875,14.0625 -26.32812,14.0625 -7.34375,0 -13.75,-2.8125 -6.32813,-2.8125 -9.45313,-7.03125 -3.04687,-4.296875 -4.29687,-10.46875 -0.85937,-4.140625 -0.85937,-13.125 v -51.40625 h 14.06249 v 46.015625 q 0,11.015625 0.85938,14.84375 1.32812,5.546875 5.625,8.75 4.29687,3.125 10.625,3.125 6.32812,0 11.875,-3.203125 5.54687,-3.28125 7.8125,-8.828125 2.34375,-5.625 2.34375,-16.25 V -82.96875 H 193.125 V 0 Z"
       style="font-style:normal;font-weight:normal;font-size:160px;font-family:Arial;fill:#cc79a7;stroke:none"
       id="path1106"
       inkscape:connector-curvature="0" />
  </g>
  <path
     stroke="none"
     fill="#cc79a7"
     transform="matrix(0.0666667 0 0 0.0666667 -0.283359 -129.267)"
     d="M 5356.04,2141.55 L 5366.24,2141.55 L 5366.24,2266.63 L 5361.14,2282.72 L 5356.04,2255.16 L 5356.04,2141.55 L 5356.04,2141.55 Z "
     id="path66" />
  <g
     aria-label="Nu"
     transform="matrix(0.0666667,0,0,0.0666667,351.264,164.76)"
     style="font-style:normal;font-weight:normal;font-size:160px;font-family:Arial;fill:#009e73;stroke:none"
     id="text68">
    <path
       d="m 12.1875,0 v -114.53125 h 15.546875 l 60.15625,89.921875 V -114.53125 H 102.42188 V 0 H 86.875 L 26.71875,-90 V 0 Z"
       style="font-style:normal;font-weight:normal;font-size:160px;font-family:Arial;fill:#009e73;stroke:none"
       id="path1109"
       inkscape:connector-curvature="0" />
    <path
       d="m 180.54687,0 v -12.1875 q -9.6875,14.0625 -26.32812,14.0625 -7.34375,0 -13.75,-2.8125 -6.32813,-2.8125 -9.45313,-7.03125 -3.04687,-4.296875 -4.29687,-10.46875 -0.85937,-4.140625 -0.85937,-13.125 v -51.40625 h 14.06249 v 46.015625 q 0,11.015625 0.85938,14.84375 1.32812,5.546875 5.625,8.75 4.29687,3.125 10.625,3.125 6.32812,0 11.875,-3.203125 5.54687,-3.28125 7.8125,-8.828125 2.34375,-5.625 2.34375,-16.25 V -82.96875 H 193.125 V 0 Z"
       style="font-style:normal;font-weight:normal;font-size:160px;font-family:Arial;fill:#009e73;stroke:none"
       id="path1111"
       inkscape:connector-curvature="0" />
  </g>
  <path
     stroke="none"
     fill="#009e73"
     transform="matrix(0.0666667 0 0 0.0666667 -0.283359 -129.267)"
     d="M 5336.31,4271.41 L 5326.11,4271.41 L 5326.11,4140.14 L 5331.21,4117.23 L 5336.31,4132.31 L 5336.31,4271.41 Z "
     id="path70" />
  <g
     aria-label="X"
     transform="matrix(0.0666667,0,0,0.0666667,386.78,143.799)"
     style="font-style:normal;font-weight:normal;font-size:160px;font-family:Arial;fill:#000000;stroke:none"
     id="text72">
    <path
       d="M 0.703125,0 45,-59.6875 5.9375,-114.53125 h 18.046875 l 20.78125,29.375 q 6.484375,9.140625 9.21875,14.0625 3.828125,-6.25 9.0625,-13.046875 L 86.09375,-114.53125 h 16.48438 L 62.34375,-60.546875 105.70313,0 H 86.953125 L 58.125,-40.859375 q -2.421875,-3.515625 -5,-7.65625 -3.828125,6.25 -5.46875,8.59375 L 18.90625,0 Z"
       style="font-style:normal;font-weight:normal;font-size:160px;font-family:Arial;fill:#000000;stroke:none"
       id="path1114"
       inkscape:connector-curvature="0" />
  </g>
  <path
     stroke="none"
     fill="#000000"
     transform="matrix(0.0666667 0 0 0.0666667 -0.283359 -129.267)"
     d="M 5782.96,3982.93 L 5777.86,3991.77 L 5674.05,3931.84 L 5660.12,3917.9 L 5660.85,3912.43 L 5782.96,3982.93 Z "
     id="path74" />
  <g
     aria-label="X"
     transform="matrix(0.0666667,0,0,0.0666667,390.082,29.1958)"
     style="font-style:normal;font-weight:normal;font-size:160px;font-family:Arial;fill:#000000;stroke:none"
     id="text76">
    <path
       d="M 0.703125,0 45,-59.6875 5.9375,-114.53125 h 18.046875 l 20.78125,29.375 q 6.484375,9.140625 9.21875,14.0625 3.828125,-6.25 9.0625,-13.046875 L 86.09375,-114.53125 h 16.48438 L 62.34375,-60.546875 105.70313,0 H 86.953125 L 58.125,-40.859375 q -2.421875,-3.515625 -5,-7.65625 -3.828125,6.25 -5.46875,8.59375 L 18.90625,0 Z"
       style="font-style:normal;font-weight:normal;font-size:160px;font-family:Arial;fill:#000000;stroke:none"
       id="path1117"
       inkscape:connector-curvature="0" />
  </g>
  <path
     stroke="none"
     fill="#000000"
     transform="matrix(0.0666667 0 0 0.0666667 -0.283359 -129.267)"
     d="M 5835.72,2289.02 L 5833.08,2298.88 L 5704.89,2264.53 L 5686.65,2254.36 L 5685.22,2248.7 L 5835.72,2289.02 L 5835.72,2289.02 Z "
     id="path78" />
  <g
     aria-label="O"
     transform="matrix(0.0666667,0,0,0.0666667,34.1726,37.2388)"
     style="font-style:normal;font-weight:normal;font-size:160px;font-family:Arial;fill:#000000;stroke:none"
     id="text80">
    <path
       d="m 7.734375,-55.78125 q 0,-28.515625 15.3125,-44.60938 15.3125,-16.17187 39.53125,-16.17187 15.859375,0 28.59375,7.57812 12.734375,7.57813 19.375005,21.17188 6.71875,13.515625 6.71875,30.703125 0,17.421875 -7.03125,31.171875 -7.03125,13.75 -19.92188,20.859375 -12.890625,7.03125 -27.8125,7.03125 -16.171875,0 -28.90625,-7.8125 -12.734375,-7.8125 -19.296875,-21.328125 -6.5625,-13.515625 -6.5625,-28.59375 z m 15.625,0.234375 q 0,20.703125 11.09375,32.65625 11.171875,11.875 27.96875,11.875 17.109375,0 28.125,-12.03125 11.093755,-12.03125 11.093755,-34.140625 0,-13.984375 -4.76563,-24.375 -4.6875,-10.46875 -13.828125,-16.171875 -9.0625,-5.781255 -20.390625,-5.781255 -16.09375,0 -27.734375,11.093755 -11.5625,11.015625 -11.5625,36.875 z"
       style="font-style:normal;font-weight:normal;font-size:160px;font-family:Arial;fill:#000000;stroke:none"
       id="path1120"
       inkscape:connector-curvature="0" />
  </g>
  <path
     stroke="none"
     fill="#000000"
     transform="matrix(0.0666667 0 0 0.0666667 -0.283359 -129.267)"
     d="M 632.283,2373.76 L 604.789,2357.89 L 668.715,2247.17 L 719.137,2223.33 L 632.283,2373.76 Z "
     id="path82" />
  <path
     stroke="none"
     fill="#000000"
     transform="matrix(0.0666667 0 0 0.0666667 -0.283359 -129.267)"
     d="M 356.187,2392.66 L 356.175,2376.25 L 361.277,2361.17 L 506.273,2399.16 L 498.227,2429.87 L 356.187,2392.66 Z "
     id="path84" />
  <path
     stroke="none"
     fill="#000000"
     transform="matrix(0.0666667 0 0 0.0666667 -0.283359 -129.267)"
     d="M 116.739,2455.78 L 152.991,2413.39 L 351.072,2361.17 L 356.175,2376.25 L 356.187,2392.66 L 116.739,2455.78 Z "
     id="path86" />
  <path
     stroke="none"
     fill="#000000"
     transform="matrix(0.0666667 0 0 0.0666667 -0.283359 -129.267)"
     d="M 247.462,2229.33 L 252.407,2241.17 L 152.991,2413.39 L 116.739,2455.78 L 247.462,2229.33 Z "
     id="path88" />
  <path
     stroke="none"
     fill="#000000"
     transform="matrix(0.0666667 0 0 0.0666667 -0.283359 -129.267)"
     d="M 472.612,2288.29 L 472.616,2293.56 L 467.513,2297.5 L 387.277,2276.49 L 387.277,2265.94 L 472.612,2288.29 L 472.612,2288.29 Z "
     id="path90" />
  <path
     stroke="none"
     fill="#000000"
     transform="matrix(0.0666667 0 0 0.0666667 -0.283359 -129.267)"
     d="M 252.407,2241.17 L 247.462,2229.33 L 325.073,2249.65 L 325.073,2260.2 L 252.407,2241.17 L 252.407,2241.17 Z "
     id="path92" />
  <path
     stroke="none"
     fill="#000000"
     transform="matrix(0.0666667 0 0 0.0666667 -0.283359 -129.267)"
     d="M 719.137,2223.33 L 668.715,2247.17 L 477.718,2297.49 L 472.616,2293.56 L 472.612,2288.29 L 719.137,2223.33 Z "
     id="path94" />
  <path
     stroke="none"
     fill="#000000"
     transform="matrix(0.0666667 0 0 0.0666667 -0.283359 -129.267)"
     d="M 223.655,3942.94 L 223.655,3956.96 L 69.1714,4102.44 L 53.4322,4103.24 L 223.655,3942.94 Z "
     id="path96" />
  <path
     stroke="none"
     fill="#000000"
     transform="matrix(0.0666667 0 0 0.0666667 -0.283359 -129.267)"
     d="M 53.4322,4103.24 L 69.1714,4102.44 L 229.402,4203.7 L 223.655,4228.12 L 218.553,4255.69 L 53.4322,4103.24 Z "
     id="path98" />
  <g
     aria-label="O"
     transform="matrix(0.0666667,0,0,0.0666667,32.1946,140.154)"
     style="font-style:normal;font-weight:normal;font-size:160px;font-family:Arial;fill:#000000;stroke:none"
     id="text100">
    <path
       d="m 7.734375,-55.78125 q 0,-28.515625 15.3125,-44.60938 15.3125,-16.17187 39.53125,-16.17187 15.859375,0 28.59375,7.57812 12.734375,7.57813 19.375005,21.17188 6.71875,13.515625 6.71875,30.703125 0,17.421875 -7.03125,31.171875 -7.03125,13.75 -19.92188,20.859375 -12.890625,7.03125 -27.8125,7.03125 -16.171875,0 -28.90625,-7.8125 -12.734375,-7.8125 -19.296875,-21.328125 -6.5625,-13.515625 -6.5625,-28.59375 z m 15.625,0.234375 q 0,20.703125 11.09375,32.65625 11.171875,11.875 27.96875,11.875 17.109375,0 28.125,-12.03125 11.093755,-12.03125 11.093755,-34.140625 0,-13.984375 -4.76563,-24.375 -4.6875,-10.46875 -13.828125,-16.171875 -9.0625,-5.781255 -20.390625,-5.781255 -16.09375,0 -27.734375,11.093755 -11.5625,11.015625 -11.5625,36.875 z"
       style="font-style:normal;font-weight:normal;font-size:160px;font-family:Arial;fill:#000000;stroke:none"
       id="path1123"
       inkscape:connector-curvature="0" />
  </g>
  <path
     stroke="none"
     fill="#000000"
     transform="matrix(0.0666667 0 0 0.0666667 -0.283359 -129.267)"
     d="M 719.101,4103.47 L 703.337,4104.3 L 604.562,4050.84 L 633.555,4013.06 L 719.101,4103.47 Z "
     id="path102" />
  <path
     stroke="none"
     fill="#000000"
     transform="matrix(0.0666667 0 0 0.0666667 -0.283359 -129.267)"
     d="M 554.271,4258.69 L 549.169,4256.48 L 549.169,4249.48 L 703.337,4104.3 L 719.101,4103.47 L 554.271,4258.69 Z "
     id="path104" />
  <path
     stroke="none"
     fill="#000000"
     transform="matrix(0.0666667 0 0 0.0666667 -0.283359 -129.267)"
     d="M 223.655,3956.96 L 223.655,3942.94 L 359.629,4070.99 L 351.428,4077.28 L 223.655,3956.96 L 223.655,3956.96 Z "
     id="path106" />
  <path
     stroke="none"
     fill="#000000"
     transform="matrix(0.0666667 0 0 0.0666667 -0.283359 -129.267)"
     d="M 549.169,4249.48 L 549.169,4256.48 L 544.067,4258.69 L 413.195,4135.45 L 421.396,4129.15 L 549.169,4249.48 L 549.169,4249.48 Z "
     id="path108" />
  <path
     stroke="none"
     fill="#000000"
     transform="matrix(0.0666667 0 0 0.0666667 -0.283359 -129.267)"
     d="M 228.757,4244.22 L 223.655,4228.12 L 229.402,4203.7 L 470.537,4018.65 L 489.865,4043.83 L 228.757,4244.22 Z "
     id="path110" />
  <g
     aria-label="X"
     transform="matrix(0.0666667,0,0,0.0666667,32.7612,174.044)"
     style="font-style:normal;font-weight:normal;font-size:160px;font-family:Arial;fill:#000000;stroke:none"
     id="text112">
    <path
       d="M 0.703125,0 45,-59.6875 5.9375,-114.53125 h 18.046875 l 20.78125,29.375 q 6.484375,9.140625 9.21875,14.0625 3.828125,-6.25 9.0625,-13.046875 L 86.09375,-114.53125 h 16.48438 L 62.34375,-60.546875 105.70313,0 H 86.953125 L 58.125,-40.859375 q -2.421875,-3.515625 -5,-7.65625 -3.828125,6.25 -5.46875,8.59375 L 18.90625,0 Z"
       style="font-style:normal;font-weight:normal;font-size:160px;font-family:Arial;fill:#000000;stroke:none"
       id="path1126"
       inkscape:connector-curvature="0" />
  </g>
  <path
     stroke="none"
     fill="#000000"
     transform="matrix(0.0666667 0 0 0.0666667 -0.283359 -129.267)"
     d="M 554.271,4410.66 L 544.067,4410.66 L 544.067,4258.69 L 549.169,4256.48 L 554.271,4258.69 L 554.271,4410.66 Z "
     id="path114" />
  <g
     aria-label="Nu"
     transform="matrix(0.0666667,0,0,0.0666667,19.595,18.0049)"
     style="font-style:normal;font-weight:normal;font-size:160px;font-family:Arial;fill:#009e73;stroke:none"
     id="text116">
    <path
       d="m 12.1875,0 v -114.53125 h 15.546875 l 60.15625,89.921875 V -114.53125 H 102.42188 V 0 H 86.875 L 26.71875,-90 V 0 Z"
       style="font-style:normal;font-weight:normal;font-size:160px;font-family:Arial;fill:#009e73;stroke:none"
       id="path1129"
       inkscape:connector-curvature="0" />
    <path
       d="m 180.54687,0 v -12.1875 q -9.6875,14.0625 -26.32812,14.0625 -7.34375,0 -13.75,-2.8125 -6.32813,-2.8125 -9.45313,-7.03125 -3.04687,-4.296875 -4.29687,-10.46875 -0.85937,-4.140625 -0.85937,-13.125 v -51.40625 h 14.06249 v 46.015625 q 0,11.015625 0.85938,14.84375 1.32812,5.546875 5.625,8.75 4.29687,3.125 10.625,3.125 6.32812,0 11.875,-3.203125 5.54687,-3.28125 7.8125,-8.828125 2.34375,-5.625 2.34375,-16.25 V -82.96875 H 193.125 V 0 Z"
       style="font-style:normal;font-weight:normal;font-size:160px;font-family:Arial;fill:#009e73;stroke:none"
       id="path1131"
       inkscape:connector-curvature="0" />
  </g>
  <path
     stroke="none"
     fill="#009e73"
     transform="matrix(0.0666667 0 0 0.0666667 -0.283359 -129.267)"
     d="M 351.072,2235.07 L 361.277,2235.07 L 361.277,2361.17 L 356.175,2376.25 L 351.072,2361.17 L 351.072,2235.07 Z "
     id="path118" />
  <g
     aria-label="Nu"
     transform="matrix(0.0666667,0,0,0.0666667,10.7603,172.153)"
     style="font-style:normal;font-weight:normal;font-size:160px;font-family:Arial;fill:#cc79a7;stroke:none"
     id="text120">
    <path
       d="m 12.1875,0 v -114.53125 h 15.546875 l 60.15625,89.921875 V -114.53125 H 102.42188 V 0 H 86.875 L 26.71875,-90 V 0 Z"
       style="font-style:normal;font-weight:normal;font-size:160px;font-family:Arial;fill:#cc79a7;stroke:none"
       id="path1134"
       inkscape:connector-curvature="0" />
    <path
       d="m 180.54687,0 v -12.1875 q -9.6875,14.0625 -26.32812,14.0625 -7.34375,0 -13.75,-2.8125 -6.32813,-2.8125 -9.45313,-7.03125 -3.04687,-4.296875 -4.29687,-10.46875 -0.85937,-4.140625 -0.85937,-13.125 v -51.40625 h 14.06249 v 46.015625 q 0,11.015625 0.85938,14.84375 1.32812,5.546875 5.625,8.75 4.29687,3.125 10.625,3.125 6.32812,0 11.875,-3.203125 5.54687,-3.28125 7.8125,-8.828125 2.34375,-5.625 2.34375,-16.25 V -82.96875 H 193.125 V 0 Z"
       style="font-style:normal;font-weight:normal;font-size:160px;font-family:Arial;fill:#cc79a7;stroke:none"
       id="path1136"
       inkscape:connector-curvature="0" />
  </g>
  <path
     stroke="none"
     fill="#cc79a7"
     transform="matrix(0.0666667 0 0 0.0666667 -0.283359 -129.267)"
     d="M 228.757,4382.3 L 218.553,4382.3 L 218.553,4255.69 L 223.655,4228.12 L 228.757,4244.22 L 228.757,4382.3 Z "
     id="path122" />
  <text
     x="281.79993"
     y="140.172"
     font-style="normal"
     font-weight="normal"
     font-size="151.554px"
     id="text124"
     style="font-style:normal;font-weight:normal;font-size:10.10360527px;font-family:Arial;fill:#009e73;stroke:none;stroke-width:0.0666667;text-anchor:middle;text-align:center;">preferowane</text>
  <text
     x="103.11487"
     y="140.172"
     font-style="normal"
     font-weight="normal"
     font-size="151.554px"
     id="text126"
     style="font-style:normal;font-weight:normal;font-size:10.10360527px;font-family:Arial;fill:#cc79a7;stroke:none;stroke-width:0.0666667;text-anchor:middle;text-align:center;">niekorzystne</text>
  <text
     x="281.79996"
     y="44.502998"
     font-style="normal"
     font-weight="normal"
     font-size="151.554px"
     id="text128"
     style="font-style:normal;font-weight:normal;font-size:10.10360527px;font-family:Arial;fill:#cc79a7;stroke:none;stroke-width:0.0666667;text-anchor:middle;text-align:center;">niekorzystne</text>
  <text
     x="103.11487"
     y="44.502998"
     font-style="normal"
     font-weight="normal"
     font-size="151.554px"
     id="text130"
     style="font-style:normal;font-weight:normal;font-size:10.10360527px;font-family:Arial;fill:#009e73;stroke:none;stroke-width:0.0666667;text-anchor:middle;text-align:center;">preferowane</text>
  <g
     aria-label="O"
     transform="matrix(0.0666667,0,0,0.0666667,266.24,93.2221)"
     style="font-style:normal;font-weight:normal;font-size:160px;font-family:Arial;fill:#000000;stroke:none"
     id="text132">
    <path
       d="m 7.734375,-55.78125 q 0,-28.515625 15.3125,-44.60938 15.3125,-16.17187 39.53125,-16.17187 15.859375,0 28.59375,7.57812 12.734375,7.57813 19.375005,21.17188 6.71875,13.515625 6.71875,30.703125 0,17.421875 -7.03125,31.171875 -7.03125,13.75 -19.92188,20.859375 -12.890625,7.03125 -27.8125,7.03125 -16.171875,0 -28.90625,-7.8125 -12.734375,-7.8125 -19.296875,-21.328125 -6.5625,-13.515625 -6.5625,-28.59375 z m 15.625,0.234375 q 0,20.703125 11.09375,32.65625 11.171875,11.875 27.96875,11.875 17.109375,0 28.125,-12.03125 11.093755,-12.03125 11.093755,-34.140625 0,-13.984375 -4.76563,-24.375 -4.6875,-10.46875 -13.828125,-16.171875 -9.0625,-5.781255 -20.390625,-5.781255 -16.09375,0 -27.734375,11.093755 -11.5625,11.015625 -11.5625,36.875 z"
       style="font-style:normal;font-weight:normal;font-size:160px;font-family:Arial;fill:#000000;stroke:none"
       id="path1139"
       inkscape:connector-curvature="0" />
  </g>
  <path
     stroke="none"
     fill="#000000"
     transform="matrix(0.0666667 0 0 0.0666667 -0.283359 -129.267)"
     d="M 3979.85,3248.51 L 3979.85,3258.72 L 3829.67,3258.72 L 3829.67,3248.51 L 3979.85,3248.51 Z "
     id="path134" />
  <path
     stroke="none"
     fill="#000000"
     transform="matrix(0.0666667 0 0 0.0666667 -0.283359 -129.267)"
     d="M 3979.85,3289.94 L 3979.85,3300.15 L 3829.67,3300.15 L 3829.67,3289.94 L 3979.85,3289.94 Z "
     id="path136" />
  <path
     stroke="none"
     fill="#000000"
     transform="matrix(0.0666667 0 0 0.0666667 -0.283359 -129.267)"
     d="M 4245.39,3258.46 L 4345.35,3290.2 L 4140.85,3290.2 L 4140.85,3258.46 L 4245.39,3258.46 Z "
     id="path138" />
  <path
     stroke="none"
     fill="#000000"
     transform="matrix(0.0666667 0 0 0.0666667 -0.283359 -129.267)"
     d="M 3644.13,3290.2 L 3544.16,3258.46 L 3829.67,3258.46 L 3829.67,3290.2 L 3644.13,3290.2 Z "
     id="path140" />
  <path
     stroke="none"
     fill="#000000"
     transform="matrix(0.0666667 0 0 0.0666667 -0.283359 -129.267)"
     d="M 4126.77,3118.85 L 4127.26,3111.57 L 4147.81,3122.36 L 4345.35,3290.2 L 4245.39,3258.46 L 4126.77,3118.85 Z "
     id="path142" />
  <path
     stroke="none"
     fill="#000000"
     transform="matrix(0.0666667 0 0 0.0666667 -0.283359 -129.267)"
     d="M 3762.75,3429.81 L 3762.35,3443.84 L 3544.16,3258.46 L 3644.13,3290.2 L 3762.75,3429.81 Z "
     id="path144" />
  <path
     stroke="none"
     fill="#000000"
     transform="matrix(0.0666667 0 0 0.0666667 -0.283359 -129.267)"
     d="M 1836.24,3118.85 L 1835.84,3104.82 L 1973.53,3227.62 L 1958.2,3227.62 L 1836.24,3118.85 L 1836.24,3118.85 Z "
     id="path146" />
  <path
     stroke="none"
     fill="#000000"
     transform="matrix(0.0666667 0 0 0.0666667 -0.283359 -129.267)"
     d="M 2200.26,3429.81 L 2200.75,3437.09 L 2195.65,3439.37 L 2062.97,3321.05 L 2078.3,3321.05 L 2200.26,3429.81 L 2200.26,3429.81 Z "
     id="path148" />
  <g
     aria-label="O"
     transform="matrix(0.0666667,0,0,0.0666667,137.806,93.2221)"
     style="font-style:normal;font-weight:normal;font-size:160px;font-family:Arial;fill:#000000;stroke:none"
     id="text150">
    <path
       d="m 7.734375,-55.78125 q 0,-28.515625 15.3125,-44.60938 15.3125,-16.17187 39.53125,-16.17187 15.859375,0 28.59375,7.57812 12.734375,7.57813 19.375005,21.17188 6.71875,13.515625 6.71875,30.703125 0,17.421875 -7.03125,31.171875 -7.03125,13.75 -19.92188,20.859375 -12.890625,7.03125 -27.8125,7.03125 -16.171875,0 -28.90625,-7.8125 -12.734375,-7.8125 -19.296875,-21.328125 -6.5625,-13.515625 -6.5625,-28.59375 z m 15.625,0.234375 q 0,20.703125 11.09375,32.65625 11.171875,11.875 27.96875,11.875 17.109375,0 28.125,-12.03125 11.093755,-12.03125 11.093755,-34.140625 0,-13.984375 -4.76563,-24.375 -4.6875,-10.46875 -13.828125,-16.171875 -9.0625,-5.781255 -20.390625,-5.781255 -16.09375,0 -27.734375,11.093755 -11.5625,11.015625 -11.5625,36.875 z"
       style="font-style:normal;font-weight:normal;font-size:160px;font-family:Arial;fill:#000000;stroke:none"
       id="path1142"
       inkscape:connector-curvature="0" />
  </g>
  <path
     stroke="none"
     fill="#000000"
     transform="matrix(0.0666667 0 0 0.0666667 -0.283359 -129.267)"
     d="M 1903.16,3300.15 L 1903.16,3289.94 L 2053.33,3289.94 L 2053.33,3300.15 L 1903.16,3300.15 Z "
     id="path152" />
  <path
     stroke="none"
     fill="#000000"
     transform="matrix(0.0666667 0 0 0.0666667 -0.283359 -129.267)"
     d="M 1903.16,3258.72 L 1903.16,3248.51 L 2053.33,3248.51 L 2053.33,3258.72 L 1903.16,3258.72 Z "
     id="path154" />
  <path
     stroke="none"
     fill="#000000"
     transform="matrix(0.0666667 0 0 0.0666667 -0.283359 -129.267)"
     d="M 1617.65,3290.2 L 1717.62,3258.46 L 1903.16,3258.46 L 1903.16,3290.2 L 1617.65,3290.2 Z "
     id="path156" />
  <path
     stroke="none"
     fill="#000000"
     transform="matrix(0.0666667 0 0 0.0666667 -0.283359 -129.267)"
     d="M 2418.84,3258.46 L 2318.88,3290.2 L 2214.33,3290.2 L 2214.33,3258.46 L 2418.84,3258.46 Z "
     id="path158" />
  <path
     stroke="none"
     fill="#000000"
     transform="matrix(0.0666667 0 0 0.0666667 -0.283359 -129.267)"
     d="M 1835.84,3104.82 L 1836.24,3118.85 L 1717.62,3258.46 L 1617.65,3290.2 L 1835.84,3104.82 Z "
     id="path160" />
  <path
     stroke="none"
     fill="#000000"
     transform="matrix(0.0666667 0 0 0.0666667 -0.283359 -129.267)"
     d="M 2205.85,3439.43 L 2200.75,3437.09 L 2200.26,3429.81 L 2318.88,3290.2 L 2418.84,3258.46 L 2205.85,3439.43 Z "
     id="path162" />
  <path
     stroke="#000000"
     stroke-width="8"
     fill="none"
     transform="matrix(0.0666667 0 0 0.0666667 -0.283359 -129.267)"
     d="M 2184.53,3165.6 A 57.0818,57.0818 0 1 0 2298.69,3165.6A 57.0818,57.0818 0 1 0 2184.53,3165.6Z "
     id="path164" />
  <path
     stroke="none"
     fill="#000000"
     transform="matrix(0.0666667 0 0 0.0666667 -0.283359 -129.267)"
     d="M 2210.17,3161.94 L 2273.71,3161.94 L 2273.71,3169.94 L 2210.17,3169.94 Z "
     id="path166" />
  <path
     stroke="none"
     fill="#000000"
     transform="matrix(0.0666667 0 0 0.0666667 -0.283359 -129.267)"
     d="M 2245.94,3134.17 L 2245.94,3197.71 L 2237.94,3197.71 L 2237.94,3134.17 Z "
     id="path168" />
  <path
     stroke="#000000"
     stroke-width="8"
     fill="none"
     transform="matrix(0.0666667 0 0 0.0666667 -0.283359 -129.267)"
     d="M 4111.04,3385.83 A 57.0818,57.0818 0 1 0 4225.2,3385.83A 57.0818,57.0818 0 1 0 4111.04,3385.83Z "
     id="path170" />
  <path
     stroke="none"
     fill="#000000"
     transform="matrix(0.0666667 0 0 0.0666667 -0.283359 -129.267)"
     d="M 4136.68,3382.17 L 4200.22,3382.17 L 4200.22,3390.17 L 4136.68,3390.17 Z "
     id="path172" />
  <path
     stroke="none"
     fill="#000000"
     transform="matrix(0.0666667 0 0 0.0666667 -0.283359 -129.267)"
     d="M 4172.45,3354.4 L 4172.45,3417.93 L 4164.45,3417.93 L 4164.45,3354.4 Z "
     id="path174" />
  <g
     aria-label="X"
     transform="matrix(0.0666667,0,0,0.0666667,286.123,86.3431)"
     style="font-style:normal;font-weight:normal;font-size:160px;font-family:Arial;fill:#000000;stroke:none"
     id="text176">
    <path
       d="M 0.703125,0 45,-59.6875 5.9375,-114.53125 h 18.046875 l 20.78125,29.375 q 6.484375,9.140625 9.21875,14.0625 3.828125,-6.25 9.0625,-13.046875 L 86.09375,-114.53125 h 16.48438 L 62.34375,-60.546875 105.70313,0 H 86.953125 L 58.125,-40.859375 q -2.421875,-3.515625 -5,-7.65625 -3.828125,6.25 -5.46875,8.59375 L 18.90625,0 Z"
       style="font-style:normal;font-weight:normal;font-size:160px;font-family:Arial;fill:#000000;stroke:none"
       id="path1145"
       inkscape:connector-curvature="0" />
  </g>
  <path
     stroke="none"
     fill="#000000"
     transform="matrix(0.0666667 0 0 0.0666667 -0.283359 -129.267)"
     d="M 4276.33,3146.23 L 4273.69,3156.09 L 4147.81,3122.36 L 4127.26,3111.57 L 4125.92,3105.93 L 4276.33,3146.23 Z "
     id="path178" />
  <g
     aria-label="X"
     transform="matrix(0.0666667,0,0,0.0666667,142.867,119.417)"
     style="font-style:normal;font-weight:normal;font-size:160px;font-family:Arial;fill:#000000;stroke:none"
     id="text180">
    <path
       d="M 0.703125,0 45,-59.6875 5.9375,-114.53125 h 18.046875 l 20.78125,29.375 q 6.484375,9.140625 9.21875,14.0625 3.828125,-6.25 9.0625,-13.046875 L 86.09375,-114.53125 h 16.48438 L 62.34375,-60.546875 105.70313,0 H 86.953125 L 58.125,-40.859375 q -2.421875,-3.515625 -5,-7.65625 -3.828125,6.25 -5.46875,8.59375 L 18.90625,0 Z"
       style="font-style:normal;font-weight:normal;font-size:160px;font-family:Arial;fill:#000000;stroke:none"
       id="path1148"
       inkscape:connector-curvature="0" />
  </g>
  <path
     stroke="none"
     fill="#000000"
     transform="matrix(0.0666667 0 0 0.0666667 -0.283359 -129.267)"
     d="M 2205.85,3591.26 L 2195.65,3591.26 L 2195.65,3439.37 L 2200.75,3437.09 L 2205.85,3439.43 L 2205.85,3591.26 Z "
     id="path182" />
  <path
     stroke="none"
     fill="#009e73"
     transform="matrix(0.0666667 0 0 0.0666667 -0.283359 -129.267)"
     d="M 560.167,3184.08 L 1417.01,3184.08 L 1417.01,3194.08 L 560.167,3194.08 Z "
     id="path184" />
  <path
     stroke="none"
     fill="#009e73"
     transform="matrix(0.0666667 0 0 0.0666667 -0.283359 -129.267)"
     d="M 565.167,2879.54 L 565.167,3189.08 L 555.167,3189.08 L 555.167,2879.54 Z "
     id="path186" />
  <path
     d="m 37.061126,56.80775 c 0,0 1.767468,6.803337 1.767468,6.803337 0,0 -0.994201,-0.850667 -1.767468,-0.850667 -0.8024,0 -1.834067,0.850667 -1.834067,0.850667 0,0 1.834067,-6.803337 1.834067,-6.803337 0,0 0,0 0,0"
     id="path188"
     inkscape:connector-curvature="0"
     style="fill:#009e73;stroke:none;stroke-width:0.0666667" />
  <path
     stroke="#009e73"
     stroke-width="1"
     fill="none"
     transform="matrix(0.0666667 0 0 0.0666667 -0.283359 -129.267)"
     d="M 560.167,2791.25 C 560.167,2791.25 586.679,2893.3 586.679,2893.3 C 586.679,2893.3 571.766,2880.54 560.167,2880.54 C 548.131,2880.54 532.656,2893.3 532.656,2893.3 C 532.656,2893.3 560.167,2791.25 560.167,2791.25 C 560.167,2791.25 560.167,2791.25 560.167,2791.25 "
     id="path190" />
  <path
     stroke="none"
     fill="#cc79a7"
     transform="matrix(0.0666667 0 0 0.0666667 -0.283359 -129.267)"
     d="M 560.167,3273.12 L 1417.01,3273.12 L 1417.01,3283.12 L 560.167,3283.12 Z "
     id="path192" />
  <path
     stroke="none"
     fill="#cc79a7"
     transform="matrix(0.0666667 0 0 0.0666667 -0.283359 -129.267)"
     d="M 555.167,3587.66 L 555.167,3278.12 L 565.167,3278.12 L 565.167,3587.66 Z "
     id="path194" />
  <path
     d="m 37.061126,115.80513 c 0,0 -1.834067,-6.80267 -1.834067,-6.80267 0,0 1.031667,0.85 1.834067,0.85 0.773267,0 1.767468,-0.85 1.767468,-0.85 0,0 -1.767468,6.80267 -1.767468,6.80267 0,0 0,0 0,0"
     id="path196"
     inkscape:connector-curvature="0"
     style="fill:#cc79a7;stroke:none;stroke-width:0.0666667" />
  <path
     stroke="#cc79a7"
     stroke-width="1"
     fill="none"
     transform="matrix(0.0666667 0 0 0.0666667 -0.283359 -129.267)"
     d="M 560.167,3675.95 C 560.167,3675.95 532.656,3573.91 532.656,3573.91 C 532.656,3573.91 548.131,3586.66 560.167,3586.66 C 571.766,3586.66 586.679,3573.91 586.679,3573.91 C 586.679,3573.91 560.167,3675.95 560.167,3675.95 C 560.167,3675.95 560.167,3675.95 560.167,3675.95 "
     id="path198" />
  <path
     stroke="#009e73"
     stroke-width="10"
     fill="none"
     transform="matrix(0.0666667 0 0 0.0666667 -0.283359 -129.267)"
     d="M 4655.76,3640.34 C 4655.76,3640.34 4682.9,3650.13 4682.9,3650.13 C 4612.94,3740.85 4473.6,3804.21 4324.22,3813.22 C 4076.67,3828.15 3858.01,3702.84 3836.18,3533.52 C 3836.18,3533.52 3807.06,3533.14 3807.06,3533.14 C 3807.06,3533.14 3867.83,3473.94 3867.83,3473.94 C 3867.83,3473.94 3927.03,3534.7 3927.03,3534.7 C 3927.03,3534.7 3897.95,3534.32 3897.95,3534.32 C 3920.43,3680.32 4111.94,3786.34 4325.4,3770.97 C 4452,3761.85 4569.22,3707.56 4628.61,3630.55 C 4628.61,3630.55 4655.76,3640.34 4655.76,3640.34 "
     id="path200" />
  <path
     stroke="#cc79a7"
     stroke-width="10"
     fill="none"
     transform="matrix(0.0666667 0 0 0.0666667 -0.283359 -129.267)"
     d="M 4652.73,2907.98 C 4652.73,2907.98 4625.6,2917.77 4625.6,2917.77 C 4525.46,2787.91 4290.08,2738.11 4100.22,2806.6 C 3986.41,2847.65 3906.64,2929.15 3894.5,3016.76 C 3894.5,3016.76 3920.61,3016.22 3920.61,3016.22 C 3920.61,3016.22 3864.8,3074.38 3864.8,3074.38 C 3864.8,3074.38 3806.64,3018.57 3806.64,3018.57 C 3806.64,3018.57 3832.77,3018.03 3832.77,3018.03 C 3844.49,2914.69 3937.56,2817.84 4071.6,2769.48 C 4291.41,2690.19 4563.93,2747.85 4679.86,2898.19 C 4679.86,2898.19 4652.73,2907.98 4652.73,2907.98 "
     id="path202" />
  <path
     stroke="none"
     fill="#009e73"
     transform="matrix(0.0666667 0 0 0.0666667 -0.283359 -129.267)"
     d="M 5441.92,3283.12 L 4585.08,3283.12 L 4585.08,3273.12 L 5441.92,3273.12 Z "
     id="path240" />
  <path
     stroke="none"
     fill="#009e73"
     transform="matrix(0.0666667 0 0 0.0666667 -0.283359 -129.267)"
     d="M 5436.92,3587.66 L 5436.92,3278.12 L 5446.92,3278.12 L 5446.92,3587.66 Z "
     id="path242" />
  <path
     stroke="none"
     fill="#009e73"
     transform="matrix(0.0666667 0 0 0.0666667 -0.283359 -129.267)"
     d="M 5441.92,3675.95 C 5441.92,3675.95 5414.41,3573.9 5414.41,3573.9 C 5414.41,3573.9 5429.89,3586.66 5441.92,3586.66 C 5453.52,3586.66 5468.43,3573.9 5468.43,3573.9 C 5468.43,3573.9 5441.92,3675.95 5441.92,3675.95 C 5441.92,3675.95 5441.92,3675.95 5441.92,3675.95 "
     id="path244" />
  <path
     stroke="#009e73"
     stroke-width="1"
     fill="none"
     transform="matrix(0.0666667 0 0 0.0666667 -0.283359 -129.267)"
     d="M 5441.92,3675.95 C 5441.92,3675.95 5414.41,3573.9 5414.41,3573.9 C 5414.41,3573.9 5429.89,3586.66 5441.92,3586.66 C 5453.52,3586.66 5468.43,3573.9 5468.43,3573.9 C 5468.43,3573.9 5441.92,3675.95 5441.92,3675.95 C 5441.92,3675.95 5441.92,3675.95 5441.92,3675.95 "
     id="path246" />
  <path
     stroke="none"
     fill="#cc79a7"
     transform="matrix(0.0666667 0 0 0.0666667 -0.283359 -129.267)"
     d="M 5441.92,3194.08 L 4585.08,3194.08 L 4585.08,3184.08 L 5441.92,3184.08 Z "
     id="path248" />
  <path
     stroke="none"
     fill="#cc79a7"
     transform="matrix(0.0666667 0 0 0.0666667 -0.283359 -129.267)"
     d="M 5446.92,2879.54 L 5446.92,3189.08 L 5436.92,3189.08 L 5436.92,2879.54 Z "
     id="path250" />
  <path
     d="M 5441.92,2791.25 C 5441.92,2791.25 5468.43,2893.29 5468.43,2893.29 C 5468.43,2893.29 5453.52,2880.54 5441.92,2880.54 C 5429.89,2880.54 5414.41,2893.29 5414.41,2893.29 C 5414.41,2893.29 5441.92,2791.25 5441.92,2791.25 C 5441.92,2791.25 5441.92,2791.25 5441.92,2791.25 "
     id="path252"
     transform="matrix(0.0666667 0 0 0.0666667 -0.283359 -129.267)"
     stroke="none"
     fill="#cc79a7" />
  <path
     d="M 5441.92,2791.25 C 5441.92,2791.25 5468.43,2893.29 5468.43,2893.29 C 5468.43,2893.29 5453.52,2880.54 5441.92,2880.54 C 5429.89,2880.54 5414.41,2893.29 5414.41,2893.29 C 5414.41,2893.29 5441.92,2791.25 5441.92,2791.25 C 5441.92,2791.25 5441.92,2791.25 5441.92,2791.25 "
     id="path254"
     transform="matrix(0.0666667 0 0 0.0666667 -0.283359 -129.267)"
     stroke-width="1"
     stroke="#cc79a7"
     fill="none" />
  <g
     aria-label="Nu"
     transform="matrix(0.0666667,0,0,0.0666667,50.1259,79.8082)"
     style="font-style:normal;font-weight:normal;font-size:151px;font-family:Arial;fill:#009e73;stroke:none"
     id="text256">
    <path
       d="m 11.501953,0 v -108.08887 h 14.672363 l 56.772461,84.863772 V -108.08887 H 96.660645 V 0 H 81.988281 L 25.21582,-84.9375 V 0 Z"
       style="font-style:normal;font-weight:normal;font-size:151px;font-family:Arial;fill:#009e73;stroke:none"
       id="path1205"
       inkscape:connector-curvature="0" />
    <path
       d="m 170.39111,0 v -11.501953 q -9.14257,13.2714842 -24.84716,13.2714842 -6.93067,0 -12.97657,-2.65429683 -5.97217,-2.65429687 -8.92138,-6.63574217 -2.87549,-4.0551762 -4.05518,-9.8798832 -0.81103,-3.907714 -0.81103,-12.386718 v -48.514649 h 13.27148 v 43.427246 q 0,10.395996 0.81103,14.008789 1.25342,5.234864 5.3086,8.257813 4.05517,2.9492186 10.02734,2.9492186 5.97217,0 11.20703,-3.0229496 5.23487,-3.096679 7.37305,-8.331543 2.21191,-5.308593 2.21191,-15.335937 v -41.952637 h 13.27149 V 0 Z"
       style="font-style:normal;font-weight:normal;font-size:151px;font-family:Arial;fill:#009e73;stroke:none"
       id="path1207"
       inkscape:connector-curvature="0" />
  </g>
  <g
     aria-label="Nu"
     transform="matrix(0.0666667,0,0,0.0666667,50.1259,112.487)"
     style="font-style:normal;font-weight:normal;font-size:151px;font-family:Arial;fill:#cc79a7;stroke:none"
     id="text258">
    <path
       d="m 11.501953,0 v -108.08887 h 14.672363 l 56.772461,84.863772 V -108.08887 H 96.660645 V 0 H 81.988281 L 25.21582,-84.9375 V 0 Z"
       style="font-style:normal;font-weight:normal;font-size:151px;font-family:Arial;fill:#cc79a7;stroke:none"
       id="path1210"
       inkscape:connector-curvature="0" />
    <path
       d="m 170.39111,0 v -11.501953 q -9.14257,13.2714842 -24.84716,13.2714842 -6.93067,0 -12.97657,-2.65429683 -5.97217,-2.65429687 -8.92138,-6.63574217 -2.87549,-4.0551762 -4.05518,-9.8798832 -0.81103,-3.907714 -0.81103,-12.386718 v -48.514649 h 13.27148 v 43.427246 q 0,10.395996 0.81103,14.008789 1.25342,5.234864 5.3086,8.257813 4.05517,2.9492186 10.02734,2.9492186 5.97217,0 11.20703,-3.0229496 5.23487,-3.096679 7.37305,-8.331543 2.21191,-5.308593 2.21191,-15.335937 v -41.952637 h 13.27149 V 0 Z"
       style="font-style:normal;font-weight:normal;font-size:151px;font-family:Arial;fill:#cc79a7;stroke:none"
       id="path1212"
       inkscape:connector-curvature="0" />
  </g>
  <path
     stroke="#009e73"
     stroke-width="8"
     fill="none"
     transform="matrix(0.0666667 0 0 0.0666667 -0.283359 -129.267)"
     d="M 926.385,2993.71 A 57.0818,57.0818 0 1 0 1040.55,2993.71A 57.0818,57.0818 0 1 0 926.385,2993.71Z "
     id="path260" />
  <path
     stroke="none"
     fill="#009e73"
     transform="matrix(0.0666667 0 0 0.0666667 -0.283359 -129.267)"
     d="M 952.031,2990.04 L 1015.57,2990.04 L 1015.57,2998.04 L 952.031,2998.04 Z "
     id="path262" />
  <path
     stroke="#cc79a7"
     stroke-width="8"
     fill="none"
     transform="matrix(0.0666667 0 0 0.0666667 -0.283359 -129.267)"
     d="M 926.385,3483.89 A 57.0818,57.0818 0 1 0 1040.55,3483.89A 57.0818,57.0818 0 1 0 926.385,3483.89Z "
     id="path264" />
  <path
     stroke="none"
     fill="#cc79a7"
     transform="matrix(0.0666667 0 0 0.0666667 -0.283359 -129.267)"
     d="M 952.031,3480.22 L 1015.57,3480.22 L 1015.57,3488.22 L 952.031,3488.22 Z "
     id="path266" />
  <path
     stroke="#009e73"
     stroke-width="10"
     fill="none"
     transform="matrix(0.0666667 0 0 0.0666667 -0.283359 -129.267)"
     d="M 1148.2,2907.09 C 1148.2,2907.09 1121.05,2897.3 1121.05,2897.3 C 1191.01,2806.58 1330.35,2743.23 1479.73,2734.21 C 1727.28,2719.28 1945.95,2844.59 1967.78,3013.91 C 1967.78,3013.91 1996.89,3014.29 1996.89,3014.29 C 1996.89,3014.29 1936.13,3073.5 1936.13,3073.5 C 1936.13,3073.5 1876.92,3012.73 1876.92,3012.73 C 1876.92,3012.73 1906.01,3013.11 1906.01,3013.11 C 1883.52,2867.11 1692.01,2761.09 1478.56,2776.47 C 1351.96,2785.59 1234.73,2839.87 1175.34,2916.89 C 1175.34,2916.89 1148.2,2907.09 1148.2,2907.09 "
     id="path268" />
  <path
     stroke="#cc79a7"
     stroke-width="10"
     fill="none"
     transform="matrix(0.0666667 0 0 0.0666667 -0.283359 -129.267)"
     d="M 1151.22,3639.45 C 1151.22,3639.45 1178.35,3629.66 1178.35,3629.66 C 1278.49,3759.52 1513.88,3809.33 1703.73,3740.84 C 1817.54,3699.78 1897.31,3618.29 1909.45,3530.67 C 1909.45,3530.67 1883.35,3531.21 1883.35,3531.21 C 1883.35,3531.21 1939.15,3473.05 1939.15,3473.05 C 1939.15,3473.05 1997.31,3528.86 1997.31,3528.86 C 1997.31,3528.86 1971.18,3529.4 1971.18,3529.4 C 1959.46,3632.74 1866.4,3729.59 1732.35,3777.95 C 1512.54,3857.24 1240.03,3799.58 1124.09,3649.24 C 1124.09,3649.24 1151.22,3639.45 1151.22,3639.45 "
     id="path270" />
  <text
     xml:space="preserve"
     style="font-style:normal;font-variant:normal;font-weight:normal;font-stretch:normal;font-size:10.66666698px;line-height:1.25;font-family:Calibri;-inkscape-font-specification:Calibri;text-align:start;letter-spacing:0px;word-spacing:0px;text-anchor:start;fill:#e69f00;fill-opacity:1;stroke:none"
     x="5.106883"
     y="64.427544"
     id="text994"><tspan
       sodipodi:role="line"
       id="tspan992"
       x="5.106883"
       y="64.427544">\cycloconf{1}{C}{4}</tspan></text>
  <text
     xml:space="preserve"
     style="font-style:normal;font-variant:normal;font-weight:normal;font-stretch:normal;font-size:10.66666698px;line-height:1.25;font-family:Calibri;-inkscape-font-specification:Calibri;text-align:start;letter-spacing:0px;word-spacing:0px;text-anchor:start;fill:#e69f00;fill-opacity:1;stroke:none"
     x="5.5027189"
     y="113.9093"
     id="text994-4"><tspan
       sodipodi:role="line"
       id="tspan992-1"
       x="5.5027189"
       y="113.9093">\cycloconf{3}{S}{1}</tspan></text>
  <text
     xml:space="preserve"
     style="font-style:normal;font-variant:normal;font-weight:normal;font-stretch:normal;font-size:10.66666698px;line-height:1.25;font-family:Calibri;-inkscape-font-specification:Calibri;text-align:start;letter-spacing:0px;word-spacing:0px;text-anchor:start;fill:#e69f00;fill-opacity:1;stroke:none"
     x="158.49132"
     y="71.260429"
     id="text994-1"><tspan
       sodipodi:role="line"
       id="tspan992-3"
       x="158.49132"
       y="71.260429">\cycloconf{3}{H}{4}</tspan></text>
  <text
     xml:space="preserve"
     style="font-style:normal;font-variant:normal;font-weight:normal;font-stretch:normal;font-size:10.66666698px;line-height:1.25;font-family:Calibri;-inkscape-font-specification:Calibri;text-align:start;letter-spacing:0px;word-spacing:0px;text-anchor:start;fill:#e69f00;fill-opacity:1;stroke:none"
     x="223.22311"
     y="71.260429"
     id="text994-1-5"><tspan
       sodipodi:role="line"
       id="tspan992-3-6"
       x="223.22311"
       y="71.260429">\cycloconf{4}{H}{3}</tspan></text>
  <text
     xml:space="preserve"
     style="font-style:normal;font-variant:normal;font-weight:normal;font-stretch:normal;font-size:10.66666698px;line-height:1.25;font-family:Calibri;-inkscape-font-specification:Calibri;text-align:start;letter-spacing:0px;word-spacing:0px;text-anchor:start;fill:#e69f00;fill-opacity:1;stroke:none"
     x="382.32214"
     y="64.427544"
     id="text994-1-9"><tspan
       sodipodi:role="line"
       id="tspan992-3-4"
       x="382.32214"
       y="64.427544">\cycloconf{1}{S}{3}</tspan></text>
  <text
     xml:space="preserve"
     style="font-style:normal;font-variant:normal;font-weight:normal;font-stretch:normal;font-size:10.66666698px;line-height:1.25;font-family:Calibri;-inkscape-font-specification:Calibri;text-align:start;letter-spacing:0px;word-spacing:0px;text-anchor:start;fill:#e69f00;fill-opacity:1;stroke:none"
     x="382.32214"
     y="113.9093"
     id="text994-1-94"><tspan
       sodipodi:role="line"
       id="tspan992-3-8"
       x="382.32214"
       y="113.9093">\cycloconf{4}{C}{1}</tspan></text>
</svg>
