<?xml version="1.0" encoding="UTF-8" standalone="no"?>
<svg
   xmlns:dc="http://purl.org/dc/elements/1.1/"
   xmlns:cc="http://creativecommons.org/ns#"
   xmlns:rdf="http://www.w3.org/1999/02/22-rdf-syntax-ns#"
   xmlns:svg="http://www.w3.org/2000/svg"
   xmlns="http://www.w3.org/2000/svg"
   xmlns:sodipodi="http://sodipodi.sourceforge.net/DTD/sodipodi-0.dtd"
   xmlns:inkscape="http://www.inkscape.org/namespaces/inkscape"
   viewBox="2.12 46.88 135.09 46.62"
   preserveAspectRatio="xMidYMid"
   width="100%"
   height="100%"
   version="1.1"
   id="svg165"
   sodipodi:docname="bichler.svg"
   inkscape:version="0.92.3 (2405546, 2018-03-11)">
  <metadata
     id="metadata171">
    <rdf:RDF>
      <cc:Work
         rdf:about="">
        <dc:format>image/svg+xml</dc:format>
        <dc:type
           rdf:resource="http://purl.org/dc/dcmitype/StillImage" />
        <dc:title></dc:title>
      </cc:Work>
    </rdf:RDF>
  </metadata>
  <defs
     id="defs169" />
  <sodipodi:namedview
     pagecolor="#ffffff"
     bordercolor="#666666"
     borderopacity="1"
     objecttolerance="10"
     gridtolerance="10"
     guidetolerance="10"
     inkscape:pageopacity="0"
     inkscape:pageshadow="2"
     inkscape:window-width="1920"
     inkscape:window-height="1017"
     id="namedview167"
     showgrid="false"
     inkscape:zoom="3.5907562"
     inkscape:cx="42.972003"
     inkscape:cy="51.165259"
     inkscape:window-x="-8"
     inkscape:window-y="-8"
     inkscape:window-maximized="1"
     inkscape:current-layer="svg165" />
  <clipPath
     id="9400">
    <rect
       x="0.255"
       y="0.255"
       width="139.49"
       height="769.29"
       id="rect2" />
  </clipPath>
  <g
     id="Solid"
     transform="matrix(1.33333,0,0,1.33333,-23.108285,-24.108404)">
    <path
       d="m 2.12,59.72 v 0 l 0.26,0.15 0.26,0.15 v 11.21 l -0.26,0.15 -0.26,0.15 z"
       id="path7"
       inkscape:connector-curvature="0"
       style="fill:#000000;fill-rule:evenodd;stroke:#000000;stroke-width:0;stroke-linejoin:miter;shape-rendering:geometricPrecision" />
    <path
       style="stroke:#000000;stroke-width:0.50999999;shape-rendering:auto"
       d="m 4.4499998,61.07 v 9.11"
       id="line9" />
  </g>
  <g
     id="g14"
     transform="matrix(1.33333,0,0,1.33333,-23.108285,-24.108404)">
    <path
       d="m 2.12,71.53 v 0 l 0.26,-0.15 0.26,-0.15 9.71,5.61 v 0.29 0.29 z"
       id="path12"
       inkscape:connector-curvature="0"
       style="fill:#000000;fill-rule:evenodd;stroke:#000000;stroke-width:0;stroke-linejoin:miter;shape-rendering:geometricPrecision" />
  </g>
  <g
     id="g20"
     transform="matrix(1.33333,0,0,1.33333,-23.108285,-24.108404)">
    <path
       d="m 12.35,77.42 v 0 -0.29 -0.29 l 9.71,-5.61 0.25,0.15 0.25,0.15 z"
       id="path16"
       inkscape:connector-curvature="0"
       style="fill:#000000;fill-rule:evenodd;stroke:#000000;stroke-width:0;stroke-linejoin:miter;shape-rendering:geometricPrecision" />
    <path
       style="stroke:#000000;stroke-width:0.50999999;shape-rendering:auto"
       d="M 12.35,74.739998 20.24,70.18"
       id="line18" />
  </g>
  <g
     id="g24"
     transform="matrix(1.33333,0,0,1.33333,-23.108285,-24.108404)">
    <path
       d="m 22.56,71.53 v 0 L 22.31,71.38 22.06,71.23 V 60.02 l 0.25,-0.15 0.26,0.15 z"
       id="path22"
       inkscape:connector-curvature="0"
       style="fill:#000000;fill-rule:evenodd;stroke:#000000;stroke-width:0;stroke-linejoin:miter;shape-rendering:geometricPrecision" />
  </g>
  <g
     id="g30"
     transform="matrix(1.33333,0,0,1.33333,-23.108285,-24.108404)">
    <path
       d="m 22.31,59.58 v 0 0.29 l -0.25,0.15 -9.71,-5.61 v -0.29 -0.29 z"
       id="path26"
       inkscape:connector-curvature="0"
       style="fill:#000000;fill-rule:evenodd;stroke:#000000;stroke-width:0;stroke-linejoin:miter;shape-rendering:geometricPrecision" />
    <path
       style="stroke:#000000;stroke-width:0.50999999;shape-rendering:auto"
       d="M 20.24,61.07 12.35,56.509998"
       id="line28" />
  </g>
  <g
     id="g34"
     transform="matrix(1.33333,0,0,1.33333,-23.108285,-24.108404)">
    <path
       d="m 12.35,53.83 v 0 0.29 0.29 L 2.64,60.02 2.38,59.87 2.12,59.72 Z"
       id="path32"
       inkscape:connector-curvature="0"
       style="fill:#000000;fill-rule:evenodd;stroke:#000000;stroke-width:0;stroke-linejoin:miter;shape-rendering:geometricPrecision" />
  </g>
  <g
     id="g38"
     transform="matrix(1.33333,0,0,1.33333,-23.108285,-24.108404)">
    <path
       d="m 22.57,60.02 v 0 l -0.26,-0.15 v -0.29 l 9.97,-5.75 v 0.29 0.29 z"
       id="path36"
       inkscape:connector-curvature="0"
       style="fill:#000000;fill-rule:evenodd;stroke:#000000;stroke-width:0;stroke-linejoin:miter;shape-rendering:geometricPrecision" />
  </g>
  <g
     id="g42"
     transform="matrix(1.33333,0,0,1.33333,-23.108285,-24.108404)">
    <path
       d="m 32.28,54.41 v 0 -0.29 -0.29 L 42.5,59.72 42.25,59.87 42,60.02 Z"
       id="path40"
       inkscape:connector-curvature="0"
       style="fill:#000000;fill-rule:evenodd;stroke:#000000;stroke-width:0;stroke-linejoin:miter;shape-rendering:geometricPrecision" />
  </g>
  <g
     id="g48"
     transform="matrix(1.33333,0,0,1.33333,-23.108285,-24.108404)">
    <g
       aria-label="HN"
       style="text-anchor:end;text-rendering:geometricPrecision"
       id="text46">
      <path
         d="m 34.228127,74.529999 v -5.726563 h 0.757812 v 2.351563 h 2.976563 v -2.351563 h 0.757812 v 5.726563 H 37.962502 V 71.83078 h -2.976563 v 2.699219 z"
         style="font-size:8px;font-family:Arial;fill:#000000"
         id="path1518" />
      <path
         d="m 39.978127,74.529999 v -5.726563 h 0.777343 l 3.007813,4.496094 v -4.496094 h 0.726562 v 5.726563 h -0.777343 l -3.007813,-4.5 v 4.5 z"
         style="font-size:8px;font-family:Arial;fill:#000000"
         id="path1520" />
    </g>
  </g>
  <g
     id="g52"
     transform="matrix(1.33333,0,0,1.33333,-23.108285,-24.108404)">
    <path
       d="m 42,60.02 v 0 l 0.25,-0.15 0.25,-0.15 0.01,7.88 H 42.25 42 Z"
       id="path50"
       inkscape:connector-curvature="0"
       style="fill:#000000;fill-rule:evenodd;stroke:#000000;stroke-width:0;stroke-linejoin:miter;shape-rendering:geometricPrecision" />
  </g>
  <g
     id="g56"
     transform="matrix(1.33333,0,0,1.33333,-23.108285,-24.108404)">
    <path
       d="m 45.5,73.55 v 0 l 0.13,-0.22 0.12,-0.22 6.71,3.87 -0.25,0.15 -0.25,0.15 z"
       id="path54"
       inkscape:connector-curvature="0"
       style="fill:#000000;fill-rule:evenodd;stroke:#000000;stroke-width:0;stroke-linejoin:miter;shape-rendering:geometricPrecision" />
  </g>
  <g
     id="g62"
     transform="matrix(1.33333,0,0,1.33333,-23.108285,-24.108404)">
    <g
       aria-label="R"
       style="text-anchor:start;text-rendering:geometricPrecision"
       id="text60">
      <path
         d="m 49.938908,91.790001 v -5.726563 h 2.539062 q 0.765625,0 1.164063,0.15625 0.398437,0.152344 0.636718,0.542969 0.238282,0.390625 0.238282,0.863281 0,0.609375 -0.394532,1.027344 -0.394531,0.417969 -1.21875,0.53125 0.300782,0.144531 0.457032,0.285156 0.332031,0.304688 0.628906,0.761719 l 0.996094,1.558594 H 54.032658 L 53.274845,90.598595 Q 52.942814,90.08297 52.72797,89.809532 52.513126,89.536095 52.341251,89.42672 q -0.167968,-0.109375 -0.34375,-0.152344 -0.128906,-0.02734 -0.421875,-0.02734 H 50.69672 v 2.542969 z m 0.757812,-3.199219 h 1.628906 q 0.519532,0 0.8125,-0.105469 0.292969,-0.109375 0.445313,-0.34375 0.152344,-0.238281 0.152344,-0.515625 0,-0.40625 -0.296875,-0.667968 -0.292969,-0.261719 -0.929688,-0.261719 h -1.8125 z"
         style="font-size:8px;font-family:Arial;fill:#000000"
         id="path1515" />
    </g>
  </g>
  <g
     id="g66"
     transform="matrix(1.33333,0,0,1.33333,-23.108285,-24.108404)">
    <path
       d="m 51.96,77.28 v 0 l 0.25,-0.15 0.25,-0.15 0.01,7.82 h -0.26 -0.25 z"
       id="path64"
       inkscape:connector-curvature="0"
       style="fill:#000000;fill-rule:evenodd;stroke:#000000;stroke-width:0;stroke-linejoin:miter;shape-rendering:geometricPrecision" />
  </g>
  <g
     id="g72"
     transform="matrix(1.33333,0,0,1.33333,-23.108285,-24.108404)">
    <g
       aria-label="O"
       style="text-anchor:start;text-rendering:geometricPrecision"
       id="text70">
      <path
         d="m 59.466721,71.740936 q 0,-1.425781 0.765625,-2.230468 0.765625,-0.808594 1.976562,-0.808594 0.792969,0 1.429688,0.378906 0.636718,0.378906 0.96875,1.058594 0.335937,0.675781 0.335937,1.535156 0,0.871094 -0.351562,1.558594 -0.351563,0.6875 -0.996094,1.042969 -0.644531,0.351562 -1.390625,0.351562 -0.808594,0 -1.445313,-0.390625 -0.636718,-0.390625 -0.964843,-1.066406 -0.328125,-0.675781 -0.328125,-1.429688 z m 0.78125,0.01172 q 0,1.035156 0.554687,1.632813 0.558594,0.59375 1.398438,0.59375 0.855468,0 1.40625,-0.601563 0.554687,-0.601562 0.554687,-1.707031 0,-0.699219 -0.238281,-1.21875 -0.234375,-0.523438 -0.691406,-0.808594 -0.453125,-0.289062 -1.019532,-0.289062 -0.804687,0 -1.386718,0.554687 -0.578125,0.550781 -0.578125,1.84375 z"
         style="font-size:8px;font-family:Arial;fill:#000000"
         id="path1512" />
    </g>
  </g>
  <g
     id="g80"
     transform="matrix(1.33333,0,0,1.33333,-23.108285,-24.108404)">
    <path
       style="stroke:#000000;stroke-width:0.50999999;shape-rendering:auto"
       d="M 51.689999,76.230003 57.860001,72.68"
       id="line74" />
    <path
       d="m 52.47,77.88 v 0 0.59 l 6.55,-3.78 -0.26,-0.44 z"
       id="path76"
       inkscape:connector-curvature="0"
       style="fill:#000000;fill-rule:evenodd;stroke:#000000;stroke-width:0;stroke-linejoin:miter;shape-rendering:geometricPrecision" />
    <path
       d="m 51.17,76.24 v 0 l 0.51,0.29 6.3,-3.63 -0.25,-0.44 z"
       id="path78"
       inkscape:connector-curvature="0"
       style="fill:#000000;fill-rule:evenodd;stroke:#000000;stroke-width:0;stroke-linejoin:miter;shape-rendering:geometricPrecision" />
  </g>
  <g
     id="g86"
     transform="matrix(1.33333,0,0,1.33333,-23.108285,-24.108404)">
    <path
       d="m 94.18,59.72 v 0 l 0.26,0.15 0.26,0.15 v 11.21 l -0.26,0.15 -0.26,0.15 z"
       id="path82"
       inkscape:connector-curvature="0"
       style="fill:#000000;fill-rule:evenodd;stroke:#000000;stroke-width:0;stroke-linejoin:miter;shape-rendering:geometricPrecision" />
    <path
       style="stroke:#000000;stroke-width:0.50999999;shape-rendering:auto"
       d="m 96.510002,61.07 v 9.11"
       id="line84" />
  </g>
  <g
     id="g90"
     transform="matrix(1.33333,0,0,1.33333,-23.108285,-24.108404)">
    <path
       d="m 94.18,71.53 v 0 l 0.26,-0.15 0.26,-0.15 9.71,5.61 v 0.29 0.29 z"
       id="path88"
       inkscape:connector-curvature="0"
       style="fill:#000000;fill-rule:evenodd;stroke:#000000;stroke-width:0;stroke-linejoin:miter;shape-rendering:geometricPrecision" />
  </g>
  <g
     id="g96"
     transform="matrix(1.33333,0,0,1.33333,-23.108285,-24.108404)">
    <path
       d="m 104.41,77.42 v 0 -0.29 -0.29 l 9.71,-5.61 0.25,0.15 v 0.29 z"
       id="path92"
       inkscape:connector-curvature="0"
       style="fill:#000000;fill-rule:evenodd;stroke:#000000;stroke-width:0;stroke-linejoin:miter;shape-rendering:geometricPrecision" />
    <path
       style="stroke:#000000;stroke-width:0.50999999;shape-rendering:auto"
       d="M 104.41,74.739998 112.3,70.18"
       id="line94" />
  </g>
  <g
     id="g100"
     transform="matrix(1.33333,0,0,1.33333,-23.108285,-24.108404)">
    <path
       d="m 114.63,71.23 v 0 l -0.26,0.15 -0.25,-0.15 V 60.02 l 0.25,-0.15 0.26,0.15 z"
       id="path98"
       inkscape:connector-curvature="0"
       style="fill:#000000;fill-rule:evenodd;stroke:#000000;stroke-width:0;stroke-linejoin:miter;shape-rendering:geometricPrecision" />
  </g>
  <g
     id="g106"
     transform="matrix(1.33333,0,0,1.33333,-23.108285,-24.108404)">
    <path
       d="m 114.37,59.58 v 0 0.29 l -0.25,0.15 -9.71,-5.61 v -0.29 -0.29 z"
       id="path102"
       inkscape:connector-curvature="0"
       style="fill:#000000;fill-rule:evenodd;stroke:#000000;stroke-width:0;stroke-linejoin:miter;shape-rendering:geometricPrecision" />
    <path
       style="stroke:#000000;stroke-width:0.50999999;shape-rendering:auto"
       d="m 112.3,61.07 -7.89,-4.560002"
       id="line104" />
  </g>
  <g
     id="g110"
     transform="matrix(1.33333,0,0,1.33333,-23.108285,-24.108404)">
    <path
       d="m 104.41,53.83 v 0 0.29 0.29 l -9.71,5.61 -0.26,-0.15 -0.26,-0.15 z"
       id="path108"
       inkscape:connector-curvature="0"
       style="fill:#000000;fill-rule:evenodd;stroke:#000000;stroke-width:0;stroke-linejoin:miter;shape-rendering:geometricPrecision" />
  </g>
  <g
     id="g114"
     transform="matrix(1.33333,0,0,1.33333,-23.108285,-24.108404)">
    <path
       d="m 114.63,60.02 v 0 l -0.26,-0.15 v -0.29 l 9.97,-5.75 v 0.29 0.29 z"
       id="path112"
       inkscape:connector-curvature="0"
       style="fill:#000000;fill-rule:evenodd;stroke:#000000;stroke-width:0;stroke-linejoin:miter;shape-rendering:geometricPrecision" />
  </g>
  <g
     id="g118"
     transform="matrix(1.33333,0,0,1.33333,-23.108285,-24.108404)">
    <path
       d="m 124.34,54.41 v 0 -0.29 -0.29 l 10.22,5.89 -0.25,0.15 -0.25,0.15 z"
       id="path116"
       inkscape:connector-curvature="0"
       style="fill:#000000;fill-rule:evenodd;stroke:#000000;stroke-width:0;stroke-linejoin:miter;shape-rendering:geometricPrecision" />
  </g>
  <g
     id="g124"
     transform="matrix(1.33333,0,0,1.33333,-23.108285,-24.108404)">
    <g
       aria-label="N"
       style="text-anchor:start;text-rendering:geometricPrecision"
       id="text122">
      <path
         d="m 132.01938,74.529999 v -5.726563 h 0.77734 l 3.00781,4.496094 v -4.496094 h 0.72657 v 5.726563 h -0.77735 l -3.00781,-4.5 v 4.5 z"
         style="font-size:8px;font-family:Arial;fill:#000000"
         id="path1505" />
    </g>
  </g>
  <g
     id="g128"
     transform="matrix(1.33333,0,0,1.33333,-23.108285,-24.108404)">
    <path
       d="m 134.06,60.02 v 0 l 0.25,-0.15 0.25,-0.15 0.01,7.88 h -0.26 -0.25 z"
       id="path126"
       inkscape:connector-curvature="0"
       style="fill:#000000;fill-rule:evenodd;stroke:#000000;stroke-width:0;stroke-linejoin:miter;shape-rendering:geometricPrecision" />
  </g>
  <g
     id="g132"
     transform="matrix(1.33333,0,0,1.33333,-23.108285,-24.108404)">
    <path
       d="m 114.37,71.67 v 0 -0.29 l 0.26,-0.15 9.71,5.61 v 0.29 l -0.25,0.15 z"
       id="path130"
       inkscape:connector-curvature="0"
       style="fill:#000000;fill-rule:evenodd;stroke:#000000;stroke-width:0;stroke-linejoin:miter;shape-rendering:geometricPrecision" />
  </g>
  <g
     id="g138"
     transform="matrix(1.33333,0,0,1.33333,-23.108285,-24.108404)">
    <path
       d="m 130.85,73.08 v 0 l 0.12,0.22 0.13,0.22 -6.5,3.76 -0.26,-0.15 v -0.29 z"
       id="path134"
       inkscape:connector-curvature="0"
       style="fill:#000000;fill-rule:evenodd;stroke:#000000;stroke-width:0;stroke-linejoin:miter;shape-rendering:geometricPrecision" />
    <path
       style="stroke:#000000;stroke-width:0.50999999;shape-rendering:auto"
       d="M 130.17999,71.940002 124.34,75.309998"
       id="line136" />
  </g>
  <g
     id="g144"
     transform="matrix(1.33333,0,0,1.33333,-23.108285,-24.108404)">
    <g
       aria-label="R"
       style="text-anchor:start;text-rendering:geometricPrecision"
       id="text142">
      <path
         d="m 122.06891,91.790001 v -5.726563 h 2.53906 q 0.76563,0 1.16406,0.15625 0.39844,0.152344 0.63672,0.542969 0.23828,0.390625 0.23828,0.863281 0,0.609375 -0.39453,1.027344 -0.39453,0.417969 -1.21875,0.53125 0.30078,0.144531 0.45703,0.285156 0.33203,0.304688 0.62891,0.761719 l 0.99609,1.558594 h -0.95312 l -0.75781,-1.191406 q -0.33204,-0.515625 -0.54688,-0.789063 -0.21484,-0.273437 -0.38672,-0.382812 -0.16797,-0.109375 -0.34375,-0.152344 -0.1289,-0.02734 -0.42187,-0.02734 h -0.87891 v 2.542969 z m 0.75781,-3.199219 h 1.62891 q 0.51953,0 0.8125,-0.105469 0.29297,-0.109375 0.44531,-0.34375 0.15234,-0.238281 0.15234,-0.515625 0,-0.40625 -0.29687,-0.667968 -0.29297,-0.261719 -0.92969,-0.261719 h -1.8125 z"
         style="font-size:8px;font-family:Arial;fill:#000000"
         id="path1501" />
    </g>
  </g>
  <g
     id="g148"
     transform="matrix(1.33333,0,0,1.33333,-23.108285,-24.108404)">
    <path
       d="m 124.09,77.28 v 0 l 0.25,-0.15 0.26,0.15 v 7.52 h -0.26 -0.25 z"
       id="path146"
       inkscape:connector-curvature="0"
       style="fill:#000000;fill-rule:evenodd;stroke:#000000;stroke-width:0;stroke-linejoin:miter;shape-rendering:geometricPrecision" />
  </g>
  <g
     id="Arrow"
     transform="matrix(1.33333,0,0,1.33333,-23.108285,-24.108404)">
    <path
       style="stroke:#000000;stroke-width:0.50999999;shape-rendering:auto"
       d="M 85.199997,63.380001 H 67.470001"
       id="line150" />
    <path
       d="m 88.66,63.38 -5.1,-1.28 c 1.08,0.72 1.08,1.84 0,2.56 z"
       stroke-miterlimit="5.89496254687647"
       id="path152"
       inkscape:connector-curvature="0"
       style="fill:#000000;fill-rule:evenodd;stroke:#000000;stroke-width:0;stroke-linejoin:miter;stroke-miterlimit:5.89496231;shape-rendering:geometricPrecision" />
  </g>
  <g
     id="g161"
     transform="matrix(1.33333,0,0,1.33333,-23.108285,-24.108404)">
    <g
       aria-label="POCl3"
       style="text-anchor:start;text-rendering:geometricPrecision"
       id="text159">
      <path
         d="m 67.337189,58.689999 v -5.726563 h 2.160156 q 0.570312,0 0.871094,0.05469 0.421875,0.07031 0.707031,0.269531 0.285156,0.195312 0.457031,0.550781 0.175781,0.355469 0.175781,0.78125 0,0.730469 -0.464843,1.238281 -0.464844,0.503907 -1.679688,0.503907 h -1.46875 v 2.328125 z m 0.757812,-3.003907 h 1.480469 q 0.734375,0 1.042969,-0.273437 0.308593,-0.273438 0.308593,-0.769531 0,-0.359375 -0.183593,-0.613282 -0.179688,-0.257812 -0.476563,-0.339843 -0.191406,-0.05078 -0.707031,-0.05078 h -1.464844 z"
         style="font-size:8px;font-family:Arial;fill:#000000"
         id="path1489" />
      <path
         d="m 72.45047,55.900936 q 0,-1.425781 0.765625,-2.230469 0.765625,-0.808593 1.976562,-0.808593 0.792969,0 1.429688,0.378906 0.636719,0.378906 0.96875,1.058594 0.335937,0.675781 0.335937,1.535156 0,0.871094 -0.351562,1.558594 -0.351563,0.6875 -0.996094,1.042968 -0.644531,0.351563 -1.390625,0.351563 -0.808594,0 -1.445312,-0.390625 Q 73.10672,58.006405 72.778595,57.330624 72.45047,56.654842 72.45047,55.900936 Z m 0.78125,0.01172 q 0,1.035156 0.554687,1.632812 0.558594,0.59375 1.398438,0.59375 0.855469,0 1.40625,-0.601562 0.554687,-0.601563 0.554687,-1.707031 0,-0.699219 -0.238281,-1.21875 -0.234375,-0.523438 -0.691406,-0.808594 -0.453125,-0.289063 -1.019531,-0.289063 -0.804688,0 -1.386719,0.554688 -0.578125,0.550781 -0.578125,1.84375 z"
         style="font-size:8px;font-family:Arial;fill:#000000"
         id="path1491" />
      <path
         d="m 82.985626,56.682186 0.757813,0.191406 q -0.238282,0.933594 -0.859375,1.425782 -0.617188,0.488281 -1.511719,0.488281 -0.925781,0 -1.507813,-0.375 -0.578125,-0.378906 -0.882812,-1.09375 -0.300781,-0.714844 -0.300781,-1.535156 0,-0.894532 0.339843,-1.558594 0.34375,-0.667969 0.972657,-1.011719 0.632812,-0.347656 1.390625,-0.347656 0.859375,0 1.445312,0.4375 0.585938,0.4375 0.816406,1.230469 l -0.746093,0.175781 q -0.199219,-0.625 -0.578125,-0.910156 -0.378907,-0.285157 -0.953125,-0.285157 -0.660157,0 -1.105469,0.316407 -0.441406,0.316406 -0.621094,0.851562 -0.179687,0.53125 -0.179687,1.097656 0,0.730469 0.210937,1.277344 0.214844,0.542969 0.664063,0.8125 0.449218,0.269531 0.972656,0.269531 0.636719,0 1.078125,-0.367187 0.441406,-0.367188 0.597656,-1.089844 z"
         style="font-size:8px;font-family:Arial;fill:#000000"
         id="path1493" />
      <path
         d="m 84.57547,58.689999 v -5.726563 h 0.703125 v 5.726563 z"
         style="font-size:8px;font-family:Arial;fill:#000000"
         id="path1495" />
      <path
         d="m 86.096954,59.36621 0.527344,-0.07031 q 0.09082,0.448242 0.307617,0.647461 0.219727,0.196289 0.533203,0.196289 0.372071,0 0.626954,-0.257812 0.257812,-0.257813 0.257812,-0.638672 0,-0.363282 -0.237305,-0.597657 -0.237304,-0.237304 -0.603515,-0.237304 -0.149414,0 -0.372071,0.05859 l 0.05859,-0.46289 q 0.05273,0.0059 0.08496,0.0059 0.336914,0 0.606445,-0.175781 0.269532,-0.175781 0.269532,-0.541992 0,-0.290039 -0.196289,-0.480469 -0.196289,-0.19043 -0.506836,-0.19043 -0.307618,0 -0.512696,0.19336 -0.205078,0.193359 -0.263672,0.580078 l -0.527343,-0.09375 q 0.09668,-0.530274 0.439453,-0.820313 0.342773,-0.292968 0.852539,-0.292968 0.351562,0 0.647461,0.152343 0.295898,0.149414 0.451172,0.410157 0.158203,0.260742 0.158203,0.553711 0,0.27832 -0.149414,0.506835 -0.149414,0.228516 -0.442383,0.363282 0.380859,0.08789 0.591797,0.366211 0.210937,0.27539 0.210937,0.691406 0,0.5625 -0.410156,0.955078 -0.410156,0.389648 -1.037109,0.389648 -0.56543,0 -0.94043,-0.336914 -0.37207,-0.336914 -0.424805,-0.873046 z"
         style="font-size:6px;font-family:Arial;fill:#000000"
         id="path1497" />
    </g>
  </g>
  <text
     xml:space="preserve"
     style="font-style:normal;font-variant:normal;font-weight:normal;font-stretch:normal;font-size:10.66666698px;line-height:1.25;font-family:Arial;-inkscape-font-specification:Arial;letter-spacing:0px;word-spacing:0px;fill:#000000;fill-opacity:1;stroke:none"
     x="-19.559547"
     y="92.352692"
     id="text1147"><tspan
       sodipodi:role="line"
       id="tspan1145"
       x="-19.559547"
       y="92.352692">\cmpd{w:bichler-sub}</tspan></text>
  <text
     xml:space="preserve"
     style="font-style:normal;font-variant:normal;font-weight:normal;font-stretch:normal;font-size:10.66666698px;line-height:1.25;font-family:Arial;-inkscape-font-specification:Arial;letter-spacing:0px;word-spacing:0px;fill:#000000;fill-opacity:1;stroke:none"
     x="104.97576"
     y="92.352692"
     id="text1147-1"><tspan
       sodipodi:role="line"
       id="tspan1145-9"
       x="104.97576"
       y="92.352692">\cmpd{w:bichler-prod}</tspan></text>
</svg>
