<?xml version="1.0" encoding="UTF-8" standalone="no"?>
<svg
   xmlns:dc="http://purl.org/dc/elements/1.1/"
   xmlns:cc="http://creativecommons.org/ns#"
   xmlns:rdf="http://www.w3.org/1999/02/22-rdf-syntax-ns#"
   xmlns:svg="http://www.w3.org/2000/svg"
   xmlns="http://www.w3.org/2000/svg"
   xmlns:sodipodi="http://sodipodi.sourceforge.net/DTD/sodipodi-0.dtd"
   xmlns:inkscape="http://www.inkscape.org/namespaces/inkscape"
   viewBox="2 103.89 606.30483 112.58386"
   preserveAspectRatio="xMidYMid"
   width="100%"
   height="100%"
   version="1.1"
   id="svg497"
   sodipodi:docname="prostaglandin-fullwidth.svg"
   inkscape:version="0.92.3 (2405546, 2018-03-11)">
  <metadata
     id="metadata503">
    <rdf:RDF>
      <cc:Work
         rdf:about="">
        <dc:format>image/svg+xml</dc:format>
        <dc:type
           rdf:resource="http://purl.org/dc/dcmitype/StillImage" />
        <dc:title />
      </cc:Work>
    </rdf:RDF>
  </metadata>
  <defs
     id="defs501" />
  <sodipodi:namedview
     pagecolor="#ffffff"
     bordercolor="#666666"
     borderopacity="1"
     objecttolerance="10"
     gridtolerance="10"
     guidetolerance="10"
     inkscape:pageopacity="0"
     inkscape:pageshadow="2"
     inkscape:window-width="1920"
     inkscape:window-height="1017"
     id="namedview499"
     showgrid="false"
     inkscape:zoom="2.133418"
     inkscape:cx="323.05071"
     inkscape:cy="56.949828"
     inkscape:window-x="-8"
     inkscape:window-y="-8"
     inkscape:window-maximized="1"
     inkscape:current-layer="svg497" />
  <clipPath
     id="10040">
    <rect
       x="0.255"
       y="0.255"
       width="465.98999"
       height="769.28998"
       id="rect2" />
  </clipPath>
  <g
     id="g11"
     transform="matrix(1.33333,0,0,1.33333,0.2198562,-33.234711)">
    <g
       aria-label="N"
       style="text-anchor:start;text-rendering:geometricPrecision"
       id="text9">
      <path
         d="m 18.589375,134.42999 v -5.72656 h 0.777343 l 3.007813,4.49609 v -4.49609 h 0.726562 v 5.72656 H 22.32375 l -3.007813,-4.5 v 4.5 z"
         style="font-size:8px;font-family:Arial;fill:#009d73"
         id="path1806"
         inkscape:connector-curvature="0" />
    </g>
  </g>
  <g
     id="Solid"
     transform="matrix(1.33333,0,0,1.33333,0.2198562,-33.234711)">
    <path
       d="m 17.43,133.74 v 0 l 0.16,0.2 0.16,0.2 -5.79,4.68 -0.02,-0.31 -0.02,-0.31 z"
       id="path13"
       inkscape:connector-curvature="0"
       style="fill:#009d73;fill-rule:evenodd;stroke:#009d73;stroke-width:0;stroke-linejoin:miter;shape-rendering:geometricPrecision" />
  </g>
  <g
     id="g18"
     transform="matrix(1.33333,0,0,1.33333,0.2198562,-33.234711)">
    <path
       d="m 11.92,138.2 v 0 l 0.02,0.31 0.02,0.31 -9.95,-6.46 0.29,-0.11 0.29,-0.11 z"
       id="path16"
       inkscape:connector-curvature="0"
       style="fill:#009d73;fill-rule:evenodd;stroke:#009d73;stroke-width:0;stroke-linejoin:miter;shape-rendering:geometricPrecision" />
  </g>
  <g
     id="g22"
     transform="matrix(1.33333,0,0,1.33333,0.2198562,-33.234711)">
    <path
       d="m 2.59,132.14 v 0 l -0.29,0.11 -0.29,0.11 3.07,-11.46 0.2,0.24 0.2,0.24 z"
       id="path20"
       inkscape:connector-curvature="0"
       style="fill:#009d73;fill-rule:evenodd;stroke:#009d73;stroke-width:0;stroke-linejoin:miter;shape-rendering:geometricPrecision" />
  </g>
  <g
     id="g26"
     transform="matrix(1.33333,0,0,1.33333,0.2198562,-33.234711)">
    <path
       d="m 5.48,121.38 v 0 l -0.2,-0.24 -0.2,-0.24 11.52,-0.61 0.16,0.25 -0.17,0.26 z"
       id="path24"
       inkscape:connector-curvature="0"
       style="fill:#009d73;fill-rule:evenodd;stroke:#009d73;stroke-width:0;stroke-linejoin:miter;shape-rendering:geometricPrecision" />
  </g>
  <g
     id="g30"
     transform="matrix(1.33333,0,0,1.33333,0.2198562,-33.234711)">
    <path
       d="m 16.59,120.8 v 0 l 0.17,-0.26 0.29,0.04 3.03,7.91 -0.23,0.1 -0.24,0.09 z"
       id="path28"
       inkscape:connector-curvature="0"
       style="fill:#009d73;fill-rule:evenodd;stroke:#009d73;stroke-width:0;stroke-linejoin:miter;shape-rendering:geometricPrecision" />
  </g>
  <g
     id="g34"
     transform="matrix(1.33333,0,0,1.33333,0.2198562,-33.234711)">
    <path
       d="m 24.29,132.46 v 0 l 0.07,-0.25 0.06,-0.25 7.78,2.08 -0.21,0.21 -0.21,0.21 z"
       id="path32"
       inkscape:connector-curvature="0"
       style="fill:#009d73;fill-rule:evenodd;stroke:#009d73;stroke-width:0;stroke-linejoin:miter;shape-rendering:geometricPrecision" />
  </g>
  <g
     id="g38"
     transform="matrix(1.33333,0,0,1.33333,0.2198562,-33.234711)">
    <path
       d="m 31.78,134.46 v 0 l 0.21,-0.21 0.21,-0.21 2.98,11.11 -0.21,0.21 -0.21,0.21 z"
       id="path36"
       inkscape:connector-curvature="0"
       style="fill:#009d73;fill-rule:evenodd;stroke:#009d73;stroke-width:0;stroke-linejoin:miter;shape-rendering:geometricPrecision" />
  </g>
  <g
     id="g42"
     transform="matrix(1.33333,0,0,1.33333,0.2198562,-33.234711)">
    <path
       d="m 34.76,145.57 v 0 l 0.21,-0.21 0.21,-0.21 11.1,2.98 -0.21,0.21 -0.21,0.21 z"
       id="path40"
       inkscape:connector-curvature="0"
       style="fill:#000000;fill-rule:evenodd;stroke:#000000;stroke-width:0;stroke-linejoin:miter;shape-rendering:geometricPrecision" />
  </g>
  <g
     id="g46"
     transform="matrix(1.33333,0,0,1.33333,0.2198562,-33.234711)">
    <path
       d="m 45.86,148.55 v 0 l 0.21,-0.21 0.21,-0.21 2.98,11.11 -0.21,0.21 -0.28,-0.08 z"
       id="path44"
       inkscape:connector-curvature="0"
       style="fill:#000000;fill-rule:evenodd;stroke:#000000;stroke-width:0;stroke-linejoin:miter;shape-rendering:geometricPrecision" />
  </g>
  <g
     id="g50"
     transform="matrix(1.33333,0,0,1.33333,0.2198562,-33.234711)">
    <path
       d="m 49.13,159.73 v 0 l -0.08,-0.28 0.21,-0.21 10.82,2.9 0.08,0.28 -0.21,0.21 z"
       id="path48"
       inkscape:connector-curvature="0"
       style="fill:#000000;fill-rule:evenodd;stroke:#000000;stroke-width:0;stroke-linejoin:miter;shape-rendering:geometricPrecision" />
  </g>
  <g
     id="g54"
     transform="matrix(1.33333,0,0,1.33333,0.2198562,-33.234711)">
    <path
       d="m 59.95,162.63 v 0 l 0.21,-0.21 0.28,0.08 2.97,11.11 -0.28,-0.08 -0.28,-0.08 z"
       id="path52"
       inkscape:connector-curvature="0"
       style="fill:#e69e00;fill-rule:evenodd;stroke:#e69e00;stroke-width:0;stroke-linejoin:miter;shape-rendering:geometricPrecision" />
  </g>
  <g
     id="g60"
     transform="matrix(1.33333,0,0,1.33333,0.2198562,-33.234711)">
    <g
       aria-label="O"
       style="text-anchor:start;text-rendering:geometricPrecision"
       id="text58">
      <path
         d="m 37.406719,126.48094 q 0,-1.42578 0.765625,-2.23047 0.765625,-0.80859 1.976563,-0.80859 0.792968,0 1.429687,0.37891 0.636719,0.3789 0.96875,1.05859 0.335938,0.67578 0.335938,1.53516 0,0.87109 -0.351563,1.55859 -0.351562,0.6875 -0.996094,1.04297 -0.644531,0.35156 -1.390625,0.35156 -0.808593,0 -1.445312,-0.39062 -0.636719,-0.39063 -0.964844,-1.06641 -0.328125,-0.67578 -0.328125,-1.42969 z m 0.78125,0.0117 q 0,1.03516 0.554688,1.63281 0.558593,0.59375 1.398437,0.59375 0.855469,0 1.40625,-0.60156 0.554688,-0.60156 0.554688,-1.70703 0,-0.69922 -0.238282,-1.21875 -0.234375,-0.52344 -0.691406,-0.80859 -0.453125,-0.28907 -1.019531,-0.28907 -0.804688,0 -1.386719,0.55469 -0.578125,0.55078 -0.578125,1.84375 z"
         style="font-size:8px;font-family:Arial;fill:#009d73"
         id="path1809"
         inkscape:connector-curvature="0" />
    </g>
  </g>
  <g
     id="g68"
     transform="matrix(1.33333,0,0,1.33333,0.2198562,-33.234711)">
    <path
       style="stroke:#009d73;stroke-width:0.50999999;shape-rendering:auto"
       d="m 31.26,133.52 4.589998,-4.59001"
       id="line62"
       inkscape:connector-curvature="0" />
    <path
       d="m 32.43,134.91 v 0 l 0.15,0.57 4.91,-4.91 -0.36,-0.36 z"
       id="path64"
       inkscape:connector-curvature="0"
       style="fill:#009d73;fill-rule:evenodd;stroke:#009d73;stroke-width:0;stroke-linejoin:miter;shape-rendering:geometricPrecision" />
    <path
       d="m 30.76,133.66 v 0 l 0.57,0.15 4.7,-4.7 -0.36,-0.36 z"
       id="path66"
       inkscape:connector-curvature="0"
       style="fill:#009d73;fill-rule:evenodd;stroke:#009d73;stroke-width:0;stroke-linejoin:miter;shape-rendering:geometricPrecision" />
  </g>
  <g
     id="g74"
     transform="matrix(1.33333,0,0,1.33333,0.2198562,-33.234711)">
    <g
       aria-label="TBDPSO"
       style="text-anchor:end;text-rendering:geometricPrecision"
       id="text72">
      <path
         d="m 13.172344,170.73 v -5.05079 h -1.886719 v -0.67578 h 4.539063 v 0.67578 H 13.930157 V 170.73 Z"
         style="font-size:8px;font-family:Arial;fill:#000000"
         id="path1813"
         inkscape:connector-curvature="0" />
      <path
         d="m 16.574688,170.73 v -5.72657 h 2.148437 q 0.65625,0 1.050782,0.17578 0.398437,0.17188 0.621093,0.53516 0.226563,0.35938 0.226563,0.75391 0,0.36718 -0.199219,0.6914 -0.199219,0.32422 -0.601562,0.52344 0.519531,0.15234 0.796875,0.51953 0.28125,0.36719 0.28125,0.86719 0,0.40234 -0.171875,0.75 -0.167969,0.34375 -0.417969,0.53125 -0.25,0.1875 -0.628906,0.28516 -0.375,0.0937 -0.921875,0.0937 z m 0.757812,-3.32032 h 1.238282 q 0.503906,0 0.722656,-0.0664 0.289062,-0.0859 0.433594,-0.28516 0.148437,-0.19922 0.148437,-0.5 0,-0.28516 -0.136719,-0.5 -0.136718,-0.21875 -0.390625,-0.29687 -0.253906,-0.082 -0.871093,-0.082 H 17.3325 Z m 0,2.64453 h 1.425782 q 0.367187,0 0.515625,-0.0273 0.261718,-0.0469 0.4375,-0.15625 0.175781,-0.10937 0.289062,-0.31641 0.113281,-0.21093 0.113281,-0.48437 0,-0.32031 -0.164062,-0.55469 -0.164063,-0.23828 -0.457031,-0.33203 -0.289063,-0.0977 -0.835938,-0.0977 H 17.3325 Z"
         style="font-size:8px;font-family:Arial;fill:#000000"
         id="path1815"
         inkscape:connector-curvature="0" />
      <path
         d="m 21.949688,170.73 v -5.72657 h 1.972656 q 0.667969,0 1.019531,0.082 0.492188,0.11329 0.839844,0.41016 0.453125,0.38281 0.675781,0.98047 0.226563,0.59375 0.226563,1.35937 0,0.65235 -0.152344,1.15625 -0.152344,0.50391 -0.390625,0.83594 -0.238281,0.32813 -0.523437,0.51953 -0.28125,0.1875 -0.683594,0.28516 -0.398438,0.0977 -0.917969,0.0977 z m 0.757812,-0.67579 h 1.222657 q 0.566406,0 0.886718,-0.10546 0.324219,-0.10547 0.515625,-0.29688 0.269532,-0.26953 0.417969,-0.72266 0.152344,-0.45703 0.152344,-1.10546 0,-0.89844 -0.296875,-1.37891 -0.292969,-0.48438 -0.714844,-0.64844 -0.304687,-0.11719 -0.980469,-0.11719 H 22.7075 Z"
         style="font-size:8px;font-family:Arial;fill:#000000"
         id="path1817"
         inkscape:connector-curvature="0" />
      <path
         d="m 27.730938,170.73 v -5.72657 h 2.160156 q 0.570313,0 0.871094,0.0547 0.421875,0.0703 0.707031,0.26953 0.285156,0.19531 0.457031,0.55078 0.175782,0.35547 0.175782,0.78125 0,0.73047 -0.464844,1.23828 -0.464844,0.50391 -1.679688,0.50391 H 28.48875 V 170.73 Z m 0.757812,-3.00391 h 1.480469 q 0.734375,0 1.042969,-0.27344 0.308594,-0.27344 0.308594,-0.76953 0,-0.35937 -0.183594,-0.61328 -0.179688,-0.25781 -0.476563,-0.33984 -0.191406,-0.0508 -0.707031,-0.0508 H 28.48875 Z"
         style="font-size:8px;font-family:Arial;fill:#000000"
         id="path1819"
         inkscape:connector-curvature="0" />
      <path
         d="m 32.816875,168.89015 0.714844,-0.0625 q 0.05078,0.42969 0.234375,0.70703 0.1875,0.27344 0.578125,0.44532 0.390625,0.16796 0.878906,0.16796 0.433594,0 0.765625,-0.1289 0.332032,-0.12891 0.492188,-0.35156 0.164062,-0.22657 0.164062,-0.49219 0,-0.26953 -0.15625,-0.46875 -0.15625,-0.20313 -0.515625,-0.33985 -0.230468,-0.0898 -1.019531,-0.27734 -0.789062,-0.19141 -1.105469,-0.35937 -0.410156,-0.21485 -0.613281,-0.53125 -0.199219,-0.32032 -0.199219,-0.71485 0,-0.43359 0.246094,-0.80859 0.246094,-0.37891 0.71875,-0.57422 0.472656,-0.19531 1.050781,-0.19531 0.636719,0 1.121094,0.20703 0.488281,0.20312 0.75,0.60156 0.261719,0.39844 0.28125,0.90234 l -0.726562,0.0547 q -0.05859,-0.54297 -0.398438,-0.82031 -0.335937,-0.27734 -0.996094,-0.27734 -0.6875,0 -1.003906,0.2539 -0.3125,0.25 -0.3125,0.60547 0,0.30859 0.222656,0.50781 0.21875,0.19922 1.140625,0.41016 0.925782,0.20703 1.269532,0.36328 0.5,0.23047 0.738281,0.58594 0.238281,0.35156 0.238281,0.8125 0,0.45703 -0.261719,0.86328 -0.261718,0.40234 -0.753906,0.62891 -0.488281,0.22265 -1.101562,0.22265 -0.777344,0 -1.304688,-0.22656 -0.523437,-0.22656 -0.824219,-0.67969 -0.296875,-0.45703 -0.3125,-1.03125 z"
         style="font-size:8px;font-family:Arial;fill:#000000"
         id="path1821"
         inkscape:connector-curvature="0" />
      <path
         d="m 38.187969,167.94093 q 0,-1.42578 0.765625,-2.23047 0.765625,-0.80859 1.976563,-0.80859 0.792968,0 1.429687,0.37891 0.636719,0.3789 0.96875,1.05859 0.335938,0.67578 0.335938,1.53516 0,0.87109 -0.351563,1.55859 -0.351562,0.6875 -0.996094,1.04297 -0.644531,0.35156 -1.390625,0.35156 -0.808593,0 -1.445312,-0.39062 -0.636719,-0.39063 -0.964844,-1.06641 -0.328125,-0.67578 -0.328125,-1.42969 z m 0.78125,0.0117 q 0,1.03516 0.554688,1.63281 0.558593,0.59375 1.398437,0.59375 0.855469,0 1.40625,-0.60156 0.554688,-0.60156 0.554688,-1.70703 0,-0.69922 -0.238282,-1.21875 -0.234375,-0.52344 -0.691406,-0.80859 -0.453125,-0.28907 -1.019531,-0.28907 -0.804688,0 -1.386719,0.55469 -0.578125,0.55078 -0.578125,1.84375 z"
         style="font-size:8px;font-family:Arial;fill:#000000"
         id="path1823"
         inkscape:connector-curvature="0" />
    </g>
  </g>
  <g
     id="g78"
     transform="matrix(1.33333,0,0,1.33333,0.2198562,-33.234711)">
    <path
       d="m 48.77,159.37 v 0 l 0.28,0.08 0.08,0.28 -5.13,5.13 -0.18,-0.18 -0.18,-0.18 z"
       id="path76"
       inkscape:connector-curvature="0"
       style="fill:#000000;fill-rule:evenodd;stroke:#000000;stroke-width:0;stroke-linejoin:miter;shape-rendering:geometricPrecision" />
  </g>
  <g
     id="g82"
     transform="matrix(1.33333,0,0,1.33333,0.2198562,-33.234711)">
    <path
       d="m 60.44,162.5 v 0 l -0.28,-0.08 -0.08,-0.28 7.93,-7.93 0.28,0.08 0.28,0.08 z"
       id="path80"
       inkscape:connector-curvature="0"
       style="fill:#e69e00;fill-rule:evenodd;stroke:#e69e00;stroke-width:0;stroke-linejoin:miter;shape-rendering:geometricPrecision" />
  </g>
  <g
     id="g88"
     transform="matrix(1.33333,0,0,1.33333,0.2198562,-33.234711)">
    <path
       d="m 68.57,154.37 v 0 l -0.28,-0.08 -0.28,-0.08 -2.95,-10.96 0.25,-0.07 0.25,-0.07 z"
       id="path84"
       inkscape:connector-curvature="0"
       style="fill:#e69e00;fill-rule:evenodd;stroke:#e69e00;stroke-width:0;stroke-linejoin:miter;shape-rendering:geometricPrecision" />
    <path
       style="stroke:#e69e00;stroke-width:0.50999999;shape-rendering:auto"
       d="m 65.980003,153.67 -2.670002,-9.95"
       id="line86"
       inkscape:connector-curvature="0" />
  </g>
  <g
     id="g94"
     transform="matrix(1.33333,0,0,1.33333,0.2198562,-33.234711)">
    <path
       d="m 62.85,173.45 v 0 l 0.28,0.08 0.28,0.08 -8.23,8.23 -0.18,-0.18 -0.18,-0.18 z"
       id="path90"
       inkscape:connector-curvature="0"
       style="fill:#e69e00;fill-rule:evenodd;stroke:#e69e00;stroke-width:0;stroke-linejoin:miter;shape-rendering:geometricPrecision" />
    <path
       style="stroke:#e69e00;stroke-width:0.50999999;shape-rendering:auto"
       d="m 60.82,172.91 -7.279999,7.29"
       id="line92"
       inkscape:connector-curvature="0" />
  </g>
  <g
     id="g100"
     transform="matrix(1.33333,0,0,1.33333,0.2198562,-33.234711)">
    <g
       aria-label="N"
       style="text-anchor:start;text-rendering:geometricPrecision"
       id="text98">
      <path
         d="m 148.22937,126.88 v -5.72657 h 0.77734 l 3.00782,4.4961 v -4.4961 h 0.72656 V 126.88 h -0.77734 l -3.00782,-4.5 v 4.5 z"
         style="font-size:8px;font-family:Arial;fill:#009d73"
         id="path1828"
         inkscape:connector-curvature="0" />
    </g>
  </g>
  <g
     id="g104"
     transform="matrix(1.33333,0,0,1.33333,0.2198562,-33.234711)">
    <path
       d="m 147.03,123.11 v 0 l -0.02,0.25 -0.03,0.26 -8.11,-0.86 0.21,-0.23 0.21,-0.23 z"
       id="path102"
       inkscape:connector-curvature="0"
       style="fill:#009d73;fill-rule:evenodd;stroke:#009d73;stroke-width:0;stroke-linejoin:miter;shape-rendering:geometricPrecision" />
  </g>
  <g
     id="g108"
     transform="matrix(1.33333,0,0,1.33333,0.2198562,-33.234711)">
    <path
       d="m 139.29,122.3 v 0 l -0.21,0.23 -0.21,0.23 -2.47,-11.61 0.29,0.13 0.29,0.13 z"
       id="path106"
       inkscape:connector-curvature="0"
       style="fill:#009d73;fill-rule:evenodd;stroke:#009d73;stroke-width:0;stroke-linejoin:miter;shape-rendering:geometricPrecision" />
  </g>
  <g
     id="g112"
     transform="matrix(1.33333,0,0,1.33333,0.2198562,-33.234711)">
    <path
       d="m 136.98,111.41 v 0 l -0.29,-0.13 -0.29,-0.13 10.28,-5.93 -0.03,0.31 -0.03,0.31 z"
       id="path110"
       inkscape:connector-curvature="0"
       style="fill:#009d73;fill-rule:evenodd;stroke:#009d73;stroke-width:0;stroke-linejoin:miter;shape-rendering:geometricPrecision" />
  </g>
  <g
     id="g116"
     transform="matrix(1.33333,0,0,1.33333,0.2198562,-33.234711)">
    <path
       d="m 146.62,105.84 v 0 l 0.03,-0.31 0.03,-0.31 8.58,7.73 -0.06,0.28 -0.31,0.07 z"
       id="path114"
       inkscape:connector-curvature="0"
       style="fill:#009d73;fill-rule:evenodd;stroke:#009d73;stroke-width:0;stroke-linejoin:miter;shape-rendering:geometricPrecision" />
  </g>
  <g
     id="g120"
     transform="matrix(1.33333,0,0,1.33333,0.2198562,-33.234711)">
    <path
       d="m 154.89,113.3 v 0 l 0.31,-0.07 0.18,0.23 -2.97,6.66 -0.23,-0.11 -0.24,-0.1 z"
       id="path118"
       inkscape:connector-curvature="0"
       style="fill:#009d73;fill-rule:evenodd;stroke:#009d73;stroke-width:0;stroke-linejoin:miter;shape-rendering:geometricPrecision" />
  </g>
  <g
     id="g126"
     transform="matrix(1.33333,0,0,1.33333,0.2198562,-33.234711)">
    <g
       aria-label="•"
       style="text-anchor:start;text-rendering:geometricPrecision"
       id="text124">
      <path
         d="m 155.29578,134.03531 q 0,-0.41016 0.28906,-0.69922 0.29297,-0.28906 0.69922,-0.28906 0.41015,0 0.69922,0.28906 0.29297,0.28906 0.29297,0.69922 0,0.41016 -0.29297,0.70312 -0.28907,0.28907 -0.69922,0.28907 -0.40625,0 -0.69922,-0.28907 -0.28906,-0.29296 -0.28906,-0.70312 z"
         style="font-size:8px;font-family:Arial;fill:#009d73"
         id="path1831"
         inkscape:connector-curvature="0" />
    </g>
  </g>
  <g
     id="g134"
     transform="matrix(1.33333,0,0,1.33333,0.2198562,-33.234711)">
    <path
       style="stroke:#009d73;stroke-width:0.50999999;shape-rendering:auto"
       d="m 153.82001,127.55 2.28,3.95"
       id="line128"
       inkscape:connector-curvature="0" />
    <path
       d="m 152.4,128.37 v 0 l -0.44,0.26 2.28,3.94 0.44,-0.25 z"
       id="path130"
       inkscape:connector-curvature="0"
       style="fill:#009d73;fill-rule:evenodd;stroke:#009d73;stroke-width:0;stroke-linejoin:miter;shape-rendering:geometricPrecision" />
    <path
       d="m 154.04,127.43 v 0 l -0.44,0.25 2.28,3.95 0.44,-0.26 z"
       id="path132"
       inkscape:connector-curvature="0"
       style="fill:#009d73;fill-rule:evenodd;stroke:#009d73;stroke-width:0;stroke-linejoin:miter;shape-rendering:geometricPrecision" />
  </g>
  <g
     id="g142"
     transform="matrix(1.33333,0,0,1.33333,0.2198562,-33.234711)">
    <path
       style="stroke:#009d73;stroke-width:0.50999999;shape-rendering:auto"
       d="m 158.58,135.74001 4.29,7.41999"
       id="line136"
       inkscape:connector-curvature="0" />
    <path
       d="m 157.11,136.59 v 0 l -0.44,0.25 4.49,7.79 0.3,-0.51 z"
       id="path138"
       inkscape:connector-curvature="0"
       style="fill:#009d73;fill-rule:evenodd;stroke:#009d73;stroke-width:0;stroke-linejoin:miter;shape-rendering:geometricPrecision" />
    <path
       d="m 158.8,135.61 v 0 l -0.44,0.26 4.28,7.42 0.45,-0.26 z"
       id="path140"
       inkscape:connector-curvature="0"
       style="fill:#009d73;fill-rule:evenodd;stroke:#009d73;stroke-width:0;stroke-linejoin:miter;shape-rendering:geometricPrecision" />
  </g>
  <g
     id="g146"
     transform="matrix(1.33333,0,0,1.33333,0.2198562,-33.234711)">
    <path
       d="m 162.17,163.82 v 0 l -0.15,-0.25 0.15,-0.25 h 11.2 l 0.15,0.25 -0.15,0.25 z"
       id="path144"
       inkscape:connector-curvature="0"
       style="fill:#000000;fill-rule:evenodd;stroke:#000000;stroke-width:0;stroke-linejoin:miter;shape-rendering:geometricPrecision" />
  </g>
  <g
     id="g150"
     transform="matrix(1.33333,0,0,1.33333,0.2198562,-33.234711)">
    <path
       d="m 173.37,163.82 v 0 l 0.15,-0.25 h 0.29 l 5.75,9.96 h -0.29 -0.29 z"
       id="path148"
       inkscape:connector-curvature="0"
       style="fill:#e69e00;fill-rule:evenodd;stroke:#e69e00;stroke-width:0;stroke-linejoin:miter;shape-rendering:geometricPrecision" />
  </g>
  <g
     id="g156"
     transform="matrix(1.33333,0,0,1.33333,0.2198562,-33.234711)">
    <g
       aria-label="TBDPSO"
       style="text-anchor:end;text-rendering:geometricPrecision"
       id="text154">
      <path
         d="m 128.52234,176.67999 v -5.05078 h -1.88672 v -0.67578 h 4.53906 v 0.67578 h -1.89453 v 5.05078 z"
         style="font-size:8px;font-family:Arial;fill:#000000"
         id="path1836"
         inkscape:connector-curvature="0" />
      <path
         d="m 131.92468,176.67999 v -5.72656 h 2.14844 q 0.65625,0 1.05078,0.17578 0.39844,0.17188 0.6211,0.53516 0.22656,0.35937 0.22656,0.7539 0,0.36719 -0.19922,0.69141 -0.19922,0.32422 -0.60156,0.52344 0.51953,0.15234 0.79687,0.51953 0.28125,0.36719 0.28125,0.86719 0,0.40234 -0.17187,0.75 -0.16797,0.34375 -0.41797,0.53125 -0.25,0.1875 -0.62891,0.28515 -0.375,0.0937 -0.92187,0.0937 z m 0.75782,-3.32031 h 1.23828 q 0.5039,0 0.72265,-0.0664 0.28907,-0.0859 0.4336,-0.28515 0.14843,-0.19922 0.14843,-0.5 0,-0.28516 -0.13671,-0.5 -0.13672,-0.21875 -0.39063,-0.29688 -0.25391,-0.082 -0.87109,-0.082 h -1.14453 z m 0,2.64453 h 1.42578 q 0.36718,0 0.51562,-0.0273 0.26172,-0.0469 0.4375,-0.15625 0.17578,-0.10938 0.28906,-0.31641 0.11329,-0.21094 0.11329,-0.48437 0,-0.32032 -0.16407,-0.55469 -0.16406,-0.23828 -0.45703,-0.33203 -0.28906,-0.0977 -0.83594,-0.0977 h -1.32421 z"
         style="font-size:8px;font-family:Arial;fill:#000000"
         id="path1838"
         inkscape:connector-curvature="0" />
      <path
         d="m 137.29968,176.67999 v -5.72656 h 1.97266 q 0.66797,0 1.01953,0.082 0.49219,0.11328 0.83984,0.41016 0.45313,0.38281 0.67579,0.98047 0.22656,0.59375 0.22656,1.35937 0,0.65235 -0.15235,1.15625 -0.15234,0.50391 -0.39062,0.83594 -0.23828,0.32812 -0.52344,0.51953 -0.28125,0.1875 -0.68359,0.28516 -0.39844,0.0977 -0.91797,0.0977 z m 0.75782,-0.67578 h 1.22265 q 0.56641,0 0.88672,-0.10547 0.32422,-0.10547 0.51563,-0.29687 0.26953,-0.26953 0.41796,-0.72266 0.15235,-0.45703 0.15235,-1.10547 0,-0.89843 -0.29688,-1.3789 -0.29297,-0.48438 -0.71484,-0.64844 -0.30469,-0.11719 -0.98047,-0.11719 h -1.20312 z"
         style="font-size:8px;font-family:Arial;fill:#000000"
         id="path1840"
         inkscape:connector-curvature="0" />
      <path
         d="m 143.08093,176.67999 v -5.72656 h 2.16016 q 0.57031,0 0.87109,0.0547 0.42188,0.0703 0.70703,0.26953 0.28516,0.19531 0.45704,0.55078 0.17578,0.35547 0.17578,0.78125 0,0.73047 -0.46485,1.23828 -0.46484,0.50391 -1.67968,0.50391 h -1.46875 V 176.68 Z m 0.75782,-3.0039 h 1.48046 q 0.73438,0 1.04297,-0.27344 0.3086,-0.27344 0.3086,-0.76953 0,-0.35938 -0.1836,-0.61328 -0.17968,-0.25782 -0.47656,-0.33985 -0.19141,-0.0508 -0.70703,-0.0508 h -1.46484 z"
         style="font-size:8px;font-family:Arial;fill:#000000"
         id="path1842"
         inkscape:connector-curvature="0" />
      <path
         d="m 148.16687,174.84015 0.71484,-0.0625 q 0.0508,0.42969 0.23438,0.70703 0.1875,0.27344 0.57812,0.44531 0.39063,0.16797 0.87891,0.16797 0.43359,0 0.76563,-0.1289 0.33203,-0.12891 0.49218,-0.35157 0.16407,-0.22656 0.16407,-0.49218 0,-0.26954 -0.15625,-0.46875 -0.15625,-0.20313 -0.51563,-0.33985 -0.23047,-0.0898 -1.01953,-0.27734 -0.78906,-0.19141 -1.10547,-0.35938 -0.41016,-0.21484 -0.61328,-0.53125 -0.19922,-0.32031 -0.19922,-0.71484 0,-0.43359 0.24609,-0.80859 0.2461,-0.37891 0.71875,-0.57422 0.47266,-0.19532 1.05079,-0.19532 0.63671,0 1.12109,0.20704 0.48828,0.20312 0.75,0.60156 0.26172,0.39844 0.28125,0.90234 l -0.72656,0.0547 q -0.0586,-0.54297 -0.39844,-0.82031 -0.33594,-0.27735 -0.99609,-0.27735 -0.6875,0 -1.00391,0.25391 -0.3125,0.25 -0.3125,0.60547 0,0.30859 0.22266,0.50781 0.21875,0.19922 1.14062,0.41016 0.92578,0.20703 1.26953,0.36328 0.5,0.23047 0.73828,0.58594 0.23828,0.35156 0.23828,0.8125 0,0.45703 -0.26171,0.86328 -0.26172,0.40234 -0.75391,0.6289 -0.48828,0.22266 -1.10156,0.22266 -0.77735,0 -1.30469,-0.22656 -0.52344,-0.22657 -0.82422,-0.67969 -0.29687,-0.45703 -0.3125,-1.03125 z"
         style="font-size:8px;font-family:Arial;fill:#000000"
         id="path1844"
         inkscape:connector-curvature="0" />
      <path
         d="m 153.53796,173.89093 q 0,-1.42578 0.76563,-2.23047 0.76562,-0.80859 1.97656,-0.80859 0.79297,0 1.42969,0.3789 0.63672,0.37891 0.96875,1.0586 0.33594,0.67578 0.33594,1.53515 0,0.8711 -0.35157,1.5586 -0.35156,0.6875 -0.99609,1.04297 -0.64453,0.35156 -1.39062,0.35156 -0.8086,0 -1.44532,-0.39063 -0.63672,-0.39062 -0.96484,-1.0664 -0.32813,-0.67578 -0.32813,-1.42969 z m 0.78125,0.0117 q 0,1.03516 0.55469,1.63281 0.5586,0.59375 1.39844,0.59375 0.85547,0 1.40625,-0.60156 0.55469,-0.60156 0.55469,-1.70703 0,-0.69922 -0.23828,-1.21875 -0.23438,-0.52344 -0.69141,-0.8086 -0.45313,-0.28906 -1.01953,-0.28906 -0.80469,0 -1.38672,0.55469 -0.57813,0.55078 -0.57813,1.84375 z"
         style="font-size:8px;font-family:Arial;fill:#000000"
         id="path1846"
         inkscape:connector-curvature="0" />
    </g>
  </g>
  <g
     id="g160"
     transform="matrix(1.33333,0,0,1.33333,0.2198562,-33.234711)">
    <path
       d="m 161.73,163.57 v 0 h 0.29 l 0.15,0.25 -3.68,6.38 -0.22,-0.13 -0.23,-0.12 z"
       id="path158"
       inkscape:connector-curvature="0"
       style="fill:#000000;fill-rule:evenodd;stroke:#000000;stroke-width:0;stroke-linejoin:miter;shape-rendering:geometricPrecision" />
  </g>
  <g
     id="g164"
     transform="matrix(1.33333,0,0,1.33333,0.2198562,-33.234711)">
    <path
       d="m 173.81,163.57 v 0 h -0.29 l -0.15,-0.25 5.61,-9.71 h 0.29 0.29 z"
       id="path162"
       inkscape:connector-curvature="0"
       style="fill:#e69e00;fill-rule:evenodd;stroke:#e69e00;stroke-width:0;stroke-linejoin:miter;shape-rendering:geometricPrecision" />
  </g>
  <g
     id="g170"
     transform="matrix(1.33333,0,0,1.33333,0.2198562,-33.234711)">
    <path
       d="m 179.56,153.61 v 0 h -0.29 -0.29 l -5.68,-9.83 0.22,-0.13 0.22,-0.13 z"
       id="path166"
       inkscape:connector-curvature="0"
       style="fill:#e69e00;fill-rule:evenodd;stroke:#e69e00;stroke-width:0;stroke-linejoin:miter;shape-rendering:geometricPrecision" />
    <path
       style="stroke:#e69e00;stroke-width:0.50999999;shape-rendering:auto"
       d="m 176.88,153.61 -5.15,-8.93001"
       id="line168"
       inkscape:connector-curvature="0" />
  </g>
  <g
     id="g174"
     transform="matrix(1.33333,0,0,1.33333,0.2198562,-33.234711)">
    <path
       d="m 155.98,153.61 v 0 h 0.29 0.29 l 5.61,9.71 -0.15,0.25 h -0.29 z"
       id="path172"
       inkscape:connector-curvature="0"
       style="fill:#000000;fill-rule:evenodd;stroke:#000000;stroke-width:0;stroke-linejoin:miter;shape-rendering:geometricPrecision" />
  </g>
  <g
     id="g180"
     transform="matrix(1.33333,0,0,1.33333,0.2198562,-33.234711)">
    <path
       d="m 178.98,173.53 v 0 h 0.29 0.29 l -5.82,10.09 -0.22,-0.13 -0.22,-0.13 z"
       id="path176"
       inkscape:connector-curvature="0"
       style="fill:#e69e00;fill-rule:evenodd;stroke:#e69e00;stroke-width:0;stroke-linejoin:miter;shape-rendering:geometricPrecision" />
    <path
       style="stroke:#e69e00;stroke-width:0.50999999;shape-rendering:auto"
       d="m 176.88,173.53 -5.15,8.93001"
       id="line178"
       inkscape:connector-curvature="0" />
  </g>
  <g
     id="g184"
     transform="matrix(1.33333,0,0,1.33333,0.2198562,-33.234711)">
    <path
       d="m 161.8,143.52 v 0 l 0.22,0.13 0.22,0.13 -5.68,9.83 h -0.29 -0.29 z"
       id="path182"
       inkscape:connector-curvature="0"
       style="fill:#000000;fill-rule:evenodd;stroke:#000000;stroke-width:0;stroke-linejoin:miter;shape-rendering:geometricPrecision" />
  </g>
  <g
     id="Wedged Hash Begin Bond"
     transform="matrix(1.33333,0,0,1.33333,0.2198562,-33.234711)">
    <path
       d="m 138.89,122.36 v 0 l 0.38,0.34 -0.31,0.41 -0.44,-0.4 z"
       id="path186"
       inkscape:connector-curvature="0"
       style="fill:#009d73;fill-rule:evenodd;stroke:#009d73;stroke-width:0;stroke-linejoin:miter;shape-rendering:geometricPrecision" />
    <path
       d="m 137.29,123.88 v 0 l 0.64,0.58 -0.31,0.4 -0.71,-0.63 z"
       id="path188"
       inkscape:connector-curvature="0"
       style="fill:#009d73;fill-rule:evenodd;stroke:#009d73;stroke-width:0;stroke-linejoin:miter;shape-rendering:geometricPrecision" />
    <path
       d="m 135.68,125.39 v 0 l 0.91,0.82 -0.31,0.41 -0.97,-0.88 z"
       id="path190"
       inkscape:connector-curvature="0"
       style="fill:#009d73;fill-rule:evenodd;stroke:#009d73;stroke-width:0;stroke-linejoin:miter;shape-rendering:geometricPrecision" />
    <path
       d="m 134.08,126.91 v 0 l 1.17,1.06 -0.31,0.41 -1.24,-1.12 z"
       id="path192"
       inkscape:connector-curvature="0"
       style="fill:#009d73;fill-rule:evenodd;stroke:#009d73;stroke-width:0;stroke-linejoin:miter;shape-rendering:geometricPrecision" />
    <path
       d="m 132.47,128.42 v 0 l 1.45,1.3 -0.31,0.41 -1.51,-1.35 z"
       id="path194"
       inkscape:connector-curvature="0"
       style="fill:#009d73;fill-rule:evenodd;stroke:#009d73;stroke-width:0;stroke-linejoin:miter;shape-rendering:geometricPrecision" />
    <path
       d="m 130.87,129.94 v 0 l 1.71,1.54 -0.31,0.41 -1.78,-1.6 z"
       id="path196"
       inkscape:connector-curvature="0"
       style="fill:#009d73;fill-rule:evenodd;stroke:#009d73;stroke-width:0;stroke-linejoin:miter;shape-rendering:geometricPrecision" />
  </g>
  <g
     id="WedgeBegin"
     transform="matrix(1.33333,0,0,1.33333,0.2198562,-33.234711)">
    <path
       d="m 155.38,113.46 v 0 l -0.18,-0.23 0.06,-0.28 10.94,-3.28 0.25,1.17 0.25,1.17 z"
       id="path199"
       inkscape:connector-curvature="0"
       style="fill:#009d73;fill-rule:evenodd;stroke:#009d73;stroke-width:0;stroke-linejoin:miter;shape-rendering:geometricPrecision" />
  </g>
  <g
     id="g204"
     transform="matrix(1.33333,0,0,1.33333,0.2198562,-33.234711)">
    <path
       d="m 17.05,120.58 v 0 l -0.29,-0.04 -0.16,-0.25 5.43,-10.05 1,0.65 1,0.65 z"
       id="path202"
       inkscape:connector-curvature="0"
       style="fill:#009d73;fill-rule:evenodd;stroke:#009d73;stroke-width:0;stroke-linejoin:miter;shape-rendering:geometricPrecision" />
  </g>
  <g
     id="g218"
     transform="matrix(1.33333,0,0,1.33333,0.2198562,-33.234711)">
    <path
       d="m 11.69,138.52 v 0 l 0.5,-0.02 0.07,0.5 -0.59,0.03 z"
       id="path206"
       inkscape:connector-curvature="0"
       style="fill:#009d73;fill-rule:evenodd;stroke:#009d73;stroke-width:0;stroke-linejoin:miter;shape-rendering:geometricPrecision" />
    <path
       d="m 11.62,140.73 v 0 l 0.87,-0.04 0.07,0.5 -0.95,0.05 z"
       id="path208"
       inkscape:connector-curvature="0"
       style="fill:#009d73;fill-rule:evenodd;stroke:#009d73;stroke-width:0;stroke-linejoin:miter;shape-rendering:geometricPrecision" />
    <path
       d="m 11.56,142.94 v 0 l 1.23,-0.07 0.06,0.51 -1.3,0.07 z"
       id="path210"
       inkscape:connector-curvature="0"
       style="fill:#009d73;fill-rule:evenodd;stroke:#009d73;stroke-width:0;stroke-linejoin:miter;shape-rendering:geometricPrecision" />
    <path
       d="m 11.5,145.15 v 0 l 1.58,-0.09 0.07,0.51 -1.67,0.09 z"
       id="path212"
       inkscape:connector-curvature="0"
       style="fill:#009d73;fill-rule:evenodd;stroke:#009d73;stroke-width:0;stroke-linejoin:miter;shape-rendering:geometricPrecision" />
    <path
       d="m 11.44,147.35 v 0 l 1.94,-0.1 0.07,0.51 -2.03,0.11 z"
       id="path214"
       inkscape:connector-curvature="0"
       style="fill:#009d73;fill-rule:evenodd;stroke:#009d73;stroke-width:0;stroke-linejoin:miter;shape-rendering:geometricPrecision" />
    <path
       d="m 11.37,149.56 v 0 l 2.3,-0.12 0.07,0.51 -2.38,0.12 z"
       id="path216"
       inkscape:connector-curvature="0"
       style="fill:#009d73;fill-rule:evenodd;stroke:#009d73;stroke-width:0;stroke-linejoin:miter;shape-rendering:geometricPrecision" />
  </g>
  <g
     id="Charge9461"
     transform="matrix(1.33333,0,0,1.33333,0.2198562,-33.234711)">
    <path
       style="fill:none;stroke:#009d73;stroke-width:0.40799999"
       d="M 160.14814,121.69 A 2.6681478,2.6681478 0 0 1 157.48,124.35815 2.6681478,2.6681478 0 0 1 154.81185,121.69 2.6681478,2.6681478 0 0 1 157.48,119.02185 2.6681478,2.6681478 0 0 1 160.14814,121.69 Z"
       id="circle220"
       inkscape:connector-curvature="0" />
    <path
       style="stroke:#009d73;stroke-width:0.40799999;shape-rendering:auto"
       d="m 155.89,121.69 h 3.18001"
       id="line222"
       inkscape:connector-curvature="0" />
    <path
       style="stroke:#009d73;stroke-width:0.40799999;shape-rendering:auto"
       d="m 157.48,120.1 v 3.18"
       id="line224"
       inkscape:connector-curvature="0" />
  </g>
  <g
     id="g229"
     transform="matrix(1.33333,0,0,1.33333,0.2198562,-33.234711)">
    <path
       d="m 249.96,147.52 v 0 l 0.19,-0.26 0.19,-0.26 h 11.13 l 0.19,0.26 0.19,0.26 z"
       id="path227"
       inkscape:connector-curvature="0"
       style="fill:#000000;fill-rule:evenodd;stroke:#000000;stroke-width:0;stroke-linejoin:miter;shape-rendering:geometricPrecision" />
  </g>
  <g
     id="g233"
     transform="matrix(1.33333,0,0,1.33333,0.2198562,-33.234711)">
    <path
       d="m 261.85,147.52 v 0 l -0.19,-0.26 -0.19,-0.26 3.44,-10.59 0.3,-0.1 0.3,-0.1 z"
       id="path231"
       inkscape:connector-curvature="0"
       style="fill:#000000;fill-rule:evenodd;stroke:#000000;stroke-width:0;stroke-linejoin:miter;shape-rendering:geometricPrecision" />
  </g>
  <g
     id="g237"
     transform="matrix(1.33333,0,0,1.33333,0.2198562,-33.234711)">
    <path
       d="m 265.51,136.21 v 0 l -0.3,0.1 -0.3,0.1 -9.01,-6.54 v -0.32 l 0.41,-0.02 z"
       id="path235"
       inkscape:connector-curvature="0"
       style="fill:#e69e00;fill-rule:evenodd;stroke:#e69e00;stroke-width:0;stroke-linejoin:miter;shape-rendering:geometricPrecision" />
  </g>
  <g
     id="g241"
     transform="matrix(1.33333,0,0,1.33333,0.2198562,-33.234711)">
    <path
       d="m 255.54,129.49 v 0 l 0.36,0.06 v 0.32 l -9.01,6.54 -0.3,-0.1 0.06,-0.36 z"
       id="path239"
       inkscape:connector-curvature="0"
       style="fill:#e69e00;fill-rule:evenodd;stroke:#e69e00;stroke-width:0;stroke-linejoin:miter;shape-rendering:geometricPrecision" />
  </g>
  <g
     id="g245"
     transform="matrix(1.33333,0,0,1.33333,0.2198562,-33.234711)">
    <path
       d="m 246.45,136.7 v 0 l 0.14,-0.39 0.3,0.1 3.45,10.59 -0.19,0.26 -0.19,0.26 z"
       id="path243"
       inkscape:connector-curvature="0"
       style="fill:#000000;fill-rule:evenodd;stroke:#000000;stroke-width:0;stroke-linejoin:miter;shape-rendering:geometricPrecision" />
  </g>
  <g
     id="g249"
     transform="matrix(1.33333,0,0,1.33333,0.2198562,-33.234711)">
    <path
       d="m 255.92,129.14 v 0 l -0.02,0.41 -0.36,-0.06 -6.46,-8.89 0.06,-0.36 0.06,-0.36 z"
       id="path247"
       inkscape:connector-curvature="0"
       style="fill:#009d73;fill-rule:evenodd;stroke:#009d73;stroke-width:0;stroke-linejoin:miter;shape-rendering:geometricPrecision" />
  </g>
  <g
     id="g253"
     transform="matrix(1.33333,0,0,1.33333,0.2198562,-33.234711)">
    <path
       d="m 249.2,119.88 v 0 l -0.06,0.36 -0.06,0.36 -8.89,6.46 -0.36,-0.06 -0.36,-0.06 z"
       id="path251"
       inkscape:connector-curvature="0"
       style="fill:#009d73;fill-rule:evenodd;stroke:#009d73;stroke-width:0;stroke-linejoin:miter;shape-rendering:geometricPrecision" />
  </g>
  <g
     id="g257"
     transform="matrix(1.33333,0,0,1.33333,0.2198562,-33.234711)">
    <path
       d="m 239.47,126.94 v 0 l 0.36,0.06 0.36,0.06 6.46,8.89 -0.06,0.36 -0.4,-0.11 z"
       id="path255"
       inkscape:connector-curvature="0"
       style="fill:#009d73;fill-rule:evenodd;stroke:#009d73;stroke-width:0;stroke-linejoin:miter;shape-rendering:geometricPrecision" />
  </g>
  <g
     id="g263"
     transform="matrix(1.33333,0,0,1.33333,0.2198562,-33.234711)">
    <g
       aria-label="O"
       style="text-anchor:start;text-rendering:geometricPrecision"
       id="text261">
      <path
         d="m 225.74672,125.56094 q 0,-1.42578 0.76562,-2.23047 0.76563,-0.80859 1.97657,-0.80859 0.79297,0 1.42968,0.37891 0.63672,0.3789 0.96875,1.05859 0.33594,0.67578 0.33594,1.53516 0,0.87109 -0.35156,1.55859 -0.35156,0.6875 -0.99609,1.04297 -0.64454,0.35156 -1.39063,0.35156 -0.80859,0 -1.44531,-0.39062 -0.63672,-0.39063 -0.96485,-1.06641 -0.32812,-0.67578 -0.32812,-1.42969 z m 0.78125,0.0117 q 0,1.03516 0.55469,1.63281 0.55859,0.59375 1.39843,0.59375 0.85547,0 1.40625,-0.60156 0.55469,-0.60156 0.55469,-1.70703 0,-0.69922 -0.23828,-1.21875 -0.23437,-0.52344 -0.69141,-0.80859 -0.45312,-0.28907 -1.01953,-0.28907 -0.80468,0 -1.38672,0.55469 -0.57812,0.55078 -0.57812,1.84375 z"
         style="font-size:8px;font-family:Arial;fill:#009d73"
         id="path1854"
         inkscape:connector-curvature="0" />
    </g>
  </g>
  <g
     id="g271"
     transform="matrix(1.33333,0,0,1.33333,0.2198562,-33.234711)">
    <path
       style="stroke:#009d73;stroke-width:0.50999999;shape-rendering:auto"
       d="m 239.67,128.02 -7.25,-1.14"
       id="line265"
       inkscape:connector-curvature="0" />
    <path
       d="m 240.37,126.29 v 0 l 0.58,-0.42 -8.16,-1.29 -0.08,0.5 z"
       id="path267"
       inkscape:connector-curvature="0"
       style="fill:#009d73;fill-rule:evenodd;stroke:#009d73;stroke-width:0;stroke-linejoin:miter;shape-rendering:geometricPrecision" />
    <path
       d="m 240.55,128.42 v 0 l -0.43,-0.58 -7.66,-1.22 -0.08,0.51 z"
       id="path269"
       inkscape:connector-curvature="0"
       style="fill:#009d73;fill-rule:evenodd;stroke:#009d73;stroke-width:0;stroke-linejoin:miter;shape-rendering:geometricPrecision" />
  </g>
  <g
     id="g277"
     transform="matrix(1.33333,0,0,1.33333,0.2198562,-33.234711)">
    <g
       aria-label="H"
       style="text-anchor:start;text-rendering:geometricPrecision"
       id="text275">
      <path
         d="m 234.08063,144.69 v -5.72656 h 0.75781 v 2.35156 h 2.97656 v -2.35156 h 0.75781 V 144.69 H 237.815 v -2.69922 h -2.97656 V 144.69 Z"
         style="font-size:8px;font-family:Arial;fill:#e69e00"
         id="path1858"
         inkscape:connector-curvature="0" />
    </g>
  </g>
  <g
     id="g281"
     transform="matrix(1.33333,0,0,1.33333,0.2198562,-33.234711)">
    <path
       d="m 246.19,136.2 v 0 l 0.4,0.11 -0.14,0.39 -6.15,4.16 -0.54,-1.06 -0.54,-1.07 z"
       id="path279"
       inkscape:connector-curvature="0"
       style="fill:#e69e00;fill-rule:evenodd;stroke:#e69e00;stroke-width:0;stroke-linejoin:miter;shape-rendering:geometricPrecision" />
  </g>
  <g
     id="g287"
     transform="matrix(1.33333,0,0,1.33333,0.2198562,-33.234711)">
    <g
       aria-label="H"
       style="text-anchor:start;text-rendering:geometricPrecision"
       id="text285">
      <path
         d="m 261.78064,124.56 v -5.72656 h 0.75781 v 2.35156 h 2.97656 v -2.35156 h 0.75782 V 124.56 h -0.75782 v -2.69922 h -2.97656 V 124.56 Z"
         style="font-size:8px;font-family:Arial;fill:#e69e00"
         id="path1861"
         inkscape:connector-curvature="0" />
    </g>
  </g>
  <g
     id="g291"
     transform="matrix(1.33333,0,0,1.33333,0.2198562,-33.234711)">
    <path
       d="m 256.31,129.53 v 0 l -0.41,0.02 0.02,-0.41 4.12,-5.41 0.84,0.84 0.84,0.84 z"
       id="path289"
       inkscape:connector-curvature="0"
       style="fill:#e69e00;fill-rule:evenodd;stroke:#e69e00;stroke-width:0;stroke-linejoin:miter;shape-rendering:geometricPrecision" />
  </g>
  <g
     id="g297"
     transform="matrix(1.33333,0,0,1.33333,0.2198562,-33.234711)">
    <g
       aria-label="OTBDPS"
       style="text-anchor:start;text-rendering:geometricPrecision"
       id="text295">
      <path
         d="m 265.70673,156.93094 q 0,-1.42578 0.76562,-2.23047 0.76563,-0.80859 1.97656,-0.80859 0.79297,0 1.42969,0.3789 0.63672,0.37891 0.96875,1.0586 0.33594,0.67578 0.33594,1.53515 0,0.8711 -0.35156,1.5586 -0.35157,0.6875 -0.9961,1.04296 -0.64453,0.35157 -1.39062,0.35157 -0.8086,0 -1.44532,-0.39063 -0.63671,-0.39062 -0.96484,-1.0664 -0.32812,-0.67579 -0.32812,-1.42969 z m 0.78125,0.0117 q 0,1.03515 0.55468,1.63281 0.5586,0.59375 1.39844,0.59375 0.85547,0 1.40625,-0.60156 0.55469,-0.60157 0.55469,-1.70703 0,-0.69922 -0.23828,-1.21875 -0.23438,-0.52344 -0.69141,-0.8086 -0.45312,-0.28906 -1.01953,-0.28906 -0.80469,0 -1.38672,0.55469 -0.57812,0.55078 -0.57812,1.84375 z"
         style="font-size:8px;font-family:Arial;fill:#000000"
         id="path1864"
         inkscape:connector-curvature="0" />
      <path
         d="m 273.61298,159.72 v -5.05078 h -1.88672 v -0.67578 h 4.53906 v 0.67578 h -1.89453 V 159.72 Z"
         style="font-size:8px;font-family:Arial;fill:#000000"
         id="path1866"
         inkscape:connector-curvature="0" />
      <path
         d="m 277.01532,159.72 v -5.72656 h 2.14844 q 0.65625,0 1.05078,0.17578 0.39844,0.17187 0.62109,0.53516 0.22656,0.35937 0.22656,0.7539 0,0.36719 -0.19921,0.69141 -0.19922,0.32422 -0.60157,0.52344 0.51953,0.15234 0.79688,0.51953 0.28125,0.36718 0.28125,0.86718 0,0.40235 -0.17188,0.75 -0.16797,0.34375 -0.41797,0.53125 -0.25,0.1875 -0.6289,0.28516 -0.375,0.0937 -0.92188,0.0937 z m 0.75781,-3.32031 h 1.23828 q 0.50391,0 0.72266,-0.0664 0.28906,-0.0859 0.43359,-0.28515 0.14844,-0.19922 0.14844,-0.5 0,-0.28516 -0.13672,-0.5 -0.13672,-0.21875 -0.39062,-0.29688 -0.25391,-0.082 -0.8711,-0.082 h -1.14453 z m 0,2.64453 h 1.42578 q 0.36719,0 0.51563,-0.0273 0.26172,-0.0469 0.4375,-0.15625 0.17578,-0.10938 0.28906,-0.31641 0.11328,-0.21094 0.11328,-0.48438 0,-0.32031 -0.16406,-0.55468 -0.16406,-0.23828 -0.45703,-0.33203 -0.28906,-0.0977 -0.83594,-0.0977 h -1.32422 z"
         style="font-size:8px;font-family:Arial;fill:#000000"
         id="path1868"
         inkscape:connector-curvature="0" />
      <path
         d="m 282.39032,159.72 v -5.72656 h 1.97266 q 0.66796,0 1.01953,0.082 0.49218,0.11328 0.83984,0.41016 0.45313,0.38281 0.67578,0.98046 0.22656,0.59375 0.22656,1.35938 0,0.65234 -0.15234,1.15625 -0.15234,0.50391 -0.39062,0.83594 -0.23829,0.32812 -0.52344,0.51953 -0.28125,0.1875 -0.6836,0.28515 -0.39843,0.0977 -0.91796,0.0977 z m 0.75781,-0.67578 h 1.22266 q 0.5664,0 0.88672,-0.10547 0.32422,-0.10547 0.51562,-0.29687 0.26953,-0.26954 0.41797,-0.72266 0.15234,-0.45703 0.15234,-1.10547 0,-0.89844 -0.29687,-1.37891 -0.29297,-0.48437 -0.71484,-0.64843 -0.30469,-0.11719 -0.98047,-0.11719 h -1.20313 z"
         style="font-size:8px;font-family:Arial;fill:#000000"
         id="path1870"
         inkscape:connector-curvature="0" />
      <path
         d="m 288.17157,159.72 v -5.72656 h 2.16016 q 0.57031,0 0.87109,0.0547 0.42187,0.0703 0.70703,0.26953 0.28516,0.19531 0.45703,0.55078 0.17578,0.35547 0.17578,0.78125 0,0.73047 -0.46484,1.23828 -0.46484,0.50391 -1.67969,0.50391 h -1.46875 V 159.72 Z m 0.75781,-3.00391 h 1.48047 q 0.73438,0 1.04297,-0.27343 0.30859,-0.27344 0.30859,-0.76953 0,-0.35938 -0.18359,-0.61329 -0.17969,-0.25781 -0.47656,-0.33984 -0.19141,-0.0508 -0.70703,-0.0508 h -1.46485 z"
         style="font-size:8px;font-family:Arial;fill:#000000"
         id="path1872"
         inkscape:connector-curvature="0" />
      <path
         d="m 293.25751,157.88016 0.71484,-0.0625 q 0.0508,0.42968 0.23438,0.70703 0.1875,0.27344 0.57812,0.44531 0.39063,0.16797 0.87891,0.16797 0.43359,0 0.76562,-0.12891 0.33203,-0.1289 0.49219,-0.35156 0.16406,-0.22656 0.16406,-0.49219 0,-0.26953 -0.15625,-0.46875 -0.15625,-0.20312 -0.51562,-0.33984 -0.23047,-0.0898 -1.01953,-0.27734 -0.78907,-0.19141 -1.10547,-0.35938 -0.41016,-0.21484 -0.61328,-0.53125 -0.19922,-0.32031 -0.19922,-0.71484 0,-0.4336 0.24609,-0.8086 0.24609,-0.3789 0.71875,-0.57422 0.47266,-0.19531 1.05078,-0.19531 0.63672,0 1.1211,0.20703 0.48828,0.20313 0.75,0.60157 0.26171,0.39843 0.28125,0.90234 l -0.72657,0.0547 q -0.0586,-0.54297 -0.39843,-0.82032 -0.33594,-0.27734 -0.9961,-0.27734 -0.6875,0 -1.0039,0.25391 -0.3125,0.25 -0.3125,0.60547 0,0.30859 0.22265,0.50781 0.21875,0.19922 1.14063,0.41015 0.92578,0.20704 1.26953,0.36329 0.5,0.23046 0.73828,0.58593 0.23828,0.35157 0.23828,0.8125 0,0.45703 -0.26172,0.86328 -0.26172,0.40235 -0.7539,0.62891 -0.48829,0.22266 -1.10157,0.22266 -0.77734,0 -1.30468,-0.22657 -0.52344,-0.22656 -0.82422,-0.67968 -0.29688,-0.45703 -0.3125,-1.03125 z"
         style="font-size:8px;font-family:Arial;fill:#000000"
         id="path1874"
         inkscape:connector-curvature="0" />
    </g>
  </g>
  <path
     d="m 349.09898,163.11147 a 0.95397011,0.95397011 0 0 0 -0.29333,1.4 0.95397011,0.95397011 0 0 0 1.41333,0.14666 0.95397011,0.95397011 0 0 1 1.41333,0.14667 0.95397011,0.95397011 0 0 1 -0.29333,1.39999 0.95397011,0.95397011 0 0 0 -0.29333,1.38667 0.95397011,0.95397011 0 0 0 1.41333,0.14666 0.95397011,0.95397011 0 0 1 1.42666,0.16 0.95397011,0.95397011 0 0 1 -0.30667,1.38667 0.95397011,0.95397011 0 0 0 -0.29333,1.39999"
     id="path299"
     inkscape:connector-curvature="0"
     style="fill:none;fill-rule:evenodd;stroke:#000000;stroke-width:0.67999828;stroke-linejoin:bevel;shape-rendering:geometricPrecision" />
  <path
     d="m 353.83231,148.51151 a 0.99151919,0.99151919 0 0 0 1.26666,0.70666 0.99151919,0.99151919 0 0 0 0.61333,-1.32 0.99151919,0.99151919 0 0 1 0.62667,-1.30666 0.99151919,0.99151919 0 0 1 1.26666,0.69333 0.99151919,0.99151919 0 0 0 1.26666,0.70667 0.99151919,0.99151919 0 0 0 0.61333,-1.32 0.99151919,0.99151919 0 0 1 0.62667,-1.30666 0.99151919,0.99151919 0 0 1 1.26666,0.70666 0.99151919,0.99151919 0 0 0 1.26667,0.69333 0.99151919,0.99151919 0 0 0 0.61333,-1.30666 0.99151919,0.99151919 0 0 1 0.62666,-1.32 0.99151919,0.99151919 0 0 1 1.26667,0.70667 0.99151919,0.99151919 0 0 0 1.26666,0.69333 0.99151919,0.99151919 0 0 0 0.61333,-1.30666 0.99151919,0.99151919 0 0 1 0.62667,-1.32"
     id="path301"
     inkscape:connector-curvature="0"
     style="fill:none;fill-rule:evenodd;stroke:#e69e00;stroke-width:0.67999828;stroke-linejoin:bevel;shape-rendering:geometricPrecision" />
  <g
     id="g307"
     transform="matrix(1.33333,0,0,1.33333,0.2198562,-33.234711)">
    <path
       d="m 276.41,132.81 v 0 l -0.25,-0.05 -0.25,-0.05 2.39,-11.26 0.25,0.05 0.25,0.05 z"
       id="path303"
       inkscape:connector-curvature="0"
       style="fill:#e69e00;fill-rule:evenodd;stroke:#e69e00;stroke-width:0;stroke-linejoin:miter;shape-rendering:geometricPrecision" />
    <path
       style="stroke:#e69e00;stroke-width:0.50999999;shape-rendering:auto"
       d="m 274.38,131.16 2.13999,-10.09"
       id="line305"
       inkscape:connector-curvature="0" />
  </g>
  <g
     id="g311"
     transform="matrix(1.33333,0,0,1.33333,0.2198562,-33.234711)">
    <path
       d="m 352.46,149.42 v 0 l 0.19,-0.26 0.19,-0.26 h 11.13 l 0.19,0.26 0.19,0.26 z"
       id="path309"
       inkscape:connector-curvature="0"
       style="fill:#000000;fill-rule:evenodd;stroke:#000000;stroke-width:0;stroke-linejoin:miter;shape-rendering:geometricPrecision" />
  </g>
  <g
     id="g315"
     transform="matrix(1.33333,0,0,1.33333,0.2198562,-33.234711)">
    <path
       d="m 364.35,149.42 v 0 l -0.19,-0.26 -0.19,-0.26 3.44,-10.59 0.3,-0.1 0.3,-0.1 z"
       id="path313"
       inkscape:connector-curvature="0"
       style="fill:#000000;fill-rule:evenodd;stroke:#000000;stroke-width:0;stroke-linejoin:miter;shape-rendering:geometricPrecision" />
  </g>
  <g
     id="g319"
     transform="matrix(1.33333,0,0,1.33333,0.2198562,-33.234711)">
    <path
       d="m 368.01,138.11 v 0 l -0.3,0.1 -0.3,0.1 -9.01,-6.54 v -0.32 l 0.41,-0.02 z"
       id="path317"
       inkscape:connector-curvature="0"
       style="fill:#000000;fill-rule:evenodd;stroke:#000000;stroke-width:0;stroke-linejoin:miter;shape-rendering:geometricPrecision" />
  </g>
  <g
     id="g323"
     transform="matrix(1.33333,0,0,1.33333,0.2198562,-33.234711)">
    <path
       d="m 358.1,131.35 v 0 l 0.3,0.1 v 0.32 l -9.01,6.54 -0.3,-0.1 v -0.32 z"
       id="path321"
       inkscape:connector-curvature="0"
       style="fill:#000000;fill-rule:evenodd;stroke:#000000;stroke-width:0;stroke-linejoin:miter;shape-rendering:geometricPrecision" />
  </g>
  <g
     id="g327"
     transform="matrix(1.33333,0,0,1.33333,0.2198562,-33.234711)">
    <path
       d="m 348.95,138.6 v 0 l 0.14,-0.39 0.3,0.1 3.45,10.59 -0.19,0.26 -0.19,0.26 z"
       id="path325"
       inkscape:connector-curvature="0"
       style="fill:#000000;fill-rule:evenodd;stroke:#000000;stroke-width:0;stroke-linejoin:miter;shape-rendering:geometricPrecision" />
  </g>
  <g
     id="g333"
     transform="matrix(1.33333,0,0,1.33333,0.2198562,-33.234711)">
    <g
       aria-label="H"
       style="text-anchor:start;text-rendering:geometricPrecision"
       id="text331">
      <path
         d="m 336.58063,146.59 v -5.72657 h 0.75781 v 2.35157 h 2.97656 v -2.35157 h 0.75781 V 146.59 H 340.315 v -2.69922 h -2.97656 V 146.59 Z"
         style="font-size:8px;font-family:Arial;fill:#000000"
         id="path1878"
         inkscape:connector-curvature="0" />
    </g>
  </g>
  <g
     id="g337"
     transform="matrix(1.33333,0,0,1.33333,0.2198562,-33.234711)">
    <path
       d="m 348.57,138.15 v 0 l 0.52,0.06 -0.14,0.39 -6.15,4.16 -0.54,-1.06 -0.54,-1.07 z"
       id="path335"
       inkscape:connector-curvature="0"
       style="fill:#000000;fill-rule:evenodd;stroke:#000000;stroke-width:0;stroke-linejoin:miter;shape-rendering:geometricPrecision" />
  </g>
  <g
     id="g343"
     transform="matrix(1.33333,0,0,1.33333,0.2198562,-33.234711)">
    <g
       aria-label="H"
       style="text-anchor:start;text-rendering:geometricPrecision"
       id="text341">
      <path
         d="m 364.28064,126.46 v -5.72656 h 0.75781 v 2.35156 h 2.97656 v -2.35156 h 0.75782 V 126.46 h -0.75782 v -2.69922 h -2.97656 V 126.46 Z"
         style="font-size:8px;font-family:Arial;fill:#000000"
         id="path1881"
         inkscape:connector-curvature="0" />
    </g>
  </g>
  <g
     id="g347"
     transform="matrix(1.33333,0,0,1.33333,0.2198562,-33.234711)">
    <path
       d="m 358.81,131.43 v 0 l -0.41,0.02 0.1,-0.51 4.04,-5.31 0.84,0.84 0.84,0.84 z"
       id="path345"
       inkscape:connector-curvature="0"
       style="fill:#000000;fill-rule:evenodd;stroke:#000000;stroke-width:0;stroke-linejoin:miter;shape-rendering:geometricPrecision" />
  </g>
  <g
     id="g353"
     transform="matrix(1.33333,0,0,1.33333,0.2198562,-33.234711)">
    <g
       aria-label="OTBDPS"
       style="text-anchor:start;text-rendering:geometricPrecision"
       id="text351">
      <path
         d="m 368.20673,158.83093 q 0,-1.42578 0.76562,-2.23047 0.76563,-0.80859 1.97656,-0.80859 0.79297,0 1.42969,0.37891 0.63672,0.3789 0.96875,1.05859 0.33594,0.67578 0.33594,1.53516 0,0.87109 -0.35156,1.55859 -0.35157,0.6875 -0.9961,1.04297 -0.64453,0.35156 -1.39062,0.35156 -0.8086,0 -1.44532,-0.39062 -0.63671,-0.39063 -0.96484,-1.06641 -0.32812,-0.67578 -0.32812,-1.42969 z m 0.78125,0.0117 q 0,1.03516 0.55468,1.63281 0.5586,0.59375 1.39844,0.59375 0.85547,0 1.40625,-0.60156 0.55469,-0.60156 0.55469,-1.70703 0,-0.69922 -0.23828,-1.21875 -0.23438,-0.52344 -0.69141,-0.80859 -0.45312,-0.28907 -1.01953,-0.28907 -0.80469,0 -1.38672,0.55469 -0.57812,0.55078 -0.57812,1.84375 z"
         style="font-size:8px;font-family:Arial;fill:#000000"
         id="path1884"
         inkscape:connector-curvature="0" />
      <path
         d="m 376.11298,161.62 v -5.05079 h -1.88672 v -0.67578 h 4.53906 v 0.67578 h -1.89453 V 161.62 Z"
         style="font-size:8px;font-family:Arial;fill:#000000"
         id="path1886"
         inkscape:connector-curvature="0" />
      <path
         d="m 379.51532,161.62 v -5.72657 h 2.14844 q 0.65625,0 1.05078,0.17578 0.39844,0.17188 0.62109,0.53516 0.22656,0.35938 0.22656,0.75391 0,0.36718 -0.19921,0.6914 -0.19922,0.32422 -0.60157,0.52344 0.51953,0.15234 0.79688,0.51953 0.28125,0.36719 0.28125,0.86719 0,0.40234 -0.17188,0.75 -0.16797,0.34375 -0.41797,0.53125 -0.25,0.1875 -0.6289,0.28516 -0.375,0.0937 -0.92188,0.0937 z m 0.75781,-3.32032 h 1.23828 q 0.50391,0 0.72266,-0.0664 0.28906,-0.0859 0.43359,-0.28516 0.14844,-0.19922 0.14844,-0.5 0,-0.28516 -0.13672,-0.5 -0.13672,-0.21875 -0.39062,-0.29687 -0.25391,-0.082 -0.8711,-0.082 h -1.14453 z m 0,2.64453 h 1.42578 q 0.36719,0 0.51563,-0.0273 0.26172,-0.0469 0.4375,-0.15625 0.17578,-0.10937 0.28906,-0.31641 0.11328,-0.21093 0.11328,-0.48437 0,-0.32031 -0.16406,-0.55469 -0.16406,-0.23828 -0.45703,-0.33203 -0.28906,-0.0977 -0.83594,-0.0977 h -1.32422 z"
         style="font-size:8px;font-family:Arial;fill:#000000"
         id="path1888"
         inkscape:connector-curvature="0" />
      <path
         d="m 384.89032,161.62 v -5.72657 h 1.97266 q 0.66796,0 1.01953,0.082 0.49218,0.11329 0.83984,0.41016 0.45313,0.38281 0.67578,0.98047 0.22656,0.59375 0.22656,1.35937 0,0.65235 -0.15234,1.15625 -0.15234,0.50391 -0.39062,0.83594 -0.23829,0.32813 -0.52344,0.51953 -0.28125,0.1875 -0.6836,0.28516 -0.39843,0.0977 -0.91796,0.0977 z m 0.75781,-0.67579 h 1.22266 q 0.5664,0 0.88672,-0.10546 0.32422,-0.10547 0.51562,-0.29688 0.26953,-0.26953 0.41797,-0.72266 0.15234,-0.45703 0.15234,-1.10546 0,-0.89844 -0.29687,-1.37891 -0.29297,-0.48438 -0.71484,-0.64844 -0.30469,-0.11719 -0.98047,-0.11719 h -1.20313 z"
         style="font-size:8px;font-family:Arial;fill:#000000"
         id="path1890"
         inkscape:connector-curvature="0" />
      <path
         d="m 390.67157,161.62 v -5.72657 h 2.16016 q 0.57031,0 0.87109,0.0547 0.42187,0.0703 0.70703,0.26953 0.28516,0.19531 0.45703,0.55078 0.17578,0.35547 0.17578,0.78125 0,0.73047 -0.46484,1.23828 -0.46484,0.50391 -1.67969,0.50391 h -1.46875 V 161.62 Z m 0.75781,-3.00391 h 1.48047 q 0.73438,0 1.04297,-0.27344 0.30859,-0.27344 0.30859,-0.76953 0,-0.35937 -0.18359,-0.61328 -0.17969,-0.25781 -0.47656,-0.33984 -0.19141,-0.0508 -0.70703,-0.0508 h -1.46485 z"
         style="font-size:8px;font-family:Arial;fill:#000000"
         id="path1892"
         inkscape:connector-curvature="0" />
      <path
         d="m 395.75751,159.78015 0.71484,-0.0625 q 0.0508,0.42969 0.23438,0.70703 0.1875,0.27344 0.57812,0.44532 0.39063,0.16796 0.87891,0.16796 0.43359,0 0.76562,-0.1289 0.33203,-0.12891 0.49219,-0.35156 0.16406,-0.22657 0.16406,-0.49219 0,-0.26953 -0.15625,-0.46875 -0.15625,-0.20313 -0.51562,-0.33985 -0.23047,-0.0898 -1.01953,-0.27734 -0.78907,-0.19141 -1.10547,-0.35937 -0.41016,-0.21485 -0.61328,-0.53125 -0.19922,-0.32032 -0.19922,-0.71485 0,-0.43359 0.24609,-0.80859 0.24609,-0.37891 0.71875,-0.57422 0.47266,-0.19531 1.05078,-0.19531 0.63672,0 1.1211,0.20703 0.48828,0.20312 0.75,0.60156 0.26171,0.39844 0.28125,0.90234 l -0.72657,0.0547 q -0.0586,-0.54297 -0.39843,-0.82031 -0.33594,-0.27734 -0.9961,-0.27734 -0.6875,0 -1.0039,0.2539 -0.3125,0.25 -0.3125,0.60547 0,0.30859 0.22265,0.50781 0.21875,0.19922 1.14063,0.41016 0.92578,0.20703 1.26953,0.36328 0.5,0.23047 0.73828,0.58594 0.23828,0.35156 0.23828,0.8125 0,0.45703 -0.26172,0.86328 -0.26172,0.40234 -0.7539,0.62891 -0.48829,0.22265 -1.10157,0.22265 -0.77734,0 -1.30468,-0.22656 -0.52344,-0.22656 -0.82422,-0.67969 -0.29688,-0.45703 -0.3125,-1.03125 z"
         style="font-size:8px;font-family:Arial;fill:#000000"
         id="path1894"
         inkscape:connector-curvature="0" />
    </g>
  </g>
  <path
     d="m 485.76531,165.6448 a 0.95397002,0.95397002 0 0 0 -0.29333,1.39999 0.95397002,0.95397002 0 0 0 1.41333,0.14667 0.95397002,0.95397002 0 0 1 1.41333,0.14666 0.95397002,0.95397002 0 0 1 -0.29334,1.4 0.95397002,0.95397002 0 0 0 -0.29333,1.38666 0.95397002,0.95397002 0 0 0 1.41333,0.14667 0.95397002,0.95397002 0 0 1 1.42666,0.16 0.95397002,0.95397002 0 0 1 -0.30666,1.38666 0.95397002,0.95397002 0 0 0 -0.29334,1.4"
     id="path355"
     inkscape:connector-curvature="0"
     style="fill:none;fill-rule:evenodd;stroke:#000000;stroke-width:0.67999828;stroke-linejoin:bevel;shape-rendering:geometricPrecision" />
  <path
     d="m 490.49863,151.04483 a 0.99151919,0.99151919 0 0 0 1.26666,0.70667 0.99151919,0.99151919 0 0 0 0.61334,-1.32 0.99151919,0.99151919 0 0 1 0.62666,-1.30666 0.99151919,0.99151919 0 0 1 1.26666,0.69333 0.99151919,0.99151919 0 0 0 1.26667,0.70666 0.99151919,0.99151919 0 0 0 0.61333,-1.31999 0.99151919,0.99151919 0 0 1 0.62666,-1.30667 0.99151919,0.99151919 0 0 1 1.26667,0.70667 0.99151919,0.99151919 0 0 0 1.26666,0.69333 0.99151919,0.99151919 0 0 0 0.61333,-1.30666 0.99151919,0.99151919 0 0 1 0.62667,-1.32 0.99151919,0.99151919 0 0 1 1.26666,0.70666 0.99151919,0.99151919 0 0 0 1.26667,0.69334 0.99151919,0.99151919 0 0 0 0.61333,-1.30667 0.99151919,0.99151919 0 0 1 0.62666,-1.31999"
     id="path357"
     inkscape:connector-curvature="0"
     style="fill:none;fill-rule:evenodd;stroke:#000000;stroke-width:0.67999828;stroke-linejoin:bevel;shape-rendering:geometricPrecision" />
  <g
     id="g363"
     transform="matrix(1.33333,0,0,1.33333,0.2198562,-33.234711)">
    <path
       d="m 378.91,134.71 v 0 l -0.25,-0.05 -0.25,-0.05 2.39,-11.26 0.25,0.05 0.25,0.05 z"
       id="path359"
       inkscape:connector-curvature="0"
       style="fill:#000000;fill-rule:evenodd;stroke:#000000;stroke-width:0;stroke-linejoin:miter;shape-rendering:geometricPrecision" />
    <path
       style="stroke:#000000;stroke-width:0.50999999;shape-rendering:auto"
       d="m 376.88,133.06 2.13999,-10.09"
       id="line361"
       inkscape:connector-curvature="0" />
  </g>
  <g
     id="g369"
     transform="matrix(1.33333,0,0,1.33333,0.2198562,-33.234711)">
    <g
       aria-label="O"
       style="text-anchor:start;text-rendering:geometricPrecision"
       id="text367">
      <path
         d="m 337.06671,131.81094 q 0,-1.42578 0.76563,-2.23047 0.76562,-0.80859 1.97656,-0.80859 0.79297,0 1.42969,0.37891 0.63672,0.3789 0.96875,1.05859 0.33593,0.67578 0.33593,1.53516 0,0.87109 -0.35156,1.55859 -0.35156,0.6875 -0.99609,1.04297 -0.64453,0.35156 -1.39063,0.35156 -0.80859,0 -1.44531,-0.39062 -0.63672,-0.39063 -0.96484,-1.06641 -0.32813,-0.67578 -0.32813,-1.42969 z m 0.78125,0.0117 q 0,1.03516 0.55469,1.63281 0.55859,0.59375 1.39844,0.59375 0.85547,0 1.40625,-0.60156 0.55468,-0.60156 0.55468,-1.70703 0,-0.69922 -0.23828,-1.21875 -0.23437,-0.52344 -0.6914,-0.80859 -0.45313,-0.28907 -1.01953,-0.28907 -0.80469,0 -1.38672,0.55469 -0.57813,0.55078 -0.57813,1.84375 z"
         style="font-size:8px;font-family:Arial;fill:#000000"
         id="path1898"
         inkscape:connector-curvature="0" />
    </g>
  </g>
  <g
     id="g373"
     transform="matrix(1.33333,0,0,1.33333,0.2198562,-33.234711)">
    <path
       d="m 358.5,130.94 v 0 l -0.1,0.51 -0.3,-0.1 -3.44,-10.59 0.19,-0.26 0.19,-0.26 z"
       id="path371"
       inkscape:connector-curvature="0"
       style="fill:#000000;fill-rule:evenodd;stroke:#000000;stroke-width:0;stroke-linejoin:miter;shape-rendering:geometricPrecision" />
  </g>
  <g
     id="g377"
     transform="matrix(1.33333,0,0,1.33333,0.2198562,-33.234711)">
    <path
       d="m 355.04,120.24 v 0 l -0.19,0.26 -0.19,0.26 h -11.13 l -0.19,-0.26 -0.19,-0.26 z"
       id="path375"
       inkscape:connector-curvature="0"
       style="fill:#000000;fill-rule:evenodd;stroke:#000000;stroke-width:0;stroke-linejoin:miter;shape-rendering:geometricPrecision" />
  </g>
  <g
     id="g381"
     transform="matrix(1.33333,0,0,1.33333,0.2198562,-33.234711)">
    <path
       d="m 343.15,120.24 v 0 l 0.19,0.26 0.19,0.26 -2.28,6.98 -0.24,-0.08 -0.24,-0.08 z"
       id="path379"
       inkscape:connector-curvature="0"
       style="fill:#000000;fill-rule:evenodd;stroke:#000000;stroke-width:0;stroke-linejoin:miter;shape-rendering:geometricPrecision" />
  </g>
  <g
     id="g385"
     transform="matrix(1.33333,0,0,1.33333,0.2198562,-33.234711)">
    <path
       d="m 343.3,134.32 v 0 l 0.15,-0.2 0.15,-0.21 5.49,3.98 v 0.32 l -0.52,-0.06 z"
       id="path383"
       inkscape:connector-curvature="0"
       style="fill:#000000;fill-rule:evenodd;stroke:#000000;stroke-width:0;stroke-linejoin:miter;shape-rendering:geometricPrecision" />
  </g>
  <g
     id="g391"
     transform="matrix(1.33333,0,0,1.33333,0.2198562,-33.234711)">
    <g
       aria-label="O"
       style="text-anchor:start;text-rendering:geometricPrecision"
       id="text389">
      <path
         d="m 333.85672,111.55093 q 0,-1.42578 0.76562,-2.23046 0.76563,-0.8086 1.97657,-0.8086 0.79297,0 1.42968,0.37891 0.63672,0.3789 0.96875,1.05859 0.33594,0.67578 0.33594,1.53516 0,0.87109 -0.35156,1.55859 -0.35156,0.6875 -0.99609,1.04297 -0.64454,0.35156 -1.39063,0.35156 -0.80859,0 -1.44531,-0.39062 -0.63672,-0.39063 -0.96485,-1.06641 -0.32812,-0.67578 -0.32812,-1.42969 z m 0.78125,0.0117 q 0,1.03516 0.55469,1.63282 0.55859,0.59375 1.39843,0.59375 0.85547,0 1.40625,-0.60157 0.55469,-0.60156 0.55469,-1.70703 0,-0.69922 -0.23828,-1.21875 -0.23437,-0.52344 -0.69141,-0.80859 -0.45312,-0.28906 -1.01953,-0.28906 -0.80468,0 -1.38672,0.55468 -0.57812,0.55078 -0.57812,1.84375 z"
         style="font-size:8px;font-family:Arial;fill:#000000"
         id="path1901"
         inkscape:connector-curvature="0" />
    </g>
  </g>
  <g
     id="g399"
     transform="matrix(1.33333,0,0,1.33333,0.2198562,-33.234711)">
    <path
       style="stroke:#000000;stroke-width:0.50999999;shape-rendering:auto"
       d="m 342.5,121.11 -3.60001,-4.95"
       id="line393"
       inkscape:connector-curvature="0" />
    <path
       d="m 344.12,120.24 v 0 h 0.63 l -3.96,-5.45 -0.42,0.3 z"
       id="path395"
       inkscape:connector-curvature="0"
       style="fill:#000000;fill-rule:evenodd;stroke:#000000;stroke-width:0;stroke-linejoin:miter;shape-rendering:geometricPrecision" />
    <path
       d="m 342.66,121.76 v 0 l 0.2,-0.6 -3.75,-5.15 -0.41,0.3 z"
       id="path397"
       inkscape:connector-curvature="0"
       style="fill:#000000;fill-rule:evenodd;stroke:#000000;stroke-width:0;stroke-linejoin:miter;shape-rendering:geometricPrecision" />
  </g>
  <g
     id="Bracket"
     transform="matrix(1.33333,0,0,1.33333,0.2198562,-33.234711)">
    <path
       d="m 180.37,104.4 h 5.97 v 83.42 h -5.97"
       id="path401"
       inkscape:connector-curvature="0"
       style="fill:none;fill-rule:evenodd;stroke:#000000;stroke-width:0.50999999;stroke-linejoin:miter;shape-rendering:geometricPrecision" />
  </g>
  <g
     id="g406"
     transform="matrix(1.33333,0,0,1.33333,0.2198562,-33.234711)">
    <path
       d="M 128.87,187.82 H 122.9 V 104.4 h 5.97"
       id="path404"
       inkscape:connector-curvature="0"
       style="fill:none;fill-rule:evenodd;stroke:#000000;stroke-width:0.50999999;stroke-linejoin:miter;shape-rendering:geometricPrecision" />
  </g>
  <g
     id="Arrow"
     transform="matrix(1.33333,0,0,1.33333,0.2198562,-33.234711)">
    <path
       style="stroke:#000000;stroke-width:0.50999999;shape-rendering:auto"
       d="M 112.87,140.37 H 72.379997"
       id="line408"
       inkscape:connector-curvature="0" />
    <path
       d="m 116.33,140.37 -5.1,-1.27 c 1.07,0.71 1.07,1.83 0,2.54 z"
       stroke-miterlimit="5.89496254687647"
       id="path410"
       inkscape:connector-curvature="0"
       style="fill:#000000;fill-rule:evenodd;stroke:#000000;stroke-width:0;stroke-linejoin:miter;stroke-miterlimit:5.89496231;shape-rendering:geometricPrecision" />
  </g>
  <g
     id="g417"
     transform="matrix(1.33333,0,0,1.33333,0.2198562,-33.234711)">
    <path
       style="stroke:#000000;stroke-width:0.50999999;shape-rendering:auto"
       d="M 217.34,140.37 H 192.33"
       id="line413"
       inkscape:connector-curvature="0" />
    <path
       d="m 220.8,140.37 -5.1,-1.27 c 1.08,0.71 1.08,1.83 0,2.54 z"
       stroke-miterlimit="5.89496254687632"
       id="path415"
       inkscape:connector-curvature="0"
       style="fill:#000000;fill-rule:evenodd;stroke:#000000;stroke-width:0;stroke-linejoin:miter;stroke-miterlimit:5.89496231;shape-rendering:geometricPrecision" />
  </g>
  <g
     id="g427"
     transform="matrix(1.33333,0,0,1.33333,0.2198562,-33.234711)">
    <g
       aria-label="Tf2O"
       style="text-anchor:start;text-rendering:geometricPrecision"
       id="text425">
      <path
         d="m 87.094215,122.88 v -5.05078 h -1.886718 v -0.67579 h 4.539062 v 0.67579 H 87.852028 V 122.88 Z"
         style="font-size:8px;font-family:Arial;fill:#000000"
         id="path1907"
         inkscape:connector-curvature="0" />
      <path
         d="m 90.605934,122.88 v -3.60157 H 89.98484 v -0.54687 h 0.621094 v -0.44141 q 0,-0.41797 0.07422,-0.62109 0.101562,-0.27344 0.355469,-0.44141 0.257812,-0.17187 0.71875,-0.17187 0.296875,0 0.65625,0.0703 l -0.105469,0.61328 q -0.21875,-0.0391 -0.414063,-0.0391 -0.320312,0 -0.453125,0.13672 -0.132812,0.13672 -0.132812,0.51172 v 0.38281 h 0.808594 v 0.54687 H 91.305153 V 122.88 Z"
         style="font-size:8px;font-family:Arial;fill:#000000"
         id="path1909"
         inkscape:connector-curvature="0" />
      <path
         d="M 95.149879,124.18316 V 124.69 h -2.838867 q -0.0059,-0.19043 0.06152,-0.36621 0.108398,-0.29004 0.345703,-0.57129 0.240234,-0.28125 0.691406,-0.65039 0.700195,-0.57422 0.946289,-0.90821 0.246094,-0.33691 0.246094,-0.63574 0,-0.31348 -0.225586,-0.52734 -0.222656,-0.2168 -0.583008,-0.2168 -0.380859,0 -0.609375,0.22852 -0.228515,0.22851 -0.231445,0.63281 l -0.541992,-0.0557 q 0.05566,-0.60644 0.418945,-0.92285 0.363281,-0.31933 0.975586,-0.31933 0.618164,0 0.978516,0.34277 0.360351,0.34277 0.360351,0.84961 0,0.25781 -0.105469,0.50684 -0.105468,0.24902 -0.351562,0.52441 -0.243164,0.27539 -0.811524,0.75586 -0.474609,0.39844 -0.609375,0.54199 -0.134765,0.14063 -0.222656,0.28418 z"
         style="font-size:6px;font-family:Arial;fill:#000000"
         id="path1911"
         inkscape:connector-curvature="0" />
      <path
         d="m 95.855934,120.09093 q 0,-1.42578 0.765625,-2.23046 0.765625,-0.8086 1.976563,-0.8086 0.792968,0 1.429688,0.37891 0.63672,0.3789 0.96875,1.05859 0.33594,0.67578 0.33594,1.53516 0,0.87109 -0.35157,1.55859 -0.35156,0.6875 -0.99609,1.04297 -0.644531,0.35156 -1.390625,0.35156 -0.808593,0 -1.445312,-0.39062 -0.636719,-0.39063 -0.964844,-1.06641 -0.328125,-0.67578 -0.328125,-1.42969 z m 0.78125,0.0117 q 0,1.03516 0.554688,1.63282 0.558593,0.59375 1.398437,0.59375 0.855469,0 1.40625,-0.60157 0.554691,-0.60156 0.554691,-1.70703 0,-0.69922 -0.23828,-1.21875 -0.23438,-0.52344 -0.691411,-0.80859 -0.453125,-0.28906 -1.019531,-0.28906 -0.804688,0 -1.386719,0.55468 -0.578125,0.55078 -0.578125,1.84375 z"
         style="font-size:8px;font-family:Arial;fill:#000000"
         id="path1913"
         inkscape:connector-curvature="0" />
    </g>
  </g>
  <g
     id="g433"
     transform="matrix(1.33333,0,0,1.33333,19.574801,-33.234711)">
    <text
       xml:space="preserve"
       id="text431"
       style="text-anchor:start;text-rendering:geometricPrecision"
       x="14.25"
       y="0"><tspan
         x="78.660004"
         y="134.87"
         font-size="8"
         id="tspan429"
         style="font-size:8px;font-family:Arial;text-align:center;text-anchor:middle;fill:#000000">kolidyna</tspan></text>
  </g>
  <g
     id="g443"
     transform="matrix(1.33333,0,0,1.33333,0.2198562,-33.234711)">
    <g
       aria-label="[H2O]"
       style="text-anchor:start;text-rendering:geometricPrecision"
       id="text441">
      <path
         d="m 195.37297,135.45984 v -7.31641 h 1.55078 v 0.58203 h -0.84765 v 6.15235 h 0.84765 v 0.58203 z"
         style="font-size:8px;font-family:Arial;fill:#000000"
         id="path1916"
         inkscape:connector-curvature="0" />
      <path
         d="m 197.68938,133.87 v -5.72657 h 0.75781 v 2.35157 h 2.97656 v -2.35157 h 0.75781 V 133.87 h -0.75781 v -2.69922 h -2.97656 V 133.87 Z"
         style="font-size:8px;font-family:Arial;fill:#000000"
         id="path1918"
         inkscape:connector-curvature="0" />
      <path
         d="M 205.85051,135.17316 V 135.68 h -2.83887 q -0.006,-0.19043 0.0615,-0.36622 0.10839,-0.29003 0.3457,-0.57128 0.24023,-0.28125 0.69141,-0.6504 0.70019,-0.57421 0.94628,-0.9082 0.2461,-0.33691 0.2461,-0.63574 0,-0.31348 -0.22559,-0.52734 -0.22265,-0.2168 -0.58301,-0.2168 -0.38086,0 -0.60937,0.22851 -0.22852,0.22852 -0.23145,0.63282 l -0.54199,-0.0557 q 0.0557,-0.60644 0.41895,-0.92285 0.36328,-0.31933 0.97558,-0.31933 0.61817,0 0.97852,0.34277 0.36035,0.34277 0.36035,0.84961 0,0.25781 -0.10547,0.50683 -0.10547,0.24903 -0.35156,0.52442 -0.24317,0.27539 -0.81152,0.75586 -0.47461,0.39843 -0.60938,0.54199 -0.13477,0.14062 -0.22266,0.28418 z"
         style="font-size:6px;font-family:Arial;fill:#000000"
         id="path1920"
         inkscape:connector-curvature="0" />
      <path
         d="m 206.55656,131.08093 q 0,-1.42578 0.76563,-2.23047 0.76562,-0.80859 1.97656,-0.80859 0.79297,0 1.42969,0.37891 0.63672,0.3789 0.96875,1.05859 0.33594,0.67578 0.33594,1.53516 0,0.87109 -0.35157,1.55859 -0.35156,0.6875 -0.99609,1.04297 -0.64453,0.35156 -1.39062,0.35156 -0.8086,0 -1.44532,-0.39062 -0.63672,-0.39063 -0.96484,-1.06641 -0.32813,-0.67578 -0.32813,-1.42969 z m 0.78125,0.0117 q 0,1.03516 0.55469,1.63281 0.5586,0.59375 1.39844,0.59375 0.85547,0 1.40625,-0.60156 0.55469,-0.60156 0.55469,-1.70703 0,-0.69922 -0.23828,-1.21875 -0.23438,-0.52344 -0.69141,-0.80859 -0.45313,-0.28907 -1.01953,-0.28907 -0.80469,0 -1.38672,0.55469 -0.57813,0.55078 -0.57813,1.84375 z"
         style="font-size:8px;font-family:Arial;fill:#000000"
         id="path1922"
         inkscape:connector-curvature="0" />
      <path
         d="m 214.09172,135.45984 h -1.55078 v -0.58203 h 0.84766 v -6.15235 h -0.84766 v -0.58203 h 1.55078 z"
         style="font-size:8px;font-family:Arial;fill:#000000"
         id="path1924"
         inkscape:connector-curvature="0" />
    </g>
  </g>
  <g
     id="g449"
     transform="matrix(1.33333,0,0,1.33333,0.2198562,-33.234711)">
    <text
       xml:space="preserve"
       id="text447"
       style="text-anchor:start;text-rendering:geometricPrecision"><tspan
         x="397.84"
         y="136.28"
         font-size="8"
         id="tspan445"
         style="font-size:8px;font-family:Arial;fill:#000000">6 etapów</tspan></text>
  </g>
  <g
     id="g457"
     transform="matrix(1.33333,0,0,1.33333,0.2198562,-33.234711)">
    <g
       aria-label="mCPBA"
       style="text-anchor:start;text-rendering:geometricPrecision"
       id="text455">
      <path
         d="m 291.75171,124.24 0.86719,-4.14844 h 0.70703 l -0.14453,0.68359 q 0.39453,-0.4414 0.70312,-0.60937 0.3125,-0.16797 0.67578,-0.16797 0.38672,0 0.64453,0.20703 0.26172,0.20313 0.34375,0.57031 0.31641,-0.39062 0.66407,-0.58203 0.35156,-0.19531 0.73828,-0.19531 0.51953,0 0.77734,0.24609 0.26172,0.2461 0.26172,0.69141 0,0.19141 -0.0898,0.63281 l -0.5586,2.67188 h -0.70703 l 0.57031,-2.74219 q 0.0742,-0.33594 0.0742,-0.48047 0,-0.20312 -0.1289,-0.32031 -0.12891,-0.11719 -0.36328,-0.11719 -0.31641,0 -0.64454,0.19141 -0.32812,0.1914 -0.51171,0.5039 -0.17969,0.3086 -0.31641,0.95313 l -0.42188,2.01172 h -0.70703 l 0.58594,-2.80078 q 0.0625,-0.28516 0.0625,-0.40625 0,-0.20313 -0.12891,-0.32813 -0.125,-0.125 -0.32812,-0.125 -0.30078,0 -0.63281,0.19141 -0.32813,0.1914 -0.53516,0.53515 -0.20703,0.33985 -0.33984,0.97266 l -0.41016,1.96094 z"
         style="font-style:italic;font-size:8px;font-family:Arial;fill:#000000"
         id="path1927"
         inkscape:connector-curvature="0" />
      <path
         d="m 302.86499,122.23219 0.75781,0.1914 q -0.23828,0.9336 -0.85937,1.42578 -0.61719,0.48828 -1.51172,0.48828 -0.92578,0 -1.50781,-0.375 -0.57813,-0.3789 -0.88282,-1.09375 -0.30078,-0.71484 -0.30078,-1.53515 0,-0.89453 0.33985,-1.5586 0.34375,-0.66796 0.97265,-1.01171 0.63282,-0.34766 1.39063,-0.34766 0.85937,0 1.44531,0.4375 0.58594,0.4375 0.81641,1.23047 l -0.7461,0.17578 q -0.19922,-0.625 -0.57812,-0.91016 -0.37891,-0.28515 -0.95313,-0.28515 -0.66015,0 -1.10547,0.3164 -0.4414,0.31641 -0.62109,0.85157 -0.17969,0.53125 -0.17969,1.09765 0,0.73047 0.21094,1.27735 0.21484,0.54296 0.66406,0.8125 0.44922,0.26953 0.97266,0.26953 0.63672,0 1.07812,-0.36719 0.44141,-0.36719 0.59766,-1.08984 z"
         style="font-size:8px;font-family:Arial;fill:#000000"
         id="path1929"
         inkscape:connector-curvature="0" />
      <path
         d="m 304.5603,124.24 v -5.72656 h 2.16016 q 0.57031,0 0.87109,0.0547 0.42188,0.0703 0.70703,0.26953 0.28516,0.19532 0.45704,0.55079 0.17578,0.35546 0.17578,0.78125 0,0.73046 -0.46485,1.23828 -0.46484,0.5039 -1.67968,0.5039 h -1.46875 V 124.24 Z m 0.75782,-3.00391 h 1.48046 q 0.73438,0 1.04297,-0.27344 0.3086,-0.27343 0.3086,-0.76953 0,-0.35937 -0.1836,-0.61328 -0.17968,-0.25781 -0.47656,-0.33984 -0.19141,-0.0508 -0.70703,-0.0508 h -1.46484 z"
         style="font-size:8px;font-family:Arial;fill:#000000"
         id="path1931"
         inkscape:connector-curvature="0" />
      <path
         d="m 309.8728,124.24 v -5.72656 h 2.14844 q 0.65625,0 1.05078,0.17578 0.39844,0.17187 0.6211,0.53515 0.22656,0.35938 0.22656,0.75391 0,0.36719 -0.19922,0.69141 -0.19922,0.32421 -0.60156,0.52343 0.51953,0.15235 0.79687,0.51953 0.28125,0.36719 0.28125,0.86719 0,0.40235 -0.17187,0.75 -0.16797,0.34375 -0.41797,0.53125 -0.25,0.1875 -0.62891,0.28516 -0.375,0.0937 -0.92187,0.0937 z m 0.75782,-3.32031 h 1.23828 q 0.5039,0 0.72265,-0.0664 0.28907,-0.0859 0.4336,-0.28516 0.14843,-0.19922 0.14843,-0.5 0,-0.28515 -0.13671,-0.5 -0.13672,-0.21875 -0.39063,-0.29687 -0.25391,-0.082 -0.87109,-0.082 h -1.14453 z m 0,2.64453 h 1.42578 q 0.36718,0 0.51562,-0.0274 0.26172,-0.0469 0.4375,-0.15625 0.17578,-0.10937 0.28906,-0.3164 0.11329,-0.21094 0.11329,-0.48438 0,-0.32031 -0.16407,-0.55469 -0.16406,-0.23828 -0.45703,-0.33203 -0.28906,-0.0976 -0.83594,-0.0976 h -1.32421 z"
         style="font-size:8px;font-family:Arial;fill:#000000"
         id="path1933"
         inkscape:connector-curvature="0" />
      <path
         d="m 314.6189,124.24 2.19922,-5.72656 h 0.8164 l 2.34375,5.72656 h -0.86328 l -0.66797,-1.73438 h -2.39453 l -0.62891,1.73438 z m 1.65234,-2.35156 h 1.94141 l -0.59766,-1.58594 q -0.27344,-0.72266 -0.40625,-1.1875 -0.10937,0.55078 -0.30859,1.09375 z"
         style="font-size:8px;font-family:Arial;fill:#000000"
         id="path1935"
         inkscape:connector-curvature="0" />
    </g>
  </g>
  <g
     id="g465"
     transform="matrix(1.33333,0,0,1.33333,0.2198562,-33.234711)">
    <g
       aria-label="NaHCO3"
       style="text-anchor:start;text-rendering:geometricPrecision"
       id="text463">
      <path
         d="m 290.65936,134.55 v -5.72656 h 0.77735 l 3.00781,4.49609 v -4.49609 h 0.72656 V 134.55 h -0.77734 l -3.00781,-4.5 v 4.5 z"
         style="font-size:8px;font-family:Arial;fill:#000000"
         id="path1938"
         inkscape:connector-curvature="0" />
      <path
         d="m 299.06561,134.03828 q -0.39062,0.33204 -0.7539,0.46875 -0.35938,0.13672 -0.77344,0.13672 -0.68359,0 -1.05078,-0.33203 -0.36719,-0.33594 -0.36719,-0.85547 0,-0.30468 0.13672,-0.55468 0.14062,-0.25391 0.36328,-0.40625 0.22656,-0.15235 0.50781,-0.23047 0.20703,-0.0547 0.625,-0.10547 0.85157,-0.10156 1.25391,-0.24219 0.004,-0.14453 0.004,-0.18359 0,-0.42969 -0.19922,-0.60547 -0.26953,-0.23828 -0.80078,-0.23828 -0.4961,0 -0.73438,0.17578 -0.23437,0.17187 -0.34766,0.61328 l -0.6875,-0.0937 q 0.0937,-0.44141 0.3086,-0.71094 0.21484,-0.27344 0.62109,-0.41797 0.40625,-0.14843 0.94141,-0.14843 0.53125,0 0.86328,0.125 0.33203,0.125 0.48828,0.3164 0.15625,0.1875 0.21875,0.47656 0.0352,0.17969 0.0352,0.64844 v 0.9375 q 0,0.98047 0.043,1.24219 0.0469,0.25781 0.17968,0.49609 h -0.73437 q -0.10938,-0.21875 -0.14063,-0.51172 z m -0.0586,-1.57031 q -0.38281,0.15625 -1.14844,0.26563 -0.43359,0.0625 -0.61328,0.14062 -0.17969,0.0781 -0.27734,0.23047 -0.0977,0.14844 -0.0977,0.33203 0,0.28125 0.21094,0.46875 0.21484,0.1875 0.625,0.1875 0.40625,0 0.72265,-0.17578 0.31641,-0.17969 0.46485,-0.48828 0.11328,-0.23828 0.11328,-0.70313 z"
         style="font-size:8px;font-family:Arial;fill:#000000"
         id="path1940"
         inkscape:connector-curvature="0" />
      <path
         d="m 300.92499,134.55 v -5.72656 h 0.75781 v 2.35156 h 2.97656 v -2.35156 h 0.75782 V 134.55 h -0.75782 v -2.69922 H 301.6828 V 134.55 Z"
         style="font-size:8px;font-family:Arial;fill:#000000"
         id="path1942"
         inkscape:connector-curvature="0" />
      <path
         d="m 310.76874,132.54219 0.75781,0.19141 q -0.23828,0.93359 -0.85937,1.42578 -0.61719,0.48828 -1.51172,0.48828 -0.92578,0 -1.50782,-0.375 -0.57812,-0.37891 -0.88281,-1.09375 -0.30078,-0.71484 -0.30078,-1.53516 0,-0.89453 0.33984,-1.55859 0.34375,-0.66797 0.97266,-1.01172 0.63281,-0.34766 1.39063,-0.34766 0.85937,0 1.44531,0.4375 0.58594,0.4375 0.8164,1.23047 l -0.74609,0.17578 q -0.19922,-0.625 -0.57812,-0.91015 -0.37891,-0.28516 -0.95313,-0.28516 -0.66016,0 -1.10547,0.31641 -0.4414,0.3164 -0.62109,0.85156 -0.17969,0.53125 -0.17969,1.09766 0,0.73047 0.21094,1.27734 0.21484,0.54297 0.66406,0.8125 0.44922,0.26953 0.97266,0.26953 0.63672,0 1.07812,-0.36719 0.44141,-0.36718 0.59766,-1.08984 z"
         style="font-size:8px;font-family:Arial;fill:#000000"
         id="path1944"
         inkscape:connector-curvature="0" />
      <path
         d="m 312.23358,131.76094 q 0,-1.42578 0.76563,-2.23047 0.76562,-0.80859 1.97656,-0.80859 0.79297,0 1.42969,0.3789 0.63672,0.37891 0.96875,1.0586 0.33593,0.67578 0.33593,1.53515 0,0.8711 -0.35156,1.5586 -0.35156,0.6875 -0.99609,1.04297 -0.64453,0.35156 -1.39063,0.35156 -0.80859,0 -1.44531,-0.39063 -0.63672,-0.39062 -0.96484,-1.0664 -0.32813,-0.67578 -0.32813,-1.42969 z m 0.78125,0.0117 q 0,1.03516 0.55469,1.63281 0.55859,0.59375 1.39844,0.59375 0.85547,0 1.40625,-0.60156 0.55468,-0.60156 0.55468,-1.70703 0,-0.69922 -0.23828,-1.21875 -0.23437,-0.52344 -0.6914,-0.8086 -0.45313,-0.28906 -1.01953,-0.28906 -0.80469,0 -1.38672,0.55469 -0.57813,0.55078 -0.57813,1.84375 z"
         style="font-size:8px;font-family:Arial;fill:#000000"
         id="path1946"
         inkscape:connector-curvature="0" />
      <path
         d="m 318.31757,135.22621 0.52734,-0.0703 q 0.0908,0.44824 0.30762,0.64746 0.21972,0.19629 0.5332,0.19629 0.37207,0 0.62695,-0.25781 0.25782,-0.25781 0.25782,-0.63867 0,-0.36328 -0.23731,-0.59766 -0.2373,-0.2373 -0.60351,-0.2373 -0.14942,0 -0.37208,0.0586 l 0.0586,-0.46289 q 0.0527,0.006 0.085,0.006 0.33691,0 0.60644,-0.17578 0.26954,-0.17578 0.26954,-0.54199 0,-0.29004 -0.19629,-0.48047 -0.19629,-0.19043 -0.50684,-0.19043 -0.30762,0 -0.51269,0.19336 -0.20508,0.19336 -0.26368,0.58007 l -0.52734,-0.0937 q 0.0967,-0.53027 0.43945,-0.82031 0.34278,-0.29297 0.85254,-0.29297 0.35156,0 0.64746,0.15235 0.2959,0.14941 0.45118,0.41015 0.1582,0.26075 0.1582,0.55371 0,0.27832 -0.14942,0.50684 -0.14941,0.22852 -0.44238,0.36328 0.38086,0.0879 0.5918,0.36621 0.21094,0.27539 0.21094,0.69141 0,0.5625 -0.41016,0.95508 -0.41016,0.38964 -1.03711,0.38964 -0.56543,0 -0.94043,-0.33691 -0.37207,-0.33691 -0.4248,-0.87305 z"
         style="font-size:6px;font-family:Arial;fill:#000000"
         id="path1948"
         inkscape:connector-curvature="0" />
    </g>
  </g>
  <g
     id="g471"
     transform="matrix(1.33333,0,0,1.33333,0.2198562,-33.234711)">
    <path
       style="stroke:#000000;stroke-width:0.50999999;shape-rendering:auto"
       d="M 325.54001,140.37 H 287.5"
       id="line467"
       inkscape:connector-curvature="0" />
    <path
       d="m 329,140.37 -5.1,-1.27 c 1.08,0.71 1.08,1.83 0,2.54 z"
       stroke-miterlimit="5.89496254687654"
       id="path469"
       inkscape:connector-curvature="0"
       style="fill:#000000;fill-rule:evenodd;stroke:#000000;stroke-width:0;stroke-linejoin:miter;stroke-miterlimit:5.89496231;shape-rendering:geometricPrecision" />
  </g>
  <g
     id="g477"
     transform="matrix(1.33333,0,0,1.33333,0.2198562,-33.234711)">
    <text
       xml:space="preserve"
       id="text475"
       style="text-anchor:start;text-rendering:geometricPrecision"><tspan
         x="402"
         y="185"
         font-size="8"
         id="tspan473"
         style="font-size:8px;font-family:Arial;fill:#000000" /></text>
  </g>
  <path
     style="stroke:#000000;stroke-width:0.67999828;shape-rendering:auto"
     d="M 580.88507,153.92482 H 525.55188"
     id="line479" />
  <g
     id="g485"
     transform="matrix(1.33333,0,0,1.33333,0.2198562,-33.234711)">
    <path
       style="stroke:#000000;stroke-width:0.50999999;shape-rendering:auto"
       d="M 435.5,158.03999 V 140.37"
       id="line481"
       inkscape:connector-curvature="0" />
    <path
       d="m 435.5,161.5 1.27,-5.1 c -0.71,1.07 -1.83,1.08 -2.55,0 z"
       stroke-miterlimit="5.89496254687625"
       id="path483"
       inkscape:connector-curvature="0"
       style="fill:#000000;fill-rule:evenodd;stroke:#000000;stroke-width:0;stroke-linejoin:miter;stroke-miterlimit:5.89496231;shape-rendering:geometricPrecision" />
  </g>
  <path
     style="stroke:#000000;stroke-width:0.67999828;shape-rendering:auto"
     d="M 576.37842,158.00481 H 536.96521"
     id="line487" />
  <g
     id="g493"
     transform="matrix(1.33333,0,0,1.33333,0.2198562,-33.234711)">
    <path
       style="stroke:#000000;stroke-width:0.50999999;shape-rendering:auto"
       d="M 432.12,167.10001 V 143.42999"
       id="line489"
       inkscape:connector-curvature="0" />
    <path
       d="m 432.12,170.56 1.27,-5.1 c -0.71,1.07 -1.83,1.08 -2.55,0 z"
       stroke-miterlimit="5.89496254687625"
       id="path491"
       inkscape:connector-curvature="0"
       style="fill:#000000;fill-rule:evenodd;stroke:#000000;stroke-width:0;stroke-linejoin:miter;stroke-miterlimit:5.89496231;shape-rendering:geometricPrecision" />
  </g>
  <circle
     style="opacity:1;vector-effect:none;fill:#e69f00;fill-opacity:1;stroke:none;stroke-width:0.59735703;stroke-linecap:round;stroke-linejoin:round;stroke-miterlimit:4;stroke-dasharray:none;stroke-dashoffset:0;stroke-opacity:1;paint-order:markers fill stroke"
     id="path2000"
     cx="303.37436"
     cy="165.92012"
     r="1.75" />
  <path
     style="fill:none;stroke:#e69f00;stroke-width:0.69999999;stroke-linecap:butt;stroke-linejoin:miter;stroke-miterlimit:4;stroke-dasharray:none;stroke-opacity:1"
     d="m 303.33507,166.03562 -40.02176,0 v 49.05358 l 118.32521,0"
     id="path2020"
     inkscape:connector-curvature="0"
     sodipodi:nodetypes="cccc" />
  <text
     xml:space="preserve"
     style="font-style:normal;font-variant:normal;font-weight:normal;font-stretch:normal;font-size:10.66666698px;line-height:1;font-family:Arial;-inkscape-font-specification:Arial;text-align:end;letter-spacing:0px;word-spacing:0px;text-anchor:end;fill:#e69f00;fill-opacity:1;stroke:none"
     x="382.09686"
     y="200.76988"
     id="text2024"><tspan
       sodipodi:role="line"
       x="382.09686"
       y="200.76988"
       id="tspan2026"
       style="line-height:1;text-align:end;text-anchor:end;fill:#e69f00;fill-opacity:1">cyklizacja</tspan><tspan
       sodipodi:role="line"
       x="382.09686"
       y="211.43655"
       style="line-height:1;text-align:end;text-anchor:end;fill:#e69f00;fill-opacity:1"
       id="tspan2055">wewnątrzcząsteczkowa</tspan></text>
  <text
     xml:space="preserve"
     style="font-style:normal;font-variant:normal;font-weight:normal;font-stretch:normal;font-size:10.66666698px;line-height:1;font-family:Arial;-inkscape-font-specification:Arial;text-align:end;letter-spacing:0px;word-spacing:0px;text-anchor:end;fill:#e69f00;fill-opacity:1;stroke:none;"
     x="512.70935"
     y="200.76466"
     id="text2024-5"><tspan
       sodipodi:role="line"
       x="512.70935"
       y="200.76466"
       id="tspan2026-8"
       style="line-height:1;text-align:end;text-anchor:end;fill:#e69f00;fill-opacity:1;">utlenianie</tspan><tspan
       sodipodi:role="line"
       x="512.70935"
       y="211.43134"
       style="line-height:1;text-align:end;text-anchor:end;fill:#e69f00;fill-opacity:1;"
       id="tspan2051">Baeyera-Villigera</tspan></text>
  <circle
     r="1.75"
     cy="165.92012"
     cx="438.9346"
     id="circle2061"
     style="opacity:1;vector-effect:none;fill:#e69f00;fill-opacity:1;stroke:none;stroke-width:0.59735703;stroke-linecap:round;stroke-linejoin:round;stroke-miterlimit:4;stroke-dasharray:none;stroke-dashoffset:0;stroke-opacity:1;paint-order:markers fill stroke" />
  <path
     sodipodi:nodetypes="cccc"
     inkscape:connector-curvature="0"
     id="path2063"
     d="M 438.89532,166.03562 H 420.4352 v 49.05358 h 93.01372"
     style="fill:none;stroke:#e69f00;stroke-width:0.69999999;stroke-linecap:butt;stroke-linejoin:miter;stroke-miterlimit:4;stroke-dasharray:none;stroke-opacity:1" />
  <text
     xml:space="preserve"
     style="font-style:normal;font-variant:normal;font-weight:normal;font-stretch:normal;font-size:10.66666698px;line-height:1.25;font-family:Arial;-inkscape-font-specification:Arial;text-align:start;letter-spacing:0px;word-spacing:0px;text-anchor:start;fill:#000000;fill-opacity:1;stroke:none"
     x="6.4366817"
     y="212.25528"
     id="text2067"><tspan
       sodipodi:role="line"
       id="tspan2065"
       x="6.4366817"
       y="212.25528">\cmpd{w:prgl-amid}</tspan></text>
  <text
     id="text2071"
     y="212.25528"
     x="138.15021"
     style="font-style:normal;font-variant:normal;font-weight:normal;font-stretch:normal;font-size:10.66666698px;line-height:1.25;font-family:Arial;-inkscape-font-specification:Arial;text-align:start;letter-spacing:0px;word-spacing:0px;text-anchor:start;fill:#000000;fill-opacity:1;stroke:none"
     xml:space="preserve"><tspan
       y="212.25528"
       x="138.15021"
       id="tspan2069"
       sodipodi:role="line">\cmpd{w:prgl-ketenimina}</tspan></text>
  <text
     id="text2075"
     y="185.53758"
     x="319.08051"
     style="font-style:normal;font-variant:normal;font-weight:normal;font-stretch:normal;font-size:10.66666698px;line-height:1.25;font-family:Arial;-inkscape-font-specification:Arial;text-align:start;letter-spacing:0px;word-spacing:0px;text-anchor:start;fill:#000000;fill-opacity:1;stroke:none"
     xml:space="preserve"><tspan
       y="185.53758"
       x="319.08051"
       id="tspan2073"
       sodipodi:role="line">\cmpd{w:prgl-cyclo}</tspan></text>
  <text
     xml:space="preserve"
     style="font-style:normal;font-variant:normal;font-weight:normal;font-stretch:normal;font-size:10.66666698px;line-height:1.25;font-family:Arial;-inkscape-font-specification:Arial;text-align:start;letter-spacing:0px;word-spacing:0px;text-anchor:start;fill:#000000;fill-opacity:1;stroke:none"
     x="454.54388"
     y="185.53758"
     id="text2079"><tspan
       sodipodi:role="line"
       id="tspan2077"
       x="454.54388"
       y="185.53758">\cmpd{w:prgl-exp}</tspan></text>
  <text
     xml:space="preserve"
     style="font-style:normal;font-variant:normal;font-weight:normal;font-stretch:normal;font-size:10.66666698px;line-height:1.25;font-family:Arial;-inkscape-font-specification:Arial;text-align:start;letter-spacing:0px;word-spacing:0px;text-anchor:start;fill:#000000;fill-opacity:1;stroke:none"
     x="532.60394"
     y="212.25528"
     id="text1110"><tspan
       sodipodi:role="line"
       id="tspan1108"
       x="532.60394"
       y="212.25528">prostaglandyna</tspan></text>
</svg>
