<?xml version="1.0" encoding="UTF-8" standalone="no"?>
<svg
   xmlns:dc="http://purl.org/dc/elements/1.1/"
   xmlns:cc="http://creativecommons.org/ns#"
   xmlns:rdf="http://www.w3.org/1999/02/22-rdf-syntax-ns#"
   xmlns:svg="http://www.w3.org/2000/svg"
   xmlns="http://www.w3.org/2000/svg"
   xmlns:sodipodi="http://sodipodi.sourceforge.net/DTD/sodipodi-0.dtd"
   xmlns:inkscape="http://www.inkscape.org/namespaces/inkscape"
   width="613px"
   height="152px"
   viewBox="0 0 613 152"
   style="background-color: #ffffff00"
   version="1.1"
   id="svg242"
   sodipodi:docname="azide-nucleophile.svg"
   inkscape:version="0.92.4 (5da689c313, 2019-01-14)">
  <metadata
     id="metadata248">
    <rdf:RDF>
      <cc:Work
         rdf:about="">
        <dc:format>image/svg+xml</dc:format>
        <dc:type
           rdf:resource="http://purl.org/dc/dcmitype/StillImage" />
      </cc:Work>
    </rdf:RDF>
  </metadata>
  <defs
     id="defs246" />
  <sodipodi:namedview
     pagecolor="#ffffff"
     bordercolor="#666666"
     borderopacity="1"
     objecttolerance="10"
     gridtolerance="10"
     guidetolerance="10"
     inkscape:pageopacity="0"
     inkscape:pageshadow="2"
     inkscape:window-width="1920"
     inkscape:window-height="1017"
     id="namedview244"
     showgrid="false"
     inkscape:zoom="1.5826272"
     inkscape:cx="117.47491"
     inkscape:cy="54.701426"
     inkscape:window-x="-8"
     inkscape:window-y="-8"
     inkscape:window-maximized="1"
     inkscape:current-layer="svg242" />
  <g
     id="g1329">
    <g
       id="text2"
       style="font-style:normal;font-weight:normal;font-size:160px;font-family:Arial;fill:#000000;stroke:none"
       transform="matrix(0.0666667,0,0,0.0666667,2.85124,43.4633)"
       aria-label="Ph">
      <path
         inkscape:connector-curvature="0"
         id="path1055"
         style="font-style:normal;font-weight:normal;font-size:160px;font-family:Arial;fill:#000000;stroke:none"
         d="m 12.34375,0 v -114.53125 h 43.203125 q 11.40625,0 17.421875,1.09375 8.4375,1.40625 14.140625,5.39062 5.703125,3.90625 9.140625,11.01563 3.515625,7.109375 3.515625,15.625 0,14.609375 -9.296875,24.765625 Q 81.171875,-46.5625 56.875,-46.5625 H 27.5 V 0 Z M 27.5,-60.078125 h 29.609375 q 14.6875,0 20.859375,-5.46875 6.171875,-5.46875 6.171875,-15.390625 0,-7.1875 -3.671875,-12.265625 Q 76.875,-98.359375 70.9375,-100 q -3.828125,-1.01563 -14.140625,-1.01563 H 27.5 Z" />
      <path
         inkscape:connector-curvature="0"
         id="path1057"
         style="font-style:normal;font-weight:normal;font-size:160px;font-family:Arial;fill:#000000;stroke:none"
         d="m 117.42188,0 v -114.53125 h 14.06249 v 41.09375 q 9.84375,-11.40625 24.84375,-11.40625 9.21875,0 16.01563,3.671875 6.79687,3.59375 9.6875,10 Q 185,-64.765625 185,-52.578125 V 0 h -14.0625 v -52.578125 q 0,-10.546875 -4.60938,-15.3125 -4.53125,-4.84375 -12.89062,-4.84375 -6.25,0 -11.79688,3.28125 -5.46875,3.203125 -7.8125,8.75 -2.34375,5.546875 -2.34375,15.3125 V 0 Z" />
    </g>
    <path
       id="path4"
       d="m 499.312,3372.97 v 11.78 l -148.145,85.54 -5.102,-8.84 z"
       transform="matrix(0.0666667,0,0,0.0666667,-7.06646,-193.667)"
       inkscape:connector-curvature="0"
       style="fill:#000000;stroke:none" />
    <g
       id="text6"
       style="font-style:normal;font-weight:normal;font-size:160px;font-family:Arial;fill:#000000;stroke:none"
       transform="matrix(0.0666667,0,0,0.0666667,35.6585,43.4633)"
       aria-label="N">
      <path
         inkscape:connector-curvature="0"
         id="path1060"
         style="font-style:normal;font-weight:normal;font-size:160px;font-family:Arial;fill:#000000;stroke:none"
         d="m 12.1875,0 v -114.53125 h 15.546875 l 60.15625,89.921875 V -114.53125 H 102.42188 V 0 H 86.875 L 26.71875,-90 V 0 Z" />
    </g>
    <path
       id="path8"
       d="m 623.452,3444.64 -5.103,8.84 -119.037,-68.73 v -11.78 z"
       transform="matrix(0.0666667,0,0,0.0666667,-7.06646,-193.667)"
       inkscape:connector-curvature="0"
       style="fill:#000000;stroke:none" />
    <g
       id="text10"
       style="font-style:normal;font-weight:normal;font-size:160px;font-family:Arial;fill:#000000;stroke:none"
       transform="matrix(0.0666667,0,0,0.0666667,22.0726,20.446)"
       aria-label="O">
      <path
         inkscape:connector-curvature="0"
         id="path1063"
         style="font-style:normal;font-weight:normal;font-size:160px;font-family:Arial;fill:#000000;stroke:none"
         d="m 7.734375,-55.78125 q 0,-28.515625 15.3125,-44.60938 15.3125,-16.17187 39.53125,-16.17187 15.859375,0 28.59375,7.57812 12.734375,7.57813 19.375005,21.17188 6.71875,13.515625 6.71875,30.703125 0,17.421875 -7.03125,31.171875 -7.03125,13.75 -19.92188,20.859375 -12.890625,7.03125 -27.8125,7.03125 -16.171875,0 -28.90625,-7.8125 -12.734375,-7.8125 -19.296875,-21.328125 -6.5625,-13.515625 -6.5625,-28.59375 z m 15.625,0.234375 q 0,20.703125 11.09375,32.65625 11.171875,11.875 27.96875,11.875 17.109375,0 28.125,-12.03125 11.093755,-12.03125 11.093755,-34.140625 0,-13.984375 -4.76563,-24.375 -4.6875,-10.46875 -13.828125,-16.171875 -9.0625,-5.781255 -20.390625,-5.781255 -16.09375,0 -27.734375,11.093755 -11.5625,11.015625 -11.5625,36.875 z" />
    </g>
    <path
       id="path12"
       d="m 473.494,3240.36 h 10.205 v 150.46 h -10.205 z"
       transform="matrix(0.0666667,0,0,0.0666667,-7.06646,-193.667)"
       inkscape:connector-curvature="0"
       style="fill:#000000;stroke:none" />
    <path
       id="path14"
       d="m 514.925,3240.36 h 10.205 v 150.46 h -10.205 z"
       transform="matrix(0.0666667,0,0,0.0666667,-7.06646,-193.667)"
       inkscape:connector-curvature="0"
       style="fill:#000000;stroke:none" />
    <path
       id="path16"
       d="m 892.881,3375.92 5.102,2.94 v 5.89 l -119.447,68.97 -5.102,-8.84 z"
       transform="matrix(0.0666667,0,0,0.0666667,-7.06646,-193.667)"
       inkscape:connector-curvature="0"
       style="fill:#000000;stroke:none" />
    <path
       id="path18"
       d="m 854.001,3350.52 5.102,8.84 -101.283,58.48 -5.102,-8.84 z"
       transform="matrix(0.0666667,0,0,0.0666667,-7.06646,-193.667)"
       inkscape:connector-curvature="0"
       style="fill:#000000;stroke:none" />
    <g
       id="text20"
       style="font-style:normal;font-weight:normal;font-size:160px;font-family:Arial;fill:#cc79a7;stroke:none"
       transform="matrix(0.0666667,0,0,0.0666667,62.2366,43.4633)"
       aria-label="CF">
      <path
         inkscape:connector-curvature="0"
         id="path1066"
         style="font-style:normal;font-weight:normal;font-size:160px;font-family:Arial;fill:#cc79a7;stroke:none"
         d="m 94.0625,-40.15625 15.15625,3.828125 Q 104.45313,-17.65625 92.03125,-7.8125 79.6875,1.953125 61.796875,1.953125 q -18.515625,0 -30.15625,-7.5 -11.5625,-7.578125 -17.65625,-21.875 Q 7.96875,-41.71875 7.96875,-58.125 q 0,-17.890625 6.796875,-31.171875 6.875,-13.359375 19.453125,-20.234375 12.65625,-6.95313 27.8125,-6.95313 17.1875,0 28.90625,8.75 11.71875,8.750005 16.32813,24.60938 l -14.92188,3.515625 q -3.984375,-12.5 -11.5625,-18.203125 -7.578125,-5.70313 -19.0625,-5.70313 -13.203125,0 -22.109375,6.32813 -8.828125,6.328125 -12.421875,17.03125 -3.59375,10.625 -3.59375,21.953125 0,14.609375 4.21875,25.546875 4.296875,10.859375 13.28125,16.25 8.984375,5.390625 19.453125,5.390625 12.734375,0 21.5625,-7.34375 8.828125,-7.34375 11.953125,-21.796875 z" />
      <path
         inkscape:connector-curvature="0"
         id="path1068"
         style="font-style:normal;font-weight:normal;font-size:160px;font-family:Arial;fill:#cc79a7;stroke:none"
         d="m 128.75,0 v -114.53125 h 77.26562 v 13.51562 h -62.10937 v 35.468755 h 53.75 v 13.515625 h -53.75 V 0 Z" />
    </g>
    <g
       id="text22"
       style="font-style:normal;font-weight:normal;font-size:120px;font-family:Arial;fill:#cc79a7;stroke:none"
       transform="matrix(0.0666667,0,0,0.0666667,76.4553,45.73)"
       aria-label="3">
      <path
         inkscape:connector-curvature="0"
         id="path1071"
         style="font-style:normal;font-weight:normal;font-size:120px;font-family:Arial;fill:#cc79a7;stroke:none"
         d="m 5.0390625,-22.675781 10.5468755,-1.40625 q 1.816406,8.964843 6.152343,12.949218 4.394531,3.9257818 10.664063,3.9257818 7.441406,0 12.539062,-5.1562498 5.15625,-5.15625 5.15625,-12.773438 0,-7.265625 -4.746094,-11.953125 -4.746093,-4.746093 -12.070312,-4.746093 -2.988281,0 -7.441406,1.171875 l 1.171875,-9.257813 q 1.054687,0.117188 1.699218,0.117188 6.738282,0 12.128907,-3.515625 5.390625,-3.515625 5.390625,-10.839844 0,-5.800781 -3.925782,-9.609375 -3.925781,-3.808594 -10.136718,-3.808594 -6.152344,0 -10.253907,3.867188 -4.101562,3.867187 -5.273437,11.601562 l -10.546875,-1.875 Q 8.0273438,-74.589844 14.882813,-80.390625 21.738281,-86.25 31.933594,-86.25 q 7.03125,0 12.949218,3.046875 5.917969,2.988281 9.023438,8.203125 3.164062,5.214844 3.164062,11.074219 0,5.566406 -2.988281,10.136719 -2.988281,4.570312 -8.847656,7.265625 7.617187,1.757812 11.835937,7.324218 4.21875,5.507813 4.21875,13.828125 0,11.25 -8.203125,19.1015628 -8.203125,7.7929687 -20.742187,7.7929687 -11.308594,0 -18.808594,-6.7382812 Q 6.09375,-11.953125 5.0390625,-22.675781 Z" />
    </g>
    <path
       id="path24"
       d="m 1034.19,3451.61 -5.1,8.84 -131.107,-75.7 v -5.89 l 5.103,-2.94 z"
       transform="matrix(0.0666667,0,0,0.0666667,-7.06646,-193.667)"
       inkscape:connector-curvature="0"
       style="fill:#cc79a7;stroke:none" />
    <g
       id="text26"
       style="font-style:normal;font-weight:normal;font-size:160px;font-family:Arial;fill:#cc79a7;stroke:none"
       transform="matrix(0.0666667,0,0,0.0666667,48.9475,20.446)"
       aria-label="CF">
      <path
         inkscape:connector-curvature="0"
         id="path1074"
         style="font-style:normal;font-weight:normal;font-size:160px;font-family:Arial;fill:#cc79a7;stroke:none"
         d="m 94.0625,-40.15625 15.15625,3.828125 Q 104.45313,-17.65625 92.03125,-7.8125 79.6875,1.953125 61.796875,1.953125 q -18.515625,0 -30.15625,-7.5 -11.5625,-7.578125 -17.65625,-21.875 Q 7.96875,-41.71875 7.96875,-58.125 q 0,-17.890625 6.796875,-31.171875 6.875,-13.359375 19.453125,-20.234375 12.65625,-6.95313 27.8125,-6.95313 17.1875,0 28.90625,8.75 11.71875,8.750005 16.32813,24.60938 l -14.92188,3.515625 q -3.984375,-12.5 -11.5625,-18.203125 -7.578125,-5.70313 -19.0625,-5.70313 -13.203125,0 -22.109375,6.32813 -8.828125,6.328125 -12.421875,17.03125 -3.59375,10.625 -3.59375,21.953125 0,14.609375 4.21875,25.546875 4.296875,10.859375 13.28125,16.25 8.984375,5.390625 19.453125,5.390625 12.734375,0 21.5625,-7.34375 8.828125,-7.34375 11.953125,-21.796875 z" />
      <path
         inkscape:connector-curvature="0"
         id="path1076"
         style="font-style:normal;font-weight:normal;font-size:160px;font-family:Arial;fill:#cc79a7;stroke:none"
         d="m 128.75,0 v -114.53125 h 77.26562 v 13.51562 h -62.10937 v 35.468755 h 53.75 v 13.515625 h -53.75 V 0 Z" />
    </g>
    <g
       id="text28"
       style="font-style:normal;font-weight:normal;font-size:120px;font-family:Arial;fill:#cc79a7;stroke:none"
       transform="matrix(0.0666667,0,0,0.0666667,63.1663,22.7127)"
       aria-label="3">
      <path
         inkscape:connector-curvature="0"
         id="path1079"
         style="font-style:normal;font-weight:normal;font-size:120px;font-family:Arial;fill:#cc79a7;stroke:none"
         d="m 5.0390625,-22.675781 10.5468755,-1.40625 q 1.816406,8.964843 6.152343,12.949218 4.394531,3.9257818 10.664063,3.9257818 7.441406,0 12.539062,-5.1562498 5.15625,-5.15625 5.15625,-12.773438 0,-7.265625 -4.746094,-11.953125 -4.746093,-4.746093 -12.070312,-4.746093 -2.988281,0 -7.441406,1.171875 l 1.171875,-9.257813 q 1.054687,0.117188 1.699218,0.117188 6.738282,0 12.128907,-3.515625 5.390625,-3.515625 5.390625,-10.839844 0,-5.800781 -3.925782,-9.609375 -3.925781,-3.808594 -10.136718,-3.808594 -6.152344,0 -10.253907,3.867188 -4.101562,3.867187 -5.273437,11.601562 l -10.546875,-1.875 Q 8.0273438,-74.589844 14.882813,-80.390625 21.738281,-86.25 31.933594,-86.25 q 7.03125,0 12.949218,3.046875 5.917969,2.988281 9.023438,8.203125 3.164062,5.214844 3.164062,11.074219 0,5.566406 -2.988281,10.136719 -2.988281,4.570312 -8.847656,7.265625 7.617187,1.757812 11.835937,7.324218 4.21875,5.507813 4.21875,13.828125 0,11.25 -8.203125,19.1015628 -8.203125,7.7929687 -20.742187,7.7929687 -11.308594,0 -18.808594,-6.7382812 Q 6.09375,-11.953125 5.0390625,-22.675781 Z" />
    </g>
    <path
       id="path30"
       d="m 892.881,3240.36 h 10.205 v 135.56 l -5.103,2.94 -5.102,-2.94 z"
       transform="matrix(0.0666667,0,0,0.0666667,-7.06646,-193.667)"
       inkscape:connector-curvature="0"
       style="fill:#cc79a7;stroke:none" />
  </g>
  <g
     id="g1362">
    <g
       id="text32"
       style="font-style:normal;font-weight:normal;font-size:160px;font-family:Arial;fill:#000000;stroke:none"
       transform="matrix(0.0666667,0,0,0.0666667,181.572,38.3967)"
       aria-label="Ph">
      <path
         inkscape:connector-curvature="0"
         id="path1082"
         style="font-style:normal;font-weight:normal;font-size:160px;font-family:Arial;fill:#000000;stroke:none"
         d="m 12.34375,0 v -114.53125 h 43.203125 q 11.40625,0 17.421875,1.09375 8.4375,1.40625 14.140625,5.39062 5.703125,3.90625 9.140625,11.01563 3.515625,7.109375 3.515625,15.625 0,14.609375 -9.296875,24.765625 Q 81.171875,-46.5625 56.875,-46.5625 H 27.5 V 0 Z M 27.5,-60.078125 h 29.609375 q 14.6875,0 20.859375,-5.46875 6.171875,-5.46875 6.171875,-15.390625 0,-7.1875 -3.671875,-12.265625 Q 76.875,-98.359375 70.9375,-100 q -3.828125,-1.01563 -14.140625,-1.01563 H 27.5 Z" />
      <path
         inkscape:connector-curvature="0"
         id="path1084"
         style="font-style:normal;font-weight:normal;font-size:160px;font-family:Arial;fill:#000000;stroke:none"
         d="m 117.42188,0 v -114.53125 h 14.06249 v 41.09375 q 9.84375,-11.40625 24.84375,-11.40625 9.21875,0 16.01563,3.671875 6.79687,3.59375 9.6875,10 Q 185,-64.765625 185,-52.578125 V 0 h -14.0625 v -52.578125 q 0,-10.546875 -4.60938,-15.3125 -4.53125,-4.84375 -12.89062,-4.84375 -6.25,0 -11.79688,3.28125 -5.46875,3.203125 -7.8125,8.75 -2.34375,5.546875 -2.34375,15.3125 V 0 Z" />
    </g>
    <path
       id="path34"
       d="m 3180.12,3296.97 v 11.78 l -148.14,85.54 -5.1,-8.84 z"
       transform="matrix(0.0666667,0,0,0.0666667,-7.06646,-193.667)"
       inkscape:connector-curvature="0"
       style="fill:#000000;stroke:none" />
    <g
       id="text36"
       style="font-style:normal;font-weight:normal;font-size:160px;font-family:Arial;fill:#000000;stroke:none"
       transform="matrix(0.0666667,0,0,0.0666667,214.379,38.3967)"
       aria-label="N">
      <path
         inkscape:connector-curvature="0"
         id="path1087"
         style="font-style:normal;font-weight:normal;font-size:160px;font-family:Arial;fill:#000000;stroke:none"
         d="m 12.1875,0 v -114.53125 h 15.546875 l 60.15625,89.921875 V -114.53125 H 102.42188 V 0 H 86.875 L 26.71875,-90 V 0 Z" />
    </g>
    <g
       id="text38"
       style="font-style:normal;font-weight:normal;font-size:160px;font-family:Arial;fill:#000000;stroke:none"
       transform="matrix(0.0666667,0,0,0.0666667,214.379,49.0633)"
       aria-label="H">
      <path
         inkscape:connector-curvature="0"
         id="path1090"
         style="font-style:normal;font-weight:normal;font-size:160px;font-family:Arial;fill:#000000;stroke:none"
         d="M 12.8125,0 V -114.53125 H 27.96875 V -67.5 H 87.5 v -47.03125 h 15.15625 V 0 H 87.5 V -53.984375 H 27.96875 V 0 Z" />
    </g>
    <path
       id="path40"
       d="m 3304.26,3368.64 -5.1,8.84 -119.04,-68.73 v -11.78 z"
       transform="matrix(0.0666667,0,0,0.0666667,-7.06646,-193.667)"
       inkscape:connector-curvature="0"
       style="fill:#000000;stroke:none" />
    <g
       id="text42"
       style="font-style:normal;font-weight:normal;font-size:160px;font-family:Arial;fill:#000000;stroke:none"
       transform="matrix(0.0666667,0,0,0.0666667,200.793,15.3793)"
       aria-label="O">
      <path
         inkscape:connector-curvature="0"
         id="path1093"
         style="font-style:normal;font-weight:normal;font-size:160px;font-family:Arial;fill:#000000;stroke:none"
         d="m 7.734375,-55.78125 q 0,-28.515625 15.3125,-44.60938 15.3125,-16.17187 39.53125,-16.17187 15.859375,0 28.59375,7.57812 12.734375,7.57813 19.375005,21.17188 6.71875,13.515625 6.71875,30.703125 0,17.421875 -7.03125,31.171875 -7.03125,13.75 -19.92188,20.859375 -12.890625,7.03125 -27.8125,7.03125 -16.171875,0 -28.90625,-7.8125 -12.734375,-7.8125 -19.296875,-21.328125 -6.5625,-13.515625 -6.5625,-28.59375 z m 15.625,0.234375 q 0,20.703125 11.09375,32.65625 11.171875,11.875 27.96875,11.875 17.109375,0 28.125,-12.03125 11.093755,-12.03125 11.093755,-34.140625 0,-13.984375 -4.76563,-24.375 -4.6875,-10.46875 -13.828125,-16.171875 -9.0625,-5.781255 -20.390625,-5.781255 -16.09375,0 -27.734375,11.093755 -11.5625,11.015625 -11.5625,36.875 z" />
    </g>
    <path
       id="path44"
       d="m 3154.31,3164.36 h 10.2 v 150.46 h -10.2 z"
       transform="matrix(0.0666667,0,0,0.0666667,-7.06646,-193.667)"
       inkscape:connector-curvature="0"
       style="fill:#000000;stroke:none" />
    <path
       id="path46"
       d="m 3195.74,3164.36 h 10.2 v 150.46 h -10.2 z"
       transform="matrix(0.0666667,0,0,0.0666667,-7.06646,-193.667)"
       inkscape:connector-curvature="0"
       style="fill:#000000;stroke:none" />
    <path
       id="path48"
       d="m 3571.83,3301 6.97,1.86 v 5.89 l -119.45,68.97 -5.1,-8.84 z"
       transform="matrix(0.0666667,0,0,0.0666667,-7.06646,-193.667)"
       inkscape:connector-curvature="0"
       style="fill:#000000;stroke:none" />
    <g
       id="text50"
       style="font-style:normal;font-weight:normal;font-size:160px;font-family:Arial;fill:#cc79a7;stroke:none"
       transform="matrix(0.0666667,0,0,0.0666667,240.957,38.3967)"
       aria-label="CF">
      <path
         inkscape:connector-curvature="0"
         id="path1096"
         style="font-style:normal;font-weight:normal;font-size:160px;font-family:Arial;fill:#cc79a7;stroke:none"
         d="m 94.0625,-40.15625 15.15625,3.828125 Q 104.45313,-17.65625 92.03125,-7.8125 79.6875,1.953125 61.796875,1.953125 q -18.515625,0 -30.15625,-7.5 -11.5625,-7.578125 -17.65625,-21.875 Q 7.96875,-41.71875 7.96875,-58.125 q 0,-17.890625 6.796875,-31.171875 6.875,-13.359375 19.453125,-20.234375 12.65625,-6.95313 27.8125,-6.95313 17.1875,0 28.90625,8.75 11.71875,8.750005 16.32813,24.60938 l -14.92188,3.515625 q -3.984375,-12.5 -11.5625,-18.203125 -7.578125,-5.70313 -19.0625,-5.70313 -13.203125,0 -22.109375,6.32813 -8.828125,6.328125 -12.421875,17.03125 -3.59375,10.625 -3.59375,21.953125 0,14.609375 4.21875,25.546875 4.296875,10.859375 13.28125,16.25 8.984375,5.390625 19.453125,5.390625 12.734375,0 21.5625,-7.34375 8.828125,-7.34375 11.953125,-21.796875 z" />
      <path
         inkscape:connector-curvature="0"
         id="path1098"
         style="font-style:normal;font-weight:normal;font-size:160px;font-family:Arial;fill:#cc79a7;stroke:none"
         d="m 128.75,0 v -114.53125 h 77.26562 v 13.51562 h -62.10937 v 35.468755 h 53.75 v 13.515625 h -53.75 V 0 Z" />
    </g>
    <g
       id="text52"
       style="font-style:normal;font-weight:normal;font-size:120px;font-family:Arial;fill:#cc79a7;stroke:none"
       transform="matrix(0.0666667,0,0,0.0666667,255.176,40.6633)"
       aria-label="3">
      <path
         inkscape:connector-curvature="0"
         id="path1101"
         style="font-style:normal;font-weight:normal;font-size:120px;font-family:Arial;fill:#cc79a7;stroke:none"
         d="m 5.0390625,-22.675781 10.5468755,-1.40625 q 1.816406,8.964843 6.152343,12.949218 4.394531,3.9257818 10.664063,3.9257818 7.441406,0 12.539062,-5.1562498 5.15625,-5.15625 5.15625,-12.773438 0,-7.265625 -4.746094,-11.953125 -4.746093,-4.746093 -12.070312,-4.746093 -2.988281,0 -7.441406,1.171875 l 1.171875,-9.257813 q 1.054687,0.117188 1.699218,0.117188 6.738282,0 12.128907,-3.515625 5.390625,-3.515625 5.390625,-10.839844 0,-5.800781 -3.925782,-9.609375 -3.925781,-3.808594 -10.136718,-3.808594 -6.152344,0 -10.253907,3.867188 -4.101562,3.867187 -5.273437,11.601562 l -10.546875,-1.875 Q 8.0273438,-74.589844 14.882813,-80.390625 21.738281,-86.25 31.933594,-86.25 q 7.03125,0 12.949218,3.046875 5.917969,2.988281 9.023438,8.203125 3.164062,5.214844 3.164062,11.074219 0,5.566406 -2.988281,10.136719 -2.988281,4.570312 -8.847656,7.265625 7.617187,1.757812 11.835937,7.324218 4.21875,5.507813 4.21875,13.828125 0,11.25 -8.203125,19.1015628 -8.203125,7.7929687 -20.742187,7.7929687 -11.308594,0 -18.808594,-6.7382812 Q 6.09375,-11.953125 5.0390625,-22.675781 Z" />
    </g>
    <path
       id="path54"
       d="m 3715,3375.61 -5.1,8.84 -131.1,-75.7 v -5.89 h 10.2 z"
       transform="matrix(0.0666667,0,0,0.0666667,-7.06646,-193.667)"
       inkscape:connector-curvature="0"
       style="fill:#cc79a7;stroke:none" />
    <g
       id="text56"
       style="font-style:normal;font-weight:normal;font-size:160px;font-family:Arial;fill:#cc79a7;stroke:none"
       transform="matrix(0.0666667,0,0,0.0666667,240.957,23.0518)"
       aria-label="CF">
      <path
         inkscape:connector-curvature="0"
         id="path1104"
         style="font-style:normal;font-weight:normal;font-size:160px;font-family:Arial;fill:#cc79a7;stroke:none"
         d="m 94.0625,-40.15625 15.15625,3.828125 Q 104.45313,-17.65625 92.03125,-7.8125 79.6875,1.953125 61.796875,1.953125 q -18.515625,0 -30.15625,-7.5 -11.5625,-7.578125 -17.65625,-21.875 Q 7.96875,-41.71875 7.96875,-58.125 q 0,-17.890625 6.796875,-31.171875 6.875,-13.359375 19.453125,-20.234375 12.65625,-6.95313 27.8125,-6.95313 17.1875,0 28.90625,8.75 11.71875,8.750005 16.32813,24.60938 l -14.92188,3.515625 q -3.984375,-12.5 -11.5625,-18.203125 -7.578125,-5.70313 -19.0625,-5.70313 -13.203125,0 -22.109375,6.32813 -8.828125,6.328125 -12.421875,17.03125 -3.59375,10.625 -3.59375,21.953125 0,14.609375 4.21875,25.546875 4.296875,10.859375 13.28125,16.25 8.984375,5.390625 19.453125,5.390625 12.734375,0 21.5625,-7.34375 8.828125,-7.34375 11.953125,-21.796875 z" />
      <path
         inkscape:connector-curvature="0"
         id="path1106"
         style="font-style:normal;font-weight:normal;font-size:160px;font-family:Arial;fill:#cc79a7;stroke:none"
         d="m 128.75,0 v -114.53125 h 77.26562 v 13.51562 h -62.10937 v 35.468755 h 53.75 v 13.515625 h -53.75 V 0 Z" />
    </g>
    <g
       id="text58"
       style="font-style:normal;font-weight:normal;font-size:120px;font-family:Arial;fill:#cc79a7;stroke:none"
       transform="matrix(0.0666667,0,0,0.0666667,255.176,25.3184)"
       aria-label="3">
      <path
         inkscape:connector-curvature="0"
         id="path1109"
         style="font-style:normal;font-weight:normal;font-size:120px;font-family:Arial;fill:#cc79a7;stroke:none"
         d="m 5.0390625,-22.675781 10.5468755,-1.40625 q 1.816406,8.964843 6.152343,12.949218 4.394531,3.9257818 10.664063,3.9257818 7.441406,0 12.539062,-5.1562498 5.15625,-5.15625 5.15625,-12.773438 0,-7.265625 -4.746094,-11.953125 -4.746093,-4.746093 -12.070312,-4.746093 -2.988281,0 -7.441406,1.171875 l 1.171875,-9.257813 q 1.054687,0.117188 1.699218,0.117188 6.738282,0 12.128907,-3.515625 5.390625,-3.515625 5.390625,-10.839844 0,-5.800781 -3.925782,-9.609375 -3.925781,-3.808594 -10.136718,-3.808594 -6.152344,0 -10.253907,3.867188 -4.101562,3.867187 -5.273437,11.601562 l -10.546875,-1.875 Q 8.0273438,-74.589844 14.882813,-80.390625 21.738281,-86.25 31.933594,-86.25 q 7.03125,0 12.949218,3.046875 5.917969,2.988281 9.023438,8.203125 3.164062,5.214844 3.164062,11.074219 0,5.566406 -2.988281,10.136719 -2.988281,4.570312 -8.847656,7.265625 7.617187,1.757812 11.835937,7.324218 4.21875,5.507813 4.21875,13.828125 0,11.25 -8.203125,19.1015628 -8.203125,7.7929687 -20.742187,7.7929687 -11.308594,0 -18.808594,-6.7382812 Q 6.09375,-11.953125 5.0390625,-22.675781 Z" />
    </g>
    <path
       id="path60"
       d="m 3704.33,3224.5 5.1,8.83 -120.43,69.53 h -10.2 l 1.86,-6.97 z"
       transform="matrix(0.0666667,0,0,0.0666667,-7.06646,-193.667)"
       inkscape:connector-curvature="0"
       style="fill:#cc79a7;stroke:none" />
    <g
       id="text62"
       style="font-style:normal;font-weight:normal;font-size:160px;font-family:Arial;fill:#009e73;stroke:none"
       transform="matrix(0.0666667,0,0,0.0666667,221.479,17.4352)"
       aria-label="N">
      <path
         inkscape:connector-curvature="0"
         id="path1112"
         style="font-style:normal;font-weight:normal;font-size:160px;font-family:Arial;fill:#009e73;stroke:none"
         d="m 12.1875,0 v -114.53125 h 15.546875 l 60.15625,89.921875 V -114.53125 H 102.42188 V 0 H 86.875 L 26.71875,-90 V 0 Z" />
    </g>
    <g
       id="text64"
       style="font-style:normal;font-weight:normal;font-size:120px;font-family:Arial;fill:#009e73;stroke:none"
       transform="matrix(0.0666667,0,0,0.0666667,229.182,19.7018)"
       aria-label="3">
      <path
         inkscape:connector-curvature="0"
         id="path1115"
         style="font-style:normal;font-weight:normal;font-size:120px;font-family:Arial;fill:#009e73;stroke:none"
         d="m 5.0390625,-22.675781 10.5468755,-1.40625 q 1.816406,8.964843 6.152343,12.949218 4.394531,3.9257818 10.664063,3.9257818 7.441406,0 12.539062,-5.1562498 5.15625,-5.15625 5.15625,-12.773438 0,-7.265625 -4.746094,-11.953125 -4.746093,-4.746093 -12.070312,-4.746093 -2.988281,0 -7.441406,1.171875 l 1.171875,-9.257813 q 1.054687,0.117188 1.699218,0.117188 6.738282,0 12.128907,-3.515625 5.390625,-3.515625 5.390625,-10.839844 0,-5.800781 -3.925782,-9.609375 -3.925781,-3.808594 -10.136718,-3.808594 -6.152344,0 -10.253907,3.867188 -4.101562,3.867187 -5.273437,11.601562 l -10.546875,-1.875 Q 8.0273438,-74.589844 14.882813,-80.390625 21.738281,-86.25 31.933594,-86.25 q 7.03125,0 12.949218,3.046875 5.917969,2.988281 9.023438,8.203125 3.164062,5.214844 3.164062,11.074219 0,5.566406 -2.988281,10.136719 -2.988281,4.570312 -8.847656,7.265625 7.617187,1.757812 11.835937,7.324218 4.21875,5.507813 4.21875,13.828125 0,11.25 -8.203125,19.1015628 -8.203125,7.7929687 -20.742187,7.7929687 -11.308594,0 -18.808594,-6.7382812 Q 6.09375,-11.953125 5.0390625,-22.675781 Z" />
    </g>
    <path
       id="path66"
       d="m 3516.19,3204.63 8.84,-5.1 55.63,96.36 -1.86,6.97 -6.97,-1.86 z"
       transform="matrix(0.0666667,0,0,0.0666667,-7.06646,-193.667)"
       inkscape:connector-curvature="0"
       style="fill:#009e73;stroke:none" />
  </g>
  <g
     id="g1394"
     transform="translate(0,-2.1726)">
    <path
       id="path68"
       d="m 5923.7,3238.51 -3.16,-9.7 61.74,-20.06 3.16,9.7 z"
       transform="matrix(0.0666667,0,0,0.0666667,-7.06646,-193.667)"
       inkscape:connector-curvature="0"
       style="fill:#000000;stroke:none" />
    <path
       id="path70"
       d="m 6119.29,3274.22 8.26,-6 70.79,97.44 -1.43,6.71 h -6.3 z"
       transform="matrix(0.0666667,0,0,0.0666667,-7.06646,-193.667)"
       inkscape:connector-curvature="0"
       style="fill:#009e73;stroke:none" />
    <g
       id="text72"
       style="font-style:normal;font-weight:normal;font-size:160px;font-family:Arial;fill:#000000;stroke:none"
       transform="matrix(0.0666667,0,0,0.0666667,393.275,12.3945)"
       aria-label="H">
      <path
         inkscape:connector-curvature="0"
         id="path1118"
         style="font-style:normal;font-weight:normal;font-size:160px;font-family:Arial;fill:#000000;stroke:none"
         d="M 12.8125,0 V -114.53125 H 27.96875 V -67.5 H 87.5 v -47.03125 h 15.15625 V 0 H 87.5 V -53.984375 H 27.96875 V 0 Z" />
    </g>
    <g
       id="text74"
       style="font-style:normal;font-weight:normal;font-size:160px;font-family:Arial;fill:#009e73;stroke:none"
       transform="matrix(0.0666667,0,0,0.0666667,393.275,23.0612)"
       aria-label="N">
      <path
         inkscape:connector-curvature="0"
         id="path1121"
         style="font-style:normal;font-weight:normal;font-size:160px;font-family:Arial;fill:#009e73;stroke:none"
         d="m 12.1875,0 v -114.53125 h 15.546875 l 60.15625,89.921875 V -114.53125 H 102.42188 V 0 H 86.875 L 26.71875,-90 V 0 Z" />
    </g>
    <path
       id="path76"
       d="m 6331.23,3444.03 -5.1,8.84 -127.79,-73.78 -1.43,-6.72 h 10.21 z"
       transform="matrix(0.0666667,0,0,0.0666667,-7.06646,-193.667)"
       inkscape:connector-curvature="0"
       style="fill:#cc79a7;stroke:none" />
    <g
       id="text78"
       style="font-style:normal;font-weight:normal;font-size:160px;font-family:Arial;fill:#cc79a7;stroke:none"
       transform="matrix(0.0666667,0,0,0.0666667,415.373,42.9582)"
       aria-label="CF">
      <path
         inkscape:connector-curvature="0"
         id="path1124"
         style="font-style:normal;font-weight:normal;font-size:160px;font-family:Arial;fill:#cc79a7;stroke:none"
         d="m 94.0625,-40.15625 15.15625,3.828125 Q 104.45313,-17.65625 92.03125,-7.8125 79.6875,1.953125 61.796875,1.953125 q -18.515625,0 -30.15625,-7.5 -11.5625,-7.578125 -17.65625,-21.875 Q 7.96875,-41.71875 7.96875,-58.125 q 0,-17.890625 6.796875,-31.171875 6.875,-13.359375 19.453125,-20.234375 12.65625,-6.95313 27.8125,-6.95313 17.1875,0 28.90625,8.75 11.71875,8.750005 16.32813,24.60938 l -14.92188,3.515625 q -3.984375,-12.5 -11.5625,-18.203125 -7.578125,-5.70313 -19.0625,-5.70313 -13.203125,0 -22.109375,6.32813 -8.828125,6.328125 -12.421875,17.03125 -3.59375,10.625 -3.59375,21.953125 0,14.609375 4.21875,25.546875 4.296875,10.859375 13.28125,16.25 8.984375,5.390625 19.453125,5.390625 12.734375,0 21.5625,-7.34375 8.828125,-7.34375 11.953125,-21.796875 z" />
      <path
         inkscape:connector-curvature="0"
         id="path1126"
         style="font-style:normal;font-weight:normal;font-size:160px;font-family:Arial;fill:#cc79a7;stroke:none"
         d="m 128.75,0 v -114.53125 h 77.26562 v 13.51562 h -62.10937 v 35.468755 h 53.75 v 13.515625 h -53.75 V 0 Z" />
    </g>
    <g
       id="text80"
       style="font-style:normal;font-weight:normal;font-size:120px;font-family:Arial;fill:#cc79a7;stroke:none"
       transform="matrix(0.0666667,0,0,0.0666667,429.592,45.2249)"
       aria-label="3">
      <path
         inkscape:connector-curvature="0"
         id="path1129"
         style="font-style:normal;font-weight:normal;font-size:120px;font-family:Arial;fill:#cc79a7;stroke:none"
         d="m 5.0390625,-22.675781 10.5468755,-1.40625 q 1.816406,8.964843 6.152343,12.949218 4.394531,3.9257818 10.664063,3.9257818 7.441406,0 12.539062,-5.1562498 5.15625,-5.15625 5.15625,-12.773438 0,-7.265625 -4.746094,-11.953125 -4.746093,-4.746093 -12.070312,-4.746093 -2.988281,0 -7.441406,1.171875 l 1.171875,-9.257813 q 1.054687,0.117188 1.699218,0.117188 6.738282,0 12.128907,-3.515625 5.390625,-3.515625 5.390625,-10.839844 0,-5.800781 -3.925782,-9.609375 -3.925781,-3.808594 -10.136718,-3.808594 -6.152344,0 -10.253907,3.867188 -4.101562,3.867187 -5.273437,11.601562 l -10.546875,-1.875 Q 8.0273438,-74.589844 14.882813,-80.390625 21.738281,-86.25 31.933594,-86.25 q 7.03125,0 12.949218,3.046875 5.917969,2.988281 9.023438,8.203125 3.164062,5.214844 3.164062,11.074219 0,5.566406 -2.988281,10.136719 -2.988281,4.570312 -8.847656,7.265625 7.617187,1.757812 11.835937,7.324218 4.21875,5.507813 4.21875,13.828125 0,11.25 -8.203125,19.1015628 -8.203125,7.7929687 -20.742187,7.7929687 -11.308594,0 -18.808594,-6.7382812 Q 6.09375,-11.953125 5.0390625,-22.675781 Z" />
    </g>
    <path
       id="path82"
       d="m 6320.56,3295.09 5.1,8.84 -118.54,68.44 h -10.21 l 1.43,-6.71 z"
       transform="matrix(0.0666667,0,0,0.0666667,-7.06646,-193.667)"
       inkscape:connector-curvature="0"
       style="fill:#cc79a7;stroke:none" />
    <g
       id="text84"
       style="font-style:normal;font-weight:normal;font-size:160px;font-family:Arial;fill:#cc79a7;stroke:none"
       transform="matrix(0.0666667,0,0,0.0666667,415.373,27.7582)"
       aria-label="CF">
      <path
         inkscape:connector-curvature="0"
         id="path1132"
         style="font-style:normal;font-weight:normal;font-size:160px;font-family:Arial;fill:#cc79a7;stroke:none"
         d="m 94.0625,-40.15625 15.15625,3.828125 Q 104.45313,-17.65625 92.03125,-7.8125 79.6875,1.953125 61.796875,1.953125 q -18.515625,0 -30.15625,-7.5 -11.5625,-7.578125 -17.65625,-21.875 Q 7.96875,-41.71875 7.96875,-58.125 q 0,-17.890625 6.796875,-31.171875 6.875,-13.359375 19.453125,-20.234375 12.65625,-6.95313 27.8125,-6.95313 17.1875,0 28.90625,8.75 11.71875,8.750005 16.32813,24.60938 l -14.92188,3.515625 q -3.984375,-12.5 -11.5625,-18.203125 -7.578125,-5.70313 -19.0625,-5.70313 -13.203125,0 -22.109375,6.32813 -8.828125,6.328125 -12.421875,17.03125 -3.59375,10.625 -3.59375,21.953125 0,14.609375 4.21875,25.546875 4.296875,10.859375 13.28125,16.25 8.984375,5.390625 19.453125,5.390625 12.734375,0 21.5625,-7.34375 8.828125,-7.34375 11.953125,-21.796875 z" />
      <path
         inkscape:connector-curvature="0"
         id="path1134"
         style="font-style:normal;font-weight:normal;font-size:160px;font-family:Arial;fill:#cc79a7;stroke:none"
         d="m 128.75,0 v -114.53125 h 77.26562 v 13.51562 h -62.10937 v 35.468755 h 53.75 v 13.515625 h -53.75 V 0 Z" />
    </g>
    <g
       id="text86"
       style="font-style:normal;font-weight:normal;font-size:120px;font-family:Arial;fill:#cc79a7;stroke:none"
       transform="matrix(0.0666667,0,0,0.0666667,429.592,30.0249)"
       aria-label="3">
      <path
         inkscape:connector-curvature="0"
         id="path1137"
         style="font-style:normal;font-weight:normal;font-size:120px;font-family:Arial;fill:#cc79a7;stroke:none"
         d="m 5.0390625,-22.675781 10.5468755,-1.40625 q 1.816406,8.964843 6.152343,12.949218 4.394531,3.9257818 10.664063,3.9257818 7.441406,0 12.539062,-5.1562498 5.15625,-5.15625 5.15625,-12.773438 0,-7.265625 -4.746094,-11.953125 -4.746093,-4.746093 -12.070312,-4.746093 -2.988281,0 -7.441406,1.171875 l 1.171875,-9.257813 q 1.054687,0.117188 1.699218,0.117188 6.738282,0 12.128907,-3.515625 5.390625,-3.515625 5.390625,-10.839844 0,-5.800781 -3.925782,-9.609375 -3.925781,-3.808594 -10.136718,-3.808594 -6.152344,0 -10.253907,3.867188 -4.101562,3.867187 -5.273437,11.601562 l -10.546875,-1.875 Q 8.0273438,-74.589844 14.882813,-80.390625 21.738281,-86.25 31.933594,-86.25 q 7.03125,0 12.949218,3.046875 5.917969,2.988281 9.023438,8.203125 3.164062,5.214844 3.164062,11.074219 0,5.566406 -2.988281,10.136719 -2.988281,4.570312 -8.847656,7.265625 7.617187,1.757812 11.835937,7.324218 4.21875,5.507813 4.21875,13.828125 0,11.25 -8.203125,19.1015628 -8.203125,7.7929687 -20.742187,7.7929687 -11.308594,0 -18.808594,-6.7382812 Q 6.09375,-11.953125 5.0390625,-22.675781 Z" />
    </g>
    <path
       id="path88"
       d="m 6190.61,3372.37 h 6.3 l 1.43,6.72 -76.98,105.95 -8.25,-6 z"
       transform="matrix(0.0666667,0,0,0.0666667,-7.06646,-193.667)"
       inkscape:connector-curvature="0"
       style="fill:#000000;stroke:none" />
    <path
       id="path90"
       d="m 5840.95,3350.04 h 10.21 v 132.63 l -5.1,3.7 -5.11,-2.6 z"
       transform="matrix(0.0666667,0,0,0.0666667,-7.06646,-193.667)"
       inkscape:connector-curvature="0"
       style="fill:#000000;stroke:none" />
    <g
       id="text92"
       style="font-style:normal;font-weight:normal;font-size:160px;font-family:Arial;fill:#000000;stroke:none"
       transform="matrix(0.0666667,0,0,0.0666667,378.522,27.7582)"
       aria-label="O">
      <path
         inkscape:connector-curvature="0"
         id="path1140"
         style="font-style:normal;font-weight:normal;font-size:160px;font-family:Arial;fill:#000000;stroke:none"
         d="m 7.734375,-55.78125 q 0,-28.515625 15.3125,-44.60938 15.3125,-16.17187 39.53125,-16.17187 15.859375,0 28.59375,7.57812 12.734375,7.57813 19.375005,21.17188 6.71875,13.515625 6.71875,30.703125 0,17.421875 -7.03125,31.171875 -7.03125,13.75 -19.92188,20.859375 -12.890625,7.03125 -27.8125,7.03125 -16.171875,0 -28.90625,-7.8125 -12.734375,-7.8125 -19.296875,-21.328125 -6.5625,-13.515625 -6.5625,-28.59375 z m 15.625,0.234375 q 0,20.703125 11.09375,32.65625 11.171875,11.875 27.96875,11.875 17.109375,0 28.125,-12.03125 11.093755,-12.03125 11.093755,-34.140625 0,-13.984375 -4.76563,-24.375 -4.6875,-10.46875 -13.828125,-16.171875 -9.0625,-5.781255 -20.390625,-5.781255 -16.09375,0 -27.734375,11.093755 -11.5625,11.015625 -11.5625,36.875 z" />
    </g>
    <path
       id="path94"
       d="m 5985.44,3526.3 -3.16,9.7 -135.33,-43.97 -0.89,-5.66 5.1,-3.7 z"
       transform="matrix(0.0666667,0,0,0.0666667,-7.06646,-193.667)"
       inkscape:connector-curvature="0"
       style="fill:#000000;stroke:none" />
    <path
       id="path96"
       d="m 5998.12,3487.26 -3.16,9.71 -109.44,-35.56 3.15,-9.71 z"
       transform="matrix(0.0666667,0,0,0.0666667,-7.06646,-193.667)"
       inkscape:connector-curvature="0"
       style="fill:#000000;stroke:none" />
    <g
       id="text98"
       style="font-style:normal;font-weight:normal;font-size:160px;font-family:Arial;fill:#000000;stroke:none"
       transform="matrix(0.0666667,0,0,0.0666667,393.275,47.6553)"
       aria-label="N">
      <path
         inkscape:connector-curvature="0"
         id="path1143"
         style="font-style:normal;font-weight:normal;font-size:160px;font-family:Arial;fill:#000000;stroke:none"
         d="m 12.1875,0 v -114.53125 h 15.546875 l 60.15625,89.921875 V -114.53125 H 102.42188 V 0 H 86.875 L 26.71875,-90 V 0 Z" />
    </g>
    <path
       id="path100"
       d="m 5840.95,3483.77 5.11,2.6 0.89,5.66 -137.6,99.97 -6,-8.25 z"
       transform="matrix(0.0666667,0,0,0.0666667,-7.06646,-193.667)"
       inkscape:connector-curvature="0"
       style="fill:#000000;stroke:none" />
    <g
       id="text102"
       style="font-style:normal;font-weight:normal;font-size:160px;font-family:Arial;fill:#000000;stroke:none"
       transform="matrix(0.0666667,0,0,0.0666667,360.293,51.8926)"
       aria-label="Ph">
      <path
         inkscape:connector-curvature="0"
         id="path1146"
         style="font-style:normal;font-weight:normal;font-size:160px;font-family:Arial;fill:#000000;stroke:none"
         d="m 12.34375,0 v -114.53125 h 43.203125 q 11.40625,0 17.421875,1.09375 8.4375,1.40625 14.140625,5.39062 5.703125,3.90625 9.140625,11.01563 3.515625,7.109375 3.515625,15.625 0,14.609375 -9.296875,24.765625 Q 81.171875,-46.5625 56.875,-46.5625 H 27.5 V 0 Z M 27.5,-60.078125 h 29.609375 q 14.6875,0 20.859375,-5.46875 6.171875,-5.46875 6.171875,-15.390625 0,-7.1875 -3.671875,-12.265625 Q 76.875,-98.359375 70.9375,-100 q -3.828125,-1.01563 -14.140625,-1.01563 H 27.5 Z" />
      <path
         inkscape:connector-curvature="0"
         id="path1148"
         style="font-style:normal;font-weight:normal;font-size:160px;font-family:Arial;fill:#000000;stroke:none"
         d="m 117.42188,0 v -114.53125 h 14.06249 v 41.09375 q 9.84375,-11.40625 24.84375,-11.40625 9.21875,0 16.01563,3.671875 6.79687,3.59375 9.6875,10 Q 185,-64.765625 185,-52.578125 V 0 h -14.0625 v -52.578125 q 0,-10.546875 -4.60938,-15.3125 -4.53125,-4.84375 -12.89062,-4.84375 -6.25,0 -11.79688,3.28125 -5.46875,3.203125 -7.8125,8.75 -2.34375,5.546875 -2.34375,15.3125 V 0 Z" />
    </g>
  </g>
  <g
     id="g1420">
    <path
       id="path104"
       d="m 8539.12,3110.79 -3.15,-9.7 60.79,-19.76 3.15,9.71 z"
       transform="matrix(0.0666667,0,0,0.0666667,-7.06646,-193.667)"
       inkscape:connector-curvature="0"
       style="fill:#000000;stroke:none" />
    <path
       id="path106"
       d="m 8733.76,3146.8 8.26,-5.99 71.38,98.24 -2.6,5.1 h -6.31 z"
       transform="matrix(0.0666667,0,0,0.0666667,-7.06646,-193.667)"
       inkscape:connector-curvature="0"
       style="fill:#000000;stroke:none" />
    <path
       id="path108"
       d="m 8700.71,3170.82 8.25,-6 55.46,76.33 -8.25,6 z"
       transform="matrix(0.0666667,0,0,0.0666667,-7.06646,-193.667)"
       inkscape:connector-curvature="0"
       style="fill:#000000;stroke:none" />
    <g
       id="text110"
       style="font-style:normal;font-weight:normal;font-size:160px;font-family:Arial;fill:#009e73;stroke:none"
       transform="matrix(0.0666667,0,0,0.0666667,567.573,14.5671)"
       aria-label="N">
      <path
         inkscape:connector-curvature="0"
         id="path1151"
         style="font-style:normal;font-weight:normal;font-size:160px;font-family:Arial;fill:#009e73;stroke:none"
         d="m 12.1875,0 v -114.53125 h 15.546875 l 60.15625,89.921875 V -114.53125 H 102.42188 V 0 H 86.875 L 26.71875,-90 V 0 Z" />
    </g>
    <path
       id="path112"
       d="m 8963.03,3239.05 v 10.21 H 8813.4 l -2.6,-5.11 2.6,-5.1 z"
       transform="matrix(0.0666667,0,0,0.0666667,-7.06646,-193.667)"
       inkscape:connector-curvature="0"
       style="fill:#cc79a7;stroke:none" />
    <g
       id="text114"
       style="font-style:normal;font-weight:normal;font-size:160px;font-family:Arial;fill:#cc79a7;stroke:none"
       transform="matrix(0.0666667,0,0,0.0666667,591.602,26.8102)"
       aria-label="CF">
      <path
         inkscape:connector-curvature="0"
         id="path1154"
         style="font-style:normal;font-weight:normal;font-size:160px;font-family:Arial;fill:#cc79a7;stroke:none"
         d="m 94.0625,-40.15625 15.15625,3.828125 Q 104.45313,-17.65625 92.03125,-7.8125 79.6875,1.953125 61.796875,1.953125 q -18.515625,0 -30.15625,-7.5 -11.5625,-7.578125 -17.65625,-21.875 Q 7.96875,-41.71875 7.96875,-58.125 q 0,-17.890625 6.796875,-31.171875 6.875,-13.359375 19.453125,-20.234375 12.65625,-6.95313 27.8125,-6.95313 17.1875,0 28.90625,8.75 11.71875,8.750005 16.32813,24.60938 l -14.92188,3.515625 q -3.984375,-12.5 -11.5625,-18.203125 -7.578125,-5.70313 -19.0625,-5.70313 -13.203125,0 -22.109375,6.32813 -8.828125,6.328125 -12.421875,17.03125 -3.59375,10.625 -3.59375,21.953125 0,14.609375 4.21875,25.546875 4.296875,10.859375 13.28125,16.25 8.984375,5.390625 19.453125,5.390625 12.734375,0 21.5625,-7.34375 8.828125,-7.34375 11.953125,-21.796875 z" />
      <path
         inkscape:connector-curvature="0"
         id="path1156"
         style="font-style:normal;font-weight:normal;font-size:160px;font-family:Arial;fill:#cc79a7;stroke:none"
         d="m 128.75,0 v -114.53125 h 77.26562 v 13.51562 h -62.10937 v 35.468755 h 53.75 v 13.515625 h -53.75 V 0 Z" />
    </g>
    <g
       id="text116"
       style="font-style:normal;font-weight:normal;font-size:120px;font-family:Arial;fill:#cc79a7;stroke:none"
       transform="matrix(0.0666667,0,0,0.0666667,605.821,29.0769)"
       aria-label="3">
      <path
         inkscape:connector-curvature="0"
         id="path1159"
         style="font-style:normal;font-weight:normal;font-size:120px;font-family:Arial;fill:#cc79a7;stroke:none"
         d="m 5.0390625,-22.675781 10.5468755,-1.40625 q 1.816406,8.964843 6.152343,12.949218 4.394531,3.9257818 10.664063,3.9257818 7.441406,0 12.539062,-5.1562498 5.15625,-5.15625 5.15625,-12.773438 0,-7.265625 -4.746094,-11.953125 -4.746093,-4.746093 -12.070312,-4.746093 -2.988281,0 -7.441406,1.171875 l 1.171875,-9.257813 q 1.054687,0.117188 1.699218,0.117188 6.738282,0 12.128907,-3.515625 5.390625,-3.515625 5.390625,-10.839844 0,-5.800781 -3.925782,-9.609375 -3.925781,-3.808594 -10.136718,-3.808594 -6.152344,0 -10.253907,3.867188 -4.101562,3.867187 -5.273437,11.601562 l -10.546875,-1.875 Q 8.0273438,-74.589844 14.882813,-80.390625 21.738281,-86.25 31.933594,-86.25 q 7.03125,0 12.949218,3.046875 5.917969,2.988281 9.023438,8.203125 3.164062,5.214844 3.164062,11.074219 0,5.566406 -2.988281,10.136719 -2.988281,4.570312 -8.847656,7.265625 7.617187,1.757812 11.835937,7.324218 4.21875,5.507813 4.21875,13.828125 0,11.25 -8.203125,19.1015628 -8.203125,7.7929687 -20.742187,7.7929687 -11.308594,0 -18.808594,-6.7382812 Q 6.09375,-11.953125 5.0390625,-22.675781 Z" />
    </g>
    <path
       id="path118"
       d="m 8804.49,3244.15 h 6.31 l 2.6,5.11 -77.56,106.75 -8.26,-6 z"
       transform="matrix(0.0666667,0,0,0.0666667,-7.06646,-193.667)"
       inkscape:connector-curvature="0"
       style="fill:#000000;stroke:none" />
    <path
       id="path120"
       d="m 8456.38,3222.32 h 10.2 v 131.63 l -5.1,3.7 -5.1,-2.6 z"
       transform="matrix(0.0666667,0,0,0.0666667,-7.06646,-193.667)"
       inkscape:connector-curvature="0"
       style="fill:#000000;stroke:none" />
    <g
       id="text122"
       style="font-style:normal;font-weight:normal;font-size:160px;font-family:Arial;fill:#000000;stroke:none"
       transform="matrix(0.0666667,0,0,0.0666667,552.884,19.2436)"
       aria-label="O">
      <path
         inkscape:connector-curvature="0"
         id="path1162"
         style="font-style:normal;font-weight:normal;font-size:160px;font-family:Arial;fill:#000000;stroke:none"
         d="m 7.734375,-55.78125 q 0,-28.515625 15.3125,-44.60938 15.3125,-16.17187 39.53125,-16.17187 15.859375,0 28.59375,7.57812 12.734375,7.57813 19.375005,21.17188 6.71875,13.515625 6.71875,30.703125 0,17.421875 -7.03125,31.171875 -7.03125,13.75 -19.92188,20.859375 -12.890625,7.03125 -27.8125,7.03125 -16.171875,0 -28.90625,-7.8125 -12.734375,-7.8125 -19.296875,-21.328125 -6.5625,-13.515625 -6.5625,-28.59375 z m 15.625,0.234375 q 0,20.703125 11.09375,32.65625 11.171875,11.875 27.96875,11.875 17.109375,0 28.125,-12.03125 11.093755,-12.03125 11.093755,-34.140625 0,-13.984375 -4.76563,-24.375 -4.6875,-10.46875 -13.828125,-16.171875 -9.0625,-5.781255 -20.390625,-5.781255 -16.09375,0 -27.734375,11.093755 -11.5625,11.015625 -11.5625,36.875 z" />
    </g>
    <path
       id="path124"
       d="m 8599.91,3397.27 -3.15,9.7 -134.38,-43.66 -0.9,-5.66 5.1,-3.7 z"
       transform="matrix(0.0666667,0,0,0.0666667,-7.06646,-193.667)"
       inkscape:connector-curvature="0"
       style="fill:#000000;stroke:none" />
    <g
       id="text126"
       style="font-style:normal;font-weight:normal;font-size:160px;font-family:Arial;fill:#000000;stroke:none"
       transform="matrix(0.0666667,0,0,0.0666667,567.573,39.0533)"
       aria-label="N">
      <path
         inkscape:connector-curvature="0"
         id="path1165"
         style="font-style:normal;font-weight:normal;font-size:160px;font-family:Arial;fill:#000000;stroke:none"
         d="m 12.1875,0 v -114.53125 h 15.546875 l 60.15625,89.921875 V -114.53125 H 102.42188 V 0 H 86.875 L 26.71875,-90 V 0 Z" />
    </g>
    <g
       id="text128"
       style="font-style:normal;font-weight:normal;font-size:160px;font-family:Arial;fill:#000000;stroke:none"
       transform="matrix(0.0666667,0,0,0.0666667,567.573,49.72)"
       aria-label="H">
      <path
         inkscape:connector-curvature="0"
         id="path1168"
         style="font-style:normal;font-weight:normal;font-size:160px;font-family:Arial;fill:#000000;stroke:none"
         d="M 12.8125,0 V -114.53125 H 27.96875 V -67.5 H 87.5 v -47.03125 h 15.15625 V 0 H 87.5 V -53.984375 H 27.96875 V 0 Z" />
    </g>
    <path
       id="path130"
       d="m 8456.38,3355.05 5.1,2.6 0.9,5.66 -136.8,99.39 -5.99,-8.26 z"
       transform="matrix(0.0666667,0,0,0.0666667,-7.06646,-193.667)"
       inkscape:connector-curvature="0"
       style="fill:#000000;stroke:none" />
    <g
       id="text132"
       style="font-style:normal;font-weight:normal;font-size:160px;font-family:Arial;fill:#000000;stroke:none"
       transform="matrix(0.0666667,0,0,0.0666667,534.708,43.2721)"
       aria-label="Ph">
      <path
         inkscape:connector-curvature="0"
         id="path1171"
         style="font-style:normal;font-weight:normal;font-size:160px;font-family:Arial;fill:#000000;stroke:none"
         d="m 12.34375,0 v -114.53125 h 43.203125 q 11.40625,0 17.421875,1.09375 8.4375,1.40625 14.140625,5.39062 5.703125,3.90625 9.140625,11.01563 3.515625,7.109375 3.515625,15.625 0,14.609375 -9.296875,24.765625 Q 81.171875,-46.5625 56.875,-46.5625 H 27.5 V 0 Z M 27.5,-60.078125 h 29.609375 q 14.6875,0 20.859375,-5.46875 6.171875,-5.46875 6.171875,-15.390625 0,-7.1875 -3.671875,-12.265625 Q 76.875,-98.359375 70.9375,-100 q -3.828125,-1.01563 -14.140625,-1.01563 H 27.5 Z" />
      <path
         inkscape:connector-curvature="0"
         id="path1173"
         style="font-style:normal;font-weight:normal;font-size:160px;font-family:Arial;fill:#000000;stroke:none"
         d="m 117.42188,0 v -114.53125 h 14.06249 v 41.09375 q 9.84375,-11.40625 24.84375,-11.40625 9.21875,0 16.01563,3.671875 6.79687,3.59375 9.6875,10 Q 185,-64.765625 185,-52.578125 V 0 h -14.0625 v -52.578125 q 0,-10.546875 -4.60938,-15.3125 -4.53125,-4.84375 -12.89062,-4.84375 -6.25,0 -11.79688,3.28125 -5.46875,3.203125 -7.8125,8.75 -2.34375,5.546875 -2.34375,15.3125 V 0 Z" />
    </g>
  </g>
  <path
     stroke="none"
     fill="#000000"
     transform="matrix(0.0666667 0 0 0.0666667 -7.06646 -193.667)"
     d="M 2382.05,3346.65 L 1630.34,3346.65 L 1630.34,3336.65 L 2382.05,3336.65 Z "
     id="path134" />
  <path
     stroke="none"
     fill="#000000"
     transform="matrix(0.0666667 0 0 0.0666667 -7.06646 -193.667)"
     d="M 2470.34,3341.65 C 2470.34,3341.65 2368.3,3368.16 2368.3,3368.16 C 2368.3,3368.16 2381.05,3353.25 2381.05,3341.65 C 2381.05,3329.62 2368.3,3314.14 2368.3,3314.14 C 2368.3,3314.14 2470.34,3341.65 2470.34,3341.65 C 2470.34,3341.65 2470.34,3341.65 2470.34,3341.65 "
     id="path136" />
  <path
     stroke="#000000"
     stroke-width="1"
     fill="none"
     transform="matrix(0.0666667 0 0 0.0666667 -7.06646 -193.667)"
     d="M 2470.34,3341.65 C 2470.34,3341.65 2368.3,3368.16 2368.3,3368.16 C 2368.3,3368.16 2381.05,3353.25 2381.05,3341.65 C 2381.05,3329.62 2368.3,3314.14 2368.3,3314.14 C 2368.3,3314.14 2470.34,3341.65 2470.34,3341.65 C 2470.34,3341.65 2470.34,3341.65 2470.34,3341.65 "
     id="path138" />
  <path
     stroke="none"
     fill="#000000"
     transform="matrix(0.0666667 0 0 0.0666667 -7.06646 -193.667)"
     d="M 5079.96,3346.65 L 4328.25,3346.65 L 4328.25,3336.65 L 5079.96,3336.65 Z "
     id="path140" />
  <path
     stroke="none"
     fill="#000000"
     transform="matrix(0.0666667 0 0 0.0666667 -7.06646 -193.667)"
     d="M 5168.25,3341.65 C 5168.25,3341.65 5066.2,3368.16 5066.2,3368.16 C 5066.2,3368.16 5078.96,3353.25 5078.96,3341.65 C 5078.96,3329.62 5066.2,3314.14 5066.2,3314.14 C 5066.2,3314.14 5168.25,3341.65 5168.25,3341.65 C 5168.25,3341.65 5168.25,3341.65 5168.25,3341.65 "
     id="path142" />
  <path
     stroke="#000000"
     stroke-width="1"
     fill="none"
     transform="matrix(0.0666667 0 0 0.0666667 -7.06646 -193.667)"
     d="M 5168.25,3341.65 C 5168.25,3341.65 5066.2,3368.16 5066.2,3368.16 C 5066.2,3368.16 5078.96,3353.25 5078.96,3341.65 C 5078.96,3329.62 5066.2,3314.14 5066.2,3314.14 C 5066.2,3314.14 5168.25,3341.65 5168.25,3341.65 C 5168.25,3341.65 5168.25,3341.65 5168.25,3341.65 "
     id="path144" />
  <path
     stroke="none"
     fill="#000000"
     transform="matrix(0.0666667 0 0 0.0666667 -7.06646 -193.667)"
     d="M 7736.15,3346.65 L 6984.43,3346.65 L 6984.43,3336.65 L 7736.15,3336.65 Z "
     id="path146" />
  <path
     stroke="none"
     fill="#000000"
     transform="matrix(0.0666667 0 0 0.0666667 -7.06646 -193.667)"
     d="M 7824.43,3341.65 C 7824.43,3341.65 7722.39,3368.16 7722.39,3368.16 C 7722.39,3368.16 7735.15,3353.25 7735.15,3341.65 C 7735.15,3329.62 7722.39,3314.14 7722.39,3314.14 C 7722.39,3314.14 7824.43,3341.65 7824.43,3341.65 C 7824.43,3341.65 7824.43,3341.65 7824.43,3341.65 "
     id="path148" />
  <path
     stroke="#000000"
     stroke-width="1"
     fill="none"
     transform="matrix(0.0666667 0 0 0.0666667 -7.06646 -193.667)"
     d="M 7824.43,3341.65 C 7824.43,3341.65 7722.39,3368.16 7722.39,3368.16 C 7722.39,3368.16 7735.15,3353.25 7735.15,3341.65 C 7735.15,3329.62 7722.39,3314.14 7722.39,3314.14 C 7722.39,3314.14 7824.43,3341.65 7824.43,3341.65 C 7824.43,3341.65 7824.43,3341.65 7824.43,3341.65 "
     id="path150" />
  <g
     aria-label="HN"
     transform="matrix(0.0666667,0,0,0.0666667,119.695,23.3333)"
     style="font-style:normal;font-weight:normal;font-size:160px;font-family:Arial;fill:#009e73;stroke:none"
     id="text152">
    <path
       d="M 12.8125,0 V -114.53125 H 27.96875 V -67.5 H 87.5 v -47.03125 h 15.15625 V 0 H 87.5 V -53.984375 H 27.96875 V 0 Z"
       style="font-style:normal;font-weight:normal;font-size:160px;font-family:Arial;fill:#009e73;stroke:none"
       id="path1176"
       inkscape:connector-curvature="0" />
    <path
       d="m 127.8125,0 v -114.53125 h 15.54687 l 60.15625,89.921875 v -89.921875 h 14.53125 V 0 H 202.5 L 142.34375,-90 V 0 Z"
       style="font-style:normal;font-weight:normal;font-size:160px;font-family:Arial;fill:#009e73;stroke:none"
       id="path1178"
       inkscape:connector-curvature="0" />
  </g>
  <g
     aria-label="3"
     transform="matrix(0.0666667,0,0,0.0666667,135.102,25.6)"
     style="font-style:normal;font-weight:normal;font-size:120px;font-family:Arial;fill:#009e73;stroke:none"
     id="text154">
    <path
       d="m 5.0390625,-22.675781 10.5468755,-1.40625 q 1.816406,8.964843 6.152343,12.949218 4.394531,3.9257818 10.664063,3.9257818 7.441406,0 12.539062,-5.1562498 5.15625,-5.15625 5.15625,-12.773438 0,-7.265625 -4.746094,-11.953125 -4.746093,-4.746093 -12.070312,-4.746093 -2.988281,0 -7.441406,1.171875 l 1.171875,-9.257813 q 1.054687,0.117188 1.699218,0.117188 6.738282,0 12.128907,-3.515625 5.390625,-3.515625 5.390625,-10.839844 0,-5.800781 -3.925782,-9.609375 -3.925781,-3.808594 -10.136718,-3.808594 -6.152344,0 -10.253907,3.867188 -4.101562,3.867187 -5.273437,11.601562 l -10.546875,-1.875 Q 8.0273438,-74.589844 14.882813,-80.390625 21.738281,-86.25 31.933594,-86.25 q 7.03125,0 12.949218,3.046875 5.917969,2.988281 9.023438,8.203125 3.164062,5.214844 3.164062,11.074219 0,5.566406 -2.988281,10.136719 -2.988281,4.570312 -8.847656,7.265625 7.617187,1.757812 11.835937,7.324218 4.21875,5.507813 4.21875,13.828125 0,11.25 -8.203125,19.1015628 -8.203125,7.7929687 -20.742187,7.7929687 -11.308594,0 -18.808594,-6.7382812 Q 6.09375,-11.953125 5.0390625,-22.675781 Z"
       style="font-style:normal;font-weight:normal;font-size:120px;font-family:Arial;fill:#009e73;stroke:none"
       id="path1181"
       inkscape:connector-curvature="0" />
  </g>
  <text
     x="123.399"
     y="45.333302"
     font-style="normal"
     font-weight="normal"
     font-size="160px"
     id="text156"
     style="font-style:normal;font-weight:normal;font-size:10.66667175px;font-family:Arial;fill:#000000;stroke:none;stroke-width:0.0666667">\textDelta{}T</text>
  <g
     aria-label="-N"
     transform="matrix(0.0666667,0,0,0.0666667,301.631,23.3333)"
     style="font-style:normal;font-weight:normal;font-size:160px;font-family:Arial;fill:#000000;stroke:none"
     id="text158">
    <path
       d="M 5.078125,-34.375 V -48.515625 H 48.28125 V -34.375 Z"
       style="font-style:normal;font-weight:normal;font-size:160px;font-family:Arial;fill:#000000;stroke:none"
       id="path1184"
       inkscape:connector-curvature="0" />
    <path
       d="m 65.625,0 v -114.53125 h 15.546875 l 60.156245,89.921875 v -89.921875 h 14.53125 V 0 H 140.3125 L 80.15625,-90 V 0 Z"
       style="font-style:normal;font-weight:normal;font-size:160px;font-family:Arial;fill:#000000;stroke:none"
       id="path1186"
       inkscape:connector-curvature="0" />
  </g>
  <g
     aria-label="2"
     transform="matrix(0.0666667,0,0,0.0666667,312.886,25.6)"
     style="font-style:normal;font-weight:normal;font-size:120px;font-family:Arial;fill:#000000;stroke:none"
     id="text160">
    <path
       d="M 60.410156,-10.136719 V 0 H 3.6328125 Q 3.515625,-3.8085938 4.8632812,-7.3242187 7.03125,-13.125 11.777344,-18.75 q 4.804687,-5.625 13.828125,-13.007812 14.003906,-11.484375 18.925781,-18.164063 4.921875,-6.738281 4.921875,-12.714844 0,-6.269531 -4.511719,-10.546875 -4.453125,-4.335937 -11.660156,-4.335937 -7.617188,0 -12.1875,4.570312 -4.570313,4.570313 -4.628906,12.65625 L 5.625,-61.40625 Q 6.7382812,-73.535156 14.003906,-79.863281 21.269531,-86.25 33.515625,-86.25 q 12.363281,0 19.570312,6.855469 7.207032,6.855469 7.207032,16.992187 0,5.15625 -2.109375,10.136719 -2.109375,4.980469 -7.03125,10.488281 -4.863282,5.507813 -16.230469,15.117188 -9.492188,7.96875 -12.1875,10.839843 -2.695313,2.8125 -4.453125,5.683594 z"
       style="font-style:normal;font-weight:normal;font-size:120px;font-family:Arial;fill:#000000;stroke:none"
       id="path1189"
       inkscape:connector-curvature="0" />
  </g>
  <text
     x="303.259"
     y="45.333302"
     font-style="normal"
     font-weight="normal"
     font-size="160px"
     id="text162"
     style="font-style:normal;font-weight:normal;font-size:10.66667175px;font-family:Arial;fill:#000000;stroke:none;stroke-width:0.0666667">\textDelta{}T</text>
  <g
     aria-label="-HCF"
     transform="matrix(0.0666667,0,0,0.0666667,471.601,23.3333)"
     style="font-style:normal;font-weight:normal;font-size:160px;font-family:Arial;fill:#000000;stroke:none"
     id="text164">
    <path
       d="M 5.078125,-34.375 V -48.515625 H 48.28125 V -34.375 Z"
       style="font-style:normal;font-weight:normal;font-size:160px;font-family:Arial;fill:#000000;stroke:none"
       id="path1192"
       inkscape:connector-curvature="0" />
    <path
       d="M 66.25,0 V -114.53125 H 81.40625 V -67.5 h 59.53125 v -47.03125 h 15.15625 V 0 H 140.9375 V -53.984375 H 81.40625 V 0 Z"
       style="font-style:normal;font-weight:normal;font-size:160px;font-family:Arial;fill:#000000;stroke:none"
       id="path1194"
       inkscape:connector-curvature="0" />
    <path
       d="m 263.125,-40.15625 15.15625,3.828125 Q 273.51562,-17.65625 261.09375,-7.8125 248.75,1.953125 230.85937,1.953125 q -18.51562,0 -30.15625,-7.5 -11.5625,-7.578125 -17.65625,-21.875 -6.01562,-14.296875 -6.01562,-30.703125 0,-17.890625 6.79687,-31.171875 6.875,-13.359375 19.45313,-20.234375 12.65625,-6.95313 27.8125,-6.95313 17.1875,0 28.90625,8.75 11.71875,8.750005 16.32812,24.60938 l -14.92187,3.515625 q -3.98438,-12.5 -11.5625,-18.203125 -7.57813,-5.70313 -19.0625,-5.70313 -13.20313,0 -22.10938,6.32813 -8.82812,6.328125 -12.42187,17.03125 -3.59375,10.625 -3.59375,21.953125 0,14.609375 4.21875,25.546875 4.29687,10.859375 13.28125,16.25 8.98437,5.390625 19.45312,5.390625 12.73438,0 21.5625,-7.34375 Q 260,-25.703125 263.125,-40.15625 Z"
       style="font-style:normal;font-weight:normal;font-size:160px;font-family:Arial;fill:#000000;stroke:none"
       id="path1196"
       inkscape:connector-curvature="0" />
    <path
       d="m 297.8125,0 v -114.53125 h 77.26562 v 13.51562 h -62.10937 v 35.468755 h 53.75 v 13.515625 h -53.75 V 0 Z"
       style="font-style:normal;font-weight:normal;font-size:160px;font-family:Arial;fill:#000000;stroke:none"
       id="path1198"
       inkscape:connector-curvature="0" />
  </g>
  <g
     aria-label="3"
     transform="matrix(0.0666667,0,0,0.0666667,497.075,25.6)"
     style="font-style:normal;font-weight:normal;font-size:120px;font-family:Arial;fill:#000000;stroke:none"
     id="text166">
    <path
       d="m 5.0390625,-22.675781 10.5468755,-1.40625 q 1.816406,8.964843 6.152343,12.949218 4.394531,3.9257818 10.664063,3.9257818 7.441406,0 12.539062,-5.1562498 5.15625,-5.15625 5.15625,-12.773438 0,-7.265625 -4.746094,-11.953125 -4.746093,-4.746093 -12.070312,-4.746093 -2.988281,0 -7.441406,1.171875 l 1.171875,-9.257813 q 1.054687,0.117188 1.699218,0.117188 6.738282,0 12.128907,-3.515625 5.390625,-3.515625 5.390625,-10.839844 0,-5.800781 -3.925782,-9.609375 -3.925781,-3.808594 -10.136718,-3.808594 -6.152344,0 -10.253907,3.867188 -4.101562,3.867187 -5.273437,11.601562 l -10.546875,-1.875 Q 8.0273438,-74.589844 14.882813,-80.390625 21.738281,-86.25 31.933594,-86.25 q 7.03125,0 12.949218,3.046875 5.917969,2.988281 9.023438,8.203125 3.164062,5.214844 3.164062,11.074219 0,5.566406 -2.988281,10.136719 -2.988281,4.570312 -8.847656,7.265625 7.617187,1.757812 11.835937,7.324218 4.21875,5.507813 4.21875,13.828125 0,11.25 -8.203125,19.1015628 -8.203125,7.7929687 -20.742187,7.7929687 -11.308594,0 -18.808594,-6.7382812 Q 6.09375,-11.953125 5.0390625,-22.675781 Z"
       style="font-style:normal;font-weight:normal;font-size:120px;font-family:Arial;fill:#000000;stroke:none"
       id="path1201"
       inkscape:connector-curvature="0" />
  </g>
  <text
     x="480.33899"
     y="45.333302"
     font-style="normal"
     font-weight="normal"
     font-size="160px"
     id="text168"
     style="font-style:normal;font-weight:normal;font-size:10.66667175px;font-family:Arial;fill:#000000;stroke:none;stroke-width:0.0666667">\textDelta{}T</text>
  <g
     id="g1302"
     transform="translate(0,-21.483265)">
    <path
       id="path170"
       d="m 484.779,4902.54 5.102,-8.84 69.31,40.02 -5.102,8.83 z"
       transform="matrix(0.0666667,0,0,0.0666667,-7.06646,-193.667)"
       inkscape:connector-curvature="0"
       style="fill:#cc79a7;stroke:none" />
    <g
       id="text172"
       style="font-style:normal;font-weight:normal;font-size:160px;font-family:Arial;fill:#cc79a7;stroke:none"
       transform="matrix(0.0666667,0,0,0.0666667,18.6891,135.068)"
       aria-label="F">
      <path
         inkscape:connector-curvature="0"
         id="path1204"
         style="font-style:normal;font-weight:normal;font-size:160px;font-family:Arial;fill:#cc79a7;stroke:none"
         d="m 13.125,0 v -114.53125 h 77.265625 v 13.51562 H 28.28125 v 35.468755 h 53.75 v 13.515625 h -53.75 V 0 Z" />
    </g>
    <path
       id="path174"
       d="m 828.471,4727.02 h 10.204 v 138.06 l -5.102,2.94 -5.102,-2.94 z"
       transform="matrix(0.0666667,0,0,0.0666667,-7.06646,-193.667)"
       inkscape:connector-curvature="0"
       style="fill:#cc79a7;stroke:none" />
    <g
       id="text176"
       style="font-style:normal;font-weight:normal;font-size:160px;font-family:Arial;fill:#cc79a7;stroke:none"
       transform="matrix(0.0666667,0,0,0.0666667,45.2473,119.735)"
       aria-label="F">
      <path
         inkscape:connector-curvature="0"
         id="path1207"
         style="font-style:normal;font-weight:normal;font-size:160px;font-family:Arial;fill:#cc79a7;stroke:none"
         d="m 13.125,0 v -114.53125 h 77.265625 v 13.51562 H 28.28125 v 35.468755 h 53.75 v 13.515625 h -53.75 V 0 Z" />
    </g>
    <path
       id="path178"
       d="m 714.275,4942.79 -5.102,-8.84 119.298,-68.87 5.102,2.94 v 5.89 z"
       transform="matrix(0.0666667,0,0,0.0666667,-7.06646,-193.667)"
       inkscape:connector-curvature="0"
       style="fill:#000000;stroke:none" />
    <path
       id="path180"
       d="m 693.575,4906.94 -5.102,-8.84 101.149,-58.4 5.102,8.84 z"
       transform="matrix(0.0666667,0,0,0.0666667,-7.06646,-193.667)"
       inkscape:connector-curvature="0"
       style="fill:#000000;stroke:none" />
    <g
       id="text182"
       style="font-style:normal;font-weight:normal;font-size:160px;font-family:Arial;fill:#000000;stroke:none"
       transform="matrix(0.0666667,0,0,0.0666667,31.3744,142.735)"
       aria-label="N">
      <path
         inkscape:connector-curvature="0"
         id="path1210"
         style="font-style:normal;font-weight:normal;font-size:160px;font-family:Arial;fill:#000000;stroke:none"
         d="m 12.1875,0 v -114.53125 h 15.546875 l 60.15625,89.921875 V -114.53125 H 102.42188 V 0 H 86.875 L 26.71875,-90 V 0 Z" />
    </g>
    <path
       id="path184"
       d="m 833.573,4873.91 v -5.89 l 5.102,-2.94 126.317,72.93 -5.102,8.83 z"
       transform="matrix(0.0666667,0,0,0.0666667,-7.06646,-193.667)"
       inkscape:connector-curvature="0"
       style="fill:#cc79a7;stroke:none" />
    <g
       id="text186"
       style="font-style:normal;font-weight:normal;font-size:160px;font-family:Arial;fill:#cc79a7;stroke:none"
       transform="matrix(0.0666667,0,0,0.0666667,58.5263,142.735)"
       aria-label="F">
      <path
         inkscape:connector-curvature="0"
         id="path1213"
         style="font-style:normal;font-weight:normal;font-size:160px;font-family:Arial;fill:#cc79a7;stroke:none"
         d="m 13.125,0 v -114.53125 h 77.265625 v 13.51562 H 28.28125 v 35.468755 h 53.75 v 13.515625 h -53.75 V 0 Z" />
    </g>
  </g>
  <g
     id="g1441"
     transform="translate(0,-21.483265)">
    <g
       id="text188"
       style="font-style:normal;font-weight:normal;font-size:160px;font-family:Arial;fill:#cc79a7;stroke:none"
       transform="matrix(0.0666667,0,0,0.0666667,306.886,115.474)"
       aria-label="F">
      <path
         inkscape:connector-curvature="0"
         id="path1216"
         style="font-style:normal;font-weight:normal;font-size:160px;font-family:Arial;fill:#cc79a7;stroke:none"
         d="m 13.125,0 v -114.53125 h 77.265625 v 13.51562 H 28.28125 v 35.468755 h 53.75 v 13.515625 h -53.75 V 0 Z" />
    </g>
    <path
       id="path190"
       d="m 4650.62,4770.57 -6.97,1.86 v -10.2 l 61.08,-105.8 8.84,5.1 z"
       transform="matrix(0.0666667,0,0,0.0666667,-7.06646,-193.667)"
       inkscape:connector-curvature="0"
       style="fill:#cc79a7;stroke:none" />
    <g
       id="text192"
       style="font-style:normal;font-weight:normal;font-size:160px;font-family:Arial;fill:#000000;stroke:none"
       transform="matrix(0.0666667,0,0,0.0666667,285.437,136.329)"
       aria-label="N">
      <path
         inkscape:connector-curvature="0"
         id="path1219"
         style="font-style:normal;font-weight:normal;font-size:160px;font-family:Arial;fill:#000000;stroke:none"
         d="m 12.1875,0 v -114.53125 h 15.546875 l 60.15625,89.921875 V -114.53125 H 102.42188 V 0 H 86.875 L 26.71875,-90 V 0 Z" />
    </g>
    <g
       id="text194"
       style="font-style:normal;font-weight:normal;font-size:160px;font-family:Arial;fill:#000000;stroke:none"
       transform="matrix(0.0666667,0,0,0.0666667,285.437,146.996)"
       aria-label="H">
      <path
         inkscape:connector-curvature="0"
         id="path1222"
         style="font-style:normal;font-weight:normal;font-size:160px;font-family:Arial;fill:#000000;stroke:none"
         d="M 12.8125,0 V -114.53125 H 27.96875 V -67.5 H 87.5 v -47.03125 h 15.15625 V 0 H 87.5 V -53.984375 H 27.96875 V 0 Z" />
    </g>
    <path
       id="path196"
       d="m 4525.22,4846.7 -5.11,-8.84 116.57,-67.29 6.97,1.86 v 5.89 z"
       transform="matrix(0.0666667,0,0,0.0666667,-7.06646,-193.667)"
       inkscape:connector-curvature="0"
       style="fill:#000000;stroke:none" />
    <g
       id="text198"
       style="font-style:normal;font-weight:normal;font-size:160px;font-family:Arial;fill:#cc79a7;stroke:none"
       transform="matrix(0.0666667,0,0,0.0666667,291.619,115.474)"
       aria-label="F">
      <path
         inkscape:connector-curvature="0"
         id="path1225"
         style="font-style:normal;font-weight:normal;font-size:160px;font-family:Arial;fill:#cc79a7;stroke:none"
         d="m 13.125,0 v -114.53125 h 77.265625 v 13.51562 H 28.28125 v 35.468755 h 53.75 v 13.515625 h -53.75 V 0 Z" />
    </g>
    <path
       id="path200"
       d="m 4550.78,4621.78 8.83,-5.1 84.04,145.55 v 10.2 l -6.97,-1.86 z"
       transform="matrix(0.0666667,0,0,0.0666667,-7.06646,-193.667)"
       inkscape:connector-curvature="0"
       style="fill:#cc79a7;stroke:none" />
    <g
       id="text202"
       style="font-style:normal;font-weight:normal;font-size:160px;font-family:Arial;fill:#cc79a7;stroke:none"
       transform="matrix(0.0666667,0,0,0.0666667,272.81,128.696)"
       aria-label="F">
      <path
         inkscape:connector-curvature="0"
         id="path1228"
         style="font-style:normal;font-weight:normal;font-size:160px;font-family:Arial;fill:#cc79a7;stroke:none"
         d="m 13.125,0 v -114.53125 h 77.265625 v 13.51562 H 28.28125 v 35.468755 h 53.75 v 13.515625 h -53.75 V 0 Z" />
    </g>
    <path
       id="path204"
       d="m 4296.59,4806.95 5.1,-8.84 68.44,39.52 -5.1,8.83 z"
       transform="matrix(0.0666667,0,0,0.0666667,-7.06646,-193.667)"
       inkscape:connector-curvature="0"
       style="fill:#cc79a7;stroke:none" />
    <g
       id="text206"
       style="font-style:normal;font-weight:normal;font-size:160px;font-family:Arial;fill:#009e73;stroke:none"
       transform="matrix(0.0666667,0,0,0.0666667,311.88,136.329)"
       aria-label="N">
      <path
         inkscape:connector-curvature="0"
         id="path1231"
         style="font-style:normal;font-weight:normal;font-size:160px;font-family:Arial;fill:#009e73;stroke:none"
         d="m 12.1875,0 v -114.53125 h 15.546875 l 60.15625,89.921875 V -114.53125 H 102.42188 V 0 H 86.875 L 26.71875,-90 V 0 Z" />
    </g>
    <g
       id="text208"
       style="font-style:normal;font-weight:normal;font-size:120px;font-family:Arial;fill:#009e73;stroke:none"
       transform="matrix(0.0666667,0,0,0.0666667,319.583,138.596)"
       aria-label="3">
      <path
         inkscape:connector-curvature="0"
         id="path1234"
         style="font-style:normal;font-weight:normal;font-size:120px;font-family:Arial;fill:#009e73;stroke:none"
         d="m 5.0390625,-22.675781 10.5468755,-1.40625 q 1.816406,8.964843 6.152343,12.949218 4.394531,3.9257818 10.664063,3.9257818 7.441406,0 12.539062,-5.1562498 5.15625,-5.15625 5.15625,-12.773438 0,-7.265625 -4.746094,-11.953125 -4.746093,-4.746093 -12.070312,-4.746093 -2.988281,0 -7.441406,1.171875 l 1.171875,-9.257813 q 1.054687,0.117188 1.699218,0.117188 6.738282,0 12.128907,-3.515625 5.390625,-3.515625 5.390625,-10.839844 0,-5.800781 -3.925782,-9.609375 -3.925781,-3.808594 -10.136718,-3.808594 -6.152344,0 -10.253907,3.867188 -4.101562,3.867187 -5.273437,11.601562 l -10.546875,-1.875 Q 8.0273438,-74.589844 14.882813,-80.390625 21.738281,-86.25 31.933594,-86.25 q 7.03125,0 12.949218,3.046875 5.917969,2.988281 9.023438,8.203125 3.164062,5.214844 3.164062,11.074219 0,5.566406 -2.988281,10.136719 -2.988281,4.570312 -8.847656,7.265625 7.617187,1.757812 11.835937,7.324218 4.21875,5.507813 4.21875,13.828125 0,11.25 -8.203125,19.1015628 -8.203125,7.7929687 -20.742187,7.7929687 -11.308594,0 -18.808594,-6.7382812 Q 6.09375,-11.953125 5.0390625,-22.675781 Z" />
    </g>
    <path
       id="path210"
       d="m 4766.77,4837.63 -5.1,8.83 -118.02,-68.14 v -5.89 l 6.97,-1.86 z"
       transform="matrix(0.0666667,0,0,0.0666667,-7.06646,-193.667)"
       inkscape:connector-curvature="0"
       style="fill:#009e73;stroke:none" />
  </g>
  <path
     d="M 228.04632,106.80123 H 89.432255 v -0.66667 H 228.04632 Z"
     id="path212"
     inkscape:connector-curvature="0"
     style="fill:#000000;stroke:none;stroke-width:0.0666667" />
  <path
     d="m 233.93233,106.4679 c 0,0 -6.80334,1.76733 -6.80334,1.76733 0,0 0.85067,-0.994 0.85067,-1.76733 0,-0.802 -0.85067,-1.83401 -0.85067,-1.83401 0,0 6.80334,1.83401 6.80334,1.83401 0,0 0,0 0,0"
     id="path214"
     inkscape:connector-curvature="0"
     style="fill:#000000;stroke:none;stroke-width:0.0666667" />
  <path
     d="m 233.93233,106.4679 c 0,0 -6.80334,1.76733 -6.80334,1.76733 0,0 0.85067,-0.994 0.85067,-1.76733 0,-0.802 -0.85067,-1.83401 -0.85067,-1.83401 0,0 6.80334,1.83401 6.80334,1.83401 0,0 0,0 0,0"
     id="path216"
     inkscape:connector-curvature="0"
     style="fill:none;stroke:#000000;stroke-width:0.0666667" />
  <g
     aria-label="HN"
     transform="matrix(0.0666667,0,0,0.0666667,126.071,99.849735)"
     style="font-style:normal;font-weight:normal;font-size:160px;font-family:Arial;fill:#009e73;stroke:none"
     id="text218">
    <path
       d="M 12.8125,0 V -114.53125 H 27.96875 V -67.5 H 87.5 v -47.03125 h 15.15625 V 0 H 87.5 V -53.984375 H 27.96875 V 0 Z"
       style="font-style:normal;font-weight:normal;font-size:160px;font-family:Arial;fill:#009e73;stroke:none"
       id="path1237"
       inkscape:connector-curvature="0" />
    <path
       d="m 127.8125,0 v -114.53125 h 15.54687 l 60.15625,89.921875 v -89.921875 h 14.53125 V 0 H 202.5 L 142.34375,-90 V 0 Z"
       style="font-style:normal;font-weight:normal;font-size:160px;font-family:Arial;fill:#009e73;stroke:none"
       id="path1239"
       inkscape:connector-curvature="0" />
  </g>
  <g
     aria-label="3"
     transform="matrix(0.0666667,0,0,0.0666667,141.478,102.11673)"
     style="font-style:normal;font-weight:normal;font-size:120px;font-family:Arial;fill:#009e73;stroke:none"
     id="text220">
    <path
       d="m 5.0390625,-22.675781 10.5468755,-1.40625 q 1.816406,8.964843 6.152343,12.949218 4.394531,3.9257818 10.664063,3.9257818 7.441406,0 12.539062,-5.1562498 5.15625,-5.15625 5.15625,-12.773438 0,-7.265625 -4.746094,-11.953125 -4.746093,-4.746093 -12.070312,-4.746093 -2.988281,0 -7.441406,1.171875 l 1.171875,-9.257813 q 1.054687,0.117188 1.699218,0.117188 6.738282,0 12.128907,-3.515625 5.390625,-3.515625 5.390625,-10.839844 0,-5.800781 -3.925782,-9.609375 -3.925781,-3.808594 -10.136718,-3.808594 -6.152344,0 -10.253907,3.867188 -4.101562,3.867187 -5.273437,11.601562 l -10.546875,-1.875 Q 8.0273438,-74.589844 14.882813,-80.390625 21.738281,-86.25 31.933594,-86.25 q 7.03125,0 12.949218,3.046875 5.917969,2.988281 9.023438,8.203125 3.164062,5.214844 3.164062,11.074219 0,5.566406 -2.988281,10.136719 -2.988281,4.570312 -8.847656,7.265625 7.617187,1.757812 11.835937,7.324218 4.21875,5.507813 4.21875,13.828125 0,11.25 -8.203125,19.1015628 -8.203125,7.7929687 -20.742187,7.7929687 -11.308594,0 -18.808594,-6.7382812 Q 6.09375,-11.953125 5.0390625,-22.675781 Z"
       style="font-style:normal;font-weight:normal;font-size:120px;font-family:Arial;fill:#009e73;stroke:none"
       id="path1242"
       inkscape:connector-curvature="0" />
  </g>
  <g
     aria-label=","
     transform="matrix(0.0666667,0,0,0.0666667,145.927,99.849735)"
     style="font-style:normal;font-weight:normal;font-size:160px;font-family:Arial;fill:#000000;stroke:none"
     id="text222">
    <path
       d="M 14.21875,0 V -16.015625 H 30.234375 V 0 q 0,8.828125 -3.125,14.21875 -3.125,5.46875 -9.921875,8.4375 L 13.28125,16.640625 Q 17.734375,14.6875 19.84375,10.859375 21.953125,7.109375 22.1875,0 Z"
       style="font-style:normal;font-weight:normal;font-size:160px;font-family:Arial;fill:#000000;stroke:none"
       id="path1245"
       inkscape:connector-curvature="0" />
  </g>
  <g
     transform="matrix(0.0666667 0 0 0.0666667 148.89 121.333)"
     style="font-style:normal;font-weight:normal;font-size:160px;font-family:Arial;fill:#000000;stroke:none"
     id="text224" />
  <text
     x="151.854"
     y="99.849731"
     font-style="normal"
     font-weight="normal"
     font-size="160px"
     id="text226"
     style="font-style:normal;font-weight:normal;font-size:10.66667175px;font-family:Arial;fill:#000000;stroke:none;stroke-width:0.0666667">chinolina</text>
  <g
     aria-label="CCl"
     transform="matrix(0.0666667,0,0,0.0666667,126.022,120.84973)"
     style="font-style:normal;font-weight:normal;font-size:160px;font-family:Arial;fill:#000000;stroke:none"
     id="text228">
    <path
       d="m 94.0625,-40.15625 15.15625,3.828125 Q 104.45313,-17.65625 92.03125,-7.8125 79.6875,1.953125 61.796875,1.953125 q -18.515625,0 -30.15625,-7.5 -11.5625,-7.578125 -17.65625,-21.875 Q 7.96875,-41.71875 7.96875,-58.125 q 0,-17.890625 6.796875,-31.171875 6.875,-13.359375 19.453125,-20.234375 12.65625,-6.95313 27.8125,-6.95313 17.1875,0 28.90625,8.75 11.71875,8.750005 16.32813,24.60938 l -14.92188,3.515625 q -3.984375,-12.5 -11.5625,-18.203125 -7.578125,-5.70313 -19.0625,-5.70313 -13.203125,0 -22.109375,6.32813 -8.828125,6.328125 -12.421875,17.03125 -3.59375,10.625 -3.59375,21.953125 0,14.609375 4.21875,25.546875 4.296875,10.859375 13.28125,16.25 8.984375,5.390625 19.453125,5.390625 12.734375,0 21.5625,-7.34375 8.828125,-7.34375 11.953125,-21.796875 z"
       style="font-style:normal;font-weight:normal;font-size:160px;font-family:Arial;fill:#000000;stroke:none"
       id="path1249"
       inkscape:connector-curvature="0" />
    <path
       d="m 209.6875,-40.15625 15.15625,3.828125 q -4.76563,18.671875 -17.1875,28.515625 -12.34375,9.765625 -30.23438,9.765625 -18.51562,0 -30.15625,-7.5 -11.5625,-7.578125 -17.65625,-21.875 -6.01562,-14.296875 -6.01562,-30.703125 0,-17.890625 6.79687,-31.171875 6.875,-13.359375 19.45313,-20.234375 12.65625,-6.95313 27.8125,-6.95313 17.1875,0 28.90625,8.75 11.71875,8.750005 16.32812,24.60938 l -14.92187,3.515625 q -3.98438,-12.5 -11.5625,-18.203125 -7.57813,-5.70313 -19.0625,-5.70313 -13.20313,0 -22.10938,6.32813 -8.82812,6.328125 -12.42187,17.03125 -3.59375,10.625 -3.59375,21.953125 0,14.609375 4.21875,25.546875 4.29687,10.859375 13.28125,16.25 8.98437,5.390625 19.45312,5.390625 12.73438,0 21.5625,-7.34375 8.82813,-7.34375 11.95313,-21.796875 z"
       style="font-style:normal;font-weight:normal;font-size:160px;font-family:Arial;fill:#000000;stroke:none"
       id="path1251"
       inkscape:connector-curvature="0" />
    <path
       d="m 241.48437,0 v -114.53125 h 14.0625 V 0 Z"
       style="font-style:normal;font-weight:normal;font-size:160px;font-family:Arial;fill:#000000;stroke:none"
       id="path1253"
       inkscape:connector-curvature="0" />
  </g>
  <g
     aria-label="3"
     transform="matrix(0.0666667,0,0,0.0666667,143.798,123.11673)"
     style="font-style:normal;font-weight:normal;font-size:120px;font-family:Arial;fill:#000000;stroke:none"
     id="text230">
    <path
       d="m 5.0390625,-22.675781 10.5468755,-1.40625 q 1.816406,8.964843 6.152343,12.949218 4.394531,3.9257818 10.664063,3.9257818 7.441406,0 12.539062,-5.1562498 5.15625,-5.15625 5.15625,-12.773438 0,-7.265625 -4.746094,-11.953125 -4.746093,-4.746093 -12.070312,-4.746093 -2.988281,0 -7.441406,1.171875 l 1.171875,-9.257813 q 1.054687,0.117188 1.699218,0.117188 6.738282,0 12.128907,-3.515625 5.390625,-3.515625 5.390625,-10.839844 0,-5.800781 -3.925782,-9.609375 -3.925781,-3.808594 -10.136718,-3.808594 -6.152344,0 -10.253907,3.867188 -4.101562,3.867187 -5.273437,11.601562 l -10.546875,-1.875 Q 8.0273438,-74.589844 14.882813,-80.390625 21.738281,-86.25 31.933594,-86.25 q 7.03125,0 12.949218,3.046875 5.917969,2.988281 9.023438,8.203125 3.164062,5.214844 3.164062,11.074219 0,5.566406 -2.988281,10.136719 -2.988281,4.570312 -8.847656,7.265625 7.617187,1.757812 11.835937,7.324218 4.21875,5.507813 4.21875,13.828125 0,11.25 -8.203125,19.1015628 -8.203125,7.7929687 -20.742187,7.7929687 -11.308594,0 -18.808594,-6.7382812 Q 6.09375,-11.953125 5.0390625,-22.675781 Z"
       style="font-style:normal;font-weight:normal;font-size:120px;font-family:Arial;fill:#000000;stroke:none"
       id="path1256"
       inkscape:connector-curvature="0" />
  </g>
  <g
     aria-label="F"
     transform="matrix(0.0666667,0,0,0.0666667,148.247,120.84973)"
     style="font-style:normal;font-weight:normal;font-size:160px;font-family:Arial;fill:#000000;stroke:none"
     id="text232">
    <path
       d="m 13.125,0 v -114.53125 h 77.265625 v 13.51562 H 28.28125 v 35.468755 h 53.75 v 13.515625 h -53.75 V 0 Z"
       style="font-style:normal;font-weight:normal;font-size:160px;font-family:Arial;fill:#000000;stroke:none"
       id="path1259"
       inkscape:connector-curvature="0" />
  </g>
  <g
     aria-label=","
     transform="matrix(0.0666667,0,0,0.0666667,154.763,120.84973)"
     style="font-style:normal;font-weight:normal;font-size:160px;font-family:Arial;fill:#000000;stroke:none"
     id="text234">
    <path
       d="M 14.21875,0 V -16.015625 H 30.234375 V 0 q 0,8.828125 -3.125,14.21875 -3.125,5.46875 -9.921875,8.4375 L 13.28125,16.640625 Q 17.734375,14.6875 19.84375,10.859375 21.953125,7.109375 22.1875,0 Z"
       style="font-style:normal;font-weight:normal;font-size:160px;font-family:Arial;fill:#000000;stroke:none"
       id="path1262"
       inkscape:connector-curvature="0" />
  </g>
  <text
     x="160.69"
     y="120.84973"
     font-style="normal"
     font-weight="normal"
     font-size="160px"
     id="text236"
     style="font-style:normal;font-weight:normal;font-size:10.66667175px;font-family:Arial;fill:#000000;stroke:none;stroke-width:0.0666667">\SI{-111}{\degC}</text>
  <text
     xml:space="preserve"
     style="font-style:normal;font-weight:normal;font-size:10.66666698px;line-height:1.25;font-family:sans-serif;text-align:start;letter-spacing:0px;word-spacing:0px;text-anchor:start;fill:#000000;fill-opacity:1;stroke:none"
     x="51.309574"
     y="65.534988"
     id="text1267"><tspan
       sodipodi:role="line"
       id="tspan1265"
       x="51.309574"
       y="65.534988">\cmpd{imine-cf3}</tspan></text>
  <text
     xml:space="preserve"
     style="font-style:normal;font-weight:normal;font-size:10.66666698px;line-height:1.25;font-family:sans-serif;text-align:start;letter-spacing:0px;word-spacing:0px;text-anchor:start;fill:#000000;fill-opacity:1;stroke:none"
     x="230.03033"
     y="65.534988"
     id="text1271"><tspan
       sodipodi:role="line"
       id="tspan1269"
       x="230.03033"
       y="65.534988">\cmpd{amine-cf3-n3}</tspan></text>
  <text
     xml:space="preserve"
     style="font-style:normal;font-weight:normal;font-size:10.66666698px;line-height:1.25;font-family:sans-serif;text-align:start;letter-spacing:0px;word-spacing:0px;text-anchor:start;fill:#000000;fill-opacity:1;stroke:none"
     x="408.75134"
     y="65.534988"
     id="text1275"><tspan
       sodipodi:role="line"
       id="tspan1273"
       x="408.75134"
       y="65.534988">\cmpd{oxadiazole-2cf3}</tspan></text>
  <text
     xml:space="preserve"
     style="font-style:normal;font-weight:normal;font-size:10.66666698px;line-height:1.25;font-family:sans-serif;text-align:start;letter-spacing:0px;word-spacing:0px;text-anchor:start;fill:#000000;fill-opacity:1;stroke:none"
     x="49.199516"
     y="140.09108"
     id="text1279"><tspan
       sodipodi:role="line"
       id="tspan1277"
       x="49.199516"
       y="140.09108">\cmpd{amine-f}</tspan></text>
  <text
     xml:space="preserve"
     style="font-style:normal;font-weight:normal;font-size:10.66666698px;line-height:1.25;font-family:sans-serif;text-align:start;letter-spacing:0px;word-spacing:0px;text-anchor:start;fill:#000000;fill-opacity:1;stroke:none"
     x="303.3204"
     y="140.09108"
     id="text1283"><tspan
       sodipodi:role="line"
       id="tspan1281"
       x="303.3204"
       y="140.09108">\cmpd{amine-f-n3}</tspan></text>
  <text
     xml:space="preserve"
     style="font-style:normal;font-weight:normal;font-size:10.66666698px;line-height:1.25;font-family:sans-serif;text-align:start;letter-spacing:0px;word-spacing:0px;text-anchor:start;fill:#000000;fill-opacity:1;stroke:none"
     x="583.16632"
     y="65.534988"
     id="text1287"><tspan
       sodipodi:role="line"
       id="tspan1285"
       x="583.16632"
       y="65.534988">\cmpd{oxadiazole-cf3}</tspan></text>
</svg>
