<?xml version="1.0" encoding="UTF-8" standalone="no"?>
<svg
   xmlns:dc="http://purl.org/dc/elements/1.1/"
   xmlns:cc="http://creativecommons.org/ns#"
   xmlns:rdf="http://www.w3.org/1999/02/22-rdf-syntax-ns#"
   xmlns:svg="http://www.w3.org/2000/svg"
   xmlns="http://www.w3.org/2000/svg"
   xmlns:sodipodi="http://sodipodi.sourceforge.net/DTD/sodipodi-0.dtd"
   xmlns:inkscape="http://www.inkscape.org/namespaces/inkscape"
   width="411px"
   height="110px"
   viewBox="0 0 411 110"
   style="background-color: #ffffff00"
   version="1.1"
   id="svg208"
   sodipodi:docname="cp-nucleophile.svg"
   inkscape:version="0.92.4 (5da689c313, 2019-01-14)">
  <metadata
     id="metadata214">
    <rdf:RDF>
      <cc:Work
         rdf:about="">
        <dc:format>image/svg+xml</dc:format>
        <dc:type
           rdf:resource="http://purl.org/dc/dcmitype/StillImage" />
      </cc:Work>
    </rdf:RDF>
  </metadata>
  <defs
     id="defs212" />
  <sodipodi:namedview
     pagecolor="#ffffff"
     bordercolor="#666666"
     borderopacity="1"
     objecttolerance="10"
     gridtolerance="10"
     guidetolerance="10"
     inkscape:pageopacity="0"
     inkscape:pageshadow="2"
     inkscape:window-width="1920"
     inkscape:window-height="1017"
     id="namedview210"
     showgrid="false"
     inkscape:zoom="1.6690998"
     inkscape:cx="123.71887"
     inkscape:cy="70.432692"
     inkscape:window-x="-8"
     inkscape:window-y="-8"
     inkscape:window-maximized="1"
     inkscape:current-layer="svg208" />
  <path
     stroke="none"
     fill="#000000"
     transform="matrix(0.0666667 0 0 0.0666667 3.44441 -93.3333)"
     d="M 2314.21,2449.42 L 1516.58,2449.42 L 1516.58,2439.42 L 2314.21,2439.42 Z "
     id="path2" />
  <path
     stroke="none"
     fill="#000000"
     transform="matrix(0.0666667 0 0 0.0666667 3.44441 -93.3333)"
     d="M 2402.5,2444.42 C 2402.5,2444.42 2300.46,2470.93 2300.46,2470.93 C 2300.46,2470.93 2313.21,2456.02 2313.21,2444.42 C 2313.21,2432.38 2300.46,2416.91 2300.46,2416.91 C 2300.46,2416.91 2402.5,2444.42 2402.5,2444.42 C 2402.5,2444.42 2402.5,2444.42 2402.5,2444.42 "
     id="path4" />
  <path
     stroke="#000000"
     stroke-width="1"
     fill="none"
     transform="matrix(0.0666667 0 0 0.0666667 3.44441 -93.3333)"
     d="M 2402.5,2444.42 C 2402.5,2444.42 2300.46,2470.93 2300.46,2470.93 C 2300.46,2470.93 2313.21,2456.02 2313.21,2444.42 C 2313.21,2432.38 2300.46,2416.91 2300.46,2416.91 C 2300.46,2416.91 2402.5,2444.42 2402.5,2444.42 C 2402.5,2444.42 2402.5,2444.42 2402.5,2444.42 "
     id="path6" />
  <g
     aria-label="H"
     transform="matrix(0.0666667,0,0,0.0666667,56.4611,48.1276)"
     style="font-style:normal;font-weight:normal;font-size:160px;font-family:Arial;fill:#000000;stroke:none"
     id="text8">
    <path
       d="M 12.8125,0 V -114.53125 H 27.96875 V -67.5 H 87.5 v -47.03125 h 15.15625 V 0 H 87.5 V -53.984375 H 27.96875 V 0 Z"
       style="font-style:normal;font-weight:normal;font-size:160px;font-family:Arial;fill:#000000;stroke:none"
       id="path1177"
       inkscape:connector-curvature="0" />
  </g>
  <g
     aria-label="N"
     transform="matrix(0.0666667,0,0,0.0666667,56.4611,58.7942)"
     style="font-style:normal;font-weight:normal;font-size:160px;font-family:Arial;fill:#000000;stroke:none"
     id="text10">
    <path
       d="m 12.1875,0 v -114.53125 h 15.546875 l 60.15625,89.921875 V -114.53125 H 102.42188 V 0 H 86.875 L 26.71875,-90 V 0 Z"
       style="font-style:normal;font-weight:normal;font-size:160px;font-family:Arial;fill:#000000;stroke:none"
       id="path1174"
       inkscape:connector-curvature="0" />
  </g>
  <path
     stroke="none"
     fill="#000000"
     transform="matrix(0.0666667 0 0 0.0666667 3.44441 -93.3333)"
     d="M 658.096,2562.43 L 647.892,2568.32 L 647.892,2337.61 L 652.994,2334.4 L 658.096,2337.35 L 658.096,2562.43 Z "
     id="path12" />
  <path
     stroke="none"
     fill="#000000"
     transform="matrix(0.0666667 0 0 0.0666667 3.44441 -93.3333)"
     d="M 853.024,2674.97 L 853.024,2680.86 L 847.584,2683.61 L 647.892,2568.32 L 658.096,2562.43 L 853.024,2674.97 Z "
     id="path14" />
  <path
     stroke="none"
     fill="#000000"
     transform="matrix(0.0666667 0 0 0.0666667 3.44441 -93.3333)"
     d="M 1047.95,2562.43 L 1058.16,2568.32 L 858.463,2683.61 L 853.024,2680.86 L 853.024,2674.97 L 1047.95,2562.43 Z "
     id="path16" />
  <path
     stroke="none"
     fill="#000000"
     transform="matrix(0.0666667 0 0 0.0666667 3.44441 -93.3333)"
     d="M 1047.95,2337.35 L 1058.16,2331.46 L 1058.16,2568.32 L 1047.95,2562.43 L 1047.95,2337.35 Z "
     id="path18" />
  <path
     stroke="none"
     fill="#000000"
     transform="matrix(0.0666667 0 0 0.0666667 3.44441 -93.3333)"
     d="M 932.573,2270.73 L 937.675,2261.9 L 1058.16,2331.46 L 1047.95,2337.35 L 932.573,2270.73 Z "
     id="path20" />
  <path
     stroke="none"
     fill="#000000"
     transform="matrix(0.0666667 0 0 0.0666667 3.44441 -93.3333)"
     d="M 658.096,2337.35 L 652.994,2334.4 L 653.222,2328.38 L 767.962,2262.13 L 773.065,2270.97 L 658.096,2337.35 Z "
     id="path22" />
  <g
     aria-label="O"
     transform="matrix(0.0666667,0,0,0.0666667,82.8349,58.7942)"
     style="font-style:normal;font-weight:normal;font-size:160px;font-family:Arial;fill:#000000;stroke:none"
     id="text24">
    <path
       d="m 7.734375,-55.78125 q 0,-28.515625 15.3125,-44.60938 15.3125,-16.17187 39.53125,-16.17187 15.859375,0 28.59375,7.57812 12.734375,7.57813 19.375005,21.17188 6.71875,13.515625 6.71875,30.703125 0,17.421875 -7.03125,31.171875 -7.03125,13.75 -19.92188,20.859375 -12.890625,7.03125 -27.8125,7.03125 -16.171875,0 -28.90625,-7.8125 -12.734375,-7.8125 -19.296875,-21.328125 -6.5625,-13.515625 -6.5625,-28.59375 z m 15.625,0.234375 q 0,20.703125 11.09375,32.65625 11.171875,11.875 27.96875,11.875 17.109375,0 28.125,-12.03125 11.093755,-12.03125 11.093755,-34.140625 0,-13.984375 -4.76563,-24.375 -4.6875,-10.46875 -13.828125,-16.171875 -9.0625,-5.781255 -20.390625,-5.781255 -16.09375,0 -27.734375,11.093755 -11.5625,11.015625 -11.5625,36.875 z"
       style="font-style:normal;font-weight:normal;font-size:160px;font-family:Arial;fill:#000000;stroke:none"
       id="path1171"
       inkscape:connector-curvature="0" />
  </g>
  <path
     stroke="none"
     fill="#000000"
     transform="matrix(0.0666667 0 0 0.0666667 3.44441 -93.3333)"
     d="M 1165.89,2239.36 L 1170.99,2248.2 L 1034.82,2326.82 L 1029.71,2317.98 L 1165.89,2239.36 Z "
     id="path26" />
  <path
     stroke="none"
     fill="#000000"
     transform="matrix(0.0666667 0 0 0.0666667 3.44441 -93.3333)"
     d="M 1186.68,2275.36 L 1191.78,2284.2 L 1055.6,2362.82 L 1050.5,2353.99 L 1186.68,2275.36 Z "
     id="path28" />
  <g
     aria-label="OBn"
     transform="matrix(0.0666667,0,0,0.0666667,82.8349,89.5909)"
     style="font-style:normal;font-weight:normal;font-size:160px;font-family:Arial;fill:#000000;stroke:none"
     id="text30">
    <path
       d="m 7.734375,-55.78125 q 0,-28.515625 15.3125,-44.60938 15.3125,-16.17187 39.53125,-16.17187 15.859375,0 28.59375,7.57812 12.734375,7.57813 19.375005,21.17188 6.71875,13.515625 6.71875,30.703125 0,17.421875 -7.03125,31.171875 -7.03125,13.75 -19.92188,20.859375 -12.890625,7.03125 -27.8125,7.03125 -16.171875,0 -28.90625,-7.8125 -12.734375,-7.8125 -19.296875,-21.328125 -6.5625,-13.515625 -6.5625,-28.59375 z m 15.625,0.234375 q 0,20.703125 11.09375,32.65625 11.171875,11.875 27.96875,11.875 17.109375,0 28.125,-12.03125 11.093755,-12.03125 11.093755,-34.140625 0,-13.984375 -4.76563,-24.375 -4.6875,-10.46875 -13.828125,-16.171875 -9.0625,-5.781255 -20.390625,-5.781255 -16.09375,0 -27.734375,11.093755 -11.5625,11.015625 -11.5625,36.875 z"
       style="font-style:normal;font-weight:normal;font-size:160px;font-family:Arial;fill:#000000;stroke:none"
       id="path1164"
       inkscape:connector-curvature="0" />
    <path
       d="m 136.09375,0 v -114.53125 h 42.96875 q 13.125,0 21.01562,3.51562 7.96875,3.4375 12.42188,10.70313 4.53125,7.1875 4.53125,15.078125 0,7.34375 -3.98438,13.828125 -3.98437,6.484375 -12.03125,10.46875 10.39063,3.046875 15.9375,10.390625 5.625,7.34375 5.625,17.34375 0,8.046875 -3.4375,15 -3.35937,6.875 -8.35937,10.625 -5,3.75 -12.57813,5.703125 Q 190.70312,0 179.76562,0 Z M 151.25,-66.40625 h 24.76562 q 10.07813,0 14.45313,-1.328125 5.78125,-1.71875 8.67187,-5.703125 2.96875,-3.984375 2.96875,-10 0,-5.703125 -2.73437,-10 -2.73438,-4.375 -7.8125,-5.9375 -5.07813,-1.64063 -17.42188,-1.64063 H 151.25 Z m 0,52.890625 h 28.51562 q 7.34375,0 10.3125,-0.546875 5.23438,-0.9375 8.75,-3.125 3.51563,-2.1875 5.78125,-6.328125 2.26563,-4.21875 2.26563,-9.6875 0,-6.40625 -3.28125,-11.09375 -3.28125,-4.765625 -9.14063,-6.640625 -5.78125,-1.953125 -16.71875,-1.953125 H 151.25 Z"
       style="font-style:normal;font-weight:normal;font-size:160px;font-family:Arial;fill:#000000;stroke:none"
       id="path1166"
       inkscape:connector-curvature="0" />
    <path
       d="m 241.79687,0 v -82.96875 h 12.65625 v 11.796875 q 9.14063,-13.671875 26.40625,-13.671875 7.5,0 13.75,2.734375 6.32813,2.65625 9.45313,7.03125 3.125,4.375 4.375,10.390625 0.78125,3.90625 0.78125,13.671875 V 0 h -14.0625 v -50.46875 q 0,-8.59375 -1.64063,-12.8125 -1.64062,-4.296875 -5.85937,-6.796875 -4.14063,-2.578125 -9.76563,-2.578125 -8.98437,0 -15.54687,5.703125 -6.48438,5.703125 -6.48438,21.640625 V 0 Z"
       style="font-style:normal;font-weight:normal;font-size:160px;font-family:Arial;fill:#000000;stroke:none"
       id="path1168"
       inkscape:connector-curvature="0" />
  </g>
  <path
     stroke="none"
     fill="#000000"
     transform="matrix(0.0666667 0 0 0.0666667 3.44441 -93.3333)"
     d="M 1196.28,2620.58 L 1172.47,2661.82 L 1164.49,2655.23 L 1186.59,2616.96 L 1196.28,2620.58 Z "
     id="path32" />
  <path
     stroke="none"
     fill="#000000"
     transform="matrix(0.0666667 0 0 0.0666667 3.44441 -93.3333)"
     d="M 1148.3,2602.68 L 1132.98,2629.21 L 1125,2622.62 L 1138.6,2599.06 L 1148.3,2602.68 Z "
     id="path34" />
  <path
     stroke="none"
     fill="#000000"
     transform="matrix(0.0666667 0 0 0.0666667 3.44441 -93.3333)"
     d="M 1100.31,2584.78 L 1093.49,2596.59 L 1085.51,2590.01 L 1090.61,2581.17 L 1100.31,2584.78 Z "
     id="path36" />
  <g
     aria-label="BnO"
     transform="matrix(0.0666667,0,0,0.0666667,16.4467,89.5909)"
     style="font-style:normal;font-weight:normal;font-size:160px;font-family:Arial;fill:#000000;stroke:none"
     id="text38">
    <path
       d="M 11.71875,0 V -114.53125 H 54.6875 q 13.125,0 21.015625,3.51562 7.96875,3.4375 12.421875,10.70313 4.53125,7.1875 4.53125,15.078125 0,7.34375 -3.984375,13.828125 -3.984375,6.484375 -12.03125,10.46875 10.390625,3.046875 15.9375,10.390625 5.625,7.34375 5.625,17.34375 0,8.046875 -3.4375,15 -3.359375,6.875 -8.359375,10.625 -5,3.75 -12.578125,5.703125 Q 66.328125,0 55.390625,0 Z M 26.875,-66.40625 h 24.765625 q 10.078125,0 14.453125,-1.328125 5.78125,-1.71875 8.671875,-5.703125 2.96875,-3.984375 2.96875,-10 0,-5.703125 -2.734375,-10 -2.734375,-4.375 -7.8125,-5.9375 -5.078125,-1.64063 -17.421875,-1.64063 H 26.875 Z m 0,52.890625 h 28.515625 q 7.34375,0 10.3125,-0.546875 5.234375,-0.9375 8.75,-3.125 3.515625,-2.1875 5.78125,-6.328125 2.265625,-4.21875 2.265625,-9.6875 0,-6.40625 -3.28125,-11.09375 -3.28125,-4.765625 -9.140625,-6.640625 -5.78125,-1.953125 -16.71875,-1.953125 H 26.875 Z"
       style="font-style:normal;font-weight:normal;font-size:160px;font-family:Arial;fill:#000000;stroke:none"
       id="path1157"
       inkscape:connector-curvature="0" />
    <path
       d="m 117.42188,0 v -82.96875 h 12.65624 v 11.796875 q 9.14063,-13.671875 26.40625,-13.671875 7.5,0 13.75,2.734375 6.32813,2.65625 9.45313,7.03125 3.125,4.375 4.375,10.390625 0.78125,3.90625 0.78125,13.671875 V 0 h -14.0625 v -50.46875 q 0,-8.59375 -1.64063,-12.8125 -1.64062,-4.296875 -5.85937,-6.796875 -4.14063,-2.578125 -9.76563,-2.578125 -8.98437,0 -15.54687,5.703125 -6.48438,5.703125 -6.48438,21.640625 V 0 Z"
       style="font-style:normal;font-weight:normal;font-size:160px;font-family:Arial;fill:#000000;stroke:none"
       id="path1159"
       inkscape:connector-curvature="0" />
    <path
       d="m 203.67187,-55.78125 q 0,-28.515625 15.3125,-44.60938 15.3125,-16.17187 39.53125,-16.17187 15.85938,0 28.59375,7.57812 12.73438,7.57813 19.375,21.17188 6.71875,13.515625 6.71875,30.703125 0,17.421875 -7.03125,31.171875 -7.03125,13.75 -19.92187,20.859375 -12.89063,7.03125 -27.8125,7.03125 -16.17188,0 -28.90625,-7.8125 -12.73438,-7.8125 -19.29688,-21.328125 -6.5625,-13.515625 -6.5625,-28.59375 z m 15.625,0.234375 q 0,20.703125 11.09375,32.65625 11.17188,11.875 27.96875,11.875 17.10938,0 28.125,-12.03125 11.09375,-12.03125 11.09375,-34.140625 0,-13.984375 -4.76562,-24.375 -4.6875,-10.46875 -13.82813,-16.171875 -9.0625,-5.781255 -20.39062,-5.781255 -16.09375,0 -27.73438,11.093755 -11.5625,11.015625 -11.5625,36.875 z"
       style="font-style:normal;font-weight:normal;font-size:160px;font-family:Arial;fill:#000000;stroke:none"
       id="path1161"
       inkscape:connector-curvature="0" />
  </g>
  <path
     stroke="none"
     fill="#000000"
     transform="matrix(0.0666667 0 0 0.0666667 3.44441 -93.3333)"
     d="M 533.975,2661.59 L 510.164,2620.34 L 519.862,2616.73 L 541.951,2654.99 L 533.975,2661.59 Z "
     id="path40" />
  <path
     stroke="none"
     fill="#000000"
     transform="matrix(0.0666667 0 0 0.0666667 3.44441 -93.3333)"
     d="M 573.321,2629.06 L 558.004,2602.53 L 567.702,2598.92 L 581.298,2622.47 L 573.321,2629.06 Z "
     id="path42" />
  <path
     stroke="none"
     fill="#000000"
     transform="matrix(0.0666667 0 0 0.0666667 3.44441 -93.3333)"
     d="M 612.668,2596.54 L 605.844,2584.72 L 615.542,2581.11 L 620.645,2589.94 L 612.668,2596.54 Z "
     id="path44" />
  <path
     stroke="none"
     fill="#000000"
     transform="matrix(0.0666667 0 0 0.0666667 3.44441 -93.3333)"
     d="M 433.587,2235.99 L 471.064,2202.57 L 653.222,2328.38 L 652.994,2334.4 L 647.892,2337.61 L 433.587,2235.99 Z "
     id="path46" />
  <g
     aria-label="OBn"
     transform="matrix(0.0666667,0,0,0.0666667,56.1642,104.989)"
     style="font-style:normal;font-weight:normal;font-size:160px;font-family:Arial;fill:#000000;stroke:none"
     id="text48">
    <path
       d="m 7.734375,-55.78125 q 0,-28.515625 15.3125,-44.60938 15.3125,-16.17187 39.53125,-16.17187 15.859375,0 28.59375,7.57812 12.734375,7.57813 19.375005,21.17188 6.71875,13.515625 6.71875,30.703125 0,17.421875 -7.03125,31.171875 -7.03125,13.75 -19.92188,20.859375 -12.890625,7.03125 -27.8125,7.03125 -16.171875,0 -28.90625,-7.8125 -12.734375,-7.8125 -19.296875,-21.328125 -6.5625,-13.515625 -6.5625,-28.59375 z m 15.625,0.234375 q 0,20.703125 11.09375,32.65625 11.171875,11.875 27.96875,11.875 17.109375,0 28.125,-12.03125 11.093755,-12.03125 11.093755,-34.140625 0,-13.984375 -4.76563,-24.375 -4.6875,-10.46875 -13.828125,-16.171875 -9.0625,-5.781255 -20.390625,-5.781255 -16.09375,0 -27.734375,11.093755 -11.5625,11.015625 -11.5625,36.875 z"
       style="font-style:normal;font-weight:normal;font-size:160px;font-family:Arial;fill:#000000;stroke:none"
       id="path1150"
       inkscape:connector-curvature="0" />
    <path
       d="m 136.09375,0 v -114.53125 h 42.96875 q 13.125,0 21.01562,3.51562 7.96875,3.4375 12.42188,10.70313 4.53125,7.1875 4.53125,15.078125 0,7.34375 -3.98438,13.828125 -3.98437,6.484375 -12.03125,10.46875 10.39063,3.046875 15.9375,10.390625 5.625,7.34375 5.625,17.34375 0,8.046875 -3.4375,15 -3.35937,6.875 -8.35937,10.625 -5,3.75 -12.57813,5.703125 Q 190.70312,0 179.76562,0 Z M 151.25,-66.40625 h 24.76562 q 10.07813,0 14.45313,-1.328125 5.78125,-1.71875 8.67187,-5.703125 2.96875,-3.984375 2.96875,-10 0,-5.703125 -2.73437,-10 -2.73438,-4.375 -7.8125,-5.9375 -5.07813,-1.64063 -17.42188,-1.64063 H 151.25 Z m 0,52.890625 h 28.51562 q 7.34375,0 10.3125,-0.546875 5.23438,-0.9375 8.75,-3.125 3.51563,-2.1875 5.78125,-6.328125 2.26563,-4.21875 2.26563,-9.6875 0,-6.40625 -3.28125,-11.09375 -3.28125,-4.765625 -9.14063,-6.640625 -5.78125,-1.953125 -16.71875,-1.953125 H 151.25 Z"
       style="font-style:normal;font-weight:normal;font-size:160px;font-family:Arial;fill:#000000;stroke:none"
       id="path1152"
       inkscape:connector-curvature="0" />
    <path
       d="m 241.79687,0 v -82.96875 h 12.65625 v 11.796875 q 9.14063,-13.671875 26.40625,-13.671875 7.5,0 13.75,2.734375 6.32813,2.65625 9.45313,7.03125 3.125,4.375 4.375,10.390625 0.78125,3.90625 0.78125,13.671875 V 0 h -14.0625 v -50.46875 q 0,-8.59375 -1.64063,-12.8125 -1.64062,-4.296875 -5.85937,-6.796875 -4.14063,-2.578125 -9.76563,-2.578125 -8.98437,0 -15.54687,5.703125 -6.48438,5.703125 -6.48438,21.640625 V 0 Z"
       style="font-style:normal;font-weight:normal;font-size:160px;font-family:Arial;fill:#000000;stroke:none"
       id="path1154"
       inkscape:connector-curvature="0" />
  </g>
  <path
     stroke="none"
     fill="#000000"
     transform="matrix(0.0666667 0 0 0.0666667 3.44441 -93.3333)"
     d="M 876.834,2833.5 L 829.213,2833.5 L 847.584,2683.61 L 853.024,2680.86 L 858.463,2683.61 L 876.834,2833.5 Z "
     id="path50" />
  <g
     aria-label="BnO"
     transform="matrix(0.0666667,0,0,0.0666667,3.11132,66.4934)"
     style="font-style:normal;font-weight:normal;font-size:160px;font-family:Arial;fill:#000000;stroke:none"
     id="text52">
    <path
       d="M 11.71875,0 V -114.53125 H 54.6875 q 13.125,0 21.015625,3.51562 7.96875,3.4375 12.421875,10.70313 4.53125,7.1875 4.53125,15.078125 0,7.34375 -3.984375,13.828125 -3.984375,6.484375 -12.03125,10.46875 10.390625,3.046875 15.9375,10.390625 5.625,7.34375 5.625,17.34375 0,8.046875 -3.4375,15 -3.359375,6.875 -8.359375,10.625 -5,3.75 -12.578125,5.703125 Q 66.328125,0 55.390625,0 Z M 26.875,-66.40625 h 24.765625 q 10.078125,0 14.453125,-1.328125 5.78125,-1.71875 8.671875,-5.703125 2.96875,-3.984375 2.96875,-10 0,-5.703125 -2.734375,-10 -2.734375,-4.375 -7.8125,-5.9375 -5.078125,-1.64063 -17.421875,-1.64063 H 26.875 Z m 0,52.890625 h 28.515625 q 7.34375,0 10.3125,-0.546875 5.234375,-0.9375 8.75,-3.125 3.515625,-2.1875 5.78125,-6.328125 2.265625,-4.21875 2.265625,-9.6875 0,-6.40625 -3.28125,-11.09375 -3.28125,-4.765625 -9.140625,-6.640625 -5.78125,-1.953125 -16.71875,-1.953125 H 26.875 Z"
       style="font-style:normal;font-weight:normal;font-size:160px;font-family:Arial;fill:#000000;stroke:none"
       id="path1143"
       inkscape:connector-curvature="0" />
    <path
       d="m 117.42188,0 v -82.96875 h 12.65624 v 11.796875 q 9.14063,-13.671875 26.40625,-13.671875 7.5,0 13.75,2.734375 6.32813,2.65625 9.45313,7.03125 3.125,4.375 4.375,10.390625 0.78125,3.90625 0.78125,13.671875 V 0 h -14.0625 v -50.46875 q 0,-8.59375 -1.64063,-12.8125 -1.64062,-4.296875 -5.85937,-6.796875 -4.14063,-2.578125 -9.76563,-2.578125 -8.98437,0 -15.54687,5.703125 -6.48438,5.703125 -6.48438,21.640625 V 0 Z"
       style="font-style:normal;font-weight:normal;font-size:160px;font-family:Arial;fill:#000000;stroke:none"
       id="path1145"
       inkscape:connector-curvature="0" />
    <path
       d="m 203.67187,-55.78125 q 0,-28.515625 15.3125,-44.60938 15.3125,-16.17187 39.53125,-16.17187 15.85938,0 28.59375,7.57812 12.73438,7.57813 19.375,21.17188 6.71875,13.515625 6.71875,30.703125 0,17.421875 -7.03125,31.171875 -7.03125,13.75 -19.92187,20.859375 -12.89063,7.03125 -27.8125,7.03125 -16.17188,0 -28.90625,-7.8125 -12.73438,-7.8125 -19.29688,-21.328125 -6.5625,-13.515625 -6.5625,-28.59375 z m 15.625,0.234375 q 0,20.703125 11.09375,32.65625 11.17188,11.875 27.96875,11.875 17.10938,0 28.125,-12.03125 11.09375,-12.03125 11.09375,-34.140625 0,-13.984375 -4.76562,-24.375 -4.6875,-10.46875 -13.82813,-16.171875 -9.0625,-5.781255 -20.39062,-5.781255 -16.09375,0 -27.73438,11.093755 -11.5625,11.015625 -11.5625,36.875 z"
       style="font-style:normal;font-weight:normal;font-size:160px;font-family:Arial;fill:#000000;stroke:none"
       id="path1147"
       inkscape:connector-curvature="0" />
  </g>
  <path
     stroke="none"
     fill="#000000"
     transform="matrix(0.0666667 0 0 0.0666667 3.44441 -93.3333)"
     d="M 324.59,2298.92 L 319.488,2290.08 L 471.064,2202.57 L 433.587,2235.99 L 324.59,2298.92 Z "
     id="path54" />
  <g
     aria-label="H"
     transform="matrix(0.0666667,0,0,0.0666667,226.551,48.4225)"
     style="font-style:normal;font-weight:normal;font-size:160px;font-family:Arial;fill:#000000;stroke:none"
     id="text56">
    <path
       d="M 12.8125,0 V -114.53125 H 27.96875 V -67.5 H 87.5 v -47.03125 h 15.15625 V 0 H 87.5 V -53.984375 H 27.96875 V 0 Z"
       style="font-style:normal;font-weight:normal;font-size:160px;font-family:Arial;fill:#000000;stroke:none"
       id="path1140"
       inkscape:connector-curvature="0" />
  </g>
  <g
     aria-label="N"
     transform="matrix(0.0666667,0,0,0.0666667,226.551,59.0892)"
     style="font-style:normal;font-weight:normal;font-size:160px;font-family:Arial;fill:#000000;stroke:none"
     id="text58">
    <path
       d="m 12.1875,0 v -114.53125 h 15.546875 l 60.15625,89.921875 V -114.53125 H 102.42188 V 0 H 86.875 L 26.71875,-90 V 0 Z"
       style="font-style:normal;font-weight:normal;font-size:160px;font-family:Arial;fill:#000000;stroke:none"
       id="path1137"
       inkscape:connector-curvature="0" />
  </g>
  <path
     stroke="none"
     fill="#000000"
     transform="matrix(0.0666667 0 0 0.0666667 3.44441 -93.3333)"
     d="M 3211.16,2563.89 L 3200.95,2569.78 L 3200.95,2341.05 L 3206.05,2337.84 L 3211.16,2340.78 L 3211.16,2563.89 Z "
     id="path60" />
  <path
     stroke="none"
     fill="#000000"
     transform="matrix(0.0666667 0 0 0.0666667 3.44441 -93.3333)"
     d="M 3404.37,2675.45 L 3404.37,2681.34 L 3398.92,2684.08 L 3200.95,2569.78 L 3211.16,2563.89 L 3404.37,2675.45 Z "
     id="path62" />
  <path
     stroke="none"
     fill="#000000"
     transform="matrix(0.0666667 0 0 0.0666667 3.44441 -93.3333)"
     d="M 3597.59,2563.89 L 3607.8,2569.78 L 3409.8,2684.09 L 3404.37,2681.34 L 3404.37,2675.45 L 3597.59,2563.89 Z "
     id="path64" />
  <path
     stroke="none"
     fill="#000000"
     transform="matrix(0.0666667 0 0 0.0666667 3.44441 -93.3333)"
     d="M 3597.59,2340.78 L 3607.8,2334.89 L 3607.8,2569.78 L 3597.59,2563.89 L 3597.59,2340.78 Z "
     id="path66" />
  <path
     stroke="none"
     fill="#000000"
     transform="matrix(0.0666667 0 0 0.0666667 3.44441 -93.3333)"
     d="M 3483.92,2275.16 L 3489.03,2266.32 L 3607.8,2334.89 L 3597.59,2340.78 L 3483.92,2275.16 Z "
     id="path68" />
  <path
     stroke="none"
     fill="#000000"
     transform="matrix(0.0666667 0 0 0.0666667 3.44441 -93.3333)"
     d="M 3211.16,2340.78 L 3206.05,2337.84 L 3206.28,2331.81 L 3319.31,2266.56 L 3324.42,2275.39 L 3211.16,2340.78 Z "
     id="path70" />
  <g
     aria-label="OBn"
     transform="matrix(0.0666667,0,0,0.0666667,252.755,89.6559)"
     style="font-style:normal;font-weight:normal;font-size:160px;font-family:Arial;fill:#000000;stroke:none"
     id="text72">
    <path
       d="m 7.734375,-55.78125 q 0,-28.515625 15.3125,-44.60938 15.3125,-16.17187 39.53125,-16.17187 15.859375,0 28.59375,7.57812 12.734375,7.57813 19.375005,21.17188 6.71875,13.515625 6.71875,30.703125 0,17.421875 -7.03125,31.171875 -7.03125,13.75 -19.92188,20.859375 -12.890625,7.03125 -27.8125,7.03125 -16.171875,0 -28.90625,-7.8125 -12.734375,-7.8125 -19.296875,-21.328125 -6.5625,-13.515625 -6.5625,-28.59375 z m 15.625,0.234375 q 0,20.703125 11.09375,32.65625 11.171875,11.875 27.96875,11.875 17.109375,0 28.125,-12.03125 11.093755,-12.03125 11.093755,-34.140625 0,-13.984375 -4.76563,-24.375 -4.6875,-10.46875 -13.828125,-16.171875 -9.0625,-5.781255 -20.390625,-5.781255 -16.09375,0 -27.734375,11.093755 -11.5625,11.015625 -11.5625,36.875 z"
       style="font-style:normal;font-weight:normal;font-size:160px;font-family:Arial;fill:#000000;stroke:none"
       id="path1130"
       inkscape:connector-curvature="0" />
    <path
       d="m 136.09375,0 v -114.53125 h 42.96875 q 13.125,0 21.01562,3.51562 7.96875,3.4375 12.42188,10.70313 4.53125,7.1875 4.53125,15.078125 0,7.34375 -3.98438,13.828125 -3.98437,6.484375 -12.03125,10.46875 10.39063,3.046875 15.9375,10.390625 5.625,7.34375 5.625,17.34375 0,8.046875 -3.4375,15 -3.35937,6.875 -8.35937,10.625 -5,3.75 -12.57813,5.703125 Q 190.70312,0 179.76562,0 Z M 151.25,-66.40625 h 24.76562 q 10.07813,0 14.45313,-1.328125 5.78125,-1.71875 8.67187,-5.703125 2.96875,-3.984375 2.96875,-10 0,-5.703125 -2.73437,-10 -2.73438,-4.375 -7.8125,-5.9375 -5.07813,-1.64063 -17.42188,-1.64063 H 151.25 Z m 0,52.890625 h 28.51562 q 7.34375,0 10.3125,-0.546875 5.23438,-0.9375 8.75,-3.125 3.51563,-2.1875 5.78125,-6.328125 2.26563,-4.21875 2.26563,-9.6875 0,-6.40625 -3.28125,-11.09375 -3.28125,-4.765625 -9.14063,-6.640625 -5.78125,-1.953125 -16.71875,-1.953125 H 151.25 Z"
       style="font-style:normal;font-weight:normal;font-size:160px;font-family:Arial;fill:#000000;stroke:none"
       id="path1132"
       inkscape:connector-curvature="0" />
    <path
       d="m 241.79687,0 v -82.96875 h 12.65625 v 11.796875 q 9.14063,-13.671875 26.40625,-13.671875 7.5,0 13.75,2.734375 6.32813,2.65625 9.45313,7.03125 3.125,4.375 4.375,10.390625 0.78125,3.90625 0.78125,13.671875 V 0 h -14.0625 v -50.46875 q 0,-8.59375 -1.64063,-12.8125 -1.64062,-4.296875 -5.85937,-6.796875 -4.14063,-2.578125 -9.76563,-2.578125 -8.98437,0 -15.54687,5.703125 -6.48438,5.703125 -6.48438,21.640625 V 0 Z"
       style="font-style:normal;font-weight:normal;font-size:160px;font-family:Arial;fill:#000000;stroke:none"
       id="path1134"
       inkscape:connector-curvature="0" />
  </g>
  <path
     stroke="none"
     fill="#000000"
     transform="matrix(0.0666667 0 0 0.0666667 3.44441 -93.3333)"
     d="M 3745.08,2621.55 L 3721.27,2662.79 L 3713.3,2656.19 L 3735.38,2617.95 L 3745.08,2621.55 Z "
     id="path74" />
  <path
     stroke="none"
     fill="#000000"
     transform="matrix(0.0666667 0 0 0.0666667 3.44441 -93.3333)"
     d="M 3697.52,2603.89 L 3682.2,2630.43 L 3674.23,2623.83 L 3687.82,2600.29 L 3697.52,2603.89 Z "
     id="path76" />
  <path
     stroke="none"
     fill="#000000"
     transform="matrix(0.0666667 0 0 0.0666667 3.44441 -93.3333)"
     d="M 3649.96,2586.24 L 3643.13,2598.07 L 3635.16,2591.47 L 3640.26,2582.63 L 3649.96,2586.24 Z "
     id="path78" />
  <g
     aria-label="BnO"
     transform="matrix(0.0666667,0,0,0.0666667,186.678,89.6061)"
     style="font-style:normal;font-weight:normal;font-size:160px;font-family:Arial;fill:#000000;stroke:none"
     id="text80">
    <path
       d="M 11.71875,0 V -114.53125 H 54.6875 q 13.125,0 21.015625,3.51562 7.96875,3.4375 12.421875,10.70313 4.53125,7.1875 4.53125,15.078125 0,7.34375 -3.984375,13.828125 -3.984375,6.484375 -12.03125,10.46875 10.390625,3.046875 15.9375,10.390625 5.625,7.34375 5.625,17.34375 0,8.046875 -3.4375,15 -3.359375,6.875 -8.359375,10.625 -5,3.75 -12.578125,5.703125 Q 66.328125,0 55.390625,0 Z M 26.875,-66.40625 h 24.765625 q 10.078125,0 14.453125,-1.328125 5.78125,-1.71875 8.671875,-5.703125 2.96875,-3.984375 2.96875,-10 0,-5.703125 -2.734375,-10 -2.734375,-4.375 -7.8125,-5.9375 -5.078125,-1.64063 -17.421875,-1.64063 H 26.875 Z m 0,52.890625 h 28.515625 q 7.34375,0 10.3125,-0.546875 5.234375,-0.9375 8.75,-3.125 3.515625,-2.1875 5.78125,-6.328125 2.265625,-4.21875 2.265625,-9.6875 0,-6.40625 -3.28125,-11.09375 -3.28125,-4.765625 -9.140625,-6.640625 -5.78125,-1.953125 -16.71875,-1.953125 H 26.875 Z"
       style="font-style:normal;font-weight:normal;font-size:160px;font-family:Arial;fill:#000000;stroke:none"
       id="path1123"
       inkscape:connector-curvature="0" />
    <path
       d="m 117.42188,0 v -82.96875 h 12.65624 v 11.796875 q 9.14063,-13.671875 26.40625,-13.671875 7.5,0 13.75,2.734375 6.32813,2.65625 9.45313,7.03125 3.125,4.375 4.375,10.390625 0.78125,3.90625 0.78125,13.671875 V 0 h -14.0625 v -50.46875 q 0,-8.59375 -1.64063,-12.8125 -1.64062,-4.296875 -5.85937,-6.796875 -4.14063,-2.578125 -9.76563,-2.578125 -8.98437,0 -15.54687,5.703125 -6.48438,5.703125 -6.48438,21.640625 V 0 Z"
       style="font-style:normal;font-weight:normal;font-size:160px;font-family:Arial;fill:#000000;stroke:none"
       id="path1125"
       inkscape:connector-curvature="0" />
    <path
       d="m 203.67187,-55.78125 q 0,-28.515625 15.3125,-44.60938 15.3125,-16.17187 39.53125,-16.17187 15.85938,0 28.59375,7.57812 12.73438,7.57813 19.375,21.17188 6.71875,13.515625 6.71875,30.703125 0,17.421875 -7.03125,31.171875 -7.03125,13.75 -19.92187,20.859375 -12.89063,7.03125 -27.8125,7.03125 -16.17188,0 -28.90625,-7.8125 -12.73438,-7.8125 -19.29688,-21.328125 -6.5625,-13.515625 -6.5625,-28.59375 z m 15.625,0.234375 q 0,20.703125 11.09375,32.65625 11.17188,11.875 27.96875,11.875 17.10938,0 28.125,-12.03125 11.09375,-12.03125 11.09375,-34.140625 0,-13.984375 -4.76562,-24.375 -4.6875,-10.46875 -13.82813,-16.171875 -9.0625,-5.781255 -20.39062,-5.781255 -16.09375,0 -27.73438,11.093755 -11.5625,11.015625 -11.5625,36.875 z"
       style="font-style:normal;font-weight:normal;font-size:160px;font-family:Arial;fill:#000000;stroke:none"
       id="path1127"
       inkscape:connector-curvature="0" />
  </g>
  <path
     stroke="none"
     fill="#000000"
     transform="matrix(0.0666667 0 0 0.0666667 3.44441 -93.3333)"
     d="M 3087.53,2662.11 L 3063.88,2620.78 L 3073.59,2617.22 L 3095.53,2655.54 L 3087.53,2662.11 Z "
     id="path82" />
  <path
     stroke="none"
     fill="#000000"
     transform="matrix(0.0666667 0 0 0.0666667 3.44441 -93.3333)"
     d="M 3126.57,2629.99 L 3111.35,2603.39 L 3121.07,2599.83 L 3134.57,2623.41 L 3126.57,2629.99 Z "
     id="path84" />
  <path
     stroke="none"
     fill="#000000"
     transform="matrix(0.0666667 0 0 0.0666667 3.44441 -93.3333)"
     d="M 3165.62,2597.86 L 3158.82,2585.99 L 3168.54,2582.43 L 3173.61,2591.29 L 3165.62,2597.86 Z "
     id="path86" />
  <path
     stroke="none"
     fill="#000000"
     transform="matrix(0.0666667 0 0 0.0666667 3.44441 -93.3333)"
     d="M 2987.49,2239.92 L 3024.97,2206.5 L 3206.28,2331.81 L 3206.05,2337.84 L 3200.95,2341.05 L 2987.49,2239.92 Z "
     id="path88" />
  <g
     aria-label="OBn"
     transform="matrix(0.0666667,0,0,0.0666667,226.197,104.956)"
     style="font-style:normal;font-weight:normal;font-size:160px;font-family:Arial;fill:#000000;stroke:none"
     id="text90">
    <path
       d="m 7.734375,-55.78125 q 0,-28.515625 15.3125,-44.60938 15.3125,-16.17187 39.53125,-16.17187 15.859375,0 28.59375,7.57812 12.734375,7.57813 19.375005,21.17188 6.71875,13.515625 6.71875,30.703125 0,17.421875 -7.03125,31.171875 -7.03125,13.75 -19.92188,20.859375 -12.890625,7.03125 -27.8125,7.03125 -16.171875,0 -28.90625,-7.8125 -12.734375,-7.8125 -19.296875,-21.328125 -6.5625,-13.515625 -6.5625,-28.59375 z m 15.625,0.234375 q 0,20.703125 11.09375,32.65625 11.171875,11.875 27.96875,11.875 17.109375,0 28.125,-12.03125 11.093755,-12.03125 11.093755,-34.140625 0,-13.984375 -4.76563,-24.375 -4.6875,-10.46875 -13.828125,-16.171875 -9.0625,-5.781255 -20.390625,-5.781255 -16.09375,0 -27.734375,11.093755 -11.5625,11.015625 -11.5625,36.875 z"
       style="font-style:normal;font-weight:normal;font-size:160px;font-family:Arial;fill:#000000;stroke:none"
       id="path1116"
       inkscape:connector-curvature="0" />
    <path
       d="m 136.09375,0 v -114.53125 h 42.96875 q 13.125,0 21.01562,3.51562 7.96875,3.4375 12.42188,10.70313 4.53125,7.1875 4.53125,15.078125 0,7.34375 -3.98438,13.828125 -3.98437,6.484375 -12.03125,10.46875 10.39063,3.046875 15.9375,10.390625 5.625,7.34375 5.625,17.34375 0,8.046875 -3.4375,15 -3.35937,6.875 -8.35937,10.625 -5,3.75 -12.57813,5.703125 Q 190.70312,0 179.76562,0 Z M 151.25,-66.40625 h 24.76562 q 10.07813,0 14.45313,-1.328125 5.78125,-1.71875 8.67187,-5.703125 2.96875,-3.984375 2.96875,-10 0,-5.703125 -2.73437,-10 -2.73438,-4.375 -7.8125,-5.9375 -5.07813,-1.64063 -17.42188,-1.64063 H 151.25 Z m 0,52.890625 h 28.51562 q 7.34375,0 10.3125,-0.546875 5.23438,-0.9375 8.75,-3.125 3.51563,-2.1875 5.78125,-6.328125 2.26563,-4.21875 2.26563,-9.6875 0,-6.40625 -3.28125,-11.09375 -3.28125,-4.765625 -9.14063,-6.640625 -5.78125,-1.953125 -16.71875,-1.953125 H 151.25 Z"
       style="font-style:normal;font-weight:normal;font-size:160px;font-family:Arial;fill:#000000;stroke:none"
       id="path1118"
       inkscape:connector-curvature="0" />
    <path
       d="m 241.79687,0 v -82.96875 h 12.65625 v 11.796875 q 9.14063,-13.671875 26.40625,-13.671875 7.5,0 13.75,2.734375 6.32813,2.65625 9.45313,7.03125 3.125,4.375 4.375,10.390625 0.78125,3.90625 0.78125,13.671875 V 0 h -14.0625 v -50.46875 q 0,-8.59375 -1.64063,-12.8125 -1.64062,-4.296875 -5.85937,-6.796875 -4.14063,-2.578125 -9.76563,-2.578125 -8.98437,0 -15.54687,5.703125 -6.48438,5.703125 -6.48438,21.640625 V 0 Z"
       style="font-style:normal;font-weight:normal;font-size:160px;font-family:Arial;fill:#000000;stroke:none"
       id="path1120"
       inkscape:connector-curvature="0" />
  </g>
  <path
     stroke="none"
     fill="#000000"
     transform="matrix(0.0666667 0 0 0.0666667 3.44441 -93.3333)"
     d="M 3427.62,2833.09 L 3379.99,2832.91 L 3398.92,2684.08 L 3404.37,2681.34 L 3409.8,2684.09 L 3427.62,2833.09 Z "
     id="path92" />
  <g
     aria-label="BnO"
     transform="matrix(0.0666667,0,0,0.0666667,173.428,66.7225)"
     style="font-style:normal;font-weight:normal;font-size:160px;font-family:Arial;fill:#000000;stroke:none"
     id="text94">
    <path
       d="M 11.71875,0 V -114.53125 H 54.6875 q 13.125,0 21.015625,3.51562 7.96875,3.4375 12.421875,10.70313 4.53125,7.1875 4.53125,15.078125 0,7.34375 -3.984375,13.828125 -3.984375,6.484375 -12.03125,10.46875 10.390625,3.046875 15.9375,10.390625 5.625,7.34375 5.625,17.34375 0,8.046875 -3.4375,15 -3.359375,6.875 -8.359375,10.625 -5,3.75 -12.578125,5.703125 Q 66.328125,0 55.390625,0 Z M 26.875,-66.40625 h 24.765625 q 10.078125,0 14.453125,-1.328125 5.78125,-1.71875 8.671875,-5.703125 2.96875,-3.984375 2.96875,-10 0,-5.703125 -2.734375,-10 -2.734375,-4.375 -7.8125,-5.9375 -5.078125,-1.64063 -17.421875,-1.64063 H 26.875 Z m 0,52.890625 h 28.515625 q 7.34375,0 10.3125,-0.546875 5.234375,-0.9375 8.75,-3.125 3.515625,-2.1875 5.78125,-6.328125 2.265625,-4.21875 2.265625,-9.6875 0,-6.40625 -3.28125,-11.09375 -3.28125,-4.765625 -9.140625,-6.640625 -5.78125,-1.953125 -16.71875,-1.953125 H 26.875 Z"
       style="font-style:normal;font-weight:normal;font-size:160px;font-family:Arial;fill:#000000;stroke:none"
       id="path1109"
       inkscape:connector-curvature="0" />
    <path
       d="m 117.42188,0 v -82.96875 h 12.65624 v 11.796875 q 9.14063,-13.671875 26.40625,-13.671875 7.5,0 13.75,2.734375 6.32813,2.65625 9.45313,7.03125 3.125,4.375 4.375,10.390625 0.78125,3.90625 0.78125,13.671875 V 0 h -14.0625 v -50.46875 q 0,-8.59375 -1.64063,-12.8125 -1.64062,-4.296875 -5.85937,-6.796875 -4.14063,-2.578125 -9.76563,-2.578125 -8.98437,0 -15.54687,5.703125 -6.48438,5.703125 -6.48438,21.640625 V 0 Z"
       style="font-style:normal;font-weight:normal;font-size:160px;font-family:Arial;fill:#000000;stroke:none"
       id="path1111"
       inkscape:connector-curvature="0" />
    <path
       d="m 203.67187,-55.78125 q 0,-28.515625 15.3125,-44.60938 15.3125,-16.17187 39.53125,-16.17187 15.85938,0 28.59375,7.57812 12.73438,7.57813 19.375,21.17188 6.71875,13.515625 6.71875,30.703125 0,17.421875 -7.03125,31.171875 -7.03125,13.75 -19.92187,20.859375 -12.89063,7.03125 -27.8125,7.03125 -16.17188,0 -28.90625,-7.8125 -12.73438,-7.8125 -19.29688,-21.328125 -6.5625,-13.515625 -6.5625,-28.59375 z m 15.625,0.234375 q 0,20.703125 11.09375,32.65625 11.17188,11.875 27.96875,11.875 17.10938,0 28.125,-12.03125 11.09375,-12.03125 11.09375,-34.140625 0,-13.984375 -4.76562,-24.375 -4.6875,-10.46875 -13.82813,-16.171875 -9.0625,-5.781255 -20.39062,-5.781255 -16.09375,0 -27.73438,11.093755 -11.5625,11.015625 -11.5625,36.875 z"
       style="font-style:normal;font-weight:normal;font-size:160px;font-family:Arial;fill:#000000;stroke:none"
       id="path1113"
       inkscape:connector-curvature="0" />
  </g>
  <path
     stroke="none"
     fill="#000000"
     transform="matrix(0.0666667 0 0 0.0666667 3.44441 -93.3333)"
     d="M 2879.34,2302.36 L 2874.24,2293.52 L 3024.97,2206.5 L 2987.49,2239.92 L 2879.34,2302.36 Z "
     id="path96" />
  <path
     stroke="#000000"
     stroke-width="10"
     fill="none"
     transform="matrix(0.0666667 0 0 0.0666667 3.44441 -93.3333)"
     d="M 3602.69,2337.84 C 3607.08,2345.43 3616.39,2348.26 3623.49,2344.16 C 3630.58,2340.07 3632.79,2330.58 3628.41,2322.99 C 3624.03,2315.41 3626.23,2305.92 3633.33,2301.82 C 3640.42,2297.73 3649.74,2300.56 3654.12,2308.15 C 3658.5,2315.74 3667.81,2318.57 3674.91,2314.47 C 3682.01,2310.38 3684.21,2300.89 3679.83,2293.3 C 3675.45,2285.72 3677.65,2276.23 3684.75,2272.13 C 3691.85,2268.04 3701.16,2270.87 3705.54,2278.46 C 3709.92,2286.05 3719.24,2288.88 3726.34,2284.78 C 3733.43,2280.69 3735.64,2271.2 3731.25,2263.61 C 3726.87,2256.03 3729.08,2246.54 3736.17,2242.44 C 3743.27,2238.35 3752.59,2241.18 3756.97,2248.77 C 3761.35,2256.36 3770.66,2259.19 3777.76,2255.09 C 3784.86,2251 3787.06,2241.51 3782.68,2233.92 C 3778.3,2226.34 3780.5,2216.85 3787.6,2212.75 "
     id="path98" />
  <path
     stroke="none"
     fill="#009e73"
     transform="matrix(0.0666667 0 0 0.0666667 3.44441 -93.3333)"
     d="M 4008.9,2310.31 L 4011.53,2322.65 L 3795.55,2226.49 L 3806.48,2220.18 L 4008.9,2310.31 Z "
     id="path100" />
  <path
     stroke="none"
     fill="#009e73"
     transform="matrix(0.0666667 0 0 0.0666667 3.44441 -93.3333)"
     d="M 4001.7,2261.98 L 3997.55,2271.3 L 3843.06,2202.52 L 3847.21,2193.2 L 4001.7,2261.98 Z "
     id="path102" />
  <path
     stroke="none"
     fill="#009e73"
     transform="matrix(0.0666667 0 0 0.0666667 3.44441 -93.3333)"
     d="M 4157.17,2145.64 L 4169.72,2146.96 L 4011.53,2322.65 L 4008.9,2310.31 L 4157.17,2145.64 Z "
     id="path104" />
  <path
     stroke="none"
     fill="#009e73"
     transform="matrix(0.0666667 0 0 0.0666667 3.44441 -93.3333)"
     d="M 4046.38,1953.74 L 4051.51,1942.22 L 4169.72,2146.96 L 4157.17,2145.64 L 4046.38,1953.74 Z "
     id="path106" />
  <path
     stroke="none"
     fill="#009e73"
     transform="matrix(0.0666667 0 0 0.0666667 3.44441 -93.3333)"
     d="M 4023.8,1997.08 L 4032.64,1991.98 L 4117.19,2138.42 L 4108.36,2143.53 L 4023.8,1997.08 Z "
     id="path108" />
  <path
     stroke="none"
     fill="#009e73"
     transform="matrix(0.0666667 0 0 0.0666667 3.44441 -93.3333)"
     d="M 3829.64,1999.81 L 3820.26,1991.37 L 4051.51,1942.22 L 4046.38,1953.74 L 3829.64,1999.81 Z "
     id="path110" />
  <path
     stroke="none"
     fill="#009e73"
     transform="matrix(0.0666667 0 0 0.0666667 3.44441 -93.3333)"
     d="M 3806.48,2220.18 L 3795.55,2226.49 L 3820.26,1991.37 L 3829.64,1999.81 L 3806.48,2220.18 Z "
     id="path112" />
  <g
     aria-label="1)"
     transform="matrix(0.0666667,0,0,0.0666667,102.05,18.6667)"
     style="font-style:normal;font-weight:normal;font-size:160px;font-family:Arial;fill:#000000;stroke:none"
     id="text114">
    <path
       d="m 59.609375,0 h -14.0625 v -89.609375 q -5.078125,4.84375 -13.359375,9.6875 -8.203125,4.84375 -14.765625,7.265625 V -86.25 q 11.796875,-5.546875 20.625,-13.4375 8.828125,-7.89063 12.5,-15.3125 h 9.0625 z"
       style="font-style:normal;font-weight:normal;font-size:160px;font-family:Arial;fill:#000000;stroke:none"
       id="path1104"
       inkscape:connector-curvature="0" />
    <path
       d="M 108.82813,33.671875 H 98.75 q 23.35938,-37.5 23.35938,-75.078125 0,-14.6875 -3.35938,-29.140625 -2.65625,-11.71875 -7.42187,-22.5 -3.04688,-7.031255 -12.57813,-23.437505 h 10.07813 q 14.6875,19.60938 21.71874,39.375005 6.01563,17.03125 6.01563,35.625 0,21.09375 -8.125,40.78125 -8.04687,19.6875 -19.60937,34.375 z"
       style="font-style:normal;font-weight:normal;font-size:160px;font-family:Arial;fill:#000000;stroke:none"
       id="path1106"
       inkscape:connector-curvature="0" />
  </g>
  <g
     aria-label="Cp"
     transform="matrix(0.0666667,0,0,0.0666667,114.498,18.6667)"
     style="font-style:normal;font-weight:normal;font-size:160px;font-family:Arial;fill:#009e73;stroke:none"
     id="text116">
    <path
       d="m 94.0625,-40.15625 15.15625,3.828125 Q 104.45313,-17.65625 92.03125,-7.8125 79.6875,1.953125 61.796875,1.953125 q -18.515625,0 -30.15625,-7.5 -11.5625,-7.578125 -17.65625,-21.875 Q 7.96875,-41.71875 7.96875,-58.125 q 0,-17.890625 6.796875,-31.171875 6.875,-13.359375 19.453125,-20.234375 12.65625,-6.95313 27.8125,-6.95313 17.1875,0 28.90625,8.75 11.71875,8.750005 16.32813,24.60938 l -14.92188,3.515625 q -3.984375,-12.5 -11.5625,-18.203125 -7.578125,-5.70313 -19.0625,-5.70313 -13.203125,0 -22.109375,6.32813 -8.828125,6.328125 -12.421875,17.03125 -3.59375,10.625 -3.59375,21.953125 0,14.609375 4.21875,25.546875 4.296875,10.859375 13.28125,16.25 8.984375,5.390625 19.453125,5.390625 12.734375,0 21.5625,-7.34375 8.828125,-7.34375 11.953125,-21.796875 z"
       style="font-style:normal;font-weight:normal;font-size:160px;font-family:Arial;fill:#009e73;stroke:none"
       id="path1099"
       inkscape:connector-curvature="0" />
    <path
       d="M 126.17188,31.796875 V -82.96875 h 12.81249 v 10.78125 q 4.53125,-6.328125 10.23438,-9.453125 5.70312,-3.203125 13.82812,-3.203125 10.625,0 18.75,5.46875 8.125,5.46875 12.26563,15.46875 4.14062,9.921875 4.14062,21.796875 0,12.734375 -4.60937,22.96875 -4.53125,10.15625 -13.28125,15.625 Q 171.64062,1.875 162.03125,1.875 155,1.875 149.375,-1.09375 q -5.54688,-2.96875 -9.14063,-7.5 v 40.390625 z m 12.73437,-72.8125 q 0,16.015625 6.48437,23.671875 6.48438,7.65625 15.70313,7.65625 9.375,0 16.01562,-7.890625 6.71875,-7.96875 6.71875,-24.609375 0,-15.859375 -6.5625,-23.75 -6.48437,-7.890625 -15.54687,-7.890625 -8.98438,0 -15.9375,8.4375 -6.875,8.359375 -6.875,24.375 z"
       style="font-style:normal;font-weight:normal;font-size:160px;font-family:Arial;fill:#009e73;stroke:none"
       id="path1101"
       inkscape:connector-curvature="0" />
  </g>
  <g
     aria-label="2"
     transform="matrix(0.0666667,0,0,0.0666667,128.133,20.9333)"
     style="font-style:normal;font-weight:normal;font-size:120px;font-family:Arial;fill:#009e73;stroke:none"
     id="text118">
    <path
       d="M 60.410156,-10.136719 V 0 H 3.6328125 Q 3.515625,-3.8085938 4.8632812,-7.3242187 7.03125,-13.125 11.777344,-18.75 q 4.804687,-5.625 13.828125,-13.007812 14.003906,-11.484375 18.925781,-18.164063 4.921875,-6.738281 4.921875,-12.714844 0,-6.269531 -4.511719,-10.546875 -4.453125,-4.335937 -11.660156,-4.335937 -7.617188,0 -12.1875,4.570312 -4.570313,4.570313 -4.628906,12.65625 L 5.625,-61.40625 Q 6.7382812,-73.535156 14.003906,-79.863281 21.269531,-86.25 33.515625,-86.25 q 12.363281,0 19.570312,6.855469 7.207032,6.855469 7.207032,16.992187 0,5.15625 -2.109375,10.136719 -2.109375,4.980469 -7.03125,10.488281 -4.863282,5.507813 -16.230469,15.117188 -9.492188,7.96875 -12.1875,10.839843 -2.695313,2.8125 -4.453125,5.683594 z"
       style="font-style:normal;font-weight:normal;font-size:120px;font-family:Arial;fill:#009e73;stroke:none"
       id="path1096"
       inkscape:connector-curvature="0" />
  </g>
  <g
     aria-label="Zr(H)Cl"
     transform="matrix(0.0666667,0,0,0.0666667,132.582,18.6667)"
     style="font-style:normal;font-weight:normal;font-size:160px;font-family:Arial;fill:#009e73;stroke:none"
     id="text120">
    <path
       d="M 3.203125,0 V -14.0625 L 61.875,-87.421875 q 6.25,-7.8125 11.875,-13.593755 H 9.84375 v -13.51562 H 91.875 v 13.51562 L 27.578125,-21.5625 20.625,-13.515625 H 93.75 V 0 Z"
       style="font-style:normal;font-weight:normal;font-size:160px;font-family:Arial;fill:#009e73;stroke:none"
       id="path1081"
       inkscape:connector-curvature="0" />
    <path
       d="m 108.20313,0 v -82.96875 h 12.65625 v 12.578125 q 4.84375,-8.828125 8.90624,-11.640625 4.14063,-2.8125 9.0625,-2.8125 7.10938,0 14.45313,4.53125 l -4.84375,13.046875 q -5.15625,-3.046875 -10.3125,-3.046875 -4.60938,0 -8.28125,2.8125 -3.67187,2.734375 -5.23437,7.65625 -2.34375,7.5 -2.34375,16.40625 V 0 Z"
       style="font-style:normal;font-weight:normal;font-size:160px;font-family:Arial;fill:#009e73;stroke:none"
       id="path1083"
       inkscape:connector-curvature="0" />
    <path
       d="m 188.67187,33.671875 q -11.64062,-14.6875 -19.6875,-34.375 -8.04687,-19.6875 -8.04687,-40.78125 0,-18.59375 6.01562,-35.625 7.03125,-19.765625 21.71875,-39.375005 H 198.75 q -9.45313,16.25 -12.5,23.20313 -4.76563,10.78125 -7.5,22.5 -3.35938,14.609375 -3.35938,29.375 0,37.578125 23.35938,75.078125 z"
       style="font-style:normal;font-weight:normal;font-size:160px;font-family:Arial;fill:#009e73;stroke:none"
       id="path1085"
       inkscape:connector-curvature="0" />
    <path
       d="m 217.5,0 v -114.53125 h 15.15625 V -67.5 h 59.53125 v -47.03125 h 15.15625 V 0 H 292.1875 V -53.984375 H 232.65625 V 0 Z"
       style="font-style:normal;font-weight:normal;font-size:160px;font-family:Arial;fill:#009e73;stroke:none"
       id="path1087"
       inkscape:connector-curvature="0" />
    <path
       d="M 340.07812,33.671875 H 330 q 23.35937,-37.5 23.35937,-75.078125 0,-14.6875 -3.35937,-29.140625 -2.65625,-11.71875 -7.42188,-22.5 Q 339.53125,-100.07813 330,-116.48438 h 10.07812 q 14.6875,19.60938 21.71875,39.375005 6.01563,17.03125 6.01563,35.625 0,21.09375 -8.125,40.78125 -8.04688,19.6875 -19.60938,34.375 z"
       style="font-style:normal;font-weight:normal;font-size:160px;font-family:Arial;fill:#009e73;stroke:none"
       id="path1089"
       inkscape:connector-curvature="0" />
    <path
       d="m 467.8125,-40.15625 15.15625,3.828125 q -4.76563,18.671875 -17.1875,28.515625 -12.34375,9.765625 -30.23438,9.765625 -18.51562,0 -30.15625,-7.5 -11.5625,-7.578125 -17.65625,-21.875 -6.01562,-14.296875 -6.01562,-30.703125 0,-17.890625 6.79687,-31.171875 6.875,-13.359375 19.45313,-20.234375 12.65625,-6.95313 27.8125,-6.95313 17.1875,0 28.90625,8.75 11.71875,8.750005 16.32812,24.60938 l -14.92187,3.515625 q -3.98438,-12.5 -11.5625,-18.203125 -7.57813,-5.70313 -19.0625,-5.70313 -13.20313,0 -22.10938,6.32813 -8.82812,6.328125 -12.42187,17.03125 -3.59375,10.625 -3.59375,21.953125 0,14.609375 4.21875,25.546875 4.29687,10.859375 13.28125,16.25 8.98437,5.390625 19.45312,5.390625 12.73438,0 21.5625,-7.34375 8.82813,-7.34375 11.95313,-21.796875 z"
       style="font-style:normal;font-weight:normal;font-size:160px;font-family:Arial;fill:#009e73;stroke:none"
       id="path1091"
       inkscape:connector-curvature="0" />
    <path
       d="m 499.60937,0 v -114.53125 h 14.0625 V 0 Z"
       style="font-style:normal;font-weight:normal;font-size:160px;font-family:Arial;fill:#009e73;stroke:none"
       id="path1093"
       inkscape:connector-curvature="0" />
  </g>
  <g
     aria-label="2)"
     transform="matrix(0.0666667,0,0,0.0666667,102.05,34.9167)"
     style="font-style:normal;font-weight:normal;font-size:160px;font-family:Arial;fill:#000000;stroke:none"
     id="text122">
    <path
       d="M 80.546875,-13.515625 V 0 H 4.84375 Q 4.6875,-5.078125 6.484375,-9.765625 9.375,-17.5 15.703125,-25 q 6.40625,-7.5 18.4375,-17.34375 Q 52.8125,-57.65625 59.375,-66.5625 q 6.5625,-8.984375 6.5625,-16.953125 0,-8.359375 -6.015625,-14.0625 -5.9375,-5.781255 -15.546875,-5.781255 -10.15625,0 -16.25,6.093755 -6.09375,6.09375 -6.171875,16.875 L 7.5,-81.875 Q 8.984375,-98.046875 18.671875,-106.48438 28.359375,-115 44.6875,-115 q 16.484375,0 26.09375,9.14062 9.609375,9.14063 9.609375,22.656255 0,6.875 -2.8125,13.515625 -2.8125,6.640625 -9.375,13.984375 -6.484375,7.34375 -21.640625,20.15625 -12.65625,10.625 -16.25,14.453125 -3.59375,3.75 -5.9375,7.578125 z"
       style="font-style:normal;font-weight:normal;font-size:160px;font-family:Arial;fill:#000000;stroke:none"
       id="path1076"
       inkscape:connector-curvature="0" />
    <path
       d="M 108.82813,33.671875 H 98.75 q 23.35938,-37.5 23.35938,-75.078125 0,-14.6875 -3.35938,-29.140625 -2.65625,-11.71875 -7.42187,-22.5 -3.04688,-7.031255 -12.57813,-23.437505 h 10.07813 q 14.6875,19.60938 21.71874,39.375005 6.01563,17.03125 6.01563,35.625 0,21.09375 -8.125,40.78125 -8.04687,19.6875 -19.60937,34.375 z"
       style="font-style:normal;font-weight:normal;font-size:160px;font-family:Arial;fill:#000000;stroke:none"
       id="path1078"
       inkscape:connector-curvature="0" />
  </g>
  <g
     aria-label="Yb(OTf)"
     transform="matrix(0.0666667,0,0,0.0666667,114.498,34.9167)"
     style="font-style:normal;font-weight:normal;font-size:160px;font-family:Arial;fill:#000000;stroke:none"
     id="text124">
    <path
       d="M 44.609375,0 V -48.515625 L 0.46875,-114.53125 h 18.4375 L 41.484375,-80 q 6.25,9.6875 11.640625,19.375 5.15625,-8.984375 12.5,-20.234375 l 22.1875,-33.671875 h 17.65625 L 59.765625,-48.515625 V 0 Z"
       style="font-style:normal;font-weight:normal;font-size:160px;font-family:Arial;fill:#000000;stroke:none"
       id="path1061"
       inkscape:connector-curvature="0" />
    <path
       d="m 130.39062,0 h -13.04687 v -114.53125 h 14.0625 v 40.859375 q 8.90625,-11.171875 22.73437,-11.171875 7.65625,0 14.45313,3.125 6.875,3.046875 11.25,8.671875 4.45312,5.546875 6.95312,13.4375 2.5,7.890625 2.5,16.875 0,21.328125 -10.54687,32.96875 Q 168.20312,1.875 153.4375,1.875 q -14.6875,0 -23.04688,-12.265625 z m -0.15625,-42.109375 q 0,14.921875 4.0625,21.5625 6.64063,10.859375 17.96875,10.859375 9.21875,0 15.9375,-7.96875 6.71875,-8.046875 6.71875,-23.90625 0,-16.25 -6.48437,-23.984375 -6.40625,-7.734375 -15.54688,-7.734375 -9.21875,0 -15.9375,8.046875 -6.71875,7.96875 -6.71875,23.125 z"
       style="font-style:normal;font-weight:normal;font-size:160px;font-family:Arial;fill:#000000;stroke:none"
       id="path1063"
       inkscape:connector-curvature="0" />
    <path
       d="m 233.35937,33.671875 q -11.64062,-14.6875 -19.6875,-34.375 -8.04687,-19.6875 -8.04687,-40.78125 0,-18.59375 6.01562,-35.625 7.03125,-19.765625 21.71875,-39.375005 h 10.07813 q -9.45313,16.25 -12.5,23.20313 -4.76563,10.78125 -7.5,22.5 -3.35938,14.609375 -3.35938,29.375 0,37.578125 23.35938,75.078125 z"
       style="font-style:normal;font-weight:normal;font-size:160px;font-family:Arial;fill:#000000;stroke:none"
       id="path1065"
       inkscape:connector-curvature="0" />
    <path
       d="m 257.10937,-55.78125 q 0,-28.515625 15.3125,-44.60938 15.3125,-16.17187 39.53125,-16.17187 15.85938,0 28.59375,7.57812 12.73438,7.57813 19.375,21.17188 6.71875,13.515625 6.71875,30.703125 0,17.421875 -7.03125,31.171875 -7.03125,13.75 -19.92187,20.859375 -12.89063,7.03125 -27.8125,7.03125 -16.17188,0 -28.90625,-7.8125 -12.73438,-7.8125 -19.29688,-21.328125 -6.5625,-13.515625 -6.5625,-28.59375 z m 15.625,0.234375 q 0,20.703125 11.09375,32.65625 11.17188,11.875 27.96875,11.875 17.10938,0 28.125,-12.03125 11.09375,-12.03125 11.09375,-34.140625 0,-13.984375 -4.76562,-24.375 -4.6875,-10.46875 -13.82813,-16.171875 -9.0625,-5.781255 -20.39062,-5.781255 -16.09375,0 -27.73438,11.093755 -11.5625,11.015625 -11.5625,36.875 z"
       style="font-style:normal;font-weight:normal;font-size:160px;font-family:Arial;fill:#000000;stroke:none"
       id="path1067"
       inkscape:connector-curvature="0" />
    <path
       d="M 415.23437,0 V -101.01563 H 377.5 v -13.51562 h 90.78125 v 13.51562 H 430.39062 V 0 Z"
       style="font-style:normal;font-weight:normal;font-size:160px;font-family:Arial;fill:#000000;stroke:none"
       id="path1069"
       inkscape:connector-curvature="0" />
    <path
       d="m 485.46875,0 v -72.03125 h -12.42188 v -10.9375 h 12.42188 v -8.828125 q 0,-8.359375 1.48437,-12.421875 2.03125,-5.46875 7.10938,-8.82813 5.15625,-3.4375 14.375,-3.4375 5.9375,0 13.125,1.40625 l -2.10938,12.26563 q -4.375,-0.78125 -8.28125,-0.78125 -6.40625,0 -9.0625,2.73437 -2.65625,2.73438 -2.65625,10.23438 v 7.65625 H 515.625 v 10.9375 H 499.45312 V 0 Z"
       style="font-style:normal;font-weight:normal;font-size:160px;font-family:Arial;fill:#000000;stroke:none"
       id="path1071"
       inkscape:connector-curvature="0" />
    <path
       d="M 535.70312,33.671875 H 525.625 q 23.35937,-37.5 23.35937,-75.078125 0,-14.6875 -3.35937,-29.140625 -2.65625,-11.71875 -7.42188,-22.5 -3.04687,-7.031255 -12.57812,-23.437505 h 10.07812 q 14.6875,19.60938 21.71875,39.375005 6.01563,17.03125 6.01563,35.625 0,21.09375 -8.125,40.78125 -8.04688,19.6875 -19.60938,34.375 z"
       style="font-style:normal;font-weight:normal;font-size:160px;font-family:Arial;fill:#000000;stroke:none"
       id="path1073"
       inkscape:connector-curvature="0" />
  </g>
  <g
     aria-label="3"
     transform="matrix(0.0666667,0,0,0.0666667,152.425,37.1833)"
     style="font-style:normal;font-weight:normal;font-size:120px;font-family:Arial;fill:#000000;stroke:none"
     id="text126">
    <path
       d="m 5.0390625,-22.675781 10.5468755,-1.40625 q 1.816406,8.964843 6.152343,12.949218 4.394531,3.9257818 10.664063,3.9257818 7.441406,0 12.539062,-5.1562498 5.15625,-5.15625 5.15625,-12.773438 0,-7.265625 -4.746094,-11.953125 -4.746093,-4.746093 -12.070312,-4.746093 -2.988281,0 -7.441406,1.171875 l 1.171875,-9.257813 q 1.054687,0.117188 1.699218,0.117188 6.738282,0 12.128907,-3.515625 5.390625,-3.515625 5.390625,-10.839844 0,-5.800781 -3.925782,-9.609375 -3.925781,-3.808594 -10.136718,-3.808594 -6.152344,0 -10.253907,3.867188 -4.101562,3.867187 -5.273437,11.601562 l -10.546875,-1.875 Q 8.0273438,-74.589844 14.882813,-80.390625 21.738281,-86.25 31.933594,-86.25 q 7.03125,0 12.949218,3.046875 5.917969,2.988281 9.023438,8.203125 3.164062,5.214844 3.164062,11.074219 0,5.566406 -2.988281,10.136719 -2.988281,4.570312 -8.847656,7.265625 7.617187,1.757812 11.835937,7.324218 4.21875,5.507813 4.21875,13.828125 0,11.25 -8.203125,19.1015628 -8.203125,7.7929687 -20.742187,7.7929687 -11.308594,0 -18.808594,-6.7382812 Q 6.09375,-11.953125 5.0390625,-22.675781 Z"
       style="font-style:normal;font-weight:normal;font-size:120px;font-family:Arial;fill:#000000;stroke:none"
       id="path1058"
       inkscape:connector-curvature="0" />
  </g>
  <g
     aria-label="H"
     transform="matrix(0.0666667,0,0,0.0666667,352.97,48.456)"
     style="font-style:normal;font-weight:normal;font-size:160px;font-family:Arial;fill:#000000;stroke:none"
     id="text128">
    <path
       d="M 12.8125,0 V -114.53125 H 27.96875 V -67.5 H 87.5 v -47.03125 h 15.15625 V 0 H 87.5 V -53.984375 H 27.96875 V 0 Z"
       style="font-style:normal;font-weight:normal;font-size:160px;font-family:Arial;fill:#000000;stroke:none"
       id="path1055"
       inkscape:connector-curvature="0" />
  </g>
  <g
     aria-label="N"
     transform="matrix(0.0666667,0,0,0.0666667,352.97,59.1226)"
     style="font-style:normal;font-weight:normal;font-size:160px;font-family:Arial;fill:#000000;stroke:none"
     id="text130">
    <path
       d="m 12.1875,0 v -114.53125 h 15.546875 l 60.15625,89.921875 V -114.53125 H 102.42188 V 0 H 86.875 L 26.71875,-90 V 0 Z"
       style="font-style:normal;font-weight:normal;font-size:160px;font-family:Arial;fill:#000000;stroke:none"
       id="path1052"
       inkscape:connector-curvature="0" />
  </g>
  <path
     stroke="none"
     fill="#000000"
     transform="matrix(0.0666667 0 0 0.0666667 3.44441 -93.3333)"
     d="M 5107.45,2564.39 L 5097.24,2570.29 L 5097.24,2341.55 L 5102.34,2338.34 L 5107.45,2341.29 L 5107.45,2564.39 Z "
     id="path132" />
  <path
     stroke="none"
     fill="#000000"
     transform="matrix(0.0666667 0 0 0.0666667 3.44441 -93.3333)"
     d="M 5300.66,2675.95 L 5300.66,2681.84 L 5295.21,2684.58 L 5097.24,2570.29 L 5107.45,2564.39 L 5300.66,2675.95 Z "
     id="path134" />
  <path
     stroke="none"
     fill="#000000"
     transform="matrix(0.0666667 0 0 0.0666667 3.44441 -93.3333)"
     d="M 5493.88,2564.39 L 5504.09,2570.29 L 5306.09,2684.6 L 5300.66,2681.84 L 5300.66,2675.95 L 5493.88,2564.39 Z "
     id="path136" />
  <path
     stroke="none"
     fill="#000000"
     transform="matrix(0.0666667 0 0 0.0666667 3.44441 -93.3333)"
     d="M 5493.88,2335.39 L 5504.09,2341.29 L 5504.09,2570.29 L 5493.88,2564.39 L 5493.88,2335.39 Z "
     id="path138" />
  <path
     stroke="none"
     fill="#000000"
     transform="matrix(0.0666667 0 0 0.0666667 3.44441 -93.3333)"
     d="M 5371.72,2292.36 L 5395.53,2251.12 L 5403.34,2258 L 5381.59,2295.68 L 5371.72,2292.36 Z "
     id="path140" />
  <path
     stroke="none"
     fill="#000000"
     transform="matrix(0.0666667 0 0 0.0666667 3.44441 -93.3333)"
     d="M 5411.69,2305.82 L 5427.17,2279 L 5434.98,2285.88 L 5421.55,2309.14 L 5411.69,2305.82 Z "
     id="path142" />
  <path
     stroke="none"
     fill="#000000"
     transform="matrix(0.0666667 0 0 0.0666667 3.44441 -93.3333)"
     d="M 5451.66,2319.28 L 5458.81,2306.88 L 5466.62,2313.76 L 5461.52,2322.6 L 5451.66,2319.28 Z "
     id="path144" />
  <path
     stroke="none"
     fill="#000000"
     transform="matrix(0.0666667 0 0 0.0666667 3.44441 -93.3333)"
     d="M 5107.45,2341.29 L 5102.34,2338.34 L 5102.57,2332.32 L 5215.6,2267.06 L 5220.7,2275.9 L 5107.45,2341.29 Z "
     id="path146" />
  <g
     aria-label="OBn"
     transform="matrix(0.0666667,0,0,0.0666667,379.174,89.6893)"
     style="font-style:normal;font-weight:normal;font-size:160px;font-family:Arial;fill:#000000;stroke:none"
     id="text148">
    <path
       d="m 7.734375,-55.78125 q 0,-28.515625 15.3125,-44.60938 15.3125,-16.17187 39.53125,-16.17187 15.859375,0 28.59375,7.57812 12.734375,7.57813 19.375005,21.17188 6.71875,13.515625 6.71875,30.703125 0,17.421875 -7.03125,31.171875 -7.03125,13.75 -19.92188,20.859375 -12.890625,7.03125 -27.8125,7.03125 -16.171875,0 -28.90625,-7.8125 -12.734375,-7.8125 -19.296875,-21.328125 -6.5625,-13.515625 -6.5625,-28.59375 z m 15.625,0.234375 q 0,20.703125 11.09375,32.65625 11.171875,11.875 27.96875,11.875 17.109375,0 28.125,-12.03125 11.093755,-12.03125 11.093755,-34.140625 0,-13.984375 -4.76563,-24.375 -4.6875,-10.46875 -13.828125,-16.171875 -9.0625,-5.781255 -20.390625,-5.781255 -16.09375,0 -27.734375,11.093755 -11.5625,11.015625 -11.5625,36.875 z"
       style="font-style:normal;font-weight:normal;font-size:160px;font-family:Arial;fill:#000000;stroke:none"
       id="path1045"
       inkscape:connector-curvature="0" />
    <path
       d="m 136.09375,0 v -114.53125 h 42.96875 q 13.125,0 21.01562,3.51562 7.96875,3.4375 12.42188,10.70313 4.53125,7.1875 4.53125,15.078125 0,7.34375 -3.98438,13.828125 -3.98437,6.484375 -12.03125,10.46875 10.39063,3.046875 15.9375,10.390625 5.625,7.34375 5.625,17.34375 0,8.046875 -3.4375,15 -3.35937,6.875 -8.35937,10.625 -5,3.75 -12.57813,5.703125 Q 190.70312,0 179.76562,0 Z M 151.25,-66.40625 h 24.76562 q 10.07813,0 14.45313,-1.328125 5.78125,-1.71875 8.67187,-5.703125 2.96875,-3.984375 2.96875,-10 0,-5.703125 -2.73437,-10 -2.73438,-4.375 -7.8125,-5.9375 -5.07813,-1.64063 -17.42188,-1.64063 H 151.25 Z m 0,52.890625 h 28.51562 q 7.34375,0 10.3125,-0.546875 5.23438,-0.9375 8.75,-3.125 3.51563,-2.1875 5.78125,-6.328125 2.26563,-4.21875 2.26563,-9.6875 0,-6.40625 -3.28125,-11.09375 -3.28125,-4.765625 -9.14063,-6.640625 -5.78125,-1.953125 -16.71875,-1.953125 H 151.25 Z"
       style="font-style:normal;font-weight:normal;font-size:160px;font-family:Arial;fill:#000000;stroke:none"
       id="path1047"
       inkscape:connector-curvature="0" />
    <path
       d="m 241.79687,0 v -82.96875 h 12.65625 v 11.796875 q 9.14063,-13.671875 26.40625,-13.671875 7.5,0 13.75,2.734375 6.32813,2.65625 9.45313,7.03125 3.125,4.375 4.375,10.390625 0.78125,3.90625 0.78125,13.671875 V 0 h -14.0625 v -50.46875 q 0,-8.59375 -1.64063,-12.8125 -1.64062,-4.296875 -5.85937,-6.796875 -4.14063,-2.578125 -9.76563,-2.578125 -8.98437,0 -15.54687,5.703125 -6.48438,5.703125 -6.48438,21.640625 V 0 Z"
       style="font-style:normal;font-weight:normal;font-size:160px;font-family:Arial;fill:#000000;stroke:none"
       id="path1049"
       inkscape:connector-curvature="0" />
  </g>
  <path
     stroke="none"
     fill="#000000"
     transform="matrix(0.0666667 0 0 0.0666667 3.44441 -93.3333)"
     d="M 5641.37,2622.05 L 5617.56,2663.29 L 5609.59,2656.69 L 5631.67,2618.45 L 5641.37,2622.05 Z "
     id="path150" />
  <path
     stroke="none"
     fill="#000000"
     transform="matrix(0.0666667 0 0 0.0666667 3.44441 -93.3333)"
     d="M 5593.81,2604.4 L 5578.49,2630.93 L 5570.52,2624.33 L 5584.11,2600.79 L 5593.81,2604.4 Z "
     id="path152" />
  <path
     stroke="none"
     fill="#000000"
     transform="matrix(0.0666667 0 0 0.0666667 3.44441 -93.3333)"
     d="M 5546.25,2586.74 L 5539.42,2598.58 L 5531.45,2591.97 L 5536.55,2583.14 L 5546.25,2586.74 Z "
     id="path154" />
  <g
     aria-label="BnO"
     transform="matrix(0.0666667,0,0,0.0666667,313.098,89.6396)"
     style="font-style:normal;font-weight:normal;font-size:160px;font-family:Arial;fill:#000000;stroke:none"
     id="text156">
    <path
       d="M 11.71875,0 V -114.53125 H 54.6875 q 13.125,0 21.015625,3.51562 7.96875,3.4375 12.421875,10.70313 4.53125,7.1875 4.53125,15.078125 0,7.34375 -3.984375,13.828125 -3.984375,6.484375 -12.03125,10.46875 10.390625,3.046875 15.9375,10.390625 5.625,7.34375 5.625,17.34375 0,8.046875 -3.4375,15 -3.359375,6.875 -8.359375,10.625 -5,3.75 -12.578125,5.703125 Q 66.328125,0 55.390625,0 Z M 26.875,-66.40625 h 24.765625 q 10.078125,0 14.453125,-1.328125 5.78125,-1.71875 8.671875,-5.703125 2.96875,-3.984375 2.96875,-10 0,-5.703125 -2.734375,-10 -2.734375,-4.375 -7.8125,-5.9375 -5.078125,-1.64063 -17.421875,-1.64063 H 26.875 Z m 0,52.890625 h 28.515625 q 7.34375,0 10.3125,-0.546875 5.234375,-0.9375 8.75,-3.125 3.515625,-2.1875 5.78125,-6.328125 2.265625,-4.21875 2.265625,-9.6875 0,-6.40625 -3.28125,-11.09375 -3.28125,-4.765625 -9.140625,-6.640625 -5.78125,-1.953125 -16.71875,-1.953125 H 26.875 Z"
       style="font-style:normal;font-weight:normal;font-size:160px;font-family:Arial;fill:#000000;stroke:none"
       id="path1038"
       inkscape:connector-curvature="0" />
    <path
       d="m 117.42188,0 v -82.96875 h 12.65624 v 11.796875 q 9.14063,-13.671875 26.40625,-13.671875 7.5,0 13.75,2.734375 6.32813,2.65625 9.45313,7.03125 3.125,4.375 4.375,10.390625 0.78125,3.90625 0.78125,13.671875 V 0 h -14.0625 v -50.46875 q 0,-8.59375 -1.64063,-12.8125 -1.64062,-4.296875 -5.85937,-6.796875 -4.14063,-2.578125 -9.76563,-2.578125 -8.98437,0 -15.54687,5.703125 -6.48438,5.703125 -6.48438,21.640625 V 0 Z"
       style="font-style:normal;font-weight:normal;font-size:160px;font-family:Arial;fill:#000000;stroke:none"
       id="path1040"
       inkscape:connector-curvature="0" />
    <path
       d="m 203.67187,-55.78125 q 0,-28.515625 15.3125,-44.60938 15.3125,-16.17187 39.53125,-16.17187 15.85938,0 28.59375,7.57812 12.73438,7.57813 19.375,21.17188 6.71875,13.515625 6.71875,30.703125 0,17.421875 -7.03125,31.171875 -7.03125,13.75 -19.92187,20.859375 -12.89063,7.03125 -27.8125,7.03125 -16.17188,0 -28.90625,-7.8125 -12.73438,-7.8125 -19.29688,-21.328125 -6.5625,-13.515625 -6.5625,-28.59375 z m 15.625,0.234375 q 0,20.703125 11.09375,32.65625 11.17188,11.875 27.96875,11.875 17.10938,0 28.125,-12.03125 11.09375,-12.03125 11.09375,-34.140625 0,-13.984375 -4.76562,-24.375 -4.6875,-10.46875 -13.82813,-16.171875 -9.0625,-5.781255 -20.39062,-5.781255 -16.09375,0 -27.73438,11.093755 -11.5625,11.015625 -11.5625,36.875 z"
       style="font-style:normal;font-weight:normal;font-size:160px;font-family:Arial;fill:#000000;stroke:none"
       id="path1042"
       inkscape:connector-curvature="0" />
  </g>
  <path
     stroke="none"
     fill="#000000"
     transform="matrix(0.0666667 0 0 0.0666667 3.44441 -93.3333)"
     d="M 4983.82,2662.61 L 4960.16,2621.28 L 4969.88,2617.72 L 4991.81,2656.04 L 4983.82,2662.61 Z "
     id="path158" />
  <path
     stroke="none"
     fill="#000000"
     transform="matrix(0.0666667 0 0 0.0666667 3.44441 -93.3333)"
     d="M 5022.86,2630.49 L 5007.64,2603.89 L 5017.36,2600.33 L 5030.86,2623.91 L 5022.86,2630.49 Z "
     id="path160" />
  <path
     stroke="none"
     fill="#000000"
     transform="matrix(0.0666667 0 0 0.0666667 3.44441 -93.3333)"
     d="M 5061.91,2598.37 L 5055.11,2586.49 L 5064.83,2582.93 L 5069.9,2591.79 L 5061.91,2598.37 Z "
     id="path162" />
  <path
     stroke="none"
     fill="#000000"
     transform="matrix(0.0666667 0 0 0.0666667 3.44441 -93.3333)"
     d="M 4883.78,2240.42 L 4921.26,2207 L 5102.57,2332.32 L 5102.34,2338.34 L 5097.24,2341.55 L 4883.78,2240.42 Z "
     id="path164" />
  <g
     aria-label="OBn"
     transform="matrix(0.0666667,0,0,0.0666667,352.616,104.989)"
     style="font-style:normal;font-weight:normal;font-size:160px;font-family:Arial;fill:#000000;stroke:none"
     id="text166">
    <path
       d="m 7.734375,-55.78125 q 0,-28.515625 15.3125,-44.60938 15.3125,-16.17187 39.53125,-16.17187 15.859375,0 28.59375,7.57812 12.734375,7.57813 19.375005,21.17188 6.71875,13.515625 6.71875,30.703125 0,17.421875 -7.03125,31.171875 -7.03125,13.75 -19.92188,20.859375 -12.890625,7.03125 -27.8125,7.03125 -16.171875,0 -28.90625,-7.8125 -12.734375,-7.8125 -19.296875,-21.328125 -6.5625,-13.515625 -6.5625,-28.59375 z m 15.625,0.234375 q 0,20.703125 11.09375,32.65625 11.171875,11.875 27.96875,11.875 17.109375,0 28.125,-12.03125 11.093755,-12.03125 11.093755,-34.140625 0,-13.984375 -4.76563,-24.375 -4.6875,-10.46875 -13.828125,-16.171875 -9.0625,-5.781255 -20.390625,-5.781255 -16.09375,0 -27.734375,11.093755 -11.5625,11.015625 -11.5625,36.875 z"
       style="font-style:normal;font-weight:normal;font-size:160px;font-family:Arial;fill:#000000;stroke:none"
       id="path1031"
       inkscape:connector-curvature="0" />
    <path
       d="m 136.09375,0 v -114.53125 h 42.96875 q 13.125,0 21.01562,3.51562 7.96875,3.4375 12.42188,10.70313 4.53125,7.1875 4.53125,15.078125 0,7.34375 -3.98438,13.828125 -3.98437,6.484375 -12.03125,10.46875 10.39063,3.046875 15.9375,10.390625 5.625,7.34375 5.625,17.34375 0,8.046875 -3.4375,15 -3.35937,6.875 -8.35937,10.625 -5,3.75 -12.57813,5.703125 Q 190.70312,0 179.76562,0 Z M 151.25,-66.40625 h 24.76562 q 10.07813,0 14.45313,-1.328125 5.78125,-1.71875 8.67187,-5.703125 2.96875,-3.984375 2.96875,-10 0,-5.703125 -2.73437,-10 -2.73438,-4.375 -7.8125,-5.9375 -5.07813,-1.64063 -17.42188,-1.64063 H 151.25 Z m 0,52.890625 h 28.51562 q 7.34375,0 10.3125,-0.546875 5.23438,-0.9375 8.75,-3.125 3.51563,-2.1875 5.78125,-6.328125 2.26563,-4.21875 2.26563,-9.6875 0,-6.40625 -3.28125,-11.09375 -3.28125,-4.765625 -9.14063,-6.640625 -5.78125,-1.953125 -16.71875,-1.953125 H 151.25 Z"
       style="font-style:normal;font-weight:normal;font-size:160px;font-family:Arial;fill:#000000;stroke:none"
       id="path1033"
       inkscape:connector-curvature="0" />
    <path
       d="m 241.79687,0 v -82.96875 h 12.65625 v 11.796875 q 9.14063,-13.671875 26.40625,-13.671875 7.5,0 13.75,2.734375 6.32813,2.65625 9.45313,7.03125 3.125,4.375 4.375,10.390625 0.78125,3.90625 0.78125,13.671875 V 0 h -14.0625 v -50.46875 q 0,-8.59375 -1.64063,-12.8125 -1.64062,-4.296875 -5.85937,-6.796875 -4.14063,-2.578125 -9.76563,-2.578125 -8.98437,0 -15.54687,5.703125 -6.48438,5.703125 -6.48438,21.640625 V 0 Z"
       style="font-style:normal;font-weight:normal;font-size:160px;font-family:Arial;fill:#000000;stroke:none"
       id="path1035"
       inkscape:connector-curvature="0" />
  </g>
  <path
     stroke="none"
     fill="#000000"
     transform="matrix(0.0666667 0 0 0.0666667 3.44441 -93.3333)"
     d="M 5323.9,2833.6 L 5276.28,2833.42 L 5295.21,2684.58 L 5300.66,2681.84 L 5306.09,2684.6 L 5323.9,2833.6 Z "
     id="path168" />
  <g
     aria-label="BnO"
     transform="matrix(0.0666667,0,0,0.0666667,299.847,66.756)"
     style="font-style:normal;font-weight:normal;font-size:160px;font-family:Arial;fill:#000000;stroke:none"
     id="text170">
    <path
       d="M 11.71875,0 V -114.53125 H 54.6875 q 13.125,0 21.015625,3.51562 7.96875,3.4375 12.421875,10.70313 4.53125,7.1875 4.53125,15.078125 0,7.34375 -3.984375,13.828125 -3.984375,6.484375 -12.03125,10.46875 10.390625,3.046875 15.9375,10.390625 5.625,7.34375 5.625,17.34375 0,8.046875 -3.4375,15 -3.359375,6.875 -8.359375,10.625 -5,3.75 -12.578125,5.703125 Q 66.328125,0 55.390625,0 Z M 26.875,-66.40625 h 24.765625 q 10.078125,0 14.453125,-1.328125 5.78125,-1.71875 8.671875,-5.703125 2.96875,-3.984375 2.96875,-10 0,-5.703125 -2.734375,-10 -2.734375,-4.375 -7.8125,-5.9375 -5.078125,-1.64063 -17.421875,-1.64063 H 26.875 Z m 0,52.890625 h 28.515625 q 7.34375,0 10.3125,-0.546875 5.234375,-0.9375 8.75,-3.125 3.515625,-2.1875 5.78125,-6.328125 2.265625,-4.21875 2.265625,-9.6875 0,-6.40625 -3.28125,-11.09375 -3.28125,-4.765625 -9.140625,-6.640625 -5.78125,-1.953125 -16.71875,-1.953125 H 26.875 Z"
       style="font-style:normal;font-weight:normal;font-size:160px;font-family:Arial;fill:#000000;stroke:none"
       id="path1024"
       inkscape:connector-curvature="0" />
    <path
       d="m 117.42188,0 v -82.96875 h 12.65624 v 11.796875 q 9.14063,-13.671875 26.40625,-13.671875 7.5,0 13.75,2.734375 6.32813,2.65625 9.45313,7.03125 3.125,4.375 4.375,10.390625 0.78125,3.90625 0.78125,13.671875 V 0 h -14.0625 v -50.46875 q 0,-8.59375 -1.64063,-12.8125 -1.64062,-4.296875 -5.85937,-6.796875 -4.14063,-2.578125 -9.76563,-2.578125 -8.98437,0 -15.54687,5.703125 -6.48438,5.703125 -6.48438,21.640625 V 0 Z"
       style="font-style:normal;font-weight:normal;font-size:160px;font-family:Arial;fill:#000000;stroke:none"
       id="path1026"
       inkscape:connector-curvature="0" />
    <path
       d="m 203.67187,-55.78125 q 0,-28.515625 15.3125,-44.60938 15.3125,-16.17187 39.53125,-16.17187 15.85938,0 28.59375,7.57812 12.73438,7.57813 19.375,21.17188 6.71875,13.515625 6.71875,30.703125 0,17.421875 -7.03125,31.171875 -7.03125,13.75 -19.92187,20.859375 -12.89063,7.03125 -27.8125,7.03125 -16.17188,0 -28.90625,-7.8125 -12.73438,-7.8125 -19.29688,-21.328125 -6.5625,-13.515625 -6.5625,-28.59375 z m 15.625,0.234375 q 0,20.703125 11.09375,32.65625 11.17188,11.875 27.96875,11.875 17.10938,0 28.125,-12.03125 11.09375,-12.03125 11.09375,-34.140625 0,-13.984375 -4.76562,-24.375 -4.6875,-10.46875 -13.82813,-16.171875 -9.0625,-5.781255 -20.39062,-5.781255 -16.09375,0 -27.73438,11.093755 -11.5625,11.015625 -11.5625,36.875 z"
       style="font-style:normal;font-weight:normal;font-size:160px;font-family:Arial;fill:#000000;stroke:none"
       id="path1028"
       inkscape:connector-curvature="0" />
  </g>
  <path
     stroke="none"
     fill="#000000"
     transform="matrix(0.0666667 0 0 0.0666667 3.44441 -93.3333)"
     d="M 4775.63,2302.86 L 4770.53,2294.02 L 4921.26,2207 L 4883.78,2240.42 L 4775.63,2302.86 Z "
     id="path172" />
  <path
     stroke="none"
     fill="#000000"
     transform="matrix(0.0666667 0 0 0.0666667 3.44441 -93.3333)"
     d="M 5692.5,2220.72 L 5697.3,2223.84 L 5697.6,2229.56 L 5504.09,2341.29 L 5493.88,2335.39 L 5692.5,2220.72 Z "
     id="path174" />
  <path
     stroke="none"
     fill="#cc79a7"
     transform="matrix(0.0666667 0 0 0.0666667 3.44441 -93.3333)"
     d="M 5905.19,2310.81 L 5907.82,2323.15 L 5697.6,2229.56 L 5697.3,2223.84 L 5702.76,2220.69 L 5905.19,2310.81 Z "
     id="path176" />
  <path
     stroke="none"
     fill="#cc79a7"
     transform="matrix(0.0666667 0 0 0.0666667 3.44441 -93.3333)"
     d="M 6053.46,2146.14 L 6066.01,2147.46 L 5907.82,2323.15 L 5905.19,2310.81 L 6053.46,2146.14 Z "
     id="path178" />
  <path
     stroke="none"
     fill="#cc79a7"
     transform="matrix(0.0666667 0 0 0.0666667 3.44441 -93.3333)"
     d="M 6005.27,2138.06 L 6012.86,2144.89 L 5899.7,2270.56 L 5892.12,2263.73 L 6005.27,2138.06 Z "
     id="path180" />
  <path
     stroke="none"
     fill="#cc79a7"
     transform="matrix(0.0666667 0 0 0.0666667 3.44441 -93.3333)"
     d="M 5942.67,1954.24 L 5947.8,1942.72 L 6066.01,2147.46 L 6053.46,2146.14 L 5942.67,1954.24 Z "
     id="path182" />
  <path
     stroke="none"
     fill="#cc79a7"
     transform="matrix(0.0666667 0 0 0.0666667 3.44441 -93.3333)"
     d="M 5725.93,2000.31 L 5716.55,1991.87 L 5947.8,1942.72 L 5942.67,1954.24 L 5725.93,2000.31 Z "
     id="path184" />
  <path
     stroke="none"
     fill="#cc79a7"
     transform="matrix(0.0666667 0 0 0.0666667 3.44441 -93.3333)"
     d="M 5702.76,2220.69 L 5697.3,2223.84 L 5692.5,2220.72 L 5716.55,1991.87 L 5725.93,2000.31 L 5702.76,2220.69 Z "
     id="path186" />
  <path
     stroke="none"
     fill="#cc79a7"
     transform="matrix(0.0666667 0 0 0.0666667 3.44441 -93.3333)"
     d="M 1859.2,2278.88 L 1849,2286.29 L 1849,2048.71 L 1859.2,2056.12 L 1859.2,2278.88 Z "
     id="path188" />
  <path
     stroke="none"
     fill="#cc79a7"
     transform="matrix(0.0666667 0 0 0.0666667 3.44441 -93.3333)"
     d="M 1900.63,2252.48 L 1890.43,2252.48 L 1890.43,2082.51 L 1900.63,2082.51 L 1900.63,2252.48 Z "
     id="path190" />
  <path
     stroke="none"
     fill="#cc79a7"
     transform="matrix(0.0666667 0 0 0.0666667 3.44441 -93.3333)"
     d="M 2071.06,2347.72 L 2074.96,2359.71 L 1849,2286.29 L 1859.2,2278.88 L 2071.06,2347.72 Z "
     id="path192" />
  <path
     stroke="none"
     fill="#cc79a7"
     transform="matrix(0.0666667 0 0 0.0666667 3.44441 -93.3333)"
     d="M 2201.99,2167.5 L 2214.61,2167.5 L 2074.96,2359.71 L 2071.06,2347.72 L 2201.99,2167.5 Z "
     id="path194" />
  <path
     stroke="none"
     fill="#cc79a7"
     transform="matrix(0.0666667 0 0 0.0666667 3.44441 -93.3333)"
     d="M 2152.96,2164.5 L 2161.22,2170.5 L 2061.31,2308.01 L 2053.06,2302.01 L 2152.96,2164.5 Z "
     id="path196" />
  <path
     stroke="none"
     fill="#cc79a7"
     transform="matrix(0.0666667 0 0 0.0666667 3.44441 -93.3333)"
     d="M 2071.06,1987.28 L 2074.96,1975.29 L 2214.61,2167.5 L 2201.99,2167.5 L 2071.06,1987.28 Z "
     id="path198" />
  <path
     stroke="none"
     fill="#cc79a7"
     transform="matrix(0.0666667 0 0 0.0666667 3.44441 -93.3333)"
     d="M 1859.2,2056.12 L 1849,2048.71 L 2074.96,1975.29 L 2071.06,1987.28 L 1859.2,2056.12 Z "
     id="path200" />
  <path
     stroke="none"
     fill="#000000"
     transform="matrix(0.0666667 0 0 0.0666667 3.44441 -93.3333)"
     d="M 4238.23,2436.67 L 4301.77,2436.67 L 4301.77,2444.67 L 4238.23,2444.67 Z "
     id="path202" />
  <path
     stroke="none"
     fill="#000000"
     transform="matrix(0.0666667 0 0 0.0666667 3.44441 -93.3333)"
     d="M 4274,2408.9 L 4274,2472.44 L 4266,2472.44 L 4266,2408.9 Z "
     id="path204" />
  <g
     aria-label="*"
     transform="matrix(0.0666667,0,0,0.0666667,377.361,58.1667)"
     style="font-style:normal;font-weight:normal;font-size:160px;font-family:Arial;fill:#000000;stroke:none"
     id="text206">
    <path
       d="m 5,-93.515625 3.59375,-11.093755 q 12.421875,4.375 18.046875,7.57813 -1.484375,-14.14063 -1.5625,-19.45313 H 36.40625 q -0.234375,7.73438 -1.796875,19.375005 8.046875,-4.062505 18.4375,-7.500005 l 3.59375,11.093755 q -9.921875,3.28125 -19.453125,4.375 Q 41.953125,-85 50.625,-74.375 l -9.375,6.640625 q -4.53125,-6.171875 -10.703125,-16.796875 -5.78125,11.015625 -10.15625,16.796875 L 11.171875,-74.375 q 9.0625,-11.171875 12.96875,-14.765625 Q 14.0625,-91.09375 5,-93.515625 Z"
       style="font-style:normal;font-weight:normal;font-size:160px;font-family:Arial;fill:#000000;stroke:none"
       id="path1021"
       inkscape:connector-curvature="0" />
  </g>
  <text
     xml:space="preserve"
     style="font-style:normal;font-weight:normal;font-size:10.66666698px;line-height:1.25;font-family:sans-serif;text-align:start;letter-spacing:0px;word-spacing:0px;text-anchor:start;fill:#000000;fill-opacity:1;stroke:none"
     x="8.5071707"
     y="113.54965"
     id="text1158"><tspan
       sodipodi:role="line"
       id="tspan1156"
       x="8.5071707"
       y="113.54965">\cmpd{glu-lactam}</tspan></text>
  <text
     xml:space="preserve"
     style="font-style:normal;font-variant:normal;font-weight:normal;font-stretch:normal;font-size:10.66666698px;line-height:1.25;font-family:sans-serif;font-variant-ligatures:normal;font-variant-position:normal;font-variant-caps:normal;font-variant-numeric:normal;font-variant-alternates:normal;font-feature-settings:normal;text-indent:0;text-align:start;text-decoration:none;text-decoration-line:none;text-decoration-style:solid;text-decoration-color:#000000;letter-spacing:0px;word-spacing:0px;text-transform:none;writing-mode:lr-tb;direction:ltr;text-orientation:mixed;dominant-baseline:auto;baseline-shift:baseline;text-anchor:start;white-space:normal;shape-padding:0;opacity:1;vector-effect:none;fill:#000000;fill-opacity:1;stroke:none;stroke-width:1;stroke-linecap:butt;stroke-linejoin:miter;stroke-miterlimit:4;stroke-dasharray:none;stroke-dashoffset:0;stroke-opacity:1"
     x="181.70883"
     y="113.54965"
     id="text1158-8"><tspan
       sodipodi:role="line"
       id="tspan1156-7"
       x="181.70883"
       y="113.54965">\cmpd{glu-cp-di}, \SI{8}{\percent}</tspan></text>
  <text
     xml:space="preserve"
     style="font-style:normal;font-weight:normal;font-size:10.66666698px;line-height:1.25;font-family:sans-serif;text-align:start;letter-spacing:0px;word-spacing:0px;text-anchor:start;fill:#000000;fill-opacity:1;stroke:none"
     x="305.24286"
     y="113.54965"
     id="text1158-5"><tspan
       sodipodi:role="line"
       id="tspan1156-4"
       x="305.24286"
       y="113.54965">\cmpd{glu-cp}, \SI{36}{\percent}</tspan></text>
</svg>
