<?xml version="1.0" encoding="UTF-8" standalone="no"?>
<svg
   xmlns:dc="http://purl.org/dc/elements/1.1/"
   xmlns:cc="http://creativecommons.org/ns#"
   xmlns:rdf="http://www.w3.org/1999/02/22-rdf-syntax-ns#"
   xmlns:svg="http://www.w3.org/2000/svg"
   xmlns="http://www.w3.org/2000/svg"
   xmlns:sodipodi="http://sodipodi.sourceforge.net/DTD/sodipodi-0.dtd"
   xmlns:inkscape="http://www.inkscape.org/namespaces/inkscape"
   viewBox="8.4 23.63 114.12 57.55"
   preserveAspectRatio="xMidYMid"
   width="100%"
   height="100%"
   version="1.1"
   id="svg208"
   sodipodi:docname="losartan.svg"
   inkscape:version="0.92.3 (2405546, 2018-03-11)">
  <metadata
     id="metadata214">
    <rdf:RDF>
      <cc:Work
         rdf:about="">
        <dc:format>image/svg+xml</dc:format>
        <dc:type
           rdf:resource="http://purl.org/dc/dcmitype/StillImage" />
      </cc:Work>
    </rdf:RDF>
  </metadata>
  <defs
     id="defs212" />
  <sodipodi:namedview
     pagecolor="#ffffff"
     bordercolor="#666666"
     borderopacity="1"
     objecttolerance="10"
     gridtolerance="10"
     guidetolerance="10"
     inkscape:pageopacity="0"
     inkscape:pageshadow="2"
     inkscape:window-width="1920"
     inkscape:window-height="1017"
     id="namedview210"
     showgrid="false"
     inkscape:zoom="8.922483"
     inkscape:cx="55.518835"
     inkscape:cy="3.5803966"
     inkscape:window-x="-8"
     inkscape:window-y="-8"
     inkscape:window-maximized="1"
     inkscape:current-layer="svg208" />
  <clipPath
     id="9390">
    <rect
       x="0.255"
       y="0.255"
       width="139.49"
       height="769.29"
       id="rect2" />
  </clipPath>
  <g
     aria-label="N"
     style="text-anchor:start;text-rendering:geometricPrecision"
     id="text9"
     transform="matrix(1.33333,0,0,1.33333,-21.778115,-17.545137)">
    <path
       d="m 29.979376,63.25 v -5.726563 h 0.777344 l 3.007812,4.496094 v -4.496094 h 0.726563 V 63.25 h -0.777344 l -3.007813,-4.5 v 4.5 z"
       style="font-size:8px;font-family:Arial;fill:#000000"
       id="path1282"
       inkscape:connector-curvature="0" />
  </g>
  <g
     aria-label="N"
     style="text-anchor:start;text-rendering:geometricPrecision"
     id="text15"
     transform="matrix(1.33333,0,0,1.33333,-21.778115,-17.545137)">
    <path
       d="m 42.459373,49.439999 v -5.726563 h 0.777344 l 3.007813,4.496094 v -4.496094 h 0.726562 v 5.726563 h -0.777344 l -3.007812,-4.5 v 4.5 z"
       style="font-size:8px;font-family:Arial;fill:#000000"
       id="path1285"
       inkscape:connector-curvature="0" />
  </g>
  <path
     style="fill:#000000;fill-rule:evenodd;stroke:#000000;stroke-width:0;stroke-linejoin:miter;shape-rendering:geometricPrecision"
     inkscape:connector-curvature="0"
     id="path19"
     d="m 13.39513,49.628028 v 0 l 0.213333,-0.319999 0.413332,0.04 4.733322,8.239979 -0.293333,0.16 -0.293332,0.173333 z" />
  <path
     style="fill:#000000;fill-rule:evenodd;stroke:#000000;stroke-width:0;stroke-linejoin:miter;shape-rendering:geometricPrecision"
     inkscape:connector-curvature="0"
     id="path22"
     d="m 25.981765,61.934664 v 0 l -0.06667,-0.333332 -0.06667,-0.333333 10.106642,-2.119995 0.306666,0.28 -0.09333,0.373332 z" />
  <path
     style="stroke:#000000;stroke-width:0.67999828;shape-rendering:auto"
     d="m 25.515101,59.69467 8.959975,-1.879996"
     id="line24"
     inkscape:connector-curvature="0" />
  <path
     style="fill:#000000;fill-rule:evenodd;stroke:#000000;stroke-width:0;stroke-linejoin:miter;shape-rendering:geometricPrecision"
     inkscape:connector-curvature="0"
     id="path28"
     d="m 36.621739,59.294671 v 0 l -0.359999,0.133333 -0.306666,-0.28 0.959997,-8.999977 0.333333,0.02667 0.333332,0.04 z" />
  <path
     style="fill:#000000;fill-rule:evenodd;stroke:#000000;stroke-width:0;stroke-linejoin:miter;shape-rendering:geometricPrecision"
     inkscape:connector-curvature="0"
     id="path32"
     d="m 33.448413,41.814714 v 0 l -0.146666,0.306666 -0.133333,0.32 -9.186644,-4.106657 -0.09333,-0.413332 0.293333,-0.24 z" />
  <path
     style="fill:#000000;fill-rule:evenodd;stroke:#000000;stroke-width:0;stroke-linejoin:miter;shape-rendering:geometricPrecision"
     inkscape:connector-curvature="0"
     id="path36"
     d="m 23.515105,37.828058 v 0 l 0.373332,0.09333 0.09333,0.413332 -9.959975,11.013306 -0.413332,-0.04 -0.133333,-0.359999 z" />
  <path
     style="stroke:#000000;stroke-width:0.67999828;shape-rendering:auto"
     d="m 24.595101,41.254713 -7.586646,8.413315"
     id="line38"
     inkscape:connector-curvature="0" />
  <path
     style="fill:#000000;fill-rule:evenodd;stroke:#000000;stroke-width:0;stroke-linejoin:miter;shape-rendering:geometricPrecision"
     inkscape:connector-curvature="0"
     id="path42"
     d="m 24.18177,37.681391 v 0 l -0.293333,0.24 -0.373332,-0.09333 -3.093326,-14.639964 0.293333,-0.266666 0.293333,-0.266666 z" />
  <g
     aria-label="HO"
     style="text-anchor:end;text-rendering:geometricPrecision"
     id="text48"
     transform="matrix(1.33333,0,0,1.33333,-21.778115,-17.545137)">
    <path
       d="m 12.680626,29.93 v -5.726562 h 0.757812 V 26.555 h 2.976563 v -2.351562 h 0.757812 V 29.93 H 16.415001 V 27.230782 H 13.438438 V 29.93 Z"
       style="font-size:8px;font-family:Arial;fill:#000000"
       id="path1290"
       inkscape:connector-curvature="0" />
    <path
       d="m 18.20797,27.140938 q 0,-1.425781 0.765625,-2.230469 0.765625,-0.808594 1.976562,-0.808594 0.792969,0 1.429688,0.378907 0.636718,0.378906 0.96875,1.058593 0.335937,0.675782 0.335937,1.535157 0,0.871093 -0.351562,1.558593 -0.351563,0.6875 -0.996094,1.042969 -0.644531,0.351563 -1.390625,0.351563 -0.808594,0 -1.445313,-0.390625 Q 18.86422,29.246407 18.536095,28.570625 18.20797,27.894844 18.20797,27.140938 Z m 0.78125,0.01172 q 0,1.035156 0.554687,1.632812 0.558594,0.59375 1.398438,0.59375 0.855468,0 1.40625,-0.601562 0.554687,-0.601563 0.554687,-1.707032 0,-0.699218 -0.238281,-1.21875 -0.234375,-0.523437 -0.691406,-0.808593 -0.453125,-0.289063 -1.019532,-0.289063 -0.804687,0 -1.386718,0.554688 -0.578125,0.550781 -0.578125,1.84375 z"
       style="font-size:8px;font-family:Arial;fill:#000000"
       id="path1292"
       inkscape:connector-curvature="0" />
  </g>
  <path
     style="fill:#000000;fill-rule:evenodd;stroke:#000000;stroke-width:0;stroke-linejoin:miter;shape-rendering:geometricPrecision"
     inkscape:connector-curvature="0"
     id="path52"
     d="m 21.008445,22.654762 v 0 l -0.293333,0.266666 -0.293333,0.266666 -9.05331,-2.959992 0.106666,-0.319999 0.09333,-0.333333 z" />
  <g
     aria-label="Cl"
     style="text-anchor:end;text-rendering:geometricPrecision"
     id="text58"
     transform="matrix(1.33333,0,0,1.33333,-21.778115,-17.545137)">
    <path
       d="m 13.140625,50.062187 0.757813,0.191406 q -0.238282,0.933594 -0.859375,1.425782 -0.617188,0.488281 -1.511719,0.488281 -0.925781,0 -1.507813,-0.375 Q 9.4414063,51.41375 9.1367188,50.698906 8.8359375,49.984062 8.8359375,49.16375 q 0,-0.894532 0.3398438,-1.558594 0.34375,-0.667969 0.9726567,-1.011719 0.632812,-0.347656 1.390625,-0.347656 0.859375,0 1.445312,0.4375 0.585938,0.4375 0.816406,1.230469 l -0.746093,0.175781 q -0.199219,-0.625 -0.578125,-0.910156 -0.378907,-0.285157 -0.953125,-0.285157 -0.660157,0 -1.105469,0.316407 -0.4414065,0.316406 -0.621094,0.851562 -0.1796875,0.53125 -0.1796875,1.097656 0,0.730469 0.2109375,1.277344 0.214844,0.542969 0.664063,0.8125 0.449218,0.269531 0.972656,0.269531 0.636719,0 1.078125,-0.367187 0.441406,-0.367188 0.597656,-1.089844 z"
       style="font-size:8px;font-family:Arial;fill:#000000"
       id="path1295"
       inkscape:connector-curvature="0" />
    <path
       d="m 14.730469,52.07 v -5.726563 h 0.703125 V 52.07 Z"
       style="font-size:8px;font-family:Arial;fill:#000000"
       id="path1297"
       inkscape:connector-curvature="0" />
  </g>
  <path
     style="fill:#000000;fill-rule:evenodd;stroke:#000000;stroke-width:0;stroke-linejoin:miter;shape-rendering:geometricPrecision"
     inkscape:connector-curvature="0"
     id="path62"
     d="m 13.47513,48.94803 v 0 l 0.133333,0.359999 -0.213333,0.319999 -12.81330103,-1.37333 0.0266666,-0.333332 0.0399999,-0.333333 z" />
  <path
     style="fill:#000000;fill-rule:evenodd;stroke:#000000;stroke-width:0;stroke-linejoin:miter;shape-rendering:geometricPrecision"
     inkscape:connector-curvature="0"
     id="path66"
     d="m 36.168407,59.801336 v 0 l 0.09333,-0.373332 0.359999,-0.133333 11.386638,10.293307 -0.373332,0.12 -0.373333,0.12 z" />
  <path
     style="fill:#000000;fill-rule:evenodd;stroke:#000000;stroke-width:0;stroke-linejoin:miter;shape-rendering:geometricPrecision"
     inkscape:connector-curvature="0"
     id="path70"
     d="m 47.261712,69.827978 v 0 l 0.373333,-0.12 0.373332,-0.12 -3.293325,15.373295 -0.293333,-0.266666 -0.293332,-0.266666 z" />
  <path
     style="fill:#000000;fill-rule:evenodd;stroke:#000000;stroke-width:0;stroke-linejoin:miter;shape-rendering:geometricPrecision"
     inkscape:connector-curvature="0"
     id="path74"
     d="m 44.128387,84.427941 v 0 l 0.293332,0.266666 0.293333,0.266666 -14.959963,4.839988 0.08,-0.386666 0.08,-0.386665 z" />
  <path
     style="fill:#000000;fill-rule:evenodd;stroke:#000000;stroke-width:0;stroke-linejoin:miter;shape-rendering:geometricPrecision"
     inkscape:connector-curvature="0"
     id="path78"
     d="m 29.915089,89.02793 v 0 l -0.08,0.386665 -0.08,0.386666 -11.519971,-10.413307 0.226666,-0.253333 0.226666,-0.253333 z" />
  <path
     style="fill:#000000;fill-rule:evenodd;stroke:#000000;stroke-width:0;stroke-linejoin:miter;shape-rendering:geometricPrecision"
     inkscape:connector-curvature="0"
     id="path82"
     d="m 42.555057,41.881381 v 0 l -0.159999,-0.293333 -0.173333,-0.293332 8.946644,-5.146654 v 0.386666 0.386665 z" />
  <path
     style="fill:#000000;fill-rule:evenodd;stroke:#000000;stroke-width:0;stroke-linejoin:miter;shape-rendering:geometricPrecision"
     inkscape:connector-curvature="0"
     id="path86"
     d="m 51.168369,36.921393 v 0 -0.386665 -0.386666 l 13.266634,7.679981 v 0.386665 l -0.346666,0.2 z" />
  <path
     style="fill:#000000;fill-rule:evenodd;stroke:#000000;stroke-width:0;stroke-linejoin:miter;shape-rendering:geometricPrecision"
     inkscape:connector-curvature="0"
     id="path90"
     d="m 64.088337,44.414708 v 0 l 0.346666,-0.2 0.333332,0.2 v 14.933296 l -0.346666,0.199999 -0.346665,0.2 z" />
  <path
     style="stroke:#000000;stroke-width:0.67999828;shape-rendering:auto"
     d="M 67.195,45.814704 67.18167,57.961342"
     id="line92"
     inkscape:connector-curvature="0" />
  <path
     style="fill:#000000;fill-rule:evenodd;stroke:#000000;stroke-width:0;stroke-linejoin:miter;shape-rendering:geometricPrecision"
     inkscape:connector-curvature="0"
     id="path96"
     d="m 64.075004,59.748003 v 0 l 0.346665,-0.2 0.346666,-0.199999 12.919968,7.506648 v 0.386666 0.386665 z" />
  <path
     style="fill:#000000;fill-rule:evenodd;stroke:#000000;stroke-width:0;stroke-linejoin:miter;shape-rendering:geometricPrecision"
     inkscape:connector-curvature="0"
     id="path100"
     d="m 77.688303,67.627983 v 0 -0.386665 -0.386666 l 12.959967,-7.466648 0.333333,0.199999 v 0.386666 z" />
  <path
     style="stroke:#000000;stroke-width:0.67999828;shape-rendering:auto"
     d="M 77.6883,64.05466 88.22161,57.98801"
     id="line102"
     inkscape:connector-curvature="0" />
  <path
     style="fill:#000000;fill-rule:evenodd;stroke:#000000;stroke-width:0;stroke-linejoin:miter;shape-rendering:geometricPrecision"
     inkscape:connector-curvature="0"
     id="path106"
     d="m 91.328269,59.388004 v 0 L 90.981603,59.588003 90.64827,59.388004 V 44.454708 l 0.346666,-0.2 0.346666,-0.199999 z" />
  <path
     style="fill:#000000;fill-rule:evenodd;stroke:#000000;stroke-width:0;stroke-linejoin:miter;shape-rendering:geometricPrecision"
     inkscape:connector-curvature="0"
     id="path110"
     d="m 91.341602,44.054709 v 0 l -0.346666,0.199999 -0.346666,0.2 -12.919967,-7.493315 v -0.386665 -0.386666 z" />
  <path
     style="stroke:#000000;stroke-width:0.67999828;shape-rendering:auto"
     d="M 88.234946,45.841372 77.728299,39.761386"
     id="line112"
     inkscape:connector-curvature="0" />
  <path
     style="fill:#000000;fill-rule:evenodd;stroke:#000000;stroke-width:0;stroke-linejoin:miter;shape-rendering:geometricPrecision"
     inkscape:connector-curvature="0"
     id="path116"
     d="m 77.728303,36.188062 v 0 0.386666 0.386665 l -12.959968,7.453315 -0.333332,-0.2 v -0.386665 z" />
  <path
     style="fill:#000000;fill-rule:evenodd;stroke:#000000;stroke-width:0;stroke-linejoin:miter;shape-rendering:geometricPrecision"
     inkscape:connector-curvature="0"
     id="path120"
     d="m 90.981603,59.974669 v 0 -0.386666 l 0.346666,-0.199999 12.919971,7.506648 v 0.386665 l -0.34667,0.2 z" />
  <path
     style="fill:#000000;fill-rule:evenodd;stroke:#000000;stroke-width:0;stroke-linejoin:miter;shape-rendering:geometricPrecision"
     inkscape:connector-curvature="0"
     id="path124"
     d="m 104.58157,67.481317 v 0 l -0.33333,-0.2 v -0.386665 l 12.94663,-7.466648 0.33333,0.199999 v 0.386666 z" />
  <path
     style="stroke:#000000;stroke-width:0.67999828;shape-rendering:auto"
     d="M 107.16222,69.026022 117.6822,62.95937"
     id="line126"
     inkscape:connector-curvature="0" />
  <path
     style="fill:#000000;fill-rule:evenodd;stroke:#000000;stroke-width:0;stroke-linejoin:miter;shape-rendering:geometricPrecision"
     inkscape:connector-curvature="0"
     id="path130"
     d="m 117.5282,60.014669 v 0 -0.386666 l 0.34667,-0.199999 13.27997,7.693314 -0.34667,0.199999 -0.34667,0.2 z" />
  <path
     style="fill:#000000;fill-rule:evenodd;stroke:#000000;stroke-width:0;stroke-linejoin:miter;shape-rendering:geometricPrecision"
     inkscape:connector-curvature="0"
     id="path134"
     d="m 130.4615,67.521317 v 0 l 0.34667,-0.2 0.34667,-0.199999 -0.04,15.733294 -0.33334,-0.2 -0.33333,-0.199999 z" />
  <path
     style="stroke:#000000;stroke-width:0.67999828;shape-rendering:auto"
     d="m 128.04818,68.907975 -0.0267,12.146637"
     id="line136"
     inkscape:connector-curvature="0" />
  <path
     style="fill:#000000;fill-rule:evenodd;stroke:#000000;stroke-width:0;stroke-linejoin:miter;shape-rendering:geometricPrecision"
     inkscape:connector-curvature="0"
     id="path140"
     d="m 130.44817,82.454613 v 0 l 0.33333,0.199999 0.33334,0.2 -13.62664,7.826647 v -0.386666 -0.386665 z" />
  <path
     style="fill:#000000;fill-rule:evenodd;stroke:#000000;stroke-width:0;stroke-linejoin:miter;shape-rendering:geometricPrecision"
     inkscape:connector-curvature="0"
     id="path144"
     d="m 117.4882,89.907928 v 0 0.386665 0.386666 l -13.6133,-7.866647 0.34667,-0.2 0.34667,-0.199999 z" />
  <path
     style="stroke:#000000;stroke-width:0.67999828;shape-rendering:auto"
     d="M 117.4882,87.107932 106.98156,81.02795"
     id="line146"
     inkscape:connector-curvature="0" />
  <path
     style="fill:#000000;fill-rule:evenodd;stroke:#000000;stroke-width:0;stroke-linejoin:miter;shape-rendering:geometricPrecision"
     inkscape:connector-curvature="0"
     id="path150"
     d="m 104.56824,82.414613 v 0 l -0.34667,0.199999 -0.34667,0.2 0.0267,-15.333295 0.34667,-0.2 0.33333,0.2 z" />
  <path
     style="fill:#000000;fill-rule:evenodd;stroke:#000000;stroke-width:0;stroke-linejoin:miter;shape-rendering:geometricPrecision"
     inkscape:connector-curvature="0"
     id="path154"
     d="m 117.87487,59.428004 v 0 l -0.34667,0.199999 -0.33333,-0.199999 0.0133,-14.959963 0.34667,-0.173333 0.33333,0.173333 z" />
  <g
     aria-label="N"
     style="text-anchor:start;text-rendering:geometricPrecision"
     id="text160"
     transform="matrix(1.33333,0,0,1.33333,-21.778115,-17.545137)">
    <path
       d="m 92.919373,42.759998 v -5.726562 h 0.777343 l 3.007813,4.496094 v -4.496094 h 0.726562 v 5.726562 h -0.777343 l -3.007813,-4.5 v 4.5 z"
       style="font-size:8px;font-family:Arial;fill:#000000"
       id="path1306"
       inkscape:connector-curvature="0" />
  </g>
  <g
     aria-label="N"
     style="text-anchor:start;text-rendering:geometricPrecision"
     id="text166"
     transform="matrix(1.33333,0,0,1.33333,-21.778115,-17.545137)">
    <path
       d="m 96.489372,31.83 v -5.726563 h 0.777344 l 3.007814,4.496094 v -4.496094 h 0.72656 V 31.83 h -0.77734 l -3.007815,-4.5 v 4.5 z"
       style="font-size:8px;font-family:Arial;fill:#000000"
       id="path1309"
       inkscape:connector-curvature="0" />
  </g>
  <g
     aria-label="N"
     style="text-anchor:start;text-rendering:geometricPrecision"
     id="text172"
     transform="matrix(1.33333,0,0,1.33333,-21.778115,-17.545137)">
    <path
       d="m 107.98937,31.84 v -5.726562 h 0.77735 l 3.00781,4.496093 v -4.496093 h 0.72656 V 31.84 h -0.77734 l -3.00782,-4.5 v 4.5 z"
       style="font-size:8px;font-family:Arial;fill:#000000"
       id="path1312"
       inkscape:connector-curvature="0" />
  </g>
  <g
     aria-label="NH"
     style="text-anchor:start;text-rendering:geometricPrecision"
     id="text178"
     transform="matrix(1.33333,0,0,1.33333,-21.778115,-17.545137)">
    <path
       d="m 111.52937,42.790001 v -5.726563 h 0.77735 l 3.00781,4.496094 v -4.496094 h 0.72656 v 5.726563 h -0.77734 l -3.00781,-4.5 v 4.5 z"
       style="font-size:8px;font-family:Arial;fill:#000000"
       id="path1315"
       inkscape:connector-curvature="0" />
    <path
       d="m 117.34187,42.790001 v -5.726563 h 0.75782 v 2.351563 h 2.97656 v -2.351563 h 0.75781 v 5.726563 h -0.75781 v -2.699219 h -2.97656 v 2.699219 z"
       style="font-size:8px;font-family:Arial;fill:#000000"
       id="path1317"
       inkscape:connector-curvature="0" />
  </g>
  <path
     style="fill:#000000;fill-rule:evenodd;stroke:#000000;stroke-width:0;stroke-linejoin:miter;shape-rendering:geometricPrecision"
     inkscape:connector-curvature="0"
     id="path182"
     d="m 117.55487,43.868043 v 0 0.426665 l -0.34667,0.173333 -7.78664,-5.679986 0.2,-0.279999 0.2,-0.266666 z" />
  <path
     style="stroke:#000000;stroke-width:0.67999828;shape-rendering:auto"
     d="m 117.55487,40.881383 -6.30666,-4.599989"
     id="line184"
     inkscape:connector-curvature="0" />
  <path
     style="fill:#000000;fill-rule:evenodd;stroke:#000000;stroke-width:0;stroke-linejoin:miter;shape-rendering:geometricPrecision"
     inkscape:connector-curvature="0"
     id="path188"
     d="m 107.12823,30.374743 v 0 l -0.33333,-0.106666 -0.32,-0.09333 1.18666,-3.639991 0.32,0.106666 0.33333,0.09333 z" />
  <path
     style="fill:#000000;fill-rule:evenodd;stroke:#000000;stroke-width:0;stroke-linejoin:miter;shape-rendering:geometricPrecision"
     inkscape:connector-curvature="0"
     id="path192"
     d="m 114.62154,21.041433 v 0 -0.346666 -0.333332 h 5.86666 v 0.346666 0.333332 z" />
  <path
     style="stroke:#000000;stroke-width:0.67999828;shape-rendering:auto"
     d="m 114.62154,22.614764 h 5.86666"
     id="line194"
     inkscape:connector-curvature="0" />
  <path
     style="fill:#000000;fill-rule:evenodd;stroke:#000000;stroke-width:0;stroke-linejoin:miter;shape-rendering:geometricPrecision"
     inkscape:connector-curvature="0"
     id="path198"
     d="m 126.59485,25.948087 v 0 l 0.32,-0.106666 0.33333,-0.106666 1.42666,4.426655 -0.32,0.106667 -0.32,0.106666 z" />
  <path
     style="fill:#000000;fill-rule:evenodd;stroke:#000000;stroke-width:0;stroke-linejoin:miter;shape-rendering:geometricPrecision"
     inkscape:connector-curvature="0"
     id="path202"
     d="m 125.42152,38.188057 v 0 l 0.2,0.279999 0.2,0.266666 -7.93332,5.733319 -0.33333,-0.173333 v -0.426665 z" />
  <path
     style="fill:#e69e00;stroke:#e69e00;stroke-width:0.67999828"
     d="m 87.739225,27.293879 a 1.2733301,1.2733301 0 0 1 -1.27333,1.27333 1.2733301,1.2733301 0 0 1 -1.273331,-1.27333 1.2733301,1.2733301 0 0 1 1.273331,-1.27333 1.2733301,1.2733301 0 0 1 1.27333,1.27333 z"
     id="circle135"
     inkscape:connector-curvature="0" />
  <path
     style="stroke:#e69e00;stroke-width:0.67999828;shape-rendering:auto"
     d="M 86.465895,26.680549 V 18.187236"
     id="line138"
     inkscape:connector-curvature="0" />
  <path
     style="stroke:#e69e00;stroke-width:0.9728961;shape-rendering:auto"
     d="M 86.465895,18.187236 H 40.231157"
     id="line140"
     inkscape:connector-curvature="0" />
  <text
     xml:space="preserve"
     style="font-style:normal;font-variant:normal;font-weight:normal;font-stretch:normal;font-size:10.66666698px;line-height:1.25;font-family:Arial;-inkscape-font-specification:Arial;text-align:start;letter-spacing:0px;word-spacing:0px;text-anchor:start;fill:#e69f00;fill-opacity:1;stroke:none"
     x="40.67688"
     y="16.00054"
     id="text1334"><tspan
       sodipodi:role="line"
       id="tspan1332"
       x="40.67688"
       y="16.00054">Losartan</tspan></text>
  <text
     xml:space="preserve"
     style="font-style:normal;font-variant:normal;font-weight:normal;font-stretch:normal;font-size:10.66666698px;line-height:1.25;font-family:Arial;-inkscape-font-specification:Arial;text-align:start;letter-spacing:0px;word-spacing:0px;text-anchor:start;fill:#000000;fill-opacity:1;stroke:none"
     x="56.266998"
     y="90.372993"
     id="text1338"><tspan
       sodipodi:role="line"
       id="tspan1336"
       x="56.266998"
       y="90.372993">\cmpd{losartan}</tspan></text>
</svg>
