<?xml version="1.0" encoding="UTF-8" standalone="no"?>
<svg
   xmlns:dc="http://purl.org/dc/elements/1.1/"
   xmlns:cc="http://creativecommons.org/ns#"
   xmlns:rdf="http://www.w3.org/1999/02/22-rdf-syntax-ns#"
   xmlns:svg="http://www.w3.org/2000/svg"
   xmlns="http://www.w3.org/2000/svg"
   xmlns:sodipodi="http://sodipodi.sourceforge.net/DTD/sodipodi-0.dtd"
   xmlns:inkscape="http://www.inkscape.org/namespaces/inkscape"
   width="364px"
   height="97px"
   viewBox="0 0 364 97"
   style="background-color: #ffffff00"
   version="1.1"
   id="svg146"
   sodipodi:docname="sugars-scope.svg"
   inkscape:version="0.92.4 (5da689c313, 2019-01-14)">
  <metadata
     id="metadata152">
    <rdf:RDF>
      <cc:Work
         rdf:about="">
        <dc:format>image/svg+xml</dc:format>
        <dc:type
           rdf:resource="http://purl.org/dc/dcmitype/StillImage" />
      </cc:Work>
    </rdf:RDF>
  </metadata>
  <defs
     id="defs150" />
  <sodipodi:namedview
     pagecolor="#ffffff"
     bordercolor="#666666"
     borderopacity="1"
     objecttolerance="10"
     gridtolerance="10"
     guidetolerance="10"
     inkscape:pageopacity="0"
     inkscape:pageshadow="2"
     inkscape:window-width="1920"
     inkscape:window-height="1017"
     id="namedview148"
     showgrid="false"
     inkscape:zoom="3.7692308"
     inkscape:cx="164.9828"
     inkscape:cy="17.709043"
     inkscape:window-x="-8"
     inkscape:window-y="-8"
     inkscape:window-maximized="1"
     inkscape:current-layer="svg146" />
  <path
     stroke="none"
     fill="#000000"
     transform="matrix(0.0666667 0 0 0.0666667 -1.55559 -76.3333)"
     d="M 3383.01,1995.09 L 1876.23,1995.09 L 1876.23,1985.09 L 3383.01,1985.09 Z "
     id="path2" />
  <path
     stroke="none"
     fill="#000000"
     transform="matrix(0.0666667 0 0 0.0666667 -1.55559 -76.3333)"
     d="M 3471.3,1990.09 C 3471.3,1990.09 3369.25,2016.6 3369.25,2016.6 C 3369.25,2016.6 3382.01,2001.69 3382.01,1990.09 C 3382.01,1978.05 3369.25,1962.58 3369.25,1962.58 C 3369.25,1962.58 3471.3,1990.09 3471.3,1990.09 C 3471.3,1990.09 3471.3,1990.09 3471.3,1990.09 "
     id="path4" />
  <path
     stroke="#000000"
     stroke-width="1"
     fill="none"
     transform="matrix(0.0666667 0 0 0.0666667 -1.55559 -76.3333)"
     d="M 3471.3,1990.09 C 3471.3,1990.09 3369.25,2016.6 3369.25,2016.6 C 3369.25,2016.6 3382.01,2001.69 3382.01,1990.09 C 3382.01,1978.05 3369.25,1962.58 3369.25,1962.58 C 3369.25,1962.58 3471.3,1990.09 3471.3,1990.09 C 3471.3,1990.09 3471.3,1990.09 3471.3,1990.09 "
     id="path6" />
  <g
     aria-label="H"
     transform="matrix(0.0666667,0,0,0.0666667,301.553,20.1276)"
     style="font-style:normal;font-weight:normal;font-size:160px;font-family:Arial;fill:#000000;stroke:none"
     id="text8">
    <path
       d="M 12.8125,0 V -114.53125 H 27.96875 V -67.5 H 87.5 v -47.03125 h 15.15625 V 0 H 87.5 V -53.984375 H 27.96875 V 0 Z"
       style="font-style:normal;font-weight:normal;font-size:160px;font-family:Arial;fill:#000000;stroke:none"
       id="path959"
       inkscape:connector-curvature="0" />
  </g>
  <g
     aria-label="N"
     transform="matrix(0.0666667,0,0,0.0666667,301.553,30.7942)"
     style="font-style:normal;font-weight:normal;font-size:160px;font-family:Arial;fill:#000000;stroke:none"
     id="text10">
    <path
       d="m 12.1875,0 v -114.53125 h 15.546875 l 60.15625,89.921875 V -114.53125 H 102.42188 V 0 H 86.875 L 26.71875,-90 V 0 Z"
       style="font-style:normal;font-weight:normal;font-size:160px;font-family:Arial;fill:#000000;stroke:none"
       id="path962"
       inkscape:connector-curvature="0" />
  </g>
  <path
     stroke="none"
     fill="#000000"
     transform="matrix(0.0666667 0 0 0.0666667 -1.55559 -76.3333)"
     d="M 4409.48,1887.43 L 4399.27,1893.32 L 4399.27,1662.61 L 4404.38,1659.4 L 4409.48,1662.35 L 4409.48,1887.43 Z "
     id="path12" />
  <path
     stroke="none"
     fill="#000000"
     transform="matrix(0.0666667 0 0 0.0666667 -1.55559 -76.3333)"
     d="M 4604.41,1999.97 L 4604.41,2005.86 L 4598.97,2008.61 L 4399.27,1893.32 L 4409.48,1887.43 L 4604.41,1999.97 Z "
     id="path14" />
  <path
     stroke="none"
     fill="#000000"
     transform="matrix(0.0666667 0 0 0.0666667 -1.55559 -76.3333)"
     d="M 4799.34,1887.43 L 4809.54,1893.32 L 4609.85,2008.61 L 4604.41,2005.86 L 4604.41,1999.97 L 4799.34,1887.43 Z "
     id="path16" />
  <path
     stroke="none"
     fill="#000000"
     transform="matrix(0.0666667 0 0 0.0666667 -1.55559 -76.3333)"
     d="M 4799.34,1662.35 L 4809.54,1656.46 L 4809.54,1893.32 L 4799.34,1887.43 L 4799.34,1662.35 Z "
     id="path18" />
  <path
     stroke="none"
     fill="#000000"
     transform="matrix(0.0666667 0 0 0.0666667 -1.55559 -76.3333)"
     d="M 4683.96,1595.73 L 4689.06,1586.9 L 4809.54,1656.46 L 4799.34,1662.35 L 4683.96,1595.73 Z "
     id="path20" />
  <path
     stroke="none"
     fill="#000000"
     transform="matrix(0.0666667 0 0 0.0666667 -1.55559 -76.3333)"
     d="M 4409.48,1662.35 L 4404.38,1659.4 L 4404.6,1653.38 L 4519.35,1587.13 L 4524.45,1595.97 L 4409.48,1662.35 Z "
     id="path22" />
  <g
     aria-label="OBn"
     transform="matrix(0.0666667,0,0,0.0666667,327.927,61.5909)"
     style="font-style:normal;font-weight:normal;font-size:160px;font-family:Arial;fill:#000000;stroke:none"
     id="text24">
    <path
       d="m 7.734375,-55.78125 q 0,-28.515625 15.3125,-44.60938 15.3125,-16.17187 39.53125,-16.17187 15.859375,0 28.59375,7.57812 12.734375,7.57813 19.375005,21.17188 6.71875,13.515625 6.71875,30.703125 0,17.421875 -7.03125,31.171875 -7.03125,13.75 -19.92188,20.859375 -12.890625,7.03125 -27.8125,7.03125 -16.171875,0 -28.90625,-7.8125 -12.734375,-7.8125 -19.296875,-21.328125 -6.5625,-13.515625 -6.5625,-28.59375 z m 15.625,0.234375 q 0,20.703125 11.09375,32.65625 11.171875,11.875 27.96875,11.875 17.109375,0 28.125,-12.03125 11.093755,-12.03125 11.093755,-34.140625 0,-13.984375 -4.76563,-24.375 -4.6875,-10.46875 -13.828125,-16.171875 -9.0625,-5.781255 -20.390625,-5.781255 -16.09375,0 -27.734375,11.093755 -11.5625,11.015625 -11.5625,36.875 z"
       style="font-style:normal;font-weight:normal;font-size:160px;font-family:Arial;fill:#000000;stroke:none"
       id="path965"
       inkscape:connector-curvature="0" />
    <path
       d="m 136.09375,0 v -114.53125 h 42.96875 q 13.125,0 21.01562,3.51562 7.96875,3.4375 12.42188,10.70313 4.53125,7.1875 4.53125,15.078125 0,7.34375 -3.98438,13.828125 -3.98437,6.484375 -12.03125,10.46875 10.39063,3.046875 15.9375,10.390625 5.625,7.34375 5.625,17.34375 0,8.046875 -3.4375,15 -3.35937,6.875 -8.35937,10.625 -5,3.75 -12.57813,5.703125 Q 190.70312,0 179.76562,0 Z M 151.25,-66.40625 h 24.76562 q 10.07813,0 14.45313,-1.328125 5.78125,-1.71875 8.67187,-5.703125 2.96875,-3.984375 2.96875,-10 0,-5.703125 -2.73437,-10 -2.73438,-4.375 -7.8125,-5.9375 -5.07813,-1.64063 -17.42188,-1.64063 H 151.25 Z m 0,52.890625 h 28.51562 q 7.34375,0 10.3125,-0.546875 5.23438,-0.9375 8.75,-3.125 3.51563,-2.1875 5.78125,-6.328125 2.26563,-4.21875 2.26563,-9.6875 0,-6.40625 -3.28125,-11.09375 -3.28125,-4.765625 -9.14063,-6.640625 -5.78125,-1.953125 -16.71875,-1.953125 H 151.25 Z"
       style="font-style:normal;font-weight:normal;font-size:160px;font-family:Arial;fill:#000000;stroke:none"
       id="path967"
       inkscape:connector-curvature="0" />
    <path
       d="m 241.79687,0 v -82.96875 h 12.65625 v 11.796875 q 9.14063,-13.671875 26.40625,-13.671875 7.5,0 13.75,2.734375 6.32813,2.65625 9.45313,7.03125 3.125,4.375 4.375,10.390625 0.78125,3.90625 0.78125,13.671875 V 0 h -14.0625 v -50.46875 q 0,-8.59375 -1.64063,-12.8125 -1.64062,-4.296875 -5.85937,-6.796875 -4.14063,-2.578125 -9.76563,-2.578125 -8.98437,0 -15.54687,5.703125 -6.48438,5.703125 -6.48438,21.640625 V 0 Z"
       style="font-style:normal;font-weight:normal;font-size:160px;font-family:Arial;fill:#000000;stroke:none"
       id="path969"
       inkscape:connector-curvature="0" />
  </g>
  <path
     stroke="none"
     fill="#000000"
     transform="matrix(0.0666667 0 0 0.0666667 -1.55559 -76.3333)"
     d="M 4947.67,1945.58 L 4923.86,1986.82 L 4915.88,1980.23 L 4937.97,1941.96 L 4947.67,1945.58 Z "
     id="path26" />
  <path
     stroke="none"
     fill="#000000"
     transform="matrix(0.0666667 0 0 0.0666667 -1.55559 -76.3333)"
     d="M 4899.68,1927.68 L 4884.36,1954.21 L 4876.39,1947.62 L 4889.98,1924.06 L 4899.68,1927.68 Z "
     id="path28" />
  <path
     stroke="none"
     fill="#000000"
     transform="matrix(0.0666667 0 0 0.0666667 -1.55559 -76.3333)"
     d="M 4851.69,1909.78 L 4844.87,1921.59 L 4836.89,1915.01 L 4842,1906.17 L 4851.69,1909.78 Z "
     id="path30" />
  <g
     aria-label="BnO"
     transform="matrix(0.0666667,0,0,0.0666667,261.595,61.5584)"
     style="font-style:normal;font-weight:normal;font-size:160px;font-family:Arial;fill:#000000;stroke:none"
     id="text32">
    <path
       d="M 11.71875,0 V -114.53125 H 54.6875 q 13.125,0 21.015625,3.51562 7.96875,3.4375 12.421875,10.70313 4.53125,7.1875 4.53125,15.078125 0,7.34375 -3.984375,13.828125 -3.984375,6.484375 -12.03125,10.46875 10.390625,3.046875 15.9375,10.390625 5.625,7.34375 5.625,17.34375 0,8.046875 -3.4375,15 -3.359375,6.875 -8.359375,10.625 -5,3.75 -12.578125,5.703125 Q 66.328125,0 55.390625,0 Z M 26.875,-66.40625 h 24.765625 q 10.078125,0 14.453125,-1.328125 5.78125,-1.71875 8.671875,-5.703125 2.96875,-3.984375 2.96875,-10 0,-5.703125 -2.734375,-10 -2.734375,-4.375 -7.8125,-5.9375 -5.078125,-1.64063 -17.421875,-1.64063 H 26.875 Z m 0,52.890625 h 28.515625 q 7.34375,0 10.3125,-0.546875 5.234375,-0.9375 8.75,-3.125 3.515625,-2.1875 5.78125,-6.328125 2.265625,-4.21875 2.265625,-9.6875 0,-6.40625 -3.28125,-11.09375 -3.28125,-4.765625 -9.140625,-6.640625 -5.78125,-1.953125 -16.71875,-1.953125 H 26.875 Z"
       style="font-style:normal;font-weight:normal;font-size:160px;font-family:Arial;fill:#000000;stroke:none"
       id="path972"
       inkscape:connector-curvature="0" />
    <path
       d="m 117.42188,0 v -82.96875 h 12.65624 v 11.796875 q 9.14063,-13.671875 26.40625,-13.671875 7.5,0 13.75,2.734375 6.32813,2.65625 9.45313,7.03125 3.125,4.375 4.375,10.390625 0.78125,3.90625 0.78125,13.671875 V 0 h -14.0625 v -50.46875 q 0,-8.59375 -1.64063,-12.8125 -1.64062,-4.296875 -5.85937,-6.796875 -4.14063,-2.578125 -9.76563,-2.578125 -8.98437,0 -15.54687,5.703125 -6.48438,5.703125 -6.48438,21.640625 V 0 Z"
       style="font-style:normal;font-weight:normal;font-size:160px;font-family:Arial;fill:#000000;stroke:none"
       id="path974"
       inkscape:connector-curvature="0" />
    <path
       d="m 203.67187,-55.78125 q 0,-28.515625 15.3125,-44.60938 15.3125,-16.17187 39.53125,-16.17187 15.85938,0 28.59375,7.57812 12.73438,7.57813 19.375,21.17188 6.71875,13.515625 6.71875,30.703125 0,17.421875 -7.03125,31.171875 -7.03125,13.75 -19.92187,20.859375 -12.89063,7.03125 -27.8125,7.03125 -16.17188,0 -28.90625,-7.8125 -12.73438,-7.8125 -19.29688,-21.328125 -6.5625,-13.515625 -6.5625,-28.59375 z m 15.625,0.234375 q 0,20.703125 11.09375,32.65625 11.17188,11.875 27.96875,11.875 17.10938,0 28.125,-12.03125 11.09375,-12.03125 11.09375,-34.140625 0,-13.984375 -4.76562,-24.375 -4.6875,-10.46875 -13.82813,-16.171875 -9.0625,-5.781255 -20.39062,-5.781255 -16.09375,0 -27.73438,11.093755 -11.5625,11.015625 -11.5625,36.875 z"
       style="font-style:normal;font-weight:normal;font-size:160px;font-family:Arial;fill:#000000;stroke:none"
       id="path976"
       inkscape:connector-curvature="0" />
  </g>
  <path
     stroke="#000000"
     stroke-width="10"
     fill="none"
     transform="matrix(0.0666667 0 0 0.0666667 -1.55559 -76.3333)"
     d="M 4404.38,1890.38 C 4400,1882.79 4390.87,1879.84 4384.01,1883.81 C 4377.14,1887.77 4375.13,1897.14 4379.51,1904.73 C 4383.89,1912.32 4381.88,1921.7 4375.01,1925.66 C 4368.15,1929.62 4359.02,1926.68 4354.64,1919.09 C 4350.26,1911.5 4341.14,1908.56 4334.27,1912.52 C 4327.41,1916.48 4325.4,1925.86 4329.78,1933.45 C 4334.16,1941.03 4332.14,1950.41 4325.28,1954.37 C 4318.42,1958.33 4309.29,1955.39 4304.91,1947.8 C 4300.53,1940.21 4291.4,1937.27 4284.54,1941.23 C 4277.68,1945.2 4275.66,1954.57 4280.04,1962.16 "
     id="path34" />
  <path
     stroke="none"
     fill="#000000"
     transform="matrix(0.0666667 0 0 0.0666667 -1.55559 -76.3333)"
     d="M 4184.97,1560.99 L 4222.45,1527.57 L 4404.6,1653.38 L 4404.38,1659.4 L 4399.27,1662.61 L 4184.97,1560.99 Z "
     id="path36" />
  <g
     aria-label="OBn"
     transform="matrix(0.0666667,0,0,0.0666667,301.256,76.9892)"
     style="font-style:normal;font-weight:normal;font-size:160px;font-family:Arial;fill:#000000;stroke:none"
     id="text38">
    <path
       d="m 7.734375,-55.78125 q 0,-28.515625 15.3125,-44.60938 15.3125,-16.17187 39.53125,-16.17187 15.859375,0 28.59375,7.57812 12.734375,7.57813 19.375005,21.17188 6.71875,13.515625 6.71875,30.703125 0,17.421875 -7.03125,31.171875 -7.03125,13.75 -19.92188,20.859375 -12.890625,7.03125 -27.8125,7.03125 -16.171875,0 -28.90625,-7.8125 -12.734375,-7.8125 -19.296875,-21.328125 -6.5625,-13.515625 -6.5625,-28.59375 z m 15.625,0.234375 q 0,20.703125 11.09375,32.65625 11.171875,11.875 27.96875,11.875 17.109375,0 28.125,-12.03125 11.093755,-12.03125 11.093755,-34.140625 0,-13.984375 -4.76563,-24.375 -4.6875,-10.46875 -13.828125,-16.171875 -9.0625,-5.781255 -20.390625,-5.781255 -16.09375,0 -27.734375,11.093755 -11.5625,11.015625 -11.5625,36.875 z"
       style="font-style:normal;font-weight:normal;font-size:160px;font-family:Arial;fill:#000000;stroke:none"
       id="path979"
       inkscape:connector-curvature="0" />
    <path
       d="m 136.09375,0 v -114.53125 h 42.96875 q 13.125,0 21.01562,3.51562 7.96875,3.4375 12.42188,10.70313 4.53125,7.1875 4.53125,15.078125 0,7.34375 -3.98438,13.828125 -3.98437,6.484375 -12.03125,10.46875 10.39063,3.046875 15.9375,10.390625 5.625,7.34375 5.625,17.34375 0,8.046875 -3.4375,15 -3.35937,6.875 -8.35937,10.625 -5,3.75 -12.57813,5.703125 Q 190.70312,0 179.76562,0 Z M 151.25,-66.40625 h 24.76562 q 10.07813,0 14.45313,-1.328125 5.78125,-1.71875 8.67187,-5.703125 2.96875,-3.984375 2.96875,-10 0,-5.703125 -2.73437,-10 -2.73438,-4.375 -7.8125,-5.9375 -5.07813,-1.64063 -17.42188,-1.64063 H 151.25 Z m 0,52.890625 h 28.51562 q 7.34375,0 10.3125,-0.546875 5.23438,-0.9375 8.75,-3.125 3.51563,-2.1875 5.78125,-6.328125 2.26563,-4.21875 2.26563,-9.6875 0,-6.40625 -3.28125,-11.09375 -3.28125,-4.765625 -9.14063,-6.640625 -5.78125,-1.953125 -16.71875,-1.953125 H 151.25 Z"
       style="font-style:normal;font-weight:normal;font-size:160px;font-family:Arial;fill:#000000;stroke:none"
       id="path981"
       inkscape:connector-curvature="0" />
    <path
       d="m 241.79687,0 v -82.96875 h 12.65625 v 11.796875 q 9.14063,-13.671875 26.40625,-13.671875 7.5,0 13.75,2.734375 6.32813,2.65625 9.45313,7.03125 3.125,4.375 4.375,10.390625 0.78125,3.90625 0.78125,13.671875 V 0 h -14.0625 v -50.46875 q 0,-8.59375 -1.64063,-12.8125 -1.64062,-4.296875 -5.85937,-6.796875 -4.14063,-2.578125 -9.76563,-2.578125 -8.98437,0 -15.54687,5.703125 -6.48438,5.703125 -6.48438,21.640625 V 0 Z"
       style="font-style:normal;font-weight:normal;font-size:160px;font-family:Arial;fill:#000000;stroke:none"
       id="path983"
       inkscape:connector-curvature="0" />
  </g>
  <path
     stroke="none"
     fill="#000000"
     transform="matrix(0.0666667 0 0 0.0666667 -1.55559 -76.3333)"
     d="M 4628.22,2158.5 L 4580.6,2158.5 L 4598.97,2008.61 L 4604.41,2005.86 L 4609.85,2008.61 L 4628.22,2158.5 Z "
     id="path40" />
  <g
     aria-label="BnO"
     transform="matrix(0.0666667,0,0,0.0666667,248.204,38.4934)"
     style="font-style:normal;font-weight:normal;font-size:160px;font-family:Arial;fill:#000000;stroke:none"
     id="text42">
    <path
       d="M 11.71875,0 V -114.53125 H 54.6875 q 13.125,0 21.015625,3.51562 7.96875,3.4375 12.421875,10.70313 4.53125,7.1875 4.53125,15.078125 0,7.34375 -3.984375,13.828125 -3.984375,6.484375 -12.03125,10.46875 10.390625,3.046875 15.9375,10.390625 5.625,7.34375 5.625,17.34375 0,8.046875 -3.4375,15 -3.359375,6.875 -8.359375,10.625 -5,3.75 -12.578125,5.703125 Q 66.328125,0 55.390625,0 Z M 26.875,-66.40625 h 24.765625 q 10.078125,0 14.453125,-1.328125 5.78125,-1.71875 8.671875,-5.703125 2.96875,-3.984375 2.96875,-10 0,-5.703125 -2.734375,-10 -2.734375,-4.375 -7.8125,-5.9375 -5.078125,-1.64063 -17.421875,-1.64063 H 26.875 Z m 0,52.890625 h 28.515625 q 7.34375,0 10.3125,-0.546875 5.234375,-0.9375 8.75,-3.125 3.515625,-2.1875 5.78125,-6.328125 2.265625,-4.21875 2.265625,-9.6875 0,-6.40625 -3.28125,-11.09375 -3.28125,-4.765625 -9.140625,-6.640625 -5.78125,-1.953125 -16.71875,-1.953125 H 26.875 Z"
       style="font-style:normal;font-weight:normal;font-size:160px;font-family:Arial;fill:#000000;stroke:none"
       id="path986"
       inkscape:connector-curvature="0" />
    <path
       d="m 117.42188,0 v -82.96875 h 12.65624 v 11.796875 q 9.14063,-13.671875 26.40625,-13.671875 7.5,0 13.75,2.734375 6.32813,2.65625 9.45313,7.03125 3.125,4.375 4.375,10.390625 0.78125,3.90625 0.78125,13.671875 V 0 h -14.0625 v -50.46875 q 0,-8.59375 -1.64063,-12.8125 -1.64062,-4.296875 -5.85937,-6.796875 -4.14063,-2.578125 -9.76563,-2.578125 -8.98437,0 -15.54687,5.703125 -6.48438,5.703125 -6.48438,21.640625 V 0 Z"
       style="font-style:normal;font-weight:normal;font-size:160px;font-family:Arial;fill:#000000;stroke:none"
       id="path988"
       inkscape:connector-curvature="0" />
    <path
       d="m 203.67187,-55.78125 q 0,-28.515625 15.3125,-44.60938 15.3125,-16.17187 39.53125,-16.17187 15.85938,0 28.59375,7.57812 12.73438,7.57813 19.375,21.17188 6.71875,13.515625 6.71875,30.703125 0,17.421875 -7.03125,31.171875 -7.03125,13.75 -19.92187,20.859375 -12.89063,7.03125 -27.8125,7.03125 -16.17188,0 -28.90625,-7.8125 -12.73438,-7.8125 -19.29688,-21.328125 -6.5625,-13.515625 -6.5625,-28.59375 z m 15.625,0.234375 q 0,20.703125 11.09375,32.65625 11.17188,11.875 27.96875,11.875 17.10938,0 28.125,-12.03125 11.09375,-12.03125 11.09375,-34.140625 0,-13.984375 -4.76562,-24.375 -4.6875,-10.46875 -13.82813,-16.171875 -9.0625,-5.781255 -20.39062,-5.781255 -16.09375,0 -27.73438,11.093755 -11.5625,11.015625 -11.5625,36.875 z"
       style="font-style:normal;font-weight:normal;font-size:160px;font-family:Arial;fill:#000000;stroke:none"
       id="path990"
       inkscape:connector-curvature="0" />
  </g>
  <path
     stroke="none"
     fill="#000000"
     transform="matrix(0.0666667 0 0 0.0666667 -1.55559 -76.3333)"
     d="M 4075.97,1623.92 L 4070.87,1615.08 L 4222.45,1527.57 L 4184.97,1560.99 L 4075.97,1623.92 Z "
     id="path44" />
  <path
     stroke="none"
     fill="#000000"
     transform="matrix(0.0666667 0 0 0.0666667 -1.55559 -76.3333)"
     d="M 5316.07,1731.24 L 5308.85,1738.45 L 5283.86,1713.46 L 5291.08,1706.25 L 5316.07,1731.24 Z "
     id="path46" />
  <path
     stroke="#000000"
     stroke-width="10"
     fill="none"
     transform="matrix(0.0666667 0 0 0.0666667 -1.55559 -76.3333)"
     d="M 4804.44,1659.4 C 4808.82,1666.99 4818.14,1669.82 4825.24,1665.72 C 4832.34,1661.62 4834.54,1652.14 4830.16,1644.55 C 4825.78,1636.96 4827.99,1627.47 4835.09,1623.37 C 4842.19,1619.27 4851.51,1622.11 4855.89,1629.69 C 4860.27,1637.28 4869.59,1640.11 4876.69,1636.02 C 4883.79,1631.92 4886,1622.43 4881.62,1614.84 C 4877.24,1607.25 4879.44,1597.77 4886.54,1593.67 C 4893.64,1589.57 4902.96,1592.4 4907.34,1599.99 C 4911.72,1607.58 4921.04,1610.41 4928.14,1606.31 C 4935.24,1602.21 4937.45,1592.72 4933.07,1585.14 C 4928.69,1577.55 4930.89,1568.06 4937.99,1563.96 C 4945.1,1559.86 4954.41,1562.69 4958.8,1570.28 C 4963.18,1577.87 4972.5,1580.7 4979.6,1576.6 C 4986.7,1572.5 4988.9,1563.02 4984.52,1555.43 C 4980.14,1547.84 4982.35,1538.35 4989.45,1534.26 "
     id="path48" />
  <g
     aria-label="R"
     transform="matrix(0.0666667,0,0,0.0666667,353.142,47.9077)"
     style="font-style:normal;font-weight:normal;font-size:160px;font-family:Arial;fill:#000000;stroke:none"
     id="text50">
    <path
       d="m 12.578125,0 v -114.53125 h 50.78125 q 15.3125,0 23.28125,3.125 7.96875,3.04687 12.734375,10.85937 4.76563,7.812505 4.76563,17.26563 0,12.1875 -7.89063,20.546875 -7.890625,8.359375 -24.375,10.625 6.015625,2.890625 9.140625,5.703125 6.640625,6.09375 12.578125,15.234375 L 113.51563,0 H 94.453125 l -15.15625,-23.828125 q -6.640625,-10.3125 -10.9375,-15.78125 -4.296875,-5.46875 -7.734375,-7.65625 -3.359375,-2.1875 -6.875,-3.046875 -2.578125,-0.546875 -8.4375,-0.546875 H 27.734375 V 0 Z m 15.15625,-63.984375 H 60.3125 q 10.390625,0 16.25,-2.109375 5.859375,-2.1875 8.90625,-6.875 3.046875,-4.765625 3.046875,-10.3125 0,-8.125 -5.9375,-13.359375 Q 76.71875,-101.875 63.984375,-101.875 h -36.25 z"
       style="font-style:normal;font-weight:normal;font-size:160px;font-family:Arial;fill:#000000;stroke:none"
       id="path993"
       inkscape:connector-curvature="0" />
  </g>
  <path
     stroke="none"
     fill="#000000"
     transform="matrix(0.0666667 0 0 0.0666667 -1.55559 -76.3333)"
     d="M 4999.01,1547.07 L 5009.93,1540.76 L 5137.85,1597.71 L 5133.7,1607.04 L 4999.01,1547.07 Z "
     id="path52" />
  <path
     stroke="none"
     fill="#000000"
     transform="matrix(0.0666667 0 0 0.0666667 -1.55559 -76.3333)"
     d="M 5281.33,1572.35 L 5273.74,1565.52 L 5297.46,1539.18 L 5305.05,1546 L 5281.33,1572.35 Z "
     id="path54" />
  <path
     stroke="none"
     fill="#000000"
     transform="matrix(0.0666667 0 0 0.0666667 -1.55559 -76.3333)"
     d="M 5328.6,1384.26 L 5319.76,1389.36 L 5301.46,1357.65 L 5310.29,1352.55 L 5328.6,1384.26 Z "
     id="path56" />
  <path
     stroke="none"
     fill="#000000"
     transform="matrix(0.0666667 0 0 0.0666667 -1.55559 -76.3333)"
     d="M 5292.6,1405.04 L 5283.76,1410.15 L 5265.45,1378.44 L 5274.29,1373.34 L 5292.6,1405.04 Z "
     id="path58" />
  <path
     stroke="none"
     fill="#000000"
     transform="matrix(0.0666667 0 0 0.0666667 -1.55559 -76.3333)"
     d="M 5176.87,1277.47 L 5178.99,1287.46 L 5105.76,1303.02 L 5103.63,1293.04 L 5176.87,1277.47 Z "
     id="path60" />
  <path
     stroke="none"
     fill="#000000"
     transform="matrix(0.0666667 0 0 0.0666667 -1.55559 -76.3333)"
     d="M 5014.27,1401.84 L 5024.42,1402.91 L 5009.93,1540.76 L 4999.01,1547.07 L 5014.27,1401.84 Z "
     id="path62" />
  <path
     stroke="none"
     fill="#000000"
     transform="matrix(0.0666667 0 0 0.0666667 -1.55559 -76.3333)"
     d="M 5055.62,1406.19 L 5065.77,1407.25 L 5054.05,1518.75 L 5043.9,1517.69 L 5055.62,1406.19 Z "
     id="path64" />
  <g
     aria-label="N"
     transform="matrix(0.0666667,0,0,0.0666667,342.291,37.0573)"
     style="font-style:normal;font-weight:normal;font-size:160px;font-family:Arial;fill:#000000;stroke:none"
     id="text66">
    <path
       d="m 12.1875,0 v -114.53125 h 15.546875 l 60.15625,89.921875 V -114.53125 H 102.42188 V 0 H 86.875 L 26.71875,-90 V 0 Z"
       style="font-style:normal;font-weight:normal;font-size:160px;font-family:Arial;fill:#000000;stroke:none"
       id="path996"
       inkscape:connector-curvature="0" />
  </g>
  <g
     aria-label="N"
     transform="matrix(0.0666667,0,0,0.0666667,352.595,25.6141)"
     style="font-style:normal;font-weight:normal;font-size:160px;font-family:Arial;fill:#000000;stroke:none"
     id="text68">
    <path
       d="m 12.1875,0 v -114.53125 h 15.546875 l 60.15625,89.921875 V -114.53125 H 102.42188 V 0 H 86.875 L 26.71875,-90 V 0 Z"
       style="font-style:normal;font-weight:normal;font-size:160px;font-family:Arial;fill:#000000;stroke:none"
       id="path999"
       inkscape:connector-curvature="0" />
  </g>
  <g
     aria-label="N"
     transform="matrix(0.0666667,0,0,0.0666667,344.895,12.2788)"
     style="font-style:normal;font-weight:normal;font-size:160px;font-family:Arial;fill:#000000;stroke:none"
     id="text70">
    <path
       d="m 12.1875,0 v -114.53125 h 15.546875 l 60.15625,89.921875 V -114.53125 H 102.42188 V 0 H 86.875 L 26.71875,-90 V 0 Z"
       style="font-style:normal;font-weight:normal;font-size:160px;font-family:Arial;fill:#000000;stroke:none"
       id="path1002"
       inkscape:connector-curvature="0" />
  </g>
  <g
     aria-label="N"
     transform="matrix(0.0666667,0,0,0.0666667,329.834,15.4803)"
     style="font-style:normal;font-weight:normal;font-size:160px;font-family:Arial;fill:#000000;stroke:none"
     id="text72">
    <path
       d="m 12.1875,0 v -114.53125 h 15.546875 l 60.15625,89.921875 V -114.53125 H 102.42188 V 0 H 86.875 L 26.71875,-90 V 0 Z"
       style="font-style:normal;font-weight:normal;font-size:160px;font-family:Arial;fill:#000000;stroke:none"
       id="path1005"
       inkscape:connector-curvature="0" />
  </g>
  <g
     aria-label="H"
     transform="matrix(0.0666667,0,0,0.0666667,56.5533,20.1276)"
     style="font-style:normal;font-weight:normal;font-size:160px;font-family:Arial;fill:#000000;stroke:none"
     id="text74">
    <path
       d="M 12.8125,0 V -114.53125 H 27.96875 V -67.5 H 87.5 v -47.03125 h 15.15625 V 0 H 87.5 V -53.984375 H 27.96875 V 0 Z"
       style="font-style:normal;font-weight:normal;font-size:160px;font-family:Arial;fill:#000000;stroke:none"
       id="path1008"
       inkscape:connector-curvature="0" />
  </g>
  <g
     aria-label="N"
     transform="matrix(0.0666667,0,0,0.0666667,56.5533,30.7942)"
     style="font-style:normal;font-weight:normal;font-size:160px;font-family:Arial;fill:#000000;stroke:none"
     id="text76">
    <path
       d="m 12.1875,0 v -114.53125 h 15.546875 l 60.15625,89.921875 V -114.53125 H 102.42188 V 0 H 86.875 L 26.71875,-90 V 0 Z"
       style="font-style:normal;font-weight:normal;font-size:160px;font-family:Arial;fill:#000000;stroke:none"
       id="path1011"
       inkscape:connector-curvature="0" />
  </g>
  <path
     stroke="none"
     fill="#000000"
     transform="matrix(0.0666667 0 0 0.0666667 -1.55559 -76.3333)"
     d="M 734.479,1887.43 L 724.275,1893.32 L 724.275,1662.61 L 729.377,1659.4 L 734.479,1662.35 L 734.479,1887.43 Z "
     id="path78" />
  <path
     stroke="none"
     fill="#000000"
     transform="matrix(0.0666667 0 0 0.0666667 -1.55559 -76.3333)"
     d="M 929.407,1999.97 L 929.407,2005.86 L 923.968,2008.61 L 724.275,1893.32 L 734.479,1887.43 L 929.407,1999.97 Z "
     id="path80" />
  <path
     stroke="none"
     fill="#000000"
     transform="matrix(0.0666667 0 0 0.0666667 -1.55559 -76.3333)"
     d="M 1124.34,1887.43 L 1134.54,1893.32 L 934.846,2008.61 L 929.407,2005.86 L 929.407,1999.97 L 1124.34,1887.43 Z "
     id="path82" />
  <path
     stroke="none"
     fill="#000000"
     transform="matrix(0.0666667 0 0 0.0666667 -1.55559 -76.3333)"
     d="M 1124.34,1662.35 L 1134.54,1656.46 L 1134.54,1893.32 L 1124.34,1887.43 L 1124.34,1662.35 Z "
     id="path84" />
  <path
     stroke="none"
     fill="#000000"
     transform="matrix(0.0666667 0 0 0.0666667 -1.55559 -76.3333)"
     d="M 1008.96,1595.73 L 1014.06,1586.9 L 1134.54,1656.46 L 1124.34,1662.35 L 1008.96,1595.73 Z "
     id="path86" />
  <path
     stroke="none"
     fill="#000000"
     transform="matrix(0.0666667 0 0 0.0666667 -1.55559 -76.3333)"
     d="M 734.479,1662.35 L 729.377,1659.4 L 729.605,1653.38 L 844.346,1587.13 L 849.448,1595.97 L 734.479,1662.35 Z "
     id="path88" />
  <g
     aria-label="OBn"
     transform="matrix(0.0666667,0,0,0.0666667,82.9271,61.5909)"
     style="font-style:normal;font-weight:normal;font-size:160px;font-family:Arial;fill:#000000;stroke:none"
     id="text90">
    <path
       d="m 7.734375,-55.78125 q 0,-28.515625 15.3125,-44.60938 15.3125,-16.17187 39.53125,-16.17187 15.859375,0 28.59375,7.57812 12.734375,7.57813 19.375005,21.17188 6.71875,13.515625 6.71875,30.703125 0,17.421875 -7.03125,31.171875 -7.03125,13.75 -19.92188,20.859375 -12.890625,7.03125 -27.8125,7.03125 -16.171875,0 -28.90625,-7.8125 -12.734375,-7.8125 -19.296875,-21.328125 -6.5625,-13.515625 -6.5625,-28.59375 z m 15.625,0.234375 q 0,20.703125 11.09375,32.65625 11.171875,11.875 27.96875,11.875 17.109375,0 28.125,-12.03125 11.093755,-12.03125 11.093755,-34.140625 0,-13.984375 -4.76563,-24.375 -4.6875,-10.46875 -13.828125,-16.171875 -9.0625,-5.781255 -20.390625,-5.781255 -16.09375,0 -27.734375,11.093755 -11.5625,11.015625 -11.5625,36.875 z"
       style="font-style:normal;font-weight:normal;font-size:160px;font-family:Arial;fill:#000000;stroke:none"
       id="path1014"
       inkscape:connector-curvature="0" />
    <path
       d="m 136.09375,0 v -114.53125 h 42.96875 q 13.125,0 21.01562,3.51562 7.96875,3.4375 12.42188,10.70313 4.53125,7.1875 4.53125,15.078125 0,7.34375 -3.98438,13.828125 -3.98437,6.484375 -12.03125,10.46875 10.39063,3.046875 15.9375,10.390625 5.625,7.34375 5.625,17.34375 0,8.046875 -3.4375,15 -3.35937,6.875 -8.35937,10.625 -5,3.75 -12.57813,5.703125 Q 190.70312,0 179.76562,0 Z M 151.25,-66.40625 h 24.76562 q 10.07813,0 14.45313,-1.328125 5.78125,-1.71875 8.67187,-5.703125 2.96875,-3.984375 2.96875,-10 0,-5.703125 -2.73437,-10 -2.73438,-4.375 -7.8125,-5.9375 -5.07813,-1.64063 -17.42188,-1.64063 H 151.25 Z m 0,52.890625 h 28.51562 q 7.34375,0 10.3125,-0.546875 5.23438,-0.9375 8.75,-3.125 3.51563,-2.1875 5.78125,-6.328125 2.26563,-4.21875 2.26563,-9.6875 0,-6.40625 -3.28125,-11.09375 -3.28125,-4.765625 -9.14063,-6.640625 -5.78125,-1.953125 -16.71875,-1.953125 H 151.25 Z"
       style="font-style:normal;font-weight:normal;font-size:160px;font-family:Arial;fill:#000000;stroke:none"
       id="path1016"
       inkscape:connector-curvature="0" />
    <path
       d="m 241.79687,0 v -82.96875 h 12.65625 v 11.796875 q 9.14063,-13.671875 26.40625,-13.671875 7.5,0 13.75,2.734375 6.32813,2.65625 9.45313,7.03125 3.125,4.375 4.375,10.390625 0.78125,3.90625 0.78125,13.671875 V 0 h -14.0625 v -50.46875 q 0,-8.59375 -1.64063,-12.8125 -1.64062,-4.296875 -5.85937,-6.796875 -4.14063,-2.578125 -9.76563,-2.578125 -8.98437,0 -15.54687,5.703125 -6.48438,5.703125 -6.48438,21.640625 V 0 Z"
       style="font-style:normal;font-weight:normal;font-size:160px;font-family:Arial;fill:#000000;stroke:none"
       id="path1018"
       inkscape:connector-curvature="0" />
  </g>
  <path
     stroke="none"
     fill="#000000"
     transform="matrix(0.0666667 0 0 0.0666667 -1.55559 -76.3333)"
     d="M 1272.67,1945.58 L 1248.86,1986.82 L 1240.88,1980.23 L 1262.97,1941.96 L 1272.67,1945.58 Z "
     id="path92" />
  <path
     stroke="none"
     fill="#000000"
     transform="matrix(0.0666667 0 0 0.0666667 -1.55559 -76.3333)"
     d="M 1224.68,1927.68 L 1209.36,1954.21 L 1201.39,1947.62 L 1214.98,1924.06 L 1224.68,1927.68 Z "
     id="path94" />
  <path
     stroke="none"
     fill="#000000"
     transform="matrix(0.0666667 0 0 0.0666667 -1.55559 -76.3333)"
     d="M 1176.69,1909.78 L 1169.87,1921.59 L 1161.89,1915.01 L 1167,1906.17 L 1176.69,1909.78 Z "
     id="path96" />
  <g
     aria-label="BnO"
     transform="matrix(0.0666667,0,0,0.0666667,16.5951,61.5584)"
     style="font-style:normal;font-weight:normal;font-size:160px;font-family:Arial;fill:#000000;stroke:none"
     id="text98">
    <path
       d="M 11.71875,0 V -114.53125 H 54.6875 q 13.125,0 21.015625,3.51562 7.96875,3.4375 12.421875,10.70313 4.53125,7.1875 4.53125,15.078125 0,7.34375 -3.984375,13.828125 -3.984375,6.484375 -12.03125,10.46875 10.390625,3.046875 15.9375,10.390625 5.625,7.34375 5.625,17.34375 0,8.046875 -3.4375,15 -3.359375,6.875 -8.359375,10.625 -5,3.75 -12.578125,5.703125 Q 66.328125,0 55.390625,0 Z M 26.875,-66.40625 h 24.765625 q 10.078125,0 14.453125,-1.328125 5.78125,-1.71875 8.671875,-5.703125 2.96875,-3.984375 2.96875,-10 0,-5.703125 -2.734375,-10 -2.734375,-4.375 -7.8125,-5.9375 -5.078125,-1.64063 -17.421875,-1.64063 H 26.875 Z m 0,52.890625 h 28.515625 q 7.34375,0 10.3125,-0.546875 5.234375,-0.9375 8.75,-3.125 3.515625,-2.1875 5.78125,-6.328125 2.265625,-4.21875 2.265625,-9.6875 0,-6.40625 -3.28125,-11.09375 -3.28125,-4.765625 -9.140625,-6.640625 -5.78125,-1.953125 -16.71875,-1.953125 H 26.875 Z"
       style="font-style:normal;font-weight:normal;font-size:160px;font-family:Arial;fill:#000000;stroke:none"
       id="path1021"
       inkscape:connector-curvature="0" />
    <path
       d="m 117.42188,0 v -82.96875 h 12.65624 v 11.796875 q 9.14063,-13.671875 26.40625,-13.671875 7.5,0 13.75,2.734375 6.32813,2.65625 9.45313,7.03125 3.125,4.375 4.375,10.390625 0.78125,3.90625 0.78125,13.671875 V 0 h -14.0625 v -50.46875 q 0,-8.59375 -1.64063,-12.8125 -1.64062,-4.296875 -5.85937,-6.796875 -4.14063,-2.578125 -9.76563,-2.578125 -8.98437,0 -15.54687,5.703125 -6.48438,5.703125 -6.48438,21.640625 V 0 Z"
       style="font-style:normal;font-weight:normal;font-size:160px;font-family:Arial;fill:#000000;stroke:none"
       id="path1023"
       inkscape:connector-curvature="0" />
    <path
       d="m 203.67187,-55.78125 q 0,-28.515625 15.3125,-44.60938 15.3125,-16.17187 39.53125,-16.17187 15.85938,0 28.59375,7.57812 12.73438,7.57813 19.375,21.17188 6.71875,13.515625 6.71875,30.703125 0,17.421875 -7.03125,31.171875 -7.03125,13.75 -19.92187,20.859375 -12.89063,7.03125 -27.8125,7.03125 -16.17188,0 -28.90625,-7.8125 -12.73438,-7.8125 -19.29688,-21.328125 -6.5625,-13.515625 -6.5625,-28.59375 z m 15.625,0.234375 q 0,20.703125 11.09375,32.65625 11.17188,11.875 27.96875,11.875 17.10938,0 28.125,-12.03125 11.09375,-12.03125 11.09375,-34.140625 0,-13.984375 -4.76562,-24.375 -4.6875,-10.46875 -13.82813,-16.171875 -9.0625,-5.781255 -20.39062,-5.781255 -16.09375,0 -27.73438,11.093755 -11.5625,11.015625 -11.5625,36.875 z"
       style="font-style:normal;font-weight:normal;font-size:160px;font-family:Arial;fill:#000000;stroke:none"
       id="path1025"
       inkscape:connector-curvature="0" />
  </g>
  <path
     stroke="#000000"
     stroke-width="10"
     fill="none"
     transform="matrix(0.0666667 0 0 0.0666667 -1.55559 -76.3333)"
     d="M 729.377,1890.38 C 724.996,1882.79 715.869,1879.84 709.007,1883.81 C 702.144,1887.77 700.129,1897.14 704.51,1904.73 C 708.891,1912.32 706.877,1921.7 700.014,1925.66 C 693.151,1929.62 684.025,1926.68 679.644,1919.09 C 675.263,1911.5 666.137,1908.56 659.274,1912.52 C 652.411,1916.48 650.397,1925.86 654.778,1933.45 C 659.158,1941.03 657.144,1950.41 650.281,1954.37 C 643.418,1958.33 634.292,1955.39 629.911,1947.8 C 625.53,1940.21 616.404,1937.27 609.541,1941.23 C 602.678,1945.2 600.664,1954.57 605.045,1962.16 "
     id="path100" />
  <path
     stroke="none"
     fill="#000000"
     transform="matrix(0.0666667 0 0 0.0666667 -1.55559 -76.3333)"
     d="M 509.971,1560.99 L 547.448,1527.57 L 729.605,1653.38 L 729.377,1659.4 L 724.275,1662.61 L 509.971,1560.99 Z "
     id="path102" />
  <g
     aria-label="OBn"
     transform="matrix(0.0666667,0,0,0.0666667,56.2564,76.9892)"
     style="font-style:normal;font-weight:normal;font-size:160px;font-family:Arial;fill:#000000;stroke:none"
     id="text104">
    <path
       d="m 7.734375,-55.78125 q 0,-28.515625 15.3125,-44.60938 15.3125,-16.17187 39.53125,-16.17187 15.859375,0 28.59375,7.57812 12.734375,7.57813 19.375005,21.17188 6.71875,13.515625 6.71875,30.703125 0,17.421875 -7.03125,31.171875 -7.03125,13.75 -19.92188,20.859375 -12.890625,7.03125 -27.8125,7.03125 -16.171875,0 -28.90625,-7.8125 -12.734375,-7.8125 -19.296875,-21.328125 -6.5625,-13.515625 -6.5625,-28.59375 z m 15.625,0.234375 q 0,20.703125 11.09375,32.65625 11.171875,11.875 27.96875,11.875 17.109375,0 28.125,-12.03125 11.093755,-12.03125 11.093755,-34.140625 0,-13.984375 -4.76563,-24.375 -4.6875,-10.46875 -13.828125,-16.171875 -9.0625,-5.781255 -20.390625,-5.781255 -16.09375,0 -27.734375,11.093755 -11.5625,11.015625 -11.5625,36.875 z"
       style="font-style:normal;font-weight:normal;font-size:160px;font-family:Arial;fill:#000000;stroke:none"
       id="path1028"
       inkscape:connector-curvature="0" />
    <path
       d="m 136.09375,0 v -114.53125 h 42.96875 q 13.125,0 21.01562,3.51562 7.96875,3.4375 12.42188,10.70313 4.53125,7.1875 4.53125,15.078125 0,7.34375 -3.98438,13.828125 -3.98437,6.484375 -12.03125,10.46875 10.39063,3.046875 15.9375,10.390625 5.625,7.34375 5.625,17.34375 0,8.046875 -3.4375,15 -3.35937,6.875 -8.35937,10.625 -5,3.75 -12.57813,5.703125 Q 190.70312,0 179.76562,0 Z M 151.25,-66.40625 h 24.76562 q 10.07813,0 14.45313,-1.328125 5.78125,-1.71875 8.67187,-5.703125 2.96875,-3.984375 2.96875,-10 0,-5.703125 -2.73437,-10 -2.73438,-4.375 -7.8125,-5.9375 -5.07813,-1.64063 -17.42188,-1.64063 H 151.25 Z m 0,52.890625 h 28.51562 q 7.34375,0 10.3125,-0.546875 5.23438,-0.9375 8.75,-3.125 3.51563,-2.1875 5.78125,-6.328125 2.26563,-4.21875 2.26563,-9.6875 0,-6.40625 -3.28125,-11.09375 -3.28125,-4.765625 -9.14063,-6.640625 -5.78125,-1.953125 -16.71875,-1.953125 H 151.25 Z"
       style="font-style:normal;font-weight:normal;font-size:160px;font-family:Arial;fill:#000000;stroke:none"
       id="path1030"
       inkscape:connector-curvature="0" />
    <path
       d="m 241.79687,0 v -82.96875 h 12.65625 v 11.796875 q 9.14063,-13.671875 26.40625,-13.671875 7.5,0 13.75,2.734375 6.32813,2.65625 9.45313,7.03125 3.125,4.375 4.375,10.390625 0.78125,3.90625 0.78125,13.671875 V 0 h -14.0625 v -50.46875 q 0,-8.59375 -1.64063,-12.8125 -1.64062,-4.296875 -5.85937,-6.796875 -4.14063,-2.578125 -9.76563,-2.578125 -8.98437,0 -15.54687,5.703125 -6.48438,5.703125 -6.48438,21.640625 V 0 Z"
       style="font-style:normal;font-weight:normal;font-size:160px;font-family:Arial;fill:#000000;stroke:none"
       id="path1032"
       inkscape:connector-curvature="0" />
  </g>
  <path
     stroke="none"
     fill="#000000"
     transform="matrix(0.0666667 0 0 0.0666667 -1.55559 -76.3333)"
     d="M 953.218,2158.5 L 905.596,2158.5 L 923.968,2008.61 L 929.407,2005.86 L 934.846,2008.61 L 953.218,2158.5 Z "
     id="path106" />
  <g
     aria-label="BnO"
     transform="matrix(0.0666667,0,0,0.0666667,3.20355,38.4934)"
     style="font-style:normal;font-weight:normal;font-size:160px;font-family:Arial;fill:#000000;stroke:none"
     id="text108">
    <path
       d="M 11.71875,0 V -114.53125 H 54.6875 q 13.125,0 21.015625,3.51562 7.96875,3.4375 12.421875,10.70313 4.53125,7.1875 4.53125,15.078125 0,7.34375 -3.984375,13.828125 -3.984375,6.484375 -12.03125,10.46875 10.390625,3.046875 15.9375,10.390625 5.625,7.34375 5.625,17.34375 0,8.046875 -3.4375,15 -3.359375,6.875 -8.359375,10.625 -5,3.75 -12.578125,5.703125 Q 66.328125,0 55.390625,0 Z M 26.875,-66.40625 h 24.765625 q 10.078125,0 14.453125,-1.328125 5.78125,-1.71875 8.671875,-5.703125 2.96875,-3.984375 2.96875,-10 0,-5.703125 -2.734375,-10 -2.734375,-4.375 -7.8125,-5.9375 -5.078125,-1.64063 -17.421875,-1.64063 H 26.875 Z m 0,52.890625 h 28.515625 q 7.34375,0 10.3125,-0.546875 5.234375,-0.9375 8.75,-3.125 3.515625,-2.1875 5.78125,-6.328125 2.265625,-4.21875 2.265625,-9.6875 0,-6.40625 -3.28125,-11.09375 -3.28125,-4.765625 -9.140625,-6.640625 -5.78125,-1.953125 -16.71875,-1.953125 H 26.875 Z"
       style="font-style:normal;font-weight:normal;font-size:160px;font-family:Arial;fill:#000000;stroke:none"
       id="path1035"
       inkscape:connector-curvature="0" />
    <path
       d="m 117.42188,0 v -82.96875 h 12.65624 v 11.796875 q 9.14063,-13.671875 26.40625,-13.671875 7.5,0 13.75,2.734375 6.32813,2.65625 9.45313,7.03125 3.125,4.375 4.375,10.390625 0.78125,3.90625 0.78125,13.671875 V 0 h -14.0625 v -50.46875 q 0,-8.59375 -1.64063,-12.8125 -1.64062,-4.296875 -5.85937,-6.796875 -4.14063,-2.578125 -9.76563,-2.578125 -8.98437,0 -15.54687,5.703125 -6.48438,5.703125 -6.48438,21.640625 V 0 Z"
       style="font-style:normal;font-weight:normal;font-size:160px;font-family:Arial;fill:#000000;stroke:none"
       id="path1037"
       inkscape:connector-curvature="0" />
    <path
       d="m 203.67187,-55.78125 q 0,-28.515625 15.3125,-44.60938 15.3125,-16.17187 39.53125,-16.17187 15.85938,0 28.59375,7.57812 12.73438,7.57813 19.375,21.17188 6.71875,13.515625 6.71875,30.703125 0,17.421875 -7.03125,31.171875 -7.03125,13.75 -19.92187,20.859375 -12.89063,7.03125 -27.8125,7.03125 -16.17188,0 -28.90625,-7.8125 -12.73438,-7.8125 -19.29688,-21.328125 -6.5625,-13.515625 -6.5625,-28.59375 z m 15.625,0.234375 q 0,20.703125 11.09375,32.65625 11.17188,11.875 27.96875,11.875 17.10938,0 28.125,-12.03125 11.09375,-12.03125 11.09375,-34.140625 0,-13.984375 -4.76562,-24.375 -4.6875,-10.46875 -13.82813,-16.171875 -9.0625,-5.781255 -20.39062,-5.781255 -16.09375,0 -27.73438,11.093755 -11.5625,11.015625 -11.5625,36.875 z"
       style="font-style:normal;font-weight:normal;font-size:160px;font-family:Arial;fill:#000000;stroke:none"
       id="path1039"
       inkscape:connector-curvature="0" />
  </g>
  <path
     stroke="none"
     fill="#000000"
     transform="matrix(0.0666667 0 0 0.0666667 -1.55559 -76.3333)"
     d="M 400.974,1623.92 L 395.871,1615.08 L 547.448,1527.57 L 509.971,1560.99 L 400.974,1623.92 Z "
     id="path110" />
  <g
     aria-label="O"
     transform="matrix(0.0666667,0,0,0.0666667,82.8808,30.821)"
     style="font-style:normal;font-weight:normal;font-size:160px;font-family:Arial;fill:#000000;stroke:none"
     id="text112">
    <path
       d="m 7.734375,-55.78125 q 0,-28.515625 15.3125,-44.60938 15.3125,-16.17187 39.53125,-16.17187 15.859375,0 28.59375,7.57812 12.734375,7.57813 19.375005,21.17188 6.71875,13.515625 6.71875,30.703125 0,17.421875 -7.03125,31.171875 -7.03125,13.75 -19.92188,20.859375 -12.890625,7.03125 -27.8125,7.03125 -16.171875,0 -28.90625,-7.8125 -12.734375,-7.8125 -19.296875,-21.328125 -6.5625,-13.515625 -6.5625,-28.59375 z m 15.625,0.234375 q 0,20.703125 11.09375,32.65625 11.171875,11.875 27.96875,11.875 17.109375,0 28.125,-12.03125 11.093755,-12.03125 11.093755,-34.140625 0,-13.984375 -4.76563,-24.375 -4.6875,-10.46875 -13.828125,-16.171875 -9.0625,-5.781255 -20.390625,-5.781255 -16.09375,0 -27.734375,11.093755 -11.5625,11.015625 -11.5625,36.875 z"
       style="font-style:normal;font-weight:normal;font-size:160px;font-family:Arial;fill:#000000;stroke:none"
       id="path1042"
       inkscape:connector-curvature="0" />
  </g>
  <path
     stroke="none"
     fill="#000000"
     transform="matrix(0.0666667 0 0 0.0666667 -1.55559 -76.3333)"
     d="M 1241.62,1564.82 L 1246.72,1573.66 L 1111.27,1651.86 L 1106.17,1643.02 L 1241.62,1564.82 Z "
     id="path114" />
  <path
     stroke="none"
     fill="#000000"
     transform="matrix(0.0666667 0 0 0.0666667 -1.55559 -76.3333)"
     d="M 1262.33,1600.7 L 1267.44,1609.54 L 1131.99,1687.74 L 1126.89,1678.9 L 1262.33,1600.7 Z "
     id="path116" />
  <g
     aria-label="1)"
     transform="matrix(0.0666667,0,0,0.0666667,132.611,32.1667)"
     style="font-style:normal;font-weight:normal;font-size:160px;font-family:Arial;fill:#000000;stroke:none"
     id="text118">
    <path
       d="m 59.609375,0 h -14.0625 v -89.609375 q -5.078125,4.84375 -13.359375,9.6875 -8.203125,4.84375 -14.765625,7.265625 V -86.25 q 11.796875,-5.546875 20.625,-13.4375 8.828125,-7.89063 12.5,-15.3125 h 9.0625 z"
       style="font-style:normal;font-weight:normal;font-size:160px;font-family:Arial;fill:#000000;stroke:none"
       id="path1045"
       inkscape:connector-curvature="0" />
    <path
       d="M 108.82813,33.671875 H 98.75 q 23.35938,-37.5 23.35938,-75.078125 0,-14.6875 -3.35938,-29.140625 -2.65625,-11.71875 -7.42187,-22.5 -3.04688,-7.031255 -12.57813,-23.437505 h 10.07813 q 14.6875,19.60938 21.71874,39.375005 6.01563,17.03125 6.01563,35.625 0,21.09375 -8.125,40.78125 -8.04687,19.6875 -19.60937,34.375 z"
       style="font-style:normal;font-weight:normal;font-size:160px;font-family:Arial;fill:#000000;stroke:none"
       id="path1047"
       inkscape:connector-curvature="0" />
  </g>
  <g
     aria-label="Cp"
     transform="matrix(0.0666667,0,0,0.0666667,145.059,32.1667)"
     style="font-style:normal;font-weight:normal;font-size:160px;font-family:Arial;fill:#000000;stroke:none"
     id="text120">
    <path
       d="m 94.0625,-40.15625 15.15625,3.828125 Q 104.45313,-17.65625 92.03125,-7.8125 79.6875,1.953125 61.796875,1.953125 q -18.515625,0 -30.15625,-7.5 -11.5625,-7.578125 -17.65625,-21.875 Q 7.96875,-41.71875 7.96875,-58.125 q 0,-17.890625 6.796875,-31.171875 6.875,-13.359375 19.453125,-20.234375 12.65625,-6.95313 27.8125,-6.95313 17.1875,0 28.90625,8.75 11.71875,8.750005 16.32813,24.60938 l -14.92188,3.515625 q -3.984375,-12.5 -11.5625,-18.203125 -7.578125,-5.70313 -19.0625,-5.70313 -13.203125,0 -22.109375,6.32813 -8.828125,6.328125 -12.421875,17.03125 -3.59375,10.625 -3.59375,21.953125 0,14.609375 4.21875,25.546875 4.296875,10.859375 13.28125,16.25 8.984375,5.390625 19.453125,5.390625 12.734375,0 21.5625,-7.34375 8.828125,-7.34375 11.953125,-21.796875 z"
       style="font-style:normal;font-weight:normal;font-size:160px;font-family:Arial;fill:#000000;stroke:none"
       id="path1050"
       inkscape:connector-curvature="0" />
    <path
       d="M 126.17188,31.796875 V -82.96875 h 12.81249 v 10.78125 q 4.53125,-6.328125 10.23438,-9.453125 5.70312,-3.203125 13.82812,-3.203125 10.625,0 18.75,5.46875 8.125,5.46875 12.26563,15.46875 4.14062,9.921875 4.14062,21.796875 0,12.734375 -4.60937,22.96875 -4.53125,10.15625 -13.28125,15.625 Q 171.64062,1.875 162.03125,1.875 155,1.875 149.375,-1.09375 q -5.54688,-2.96875 -9.14063,-7.5 v 40.390625 z m 12.73437,-72.8125 q 0,16.015625 6.48437,23.671875 6.48438,7.65625 15.70313,7.65625 9.375,0 16.01562,-7.890625 6.71875,-7.96875 6.71875,-24.609375 0,-15.859375 -6.5625,-23.75 -6.48437,-7.890625 -15.54687,-7.890625 -8.98438,0 -15.9375,8.4375 -6.875,8.359375 -6.875,24.375 z"
       style="font-style:normal;font-weight:normal;font-size:160px;font-family:Arial;fill:#000000;stroke:none"
       id="path1052"
       inkscape:connector-curvature="0" />
  </g>
  <g
     aria-label="2"
     transform="matrix(0.0666667,0,0,0.0666667,158.695,34.4333)"
     style="font-style:normal;font-weight:normal;font-size:120px;font-family:Arial;fill:#000000;stroke:none"
     id="text122">
    <path
       d="M 60.410156,-10.136719 V 0 H 3.6328125 Q 3.515625,-3.8085938 4.8632812,-7.3242187 7.03125,-13.125 11.777344,-18.75 q 4.804687,-5.625 13.828125,-13.007812 14.003906,-11.484375 18.925781,-18.164063 4.921875,-6.738281 4.921875,-12.714844 0,-6.269531 -4.511719,-10.546875 -4.453125,-4.335937 -11.660156,-4.335937 -7.617188,0 -12.1875,4.570312 -4.570313,4.570313 -4.628906,12.65625 L 5.625,-61.40625 Q 6.7382812,-73.535156 14.003906,-79.863281 21.269531,-86.25 33.515625,-86.25 q 12.363281,0 19.570312,6.855469 7.207032,6.855469 7.207032,16.992187 0,5.15625 -2.109375,10.136719 -2.109375,4.980469 -7.03125,10.488281 -4.863282,5.507813 -16.230469,15.117188 -9.492188,7.96875 -12.1875,10.839843 -2.695313,2.8125 -4.453125,5.683594 z"
       style="font-style:normal;font-weight:normal;font-size:120px;font-family:Arial;fill:#000000;stroke:none"
       id="path1055"
       inkscape:connector-curvature="0" />
  </g>
  <g
     aria-label="Zr(H)Cl"
     transform="matrix(0.0666667,0,0,0.0666667,163.144,32.1667)"
     style="font-style:normal;font-weight:normal;font-size:160px;font-family:Arial;fill:#000000;stroke:none"
     id="text124">
    <path
       d="M 3.203125,0 V -14.0625 L 61.875,-87.421875 q 6.25,-7.8125 11.875,-13.593755 H 9.84375 v -13.51562 H 91.875 v 13.51562 L 27.578125,-21.5625 20.625,-13.515625 H 93.75 V 0 Z"
       style="font-style:normal;font-weight:normal;font-size:160px;font-family:Arial;fill:#000000;stroke:none"
       id="path1058"
       inkscape:connector-curvature="0" />
    <path
       d="m 108.20313,0 v -82.96875 h 12.65625 v 12.578125 q 4.84375,-8.828125 8.90624,-11.640625 4.14063,-2.8125 9.0625,-2.8125 7.10938,0 14.45313,4.53125 l -4.84375,13.046875 q -5.15625,-3.046875 -10.3125,-3.046875 -4.60938,0 -8.28125,2.8125 -3.67187,2.734375 -5.23437,7.65625 -2.34375,7.5 -2.34375,16.40625 V 0 Z"
       style="font-style:normal;font-weight:normal;font-size:160px;font-family:Arial;fill:#000000;stroke:none"
       id="path1060"
       inkscape:connector-curvature="0" />
    <path
       d="m 188.67187,33.671875 q -11.64062,-14.6875 -19.6875,-34.375 -8.04687,-19.6875 -8.04687,-40.78125 0,-18.59375 6.01562,-35.625 7.03125,-19.765625 21.71875,-39.375005 H 198.75 q -9.45313,16.25 -12.5,23.20313 -4.76563,10.78125 -7.5,22.5 -3.35938,14.609375 -3.35938,29.375 0,37.578125 23.35938,75.078125 z"
       style="font-style:normal;font-weight:normal;font-size:160px;font-family:Arial;fill:#000000;stroke:none"
       id="path1062"
       inkscape:connector-curvature="0" />
    <path
       d="m 217.5,0 v -114.53125 h 15.15625 V -67.5 h 59.53125 v -47.03125 h 15.15625 V 0 H 292.1875 V -53.984375 H 232.65625 V 0 Z"
       style="font-style:normal;font-weight:normal;font-size:160px;font-family:Arial;fill:#000000;stroke:none"
       id="path1064"
       inkscape:connector-curvature="0" />
    <path
       d="M 340.07812,33.671875 H 330 q 23.35937,-37.5 23.35937,-75.078125 0,-14.6875 -3.35937,-29.140625 -2.65625,-11.71875 -7.42188,-22.5 Q 339.53125,-100.07813 330,-116.48438 h 10.07812 q 14.6875,19.60938 21.71875,39.375005 6.01563,17.03125 6.01563,35.625 0,21.09375 -8.125,40.78125 -8.04688,19.6875 -19.60938,34.375 z"
       style="font-style:normal;font-weight:normal;font-size:160px;font-family:Arial;fill:#000000;stroke:none"
       id="path1066"
       inkscape:connector-curvature="0" />
    <path
       d="m 467.8125,-40.15625 15.15625,3.828125 q -4.76563,18.671875 -17.1875,28.515625 -12.34375,9.765625 -30.23438,9.765625 -18.51562,0 -30.15625,-7.5 -11.5625,-7.578125 -17.65625,-21.875 -6.01562,-14.296875 -6.01562,-30.703125 0,-17.890625 6.79687,-31.171875 6.875,-13.359375 19.45313,-20.234375 12.65625,-6.95313 27.8125,-6.95313 17.1875,0 28.90625,8.75 11.71875,8.750005 16.32812,24.60938 l -14.92187,3.515625 q -3.98438,-12.5 -11.5625,-18.203125 -7.57813,-5.70313 -19.0625,-5.70313 -13.20313,0 -22.10938,6.32813 -8.82812,6.328125 -12.42187,17.03125 -3.59375,10.625 -3.59375,21.953125 0,14.609375 4.21875,25.546875 4.29687,10.859375 13.28125,16.25 8.98437,5.390625 19.45312,5.390625 12.73438,0 21.5625,-7.34375 8.82813,-7.34375 11.95313,-21.796875 z"
       style="font-style:normal;font-weight:normal;font-size:160px;font-family:Arial;fill:#000000;stroke:none"
       id="path1068"
       inkscape:connector-curvature="0" />
    <path
       d="m 499.60937,0 v -114.53125 h 14.0625 V 0 Z"
       style="font-style:normal;font-weight:normal;font-size:160px;font-family:Arial;fill:#000000;stroke:none"
       id="path1070"
       inkscape:connector-curvature="0" />
  </g>
  <g
     aria-label="2)"
     transform="matrix(0.0666667,0,0,0.0666667,132.611,50.1667)"
     style="font-style:normal;font-weight:normal;font-size:160px;font-family:Arial;fill:#000000;stroke:none"
     id="text126">
    <path
       d="M 80.546875,-13.515625 V 0 H 4.84375 Q 4.6875,-5.078125 6.484375,-9.765625 9.375,-17.5 15.703125,-25 q 6.40625,-7.5 18.4375,-17.34375 Q 52.8125,-57.65625 59.375,-66.5625 q 6.5625,-8.984375 6.5625,-16.953125 0,-8.359375 -6.015625,-14.0625 -5.9375,-5.781255 -15.546875,-5.781255 -10.15625,0 -16.25,6.093755 -6.09375,6.09375 -6.171875,16.875 L 7.5,-81.875 Q 8.984375,-98.046875 18.671875,-106.48438 28.359375,-115 44.6875,-115 q 16.484375,0 26.09375,9.14062 9.609375,9.14063 9.609375,22.656255 0,6.875 -2.8125,13.515625 -2.8125,6.640625 -9.375,13.984375 -6.484375,7.34375 -21.640625,20.15625 -12.65625,10.625 -16.25,14.453125 -3.59375,3.75 -5.9375,7.578125 z"
       style="font-style:normal;font-weight:normal;font-size:160px;font-family:Arial;fill:#000000;stroke:none"
       id="path1073"
       inkscape:connector-curvature="0" />
    <path
       d="M 108.82813,33.671875 H 98.75 q 23.35938,-37.5 23.35938,-75.078125 0,-14.6875 -3.35938,-29.140625 -2.65625,-11.71875 -7.42187,-22.5 -3.04688,-7.031255 -12.57813,-23.437505 h 10.07813 q 14.6875,19.60938 21.71874,39.375005 6.01563,17.03125 6.01563,35.625 0,21.09375 -8.125,40.78125 -8.04687,19.6875 -19.60937,34.375 z"
       style="font-style:normal;font-weight:normal;font-size:160px;font-family:Arial;fill:#000000;stroke:none"
       id="path1075"
       inkscape:connector-curvature="0" />
  </g>
  <g
     aria-label="TMSN"
     transform="matrix(0.0666667,0,0,0.0666667,145.059,50.1667)"
     style="font-style:normal;font-weight:normal;font-size:160px;font-family:Arial;fill:#000000;stroke:none"
     id="text128">
    <path
       d="M 41.484375,0 V -101.01563 H 3.75 v -13.51562 h 90.78125 v 13.51562 H 56.640625 V 0 Z"
       style="font-style:normal;font-weight:normal;font-size:160px;font-family:Arial;fill:#000000;stroke:none"
       id="path1078"
       inkscape:connector-curvature="0" />
    <path
       d="M 109.6875,0 V -114.53125 H 132.5 l 27.10937,81.09375 q 3.75,11.328125 5.46875,16.953125 1.95313,-6.25 6.09375,-18.359375 l 27.42188,-79.6875 h 20.39062 V 0 H 204.375 V -95.859375 L 171.09375,0 H 157.42187 L 124.29688,-97.5 V 0 Z"
       style="font-style:normal;font-weight:normal;font-size:160px;font-family:Arial;fill:#000000;stroke:none"
       id="path1080"
       inkscape:connector-curvature="0" />
    <path
       d="m 238.4375,-36.796875 14.29687,-1.25 q 1.01563,8.59375 4.6875,14.140625 3.75,5.46875 11.5625,8.90625 7.8125,3.359375 17.57813,3.359375 8.67187,0 15.3125,-2.578125 6.64062,-2.578125 9.84375,-7.03125 Q 315,-25.78125 315,-31.09375 q 0,-5.390625 -3.125,-9.375 -3.125,-4.0625 -10.3125,-6.796875 Q 296.95312,-49.0625 281.17187,-52.8125 265.39062,-56.640625 259.0625,-60 q -8.20313,-4.296875 -12.26563,-10.625 -3.98437,-6.40625 -3.98437,-14.296875 0,-8.671875 4.92187,-16.171875 4.92188,-7.57813 14.375,-11.48438 9.45313,-3.90625 21.01563,-3.90625 12.73437,0 22.42187,4.14063 9.76563,4.0625 15,12.03125 5.23438,7.96875 5.625,18.046875 l -14.53125,1.09375 q -1.17187,-10.859375 -7.96875,-16.40625 -6.71875,-5.546875 -19.92187,-5.546875 -13.75,0 -20.07813,5.078125 -6.25,5 -6.25,12.109375 0,6.171875 4.45313,10.15625 4.375,3.984375 22.8125,8.203125 18.51562,4.140625 25.39062,7.265625 10,4.609375 14.76563,11.71875 4.76562,7.03125 4.76562,16.25 0,9.140625 -5.23437,17.265625 -5.23438,8.046875 -15.07813,12.578125 -9.76562,4.453125 -22.03125,4.453125 -15.54687,0 -26.09375,-4.53125 -10.46875,-4.53125 -16.48437,-13.59375 -5.9375,-9.140625 -6.25,-20.625 z"
       style="font-style:normal;font-weight:normal;font-size:160px;font-family:Arial;fill:#000000;stroke:none"
       id="path1082"
       inkscape:connector-curvature="0" />
    <path
       d="m 350.3125,0 v -114.53125 h 15.54687 l 60.15625,89.921875 v -89.921875 h 14.53125 V 0 H 425 L 364.84375,-90 V 0 Z"
       style="font-style:normal;font-weight:normal;font-size:160px;font-family:Arial;fill:#000000;stroke:none"
       id="path1084"
       inkscape:connector-curvature="0" />
  </g>
  <g
     aria-label="3,"
     transform="matrix(0.0666667,0,0,0.0666667,175.278,52.4333)"
     style="font-style:normal;font-weight:normal;font-size:120px;font-family:Arial;fill:#000000;stroke:none"
     id="text130">
    <path
       d="m 5.0390625,-22.675781 10.5468755,-1.40625 q 1.816406,8.964843 6.152343,12.949218 4.394531,3.9257818 10.664063,3.9257818 7.441406,0 12.539062,-5.1562498 5.15625,-5.15625 5.15625,-12.773438 0,-7.265625 -4.746094,-11.953125 -4.746093,-4.746093 -12.070312,-4.746093 -2.988281,0 -7.441406,1.171875 l 1.171875,-9.257813 q 1.054687,0.117188 1.699218,0.117188 6.738282,0 12.128907,-3.515625 5.390625,-3.515625 5.390625,-10.839844 0,-5.800781 -3.925782,-9.609375 -3.925781,-3.808594 -10.136718,-3.808594 -6.152344,0 -10.253907,3.867188 -4.101562,3.867187 -5.273437,11.601562 l -10.546875,-1.875 Q 8.0273438,-74.589844 14.882813,-80.390625 21.738281,-86.25 31.933594,-86.25 q 7.03125,0 12.949218,3.046875 5.917969,2.988281 9.023438,8.203125 3.164062,5.214844 3.164062,11.074219 0,5.566406 -2.988281,10.136719 -2.988281,4.570312 -8.847656,7.265625 7.617187,1.757812 11.835937,7.324218 4.21875,5.507813 4.21875,13.828125 0,11.25 -8.203125,19.1015628 -8.203125,7.7929687 -20.742187,7.7929687 -11.308594,0 -18.808594,-6.7382812 Q 6.09375,-11.953125 5.0390625,-22.675781 Z"
       style="font-style:normal;font-weight:normal;font-size:120px;font-family:Arial;fill:#000000;stroke:none"
       id="path1087"
       inkscape:connector-curvature="0" />
    <path
       d="M 77.460937,0 V -12.011719 H 89.472656 V 0 q 0,6.6210937 -2.34375,10.664063 -2.34375,4.101562 -7.441406,6.328124 L 76.757812,12.480469 Q 80.097656,11.015625 81.679687,8.1445313 83.261719,5.3320312 83.4375,0 Z"
       style="font-style:normal;font-weight:normal;font-size:120px;font-family:Arial;fill:#000000;stroke:none"
       id="path1089"
       inkscape:connector-curvature="0" />
  </g>
  <g
     transform="matrix(0.0666667 0 0 0.0666667 181.95 50.1667)"
     style="font-style:normal;font-weight:normal;font-size:160px;font-family:Arial;fill:#000000;stroke:none"
     id="text132" />
  <g
     aria-label="RNC"
     transform="matrix(0.0666667,0,0,0.0666667,184.913,50.1667)"
     style="font-style:normal;font-weight:normal;font-size:160px;font-family:Arial;fill:#000000;stroke:none"
     id="text134">
    <path
       d="m 12.578125,0 v -114.53125 h 50.78125 q 15.3125,0 23.28125,3.125 7.96875,3.04687 12.734375,10.85937 4.76563,7.812505 4.76563,17.26563 0,12.1875 -7.89063,20.546875 -7.890625,8.359375 -24.375,10.625 6.015625,2.890625 9.140625,5.703125 6.640625,6.09375 12.578125,15.234375 L 113.51563,0 H 94.453125 l -15.15625,-23.828125 q -6.640625,-10.3125 -10.9375,-15.78125 -4.296875,-5.46875 -7.734375,-7.65625 -3.359375,-2.1875 -6.875,-3.046875 -2.578125,-0.546875 -8.4375,-0.546875 H 27.734375 V 0 Z m 15.15625,-63.984375 H 60.3125 q 10.390625,0 16.25,-2.109375 5.859375,-2.1875 8.90625,-6.875 3.046875,-4.765625 3.046875,-10.3125 0,-8.125 -5.9375,-13.359375 Q 76.71875,-101.875 63.984375,-101.875 h -36.25 z"
       style="font-style:normal;font-weight:normal;font-size:160px;font-family:Arial;fill:#000000;stroke:none"
       id="path1093"
       inkscape:connector-curvature="0" />
    <path
       d="m 127.8125,0 v -114.53125 h 15.54687 l 60.15625,89.921875 v -89.921875 h 14.53125 V 0 H 202.5 L 142.34375,-90 V 0 Z"
       style="font-style:normal;font-weight:normal;font-size:160px;font-family:Arial;fill:#000000;stroke:none"
       id="path1095"
       inkscape:connector-curvature="0" />
    <path
       d="m 325.3125,-40.15625 15.15625,3.828125 q -4.76563,18.671875 -17.1875,28.515625 -12.34375,9.765625 -30.23438,9.765625 -18.51562,0 -30.15625,-7.5 -11.5625,-7.578125 -17.65625,-21.875 -6.01562,-14.296875 -6.01562,-30.703125 0,-17.890625 6.79687,-31.171875 6.875,-13.359375 19.45313,-20.234375 12.65625,-6.95313 27.8125,-6.95313 17.1875,0 28.90625,8.75 11.71875,8.750005 16.32812,24.60938 l -14.92187,3.515625 q -3.98438,-12.5 -11.5625,-18.203125 -7.57813,-5.70313 -19.0625,-5.70313 -13.20313,0 -22.10938,6.32813 -8.82812,6.328125 -12.42187,17.03125 -3.59375,10.625 -3.59375,21.953125 0,14.609375 4.21875,25.546875 4.29687,10.859375 13.28125,16.25 8.98437,5.390625 19.45312,5.390625 12.73438,0 21.5625,-7.34375 8.82813,-7.34375 11.95313,-21.796875 z"
       style="font-style:normal;font-weight:normal;font-size:160px;font-family:Arial;fill:#000000;stroke:none"
       id="path1097"
       inkscape:connector-curvature="0" />
  </g>
  <text
     x="206.26219"
     y="81.182007"
     font-style="normal"
     font-weight="normal"
     font-size="160px"
     id="text136"
     style="font-style:normal;font-weight:normal;font-size:10.66667175px;font-family:Arial;fill:#e69f00;stroke:none;stroke-width:0.0666667">produkty gwne</text>
  <text
     x="0"
     y="0"
     transform="matrix(0.0666667,0,0,0.0666667,221.568,86.9167)"
     font-style="normal"
     font-weight="normal"
     font-size="160px"
     id="text138"
     style="font-style:normal;font-weight:normal;font-size:160px;font-family:Arial;fill:#e69f00;stroke:none" />
  <path
     d="m 322.58857,85.870757 a 1.7953476,1.7953476 0 1 0 3.59067,0 1.7953476,1.7953476 0 1 0 -3.59067,0 z"
     id="path140"
     inkscape:connector-curvature="0"
     style="fill:#e69f00;stroke:none;stroke-width:0.0666667" />
  <path
     d="m 324.13791,86.265423 -118.15707,0 v -0.666667 l 118.15707,0 z"
     id="path142"
     inkscape:connector-curvature="0"
     style="fill:#e69f00;stroke:none;stroke-width:0.0666667"
     sodipodi:nodetypes="ccccc" />
  <text
     xml:space="preserve"
     style="font-style:normal;font-weight:normal;font-size:10.66666698px;line-height:1.25;font-family:sans-serif;text-align:start;letter-spacing:0px;word-spacing:0px;text-anchor:start;fill:#000000;fill-opacity:1;stroke:none"
     x="89.07814"
     y="82.070946"
     id="text1238-3"><tspan
       sodipodi:role="line"
       id="tspan1236-1"
       x="89.07814"
       y="82.070946">\iupac{\cip{5R}}: \cmpd{glu-lactam}, \enquote{gluko}</tspan></text>
  <text
     xml:space="preserve"
     style="font-style:normal;font-weight:normal;font-size:10.66666698px;line-height:1.25;font-family:sans-serif;text-align:start;letter-spacing:0px;word-spacing:0px;text-anchor:start;fill:#000000;fill-opacity:1;stroke:none"
     x="89.07814"
     y="94.238258"
     id="text1285"><tspan
       sodipodi:role="line"
       id="tspan1283"
       x="89.07814"
       y="94.238258">\iupac{\cip{5S}}: \cmpd{gal-lactam}, \enquote{galakto}</tspan></text>
  <text
     xml:space="preserve"
     style="font-style:normal;font-weight:normal;font-size:10.66666698px;line-height:1.25;font-family:sans-serif;text-align:start;letter-spacing:0px;word-spacing:0px;text-anchor:start;fill:#000000;fill-opacity:1;stroke:none"
     x="334.07803"
     y="82.070946"
     id="text1238-3-0"><tspan
       sodipodi:role="line"
       id="tspan1236-1-3"
       x="334.07803"
       y="82.070946">\iupac{\cip{2R,5R}}: \cmpd{glu-tet.cy}</tspan></text>
  <text
     xml:space="preserve"
     style="font-style:normal;font-weight:normal;font-size:10.66666698px;line-height:1.25;font-family:sans-serif;text-align:start;letter-spacing:0px;word-spacing:0px;text-anchor:start;fill:#000000;fill-opacity:1;stroke:none"
     x="334.07803"
     y="94.238258"
     id="text1285-1"><tspan
       sodipodi:role="line"
       id="tspan1283-0"
       x="334.07803"
       y="94.238258">\iupac{\cip{2S,5S}}: \cmpd{gal-tet.cy}</tspan></text>
  <g
     aria-label="2"
     style="font-style:normal;font-weight:normal;font-size:5.33333349px;line-height:1.25;font-family:sans-serif;text-align:start;letter-spacing:0px;word-spacing:0px;text-anchor:start;fill:#e69f00;fill-opacity:1;stroke:none"
     id="text949"
     transform="translate(289.44897,61.020408)">
    <path
       d="m 25.860597,-21.591837 h -2.625 v -0.544271 q 0.273437,-0.234375 0.546875,-0.46875 0.276042,-0.234375 0.513021,-0.466146 0.5,-0.484375 0.684896,-0.768229 0.184896,-0.286458 0.184896,-0.617187 0,-0.302084 -0.200521,-0.471355 -0.197917,-0.171875 -0.554688,-0.171875 -0.236979,0 -0.513021,0.08333 -0.276041,0.08333 -0.539062,0.255208 h -0.02604 v -0.546875 q 0.184896,-0.09115 0.492188,-0.166667 0.309896,-0.07552 0.598958,-0.07552 0.596354,0 0.934896,0.289062 0.338542,0.286458 0.338542,0.778646 0,0.221354 -0.05729,0.414062 -0.05469,0.190105 -0.164063,0.36198 -0.101562,0.161458 -0.239583,0.317708 -0.135417,0.15625 -0.330729,0.346354 -0.278646,0.273438 -0.575521,0.53125 -0.296875,0.255209 -0.554687,0.473959 h 2.085937 z"
       id="path958"
       inkscape:connector-curvature="0" />
  </g>
  <g
     aria-label="5"
     style="font-style:normal;font-weight:normal;font-size:5.33333349px;line-height:1.25;font-family:sans-serif;text-align:start;letter-spacing:0px;word-spacing:0px;text-anchor:start;fill:#e69f00;fill-opacity:1;stroke:none"
     id="text953"
     transform="translate(-16.183674,62.346938)">
    <path
       d="m 69.339551,-15.129729 q 0,0.270834 -0.09896,0.51823 -0.09896,0.247395 -0.270833,0.416666 -0.1875,0.182292 -0.447917,0.28125 -0.257812,0.09635 -0.598958,0.09635 -0.317709,0 -0.61198,-0.06771 -0.29427,-0.0651 -0.497395,-0.158854 v -0.549479 h 0.03646 q 0.213542,0.135416 0.5,0.231771 0.286458,0.09375 0.5625,0.09375 0.184896,0 0.356771,-0.05208 0.174479,-0.05208 0.309896,-0.182291 0.114583,-0.11198 0.171875,-0.26823 0.0599,-0.15625 0.0599,-0.361979 0,-0.200521 -0.07031,-0.338542 -0.06771,-0.13802 -0.190104,-0.221354 -0.135417,-0.09896 -0.330729,-0.138021 -0.192709,-0.04167 -0.432292,-0.04167 -0.229167,0 -0.442708,0.03125 -0.210938,0.03125 -0.364584,0.0625 v -1.997396 h 2.333334 v 0.455729 h -1.83073 v 1.03125 q 0.11198,-0.01042 0.229167,-0.01563 0.117188,-0.0052 0.203125,-0.0052 0.315104,0 0.552084,0.05469 0.236979,0.05208 0.434895,0.1875 0.208334,0.143229 0.322917,0.369792 0.114583,0.226562 0.114583,0.567708 z"
       id="path955"
       inkscape:connector-curvature="0" />
  </g>
  <g
     aria-label="5"
     style="font-style:normal;font-weight:normal;font-size:5.33333349px;line-height:1.25;font-family:sans-serif;text-align:start;letter-spacing:0px;word-spacing:0px;text-anchor:start;fill:#e69f00;fill-opacity:1;stroke:none"
     id="text953-2"
     transform="translate(228.42858,62.346938)">
    <path
       d="m 69.339551,-15.129729 q 0,0.270834 -0.09896,0.51823 -0.09896,0.247395 -0.270833,0.416666 -0.1875,0.182292 -0.447917,0.28125 -0.257812,0.09635 -0.598958,0.09635 -0.317709,0 -0.61198,-0.06771 -0.29427,-0.0651 -0.497395,-0.158854 v -0.549479 h 0.03646 q 0.213542,0.135416 0.5,0.231771 0.286458,0.09375 0.5625,0.09375 0.184896,0 0.356771,-0.05208 0.174479,-0.05208 0.309896,-0.182291 0.114583,-0.11198 0.171875,-0.26823 0.0599,-0.15625 0.0599,-0.361979 0,-0.200521 -0.07031,-0.338542 -0.06771,-0.13802 -0.190104,-0.221354 -0.135417,-0.09896 -0.330729,-0.138021 -0.192709,-0.04167 -0.432292,-0.04167 -0.229167,0 -0.442708,0.03125 -0.210938,0.03125 -0.364584,0.0625 v -1.997396 h 2.333334 v 0.455729 h -1.83073 v 1.03125 q 0.11198,-0.01042 0.229167,-0.01563 0.117188,-0.0052 0.203125,-0.0052 0.315104,0 0.552084,0.05469 0.236979,0.05208 0.434895,0.1875 0.208334,0.143229 0.322917,0.369792 0.114583,0.226562 0.114583,0.567708 z"
       id="path955-5"
       inkscape:connector-curvature="0" />
  </g>
</svg>
