<?xml version="1.0" encoding="UTF-8" standalone="no"?>
<svg
   xmlns:dc="http://purl.org/dc/elements/1.1/"
   xmlns:cc="http://creativecommons.org/ns#"
   xmlns:rdf="http://www.w3.org/1999/02/22-rdf-syntax-ns#"
   xmlns:svg="http://www.w3.org/2000/svg"
   xmlns="http://www.w3.org/2000/svg"
   xmlns:sodipodi="http://sodipodi.sourceforge.net/DTD/sodipodi-0.dtd"
   xmlns:inkscape="http://www.inkscape.org/namespaces/inkscape"
   width="191px"
   height="86px"
   viewBox="0 0 191 86"
   style="background-color: #ffffff00"
   version="1.1"
   id="svg164"
   sodipodi:docname="tetrazoles.svg"
   inkscape:version="0.92.4 (5da689c313, 2019-01-14)">
  <metadata
     id="metadata170">
    <rdf:RDF>
      <cc:Work
         rdf:about="">
        <dc:format>image/svg+xml</dc:format>
        <dc:type
           rdf:resource="http://purl.org/dc/dcmitype/StillImage" />
      </cc:Work>
    </rdf:RDF>
  </metadata>
  <defs
     id="defs168" />
  <sodipodi:namedview
     pagecolor="#ffffff"
     bordercolor="#666666"
     borderopacity="1"
     objecttolerance="10"
     gridtolerance="10"
     guidetolerance="10"
     inkscape:pageopacity="0"
     inkscape:pageshadow="2"
     inkscape:window-width="1920"
     inkscape:window-height="1017"
     id="namedview166"
     showgrid="false"
     inkscape:zoom="3.591623"
     inkscape:cx="143.32796"
     inkscape:cy="26.375382"
     inkscape:window-x="-8"
     inkscape:window-y="-8"
     inkscape:window-maximized="1"
     inkscape:current-layer="svg164" />
  <g
     aria-label="N"
     transform="matrix(0.0666667,0,0,0.0666667,15.0842,46.4442)"
     style="font-style:normal;font-weight:normal;font-size:160px;font-family:Arial;fill:#000000;stroke:none"
     id="text2">
    <path
       d="m 12.1875,0 v -114.53125 h 15.546875 l 60.15625,89.921875 V -114.53125 H 102.42188 V 0 H 86.875 L 26.71875,-90 V 0 Z"
       style="font-style:normal;font-weight:normal;font-size:160px;font-family:Arial;fill:#000000;stroke:none"
       id="path977"
       inkscape:connector-curvature="0" />
  </g>
  <g
     aria-label="N"
     transform="matrix(0.0666667,0,0,0.0666667,29.6781,66.5309)"
     style="font-style:normal;font-weight:normal;font-size:160px;font-family:Arial;fill:#000000;stroke:none"
     id="text4">
    <path
       d="m 12.1875,0 v -114.53125 h 15.546875 l 60.15625,89.921875 V -114.53125 H 102.42188 V 0 H 86.875 L 26.71875,-90 V 0 Z"
       style="font-style:normal;font-weight:normal;font-size:160px;font-family:Arial;fill:#000000;stroke:none"
       id="path980"
       inkscape:connector-curvature="0" />
  </g>
  <g
     aria-label="N"
     transform="matrix(0.0666667,0,0,0.0666667,38.6975,54.1167)"
     style="font-style:normal;font-weight:normal;font-size:160px;font-family:Arial;fill:#000000;stroke:none"
     id="text6">
    <path
       d="m 12.1875,0 v -114.53125 h 15.546875 l 60.15625,89.921875 V -114.53125 H 102.42188 V 0 H 86.875 L 26.71875,-90 V 0 Z"
       style="font-style:normal;font-weight:normal;font-size:160px;font-family:Arial;fill:#000000;stroke:none"
       id="path983"
       inkscape:connector-curvature="0" />
  </g>
  <g
     aria-label="N"
     transform="matrix(0.0666667,0,0,0.0666667,29.6781,41.7024)"
     style="font-style:normal;font-weight:normal;font-size:160px;font-family:Arial;fill:#000000;stroke:none"
     id="text8">
    <path
       d="m 12.1875,0 v -114.53125 h 15.546875 l 60.15625,89.921875 V -114.53125 H 102.42188 V 0 H 86.875 L 26.71875,-90 V 0 Z"
       style="font-style:normal;font-weight:normal;font-size:160px;font-family:Arial;fill:#000000;stroke:none"
       id="path986"
       inkscape:connector-curvature="0" />
  </g>
  <path
     stroke="none"
     fill="#000000"
     transform="matrix(0.0666667 0 0 0.0666667 1.91055 -0.333333)"
     d="M 260.481,865.13 L 255.378,868.837 L 250.276,866.237 L 250.276,727.663 L 260.481,727.663 L 260.481,865.13 Z "
     id="path10" />
  <path
     stroke="none"
     fill="#000000"
     transform="matrix(0.0666667 0 0 0.0666667 1.91055 -0.333333)"
     d="M 301.912,838.735 L 291.707,838.735 L 291.707,727.663 L 301.912,727.663 L 301.912,838.735 Z "
     id="path12" />
  <path
     stroke="none"
     fill="#000000"
     transform="matrix(0.0666667 0 0 0.0666667 1.91055 -0.333333)"
     d="M 396.825,909.43 L 393.671,919.135 L 256.274,874.492 L 255.378,868.837 L 260.481,865.13 L 396.825,909.43 Z "
     id="path14" />
  <path
     stroke="none"
     fill="#000000"
     transform="matrix(0.0666667 0 0 0.0666667 1.91055 -0.333333)"
     d="M 544.741,834.31 L 552.997,840.308 L 532.752,868.172 L 524.497,862.174 L 544.741,834.31 Z "
     id="path16" />
  <path
     stroke="none"
     fill="#000000"
     transform="matrix(0.0666667 0 0 0.0666667 1.91055 -0.333333)"
     d="M 530.679,653.834 L 538.934,647.836 L 559.179,675.7 L 550.923,681.698 L 530.679,653.834 Z "
     id="path18" />
  <path
     stroke="none"
     fill="#000000"
     transform="matrix(0.0666667 0 0 0.0666667 1.91055 -0.333333)"
     d="M 497.16,678.187 L 505.416,672.189 L 525.66,700.053 L 517.404,706.051 L 497.16,678.187 Z "
     id="path20" />
  <path
     stroke="none"
     fill="#000000"
     transform="matrix(0.0666667 0 0 0.0666667 1.91055 -0.333333)"
     d="M 335.499,617.996 L 332.345,608.291 L 393.671,588.365 L 396.825,598.07 L 335.499,617.996 Z "
     id="path22" />
  <g
     aria-label="R"
     transform="matrix(0.0666667,0,0,0.0666667,2.66996,70.8086)"
     style="font-style:normal;font-weight:normal;font-size:160px;font-family:Arial;fill:#000000;stroke:none"
     id="text24">
    <path
       d="m 12.578125,0 v -114.53125 h 50.78125 q 15.3125,0 23.28125,3.125 7.96875,3.04687 12.734375,10.85937 4.76563,7.812505 4.76563,17.26563 0,12.1875 -7.89063,20.546875 -7.890625,8.359375 -24.375,10.625 6.015625,2.890625 9.140625,5.703125 6.640625,6.09375 12.578125,15.234375 L 113.51563,0 H 94.453125 l -15.15625,-23.828125 q -6.640625,-10.3125 -10.9375,-15.78125 -4.296875,-5.46875 -7.734375,-7.65625 -3.359375,-2.1875 -6.875,-3.046875 -2.578125,-0.546875 -8.4375,-0.546875 H 27.734375 V 0 Z m 15.15625,-63.984375 H 60.3125 q 10.390625,0 16.25,-2.109375 5.859375,-2.1875 8.90625,-6.875 3.046875,-4.765625 3.046875,-10.3125 0,-8.125 -5.9375,-13.359375 Q 76.71875,-101.875 63.984375,-101.875 h -36.25 z"
       style="font-style:normal;font-weight:normal;font-size:160px;font-family:Arial;fill:#000000;stroke:none"
       id="path989"
       inkscape:connector-curvature="0" />
  </g>
  <path
     stroke="none"
     fill="#000000"
     transform="matrix(0.0666667 0 0 0.0666667 1.91055 -0.333333)"
     d="M 137.893,960.501 L 131.895,952.246 L 250.276,866.237 L 255.378,868.837 L 256.274,874.492 L 137.893,960.501 Z "
     id="path26" />
  <g
     aria-label="N"
     transform="matrix(0.0666667,0,0,0.0666667,88.3342,46.4442)"
     style="font-style:normal;font-weight:normal;font-size:160px;font-family:Arial;fill:#000000;stroke:none"
     id="text28">
    <path
       d="m 12.1875,0 v -114.53125 h 15.546875 l 60.15625,89.921875 V -114.53125 H 102.42188 V 0 H 86.875 L 26.71875,-90 V 0 Z"
       style="font-style:normal;font-weight:normal;font-size:160px;font-family:Arial;fill:#000000;stroke:none"
       id="path992"
       inkscape:connector-curvature="0" />
  </g>
  <g
     aria-label="N"
     transform="matrix(0.0666667,0,0,0.0666667,102.928,66.5309)"
     style="font-style:normal;font-weight:normal;font-size:160px;font-family:Arial;fill:#000000;stroke:none"
     id="text30">
    <path
       d="m 12.1875,0 v -114.53125 h 15.546875 l 60.15625,89.921875 V -114.53125 H 102.42188 V 0 H 86.875 L 26.71875,-90 V 0 Z"
       style="font-style:normal;font-weight:normal;font-size:160px;font-family:Arial;fill:#000000;stroke:none"
       id="path995"
       inkscape:connector-curvature="0" />
  </g>
  <g
     aria-label="N"
     transform="matrix(0.0666667,0,0,0.0666667,111.948,54.1166)"
     style="font-style:normal;font-weight:normal;font-size:160px;font-family:Arial;fill:#000000;stroke:none"
     id="text32">
    <path
       d="m 12.1875,0 v -114.53125 h 15.546875 l 60.15625,89.921875 V -114.53125 H 102.42188 V 0 H 86.875 L 26.71875,-90 V 0 Z"
       style="font-style:normal;font-weight:normal;font-size:160px;font-family:Arial;fill:#000000;stroke:none"
       id="path998"
       inkscape:connector-curvature="0" />
  </g>
  <g
     aria-label="N"
     transform="matrix(0.0666667,0,0,0.0666667,102.928,41.7024)"
     style="font-style:normal;font-weight:normal;font-size:160px;font-family:Arial;fill:#000000;stroke:none"
     id="text34">
    <path
       d="m 12.1875,0 v -114.53125 h 15.546875 l 60.15625,89.921875 V -114.53125 H 102.42188 V 0 H 86.875 L 26.71875,-90 V 0 Z"
       style="font-style:normal;font-weight:normal;font-size:160px;font-family:Arial;fill:#000000;stroke:none"
       id="path1001"
       inkscape:connector-curvature="0" />
  </g>
  <path
     stroke="none"
     fill="#000000"
     transform="matrix(0.0666667 0 0 0.0666667 1.91055 -0.333333)"
     d="M 1359.23,865.129 L 1354.13,868.836 L 1349.03,866.237 L 1349.03,727.663 L 1359.23,727.663 L 1359.23,865.129 Z "
     id="path36" />
  <path
     stroke="none"
     fill="#000000"
     transform="matrix(0.0666667 0 0 0.0666667 1.91055 -0.333333)"
     d="M 1400.66,838.735 L 1390.46,838.735 L 1390.46,727.663 L 1400.66,727.663 L 1400.66,838.735 Z "
     id="path38" />
  <path
     stroke="none"
     fill="#000000"
     transform="matrix(0.0666667 0 0 0.0666667 1.91055 -0.333333)"
     d="M 1495.57,909.43 L 1492.42,919.135 L 1355.02,874.492 L 1354.13,868.836 L 1359.23,865.129 L 1495.57,909.43 Z "
     id="path40" />
  <path
     stroke="none"
     fill="#000000"
     transform="matrix(0.0666667 0 0 0.0666667 1.91055 -0.333333)"
     d="M 1643.49,834.31 L 1651.75,840.308 L 1631.5,868.172 L 1623.25,862.174 L 1643.49,834.31 Z "
     id="path42" />
  <path
     stroke="none"
     fill="#000000"
     transform="matrix(0.0666667 0 0 0.0666667 1.91055 -0.333333)"
     d="M 1609.97,809.957 L 1618.23,815.955 L 1597.98,843.819 L 1589.73,837.821 L 1609.97,809.957 Z "
     id="path44" />
  <path
     stroke="none"
     fill="#000000"
     transform="matrix(0.0666667 0 0 0.0666667 1.91055 -0.333333)"
     d="M 1629.43,653.834 L 1637.68,647.836 L 1657.93,675.7 L 1649.67,681.698 L 1629.43,653.834 Z "
     id="path46" />
  <path
     stroke="none"
     fill="#000000"
     transform="matrix(0.0666667 0 0 0.0666667 1.91055 -0.333333)"
     d="M 1434.25,617.996 L 1431.1,608.291 L 1492.42,588.365 L 1495.57,598.07 L 1434.25,617.996 Z "
     id="path48" />
  <g
     aria-label="R"
     transform="matrix(0.0666667,0,0,0.0666667,75.92,70.8086)"
     style="font-style:normal;font-weight:normal;font-size:160px;font-family:Arial;fill:#000000;stroke:none"
     id="text50">
    <path
       d="m 12.578125,0 v -114.53125 h 50.78125 q 15.3125,0 23.28125,3.125 7.96875,3.04687 12.734375,10.85937 4.76563,7.812505 4.76563,17.26563 0,12.1875 -7.89063,20.546875 -7.890625,8.359375 -24.375,10.625 6.015625,2.890625 9.140625,5.703125 6.640625,6.09375 12.578125,15.234375 L 113.51563,0 H 94.453125 l -15.15625,-23.828125 q -6.640625,-10.3125 -10.9375,-15.78125 -4.296875,-5.46875 -7.734375,-7.65625 -3.359375,-2.1875 -6.875,-3.046875 -2.578125,-0.546875 -8.4375,-0.546875 H 27.734375 V 0 Z m 15.15625,-63.984375 H 60.3125 q 10.390625,0 16.25,-2.109375 5.859375,-2.1875 8.90625,-6.875 3.046875,-4.765625 3.046875,-10.3125 0,-8.125 -5.9375,-13.359375 Q 76.71875,-101.875 63.984375,-101.875 h -36.25 z"
       style="font-style:normal;font-weight:normal;font-size:160px;font-family:Arial;fill:#000000;stroke:none"
       id="path1004"
       inkscape:connector-curvature="0" />
  </g>
  <path
     stroke="none"
     fill="#000000"
     transform="matrix(0.0666667 0 0 0.0666667 1.91055 -0.333333)"
     d="M 1236.64,960.501 L 1230.64,952.246 L 1349.03,866.237 L 1354.13,868.836 L 1355.02,874.492 L 1236.64,960.501 Z "
     id="path52" />
  <path
     stroke="none"
     fill="#000000"
     transform="matrix(0.0666667 0 0 0.0666667 1.91055 -0.333333)"
     d="M 970.799,784.693 L 803.781,784.693 L 803.781,774.693 L 970.799,774.693 Z "
     id="path54" />
  <path
     stroke="none"
     fill="#000000"
     transform="matrix(0.0666667 0 0 0.0666667 1.91055 -0.333333)"
     d="M 876.764,805.307 L 1043.78,805.307 L 1043.78,815.307 L 876.764,815.307 Z "
     id="path56" />
  <path
     stroke="none"
     fill="#000000"
     transform="matrix(0.0666667 0 0 0.0666667 1.91055 -0.333333)"
     d="M 1059.09,784.693 C 1059.09,784.693 969.799,784.693 969.799,784.693 C 969.799,767.657 957.043,752.182 957.043,752.182 C 957.043,752.182 1059.09,784.693 1059.09,784.693 C 1059.09,784.693 1059.09,784.693 1059.09,784.693 "
     id="path58" />
  <path
     stroke="#000000"
     stroke-width="1"
     fill="none"
     transform="matrix(0.0666667 0 0 0.0666667 1.91055 -0.333333)"
     d="M 1059.09,784.693 C 1059.09,784.693 969.799,784.693 969.799,784.693 C 969.799,767.657 957.043,752.182 957.043,752.182 C 957.043,752.182 1059.09,784.693 1059.09,784.693 C 1059.09,784.693 1059.09,784.693 1059.09,784.693 "
     id="path60" />
  <path
     stroke="none"
     fill="#000000"
     transform="matrix(0.0666667 0 0 0.0666667 1.91055 -0.333333)"
     d="M 788.475,805.307 C 788.475,805.307 890.519,837.818 890.519,837.818 C 890.519,837.818 877.764,812.343 877.764,805.307 C 877.764,805.307 788.475,805.307 788.475,805.307 C 788.475,805.307 788.475,805.307 788.475,805.307 "
     id="path62" />
  <path
     stroke="#000000"
     stroke-width="1"
     fill="none"
     transform="matrix(0.0666667 0 0 0.0666667 1.91055 -0.333333)"
     d="M 788.475,805.307 C 788.475,805.307 890.519,837.818 890.519,837.818 C 890.519,837.818 877.764,812.343 877.764,805.307 C 877.764,805.307 788.475,805.307 788.475,805.307 C 788.475,805.307 788.475,805.307 788.475,805.307 "
     id="path64" />
  <path
     stroke="none"
     fill="#e69f00"
     transform="matrix(0.0666667 0 0 0.0666667 1.91055 -0.333333)"
     d="M 344.613,449.295 A 24.1682,24.1682 0 1 0 392.95,449.295A 24.1682,24.1682 0 1 0 344.613,449.295Z "
     id="path66" />
  <path
     stroke="none"
     fill="#e69f00"
     transform="matrix(0.0666667 0 0 0.0666667 1.91055 -0.333333)"
     d="M 363.781,439.92 L 363.781,312.5 L 373.781,312.5 L 373.781,439.92 Z "
     id="path68" />
  <path
     stroke="none"
     fill="#e69f00"
     transform="matrix(0.0666667 0 0 0.0666667 1.91055 -0.333333)"
     d="M 368.781,317.5 L 30.0314,317.5 L 30.0314,307.5 L 368.781,307.5 Z "
     id="path70" />
  <g
     aria-label="H"
     transform="matrix(0.0666667,0,0,0.0666667,34.4199,81.1248)"
     style="font-style:normal;font-weight:normal;font-size:160px;font-family:Arial;fill:#cc79a7;stroke:none"
     id="text72">
    <path
       d="M 12.8125,0 V -114.53125 H 27.96875 V -67.5 H 87.5 v -47.03125 h 15.15625 V 0 H 87.5 V -53.984375 H 27.96875 V 0 Z"
       style="font-style:normal;font-weight:normal;font-size:160px;font-family:Arial;fill:#cc79a7;stroke:none"
       id="path1007"
       inkscape:connector-curvature="0" />
  </g>
  <path
     stroke="none"
     fill="#cc79a7"
     transform="matrix(0.0666667 0 0 0.0666667 1.91055 -0.333333)"
     d="M 523.261,1074.18 L 513.556,1077.34 L 500.206,1036.25 L 509.911,1033.1 L 523.261,1074.18 Z "
     id="path74" />
  <g
     aria-label="H"
     transform="matrix(0.0666667,0,0,0.0666667,107.67,27.1086)"
     style="font-style:normal;font-weight:normal;font-size:160px;font-family:Arial;fill:#cc79a7;stroke:none"
     id="text76">
    <path
       d="M 12.8125,0 V -114.53125 H 27.96875 V -67.5 H 87.5 v -47.03125 h 15.15625 V 0 H 87.5 V -53.984375 H 27.96875 V 0 Z"
       style="font-style:normal;font-weight:normal;font-size:160px;font-family:Arial;fill:#cc79a7;stroke:none"
       id="path1010"
       inkscape:connector-curvature="0" />
  </g>
  <path
     stroke="none"
     fill="#cc79a7"
     transform="matrix(0.0666667 0 0 0.0666667 1.91055 -0.333333)"
     d="M 1608.49,441.922 L 1618.19,445.075 L 1604.84,486.162 L 1595.14,483.009 L 1608.49,441.922 Z "
     id="path78" />
  <g
     aria-label="N"
     transform="matrix(0.0666667,0,0,0.0666667,153.334,46.4442)"
     style="font-style:normal;font-weight:normal;font-size:160px;font-family:Arial;fill:#000000;stroke:none"
     id="text80">
    <path
       d="m 12.1875,0 v -114.53125 h 15.546875 l 60.15625,89.921875 V -114.53125 H 102.42188 V 0 H 86.875 L 26.71875,-90 V 0 Z"
       style="font-style:normal;font-weight:normal;font-size:160px;font-family:Arial;fill:#000000;stroke:none"
       id="path1013"
       inkscape:connector-curvature="0" />
  </g>
  <g
     aria-label="N"
     transform="matrix(0.0666667,0,0,0.0666667,167.928,66.5309)"
     style="font-style:normal;font-weight:normal;font-size:160px;font-family:Arial;fill:#000000;stroke:none"
     id="text82">
    <path
       d="m 12.1875,0 v -114.53125 h 15.546875 l 60.15625,89.921875 V -114.53125 H 102.42188 V 0 H 86.875 L 26.71875,-90 V 0 Z"
       style="font-style:normal;font-weight:normal;font-size:160px;font-family:Arial;fill:#000000;stroke:none"
       id="path1016"
       inkscape:connector-curvature="0" />
  </g>
  <g
     aria-label="N"
     transform="matrix(0.0666667,0,0,0.0666667,176.948,54.1166)"
     style="font-style:normal;font-weight:normal;font-size:160px;font-family:Arial;fill:#000000;stroke:none"
     id="text84">
    <path
       d="m 12.1875,0 v -114.53125 h 15.546875 l 60.15625,89.921875 V -114.53125 H 102.42188 V 0 H 86.875 L 26.71875,-90 V 0 Z"
       style="font-style:normal;font-weight:normal;font-size:160px;font-family:Arial;fill:#000000;stroke:none"
       id="path1019"
       inkscape:connector-curvature="0" />
  </g>
  <g
     aria-label="N"
     transform="matrix(0.0666667,0,0,0.0666667,167.928,41.7024)"
     style="font-style:normal;font-weight:normal;font-size:160px;font-family:Arial;fill:#000000;stroke:none"
     id="text86">
    <path
       d="m 12.1875,0 v -114.53125 h 15.546875 l 60.15625,89.921875 V -114.53125 H 102.42188 V 0 H 86.875 L 26.71875,-90 V 0 Z"
       style="font-style:normal;font-weight:normal;font-size:160px;font-family:Arial;fill:#000000;stroke:none"
       id="path1022"
       inkscape:connector-curvature="0" />
  </g>
  <path
     stroke="none"
     fill="#000000"
     transform="matrix(0.0666667 0 0 0.0666667 1.91055 -0.333333)"
     d="M 2334.23,865.129 L 2329.13,868.836 L 2324.03,860.51 L 2324.03,727.663 L 2334.23,727.663 L 2334.23,865.129 Z "
     id="path88" />
  <path
     stroke="none"
     fill="#000000"
     transform="matrix(0.0666667 0 0 0.0666667 1.91055 -0.333333)"
     d="M 2470.57,909.43 L 2467.42,919.135 L 2330.02,874.492 L 2329.13,868.836 L 2334.23,865.129 L 2470.57,909.43 Z "
     id="path90" />
  <path
     stroke="none"
     fill="#000000"
     transform="matrix(0.0666667 0 0 0.0666667 1.91055 -0.333333)"
     d="M 2618.49,834.31 L 2626.75,840.308 L 2606.5,868.172 L 2598.25,862.174 L 2618.49,834.31 Z "
     id="path92" />
  <path
     stroke="none"
     fill="#000000"
     transform="matrix(0.0666667 0 0 0.0666667 1.91055 -0.333333)"
     d="M 2584.97,809.957 L 2593.23,815.955 L 2572.98,843.819 L 2564.73,837.821 L 2584.97,809.957 Z "
     id="path94" />
  <path
     stroke="none"
     fill="#000000"
     transform="matrix(0.0666667 0 0 0.0666667 1.91055 -0.333333)"
     d="M 2604.43,653.834 L 2612.68,647.836 L 2632.93,675.7 L 2624.67,681.698 L 2604.43,653.834 Z "
     id="path96" />
  <path
     stroke="none"
     fill="#000000"
     transform="matrix(0.0666667 0 0 0.0666667 1.91055 -0.333333)"
     d="M 2409.25,617.996 L 2406.1,608.291 L 2467.42,588.365 L 2470.57,598.07 L 2409.25,617.996 Z "
     id="path98" />
  <path
     stroke="none"
     fill="#000000"
     transform="matrix(0.0666667 0 0 0.0666667 1.91055 -0.333333)"
     d="M 2422.05,657.399 L 2418.9,647.694 L 2480.22,627.768 L 2483.38,637.473 L 2422.05,657.399 Z "
     id="path100" />
  <g
     aria-label="R"
     transform="matrix(0.0666667,0,0,0.0666667,140.92,70.8086)"
     style="font-style:normal;font-weight:normal;font-size:160px;font-family:Arial;fill:#000000;stroke:none"
     id="text102">
    <path
       d="m 12.578125,0 v -114.53125 h 50.78125 q 15.3125,0 23.28125,3.125 7.96875,3.04687 12.734375,10.85937 4.76563,7.812505 4.76563,17.26563 0,12.1875 -7.89063,20.546875 -7.890625,8.359375 -24.375,10.625 6.015625,2.890625 9.140625,5.703125 6.640625,6.09375 12.578125,15.234375 L 113.51563,0 H 94.453125 l -15.15625,-23.828125 q -6.640625,-10.3125 -10.9375,-15.78125 -4.296875,-5.46875 -7.734375,-7.65625 -3.359375,-2.1875 -6.875,-3.046875 -2.578125,-0.546875 -8.4375,-0.546875 H 27.734375 V 0 Z m 15.15625,-63.984375 H 60.3125 q 10.390625,0 16.25,-2.109375 5.859375,-2.1875 8.90625,-6.875 3.046875,-4.765625 3.046875,-10.3125 0,-8.125 -5.9375,-13.359375 Q 76.71875,-101.875 63.984375,-101.875 h -36.25 z"
       style="font-style:normal;font-weight:normal;font-size:160px;font-family:Arial;fill:#000000;stroke:none"
       id="path1025"
       inkscape:connector-curvature="0" />
  </g>
  <path
     stroke="none"
     fill="#000000"
     transform="matrix(0.0666667 0 0 0.0666667 1.91055 -0.333333)"
     d="M 2211.64,960.501 L 2205.64,952.246 L 2319.39,869.603 L 2329.13,868.836 L 2330.02,874.492 L 2211.64,960.501 Z "
     id="path104" />
  <g
     aria-label="H"
     transform="matrix(0.0666667,0,0,0.0666667,139.662,54.8227)"
     style="font-style:normal;font-weight:normal;font-size:160px;font-family:Arial;fill:#cc79a7;stroke:none"
     id="text106">
    <path
       d="M 12.8125,0 V -114.53125 H 27.96875 V -67.5 H 87.5 v -47.03125 h 15.15625 V 0 H 87.5 V -53.984375 H 27.96875 V 0 Z"
       style="font-style:normal;font-weight:normal;font-size:160px;font-family:Arial;fill:#cc79a7;stroke:none"
       id="path1028"
       inkscape:connector-curvature="0" />
  </g>
  <path
     stroke="none"
     fill="#cc79a7"
     transform="matrix(0.0666667 0 0 0.0666667 1.91055 -0.333333)"
     d="M 2203.06,810.328 L 2207.69,801.236 L 2324.03,860.51 L 2329.13,868.836 L 2319.39,869.603 L 2203.06,810.328 Z "
     id="path108" />
  <path
     stroke="none"
     fill="#e69f00"
     transform="matrix(0.0666667 0 0 0.0666667 1.91055 -0.333333)"
     d="M 1422.11,449.295 A 24.1681,24.1681 0 1 0 1470.45,449.295A 24.1681,24.1681 0 1 0 1422.11,449.295Z "
     id="path114" />
  <path
     stroke="none"
     fill="#e69f00"
     transform="matrix(0.0666667 0 0 0.0666667 1.91055 -0.333333)"
     d="M 1441.28,439.92 L 1441.28,312.5 L 1451.28,312.5 L 1451.28,439.92 Z "
     id="path116" />
  <path
     stroke="none"
     fill="#e69f00"
     transform="matrix(0.0666667 0 0 0.0666667 1.91055 -0.333333)"
     d="M 1446.28,317.5 L 1107.53,317.5 L 1107.53,307.5 L 1446.28,307.5 Z "
     id="path118" />
  <path
     stroke="none"
     fill="#e69f00"
     transform="matrix(0.0666667 0 0 0.0666667 1.91055 -0.333333)"
     d="M 2417.11,449.295 A 24.1681,24.1681 0 1 0 2465.45,449.295A 24.1681,24.1681 0 1 0 2417.11,449.295Z "
     id="path124" />
  <path
     stroke="none"
     fill="#e69f00"
     transform="matrix(0.0666667 0 0 0.0666667 1.91055 -0.333333)"
     d="M 2436.28,439.92 L 2436.28,312.5 L 2446.28,312.5 L 2446.28,439.92 Z "
     id="path126" />
  <path
     stroke="none"
     fill="#e69f00"
     transform="matrix(0.0666667 0 0 0.0666667 1.91055 -0.333333)"
     d="M 2441.28,317.5 L 2102.53,317.5 L 2102.53,307.5 L 2441.28,307.5 Z "
     id="path128" />
  <g
     aria-label="1"
     transform="matrix(0.0666667,0,0,0.0666667,38.0793,62.8333)"
     style="font-style:normal;font-weight:normal;font-size:80px;font-family:Arial;fill:#009e73;stroke:none"
     id="text134">
    <path
       d="m 29.804687,0 h -7.03125 v -44.804687 q -2.539062,2.421875 -6.679687,4.84375 -4.101562,2.421875 -7.3828125,3.632812 V -43.125 q 5.8984375,-2.773437 10.3124995,-6.71875 4.414063,-3.945312 6.25,-7.65625 h 4.53125 z"
       style="font-style:normal;font-weight:normal;font-size:80px;font-family:Arial;fill:#009e73;stroke:none"
       id="path1031"
       inkscape:connector-curvature="0" />
  </g>
  <g
     aria-label="2"
     transform="matrix(0.0666667,0,0,0.0666667,46.746,48.6667)"
     style="font-style:normal;font-weight:normal;font-size:80px;font-family:Arial;fill:#009e73;stroke:none"
     id="text136">
    <path
       d="M 40.273437,-6.7578125 V 0 H 2.421875 Q 2.34375,-2.5390625 3.2421875,-4.8828125 4.6875,-8.75 7.8515625,-12.5 q 3.2031255,-3.75 9.2187495,-8.671875 9.335938,-7.65625 12.617188,-12.109375 3.28125,-4.492187 3.28125,-8.476562 0,-4.179688 -3.007813,-7.03125 -2.96875,-2.890625 -7.773437,-2.890625 -5.078125,0 -8.125,3.046875 -3.046875,3.046875 -3.085937,8.4375 L 3.75,-40.9375 Q 4.4921875,-49.023437 9.3359375,-53.242187 14.179688,-57.5 22.34375,-57.5 q 8.242187,0 13.046875,4.570313 4.804687,4.570312 4.804687,11.328125 0,3.4375 -1.40625,6.757812 -1.40625,3.320313 -4.6875,6.992188 -3.242187,3.671875 -10.820312,10.078125 -6.328125,5.312499 -8.125,7.226562 -1.796875,1.875 -2.96875,3.7890625 z"
       style="font-style:normal;font-weight:normal;font-size:80px;font-family:Arial;fill:#009e73;stroke:none"
       id="path1034"
       inkscape:connector-curvature="0" />
  </g>
  <g
     aria-label="3"
     transform="matrix(0.0666667,0,0,0.0666667,37.9126,36.3333)"
     style="font-style:normal;font-weight:normal;font-size:80px;font-family:Arial;fill:#009e73;stroke:none"
     id="text138">
    <path
       d="m 3.359375,-15.117188 7.03125,-0.937499 q 1.210938,5.976562 4.101563,8.632812 2.929687,2.6171875 7.109374,2.6171875 4.960938,0 8.359375,-3.4375 3.4375,-3.4375005 3.4375,-8.5156245 0,-4.84375 -3.164062,-7.96875 -3.164063,-3.164063 -8.046875,-3.164063 -1.992188,0 -4.960938,0.78125 l 0.78125,-6.171875 q 0.703125,0.07813 1.132813,0.07813 4.492187,0 8.085937,-2.34375 3.59375,-2.34375 3.59375,-7.226562 0,-3.867188 -2.617187,-6.40625 -2.617188,-2.539063 -6.757813,-2.539063 -4.101562,0 -6.835937,2.578125 -2.734375,2.57812 -3.515625,7.73437 l -7.03125,-1.25 Q 5.3515625,-49.726562 9.921875,-53.59375 14.492188,-57.5 21.289062,-57.5 q 4.6875,0 8.632813,2.03125 3.945312,1.992188 6.015625,5.46875 2.109375,3.476563 2.109375,7.382813 0,3.710937 -1.992188,6.757812 -1.992187,3.046875 -5.898437,4.84375 5.078125,1.171875 7.890625,4.882813 2.8125,3.671875 2.8125,9.21875 0,7.4999995 -5.46875,12.7343745 -5.46875,5.1953125 -13.828125,5.1953125 -7.539062,0 -12.5390625,-4.4921875 Q 4.0625,-7.96875 3.359375,-15.117188 Z"
       style="font-style:normal;font-weight:normal;font-size:80px;font-family:Arial;fill:#009e73;stroke:none"
       id="path1037"
       inkscape:connector-curvature="0" />
  </g>
  <g
     aria-label="4"
     transform="matrix(0.0666667,0,0,0.0666667,11.1626,41)"
     style="font-style:normal;font-weight:normal;font-size:80px;font-family:Arial;fill:#009e73;stroke:none"
     id="text140">
    <path
       d="M 25.859375,0 V -13.710938 H 1.015625 v -6.445312 l 26.132812,-37.109375 h 5.742188 V -20.15625 H 40.625 v 6.445312 H 32.890625 V 0 Z m 0,-20.15625 V -45.976562 L 7.9296875,-20.15625 Z"
       style="font-style:normal;font-weight:normal;font-size:80px;font-family:Arial;fill:#009e73;stroke:none"
       id="path1040"
       inkscape:connector-curvature="0" />
  </g>
  <g
     aria-label="5"
     transform="matrix(0.0666667,0,0,0.0666667,13.0793,58.25)"
     style="font-style:normal;font-weight:normal;font-size:80px;font-family:Arial;fill:#009e73;stroke:none"
     id="text142">
    <path
       d="m 3.3203125,-15 7.3828125,-0.625 q 0.820313,5.390625 3.789063,8.125 3.007812,2.6953125 7.226562,2.6953125 5.078125,0 8.59375,-3.828125 3.515625,-3.8281255 3.515625,-10.1562495 0,-6.015625 -3.398438,-9.492188 -3.359375,-3.476562 -8.828125,-3.476562 -3.398437,0 -6.132812,1.5625 -2.734375,1.523437 -4.296875,3.984375 L 4.5703125,-27.070312 10.117188,-56.484375 H 38.59375 v 6.71875 H 15.742188 L 12.65625,-34.375 q 5.15625,-3.59375 10.820312,-3.59375 7.5,0 12.65625,5.195313 5.15625,5.195312 5.15625,13.359375 0,7.773437 -4.53125,13.4374995 -5.507812,6.953125 -15.039062,6.953125 -7.8125,0 -12.7734375,-4.375 -4.921875,-4.375 -5.625,-11.6015625 z"
       style="font-style:normal;font-weight:normal;font-size:80px;font-family:Arial;fill:#009e73;stroke:none"
       id="path1043"
       inkscape:connector-curvature="0" />
  </g>
  <g
     aria-label="4"
     transform="matrix(0.0666667,0,0,0.0666667,111.579,62.8333)"
     style="font-style:normal;font-weight:normal;font-size:80px;font-family:Arial;fill:#009e73;stroke:none"
     id="text144">
    <path
       d="M 25.859375,0 V -13.710938 H 1.015625 v -6.445312 l 26.132812,-37.109375 h 5.742188 V -20.15625 H 40.625 v 6.445312 H 32.890625 V 0 Z m 0,-20.15625 V -45.976562 L 7.9296875,-20.15625 Z"
       style="font-style:normal;font-weight:normal;font-size:80px;font-family:Arial;fill:#009e73;stroke:none"
       id="path1046"
       inkscape:connector-curvature="0" />
  </g>
  <g
     aria-label="3"
     transform="matrix(0.0666667,0,0,0.0666667,120.246,48.6667)"
     style="font-style:normal;font-weight:normal;font-size:80px;font-family:Arial;fill:#009e73;stroke:none"
     id="text146">
    <path
       d="m 3.359375,-15.117188 7.03125,-0.937499 q 1.210938,5.976562 4.101563,8.632812 2.929687,2.6171875 7.109374,2.6171875 4.960938,0 8.359375,-3.4375 3.4375,-3.4375005 3.4375,-8.5156245 0,-4.84375 -3.164062,-7.96875 -3.164063,-3.164063 -8.046875,-3.164063 -1.992188,0 -4.960938,0.78125 l 0.78125,-6.171875 q 0.703125,0.07813 1.132813,0.07813 4.492187,0 8.085937,-2.34375 3.59375,-2.34375 3.59375,-7.226562 0,-3.867188 -2.617187,-6.40625 -2.617188,-2.539063 -6.757813,-2.539063 -4.101562,0 -6.835937,2.578125 -2.734375,2.57812 -3.515625,7.73437 l -7.03125,-1.25 Q 5.3515625,-49.726562 9.921875,-53.59375 14.492188,-57.5 21.289062,-57.5 q 4.6875,0 8.632813,2.03125 3.945312,1.992188 6.015625,5.46875 2.109375,3.476563 2.109375,7.382813 0,3.710937 -1.992188,6.757812 -1.992187,3.046875 -5.898437,4.84375 5.078125,1.171875 7.890625,4.882813 2.8125,3.671875 2.8125,9.21875 0,7.4999995 -5.46875,12.7343745 -5.46875,5.1953125 -13.828125,5.1953125 -7.539062,0 -12.5390625,-4.4921875 Q 4.0625,-7.96875 3.359375,-15.117188 Z"
       style="font-style:normal;font-weight:normal;font-size:80px;font-family:Arial;fill:#009e73;stroke:none"
       id="path1049"
       inkscape:connector-curvature="0" />
  </g>
  <g
     aria-label="2"
     transform="matrix(0.0666667,0,0,0.0666667,111.413,36.3333)"
     style="font-style:normal;font-weight:normal;font-size:80px;font-family:Arial;fill:#009e73;stroke:none"
     id="text148">
    <path
       d="M 40.273437,-6.7578125 V 0 H 2.421875 Q 2.34375,-2.5390625 3.2421875,-4.8828125 4.6875,-8.75 7.8515625,-12.5 q 3.2031255,-3.75 9.2187495,-8.671875 9.335938,-7.65625 12.617188,-12.109375 3.28125,-4.492187 3.28125,-8.476562 0,-4.179688 -3.007813,-7.03125 -2.96875,-2.890625 -7.773437,-2.890625 -5.078125,0 -8.125,3.046875 -3.046875,3.046875 -3.085937,8.4375 L 3.75,-40.9375 Q 4.4921875,-49.023437 9.3359375,-53.242187 14.179688,-57.5 22.34375,-57.5 q 8.242187,0 13.046875,4.570313 4.804687,4.570312 4.804687,11.328125 0,3.4375 -1.40625,6.757812 -1.40625,3.320313 -4.6875,6.992188 -3.242187,3.671875 -10.820312,10.078125 -6.328125,5.312499 -8.125,7.226562 -1.796875,1.875 -2.96875,3.7890625 z"
       style="font-style:normal;font-weight:normal;font-size:80px;font-family:Arial;fill:#009e73;stroke:none"
       id="path1052"
       inkscape:connector-curvature="0" />
  </g>
  <g
     aria-label="1"
     transform="matrix(0.0666667,0,0,0.0666667,84.6626,41)"
     style="font-style:normal;font-weight:normal;font-size:80px;font-family:Arial;fill:#009e73;stroke:none"
     id="text150">
    <path
       d="m 29.804687,0 h -7.03125 v -44.804687 q -2.539062,2.421875 -6.679687,4.84375 -4.101562,2.421875 -7.3828125,3.632812 V -43.125 q 5.8984375,-2.773437 10.3124995,-6.71875 4.414063,-3.945312 6.25,-7.65625 h 4.53125 z"
       style="font-style:normal;font-weight:normal;font-size:80px;font-family:Arial;fill:#009e73;stroke:none"
       id="path1055"
       inkscape:connector-curvature="0" />
  </g>
  <g
     aria-label="5"
     transform="matrix(0.0666667,0,0,0.0666667,86.5793,58.25)"
     style="font-style:normal;font-weight:normal;font-size:80px;font-family:Arial;fill:#009e73;stroke:none"
     id="text152">
    <path
       d="m 3.3203125,-15 7.3828125,-0.625 q 0.820313,5.390625 3.789063,8.125 3.007812,2.6953125 7.226562,2.6953125 5.078125,0 8.59375,-3.828125 3.515625,-3.8281255 3.515625,-10.1562495 0,-6.015625 -3.398438,-9.492188 -3.359375,-3.476562 -8.828125,-3.476562 -3.398437,0 -6.132812,1.5625 -2.734375,1.523437 -4.296875,3.984375 L 4.5703125,-27.070312 10.117188,-56.484375 H 38.59375 v 6.71875 H 15.742188 L 12.65625,-34.375 q 5.15625,-3.59375 10.820312,-3.59375 7.5,0 12.65625,5.195313 5.15625,5.195312 5.15625,13.359375 0,7.773437 -4.53125,13.4374995 -5.507812,6.953125 -15.039062,6.953125 -7.8125,0 -12.7734375,-4.375 -4.921875,-4.375 -5.625,-11.6015625 z"
       style="font-style:normal;font-weight:normal;font-size:80px;font-family:Arial;fill:#009e73;stroke:none"
       id="path1058"
       inkscape:connector-curvature="0" />
  </g>
  <g
     aria-label="1"
     transform="matrix(0.0666667,0,0,0.0666667,176.579,62.8333)"
     style="font-style:normal;font-weight:normal;font-size:80px;font-family:Arial;fill:#009e73;stroke:none"
     id="text154">
    <path
       d="m 29.804687,0 h -7.03125 v -44.804687 q -2.539062,2.421875 -6.679687,4.84375 -4.101562,2.421875 -7.3828125,3.632812 V -43.125 q 5.8984375,-2.773437 10.3124995,-6.71875 4.414063,-3.945312 6.25,-7.65625 h 4.53125 z"
       style="font-style:normal;font-weight:normal;font-size:80px;font-family:Arial;fill:#009e73;stroke:none"
       id="path1061"
       inkscape:connector-curvature="0" />
  </g>
  <g
     aria-label="2"
     transform="matrix(0.0666667,0,0,0.0666667,185.246,48.6667)"
     style="font-style:normal;font-weight:normal;font-size:80px;font-family:Arial;fill:#009e73;stroke:none"
     id="text156">
    <path
       d="M 40.273437,-6.7578125 V 0 H 2.421875 Q 2.34375,-2.5390625 3.2421875,-4.8828125 4.6875,-8.75 7.8515625,-12.5 q 3.2031255,-3.75 9.2187495,-8.671875 9.335938,-7.65625 12.617188,-12.109375 3.28125,-4.492187 3.28125,-8.476562 0,-4.179688 -3.007813,-7.03125 -2.96875,-2.890625 -7.773437,-2.890625 -5.078125,0 -8.125,3.046875 -3.046875,3.046875 -3.085937,8.4375 L 3.75,-40.9375 Q 4.4921875,-49.023437 9.3359375,-53.242187 14.179688,-57.5 22.34375,-57.5 q 8.242187,0 13.046875,4.570313 4.804687,4.570312 4.804687,11.328125 0,3.4375 -1.40625,6.757812 -1.40625,3.320313 -4.6875,6.992188 -3.242187,3.671875 -10.820312,10.078125 -6.328125,5.312499 -8.125,7.226562 -1.796875,1.875 -2.96875,3.7890625 z"
       style="font-style:normal;font-weight:normal;font-size:80px;font-family:Arial;fill:#009e73;stroke:none"
       id="path1064"
       inkscape:connector-curvature="0" />
  </g>
  <g
     aria-label="3"
     transform="matrix(0.0666667,0,0,0.0666667,176.413,36.3333)"
     style="font-style:normal;font-weight:normal;font-size:80px;font-family:Arial;fill:#009e73;stroke:none"
     id="text158">
    <path
       d="m 3.359375,-15.117188 7.03125,-0.937499 q 1.210938,5.976562 4.101563,8.632812 2.929687,2.6171875 7.109374,2.6171875 4.960938,0 8.359375,-3.4375 3.4375,-3.4375005 3.4375,-8.5156245 0,-4.84375 -3.164062,-7.96875 -3.164063,-3.164063 -8.046875,-3.164063 -1.992188,0 -4.960938,0.78125 l 0.78125,-6.171875 q 0.703125,0.07813 1.132813,0.07813 4.492187,0 8.085937,-2.34375 3.59375,-2.34375 3.59375,-7.226562 0,-3.867188 -2.617187,-6.40625 -2.617188,-2.539063 -6.757813,-2.539063 -4.101562,0 -6.835937,2.578125 -2.734375,2.57812 -3.515625,7.73437 l -7.03125,-1.25 Q 5.3515625,-49.726562 9.921875,-53.59375 14.492188,-57.5 21.289062,-57.5 q 4.6875,0 8.632813,2.03125 3.945312,1.992188 6.015625,5.46875 2.109375,3.476563 2.109375,7.382813 0,3.710937 -1.992188,6.757812 -1.992187,3.046875 -5.898437,4.84375 5.078125,1.171875 7.890625,4.882813 2.8125,3.671875 2.8125,9.21875 0,7.4999995 -5.46875,12.7343745 -5.46875,5.1953125 -13.828125,5.1953125 -7.539062,0 -12.5390625,-4.4921875 Q 4.0625,-7.96875 3.359375,-15.117188 Z"
       style="font-style:normal;font-weight:normal;font-size:80px;font-family:Arial;fill:#009e73;stroke:none"
       id="path1067"
       inkscape:connector-curvature="0" />
  </g>
  <g
     aria-label="4"
     transform="matrix(0.0666667,0,0,0.0666667,149.663,41)"
     style="font-style:normal;font-weight:normal;font-size:80px;font-family:Arial;fill:#009e73;stroke:none"
     id="text160">
    <path
       d="M 25.859375,0 V -13.710938 H 1.015625 v -6.445312 l 26.132812,-37.109375 h 5.742188 V -20.15625 H 40.625 v 6.445312 H 32.890625 V 0 Z m 0,-20.15625 V -45.976562 L 7.9296875,-20.15625 Z"
       style="font-style:normal;font-weight:normal;font-size:80px;font-family:Arial;fill:#009e73;stroke:none"
       id="path1070"
       inkscape:connector-curvature="0" />
  </g>
  <g
     aria-label="5"
     transform="matrix(0.0666667,0,0,0.0666667,156.329,65.25)"
     style="font-style:normal;font-weight:normal;font-size:80px;font-family:Arial;fill:#009e73;stroke:none"
     id="text162">
    <path
       d="m 3.3203125,-15 7.3828125,-0.625 q 0.820313,5.390625 3.789063,8.125 3.007812,2.6953125 7.226562,2.6953125 5.078125,0 8.59375,-3.828125 3.515625,-3.8281255 3.515625,-10.1562495 0,-6.015625 -3.398438,-9.492188 -3.359375,-3.476562 -8.828125,-3.476562 -3.398437,0 -6.132812,1.5625 -2.734375,1.523437 -4.296875,3.984375 L 4.5703125,-27.070312 10.117188,-56.484375 H 38.59375 v 6.71875 H 15.742188 L 12.65625,-34.375 q 5.15625,-3.59375 10.820312,-3.59375 7.5,0 12.65625,5.195313 5.15625,5.195312 5.15625,13.359375 0,7.773437 -4.53125,13.4374995 -5.507812,6.953125 -15.039062,6.953125 -7.8125,0 -12.7734375,-4.375 -4.921875,-4.375 -5.625,-11.6015625 z"
       style="font-style:normal;font-weight:normal;font-size:80px;font-family:Arial;fill:#009e73;stroke:none"
       id="path1073"
       inkscape:connector-curvature="0" />
  </g>
  <text
     x="4.4393058"
     y="16.626232"
     font-style="normal"
     font-weight="normal"
     font-size="160px"
     id="text110"
     style="font-style:normal;font-weight:normal;font-size:10.66667175px;font-family:Arial;fill:#e69f00;stroke:none;stroke-width:0.0666667">\iupac{1\H-}</text>
  <text
     x="76.27269"
     y="16.626232"
     font-style="normal"
     font-weight="normal"
     font-size="160px"
     id="text120"
     style="font-style:normal;font-weight:normal;font-size:10.66667175px;font-family:Arial;fill:#e69f00;stroke:none;stroke-width:0.0666667">\iupac{2\H-}</text>
  <text
     x="142.43001"
     y="16.626232"
     font-style="normal"
     font-weight="normal"
     font-size="160px"
     id="text130"
     style="font-style:normal;font-weight:normal;font-size:10.66667175px;font-family:Arial;fill:#e69f00;stroke:none;stroke-width:0.0666667">\iupac{5\H-}</text>
  <text
     xml:space="preserve"
     style="font-style:normal;font-weight:normal;font-size:10.66666698px;line-height:1.25;font-family:sans-serif;text-align:start;letter-spacing:0px;word-spacing:0px;text-anchor:start;fill:#000000;fill-opacity:1;stroke:none"
     x="5.1793127"
     y="85.034386"
     id="text1003"><tspan
       sodipodi:role="line"
       id="tspan1001"
       x="5.1793127"
       y="85.034386">\cmpd{tetrazole.1h}</tspan></text>
  <text
     xml:space="preserve"
     style="font-style:normal;font-weight:normal;font-size:10.66666698px;line-height:1.25;font-family:sans-serif;text-align:start;letter-spacing:0px;word-spacing:0px;text-anchor:start;fill:#000000;fill-opacity:1;stroke:none"
     x="77.217613"
     y="85.034386"
     id="text1003-3"><tspan
       sodipodi:role="line"
       id="tspan1001-2"
       x="77.217613"
       y="85.034386">\cmpd{tetrazole.2h}</tspan></text>
  <text
     xml:space="preserve"
     style="font-style:normal;font-weight:normal;font-size:10.66666698px;line-height:1.25;font-family:sans-serif;text-align:start;letter-spacing:0px;word-spacing:0px;text-anchor:start;fill:#000000;fill-opacity:1;stroke:none"
     x="147.27686"
     y="85.034386"
     id="text1003-3-2"><tspan
       sodipodi:role="line"
       id="tspan1001-2-5"
       x="147.27686"
       y="85.034386">\cmpd{tetrazole.5h}</tspan></text>
</svg>
