<?xml version="1.0" encoding="UTF-8" standalone="no"?>
<svg
   xmlns:dc="http://purl.org/dc/elements/1.1/"
   xmlns:cc="http://creativecommons.org/ns#"
   xmlns:rdf="http://www.w3.org/1999/02/22-rdf-syntax-ns#"
   xmlns:svg="http://www.w3.org/2000/svg"
   xmlns="http://www.w3.org/2000/svg"
   xmlns:sodipodi="http://sodipodi.sourceforge.net/DTD/sodipodi-0.dtd"
   xmlns:inkscape="http://www.inkscape.org/namespaces/inkscape"
   width="380px"
   height="102px"
   viewBox="0 0 380 102"
   style="background-color: #ffffff00"
   version="1.1"
   id="svg168"
   sodipodi:docname="ugi-diamine.svg"
   inkscape:version="0.92.4 (5da689c313, 2019-01-14)">
  <metadata
     id="metadata174">
    <rdf:RDF>
      <cc:Work
         rdf:about="">
        <dc:format>image/svg+xml</dc:format>
        <dc:type
           rdf:resource="http://purl.org/dc/dcmitype/StillImage" />
      </cc:Work>
    </rdf:RDF>
  </metadata>
  <defs
     id="defs172" />
  <sodipodi:namedview
     pagecolor="#ffffff"
     bordercolor="#666666"
     borderopacity="1"
     objecttolerance="10"
     gridtolerance="10"
     guidetolerance="10"
     inkscape:pageopacity="0"
     inkscape:pageshadow="2"
     inkscape:window-width="1920"
     inkscape:window-height="1017"
     id="namedview170"
     showgrid="false"
     inkscape:zoom="2.5530276"
     inkscape:cx="196.04452"
     inkscape:cy="7.8320886"
     inkscape:window-x="-8"
     inkscape:window-y="-8"
     inkscape:window-maximized="1"
     inkscape:current-layer="svg168" />
  <g
     aria-label="HCl"
     transform="matrix(0.0666667,0,0,0.0666667,144.411,42.4447)"
     style="font-style:normal;font-weight:normal;font-size:160px;font-family:Arial;fill:#000000;stroke:none"
     id="text2">
    <path
       d="M 12.8125,0 V -114.53125 H 27.96875 V -67.5 H 87.5 v -47.03125 h 15.15625 V 0 H 87.5 V -53.984375 H 27.96875 V 0 Z"
       style="font-style:normal;font-weight:normal;font-size:160px;font-family:Arial;fill:#000000;stroke:none"
       id="path1011"
       inkscape:connector-curvature="0" />
    <path
       d="m 209.6875,-40.15625 15.15625,3.828125 q -4.76563,18.671875 -17.1875,28.515625 -12.34375,9.765625 -30.23438,9.765625 -18.51562,0 -30.15625,-7.5 -11.5625,-7.578125 -17.65625,-21.875 -6.01562,-14.296875 -6.01562,-30.703125 0,-17.890625 6.79687,-31.171875 6.875,-13.359375 19.45313,-20.234375 12.65625,-6.95313 27.8125,-6.95313 17.1875,0 28.90625,8.75 11.71875,8.750005 16.32812,24.60938 l -14.92187,3.515625 q -3.98438,-12.5 -11.5625,-18.203125 -7.57813,-5.70313 -19.0625,-5.70313 -13.20313,0 -22.10938,6.32813 -8.82812,6.328125 -12.42187,17.03125 -3.59375,10.625 -3.59375,21.953125 0,14.609375 4.21875,25.546875 4.29687,10.859375 13.28125,16.25 8.98437,5.390625 19.45312,5.390625 12.73438,0 21.5625,-7.34375 8.82813,-7.34375 11.95313,-21.796875 z"
       style="font-style:normal;font-weight:normal;font-size:160px;font-family:Arial;fill:#000000;stroke:none"
       id="path1013"
       inkscape:connector-curvature="0" />
    <path
       d="m 241.48437,0 v -114.53125 h 14.0625 V 0 Z"
       style="font-style:normal;font-weight:normal;font-size:160px;font-family:Arial;fill:#000000;stroke:none"
       id="path1015"
       inkscape:connector-curvature="0" />
  </g>
  <path
     stroke="none"
     fill="#000000"
     transform="matrix(0.0666667 0 0 0.0666667 -6.15559 -62)"
     d="M 3686.71,1647.18 L 2162.96,1647.18 L 2162.96,1637.18 L 3686.71,1637.18 Z "
     id="path10" />
  <path
     stroke="none"
     fill="#000000"
     transform="matrix(0.0666667 0 0 0.0666667 -6.15559 -62)"
     d="M 3775,1642.18 C 3775,1642.18 3672.96,1668.69 3672.96,1668.69 C 3672.96,1668.69 3685.71,1653.78 3685.71,1642.18 C 3685.71,1630.15 3672.96,1614.67 3672.96,1614.67 C 3672.96,1614.67 3775,1642.18 3775,1642.18 C 3775,1642.18 3775,1642.18 3775,1642.18 "
     id="path12" />
  <path
     stroke="#000000"
     stroke-width="1"
     fill="none"
     transform="matrix(0.0666667 0 0 0.0666667 -6.15559 -62)"
     d="M 3775,1642.18 C 3775,1642.18 3672.96,1668.69 3672.96,1668.69 C 3672.96,1668.69 3685.71,1653.78 3685.71,1642.18 C 3685.71,1630.15 3672.96,1614.67 3672.96,1614.67 C 3672.96,1614.67 3775,1642.18 3775,1642.18 C 3775,1642.18 3775,1642.18 3775,1642.18 "
     id="path14" />
  <g
     aria-label="H"
     transform="matrix(0.0666667,0,0,0.0666667,56.9312,26.9623)"
     style="font-style:normal;font-weight:normal;font-size:160px;font-family:Arial;fill:#000000;stroke:none"
     id="text16">
    <path
       d="M 12.8125,0 V -114.53125 H 27.96875 V -67.5 H 87.5 v -47.03125 h 15.15625 V 0 H 87.5 V -53.984375 H 27.96875 V 0 Z"
       style="font-style:normal;font-weight:normal;font-size:160px;font-family:Arial;fill:#000000;stroke:none"
       id="path1018"
       inkscape:connector-curvature="0" />
  </g>
  <g
     aria-label="N"
     transform="matrix(0.0666667,0,0,0.0666667,56.9312,37.6289)"
     style="font-style:normal;font-weight:normal;font-size:160px;font-family:Arial;fill:#000000;stroke:none"
     id="text18">
    <path
       d="m 12.1875,0 v -114.53125 h 15.546875 l 60.15625,89.921875 V -114.53125 H 102.42188 V 0 H 86.875 L 26.71875,-90 V 0 Z"
       style="font-style:normal;font-weight:normal;font-size:160px;font-family:Arial;fill:#000000;stroke:none"
       id="path1021"
       inkscape:connector-curvature="0" />
  </g>
  <path
     stroke="none"
     fill="#000000"
     transform="matrix(0.0666667 0 0 0.0666667 -6.15559 -62)"
     d="M 809.147,1774.95 L 798.943,1780.84 L 798.943,1550.13 L 804.045,1546.92 L 809.147,1549.87 L 809.147,1774.95 Z "
     id="path20" />
  <path
     stroke="none"
     fill="#000000"
     transform="matrix(0.0666667 0 0 0.0666667 -6.15559 -62)"
     d="M 1004.07,1887.49 L 1004.07,1893.38 L 998.637,1896.14 L 798.943,1780.84 L 809.147,1774.95 L 1004.07,1887.49 Z "
     id="path22" />
  <path
     stroke="none"
     fill="#000000"
     transform="matrix(0.0666667 0 0 0.0666667 -6.15559 -62)"
     d="M 1199,1774.95 L 1209.21,1780.84 L 1009.51,1896.14 L 1004.07,1893.38 L 1004.07,1887.49 L 1199,1774.95 Z "
     id="path24" />
  <path
     stroke="none"
     fill="#000000"
     transform="matrix(0.0666667 0 0 0.0666667 -6.15559 -62)"
     d="M 1199,1549.87 L 1209.21,1543.98 L 1209.21,1780.84 L 1199,1774.95 L 1199,1549.87 Z "
     id="path26" />
  <path
     stroke="none"
     fill="#000000"
     transform="matrix(0.0666667 0 0 0.0666667 -6.15559 -62)"
     d="M 1083.62,1483.25 L 1088.73,1474.42 L 1209.21,1543.98 L 1199,1549.87 L 1083.62,1483.25 Z "
     id="path28" />
  <path
     stroke="none"
     fill="#000000"
     transform="matrix(0.0666667 0 0 0.0666667 -6.15559 -62)"
     d="M 809.147,1549.87 L 804.045,1546.92 L 804.272,1540.9 L 919.013,1474.65 L 924.116,1483.49 L 809.147,1549.87 Z "
     id="path30" />
  <g
     aria-label="t"
     transform="matrix(0.0666667,0,0,0.0666667,55.9922,12.0115)"
     style="font-style:italic;font-weight:normal;font-size:160px;font-family:Arial;fill:#000000;stroke:none"
     id="text32">
    <path
       d="m 38.359375,-11.484375 -2.34375,11.5625 Q 30.9375,1.40625 26.171875,1.40625 q -8.4375,0 -13.4375,-4.140625 -3.75,-3.125 -3.75,-8.515625 0,-2.734375 2.03125,-12.578125 L 21.09375,-72.03125 H 9.921875 L 12.1875,-82.96875 H 23.359375 L 27.65625,-103.35938 43.828125,-113.125 37.5,-82.96875 h 13.90625 l -2.34375,10.9375 H 35.234375 L 25.625,-26.171875 q -1.796875,8.75 -1.796875,10.46875 0,2.5 1.40625,3.828125 1.484375,1.328125 4.765625,1.328125 4.6875,0 8.359375,-0.9375 z"
       style="font-style:italic;font-weight:normal;font-size:160px;font-family:Arial;fill:#000000;stroke:none"
       id="path1024"
       inkscape:connector-curvature="0" />
  </g>
  <g
     aria-label="-Oct"
     transform="matrix(0.0666667,0,0,0.0666667,58.9557,12.0115)"
     style="font-style:normal;font-weight:normal;font-size:160px;font-family:Arial;fill:#000000;stroke:none"
     id="text34">
    <path
       d="M 5.078125,-34.375 V -48.515625 H 48.28125 V -34.375 Z"
       style="font-style:normal;font-weight:normal;font-size:160px;font-family:Arial;fill:#000000;stroke:none"
       id="path1027"
       inkscape:connector-curvature="0" />
    <path
       d="m 61.171875,-55.78125 q 0,-28.515625 15.3125,-44.60938 15.3125,-16.17187 39.531255,-16.17187 15.85937,0 28.59374,7.57812 12.73438,7.57813 19.375,21.17188 6.71875,13.515625 6.71875,30.703125 0,17.421875 -7.03125,31.171875 -7.03125,13.75 -19.92187,20.859375 -12.89063,7.03125 -27.8125,7.03125 -16.171875,0 -28.90625,-7.8125 -12.734375,-7.8125 -19.296875,-21.328125 -6.5625,-13.515625 -6.5625,-28.59375 z m 15.625,0.234375 q 0,20.703125 11.09375,32.65625 11.171875,11.875 27.968755,11.875 17.10937,0 28.12499,-12.03125 11.09375,-12.03125 11.09375,-34.140625 0,-13.984375 -4.76562,-24.375 -4.6875,-10.46875 -13.82813,-16.171875 -9.06249,-5.781255 -20.39062,-5.781255 -16.09375,0 -27.734375,11.093755 -11.5625,11.015625 -11.5625,36.875 z"
       style="font-style:normal;font-weight:normal;font-size:160px;font-family:Arial;fill:#000000;stroke:none"
       id="path1029"
       inkscape:connector-curvature="0" />
    <path
       d="m 242.5,-30.390625 13.82812,1.796875 Q 254.0625,-14.296875 244.6875,-6.171875 235.39062,1.875 221.79687,1.875 q -17.03125,0 -27.42187,-11.09375 -10.3125,-11.171875 -10.3125,-31.953125 0,-13.4375 4.45312,-23.515625 4.45313,-10.078125 13.51563,-15.078125 9.14062,-5.078125 19.84375,-5.078125 13.51562,0 22.10937,6.875 8.59375,6.796875 11.01563,19.375 l -13.67188,2.109375 Q 239.375,-64.84375 234.375,-69.0625 q -4.92188,-4.21875 -11.95313,-4.21875 -10.625,0 -17.26562,7.65625 -6.64063,7.578125 -6.64063,24.0625 0,16.71875 6.40625,24.296875 6.40625,7.578125 16.71875,7.578125 8.28125,0 13.82813,-5.078125 5.54687,-5.078125 7.03125,-15.625 z"
       style="font-style:normal;font-weight:normal;font-size:160px;font-family:Arial;fill:#000000;stroke:none"
       id="path1031"
       inkscape:connector-curvature="0" />
    <path
       d="m 299.0625,-12.578125 2.03125,12.421875 q -5.9375,1.25 -10.625,1.25 -7.65625,0 -11.875,-2.421875 Q 274.375,-3.75 272.65625,-7.65625 270.9375,-11.640625 270.9375,-24.296875 V -72.03125 H 260.625 v -10.9375 h 10.3125 v -20.54688 l 13.98437,-8.4375 v 28.98438 h 14.14063 v 10.9375 h -14.14063 v 48.515625 q 0,6.015625 0.70313,7.734375 0.78125,1.71875 2.42187,2.734375 1.71875,1.015625 4.84375,1.015625 2.34375,0 6.17188,-0.546875 z"
       style="font-style:normal;font-weight:normal;font-size:160px;font-family:Arial;fill:#000000;stroke:none"
       id="path1033"
       inkscape:connector-curvature="0" />
  </g>
  <path
     stroke="none"
     fill="#000000"
     transform="matrix(0.0666667 0 0 0.0666667 -6.15559 -62)"
     d="M 1357.22,1431.02 L 1381.03,1472.27 L 1371.56,1476.27 L 1349.02,1437.23 L 1357.22,1431.02 Z "
     id="path36" />
  <path
     stroke="none"
     fill="#000000"
     transform="matrix(0.0666667 0 0 0.0666667 -6.15559 -62)"
     d="M 1319.74,1459.38 L 1337.73,1490.55 L 1328.26,1494.55 L 1311.53,1465.58 L 1319.74,1459.38 Z "
     id="path38" />
  <path
     stroke="none"
     fill="#000000"
     transform="matrix(0.0666667 0 0 0.0666667 -6.15559 -62)"
     d="M 1282.25,1487.73 L 1294.43,1508.84 L 1284.96,1512.84 L 1274.05,1493.94 L 1282.25,1487.73 Z "
     id="path40" />
  <path
     stroke="none"
     fill="#000000"
     transform="matrix(0.0666667 0 0 0.0666667 -6.15559 -62)"
     d="M 1244.76,1516.09 L 1251.14,1527.13 L 1241.66,1531.13 L 1236.56,1522.29 L 1244.76,1516.09 Z "
     id="path42" />
  <path
     stroke="none"
     fill="#000000"
     transform="matrix(0.0666667 0 0 0.0666667 -6.15559 -62)"
     d="M 1312.53,1104.37 L 1319.36,1096.78 L 1362.78,1135.88 L 1355.95,1143.47 L 1312.53,1104.37 Z "
     id="path44" />
  <path
     stroke="none"
     fill="#000000"
     transform="matrix(0.0666667 0 0 0.0666667 -6.15559 -62)"
     d="M 1398.67,1434.59 L 1409.6,1428.28 L 1537.52,1485.24 L 1533.37,1494.56 L 1398.67,1434.59 Z "
     id="path46" />
  <path
     stroke="none"
     fill="#000000"
     transform="matrix(0.0666667 0 0 0.0666667 -6.15559 -62)"
     d="M 1446.56,1410.4 L 1450.72,1401.08 L 1554.43,1447.25 L 1550.28,1456.58 L 1446.56,1410.4 Z "
     id="path48" />
  <path
     stroke="none"
     fill="#000000"
     transform="matrix(0.0666667 0 0 0.0666667 -6.15559 -62)"
     d="M 1680.99,1459.87 L 1673.41,1453.04 L 1697.13,1426.7 L 1704.71,1433.52 L 1680.99,1459.87 Z "
     id="path50" />
  <path
     stroke="none"
     fill="#000000"
     transform="matrix(0.0666667 0 0 0.0666667 -6.15559 -62)"
     d="M 1728.27,1271.78 L 1719.43,1276.88 L 1701.12,1245.17 L 1709.96,1240.07 L 1728.27,1271.78 Z "
     id="path52" />
  <path
     stroke="none"
     fill="#000000"
     transform="matrix(0.0666667 0 0 0.0666667 -6.15559 -62)"
     d="M 1692.26,1292.56 L 1683.42,1297.67 L 1665.12,1265.96 L 1673.96,1260.86 L 1692.26,1292.56 Z "
     id="path54" />
  <path
     stroke="none"
     fill="#000000"
     transform="matrix(0.0666667 0 0 0.0666667 -6.15559 -62)"
     d="M 1576.54,1164.99 L 1578.66,1174.98 L 1505.42,1190.54 L 1503.3,1180.56 L 1576.54,1164.99 Z "
     id="path56" />
  <path
     stroke="none"
     fill="#000000"
     transform="matrix(0.0666667 0 0 0.0666667 -6.15559 -62)"
     d="M 1413.94,1289.36 L 1424.09,1290.43 L 1409.6,1428.28 L 1398.67,1434.59 L 1413.94,1289.36 Z "
     id="path58" />
  <g
     aria-label="N"
     transform="matrix(0.0666667,0,0,0.0666667,97.6689,43.892)"
     style="font-style:normal;font-weight:normal;font-size:160px;font-family:Arial;fill:#000000;stroke:none"
     id="text60">
    <path
       d="m 12.1875,0 v -114.53125 h 15.546875 l 60.15625,89.921875 V -114.53125 H 102.42188 V 0 H 86.875 L 26.71875,-90 V 0 Z"
       style="font-style:normal;font-weight:normal;font-size:160px;font-family:Arial;fill:#000000;stroke:none"
       id="path1036"
       inkscape:connector-curvature="0" />
  </g>
  <g
     aria-label="N"
     transform="matrix(0.0666667,0,0,0.0666667,107.972,32.4488)"
     style="font-style:normal;font-weight:normal;font-size:160px;font-family:Arial;fill:#000000;stroke:none"
     id="text62">
    <path
       d="m 12.1875,0 v -114.53125 h 15.546875 l 60.15625,89.921875 V -114.53125 H 102.42188 V 0 H 86.875 L 26.71875,-90 V 0 Z"
       style="font-style:normal;font-weight:normal;font-size:160px;font-family:Arial;fill:#000000;stroke:none"
       id="path1039"
       inkscape:connector-curvature="0" />
  </g>
  <g
     aria-label="N"
     transform="matrix(0.0666667,0,0,0.0666667,100.273,19.1135)"
     style="font-style:normal;font-weight:normal;font-size:160px;font-family:Arial;fill:#000000;stroke:none"
     id="text64">
    <path
       d="m 12.1875,0 v -114.53125 h 15.546875 l 60.15625,89.921875 V -114.53125 H 102.42188 V 0 H 86.875 L 26.71875,-90 V 0 Z"
       style="font-style:normal;font-weight:normal;font-size:160px;font-family:Arial;fill:#000000;stroke:none"
       id="path1042"
       inkscape:connector-curvature="0" />
  </g>
  <g
     aria-label="N"
     transform="matrix(0.0666667,0,0,0.0666667,85.2114,22.315)"
     style="font-style:normal;font-weight:normal;font-size:160px;font-family:Arial;fill:#000000;stroke:none"
     id="text66">
    <path
       d="m 12.1875,0 v -114.53125 h 15.546875 l 60.15625,89.921875 V -114.53125 H 102.42188 V 0 H 86.875 L 26.71875,-90 V 0 Z"
       style="font-style:normal;font-weight:normal;font-size:160px;font-family:Arial;fill:#000000;stroke:none"
       id="path1045"
       inkscape:connector-curvature="0" />
  </g>
  <path
     stroke="none"
     fill="#000000"
     transform="matrix(0.0666667 0 0 0.0666667 -6.15559 -62)"
     d="M 583.944,1448.11 L 621.42,1414.69 L 804.272,1540.9 L 804.045,1546.92 L 798.943,1550.13 L 583.944,1448.11 Z "
     id="path68" />
  <g
     aria-label="BnO"
     transform="matrix(0.0666667,0,0,0.0666667,16.8703,68.4524)"
     style="font-style:normal;font-weight:normal;font-size:160px;font-family:Arial;fill:#000000;stroke:none"
     id="text70">
    <path
       d="M 11.71875,0 V -114.53125 H 54.6875 q 13.125,0 21.015625,3.51562 7.96875,3.4375 12.421875,10.70313 4.53125,7.1875 4.53125,15.078125 0,7.34375 -3.984375,13.828125 -3.984375,6.484375 -12.03125,10.46875 10.390625,3.046875 15.9375,10.390625 5.625,7.34375 5.625,17.34375 0,8.046875 -3.4375,15 -3.359375,6.875 -8.359375,10.625 -5,3.75 -12.578125,5.703125 Q 66.328125,0 55.390625,0 Z M 26.875,-66.40625 h 24.765625 q 10.078125,0 14.453125,-1.328125 5.78125,-1.71875 8.671875,-5.703125 2.96875,-3.984375 2.96875,-10 0,-5.703125 -2.734375,-10 -2.734375,-4.375 -7.8125,-5.9375 -5.078125,-1.64063 -17.421875,-1.64063 H 26.875 Z m 0,52.890625 h 28.515625 q 7.34375,0 10.3125,-0.546875 5.234375,-0.9375 8.75,-3.125 3.515625,-2.1875 5.78125,-6.328125 2.265625,-4.21875 2.265625,-9.6875 0,-6.40625 -3.28125,-11.09375 -3.28125,-4.765625 -9.140625,-6.640625 -5.78125,-1.953125 -16.71875,-1.953125 H 26.875 Z"
       style="font-style:normal;font-weight:normal;font-size:160px;font-family:Arial;fill:#000000;stroke:none"
       id="path1048"
       inkscape:connector-curvature="0" />
    <path
       d="m 117.42188,0 v -82.96875 h 12.65624 v 11.796875 q 9.14063,-13.671875 26.40625,-13.671875 7.5,0 13.75,2.734375 6.32813,2.65625 9.45313,7.03125 3.125,4.375 4.375,10.390625 0.78125,3.90625 0.78125,13.671875 V 0 h -14.0625 v -50.46875 q 0,-8.59375 -1.64063,-12.8125 -1.64062,-4.296875 -5.85937,-6.796875 -4.14063,-2.578125 -9.76563,-2.578125 -8.98437,0 -15.54687,5.703125 -6.48438,5.703125 -6.48438,21.640625 V 0 Z"
       style="font-style:normal;font-weight:normal;font-size:160px;font-family:Arial;fill:#000000;stroke:none"
       id="path1050"
       inkscape:connector-curvature="0" />
    <path
       d="m 203.67187,-55.78125 q 0,-28.515625 15.3125,-44.60938 15.3125,-16.17187 39.53125,-16.17187 15.85938,0 28.59375,7.57812 12.73438,7.57813 19.375,21.17188 6.71875,13.515625 6.71875,30.703125 0,17.421875 -7.03125,31.171875 -7.03125,13.75 -19.92187,20.859375 -12.89063,7.03125 -27.8125,7.03125 -16.17188,0 -28.90625,-7.8125 -12.73438,-7.8125 -19.29688,-21.328125 -6.5625,-13.515625 -6.5625,-28.59375 z m 15.625,0.234375 q 0,20.703125 11.09375,32.65625 11.17188,11.875 27.96875,11.875 17.10938,0 28.125,-12.03125 11.09375,-12.03125 11.09375,-34.140625 0,-13.984375 -4.76562,-24.375 -4.6875,-10.46875 -13.82813,-16.171875 -9.0625,-5.781255 -20.39062,-5.781255 -16.09375,0 -27.73438,11.093755 -11.5625,11.015625 -11.5625,36.875 z"
       style="font-style:normal;font-weight:normal;font-size:160px;font-family:Arial;fill:#000000;stroke:none"
       id="path1052"
       inkscape:connector-curvature="0" />
  </g>
  <path
     stroke="none"
     fill="#000000"
     transform="matrix(0.0666667 0 0 0.0666667 -6.15559 -62)"
     d="M 684.329,1874.51 L 660.518,1833.27 L 670.212,1829.65 L 692.31,1867.92 L 684.329,1874.51 Z "
     id="path72" />
  <path
     stroke="none"
     fill="#000000"
     transform="matrix(0.0666667 0 0 0.0666667 -6.15559 -62)"
     d="M 723.929,1841.83 L 708.616,1815.31 L 718.31,1811.69 L 731.91,1835.25 L 723.929,1841.83 Z "
     id="path74" />
  <path
     stroke="none"
     fill="#000000"
     transform="matrix(0.0666667 0 0 0.0666667 -6.15559 -62)"
     d="M 763.529,1809.16 L 756.714,1797.35 L 766.408,1793.73 L 771.51,1802.57 L 763.529,1809.16 Z "
     id="path76" />
  <g
     aria-label="OBn"
     transform="matrix(0.0666667,0,0,0.0666667,56.6343,83.8775)"
     style="font-style:normal;font-weight:normal;font-size:160px;font-family:Arial;fill:#000000;stroke:none"
     id="text78">
    <path
       d="m 7.734375,-55.78125 q 0,-28.515625 15.3125,-44.60938 15.3125,-16.17187 39.53125,-16.17187 15.859375,0 28.59375,7.57812 12.734375,7.57813 19.375005,21.17188 6.71875,13.515625 6.71875,30.703125 0,17.421875 -7.03125,31.171875 -7.03125,13.75 -19.92188,20.859375 -12.890625,7.03125 -27.8125,7.03125 -16.171875,0 -28.90625,-7.8125 -12.734375,-7.8125 -19.296875,-21.328125 -6.5625,-13.515625 -6.5625,-28.59375 z m 15.625,0.234375 q 0,20.703125 11.09375,32.65625 11.171875,11.875 27.96875,11.875 17.109375,0 28.125,-12.03125 11.093755,-12.03125 11.093755,-34.140625 0,-13.984375 -4.76563,-24.375 -4.6875,-10.46875 -13.828125,-16.171875 -9.0625,-5.781255 -20.390625,-5.781255 -16.09375,0 -27.734375,11.093755 -11.5625,11.015625 -11.5625,36.875 z"
       style="font-style:normal;font-weight:normal;font-size:160px;font-family:Arial;fill:#000000;stroke:none"
       id="path1055"
       inkscape:connector-curvature="0" />
    <path
       d="m 136.09375,0 v -114.53125 h 42.96875 q 13.125,0 21.01562,3.51562 7.96875,3.4375 12.42188,10.70313 4.53125,7.1875 4.53125,15.078125 0,7.34375 -3.98438,13.828125 -3.98437,6.484375 -12.03125,10.46875 10.39063,3.046875 15.9375,10.390625 5.625,7.34375 5.625,17.34375 0,8.046875 -3.4375,15 -3.35937,6.875 -8.35937,10.625 -5,3.75 -12.57813,5.703125 Q 190.70312,0 179.76562,0 Z M 151.25,-66.40625 h 24.76562 q 10.07813,0 14.45313,-1.328125 5.78125,-1.71875 8.67187,-5.703125 2.96875,-3.984375 2.96875,-10 0,-5.703125 -2.73437,-10 -2.73438,-4.375 -7.8125,-5.9375 -5.07813,-1.64063 -17.42188,-1.64063 H 151.25 Z m 0,52.890625 h 28.51562 q 7.34375,0 10.3125,-0.546875 5.23438,-0.9375 8.75,-3.125 3.51563,-2.1875 5.78125,-6.328125 2.26563,-4.21875 2.26563,-9.6875 0,-6.40625 -3.28125,-11.09375 -3.28125,-4.765625 -9.14063,-6.640625 -5.78125,-1.953125 -16.71875,-1.953125 H 151.25 Z"
       style="font-style:normal;font-weight:normal;font-size:160px;font-family:Arial;fill:#000000;stroke:none"
       id="path1057"
       inkscape:connector-curvature="0" />
    <path
       d="m 241.79687,0 v -82.96875 h 12.65625 v 11.796875 q 9.14063,-13.671875 26.40625,-13.671875 7.5,0 13.75,2.734375 6.32813,2.65625 9.45313,7.03125 3.125,4.375 4.375,10.390625 0.78125,3.90625 0.78125,13.671875 V 0 h -14.0625 v -50.46875 q 0,-8.59375 -1.64063,-12.8125 -1.64062,-4.296875 -5.85937,-6.796875 -4.14063,-2.578125 -9.76563,-2.578125 -8.98437,0 -15.54687,5.703125 -6.48438,5.703125 -6.48438,21.640625 V 0 Z"
       style="font-style:normal;font-weight:normal;font-size:160px;font-family:Arial;fill:#000000;stroke:none"
       id="path1059"
       inkscape:connector-curvature="0" />
  </g>
  <path
     stroke="none"
     fill="#000000"
     transform="matrix(0.0666667 0 0 0.0666667 -6.15559 -62)"
     d="M 1027.89,2046.83 L 980.264,2046.83 L 998.637,1896.14 L 1004.07,1893.38 L 1009.51,1896.14 L 1027.89,2046.83 Z "
     id="path80" />
  <g
     aria-label="OBn"
     transform="matrix(0.0666667,0,0,0.0666667,83.3514,68.4524)"
     style="font-style:normal;font-weight:normal;font-size:160px;font-family:Arial;fill:#000000;stroke:none"
     id="text82">
    <path
       d="m 7.734375,-55.78125 q 0,-28.515625 15.3125,-44.60938 15.3125,-16.17187 39.53125,-16.17187 15.859375,0 28.59375,7.57812 12.734375,7.57813 19.375005,21.17188 6.71875,13.515625 6.71875,30.703125 0,17.421875 -7.03125,31.171875 -7.03125,13.75 -19.92188,20.859375 -12.890625,7.03125 -27.8125,7.03125 -16.171875,0 -28.90625,-7.8125 -12.734375,-7.8125 -19.296875,-21.328125 -6.5625,-13.515625 -6.5625,-28.59375 z m 15.625,0.234375 q 0,20.703125 11.09375,32.65625 11.171875,11.875 27.96875,11.875 17.109375,0 28.125,-12.03125 11.093755,-12.03125 11.093755,-34.140625 0,-13.984375 -4.76563,-24.375 -4.6875,-10.46875 -13.828125,-16.171875 -9.0625,-5.781255 -20.390625,-5.781255 -16.09375,0 -27.734375,11.093755 -11.5625,11.015625 -11.5625,36.875 z"
       style="font-style:normal;font-weight:normal;font-size:160px;font-family:Arial;fill:#000000;stroke:none"
       id="path1062"
       inkscape:connector-curvature="0" />
    <path
       d="m 136.09375,0 v -114.53125 h 42.96875 q 13.125,0 21.01562,3.51562 7.96875,3.4375 12.42188,10.70313 4.53125,7.1875 4.53125,15.078125 0,7.34375 -3.98438,13.828125 -3.98437,6.484375 -12.03125,10.46875 10.39063,3.046875 15.9375,10.390625 5.625,7.34375 5.625,17.34375 0,8.046875 -3.4375,15 -3.35937,6.875 -8.35937,10.625 -5,3.75 -12.57813,5.703125 Q 190.70312,0 179.76562,0 Z M 151.25,-66.40625 h 24.76562 q 10.07813,0 14.45313,-1.328125 5.78125,-1.71875 8.67187,-5.703125 2.96875,-3.984375 2.96875,-10 0,-5.703125 -2.73437,-10 -2.73438,-4.375 -7.8125,-5.9375 -5.07813,-1.64063 -17.42188,-1.64063 H 151.25 Z m 0,52.890625 h 28.51562 q 7.34375,0 10.3125,-0.546875 5.23438,-0.9375 8.75,-3.125 3.51563,-2.1875 5.78125,-6.328125 2.26563,-4.21875 2.26563,-9.6875 0,-6.40625 -3.28125,-11.09375 -3.28125,-4.765625 -9.14063,-6.640625 -5.78125,-1.953125 -16.71875,-1.953125 H 151.25 Z"
       style="font-style:normal;font-weight:normal;font-size:160px;font-family:Arial;fill:#000000;stroke:none"
       id="path1064"
       inkscape:connector-curvature="0" />
    <path
       d="m 241.79687,0 v -82.96875 h 12.65625 v 11.796875 q 9.14063,-13.671875 26.40625,-13.671875 7.5,0 13.75,2.734375 6.32813,2.65625 9.45313,7.03125 3.125,4.375 4.375,10.390625 0.78125,3.90625 0.78125,13.671875 V 0 h -14.0625 v -50.46875 q 0,-8.59375 -1.64063,-12.8125 -1.64062,-4.296875 -5.85937,-6.796875 -4.14063,-2.578125 -9.76563,-2.578125 -8.98437,0 -15.54687,5.703125 -6.48438,5.703125 -6.48438,21.640625 V 0 Z"
       style="font-style:normal;font-weight:normal;font-size:160px;font-family:Arial;fill:#000000;stroke:none"
       id="path1066"
       inkscape:connector-curvature="0" />
  </g>
  <path
     stroke="none"
     fill="#000000"
     transform="matrix(0.0666667 0 0 0.0666667 -6.15559 -62)"
     d="M 1348.03,1833.5 L 1324.22,1874.74 L 1316.24,1868.16 L 1338.34,1829.87 L 1348.03,1833.5 Z "
     id="path84" />
  <path
     stroke="none"
     fill="#000000"
     transform="matrix(0.0666667 0 0 0.0666667 -6.15559 -62)"
     d="M 1299.67,1815.39 L 1284.36,1841.91 L 1276.38,1835.33 L 1289.98,1811.77 L 1299.67,1815.39 Z "
     id="path86" />
  <path
     stroke="none"
     fill="#000000"
     transform="matrix(0.0666667 0 0 0.0666667 -6.15559 -62)"
     d="M 1251.31,1797.29 L 1244.5,1809.08 L 1236.51,1802.5 L 1241.62,1793.66 L 1251.31,1797.29 Z "
     id="path88" />
  <g
     aria-label="BnO"
     transform="matrix(0.0666667,0,0,0.0666667,3.4885,45.3281)"
     style="font-style:normal;font-weight:normal;font-size:160px;font-family:Arial;fill:#000000;stroke:none"
     id="text90">
    <path
       d="M 11.71875,0 V -114.53125 H 54.6875 q 13.125,0 21.015625,3.51562 7.96875,3.4375 12.421875,10.70313 4.53125,7.1875 4.53125,15.078125 0,7.34375 -3.984375,13.828125 -3.984375,6.484375 -12.03125,10.46875 10.390625,3.046875 15.9375,10.390625 5.625,7.34375 5.625,17.34375 0,8.046875 -3.4375,15 -3.359375,6.875 -8.359375,10.625 -5,3.75 -12.578125,5.703125 Q 66.328125,0 55.390625,0 Z M 26.875,-66.40625 h 24.765625 q 10.078125,0 14.453125,-1.328125 5.78125,-1.71875 8.671875,-5.703125 2.96875,-3.984375 2.96875,-10 0,-5.703125 -2.734375,-10 -2.734375,-4.375 -7.8125,-5.9375 -5.078125,-1.64063 -17.421875,-1.64063 H 26.875 Z m 0,52.890625 h 28.515625 q 7.34375,0 10.3125,-0.546875 5.234375,-0.9375 8.75,-3.125 3.515625,-2.1875 5.78125,-6.328125 2.265625,-4.21875 2.265625,-9.6875 0,-6.40625 -3.28125,-11.09375 -3.28125,-4.765625 -9.140625,-6.640625 -5.78125,-1.953125 -16.71875,-1.953125 H 26.875 Z"
       style="font-style:normal;font-weight:normal;font-size:160px;font-family:Arial;fill:#000000;stroke:none"
       id="path1069"
       inkscape:connector-curvature="0" />
    <path
       d="m 117.42188,0 v -82.96875 h 12.65624 v 11.796875 q 9.14063,-13.671875 26.40625,-13.671875 7.5,0 13.75,2.734375 6.32813,2.65625 9.45313,7.03125 3.125,4.375 4.375,10.390625 0.78125,3.90625 0.78125,13.671875 V 0 h -14.0625 v -50.46875 q 0,-8.59375 -1.64063,-12.8125 -1.64062,-4.296875 -5.85937,-6.796875 -4.14063,-2.578125 -9.76563,-2.578125 -8.98437,0 -15.54687,5.703125 -6.48438,5.703125 -6.48438,21.640625 V 0 Z"
       style="font-style:normal;font-weight:normal;font-size:160px;font-family:Arial;fill:#000000;stroke:none"
       id="path1071"
       inkscape:connector-curvature="0" />
    <path
       d="m 203.67187,-55.78125 q 0,-28.515625 15.3125,-44.60938 15.3125,-16.17187 39.53125,-16.17187 15.85938,0 28.59375,7.57812 12.73438,7.57813 19.375,21.17188 6.71875,13.515625 6.71875,30.703125 0,17.421875 -7.03125,31.171875 -7.03125,13.75 -19.92187,20.859375 -12.89063,7.03125 -27.8125,7.03125 -16.17188,0 -28.90625,-7.8125 -12.73438,-7.8125 -19.29688,-21.328125 -6.5625,-13.515625 -6.5625,-28.59375 z m 15.625,0.234375 q 0,20.703125 11.09375,32.65625 11.17188,11.875 27.96875,11.875 17.10938,0 28.125,-12.03125 11.09375,-12.03125 11.09375,-34.140625 0,-13.984375 -4.76562,-24.375 -4.6875,-10.46875 -13.82813,-16.171875 -9.0625,-5.781255 -20.39062,-5.781255 -16.09375,0 -27.73438,11.093755 -11.5625,11.015625 -11.5625,36.875 z"
       style="font-style:normal;font-weight:normal;font-size:160px;font-family:Arial;fill:#000000;stroke:none"
       id="path1073"
       inkscape:connector-curvature="0" />
  </g>
  <path
     stroke="none"
     fill="#000000"
     transform="matrix(0.0666667 0 0 0.0666667 -6.15559 -62)"
     d="M 474.248,1511.44 L 469.146,1502.6 L 621.42,1414.69 L 583.944,1448.11 L 474.248,1511.44 Z "
     id="path92" />
  <g
     aria-label="H"
     transform="matrix(0.0666667,0,0,0.0666667,319.228,27.0159)"
     style="font-style:normal;font-weight:normal;font-size:160px;font-family:Arial;fill:#000000;stroke:none"
     id="text94">
    <path
       d="M 12.8125,0 V -114.53125 H 27.96875 V -67.5 H 87.5 v -47.03125 h 15.15625 V 0 H 87.5 V -53.984375 H 27.96875 V 0 Z"
       style="font-style:normal;font-weight:normal;font-size:160px;font-family:Arial;fill:#000000;stroke:none"
       id="path1076"
       inkscape:connector-curvature="0" />
  </g>
  <g
     aria-label="N"
     transform="matrix(0.0666667,0,0,0.0666667,319.228,37.6826)"
     style="font-style:normal;font-weight:normal;font-size:160px;font-family:Arial;fill:#000000;stroke:none"
     id="text96">
    <path
       d="m 12.1875,0 v -114.53125 h 15.546875 l 60.15625,89.921875 V -114.53125 H 102.42188 V 0 H 86.875 L 26.71875,-90 V 0 Z"
       style="font-style:normal;font-weight:normal;font-size:160px;font-family:Arial;fill:#000000;stroke:none"
       id="path1079"
       inkscape:connector-curvature="0" />
  </g>
  <path
     stroke="none"
     fill="#000000"
     transform="matrix(0.0666667 0 0 0.0666667 -6.15559 -62)"
     d="M 4743.6,1775.75 L 4733.39,1781.65 L 4733.39,1550.93 L 4738.5,1547.73 L 4743.6,1550.67 L 4743.6,1775.75 Z "
     id="path98" />
  <path
     stroke="none"
     fill="#000000"
     transform="matrix(0.0666667 0 0 0.0666667 -6.15559 -62)"
     d="M 4938.53,1888.3 L 4938.53,1894.19 L 4933.09,1896.94 L 4733.39,1781.65 L 4743.6,1775.75 L 4938.53,1888.3 Z "
     id="path100" />
  <path
     stroke="none"
     fill="#000000"
     transform="matrix(0.0666667 0 0 0.0666667 -6.15559 -62)"
     d="M 5133.45,1775.75 L 5143.66,1781.65 L 4943.97,1896.94 L 4938.53,1894.19 L 4938.53,1888.3 L 5133.45,1775.75 Z "
     id="path102" />
  <path
     stroke="none"
     fill="#000000"
     transform="matrix(0.0666667 0 0 0.0666667 -6.15559 -62)"
     d="M 5133.45,1550.67 L 5143.66,1544.78 L 5143.66,1781.65 L 5133.45,1775.75 L 5133.45,1550.67 Z "
     id="path104" />
  <path
     stroke="none"
     fill="#000000"
     transform="matrix(0.0666667 0 0 0.0666667 -6.15559 -62)"
     d="M 5018.08,1484.06 L 5023.18,1475.22 L 5143.66,1544.78 L 5133.45,1550.67 L 5018.08,1484.06 Z "
     id="path106" />
  <path
     stroke="none"
     fill="#000000"
     transform="matrix(0.0666667 0 0 0.0666667 -6.15559 -62)"
     d="M 4743.6,1550.67 L 4738.5,1547.73 L 4738.72,1541.7 L 4853.47,1475.46 L 4858.57,1484.29 L 4743.6,1550.67 Z "
     id="path108" />
  <path
     stroke="none"
     fill="#000000"
     transform="matrix(0.0666667 0 0 0.0666667 -6.15559 -62)"
     d="M 5291.67,1431.83 L 5315.49,1473.07 L 5306.01,1477.07 L 5283.47,1438.03 L 5291.67,1431.83 Z "
     id="path110" />
  <path
     stroke="none"
     fill="#000000"
     transform="matrix(0.0666667 0 0 0.0666667 -6.15559 -62)"
     d="M 5254.19,1460.18 L 5272.19,1491.36 L 5262.71,1495.36 L 5245.99,1466.39 L 5254.19,1460.18 Z "
     id="path112" />
  <path
     stroke="none"
     fill="#000000"
     transform="matrix(0.0666667 0 0 0.0666667 -6.15559 -62)"
     d="M 5216.7,1488.54 L 5228.89,1509.65 L 5219.41,1513.65 L 5208.5,1494.74 L 5216.7,1488.54 Z "
     id="path114" />
  <path
     stroke="none"
     fill="#000000"
     transform="matrix(0.0666667 0 0 0.0666667 -6.15559 -62)"
     d="M 5179.21,1516.89 L 5185.59,1527.93 L 5176.11,1531.93 L 5171.01,1523.1 L 5179.21,1516.89 Z "
     id="path116" />
  <path
     stroke="none"
     fill="#000000"
     transform="matrix(0.0666667 0 0 0.0666667 -6.15559 -62)"
     d="M 5333.48,1435.95 L 5343.69,1428.53 L 5480.8,1473.08 L 5477.64,1482.79 L 5333.48,1435.95 Z "
     id="path118" />
  <path
     stroke="none"
     fill="#000000"
     transform="matrix(0.0666667 0 0 0.0666667 -6.15559 -62)"
     d="M 5378.59,1406.88 L 5381.74,1397.18 L 5493.64,1433.54 L 5490.49,1443.24 L 5378.59,1406.88 Z "
     id="path120" />
  <path
     stroke="none"
     fill="#000000"
     transform="matrix(0.0666667 0 0 0.0666667 -6.15559 -62)"
     d="M 5616.72,1431.82 L 5608.47,1425.82 L 5629.18,1397.31 L 5637.44,1403.31 L 5616.72,1431.82 Z "
     id="path122" />
  <path
     stroke="none"
     fill="#000000"
     transform="matrix(0.0666667 0 0 0.0666667 -6.15559 -62)"
     d="M 5643.62,1238.7 L 5635.36,1244.7 L 5614.65,1216.19 L 5622.9,1210.19 L 5643.62,1238.7 Z "
     id="path124" />
  <path
     stroke="none"
     fill="#000000"
     transform="matrix(0.0666667 0 0 0.0666667 -6.15559 -62)"
     d="M 5609.99,1263.14 L 5601.73,1269.14 L 5581.01,1240.62 L 5589.27,1234.63 L 5609.99,1263.14 Z "
     id="path126" />
  <path
     stroke="none"
     fill="#000000"
     transform="matrix(0.0666667 0 0 0.0666667 -6.15559 -62)"
     d="M 5477.64,1150.72 L 5480.8,1160.42 L 5417.92,1180.85 L 5414.76,1171.15 L 5477.64,1150.72 Z "
     id="path128" />
  <path
     stroke="none"
     fill="#000000"
     transform="matrix(0.0666667 0 0 0.0666667 -6.15559 -62)"
     d="M 5333.48,1290.26 L 5343.69,1290.26 L 5343.69,1428.53 L 5333.48,1435.95 L 5333.48,1290.26 Z "
     id="path130" />
  <g
     aria-label="N"
     transform="matrix(0.0666667,0,0,0.0666667,360.543,42.4409)"
     style="font-style:normal;font-weight:normal;font-size:160px;font-family:Arial;fill:#000000;stroke:none"
     id="text132">
    <path
       d="m 12.1875,0 v -114.53125 h 15.546875 l 60.15625,89.921875 V -114.53125 H 102.42188 V 0 H 86.875 L 26.71875,-90 V 0 Z"
       style="font-style:normal;font-weight:normal;font-size:160px;font-family:Arial;fill:#000000;stroke:none"
       id="path1082"
       inkscape:connector-curvature="0" />
  </g>
  <g
     aria-label="N"
     transform="matrix(0.0666667,0,0,0.0666667,369.594,29.9834)"
     style="font-style:normal;font-weight:normal;font-size:160px;font-family:Arial;fill:#000000;stroke:none"
     id="text134">
    <path
       d="m 12.1875,0 v -114.53125 h 15.546875 l 60.15625,89.921875 V -114.53125 H 102.42188 V 0 H 86.875 L 26.71875,-90 V 0 Z"
       style="font-style:normal;font-weight:normal;font-size:160px;font-family:Arial;fill:#000000;stroke:none"
       id="path1085"
       inkscape:connector-curvature="0" />
  </g>
  <g
     aria-label="N"
     transform="matrix(0.0666667,0,0,0.0666667,360.543,17.5259)"
     style="font-style:normal;font-weight:normal;font-size:160px;font-family:Arial;fill:#000000;stroke:none"
     id="text136">
    <path
       d="m 12.1875,0 v -114.53125 h 15.546875 l 60.15625,89.921875 V -114.53125 H 102.42188 V 0 H 86.875 L 26.71875,-90 V 0 Z"
       style="font-style:normal;font-weight:normal;font-size:160px;font-family:Arial;fill:#000000;stroke:none"
       id="path1088"
       inkscape:connector-curvature="0" />
  </g>
  <g
     aria-label="HN"
     transform="matrix(0.0666667,0,0,0.0666667,338.195,22.2843)"
     style="font-style:normal;font-weight:normal;font-size:160px;font-family:Arial;fill:#000000;stroke:none"
     id="text138">
    <path
       d="M 12.8125,0 V -114.53125 H 27.96875 V -67.5 H 87.5 v -47.03125 h 15.15625 V 0 H 87.5 V -53.984375 H 27.96875 V 0 Z"
       style="font-style:normal;font-weight:normal;font-size:160px;font-family:Arial;fill:#000000;stroke:none"
       id="path1091"
       inkscape:connector-curvature="0" />
    <path
       d="m 127.8125,0 v -114.53125 h 15.54687 l 60.15625,89.921875 v -89.921875 h 14.53125 V 0 H 202.5 L 142.34375,-90 V 0 Z"
       style="font-style:normal;font-weight:normal;font-size:160px;font-family:Arial;fill:#000000;stroke:none"
       id="path1093"
       inkscape:connector-curvature="0" />
  </g>
  <path
     stroke="none"
     fill="#000000"
     transform="matrix(0.0666667 0 0 0.0666667 -6.15559 -62)"
     d="M 4519.09,1449.32 L 4556.57,1415.9 L 4738.72,1541.7 L 4738.5,1547.73 L 4733.39,1550.93 L 4519.09,1449.32 Z "
     id="path140" />
  <g
     aria-label="BnO"
     transform="matrix(0.0666667,0,0,0.0666667,279.214,68.4792)"
     style="font-style:normal;font-weight:normal;font-size:160px;font-family:Arial;fill:#000000;stroke:none"
     id="text142">
    <path
       d="M 11.71875,0 V -114.53125 H 54.6875 q 13.125,0 21.015625,3.51562 7.96875,3.4375 12.421875,10.70313 4.53125,7.1875 4.53125,15.078125 0,7.34375 -3.984375,13.828125 -3.984375,6.484375 -12.03125,10.46875 10.390625,3.046875 15.9375,10.390625 5.625,7.34375 5.625,17.34375 0,8.046875 -3.4375,15 -3.359375,6.875 -8.359375,10.625 -5,3.75 -12.578125,5.703125 Q 66.328125,0 55.390625,0 Z M 26.875,-66.40625 h 24.765625 q 10.078125,0 14.453125,-1.328125 5.78125,-1.71875 8.671875,-5.703125 2.96875,-3.984375 2.96875,-10 0,-5.703125 -2.734375,-10 -2.734375,-4.375 -7.8125,-5.9375 -5.078125,-1.64063 -17.421875,-1.64063 H 26.875 Z m 0,52.890625 h 28.515625 q 7.34375,0 10.3125,-0.546875 5.234375,-0.9375 8.75,-3.125 3.515625,-2.1875 5.78125,-6.328125 2.265625,-4.21875 2.265625,-9.6875 0,-6.40625 -3.28125,-11.09375 -3.28125,-4.765625 -9.140625,-6.640625 -5.78125,-1.953125 -16.71875,-1.953125 H 26.875 Z"
       style="font-style:normal;font-weight:normal;font-size:160px;font-family:Arial;fill:#000000;stroke:none"
       id="path1096"
       inkscape:connector-curvature="0" />
    <path
       d="m 117.42188,0 v -82.96875 h 12.65624 v 11.796875 q 9.14063,-13.671875 26.40625,-13.671875 7.5,0 13.75,2.734375 6.32813,2.65625 9.45313,7.03125 3.125,4.375 4.375,10.390625 0.78125,3.90625 0.78125,13.671875 V 0 h -14.0625 v -50.46875 q 0,-8.59375 -1.64063,-12.8125 -1.64062,-4.296875 -5.85937,-6.796875 -4.14063,-2.578125 -9.76563,-2.578125 -8.98437,0 -15.54687,5.703125 -6.48438,5.703125 -6.48438,21.640625 V 0 Z"
       style="font-style:normal;font-weight:normal;font-size:160px;font-family:Arial;fill:#000000;stroke:none"
       id="path1098"
       inkscape:connector-curvature="0" />
    <path
       d="m 203.67187,-55.78125 q 0,-28.515625 15.3125,-44.60938 15.3125,-16.17187 39.53125,-16.17187 15.85938,0 28.59375,7.57812 12.73438,7.57813 19.375,21.17188 6.71875,13.515625 6.71875,30.703125 0,17.421875 -7.03125,31.171875 -7.03125,13.75 -19.92187,20.859375 -12.89063,7.03125 -27.8125,7.03125 -16.17188,0 -28.90625,-7.8125 -12.73438,-7.8125 -19.29688,-21.328125 -6.5625,-13.515625 -6.5625,-28.59375 z m 15.625,0.234375 q 0,20.703125 11.09375,32.65625 11.17188,11.875 27.96875,11.875 17.10938,0 28.125,-12.03125 11.09375,-12.03125 11.09375,-34.140625 0,-13.984375 -4.76562,-24.375 -4.6875,-10.46875 -13.82813,-16.171875 -9.0625,-5.781255 -20.39062,-5.781255 -16.09375,0 -27.73438,11.093755 -11.5625,11.015625 -11.5625,36.875 z"
       style="font-style:normal;font-weight:normal;font-size:160px;font-family:Arial;fill:#000000;stroke:none"
       id="path1100"
       inkscape:connector-curvature="0" />
  </g>
  <path
     stroke="none"
     fill="#000000"
     transform="matrix(0.0666667 0 0 0.0666667 -6.15559 -62)"
     d="M 4619.48,1874.91 L 4595.67,1833.67 L 4605.37,1830.06 L 4627.45,1868.32 L 4619.48,1874.91 Z "
     id="path144" />
  <path
     stroke="none"
     fill="#000000"
     transform="matrix(0.0666667 0 0 0.0666667 -6.15559 -62)"
     d="M 4658.82,1842.39 L 4643.51,1815.86 L 4653.21,1812.24 L 4666.8,1835.79 L 4658.82,1842.39 Z "
     id="path146" />
  <path
     stroke="none"
     fill="#000000"
     transform="matrix(0.0666667 0 0 0.0666667 -6.15559 -62)"
     d="M 4698.17,1809.86 L 4691.35,1798.04 L 4701.05,1794.43 L 4706.15,1803.27 L 4698.17,1809.86 Z "
     id="path148" />
  <g
     aria-label="OBn"
     transform="matrix(0.0666667,0,0,0.0666667,318.931,83.8775)"
     style="font-style:normal;font-weight:normal;font-size:160px;font-family:Arial;fill:#000000;stroke:none"
     id="text150">
    <path
       d="m 7.734375,-55.78125 q 0,-28.515625 15.3125,-44.60938 15.3125,-16.17187 39.53125,-16.17187 15.859375,0 28.59375,7.57812 12.734375,7.57813 19.375005,21.17188 6.71875,13.515625 6.71875,30.703125 0,17.421875 -7.03125,31.171875 -7.03125,13.75 -19.92188,20.859375 -12.890625,7.03125 -27.8125,7.03125 -16.171875,0 -28.90625,-7.8125 -12.734375,-7.8125 -19.296875,-21.328125 -6.5625,-13.515625 -6.5625,-28.59375 z m 15.625,0.234375 q 0,20.703125 11.09375,32.65625 11.171875,11.875 27.96875,11.875 17.109375,0 28.125,-12.03125 11.093755,-12.03125 11.093755,-34.140625 0,-13.984375 -4.76563,-24.375 -4.6875,-10.46875 -13.828125,-16.171875 -9.0625,-5.781255 -20.390625,-5.781255 -16.09375,0 -27.734375,11.093755 -11.5625,11.015625 -11.5625,36.875 z"
       style="font-style:normal;font-weight:normal;font-size:160px;font-family:Arial;fill:#000000;stroke:none"
       id="path1103"
       inkscape:connector-curvature="0" />
    <path
       d="m 136.09375,0 v -114.53125 h 42.96875 q 13.125,0 21.01562,3.51562 7.96875,3.4375 12.42188,10.70313 4.53125,7.1875 4.53125,15.078125 0,7.34375 -3.98438,13.828125 -3.98437,6.484375 -12.03125,10.46875 10.39063,3.046875 15.9375,10.390625 5.625,7.34375 5.625,17.34375 0,8.046875 -3.4375,15 -3.35937,6.875 -8.35937,10.625 -5,3.75 -12.57813,5.703125 Q 190.70312,0 179.76562,0 Z M 151.25,-66.40625 h 24.76562 q 10.07813,0 14.45313,-1.328125 5.78125,-1.71875 8.67187,-5.703125 2.96875,-3.984375 2.96875,-10 0,-5.703125 -2.73437,-10 -2.73438,-4.375 -7.8125,-5.9375 -5.07813,-1.64063 -17.42188,-1.64063 H 151.25 Z m 0,52.890625 h 28.51562 q 7.34375,0 10.3125,-0.546875 5.23438,-0.9375 8.75,-3.125 3.51563,-2.1875 5.78125,-6.328125 2.26563,-4.21875 2.26563,-9.6875 0,-6.40625 -3.28125,-11.09375 -3.28125,-4.765625 -9.14063,-6.640625 -5.78125,-1.953125 -16.71875,-1.953125 H 151.25 Z"
       style="font-style:normal;font-weight:normal;font-size:160px;font-family:Arial;fill:#000000;stroke:none"
       id="path1105"
       inkscape:connector-curvature="0" />
    <path
       d="m 241.79687,0 v -82.96875 h 12.65625 v 11.796875 q 9.14063,-13.671875 26.40625,-13.671875 7.5,0 13.75,2.734375 6.32813,2.65625 9.45313,7.03125 3.125,4.375 4.375,10.390625 0.78125,3.90625 0.78125,13.671875 V 0 h -14.0625 v -50.46875 q 0,-8.59375 -1.64063,-12.8125 -1.64062,-4.296875 -5.85937,-6.796875 -4.14063,-2.578125 -9.76563,-2.578125 -8.98437,0 -15.54687,5.703125 -6.48438,5.703125 -6.48438,21.640625 V 0 Z"
       style="font-style:normal;font-weight:normal;font-size:160px;font-family:Arial;fill:#000000;stroke:none"
       id="path1107"
       inkscape:connector-curvature="0" />
  </g>
  <path
     stroke="none"
     fill="#000000"
     transform="matrix(0.0666667 0 0 0.0666667 -6.15559 -62)"
     d="M 4962.34,2046.83 L 4914.72,2046.83 L 4933.09,1896.94 L 4938.53,1894.19 L 4943.97,1896.94 L 4962.34,2046.83 Z "
     id="path152" />
  <g
     aria-label="OBn"
     transform="matrix(0.0666667,0,0,0.0666667,345.602,68.4792)"
     style="font-style:normal;font-weight:normal;font-size:160px;font-family:Arial;fill:#000000;stroke:none"
     id="text154">
    <path
       d="m 7.734375,-55.78125 q 0,-28.515625 15.3125,-44.60938 15.3125,-16.17187 39.53125,-16.17187 15.859375,0 28.59375,7.57812 12.734375,7.57813 19.375005,21.17188 6.71875,13.515625 6.71875,30.703125 0,17.421875 -7.03125,31.171875 -7.03125,13.75 -19.92188,20.859375 -12.890625,7.03125 -27.8125,7.03125 -16.171875,0 -28.90625,-7.8125 -12.734375,-7.8125 -19.296875,-21.328125 -6.5625,-13.515625 -6.5625,-28.59375 z m 15.625,0.234375 q 0,20.703125 11.09375,32.65625 11.171875,11.875 27.96875,11.875 17.109375,0 28.125,-12.03125 11.093755,-12.03125 11.093755,-34.140625 0,-13.984375 -4.76563,-24.375 -4.6875,-10.46875 -13.828125,-16.171875 -9.0625,-5.781255 -20.390625,-5.781255 -16.09375,0 -27.734375,11.093755 -11.5625,11.015625 -11.5625,36.875 z"
       style="font-style:normal;font-weight:normal;font-size:160px;font-family:Arial;fill:#000000;stroke:none"
       id="path1110"
       inkscape:connector-curvature="0" />
    <path
       d="m 136.09375,0 v -114.53125 h 42.96875 q 13.125,0 21.01562,3.51562 7.96875,3.4375 12.42188,10.70313 4.53125,7.1875 4.53125,15.078125 0,7.34375 -3.98438,13.828125 -3.98437,6.484375 -12.03125,10.46875 10.39063,3.046875 15.9375,10.390625 5.625,7.34375 5.625,17.34375 0,8.046875 -3.4375,15 -3.35937,6.875 -8.35937,10.625 -5,3.75 -12.57813,5.703125 Q 190.70312,0 179.76562,0 Z M 151.25,-66.40625 h 24.76562 q 10.07813,0 14.45313,-1.328125 5.78125,-1.71875 8.67187,-5.703125 2.96875,-3.984375 2.96875,-10 0,-5.703125 -2.73437,-10 -2.73438,-4.375 -7.8125,-5.9375 -5.07813,-1.64063 -17.42188,-1.64063 H 151.25 Z m 0,52.890625 h 28.51562 q 7.34375,0 10.3125,-0.546875 5.23438,-0.9375 8.75,-3.125 3.51563,-2.1875 5.78125,-6.328125 2.26563,-4.21875 2.26563,-9.6875 0,-6.40625 -3.28125,-11.09375 -3.28125,-4.765625 -9.14063,-6.640625 -5.78125,-1.953125 -16.71875,-1.953125 H 151.25 Z"
       style="font-style:normal;font-weight:normal;font-size:160px;font-family:Arial;fill:#000000;stroke:none"
       id="path1112"
       inkscape:connector-curvature="0" />
    <path
       d="m 241.79687,0 v -82.96875 h 12.65625 v 11.796875 q 9.14063,-13.671875 26.40625,-13.671875 7.5,0 13.75,2.734375 6.32813,2.65625 9.45313,7.03125 3.125,4.375 4.375,10.390625 0.78125,3.90625 0.78125,13.671875 V 0 h -14.0625 v -50.46875 q 0,-8.59375 -1.64063,-12.8125 -1.64062,-4.296875 -5.85937,-6.796875 -4.14063,-2.578125 -9.76563,-2.578125 -8.98437,0 -15.54687,5.703125 -6.48438,5.703125 -6.48438,21.640625 V 0 Z"
       style="font-style:normal;font-weight:normal;font-size:160px;font-family:Arial;fill:#000000;stroke:none"
       id="path1114"
       inkscape:connector-curvature="0" />
  </g>
  <path
     stroke="none"
     fill="#000000"
     transform="matrix(0.0666667 0 0 0.0666667 -6.15559 -62)"
     d="M 5281.79,1833.9 L 5257.98,1875.14 L 5250,1868.55 L 5272.09,1830.28 L 5281.79,1833.9 Z "
     id="path156" />
  <path
     stroke="none"
     fill="#000000"
     transform="matrix(0.0666667 0 0 0.0666667 -6.15559 -62)"
     d="M 5233.8,1816 L 5218.48,1842.53 L 5210.5,1835.94 L 5224.1,1812.39 L 5233.8,1816 Z "
     id="path158" />
  <path
     stroke="none"
     fill="#000000"
     transform="matrix(0.0666667 0 0 0.0666667 -6.15559 -62)"
     d="M 5185.81,1798.11 L 5178.99,1809.92 L 5171.01,1803.33 L 5176.11,1794.49 L 5185.81,1798.11 Z "
     id="path160" />
  <g
     aria-label="BnO"
     transform="matrix(0.0666667,0,0,0.0666667,265.878,45.3817)"
     style="font-style:normal;font-weight:normal;font-size:160px;font-family:Arial;fill:#000000;stroke:none"
     id="text162">
    <path
       d="M 11.71875,0 V -114.53125 H 54.6875 q 13.125,0 21.015625,3.51562 7.96875,3.4375 12.421875,10.70313 4.53125,7.1875 4.53125,15.078125 0,7.34375 -3.984375,13.828125 -3.984375,6.484375 -12.03125,10.46875 10.390625,3.046875 15.9375,10.390625 5.625,7.34375 5.625,17.34375 0,8.046875 -3.4375,15 -3.359375,6.875 -8.359375,10.625 -5,3.75 -12.578125,5.703125 Q 66.328125,0 55.390625,0 Z M 26.875,-66.40625 h 24.765625 q 10.078125,0 14.453125,-1.328125 5.78125,-1.71875 8.671875,-5.703125 2.96875,-3.984375 2.96875,-10 0,-5.703125 -2.734375,-10 -2.734375,-4.375 -7.8125,-5.9375 -5.078125,-1.64063 -17.421875,-1.64063 H 26.875 Z m 0,52.890625 h 28.515625 q 7.34375,0 10.3125,-0.546875 5.234375,-0.9375 8.75,-3.125 3.515625,-2.1875 5.78125,-6.328125 2.265625,-4.21875 2.265625,-9.6875 0,-6.40625 -3.28125,-11.09375 -3.28125,-4.765625 -9.140625,-6.640625 -5.78125,-1.953125 -16.71875,-1.953125 H 26.875 Z"
       style="font-style:normal;font-weight:normal;font-size:160px;font-family:Arial;fill:#000000;stroke:none"
       id="path1117"
       inkscape:connector-curvature="0" />
    <path
       d="m 117.42188,0 v -82.96875 h 12.65624 v 11.796875 q 9.14063,-13.671875 26.40625,-13.671875 7.5,0 13.75,2.734375 6.32813,2.65625 9.45313,7.03125 3.125,4.375 4.375,10.390625 0.78125,3.90625 0.78125,13.671875 V 0 h -14.0625 v -50.46875 q 0,-8.59375 -1.64063,-12.8125 -1.64062,-4.296875 -5.85937,-6.796875 -4.14063,-2.578125 -9.76563,-2.578125 -8.98437,0 -15.54687,5.703125 -6.48438,5.703125 -6.48438,21.640625 V 0 Z"
       style="font-style:normal;font-weight:normal;font-size:160px;font-family:Arial;fill:#000000;stroke:none"
       id="path1119"
       inkscape:connector-curvature="0" />
    <path
       d="m 203.67187,-55.78125 q 0,-28.515625 15.3125,-44.60938 15.3125,-16.17187 39.53125,-16.17187 15.85938,0 28.59375,7.57812 12.73438,7.57813 19.375,21.17188 6.71875,13.515625 6.71875,30.703125 0,17.421875 -7.03125,31.171875 -7.03125,13.75 -19.92187,20.859375 -12.89063,7.03125 -27.8125,7.03125 -16.17188,0 -28.90625,-7.8125 -12.73438,-7.8125 -19.29688,-21.328125 -6.5625,-13.515625 -6.5625,-28.59375 z m 15.625,0.234375 q 0,20.703125 11.09375,32.65625 11.17188,11.875 27.96875,11.875 17.10938,0 28.125,-12.03125 11.09375,-12.03125 11.09375,-34.140625 0,-13.984375 -4.76562,-24.375 -4.6875,-10.46875 -13.82813,-16.171875 -9.0625,-5.781255 -20.39062,-5.781255 -16.09375,0 -27.73438,11.093755 -11.5625,11.015625 -11.5625,36.875 z"
       style="font-style:normal;font-weight:normal;font-size:160px;font-family:Arial;fill:#000000;stroke:none"
       id="path1121"
       inkscape:connector-curvature="0" />
  </g>
  <path
     stroke="none"
     fill="#000000"
     transform="matrix(0.0666667 0 0 0.0666667 -6.15559 -62)"
     d="M 4410.09,1512.25 L 4404.99,1503.41 L 4556.57,1415.9 L 4519.09,1449.32 L 4410.09,1512.25 Z "
     id="path164" />
  <text
     xml:space="preserve"
     style="font-style:normal;font-weight:normal;font-size:10.66666698px;line-height:1.25;font-family:sans-serif;text-align:start;letter-spacing:0px;word-spacing:0px;text-anchor:start;fill:#000000;fill-opacity:1;stroke:none"
     x="353.69769"
     y="94.656685"
     id="text983"><tspan
       sodipodi:role="line"
       id="tspan981"
       x="353.69769"
       y="94.656685">\SI{75}{\percent}</tspan></text>
  <text
     xml:space="preserve"
     style="font-style:normal;font-weight:normal;font-size:10.66666698px;line-height:1.25;font-family:sans-serif;text-align:start;letter-spacing:0px;word-spacing:0px;text-anchor:start;fill:#000000;fill-opacity:1;stroke:none"
     x="17.286966"
     y="94.599396"
     id="text987"><tspan
       sodipodi:role="line"
       id="tspan985"
       x="17.286966"
       y="94.599396">\cmpd{glu-tet.oct}</tspan></text>
  <text
     xml:space="preserve"
     style="font-style:normal;font-weight:normal;font-size:10.66666698px;line-height:1.25;font-family:sans-serif;text-align:start;letter-spacing:0px;word-spacing:0px;text-anchor:start;fill:#000000;fill-opacity:1;stroke:none"
     x="279.63068"
     y="94.599396"
     id="text987-3"><tspan
       sodipodi:role="line"
       id="tspan985-6"
       x="279.63068"
       y="94.599396">\cmpd{glu-tet-free}</tspan></text>
  <text
     xml:space="preserve"
     style="font-style:normal;font-weight:normal;font-size:10.66666698px;line-height:1.25;font-family:sans-serif;text-align:start;letter-spacing:0px;word-spacing:0px;text-anchor:start;fill:#000000;fill-opacity:1;stroke:none"
     x="143.75089"
     y="58.913902"
     id="text1009"><tspan
       sodipodi:role="line"
       id="tspan1007"
       x="143.75089"
       y="58.913902">\iupac{1,4-dioksan}, \SI{90}{\degC}</tspan></text>
</svg>
