<?xml version="1.0" encoding="UTF-8" standalone="no"?>
<svg
   xmlns:dc="http://purl.org/dc/elements/1.1/"
   xmlns:cc="http://creativecommons.org/ns#"
   xmlns:rdf="http://www.w3.org/1999/02/22-rdf-syntax-ns#"
   xmlns:svg="http://www.w3.org/2000/svg"
   xmlns="http://www.w3.org/2000/svg"
   xmlns:sodipodi="http://sodipodi.sourceforge.net/DTD/sodipodi-0.dtd"
   xmlns:inkscape="http://www.inkscape.org/namespaces/inkscape"
   width="411px"
   height="55px"
   viewBox="0 0 411 55"
   style="background-color: #ffffff00"
   version="1.1"
   id="svg162"
   sodipodi:docname="ugi-azide.svg"
   inkscape:version="0.92.3 (2405546, 2018-03-11)">
  <metadata
     id="metadata168">
    <rdf:RDF>
      <cc:Work
         rdf:about="">
        <dc:format>image/svg+xml</dc:format>
        <dc:type
           rdf:resource="http://purl.org/dc/dcmitype/StillImage" />
      </cc:Work>
    </rdf:RDF>
  </metadata>
  <defs
     id="defs166" />
  <sodipodi:namedview
     pagecolor="#ffffff"
     bordercolor="#666666"
     borderopacity="1"
     objecttolerance="10"
     gridtolerance="10"
     guidetolerance="10"
     inkscape:pageopacity="0"
     inkscape:pageshadow="2"
     inkscape:window-width="1920"
     inkscape:window-height="1017"
     id="namedview164"
     showgrid="false"
     inkscape:zoom="3.5036496"
     inkscape:cx="259.23886"
     inkscape:cy="-17.040939"
     inkscape:window-x="-8"
     inkscape:window-y="-8"
     inkscape:window-maximized="1"
     inkscape:current-layer="svg162" />
  <g
     aria-label="R"
     transform="matrix(0.0666667,0,0,0.0666667,3.48882,36.4591)"
     style="font-style:normal;font-weight:normal;font-size:160px;font-family:Arial;fill:#009e73;stroke:none"
     id="text2">
    <path
       d="m 12.578125,0 v -114.53125 h 50.78125 q 15.3125,0 23.28125,3.125 7.96875,3.04687 12.734375,10.85937 4.76563,7.812505 4.76563,17.26563 0,12.1875 -7.89063,20.546875 -7.890625,8.359375 -24.375,10.625 6.015625,2.890625 9.140625,5.703125 6.640625,6.09375 12.578125,15.234375 L 113.51563,0 H 94.453125 l -15.15625,-23.828125 q -6.640625,-10.3125 -10.9375,-15.78125 -4.296875,-5.46875 -7.734375,-7.65625 -3.359375,-2.1875 -6.875,-3.046875 -2.578125,-0.546875 -8.4375,-0.546875 H 27.734375 V 0 Z m 15.15625,-63.984375 H 60.3125 q 10.390625,0 16.25,-2.109375 5.859375,-2.1875 8.90625,-6.875 3.046875,-4.765625 3.046875,-10.3125 0,-8.125 -5.9375,-13.359375 Q 76.71875,-101.875 63.984375,-101.875 h -36.25 z"
       style="font-style:normal;font-weight:normal;font-size:160px;font-family:Arial;fill:#009e73;stroke:none"
       id="path975"
       inkscape:connector-curvature="0" />
  </g>
  <g
     aria-label="1"
     transform="matrix(0.0666667,0,0,0.0666667,11.2222,32.2591)"
     style="font-style:normal;font-weight:normal;font-size:120px;font-family:Arial;fill:#009e73;stroke:none"
     id="text4">
    <path
       d="M 44.707031,0 H 34.160156 v -67.207031 q -3.808594,3.632812 -10.019531,7.265625 -6.152344,3.632812 -11.074219,5.449219 V -64.6875 q 8.847656,-4.160156 15.46875,-10.078125 6.621094,-5.917969 9.375,-11.484375 h 6.796875 z"
       style="font-style:normal;font-weight:normal;font-size:120px;font-family:Arial;fill:#009e73;stroke:none"
       id="path978"
       inkscape:connector-curvature="0" />
  </g>
  <path
     stroke="none"
     fill="#009e73"
     transform="matrix(0.0666667 0 0 0.0666667 3.48882 -16.3333)"
     d="M 257.336,607.909 L 257.336,619.692 L 196.085,655.055 L 190.983,646.218 L 257.336,607.909 Z "
     id="path6" />
  <g
     aria-label="R"
     transform="matrix(0.0666667,0,0,0.0666667,30.0669,36.4591)"
     style="font-style:normal;font-weight:normal;font-size:160px;font-family:Arial;fill:#009e73;stroke:none"
     id="text8">
    <path
       d="m 12.578125,0 v -114.53125 h 50.78125 q 15.3125,0 23.28125,3.125 7.96875,3.04687 12.734375,10.85937 4.76563,7.812505 4.76563,17.26563 0,12.1875 -7.89063,20.546875 -7.890625,8.359375 -24.375,10.625 6.015625,2.890625 9.140625,5.703125 6.640625,6.09375 12.578125,15.234375 L 113.51563,0 H 94.453125 l -15.15625,-23.828125 q -6.640625,-10.3125 -10.9375,-15.78125 -4.296875,-5.46875 -7.734375,-7.65625 -3.359375,-2.1875 -6.875,-3.046875 -2.578125,-0.546875 -8.4375,-0.546875 H 27.734375 V 0 Z m 15.15625,-63.984375 H 60.3125 q 10.390625,0 16.25,-2.109375 5.859375,-2.1875 8.90625,-6.875 3.046875,-4.765625 3.046875,-10.3125 0,-8.125 -5.9375,-13.359375 Q 76.71875,-101.875 63.984375,-101.875 h -36.25 z"
       style="font-style:normal;font-weight:normal;font-size:160px;font-family:Arial;fill:#009e73;stroke:none"
       id="path981"
       inkscape:connector-curvature="0" />
  </g>
  <g
     aria-label="2"
     transform="matrix(0.0666667,0,0,0.0666667,37.8002,32.2591)"
     style="font-style:normal;font-weight:normal;font-size:120px;font-family:Arial;fill:#009e73;stroke:none"
     id="text10">
    <path
       d="M 60.410156,-10.136719 V 0 H 3.6328125 Q 3.515625,-3.8085938 4.8632812,-7.3242187 7.03125,-13.125 11.777344,-18.75 q 4.804687,-5.625 13.828125,-13.007812 14.003906,-11.484375 18.925781,-18.164063 4.921875,-6.738281 4.921875,-12.714844 0,-6.269531 -4.511719,-10.546875 -4.453125,-4.335937 -11.660156,-4.335937 -7.617188,0 -12.1875,4.570312 -4.570313,4.570313 -4.628906,12.65625 L 5.625,-61.40625 Q 6.7382812,-73.535156 14.003906,-79.863281 21.269531,-86.25 33.515625,-86.25 q 12.363281,0 19.570312,6.855469 7.207032,6.855469 7.207032,16.992187 0,5.15625 -2.109375,10.136719 -2.109375,4.980469 -7.03125,10.488281 -4.863282,5.507813 -16.230469,15.117188 -9.492188,7.96875 -12.1875,10.839843 -2.695313,2.8125 -4.453125,5.683594 z"
       style="font-style:normal;font-weight:normal;font-size:120px;font-family:Arial;fill:#009e73;stroke:none"
       id="path984"
       inkscape:connector-curvature="0" />
  </g>
  <path
     stroke="none"
     fill="#009e73"
     transform="matrix(0.0666667 0 0 0.0666667 3.48882 -16.3333)"
     d="M 381.161,679.399 L 376.059,688.237 L 257.336,619.692 L 257.336,607.909 L 381.161,679.399 Z "
     id="path12" />
  <g
     aria-label="O"
     transform="matrix(0.0666667,0,0,0.0666667,16.5112,13.4418)"
     style="font-style:normal;font-weight:normal;font-size:160px;font-family:Arial;fill:#009e73;stroke:none"
     id="text14">
    <path
       d="m 7.734375,-55.78125 q 0,-28.515625 15.3125,-44.60938 15.3125,-16.17187 39.53125,-16.17187 15.859375,0 28.59375,7.57812 12.734375,7.57813 19.375005,21.17188 6.71875,13.515625 6.71875,30.703125 0,17.421875 -7.03125,31.171875 -7.03125,13.75 -19.92188,20.859375 -12.890625,7.03125 -27.8125,7.03125 -16.171875,0 -28.90625,-7.8125 -12.734375,-7.8125 -19.296875,-21.328125 -6.5625,-13.515625 -6.5625,-28.59375 z m 15.625,0.234375 q 0,20.703125 11.09375,32.65625 11.171875,11.875 27.96875,11.875 17.109375,0 28.125,-12.03125 11.093755,-12.03125 11.093755,-34.140625 0,-13.984375 -4.76563,-24.375 -4.6875,-10.46875 -13.828125,-16.171875 -9.0625,-5.781255 -20.390625,-5.781255 -16.09375,0 -27.734375,11.093755 -11.5625,11.015625 -11.5625,36.875 z"
       style="font-style:normal;font-weight:normal;font-size:160px;font-family:Arial;fill:#009e73;stroke:none"
       id="path987"
       inkscape:connector-curvature="0" />
  </g>
  <path
     stroke="none"
     fill="#009e73"
     transform="matrix(0.0666667 0 0 0.0666667 3.48882 -16.3333)"
     d="M 231.518,475.294 L 241.722,475.294 L 241.722,625.76 L 231.518,625.76 L 231.518,475.294 Z "
     id="path16" />
  <path
     stroke="none"
     fill="#009e73"
     transform="matrix(0.0666667 0 0 0.0666667 3.48882 -16.3333)"
     d="M 272.949,475.294 L 283.153,475.294 L 283.153,625.76 L 272.949,625.76 L 272.949,475.294 Z "
     id="path18" />
  <path
     stroke="none"
     fill="#cc79a7"
     transform="matrix(0.0666667 0 0 0.0666667 3.48882 -16.3333)"
     d="M 1188.83,645.483 L 1183.73,654.32 L 1152.46,636.268 L 1157.56,627.431 L 1188.83,645.483 Z "
     id="path20" />
  <g
     aria-label="NH"
     transform="matrix(0.0666667,0,0,0.0666667,83.9017,34.1924)"
     style="font-style:normal;font-weight:normal;font-size:160px;font-family:Arial;fill:#cc79a7;stroke:none"
     id="text22">
    <path
       d="m 12.1875,0 v -114.53125 h 15.546875 l 60.15625,89.921875 V -114.53125 H 102.42188 V 0 H 86.875 L 26.71875,-90 V 0 Z"
       style="font-style:normal;font-weight:normal;font-size:160px;font-family:Arial;fill:#cc79a7;stroke:none"
       id="path990"
       inkscape:connector-curvature="0" />
    <path
       d="m 128.4375,0 v -114.53125 h 15.15625 V -67.5 H 203.125 v -47.03125 h 15.15625 V 0 H 203.125 V -53.984375 H 143.59375 V 0 Z"
       style="font-style:normal;font-weight:normal;font-size:160px;font-family:Arial;fill:#cc79a7;stroke:none"
       id="path992"
       inkscape:connector-curvature="0" />
  </g>
  <g
     aria-label="2"
     transform="matrix(0.0666667,0,0,0.0666667,99.3684,36.4591)"
     style="font-style:normal;font-weight:normal;font-size:120px;font-family:Arial;fill:#cc79a7;stroke:none"
     id="text24">
    <path
       d="M 60.410156,-10.136719 V 0 H 3.6328125 Q 3.515625,-3.8085938 4.8632812,-7.3242187 7.03125,-13.125 11.777344,-18.75 q 4.804687,-5.625 13.828125,-13.007812 14.003906,-11.484375 18.925781,-18.164063 4.921875,-6.738281 4.921875,-12.714844 0,-6.269531 -4.511719,-10.546875 -4.453125,-4.335937 -11.660156,-4.335937 -7.617188,0 -12.1875,4.570312 -4.570313,4.570313 -4.628906,12.65625 L 5.625,-61.40625 Q 6.7382812,-73.535156 14.003906,-79.863281 21.269531,-86.25 33.515625,-86.25 q 12.363281,0 19.570312,6.855469 7.207032,6.855469 7.207032,16.992187 0,5.15625 -2.109375,10.136719 -2.109375,4.980469 -7.03125,10.488281 -4.863282,5.507813 -16.230469,15.117188 -9.492188,7.96875 -12.1875,10.839843 -2.695313,2.8125 -4.453125,5.683594 z"
       style="font-style:normal;font-weight:normal;font-size:120px;font-family:Arial;fill:#cc79a7;stroke:none"
       id="path995"
       inkscape:connector-curvature="0" />
  </g>
  <g
     aria-label="R"
     transform="matrix(0.0666667,0,0,0.0666667,70.6127,26.52)"
     style="font-style:normal;font-weight:normal;font-size:160px;font-family:Arial;fill:#cc79a7;stroke:none"
     id="text26">
    <path
       d="m 12.578125,0 v -114.53125 h 50.78125 q 15.3125,0 23.28125,3.125 7.96875,3.04687 12.734375,10.85937 4.76563,7.812505 4.76563,17.26563 0,12.1875 -7.89063,20.546875 -7.890625,8.359375 -24.375,10.625 6.015625,2.890625 9.140625,5.703125 6.640625,6.09375 12.578125,15.234375 L 113.51563,0 H 94.453125 l -15.15625,-23.828125 q -6.640625,-10.3125 -10.9375,-15.78125 -4.296875,-5.46875 -7.734375,-7.65625 -3.359375,-2.1875 -6.875,-3.046875 -2.578125,-0.546875 -8.4375,-0.546875 H 27.734375 V 0 Z m 15.15625,-63.984375 H 60.3125 q 10.390625,0 16.25,-2.109375 5.859375,-2.1875 8.90625,-6.875 3.046875,-4.765625 3.046875,-10.3125 0,-8.125 -5.9375,-13.359375 Q 76.71875,-101.875 63.984375,-101.875 h -36.25 z"
       style="font-style:normal;font-weight:normal;font-size:160px;font-family:Arial;fill:#cc79a7;stroke:none"
       id="path998"
       inkscape:connector-curvature="0" />
  </g>
  <g
     aria-label="3"
     transform="matrix(0.0666667,0,0,0.0666667,78.346,22.32)"
     style="font-style:normal;font-weight:normal;font-size:120px;font-family:Arial;fill:#cc79a7;stroke:none"
     id="text28">
    <path
       d="m 5.0390625,-22.675781 10.5468755,-1.40625 q 1.816406,8.964843 6.152343,12.949218 4.394531,3.9257818 10.664063,3.9257818 7.441406,0 12.539062,-5.1562498 5.15625,-5.15625 5.15625,-12.773438 0,-7.265625 -4.746094,-11.953125 -4.746093,-4.746093 -12.070312,-4.746093 -2.988281,0 -7.441406,1.171875 l 1.171875,-9.257813 q 1.054687,0.117188 1.699218,0.117188 6.738282,0 12.128907,-3.515625 5.390625,-3.515625 5.390625,-10.839844 0,-5.800781 -3.925782,-9.609375 -3.925781,-3.808594 -10.136718,-3.808594 -6.152344,0 -10.253907,3.867188 -4.101562,3.867187 -5.273437,11.601562 l -10.546875,-1.875 Q 8.0273438,-74.589844 14.882813,-80.390625 21.738281,-86.25 31.933594,-86.25 q 7.03125,0 12.949218,3.046875 5.917969,2.988281 9.023438,8.203125 3.164062,5.214844 3.164062,11.074219 0,5.566406 -2.988281,10.136719 -2.988281,4.570312 -8.847656,7.265625 7.617187,1.757812 11.835937,7.324218 4.21875,5.507813 4.21875,13.828125 0,11.25 -8.203125,19.1015628 -8.203125,7.7929687 -20.742187,7.7929687 -11.308594,0 -18.808594,-6.7382812 Q 6.09375,-11.953125 5.0390625,-22.675781 Z"
       style="font-style:normal;font-weight:normal;font-size:120px;font-family:Arial;fill:#cc79a7;stroke:none"
       id="path1001"
       inkscape:connector-curvature="0" />
  </g>
  <g
     aria-label="R"
     transform="matrix(0.0666667,0,0,0.0666667,230.751,52.0079)"
     style="font-style:normal;font-weight:normal;font-size:160px;font-family:Arial;fill:#009e73;stroke:none"
     id="text30">
    <path
       d="m 12.578125,0 v -114.53125 h 50.78125 q 15.3125,0 23.28125,3.125 7.96875,3.04687 12.734375,10.85937 4.76563,7.812505 4.76563,17.26563 0,12.1875 -7.89063,20.546875 -7.890625,8.359375 -24.375,10.625 6.015625,2.890625 9.140625,5.703125 6.640625,6.09375 12.578125,15.234375 L 113.51563,0 H 94.453125 l -15.15625,-23.828125 q -6.640625,-10.3125 -10.9375,-15.78125 -4.296875,-5.46875 -7.734375,-7.65625 -3.359375,-2.1875 -6.875,-3.046875 -2.578125,-0.546875 -8.4375,-0.546875 H 27.734375 V 0 Z m 15.15625,-63.984375 H 60.3125 q 10.390625,0 16.25,-2.109375 5.859375,-2.1875 8.90625,-6.875 3.046875,-4.765625 3.046875,-10.3125 0,-8.125 -5.9375,-13.359375 Q 76.71875,-101.875 63.984375,-101.875 h -36.25 z"
       style="font-style:normal;font-weight:normal;font-size:160px;font-family:Arial;fill:#009e73;stroke:none"
       id="path1004"
       inkscape:connector-curvature="0" />
  </g>
  <g
     aria-label="1"
     transform="matrix(0.0666667,0,0,0.0666667,238.484,47.8079)"
     style="font-style:normal;font-weight:normal;font-size:120px;font-family:Arial;fill:#009e73;stroke:none"
     id="text32">
    <path
       d="M 44.707031,0 H 34.160156 v -67.207031 q -3.808594,3.632812 -10.019531,7.265625 -6.152344,3.632812 -11.074219,5.449219 V -64.6875 q 8.847656,-4.160156 15.46875,-10.078125 6.621094,-5.917969 9.375,-11.484375 h 6.796875 z"
       style="font-style:normal;font-weight:normal;font-size:120px;font-family:Arial;fill:#009e73;stroke:none"
       id="path1007"
       inkscape:connector-curvature="0" />
  </g>
  <path
     stroke="none"
     fill="#009e73"
     transform="matrix(0.0666667 0 0 0.0666667 3.48882 -16.3333)"
     d="M 3574.96,764.8 L 3581.93,762.932 L 3581.93,773.137 L 3529.77,863.476 L 3520.93,858.374 L 3574.96,764.8 Z "
     id="path34" />
  <g
     aria-label="R"
     transform="matrix(0.0666667,0,0,0.0666667,246.084,52.0079)"
     style="font-style:normal;font-weight:normal;font-size:160px;font-family:Arial;fill:#009e73;stroke:none"
     id="text36">
    <path
       d="m 12.578125,0 v -114.53125 h 50.78125 q 15.3125,0 23.28125,3.125 7.96875,3.04687 12.734375,10.85937 4.76563,7.812505 4.76563,17.26563 0,12.1875 -7.89063,20.546875 -7.890625,8.359375 -24.375,10.625 6.015625,2.890625 9.140625,5.703125 6.640625,6.09375 12.578125,15.234375 L 113.51563,0 H 94.453125 l -15.15625,-23.828125 q -6.640625,-10.3125 -10.9375,-15.78125 -4.296875,-5.46875 -7.734375,-7.65625 -3.359375,-2.1875 -6.875,-3.046875 -2.578125,-0.546875 -8.4375,-0.546875 H 27.734375 V 0 Z m 15.15625,-63.984375 H 60.3125 q 10.390625,0 16.25,-2.109375 5.859375,-2.1875 8.90625,-6.875 3.046875,-4.765625 3.046875,-10.3125 0,-8.125 -5.9375,-13.359375 Q 76.71875,-101.875 63.984375,-101.875 h -36.25 z"
       style="font-style:normal;font-weight:normal;font-size:160px;font-family:Arial;fill:#009e73;stroke:none"
       id="path1010"
       inkscape:connector-curvature="0" />
  </g>
  <g
     aria-label="2"
     transform="matrix(0.0666667,0,0,0.0666667,253.817,47.8079)"
     style="font-style:normal;font-weight:normal;font-size:120px;font-family:Arial;fill:#009e73;stroke:none"
     id="text38">
    <path
       d="M 60.410156,-10.136719 V 0 H 3.6328125 Q 3.515625,-3.8085938 4.8632812,-7.3242187 7.03125,-13.125 11.777344,-18.75 q 4.804687,-5.625 13.828125,-13.007812 14.003906,-11.484375 18.925781,-18.164063 4.921875,-6.738281 4.921875,-12.714844 0,-6.269531 -4.511719,-10.546875 -4.453125,-4.335937 -11.660156,-4.335937 -7.617188,0 -12.1875,4.570312 -4.570313,4.570313 -4.628906,12.65625 L 5.625,-61.40625 Q 6.7382812,-73.535156 14.003906,-79.863281 21.269531,-86.25 33.515625,-86.25 q 12.363281,0 19.570312,6.855469 7.207032,6.855469 7.207032,16.992187 0,5.15625 -2.109375,10.136719 -2.109375,4.980469 -7.03125,10.488281 -4.863282,5.507813 -16.230469,15.117188 -9.492188,7.96875 -12.1875,10.839843 -2.695313,2.8125 -4.453125,5.683594 z"
       style="font-style:normal;font-weight:normal;font-size:120px;font-family:Arial;fill:#009e73;stroke:none"
       id="path1013"
       inkscape:connector-curvature="0" />
  </g>
  <path
     stroke="none"
     fill="#009e73"
     transform="matrix(0.0666667 0 0 0.0666667 3.48882 -16.3333)"
     d="M 3655.3,879.815 L 3646.47,884.917 L 3581.93,773.137 L 3581.93,762.932 L 3588.9,764.8 L 3655.3,879.815 Z "
     id="path40" />
  <path
     stroke="none"
     fill="#cc79a7"
     transform="matrix(0.0666667 0 0 0.0666667 3.48882 -16.3333)"
     d="M 3377.64,506.599 L 3387.84,506.599 L 3387.84,571.933 L 3377.64,571.933 L 3377.64,506.599 Z "
     id="path42" />
  <path
     stroke="none"
     fill="#000000"
     transform="matrix(0.0666667 0 0 0.0666667 3.48882 -16.3333)"
     d="M 3460.94,698.97 L 3466.04,690.133 L 3581.93,757.041 L 3581.93,762.932 L 3574.96,764.8 L 3460.94,698.97 Z "
     id="path44" />
  <g
     aria-label="R"
     transform="matrix(0.0666667,0,0,0.0666667,225.138,15.7288)"
     style="font-style:normal;font-weight:normal;font-size:160px;font-family:Arial;fill:#cc79a7;stroke:none"
     id="text46">
    <path
       d="m 12.578125,0 v -114.53125 h 50.78125 q 15.3125,0 23.28125,3.125 7.96875,3.04687 12.734375,10.85937 4.76563,7.812505 4.76563,17.26563 0,12.1875 -7.89063,20.546875 -7.890625,8.359375 -24.375,10.625 6.015625,2.890625 9.140625,5.703125 6.640625,6.09375 12.578125,15.234375 L 113.51563,0 H 94.453125 l -15.15625,-23.828125 q -6.640625,-10.3125 -10.9375,-15.78125 -4.296875,-5.46875 -7.734375,-7.65625 -3.359375,-2.1875 -6.875,-3.046875 -2.578125,-0.546875 -8.4375,-0.546875 H 27.734375 V 0 Z m 15.15625,-63.984375 H 60.3125 q 10.390625,0 16.25,-2.109375 5.859375,-2.1875 8.90625,-6.875 3.046875,-4.765625 3.046875,-10.3125 0,-8.125 -5.9375,-13.359375 Q 76.71875,-101.875 63.984375,-101.875 h -36.25 z"
       style="font-style:normal;font-weight:normal;font-size:160px;font-family:Arial;fill:#cc79a7;stroke:none"
       id="path1016"
       inkscape:connector-curvature="0" />
  </g>
  <g
     aria-label="3"
     transform="matrix(0.0666667,0,0,0.0666667,232.872,11.5288)"
     style="font-style:normal;font-weight:normal;font-size:120px;font-family:Arial;fill:#cc79a7;stroke:none"
     id="text48">
    <path
       d="m 5.0390625,-22.675781 10.5468755,-1.40625 q 1.816406,8.964843 6.152343,12.949218 4.394531,3.9257818 10.664063,3.9257818 7.441406,0 12.539062,-5.1562498 5.15625,-5.15625 5.15625,-12.773438 0,-7.265625 -4.746094,-11.953125 -4.746093,-4.746093 -12.070312,-4.746093 -2.988281,0 -7.441406,1.171875 l 1.171875,-9.257813 q 1.054687,0.117188 1.699218,0.117188 6.738282,0 12.128907,-3.515625 5.390625,-3.515625 5.390625,-10.839844 0,-5.800781 -3.925782,-9.609375 -3.925781,-3.808594 -10.136718,-3.808594 -6.152344,0 -10.253907,3.867188 -4.101562,3.867187 -5.273437,11.601562 l -10.546875,-1.875 Q 8.0273438,-74.589844 14.882813,-80.390625 21.738281,-86.25 31.933594,-86.25 q 7.03125,0 12.949218,3.046875 5.917969,2.988281 9.023438,8.203125 3.164062,5.214844 3.164062,11.074219 0,5.566406 -2.988281,10.136719 -2.988281,4.570312 -8.847656,7.265625 7.617187,1.757812 11.835937,7.324218 4.21875,5.507813 4.21875,13.828125 0,11.25 -8.203125,19.1015628 -8.203125,7.7929687 -20.742187,7.7929687 -11.308594,0 -18.808594,-6.7382812 Q 6.09375,-11.953125 5.0390625,-22.675781 Z"
       style="font-style:normal;font-weight:normal;font-size:120px;font-family:Arial;fill:#cc79a7;stroke:none"
       id="path1019"
       inkscape:connector-curvature="0" />
  </g>
  <g
     aria-label="HN"
     transform="matrix(0.0666667,0,0,0.0666667,217.405,31.0622)"
     style="font-style:normal;font-weight:normal;font-size:160px;font-family:Arial;fill:#cc79a7;stroke:none"
     id="text50">
    <path
       d="M 12.8125,0 V -114.53125 H 27.96875 V -67.5 H 87.5 v -47.03125 h 15.15625 V 0 H 87.5 V -53.984375 H 27.96875 V 0 Z"
       style="font-style:normal;font-weight:normal;font-size:160px;font-family:Arial;fill:#cc79a7;stroke:none"
       id="path1022"
       inkscape:connector-curvature="0" />
    <path
       d="m 127.8125,0 v -114.53125 h 15.54687 l 60.15625,89.921875 v -89.921875 h 14.53125 V 0 H 202.5 L 142.34375,-90 V 0 Z"
       style="font-style:normal;font-weight:normal;font-size:160px;font-family:Arial;fill:#cc79a7;stroke:none"
       id="path1024"
       inkscape:connector-curvature="0" />
  </g>
  <path
     stroke="none"
     fill="#000000"
     transform="matrix(0.0666667 0 0 0.0666667 3.48882 -16.3333)"
     d="M 3778.56,643.514 L 3783.67,652.351 L 3588.9,764.8 L 3581.93,762.932 L 3581.93,757.041 L 3778.56,643.514 Z "
     id="path52" />
  <g
     aria-label="N"
     transform="matrix(0.0666667,0,0,0.0666667,264.976,23.3955)"
     style="font-style:normal;font-weight:normal;font-size:160px;font-family:Arial;fill:#56b4e9;stroke:none"
     id="text54">
    <path
       d="m 12.1875,0 v -114.53125 h 15.546875 l 60.15625,89.921875 V -114.53125 H 102.42188 V 0 H 86.875 L 26.71875,-90 V 0 Z"
       style="font-style:normal;font-weight:normal;font-size:160px;font-family:Arial;fill:#56b4e9;stroke:none"
       id="path1027"
       inkscape:connector-curvature="0" />
  </g>
  <path
     stroke="none"
     fill="#56b4e9"
     transform="matrix(0.0666667 0 0 0.0666667 3.48882 -16.3333)"
     d="M 3874.37,540.396 L 3879.47,549.233 L 3762.97,616.498 L 3757.86,607.66 L 3874.37,540.396 Z "
     id="path56" />
  <path
     stroke="none"
     fill="#56b4e9"
     transform="matrix(0.0666667 0 0 0.0666667 3.48882 -16.3333)"
     d="M 3895.07,576.249 L 3900.17,585.086 L 3783.67,652.351 L 3778.56,643.514 L 3895.07,576.249 Z "
     id="path58" />
  <path
     stroke="none"
     fill="#56b4e9"
     transform="matrix(0.0666667 0 0 0.0666667 3.48882 -16.3333)"
     d="M 3915.77,612.103 L 3920.87,620.94 L 3804.37,688.204 L 3799.26,679.367 L 3915.77,612.103 Z "
     id="path60" />
  <g
     aria-label="R"
     transform="matrix(0.0666667,0,0,0.0666667,278.255,15.7288)"
     style="font-style:normal;font-weight:normal;font-size:160px;font-family:Arial;fill:#56b4e9;stroke:none"
     id="text62">
    <path
       d="m 12.578125,0 v -114.53125 h 50.78125 q 15.3125,0 23.28125,3.125 7.96875,3.04687 12.734375,10.85937 4.76563,7.812505 4.76563,17.26563 0,12.1875 -7.89063,20.546875 -7.890625,8.359375 -24.375,10.625 6.015625,2.890625 9.140625,5.703125 6.640625,6.09375 12.578125,15.234375 L 113.51563,0 H 94.453125 l -15.15625,-23.828125 q -6.640625,-10.3125 -10.9375,-15.78125 -4.296875,-5.46875 -7.734375,-7.65625 -3.359375,-2.1875 -6.875,-3.046875 -2.578125,-0.546875 -8.4375,-0.546875 H 27.734375 V 0 Z m 15.15625,-63.984375 H 60.3125 q 10.390625,0 16.25,-2.109375 5.859375,-2.1875 8.90625,-6.875 3.046875,-4.765625 3.046875,-10.3125 0,-8.125 -5.9375,-13.359375 Q 76.71875,-101.875 63.984375,-101.875 h -36.25 z"
       style="font-style:normal;font-weight:normal;font-size:160px;font-family:Arial;fill:#56b4e9;stroke:none"
       id="path1030"
       inkscape:connector-curvature="0" />
  </g>
  <g
     aria-label="4"
     transform="matrix(0.0666667,0,0,0.0666667,285.988,11.5288)"
     style="font-style:normal;font-weight:normal;font-size:120px;font-family:Arial;fill:#56b4e9;stroke:none"
     id="text64">
    <path
       d="M 38.789062,0 V -20.566406 H 1.5234375 v -9.667969 L 40.722656,-85.898437 h 8.613281 v 55.664062 H 60.9375 v 9.667969 H 49.335937 V 0 Z m 0,-30.234375 v -38.730469 l -26.894531,38.730469 z"
       style="font-style:normal;font-weight:normal;font-size:120px;font-family:Arial;fill:#56b4e9;stroke:none"
       id="path1033"
       inkscape:connector-curvature="0" />
  </g>
  <path
     stroke="none"
     fill="#56b4e9"
     transform="matrix(0.0666667 0 0 0.0666667 3.48882 -16.3333)"
     d="M 4094.25,461.249 L 4099.36,470.086 L 4060.02,492.799 L 4054.92,483.961 L 4094.25,461.249 Z "
     id="path66" />
  <path
     stroke="#56b4e9"
     stroke-width="8"
     fill="none"
     transform="matrix(0.0666667 0 0 0.0666667 3.48882 -16.3333)"
     d="M 3880.43,374.151 A 57.0818,57.0818 0 1 0 3994.59,374.151A 57.0818,57.0818 0 1 0 3880.43,374.151Z "
     id="path68" />
  <path
     stroke="none"
     fill="#56b4e9"
     transform="matrix(0.0666667 0 0 0.0666667 3.48882 -16.3333)"
     d="M 3906.08,370.484 L 3969.61,370.484 L 3969.61,378.484 L 3906.08,378.484 Z "
     id="path70" />
  <path
     stroke="none"
     fill="#56b4e9"
     transform="matrix(0.0666667 0 0 0.0666667 3.48882 -16.3333)"
     d="M 3941.84,342.715 L 3941.84,406.253 L 3933.84,406.253 L 3933.84,342.715 Z "
     id="path72" />
  <g
     aria-label="+"
     transform="matrix(0.0666667,0,0,0.0666667,53.3252,32.5007)"
     style="font-style:normal;font-weight:normal;font-size:160px;font-family:Arial;fill:#000000;stroke:none"
     id="text74">
    <path
       d="m 40.078125,-18.515625 v -31.40625 H 8.90625 v -13.125 H 40.078125 V -94.21875 h 13.28125 v 31.171875 H 84.53125 v 13.125 H 53.359375 v 31.40625 z"
       style="font-style:normal;font-weight:normal;font-size:160px;font-family:Arial;fill:#000000;stroke:none"
       id="path1036"
       inkscape:connector-curvature="0" />
  </g>
  <path
     stroke="none"
     fill="#000000"
     transform="matrix(0.0666667 0 0 0.0666667 3.48882 -16.3333)"
     d="M 2973.62,733.76 L 2511.25,733.76 L 2511.25,723.76 L 2973.62,723.76 Z "
     id="path76" />
  <path
     stroke="none"
     fill="#000000"
     transform="matrix(0.0666667 0 0 0.0666667 3.48882 -16.3333)"
     d="M 3061.91,728.76 C 3061.91,728.76 2959.86,755.271 2959.86,755.271 C 2959.86,755.271 2972.62,740.359 2972.62,728.76 C 2972.62,716.724 2959.86,701.249 2959.86,701.249 C 2959.86,701.249 3061.91,728.76 3061.91,728.76 C 3061.91,728.76 3061.91,728.76 3061.91,728.76 "
     id="path78" />
  <path
     stroke="#000000"
     stroke-width="1"
     fill="none"
     transform="matrix(0.0666667 0 0 0.0666667 3.48882 -16.3333)"
     d="M 3061.91,728.76 C 3061.91,728.76 2959.86,755.271 2959.86,755.271 C 2959.86,755.271 2972.62,740.359 2972.62,728.76 C 2972.62,716.724 2959.86,701.249 2959.86,701.249 C 2959.86,701.249 3061.91,728.76 3061.91,728.76 C 3061.91,728.76 3061.91,728.76 3061.91,728.76 "
     id="path80" />
  <g
     aria-label="-H"
     transform="matrix(0.0666667,0,0,0.0666667,174.35,25.7507)"
     style="font-style:normal;font-weight:normal;font-size:160px;font-family:Arial;fill:#000000;stroke:none"
     id="text82">
    <path
       d="M 5.078125,-34.375 V -48.515625 H 48.28125 V -34.375 Z"
       style="font-style:normal;font-weight:normal;font-size:160px;font-family:Arial;fill:#000000;stroke:none"
       id="path1039"
       inkscape:connector-curvature="0" />
    <path
       d="M 66.25,0 V -114.53125 H 81.40625 V -67.5 h 59.53125 v -47.03125 h 15.15625 V 0 H 140.9375 V -53.984375 H 81.40625 V 0 Z"
       style="font-style:normal;font-weight:normal;font-size:160px;font-family:Arial;fill:#000000;stroke:none"
       id="path1041"
       inkscape:connector-curvature="0" />
  </g>
  <g
     aria-label="2"
     transform="matrix(0.0666667,0,0,0.0666667,185.635,28.0173)"
     style="font-style:normal;font-weight:normal;font-size:120px;font-family:Arial;fill:#000000;stroke:none"
     id="text84">
    <path
       d="M 60.410156,-10.136719 V 0 H 3.6328125 Q 3.515625,-3.8085938 4.8632812,-7.3242187 7.03125,-13.125 11.777344,-18.75 q 4.804687,-5.625 13.828125,-13.007812 14.003906,-11.484375 18.925781,-18.164063 4.921875,-6.738281 4.921875,-12.714844 0,-6.269531 -4.511719,-10.546875 -4.453125,-4.335937 -11.660156,-4.335937 -7.617188,0 -12.1875,4.570312 -4.570313,4.570313 -4.628906,12.65625 L 5.625,-61.40625 Q 6.7382812,-73.535156 14.003906,-79.863281 21.269531,-86.25 33.515625,-86.25 q 12.363281,0 19.570312,6.855469 7.207032,6.855469 7.207032,16.992187 0,5.15625 -2.109375,10.136719 -2.109375,4.980469 -7.03125,10.488281 -4.863282,5.507813 -16.230469,15.117188 -9.492188,7.96875 -12.1875,10.839843 -2.695313,2.8125 -4.453125,5.683594 z"
       style="font-style:normal;font-weight:normal;font-size:120px;font-family:Arial;fill:#000000;stroke:none"
       id="path1044"
       inkscape:connector-curvature="0" />
  </g>
  <g
     aria-label="O"
     transform="matrix(0.0666667,0,0,0.0666667,190.085,25.7507)"
     style="font-style:normal;font-weight:normal;font-size:160px;font-family:Arial;fill:#000000;stroke:none"
     id="text86">
    <path
       d="m 7.734375,-55.78125 q 0,-28.515625 15.3125,-44.60938 15.3125,-16.17187 39.53125,-16.17187 15.859375,0 28.59375,7.57812 12.734375,7.57813 19.375005,21.17188 6.71875,13.515625 6.71875,30.703125 0,17.421875 -7.03125,31.171875 -7.03125,13.75 -19.92188,20.859375 -12.890625,7.03125 -27.8125,7.03125 -16.171875,0 -28.90625,-7.8125 -12.734375,-7.8125 -19.296875,-21.328125 -6.5625,-13.515625 -6.5625,-28.59375 z m 15.625,0.234375 q 0,20.703125 11.09375,32.65625 11.171875,11.875 27.96875,11.875 17.109375,0 28.125,-12.03125 11.093755,-12.03125 11.093755,-34.140625 0,-13.984375 -4.76563,-24.375 -4.6875,-10.46875 -13.828125,-16.171875 -9.0625,-5.781255 -20.390625,-5.781255 -16.09375,0 -27.734375,11.093755 -11.5625,11.015625 -11.5625,36.875 z"
       style="font-style:normal;font-weight:normal;font-size:160px;font-family:Arial;fill:#000000;stroke:none"
       id="path1047"
       inkscape:connector-curvature="0" />
  </g>
  <g
     aria-label="R"
     transform="matrix(0.0666667,0,0,0.0666667,132.164,36.3258)"
     style="font-style:normal;font-weight:normal;font-size:160px;font-family:Arial;fill:#56b4e9;stroke:none"
     id="text88">
    <path
       d="m 12.578125,0 v -114.53125 h 50.78125 q 15.3125,0 23.28125,3.125 7.96875,3.04687 12.734375,10.85937 4.76563,7.812505 4.76563,17.26563 0,12.1875 -7.89063,20.546875 -7.890625,8.359375 -24.375,10.625 6.015625,2.890625 9.140625,5.703125 6.640625,6.09375 12.578125,15.234375 L 113.51563,0 H 94.453125 l -15.15625,-23.828125 q -6.640625,-10.3125 -10.9375,-15.78125 -4.296875,-5.46875 -7.734375,-7.65625 -3.359375,-2.1875 -6.875,-3.046875 -2.578125,-0.546875 -8.4375,-0.546875 H 27.734375 V 0 Z m 15.15625,-63.984375 H 60.3125 q 10.390625,0 16.25,-2.109375 5.859375,-2.1875 8.90625,-6.875 3.046875,-4.765625 3.046875,-10.3125 0,-8.125 -5.9375,-13.359375 Q 76.71875,-101.875 63.984375,-101.875 h -36.25 z"
       style="font-style:normal;font-weight:normal;font-size:160px;font-family:Arial;fill:#56b4e9;stroke:none"
       id="path1050"
       inkscape:connector-curvature="0" />
  </g>
  <g
     aria-label="4"
     transform="matrix(0.0666667,0,0,0.0666667,139.898,32.1258)"
     style="font-style:normal;font-weight:normal;font-size:120px;font-family:Arial;fill:#56b4e9;stroke:none"
     id="text90">
    <path
       d="M 38.789062,0 V -20.566406 H 1.5234375 v -9.667969 L 40.722656,-85.898437 h 8.613281 v 55.664062 H 60.9375 v 9.667969 H 49.335937 V 0 Z m 0,-30.234375 v -38.730469 l -26.894531,38.730469 z"
       style="font-style:normal;font-weight:normal;font-size:120px;font-family:Arial;fill:#56b4e9;stroke:none"
       id="path1053"
       inkscape:connector-curvature="0" />
  </g>
  <g
     aria-label="NC"
     transform="matrix(0.0666667,0,0,0.0666667,144.364,36.3258)"
     style="font-style:normal;font-weight:normal;font-size:160px;font-family:Arial;fill:#56b4e9;stroke:none"
     id="text92">
    <path
       d="m 12.1875,0 v -114.53125 h 15.546875 l 60.15625,89.921875 V -114.53125 H 102.42188 V 0 H 86.875 L 26.71875,-90 V 0 Z"
       style="font-style:normal;font-weight:normal;font-size:160px;font-family:Arial;fill:#56b4e9;stroke:none"
       id="path1056"
       inkscape:connector-curvature="0" />
    <path
       d="m 209.6875,-40.15625 15.15625,3.828125 q -4.76563,18.671875 -17.1875,28.515625 -12.34375,9.765625 -30.23438,9.765625 -18.51562,0 -30.15625,-7.5 -11.5625,-7.578125 -17.65625,-21.875 -6.01562,-14.296875 -6.01562,-30.703125 0,-17.890625 6.79687,-31.171875 6.875,-13.359375 19.45313,-20.234375 12.65625,-6.95313 27.8125,-6.95313 17.1875,0 28.90625,8.75 11.71875,8.750005 16.32812,24.60938 l -14.92187,3.515625 q -3.98438,-12.5 -11.5625,-18.203125 -7.57813,-5.70313 -19.0625,-5.70313 -13.20313,0 -22.10938,6.32813 -8.82812,6.328125 -12.42187,17.03125 -3.59375,10.625 -3.59375,21.953125 0,14.609375 4.21875,25.546875 4.29687,10.859375 13.28125,16.25 8.98437,5.390625 19.45312,5.390625 12.73438,0 21.5625,-7.34375 8.82813,-7.34375 11.95313,-21.796875 z"
       style="font-style:normal;font-weight:normal;font-size:160px;font-family:Arial;fill:#56b4e9;stroke:none"
       id="path1058"
       inkscape:connector-curvature="0" />
  </g>
  <g
     aria-label="+"
     transform="matrix(0.0666667,0,0,0.0666667,114.877,32.5007)"
     style="font-style:normal;font-weight:normal;font-size:160px;font-family:Arial;fill:#000000;stroke:none"
     id="text94">
    <path
       d="m 40.078125,-18.515625 v -31.40625 H 8.90625 v -13.125 H 40.078125 V -94.21875 h 13.28125 v 31.171875 H 84.53125 v 13.125 H 53.359375 v 31.40625 z"
       style="font-style:normal;font-weight:normal;font-size:160px;font-family:Arial;fill:#000000;stroke:none"
       id="path1061"
       inkscape:connector-curvature="0" />
  </g>
  <path
     stroke="none"
     fill="#000000"
     transform="matrix(0.0666667 0 0 0.0666667 3.48882 -16.3333)"
     d="M 4801.65,733.76 L 4421.19,733.76 L 4421.19,723.76 L 4801.65,723.76 Z "
     id="path96" />
  <path
     stroke="none"
     fill="#000000"
     transform="matrix(0.0666667 0 0 0.0666667 3.48882 -16.3333)"
     d="M 4889.94,728.76 C 4889.94,728.76 4787.89,755.271 4787.89,755.271 C 4787.89,755.271 4800.65,740.359 4800.65,728.76 C 4800.65,716.724 4787.89,701.249 4787.89,701.249 C 4787.89,701.249 4889.94,728.76 4889.94,728.76 C 4889.94,728.76 4889.94,728.76 4889.94,728.76 "
     id="path98" />
  <path
     stroke="#000000"
     stroke-width="1"
     fill="none"
     transform="matrix(0.0666667 0 0 0.0666667 3.48882 -16.3333)"
     d="M 4889.94,728.76 C 4889.94,728.76 4787.89,755.271 4787.89,755.271 C 4787.89,755.271 4800.65,740.359 4800.65,728.76 C 4800.65,716.724 4787.89,701.249 4787.89,701.249 C 4787.89,701.249 4889.94,728.76 4889.94,728.76 C 4889.94,728.76 4889.94,728.76 4889.94,728.76 "
     id="path100" />
  <g
     aria-label="R"
     transform="matrix(0.0666667,0,0,0.0666667,355.139,51.72)"
     style="font-style:normal;font-weight:normal;font-size:160px;font-family:Arial;fill:#009e73;stroke:none"
     id="text102">
    <path
       d="m 12.578125,0 v -114.53125 h 50.78125 q 15.3125,0 23.28125,3.125 7.96875,3.04687 12.734375,10.85937 4.76563,7.812505 4.76563,17.26563 0,12.1875 -7.89063,20.546875 -7.890625,8.359375 -24.375,10.625 6.015625,2.890625 9.140625,5.703125 6.640625,6.09375 12.578125,15.234375 L 113.51563,0 H 94.453125 l -15.15625,-23.828125 q -6.640625,-10.3125 -10.9375,-15.78125 -4.296875,-5.46875 -7.734375,-7.65625 -3.359375,-2.1875 -6.875,-3.046875 -2.578125,-0.546875 -8.4375,-0.546875 H 27.734375 V 0 Z m 15.15625,-63.984375 H 60.3125 q 10.390625,0 16.25,-2.109375 5.859375,-2.1875 8.90625,-6.875 3.046875,-4.765625 3.046875,-10.3125 0,-8.125 -5.9375,-13.359375 Q 76.71875,-101.875 63.984375,-101.875 h -36.25 z"
       style="font-style:normal;font-weight:normal;font-size:160px;font-family:Arial;fill:#009e73;stroke:none"
       id="path1064"
       inkscape:connector-curvature="0" />
  </g>
  <g
     aria-label="1"
     transform="matrix(0.0666667,0,0,0.0666667,362.872,47.52)"
     style="font-style:normal;font-weight:normal;font-size:120px;font-family:Arial;fill:#009e73;stroke:none"
     id="text104">
    <path
       d="M 44.707031,0 H 34.160156 v -67.207031 q -3.808594,3.632812 -10.019531,7.265625 -6.152344,3.632812 -11.074219,5.449219 V -64.6875 q 8.847656,-4.160156 15.46875,-10.078125 6.621094,-5.917969 9.375,-11.484375 h 6.796875 z"
       style="font-style:normal;font-weight:normal;font-size:120px;font-family:Arial;fill:#009e73;stroke:none"
       id="path1067"
       inkscape:connector-curvature="0" />
  </g>
  <path
     stroke="none"
     fill="#009e73"
     transform="matrix(0.0666667 0 0 0.0666667 3.48882 -16.3333)"
     d="M 5440.28,761.347 L 5447.25,759.48 L 5447.25,769.684 L 5395.6,859.157 L 5386.76,854.055 L 5440.28,761.347 Z "
     id="path106" />
  <g
     aria-label="R"
     transform="matrix(0.0666667,0,0,0.0666667,370.406,51.72)"
     style="font-style:normal;font-weight:normal;font-size:160px;font-family:Arial;fill:#009e73;stroke:none"
     id="text108">
    <path
       d="m 12.578125,0 v -114.53125 h 50.78125 q 15.3125,0 23.28125,3.125 7.96875,3.04687 12.734375,10.85937 4.76563,7.812505 4.76563,17.26563 0,12.1875 -7.89063,20.546875 -7.890625,8.359375 -24.375,10.625 6.015625,2.890625 9.140625,5.703125 6.640625,6.09375 12.578125,15.234375 L 113.51563,0 H 94.453125 l -15.15625,-23.828125 q -6.640625,-10.3125 -10.9375,-15.78125 -4.296875,-5.46875 -7.734375,-7.65625 -3.359375,-2.1875 -6.875,-3.046875 -2.578125,-0.546875 -8.4375,-0.546875 H 27.734375 V 0 Z m 15.15625,-63.984375 H 60.3125 q 10.390625,0 16.25,-2.109375 5.859375,-2.1875 8.90625,-6.875 3.046875,-4.765625 3.046875,-10.3125 0,-8.125 -5.9375,-13.359375 Q 76.71875,-101.875 63.984375,-101.875 h -36.25 z"
       style="font-style:normal;font-weight:normal;font-size:160px;font-family:Arial;fill:#009e73;stroke:none"
       id="path1070"
       inkscape:connector-curvature="0" />
  </g>
  <g
     aria-label="2"
     transform="matrix(0.0666667,0,0,0.0666667,378.139,47.52)"
     style="font-style:normal;font-weight:normal;font-size:120px;font-family:Arial;fill:#009e73;stroke:none"
     id="text110">
    <path
       d="M 60.410156,-10.136719 V 0 H 3.6328125 Q 3.515625,-3.8085938 4.8632812,-7.3242187 7.03125,-13.125 11.777344,-18.75 q 4.804687,-5.625 13.828125,-13.007812 14.003906,-11.484375 18.925781,-18.164063 4.921875,-6.738281 4.921875,-12.714844 0,-6.269531 -4.511719,-10.546875 -4.453125,-4.335937 -11.660156,-4.335937 -7.617188,0 -12.1875,4.570312 -4.570313,4.570313 -4.628906,12.65625 L 5.625,-61.40625 Q 6.7382812,-73.535156 14.003906,-79.863281 21.269531,-86.25 33.515625,-86.25 q 12.363281,0 19.570312,6.855469 7.207032,6.855469 7.207032,16.992187 0,5.15625 -2.109375,10.136719 -2.109375,4.980469 -7.03125,10.488281 -4.863282,5.507813 -16.230469,15.117188 -9.492188,7.96875 -12.1875,10.839843 -2.695313,2.8125 -4.453125,5.683594 z"
       style="font-style:normal;font-weight:normal;font-size:120px;font-family:Arial;fill:#009e73;stroke:none"
       id="path1073"
       inkscape:connector-curvature="0" />
  </g>
  <path
     stroke="none"
     fill="#009e73"
     transform="matrix(0.0666667 0 0 0.0666667 3.48882 -16.3333)"
     d="M 5520.13,875.496 L 5511.29,880.599 L 5447.25,769.684 L 5447.25,759.48 L 5454.22,761.347 L 5520.13,875.496 Z "
     id="path112" />
  <path
     stroke="none"
     fill="#cc79a7"
     transform="matrix(0.0666667 0 0 0.0666667 3.48882 -16.3333)"
     d="M 5243.83,504.646 L 5254.04,504.646 L 5254.04,568.98 L 5243.83,568.98 L 5243.83,504.646 Z "
     id="path114" />
  <path
     stroke="none"
     fill="#000000"
     transform="matrix(0.0666667 0 0 0.0666667 3.48882 -16.3333)"
     d="M 5327.13,696.018 L 5332.23,687.181 L 5447.25,753.588 L 5447.25,759.48 L 5440.28,761.347 L 5327.13,696.018 Z "
     id="path116" />
  <g
     aria-label="R"
     transform="matrix(0.0666667,0,0,0.0666667,349.551,15.5987)"
     style="font-style:normal;font-weight:normal;font-size:160px;font-family:Arial;fill:#cc79a7;stroke:none"
     id="text118">
    <path
       d="m 12.578125,0 v -114.53125 h 50.78125 q 15.3125,0 23.28125,3.125 7.96875,3.04687 12.734375,10.85937 4.76563,7.812505 4.76563,17.26563 0,12.1875 -7.89063,20.546875 -7.890625,8.359375 -24.375,10.625 6.015625,2.890625 9.140625,5.703125 6.640625,6.09375 12.578125,15.234375 L 113.51563,0 H 94.453125 l -15.15625,-23.828125 q -6.640625,-10.3125 -10.9375,-15.78125 -4.296875,-5.46875 -7.734375,-7.65625 -3.359375,-2.1875 -6.875,-3.046875 -2.578125,-0.546875 -8.4375,-0.546875 H 27.734375 V 0 Z m 15.15625,-63.984375 H 60.3125 q 10.390625,0 16.25,-2.109375 5.859375,-2.1875 8.90625,-6.875 3.046875,-4.765625 3.046875,-10.3125 0,-8.125 -5.9375,-13.359375 Q 76.71875,-101.875 63.984375,-101.875 h -36.25 z"
       style="font-style:normal;font-weight:normal;font-size:160px;font-family:Arial;fill:#cc79a7;stroke:none"
       id="path1076"
       inkscape:connector-curvature="0" />
  </g>
  <g
     aria-label="3"
     transform="matrix(0.0666667,0,0,0.0666667,357.284,11.3987)"
     style="font-style:normal;font-weight:normal;font-size:120px;font-family:Arial;fill:#cc79a7;stroke:none"
     id="text120">
    <path
       d="m 5.0390625,-22.675781 10.5468755,-1.40625 q 1.816406,8.964843 6.152343,12.949218 4.394531,3.9257818 10.664063,3.9257818 7.441406,0 12.539062,-5.1562498 5.15625,-5.15625 5.15625,-12.773438 0,-7.265625 -4.746094,-11.953125 -4.746093,-4.746093 -12.070312,-4.746093 -2.988281,0 -7.441406,1.171875 l 1.171875,-9.257813 q 1.054687,0.117188 1.699218,0.117188 6.738282,0 12.128907,-3.515625 5.390625,-3.515625 5.390625,-10.839844 0,-5.800781 -3.925782,-9.609375 -3.925781,-3.808594 -10.136718,-3.808594 -6.152344,0 -10.253907,3.867188 -4.101562,3.867187 -5.273437,11.601562 l -10.546875,-1.875 Q 8.0273438,-74.589844 14.882813,-80.390625 21.738281,-86.25 31.933594,-86.25 q 7.03125,0 12.949218,3.046875 5.917969,2.988281 9.023438,8.203125 3.164062,5.214844 3.164062,11.074219 0,5.566406 -2.988281,10.136719 -2.988281,4.570312 -8.847656,7.265625 7.617187,1.757812 11.835937,7.324218 4.21875,5.507813 4.21875,13.828125 0,11.25 -8.203125,19.1015628 -8.203125,7.7929687 -20.742187,7.7929687 -11.308594,0 -18.808594,-6.7382812 Q 6.09375,-11.953125 5.0390625,-22.675781 Z"
       style="font-style:normal;font-weight:normal;font-size:120px;font-family:Arial;fill:#cc79a7;stroke:none"
       id="path1079"
       inkscape:connector-curvature="0" />
  </g>
  <g
     aria-label="HN"
     transform="matrix(0.0666667,0,0,0.0666667,341.818,30.8653)"
     style="font-style:normal;font-weight:normal;font-size:160px;font-family:Arial;fill:#cc79a7;stroke:none"
     id="text122">
    <path
       d="M 12.8125,0 V -114.53125 H 27.96875 V -67.5 H 87.5 v -47.03125 h 15.15625 V 0 H 87.5 V -53.984375 H 27.96875 V 0 Z"
       style="font-style:normal;font-weight:normal;font-size:160px;font-family:Arial;fill:#cc79a7;stroke:none"
       id="path1082"
       inkscape:connector-curvature="0" />
    <path
       d="m 127.8125,0 v -114.53125 h 15.54687 l 60.15625,89.921875 v -89.921875 h 14.53125 V 0 H 202.5 L 142.34375,-90 V 0 Z"
       style="font-style:normal;font-weight:normal;font-size:160px;font-family:Arial;fill:#cc79a7;stroke:none"
       id="path1084"
       inkscape:connector-curvature="0" />
  </g>
  <path
     stroke="none"
     fill="#000000"
     transform="matrix(0.0666667 0 0 0.0666667 3.48882 -16.3333)"
     d="M 5640.77,641.861 L 5645.57,644.98 L 5645.87,650.698 L 5454.22,761.347 L 5447.25,759.48 L 5447.25,753.588 L 5640.77,641.861 Z "
     id="path124" />
  <g
     aria-label="N"
     transform="matrix(0.0666667,0,0,0.0666667,389.941,37.0748)"
     style="font-style:normal;font-weight:normal;font-size:160px;font-family:Arial;fill:#56b4e9;stroke:none"
     id="text126">
    <path
       d="m 12.1875,0 v -114.53125 h 15.546875 l 60.15625,89.921875 V -114.53125 H 102.42188 V 0 H 86.875 L 26.71875,-90 V 0 Z"
       style="font-style:normal;font-weight:normal;font-size:160px;font-family:Arial;fill:#56b4e9;stroke:none"
       id="path1087"
       inkscape:connector-curvature="0" />
  </g>
  <path
     stroke="none"
     fill="#56b4e9"
     transform="matrix(0.0666667 0 0 0.0666667 3.48882 -16.3333)"
     d="M 5776.97,697.894 L 5772.82,707.216 L 5645.87,650.698 L 5645.57,644.98 L 5651.04,641.826 L 5776.97,697.894 Z "
     id="path128" />
  <g
     aria-label="R"
     transform="matrix(0.0666667,0,0,0.0666667,393.115,52.0079)"
     style="font-style:normal;font-weight:normal;font-size:160px;font-family:Arial;fill:#56b4e9;stroke:none"
     id="text130">
    <path
       d="m 12.578125,0 v -114.53125 h 50.78125 q 15.3125,0 23.28125,3.125 7.96875,3.04687 12.734375,10.85937 4.76563,7.812505 4.76563,17.26563 0,12.1875 -7.89063,20.546875 -7.890625,8.359375 -24.375,10.625 6.015625,2.890625 9.140625,5.703125 6.640625,6.09375 12.578125,15.234375 L 113.51563,0 H 94.453125 l -15.15625,-23.828125 q -6.640625,-10.3125 -10.9375,-15.78125 -4.296875,-5.46875 -7.734375,-7.65625 -3.359375,-2.1875 -6.875,-3.046875 -2.578125,-0.546875 -8.4375,-0.546875 H 27.734375 V 0 Z m 15.15625,-63.984375 H 60.3125 q 10.390625,0 16.25,-2.109375 5.859375,-2.1875 8.90625,-6.875 3.046875,-4.765625 3.046875,-10.3125 0,-8.125 -5.9375,-13.359375 Q 76.71875,-101.875 63.984375,-101.875 h -36.25 z"
       style="font-style:normal;font-weight:normal;font-size:160px;font-family:Arial;fill:#56b4e9;stroke:none"
       id="path1090"
       inkscape:connector-curvature="0" />
  </g>
  <g
     aria-label="4"
     transform="matrix(0.0666667,0,0,0.0666667,400.848,47.8079)"
     style="font-style:normal;font-weight:normal;font-size:120px;font-family:Arial;fill:#56b4e9;stroke:none"
     id="text132">
    <path
       d="M 38.789062,0 V -20.566406 H 1.5234375 v -9.667969 L 40.722656,-85.898437 h 8.613281 v 55.664062 H 60.9375 v 9.667969 H 49.335937 V 0 Z m 0,-30.234375 v -38.730469 l -26.894531,38.730469 z"
       style="font-style:normal;font-weight:normal;font-size:120px;font-family:Arial;fill:#56b4e9;stroke:none"
       id="path1093"
       inkscape:connector-curvature="0" />
  </g>
  <path
     stroke="none"
     fill="#56b4e9"
     transform="matrix(0.0666667 0 0 0.0666667 3.48882 -16.3333)"
     d="M 5889.99,879.246 L 5880.01,881.367 L 5869.91,833.84 L 5879.89,831.718 L 5889.99,879.246 Z "
     id="path134" />
  <g
     aria-label="N"
     transform="matrix(0.0666667,0,0,0.0666667,400.156,25.7295)"
     style="font-style:normal;font-weight:normal;font-size:160px;font-family:Arial;fill:#e69f00;stroke:none"
     id="text136">
    <path
       d="m 12.1875,0 v -114.53125 h 15.546875 l 60.15625,89.921875 V -114.53125 H 102.42188 V 0 H 86.875 L 26.71875,-90 V 0 Z"
       style="font-style:normal;font-weight:normal;font-size:160px;font-family:Arial;fill:#e69f00;stroke:none"
       id="path1096"
       inkscape:connector-curvature="0" />
  </g>
  <g
     aria-label="N"
     transform="matrix(0.0666667,0,0,0.0666667,392.523,12.5082)"
     style="font-style:normal;font-weight:normal;font-size:160px;font-family:Arial;fill:#e69f00;stroke:none"
     id="text138">
    <path
       d="m 12.1875,0 v -114.53125 h 15.546875 l 60.15625,89.921875 V -114.53125 H 102.42188 V 0 H 86.875 L 26.71875,-90 V 0 Z"
       style="font-style:normal;font-weight:normal;font-size:160px;font-family:Arial;fill:#e69f00;stroke:none"
       id="path1099"
       inkscape:connector-curvature="0" />
  </g>
  <g
     aria-label="N"
     transform="matrix(0.0666667,0,0,0.0666667,377.59,15.6823)"
     style="font-style:normal;font-weight:normal;font-size:160px;font-family:Arial;fill:#e69f00;stroke:none"
     id="text140">
    <path
       d="m 12.1875,0 v -114.53125 h 15.546875 l 60.15625,89.921875 V -114.53125 H 102.42188 V 0 H 86.875 L 26.71875,-90 V 0 Z"
       style="font-style:normal;font-weight:normal;font-size:160px;font-family:Arial;fill:#e69f00;stroke:none"
       id="path1102"
       inkscape:connector-curvature="0" />
  </g>
  <path
     stroke="none"
     fill="#000000"
     transform="matrix(0.0666667 0 0 0.0666667 3.48882 -16.3333)"
     d="M 5935.34,641.019 L 5942.93,647.847 L 5920.53,672.722 L 5912.95,665.894 L 5935.34,641.019 Z "
     id="path142" />
  <path
     stroke="none"
     fill="#e69f00"
     transform="matrix(0.0666667 0 0 0.0666667 3.48882 -16.3333)"
     d="M 5940.37,460.993 L 5949.21,455.89 L 5966.53,485.889 L 5957.69,490.992 L 5940.37,460.993 Z "
     id="path144" />
  <path
     stroke="none"
     fill="#e69f00"
     transform="matrix(0.0666667 0 0 0.0666667 3.48882 -16.3333)"
     d="M 5904.67,481.603 L 5913.51,476.5 L 5930.83,506.499 L 5921.99,511.602 L 5904.67,481.603 Z "
     id="path146" />
  <path
     stroke="none"
     fill="#e69f00"
     transform="matrix(0.0666667 0 0 0.0666667 3.48882 -16.3333)"
     d="M 5746.44,406.099 L 5744.32,396.117 L 5815.62,380.961 L 5817.74,390.943 L 5746.44,406.099 Z "
     id="path148" />
  <path
     stroke="none"
     fill="#000000"
     transform="matrix(0.0666667 0 0 0.0666667 3.48882 -16.3333)"
     d="M 5651.04,641.826 L 5645.57,644.98 L 5640.77,641.861 L 5655.17,504.87 L 5665.32,505.936 L 5651.04,641.826 Z "
     id="path150" />
  <path
     stroke="none"
     fill="#000000"
     transform="matrix(0.0666667 0 0 0.0666667 3.48882 -16.3333)"
     d="M 5694.77,620.038 L 5684.63,618.971 L 5696.16,509.178 L 5706.31,510.245 L 5694.77,620.038 Z "
     id="path152" />
  <g
     aria-label="N"
     transform="matrix(0.0666667,0,0,0.0666667,304.485,25.7507)"
     style="font-style:normal;font-weight:normal;font-size:160px;font-family:Arial;fill:#e69f00;stroke:none"
     id="text154">
    <path
       d="m 12.1875,0 v -114.53125 h 15.546875 l 60.15625,89.921875 V -114.53125 H 102.42188 V 0 H 86.875 L 26.71875,-90 V 0 Z"
       style="font-style:normal;font-weight:normal;font-size:160px;font-family:Arial;fill:#e69f00;stroke:none"
       id="path1105"
       inkscape:connector-curvature="0" />
  </g>
  <g
     aria-label="3"
     transform="matrix(0.0666667,0,0,0.0666667,312.218,28.0173)"
     style="font-style:normal;font-weight:normal;font-size:120px;font-family:Arial;fill:#e69f00;stroke:none"
     id="text156">
    <path
       d="m 5.0390625,-22.675781 10.5468755,-1.40625 q 1.816406,8.964843 6.152343,12.949218 4.394531,3.9257818 10.664063,3.9257818 7.441406,0 12.539062,-5.1562498 5.15625,-5.15625 5.15625,-12.773438 0,-7.265625 -4.746094,-11.953125 -4.746093,-4.746093 -12.070312,-4.746093 -2.988281,0 -7.441406,1.171875 l 1.171875,-9.257813 q 1.054687,0.117188 1.699218,0.117188 6.738282,0 12.128907,-3.515625 5.390625,-3.515625 5.390625,-10.839844 0,-5.800781 -3.925782,-9.609375 -3.925781,-3.808594 -10.136718,-3.808594 -6.152344,0 -10.253907,3.867188 -4.101562,3.867187 -5.273437,11.601562 l -10.546875,-1.875 Q 8.0273438,-74.589844 14.882813,-80.390625 21.738281,-86.25 31.933594,-86.25 q 7.03125,0 12.949218,3.046875 5.917969,2.988281 9.023438,8.203125 3.164062,5.214844 3.164062,11.074219 0,5.566406 -2.988281,10.136719 -2.988281,4.570312 -8.847656,7.265625 7.617187,1.757812 11.835937,7.324218 4.21875,5.507813 4.21875,13.828125 0,11.25 -8.203125,19.1015628 -8.203125,7.7929687 -20.742187,7.7929687 -11.308594,0 -18.808594,-6.7382812 Q 6.09375,-11.953125 5.0390625,-22.675781 Z"
       style="font-style:normal;font-weight:normal;font-size:120px;font-family:Arial;fill:#e69f00;stroke:none"
       id="path1108"
       inkscape:connector-curvature="0" />
  </g>
  <path
     stroke="#e69f00"
     stroke-width="8"
     fill="none"
     transform="matrix(0.0666667 0 0 0.0666667 3.48882 -16.3333)"
     d="M 4625.23,455.426 A 57.0818,57.0818 0 1 0 4739.4,455.426A 57.0818,57.0818 0 1 0 4625.23,455.426Z "
     id="path158" />
  <path
     stroke="none"
     fill="#e69f00"
     transform="matrix(0.0666667 0 0 0.0666667 3.48882 -16.3333)"
     d="M 4650.88,451.76 L 4714.42,451.76 L 4714.42,459.76 L 4650.88,459.76 Z "
     id="path160" />
  <text
     xml:space="preserve"
     style="font-style:normal;font-variant:normal;font-weight:normal;font-stretch:normal;font-size:10.66666698px;line-height:1.25;font-family:Arial;-inkscape-font-specification:Arial;text-align:start;letter-spacing:0px;word-spacing:0px;text-anchor:start;fill:#000000;fill-opacity:1;stroke:none"
     x="4.3273621"
     y="48.549343"
     id="text1701"><tspan
       sodipodi:role="line"
       id="tspan1699"
       x="4.3273621"
       y="48.549343">\cmpd{ketone}</tspan></text>
  <text
     xml:space="preserve"
     style="font-style:normal;font-variant:normal;font-weight:normal;font-stretch:normal;font-size:10.66666698px;line-height:1.25;font-family:Arial;-inkscape-font-specification:Arial;text-align:start;letter-spacing:0px;word-spacing:0px;text-anchor:start;fill:#000000;fill-opacity:1;stroke:none"
     x="71.451241"
     y="48.549343"
     id="text1701-9"><tspan
       sodipodi:role="line"
       id="tspan1699-7"
       x="71.451241"
       y="48.549343">\cmpd{amine}</tspan></text>
  <text
     xml:space="preserve"
     style="font-style:normal;font-variant:normal;font-weight:normal;font-stretch:normal;font-size:10.66666698px;line-height:1.25;font-family:Arial;-inkscape-font-specification:Arial;text-align:start;letter-spacing:0px;word-spacing:0px;text-anchor:start;fill:#000000;fill-opacity:1;stroke:none"
     x="267.78851"
     y="48.549343"
     id="text1701-9-5-8-6-0"><tspan
       sodipodi:role="line"
       id="tspan1699-7-9-1-8-1"
       x="267.78851"
       y="48.549343">\cmpd{nitrilium}</tspan></text>
  <text
     xml:space="preserve"
     style="font-style:normal;font-variant:normal;font-weight:normal;font-stretch:normal;font-size:10.66666698px;line-height:1.25;font-family:Arial;-inkscape-font-specification:Arial;text-align:start;letter-spacing:0px;word-spacing:0px;text-anchor:start;fill:#000000;fill-opacity:1;stroke:none"
     x="327.44269"
     y="48.549343"
     id="text1701-9-5-8-6-0-8"><tspan
       sodipodi:role="line"
       id="tspan1699-7-9-1-8-1-8"
       x="327.44269"
       y="48.549343">\cmpd{aminotetrazole}</tspan></text>
  <text
     xml:space="preserve"
     style="font-style:normal;font-variant:normal;font-weight:normal;font-stretch:normal;font-size:10.66666698px;line-height:1.25;font-family:Arial;-inkscape-font-specification:Arial;text-align:start;letter-spacing:0px;word-spacing:0px;text-anchor:start;fill:#000000;fill-opacity:1;stroke:none"
     x="133.00255"
     y="48.549343"
     id="text1155"><tspan
       sodipodi:role="line"
       id="tspan1153"
       x="133.00255"
       y="48.549343">\cmpd{isocyanide}</tspan></text>
</svg>
