<?xml version="1.0" encoding="UTF-8" standalone="no"?>
<svg
   xmlns:dc="http://purl.org/dc/elements/1.1/"
   xmlns:cc="http://creativecommons.org/ns#"
   xmlns:rdf="http://www.w3.org/1999/02/22-rdf-syntax-ns#"
   xmlns:svg="http://www.w3.org/2000/svg"
   xmlns="http://www.w3.org/2000/svg"
   xmlns:sodipodi="http://sodipodi.sourceforge.net/DTD/sodipodi-0.dtd"
   xmlns:inkscape="http://www.inkscape.org/namespaces/inkscape"
   width="406px"
   height="58px"
   viewBox="0 0 406 58"
   style="background-color: #ffffff00"
   version="1.1"
   id="svg118"
   sodipodi:docname="ugi.svg"
   inkscape:version="0.92.3 (2405546, 2018-03-11)">
  <metadata
     id="metadata124">
    <rdf:RDF>
      <cc:Work
         rdf:about="">
        <dc:format>image/svg+xml</dc:format>
        <dc:type
           rdf:resource="http://purl.org/dc/dcmitype/StillImage" />
      </cc:Work>
    </rdf:RDF>
  </metadata>
  <defs
     id="defs122" />
  <sodipodi:namedview
     pagecolor="#ffffff"
     bordercolor="#666666"
     borderopacity="1"
     objecttolerance="10"
     gridtolerance="10"
     guidetolerance="10"
     inkscape:pageopacity="0"
     inkscape:pageshadow="2"
     inkscape:window-width="1920"
     inkscape:window-height="1017"
     id="namedview120"
     showgrid="false"
     inkscape:zoom="5.0159298"
     inkscape:cx="187.01959"
     inkscape:cy="-31.57597"
     inkscape:window-x="-8"
     inkscape:window-y="-8"
     inkscape:window-maximized="1"
     inkscape:current-layer="svg118" />
  <g
     id="g949"
     transform="translate(0,-7.5758626)">
    <g
       id="text2"
       style="font-style:normal;font-weight:normal;font-size:160px;font-family:Arial;fill:#009e73;stroke:none"
       transform="matrix(0.0666667,0,0,0.0666667,2.86599,45.197)"
       aria-label="R">
      <path
         inkscape:connector-curvature="0"
         id="path931"
         style="font-style:normal;font-weight:normal;font-size:160px;font-family:Arial;fill:#009e73;stroke:none"
         d="m 12.578125,0 v -114.53125 h 50.78125 q 15.3125,0 23.28125,3.125 7.96875,3.04687 12.734375,10.85937 4.76563,7.812505 4.76563,17.26563 0,12.1875 -7.89063,20.546875 -7.890625,8.359375 -24.375,10.625 6.015625,2.890625 9.140625,5.703125 6.640625,6.09375 12.578125,15.234375 L 113.51563,0 H 94.453125 l -15.15625,-23.828125 q -6.640625,-10.3125 -10.9375,-15.78125 -4.296875,-5.46875 -7.734375,-7.65625 -3.359375,-2.1875 -6.875,-3.046875 -2.578125,-0.546875 -8.4375,-0.546875 H 27.734375 V 0 Z m 15.15625,-63.984375 H 60.3125 q 10.390625,0 16.25,-2.109375 5.859375,-2.1875 8.90625,-6.875 3.046875,-4.765625 3.046875,-10.3125 0,-8.125 -5.9375,-13.359375 Q 76.71875,-101.875 63.984375,-101.875 h -36.25 z" />
    </g>
    <g
       id="text4"
       style="font-style:normal;font-weight:normal;font-size:120px;font-family:Arial;fill:#009e73;stroke:none"
       transform="matrix(0.0666667,0,0,0.0666667,10.5993,40.997)"
       aria-label="1">
      <path
         inkscape:connector-curvature="0"
         id="path934"
         style="font-style:normal;font-weight:normal;font-size:120px;font-family:Arial;fill:#009e73;stroke:none"
         d="M 44.707031,0 H 34.160156 v -67.207031 q -3.808594,3.632812 -10.019531,7.265625 -6.152344,3.632812 -11.074219,5.449219 V -64.6875 q 8.847656,-4.160156 15.46875,-10.078125 6.621094,-5.917969 9.375,-11.484375 h 6.796875 z" />
    </g>
    <path
       id="path6"
       d="m 252.879,633.977 v 11.783 l -61.25,35.363 -5.102,-8.838 z"
       transform="matrix(0.0666667,0,0,0.0666667,3.16307,-9.33333)"
       inkscape:connector-curvature="0"
       style="fill:#009e73;stroke:none" />
    <g
       id="text8"
       style="font-style:normal;font-weight:normal;font-size:160px;font-family:Arial;fill:#009e73;stroke:none"
       transform="matrix(0.0666667,0,0,0.0666667,29.4441,45.197)"
       aria-label="R">
      <path
         inkscape:connector-curvature="0"
         id="path937"
         style="font-style:normal;font-weight:normal;font-size:160px;font-family:Arial;fill:#009e73;stroke:none"
         d="m 12.578125,0 v -114.53125 h 50.78125 q 15.3125,0 23.28125,3.125 7.96875,3.04687 12.734375,10.85937 4.76563,7.812505 4.76563,17.26563 0,12.1875 -7.89063,20.546875 -7.890625,8.359375 -24.375,10.625 6.015625,2.890625 9.140625,5.703125 6.640625,6.09375 12.578125,15.234375 L 113.51563,0 H 94.453125 l -15.15625,-23.828125 q -6.640625,-10.3125 -10.9375,-15.78125 -4.296875,-5.46875 -7.734375,-7.65625 -3.359375,-2.1875 -6.875,-3.046875 -2.578125,-0.546875 -8.4375,-0.546875 H 27.734375 V 0 Z m 15.15625,-63.984375 H 60.3125 q 10.390625,0 16.25,-2.109375 5.859375,-2.1875 8.90625,-6.875 3.046875,-4.765625 3.046875,-10.3125 0,-8.125 -5.9375,-13.359375 Q 76.71875,-101.875 63.984375,-101.875 h -36.25 z" />
    </g>
    <g
       id="text10"
       style="font-style:normal;font-weight:normal;font-size:120px;font-family:Arial;fill:#009e73;stroke:none"
       transform="matrix(0.0666667,0,0,0.0666667,37.1774,40.997)"
       aria-label="2">
      <path
         inkscape:connector-curvature="0"
         id="path940"
         style="font-style:normal;font-weight:normal;font-size:120px;font-family:Arial;fill:#009e73;stroke:none"
         d="M 60.410156,-10.136719 V 0 H 3.6328125 Q 3.515625,-3.8085938 4.8632812,-7.3242187 7.03125,-13.125 11.777344,-18.75 q 4.804687,-5.625 13.828125,-13.007812 14.003906,-11.484375 18.925781,-18.164063 4.921875,-6.738281 4.921875,-12.714844 0,-6.269531 -4.511719,-10.546875 -4.453125,-4.335937 -11.660156,-4.335937 -7.617188,0 -12.1875,4.570312 -4.570313,4.570313 -4.628906,12.65625 L 5.625,-61.40625 Q 6.7382812,-73.535156 14.003906,-79.863281 21.269531,-86.25 33.515625,-86.25 q 12.363281,0 19.570312,6.855469 7.207032,6.855469 7.207032,16.992187 0,5.15625 -2.109375,10.136719 -2.109375,4.980469 -7.03125,10.488281 -4.863282,5.507813 -16.230469,15.117188 -9.492188,7.96875 -12.1875,10.839843 -2.695313,2.8125 -4.453125,5.683594 z" />
    </g>
    <path
       id="path12"
       d="m 376.705,705.467 -5.102,8.838 -118.724,-68.545 v -11.783 z"
       transform="matrix(0.0666667,0,0,0.0666667,3.16307,-9.33333)"
       inkscape:connector-curvature="0"
       style="fill:#009e73;stroke:none" />
    <g
       id="text14"
       style="font-style:normal;font-weight:normal;font-size:160px;font-family:Arial;fill:#009e73;stroke:none"
       transform="matrix(0.0666667,0,0,0.0666667,15.8884,22.1797)"
       aria-label="O">
      <path
         inkscape:connector-curvature="0"
         id="path943"
         style="font-style:normal;font-weight:normal;font-size:160px;font-family:Arial;fill:#009e73;stroke:none"
         d="m 7.734375,-55.78125 q 0,-28.515625 15.3125,-44.60938 15.3125,-16.17187 39.53125,-16.17187 15.859375,0 28.59375,7.57812 12.734375,7.57813 19.375005,21.17188 6.71875,13.515625 6.71875,30.703125 0,17.421875 -7.03125,31.171875 -7.03125,13.75 -19.92188,20.859375 -12.890625,7.03125 -27.8125,7.03125 -16.171875,0 -28.90625,-7.8125 -12.734375,-7.8125 -19.296875,-21.328125 -6.5625,-13.515625 -6.5625,-28.59375 z m 15.625,0.234375 q 0,20.703125 11.09375,32.65625 11.171875,11.875 27.96875,11.875 17.109375,0 28.125,-12.03125 11.093755,-12.03125 11.093755,-34.140625 0,-13.984375 -4.76563,-24.375 -4.6875,-10.46875 -13.828125,-16.171875 -9.0625,-5.781255 -20.390625,-5.781255 -16.09375,0 -27.734375,11.093755 -11.5625,11.015625 -11.5625,36.875 z" />
    </g>
    <path
       id="path16"
       d="m 227.062,501.362 h 10.204 v 150.466 h -10.204 z"
       transform="matrix(0.0666667,0,0,0.0666667,3.16307,-9.33333)"
       inkscape:connector-curvature="0"
       style="fill:#009e73;stroke:none" />
    <path
       id="path18"
       d="m 268.493,501.362 h 10.204 v 150.466 h -10.204 z"
       transform="matrix(0.0666667,0,0,0.0666667,3.16307,-9.33333)"
       inkscape:connector-curvature="0"
       style="fill:#009e73;stroke:none" />
  </g>
  <g
     id="g961"
     transform="translate(0,-2.6700633)">
    <path
       id="path20"
       d="m 1156.82,597.964 -5.1,8.837 -31.26,-18.051 5.1,-8.838 z"
       transform="matrix(0.0666667,0,0,0.0666667,3.16307,-9.33333)"
       inkscape:connector-curvature="0"
       style="fill:#cc79a7;stroke:none" />
    <g
       id="text22"
       style="font-style:normal;font-weight:normal;font-size:160px;font-family:Arial;fill:#cc79a7;stroke:none"
       transform="matrix(0.0666667,0,0,0.0666667,81.4424,38.0245)"
       aria-label="NH">
      <path
         inkscape:connector-curvature="0"
         id="path946"
         style="font-style:normal;font-weight:normal;font-size:160px;font-family:Arial;fill:#cc79a7;stroke:none"
         d="m 12.1875,0 v -114.53125 h 15.546875 l 60.15625,89.921875 V -114.53125 H 102.42188 V 0 H 86.875 L 26.71875,-90 V 0 Z" />
      <path
         inkscape:connector-curvature="0"
         id="path948"
         style="font-style:normal;font-weight:normal;font-size:160px;font-family:Arial;fill:#cc79a7;stroke:none"
         d="m 128.4375,0 v -114.53125 h 15.15625 V -67.5 H 203.125 v -47.03125 h 15.15625 V 0 H 203.125 V -53.984375 H 143.59375 V 0 Z" />
    </g>
    <g
       id="text24"
       style="font-style:normal;font-weight:normal;font-size:120px;font-family:Arial;fill:#cc79a7;stroke:none"
       transform="matrix(0.0666667,0,0,0.0666667,96.9091,40.2912)"
       aria-label="2">
      <path
         inkscape:connector-curvature="0"
         id="path951"
         style="font-style:normal;font-weight:normal;font-size:120px;font-family:Arial;fill:#cc79a7;stroke:none"
         d="M 60.410156,-10.136719 V 0 H 3.6328125 Q 3.515625,-3.8085938 4.8632812,-7.3242187 7.03125,-13.125 11.777344,-18.75 q 4.804687,-5.625 13.828125,-13.007812 14.003906,-11.484375 18.925781,-18.164063 4.921875,-6.738281 4.921875,-12.714844 0,-6.269531 -4.511719,-10.546875 -4.453125,-4.335937 -11.660156,-4.335937 -7.617188,0 -12.1875,4.570312 -4.570313,4.570313 -4.628906,12.65625 L 5.625,-61.40625 Q 6.7382812,-73.535156 14.003906,-79.863281 21.269531,-86.25 33.515625,-86.25 q 12.363281,0 19.570312,6.855469 7.207032,6.855469 7.207032,16.992187 0,5.15625 -2.109375,10.136719 -2.109375,4.980469 -7.03125,10.488281 -4.863282,5.507813 -16.230469,15.117188 -9.492188,7.96875 -12.1875,10.839843 -2.695313,2.8125 -4.453125,5.683594 z" />
    </g>
    <g
       id="text26"
       style="font-style:normal;font-weight:normal;font-size:160px;font-family:Arial;fill:#cc79a7;stroke:none"
       transform="matrix(0.0666667,0,0,0.0666667,68.1534,30.3521)"
       aria-label="R">
      <path
         inkscape:connector-curvature="0"
         id="path954"
         style="font-style:normal;font-weight:normal;font-size:160px;font-family:Arial;fill:#cc79a7;stroke:none"
         d="m 12.578125,0 v -114.53125 h 50.78125 q 15.3125,0 23.28125,3.125 7.96875,3.04687 12.734375,10.85937 4.76563,7.812505 4.76563,17.26563 0,12.1875 -7.89063,20.546875 -7.890625,8.359375 -24.375,10.625 6.015625,2.890625 9.140625,5.703125 6.640625,6.09375 12.578125,15.234375 L 113.51563,0 H 94.453125 l -15.15625,-23.828125 q -6.640625,-10.3125 -10.9375,-15.78125 -4.296875,-5.46875 -7.734375,-7.65625 -3.359375,-2.1875 -6.875,-3.046875 -2.578125,-0.546875 -8.4375,-0.546875 H 27.734375 V 0 Z m 15.15625,-63.984375 H 60.3125 q 10.390625,0 16.25,-2.109375 5.859375,-2.1875 8.90625,-6.875 3.046875,-4.765625 3.046875,-10.3125 0,-8.125 -5.9375,-13.359375 Q 76.71875,-101.875 63.984375,-101.875 h -36.25 z" />
    </g>
    <g
       id="text28"
       style="font-style:normal;font-weight:normal;font-size:120px;font-family:Arial;fill:#cc79a7;stroke:none"
       transform="matrix(0.0666667,0,0,0.0666667,75.8867,26.1521)"
       aria-label="3">
      <path
         inkscape:connector-curvature="0"
         id="path957"
         style="font-style:normal;font-weight:normal;font-size:120px;font-family:Arial;fill:#cc79a7;stroke:none"
         d="m 5.0390625,-22.675781 10.5468755,-1.40625 q 1.816406,8.964843 6.152343,12.949218 4.394531,3.9257818 10.664063,3.9257818 7.441406,0 12.539062,-5.1562498 5.15625,-5.15625 5.15625,-12.773438 0,-7.265625 -4.746094,-11.953125 -4.746093,-4.746093 -12.070312,-4.746093 -2.988281,0 -7.441406,1.171875 l 1.171875,-9.257813 q 1.054687,0.117188 1.699218,0.117188 6.738282,0 12.128907,-3.515625 5.390625,-3.515625 5.390625,-10.839844 0,-5.800781 -3.925782,-9.609375 -3.925781,-3.808594 -10.136718,-3.808594 -6.152344,0 -10.253907,3.867188 -4.101562,3.867187 -5.273437,11.601562 l -10.546875,-1.875 Q 8.0273438,-74.589844 14.882813,-80.390625 21.738281,-86.25 31.933594,-86.25 q 7.03125,0 12.949218,3.046875 5.917969,2.988281 9.023438,8.203125 3.164062,5.214844 3.164062,11.074219 0,5.566406 -2.988281,10.136719 -2.988281,4.570312 -8.847656,7.265625 7.617187,1.757812 11.835937,7.324218 4.21875,5.507813 4.21875,13.828125 0,11.25 -8.203125,19.1015628 -8.203125,7.7929687 -20.742187,7.7929687 -11.308594,0 -18.808594,-6.7382812 Q 6.09375,-11.953125 5.0390625,-22.675781 Z" />
    </g>
  </g>
  <path
     d="m 315.00257,43.58283 h -0.68 v -3.533402 h 0.68 z"
     id="path30"
     inkscape:connector-curvature="0"
     style="fill:#56b4e9;stroke:none;stroke-width:0.0666667" />
  <path
     d="m 327.88391,26.090021 v 0.785534 l -7.95667,4.593869 -0.34067,-0.589134 z"
     id="path32"
     inkscape:connector-curvature="0"
     style="fill:#000000;stroke:none;stroke-width:0.0666667" />
  <path
     d="m 341.10525,33.723358 v 0.3928 l -0.46467,0.124467 -12.75667,-7.36507 v -0.785534 z"
     id="path34"
     inkscape:connector-curvature="0"
     style="fill:#000000;stroke:none;stroke-width:0.0666667" />
  <g
     aria-label="N"
     transform="matrix(0.0666667,0,0,0.0666667,350.45967,30.6828)"
     style="font-style:normal;font-weight:normal;font-size:160px;font-family:Arial;fill:#cc79a7;stroke:none"
     id="text36">
    <path
       d="m 12.1875,0 v -114.53125 h 15.546875 l 60.15625,89.921875 V -114.53125 H 102.42188 V 0 H 86.875 L 26.71875,-90 V 0 Z"
       style="font-style:normal;font-weight:normal;font-size:160px;font-family:Arial;fill:#cc79a7;stroke:none"
       id="path960"
       inkscape:connector-curvature="0" />
  </g>
  <path
     d="m 348.64458,29.370556 0.34,0.5892 -7.41467,4.280869 -0.46466,-0.124467 v -0.3928 z"
     id="path38"
     inkscape:connector-curvature="0"
     style="fill:#000000;stroke:none;stroke-width:0.0666667" />
  <path
     d="m 367.54793,33.723358 v 0.785534 l -7.92934,-4.578002 0.34,-0.589201 z"
     id="path40"
     inkscape:connector-curvature="0"
     style="fill:#000000;stroke:none;stroke-width:0.0666667" />
  <g
     aria-label="R"
     transform="matrix(0.0666667,0,0,0.0666667,376.90267,30.6828)"
     style="font-style:normal;font-weight:normal;font-size:160px;font-family:Arial;fill:#e69f00;stroke:none"
     id="text42">
    <path
       d="m 12.578125,0 v -114.53125 h 50.78125 q 15.3125,0 23.28125,3.125 7.96875,3.04687 12.734375,10.85937 4.76563,7.812505 4.76563,17.26563 0,12.1875 -7.89063,20.546875 -7.890625,8.359375 -24.375,10.625 6.015625,2.890625 9.140625,5.703125 6.640625,6.09375 12.578125,15.234375 L 113.51563,0 H 94.453125 l -15.15625,-23.828125 q -6.640625,-10.3125 -10.9375,-15.78125 -4.296875,-5.46875 -7.734375,-7.65625 -3.359375,-2.1875 -6.875,-3.046875 -2.578125,-0.546875 -8.4375,-0.546875 H 27.734375 V 0 Z m 15.15625,-63.984375 H 60.3125 q 10.390625,0 16.25,-2.109375 5.859375,-2.1875 8.90625,-6.875 3.046875,-4.765625 3.046875,-10.3125 0,-8.125 -5.9375,-13.359375 Q 76.71875,-101.875 63.984375,-101.875 h -36.25 z"
       style="font-style:normal;font-weight:normal;font-size:160px;font-family:Arial;fill:#e69f00;stroke:none"
       id="path963"
       inkscape:connector-curvature="0" />
  </g>
  <g
     aria-label="5"
     transform="matrix(0.0666667,0,0,0.0666667,384.63567,26.4828)"
     style="font-style:normal;font-weight:normal;font-size:120px;font-family:Arial;fill:#e69f00;stroke:none"
     id="text44">
    <path
       d="m 4.9804687,-22.5 11.0742183,-0.9375 q 1.230469,8.085937 5.683594,12.1875 4.511719,4.0429688 10.839844,4.0429688 7.617187,0 12.890625,-5.7421878 5.273437,-5.742187 5.273437,-15.234375 0,-9.023437 -5.097656,-14.238281 -5.039062,-5.214844 -13.242187,-5.214844 -5.097657,0 -9.199219,2.34375 -4.101563,2.285157 -6.445313,5.976563 l -9.9023433,-1.289063 8.3203123,-44.121093 h 42.714844 v 10.078125 H 23.613281 L 18.984375,-51.5625 q 7.734375,-5.390625 16.230469,-5.390625 11.25,0 18.984375,7.792969 7.734375,7.792969 7.734375,20.039062 0,11.660157 -6.796875,20.1562502 Q 46.875,1.4648437 32.578125,1.4648437 q -11.71875,0 -19.160156,-6.5624999 Q 6.0351562,-11.660156 4.9804687,-22.5 Z"
       style="font-style:normal;font-weight:normal;font-size:120px;font-family:Arial;fill:#e69f00;stroke:none"
       id="path966"
       inkscape:connector-curvature="0" />
  </g>
  <path
     d="m 375.08193,29.373356 0.34067,0.589134 -7.87467,4.546402 v -0.785534 z"
     id="path46"
     inkscape:connector-curvature="0"
     style="fill:#e69f00;stroke:none;stroke-width:0.0666667" />
  <g
     aria-label="O"
     transform="matrix(0.0666667,0,0,0.0666667,363.41467,53.5828)"
     style="font-style:normal;font-weight:normal;font-size:160px;font-family:Arial;fill:#e69f00;stroke:none"
     id="text48">
    <path
       d="m 7.734375,-55.78125 q 0,-28.515625 15.3125,-44.60938 15.3125,-16.17187 39.53125,-16.17187 15.859375,0 28.59375,7.57812 12.734375,7.57813 19.375005,21.17188 6.71875,13.515625 6.71875,30.703125 0,17.421875 -7.03125,31.171875 -7.03125,13.75 -19.92188,20.859375 -12.890625,7.03125 -27.8125,7.03125 -16.171875,0 -28.90625,-7.8125 -12.734375,-7.8125 -19.296875,-21.328125 -6.5625,-13.515625 -6.5625,-28.59375 z m 15.625,0.234375 q 0,20.703125 11.09375,32.65625 11.171875,11.875 27.96875,11.875 17.109375,0 28.125,-12.03125 11.093755,-12.03125 11.093755,-34.140625 0,-13.984375 -4.76563,-24.375 -4.6875,-10.46875 -13.828125,-16.171875 -9.0625,-5.781255 -20.390625,-5.781255 -16.09375,0 -27.734375,11.093755 -11.5625,11.015625 -11.5625,36.875 z"
       style="font-style:normal;font-weight:normal;font-size:160px;font-family:Arial;fill:#e69f00;stroke:none"
       id="path969"
       inkscape:connector-curvature="0" />
  </g>
  <path
     d="m 369.26193,44.16063 h -0.68067 V 33.322891 h 0.68067 z"
     id="path50"
     inkscape:connector-curvature="0"
     style="fill:#e69f00;stroke:none;stroke-width:0.0666667" />
  <path
     d="m 366.51393,44.16063 h -0.68067 V 33.322825 h 0.68067 z"
     id="path52"
     inkscape:connector-curvature="0"
     style="fill:#e69f00;stroke:none;stroke-width:0.0666667" />
  <g
     aria-label="R"
     transform="matrix(0.0666667,0,0,0.0666667,350.45967,15.4161)"
     style="font-style:normal;font-weight:normal;font-size:160px;font-family:Arial;fill:#cc79a7;stroke:none"
     id="text54">
    <path
       d="m 12.578125,0 v -114.53125 h 50.78125 q 15.3125,0 23.28125,3.125 7.96875,3.04687 12.734375,10.85937 4.76563,7.812505 4.76563,17.26563 0,12.1875 -7.89063,20.546875 -7.890625,8.359375 -24.375,10.625 6.015625,2.890625 9.140625,5.703125 6.640625,6.09375 12.578125,15.234375 L 113.51563,0 H 94.453125 l -15.15625,-23.828125 q -6.640625,-10.3125 -10.9375,-15.78125 -4.296875,-5.46875 -7.734375,-7.65625 -3.359375,-2.1875 -6.875,-3.046875 -2.578125,-0.546875 -8.4375,-0.546875 H 27.734375 V 0 Z m 15.15625,-63.984375 H 60.3125 q 10.390625,0 16.25,-2.109375 5.859375,-2.1875 8.90625,-6.875 3.046875,-4.765625 3.046875,-10.3125 0,-8.125 -5.9375,-13.359375 Q 76.71875,-101.875 63.984375,-101.875 h -36.25 z"
       style="font-style:normal;font-weight:normal;font-size:160px;font-family:Arial;fill:#cc79a7;stroke:none"
       id="path972"
       inkscape:connector-curvature="0" />
  </g>
  <g
     aria-label="3"
     transform="matrix(0.0666667,0,0,0.0666667,358.19267,11.2161)"
     style="font-style:normal;font-weight:normal;font-size:120px;font-family:Arial;fill:#cc79a7;stroke:none"
     id="text56">
    <path
       d="m 5.0390625,-22.675781 10.5468755,-1.40625 q 1.816406,8.964843 6.152343,12.949218 4.394531,3.9257818 10.664063,3.9257818 7.441406,0 12.539062,-5.1562498 5.15625,-5.15625 5.15625,-12.773438 0,-7.265625 -4.746094,-11.953125 -4.746093,-4.746093 -12.070312,-4.746093 -2.988281,0 -7.441406,1.171875 l 1.171875,-9.257813 q 1.054687,0.117188 1.699218,0.117188 6.738282,0 12.128907,-3.515625 5.390625,-3.515625 5.390625,-10.839844 0,-5.800781 -3.925782,-9.609375 -3.925781,-3.808594 -10.136718,-3.808594 -6.152344,0 -10.253907,3.867188 -4.101562,3.867187 -5.273437,11.601562 l -10.546875,-1.875 Q 8.0273438,-74.589844 14.882813,-80.390625 21.738281,-86.25 31.933594,-86.25 q 7.03125,0 12.949218,3.046875 5.917969,2.988281 9.023438,8.203125 3.164062,5.214844 3.164062,11.074219 0,5.566406 -2.988281,10.136719 -2.988281,4.570312 -8.847656,7.265625 7.617187,1.757812 11.835937,7.324218 4.21875,5.507813 4.21875,13.828125 0,11.25 -8.203125,19.1015628 -8.203125,7.7929687 -20.742187,7.7929687 -11.308594,0 -18.808594,-6.7382812 Q 6.09375,-11.953125 5.0390625,-22.675781 Z"
       style="font-style:normal;font-weight:normal;font-size:120px;font-family:Arial;fill:#cc79a7;stroke:none"
       id="path975"
       inkscape:connector-curvature="0" />
  </g>
  <path
     d="m 353.98659,17.127217 h 0.68 v 4.288935 h -0.68 z"
     id="path58"
     inkscape:connector-curvature="0"
     style="fill:#cc79a7;stroke:none;stroke-width:0.0666667" />
  <g
     aria-label="R"
     transform="matrix(0.0666667,0,0,0.0666667,344.87167,51.5374)"
     style="font-style:normal;font-weight:normal;font-size:160px;font-family:Arial;fill:#009e73;stroke:none"
     id="text60">
    <path
       d="m 12.578125,0 v -114.53125 h 50.78125 q 15.3125,0 23.28125,3.125 7.96875,3.04687 12.734375,10.85937 4.76563,7.812505 4.76563,17.26563 0,12.1875 -7.89063,20.546875 -7.890625,8.359375 -24.375,10.625 6.015625,2.890625 9.140625,5.703125 6.640625,6.09375 12.578125,15.234375 L 113.51563,0 H 94.453125 l -15.15625,-23.828125 q -6.640625,-10.3125 -10.9375,-15.78125 -4.296875,-5.46875 -7.734375,-7.65625 -3.359375,-2.1875 -6.875,-3.046875 -2.578125,-0.546875 -8.4375,-0.546875 H 27.734375 V 0 Z m 15.15625,-63.984375 H 60.3125 q 10.390625,0 16.25,-2.109375 5.859375,-2.1875 8.90625,-6.875 3.046875,-4.765625 3.046875,-10.3125 0,-8.125 -5.9375,-13.359375 Q 76.71875,-101.875 63.984375,-101.875 h -36.25 z"
       style="font-style:normal;font-weight:normal;font-size:160px;font-family:Arial;fill:#009e73;stroke:none"
       id="path978"
       inkscape:connector-curvature="0" />
  </g>
  <g
     aria-label="2"
     transform="matrix(0.0666667,0,0,0.0666667,352.60467,47.3374)"
     style="font-style:normal;font-weight:normal;font-size:120px;font-family:Arial;fill:#009e73;stroke:none"
     id="text62">
    <path
       d="M 60.410156,-10.136719 V 0 H 3.6328125 Q 3.515625,-3.8085938 4.8632812,-7.3242187 7.03125,-13.125 11.777344,-18.75 q 4.804687,-5.625 13.828125,-13.007812 14.003906,-11.484375 18.925781,-18.164063 4.921875,-6.738281 4.921875,-12.714844 0,-6.269531 -4.511719,-10.546875 -4.453125,-4.335937 -11.660156,-4.335937 -7.617188,0 -12.1875,4.570312 -4.570313,4.570313 -4.628906,12.65625 L 5.625,-61.40625 Q 6.7382812,-73.535156 14.003906,-79.863281 21.269531,-86.25 33.515625,-86.25 q 12.363281,0 19.570312,6.855469 7.207032,6.855469 7.207032,16.992187 0,5.15625 -2.109375,10.136719 -2.109375,4.980469 -7.03125,10.488281 -4.863282,5.507813 -16.230469,15.117188 -9.492188,7.96875 -12.1875,10.839843 -2.695313,2.8125 -4.453125,5.683594 z"
       style="font-style:normal;font-weight:normal;font-size:120px;font-family:Arial;fill:#009e73;stroke:none"
       id="path981"
       inkscape:connector-curvature="0" />
  </g>
  <path
     d="m 345.96325,41.850562 -0.58934,0.3402 -4.26866,-7.394337 v -0.680267 l 0.46466,0.124467 z"
     id="path64"
     inkscape:connector-curvature="0"
     style="fill:#009e73;stroke:none;stroke-width:0.0666667" />
  <g
     aria-label="O"
     transform="matrix(0.0666667,0,0,0.0666667,323.75067,15.4161)"
     style="font-style:normal;font-weight:normal;font-size:160px;font-family:Arial;fill:#e69f00;stroke:none"
     id="text66">
    <path
       d="m 7.734375,-55.78125 q 0,-28.515625 15.3125,-44.60938 15.3125,-16.17187 39.53125,-16.17187 15.859375,0 28.59375,7.57812 12.734375,7.57813 19.375005,21.17188 6.71875,13.515625 6.71875,30.703125 0,17.421875 -7.03125,31.171875 -7.03125,13.75 -19.92188,20.859375 -12.890625,7.03125 -27.8125,7.03125 -16.171875,0 -28.90625,-7.8125 -12.734375,-7.8125 -19.296875,-21.328125 -6.5625,-13.515625 -6.5625,-28.59375 z m 15.625,0.234375 q 0,20.703125 11.09375,32.65625 11.171875,11.875 27.96875,11.875 17.109375,0 28.125,-12.03125 11.093755,-12.03125 11.093755,-34.140625 0,-13.984375 -4.76563,-24.375 -4.6875,-10.46875 -13.828125,-16.171875 -9.0625,-5.781255 -20.390625,-5.781255 -16.09375,0 -27.734375,11.093755 -11.5625,11.015625 -11.5625,36.875 z"
       style="font-style:normal;font-weight:normal;font-size:160px;font-family:Arial;fill:#e69f00;stroke:none"
       id="path984"
       inkscape:connector-curvature="0" />
  </g>
  <path
     d="m 326.1699,17.327217 h 0.68001 v 9.948871 h -0.68001 z"
     id="path68"
     inkscape:connector-curvature="0"
     style="fill:#000000;stroke:none;stroke-width:0.0666667" />
  <path
     d="m 328.91791,17.327217 h 0.68 v 9.948871 h -0.68 z"
     id="path70"
     inkscape:connector-curvature="0"
     style="fill:#000000;stroke:none;stroke-width:0.0666667" />
  <g
     aria-label="R"
     transform="matrix(0.0666667,0,0,0.0666667,310.79567,53.5828)"
     style="font-style:normal;font-weight:normal;font-size:160px;font-family:Arial;fill:#56b4e9;stroke:none"
     id="text72">
    <path
       d="m 12.578125,0 v -114.53125 h 50.78125 q 15.3125,0 23.28125,3.125 7.96875,3.04687 12.734375,10.85937 4.76563,7.812505 4.76563,17.26563 0,12.1875 -7.89063,20.546875 -7.890625,8.359375 -24.375,10.625 6.015625,2.890625 9.140625,5.703125 6.640625,6.09375 12.578125,15.234375 L 113.51563,0 H 94.453125 l -15.15625,-23.828125 q -6.640625,-10.3125 -10.9375,-15.78125 -4.296875,-5.46875 -7.734375,-7.65625 -3.359375,-2.1875 -6.875,-3.046875 -2.578125,-0.546875 -8.4375,-0.546875 H 27.734375 V 0 Z m 15.15625,-63.984375 H 60.3125 q 10.390625,0 16.25,-2.109375 5.859375,-2.1875 8.90625,-6.875 3.046875,-4.765625 3.046875,-10.3125 0,-8.125 -5.9375,-13.359375 Q 76.71875,-101.875 63.984375,-101.875 h -36.25 z"
       style="font-style:normal;font-weight:normal;font-size:160px;font-family:Arial;fill:#56b4e9;stroke:none"
       id="path987"
       inkscape:connector-curvature="0" />
  </g>
  <g
     aria-label="4"
     transform="matrix(0.0666667,0,0,0.0666667,318.52867,49.3828)"
     style="font-style:normal;font-weight:normal;font-size:120px;font-family:Arial;fill:#56b4e9;stroke:none"
     id="text74">
    <path
       d="M 38.789062,0 V -20.566406 H 1.5234375 v -9.667969 L 40.722656,-85.898437 h 8.613281 v 55.664062 H 60.9375 v 9.667969 H 49.335937 V 0 Z m 0,-30.234375 v -38.730469 l -26.894531,38.730469 z"
       style="font-style:normal;font-weight:normal;font-size:120px;font-family:Arial;fill:#56b4e9;stroke:none"
       id="path990"
       inkscape:connector-curvature="0" />
  </g>
  <g
     aria-label="HN"
     transform="matrix(0.0666667,0,0,0.0666667,303.06267,38.3161)"
     style="font-style:normal;font-weight:normal;font-size:160px;font-family:Arial;fill:#56b4e9;stroke:none"
     id="text76">
    <path
       d="M 12.8125,0 V -114.53125 H 27.96875 V -67.5 H 87.5 v -47.03125 h 15.15625 V 0 H 87.5 V -53.984375 H 27.96875 V 0 Z"
       style="font-style:normal;font-weight:normal;font-size:160px;font-family:Arial;fill:#56b4e9;stroke:none"
       id="path993"
       inkscape:connector-curvature="0" />
    <path
       d="m 127.8125,0 v -114.53125 h 15.54687 l 60.15625,89.921875 v -89.921875 h 14.53125 V 0 H 202.5 L 142.34375,-90 V 0 Z"
       style="font-style:normal;font-weight:normal;font-size:160px;font-family:Arial;fill:#56b4e9;stroke:none"
       id="path995"
       inkscape:connector-curvature="0" />
  </g>
  <g
     aria-label="R"
     transform="matrix(0.0666667,0,0,0.0666667,329.60467,51.5374)"
     style="font-style:normal;font-weight:normal;font-size:160px;font-family:Arial;fill:#009e73;stroke:none"
     id="text78">
    <path
       d="m 12.578125,0 v -114.53125 h 50.78125 q 15.3125,0 23.28125,3.125 7.96875,3.04687 12.734375,10.85937 4.76563,7.812505 4.76563,17.26563 0,12.1875 -7.89063,20.546875 -7.890625,8.359375 -24.375,10.625 6.015625,2.890625 9.140625,5.703125 6.640625,6.09375 12.578125,15.234375 L 113.51563,0 H 94.453125 l -15.15625,-23.828125 q -6.640625,-10.3125 -10.9375,-15.78125 -4.296875,-5.46875 -7.734375,-7.65625 -3.359375,-2.1875 -6.875,-3.046875 -2.578125,-0.546875 -8.4375,-0.546875 H 27.734375 V 0 Z m 15.15625,-63.984375 H 60.3125 q 10.390625,0 16.25,-2.109375 5.859375,-2.1875 8.90625,-6.875 3.046875,-4.765625 3.046875,-10.3125 0,-8.125 -5.9375,-13.359375 Q 76.71875,-101.875 63.984375,-101.875 h -36.25 z"
       style="font-style:normal;font-weight:normal;font-size:160px;font-family:Arial;fill:#009e73;stroke:none"
       id="path998"
       inkscape:connector-curvature="0" />
  </g>
  <g
     aria-label="1"
     transform="matrix(0.0666667,0,0,0.0666667,337.33867,47.3374)"
     style="font-style:normal;font-weight:normal;font-size:120px;font-family:Arial;fill:#009e73;stroke:none"
     id="text80">
    <path
       d="M 44.707031,0 H 34.160156 v -67.207031 q -3.808594,3.632812 -10.019531,7.265625 -6.152344,3.632812 -11.074219,5.449219 V -64.6875 q 8.847656,-4.160156 15.46875,-10.078125 6.621094,-5.917969 9.375,-11.484375 h 6.796875 z"
       style="font-style:normal;font-weight:normal;font-size:120px;font-family:Arial;fill:#009e73;stroke:none"
       id="path1001"
       inkscape:connector-curvature="0" />
  </g>
  <path
     d="m 337.66124,40.761295 -0.58933,-0.340133 3.56867,-6.180537 0.46467,-0.124467 v 0.680267 z"
     id="path82"
     inkscape:connector-curvature="0"
     style="fill:#009e73;stroke:none;stroke-width:0.0666667" />
  <g
     aria-label="+"
     transform="matrix(0.0666667,0,0,0.0666667,51.7842,36.9149)"
     style="font-style:normal;font-weight:normal;font-size:160px;font-family:Arial;fill:#000000;stroke:none"
     id="text84">
    <path
       d="m 40.078125,-18.515625 v -31.40625 H 8.90625 v -13.125 H 40.078125 V -94.21875 h 13.28125 v 31.171875 H 84.53125 v 13.125 H 53.359375 v 31.40625 z"
       style="font-style:normal;font-weight:normal;font-size:160px;font-family:Arial;fill:#000000;stroke:none"
       id="path1004"
       inkscape:connector-curvature="0" />
  </g>
  <path
     d="m 277.48221,32.396023 h -36.61402 v -0.666667 h 36.61402 z"
     id="path86"
     inkscape:connector-curvature="0"
     style="fill:#000000;stroke:none;stroke-width:0.0666667" />
  <path
     d="m 283.36821,32.06269 c 0,0 -6.80267,1.767401 -6.80267,1.767401 0,0 0.85,-0.994134 0.85,-1.767401 0,-0.802401 -0.85,-1.834068 -0.85,-1.834068 0,0 6.80267,1.834068 6.80267,1.834068 0,0 0,0 0,0"
     id="path88"
     inkscape:connector-curvature="0"
     style="fill:#000000;stroke:none;stroke-width:0.0666667" />
  <path
     d="m 283.36821,32.06269 c 0,0 -6.80267,1.767401 -6.80267,1.767401 0,0 0.85,-0.994134 0.85,-1.767401 0,-0.802401 -0.85,-1.834068 -0.85,-1.834068 0,0 6.80267,1.834068 6.80267,1.834068 0,0 0,0 0,0"
     id="path90"
     inkscape:connector-curvature="0"
     style="fill:none;stroke:#000000;stroke-width:0.0666667" />
  <g
     aria-label="-H"
     transform="matrix(0.0666667,0,0,0.0666667,250.102,23.5627)"
     style="font-style:normal;font-weight:normal;font-size:160px;font-family:Arial;fill:#000000;stroke:none"
     id="text92">
    <path
       d="M 5.078125,-34.375 V -48.515625 H 48.28125 V -34.375 Z"
       style="font-style:normal;font-weight:normal;font-size:160px;font-family:Arial;fill:#000000;stroke:none"
       id="path1007"
       inkscape:connector-curvature="0" />
    <path
       d="M 66.25,0 V -114.53125 H 81.40625 V -67.5 h 59.53125 v -47.03125 h 15.15625 V 0 H 140.9375 V -53.984375 H 81.40625 V 0 Z"
       style="font-style:normal;font-weight:normal;font-size:160px;font-family:Arial;fill:#000000;stroke:none"
       id="path1009"
       inkscape:connector-curvature="0" />
  </g>
  <g
     aria-label="2"
     transform="matrix(0.0666667,0,0,0.0666667,261.387,25.8293)"
     style="font-style:normal;font-weight:normal;font-size:120px;font-family:Arial;fill:#000000;stroke:none"
     id="text94">
    <path
       d="M 60.410156,-10.136719 V 0 H 3.6328125 Q 3.515625,-3.8085938 4.8632812,-7.3242187 7.03125,-13.125 11.777344,-18.75 q 4.804687,-5.625 13.828125,-13.007812 14.003906,-11.484375 18.925781,-18.164063 4.921875,-6.738281 4.921875,-12.714844 0,-6.269531 -4.511719,-10.546875 -4.453125,-4.335937 -11.660156,-4.335937 -7.617188,0 -12.1875,4.570312 -4.570313,4.570313 -4.628906,12.65625 L 5.625,-61.40625 Q 6.7382812,-73.535156 14.003906,-79.863281 21.269531,-86.25 33.515625,-86.25 q 12.363281,0 19.570312,6.855469 7.207032,6.855469 7.207032,16.992187 0,5.15625 -2.109375,10.136719 -2.109375,4.980469 -7.03125,10.488281 -4.863282,5.507813 -16.230469,15.117188 -9.492188,7.96875 -12.1875,10.839843 -2.695313,2.8125 -4.453125,5.683594 z"
       style="font-style:normal;font-weight:normal;font-size:120px;font-family:Arial;fill:#000000;stroke:none"
       id="path1012"
       inkscape:connector-curvature="0" />
  </g>
  <g
     aria-label="O"
     transform="matrix(0.0666667,0,0,0.0666667,265.837,23.5627)"
     style="font-style:normal;font-weight:normal;font-size:160px;font-family:Arial;fill:#000000;stroke:none"
     id="text96">
    <path
       d="m 7.734375,-55.78125 q 0,-28.515625 15.3125,-44.60938 15.3125,-16.17187 39.53125,-16.17187 15.859375,0 28.59375,7.57812 12.734375,7.57813 19.375005,21.17188 6.71875,13.515625 6.71875,30.703125 0,17.421875 -7.03125,31.171875 -7.03125,13.75 -19.92188,20.859375 -12.890625,7.03125 -27.8125,7.03125 -16.171875,0 -28.90625,-7.8125 -12.734375,-7.8125 -19.296875,-21.328125 -6.5625,-13.515625 -6.5625,-28.59375 z m 15.625,0.234375 q 0,20.703125 11.09375,32.65625 11.171875,11.875 27.96875,11.875 17.109375,0 28.125,-12.03125 11.093755,-12.03125 11.093755,-34.140625 0,-13.984375 -4.76563,-24.375 -4.6875,-10.46875 -13.828125,-16.171875 -9.0625,-5.781255 -20.390625,-5.781255 -16.09375,0 -27.734375,11.093755 -11.5625,11.015625 -11.5625,36.875 z"
       style="font-style:normal;font-weight:normal;font-size:160px;font-family:Arial;fill:#000000;stroke:none"
       id="path1015"
       inkscape:connector-curvature="0" />
  </g>
  <g
     id="g983"
     transform="translate(0,2.3137281)">
    <g
       id="text98"
       style="font-style:normal;font-weight:normal;font-size:160px;font-family:Arial;fill:#56b4e9;stroke:none"
       transform="matrix(0.0666667,0,0,0.0666667,194.791,35.1772)"
       aria-label="R">
      <path
         inkscape:connector-curvature="0"
         id="path1018"
         style="font-style:normal;font-weight:normal;font-size:160px;font-family:Arial;fill:#56b4e9;stroke:none"
         d="m 12.578125,0 v -114.53125 h 50.78125 q 15.3125,0 23.28125,3.125 7.96875,3.04687 12.734375,10.85937 4.76563,7.812505 4.76563,17.26563 0,12.1875 -7.89063,20.546875 -7.890625,8.359375 -24.375,10.625 6.015625,2.890625 9.140625,5.703125 6.640625,6.09375 12.578125,15.234375 L 113.51563,0 H 94.453125 l -15.15625,-23.828125 q -6.640625,-10.3125 -10.9375,-15.78125 -4.296875,-5.46875 -7.734375,-7.65625 -3.359375,-2.1875 -6.875,-3.046875 -2.578125,-0.546875 -8.4375,-0.546875 H 27.734375 V 0 Z m 15.15625,-63.984375 H 60.3125 q 10.390625,0 16.25,-2.109375 5.859375,-2.1875 8.90625,-6.875 3.046875,-4.765625 3.046875,-10.3125 0,-8.125 -5.9375,-13.359375 Q 76.71875,-101.875 63.984375,-101.875 h -36.25 z" />
    </g>
    <g
       id="text100"
       style="font-style:normal;font-weight:normal;font-size:120px;font-family:Arial;fill:#56b4e9;stroke:none"
       transform="matrix(0.0666667,0,0,0.0666667,202.525,30.9772)"
       aria-label="4">
      <path
         inkscape:connector-curvature="0"
         id="path1021"
         style="font-style:normal;font-weight:normal;font-size:120px;font-family:Arial;fill:#56b4e9;stroke:none"
         d="M 38.789062,0 V -20.566406 H 1.5234375 v -9.667969 L 40.722656,-85.898437 h 8.613281 v 55.664062 H 60.9375 v 9.667969 H 49.335937 V 0 Z m 0,-30.234375 v -38.730469 l -26.894531,38.730469 z" />
    </g>
    <g
       id="text102"
       style="font-style:normal;font-weight:normal;font-size:160px;font-family:Arial;fill:#56b4e9;stroke:none"
       transform="matrix(0.0666667,0,0,0.0666667,206.991,35.1772)"
       aria-label="NC">
      <path
         inkscape:connector-curvature="0"
         id="path1024"
         style="font-style:normal;font-weight:normal;font-size:160px;font-family:Arial;fill:#56b4e9;stroke:none"
         d="m 12.1875,0 v -114.53125 h 15.546875 l 60.15625,89.921875 V -114.53125 H 102.42188 V 0 H 86.875 L 26.71875,-90 V 0 Z" />
      <path
         inkscape:connector-curvature="0"
         id="path1026"
         style="font-style:normal;font-weight:normal;font-size:160px;font-family:Arial;fill:#56b4e9;stroke:none"
         d="m 209.6875,-40.15625 15.15625,3.828125 q -4.76563,18.671875 -17.1875,28.515625 -12.34375,9.765625 -30.23438,9.765625 -18.51562,0 -30.15625,-7.5 -11.5625,-7.578125 -17.65625,-21.875 -6.01562,-14.296875 -6.01562,-30.703125 0,-17.890625 6.79687,-31.171875 6.875,-13.359375 19.45313,-20.234375 12.65625,-6.95313 27.8125,-6.95313 17.1875,0 28.90625,8.75 11.71875,8.750005 16.32812,24.60938 l -14.92187,3.515625 q -3.98438,-12.5 -11.5625,-18.203125 -7.57813,-5.70313 -19.0625,-5.70313 -13.20313,0 -22.10938,6.32813 -8.82812,6.328125 -12.42187,17.03125 -3.59375,10.625 -3.59375,21.953125 0,14.609375 4.21875,25.546875 4.29687,10.859375 13.28125,16.25 8.98437,5.390625 19.45312,5.390625 12.73438,0 21.5625,-7.34375 8.82813,-7.34375 11.95313,-21.796875 z" />
    </g>
  </g>
  <g
     id="g974"
     transform="translate(0,0.4395367)">
    <g
       id="text104"
       style="font-style:normal;font-weight:normal;font-size:160px;font-family:Arial;fill:#e69f00;stroke:none"
       transform="matrix(0.0666667,0,0,0.0666667,127.868,34.9149)"
       aria-label="R">
      <path
         inkscape:connector-curvature="0"
         id="path1029"
         style="font-style:normal;font-weight:normal;font-size:160px;font-family:Arial;fill:#e69f00;stroke:none"
         d="m 12.578125,0 v -114.53125 h 50.78125 q 15.3125,0 23.28125,3.125 7.96875,3.04687 12.734375,10.85937 4.76563,7.812505 4.76563,17.26563 0,12.1875 -7.89063,20.546875 -7.890625,8.359375 -24.375,10.625 6.015625,2.890625 9.140625,5.703125 6.640625,6.09375 12.578125,15.234375 L 113.51563,0 H 94.453125 l -15.15625,-23.828125 q -6.640625,-10.3125 -10.9375,-15.78125 -4.296875,-5.46875 -7.734375,-7.65625 -3.359375,-2.1875 -6.875,-3.046875 -2.578125,-0.546875 -8.4375,-0.546875 H 27.734375 V 0 Z m 15.15625,-63.984375 H 60.3125 q 10.390625,0 16.25,-2.109375 5.859375,-2.1875 8.90625,-6.875 3.046875,-4.765625 3.046875,-10.3125 0,-8.125 -5.9375,-13.359375 Q 76.71875,-101.875 63.984375,-101.875 h -36.25 z" />
    </g>
    <g
       id="text106"
       style="font-style:normal;font-weight:normal;font-size:120px;font-family:Arial;fill:#e69f00;stroke:none"
       transform="matrix(0.0666667,0,0,0.0666667,135.602,30.7149)"
       aria-label="5">
      <path
         inkscape:connector-curvature="0"
         id="path1032"
         style="font-style:normal;font-weight:normal;font-size:120px;font-family:Arial;fill:#e69f00;stroke:none"
         d="m 4.9804687,-22.5 11.0742183,-0.9375 q 1.230469,8.085937 5.683594,12.1875 4.511719,4.0429688 10.839844,4.0429688 7.617187,0 12.890625,-5.7421878 5.273437,-5.742187 5.273437,-15.234375 0,-9.023437 -5.097656,-14.238281 -5.039062,-5.214844 -13.242187,-5.214844 -5.097657,0 -9.199219,2.34375 -4.101563,2.285157 -6.445313,5.976563 l -9.9023433,-1.289063 8.3203123,-44.121093 h 42.714844 v 10.078125 H 23.613281 L 18.984375,-51.5625 q 7.734375,-5.390625 16.230469,-5.390625 11.25,0 18.984375,7.792969 7.734375,7.792969 7.734375,20.039062 0,11.660157 -6.796875,20.1562502 Q 46.875,1.4648437 32.578125,1.4648437 q -11.71875,0 -19.160156,-6.5624999 Q 6.0351562,-11.660156 4.9804687,-22.5 Z" />
    </g>
    <g
       id="text108"
       style="font-style:normal;font-weight:normal;font-size:160px;font-family:Arial;fill:#e69f00;stroke:none"
       transform="matrix(0.0666667,0,0,0.0666667,140.068,34.9149)"
       aria-label="CO">
      <path
         inkscape:connector-curvature="0"
         id="path1035"
         style="font-style:normal;font-weight:normal;font-size:160px;font-family:Arial;fill:#e69f00;stroke:none"
         d="m 94.0625,-40.15625 15.15625,3.828125 Q 104.45313,-17.65625 92.03125,-7.8125 79.6875,1.953125 61.796875,1.953125 q -18.515625,0 -30.15625,-7.5 -11.5625,-7.578125 -17.65625,-21.875 Q 7.96875,-41.71875 7.96875,-58.125 q 0,-17.890625 6.796875,-31.171875 6.875,-13.359375 19.453125,-20.234375 12.65625,-6.95313 27.8125,-6.95313 17.1875,0 28.90625,8.75 11.71875,8.750005 16.32813,24.60938 l -14.92188,3.515625 q -3.984375,-12.5 -11.5625,-18.203125 -7.578125,-5.70313 -19.0625,-5.70313 -13.203125,0 -22.109375,6.32813 -8.828125,6.328125 -12.421875,17.03125 -3.59375,10.625 -3.59375,21.953125 0,14.609375 4.21875,25.546875 4.296875,10.859375 13.28125,16.25 8.984375,5.390625 19.453125,5.390625 12.734375,0 21.5625,-7.34375 8.828125,-7.34375 11.953125,-21.796875 z" />
      <path
         inkscape:connector-curvature="0"
         id="path1037"
         style="font-style:normal;font-weight:normal;font-size:160px;font-family:Arial;fill:#e69f00;stroke:none"
         d="m 123.35938,-55.78125 q 0,-28.515625 15.31249,-44.60938 15.3125,-16.17187 39.53125,-16.17187 15.85938,0 28.59375,7.57812 12.73438,7.57813 19.375,21.17188 6.71875,13.515625 6.71875,30.703125 0,17.421875 -7.03125,31.171875 -7.03125,13.75 -19.92187,20.859375 -12.89063,7.03125 -27.8125,7.03125 -16.17188,0 -28.90625,-7.8125 -12.73438,-7.8125 -19.29688,-21.328125 -6.56249,-13.515625 -6.56249,-28.59375 z m 15.62499,0.234375 q 0,20.703125 11.09375,32.65625 11.17188,11.875 27.96875,11.875 17.10938,0 28.125,-12.03125 11.09375,-12.03125 11.09375,-34.140625 0,-13.984375 -4.76562,-24.375 -4.6875,-10.46875 -13.82813,-16.171875 -9.0625,-5.781255 -20.39062,-5.781255 -16.09375,0 -27.73438,11.093755 -11.5625,11.015625 -11.5625,36.875 z" />
    </g>
    <g
       id="text110"
       style="font-style:normal;font-weight:normal;font-size:120px;font-family:Arial;fill:#e69f00;stroke:none"
       transform="matrix(0.0666667,0,0,0.0666667,156.099,37.1816)"
       aria-label="2">
      <path
         inkscape:connector-curvature="0"
         id="path1040"
         style="font-style:normal;font-weight:normal;font-size:120px;font-family:Arial;fill:#e69f00;stroke:none"
         d="M 60.410156,-10.136719 V 0 H 3.6328125 Q 3.515625,-3.8085938 4.8632812,-7.3242187 7.03125,-13.125 11.777344,-18.75 q 4.804687,-5.625 13.828125,-13.007812 14.003906,-11.484375 18.925781,-18.164063 4.921875,-6.738281 4.921875,-12.714844 0,-6.269531 -4.511719,-10.546875 -4.453125,-4.335937 -11.660156,-4.335937 -7.617188,0 -12.1875,4.570312 -4.570313,4.570313 -4.628906,12.65625 L 5.625,-61.40625 Q 6.7382812,-73.535156 14.003906,-79.863281 21.269531,-86.25 33.515625,-86.25 q 12.363281,0 19.570312,6.855469 7.207032,6.855469 7.207032,16.992187 0,5.15625 -2.109375,10.136719 -2.109375,4.980469 -7.03125,10.488281 -4.863282,5.507813 -16.230469,15.117188 -9.492188,7.96875 -12.1875,10.839843 -2.695313,2.8125 -4.453125,5.683594 z" />
    </g>
    <g
       id="text112"
       style="font-style:normal;font-weight:normal;font-size:160px;font-family:Arial;fill:#e69f00;stroke:none"
       transform="matrix(0.0666667,0,0,0.0666667,160.549,34.9149)"
       aria-label="H">
      <path
         inkscape:connector-curvature="0"
         id="path1043"
         style="font-style:normal;font-weight:normal;font-size:160px;font-family:Arial;fill:#e69f00;stroke:none"
         d="M 12.8125,0 V -114.53125 H 27.96875 V -67.5 H 87.5 v -47.03125 h 15.15625 V 0 H 87.5 V -53.984375 H 27.96875 V 0 Z" />
    </g>
  </g>
  <g
     aria-label="+"
     transform="matrix(0.0666667,0,0,0.0666667,111.499,36.9149)"
     style="font-style:normal;font-weight:normal;font-size:160px;font-family:Arial;fill:#000000;stroke:none"
     id="text114">
    <path
       d="m 40.078125,-18.515625 v -31.40625 H 8.90625 v -13.125 H 40.078125 V -94.21875 h 13.28125 v 31.171875 H 84.53125 v 13.125 H 53.359375 v 31.40625 z"
       style="font-style:normal;font-weight:normal;font-size:160px;font-family:Arial;fill:#000000;stroke:none"
       id="path1046"
       inkscape:connector-curvature="0" />
  </g>
  <g
     aria-label="+"
     transform="matrix(0.0666667,0,0,0.0666667,178.422,36.9149)"
     style="font-style:normal;font-weight:normal;font-size:160px;font-family:Arial;fill:#000000;stroke:none"
     id="text116">
    <path
       d="m 40.078125,-18.515625 v -31.40625 H 8.90625 v -13.125 H 40.078125 V -94.21875 h 13.28125 v 31.171875 H 84.53125 v 13.125 H 53.359375 v 31.40625 z"
       style="font-style:normal;font-weight:normal;font-size:160px;font-family:Arial;fill:#000000;stroke:none"
       id="path1049"
       inkscape:connector-curvature="0" />
  </g>
  <text
     xml:space="preserve"
     style="font-style:normal;font-variant:normal;font-weight:normal;font-stretch:normal;font-size:10.66666698px;line-height:1.25;font-family:Arial;-inkscape-font-specification:Arial;text-align:start;letter-spacing:0px;word-spacing:0px;text-anchor:start;fill:#000000;fill-opacity:1;stroke:none"
     x="3.7045321"
     y="51.205212"
     id="text1701"><tspan
       sodipodi:role="line"
       id="tspan1699"
       x="3.7045321"
       y="51.205212">\cmpd{ketone}</tspan></text>
  <text
     xml:space="preserve"
     style="font-style:normal;font-variant:normal;font-weight:normal;font-stretch:normal;font-size:10.66666698px;line-height:1.25;font-family:Arial;-inkscape-font-specification:Arial;text-align:start;letter-spacing:0px;word-spacing:0px;text-anchor:start;fill:#000000;fill-opacity:1;stroke:none"
     x="68.991943"
     y="51.205212"
     id="text1701-9"><tspan
       sodipodi:role="line"
       id="tspan1699-7"
       x="68.991943"
       y="51.205212">\cmpd{amine}</tspan></text>
  <text
     xml:space="preserve"
     style="font-style:normal;font-variant:normal;font-weight:normal;font-stretch:normal;font-size:10.66666698px;line-height:1.25;font-family:Arial;-inkscape-font-specification:Arial;text-align:start;letter-spacing:0px;word-spacing:0px;text-anchor:start;fill:#000000;fill-opacity:1;stroke:none"
     x="195.62955"
     y="51.205212"
     id="text1701-9-5-8-6-1"><tspan
       sodipodi:role="line"
       id="tspan1699-7-9-1-8-3"
       x="195.62955"
       y="51.205212">\cmpd{isocyanide}</tspan></text>
  <text
     xml:space="preserve"
     style="font-style:normal;font-variant:normal;font-weight:normal;font-stretch:normal;font-size:10.66666698px;line-height:1.25;font-family:Arial;-inkscape-font-specification:Arial;text-align:start;letter-spacing:0px;word-spacing:0px;text-anchor:start;fill:#000000;fill-opacity:1;stroke:none"
     x="385.07407"
     y="51.205212"
     id="text1701-9-5-8-6-0-9-6"><tspan
       sodipodi:role="line"
       id="tspan1699-7-9-1-8-1-2-3"
       x="385.07407"
       y="51.205212">\cmpd{ugi-product}</tspan></text>
  <text
     xml:space="preserve"
     style="font-style:normal;font-variant:normal;font-weight:normal;font-stretch:normal;font-size:10.66666698px;line-height:1.25;font-family:Arial;-inkscape-font-specification:Arial;text-align:start;letter-spacing:0px;word-spacing:0px;text-anchor:start;fill:#000000;fill-opacity:1;stroke:none"
     x="128.70654"
     y="51.205212"
     id="text927"><tspan
       sodipodi:role="line"
       id="tspan925"
       x="128.70654"
       y="51.205212">\cmpd{carboxylic-acid}</tspan></text>
  <text
     xml:space="preserve"
     style="font-style:normal;font-variant:normal;font-weight:normal;font-stretch:normal;font-size:10.66666698px;line-height:1.25;font-family:Arial;-inkscape-font-specification:Arial;text-align:start;letter-spacing:0px;word-spacing:0px;text-anchor:start;fill:#000000;fill-opacity:1;stroke:none"
     x="79.944443"
     y="28.450027"
     id="text937"><tspan
       sodipodi:role="line"
       id="tspan935"
       x="79.944443"
       y="38.058075"></tspan></text>
</svg>
